<?xml version="1.0" encoding="UTF-8" standalone="no"?>
<svg
   width="22"
   height="22"
   version="1.1"
   id="svg1"
   sodipodi:docname="network-wired.svg"
   inkscape:version="1.3.2 (091e20ef0f, 2023-11-25, custom)"
   xmlns:inkscape="http://www.inkscape.org/namespaces/inkscape"
   xmlns:sodipodi="http://sodipodi.sourceforge.net/DTD/sodipodi-0.dtd"
   xmlns="http://www.w3.org/2000/svg"
   xmlns:svg="http://www.w3.org/2000/svg">
  <sodipodi:namedview
     id="namedview1"
     pagecolor="#c8c8c8"
     bordercolor="#000000"
     borderopacity="0.25"
     inkscape:showpageshadow="2"
     inkscape:pageopacity="0.0"
     inkscape:pagecheckerboard="0"
     inkscape:deskcolor="#d1d1d1"
     showgrid="true"
     inkscape:zoom="17"
     inkscape:cx="7.3823529"
     inkscape:cy="12.411765"
     inkscape:window-width="1920"
     inkscape:window-height="955"
     inkscape:window-x="0"
     inkscape:window-y="34"
     inkscape:window-maximized="1"
     inkscape:current-layer="svg1">
    <inkscape:grid
       id="grid1"
       units="px"
       originx="0"
       originy="0"
       spacingx="1"
       spacingy="1"
       empcolor="#0099e5"
       empopacity="0.30196078"
       color="#0099e5"
       opacity="0.14901961"
       empspacing="5"
       dotted="false"
       gridanglex="30"
       gridanglez="30"
       visible="true" />
  </sodipodi:namedview>
  <defs
     id="defs1">
    <style
       id="current-color-scheme"
       type="text/css">.ColorScheme-Text {
        color:#363636;
      }</style>
  </defs>
  <g
     id="g2">
    <g
       id="g1">
      <path
         class="ColorScheme-Text"
         d="M 5,4 C 3.892,4 3,4.892 3,6 v 8 c 0,1.108 0.892,2 2,2 h 2 c 0,1.108 0.892,2 2,2 h 4 c 1.108,0 2,-0.892 2,-2 h 2 c 1.108,0 2,-0.892 2,-2 V 6 C 19,4.892 18.108,4 17,4 Z m 0,1 h 12 c 0.554,0 1,0.446 1,1 v 8 c 0,0.554 -0.446,1 -1,1 h -3 v 1 c 0,0.554 -0.446,1 -1,1 H 9 C 8.446,17 8,16.554 8,16 V 15 H 5 C 4.446,15 4,14.554 4,14 V 6 C 4,5.446 4.446,5 5,5 Z"
         fill="currentColor"
         id="path1-2"
         style="color:#ffffff" />
      <path
         class="ColorScheme-Text"
         d="M 8.5,8 C 8.223,8 8,8.223 8,8.5 v 3 C 8,11.777 8.223,12 8.5,12 8.777,12 9,11.777 9,11.5 v -3 C 9,8.223 8.777,8 8.5,8 Z m 5,0 C 13.223,8 13,8.223 13,8.5 v 3 c 0,0.277 0.223,0.5 0.5,0.5 0.277,0 0.5,-0.223 0.5,-0.5 v -3 C 14,8.223 13.777,8 13.5,8 Z"
         fill="currentColor"
         id="path2"
         style="color:#ffffff" />
    </g>
  </g>
</svg>
