<?xml version="1.0" encoding="UTF-8" standalone="no"?>
<svg
   width="64"
   height="64"
   version="1.1"
   id="svg18"
   sodipodi:docname="folder-games.svg"
   inkscape:version="1.4 (e7c3feb100, 2024-10-09)"
   xmlns:inkscape="http://www.inkscape.org/namespaces/inkscape"
   xmlns:sodipodi="http://sodipodi.sourceforge.net/DTD/sodipodi-0.dtd"
   xmlns="http://www.w3.org/2000/svg"
   xmlns:svg="http://www.w3.org/2000/svg">
  <sodipodi:namedview
     id="namedview18"
     pagecolor="#505050"
     bordercolor="#eeeeee"
     borderopacity="1"
     inkscape:showpageshadow="0"
     inkscape:pageopacity="0"
     inkscape:pagecheckerboard="0"
     inkscape:deskcolor="#505050"
     inkscape:zoom="4.1321553"
     inkscape:cx="29.524544"
     inkscape:cy="41.140758"
     inkscape:window-width="1920"
     inkscape:window-height="1051"
     inkscape:window-x="0"
     inkscape:window-y="0"
     inkscape:window-maximized="1"
     inkscape:current-layer="svg18" />
  <defs
     id="defs13">
    <linearGradient
       id="c"
       x1="8.467"
       x2="8.467"
       y1="293.3"
       y2="292.77"
       gradientTransform="matrix(3.7794,0,0,3.7794,75.868398,-1058.5)"
       gradientUnits="userSpaceOnUse">
      <stop
         offset="0"
         stop-opacity=".1"
         id="stop1" />
      <stop
         offset="1"
         stop-color="#fff"
         stop-opacity=".15"
         id="stop2" />
    </linearGradient>
    <linearGradient
       id="d"
       x1="8.467"
       x2="8.467"
       y1="294.62"
       y2="293.56"
       gradientTransform="matrix(3.7794,0,0,3.7794,75.869398,-1058.5)"
       gradientUnits="userSpaceOnUse">
      <stop
         offset="0"
         stop-opacity=".1"
         id="stop3" />
      <stop
         offset=".5"
         stop-opacity=".05"
         id="stop4" />
      <stop
         offset="1"
         stop-color="#fff"
         stop-opacity=".15"
         id="stop5" />
    </linearGradient>
    <linearGradient
       id="a"
       x1="6.879"
       x2="6.879"
       y1="285.36"
       y2="283.77"
       gradientTransform="matrix(3.7794,0,0,3.7794,75.869398,-1058.5)"
       gradientUnits="userSpaceOnUse">
      <stop
         offset="0"
         id="stop6" />
      <stop
         offset="1"
         stop-opacity=".2"
         id="stop7" />
    </linearGradient>
    <linearGradient
       id="b"
       x1="1.058"
       x2="15.875"
       y1="289.59"
       y2="289.59"
       gradientTransform="matrix(3.7794,0,0,3.7794,75.868398,-1058.5)"
       gradientUnits="userSpaceOnUse">
      <stop
         offset="0"
         stop-opacity=".1"
         id="stop8" />
      <stop
         offset=".108"
         stop-opacity="0"
         id="stop9" />
      <stop
         offset=".894"
         stop-opacity="0"
         id="stop10" />
      <stop
         offset="1"
         stop-opacity=".1"
         id="stop11" />
    </linearGradient>
    <linearGradient
       id="e"
       x1="8.467"
       x2="8.467"
       y1="4.498"
       y2="9.985"
       gradientTransform="matrix(3.7794,0,0,3.7794,75.869398,0)"
       gradientUnits="userSpaceOnUse">
      <stop
         offset="0"
         id="stop12" />
      <stop
         offset="1"
         stop-opacity="0"
         id="stop13" />
    </linearGradient>
    <filter
       id="filter1733"
       x="-0.010999908"
       y="-0.013200229"
       width="1.0219998"
       height="1.0264005"
       color-interpolation-filters="sRGB">
      <feGaussianBlur
         stdDeviation="0.072761339"
         id="feGaussianBlur880" />
    </filter>
    <filter
       id="filter935"
       x="-0.014849913"
       y="-0.14849988"
       width="1.0296998"
       height="1.2969998"
       color-interpolation-filters="sRGB">
      <feGaussianBlur
         stdDeviation="0.098224626"
         id="feGaussianBlur883" />
    </filter>
    <filter
       id="filter1733-6"
       x="-0.010999908"
       y="-0.013200229"
       width="1.0219998"
       height="1.0264005"
       color-interpolation-filters="sRGB">
      <feGaussianBlur
         stdDeviation="0.072761339"
         id="feGaussianBlur880-8" />
    </filter>
    <filter
       id="filter935-6"
       x="-0.014849913"
       y="-0.14849988"
       width="1.0296998"
       height="1.2969998"
       color-interpolation-filters="sRGB">
      <feGaussianBlur
         stdDeviation="0.098224626"
         id="feGaussianBlur883-6" />
    </filter>
    <filter
       id="filter2076-6"
       x="-0.048000001"
       y="-0.048000001"
       width="1.096"
       height="1.096"
       color-interpolation-filters="sRGB">
      <feGaussianBlur
         stdDeviation="1.1"
         id="feGaussianBlur1" />
    </filter>
  </defs>
  <g
     id="g5"
     transform="scale(3.779602)">
    <rect
       transform="matrix(0.26458,0,0,0.26458,-6e-5,-5.97e-5)"
       x="4.5"
       y="4.5"
       width="55"
       height="55"
       rx="13.002"
       ry="13.002"
       filter="url(#filter2076-6)"
       opacity="0.3"
       id="rect1" />
    <path
       d="m 4.6305,1.1905 c -1.9058,0 -3.44,1.5342 -3.44,3.44 v 7.6717 c 0,1.9058 1.5342,3.44 3.44,3.44 h 7.6717 c 1.9058,0 3.44,-1.5342 3.44,-3.44 V 4.6305 c 0,-1.9058 -1.5342,-3.44 -3.44,-3.44 z"
       fill="#1964ff"
       stroke-linecap="round"
       stroke-width="0.079373"
       style="paint-order:stroke fill markers"
       id="path1" />
    <path
       d="M 4.8517,2.778 C 3.7029,2.778 2.778,3.70298 2.778,4.8517 v 7.2294 c 0,1.1488 0.92498,2.0737 2.0737,2.0737 h 7.2294 c 1.1488,0 2.0737,-0.92498 2.0737,-2.0737 V 4.8517 c 0,-1.1488 -0.92498,-2.0737 -2.0737,-2.0737 z"
       fill="#fafafa"
       stroke-linecap="round"
       stroke-width="0.079373"
       style="paint-order:stroke fill markers"
       id="path2" />
    <path
       d="m 4.2635,4.2276 c 0.005,0.04062 0.0099,0.08118 0.01548,0.12163 h 8.376 c 0.0052,-0.0437 0.0097,-0.07849 0.01437,-0.12163 z"
       fill="#198cff"
       opacity="0.6"
       stroke-width="0.67718"
       style="paint-order:normal"
       id="path3" />
    <path
       d="m 1.7522,3.5898 c -0.31183,0 -0.56274,0.25092 -0.56274,0.56274 v 1.8278 c 0,0.02268 0.0041,0.04418 0.0067,0.06615 -0.0055,0.54053 -0.0052,1.1567 -0.0052,1.9652 v 0.22427 h -5.16e-4 v 4.0663 c 0,0.03645 0.0041,0.07184 0.0052,0.108 0.002,0.05118 0.0031,0.10258 0.0078,0.15296 0.12639,1.6956 1.4693,3.0388 3.1646,3.1662 0.08518,0.0081 0.17144,0.0128 0.25941,0.01292 0.0012,3e-6 0.0024,0 0.0036,0 h 7.6717 c 0.08936,0 0.17707,-0.0047 0.26354,-0.01292 1.691,-0.12755 3.0311,-1.4649 3.1625,-3.1548 0.0087,-0.08956 0.01395,-0.18019 0.01395,-0.27233 v -4.1439 c 1.6e-5,-0.0018 5.17e-4,-0.0034 5.17e-4,-0.0052 v -1.8278 c 0,-0.31183 -0.25092,-0.56274 -0.56274,-0.56274 h -6.0068 c -0.27152,0 -0.48409,-0.01833 -0.66041,-0.06511 C 8.336991,5.65076 8.197241,5.57527 8.072521,5.4619 7.947801,5.34853 7.837871,5.1971 7.721131,4.99734 7.604391,4.79757 7.480771,4.54988 7.328401,4.24391 7.254911,4.0631 7.152281,3.93164 7.040051,3.83671 6.927821,3.74178 6.806201,3.68323 6.693311,3.64706 6.467531,3.57472 6.278361,3.5928 6.278361,3.5928 h -2.5533 C 3.714581,3.592225 3.704701,3.5897 3.694051,3.5897 h -0.91517 z"
       fill="#198cff"
       stroke-width="0.26458"
       id="path4" />
  </g>
  <path
     fill-rule="evenodd"
     d="m 29.254261,39.757066 -0.801761,0.80176 v -1.592551 z m 12.247785,-6.259514 h 0.05983 a 0.55843999,0.55843999 0 0 1 0.425811,0.20044 c 2.50201,2.592757 3.826311,8.221035 3.54011,11.987513 a 7.5788284,7.5788284 0 0 1 -0.625253,2.649598 c -0.383927,0.790791 -0.938379,1.309343 -1.680306,1.445961 -0.945359,0.174512 -2.126061,-0.324095 -3.546094,-1.765069 q -0.275228,-0.27922 -0.568409,-0.566418 A 16.454035,16.454035 0 0 1 37.159178,45.283628 H 26.843999 a 15.955428,15.955428 0 0 1 -1.95454,2.172929 q -0.289192,0.284207 -0.563426,0.55844 c -1.419038,1.445961 -2.600737,1.944568 -3.546096,1.767064 C 20.038009,49.651426 19.481564,49.1239 19.097636,48.342084 A 7.5788284,7.5788284 0 0 1 18.47338,45.692485 c -0.292183,-3.791408 1.044084,-9.452594 3.582991,-12.024409 a 0.54846785,0.54846785 0 0 1 0.392903,-0.165538 h 0.06183 c 1.565626,-2.15498 5.078814,-2.176918 6.644436,0 h 1.746122 c -0.134624,-3.303771 0.781816,-4.131458 2.135035,-4.224199 a 6.9804999,6.9804999 0 0 1 1.545683,0.143598 c 1.02713,0.169527 2.163955,0.358 2.969704,-0.441765 a 0.54846785,0.54846785 0 0 1 0.781816,0 0.5524567,0.5524567 0 0 1 0,0.781816 c -1.207627,1.205632 -2.649599,0.969292 -3.930022,0.754891 a 5.9832856,5.9832856 0 0 0 -1.300367,-0.129638 c -0.730958,0.04787 -1.216602,0.66215 -1.104914,3.117292 h 2.851036 c 1.56064,-2.161961 5.078812,-2.167944 6.643441,0 z m -14.41373,3.481275 v 1.470891 h 1.470886 c 1.665348,0 1.665348,2.516969 0,2.516969 h -1.470886 v 1.470891 c 0,1.665348 -2.516968,1.665348 -2.516968,0 v -1.468897 h -1.470894 c -1.665347,0 -1.665347,-2.516968 0,-2.516968 h 1.470894 v -1.471889 c 0,-1.665347 2.516968,-1.665347 2.516968,0 m 11.498873,-1.280423 a 1.1617546,1.1617546 0 1 1 -1.642412,0 1.1597602,1.1597602 0 0 1 1.642412,0 m 0,5.065849 a 1.1617546,1.1617546 0 1 1 -1.642412,0 1.1597602,1.1597602 0 0 1 1.642412,0 m 2.786217,-2.650596 a 1.1617546,1.1617546 0 1 1 -1.642412,0 1.163749,1.163749 0 0 1 1.642412,0 m -5.574428,0 a 1.1617546,1.1617546 0 1 1 -1.643409,0 1.1597602,1.1597602 0 0 1 1.643409,0 m -9.936238,-1.739141 0.800763,0.800763 h -1.593548 l 0.80176,-0.800763 z m -3.367595,3.38255 0.797772,0.801761 v -1.592552 l -0.80176,0.801761 z m 3.37657,3.373576 0.800763,-0.80176 h -1.602523 z"
     class="cls-1"
     opacity="0.15"
     id="path6"
     style="opacity:1;fill:#ffffff;fill-opacity:1;stroke-width:0.997214" />
</svg>
