<?xml version="1.0" encoding="UTF-8" standalone="no"?>
<svg
   width="64"
   height="64"
   version="1.1"
   id="svg18"
   sodipodi:docname="folder-vbox.svg"
   inkscape:version="1.4 (e7c3feb100, 2024-10-09)"
   xmlns:inkscape="http://www.inkscape.org/namespaces/inkscape"
   xmlns:sodipodi="http://sodipodi.sourceforge.net/DTD/sodipodi-0.dtd"
   xmlns="http://www.w3.org/2000/svg"
   xmlns:svg="http://www.w3.org/2000/svg">
  <sodipodi:namedview
     id="namedview18"
     pagecolor="#505050"
     bordercolor="#eeeeee"
     borderopacity="1"
     inkscape:showpageshadow="0"
     inkscape:pageopacity="0"
     inkscape:pagecheckerboard="0"
     inkscape:deskcolor="#505050"
     inkscape:zoom="5.84375"
     inkscape:cx="41.754011"
     inkscape:cy="42.096257"
     inkscape:window-width="1920"
     inkscape:window-height="1051"
     inkscape:window-x="0"
     inkscape:window-y="0"
     inkscape:window-maximized="1"
     inkscape:current-layer="svg18" />
  <defs
     id="defs13">
    <linearGradient
       id="c"
       x1="8.467"
       x2="8.467"
       y1="293.3"
       y2="292.77"
       gradientTransform="matrix(3.7794,0,0,3.7794,83.491539,-1058.5)"
       gradientUnits="userSpaceOnUse">
      <stop
         offset="0"
         stop-opacity=".1"
         id="stop1" />
      <stop
         offset="1"
         stop-color="#fff"
         stop-opacity=".15"
         id="stop2" />
    </linearGradient>
    <linearGradient
       id="d"
       x1="8.467"
       x2="8.467"
       y1="294.62"
       y2="293.56"
       gradientTransform="matrix(3.7794,0,0,3.7794,83.492539,-1058.5)"
       gradientUnits="userSpaceOnUse">
      <stop
         offset="0"
         stop-opacity=".1"
         id="stop3" />
      <stop
         offset=".5"
         stop-opacity=".05"
         id="stop4" />
      <stop
         offset="1"
         stop-color="#fff"
         stop-opacity=".15"
         id="stop5" />
    </linearGradient>
    <linearGradient
       id="a"
       x1="6.879"
       x2="6.879"
       y1="285.36"
       y2="283.77"
       gradientTransform="matrix(3.7794,0,0,3.7794,83.492539,-1058.5)"
       gradientUnits="userSpaceOnUse">
      <stop
         offset="0"
         id="stop6" />
      <stop
         offset="1"
         stop-opacity=".2"
         id="stop7" />
    </linearGradient>
    <linearGradient
       id="b"
       x1="1.058"
       x2="15.875"
       y1="289.59"
       y2="289.59"
       gradientTransform="matrix(3.7794,0,0,3.7794,83.491539,-1058.5)"
       gradientUnits="userSpaceOnUse">
      <stop
         offset="0"
         stop-opacity=".1"
         id="stop8" />
      <stop
         offset=".108"
         stop-opacity="0"
         id="stop9" />
      <stop
         offset=".894"
         stop-opacity="0"
         id="stop10" />
      <stop
         offset="1"
         stop-opacity=".1"
         id="stop11" />
    </linearGradient>
    <linearGradient
       id="e"
       x1="8.467"
       x2="8.467"
       y1="4.498"
       y2="9.985"
       gradientTransform="matrix(3.7794,0,0,3.7794,83.492539,0)"
       gradientUnits="userSpaceOnUse">
      <stop
         offset="0"
         id="stop12" />
      <stop
         offset="1"
         stop-opacity="0"
         id="stop13" />
    </linearGradient>
    <filter
       id="filter1733"
       x="-0.010999908"
       y="-0.013200229"
       width="1.0219998"
       height="1.0264005"
       color-interpolation-filters="sRGB">
      <feGaussianBlur
         stdDeviation="0.072761339"
         id="feGaussianBlur880" />
    </filter>
    <filter
       id="filter935"
       x="-0.014849913"
       y="-0.14849988"
       width="1.0296998"
       height="1.2969998"
       color-interpolation-filters="sRGB">
      <feGaussianBlur
         stdDeviation="0.098224626"
         id="feGaussianBlur883" />
    </filter>
    <filter
       id="filter2076-6"
       x="-0.048000001"
       y="-0.048000001"
       width="1.096"
       height="1.096"
       color-interpolation-filters="sRGB">
      <feGaussianBlur
         stdDeviation="1.1"
         id="feGaussianBlur1" />
    </filter>
  </defs>
  <g
     id="g5"
     transform="scale(3.779602)">
    <rect
       transform="matrix(0.26458,0,0,0.26458,-6e-5,-5.97e-5)"
       x="4.5"
       y="4.5"
       width="55"
       height="55"
       rx="13.002"
       ry="13.002"
       filter="url(#filter2076-6)"
       opacity="0.3"
       id="rect1" />
    <path
       d="m 4.6305,1.1905 c -1.9058,0 -3.44,1.5342 -3.44,3.44 v 7.6717 c 0,1.9058 1.5342,3.44 3.44,3.44 h 7.6717 c 1.9058,0 3.44,-1.5342 3.44,-3.44 V 4.6305 c 0,-1.9058 -1.5342,-3.44 -3.44,-3.44 z"
       fill="#1964ff"
       stroke-linecap="round"
       stroke-width="0.079373"
       style="paint-order:stroke fill markers"
       id="path1" />
    <path
       d="M 4.8517,2.778 C 3.7029,2.778 2.778,3.70298 2.778,4.8517 v 7.2294 c 0,1.1488 0.92498,2.0737 2.0737,2.0737 h 7.2294 c 1.1488,0 2.0737,-0.92498 2.0737,-2.0737 V 4.8517 c 0,-1.1488 -0.92498,-2.0737 -2.0737,-2.0737 z"
       fill="#fafafa"
       stroke-linecap="round"
       stroke-width="0.079373"
       style="paint-order:stroke fill markers"
       id="path2" />
    <path
       d="m 4.2635,4.2276 c 0.005,0.04062 0.0099,0.08118 0.01548,0.12163 h 8.376 c 0.0052,-0.0437 0.0097,-0.07849 0.01437,-0.12163 z"
       fill="#198cff"
       opacity="0.6"
       stroke-width="0.67718"
       style="paint-order:normal"
       id="path3" />
    <path
       d="m 1.7522,3.5898 c -0.31183,0 -0.56274,0.25092 -0.56274,0.56274 v 1.8278 c 0,0.02268 0.0041,0.04418 0.0067,0.06615 -0.0055,0.54053 -0.0052,1.1567 -0.0052,1.9652 v 0.22427 h -5.16e-4 v 4.0663 c 0,0.03645 0.0041,0.07184 0.0052,0.108 0.002,0.05118 0.0031,0.10258 0.0078,0.15296 0.12639,1.6956 1.4693,3.0388 3.1646,3.1662 0.08518,0.0081 0.17144,0.0128 0.25941,0.01292 0.0012,3e-6 0.0024,0 0.0036,0 h 7.6717 c 0.08936,0 0.17707,-0.0047 0.26354,-0.01292 1.691,-0.12755 3.0311,-1.4649 3.1625,-3.1548 0.0087,-0.08956 0.01395,-0.18019 0.01395,-0.27233 v -4.1439 c 1.6e-5,-0.0018 5.17e-4,-0.0034 5.17e-4,-0.0052 v -1.8278 c 0,-0.31183 -0.25092,-0.56274 -0.56274,-0.56274 h -6.0068 c -0.27152,0 -0.48409,-0.01833 -0.66041,-0.06511 C 8.336991,5.65076 8.197241,5.57527 8.072521,5.4619 7.947801,5.34853 7.837871,5.1971 7.721131,4.99734 7.604391,4.79757 7.480771,4.54988 7.328401,4.24391 7.254911,4.0631 7.152281,3.93164 7.040051,3.83671 6.927821,3.74178 6.806201,3.68323 6.693311,3.64706 6.467531,3.57472 6.278361,3.5928 6.278361,3.5928 h -2.5533 C 3.714581,3.592225 3.704701,3.5897 3.694051,3.5897 h -0.91517 z"
       fill="#198cff"
       stroke-width="0.26458"
       id="path4" />
  </g>
  <path
     style="opacity:1;fill:#ffffff;fill-opacity:1;stroke-width:0.769376;stroke-linecap:round;stroke-linejoin:round"
     d="m 31.985023,28.816444 a 0.6150888,0.6150888 0 0 0 -0.43578,0.180322 l -2.222473,2.223976 a 0.61502729,0.61502729 0 0 0 0,0.870056 0.61502729,0.61502729 0 0 0 0.870055,0 l 1.785192,-1.786695 1.770165,1.783689 a 0.61502729,0.61502729 0 0 0 0.868553,0.003 0.61502729,0.61502729 0 0 0 0.0045,-0.870055 l -2.204402,-2.222473 a 0.6150888,0.6150888 0 0 0 -0.435779,-0.181825 z m -0.199858,4.344266 -5.561444,1.897894 a 0.6150888,0.6150888 0 0 0 -0.04508,0.06011 0.6150888,0.6150888 0 0 0 -0.312559,0.414741 0.6150888,0.6150888 0 0 0 -0.04959,0.09166 0.6150888,0.6150888 0 0 0 -0.009,0.01653 v 6.655399 a 0.6150888,0.6150888 0 0 0 0.33059,0.545475 l 5.549422,2.894175 a 0.6150888,0.6150888 0 0 0 0.01203,0.006 l 0.02855,0.01503 a 0.6150888,0.6150888 0 0 0 0.186334,-0.006 0.6150888,0.6150888 0 0 0 0.377174,0.01503 l 5.571958,-2.831062 a 0.6150888,0.6150888 0 0 0 0.336602,-0.546977 v -6.665918 a 0.6150888,0.6150888 0 0 0 -0.05109,-0.09317 0.6150888,0.6150888 0 0 0 -0.171302,-0.315564 0.6150888,0.6150888 0 0 0 -0.123223,-0.112701 0.6150888,0.6150888 0 0 0 -0.06463,-0.0586 l -5.600511,-1.979038 a 0.6150888,0.6150888 0 0 0 -0.404223,-0.003 z m 0.195349,1.233706 3.937042,1.389985 -3.90248,1.719074 -3.92652,-1.780684 z m 8.401521,2.117286 a 0.61502729,0.61502729 0 0 0 -0.435783,0.180322 0.61502729,0.61502729 0 0 0 0,0.868553 l 1.788199,1.786695 -1.78369,1.768662 a 0.61502729,0.61502729 0 0 0 -0.0031,0.870055 0.61502729,0.61502729 0 0 0 0.868555,0.0045 l 2.222472,-2.204441 a 0.6150888,0.6150888 0 0 0 0.0015,-0.871558 l -2.223972,-2.222473 a 0.61502729,0.61502729 0 0 0 -0.434282,-0.180323 z m -13.34536,0.08415 4.360797,1.979038 v 5.623054 l -4.360797,-2.273565 z m 9.932756,0.06912 v 5.345057 l -4.342761,2.205944 v -5.636578 z m -13.787147,0.04358 -2.220971,2.204441 a 0.6150888,0.6150888 0 0 0 -0.0015,0.871559 l 2.223976,2.220971 a 0.61502729,0.61502729 0 0 0 0.870055,0 0.61502729,0.61502729 0 0 0 0,-0.870056 l -1.788235,-1.785193 1.783689,-1.768662 a 0.61502729,0.61502729 0 0 0 0.003,-0.870056 0.61502729,0.61502729 0 0 0 -0.870056,-0.003 z m 4.781549,2.374246 a 0.61502729,0.61502729 0 0 0 -0.613096,0.617604 l 0.006,1.502686 a 0.6150888,0.6150888 0 0 0 0.353131,0.552989 l 0.981255,0.462827 a 0.61502729,0.61502729 0 0 0 0.818964,-0.294526 0.61502729,0.61502729 0 0 0 -0.294527,-0.817462 l -0.629626,-0.297532 -0.0045,-1.114993 a 0.61502729,0.61502729 0 0 0 -0.617605,-0.611593 z m 6.24216,7.279013 a 0.61502729,0.61502729 0 0 0 -0.434276,0.180323 l -1.785192,1.788197 -1.770164,-1.785192 a 0.61502729,0.61502729 0 0 0 -0.870056,-0.003 0.61502729,0.61502729 0 0 0 -0.003,0.870056 l 2.204441,2.222473 a 0.6150888,0.6150888 0 0 0 0.871559,0.0015 l 2.222473,-2.223976 a 0.61502729,0.61502729 0 0 0 0,-0.870055 0.61502729,0.61502729 0 0 0 -0.435779,-0.180323 z"
     id="path6" />
</svg>
