<?xml version="1.0" encoding="UTF-8" standalone="no"?>
<svg
   width="64"
   height="64"
   version="1.1"
   id="svg18"
   sodipodi:docname="folder-wine.svg"
   inkscape:version="1.4 (e7c3feb100, 2024-10-09)"
   xmlns:inkscape="http://www.inkscape.org/namespaces/inkscape"
   xmlns:sodipodi="http://sodipodi.sourceforge.net/DTD/sodipodi-0.dtd"
   xmlns="http://www.w3.org/2000/svg"
   xmlns:svg="http://www.w3.org/2000/svg">
  <sodipodi:namedview
     id="namedview18"
     pagecolor="#505050"
     bordercolor="#eeeeee"
     borderopacity="1"
     inkscape:showpageshadow="0"
     inkscape:pageopacity="0"
     inkscape:pagecheckerboard="0"
     inkscape:deskcolor="#505050"
     inkscape:zoom="4.1321553"
     inkscape:cx="-21.296392"
     inkscape:cy="21.296392"
     inkscape:window-width="1920"
     inkscape:window-height="1051"
     inkscape:window-x="0"
     inkscape:window-y="0"
     inkscape:window-maximized="1"
     inkscape:current-layer="svg18" />
  <defs
     id="defs13">
    <linearGradient
       id="c"
       x1="8.467"
       x2="8.467"
       y1="293.3"
       y2="292.77"
       gradientTransform="matrix(3.7794,0,0,3.7794,75.263387,-1058.5)"
       gradientUnits="userSpaceOnUse">
      <stop
         offset="0"
         stop-opacity=".1"
         id="stop1" />
      <stop
         offset="1"
         stop-color="#fff"
         stop-opacity=".15"
         id="stop2" />
    </linearGradient>
    <linearGradient
       id="d"
       x1="8.467"
       x2="8.467"
       y1="294.62"
       y2="293.56"
       gradientTransform="matrix(3.7794,0,0,3.7794,75.264387,-1058.5)"
       gradientUnits="userSpaceOnUse">
      <stop
         offset="0"
         stop-opacity=".1"
         id="stop3" />
      <stop
         offset=".5"
         stop-opacity=".05"
         id="stop4" />
      <stop
         offset="1"
         stop-color="#fff"
         stop-opacity=".15"
         id="stop5" />
    </linearGradient>
    <linearGradient
       id="a"
       x1="6.879"
       x2="6.879"
       y1="285.36"
       y2="283.77"
       gradientTransform="matrix(3.7794,0,0,3.7794,75.264387,-1058.5)"
       gradientUnits="userSpaceOnUse">
      <stop
         offset="0"
         id="stop6" />
      <stop
         offset="1"
         stop-opacity=".2"
         id="stop7" />
    </linearGradient>
    <linearGradient
       id="b"
       x1="1.058"
       x2="15.875"
       y1="289.59"
       y2="289.59"
       gradientTransform="matrix(3.7794,0,0,3.7794,75.263387,-1058.5)"
       gradientUnits="userSpaceOnUse">
      <stop
         offset="0"
         stop-opacity=".1"
         id="stop8" />
      <stop
         offset=".108"
         stop-opacity="0"
         id="stop9" />
      <stop
         offset=".894"
         stop-opacity="0"
         id="stop10" />
      <stop
         offset="1"
         stop-opacity=".1"
         id="stop11" />
    </linearGradient>
    <linearGradient
       id="e"
       x1="8.467"
       x2="8.467"
       y1="4.498"
       y2="9.985"
       gradientTransform="matrix(3.7794,0,0,3.7794,75.264387,0)"
       gradientUnits="userSpaceOnUse">
      <stop
         offset="0"
         id="stop12" />
      <stop
         offset="1"
         stop-opacity="0"
         id="stop13" />
    </linearGradient>
    <filter
       id="filter1733"
       x="-0.010999908"
       y="-0.013200229"
       width="1.0219998"
       height="1.0264005"
       color-interpolation-filters="sRGB">
      <feGaussianBlur
         stdDeviation="0.072761339"
         id="feGaussianBlur880" />
    </filter>
    <filter
       id="filter935"
       x="-0.014849913"
       y="-0.14849988"
       width="1.0296998"
       height="1.2969998"
       color-interpolation-filters="sRGB">
      <feGaussianBlur
         stdDeviation="0.098224626"
         id="feGaussianBlur883" />
    </filter>
    <filter
       id="filter2076-6"
       x="-0.048000001"
       y="-0.048000001"
       width="1.096"
       height="1.096"
       color-interpolation-filters="sRGB">
      <feGaussianBlur
         stdDeviation="1.1"
         id="feGaussianBlur1" />
    </filter>
  </defs>
  <g
     id="g5"
     transform="scale(3.779602)">
    <rect
       transform="matrix(0.26458,0,0,0.26458,-6e-5,-5.97e-5)"
       x="4.5"
       y="4.5"
       width="55"
       height="55"
       rx="13.002"
       ry="13.002"
       filter="url(#filter2076-6)"
       opacity="0.3"
       id="rect1" />
    <path
       d="m 4.6305,1.1905 c -1.9058,0 -3.44,1.5342 -3.44,3.44 v 7.6717 c 0,1.9058 1.5342,3.44 3.44,3.44 h 7.6717 c 1.9058,0 3.44,-1.5342 3.44,-3.44 V 4.6305 c 0,-1.9058 -1.5342,-3.44 -3.44,-3.44 z"
       fill="#1964ff"
       stroke-linecap="round"
       stroke-width="0.079373"
       style="paint-order:stroke fill markers"
       id="path1" />
    <path
       d="M 4.8517,2.778 C 3.7029,2.778 2.778,3.70298 2.778,4.8517 v 7.2294 c 0,1.1488 0.92498,2.0737 2.0737,2.0737 h 7.2294 c 1.1488,0 2.0737,-0.92498 2.0737,-2.0737 V 4.8517 c 0,-1.1488 -0.92498,-2.0737 -2.0737,-2.0737 z"
       fill="#fafafa"
       stroke-linecap="round"
       stroke-width="0.079373"
       style="paint-order:stroke fill markers"
       id="path2" />
    <path
       d="m 4.2635,4.2276 c 0.005,0.04062 0.0099,0.08118 0.01548,0.12163 h 8.376 c 0.0052,-0.0437 0.0097,-0.07849 0.01437,-0.12163 z"
       fill="#198cff"
       opacity="0.6"
       stroke-width="0.67718"
       style="paint-order:normal"
       id="path3" />
    <path
       d="m 1.7522,3.5898 c -0.31183,0 -0.56274,0.25092 -0.56274,0.56274 v 1.8278 c 0,0.02268 0.0041,0.04418 0.0067,0.06615 -0.0055,0.54053 -0.0052,1.1567 -0.0052,1.9652 v 0.22427 h -5.16e-4 v 4.0663 c 0,0.03645 0.0041,0.07184 0.0052,0.108 0.002,0.05118 0.0031,0.10258 0.0078,0.15296 0.12639,1.6956 1.4693,3.0388 3.1646,3.1662 0.08518,0.0081 0.17144,0.0128 0.25941,0.01292 0.0012,3e-6 0.0024,0 0.0036,0 h 7.6717 c 0.08936,0 0.17707,-0.0047 0.26354,-0.01292 1.691,-0.12755 3.0311,-1.4649 3.1625,-3.1548 0.0087,-0.08956 0.01395,-0.18019 0.01395,-0.27233 v -4.1439 c 1.6e-5,-0.0018 5.17e-4,-0.0034 5.17e-4,-0.0052 v -1.8278 c 0,-0.31183 -0.25092,-0.56274 -0.56274,-0.56274 h -6.0068 c -0.27152,0 -0.48409,-0.01833 -0.66041,-0.06511 C 8.336991,5.65076 8.197241,5.57527 8.072521,5.4619 7.947801,5.34853 7.837871,5.1971 7.721131,4.99734 7.604391,4.79757 7.480771,4.54988 7.328401,4.24391 7.254911,4.0631 7.152281,3.93164 7.040051,3.83671 6.927821,3.74178 6.806201,3.68323 6.693311,3.64706 6.467531,3.57472 6.278361,3.5928 6.278361,3.5928 h -2.5533 C 3.714581,3.592225 3.704701,3.5897 3.694051,3.5897 h -0.91517 z"
       fill="#198cff"
       stroke-width="0.26458"
       id="path4" />
  </g>
  <path
     style="fill:#ffffff;stroke-linecap:round;stroke-linejoin:round;opacity:1;fill-opacity:1"
     d="M 26.712891,28.816406 A 1.3536953,1.3536953 0 0 0 25.375,29.966797 c -0.672218,4.430171 0.877742,7.208269 2.71875,8.552734 0.897059,0.655111 1.825978,0.98517 2.552734,1.169922 v 7.408203 l -2.365234,-0.0059 a 1.35356,1.35356 0 0 0 -1.355469,1.351562 1.35356,1.35356 0 0 0 1.34961,1.355469 l 3.71289,0.0098 A 1.35356,1.35356 0 0 0 32,49.8125 a 1.35356,1.35356 0 0 0 0.01172,-0.0039 l 3.671875,0.0078 a 1.35356,1.35356 0 0 0 1.355468,-1.349609 1.35356,1.35356 0 0 0 -1.349609,-1.357422 l -2.335937,-0.0059 V 39.689453 C 34.08033,39.504708 35.009124,39.174641 35.90625,38.519531 37.747396,37.175068 39.297712,34.397 38.625,29.966797 a 1.3536953,1.3536953 0 0 0 -1.339844,-1.150391 z m 1.273437,2.707031 h 8.029297 c 0.167793,2.813068 -0.729128,4.094499 -1.707031,4.808594 -1.076098,0.785801 -2.232828,0.864443 -2.308594,0.869141 -0.07575,-0.0047 -1.232581,-0.08334 -2.308594,-0.869141 -0.977832,-0.714099 -1.872605,-1.995435 -1.705078,-4.808594 z"
     id="path6" />
</svg>
