<?xml version="1.0" encoding="UTF-8"?>
<!-- Created with Inkscape (http://www.inkscape.org/) -->
<svg width="64" height="64" version="1.1" viewBox="0 0 16.933 16.933" xmlns="http://www.w3.org/2000/svg" xmlns:cc="http://creativecommons.org/ns#" xmlns:dc="http://purl.org/dc/elements/1.1/" xmlns:rdf="http://www.w3.org/1999/02/22-rdf-syntax-ns#">
 <metadata>
  <rdf:RDF>
   <cc:Work rdf:about="">
    <dc:format>image/svg+xml</dc:format>
    <dc:type rdf:resource="http://purl.org/dc/dcmitype/StillImage"/>
    <dc:title/>
   </cc:Work>
  </rdf:RDF>
 </metadata>
 <g transform="matrix(.25631 0 0 .25631 .27877 .29983)">
  <path d="m0 0h64v64h-64z" fill="none"/>
  <path d="m12 5.5h40c1.108 0 1.625 0.958 2 2l1.8 5c0.375 1.043-0.892 2-2 2h-43.6c-1.108 0-2.375-0.957-2-2l1.8-5c0.375-1.042 0.892-2 2-2z" fill="#148c64" stroke="#14b478"/>
  <path d="m52 6-6.3 43.042c-0.157 1.073-0.892 1.957-2 1.957h-23.4c-1.108 0-1.843-0.884-2-1.957l-6.3-43.042z" opacity=".3"/>
  <path d="m55.8 13.501-4.3 43.042c-0.108 1.08-0.892 1.957-2 1.957h-35c-1.108 0-1.892-0.878-2-1.957l-4.3-43.042z" fill="#14b478" stroke="#14b478"/>
  <path d="m23.812 41.641c-0.256 0.46-0.46 1.152-0.46 1.587 0 0.101 0 0.23 0.025 0.409l-3.198-5.501a1.427 1.427 0 0 1-0.179-0.666c0-0.231 0.076-0.512 0.179-0.69l1.535-2.688-1.714-0.97 5.578-0.103 2.712 4.886-1.74-0.997zm2.456-16.104c0.486-0.845 1.28-1.306 2.251-1.306 1.05 0 1.87 0.487 2.457 1.484l0.87 1.458-3.02 5.82-4.886-3.44zm0.358 20.53a2.675 2.675 0 0 1-2.66-2.66c0-0.41 0.179-1.101 0.435-1.536l0.818-1.458h6.064v5.654zm4.862-20.684c-0.383-0.665-0.895-1.127-1.51-1.383h6.294c0.563 0 0.998 0.231 1.255 0.667l1.56 2.66 1.688-0.998-2.712 4.862-5.551-0.078 1.714-0.972zm9.698 15.081c0.767 0 1.407-0.204 1.944-0.613l-3.173 5.526a1.382 1.382 0 0 1-1.253 0.69h-2.995v1.97l-2.865-4.784 2.865-4.785v1.996zm2.455-4.605c0.23 0.41 0.359 0.844 0.359 1.305 0 0.92-0.59 1.893-1.407 2.353a2.857 2.857 0 0 1-1.458 0.334h-1.69l-3.018-5.22 4.886-2.79z" fill="#fff"/>
 </g>
</svg>
