<svg width="64" height="64" version="1.1" viewBox="0 0 16.933 16.933" xmlns="http://www.w3.org/2000/svg">
 <path d="m3.4395 1.0588c-0.73289 0-1.3229 0.58999-1.3229 1.3229v12.171c0 0.73286 0.59001 1.3229 1.3229 1.3229h10.054c0.73289 0 1.3229-0.58999 1.3229-1.3229v-10.319l-3.175-3.1749z" fill="#84c835" fill-rule="evenodd" stroke-width=".26458" style="paint-order:stroke fill markers"/>
 <path d="m14.816 4.2332-3.1749-3.1749v1.852c0 0.73288 0.59001 1.3229 1.3229 1.3229z" fill="#fff" fill-rule="evenodd" opacity=".35" style="paint-order:stroke fill markers"/>
 <path d="m8.4664 10.961-2.4942-2.4944 2.4942-2.4941 0.83147 0.83132-1.6629 1.6627 0.83142 0.83147 2.4942-2.4941-2.1727-2.1727c-0.17742-0.17757-0.4652-0.17757-0.64277 0l-3.5142 3.5142c-0.17742 0.17742-0.17742 0.4652 0 0.64277l3.5142 3.5141c0.17757 0.17757 0.46535 0.17757 0.64277 0l3.5142-3.5141c0.17742-0.17757 0.17742-0.46535 0-0.64277l-0.51016-0.51001z" enable-background="new" fill="#fff" stroke-width=".050576"/>
</svg>
