<svg width="64" height="64" version="1.1" viewBox="0 0 16.933 16.933" xmlns="http://www.w3.org/2000/svg">
 <path d="m3.4395 1.0583c-0.73288 0-1.3229 0.58997-1.3229 1.3229v12.171c0 0.73284 0.59001 1.3229 1.3229 1.3229h10.054c0.73288 0 1.3229-0.58997 1.3229-1.3229v-10.319l-3.1749-3.1747z" fill="#f76628" fill-rule="evenodd" stroke-width=".99998" style="paint-order:stroke fill markers"/>
 <path d="m14.816 4.2332-3.1749-3.1749v1.852c0 0.73288 0.59001 1.3229 1.3229 1.3229z" fill="#fff" fill-rule="evenodd" opacity=".35" style="paint-order:stroke fill markers"/>
 <g transform="matrix(.066145 0 0 .066145 -1.5875 -1.7198)" enable-background="new" fill="none" stroke="#fff" stroke-width="8">
  <path d="m100 124 52-28 52 28v60l-52 28-52-28z"/>
  <path d="m204 124-52 28-52-28"/>
  <path d="m152 148v64"/>
 </g>
</svg>
