<svg width="64" height="64" version="1.1" viewBox="0 0 16.933 16.933" xmlns="http://www.w3.org/2000/svg" xmlns:xlink="http://www.w3.org/1999/xlink">
 <g fill-rule="evenodd">
  <path transform="scale(.26458)" d="m13 4c-2.77 0-5 2.23-5 5v46c0 2.77 2.23 5 5 5h38c2.77 0 5-2.23 5-5v-39l-12-12h-31z" fill="#f4f4f4" opacity=".25" stroke="#000" stroke-width=".99999" style="paint-order:stroke fill markers"/>
  <path transform="scale(.26458)" d="m13 4c-2.77 0-5 2.23-5 5v46c0 2.77 2.23 5 5 5h38c2.77 0 5-2.23 5-5v-39l-12-12h-31z" fill="#f4f4f4" style="paint-order:stroke fill markers"/>
  <path d="m14.816 4.2332-3.1749-3.1749v1.852c0 0.73288 0.59001 1.3229 1.3229 1.3229z" fill="#bbb" style="paint-order:stroke fill markers"/>
 </g>
 <g transform="matrix(.066145 0 0 .066145 -1.0583 -1.852)" enable-background="new" fill="none" stroke="#8f76e4" stroke-width="8">
  <path d="m152 100c-20.007 0-38.494 10.674-48.497 28-10.003 17.326-10.003 38.674 0 56 10.003 17.326 28.491 28 48.497 28h88" color="#000000" enable-background="accumulate"/>
  <path d="m167.23 119.01c-14.95-6.1579-32.138-2.7096-43.556 8.7386s-14.821 28.645-8.6234 43.579 20.776 24.668 36.945 24.668h88" color="#000000" enable-background="accumulate"/>
  <path d="m168.97 139.03c-7.681-7.681-19.563-9.2453-28.971-3.814s-13.994 16.504-11.182 26.996c2.8114 10.492 12.32 17.788 23.182 17.788h88" color="#000000" enable-background="accumulate"/>
 </g>
</svg>
