<svg width="64" height="64" version="1.1" viewBox="0 0 16.933 16.933" xmlns="http://www.w3.org/2000/svg">
 <path d="m3.4395 1.0583c-0.73288 0-1.3229 0.58997-1.3229 1.3229v12.171c0 0.73284 0.59001 1.3229 1.3229 1.3229h10.054c0.73288 0 1.3229-0.58997 1.3229-1.3229v-10.319l-3.1749-3.1747z" fill="#55c1ec" fill-rule="evenodd" stroke-width=".99998" style="paint-order:stroke fill markers"/>
 <rect x="19.588" y="-1.1477" width="16.933" height="16.933" rx="0" ry="0" fill="none" opacity=".75" stroke-width=".26458"/>
 <g transform="matrix(.90322 0 0 .90322 .81896 -.26851)" fill="#fff">
  <path d="m8.467 6.238a3.44 3.44 0 0 0-3.44 3.44 3.44 3.44 0 0 0 3.44 3.439 3.44 3.44 0 0 0 3.44-3.44 3.44 3.44 0 0 0-3.44-3.44zm0 1.393a2.046 2.046 0 0 1 2.046 2.046 2.046 2.046 0 0 1-2.046 2.045 2.046 2.046 0 0 1-2.046-2.045 2.046 2.046 0 0 1 2.046-2.046z" opacity=".15" style="paint-order:stroke markers fill"/>
  <g transform="translate(-4.2406e-8,-280.07)" style="paint-order:stroke markers fill">
   <path d="m8.467 286.83a2.91 2.91 0 0 0-2.91 2.91 2.91 2.91 0 0 0 2.91 2.911 2.91 2.91 0 0 0 2.91-2.91 2.91 2.91 0 0 0-2.91-2.91zm0 1.323a1.587 1.587 0 0 1 1.587 1.588 1.587 1.587 0 0 1-1.587 1.587 1.587 1.587 0 0 1-1.588-1.587 1.587 1.587 0 0 1 1.588-1.588z"/>
   <path d="m7.938 285.64h1.058v1.852h-1.058zm0 6.35h1.058v1.852h-1.058zm4.63-2.778v1.058h-1.852v-1.058zm-6.35 0v1.058h-1.852v-1.058zm5.522 3.055-0.747 0.748-1.31-1.31 0.748-0.748zm-4.49-4.49-0.747 0.748-1.31-1.31 0.748-0.748zm-1.309 5.238-0.748-0.748 1.31-1.31 0.748 0.748zm4.49-4.49-0.748-0.748 1.31-1.31 0.748 0.748z"/>
  </g>
 </g>
 <path d="m14.816 4.2332-3.1749-3.1749v1.852c0 0.73288 0.59001 1.3229 1.3229 1.3229z" fill="#fff" fill-rule="evenodd" opacity=".35" style="paint-order:stroke fill markers"/>
</svg>
