<svg width="64" height="64" version="1.1" xmlns="http://www.w3.org/2000/svg">
 <g transform="scale(3.7796)" fill-rule="evenodd">
  <path transform="scale(.26458)" d="m13 4c-2.77 0-5 2.23-5 5v46c0 2.77 2.23 5 5 5h38c2.77 0 5-2.23 5-5v-39l-12-12z" fill="#f4f4f4" opacity=".25" stroke="#000" stroke-width=".99999" style="paint-order:stroke fill markers"/>
  <path transform="scale(.26458)" d="m13 4c-2.77 0-5 2.23-5 5v46c0 2.77 2.23 5 5 5h38c2.77 0 5-2.23 5-5v-39l-12-12z" fill="#f4f4f4" style="paint-order:stroke fill markers"/>
  <path d="m14.816 4.2332-3.1749-3.1749v1.852c0 0.73288 0.59001 1.3229 1.3229 1.3229z" fill="#bbb" style="paint-order:stroke fill markers"/>
 </g>
 <g transform="translate(0,6)">
  <rect x="17" y="19" width="30" height="5" rx="1" ry="1" fill="#4f6596" fill-opacity=".267" style="paint-order:markers stroke fill"/>
  <rect x="18" y="20" width="28" height="3" rx="0" ry="0" fill="#f2f2f2" style="paint-order:markers stroke fill"/>
  <rect x="17" y="26" width="30" height="5" rx="1" ry="1" fill="#4f6596" fill-opacity=".267" style="paint-order:markers stroke fill"/>
  <rect x="18" y="27" width="28" height="3" rx="0" ry="0" fill="#f2f2f2" style="paint-order:markers stroke fill"/>
  <rect x="17" y="33" width="30" height="5" rx="1" ry="1" fill="#4f6596" fill-opacity=".267" style="paint-order:markers stroke fill"/>
  <rect x="18" y="34" width="28" height="3" rx="0" ry="0" fill="#f2f2f2" style="paint-order:markers stroke fill"/>
  <rect x="17" y="40" width="30" height="5" rx="1" ry="1" fill="#4f6596" fill-opacity=".267" style="paint-order:markers stroke fill"/>
  <rect x="18" y="41" width="28" height="3" rx="0" ry="0" fill="#f2f2f2" style="paint-order:markers stroke fill"/>
 </g>
</svg>
