<svg width="64" height="64" version="1.1" viewBox="0 0 16.933 16.933" xmlns="http://www.w3.org/2000/svg" xmlns:xlink="http://www.w3.org/1999/xlink">
 <g fill-rule="evenodd">
  <path transform="scale(.26458)" d="m13 4c-2.77 0-5 2.23-5 5v46c0 2.77 2.23 5 5 5h38c2.77 0 5-2.23 5-5v-39l-12-12h-31z" fill="#f4f4f4" opacity=".25" stroke="#000" stroke-width=".99999" style="paint-order:stroke fill markers"/>
  <path transform="scale(.26458)" d="m13 4c-2.77 0-5 2.23-5 5v46c0 2.77 2.23 5 5 5h38c2.77 0 5-2.23 5-5v-39l-12-12h-31z" fill="#f4f4f4" style="paint-order:stroke fill markers"/>
  <path d="m14.816 4.2332-3.1749-3.1749v1.852c0 0.73288 0.59001 1.3229 1.3229 1.3229z" fill="#bbb" style="paint-order:stroke fill markers"/>
 </g>
 <g fill="#b3b3b3">
  <path d="m5.7553 8.1738h-0.30961v-1.6044q0-0.33776 0.014073-0.6333l-0.47849 0.40813-0.16888-0.2111 0.67552-0.53479h0.26739z"/>
  <path d="m6.656 6.879q0-0.66145 0.19703-0.98513 0.2111-0.33776 0.61923-0.33776 0.4222 0 0.61923 0.33776 0.2111 0.32369 0.2111 0.98513 0 0.66145-0.2111 0.9992-0.19703 0.32369-0.61923 0.32369-0.40813 0-0.61923-0.32369-0.19703-0.33776-0.19703-0.9992zm1.3229 0q0-0.59108-0.14073-0.81625-0.12666-0.22517-0.36591-0.22517-0.22517 0-0.36591 0.22517-0.12666 0.2111-0.12666 0.81625 0 0.61923 0.12666 0.8444 0.14073 0.2111 0.36591 0.2111 0.23925 0 0.36591-0.22517 0.14073-0.22517 0.14073-0.83032z"/>
  <path d="m8.6404 6.879q0-0.66145 0.19703-0.98513 0.2111-0.33776 0.61923-0.33776 0.4222 0 0.61923 0.33776 0.2111 0.32369 0.2111 0.98513 0 0.66145-0.2111 0.9992-0.19703 0.32369-0.61923 0.32369-0.40813 0-0.61923-0.32369-0.19703-0.33776-0.19703-0.9992zm1.3229 0q0-0.59108-0.14073-0.81625-0.12666-0.22517-0.36591-0.22517-0.22517 0-0.36591 0.22517-0.12666 0.2111-0.12666 0.81625 0 0.61923 0.12666 0.8444 0.14073 0.2111 0.36591 0.2111 0.23925 0 0.36591-0.22517 0.14073-0.22517 0.14073-0.83032z"/>
  <path d="m10.625 6.879q0-0.66145 0.19703-0.98513 0.2111-0.33776 0.61922-0.33776 0.4222 0 0.61923 0.33776 0.2111 0.32369 0.2111 0.98513 0 0.66145-0.2111 0.9992-0.19703 0.32369-0.61923 0.32369-0.40812 0-0.61922-0.32369-0.19703-0.33776-0.19703-0.9992zm1.3229 0q0-0.59108-0.14073-0.81625-0.12666-0.22517-0.36591-0.22517-0.22517 0-0.36591 0.22517-0.12666 0.2111-0.12666 0.81625 0 0.61923 0.12666 0.8444 0.14073 0.2111 0.36591 0.2111 0.23925 0 0.36591-0.22517 0.14073-0.22517 0.14073-0.83032z"/>
  <path d="m4.6717 10.054q0-0.66145 0.19703-0.98513 0.2111-0.33776 0.61923-0.33776 0.4222 0 0.61923 0.33776 0.2111 0.32369 0.2111 0.98513 0 0.66145-0.2111 0.9992-0.19703 0.32369-0.61923 0.32369-0.40813 0-0.61923-0.32369-0.19703-0.33776-0.19703-0.9992zm1.3229 0q0-0.59108-0.14073-0.81625-0.12666-0.22517-0.36591-0.22517-0.22517 0-0.36591 0.22517-0.12666 0.2111-0.12666 0.81625 0 0.61923 0.12666 0.8444 0.14073 0.2111 0.36591 0.2111 0.23925 0 0.36591-0.22517 0.14073-0.22517 0.14073-0.83032z"/>
  <path d="m7.7397 11.349h-0.30961v-1.6044q0-0.33776 0.014073-0.6333l-0.47849 0.40813-0.16888-0.2111 0.67552-0.53479h0.26739z"/>
  <path d="m8.6404 10.054q0-0.66145 0.19703-0.98513 0.2111-0.33776 0.61923-0.33776 0.4222 0 0.61923 0.33776 0.2111 0.32369 0.2111 0.98513 0 0.66145-0.2111 0.9992-0.19703 0.32369-0.61923 0.32369-0.40813 0-0.61923-0.32369-0.19703-0.33776-0.19703-0.9992zm1.3229 0q0-0.59108-0.14073-0.81625-0.12666-0.22517-0.36591-0.22517-0.22517 0-0.36591 0.22517-0.12666 0.2111-0.12666 0.81625 0 0.61923 0.12666 0.8444 0.14073 0.2111 0.36591 0.2111 0.23925 0 0.36591-0.22517 0.14073-0.22517 0.14073-0.83032z"/>
  <path d="m10.625 10.054q0-0.66145 0.19703-0.98513 0.2111-0.33776 0.61922-0.33776 0.4222 0 0.61923 0.33776 0.2111 0.32369 0.2111 0.98513 0 0.66145-0.2111 0.9992-0.19703 0.32369-0.61923 0.32369-0.40812 0-0.61922-0.32369-0.19703-0.33776-0.19703-0.9992zm1.3229 0q0-0.59108-0.14073-0.81625-0.12666-0.22517-0.36591-0.22517-0.22517 0-0.36591 0.22517-0.12666 0.2111-0.12666 0.81625 0 0.61923 0.12666 0.8444 0.14073 0.2111 0.36591 0.2111 0.23925 0 0.36591-0.22517 0.14073-0.22517 0.14073-0.83032z"/>
  <path d="m4.6617 13.229q0-0.66145 0.19703-0.98513 0.2111-0.33776 0.61923-0.33776 0.4222 0 0.61923 0.33776 0.2111 0.32369 0.2111 0.98513 0 0.66144-0.2111 0.9992-0.19703 0.32369-0.61923 0.32369-0.40813 0-0.61923-0.32369-0.19703-0.33776-0.19703-0.9992zm1.3229 0q0-0.59108-0.14073-0.81625-0.12666-0.22517-0.36591-0.22517-0.22517 0-0.36591 0.22517-0.12666 0.2111-0.12666 0.81625 0 0.61922 0.12666 0.8444 0.14073 0.2111 0.36591 0.2111 0.23925 0 0.36591-0.22517 0.14073-0.22517 0.14073-0.83032z"/>
  <path d="m6.6461 13.229q0-0.66145 0.19703-0.98513 0.2111-0.33776 0.61923-0.33776 0.4222 0 0.61923 0.33776 0.2111 0.32369 0.2111 0.98513 0 0.66144-0.2111 0.9992-0.19703 0.32369-0.61923 0.32369-0.40813 0-0.61923-0.32369-0.19703-0.33776-0.19703-0.9992zm1.3229 0q0-0.59108-0.14073-0.81625-0.12666-0.22517-0.36591-0.22517-0.22517 0-0.36591 0.22517-0.12666 0.2111-0.12666 0.81625 0 0.61922 0.12666 0.8444 0.14073 0.2111 0.36591 0.2111 0.23925 0 0.36591-0.22517 0.14073-0.22517 0.14073-0.83032z"/>
  <path d="m9.7141 14.524h-0.30961v-1.6044q0-0.33776 0.014073-0.6333l-0.47849 0.40813-0.16888-0.2111 0.67552-0.53478h0.26739z"/>
  <path d="m10.615 13.229q0-0.66145 0.19703-0.98513 0.2111-0.33776 0.61923-0.33776 0.4222 0 0.61922 0.33776 0.2111 0.32369 0.2111 0.98513 0 0.66144-0.2111 0.9992-0.19703 0.32369-0.61922 0.32369-0.40813 0-0.61923-0.32369-0.19703-0.33776-0.19703-0.9992zm1.3229 0q0-0.59108-0.14073-0.81625-0.12666-0.22517-0.36591-0.22517-0.22517 0-0.36591 0.22517-0.12666 0.2111-0.12666 0.81625 0 0.61922 0.12666 0.8444 0.14073 0.2111 0.36591 0.2111 0.23925 0 0.36591-0.22517 0.14073-0.22517 0.14073-0.83032z"/>
 </g>
</svg>
