<svg width="64" height="64" version="1.1" viewBox="0 0 16.933 16.933" xmlns="http://www.w3.org/2000/svg">
 <path d="m3.4395 1.0587c-0.73288 0-1.3229 0.58999-1.3229 1.3229v12.171c0 0.73286 0.59001 1.3229 1.3229 1.3229h10.054c0.73288 0 1.3229-0.58999 1.3229-1.3229v-10.319l-3.1749-3.1748z" fill="#eca973" fill-rule="evenodd" stroke-width=".99999" style="paint-order:stroke fill markers"/>
 <path d="m14.816 4.2332-3.1749-3.1749v1.852c0 0.73288 0.59001 1.3229 1.3229 1.3229z" fill="#fff" fill-rule="evenodd" opacity=".35" style="paint-order:stroke fill markers"/>
 <g transform="translate(-17.999 -.64507)">
  <rect x="25.944" y="1.7034" width="1.0583" height="14.816" color="#000000" fill="#fff" opacity=".25"/>
  <rect x="21.71" y="12.287" width="3.4395" height="2.1166" color="#000000" fill="#f9f9f9" opacity=".35"/>
  <path d="m21.975 12.816v1.0583h0.52916v-1.0583zm0.79374 0v1.0583h0.26458v-1.0583zm0.52916 0v1.0583h0.52916v-1.0583zm0.79373 0v1.0583h0.26458v-1.0583zm0.52916 0v1.0583h0.26458v-1.0583z" color="#000000" opacity=".35"/>
 </g>
 <rect x="8.466" y="1.0583" width=".53659" height="14.816" color="#000000" fill="#fff" opacity=".25"/>
 <g transform="matrix(.26458 0 0 .26458 8.9957 9.7894)" fill="#f55" opacity=".75" stroke-width="1.1429">
  <path d="m11 3a8 8 0 0 0-8 8 8 8 0 0 0 8 8 8 8 0 0 0 8-8 8 8 0 0 0-8-8zm0 1a7 7 0 0 1 7 7 7 7 0 0 1-7 7 7 7 0 0 1-7-7 7 7 0 0 1 7-7z"/>
  <path d="m11 6a5 5 0 0 0-3.318 1.268l0.709 0.709a4 4 0 0 1 2.609-0.977 4 4 0 0 1 4 4h1a5 5 0 0 0-5-5zm-4.525 2.889a5 5 0 0 0-0.475 2.111h1a4 4 0 0 1 0.238-1.348z"/>
  <path d="m12.344 8.166-2.146 4.977a1.2 1.2 0 0 0-0.278 0.585l-7e-3 0.014h6e-3c-0.09 0.562 0.221 1.086 0.719 1.212 0.499 0.126 1.021-0.19 1.208-0.727l7e-3 2e-3v-0.03l0.024-0.075c0.044-0.182 0.047-0.371 7e-3 -0.55z"/>
 </g>
</svg>
