<svg width="64" height="64" version="1.1" viewBox="0 0 16.933 16.933" xmlns="http://www.w3.org/2000/svg">
 <g fill-rule="evenodd">
  <path transform="scale(.26458)" d="m13 4c-2.77 0-5 2.23-5 5v46c0 2.77 2.23 5 5 5h38c2.77 0 5-2.23 5-5v-39l-12-12z" fill="#666" style="paint-order:stroke fill markers"/>
  <path d="m14.816 4.2332-3.1749-3.1749v1.852c0 0.73288 0.59001 1.3229 1.3229 1.3229z" fill="#fff" opacity=".35" style="paint-order:stroke fill markers"/>
 </g>
 <g transform="translate(0 -261.5) scale(.26458)">
  <rect y="988.36" width="64" height="64" rx="0" ry="0" fill="none" opacity=".75"/>
 </g>
 <path d="m12.7 8.4665a4.2223 4.2223 0 0 0-4.2332-4.2332 4.2223 4.2223 0 0 0-4.2332 4.2332 4.2223 4.2223 0 0 0 4.2332 4.2332 4.2223 4.2223 0 0 0 4.2332-4.2332zm-2.6848 0c0 0.85305-0.679 1.5492-1.5484 1.5492a1.5414 1.5414 0 0 1-1.55-1.5492c0-0.85227 0.62827-1.5484 1.5492-1.5484s1.5484 0.71334 1.5484 1.5484z" fill="#fff" opacity=".75"/>
 <path d="m8.4664 6.349a2.1175 2.1175 0 1 0 1e-3 4.235 2.1175 2.1175 0 0 0-1e-3 -4.235zm0 1.058a1.059 1.059 0 1 1-1e-3 2.118 1.059 1.059 0 0 1 0-2.118z" fill="#fff" opacity=".35" overflow="visible"/>
 <path d="m8.4664 6.4815a1.985 1.985 0 1 0 1e-3 3.97 1.985 1.985 0 0 0-1e-3 -3.97zm0 0.992a0.993 0.993 0 1 1-1e-3 1.985 0.993 0.993 0 0 1 0-1.985z" fill="none" overflow="visible"/>
</svg>
