<svg width="64" height="64" version="1.1" xmlns="http://www.w3.org/2000/svg">
 <g transform="scale(3.7796)" fill-rule="evenodd">
  <path transform="scale(.26458)" d="m13 4c-2.77 0-5 2.23-5 5v46c0 2.77 2.23 5 5 5h38c2.77 0 5-2.23 5-5v-39l-12-12z" fill="#f4f4f4" opacity=".25" stroke="#000" stroke-width=".99999" style="paint-order:stroke fill markers"/>
  <path transform="scale(.26458)" d="m13 4c-2.77 0-5 2.23-5 5v46c0 2.77 2.23 5 5 5h38c2.77 0 5-2.23 5-5v-39l-12-12z" fill="#f4f4f4" style="paint-order:stroke fill markers"/>
  <path d="m14.816 4.2332-3.1749-3.1749v1.852c0 0.73288 0.59001 1.3229 1.3229 1.3229z" fill="#bbb" style="paint-order:stroke fill markers"/>
 </g>
 <path d="m30.662 18.545-1.291 1.666-2.0508-0.4668-0.55664 2.0293-2.0742 0.35547 0.26367 2.0879-1.7812 1.123 1.0449 1.8281-1.2168 1.7188 1.6621 1.2891-0.46289 2.0527 2.0293 0.55469 0.35547 2.0742 0.8125-0.10352v10.404l4.5938-3.3418 4.5938 3.3418v-9.832l0.09766 0.02344 0.55664-2.0293 2.0742-0.35742-0.26562-2.0879 1.7812-1.1211-1.043-1.8301 1.2148-1.7168-1.6621-1.291 0.46484-2.0508-2.0293-0.55664-0.35547-2.0723-2.0879 0.26367-1.123-1.7812-1.8281 1.043zm1.3379 4.3066a5 5 0 0 1 5 5 5 5 0 0 1-5 5 5 5 0 0 1-5-5 5 5 0 0 1 5-5z" color="#4d4d4d" color-rendering="auto" fill="#f55" fill-rule="evenodd" image-rendering="auto" shape-rendering="auto" solid-color="#000000" style="isolation:auto;mix-blend-mode:normal"/>
</svg>
