<svg width="64" height="64" version="1.1" viewBox="0 0 16.933 16.933" xmlns="http://www.w3.org/2000/svg">
 <g fill-rule="evenodd">
  <path transform="scale(.26458)" d="m13 4c-2.77 0-5 2.23-5 5v46c0 2.77 2.23 5 5 5h38c2.77 0 5-2.23 5-5v-39l-12-12h-31z" fill="#f4f4f4" opacity=".25" stroke="#000" stroke-width=".99999" style="paint-order:stroke fill markers"/>
  <path transform="scale(.26458)" d="m13 4c-2.77 0-5 2.23-5 5v46c0 2.77 2.23 5 5 5h38c2.77 0 5-2.23 5-5v-39l-12-12h-31z" fill="#f4f4f4" style="paint-order:stroke fill markers"/>
  <path d="m14.816 4.2332-3.1749-3.1749v1.852c0 0.73288 0.59001 1.3229 1.3229 1.3229z" fill="#bbb" style="paint-order:stroke fill markers"/>
 </g>
 <path d="m8.4665 4.1635-2.0579 2.0579 2.0579 2.0579 2.0579-2.0579zm2.245 2.245-2.0579 2.0579 2.0579 2.0579 2.0579-2.0579zm-4.49 0-2.0579 2.0579 2.0579 2.0579 2.0579-2.0579zm2.245 2.245-2.0579 2.0579 2.0579 2.0579 2.0579-2.0579z" enable-background="new" fill="#37a6e6"/>
</svg>
