<svg width="64" height="64" version="1.1" viewBox="0 0 16.933 16.933" xmlns="http://www.w3.org/2000/svg">
 <path d="m3.4395 1.0583c-0.73288 0-1.3229 0.59001-1.3229 1.3229v12.171c0 0.73288 0.59001 1.3229 1.3229 1.3229h10.054c0.73288 0 1.3229-0.59001 1.3229-1.3229v-10.319l-3.1749-3.1749z" fill="#341c05" fill-rule="evenodd" style="paint-order:stroke fill markers"/>
 <path d="m14.816 4.2332-3.1749-3.1749v1.852c0 0.73288 0.59001 1.3229 1.3229 1.3229z" fill="#ff7c00" fill-rule="evenodd" style="paint-order:stroke fill markers"/>
 <path class="st1" d="m6.8166 9.7034-0.3832 1.4552c-0.0097 0.03881-0.02425 0.0485-0.07276 0.0485h-0.71304c-0.04851 0-0.05821-0.01455-0.04851-0.07276l1.3776-4.8215c0.02425-0.08731 0.0388-0.16492 0.04851-0.4026 0-0.03395 0.01455-0.0485 0.0388-0.0485h1.0186c0.03395 0 0.04851 0.0097 0.05821 0.0485l1.5425 5.2338c0.0097 0.03881 0 0.06306-0.0388 0.06306h-0.8052c-0.0388 0-0.06306-0.0097-0.07276-0.04366l-0.4026-1.46zm1.3485-0.7858c-0.13582-0.53842-0.45596-1.7123-0.57722-2.2798h-0.0097c-0.10186 0.56752-0.35894 1.5279-0.56267 2.2798zm2.1828-2.6969c0-0.31044 0.21828-0.49476 0.49476-0.49476 0.29589 0 0.49476 0.19887 0.49476 0.49476 0 0.32014-0.20858 0.49476-0.50446 0.49476-0.28134 0-0.48506-0.17462-0.48506-0.49476zm0.05821 1.1011c0-0.0388 0.01455-0.05821 0.05821-0.05821h0.76154c0.0388 0 0.05821 0.01455 0.05821 0.05821v3.8271c0 0.0388-0.0097 0.05821-0.05821 0.05821h-0.75185c-0.04851 0-0.06306-0.02425-0.06306-0.06306v-3.8223z" enable-background="new" fill="#ff7c00" stroke-width=".048506"/>
</svg>
