<svg width="64" height="64" version="1.1" viewBox="0 0 16.933 16.933" xmlns="http://www.w3.org/2000/svg">
 <g fill-rule="evenodd">
  <path transform="scale(.26458)" d="m13 4c-2.77 0-5 2.23-5 5v46c0 2.77 2.23 5 5 5h38c2.77 0 5-2.23 5-5v-39l-12-12z" fill="#f4f4f4" opacity=".25" stroke="#000" stroke-width=".99999" style="paint-order:stroke fill markers"/>
  <path transform="scale(.26458)" d="m13 4c-2.77 0-5 2.23-5 5v46c0 2.77 2.23 5 5 5h38c2.77 0 5-2.23 5-5v-39l-12-12z" fill="#f4f4f4" style="paint-order:stroke fill markers"/>
  <path d="m14.816 4.2332-3.1749-3.1749v1.852c0 0.73288 0.59001 1.3229 1.3229 1.3229z" fill="#bbb" style="paint-order:stroke fill markers"/>
 </g>
 <g transform="translate(-.13229 .79373)" fill="#b3b3b3">
  <path transform="matrix(.26458 0 0 .26458 .13229 -.79373)" d="m20 28c-2.216 0-4 1.784-4 4s1.784 4 4 4h6c1.483 0 2.7584-0.80729 3.4492-2h-0.44922-0.79688c-0.54683 0.6049-1.3196 1-2.2031 1h-6c-1.662 0-3-1.338-3-3s1.338-3 3-3h6c0.88351 0 1.6563 0.3951 2.2031 1h0.79688 0.44922c-0.69084-1.1927-1.9662-2-3.4492-2h-6z" style="paint-order:fill markers stroke"/>
  <path transform="matrix(.26458 0 0 .26458 .13229 -.79373)" d="m38 28c-1.483 0-2.7584 0.80729-3.4492 2h0.44922 0.79688c0.54683-0.6049 1.3196-1 2.2031-1h6c1.662 0 3 1.338 3 3s-1.338 3-3 3h-6c-0.88351 0-1.6563-0.3951-2.2031-1h-0.79688-0.44922c0.69084 1.1927 1.9662 2 3.4492 2h6c2.216 0 4-1.784 4-4s-1.784-4-4-4h-6z" style="paint-order:fill markers stroke"/>
 </g>
 <path d="m7.6728 8.2019h1.5875c0.14658 0 0.26458 0.118 0.26458 0.26458s-0.118 0.26458-0.26458 0.26458h-1.5875c-0.14658 0-0.26458-0.118-0.26458-0.26458s0.118-0.26458 0.26458-0.26458z" fill="#b3b3b3" style="paint-order:fill markers stroke"/>
</svg>
