<svg width="64" height="64" version="1.1" viewBox="0 0 16.933 16.933" xmlns="http://www.w3.org/2000/svg">
 <g fill-rule="evenodd">
  <path transform="scale(.26458)" d="m13 4c-2.77 0-5 2.23-5 5v46c0 2.77 2.23 5 5 5h38c2.77 0 5-2.23 5-5v-39l-12-12h-31z" fill="#f4f4f4" opacity=".25" stroke="#000" stroke-width=".99999" style="paint-order:stroke fill markers"/>
  <path transform="scale(.26458)" d="m13 4c-2.77 0-5 2.23-5 5v46c0 2.77 2.23 5 5 5h38c2.77 0 5-2.23 5-5v-39l-12-12h-31z" fill="#f4f4f4" style="paint-order:stroke fill markers"/>
  <path d="m14.816 4.2332-3.1749-3.1749v1.852c0 0.73288 0.59001 1.3229 1.3229 1.3229z" fill="#bbb" style="paint-order:stroke fill markers"/>
 </g>
 <g transform="matrix(.066145 0 0 .066145 -1.7198 -2.2489)" enable-background="new">
  <path d="m152 104c-13.296 0-24 5.352-24 12v16h24v4h-44c-6.648 0-12 10.704-12 24v4c0 13.296 5.352 24 12 24h16v-12s0-16 16-16h32s8 0 8-8v-36c0-6.648-10.704-12-24-12zm-12 8c2.2091 0 4 1.7909 4 4s-1.7909 4-4 4-4-1.7909-4-4 1.7909-4 4-4z" fill="#347ab4"/>
  <path d="m156 220c13.296 0 24-5.352 24-12v-16h-24v-4h44c6.648 0 12-10.704 12-24v-4c0-13.296-5.352-24-12-24h-16v16c0 12-12 12-12 12h-32c-12 0-12 12-12 12v32c0 6.648 10.704 12 24 12zm12-12c-2.2091 0-4-1.7909-4-4s1.7909-4 4-4 4 1.7909 4 4-1.7909 4-4 4z" fill="#ffd43b"/>
 </g>
</svg>
