<svg width="64" height="64" version="1.1" viewBox="0 0 16.933 16.933" xmlns="http://www.w3.org/2000/svg">
 <g fill-rule="evenodd">
  <path transform="scale(.26458)" d="m13 4c-2.77 0-5 2.23-5 5v46c0 2.77 2.23 5 5 5h38c2.77 0 5-2.23 5-5v-39l-12-12h-31z" fill="#f4f4f4" opacity=".25" stroke="#000" stroke-width=".99999" style="paint-order:stroke fill markers"/>
  <path transform="scale(.26458)" d="m13 4c-2.77 0-5 2.23-5 5v46c0 2.77 2.23 5 5 5h38c2.77 0 5-2.23 5-5v-39l-12-12h-31z" fill="#f4f4f4" style="paint-order:stroke fill markers"/>
  <path d="m14.816 4.2332-3.1749-3.1749v1.852c0 0.73288 0.59001 1.3229 1.3229 1.3229z" fill="#bbb" style="paint-order:stroke fill markers"/>
 </g>
 <g transform="translate(-18.256 -1.0583)" fill="#999">
  <path d="m23.018 9.7894h7.4082v0.26458h-7.4082z" enable-background="new"/>
  <path d="m23.018 10.583h7.4082v0.26458h-7.4082z" enable-background="new"/>
  <path d="m23.018 11.377h7.4082v0.26458h-7.4082z" enable-background="new"/>
  <path d="m23.018 12.171h3.7041v0.26458h-3.7041z" enable-background="new"/>
  <path d="m23.018 7.4082h7.4082v0.26458h-7.4082z" enable-background="new"/>
  <path d="m23.018 8.2019h7.4082v0.26458h-7.4082z" enable-background="new"/>
  <path d="m23.018 8.9957h7.4082v0.26458h-7.4082z" enable-background="new"/>
  <path d="m23.018 6.6145h7.4082v0.26458h-7.4082z" enable-background="new"/>
 </g>
</svg>
