<svg width="64" height="64" version="1.1" viewBox="0 0 16.933 16.933" xmlns="http://www.w3.org/2000/svg">
 <g fill-rule="evenodd">
  <path transform="scale(.26458)" d="m13 4c-2.77 0-5 2.23-5 5v46c0 2.77 2.23 5 5 5h38c2.77 0 5-2.23 5-5v-39l-12-12h-31z" fill="#f4f4f4" opacity=".25" stroke="#000" stroke-width=".99999" style="paint-order:stroke fill markers"/>
  <path transform="scale(.26458)" d="m13 4c-2.77 0-5 2.23-5 5v46c0 2.77 2.23 5 5 5h38c2.77 0 5-2.23 5-5v-39l-12-12h-31z" fill="#f4f4f4" style="paint-order:stroke fill markers"/>
  <path d="m14.816 4.2332-3.1749-3.1749v1.852c0 0.73288 0.59001 1.3229 1.3229 1.3229z" fill="#bbb" style="paint-order:stroke fill markers"/>
 </g>
 <path d="m6.2156 4.6301v7.6728h1.3281c0.0048-0.9999-0.01045-2.0002 0.0092-2.9998 0.03292-0.46957 0.05889-1.0676 0.5063-1.3248 0.24627-0.14154 0.57594-0.17596 0.84722-0.08789 0.39762 0.1291 0.46434 0.64142 0.48136 1.0105 0.0065 1.1339 1e-3 2.268 0.0028 3.402h1.3229c-0.0028-1.2743 0.01-2.5622-2e-6 -3.8364-0.01374-0.64031-0.27596-1.3416-0.88853-1.6338-0.52357-0.24968-1.1434-0.17516-1.6747 0.02621-0.25085 0.09507-0.59703 0.5577-0.59703 0.5577-0.0032-0.92882-0.0063-1.8576-0.0095-2.7865h-1.3281z" color="#000000" fill="#da1636"/>
</svg>
