<svg width="64" height="64" version="1.1" viewBox="0 0 16.933 16.933" xmlns="http://www.w3.org/2000/svg">
 <g fill-rule="evenodd">
  <path transform="scale(.26458)" d="m13 4c-2.77 0-5 2.23-5 5v46c0 2.77 2.23 5 5 5h38c2.77 0 5-2.23 5-5v-39l-12-12h-31z" fill="#f4f4f4" opacity=".25" stroke="#000" stroke-width=".99999" style="paint-order:stroke fill markers"/>
  <path transform="scale(.26458)" d="m13 4c-2.77 0-5 2.23-5 5v46c0 2.77 2.23 5 5 5h38c2.77 0 5-2.23 5-5v-39l-12-12h-31z" fill="#f4f4f4" style="paint-order:stroke fill markers"/>
  <path d="m14.816 4.2332-3.1749-3.1749v1.852c0 0.73288 0.59001 1.3229 1.3229 1.3229z" fill="#bbb" style="paint-order:stroke fill markers"/>
 </g>
 <g transform="matrix(.066145 0 0 .066145 -1.5875 -1.7198)" enable-background="new">
  <path d="m96 92v4h72v-4zm0 12v4h112v-4zm0 12v4h56v-4z" fill="#5884f4"/>
  <path d="m96 200v4h112v-4zm0 12v4h56v-4z" fill="#b3b3b3"/>
  <path d="m136 128v4h66v-4zm0 12v4h72v-4zm0 12v4h56v-4z" fill="#c43ac4"/>
  <path d="m96 128v4h32v-4zm0 12v4h32v-4zm0 12v4h32v-4z" fill="#8c59d9"/>
  <path d="m136 164v4h72v-4zm0 12v4h56v-4z" fill="#76c22b"/>
  <path d="m96 164v4h32v-4zm0 12v4h32v-4zm0 12v4h32v-4z" fill="#f22c42"/>
  <path d="m136 188v4h72v-4z" fill="#b3b3b3"/>
 </g>
</svg>
