<svg width="64" height="64" version="1.1" viewBox="0 0 16.933 16.933" xmlns="http://www.w3.org/2000/svg">
 <g fill-rule="evenodd">
  <path transform="scale(.26458)" d="m13 4c-2.77 0-5 2.23-5 5v46c0 2.77 2.23 5 5 5h38c2.77 0 5-2.23 5-5v-39l-12-12h-31z" fill="#f4f4f4" opacity=".25" stroke="#000" stroke-width=".99999" style="paint-order:stroke fill markers"/>
  <path transform="scale(.26458)" d="m13 4c-2.77 0-5 2.23-5 5v46c0 2.77 2.23 5 5 5h38c2.77 0 5-2.23 5-5v-39l-12-12h-31z" fill="#f4f4f4" style="paint-order:stroke fill markers"/>
  <path d="m14.816 4.2332-3.1749-3.1749v1.852c0 0.73288 0.59001 1.3229 1.3229 1.3229z" fill="#bbb" style="paint-order:stroke fill markers"/>
 </g>
 <g transform="translate(-20.849 -2.0766)">
  <rect x="25.876" y="8.691" width="6.879" height="3.7041" rx=".26458" ry=".26458" enable-background="new" fill="none" stroke="#455a64" stroke-width=".52916"/>
  <path d="m26.934 11.601v-2.1166h0.52916l0.66144 0.82681 0.66145-0.82681h0.52916v2.1166h-0.52916v-1.2898l-0.66145 0.82681-0.66144-0.82681v1.2898z" enable-background="new" fill="#455a64"/>
  <path d="m30.903 11.601-0.79373-1.0583h0.52916v-1.0583h0.52916v1.0583h0.52916z" enable-background="new" fill="#455a64"/>
 </g>
</svg>
