<svg width="64" height="64" version="1.1" viewBox="0 0 16.933 16.933" xmlns="http://www.w3.org/2000/svg">
 <path d="m15.875 3.4395c0-0.73289-0.59001-1.3229-1.3229-1.3229h-12.171c-0.73289 0-1.3229 0.59001-1.3229 1.3229v10.054c0 0.73289 0.59001 1.3229 1.3229 1.3229h10.319l3.175-3.175z" fill="#34263a" fill-rule="evenodd" stroke-width=".26458" style="paint-order:stroke fill markers"/>
 <g fill="#fff">
  <path d="m12.7 14.816 3.1749-3.1749h-1.852c-0.73288 0-1.3229 0.59001-1.3229 1.3229z" fill-rule="evenodd" opacity=".35" style="paint-order:stroke fill markers"/>
  <path d="m5.8208 5.2917v6.3498s2.8229-1.3016 5.2915-3.1769c0-6.004e-4 -3.04e-4 -0.00101-6.33e-4 -0.00174-3.05e-4 -6.747e-4 -6.33e-4 -0.00138-0.0011-0.00211-4.92e-4 -6.757e-4 -9.09e-4 -0.00138-0.0013-0.00211-4.46e-4 -6.747e-4 -6.34e-4 -0.00138-6.34e-4 -0.00202-2.6039-1.9351-5.2879-3.165-5.2879-3.165z" color="#000000" opacity=".6"/>
  <path transform="scale(.26458)" d="m6.0215 9c-1.2216 0.90994-2.0215 2.3529-2.0215 4h4v-4zm49.979 0v4h4v-0.03711c-0.011862-1.6316-0.80736-3.0598-2.0195-3.9629zm-52 6v4h4v-4zm52 0v4h4v-4zm-52 6v4h4v-4zm52 0v4h4v-4zm-52 6v4h4v-4zm52 0v4h4v-4zm-52 6v4h4v-4zm52 0v4h4v-4zm-52 6v4h4v-4zm52 0v4h4v-4zm-52 6v4h4v-4zm0 6c0 1.6471 0.79987 3.0901 2.0215 4h1.9785v-4z" opacity=".15" style="paint-order:fill markers stroke"/>
 </g>
</svg>
