<svg width="64" height="64" version="1.1" viewBox="0 0 16.933 16.933" xmlns="http://www.w3.org/2000/svg">
 <g fill-rule="evenodd">
  <path transform="scale(.26458)" d="m13 4c-2.77 0-5 2.23-5 5v46c0 2.77 2.23 5 5 5h38c2.77 0 5-2.23 5-5v-39l-12-12h-31z" fill="#f4f4f4" opacity=".25" stroke="#000" stroke-width=".99999" style="paint-order:stroke fill markers"/>
  <path transform="scale(.26458)" d="m13 4c-2.77 0-5 2.23-5 5v46c0 2.77 2.23 5 5 5h38c2.77 0 5-2.23 5-5v-39l-12-12h-31z" fill="#f4f4f4" style="paint-order:stroke fill markers"/>
  <path d="m14.816 4.2332-3.1749-3.1749v1.852c0 0.73288 0.59001 1.3229 1.3229 1.3229z" fill="#bbb" style="paint-order:stroke fill markers"/>
 </g>
 <g transform="translate(-.11624 .017946)">
  <path d="m9.1119 4.7445v0.26458h3.1749v-0.26458zm0 1.0583v0.26458h3.1749v-0.26458zm0 1.0583v0.26458h3.1749v-0.26458zm0 1.0583v0.26458h3.1749v-0.26458zm-4.2333 1.0583v0.26458h7.4082v-0.26458zm0 1.0583v0.26458h7.4082v-0.26458zm0 1.0583v0.26458h7.4082v-0.26458zm0 1.0583v0.26458h4.7624v-0.26458z" enable-background="new" fill="#37a6e6"/>
  <path d="m6.5045 4.4799-1.3053 3.4395h-0.32064v0.26458h0.92601v-0.26458h-0.29647l0.30928-0.79429h1.5347l0.30891 0.79429h-0.40052v0.26458h1.3283v-0.26458h-0.36644l-1.3056-3.4395zm0.08025 0.59547 0.67572 1.7863h-1.3401z" color="#bebebe" enable-background="new" fill="#1463a5" font-size="13.717" font-weight="400" letter-spacing="0" overflow="visible" stroke-width=".066145" word-spacing="0"/>
 </g>
</svg>
