<?xml version="1.0" encoding="UTF-8" standalone="no"?>
<svg
   version="1.1"
   viewBox="0 0 16 16"
   id="svg2"
   sodipodi:docname="audio-volume-high-danger.svg"
   inkscape:version="1.3.2 (091e20ef0f, 2023-11-25, custom)"
   xmlns:inkscape="http://www.inkscape.org/namespaces/inkscape"
   xmlns:sodipodi="http://sodipodi.sourceforge.net/DTD/sodipodi-0.dtd"
   xmlns="http://www.w3.org/2000/svg"
   xmlns:svg="http://www.w3.org/2000/svg">
  <defs
     id="defs2" />
  <sodipodi:namedview
     id="namedview2"
     pagecolor="#c8c8c8"
     bordercolor="#000000"
     borderopacity="0.25"
     inkscape:showpageshadow="2"
     inkscape:pageopacity="0.0"
     inkscape:pagecheckerboard="0"
     inkscape:deskcolor="#d1d1d1"
     inkscape:zoom="16.418136"
     inkscape:cx="10.689399"
     inkscape:cy="0.82226145"
     inkscape:window-width="1920"
     inkscape:window-height="950"
     inkscape:window-x="0"
     inkscape:window-y="34"
     inkscape:window-maximized="1"
     inkscape:current-layer="svg2" />
  <style
     id="current-color-scheme"
     type="text/css">.ColorScheme-Text {
            color:#f2f2f2;
        }
        .ColorScheme-NegativeText {
            color:#da4453;
        }</style>
  <g
     id="g2"
     transform="matrix(0.88888889,0,0,0.88888889,-7.1111111,12.444444)">
    <rect
       class="ColorScheme-Text"
       x="8"
       y="-14"
       width="18"
       height="18"
       ry="0"
       fill="currentColor"
       opacity="0"
       id="rect93"
       style="color:#363636;stroke-width:1.125" />
    <path
       id="path7590"
       style="fill:#da4453;fill-opacity:1;stroke-width:0.729603"
       d="m 21.075928,-9.6809872 c -0.116819,-0.00105 -0.236551,0.029149 -0.347168,0.098876 -0.307747,0.1923817 -0.351941,0.576396 -0.127442,0.9162596 0.686119,1.0003523 1.07666,2.3033711 1.07666,3.6628416 0,1.35305 -0.403382,2.653865 -1.07666,3.660645 -0.218078,0.339849 -0.180305,0.71964 0.127442,0.918457 0.294978,0.179483 0.653722,0.114631 0.852539,-0.186768 0.840065,-1.179915 1.320557,-2.763567 1.320557,-4.392334 0,-1.6288382 -0.474144,-3.218839 -1.320557,-4.3923332 -0.124261,-0.18837 -0.310673,-0.2838904 -0.505371,-0.285644 z" />
    <path
       id="path8982"
       style="fill:#da4453;fill-opacity:1;stroke-width:0.729603"
       d="m 18.483154,-7.960528 c -0.114004,0.00109 -0.228366,0.03573 -0.331787,0.1054687 -0.314167,0.2052157 -0.379502,0.5838592 -0.123047,0.9558113 0.352691,0.5065638 0.551514,1.186636 0.551514,1.898437 0,0.711801 -0.205171,1.385453 -0.551514,1.898438 -0.250035,0.371952 -0.19112,0.748546 0.123047,0.960204 0.27579,0.179555 0.63402,0.117343 0.832764,-0.164794 0.519404,-0.69254 0.828369,-1.6743 0.828369,-2.693848 0,-1.0196197 -0.308965,-1.9948597 -0.828369,-2.6938481 -0.124215,-0.1763459 -0.310969,-0.2676836 -0.500977,-0.2658689 z"
       sodipodi:nodetypes="sccscccscs" />
    <path
       id="path8980"
       style="fill:#da4453;fill-opacity:1;stroke-width:0.729603"
       d="m 23.668701,-11.410235 c -0.118659,-0.0028 -0.236972,0.02694 -0.342773,0.09668 -0.30782,0.198788 -0.352283,0.576396 -0.140625,0.91626 0.981097,1.4941258 1.59082,3.3488694 1.59082,5.400879 0,2.039168 -0.609723,3.904356 -1.59082,5.392089 -0.211658,0.33985 -0.167195,0.717442 0.140625,0.916259 0.282137,0.185978 0.660558,0.10347 0.865722,-0.204343 C 25.320274,-0.585311 26,-2.685754 26,-4.994219 c 0,-2.3149588 -0.692567,-4.4112782 -1.80835,-6.110596 -0.128227,-0.196387 -0.325184,-0.300661 -0.522949,-0.30542 z" />
    <path
       class="ColorScheme-Text" fill="currentColor"
       d="m 15.116943,-10.740069 c -0.327008,0 -0.557149,0.147572 -0.916259,0.474609 l -2.814698,2.4938971 c -0.03847,0.038475 -0.08933,0.048341 -0.140625,0.048341 H 9.43042 C 8.4813666,-7.7232217 8,-7.2228498 8,-6.2224897 v 2.4631347 c 0,1.006779 0.4877724,1.500732 1.43042,1.500733 h 1.814941 c 0.0513,0 0.102154,0.01208 0.140625,0.05053 l 2.814698,2.513671 c 0.333428,0.301399 0.589594,0.443848 0.929443,0.443848 0.474534,0 0.834961,-0.360427 0.834961,-0.834961 v -9.7910108 c 0,-0.4809412 -0.36077,-0.8635252 -0.848145,-0.8635242 z m -0.468017,1.6281743 c 0.05129,0 0.09009,0.032377 0.09009,0.09009 v 8.0485837 c 0,0.06414 -0.03863,0.09228 -0.0835,0.09228 -0.03845,0 -0.06922,-0.0097 -0.107666,-0.04175 L 11.994629,-3.238604 C 11.847139,-3.373288 11.719521,-3.4034 11.546386,-3.403399 H 9.5446774 c -0.2116141,0 -0.314209,-0.102622 -0.314209,-0.314209 v -2.5334466 c 0,-0.2180058 0.1025944,-0.3208016 0.314209,-0.3208016 h 2.0017086 c 0.173135,0 0.300753,-0.03231 0.448243,-0.1669916 l 2.553222,-2.326905 c 0.03203,-0.02565 0.06262,-0.046148 0.101075,-0.046148 z"
       sodipodi:nodetypes="sccssssssccsssscssscccssssscccc" />
  </g>
</svg>
