<?xml version="1.0" encoding="UTF-8" standalone="no"?>
<svg
   width="16"
   height="16"
   version="1.1"
   id="svg1"
   sodipodi:docname="audio-volume-muted-blocking-panel.svg"
   inkscape:version="1.4 (e7c3feb100, 2024-10-09)"
   xmlns:inkscape="http://www.inkscape.org/namespaces/inkscape"
   xmlns:sodipodi="http://sodipodi.sourceforge.net/DTD/sodipodi-0.dtd"
   xmlns="http://www.w3.org/2000/svg"
   xmlns:svg="http://www.w3.org/2000/svg">
  <sodipodi:namedview
     id="namedview1"
     pagecolor="#c8c8c8"
     bordercolor="#000000"
     borderopacity="0.25"
     inkscape:showpageshadow="2"
     inkscape:pageopacity="0.0"
     inkscape:pagecheckerboard="0"
     inkscape:deskcolor="#d1d1d1"
     inkscape:zoom="23.21875"
     inkscape:cx="9.9919246"
     inkscape:cy="8.0538358"
     inkscape:window-width="1920"
     inkscape:window-height="1051"
     inkscape:window-x="0"
     inkscape:window-y="0"
     inkscape:window-maximized="1"
     inkscape:current-layer="svg1"
     showgrid="true">
    <inkscape:grid
       id="grid1"
       units="px"
       originx="0"
       originy="0"
       spacingx="1"
       spacingy="1"
       empcolor="#0099e5"
       empopacity="0.30196078"
       color="#0099e5"
       opacity="0.14902"
       empspacing="5"
       enabled="true"
       visible="true" />
  </sodipodi:namedview>
  <defs
     id="defs1">
    <style
       id="current-color-scheme"
       type="text/css">.ColorScheme-Text { color:#f2f2f2; } .ColorScheme-Highlight { color:#4285f4; }</style>
  </defs>
  <path
     class="ColorScheme-Text" fill="currentColor"
     d="M 6.3261719 2.8984375 C 6.035498 2.8984375 5.8309282 3.0296125 5.5117188 3.3203125 L 3.0097656 5.5371094 C 2.9755686 5.5713094 2.9303646 5.5800781 2.8847656 5.5800781 L 1.2714844 5.5800781 C 0.42788137 5.5800781 -1.4802974e-16 6.0248535 0 6.9140625 L 0 9.1035156 C 0 9.9984306 0.43357548 10.437499 1.2714844 10.4375 L 2.8847656 10.4375 C 2.9303646 10.4375 2.9755686 10.448242 3.0097656 10.482422 L 5.5117188 12.716797 C 5.8080998 12.984708 6.0358024 13.111328 6.3378906 13.111328 C 6.7596986 13.111328 7.0800781 12.790949 7.0800781 12.369141 L 7.0800781 3.6660156 C 7.0800781 3.2385126 6.7593942 2.8984365 6.3261719 2.8984375 z M 5.9101562 4.3457031 C 5.9557483 4.3457031 5.9902344 4.3744812 5.9902344 4.4257812 L 5.9902344 11.580078 C 5.9902344 11.637088 5.9559006 11.662109 5.9160156 11.662109 C 5.8818376 11.662109 5.8544895 11.65351 5.8203125 11.625 L 3.5507812 9.5664062 C 3.4196796 9.4466873 3.3062413 9.4199209 3.1523438 9.4199219 L 1.3730469 9.4199219 C 1.1849455 9.4199219 1.09375 9.328702 1.09375 9.140625 L 1.09375 6.8886719 C 1.09375 6.6948889 1.184945 6.6035156 1.3730469 6.6035156 L 3.1523438 6.6035156 C 3.3062412 6.6035156 3.4196797 6.5747951 3.5507812 6.4550781 L 5.8203125 4.3867188 C 5.8487835 4.3639187 5.8759782 4.3457031 5.9101562 4.3457031 z M 8.8789062 4.671875 C 8.7510968 4.671875 8.6233249 4.720425 8.5253906 4.8183594 C 8.329522 5.014228 8.329522 5.329522 8.5253906 5.5253906 L 11 8 L 8.5253906 10.474609 C 8.329522 10.670478 8.3295221 10.985772 8.5253906 11.181641 C 8.7212592 11.377509 9.0365533 11.37751 9.2324219 11.181641 L 11.707031 8.7070312 L 14.181641 11.181641 C 14.37751 11.37751 14.692804 11.37751 14.888672 11.181641 C 15.084541 10.985773 15.08454 10.670478 14.888672 10.474609 L 12.414062 8 L 14.888672 5.5253906 C 15.08454 5.329522 15.084541 5.0142279 14.888672 4.8183594 C 14.692804 4.6224908 14.37751 4.6224908 14.181641 4.8183594 L 11.707031 7.2929688 L 9.2324219 4.8183594 C 9.1344877 4.720425 9.0067159 4.671875 8.8789062 4.671875 z "
     id="path1"
     style="opacity:0.3" />
</svg>
