<?xml version="1.0" encoding="UTF-8" standalone="no"?>
<svg
   width="16"
   height="16"
   version="1.1"
   id="svg5"
   sodipodi:docname="audio-volume-high-panel.svg"
   inkscape:version="1.3.2 (091e20ef0f, 2023-11-25, custom)"
   xmlns:inkscape="http://www.inkscape.org/namespaces/inkscape"
   xmlns:sodipodi="http://sodipodi.sourceforge.net/DTD/sodipodi-0.dtd"
   xmlns="http://www.w3.org/2000/svg"
   xmlns:svg="http://www.w3.org/2000/svg">
  <sodipodi:namedview
     id="namedview5"
     pagecolor="#c8c8c8"
     bordercolor="#000000"
     borderopacity="0.25"
     inkscape:showpageshadow="2"
     inkscape:pageopacity="0.0"
     inkscape:pagecheckerboard="0"
     inkscape:deskcolor="#d1d1d1"
     inkscape:zoom="11.609375"
     inkscape:cx="-16.753701"
     inkscape:cy="7.192463"
     inkscape:window-width="1920"
     inkscape:window-height="950"
     inkscape:window-x="0"
     inkscape:window-y="34"
     inkscape:window-maximized="1"
     inkscape:current-layer="svg5" />
  <defs
     id="defs1">
    <style
       id="current-color-scheme"
       type="text/css">
   .ColorScheme-Text { color:#f2f2f2; } .ColorScheme-Highlight { color:#4285f4; }
  </style>
  </defs>
  <g
     id="16-16-audio-volume-high"
     transform="translate(10,69.999702)">
    <rect
       class="ColorScheme-Text"
       x="-10"
       y="-69.999702"
       width="16"
       height="16"
       ry="0"
       fill="currentColor"
       opacity="0"
       id="rect93"
       style="color:#363636" />
    <g
       id="g8988"
       transform="translate(0,23.427307)">
      <path
         class="ColorScheme-Text" fill="currentColor"
         d="m 1.6230469,-89.587891 c -0.1038393,-9.35e-4 -0.2102675,0.02591 -0.3085938,0.08789 -0.2735526,0.171006 -0.3128358,0.512352 -0.1132812,0.814453 0.6098835,0.889202 0.9570312,2.047441 0.9570312,3.255859 0,1.202711 -0.3585619,2.358991 -0.9570312,3.253907 -0.1938475,0.302088 -0.1602714,0.63968 0.1132812,0.816406 0.2622033,0.15954 0.5810863,0.101894 0.7578125,-0.166016 0.7467247,-1.048813 1.1738282,-2.456504 1.1738282,-3.904297 0,-1.447856 -0.4214613,-2.86119 -1.1738282,-3.904296 -0.1104539,-0.16744 -0.2761533,-0.252347 -0.4492187,-0.253906 z" />
      <path
         class="ColorScheme-Text" fill="currentColor"
         d="m -3.6738281,-90.529297 c -0.2906739,0 -0.4952437,0.131175 -0.8144531,0.421875 l -2.5019532,2.216797 c -0.034197,0.0342 -0.079401,0.04297 -0.125,0.04297 H -8.7285156 C -9.5721186,-87.847655 -10,-87.40288 -10,-86.513671 v 2.189453 c 0,0.894915 0.4335755,1.333984 1.2714844,1.333985 h 1.6132812 c 0.045599,0 0.090803,0.01074 0.125,0.04492 l 2.5019532,2.234374 c 0.296381,0.267911 0.5240836,0.394532 0.8261718,0.394532 0.421808,0 0.7421875,-0.32038 0.7421875,-0.742188 v -8.703125 c 0,-0.427503 -0.3206839,-0.767578 -0.7539062,-0.767577 z m -0.4160157,1.447266 c 0.045592,0 0.080078,0.02878 0.080078,0.08008 v 7.154297 c 0,0.05701 -0.034334,0.08203 -0.074219,0.08203 -0.034178,0 -0.061526,-0.0086 -0.095703,-0.03711 l -2.2695313,-2.058594 c -0.1311017,-0.119719 -0.2445399,-0.146485 -0.3984374,-0.146484 h -1.7792969 c -0.1881014,0 -0.2792969,-0.09122 -0.2792969,-0.279297 v -2.251953 c 0,-0.193783 0.091195,-0.285157 0.2792969,-0.285157 h 1.7792969 c 0.1538975,0 0.2673358,-0.02872 0.3984374,-0.148437 l 2.2695313,-2.06836 c 0.028471,-0.0228 0.055666,-0.04102 0.089844,-0.04102 z m 3.40820318,1.023437 c -0.10133735,9.69e-4 -0.20299186,0.03176 -0.29492188,0.09375 -0.2792597,0.182414 -0.3373355,0.518986 -0.109375,0.84961 0.31350248,0.450279 0.49023438,1.054788 0.49023438,1.6875 0,0.632712 -0.18237416,1.231514 -0.49023438,1.6875 -0.2222533,0.330624 -0.1698847,0.665374 0.109375,0.853515 0.24514672,0.159604 0.56357309,0.104305 0.74023438,-0.146484 C 0.22536487,-83.648794 0.5,-84.521469 0.5,-85.427734 c 0,-0.906329 -0.27463514,-1.773209 -0.73632812,-2.394532 -0.11041331,-0.156752 -0.27641693,-0.237941 -0.4453125,-0.236328 z" />
      <path
         class="ColorScheme-Text" fill="currentColor"
         d="m 3.9277344,-91.125 c -0.1054744,-0.0025 -0.2106417,0.02395 -0.3046875,0.08594 -0.2736174,0.1767 -0.3131404,0.512352 -0.125,0.814453 0.8720867,1.328112 1.4140625,2.976773 1.4140625,4.800781 0,1.812594 -0.5419758,3.470539 -1.4140625,4.792969 -0.1881404,0.302088 -0.1486174,0.637726 0.125,0.814453 0.250789,0.165311 0.5871628,0.09197 0.7695312,-0.181641 C 5.3957989,-81.502845 6,-83.369906 6,-85.421875 6,-87.479616 5.3843847,-89.343011 4.3925781,-90.853516 4.2785979,-91.028082 4.1035251,-91.12077 3.9277344,-91.125 Z" />
    </g>
  </g>
</svg>
