<?xml version="1.0" encoding="UTF-8" standalone="no"?>
<svg
   version="1.1"
   viewBox="0 0 16 16"
   id="svg2"
   sodipodi:docname="audio-on.svg"
   inkscape:version="1.3.2 (091e20ef0f, 2023-11-25, custom)"
   xmlns:inkscape="http://www.inkscape.org/namespaces/inkscape"
   xmlns:sodipodi="http://sodipodi.sourceforge.net/DTD/sodipodi-0.dtd"
   xmlns="http://www.w3.org/2000/svg"
   xmlns:svg="http://www.w3.org/2000/svg">
  <sodipodi:namedview
     id="namedview2"
     pagecolor="#c8c8c8"
     bordercolor="#000000"
     borderopacity="0.25"
     inkscape:showpageshadow="2"
     inkscape:pageopacity="0.0"
     inkscape:pagecheckerboard="0"
     inkscape:deskcolor="#d1d1d1"
     inkscape:zoom="11.609375"
     inkscape:cx="-0.38761777"
     inkscape:cy="7.9676985"
     inkscape:window-width="1920"
     inkscape:window-height="950"
     inkscape:window-x="0"
     inkscape:window-y="34"
     inkscape:window-maximized="1"
     inkscape:current-layer="svg2" />
  <defs
     id="defs1">
    <style
       id="current-color-scheme"
       type="text/css">.ColorScheme-Text {
        color:#f2f2f2;
      }
      .ColorScheme-PositiveText {
        color:#27ae60;
      }</style>
  </defs>
  <g
     id="g2"
     transform="matrix(0.88888889,0,0,0.88888889,-16,4.4444444)">
    <rect
       class="ColorScheme-Text"
       x="18"
       y="-5"
       width="18"
       height="18"
       ry="0"
       fill="currentColor"
       opacity="0"
       id="rect93"
       style="color:#363636;stroke-width:1.125" />
    <path
       id="path7590"
       style="fill:#27ae60;fill-opacity:1;stroke-width:0.729603"
       d="m 31.075928,-0.6809872 c -0.116819,-0.00105 -0.236551,0.029149 -0.347168,0.098876 -0.307747,0.1923817 -0.351941,0.576396 -0.127442,0.9162596 0.686119,1.0003523 1.07666,2.3033711 1.07666,3.6628418 0,1.35305 -0.403382,2.653865 -1.07666,3.660645 -0.218078,0.339849 -0.180305,0.71964 0.127442,0.918457 0.294978,0.179483 0.653722,0.114631 0.852539,-0.186768 0.840065,-1.179915 1.320557,-2.763567 1.320557,-4.392334 0,-1.6288384 -0.474144,-3.2188392 -1.320557,-4.3923334 -0.124261,-0.18837 -0.310673,-0.2838904 -0.505371,-0.285644 z" />
    <path
       id="path8982"
       style="fill:#27ae60;fill-opacity:1;stroke-width:0.729603"
       d="M 28.483154,1.039472 C 28.36915,1.040562 28.254788,1.075202 28.151367,1.1449407 27.8372,1.3501564 27.771865,1.7287999 28.02832,2.100752 c 0.352691,0.5065638 0.551514,1.1866362 0.551514,1.8984372 0,0.711801 -0.205171,1.385453 -0.551514,1.898438 -0.250035,0.371952 -0.19112,0.748546 0.123047,0.960204 0.27579,0.179555 0.63402,0.117343 0.832764,-0.164794 0.519404,-0.69254 0.828369,-1.6743 0.828369,-2.693848 0,-1.0196199 -0.308965,-1.9948599 -0.828369,-2.6938483 C 28.859916,1.128995 28.673162,1.0376573 28.483154,1.039472 Z"
       sodipodi:nodetypes="sccscccscs" />
    <path
       id="path8980"
       style="fill:#27ae60;fill-opacity:1;stroke-width:0.729603"
       d="m 33.668701,-2.4102348 c -0.118659,-0.00281 -0.236972,0.026944 -0.342773,0.096683 -0.30782,0.1987875 -0.352283,0.576396 -0.140625,0.9162596 0.981097,1.494126 1.59082,3.3488696 1.59082,5.4008794 0,2.039168 -0.609723,3.904356 -1.59082,5.392089 -0.211658,0.33985 -0.167195,0.7174418 0.140625,0.9162588 0.282137,0.185975 0.660558,0.103467 0.865722,-0.204346 C 35.320274,8.4146892 36,6.3142462 36,4.0057812 36,1.6908222 35.307433,-0.4054972 34.19165,-2.1048153 34.063423,-2.3012021 33.866466,-2.405476 33.668701,-2.4102348 Z" />
    <path
       class="ColorScheme-Text" fill="currentColor"
       d="m 25.116943,-1.7400689 c -0.327008,0 -0.557149,0.1475718 -0.916259,0.4746093 l -2.814698,2.4938967 c -0.03847,0.038475 -0.08933,0.048341 -0.140625,0.048341 H 19.43042 C 18.481367,1.2767783 18,1.7771502 18,2.7775103 v 2.4631349 c 0,1.006779 0.487772,1.500732 1.43042,1.500733 h 1.814941 c 0.0513,0 0.102154,0.01208 0.140625,0.05053 l 2.814698,2.513671 c 0.333428,0.301399 0.589594,0.443848 0.929443,0.443848 0.474534,0 0.834961,-0.360427 0.834961,-0.834961 v -9.791011 c 0,-0.4809409 -0.36077,-0.8635253 -0.848145,-0.8635241 z m -0.468017,1.6281742 c 0.05129,0 0.09009,0.032377 0.09009,0.09009 v 8.0485839 c 0,0.06414 -0.03863,0.09228 -0.0835,0.09228 -0.03845,0 -0.06922,-0.0097 -0.107666,-0.04175 l -2.553224,-2.315913 c -0.147489,-0.134684 -0.275107,-0.164796 -0.448242,-0.164795 h -2.001709 c -0.211614,0 -0.314209,-0.102622 -0.314209,-0.314209 V 2.7489454 c 0,-0.2180058 0.102595,-0.3208016 0.314209,-0.3208016 h 2.001709 c 0.173135,0 0.300753,-0.03231 0.448242,-0.1669916 l 2.553223,-2.326905 c 0.03203,-0.02565 0.06262,-0.046148 0.101075,-0.046148 z"
       sodipodi:nodetypes="sccssssssccsssscssscccssssscccc" />
  </g>
</svg>
