<?xml version="1.0" encoding="UTF-8"?>
<svg width="64" height="64" version="1.1" xmlns="http://www.w3.org/2000/svg" xmlns:cc="http://creativecommons.org/ns#" xmlns:dc="http://purl.org/dc/elements/1.1/" xmlns:rdf="http://www.w3.org/1999/02/22-rdf-syntax-ns#" xmlns:xlink="http://www.w3.org/1999/xlink">
 <metadata>
  <rdf:RDF>
   <cc:Work rdf:about="">
    <dc:format>image/svg+xml</dc:format>
    <dc:type rdf:resource="http://purl.org/dc/dcmitype/StillImage"/>
    <dc:title/>
   </cc:Work>
  </rdf:RDF>
 </metadata>
 <defs>
  <linearGradient id="linearGradient890" x2="0" y1="44" y2="4" gradientTransform="matrix(1.2346 0 0 1.2346 3.1419 3.6047)" gradientUnits="userSpaceOnUse">
   <stop stop-color="#FFB900" offset="0"/>
   <stop stop-color="#ff0" offset="1"/>
  </linearGradient>
  <filter id="filter2761" x="-.024" y="-.024" width="1.048" height="1.048" color-interpolation-filters="sRGB">
   <feGaussianBlur stdDeviation="0.14552168"/>
  </filter>
  <linearGradient id="linearGradient4673" x1="1.4377" x2="15.644" y1="15.601" y2="1.1082" gradientTransform="matrix(3.7796 0 0 3.7796 -.0026279 .53068)" gradientUnits="userSpaceOnUse">
   <stop stop-color="#dc2828" offset="0"/>
   <stop stop-color="#fa4141" offset="1"/>
  </linearGradient>
  <linearGradient id="linearGradient915" x1="34.134" x2="34.134" y1="54.592" y2="9.67" gradientUnits="userSpaceOnUse">
   <stop stop-color="#ffb900" offset="0"/>
   <stop stop-color="#ff0" offset="1"/>
  </linearGradient>
 </defs>
 <g fill="#5e4aa6">
  <circle cx="-1248.7" cy="-1241.6" r="0"/>
  <circle cx="-1140.3" cy="-1301.8" r="0"/>
  <circle cx="-1158.1" cy="-1246" r="0"/>
 </g>
 <path transform="matrix(3.7796 0 0 3.7796 .00058415 -.00017177)" d="m10.708 1.1905c4.405 0 5.0345 0.67282 5.0345 5.388v3.7761c0 4.7152-0.62954 5.388-5.0345 5.388h-4.4832c-4.405 0-5.0346-0.6728-5.0346-5.388v-3.7761c0-4.7152 0.62954-5.388 5.0346-5.388z" enable-background="new" fill="#141414" filter="url(#filter2761)" opacity=".3"/>
 <path d="m40.473 4.2186c16.649 0 19.028 2.543 19.028 20.364v14.272c0 17.822-2.3794 20.364-19.028 20.364h-16.945c-16.649 0-19.029-2.5429-19.029-20.364v-14.272c0-17.822 2.3794-20.364 19.029-20.364z" enable-background="new" fill="url(#linearGradient4673)" stroke-width="3.7796"/>
 <circle cx="-1157.3" cy="-1267.7" r="0" fill="#5e4aa6"/>
 <circle cx="-57.756" cy="-2.1829" r="0" fill="#5e4aa6" fill-rule="evenodd"/>
 <rect x="10.631" y="10.631" width="42.738" height="42.738" ry="8.2405" fill="none" stroke="url(#linearGradient915)" stroke-width="2.2616"/>
 <path d="m21.352 42.494h4.321m-2.7778 0 9.8765-20.988 9.8765 20.988m-2.7778 0h4.321z" fill="none" stroke="url(#linearGradient890)" stroke-linecap="round" stroke-linejoin="round" stroke-width="3.7037"/>
</svg>
