<?xml version="1.0" encoding="UTF-8"?>
<svg width="64" height="64" version="1.1" viewBox="0 0 64 64" xmlns="http://www.w3.org/2000/svg" xmlns:cc="http://creativecommons.org/ns#" xmlns:dc="http://purl.org/dc/elements/1.1/" xmlns:rdf="http://www.w3.org/1999/02/22-rdf-syntax-ns#" xmlns:xlink="http://www.w3.org/1999/xlink">
 <metadata>
  <rdf:RDF>
   <cc:Work rdf:about="">
    <dc:format>image/svg+xml</dc:format>
    <dc:type rdf:resource="http://purl.org/dc/dcmitype/StillImage"/>
    <dc:title/>
   </cc:Work>
  </rdf:RDF>
 </metadata>
 <defs>
  <style type="text/css"/>
  <style type="text/css"/>
  <filter id="filter2761" x="-.024" y="-.024" width="1.048" height="1.048" color-interpolation-filters="sRGB">
   <feGaussianBlur stdDeviation="0.14552168"/>
  </filter>
  <linearGradient id="linearGradient1024" x1="1.3315" x2="15.65" y1="15.576" y2="1.17" gradientTransform="matrix(3.7796 0 0 3.7796 -.0031954 .53086)" gradientUnits="userSpaceOnUse">
   <stop stop-color="#dddfe1" offset="0"/>
   <stop stop-color="#f3f4f6" stop-opacity=".99608" offset="1"/>
  </linearGradient>
  <style type="text/css"/>
  <style type="text/css"/>
  <style type="text/css"/>
  <linearGradient id="linearGradient1030" x1="15.2" x2="38.776" y1="48.1" y2="14.5" gradientUnits="userSpaceOnUse">
   <stop stop-color="#32dcff" offset="0"/>
   <stop stop-color="#3296ff" offset="1"/>
  </linearGradient>
  <linearGradient id="linearGradient1038" x1="26.626" x2="48.712" y1="48.27" y2="14.595" gradientUnits="userSpaceOnUse">
   <stop stop-color="#ff8228" offset="0"/>
   <stop stop-color="#ff5a1e" offset=".48986"/>
   <stop stop-color="#ff8c55" offset="1"/>
  </linearGradient>
 </defs>
 <g fill="#5e4aa6">
  <circle cx="-1248.7" cy="-1241.6" r="0"/>
  <circle cx="-149.15" cy="23.855" r="0" fill-rule="evenodd"/>
  <circle cx="-1248.7" cy="-1241.6" r="0"/>
  <circle cx="-149.15" cy="23.855" r="0" fill-rule="evenodd"/>
 </g>
 <path transform="matrix(3.7796 0 0 3.7796 -.0031954 .53086)" d="m10.709 1.05c4.405 0 5.0345 0.67282 5.0345 5.388v3.7761c0 4.7152-0.62954 5.388-5.0345 5.388h-4.4832c-4.405 0-5.0346-0.6728-5.0346-5.388v-3.7761c0-4.7152 0.62954-5.388 5.0346-5.388z" enable-background="new" fill="#141414" filter="url(#filter2761)" opacity=".3"/>
 <path d="m40.473 4.4994c16.649 0 19.028 2.543 19.028 20.364v14.272c0 17.822-2.3794 20.364-19.028 20.364h-16.945c-16.649 0-19.029-2.5429-19.029-20.364v-14.272c0-17.822 2.3794-20.364 19.029-20.364z" enable-background="new" fill="url(#linearGradient1024)" stroke-width="3.7796"/>
 <g transform="matrix(3.7796 0 0 3.7796 95.458 -72.949)" fill="#5e4aa6" stroke-width=".26458">
  <g transform="translate(-.0272 .0065001)">
   <circle cx="-330.35" cy="-328.38" r="0"/>
   <circle cx="-312.11" cy="-326.25" r="0"/>
   <circle cx="-306.02" cy="-333.07" r="0"/>
   <circle cx="-308.84" cy="-326.01" r="0"/>
  </g>
  <g transform="translate(-.0272 .0065001)">
   <circle cx="-330.35" cy="-328.38" r="0"/>
   <circle cx="-312.11" cy="-326.25" r="0"/>
   <circle cx="-306.02" cy="-333.07" r="0"/>
   <circle cx="-308.84" cy="-326.01" r="0"/>
  </g>
  <g transform="translate(-.02705 .0064503)">
   <circle cx="-330.35" cy="-328.38" r="0"/>
   <circle cx="-312.11" cy="-326.25" r="0"/>
   <circle cx="-306.02" cy="-333.07" r="0"/>
   <circle cx="-308.84" cy="-326.01" r="0"/>
  </g>
 </g>
 <g transform="translate(0 .7)" stroke-width="1.4">
  <path d="m15.2 14.5v7h4.2v4.2h-4.2v2.8h15.34l8.2359-14zm0 15.4v2.8h12.871l1.6461-2.8zm0 4.2v2.8h10.399l1.6488-2.8zm0 4.2v9.8h23.8v-2.8h-14v-7z" fill="url(#linearGradient1030)" style="paint-order:normal"/>
  <path d="m40.4 14.5-14 23.8v5.6h14v4.2h5.6v-4.2h2.8v-5.6h-2.8v-23.8zm0 9.1v14.7h-8.4z" fill="url(#linearGradient1038)" style="paint-order:normal"/>
 </g>
</svg>
