<?xml version="1.0" encoding="UTF-8"?>
<!-- Created with Inkscape (http://www.inkscape.org/) -->
<svg width="64" height="64" version="1.1" viewBox="0 0 16.933 16.933" xmlns="http://www.w3.org/2000/svg" xmlns:cc="http://creativecommons.org/ns#" xmlns:dc="http://purl.org/dc/elements/1.1/" xmlns:rdf="http://www.w3.org/1999/02/22-rdf-syntax-ns#">
 <defs>
  <filter id="filter2761" x="-.024" y="-.024" width="1.048" height="1.048" color-interpolation-filters="sRGB">
   <feGaussianBlur stdDeviation="0.14552168"/>
  </filter>
  <linearGradient id="linearGradient1195" x1="-9.2997" x2="-.93244" y1="32.176" y2="32.176" gradientTransform="translate(1.8475 -2.1749)" gradientUnits="userSpaceOnUse">
   <stop stop-color="#1478e6" offset="0"/>
   <stop stop-color="#3c50e6" offset="1"/>
  </linearGradient>
 </defs>
 <metadata>
  <rdf:RDF>
   <cc:Work rdf:about="">
    <dc:format>image/svg+xml</dc:format>
    <dc:type rdf:resource="http://purl.org/dc/dcmitype/StillImage"/>
    <dc:title/>
   </cc:Work>
  </rdf:RDF>
 </metadata>
 <path d="m10.709 1.05c4.405 0 5.0345 0.67282 5.0345 5.388v3.7761c0 4.7152-0.62954 5.388-5.0345 5.388h-4.4832c-4.405 0-5.0346-0.6728-5.0346-5.388v-3.7761c0-4.7152 0.62954-5.388 5.0346-5.388z" enable-background="new" fill="#141414" filter="url(#filter2761)" opacity=".3"/>
 <path d="m10.709 1.05c4.405 0 5.0345 0.67282 5.0345 5.388v3.7761c0 4.7152-0.62954 5.388-5.0345 5.388h-4.4832c-4.405 0-5.0346-0.6728-5.0346-5.388v-3.7761c0-4.7152 0.62954-5.388 5.0346-5.388z" enable-background="new" fill="#fafafa"/>
 <g transform="matrix(1.4514 0 0 1.4514 13.212 -35.218)">
  <path d="m-4.9811 27.761h-1.029l-0.24555-0.24555h-0.62611v0.25708s-0.5705-0.01654-0.5705 0.39687v4.2167s-0.0083 0.52916 0.40514 0.52916h7.5157s0.44648 0 0.44648-0.44648v-4.2829s-0.01654-0.43408-0.43407-0.43408h-2.0794l-0.38329-0.66387h-2.5684z" fill="none" stroke="#f0f0f0" stroke-width=".66145"/>
  <path d="m-4.9811 27.761h-1.029l-0.24555-0.24555h-0.62611v0.25708s-0.5705-0.01654-0.5705 0.39687v4.2167s-0.0083 0.52916 0.40514 0.52916h7.5157s0.44648 0 0.44648-0.44648v-4.2829s-0.01654-0.43408-0.43407-0.43408h-2.0794l-0.38329-0.66387h-2.5684z" fill="url(#linearGradient1195)"/>
  <circle cx="-3.2686" cy="30.305" r="1.7967" fill="none" opacity=".8" stroke="#32ffaa" stroke-width=".22586"/>
  <circle cx=".20706" cy="28.325" r=".23386" fill="#ff1e32" opacity=".8"/>
  <rect x="-6.9782" y="28.157" width="1.0348" height=".3379" fill="#4ba4f7" opacity=".8"/>
 </g>
</svg>
