<?xml version="1.0" encoding="UTF-8"?>
<svg width="64" height="64" version="1.1" viewBox="0 0 16.933 16.933" xmlns="http://www.w3.org/2000/svg" xmlns:cc="http://creativecommons.org/ns#" xmlns:dc="http://purl.org/dc/elements/1.1/" xmlns:rdf="http://www.w3.org/1999/02/22-rdf-syntax-ns#">
 <metadata>
  <rdf:RDF>
   <cc:Work rdf:about="">
    <dc:format>image/svg+xml</dc:format>
    <dc:type rdf:resource="http://purl.org/dc/dcmitype/StillImage"/>
    <dc:title/>
   </cc:Work>
  </rdf:RDF>
 </metadata>
 <defs>
  <filter id="filter2761" x="-.024" y="-.024" width="1.048" height="1.048" color-interpolation-filters="sRGB">
   <feGaussianBlur stdDeviation="0.14552168"/>
  </filter>
  <linearGradient id="linearGradient4673" x1="1.2573" x2="15.644" y1="15.429" y2="1.1082" gradientTransform="translate(-.00084984 .14045)" gradientUnits="userSpaceOnUse">
   <stop stop-color="#32dcff" offset="0"/>
   <stop stop-color="#3296ff" offset="1"/>
  </linearGradient>
 </defs>
 <path d="m10.708 1.1905c4.405 0 5.0345 0.67282 5.0345 5.388v3.7761c0 4.7152-0.62954 5.388-5.0345 5.388h-4.4832c-4.405 0-5.0346-0.6728-5.0346-5.388v-3.7761c0-4.7152 0.62954-5.388 5.0346-5.388z" enable-background="new" fill="#141414" filter="url(#filter2761)" opacity=".3"/>
 <path d="m10.708 1.1162c4.405 0 5.0345 0.67282 5.0345 5.388v3.7761c0 4.7152-0.62954 5.388-5.0345 5.388h-4.4832c-4.405 0-5.0346-0.6728-5.0346-5.388v-3.7761c0-4.7152 0.62954-5.388 5.0346-5.388z" enable-background="new" fill="url(#linearGradient4673)"/>
 <g transform="translate(-.00025403 -280.07)" fill="#fff" stroke-width="1.317">
  <path d="m11.302 285.35c-0.56-0.323-1.333-0.337-2.016-0.035-0.631 0.279-1.087 0.894-1.356 1.356a0.27 0.27 0 0 0-0.24 0.466 2.69 2.69 0 0 0-0.045 0.105l-1.308 2.872a0.27 0.27 0 0 0-0.232 0.487l9e-3 4e-3 -0.294 0.647h-0.731a0.27 0.27 0 0 0 0 0.54h1.35a0.27 0.27 0 0 0 0-0.54h-0.026l0.187-0.412a0.27 0.27 0 0 0 0.075 0.012 0.269 0.269 0 0 0 0.146-0.496l1.354-2.975a0.26924 0.26924 0 0 0 0.246-0.479c0.23-0.389 0.6-0.88 1.084-1.093 0.52-0.23 1.12-0.227 1.527 9e-3 0.3 0.173 0.473 0.448 0.513 0.819 0.075 0.693 0.011 1.158-0.19 1.382a0.496 0.496 0 0 1-0.059 0.055v0.604c0.166-0.056 0.326-0.148 0.461-0.299 0.312-0.347 0.418-0.936 0.325-1.8-0.058-0.536-0.335-0.972-0.78-1.229z"/>
  <path d="m10.534 289.9c0.176 0 0.342 0.04 0.492 0.11v-2.134c0-0.149 0.014-0.135-0.135-0.135h-0.528c-0.15 0-1.653 0.124-2.05 2.088l-0.256 1.623c0 0.15 0.121 0.337 0.27 0.337h1.281a1.165 1.165 0 0 1-0.247-0.716c0-0.647 0.526-1.173 1.173-1.173z"/>
  <path d="m11.161 290.42a0.915 0.915 0 0 0-0.627-0.255 0.9 0.9 0 1 0-0.295 1.754 0.896 0.896 0 0 0 1.042-0.347 0.898 0.898 0 0 0-0.12-1.152z"/>
 </g>
</svg>
