<?xml version="1.0" encoding="UTF-8"?>
<!-- Created with Inkscape (http://www.inkscape.org/) -->
<svg width="64" height="64" version="1.1" viewBox="0 0 16.933 16.933" xmlns="http://www.w3.org/2000/svg" xmlns:cc="http://creativecommons.org/ns#" xmlns:dc="http://purl.org/dc/elements/1.1/" xmlns:rdf="http://www.w3.org/1999/02/22-rdf-syntax-ns#">
 <defs>
  <filter id="filter2761" x="-.024" y="-.024" width="1.048" height="1.048" color-interpolation-filters="sRGB">
   <feGaussianBlur stdDeviation="0.14552168"/>
  </filter>
  <filter id="filter894" x="-.064641" y="-.055981" width="1.1293" height="1.112" color-interpolation-filters="sRGB">
   <feGaussianBlur stdDeviation="0.20621212"/>
  </filter>
 </defs>
 <metadata>
  <rdf:RDF>
   <cc:Work rdf:about="">
    <dc:format>image/svg+xml</dc:format>
    <dc:type rdf:resource="http://purl.org/dc/dcmitype/StillImage"/>
    <dc:title/>
   </cc:Work>
  </rdf:RDF>
 </metadata>
 <path d="m10.709 1.05c4.405 0 5.0345 0.67282 5.0345 5.388v3.7761c0 4.7152-0.62954 5.388-5.0345 5.388h-4.4832c-4.405 0-5.0346-0.6728-5.0346-5.388v-3.7761c0-4.7152 0.62954-5.388 5.0346-5.388z" enable-background="new" fill="#141414" filter="url(#filter2761)" opacity=".3"/>
 <path d="m10.709 1.05c4.405 0 5.0345 0.67282 5.0345 5.388v3.7761c0 4.7152-0.62954 5.388-5.0345 5.388h-4.4832c-4.405 0-5.0346-0.6728-5.0346-5.388v-3.7761c0-4.7152 0.62954-5.388 5.0346-5.388z" enable-background="new" fill="#fafafa"/>
 <g transform="matrix(1.3386 0 0 1.3386 4.5792 15.223)" filter="url(#filter894)">
  <path d="m6.7328-7.3624s-1.7461-0.94303-3.9324 0.72314l1.3397 2.3204c2.5361-1.0603 2.5927-3.0435 2.5927-3.0435z" fill="#fbd708" style=""/>
  <path d="m6.7327-2.9422s-0.05636-1.9837-2.5925-3.044l-1.3397 2.3204c2.1863 1.6662 3.9322 0.72359 3.9322 0.72359z" fill="#07dc9b" style=""/>
  <path d="m2.9048-0.73216s-1.6897-1.0406-1.3399-3.7671h2.6794c0.34978 2.7265-1.3394 3.7671-1.3394 3.7671z" fill="#0294f7" style=""/>
  <path d="m-0.92342-2.9421s0.05635-1.9837 2.5925-3.044l1.3397 2.3204c-2.1863 1.6662-3.9321 0.72359-3.9321 0.72359z" fill="#aa01f6" style=""/>
  <path d="m-0.92353-7.3625s1.7461-0.94303 3.9324 0.72314l-1.3397 2.3204c-2.5361-1.0603-2.5927-3.0435-2.5927-3.0435z" fill="#f825c0" style=""/>
  <path d="m2.9048-9.5728s-1.6897 1.0406-1.3399 3.7671h2.6794c0.34978-2.7265-1.3394-3.7671-1.3394-3.7671z" fill="#fd8338" style=""/>
  <path d="m4.2215-7.4196c-0.4414 0.15245-0.91962 0.39406-1.4227 0.77744l0.48642 0.84275h0.97337c0.08045-0.6271 0.051445-1.1618-0.037096-1.6202z" fill="#fbd708" style=""/>
  <path d="m4.1421-5.9892-0.10988 0.18965h0.23027c0.0057-0.044343 0.00694-0.084744 0.011567-0.12818-0.045134-0.020142-0.085183-0.041922-0.13196-0.061465z" fill="#07dc9b" style=""/>
 </g>
 <g transform="matrix(1.3386 0 0 1.3386 4.5792 15.223)">
  <path d="m6.7328-7.3624s-1.7461-0.94303-3.9324 0.72314l1.3397 2.3204c2.5361-1.0603 2.5927-3.0435 2.5927-3.0435z" fill="#fbd708"/>
  <path d="m6.7327-2.9422s-0.05636-1.9837-2.5925-3.044l-1.3397 2.3204c2.1863 1.6662 3.9322 0.72359 3.9322 0.72359z" fill="#07dc9b"/>
  <path d="m2.9048-0.73216s-1.6897-1.0406-1.3399-3.7671h2.6794c0.34978 2.7265-1.3394 3.7671-1.3394 3.7671z" fill="#0294f7"/>
  <path d="m-0.92342-2.9421s0.05635-1.9837 2.5925-3.044l1.3397 2.3204c-2.1863 1.6662-3.9321 0.72359-3.9321 0.72359z" fill="#aa01f6"/>
  <path d="m-0.92353-7.3625s1.7461-0.94303 3.9324 0.72314l-1.3397 2.3204c-2.5361-1.0603-2.5927-3.0435-2.5927-3.0435z" fill="#f825c0"/>
  <path d="m2.9048-9.5728s-1.6897 1.0406-1.3399 3.7671h2.6794c0.34978-2.7265-1.3394-3.7671-1.3394-3.7671z" fill="#fd8338"/>
  <path d="m4.2215-7.4196c-0.4414 0.15245-0.91962 0.39406-1.4227 0.77744l0.48642 0.84275h0.97337c0.08045-0.6271 0.051445-1.1618-0.037096-1.6202z" fill="#fbd708"/>
  <path d="m4.1421-5.9892-0.10988 0.18965h0.23027c0.0057-0.044343 0.00694-0.084744 0.011567-0.12818-0.045134-0.020142-0.085183-0.041922-0.13196-0.061465z" fill="#07dc9b"/>
 </g>
</svg>
