<?xml version="1.0" encoding="UTF-8"?>
<!-- Created with Inkscape (http://www.inkscape.org/) -->
<svg width="64" height="64" version="1.1" viewBox="0 0 16.933 16.933" xmlns="http://www.w3.org/2000/svg" xmlns:cc="http://creativecommons.org/ns#" xmlns:dc="http://purl.org/dc/elements/1.1/" xmlns:rdf="http://www.w3.org/1999/02/22-rdf-syntax-ns#">
 <defs>
  <filter id="filter2761" x="-.024" y="-.024" width="1.048" height="1.048" color-interpolation-filters="sRGB">
   <feGaussianBlur stdDeviation="0.14552168"/>
  </filter>
  <linearGradient id="linearGradient1024" x1="1.3315" x2="13.449" y1="15.576" y2="3.4588" gradientUnits="userSpaceOnUse">
   <stop stop-color="#3caaff" offset="0"/>
   <stop stop-color="#b496ff" offset="1"/>
  </linearGradient>
  <linearGradient id="linearGradient1354" x1="6.5814" x2="13.959" y1="6.7137" y2="13.123" gradientUnits="userSpaceOnUse">
   <stop stop-color="#fff" offset="0"/>
   <stop stop-color="#e6e6ff" offset="1"/>
  </linearGradient>
  <linearGradient id="linearGradient1356" x1="5.7215" x2="2.8442" y1="8.4996" y2="14.519" gradientUnits="userSpaceOnUse">
   <stop stop-color="#c3d2ff" offset="0"/>
   <stop stop-color="#82c8ff" offset="1"/>
  </linearGradient>
 </defs>
 <metadata>
  <rdf:RDF>
   <cc:Work rdf:about="">
    <dc:format>image/svg+xml</dc:format>
    <dc:type rdf:resource="http://purl.org/dc/dcmitype/StillImage"/>
    <dc:title/>
   </cc:Work>
  </rdf:RDF>
 </metadata>
 <path d="m10.709 1.05c4.405 0 5.0345 0.67282 5.0345 5.388v3.7761c0 4.7152-0.62954 5.388-5.0345 5.388h-4.4832c-4.405 0-5.0346-0.6728-5.0346-5.388v-3.7761c0-4.7152 0.62954-5.388 5.0346-5.388z" enable-background="new" fill="#141414" filter="url(#filter2761)" opacity=".3"/>
 <path d="m10.709 1.05c4.405 0 5.0345 0.67282 5.0345 5.388v3.7761c0 4.7152-0.62954 5.388-5.0345 5.388h-4.4832c-4.405 0-5.0346-0.6728-5.0346-5.388v-3.7761c0-4.7152 0.62954-5.388 5.0346-5.388z" enable-background="new" fill="url(#linearGradient1024)"/>
 <path d="m14.514 14.983c-0.016115-0.01851-0.37014-0.42494-1.018-0.98028-0.33168-0.2843-0.74077-0.60857-1.2211-0.94101-0.48032-0.33244-1.032-0.67321-1.6495-0.99114-0.6175-0.31792-1.2822-0.68652-1.8877-1.0914-0.30275-0.20243-0.59054-0.41369-0.85058-0.63251s-0.4923-0.4453-0.68315-0.67695c-0.19084-0.23164-0.34045-0.4686-0.43562-0.7095-0.095174-0.2409-0.13549-0.48564-0.10852-0.73224s0.12154-0.49488 0.29714-0.74361c0.17559-0.24873 0.43219-0.49787 0.78288-0.74516-0.49325-0.051736-1.6705 0.12072-2.2908 0.45888-0.33006 0.14712-0.70029 0.33464-1.1141 0.57308-0.41383 0.23844-0.87103 0.52756-1.3746 0.87797-0.50354 0.3504-1.0534 0.76186-1.6526 1.2449-0.046129 0.037187-0.072465 0.072566-0.11627 0.10955v0.21084c0 4.7152 0.62922 5.3882 5.0342 5.3882h4.4834c1.8686 0 3.0462-0.12024 3.8049-0.61959z" enable-background="new" fill="url(#linearGradient1356)"/>
 <path d="m15.742 10.429c-0.64595-0.3066-1.3615-0.63056-2.0159-0.9994-0.47555-0.26804-1.645-0.98629-2.8592-1.6149-0.6071-0.31429-1.2251-0.60642-1.7735-0.8082-0.47288-0.15102-0.87735-0.22526-1.3544-0.26768-0.34998 0.24679-0.60577 0.49539-0.78133 0.74361-3.55e-4 5.042e-4 -0.0012 0.00105-0.0015 0.00155-1.06e-4 1.492e-4 1.03e-4 3.678e-4 0 5.167e-4 -0.16904 0.23958-0.25558 0.47858-0.28628 0.71622-0.0054 0.060055-0.020389 0.14516-0.018089 0.20877 0.0017 0.14318 0.029272 0.28561 0.072342 0.42684 0.04346 0.14032 0.11544 0.29957 0.20227 0.45333 0.05365 0.091093 0.12062 0.19142 0.18789 0.2811 0.08782 0.12272 0.2043 0.23817 0.32334 0.36848 0.1371 0.1416 0.28674 0.27079 0.44867 0.40705 0.07284 0.0613 0.15692 0.13032 0.23384 0.1904 0.15298 0.11433 0.19306 0.14962 0.47146 0.34279 0.28509 0.19781 0.62074 0.42194 0.96382 0.63003 0.34909 0.2022 0.75468 0.41133 1.0929 0.58548 0.64932 0.34221 1.2489 0.71499 1.7864 1.0904 0.36693 0.2572 0.73542 0.5391 1.0909 0.84334 0.34713 0.29712 0.68012 0.61703 0.98752 0.95393 1.3111-0.79392 1.2094-3.2543 1.2288-4.5536z" enable-background="new" fill="url(#linearGradient1354)"/>
 <circle cx="12.348" cy="4.0417" r="1.0816" fill="#fff"/>
</svg>
