<svg width="64" height="64" version="1.1" viewBox="0 0 16.933 16.933" xmlns="http://www.w3.org/2000/svg" xmlns:xlink="http://www.w3.org/1999/xlink">
 <defs>
  <linearGradient id="a" x1="8.3692" x2="8.6178" y1="2.1181" y2="15.36" gradientUnits="userSpaceOnUse">
   <stop stop-color="#f66151" offset="0"/>
   <stop stop-color="#ed5055" offset="1"/>
  </linearGradient>
 </defs>
 <circle cx="8.4935" cy="8.73" r="7.9375" opacity=".2" stroke-width=".14032"/>
 <circle cx="8.4935" cy="8.46" r="7.9375" fill="url(#a)" style="paint-order:normal"/>
 <path transform="scale(.26458)" d="m33.879 13.197c-1.9815-0.062798-3.9844 0.35789-5.8477 1.0625-2.988 1.1345-5.7212 3.0262-7.6426 5.5801-1.923 2.5556-2.9937 5.7865-2.7461 8.9746 0.1628 2.0655 0.86858 4.0779 1.959 5.8398 1.0719 1.7337 2.512 3.2258 4.1504 4.4375a79.403 79.403 0 0 1-12.881 6.6543 71.134 71.134 0 0 0 14.221-5.748c3.093 1.8953 6.6972 2.906 10.309 3.3691 9.1026 1.1642 18.591-1.0905 26.219-6.1895a30.001 30.001 0 0 0 0.48438-5.2031 30.001 30.001 0 0 0-0.25781-3.6211c-6.0382 6.4516-14.483 10.605-23.283 11.422-3.6342 0.33688-7.4042 0.085694-10.748-1.3477a71.134 71.134 0 0 0 7.3477-4.877c2.4437-1.8891 4.8141-3.9964 6.3047-6.7012 0.74615-1.3533 1.2557-2.8467 1.3965-4.3848 0.13901-1.5381-0.10444-3.1218-0.79297-4.5039a8.1195 8.1195 0 0 0-2.5859-2.9766 9.7594 9.7594 0 0 0-3.6367-1.5566c-0.64992-0.13566-1.3082-0.20954-1.9688-0.23047zm-0.76367 2.877c0.39096-0.00363 0.78269 0.018333 1.1719 0.068359 1.5551 0.2001 3.0797 0.8926 4.0938 2.0898 0.82077 0.97 1.2716 2.2276 1.3496 3.4961 0.079674 1.2685-0.1978 2.5442-0.70312 3.7109-1.009 2.3317-2.87 4.1782-4.7676 5.8672a79.403 79.403 0 0 1-8.1621 6.2578c-1.3371-0.79028-2.5523-1.7879-3.5234-2.998-1.221-1.5177-2.0578-3.3578-2.2969-5.291-0.34932-2.8201 0.60746-5.7307 2.3711-7.959 1.7636-2.2283 4.2848-3.7969 6.998-4.6465 1.123-0.34976 2.2959-0.58481 3.4688-0.5957z" color="#000000" fill="#fff" stroke-width="1.6958"/>
 <circle cx="-330.35" cy="-328.38" r="0" fill="#5e4aa6" stroke-width=".26458"/>
 <g transform="matrix(1.0562 -.21394 .21394 1.0562 -62.513 -292.34)" fill="#828282" opacity=".5">
  <path class="st0" d="m9.1426 284.31c1.7329 0 3.1374 1.4046 3.1374 3.1374 0 1.7329-1.4045 3.1374-3.1374 3.1374s-3.1374-1.4045-3.1374-3.1374 1.4045-3.1374 3.1374-3.1374z" clip-rule="evenodd" fill-rule="evenodd" opacity=".5" stroke-width=".15711"/>
  <rect class="st1" transform="rotate(-29.829)" x="-135.36" y="256.88" width=".64098" height="1.6292" stroke-width=".1571"/>
  <g clip-rule="evenodd" fill-rule="evenodd" stroke-width=".15711">
   <path class="st2" d="m10.995 291.69 0.88922-0.50902c0.12254-0.0707 0.27965-0.0268 0.35034 0.0943l1.6559 2.8892c0.07069 0.1226 0.02828 0.27965-0.09426 0.35033l-0.88922 0.50904c-0.12254 0.0707-0.27965 0.0283-0.35035-0.0943l-1.6559-2.8892c-0.07069-0.12259-0.02828-0.27966 0.09426-0.35036z"/>
   <path class="st3" d="m12.516 291.76 0.14454 0.25295-1.3307 0.76825-0.14454-0.25137zm0.25451 0.44461-1.3307 0.76825 0.14454 0.25294 1.3307-0.76825z"/>
   <path class="st4" d="m7.361 284.32c1.7187-0.98506 3.9104-0.3912 4.8954 1.3275 0.98505 1.7187 0.39119 3.9104-1.3275 4.8954-1.7187 0.98504-3.9104 0.39118-4.8954-1.3276-0.98505-1.7172-0.38962-3.9088 1.3275-4.8954zm0.30164 0.52473c-1.4281 0.81851-1.923 2.641-1.1029 4.069 0.81852 1.4281 2.6409 1.923 4.0706 1.1044 1.4281-0.81852 1.923-2.6409 1.1029-4.0706-0.82009-1.4281-2.6425-1.9214-4.0706-1.1029z"/>
  </g>
 </g>
 <path class="st0" d="m7.9127 5.7175c1.8302-0.37071 3.6141 0.81224 3.9847 2.6424 0.37072 1.8302-0.81221 3.6141-2.6424 3.9847-1.8302 0.37072-3.6141-0.81221-3.9847-2.6424-0.37071-1.8302 0.81221-3.6141 2.6424-3.9847z" clip-rule="evenodd" fill="#fff" fill-rule="evenodd" opacity=".5" stroke-width=".1693"/>
 <rect class="st1" transform="rotate(-41.279)" x=".16481" y="15.639" width=".69072" height="1.7556" fill="#757575" stroke-width=".16929"/>
 <g transform="matrix(1.0776 0 0 1.0776 .93406 -300.89)" clip-rule="evenodd" fill-rule="evenodd" stroke-width=".15711">
  <path class="st2" d="m9.7555 291.39 0.77047-0.67541c0.10606-0.0936 0.26876-0.0818 0.36209 0.0229l2.1965 2.5029c0.09362 0.10613 0.08323 0.26847-0.02284 0.36207l-0.77046 0.67544c-0.10607 0.0936-0.26847 0.0833-0.36209-0.0229l-2.1965-2.5029c-0.09362-0.10611-0.08324-0.26848 0.02283-0.36209z" fill="#424242"/>
  <path class="st3" d="m11.261 291.16 0.19188 0.21922-1.1517 1.0171-0.19157-0.21767zm0.33771 0.38524-1.1517 1.0171 0.19188 0.21921 1.1517-1.0171z" fill="#757575"/>
  <path class="st4" d="m4.7315 284.89c1.489-1.3067 3.7549-1.1597 5.0615 0.32927 1.3067 1.489 1.1597 3.7549-0.32927 5.0615-1.489 1.3066-3.7549 1.1597-5.0615-0.32928-1.3063-1.4874-1.1578-3.7536 0.32927-5.0615zm0.39981 0.4544c-1.2372 1.0857-1.3604 2.9701-0.27314 4.207 1.0857 1.2372 2.9701 1.3604 4.2088 0.27436 1.2372-1.0857 1.3604-2.9701 0.27282-4.2085-1.0873-1.2368-2.9714-1.3586-4.2085-0.27282z" fill="#616161"/>
 </g>
</svg>
