<svg width="64" height="64" version="1.1" xmlns="http://www.w3.org/2000/svg" xmlns:xlink="http://www.w3.org/1999/xlink">
 <circle cx="32" cy="33" r="30" color="#000000" opacity=".15"/>
 <circle cx="32" cy="32.005" r="30" color="#000000" fill="#f2f2f2"/>
 <g transform="matrix(.15595 0 0 .15595 16.063 16.036)" stroke-width="15.938">
  <path d="m103 61.363c22.958 0 41.635 18.678 41.635 41.635 0 3.313 2.687 6 6 6s6-2.687 6-6c0-29.574-24.061-53.635-53.635-53.635s-53.636 24.061-53.636 53.635 24.061 53.635 53.635 53.635c18.99 0 36.745-10.195 46.336-26.607 1.672-2.861 0.708-6.535-2.153-8.208-2.86-1.67-6.535-0.707-8.208 2.153-7.448 12.745-21.233 20.662-35.976 20.662-22.958 0-41.635-18.678-41.635-41.635s18.679-41.635 41.637-41.635z" fill="#333"/>
  <path d="m205.7 100.44c-3.76-50.059-44.326-90.782-94.359-94.727-30.244-2.385-59.829 8.491-81.176 29.839-21.348 21.348-32.224 50.935-29.839 81.176 3.931 49.847 44.483 90.399 94.329 94.329 2.747 0.217 5.484 0.323 8.214 0.323 27.329 0 53.553-10.753 72.962-30.161 2.343-2.344 2.343-6.143 0-8.485s-6.142-2.344-8.485-1e-3c-18.862 18.861-45.012 28.47-71.747 26.361-44.023-3.471-79.838-39.286-83.31-83.31-2.108-26.735 7.5-52.887 26.361-71.747 18.861-18.861 45.008-28.473 71.747-26.361 44.189 3.483 80.016 39.451 83.337 83.662 0.455 6.057 0.321 12.142-0.397 18.086-0.762 6.304-4.578 11.805-10.208 14.713-5.095 2.633-10.819 2.623-15.706-0.026-2.913-1.582-6.556-0.499-8.134 2.415-1.58 2.913-0.499 6.555 2.415 8.134 8.435 4.573 18.251 4.623 26.933 0.139 9.164-4.734 15.375-13.682 16.613-23.935 0.812-6.719 0.963-13.59 0.45-20.424z" opacity=".15"/>
  <path d="m205.7 95.053c-3.76-50.059-44.326-90.782-94.359-94.727-30.244-2.385-59.829 8.491-81.176 29.839-21.348 21.348-32.224 50.935-29.839 81.176 3.931 49.847 44.483 90.399 94.329 94.329 2.747 0.217 5.484 0.323 8.214 0.323 27.329 0 53.553-10.753 72.962-30.161 2.343-2.344 2.343-6.143 0-8.485s-6.142-2.344-8.485-1e-3c-18.862 18.861-45.012 28.47-71.747 26.361-44.023-3.471-79.838-39.286-83.31-83.31-2.108-26.735 7.5-52.887 26.361-71.747 18.861-18.861 45.008-28.473 71.747-26.361 44.189 3.483 80.016 39.451 83.337 83.662 0.455 6.057 0.321 12.142-0.397 18.086-0.762 6.304-4.578 11.805-10.208 14.713-5.095 2.633-10.819 2.623-15.706-0.026-2.913-1.582-6.556-0.499-8.134 2.415-1.58 2.913-0.499 6.555 2.415 8.134 8.435 4.573 18.251 4.623 26.933 0.139 9.164-4.734 15.375-13.682 16.613-23.935 0.812-6.719 0.963-13.59 0.45-20.424z" fill="#333"/>
 </g>
</svg>
