<?xml version="1.0" encoding="UTF-8"?>
<!-- Created with Inkscape (http://www.inkscape.org/) -->
<svg width="64" height="64" version="1.1" viewBox="0 0 16.933 16.933" xmlns="http://www.w3.org/2000/svg" xmlns:cc="http://creativecommons.org/ns#" xmlns:dc="http://purl.org/dc/elements/1.1/" xmlns:rdf="http://www.w3.org/1999/02/22-rdf-syntax-ns#" xmlns:xlink="http://www.w3.org/1999/xlink">
 <defs>
  <filter id="filter2761" x="-.024" y="-.024" width="1.048" height="1.048" color-interpolation-filters="sRGB">
   <feGaussianBlur stdDeviation="0.14552168"/>
  </filter>
  <linearGradient id="linearGradient4673" x1="1.2573" x2="15.644" y1="15.429" y2="1.1082" gradientTransform="matrix(.53033 0 0 .53033 11.536 71.99)" gradientUnits="userSpaceOnUse">
   <stop stop-color="#323232" offset="0"/>
   <stop stop-color="#505050" offset="1"/>
  </linearGradient>
  <linearGradient id="e-3" x1="24.705" x2="24.705" y1="43.939" y2="3.8297" gradientTransform="matrix(.26458 0 0 .26458 2.1436 2.1104)" gradientUnits="userSpaceOnUse">
   <stop stop-color="#008c28" offset="0"/>
   <stop stop-color="#00d25a" offset="1"/>
  </linearGradient>
  <filter id="filter999" x="-.2025" y="-.162" width="1.405" height="1.324" color-interpolation-filters="sRGB">
   <feGaussianBlur stdDeviation="0.71436"/>
  </filter>
 </defs>
 <metadata>
  <rdf:RDF>
   <cc:Work rdf:about="">
    <dc:format>image/svg+xml</dc:format>
    <dc:type rdf:resource="http://purl.org/dc/dcmitype/StillImage"/>
    <dc:title/>
   </cc:Work>
  </rdf:RDF>
 </metadata>
 <path d="m10.709 1.05c4.405 0 5.0345 0.67282 5.0345 5.388v3.7761c0 4.7152-0.62954 5.388-5.0345 5.388h-4.4832c-4.405 0-5.0346-0.6728-5.0346-5.388v-3.7761c0-4.7152 0.62954-5.388 5.0346-5.388z" enable-background="new" fill="#141414" filter="url(#filter2761)" opacity=".3"/>
 <path d="m10.709 0.97579c4.405 0 5.0345 0.67282 5.0345 5.388v3.7761c0 4.7152-0.62954 5.388-5.0345 5.388h-4.4832c-4.405 0-5.0346-0.6728-5.0346-5.388v-3.7761c0-4.7152 0.62954-5.388 5.0346-5.388z" enable-background="new" fill="url(#linearGradient4673)"/>
 <g transform="translate(-.0261 -.34586)" fill="#00cf58" filter="url(#filter999)" stroke-width=".26458">
  <circle cx="-39.434" cy="6.44" r="0" fill-rule="evenodd"/>
  <path d="m4.2602 7.2638c0 2.7225 2.2479 6.4877 4.2332 6.4877 1.869 0 4.2333-3.7655 4.2333-6.4877 0-2.7225-1.8953-4.0954-4.2333-4.0954s-4.2332 1.3728-4.2332 4.0954z"/>
  <path d="m9.6529 9.0905c0.53461-0.53461 1.2805-0.72902 1.9689-0.58353 0.14548 0.68838-0.04894 1.4343-0.58353 1.9688-0.53461 0.53461-1.2805 0.72902-1.9688 0.58353-0.1455-0.6884 0.048934-1.4343 0.58353-1.9688z"/>
  <path d="m5.3651 8.5431c0.68838-0.14346 1.4343 0.048256 1.9688 0.57543 0.53461 0.52717 0.72902 1.2627 0.58353 1.9415-0.68838 0.14346-1.4343-0.048253-1.9689-0.57543-0.53461-0.5272-0.72902-1.2627-0.58353-1.9415z"/>
  <circle cx="-302.06" cy="-337.95" r="0"/>
  <circle cx="-11.145" cy="-3.1314" r="0" fill-rule="evenodd"/>
 </g>
 <g transform="translate(-.0261 -.34586)" stroke-width=".26458">
  <circle cx="-39.434" cy="6.44" r="0" fill="#5e4aa6" fill-rule="evenodd"/>
  <path d="m4.2602 7.2638c0 2.7225 2.2479 6.4877 4.2332 6.4877 1.869 0 4.2333-3.7655 4.2333-6.4877 0-2.7225-1.8953-4.0954-4.2333-4.0954s-4.2332 1.3728-4.2332 4.0954z" fill="url(#e-3)"/>
  <path d="m9.6529 9.0905c0.53461-0.53461 1.2805-0.72902 1.9689-0.58353 0.14548 0.68838-0.04894 1.4343-0.58353 1.9688-0.53461 0.53461-1.2805 0.72902-1.9688 0.58353-0.1455-0.6884 0.048934-1.4343 0.58353-1.9688z" fill="#363636"/>
  <path d="m5.3651 8.5431c0.68838-0.14346 1.4343 0.048256 1.9688 0.57543 0.53461 0.52717 0.72902 1.2627 0.58353 1.9415-0.68838 0.14346-1.4343-0.048253-1.9689-0.57543-0.53461-0.5272-0.72902-1.2627-0.58353-1.9415z" fill="#363636"/>
  <circle cx="-302.06" cy="-337.95" r="0" fill="#5e4aa6"/>
  <circle cx="-11.145" cy="-3.1314" r="0" fill="#5e4aa6" fill-rule="evenodd"/>
 </g>
</svg>
