<?xml version="1.0" encoding="UTF-8"?>
<!-- Created with Inkscape (http://www.inkscape.org/) -->
<svg width="64" height="64" version="1.1" viewBox="0 0 16.933 16.933" xmlns="http://www.w3.org/2000/svg" xmlns:cc="http://creativecommons.org/ns#" xmlns:dc="http://purl.org/dc/elements/1.1/" xmlns:rdf="http://www.w3.org/1999/02/22-rdf-syntax-ns#" xmlns:xlink="http://www.w3.org/1999/xlink">
 <defs>
  <filter id="filter2761" x="-.024" y="-.024" width="1.048" height="1.048" color-interpolation-filters="sRGB">
   <feGaussianBlur stdDeviation="0.14552168"/>
  </filter>
  <linearGradient id="linearGradient1024" x1="1.3315" x2="15.65" y1="15.576" y2="1.17" gradientTransform="rotate(180 8.4674 8.326)" gradientUnits="userSpaceOnUse" xlink:href="#g">
   <stop stop-color="#2878b9" offset="0"/>
   <stop stop-color="#32507d" offset="1"/>
  </linearGradient>
  <linearGradient id="g" x1="3.783" x2="19.574" y1="23.644" y2="22.495" gradientUnits="userSpaceOnUse">
   <stop stop-color="#2980b9" offset="0"/>
   <stop stop-color="#34495e" offset="1"/>
  </linearGradient>
  <linearGradient id="linearGradient910" x1="4.1298" x2="13.323" y1="16.329" y2="4.3843" gradientTransform="matrix(3.7796 0 0 3.7796 81.763 0)" gradientUnits="userSpaceOnUse">
   <stop stop-color="#2878b4" offset="0"/>
   <stop stop-color="#14a5ff" offset="1"/>
  </linearGradient>
  <linearGradient id="linearGradient914" x1="27.04" x2="24.839" y1="16.621" y2="17.991" gradientUnits="userSpaceOnUse">
   <stop stop-color="#fcfcfc" offset="0"/>
   <stop stop-color="#c7c7c7" offset="1"/>
  </linearGradient>
  <linearGradient id="linearGradient916" x1="3.783" x2="19.574" y1="23.644" y2="22.495" gradientUnits="userSpaceOnUse" xlink:href="#g"/>
  <filter id="filter1461" x="-.076364" y="-.094212" width="1.1527" height="1.1884" color-interpolation-filters="sRGB">
   <feGaussianBlur stdDeviation="0.39452985"/>
  </filter>
 </defs>
 <metadata>
  <rdf:RDF>
   <cc:Work rdf:about="">
    <dc:format>image/svg+xml</dc:format>
    <dc:type rdf:resource="http://purl.org/dc/dcmitype/StillImage"/>
    <dc:title/>
   </cc:Work>
  </rdf:RDF>
 </metadata>
 <path d="m10.709 1.05c4.405 0 5.0345 0.67282 5.0345 5.388v3.7761c0 4.7152-0.62954 5.388-5.0345 5.388h-4.4832c-4.405 0-5.0346-0.6728-5.0346-5.388v-3.7761c0-4.7152 0.62954-5.388 5.0346-5.388z" enable-background="new" fill="#141414" filter="url(#filter2761)" opacity=".3"/>
 <path d="m6.2257 15.602c-4.405 0-5.0345-0.67282-5.0345-5.388v-3.7761c0-4.7152 0.62954-5.388 5.0345-5.388h4.4832c4.405 0 5.0346 0.6728 5.0346 5.388v3.7761c0 4.7152-0.62954 5.388-5.0346 5.388z" enable-background="new" fill="url(#linearGradient1024)"/>
 <g transform="matrix(.95883 0 0 .8948 -19.969 1.5092)" filter="url(#filter1461)">
  <path transform="scale(.26458)" d="m129.58 21.963c-0.12751 3.25e-4 -0.26165 0.0078-0.40235 0.0293-2.246 0.34524-7.3539 2.2459-8.9668 2.6484-1.6116 0.40256-2.3664 0.76446-4.9512 0.51953-2.9469-0.2788-4.2717-0.29754-5.0469-0.27539-1.1608-0.10292-1.7461-0.35742-1.7461-0.35742l0.10156 1.1426c-0.77126 0.58886-2.3251 1.4461-5.5156 2.3125-2.0727 0.2306-3.7989-0.40396-4.8359 0.17188-1.0357 0.57584-4.3181 2.0154-5.9883 2.418-1.6702 0.40256-2.9064 1.158-3.9082 1.4863-1.5907 0.51851 3.1525 8.1199 5.2109 9.1191 0 0-0.71261 0.74053-1.3027 1.3594-1.4318 0.9784-2.5605 1.043-2.5605 1.043l0.07227 0.78516c-1.2494 0.66385-2.4897 1.0604-3.2617 1.25 0.83663 11.481 4.6693 13.355 18.814 13.355h11.26c0.0237-0.18202 0.0669-0.44464 0.0801-0.58203 0.56541-0.83118 1.3262-0.8418 1.3262-0.8418s-0.97726-2.7697-0.88086-6.1035c0.12116-0.7908 0.32734-1.5354 0.5879-2.2441h0.98437s-0.12465-1.3599 0.43164-2.7422c1.8304-2.7828 4.3295-4.6428 5.3965-5.4609 1.0058-0.77256 5.6407-1.9569 6.6191-2.1875 0.97838-0.2306 1.8997-1.7869 1.957-2.248s-0.28712-1.3242-0.28712-1.3242l-2.5898-0.57422-3.1348-0.35352s4.303-6.3746 5.0781-7.1133c0.82206-0.78298 1.2227-1.7469 1.2227-2.668 0-0.9211-0.67773-2.1602-0.67773-2.1602s-0.77864-0.39391-2.0488-0.3457c-0.21236 0.0078-0.43021-0.02146-0.66602-0.04102h-4e-3c-0.1179-0.0098-0.23968-0.0179-0.36719-0.01758z" enable-background="new" fill="#0078c8" stroke-width="3.7796"/>
  <g transform="matrix(.34469 0 0 .34469 20.609 1.9327)" fill="#006ec8" fill-rule="evenodd">
   <g fill="#006ec8" stroke-width=".76758">
    <path d="m42.25 12s-0.313-0.281-0.656-0.313c-0.344-0.031-1.063 0.094-1.281 0.063-0.219-0.031-0.969-0.469-0.969-0.469s1-0.563 1.344-0.625c0.344-0.063 0.938-0.156 0.938-0.156s0.25 0.313 0.438 0.75c0.188 0.438 0.188 0.75 0.188 0.75"/>
    <path d="m40.987 21.23c-0.675 0.09-0.805 0.015-0.805 0.015s0.156-0.707 0.325-0.767 0.662 0.707 0.48 0.752"/>
    <path d="m41.906 14.969s-2.219 1.063-3.281 2.719c-1.063 1.656-1.813 3.344-1.813 3.344s0.75 0.156 1.438 0.406 1.938 0.313 2.469 0.219 0.688-0.344 0.156-0.563c-0.531-0.219-1.313-0.375-1.344-0.844s0.969-3.188 1.25-3.625c0.281-0.438 1.125-1.656 1.125-1.656"/>
    <path d="m22.438 20.375s2.749-0.414 3.796-1.04c3.414-2.04 3.298-3.179 3.298-3.179s-3.611-1.445-6.108 1.534c-1.045 1.247-0.986 2.685-0.986 2.685"/>
    <path d="m23.467 19.14s2.74-0.552 3.757-1.304c1.016-0.751 1.436-1.149 1.304-1.414-0.133-0.265-1.127-0.663-2.364-0.354s-2.121 1.193-2.364 1.746c-0.243 0.552-0.486 1.149-0.331 1.326"/>
    <path d="m38.956 21.676c1.01 0.116 1.2 0.019 1.2 0.019s-0.232-0.91-0.484-0.987-0.987 0.91-0.716 0.968"/>
    <path d="m12.298 24.795c1.01 0.774 3.56 1.23 4.811 1.048 2.951-0.431 3.103-0.21 2.391-2.093-0.514-1.359-3.5-2.75-5.5-0.75l-1-1c0.593-0.854-0.5-2.844-1-3s-2.859 0.486-3.078 0.705 2.369 4.317 3.376 5.091"/>
   </g>
  </g>
 </g>
 <g transform="translate(-21.689)">
  <path transform="scale(.26458)" d="m129.58 21.963c-0.12751 3.25e-4 -0.26165 0.0078-0.40235 0.0293-2.246 0.34524-7.3539 2.2459-8.9668 2.6484-1.6116 0.40256-2.3664 0.76446-4.9512 0.51953-2.9469-0.2788-4.2717-0.29754-5.0469-0.27539-1.1608-0.10292-1.7461-0.35742-1.7461-0.35742l0.10156 1.1426c-0.77126 0.58886-2.3251 1.4461-5.5156 2.3125-2.0727 0.2306-3.7989-0.40396-4.8359 0.17188-1.0357 0.57584-4.3181 2.0154-5.9883 2.418-1.6702 0.40256-2.9064 1.158-3.9082 1.4863-1.5907 0.51851 3.1525 8.1199 5.2109 9.1191 0 0-0.71261 0.74053-1.3027 1.3594-1.4318 0.9784-2.5605 1.043-2.5605 1.043l0.07227 0.78516c-1.2494 0.66385-2.4897 1.0604-3.2617 1.25 0.83663 11.481 4.6693 13.355 18.814 13.355h11.26c0.0237-0.18202 0.0669-0.44464 0.0801-0.58203 0.56541-0.83118 1.3262-0.8418 1.3262-0.8418s-0.97726-2.7697-0.88086-6.1035c0.12116-0.7908 0.32734-1.5354 0.5879-2.2441h0.98437s-0.12465-1.3599 0.43164-2.7422c1.8304-2.7828 4.3295-4.6428 5.3965-5.4609 1.0058-0.77256 5.6407-1.9569 6.6191-2.1875 0.97839-0.2306 1.8997-1.7869 1.957-2.248s-0.28711-1.3242-0.28711-1.3242l-2.5898-0.57422-3.1348-0.35352s4.303-6.3746 5.0781-7.1133c0.82206-0.78298 1.2227-1.7469 1.2227-2.668 0-0.9211-0.67773-2.1602-0.67773-2.1602s-0.77864-0.39391-2.0488-0.3457c-0.21236 0.0078-0.43021-0.02146-0.66602-0.04102h-4e-3c-0.1179-0.0098-0.23968-0.0179-0.36719-0.01758z" enable-background="new" fill="url(#linearGradient910)" stroke-width="3.7796"/>
  <g transform="matrix(.34469 0 0 .34469 20.609 1.9327)" fill-rule="evenodd">
   <g stroke-width=".76758">
    <path d="m42.25 12s-0.313-0.281-0.656-0.313c-0.344-0.031-1.063 0.094-1.281 0.063-0.219-0.031-0.969-0.469-0.969-0.469s1-0.563 1.344-0.625c0.344-0.063 0.938-0.156 0.938-0.156s0.25 0.313 0.438 0.75c0.188 0.438 0.188 0.75 0.188 0.75" fill="#2c3e50"/>
    <path d="m40.987 21.23c-0.675 0.09-0.805 0.015-0.805 0.015s0.156-0.707 0.325-0.767 0.662 0.707 0.48 0.752" fill="#fcfcfc"/>
    <path d="m41.906 14.969s-2.219 1.063-3.281 2.719c-1.063 1.656-1.813 3.344-1.813 3.344s0.75 0.156 1.438 0.406 1.938 0.313 2.469 0.219 0.688-0.344 0.156-0.563c-0.531-0.219-1.313-0.375-1.344-0.844s0.969-3.188 1.25-3.625c0.281-0.438 1.125-1.656 1.125-1.656" fill="#2c3e50"/>
    <path d="m22.438 20.375s2.749-0.414 3.796-1.04c3.414-2.04 3.298-3.179 3.298-3.179s-3.611-1.445-6.108 1.534c-1.045 1.247-0.986 2.685-0.986 2.685" fill="#34495e"/>
    <path d="m23.467 19.14s2.74-0.552 3.757-1.304c1.016-0.751 1.436-1.149 1.304-1.414-0.133-0.265-1.127-0.663-2.364-0.354s-2.121 1.193-2.364 1.746c-0.243 0.552-0.486 1.149-0.331 1.326" fill="url(#linearGradient914)"/>
    <path d="m38.956 21.676c1.01 0.116 1.2 0.019 1.2 0.019s-0.232-0.91-0.484-0.987-0.987 0.91-0.716 0.968" fill="#fcfcfc"/>
    <path d="m12.298 24.795c1.01 0.774 3.56 1.23 4.811 1.048 2.951-0.431 3.103-0.21 2.391-2.093-0.514-1.359-3.5-2.75-5.5-0.75l-1-1c0.593-0.854-0.5-2.844-1-3s-2.859 0.486-3.078 0.705 2.369 4.317 3.376 5.091" fill="url(#linearGradient916)"/>
   </g>
  </g>
 </g>
</svg>
