<?xml version="1.0" encoding="UTF-8"?>
<svg width="64" height="64" version="1.1" viewBox="0 0 16.933 16.933" xmlns="http://www.w3.org/2000/svg" xmlns:cc="http://creativecommons.org/ns#" xmlns:dc="http://purl.org/dc/elements/1.1/" xmlns:rdf="http://www.w3.org/1999/02/22-rdf-syntax-ns#" xmlns:xlink="http://www.w3.org/1999/xlink">
 <metadata>
  <rdf:RDF>
   <cc:Work rdf:about="">
    <dc:format>image/svg+xml</dc:format>
    <dc:type rdf:resource="http://purl.org/dc/dcmitype/StillImage"/>
    <dc:title/>
   </cc:Work>
  </rdf:RDF>
 </metadata>
 <defs>
  <filter id="filter2761" x="-.024" y="-.024" width="1.048" height="1.048" color-interpolation-filters="sRGB">
   <feGaussianBlur stdDeviation="0.14552168"/>
  </filter>
  <linearGradient id="linearGradient1024" x1="1.3315" x2="15.65" y1="15.576" y2="1.17" gradientTransform="translate(-.00085 .14045)" gradientUnits="userSpaceOnUse">
   <stop stop-color="#dddfe1" offset="0"/>
   <stop stop-color="#f3f4f6" stop-opacity=".99608" offset="1"/>
  </linearGradient>
 </defs>
 <path d="m10.708 1.1905c4.405 0 5.0345 0.67282 5.0345 5.388v3.7761c0 4.7152-0.62954 5.388-5.0345 5.388h-4.4832c-4.405 0-5.0346-0.6728-5.0346-5.388v-3.7761c0-4.7152 0.62954-5.388 5.0346-5.388z" enable-background="new" fill="#141414" filter="url(#filter2761)" opacity=".3"/>
 <path d="m10.708 1.1904c4.405 0 5.0345 0.67282 5.0345 5.388v3.7761c0 4.7152-0.62954 5.388-5.0345 5.388h-4.4832c-4.405 0-5.0346-0.6728-5.0346-5.388v-3.7761c0-4.7152 0.62954-5.388 5.0346-5.388z" enable-background="new" fill="url(#linearGradient1024)"/>
 <g transform="translate(-.0272 .0065001)" fill="#5e4aa6" stroke-width=".26458">
  <circle cx="-330.35" cy="-328.38" r="0"/>
  <circle cx="-312.11" cy="-326.25" r="0"/>
  <circle cx="-306.02" cy="-333.07" r="0"/>
  <circle cx="-308.84" cy="-326.01" r="0"/>
 </g>
 <g transform="translate(-.13265 -280.2)">
  <path d="m12.965 292.5c0.14657 0 0.26458-0.11801 0.26458-0.26458v-4.4979c0-0.14657-0.11801-0.26458-0.26458-0.26458h-1.5875v3.7042c0 0.14658-0.11801 0.26459-0.26458 0.26459h-2.6458c-0.14657 0-0.26458-0.11801-0.26458-0.26459v-3.7042h-1.5875c-0.14657 0-0.26458 0.11801-0.26458 0.26458v4.4979c0 0.14657 0.11801 0.26458 0.26458 0.26458z" fill="#fdc409" style="paint-order:stroke fill markers"/>
  <path transform="matrix(.26458 0 0 .26458 0 280.07)" d="m22 28v9l9-9z" fill="#b61f1d" style="paint-order:stroke fill markers"/>
  <path d="m4.2333 284.83c-0.14657 0-0.26458 0.11801-0.26458 0.26458v4.4979c0 0.14657 0.11801 0.26458 0.26458 0.26458h1.5875v-3.7042c0-0.14658 0.11801-0.26459 0.26458-0.26459h2.6458c0.14657 0 0.26458 0.11801 0.26458 0.26459v3.7042h1.5875c0.14657 0 0.26458-0.11801 0.26458-0.26458v-4.4979c0-0.14657-0.11801-0.26458-0.26458-0.26458z" fill="#e5381f" style="paint-order:stroke fill markers"/>
  <path transform="matrix(.26458 0 0 .26458 0 280.07)" d="m43 28-9 9h9z" fill="#e76f08" style="paint-order:stroke fill markers"/>
  <rect x="11.642" y="285.62" width="1.0583" height="1.0583" ry="0" fill="#e76f08" style="paint-order:stroke fill markers"/>
  <rect transform="rotate(45)" x="208.92" y="201.81" width="1.0583" height="1.0583" ry="0" fill="#f6aa08" style="paint-order:stroke fill markers"/>
 </g>
</svg>
