<?xml version="1.0" encoding="UTF-8"?>
<svg width="64" height="64" version="1.1" viewBox="0 0 16.933 16.933" xmlns="http://www.w3.org/2000/svg" xmlns:cc="http://creativecommons.org/ns#" xmlns:dc="http://purl.org/dc/elements/1.1/" xmlns:rdf="http://www.w3.org/1999/02/22-rdf-syntax-ns#">
 <metadata>
  <rdf:RDF>
   <cc:Work rdf:about="">
    <dc:format>image/svg+xml</dc:format>
    <dc:type rdf:resource="http://purl.org/dc/dcmitype/StillImage"/>
    <dc:title/>
   </cc:Work>
  </rdf:RDF>
 </metadata>
 <defs>
  <filter id="filter2761" x="-.024" y="-.024" width="1.048" height="1.048" color-interpolation-filters="sRGB">
   <feGaussianBlur stdDeviation="0.14552168"/>
  </filter>
  <linearGradient id="linearGradient1024" x1="1.3315" x2="15.65" y1="15.576" y2="1.17" gradientTransform="translate(-.00084984 .14045)" gradientUnits="userSpaceOnUse">
   <stop stop-color="#fad21e" offset="0"/>
   <stop stop-color="#faeb1e" offset="1"/>
  </linearGradient>
  <linearGradient id="linearGradient908" x1="6.576" x2="6.576" y1="1.58" y2="15.33" gradientTransform="matrix(1.2609 0 0 1.2602 .27655 -1.4618)" gradientUnits="userSpaceOnUse">
   <stop stop-color="#f00064" offset="0"/>
   <stop stop-color="#fa3c4b" offset="1"/>
  </linearGradient>
 </defs>
 <path d="m10.708 1.1905c4.405 0 5.0345 0.67282 5.0345 5.388v3.7761c0 4.7152-0.62954 5.388-5.0345 5.388h-4.4832c-4.405 0-5.0346-0.6728-5.0346-5.388v-3.7761c0-4.7152 0.62954-5.388 5.0346-5.388z" enable-background="new" fill="#141414" filter="url(#filter2761)" opacity=".3"/>
 <path d="m10.708 1.1905c4.405 0 5.0345 0.67282 5.0345 5.388v3.7761c0 4.7152-0.62954 5.388-5.0345 5.388h-4.4832c-4.405 0-5.0346-0.6728-5.0346-5.388v-3.7761c0-4.7152 0.62954-5.388 5.0346-5.388z" enable-background="new" fill="url(#linearGradient1024)"/>
 <path d="m9.0626 1.1906c-1.5632 1.5133-6.0551 5.9775-6.6754 6.6429-0.0065288 0.042842-0.012729 0.085733-0.0186 0.12867 0.17779-0.14493 0.45349-0.36693 0.73844-0.62527 0.14878-0.13484 0.3331-0.29452 0.40875-0.35501 0.07565-0.060486 0.21703-0.18176 0.3116-0.26871 0.26226-0.24322 0.88376-0.79392 1.0666-0.94514 0.08826-0.075612 0.43612-0.38058 0.77152-0.67798 0.33539-0.29867 0.76906-0.68039 0.96323-0.84799 0.19418-0.16887 0.59671-0.53464 0.89554-0.8144 0.56511-0.53013 2.276-2.046 2.5218-2.237zm1.1074 0c-0.05627 0.10604-1.4796 2.0395-1.7444 2.4474-1.0567 1.6322-2.1112 3.2659-3.1636 4.9009l-1.589 2.4603-1.5937 2.4696c-0.18913 0.29111-0.33551 0.5146-0.44647 0.69607 0.48967 1.315 2.1508 1.5564 3.6093 1.5564 0.33601 0.01319 0.68992 0.02119 1.0841 0.02119h4.1439c0.38074-4.251 1.8437-9.2636 4.0803-13.938 5e-3 -0.010479 9e-3 -0.015368 0.01395-0.025321-0.75256-0.47134-1.9286-0.58807-3.7547-0.58807z" fill="url(#linearGradient908)" stroke-width=".9472"/>
</svg>
