<?xml version="1.0" encoding="UTF-8"?>
<svg width="64" height="64" version="1.1" viewBox="0 0 16.933 16.933" xmlns="http://www.w3.org/2000/svg" xmlns:cc="http://creativecommons.org/ns#" xmlns:dc="http://purl.org/dc/elements/1.1/" xmlns:rdf="http://www.w3.org/1999/02/22-rdf-syntax-ns#">
 <metadata>
  <rdf:RDF>
   <cc:Work rdf:about="">
    <dc:format>image/svg+xml</dc:format>
    <dc:type rdf:resource="http://purl.org/dc/dcmitype/StillImage"/>
    <dc:title/>
   </cc:Work>
  </rdf:RDF>
 </metadata>
 <defs>
  <style type="text/css"/>
  <filter id="filter2761" x="-.024" y="-.024" width="1.048" height="1.048" color-interpolation-filters="sRGB">
   <feGaussianBlur stdDeviation="0.14552168"/>
  </filter>
  <linearGradient id="linearGradient1024-6" x1="1.3315" x2="15.65" y1="15.576" y2="1.17" gradientTransform="translate(-.00069968 .1404)" gradientUnits="userSpaceOnUse">
   <stop stop-color="#00dc96" offset="0"/>
   <stop stop-color="#14d29b" offset="1"/>
  </linearGradient>
 </defs>
 <g transform="translate(-.02705 .0064503)" fill="#5e4aa6" stroke-width=".26458">
  <circle cx="-330.35" cy="-328.38" r="0"/>
  <circle cx="-312.11" cy="-326.25" r="0"/>
  <circle cx="-306.02" cy="-333.07" r="0"/>
  <circle cx="-308.84" cy="-326.01" r="0"/>
 </g>
 <path d="m10.708 1.1905c4.405 0 5.0345 0.67282 5.0345 5.388v3.7761c0 4.7152-0.62954 5.388-5.0345 5.388h-4.4832c-4.405 0-5.0346-0.6728-5.0346-5.388v-3.7761c0-4.7152 0.62954-5.388 5.0346-5.388z" enable-background="new" fill="#141414" filter="url(#filter2761)" opacity=".3"/>
 <path d="m10.708 1.1905c4.405 0 5.0345 0.67282 5.0345 5.388v3.7761c0 4.7152-0.62954 5.388-5.0345 5.388h-4.4832c-4.405 0-5.0346-0.6728-5.0346-5.388v-3.7761c0-4.7152 0.62954-5.388 5.0346-5.388z" enable-background="new" fill="url(#linearGradient1024-6)"/>
 <path d="m6.0731 6.135a2.2231 2.2231 0 0 0-1.5996 0.67642 2.341 2.341 0 0 0-0.67091 1.6547c0 0.30846 0.05949 0.61362 0.17516 0.89675 0.11457 0.28313 0.28423 0.54091 0.49575 0.75684a2.2287 2.2287 0 0 0 1.5809 0.67642h0.01983a2.211 2.211 0 0 0 1.6833-0.64998c0.28313-0.27762 0.50676-0.60371 0.70947-0.93641 0.20271 0.3327 0.42524 0.65879 0.70837 0.93641 0.41533 0.40431 0.98048 0.68303 1.6844 0.64998h0.01983c0.28974-0.0022 0.57617-0.06169 0.84387-0.17516 0.27542-0.11567 0.52549-0.28643 0.73701-0.50126l0.0011-0.0022a2.3388 2.3388 0 0 0 0.66871-1.6514c0-0.30846-0.05949-0.61362-0.17406-0.89675l-0.0022-0.00551a2.3465 2.3465 0 0 0-0.49465-0.75354 2.2276 2.2276 0 0 0-1.6007-0.67642c-0.73921 0-1.3242 0.30516-1.756 0.7282-0.25008 0.24457-0.45278 0.52439-0.63676 0.81082a4.5719 4.5719 0 0 0-0.63566-0.81082 2.4578 2.4578 0 0 0-1.7571-0.7282zm-0.00771 0.6665c0.59159 0 0.96946 0.21152 1.3143 0.56185 0.27541 0.27762 0.51558 0.65549 0.75353 1.0686-0.27211 0.48032-0.53541 0.91989-0.83065 1.2184-0.32609 0.32829-0.6632 0.51007-1.2151 0.47812h-0.022033c-0.20932 0-0.42194-0.04407-0.61583-0.12889a1.6062 1.6062 0 0 1-0.51227-0.35804l-0.00661-0.00551a1.6811 1.6811 0 0 1-0.4616-1.1711 1.6811 1.6811 0 0 1 0.4627-1.17l0.00551-0.00661a1.5489 1.5489 0 0 1 1.1292-0.48693zm4.8021 0c0.20932 0 0.42194 0.044066 0.61693 0.12889 0.19059 0.083726 0.36685 0.20711 0.51227 0.35804l0.0055 0.00771a1.68 1.68 0 0 1 0.4627 1.17c0 0.21482-0.04186 0.43185-0.12008 0.63125-0.07822 0.1983-0.1961 0.38558-0.34262 0.53981l-0.0066 0.00441a1.5511 1.5511 0 0 1-1.1292 0.48693h-0.02093c-0.55084 0.033048-0.88904-0.14873-1.2151-0.47702-0.29524-0.29745-0.55854-0.73811-0.83065-1.2195 0.23906-0.41202 0.47922-0.78989 0.75354-1.0686 0.34592-0.34923 0.72379-0.56185 1.3143-0.56185zm-0.40211 0.6665v0.6654h-0.6665v0.6665h0.6665v0.6665h0.6665v-0.6665h0.6654v-0.6665h-0.6654v-0.6654zm-5.3298 0.6654v0.6665h1.9984v-0.6665z" fill="#fff" stroke-width="1.1017"/>
</svg>
