<?xml version="1.0" encoding="UTF-8"?>
<svg width="64" height="64" version="1.1" xmlns="http://www.w3.org/2000/svg" xmlns:cc="http://creativecommons.org/ns#" xmlns:dc="http://purl.org/dc/elements/1.1/" xmlns:rdf="http://www.w3.org/1999/02/22-rdf-syntax-ns#">
 <metadata>
  <rdf:RDF>
   <cc:Work rdf:about="">
    <dc:format>image/svg+xml</dc:format>
    <dc:type rdf:resource="http://purl.org/dc/dcmitype/StillImage"/>
    <dc:title/>
   </cc:Work>
  </rdf:RDF>
 </metadata>
 <defs>
  <style type="text/css"/>
  <style type="text/css"/>
  <style type="text/css"/>
  <style type="text/css"/>
  <style type="text/css"/>
  <style type="text/css"/>
  <style type="text/css"/>
  <filter id="filter2761" x="-.024" y="-.024" width="1.048" height="1.048" color-interpolation-filters="sRGB">
   <feGaussianBlur stdDeviation="0.14552168"/>
  </filter>
  <linearGradient id="linearGradient1024-6" x1="1.3315" x2="15.65" y1="15.576" y2="1.17" gradientTransform="matrix(3.7796 0 0 3.7796 -.0014947 .53032)" gradientUnits="userSpaceOnUse">
   <stop stop-color="#00dc96" offset="0"/>
   <stop stop-color="#14d29b" offset="1"/>
  </linearGradient>
 </defs>
 <g fill="#5e4aa6">
  <circle cx="-1248.7" cy="-1241.6" r="0"/>
  <circle cx="-149.15" cy="23.855" r="0" fill-rule="evenodd"/>
  <g transform="matrix(3.7796 0 0 3.7796 86.508 6.5083)" stroke-width=".26458">
   <g transform="translate(-.0272 .0065001)">
    <circle cx="-330.35" cy="-328.38" r="0"/>
    <circle cx="-312.11" cy="-326.25" r="0"/>
    <circle cx="-306.02" cy="-333.07" r="0"/>
    <circle cx="-308.84" cy="-326.01" r="0"/>
   </g>
   <g transform="translate(-.0272 .0065001)">
    <circle cx="-330.35" cy="-328.38" r="0"/>
    <circle cx="-312.11" cy="-326.25" r="0"/>
    <circle cx="-306.02" cy="-333.07" r="0"/>
    <circle cx="-308.84" cy="-326.01" r="0"/>
   </g>
   <g transform="translate(-.02705 .0064503)">
    <circle cx="-330.35" cy="-328.38" r="0"/>
    <circle cx="-312.11" cy="-326.25" r="0"/>
    <circle cx="-306.02" cy="-333.07" r="0"/>
    <circle cx="-308.84" cy="-326.01" r="0"/>
   </g>
  </g>
 </g>
 <path transform="matrix(3.7796 0 0 3.7796 .00056722 -.0001887)" d="m10.708 1.1905c4.405 0 5.0345 0.67282 5.0345 5.388v3.7761c0 4.7152-0.62954 5.388-5.0345 5.388h-4.4832c-4.405 0-5.0346-0.6728-5.0346-5.388v-3.7761c0-4.7152 0.62954-5.388 5.0346-5.388z" enable-background="new" fill="#141414" filter="url(#filter2761)" opacity=".3"/>
 <path d="m40.473 4.499c16.649 0 19.028 2.543 19.028 20.364v14.272c0 17.822-2.3794 20.364-19.028 20.364h-16.945c-16.649 0-19.029-2.5429-19.029-20.364v-14.272c0-17.822 2.3794-20.364 19.029-20.364z" enable-background="new" fill="url(#linearGradient1024-6)" stroke-width="3.7796"/>
 <path d="m31.997 14.501c-3.0937 0-5.9821 1.0849-8.0173 3.1131-2.0351 2.0345-3.119 4.9233-3.119 8.0162h6.3677c0-1.6795 0.50563-2.7676 1.2546-3.5179 0.74895-0.74869 1.8375-1.2546 3.5172-1.2546s2.7682 0.50588 3.5172 1.2546c0.74895 0.74871 1.2546 1.8383 1.2546 3.5179 0 1.4585-0.28758 2.0795-0.67153 2.629-0.38396 0.54946-1.0128 1.0693-1.9483 1.7247-0.93539 0.6553-2.1789 1.4102-3.3276 2.7504-1.1487 1.3402-2.0066 3.3699-2.0066 5.6238v1.5908h6.3677v-1.5908c0-0.9277 0.13268-1.0849 0.47559-1.4849 0.34288-0.40004 1.0918-0.9386 2.1441-1.6748 1.0523-0.73625 2.4128-1.7091 3.5204-3.2967 1.1076-1.5877 1.814-3.7513 1.814-6.2729 0-3.0929-1.0855-5.9819-3.119-8.0162-2.0351-2.0345-4.9235-3.1131-8.0173-3.1131m-3.176 28.637v6.3632h6.3677v-6.3632z" opacity=".3" stroke-linejoin="round" stroke-width="3.1365"/>
 <g transform="matrix(1.25 0 0 1.25 -147.72 18.165)" fill="#f9f9f9">
  <path d="m138.77 19.059 3-1 3.6 5.5-2.6 1.5z" style="paint-order:normal"/>
  <path d="m138.77 3.0593c-6 0-7 3.8136-7 9s1 9 7 9 7-4 7-9-1-9-7-9zm0 3c3 0 4 2 4 6s-1 6-4 6-4-2.2545-4-6 1-6 4-6z" style="paint-order:normal"/>
  <path d="m149.77 4.0593h3v4h3v2h-3v7c0 2 1 2 1.5 2h1.5v2h-2.5c-2 0-3.5-2-3.5-4v-7h-2v-2h2z" stroke-width=".32579"/>
 </g>
</svg>
