<svg width="64" height="64" version="1.1" viewBox="0 0 64 64" xmlns="http://www.w3.org/2000/svg" xmlns:xlink="http://www.w3.org/1999/xlink">
 <title>Template icons dark</title>
 <defs>
  <linearGradient id="c" x1="24.535" x2="24.705" y1="7.996" y2="38.25" gradientTransform="matrix(1.4364 0 0 1.4364 45.407 43.286)" gradientUnits="userSpaceOnUse">
   <stop stop-color="#20c686" offset="0"/>
   <stop stop-color="#259d68" offset="1"/>
  </linearGradient>
 </defs>
 <g transform="translate(-48 -48)">
  <circle cx="80" cy="81" r="30" color="#000000" opacity=".15" overflow="visible" style="isolation:auto;mix-blend-mode:normal"/>
  <circle cx="80" cy="80" r="30" color="#000000" fill="url(#c)" overflow="visible" style="isolation:auto;mix-blend-mode:normal"/>
  <path d="M87.449 101.218c-3.323-.551-7.638-4.355-11.577-10.204-1.653-2.454-3.344-5.485-4.448-7.971-.221-.499-.302-.619-.37-.547-.133.143-1.095 2.234-1.602 3.484-.852 2.102-1.453 4.106-1.797 5.997-.22 1.21-.24 3.557-.035 4.284.476 1.689 1.509 2.391 3.12 2.121 1.16-.195 2.566-.83 4.057-1.836.662-.446.837-.531 1.093-.533.391-.003.684.21.82.598.091.257.091.332-.002.577-.09.236-.244.376-.943.85-.966.654-2.617 1.498-3.462 1.768-2.214.709-3.937.449-5.15-.776-1.115-1.123-1.595-2.941-1.447-5.477.193-3.3 1.643-7.804 3.935-12.22l.575-1.106-.434-1.175c-.416-1.124-1.237-3.73-1.237-3.924 0-.142-.252-.113-1.354.158-2.525.621-4.402 1.412-5.747 2.422-2.645 1.985-1.945 4.224 2.02 6.454.63.355.776.546.776 1.019 0 .247-.046.348-.248.55-.433.434-.837.344-2.175-.486-1.936-1.2-3.16-2.567-3.59-4.008-.158-.526-.158-1.586 0-2.115.228-.772.613-1.385 1.307-2.084 1.557-1.566 4.14-2.768 7.68-3.576.721-.165.888-.227.86-.318-.018-.063-.1-.476-.182-.917-.482-2.583-.496-5.544-.036-7.186.53-1.894 1.492-3.02 3.024-3.547.625-.215 1.877-.18 2.736.074.863.257 1.934.785 2.881 1.42 1.13.756 1.462 1.073 1.51 1.439.11.84-.758 1.293-1.467.765-2.22-1.654-3.806-2.283-5.077-2.015-.923.195-1.628 1.144-1.985 2.67-.141.607-.16.895-.161 2.404-.001 1.713.024 1.988.336 3.784l.157.902.37-.044c1.701-.206 3.167-.349 4.07-.397l1.073-.058.167-.215c1.812-2.33 4.447-5.05 6.443-6.651 3.823-3.068 7.102-4.133 9.357-3.04 1.274.617 2.08 1.878 2.392 3.746.204 1.219.043 4.105-.274 4.918-.11.28-.462.483-.84.484-.239 0-.364-.049-.548-.213-.218-.195-.238-.249-.236-.638 0-.234.062-.902.136-1.484.216-1.691.068-3.255-.394-4.16-.224-.439-.682-.908-1.079-1.103-.297-.147-.45-.169-1.145-.167-.731.003-.874.027-1.595.273-2.23.76-4.787 2.59-7.53 5.388a53.144 53.144 0 0 0-1.75 1.885l-.794.912.69.016c9.67.23 17.82 2.45 21.662 5.902.864.777 1.61 1.934 1.826 2.837.11.458.112 1.346.004 1.822-.397 1.755-2.327 3.48-5.14 4.595-.445.177-.539.191-.779.119a.877.877 0 0 1-.649-.845c0-.464.224-.687 1.027-1.024 1.748-.733 3.103-1.76 3.617-2.742.179-.342.206-.474.206-1.013 0-.56-.024-.666-.245-1.094-.312-.605-1.342-1.638-2.197-2.204-4.2-2.778-12.114-4.581-20.105-4.582h-1.318l-.497.675c-.743 1.01-2.355 3.464-2.997 4.562l-.566.968.39.892c3.9 8.951 9.955 16.51 14.42 18 .972.325 1.706.34 2.3.05 1.112-.544 1.694-1.955 1.783-4.323.15-3.952-1.274-9.414-3.928-15.074-.275-.586-.44-1.034-.44-1.194 0-.478.393-.855.886-.848.437.005.63.181.963.88 2.152 4.501 3.587 9.011 4.123 12.959.18 1.327.181 4.03.002 4.995-.286 1.544-.796 2.656-1.577 3.44-.95.954-2.185 1.319-3.644 1.076zm-15.44-24.03c.272-.441.802-1.252 1.178-1.802.376-.55.683-1.022.683-1.049 0-.094-3.447.255-3.551.36-.063.062.144.83.603 2.242.334 1.026.424 1.235.5 1.152.05-.055.314-.461.587-.903zm7.355 6.544c-1.096-.391-1.736-1.306-1.722-2.458.008-.604.145-1.018.498-1.498.894-1.218 2.72-1.357 3.82-.29 1.262 1.225.889 3.412-.709 4.143-.55.252-1.349.295-1.887.103z" fill-opacity=".235"/>
  <path d="M87.449 99.9c-3.323-.552-7.638-4.356-11.577-10.205-1.653-2.455-3.344-5.485-4.448-7.971-.221-.5-.302-.62-.37-.548-.133.143-1.095 2.235-1.602 3.484-.852 2.103-1.453 4.107-1.797 5.997-.22 1.211-.24 3.558-.035 4.285.476 1.689 1.509 2.39 3.12 2.12 1.16-.194 2.566-.83 4.057-1.835.662-.447.837-.532 1.093-.533.391-.003.684.21.82.598.091.257.091.332-.002.577-.09.236-.244.375-.943.85-.966.654-2.617 1.498-3.462 1.768-2.214.708-3.937.449-5.15-.776-1.115-1.124-1.595-2.941-1.447-5.477.193-3.3 1.643-7.804 3.935-12.22l.575-1.106-.434-1.175c-.416-1.124-1.237-3.73-1.237-3.924 0-.142-.252-.113-1.354.158-2.525.621-4.402 1.412-5.747 2.422-2.645 1.985-1.945 4.224 2.02 6.454.63.355.776.546.776 1.019 0 .247-.046.348-.248.55-.433.434-.837.343-2.175-.486-1.936-1.2-3.16-2.567-3.59-4.008-.158-.526-.158-1.586 0-2.116.228-.771.613-1.384 1.307-2.083 1.557-1.566 4.14-2.768 7.68-3.576.721-.165.888-.227.86-.319-.018-.062-.1-.475-.182-.916-.482-2.583-.496-5.544-.036-7.186.53-1.894 1.492-3.021 3.024-3.547.625-.215 1.877-.18 2.736.074.863.257 1.934.785 2.881 1.42 1.13.756 1.462 1.073 1.51 1.439.11.84-.758 1.293-1.467.765-2.22-1.654-3.806-2.283-5.077-2.015-.923.195-1.628 1.144-1.985 2.67-.141.607-.16.895-.161 2.404-.001 1.712.024 1.988.336 3.784l.157.902.37-.045c1.701-.205 3.167-.348 4.07-.397l1.073-.057.167-.215c1.812-2.33 4.447-5.05 6.443-6.651 3.823-3.068 7.102-4.133 9.357-3.04 1.274.617 2.08 1.878 2.392 3.745.204 1.22.043 4.106-.274 4.919-.11.28-.462.483-.84.483-.239 0-.364-.048-.548-.212-.218-.195-.238-.25-.236-.639 0-.234.062-.901.136-1.483.216-1.692.068-3.255-.394-4.16-.224-.44-.682-.908-1.079-1.103-.297-.147-.45-.17-1.145-.167-.731.003-.874.027-1.595.273-2.23.76-4.787 2.59-7.53 5.388a53.143 53.143 0 0 0-1.75 1.885l-.794.912.69.016c9.67.23 17.82 2.45 21.662 5.902.864.777 1.61 1.934 1.826 2.837.11.457.112 1.346.004 1.821-.397 1.756-2.327 3.481-5.14 4.596-.445.177-.539.19-.779.119a.877.877 0 0 1-.649-.846c0-.464.224-.686 1.027-1.023 1.748-.733 3.103-1.76 3.617-2.742.179-.342.206-.474.206-1.013 0-.56-.024-.666-.245-1.095-.312-.604-1.342-1.637-2.197-2.203-4.2-2.778-12.114-4.581-20.105-4.582h-1.318l-.497.675c-.743 1.01-2.355 3.464-2.997 4.561l-.566.969.39.892c3.9 8.951 9.955 16.51 14.42 18 .972.325 1.706.34 2.3.05 1.112-.544 1.694-1.955 1.783-4.323.15-3.952-1.274-9.414-3.928-15.074-.275-.587-.44-1.035-.44-1.194 0-.478.393-.855.886-.848.437.005.63.181.963.88 2.152 4.501 3.587 9.011 4.123 12.959.18 1.327.18 4.029.002 4.994-.286 1.545-.796 2.657-1.577 3.44-.95.955-2.185 1.32-3.644 1.077zm-15.44-24.031c.272-.441.802-1.252 1.178-1.802.376-.55.683-1.022.683-1.05 0-.093-3.447.256-3.551.36-.063.063.144.831.603 2.243.334 1.026.424 1.235.5 1.152.05-.055.314-.462.587-.903zm7.355 6.544c-1.096-.391-1.736-1.306-1.722-2.458.008-.604.145-1.018.498-1.498.894-1.218 2.72-1.357 3.82-.29 1.262 1.225.889 3.412-.709 4.143-.55.251-1.349.295-1.887.103z" fill="#fff" stroke="#fff" stroke-width=".29"/>
 </g>
</svg>
