<svg width="64" height="64" version="1.1" viewBox="0 0 16.933 16.933" xmlns="http://www.w3.org/2000/svg" xmlns:xlink="http://www.w3.org/1999/xlink">
 <defs>
  <linearGradient id="a" x1="8.0543" x2="7.8932" y1="282.04" y2="295.49" gradientUnits="userSpaceOnUse">
   <stop stop-color="#f9f9f9" offset="0"/>
   <stop stop-color="#eaeaea" offset="1"/>
  </linearGradient>
  <filter id="b" x="-.062744" y="-.057486" width="1.1255" height="1.115" color-interpolation-filters="sRGB">
   <feGaussianBlur stdDeviation="1.1017537"/>
  </filter>
 </defs>
 <g transform="translate(0,-280.07)">
  <circle cx="-330.35" cy="-48.312" r="0" fill="#5e4aa6" stroke-width=".26458"/>
  <circle cx="-39.434" cy="286.51" r="0" fill="#5e4aa6" fill-rule="evenodd" stroke-width=".26458"/>
  <circle cx="8.4935" cy="288.8" r="7.9375" opacity=".2" stroke-width=".14032"/>
  <circle cx="8.4939" cy="288.53" r="7.9375" fill="url(#a)" style="paint-order:normal"/>
 </g>
 <g transform="matrix(.22601 0 0 .22601 1.2343 1.2344)" fill-rule="evenodd" stroke-width=".056845">
  <path d="m32.102 10.071-21.007 11.695-0.02286-0.01143v0.02515l-0.06173 0.0343 0.06173 0.03429-0.14404 22.311 21.074 11.91v-0.0503l21.069-11.908-0.14176-22.251 0.07774-0.04115-0.07774-0.04344v-0.06859l-0.06173 0.0343z" filter="url(#b)" opacity=".15" stroke-width=".056845"/>
  <path d="m31.997 54.95 21.074-11.91-0.14345-22.405-20.93 11.469z" fill="#28bff8"/>
  <path d="m32.002 54.997-21.074-11.91 0.14345-22.405 20.93 11.469z" fill="#00a7e5"/>
  <path d="M 11.011,20.743 32.102,9 53.006,20.748 31.989,32.263 Z" fill="#5fd0f9"/>
 </g>
</svg>
