<svg width="64" height="64" version="1.1" viewBox="0 0 16.933 16.933" xmlns="http://www.w3.org/2000/svg" xmlns:xlink="http://www.w3.org/1999/xlink">
 <defs>
  <linearGradient id="f" x1="10.798" x2="10.798" y1="282.88" y2="283.29" gradientTransform="matrix(1.0543 0 0 .55499 -3.3237 -154.08)" gradientUnits="userSpaceOnUse" xlink:href="#a"/>
  <linearGradient id="a">
   <stop stop-color="#969696" offset="0"/>
   <stop stop-color="#e6e6e6" stop-opacity=".90196" offset="1"/>
  </linearGradient>
  <linearGradient id="g" x1="8.8166" x2="8.8166" y1="293.7" y2="294.12" gradientTransform="matrix(.94579 0 0 .555 .28524 -149.21)" gradientUnits="userSpaceOnUse" xlink:href="#a"/>
  <linearGradient id="e" x1="7.998" x2="7.998" y1="284.98" y2="285.41" gradientTransform="matrix(.94579 0 0 .555 .49316 -153.09)" gradientUnits="userSpaceOnUse" xlink:href="#a"/>
  <linearGradient id="d" x1="8.7643" x2="8.7643" y1="287.18" y2="287.64" gradientTransform="matrix(.94579 0 0 .555 .48658 -152.12)" gradientUnits="userSpaceOnUse" xlink:href="#a"/>
  <linearGradient id="c" x1="8.3178" x2="8.3178" y1="289.36" y2="289.81" gradientTransform="matrix(.94579 0 0 .555 .46856 -151.15)" gradientUnits="userSpaceOnUse" xlink:href="#a"/>
  <linearGradient id="b" x1="8.2553" x2="8.2553" y1="291.55" y2="291.96" gradientTransform="matrix(.94579 0 0 .55502 .57869 -150.19)" gradientUnits="userSpaceOnUse" xlink:href="#a"/>
 </defs>
 <circle cx="8.4935" cy="8.73" r="7.9375" opacity=".2" stroke-width=".14032"/>
 <circle cx="8.4935" cy="8.46" r="7.9375" fill="#fafafa" style="paint-order:normal"/>
 <path d="m3.1182 2.95c-0.042211 0.0443-0.078974 0.0835-0.13658 0.14895l11.024 9.8e-4c-0.05944-0.0607-0.08604-0.0922-0.14076-0.15z" fill="url(#f)" opacity=".6" style="paint-order:normal"/>
 <path d="m2.9987 13.84c0.048566 0.052 0.080515 0.0907 0.1349 0.15h10.72c0.05003-0.0561 0.07465-0.0855 0.13441-0.15z" fill="url(#g)" opacity=".6" style="paint-order:normal"/>
 <path d="m1.7062 5.11c-0.022302 0.0517-0.037132 0.0892-0.065978 0.15h13.708c-0.02381-0.0504-0.04631-0.10145-0.06843-0.15z" fill="url(#e)" opacity=".6" style="paint-order:normal"/>
 <path d="m1.088 7.29c-0.00964 0.0489-0.015643 0.0999-0.024922 0.15h14.862c-0.0088-0.0501-0.01516-0.10114-0.0259-0.15z" fill="url(#d)" opacity=".6" style="paint-order:normal"/>
 <path d="m1.0618 9.48c0.00899 0.0501 0.01744 0.10011 0.027371 0.15h14.811c0.0093-0.0539 0.01711-0.0968 0.02541-0.15z" fill="url(#c)" opacity=".6" style="paint-order:normal"/>
 <path d="m1.6442 11.66c0.021867 0.0535 0.040442 0.0932 0.064512 0.15h13.57c0.02313-0.0512 0.03674-0.0804 0.06941-0.15z" fill="url(#b)" opacity=".6" style="paint-order:normal"/>
 <path d="m10.612 0.86v5.5736l0.91542-0.93428 0.91593 0.93428v-4.7946a7.926 8.0848 0 0 0-1.8313-0.77901z" fill="#500000" fill-opacity=".93464" opacity=".2" style="paint-order:normal"/>
 <path d="m10.611 0.82v5.472l0.91674-0.91726 0.91726 0.91726v-4.7072a7.9375 7.9375 0 0 0-1.834-0.76482z" fill="#ff3232" style="paint-order:normal"/>
 <circle cx="-330.35" cy="-328.38" r="0" fill="#5e4aa6" stroke-width=".26458"/>
 <g transform="translate(-.058901 .27387)">
  <path d="m5.9175 4.437 5.3079 5.3079 1.004 2.1517c3.1e-5 5.4e-5 1e-3 0.0016 1e-3 0.0016l0.4687 1.0051h-5.29e-4l-1.0045-0.46874-2.1538-1.0051-0.31575-0.31625-4.9918-4.9912 1.6846-1.6851z" opacity=".15" stroke-width=".07754"/>
  <g stroke-width=".077541">
   <path d="m9.5941 11.226 3.1589 1.4742-1.4742-3.1589-0.31589-0.31589-1.6847 1.6847z" fill="#fee1c2"/>
   <path d="m12.284 11.695 0.46891 1.0053-1.0053-0.46891s-0.09941-0.05854-0.04724-0.11071c0.05217-0.05217 0.20919 0.0014 0.20919 0.0014s-0.10437-0.15888 3.6e-4 -0.26361 0.26361-3.6e-4 0.26361-3.6e-4 -0.05245-0.15815 2e-4 -0.2108c0.05265-0.05265 0.11024 0.04772 0.11024 0.04772z" color="#000000" fill="#5d5d5d"/>
   <path d="m11.279 9.5412c-0.2106-0.2106-0.57913 0.36853-0.26324 0.68443-0.52648-0.52648-1.2636 0.21059-0.73707 0.73707-0.31589-0.31589-0.89502 0.052648-0.68443 0.26324l-5.3076-5.3076 1.6847-1.6847z" fill="#ff7f2a"/>
  </g>
  <path d="m5.9711 4.2338-1.1984 1.1984 5.4073 5.4037c-0.31172-0.5074 0.35023-1.0957 0.83559-0.61029-0.31589-0.31589 0.05243-0.89478 0.26303-0.68418z" fill="#fff" opacity=".15" stroke-width=".077541"/>
  <path transform="scale(.26458)" d="m22.568 16.002-1.8516 1.8516 20.436 20.422c0.16342 0.10012 0.32601 0.21663 0.48242 0.37305-1.194-1.194 0.19816-3.3819 0.99414-2.5859z" fill="#fff" opacity=".15" stroke-width=".29307"/>
 </g>
</svg>
