<?xml version="1.0" encoding="UTF-8"?>
<!-- Created with Inkscape (http://www.inkscape.org/) -->
<svg width="64" height="64" version="1.1" viewBox="0 0 16.933 16.933" xmlns="http://www.w3.org/2000/svg" xmlns:cc="http://creativecommons.org/ns#" xmlns:dc="http://purl.org/dc/elements/1.1/" xmlns:rdf="http://www.w3.org/1999/02/22-rdf-syntax-ns#" xmlns:xlink="http://www.w3.org/1999/xlink">
 <defs>
  <filter id="filter2761" x="-.024" y="-.024" width="1.048" height="1.048" color-interpolation-filters="sRGB">
   <feGaussianBlur stdDeviation="0.14552168"/>
  </filter>
  <linearGradient id="linearGradient1174" x1="-22.655" x2="-16.238" y1="16.321" y2="16.321" gradientTransform="translate(30.868 -4.9486)" gradientUnits="userSpaceOnUse">
   <stop stop-color="#0a82f0" offset="0"/>
   <stop stop-color="#3250e6" offset="1"/>
  </linearGradient>
 </defs>
 <metadata>
  <rdf:RDF>
   <cc:Work rdf:about="">
    <dc:format>image/svg+xml</dc:format>
    <dc:type rdf:resource="http://purl.org/dc/dcmitype/StillImage"/>
    <dc:title/>
   </cc:Work>
  </rdf:RDF>
 </metadata>
 <path d="m10.709 1.05c4.405 0 5.0345 0.67282 5.0345 5.388v3.7761c0 4.7152-0.62954 5.388-5.0345 5.388h-4.4832c-4.405 0-5.0346-0.6728-5.0346-5.388v-3.7761c0-4.7152 0.62954-5.388 5.0346-5.388z" enable-background="new" fill="#141414" filter="url(#filter2761)" opacity=".3"/>
 <g>
  <path d="m10.709 1.05c4.405 0 5.0345 0.67282 5.0345 5.388v3.7761c0 4.7152-0.62954 5.388-5.0345 5.388h-4.4832c-4.405 0-5.0346-0.6728-5.0346-5.388v-3.7761c0-4.7152 0.62954-5.388 5.0346-5.388z" enable-background="new" fill="#fafafa"/>
  <rect x="8.2135" y="8.181" width="6.416" height="6.3829" ry="2.0711" fill="url(#linearGradient1174)"/>
  <g transform="translate(-.58638 -.29623)" fill="#fff" stroke-width="3.5631">
   <path d="m13.349 12.563h-2.6828c-0.12341 0-0.22357-0.09993-0.22357-0.22357 0-0.12364 0.10016-0.22357 0.22357-0.22357h2.6828c0.12341 0 0.22357 0.09993 0.22357 0.22357 0 0.12364-0.10016 0.22357-0.22357 0.22357z"/>
   <path d="m13.349 11.222h-2.6828c-0.12341 0-0.22357-0.09994-0.22357-0.22357 0-0.12364 0.10016-0.22357 0.22357-0.22357h2.6828c0.12341 0 0.22357 0.09993 0.22357 0.22357 0 0.12364-0.10016 0.22357-0.22357 0.22357z"/>
  </g>
  <g transform="matrix(.021736 0 0 .021736 -2.0341 -3.5381)" fill="#727272" stroke-width="158.04">
   <path d="m340 704c-2.5386 0-5.0771-0.97179-7.0108-2.9055-3.8772-3.8772-3.8772-10.144 0-14.022l49.581-49.581c3.8773-3.8773 10.144-3.8773 14.022 0 3.8772 3.8772 3.8772 10.144 0 14.022l-49.581 49.581c-1.9337 1.9337-4.4722 2.9055-7.0108 2.9055z"/>
   <path d="m290.42 753.58c-2.5386 0-5.0771-0.97179-7.0108-2.9055-3.8772-3.8772-3.8772-10.144 0-14.022l49.581-49.581c3.8772-3.8773 10.144-3.8773 14.022 0 3.8772 3.8772 3.8772 10.144 0 14.022l-49.581 49.581c-1.9337 1.9337-4.4722 2.9055-7.0108 2.9055z"/>
   <path d="m389.58 753.58c-2.5386 0-5.0771-0.97179-7.0108-2.9055l-49.581-49.581c-3.8772-3.8772-3.8772-10.144 0-14.022 3.8772-3.8773 10.144-3.8773 14.022 0l49.581 49.581c3.8772 3.8773 3.8772 10.144 0 14.022-1.9337 1.9337-4.4722 2.9055-7.0108 2.9055z"/>
   <path d="m340 704c-2.5386 0-5.0771-0.97179-7.0108-2.9055l-49.581-49.581c-3.8772-3.8772-3.8772-10.144 0-14.022 3.8773-3.8773 10.144-3.8773 14.022 0l49.581 49.581c3.8772 3.8772 3.8772 10.144 0 14.022-1.9337 1.9337-4.4722 2.9055-7.0108 2.9055z"/>
  </g>
 </g>
 <g transform="translate(.58376 -.57494)" fill="#727272" stroke-width="3.5631">
  <path d="m6.1137 6.1743h-2.6828c-0.12341 0-0.22357-0.099934-0.22357-0.22357 0-0.12364 0.10016-0.22357 0.22357-0.22357h2.6828c0.12341 0 0.22357 0.099934 0.22357 0.22357 0 0.12364-0.10016 0.22357-0.22357 0.22357z"/>
  <path d="m4.7724 7.5156c-0.12341 0-0.22357-0.099934-0.22357-0.22357v-2.6828c0-0.12363 0.10016-0.22357 0.22357-0.22357 0.12342 0 0.22357 0.099934 0.22357 0.22357v2.6828c0 0.12363-0.10016 0.22357-0.22357 0.22357z"/>
 </g>
 <path d="m12.92 5.5993h-2.6828c-0.12341 0-0.22357-0.099934-0.22357-0.22357 0-0.12364 0.10016-0.22357 0.22357-0.22357h2.6828c0.12341 0 0.22357 0.099934 0.22357 0.22357 0 0.12364-0.10016 0.22357-0.22357 0.22357z" fill="#727272" stroke-width="3.5631"/>
</svg>
