<?xml version="1.0" encoding="UTF-8"?>
<svg width="64" height="64" version="1.1" xmlns="http://www.w3.org/2000/svg" xmlns:cc="http://creativecommons.org/ns#" xmlns:dc="http://purl.org/dc/elements/1.1/" xmlns:rdf="http://www.w3.org/1999/02/22-rdf-syntax-ns#">
 <metadata>
  <rdf:RDF>
   <cc:Work rdf:about="">
    <dc:format>image/svg+xml</dc:format>
    <dc:type rdf:resource="http://purl.org/dc/dcmitype/StillImage"/>
    <dc:title/>
   </cc:Work>
  </rdf:RDF>
 </metadata>
 <defs>
  <style type="text/css"/>
  <style type="text/css"/>
  <filter id="b-3" x="-.048751" y="-.077997" width="1.0975" height="1.156" color-interpolation-filters="sRGB">
   <feGaussianBlur stdDeviation="0.65001616"/>
  </filter>
  <style type="text/css"/>
  <filter id="filter2761-6" x="-.024" y="-.024" width="1.048" height="1.048" color-interpolation-filters="sRGB">
   <feGaussianBlur stdDeviation="0.14552168"/>
  </filter>
  <linearGradient id="linearGradient1024-6" x1="1.3315" x2="15.65" y1="15.576" y2="1.17" gradientTransform="matrix(3.7796 0 0 3.7796 -.0026475 .53066)" gradientUnits="userSpaceOnUse">
   <stop stop-color="#00dc96" offset="0"/>
   <stop stop-color="#14d29b" offset="1"/>
  </linearGradient>
 </defs>
 <path transform="matrix(3.7796 0 0 3.7796 .00056722 -.0001887)" d="m10.708 1.1905c4.405 0 5.0345 0.67282 5.0345 5.388v3.7761c0 4.7152-0.62954 5.388-5.0345 5.388h-4.4832c-4.405 0-5.0346-0.6728-5.0346-5.388v-3.7761c0-4.7152 0.62954-5.388 5.0346-5.388z" enable-background="new" fill="#141414" filter="url(#filter2761-6)" opacity=".3"/>
 <path d="m40.473 4.4994c16.649 0 19.028 2.543 19.028 20.364v14.272c0 17.822-2.3794 20.364-19.028 20.364h-16.945c-16.649 0-19.029-2.5429-19.029-20.364v-14.272c0-17.822 2.3794-20.364 19.029-20.364z" enable-background="new" fill="url(#linearGradient1024-6)" stroke-width="3.7796"/>
 <g fill="#5e4aa6">
  <circle cx="-1248.7" cy="-1241.6" r="0"/>
  <circle cx="-1413.1" cy="-1298.3" r="0"/>
  <circle cx="-1223.9" cy="-1350" r="0"/>
  <circle cx="-124.34" cy="-84.463" r="0" fill-rule="evenodd"/>
 </g>
 <g transform="translate(164.37 56.726)">
  <path d="m-132.37-34.726c-3.1016 0.0304-6.2239 0.73887-8.9256 2.27-1.0768 0.70139-2.3695 1.6073-3.3436 2.52-1.5328 1.5008-2.8447 3.2511-3.7311 5.2127 2.4298 5.3602 7.7717 9.2888 13.648 9.8692 3.8546 0.43634 7.8888-0.22972 11.277-2.1371 1.0768-0.70139 2.3695-1.6073 3.3436-2.52 1.5328-1.504 2.8447-3.2543 3.7311-5.2127-2.4288-5.3599-7.7726-9.2894-13.648-9.8686-0.78078-0.0928-1.568-0.1344-2.352-0.1344zm0 4.0009c3.214-0.0712 6.0604 2.8042 5.9999 6.0012 0.10301 3.5334-3.4179 6.5829-6.8984 5.9231-3.5151-0.41273-5.9842-4.3564-4.8281-7.6968 0.73918-2.4576 3.1519-4.2559 5.7279-4.2271zm0 4.0009a2 2.0004 0 0 0-2 2.0032 2 2.0004 0 0 0 2 2 2 2.0004 0 0 0 2-2 2 2.0004 0 0 0-2-2z" filter="url(#b-3)" opacity=".15" stroke-width="3.1999"/>
  <path d="m-132.37-34.726c-3.1016 0.0304-6.2239 0.73887-8.9256 2.27-1.0768 0.70139-2.3695 1.6073-3.3436 2.52-1.5328 1.5008-2.8447 3.2511-3.7311 5.2127 2.4298 5.3602 7.7717 9.2888 13.648 9.8692 3.8546 0.43634 7.8888-0.22972 11.277-2.1371 1.0768-0.70139 2.3695-1.6073 3.3436-2.52 1.5328-1.504 2.8447-3.2543 3.7311-5.2127-2.4288-5.3599-7.7726-9.2894-13.648-9.8686-0.78078-0.0928-1.568-0.1344-2.352-0.1344zm0 4.0009c3.214-0.0712 6.0604 2.8042 5.9999 6.0012 0.10301 3.5334-3.4179 6.5829-6.8984 5.9231-3.5151-0.41273-5.9842-4.3564-4.8281-7.6968 0.73918-2.4576 3.1519-4.2559 5.7279-4.2271zm0 4.0009a2 2.0004 0 0 0-2 2.0032 2 2.0004 0 0 0 2 2 2 2.0004 0 0 0 2-2 2 2.0004 0 0 0-2-2z" fill="#fff" stroke-width="3.1999"/>
  <path d="m-145.55-52.138c-3.601 0.1962-6.0238 0.60129-7.998 1.3703v17.725l4-4.0018 3.9981 3.9981z" enable-background="new" fill="#fff" stroke-width="3.7796"/>
 </g>
 <g transform="matrix(3.7796 0 0 3.7796 -.10224 .024379)" fill="#5e4aa6" stroke-width=".26458">
  <circle cx="-330.35" cy="-328.38" r="0"/>
  <circle cx="-312.11" cy="-326.25" r="0"/>
  <circle cx="-306.02" cy="-333.07" r="0"/>
  <circle cx="-308.84" cy="-326.01" r="0"/>
 </g>
</svg>
