<svg width="64" height="64" version="1.1" viewBox="0 0 16.933 16.933" xmlns="http://www.w3.org/2000/svg" xmlns:xlink="http://www.w3.org/1999/xlink">
 <defs>
  <clipPath id="a">
   <path d="m188.97 44c72.649 0 83.031 10.357 83.031 82.938v58.125c0 72.581-10.383 82.938-83.031 82.938h-73.938c-72.649 0-83.031-10.357-83.031-82.938v-58.125c0-72.581 10.383-82.938 83.031-82.938z" fill="#8c59d9"/>
  </clipPath>
 </defs>
 <circle cx="8.4665" cy="8.7311" r="7.9373" fill-rule="evenodd" opacity=".15" style="paint-order:fill markers stroke"/>
 <g transform="matrix(.26761 0 0 .26781 6.0159 4.0349)">
  <g transform="matrix(.26458 0 0 .26458 -31.072 -24.732)" clip-path="url(#a)" enable-background="new">
   <g transform="matrix(.5 0 0 .5 -80.051 141.95)" enable-background="new">
    <path d="m622.25-130.25c-1.5905 1.5905 65.752 158.25 65.752 158.25l-65.752 158.25s-158.25-83.649-158.25-158.25c0-74.599 158.25-158.25 158.25-158.25z" fill="#46a926"/>
    <path d="m305.75 186.25c1.5904-1.5905-65.752-158.25-65.752-158.25l65.752-158.25s158.25 83.649 158.25 158.25c0 74.599-158.25 158.25-158.25 158.25z" fill="#f22c42"/>
    <path d="m622.25-130.25c-1.5904 1.5905-158.25-65.752-158.25-65.752l-158.25 65.752 158.25 158.25z" fill="#ffda64"/>
    <path d="m305.75 186.25 158.25 65.548s156.66-67.139 158.25-65.548l-158.25-158.25z" fill="#2f5fdd"/>
    <path transform="matrix(2 0 0 2 160.1 -283.9)" d="m152 44a112 112 0 0 0-0.0508 2e-3c-0.0125 28.62 10.945 57.244 32.875 79.174l46.322-46.322a112 112 0 0 0-79.146-32.854z" fill="#a6d74f"/>
    <path transform="matrix(2 0 0 2 160.1 -283.9)" d="m231.15 76.854-46.322 46.322c21.93 21.93 50.554 32.887 79.174 32.875a112 112 0 0 0 0.00195-0.05078 112 112 0 0 0-32.854-79.146z" fill="#76c22b"/>
    <path transform="matrix(2 0 0 2 160.1 -283.9)" d="m184.72 188.83c-21.928 21.928-32.886 50.548-32.875 79.166a112 112 0 0 0 0.15234 0.00781 112 112 0 0 0 79.096-32.801z" fill="#1463a5"/>
    <path transform="matrix(2 0 0 2 160.1 -283.9)" d="m263.85 155.95c-28.603 0-57.208 10.96-79.125 32.877l46.373 46.373a112 112 0 0 0 32.904-79.199 112 112 0 0 0-2e-3 -0.0488c-0.0501-7e-5 -0.10026-2e-3 -0.15039-2e-3z" fill="#2b898f"/>
    <path transform="matrix(2 0 0 2 160.1 -283.9)" d="m40.008 155.85a112 112 0 0 0-0.007812 0.15234 112 112 0 0 0 32.803 79.098l46.373-46.373c-21.928-21.928-50.55-32.888-79.168-32.877z" fill="#9b33ae"/>
    <path transform="matrix(2 0 0 2 160.1 -283.9)" d="m119.18 188.72-46.373 46.373a112 112 0 0 0 79.197 32.902 112 112 0 0 0 0.0488-2e-3c0.0385-28.653-10.917-57.318-32.873-79.273z" fill="#7839b7"/>
    <path transform="matrix(2 0 0 2 160.1 -283.9)" d="m152 44a112 112 0 0 0-79.098 32.801l46.375 46.375c21.928-21.928 32.886-50.55 32.875-79.168a112 112 0 0 0-0.15234-0.007812z" fill="#fdc92b"/>
    <path transform="matrix(2 0 0 2 160.1 -283.9)" d="m72.902 76.801a112 112 0 0 0-32.902 79.199 112 112 0 0 0 2e-3 0.0488c28.653 0.0385 57.32-10.917 79.275-32.873z" fill="#f34f17"/>
   </g>
  </g>
  <g transform="matrix(.26458 0 0 .26458 -31.072 -24.732)" enable-background="new">
   <path transform="translate(0,-4.6e-4)" d="m152 44a112 112 0 0 0-112 112h224a112 112 0 0 0-112-112z" enable-background="new" opacity=".05"/>
   <path transform="translate(0,-4.6e-4)" d="m152 44a112 112 0 0 0-112 112 112 112 0 0 0 112 112z" enable-background="new" opacity=".05"/>
  </g>
  <g fill="#fff">
   <path d="m9.184-13.081c16.366 0 29.633 13.267 29.633 29.633 0 16.366-13.267 29.633-29.633 29.633-16.366 0-29.633-13.267-29.633-29.633 0-16.366 13.267-29.633 29.633-29.633z" enable-background="new" opacity=".1"/>
   <path d="m9.1436-4.6237c11.69 0 21.166 9.4764 21.166 21.166 0 11.69-9.4765 21.166-21.166 21.166-11.69 0-21.166-9.4764-21.166-21.166 0-11.69 9.4765-21.166 21.166-21.166z" enable-background="new" opacity=".1"/>
   <ellipse cx="9.1436" cy="16.543" rx="12.303" ry="12.303" enable-background="new" opacity=".1"/>
  </g>
 </g>
 <g transform="translate(1.5229 1.5212)" color="#000000" style="paint-order:fill markers stroke">
  <path d="m10.737 6.128a4.609 4.609 0 0 0-0.15 5e-3c-0.01-1e-3 -0.017-5e-3 -0.026-5e-3h-4.244a0.184 0.184 0 0 0-0.184 0.184v4.317a4.609 4.609 0 0 0-5e-3 0.108 4.609 4.609 0 0 0 4.609 4.609 4.609 4.609 0 0 0 4.609-4.61 4.609 4.609 0 0 0-4.61-4.608z" fill-opacity=".152" overflow="visible" style="isolation:auto;mix-blend-mode:normal"/>
  <path d="m10.737 6.328a4.41 4.41 0 0 0-0.144 5e-3c-8e-3 -1e-3 -0.015-5e-3 -0.024-5e-3h-4.062a0.176 0.176 0 0 0-0.176 0.175v4.13a4.41 4.41 0 0 0-5e-3 0.104 4.41 4.41 0 0 0 4.41 4.41 4.41 4.41 0 0 0 4.41-4.41 4.41 4.41 0 0 0-4.41-4.41z" fill="#fff" overflow="visible" style="isolation:auto;mix-blend-mode:normal"/>
  <path d="m13.004 10.737a2.267 2.267 0 0 1-2.268 2.268 2.267 2.267 0 0 1-2.267-2.268 2.267 2.267 0 0 1 2.268-2.267 2.267 2.267 0 0 1 2.267 2.267z" fill="#6687df" overflow="visible" style="isolation:auto;mix-blend-mode:normal"/>
  <path d="m10.648 9.855v0.794h-0.794v0.265h0.794l0.017 0.793h0.248v-0.793h0.793l0.017-0.265h-0.81v-0.794z" fill="#fff" overflow="visible" style="isolation:auto;mix-blend-mode:normal"/>
 </g>
</svg>
