<?xml version="1.0" encoding="UTF-8"?>
<svg width="64" height="64" version="1.1" viewBox="0 0 16.933 16.933" xmlns="http://www.w3.org/2000/svg" xmlns:cc="http://creativecommons.org/ns#" xmlns:dc="http://purl.org/dc/elements/1.1/" xmlns:rdf="http://www.w3.org/1999/02/22-rdf-syntax-ns#">
 <metadata>
  <rdf:RDF>
   <cc:Work rdf:about="">
    <dc:format>image/svg+xml</dc:format>
    <dc:type rdf:resource="http://purl.org/dc/dcmitype/StillImage"/>
    <dc:title/>
   </cc:Work>
  </rdf:RDF>
 </metadata>
 <defs>
  <filter id="b" x="-.050625" y="-.073636" width="1.1012" height="1.1473" color-interpolation-filters="sRGB">
   <feGaussianBlur stdDeviation="0.17859023"/>
  </filter>
  <filter id="filter2761" x="-.024" y="-.024" width="1.048" height="1.048" color-interpolation-filters="sRGB">
   <feGaussianBlur stdDeviation="0.14552168"/>
  </filter>
  <linearGradient id="linearGradient1024" x1="1.3315" x2="15.65" y1="15.576" y2="1.17" gradientTransform="translate(-.00054952 .14035)" gradientUnits="userSpaceOnUse">
   <stop stop-color="#00c8ff" offset="0"/>
   <stop stop-color="#14a0ff" offset="1"/>
  </linearGradient>
 </defs>
 <g fill="#5e4aa6">
  <circle cx="-330.35" cy="-328.38" r="0" stroke-width=".26458"/>
  <circle cx="-39.434" cy="6.44" r="0" fill-rule="evenodd" stroke-width=".26458"/>
  <g transform="translate(.00030032 -9.9674e-5)" stroke-width=".26458">
   <circle cx="-347.64" cy="-328.38" r="0"/>
   <circle cx="-56.726" cy="6.44" r="0" fill-rule="evenodd"/>
   <g transform="translate(-.0272 .0065001)">
    <circle cx="-330.35" cy="-328.38" r="0"/>
    <circle cx="-312.11" cy="-326.25" r="0"/>
    <circle cx="-306.02" cy="-333.07" r="0"/>
    <circle cx="-308.84" cy="-326.01" r="0"/>
   </g>
  </g>
 </g>
 <path d="m10.708 1.1905c4.405 0 5.0345 0.67282 5.0345 5.388v3.7761c0 4.7152-0.62954 5.388-5.0345 5.388h-4.4832c-4.405 0-5.0346-0.6728-5.0346-5.388v-3.7761c0-4.7152 0.62954-5.388 5.0346-5.388z" enable-background="new" fill="#141414" filter="url(#filter2761)" opacity=".3"/>
 <path d="m10.708 1.1905c4.405 0 5.0345 0.67282 5.0345 5.388v3.7761c0 4.7152-0.62954 5.388-5.0345 5.388h-4.4832c-4.405 0-5.0346-0.6728-5.0346-5.388v-3.7761c0-4.7152 0.62954-5.388 5.0346-5.388z" enable-background="new" fill="url(#linearGradient1024)"/>
 <g transform="translate(22.983 -.25226)">
  <path d="m-17.857 6.4822a1.5875 1.5875 0 0 0-1.5875 1.5875 1.5875 1.5875 0 0 0 0.0646 0.44492 1.1906 1.1906 0 0 0-0.85832 1.1426 1.1906 1.1906 0 0 0 1.1906 1.1906h4.1671a0.99218 0.99218 0 0 0 0.99218-0.99218 0.99218 0.99218 0 0 0-0.86661-0.98286 1.1906 1.1906 0 0 0 0.07286-0.40618 1.1906 1.1906 0 0 0-1.1906-1.1906 1.1906 1.1906 0 0 0-0.5431 0.13229 1.5875 1.5875 0 0 0-1.4412-0.92603z" color="#bebebe" fill="#fff" opacity=".5" stroke-width=".39687"/>
  <path d="m-12.398 5.8083a2.1166 2.1166 0 0 0-1.9218 1.2345 1.5875 1.5875 0 0 0-0.72397-0.17621 1.5875 1.5875 0 0 0-1.5875 1.5875 1.5875 1.5875 0 0 0 0.09663 0.54156 1.3229 1.3229 0 0 0-1.1549 1.3105 1.3229 1.3229 0 0 0 1.3229 1.3229h5.5561a1.5875 1.5875 0 0 0 1.5875-1.5875 1.5875 1.5875 0 0 0-1.1446-1.5234 2.1166 2.1166 0 0 0 0.0863-0.59323 2.1166 2.1166 0 0 0-2.1166-2.1166z" color="#bebebe" fill="#1496ff" filter="url(#b)" stroke-width=".52916"/>
  <path d="m-12.301 5.5562a2.1166 2.1166 0 0 0-1.9218 1.2345 1.5875 1.5875 0 0 0-0.72397-0.17622 1.5875 1.5875 0 0 0-1.5875 1.5875 1.5875 1.5875 0 0 0 0.09663 0.54157 1.3229 1.3229 0 0 0-1.1549 1.3105 1.3229 1.3229 0 0 0 1.3229 1.3229h5.5562a1.5875 1.5875 0 0 0 1.5875-1.5875 1.5875 1.5875 0 0 0-1.1446-1.5234 2.1166 2.1166 0 0 0 0.0863-0.59324 2.1166 2.1166 0 0 0-2.1166-2.1166z" color="#bebebe" fill="#fff" stroke-width=".52916"/>
 </g>
</svg>
