<svg width="64" height="64" version="1.1" viewBox="0 0 16.933 16.933" xmlns="http://www.w3.org/2000/svg">
 <defs>
  <linearGradient id="a" x1="-6.1472" x2="-6.1472" y1="-137.82" y2="-100.78" gradientTransform="matrix(.53033 0 0 .53033 11.536 71.99)" gradientUnits="userSpaceOnUse">
   <stop stop-color="#32b4ff" offset="0"/>
   <stop stop-color="#3287ff" offset="1"/>
  </linearGradient>
  <filter id="b" x="-.050625" y="-.073636" width="1.1012" height="1.1473" color-interpolation-filters="sRGB">
   <feGaussianBlur stdDeviation="0.17859023"/>
  </filter>
 </defs>
 <circle cx="-330.35" cy="-328.38" r="0" fill="#5e4aa6" stroke-width=".26458"/>
 <circle cx="-39.434" cy="6.44" r="0" fill="#5e4aa6" fill-rule="evenodd" stroke-width=".26458"/>
 <circle cx="8.4935" cy="8.73" r="7.9375" opacity=".2" stroke-width=".14032"/>
 <circle cx="8.4939" cy="8.46" r="7.9375" fill="url(#a)" style="paint-order:normal"/>
 <path transform="scale(.26458)" d="m22 24.5a6 6 0 0 0-6 6 6 6 0 0 0 0.24414 1.6816 4.5 4.5 0 0 0-3.2441 4.3184 4.5 4.5 0 0 0 4.5 4.5h15.75a3.75 3.75 0 0 0 3.75-3.75 3.75 3.75 0 0 0-3.2754-3.7148 4.5 4.5 0 0 0 0.27539-1.5352 4.5 4.5 0 0 0-4.5-4.5 4.5 4.5 0 0 0-2.0527 0.5 6 6 0 0 0-5.4473-3.5z" color="#bebebe" fill="#fff" opacity=".5" stroke-width="1.5"/>
 <path d="m11.28 5.8083a2.1166 2.1166 0 0 0-1.9218 1.2345 1.5875 1.5875 0 0 0-0.72397-0.17621 1.5875 1.5875 0 0 0-1.5875 1.5875 1.5875 1.5875 0 0 0 0.096633 0.54156 1.3229 1.3229 0 0 0-1.1549 1.3105 1.3229 1.3229 0 0 0 1.3229 1.3229h5.5561a1.5875 1.5875 0 0 0 1.5875-1.5875 1.5875 1.5875 0 0 0-1.1446-1.5234 2.1166 2.1166 0 0 0 0.0863-0.59323 2.1166 2.1166 0 0 0-2.1166-2.1166z" color="#bebebe" filter="url(#b)" opacity=".15" stroke-width=".52916"/>
 <path transform="scale(.26458)" d="m43 21a8 8 0 0 0-7.2637 4.666 6 6 0 0 0-2.7363-0.66602 6 6 0 0 0-6 6 6 6 0 0 0 0.36523 2.0469 5 5 0 0 0-4.3652 4.9531 5 5 0 0 0 5 5h21a6 6 0 0 0 6-6 6 6 0 0 0-4.3262-5.7578 8 8 0 0 0 0.32617-2.2422 8 8 0 0 0-8-8z" color="#bebebe" fill="#fff" stroke-width="2"/>
</svg>
