<?xml version="1.0" encoding="UTF-8" standalone="no"?>
<svg
   xmlns:dc="http://purl.org/dc/elements/1.1/"
   xmlns:cc="http://creativecommons.org/ns#"
   xmlns:rdf="http://www.w3.org/1999/02/22-rdf-syntax-ns#"
   xmlns:svg="http://www.w3.org/2000/svg"
   xmlns="http://www.w3.org/2000/svg"
   xmlns:sodipodi="http://sodipodi.sourceforge.net/DTD/sodipodi-0.dtd"
   xmlns:inkscape="http://www.inkscape.org/namespaces/inkscape"
   width="64"
   height="64"
   version="1.1"
   viewBox="0 0 16.933 16.933"
   id="svg23"
   sodipodi:docname="cs-user-accounts.svg"
   inkscape:version="0.92.5 (6c0c36ef5a, 2020-05-15, custom)">
  <sodipodi:namedview
     pagecolor="#ffffff"
     bordercolor="#666666"
     borderopacity="1"
     objecttolerance="10"
     gridtolerance="10"
     guidetolerance="10"
     inkscape:pageopacity="0"
     inkscape:pageshadow="2"
     inkscape:window-width="1920"
     inkscape:window-height="949"
     id="namedview25"
     showgrid="false"
     inkscape:zoom="2.6074563"
     inkscape:cx="42.031961"
     inkscape:cy="35.233028"
     inkscape:window-x="0"
     inkscape:window-y="36"
     inkscape:window-maximized="1"
     inkscape:current-layer="svg23" />
  <metadata
     id="metadata2">
    <rdf:RDF>
      <cc:Work
         rdf:about="">
        <dc:format>image/svg+xml</dc:format>
        <dc:type
           rdf:resource="http://purl.org/dc/dcmitype/StillImage" />
        <dc:title></dc:title>
      </cc:Work>
    </rdf:RDF>
  </metadata>
  <defs
     id="defs9">
    <linearGradient
       id="a"
       x1="-6.1472"
       x2="-6.1472"
       y1="-137.82"
       y2="-100.78"
       gradientTransform="matrix(0.53033,0,0,0.53033,35.151469,71.862)"
       gradientUnits="userSpaceOnUse">
      <stop
         stop-color="#32b4ff"
         offset="0"
         id="stop4" />
      <stop
         stop-color="#3287ff"
         offset="1"
         id="stop6" />
    </linearGradient>
    <filter
       color-interpolation-filters="sRGB"
       height="1.048"
       width="1.048"
       y="-.024"
       x="-.024"
       id="filter2761">
      <feGaussianBlur
         id="feGaussianBlur834"
         stdDeviation="0.14552168" />
    </filter>
    <linearGradient
       gradientUnits="userSpaceOnUse"
       gradientTransform="translate(-5.5e-4,0.21475)"
       y2="1.1082"
       y1="15.429"
       x2="15.644"
       x1="1.2573"
       id="linearGradient4673">
      <stop
         id="stop837"
         offset="0"
         stop-color="#32dcff" />
      <stop
         id="stop839"
         offset="1"
         stop-color="#3296ff" />
    </linearGradient>
  </defs>
  <circle
     cx="-330.38"
     cy="-328.51"
     r="0"
     fill="#5e4aa6"
     stroke-width=".26458"
     id="circle11" />
  <circle
     cx="-39.461"
     cy="6.3115"
     r="0"
     fill="#5e4aa6"
     fill-rule="evenodd"
     stroke-width=".26458"
     id="circle21" />
  <g
     id="g886"
     transform="translate(1.5016263e-4,-4.9837368e-5)">
    <path
       id="path844"
       d="m 10.708,1.1905 c 4.405,0 5.0345,0.67282 5.0345,5.388 v 3.7761 c 0,4.7152 -0.62954,5.388 -5.0345,5.388 H 6.2248 c -4.405,0 -5.0346,-0.6728 -5.0346,-5.388 V 6.5785 c 0,-4.7152 0.62954,-5.388 5.0346,-5.388 z"
       inkscape:connector-curvature="0"
       style="opacity:0.3;fill:#141414;filter:url(#filter2761);enable-background:new" />
    <path
       id="path846"
       d="m 10.708,1.1904 c 4.405,0 5.0345,0.67282 5.0345,5.388 v 3.7761 c 0,4.7152 -0.62954,5.388 -5.0345,5.388 H 6.2248 c -4.405,0 -5.0346,-0.6728 -5.0346,-5.388 V 6.5784 c 0,-4.7152 0.62954,-5.388 5.0346,-5.388 z"
       inkscape:connector-curvature="0"
       style="fill:url(#linearGradient4673);enable-background:new" />
    <circle
       id="circle848"
       r="0"
       cy="-328.38"
       cx="-330.35001"
       style="fill:#5e4aa6;stroke-width:0.26458001" />
    <path
       id="path850"
       style="fill:#ffffff;paint-order:markers fill stroke"
       d="M 10.006,6.2734 A 1.0831,0.82507 0 0 0 9.97086,6.27495 v 0.43407 c 0.0059,0.00718 0.02194,0.00618 0.02739,0.013436 0.11073,0.14733 0.15806,0.3158 0.15813,0.4904 -6.5e-5,0.1746 -0.04739,0.34307 -0.15813,0.4904 C 9.94226,7.777752 9.81422,7.793507 9.71869,7.845876 9.684991,7.968996 9.676178,8.085016 9.61172,8.212776 9.599786,8.236561 9.585751,8.259781 9.57038,8.281504 l -0.22427,0.31419 2.2029,1.3771 c 0.02411,0.015064 0.04682,0.031906 0.06821,0.050642 0.45344,0.39945 0.65113,0.91028 0.60564,1.3487 h 0.04909 c 0.31623,0 0.76614,-0.49113 0.17156,-1.0857 l -1.9507,-1.2195 0.38963,-0.54879 c 0.05974,-0.13443 0.08836,-0.26067 0.0987,-0.37516 h 0.10904 v -5.17e-4 a 0.13231,0.17607 0 0 0 0.12299,-0.1757 0.13231,0.17607 0 0 0 -0.12299,-0.1757 v -0.71519 h -0.0021 a 1.0831,0.82507 0 0 0 -1.082,-0.80252 z M 8.8283,9.5196 7.601,10.28646 c -0.66533,0.58612 -0.15062,1.0857 0.17156,1.0857 h 3.2705 c 0.03639,-0.02402 0.11516,-0.0657 0.13281,-0.10645 0.02545,-0.05877 0.07161,-0.1451 -0.25011,-0.43562 z"
       inkscape:connector-curvature="0" />
    <path
       id="path852"
       style="fill:#ffffff;paint-order:markers fill stroke"
       d="M 7.9373,4.8701 A 1.498,1.1411 0 0 0 6.4413,5.9806 H 6.4382 v 0.98855 a 0.18299,0.24351 0 0 0 -0.00414,0 0.18299,0.24351 0 0 0 -0.18293,0.24339 0.18299,0.24351 0 0 0 0.18293,0.24339 0.18299,0.24351 0 0 0 0.00414,0 H 6.58909 C 6.60443,7.615 6.647774,7.78994 6.74102,7.97474 l 0.54879,0.77204 -2.6783,1.6743 c -0.92021,0.81065 -0.20842,1.5012 0.23719,1.5012 h 6.2229 c 0.43738,0 1.0595,-0.67883 0.23719,-1.5012 L 8.61029,8.73388 9.14979,7.97477 C 9.232424,7.78885 9.27191,7.61431 9.28621,7.45596 h 0.15038 v -5.292e-4 a 0.18299,0.24351 0 0 1 5.291e-4,0 0.18299,0.24351 0 0 0 0.17001,-0.24288 0.18299,0.24351 0 0 0 -0.17053,-0.24288 v -0.98905 h -0.00259 a 1.498,1.1411 0 0 0 -1.4965,-1.1105 z"
       inkscape:connector-curvature="0" />
    <circle
       id="circle854"
       r="0"
       cy="6.4400001"
       cx="-39.433998"
       style="fill:#5e4aa6;fill-rule:evenodd;stroke-width:0.26458001" />
    <g
       id="g864"
       transform="translate(-40.279,-8.6753)"
       style="fill:#5e4aa6;stroke-width:0.26458001">
      <circle
         id="circle856"
         r="0"
         cy="-328.38"
         cx="-330.35001" />
      <circle
         id="circle858"
         r="0"
         cy="-326.25"
         cx="-312.10999" />
      <circle
         id="circle860"
         r="0"
         cy="-333.07001"
         cx="-306.01999" />
      <circle
         id="circle862"
         r="0"
         cy="-326.01001"
         cx="-308.84" />
    </g>
  </g>
</svg>
