<?xml version="1.0" encoding="UTF-8"?>
<!-- Created with Inkscape (http://www.inkscape.org/) -->
<svg width="64" height="64" version="1.1" viewBox="0 0 16.933 16.933" xmlns="http://www.w3.org/2000/svg" xmlns:cc="http://creativecommons.org/ns#" xmlns:dc="http://purl.org/dc/elements/1.1/" xmlns:rdf="http://www.w3.org/1999/02/22-rdf-syntax-ns#">
 <defs>
  <filter id="filter2761" x="-.024" y="-.024" width="1.048" height="1.048" color-interpolation-filters="sRGB">
   <feGaussianBlur stdDeviation="0.14552168"/>
  </filter>
  <linearGradient id="linearGradient2645-3" x1="15.752" x2="1.3927" y1="281.24" y2="295.6" gradientTransform="translate(-.13126 -280.07)" gradientUnits="userSpaceOnUse">
   <stop stop-color="#0a82f0" offset="0"/>
   <stop stop-color="#3250e6" offset="1"/>
  </linearGradient>
  <linearGradient id="linearGradient865" x1="4.3858" x2="15.11" y1="292.57" y2="282.02" gradientTransform="matrix(4.8356 0 0 4.8356 -8.9393 -1363.8)" gradientUnits="userSpaceOnUse">
   <stop stop-color="#fff" offset="0"/>
   <stop stop-color="#b4dcff" offset="1"/>
  </linearGradient>
 </defs>
 <metadata>
  <rdf:RDF>
   <cc:Work rdf:about="">
    <dc:format>image/svg+xml</dc:format>
    <dc:type rdf:resource="http://purl.org/dc/dcmitype/StillImage"/>
    <dc:title/>
   </cc:Work>
  </rdf:RDF>
 </metadata>
 <path d="m10.709 1.05c4.405 0 5.0345 0.67282 5.0345 5.388v3.7761c0 4.7152-0.62954 5.388-5.0345 5.388h-4.4832c-4.405 0-5.0346-0.6728-5.0346-5.388v-3.7761c0-4.7152 0.62954-5.388 5.0346-5.388z" enable-background="new" fill="#141414" filter="url(#filter2761)" opacity=".3"/>
 <path d="m10.709 1.05c4.405 0 5.0345 0.67282 5.0345 5.388v3.7761c0 4.7152-0.62954 5.388-5.0345 5.388h-4.4832c-4.405 0-5.0346-0.6728-5.0346-5.388v-3.7761c0-4.7152 0.62954-5.388 5.0346-5.388z" enable-background="new" fill="url(#linearGradient2645-3)"/>
 <g transform="matrix(1.2794 0 0 1.2794 -27.838 3.1625)">
  <circle cx="28.377" cy="4.0348" r="3.44" opacity=".15" style="paint-order:stroke markers fill"/>
  <g transform="translate(19.91 -284.5)" fill="#fff" style="paint-order:stroke markers fill">
   <path transform="matrix(.2068 0 0 .2068 1.8486 282.03)" d="m29.445 11.615v5.998a14.072 14.072 0 0 0-5.4238 2.2402l-4.2324-4.2344-3.6172 3.6113 4.248 4.248a14.072 14.072 0 0 0-2.2461 5.4082h-6v5.1172h6.0039a14.072 14.072 0 0 0 2.2363 5.4141l-4.2422 4.2422 3.6172 3.6172 4.2539-4.252a14.072 14.072 0 0 0 5.4023 2.2441v6.0059h5.1172v-6.0078a14.072 14.072 0 0 0 5.4141-2.2324l4.2422 4.2422 3.6113-3.6133-4.248-4.252a14.072 14.072 0 0 0 2.25-5.4082h6.002v-5.1172h-6.002a14.072 14.072 0 0 0-2.2344-5.416l4.2383-4.2344-3.6172-3.623-4.2461 4.2461a14.072 14.072 0 0 0-5.4102-2.248v-5.9961h-5.1172zm2.5586 12.15a7.6741 7.6741 0 0 1 7.6738 7.6758 7.6741 7.6741 0 0 1-7.6738 7.6777 7.6741 7.6741 0 0 1-7.6797-7.6777 7.6741 7.6741 0 0 1 7.6797-7.6758z" fill="url(#linearGradient865)" stroke-width="4.8356"/>
  </g>
 </g>
</svg>
