<?xml version="1.0" encoding="UTF-8"?>
<!-- Created with Inkscape (http://www.inkscape.org/) -->
<svg width="64" height="64" version="1.1" viewBox="0 0 16.933 16.933" xmlns="http://www.w3.org/2000/svg" xmlns:cc="http://creativecommons.org/ns#" xmlns:dc="http://purl.org/dc/elements/1.1/" xmlns:rdf="http://www.w3.org/1999/02/22-rdf-syntax-ns#">
 <defs>
  <filter id="filter2761" x="-.024" y="-.024" width="1.048" height="1.048" color-interpolation-filters="sRGB">
   <feGaussianBlur stdDeviation="0.14552168"/>
  </filter>
  <linearGradient id="linearGradient2645-7" x1="15.752" x2="1.3927" y1="281.24" y2="295.6" gradientTransform="translate(-.13126 -280.07)" gradientUnits="userSpaceOnUse">
   <stop stop-color="#0a82f0" offset="0"/>
   <stop stop-color="#3250e6" offset="1"/>
  </linearGradient>
  <filter id="filter862" x="-.06" y="-.06" width="1.12" height="1.12" color-interpolation-filters="sRGB">
   <feGaussianBlur stdDeviation="0.75"/>
  </filter>
  <filter id="filter868" x="-.069129" y="-.053001" width="1.1383" height="1.106" color-interpolation-filters="sRGB">
   <feGaussianBlur stdDeviation="0.201625"/>
  </filter>
  <filter id="filter892" x="-.06338" y="-.056962" width="1.1268" height="1.1139" color-interpolation-filters="sRGB">
   <feGaussianBlur stdDeviation="0.11092"/>
  </filter>
 </defs>
 <metadata>
  <rdf:RDF>
   <cc:Work rdf:about="">
    <dc:format>image/svg+xml</dc:format>
    <dc:type rdf:resource="http://purl.org/dc/dcmitype/StillImage"/>
    <dc:title/>
   </cc:Work>
  </rdf:RDF>
 </metadata>
 <path d="m10.709 1.05c4.405 0 5.0345 0.67282 5.0345 5.388v3.7761c0 4.7152-0.62954 5.388-5.0345 5.388h-4.4832c-4.405 0-5.0346-0.6728-5.0346-5.388v-3.7761c0-4.7152 0.62954-5.388 5.0346-5.388z" enable-background="new" fill="#141414" filter="url(#filter2761)" opacity=".3"/>
 <path d="m10.709 1.05c4.405 0 5.0345 0.67282 5.0345 5.388v3.7761c0 4.7152-0.62954 5.388-5.0345 5.388h-4.4832c-4.405 0-5.0346-0.6728-5.0346-5.388v-3.7761c0-4.7152 0.62954-5.388 5.0346-5.388z" enable-background="new" fill="url(#linearGradient2645-7)"/>
 <g transform="matrix(.34565 0 0 .34565 .17179 .030492)">
  <path d="m9 24c0 8.284 6.716 15 15 15 0.5-0.625 0.5-1.292 0-2-7.18 0-13-5.82-13-13z" fill="#fff" opacity=".2"/>
  <path d="m24 9a15 15 0 0 0-15 15h2a13 13 0 0 1 13-13 13 13 0 0 1 13 13 13 13 0 0 1-13 13v2a15 15 0 0 0 15-15 15 15 0 0 0-15-15z" fill="#285ae6" filter="url(#filter862)"/>
  <path d="M 9.559,20 A 15,15 0 0 0 9,24 15,15 0 0 0 9.916,29.13 L 16,20 H 9.559" fill="#285ae6" filter="url(#filter868)"/>
  <path d="m24 9a15 15 0 0 0-15 15h2a13 13 0 0 1 13-13 13 13 0 0 1 13 13 13 13 0 0 1-13 13v2a15 15 0 0 0 15-15 15 15 0 0 0-15-15z" fill="#f9f9f9"/>
  <path d="M 9.559,20 A 15,15 0 0 0 9,24 15,15 0 0 0 9.916,29.13 L 16,20 H 9.559" fill="#f9f9f9"/>
 </g>
 <g transform="translate(2.0679 -20.055)" fill="#285ae6" filter="url(#filter892)">
  <g transform="translate(37.769 -32.675)">
   <rect x="-33.469" y="58.72" width="4.2002" height="1.3064" ry=".21497"/>
   <circle cx="-32.664" cy="59.373" r=".29817"/>
  </g>
  <g transform="translate(37.769 -30.992)">
   <rect x="-33.469" y="58.72" width="4.2002" height="1.3064" ry=".21497"/>
   <circle cx="-32.664" cy="59.373" r=".29817"/>
  </g>
  <g transform="translate(37.769 -29.308)">
   <rect x="-33.469" y="58.72" width="4.2002" height="1.3064" ry=".21497"/>
   <circle cx="-32.664" cy="59.373" r=".29817"/>
  </g>
 </g>
 <g transform="translate(2.0679 -20.055)">
  <g transform="translate(37.769 -32.675)">
   <rect x="-33.469" y="58.72" width="4.2002" height="1.3064" ry=".21497" fill="#fff"/>
   <circle cx="-32.664" cy="59.373" r=".29817" fill="#2e55e7"/>
  </g>
  <g transform="translate(37.769 -30.992)">
   <rect x="-33.469" y="58.72" width="4.2002" height="1.3064" ry=".21497" fill="#fff"/>
   <circle cx="-32.664" cy="59.373" r=".29817" fill="#2e55e7"/>
  </g>
  <g transform="translate(37.769 -29.308)">
   <rect x="-33.469" y="58.72" width="4.2002" height="1.3064" ry=".21497" fill="#fff"/>
   <circle cx="-32.664" cy="59.373" r=".29817" fill="#2e55e7"/>
  </g>
 </g>
</svg>
