<?xml version="1.0" encoding="UTF-8" standalone="no"?>
<svg
   xmlns:dc="http://purl.org/dc/elements/1.1/"
   xmlns:cc="http://creativecommons.org/ns#"
   xmlns:rdf="http://www.w3.org/1999/02/22-rdf-syntax-ns#"
   xmlns:svg="http://www.w3.org/2000/svg"
   xmlns="http://www.w3.org/2000/svg"
   xmlns:sodipodi="http://sodipodi.sourceforge.net/DTD/sodipodi-0.dtd"
   xmlns:inkscape="http://www.inkscape.org/namespaces/inkscape"
   width="64"
   height="64"
   version="1.1"
   viewBox="0 0 16.933 16.933"
   id="svg8"
   sodipodi:docname="deluge.svg"
   inkscape:version="0.92.5 (6c0c36ef5a, 2020-05-15, custom)">
  <metadata
     id="metadata14">
    <rdf:RDF>
      <cc:Work
         rdf:about="">
        <dc:format>image/svg+xml</dc:format>
        <dc:type
           rdf:resource="http://purl.org/dc/dcmitype/StillImage" />
        <dc:title></dc:title>
      </cc:Work>
    </rdf:RDF>
  </metadata>
  <defs
     id="defs12">
    <linearGradient
       id="a"
       gradientUnits="userSpaceOnUse"
       x1="400.16821"
       x2="400.47992"
       y1="543.79803"
       y2="518.47333">
      <stop
         offset="0"
         stop-color="#2c5aa0"
         id="stop2" />
      <stop
         offset="1"
         stop-color="#3771c8"
         id="stop4" />
    </linearGradient>
    <filter
       color-interpolation-filters="sRGB"
       height="1.048"
       width="1.048"
       y="-.024"
       x="-.024"
       id="filter2761">
      <feGaussianBlur
         id="feGaussianBlur884"
         stdDeviation="0.14552168" />
    </filter>
    <linearGradient
       gradientUnits="userSpaceOnUse"
       gradientTransform="translate(-6.9967737e-4,0.14040016)"
       y2="1.17"
       y1="15.576"
       x2="15.65"
       x1="1.3315"
       id="linearGradient1024">
      <stop
         id="stop887"
         offset="0"
         stop-color="#00c8ff" />
      <stop
         id="stop889"
         offset="1"
         stop-color="#14a0ff" />
    </linearGradient>
    <filter
       color-interpolation-filters="sRGB"
       height="1.1154"
       width="1.125"
       y="-.057691"
       x="-.062502"
       id="filter943">
      <feGaussianBlur
         id="feGaussianBlur892"
         stdDeviation="0.3307375" />
    </filter>
    <filter
       inkscape:collect="always"
       style="color-interpolation-filters:sRGB"
       id="filter975"
       x="-0.074108959"
       width="1.1482179"
       y="-0.050404018"
       height="1.100808">
      <feGaussianBlur
         inkscape:collect="always"
         stdDeviation="0.21966115"
         id="feGaussianBlur977" />
    </filter>
  </defs>
  <sodipodi:namedview
     pagecolor="#ffffff"
     bordercolor="#666666"
     borderopacity="1"
     objecttolerance="10"
     gridtolerance="10"
     guidetolerance="10"
     inkscape:pageopacity="0"
     inkscape:pageshadow="2"
     inkscape:window-width="1920"
     inkscape:window-height="1000"
     id="namedview10"
     showgrid="false"
     inkscape:zoom="2.6074563"
     inkscape:cx="-10.979005"
     inkscape:cy="48.431989"
     inkscape:window-x="0"
     inkscape:window-y="0"
     inkscape:window-maximized="1"
     inkscape:current-layer="svg8" />
  <path
     style="opacity:0.3;fill:#141414;filter:url(#filter2761);enable-background:new"
     inkscape:connector-curvature="0"
     d="m 10.70815,1.1904502 c 4.405,0 5.0345,0.67282 5.0345,5.388 V 10.35455 c 0,4.7152 -0.62954,5.388 -5.0345,5.388 H 6.2249502 c -4.405,0 -5.0346,-0.6728 -5.0346,-5.388 V 6.5784502 c 0,-4.7152 0.62954,-5.388 5.0346,-5.388 z"
     id="path897" />
  <path
     style="fill:url(#linearGradient1024);enable-background:new"
     inkscape:connector-curvature="0"
     d="m 10.70815,1.1904502 c 4.405,0 5.0345,0.67282 5.0345,5.388 V 10.35455 c 0,4.7152 -0.62954,5.388 -5.0345,5.388 H 6.2249502 c -4.405,0 -5.0346,-0.6728 -5.0346,-5.388 V 6.5784502 c 0,-4.7152 0.62954,-5.388 5.0346,-5.388 z"
     id="path899" />
  <path
     id="path7"
     d="M 8.2515036,3.4229177 5.3798725,8.4310319 c -0.6034404,1.0587824 -0.6500493,2.4050631 0,3.5387381 0.9771962,1.704221 3.1509228,2.293606 4.8551525,1.316397 1.704226,-0.977192 2.293611,-3.150905 1.316402,-4.8551482 L 8.6798,3.4229177 c -0.094861,-0.1654344 -0.3334488,-0.1654344 -0.4282964,0 z"
     inkscape:connector-curvature="0"
     style="fill-opacity:1;stroke-width:0.43580079;filter:url(#filter975);fill:#0a96ff" />
  <path
     id="path11"
     d="M 8.2515167,3.3609654 5.3798856,8.3690796 c -0.6034404,1.0587824 -0.6500493,2.4050634 0,3.5387384 0.9771962,1.704221 3.1509228,2.293606 4.8551524,1.316397 1.704226,-0.977192 2.293611,-3.150905 1.316402,-4.8551486 L 8.679813,3.3609654 c -0.094861,-0.1654344 -0.3334487,-0.1654344 -0.4282963,0 z"
     inkscape:connector-curvature="0"
     style="fill:#ffffff;fill-opacity:1;stroke-width:0.43580079" />
  <path
     d="m 8.46653,4.2333101 c -0.0542,0.14097 -0.11531,0.28389 -0.17762,0.42023 -0.0053,0.01173 -0.01303,0.02182 -0.01834,0.03354 -0.05749,0.12423 -0.11455,0.24042 -0.17762,0.361 -0.01308,0.02507 -0.02443,0.0507 -0.03772,0.07545 -0.05698,0.10652 -0.11664,0.21541 -0.1771,0.31906 -0.021,0.03605 -0.04414,0.07385 -0.06549,0.10951 -0.54071,0.8856 -1.2516,1.8104 -1.8129,2.5867 -0.4447,0.58409 -0.70042,1.2147 -0.77544,1.8227998 0,1.5103001 1.4502,2.7381001 3.2422,2.7381001 1.792,0 3.2422,-1.2278 3.2422,-2.7381001 0,-0.9516298 -0.77623,-1.9296998 -1.6724,-3.1834998 -0.28368,-0.38946 -0.55769,-0.79891 -0.80374,-1.1841 -0.13355,-0.21091 -0.26417,-0.42801 -0.39244,-0.65492 -0.04007,-0.07096 -0.08226,-0.14598 -0.12156,-0.2185 -0.08493,-0.15712 -0.17169,-0.32205 -0.25202,-0.48728 z m 0,1.1433 c 0,1.4609 0.36721,2.6602 0.76392,4.1408 h 0.93158 L 9.31428,10.53391 8.46653,11.55671 7.61878,10.53391 6.77103,9.5174101 h 0.97402 c 0.41221,-1.5384 0.72148,-2.6833 0.72148,-4.1408 z"
     id="path6"
     inkscape:connector-curvature="0"
     style="fill:#ffffff" />
  <path
     style="fill:#0faaff;fill-opacity:1;stroke-width:0.43580076"
     d="m 8.4665,5.3765684 c 0,1.4574998 -0.3091788,2.602351 -0.7213886,4.1407508 H 6.7710297 L 7.6190232,10.533775 8.4665,11.556432 9.3144935,10.533775 10.16197,9.5173192 H 9.2307794 C 8.8340694,8.0367194 8.4665,6.8374683 8.4665,5.3765684 Z"
     id="path979"
     inkscape:connector-curvature="0"
     sodipodi:nodetypes="ccccccccc" />
</svg>
