<?xml version="1.0" encoding="UTF-8" standalone="no"?>
<svg
   xmlns:dc="http://purl.org/dc/elements/1.1/"
   xmlns:cc="http://creativecommons.org/ns#"
   xmlns:rdf="http://www.w3.org/1999/02/22-rdf-syntax-ns#"
   xmlns:svg="http://www.w3.org/2000/svg"
   xmlns="http://www.w3.org/2000/svg"
   xmlns:sodipodi="http://sodipodi.sourceforge.net/DTD/sodipodi-0.dtd"
   xmlns:inkscape="http://www.inkscape.org/namespaces/inkscape"
   width="64"
   height="64"
   version="1.1"
   viewBox="0 0 16.933 16.933"
   id="svg19"
   sodipodi:docname="desktop-environment-kde.svg"
   inkscape:version="0.92.5 (6c0c36ef5a, 2020-05-15, custom)">
  <metadata
     id="metadata23">
    <rdf:RDF>
      <cc:Work
         rdf:about="">
        <dc:format>image/svg+xml</dc:format>
        <dc:type
           rdf:resource="http://purl.org/dc/dcmitype/StillImage" />
        <dc:title></dc:title>
      </cc:Work>
    </rdf:RDF>
  </metadata>
  <sodipodi:namedview
     pagecolor="#ffffff"
     bordercolor="#666666"
     borderopacity="1"
     objecttolerance="10"
     gridtolerance="10"
     guidetolerance="10"
     inkscape:pageopacity="0"
     inkscape:pageshadow="2"
     inkscape:window-width="1920"
     inkscape:window-height="1000"
     id="namedview21"
     showgrid="false"
     inkscape:zoom="5.2149125"
     inkscape:cx="32.317715"
     inkscape:cy="31.602857"
     inkscape:window-x="0"
     inkscape:window-y="0"
     inkscape:window-maximized="1"
     inkscape:current-layer="svg19" />
  <defs
     id="defs7">
    <linearGradient
       id="b"
       x1="45.628"
       x2="45.628"
       y1="57.955"
       y2="12.461"
       gradientTransform="matrix(0.26458,0,0,0.26458,0,280.07)"
       gradientUnits="userSpaceOnUse">
      <stop
         offset="0"
         id="stop2" />
      <stop
         stop-opacity="0"
         offset="1"
         id="stop4" />
    </linearGradient>
    <filter
       id="filter2174"
       x="-.15989"
       y="-.094877"
       width="1.3198"
       height="1.1898"
       color-interpolation-filters="sRGB">
      <feGaussianBlur
         stdDeviation="0.25608494"
         id="feGaussianBlur832" />
    </filter>
    <filter
       id="filter2761-36"
       x="-.024"
       y="-.024"
       width="1.048"
       height="1.048"
       color-interpolation-filters="sRGB">
      <feGaussianBlur
         stdDeviation="0.14552168"
         id="feGaussianBlur835" />
    </filter>
    <linearGradient
       id="linearGradient4673-7"
       x1="1.2573"
       x2="15.644"
       y1="15.429"
       y2="1.1082"
       gradientTransform="translate(17.24902,-7.8014572)"
       gradientUnits="userSpaceOnUse">
      <stop
         stop-color="#32dcff"
         offset="0"
         id="stop838" />
      <stop
         stop-color="#3296ff"
         offset="1"
         id="stop840" />
    </linearGradient>
    <style
       id="style868"
       type="text/css" />
    <filter
       color-interpolation-filters="sRGB"
       height="1.048"
       width="1.048"
       y="-.024"
       x="-.024"
       id="filter2761">
      <feGaussianBlur
         id="feGaussianBlur870"
         stdDeviation="0.14552168" />
    </filter>
    <linearGradient
       gradientUnits="userSpaceOnUse"
       gradientTransform="matrix(3.7796,0,0,3.7796,101.69,7.5815)"
       y2="1.1082"
       y1="15.429"
       x2="15.644"
       x1="1.2573"
       id="linearGradient4673">
      <stop
         id="stop873"
         offset="0"
         stop-color="#8cd750" />
      <stop
         id="stop875"
         offset=".47728"
         stop-color="#7dcd32" />
      <stop
         id="stop877"
         offset="1"
         stop-color="#87d241" />
    </linearGradient>
  </defs>
  <g
     transform="matrix(0.26457812,0,0,0.26457812,-26.90744,-1.8655062)"
     id="g886">
    <path
       style="opacity:0.3;fill:#141414;filter:url(#filter2761);enable-background:new"
       inkscape:connector-curvature="0"
       transform="matrix(3.7796,0,0,3.7796,101.7,7.0507)"
       d="m 10.708,1.1905 c 4.405,0 5.0345,0.67282 5.0345,5.388 v 3.7761 c 0,4.7152 -0.62954,5.388 -5.0345,5.388 H 6.2248 c -4.405,0 -5.0346,-0.6728 -5.0346,-5.388 V 6.5785 c 0,-4.7152 0.62954,-5.388 5.0346,-5.388 z"
       id="path882" />
    <path
       style="fill:url(#linearGradient4673);stroke-width:3.77959991;enable-background:new"
       inkscape:connector-curvature="0"
       d="m 142.17,11.269 c 16.649,0 19.028,2.543 19.028,20.364 v 14.272 c 0,17.822 -2.3794,20.364 -19.028,20.364 h -16.945 c -16.649,0 -19.029,-2.5429 -19.029,-20.364 V 31.633 c 0,-17.822 2.3794,-20.364 19.029,-20.364 z"
       id="path884" />
  </g>
  <path
     style="fill:#ffffff;fill-rule:evenodd"
     inkscape:connector-curvature="0"
     id="path15"
     d="m 9.1410492,4.232 -1.471,0.105 v 5.86 l 1.471,-0.179 V 7.46 c 0.638,0.963 1.1499998,1.859 2.0049998,2.79 l 1.524,-0.438 a 19.904,19.904 0 0 1 -1.981,-2.685 c 0.578,-0.853 1.303,-1.71 2.011,-2.476 l -1.579,-0.388 A 25.18,25.18 0 0 0 9.1410492,6.815 m -3.352,-1.38 a 0.12,0.12 0 0 0 -0.065,0.034 c -0.173,0.164 -0.337,0.328 -0.51,0.492 -0.075,0.073 0.002,0.16 0.035,0.22 l 0.35,0.484 0.262,0.353 c 0.037,0.05 0.048,0.056 0.029,0.092 -0.024,0.037 -0.043,0.067 -0.065,0.105 -0.34,0.572 -0.102,0.616 -0.83,0.801 l -0.559,0.093 c -0.082,0.027 -0.19,0.025 -0.196,0.14 0,0.23 -0.007,0.46 -0.007,0.69 -0.004,0.107 0.115,0.117 0.185,0.135 l 0.594,0.103 0.445,0.081 c 0.06,0.008 0.074,-0.006 0.088,0.04 0.182,0.767 0.42,0.59 0.023,1.262 l -0.32,0.445 c -0.042,0.077 -0.12,0.153 -0.04,0.231 0.168,0.167 0.329,0.335 0.498,0.502 0.075,0.073 0.171,-0.002 0.232,-0.035 l 0.492,-0.342 0.368,-0.247 c 0.05,-0.042 0.057,-0.052 0.095,-0.03 0.737,0.451 0.763,0.126 0.978,0.884 l 0.106,0.543 c 0.028,0.08 0.03,0.185 0.143,0.19 h 0.717 c 0.107,0 0.117,-0.123 0.13,-0.19 l 0.1,-0.578 0.072,-0.427 c 0.005,-0.041 0.003,-0.062 0.011,-0.076 0.8639998,-0.178 0.65,-0.428 1.3519998,-0.029 l 0.456,0.312 c 0.084,0.041 0.164,0.113 0.244,0.036 0.169,-0.16 0.337,-0.321 0.507,-0.48 0.076,-0.077 10e-4,-0.165 -0.035,-0.224 h -0.007 l -0.332,-0.456 -0.219,0.074 c -0.056,0.037 -0.13,0.023 -0.197,-0.063 l -0.48,-0.618 a 2.472,2.472 0 0 1 -1.9929998,0.994 c -1.351,0 -2.455,-1.074 -2.455,-2.39 0,-0.936 0.557,-1.746 1.364,-2.138 v -0.55 c -0.027,0.014 -0.06,0.021 -0.082,0.03 -0.316,0.127 -0.336,0.185 -0.853,-0.104 l -0.456,-0.317 c -0.064,-0.028 -0.12,-0.08 -0.178,-0.066 m 1.566,1.229 a 2.203,2.203 0 0 0 -1.152,1.923 c 0,1.213 1.017,2.206 2.268,2.206 0.773,0 1.451,-0.382 1.8599998,-0.962 l -0.022,-0.047 c -0.4799998,0.518 -1.0209998,0.854 -1.8449998,0.872 -1.026,0.018 -2.065,-0.872 -2.07,-2.045 -0.009,-0.756 0.35,-1.264 0.96,-1.627 V 6.672 m 10e-4,0" />
  <g
     style="fill:#5e4aa6;stroke-width:0.26458001"
     transform="translate(6.3345914,-1.2291355)"
     id="g896">
    <circle
       cx="-330.35001"
       cy="-328.38"
       r="0"
       id="circle888" />
    <circle
       cx="-312.10999"
       cy="-326.25"
       r="0"
       id="circle890" />
    <circle
       cx="-306.01999"
       cy="-333.07001"
       r="0"
       id="circle892" />
    <circle
       cx="-308.84"
       cy="-326.01001"
       r="0"
       id="circle894" />
  </g>
</svg>
