<?xml version="1.0" encoding="UTF-8"?>
<svg width="64" height="64" version="1.1" viewBox="0 0 64 64" xmlns="http://www.w3.org/2000/svg" xmlns:cc="http://creativecommons.org/ns#" xmlns:dc="http://purl.org/dc/elements/1.1/" xmlns:rdf="http://www.w3.org/1999/02/22-rdf-syntax-ns#">
 <metadata>
  <rdf:RDF>
   <cc:Work rdf:about="">
    <dc:format>image/svg+xml</dc:format>
    <dc:type rdf:resource="http://purl.org/dc/dcmitype/StillImage"/>
    <dc:title/>
   </cc:Work>
  </rdf:RDF>
 </metadata>
 <defs>
  <filter id="filter2761" x="-.024" y="-.024" width="1.048" height="1.048" color-interpolation-filters="sRGB">
   <feGaussianBlur stdDeviation="0.14552168"/>
  </filter>
  <linearGradient id="linearGradient1024" x1="1.3315" x2="14.217" y1="15.576" y2="2.6243" gradientTransform="matrix(3.7796 0 0 3.7796 -.0031954 .53086)" gradientUnits="userSpaceOnUse">
   <stop stop-color="#ff7d1e" offset="0"/>
   <stop stop-color="#ffa53c" offset="1"/>
  </linearGradient>
 </defs>
 <circle cx="-1168.4" cy="-1251.4" r="0" fill="#5e4aa6"/>
 <circle cx="-68.875" cy="14.092" r="0" fill="#5e4aa6" fill-rule="evenodd"/>
 <path transform="matrix(3.7796 0 0 3.7796 -.0031954 .53086)" d="m10.709 1.05c4.405 0 5.0345 0.67282 5.0345 5.388v3.7761c0 4.7152-0.62954 5.388-5.0345 5.388h-4.4832c-4.405 0-5.0346-0.6728-5.0346-5.388v-3.7761c0-4.7152 0.62954-5.388 5.0346-5.388z" enable-background="new" fill="#141414" filter="url(#filter2761)" opacity=".3"/>
 <path d="m40.473 4.4994c16.649 0 19.028 2.543 19.028 20.364v14.272c0 17.822-2.3794 20.364-19.028 20.364h-16.945c-16.649 0-19.029-2.5429-19.029-20.364v-14.272c0-17.822 2.3794-20.364 19.029-20.364z" enable-background="new" fill="url(#linearGradient1024)" stroke-width="3.7796"/>
 <path d="m27.8 15.2c-1.5512 0-2.8 1.2488-2.8 2.8v7c0 1.1906 0.7394 2.1967 1.7828 2.6032l-5.0285 8.5968h-5.1542c-1.5512 0-2.8 1.2488-2.8 2.8v7c0 1.5512 1.2488 2.8 2.8 2.8h8.4c1.5512 0 2.8-1.2488 2.8-2.8v-7c0-1.5512-1.2488-2.8-2.8-2.8h-0.20782l4.9109-8.4h4.5965l4.9273 8.4h-0.22695c-1.5512 0-2.8 1.2488-2.8 2.8v7c0 1.5512 1.2488 2.8 2.8 2.8h8.4c1.5512 0 2.8-1.2488 2.8-2.8v-7c0-1.5512-1.2488-2.8-2.8-2.8h-5.1981l-5.0231-8.5833c1.0634-0.39645 1.8211-1.4119 1.8211-2.6167v-7c0-1.5512-1.2488-2.8-2.8-2.8z" fill="#f9f9f9" stroke-width=".21559"/>
</svg>
