<svg width="64" height="64" version="1.1" viewBox="0 0 16.933 16.933" xmlns="http://www.w3.org/2000/svg">
 <defs>
  <linearGradient id="a" x1="-5.9443" x2="-5.7645" y1="-136.94" y2="-103.82" gradientTransform="matrix(.53033 0 0 .53033 11.536 71.99)" gradientUnits="userSpaceOnUse">
   <stop stop-color="#cba461" stop-opacity=".96863" offset="0"/>
   <stop stop-color="#d7a961" offset="1"/>
  </linearGradient>
 </defs>
 <circle cx="-330.35" cy="-328.38" r="0" fill="#5e4aa6" stroke-width=".26458"/>
 <circle cx="8.4935" cy="8.73" r="7.9375" opacity=".2" stroke-width=".14032"/>
 <circle cx="8.4935" cy="8.46" r="7.9375" fill="url(#a)" stroke-width=".14032"/>
 <circle cx="-39.434" cy="6.44" r="0" fill="#5e4aa6" fill-rule="evenodd" stroke-width=".26458"/>
 <g transform="translate(-24.18 -2.5829)">
  <g transform="matrix(.26458 0 0 .26458 24.18 2.5829)" stroke-width="2.2593">
   <path class="shp36" d="m32 58c14.359 0 26-11.641 26-26s-11.641-26-26-26-26 11.641-26 26 11.641 26 26 26z" fill="#fff" opacity=".15"/>
   <path d="M 32,8 C 18.746,8 8,18.746 8,32 8,44.089 16.9404,54.086 28.568,55.752 L 55.752,28.568 C 54.0861,16.94 44.089,8 32,8 Z" opacity=".15"/>
   <path d="M 32,9 C 19.298,9 9,19.298 9,32 9,43.379 17.2662,52.822 28.119,54.668 L 54.668,28.119 C 52.8223,17.266 43.379,9 32,9 Z" fill="#f2f2f2"/>
   <path transform="translate(0 1.1339e-6)" d="m19.186 18c-0.35111 0.32156-0.69148 0.65317-1.0176 1h27.664c-0.3261-0.34683-0.66647-0.67844-1.0176-1zm-4.8379 7c-0.13069 0.32923-0.25467 0.66203-0.36719 1h36.039c-0.11252-0.33797-0.2365-0.67077-0.36719-1zm-1.3477 7c0 0.33748 0.0334 0.66685 0.05078 1h23.154c0.42633-0.34991 0.86919-0.68095 1.3203-1zm1.3477 7c0.13469 0.3393 0.2822 0.67063 0.43555 1h15.689c0.18008-0.33838 0.36823-0.67194 0.56445-1zm4.8379 7c0.38036 0.34835 0.77186 0.68318 1.1797 1h7.7383c0.05563-0.33555 0.11555-0.66952 0.18555-1z" opacity=".05" stroke-width="1.651"/>
  </g>
  <g fill-rule="evenodd" stroke-width=".26458">
   <path d="m32.646 3.3766a1.3229 1.3229 0 0 0-1.296 1.0583h0.54879a0.79373 0.79373 0 0 1 0.74722-0.52916 0.79373 0.79373 0 0 1 0.74775 0.52916h0.54725a1.3229 1.3229 0 0 0-1.295-1.0583z" fill="#b3b3b3" stroke="#000" stroke-opacity=".21569" style="paint-order:stroke fill markers"/>
   <path d="m30.265 6.0224s0.33945-1.5875 1.0183-1.5875h2.7257c0.67888 0 1.0183 1.5875 1.0183 1.5875z" opacity=".15"/>
   <path d="m30.265 5.7578s0.33945-1.5875 1.0183-1.5875h2.7257c0.67888 0 1.0183 1.5875 1.0183 1.5875z" fill="#ccc" stroke="#000" stroke-opacity=".21569"/>
  </g>
  <path d="m31.619 17.047 7.0243-7.0243c-0.334-0.0568-0.6766-0.087848-1.0268-0.087848-3.3607 0-6.0853 2.7246-6.0853 6.0853 0 0.35017 0.03105 0.6928 0.08785 1.0268z" fill="#fff" stroke-width=".59776"/>
 </g>
</svg>
