<?xml version="1.0" encoding="UTF-8"?>
<!-- Created with Inkscape (http://www.inkscape.org/) -->
<svg width="64" height="64" version="1.1" viewBox="0 0 16.933 16.933" xmlns="http://www.w3.org/2000/svg" xmlns:cc="http://creativecommons.org/ns#" xmlns:dc="http://purl.org/dc/elements/1.1/" xmlns:rdf="http://www.w3.org/1999/02/22-rdf-syntax-ns#">
 <defs>
  <filter id="filter2761" x="-.024" y="-.024" width="1.048" height="1.048" color-interpolation-filters="sRGB">
   <feGaussianBlur stdDeviation="0.14552168"/>
  </filter>
  <filter id="filter924" x="-.060054" y="-.059946" width="1.1201" height="1.1199" color-interpolation-filters="sRGB">
   <feGaussianBlur stdDeviation="0.2078715"/>
  </filter>
  <linearGradient id="linearGradient2645-5" x1="15.752" x2="1.3927" y1="281.24" y2="295.6" gradientTransform="translate(-.13126 -280.07)" gradientUnits="userSpaceOnUse">
   <stop stop-color="#ffdc32" offset="0"/>
   <stop stop-color="#ff7832" offset="1"/>
  </linearGradient>
  <linearGradient id="a-3" x1="70.786" x2="6.447" y1="12.393" y2="74.468" gradientTransform="matrix(.20505 0 0 .20505 .30193 .47639)" gradientUnits="userSpaceOnUse">
   <stop stop-color="#fff44f" offset=".048"/>
   <stop stop-color="#ffe847" offset=".111"/>
   <stop stop-color="#ffc830" offset=".225"/>
   <stop stop-color="#ff980e" offset=".368"/>
   <stop stop-color="#ff8b16" offset=".401"/>
   <stop stop-color="#ff672a" offset=".462"/>
   <stop stop-color="#ff3647" offset=".534"/>
   <stop stop-color="#e31587" offset=".705"/>
  </linearGradient>
  <radialGradient id="b-1" cx="-7907.2" cy="-8515.1" r="80.797" gradientTransform="matrix(.20505 0 0 .20505 1635.6 1748.4)" gradientUnits="userSpaceOnUse">
   <stop stop-color="#ffbd4f" offset=".129"/>
   <stop stop-color="#ffac31" offset=".186"/>
   <stop stop-color="#ff9d17" offset=".247"/>
   <stop stop-color="#ff980e" offset=".283"/>
   <stop stop-color="#ff563b" offset=".403"/>
   <stop stop-color="#ff3750" offset=".467"/>
   <stop stop-color="#f5156c" offset=".71"/>
   <stop stop-color="#eb0878" offset=".782"/>
   <stop stop-color="#e50080" offset=".86"/>
  </radialGradient>
  <radialGradient id="c-6" cx="-7936.7" cy="-8482.1" r="80.797" gradientTransform="matrix(.20505 0 0 .20505 1635.6 1748.4)" gradientUnits="userSpaceOnUse">
   <stop stop-color="#960e18" offset=".3"/>
   <stop stop-color="#b11927" stop-opacity=".74" offset=".351"/>
   <stop stop-color="#db293d" stop-opacity=".343" offset=".435"/>
   <stop stop-color="#f5334b" stop-opacity=".094" offset=".497"/>
   <stop stop-color="#ff3750" stop-opacity="0" offset=".53"/>
  </radialGradient>
  <radialGradient id="d-0" cx="-7927" cy="-8533.5" r="58.534" gradientTransform="matrix(.20505 0 0 .20505 1635.6 1748.4)" gradientUnits="userSpaceOnUse">
   <stop stop-color="#fff44f" offset=".132"/>
   <stop stop-color="#ffdc3e" offset=".252"/>
   <stop stop-color="#ff9d12" offset=".506"/>
   <stop stop-color="#ff980e" offset=".526"/>
  </radialGradient>
  <radialGradient id="g-9" cx="-7937.7" cy="-8518.4" r="27.676" gradientTransform="matrix(.20505 0 0 .20505 1635.6 1748.4)" gradientUnits="userSpaceOnUse">
   <stop stop-color="#ffe226" offset="0"/>
   <stop stop-color="#ffdb27" offset=".121"/>
   <stop stop-color="#ffc82a" offset=".295"/>
   <stop stop-color="#ffa930" offset=".502"/>
   <stop stop-color="#ff7e37" offset=".732"/>
   <stop stop-color="#ff7139" offset=".792"/>
  </radialGradient>
  <radialGradient id="h-97" cx="-7916" cy="-8536" r="118.08" gradientTransform="matrix(.20505 0 0 .20505 1635.6 1748.4)" gradientUnits="userSpaceOnUse">
   <stop stop-color="#fff44f" offset=".113"/>
   <stop stop-color="#ff980e" offset=".456"/>
   <stop stop-color="#ff5634" offset=".622"/>
   <stop stop-color="#ff3647" offset=".716"/>
   <stop stop-color="#e31587" offset=".904"/>
  </radialGradient>
  <radialGradient id="i-2" cx="-7927.2" cy="-8522.9" r="86.499" gradientTransform="matrix(.021531 .20403 -.1339 .014149 -960.17 1737.4)" gradientUnits="userSpaceOnUse">
   <stop stop-color="#fff44f" offset="0"/>
   <stop stop-color="#ffe847" offset=".06"/>
   <stop stop-color="#ffc830" offset=".168"/>
   <stop stop-color="#ff980e" offset=".304"/>
   <stop stop-color="#ff8b16" offset=".356"/>
   <stop stop-color="#ff672a" offset=".455"/>
   <stop stop-color="#ff3647" offset=".57"/>
   <stop stop-color="#e31587" offset=".737"/>
  </radialGradient>
  <radialGradient id="j-9" cx="-7938.4" cy="-8508.2" r="73.72" gradientTransform="matrix(.20505 0 0 .20505 1635.6 1748.4)" gradientUnits="userSpaceOnUse">
   <stop stop-color="#fff44f" offset=".137"/>
   <stop stop-color="#ff980e" offset=".48"/>
   <stop stop-color="#ff5634" offset=".592"/>
   <stop stop-color="#ff3647" offset=".655"/>
   <stop stop-color="#e31587" offset=".904"/>
  </radialGradient>
  <radialGradient id="k-3-4" cx="-7918.9" cy="-8503.9" r="80.686" gradientTransform="matrix(.20505 0 0 .20505 1635.6 1748.4)" gradientUnits="userSpaceOnUse">
   <stop stop-color="#fff44f" offset=".094"/>
   <stop stop-color="#ffe141" offset=".231"/>
   <stop stop-color="#ffaf1e" offset=".509"/>
   <stop stop-color="#ff980e" offset=".626"/>
  </radialGradient>
  <linearGradient id="linearGradient3634" x1="6.8421" x2="12.104" y1="13.003" y2="4.0901" gradientTransform="translate(-7.05e-5)" gradientUnits="userSpaceOnUse">
   <stop stop-color="#0014f0" offset="0"/>
   <stop stop-color="#a032ff" offset=".55304"/>
   <stop stop-color="#b432ff" offset="1"/>
  </linearGradient>
  <linearGradient id="l-5-6" x1="70.013" x2="15.267" y1="12.061" y2="66.806" gradientTransform="matrix(.20505 0 0 .20505 .30193 .47639)" gradientUnits="userSpaceOnUse">
   <stop stop-color="#fff44f" stop-opacity=".8" offset=".167"/>
   <stop stop-color="#fff44f" stop-opacity=".634" offset=".266"/>
   <stop stop-color="#fff44f" stop-opacity=".217" offset=".489"/>
   <stop stop-color="#fff44f" stop-opacity="0" offset=".6"/>
  </linearGradient>
  <filter id="filter1021" x="-.060989" y="-.059042" width="1.122" height="1.1181" color-interpolation-filters="sRGB">
   <feGaussianBlur stdDeviation="0.40340133"/>
  </filter>
 </defs>
 <metadata>
  <rdf:RDF>
   <cc:Work rdf:about="">
    <dc:format>image/svg+xml</dc:format>
    <dc:type rdf:resource="http://purl.org/dc/dcmitype/StillImage"/>
    <dc:title/>
   </cc:Work>
  </rdf:RDF>
 </metadata>
 <path d="m10.709 1.05c4.405 0 5.0345 0.67282 5.0345 5.388v3.7761c0 4.7152-0.62954 5.388-5.0345 5.388h-4.4832c-4.405 0-5.0346-0.6728-5.0346-5.388v-3.7761c0-4.7152 0.62954-5.388 5.0346-5.388z" enable-background="new" fill="#141414" filter="url(#filter2761)" opacity=".3"/>
 <g transform="matrix(1.3181 0 0 1.3181 -2.6291 -2.6396)" fill="#285ae6" filter="url(#filter924)">
  <path d="m11.198 11.399a4.1537 4.1537 0 0 1-2.7795 1.067 4.1537 4.1537 0 0 1-4.1537-4.1537 4.1537 4.1537 0 0 1 4.1537-4.1537 4.1537 4.1537 0 0 1 2.7795 1.0671"/>
  <circle cx="8.4188" cy="8.3271" r="4.1537" opacity=".2"/>
 </g>
 <path d="m10.709 1.05c4.405 0 5.0345 0.67282 5.0345 5.388v3.7761c0 4.7152-0.62954 5.388-5.0345 5.388h-4.4832c-4.405 0-5.0346-0.6728-5.0346-5.388v-3.7761c0-4.7152 0.62954-5.388 5.0346-5.388z" enable-background="new" fill="url(#linearGradient2645-5)"/>
 <g transform="matrix(.69344 0 0 .69344 2.5691 2.3135)" fill="#ff7832" filter="url(#filter1021)" stroke-width=".20505">
  <path d="m15.869 5.9767c-0.34531-0.83088-1.0457-1.7279-1.5943-2.0116a8.2567 8.2567 0 0 1 0.80483 2.4123l0.0015 0.013363c-0.8986-2.2402-2.4224-3.1435-3.6668-5.1103-0.06295-0.099451-0.12591-0.1991-0.18721-0.3043-0.03506-0.060038-0.06316-0.11422-0.08756-0.16404a1.4462 1.4462 0 0 1-0.11852-0.31476 0.020505 0.020505 0 0 0-0.01804-0.020529 0.028297 0.028297 0 0 0-0.01497 0c-0.0011 0-0.0027 0.001937-0.0039 0.001937-0.0013 4.0671e-4 -0.0039 0.001937-0.0057 0.002905l0.0031-0.00581c-1.9962 1.1688-2.6735 3.3325-2.7358 4.4148a3.9754 3.9754 0 0 0-2.1871 0.84298 2.376 2.376 0 0 0-0.20505-0.15543 3.6844 3.6844 0 0 1-0.022351-1.9425 5.8861 5.8861 0 0 0-1.913 1.4785h-0.003689c-0.31506-0.3983-0.29291-1.7148-0.27487-1.9897a1.4206 1.4206 0 0 0-0.26534 0.14087 5.7877 5.7877 0 0 0-0.77674 0.66541 6.94 6.94 0 0 0-0.74291 0.89137v9.684e-4 -9.684e-4a6.712 6.712 0 0 0-1.0663 2.4079l-0.010663 0.052485c-0.014969 0.069916-0.068898 0.42015-0.078125 0.49623 0 0.00581-0.001231 0.011524-0.001846 0.01743a7.5741 7.5741 0 0 0-0.12898 1.0956v0.040962a7.9477 7.9477 0 0 0 15.779 1.3439c0.01332-0.10253 0.0242-0.20403 0.03609-0.30758a8.1729 8.1729 0 0 0-0.5155-3.9922zm-9.1598 6.2209c0.037114 0.01782 0.071974 0.03709 0.11011 0.05413l0.00554 0.0039q-0.057826-0.02769-0.11565-0.05762zm1.8205-4.7934m6.5519-1.0117v-0.00775l0.0015 0.00872z"/>
  <path d="m15.869 5.9767c-0.34531-0.83088-1.0457-1.7279-1.5943-2.0116a8.2567 8.2567 0 0 1 0.80483 2.4123v0.00775l0.0015 0.00872a7.1974 7.1974 0 0 1-0.2473 5.3638c-0.91085 1.9543-3.1156 3.9575-6.5666 3.8602-3.7289-0.10561-7.0129-2.8726-7.6268-6.4967-0.11176-0.57149 0-0.86123 0.056185-1.3257a5.9211 5.9211 0 0 0-0.12779 1.0967v0.040962a7.9477 7.9477 0 0 0 15.779 1.3439c0.01333-0.10253 0.0242-0.20403 0.03609-0.30758a8.1729 8.1729 0 0 0-0.5155-3.9922z"/>
  <path d="m15.869 5.9767c-0.34531-0.83088-1.0457-1.7279-1.5943-2.0116a8.2567 8.2567 0 0 1 0.80483 2.4123v0.00775l0.0015 0.00872a7.1974 7.1974 0 0 1-0.2473 5.3638c-0.91085 1.9543-3.1156 3.9575-6.5666 3.8602-3.7289-0.10561-7.0129-2.8726-7.6268-6.4967-0.11176-0.57149 0-0.86123 0.056185-1.3257a5.9211 5.9211 0 0 0-0.12779 1.0967v0.040962a7.9477 7.9477 0 0 0 15.779 1.3439c0.01333-0.10253 0.0242-0.20403 0.03609-0.30758a8.1729 8.1729 0 0 0-0.5155-3.9922z"/>
  <path d="m12.007 6.9063c0.01723 0.012105 0.03321 0.024209 0.04942 0.036314a4.3266 4.3266 0 0 0-0.7382-0.96272c-2.4701-2.4705-0.64736-5.3567-0.33998-5.5033l0.0031-0.004842c-1.9962 1.1688-2.6735 3.3325-2.7358 4.4149 0.092685-0.00678 0.18455-0.014138 0.27928-0.014138a4.0109 4.0109 0 0 1 3.4822 2.0336z"/>
  <path d="m5.6877 5.4634c0.064387 0.040962 0.1175 0.076694 0.16404 0.10888a3.6844 3.6844 0 0 1-0.022351-1.9425 5.8861 5.8861 0 0 0-1.913 1.4785c0.038756-9.684e-4 1.1916-0.021691 1.7712 0.35516z"/>
  <path d="m0.64109 9.1142c0.61332 3.6241 3.8978 6.3912 7.6268 6.4967 3.451 0.0976 5.6558-1.9057 6.5666-3.8602a7.1974 7.1974 0 0 0 0.2473-5.3638v-0.00775c0-0.00581-0.0013-0.00968 0-0.00775l0.0015 0.013363c0.28195 1.8408-0.65433 3.6241-2.118 4.8301l-0.0046 0.01026c-2.8519 2.3226-5.5811 1.4013-6.1336 1.0253q-0.057826-0.02769-0.11565-0.05762c-1.6628-0.79478-2.3497-2.3097-2.2025-3.609a2.0409 2.0409 0 0 1-1.8826-1.1842 2.9975 2.9975 0 0 1 2.9218-0.1173 3.9576 3.9576 0 0 0 2.9839 0.1173c-0.00308-0.06459-1.3862-0.61516-1.9255-1.1462-0.2881-0.284-0.42487-0.42077-0.54606-0.52351a2.376 2.376 0 0 0-0.20505-0.15543c-0.047163-0.03215-0.10027-0.06701-0.16404-0.10888-0.57969-0.37689-1.7325-0.35617-1.7706-0.35515h-0.00369c-0.31494-0.39896-0.29279-1.7154-0.27475-1.9904a1.4206 1.4206 0 0 0-0.26534 0.14087 5.7877 5.7877 0 0 0-0.77674 0.6654 6.94 6.94 0 0 0-0.74599 0.88932v9.684e-4 -9.684e-4a6.712 6.712 0 0 0-1.0663 2.4079c-0.003896 0.016172-0.28626 1.2506-0.14703 1.8908z"/>
  <path d="m11.318 5.9864a4.3266 4.3266 0 0 1 0.7382 0.96375c0.04367 0.033021 0.08448 0.065848 0.11914 0.097601 1.8018 1.6609 0.85774 4.0088 0.78741 4.176 1.4637-1.2059 2.3991-2.9893 2.118-4.8301-0.89896-2.2413-2.4227-3.1445-3.6672-5.1114-0.06295-0.099451-0.12591-0.1991-0.18721-0.3043-0.03506-0.060038-0.06316-0.11422-0.08756-0.16404a1.4462 1.4462 0 0 1-0.11852-0.31476 0.020505 0.020505 0 0 0-0.01804-0.020529 0.028297 0.028297 0 0 0-0.01497 0c-0.0011 0-0.0027 0.001937-0.0039 0.001937-0.0013 4.0671e-4 -0.0039 0.001937-0.0057 0.002905-0.30736 0.14579-2.1301 3.0319 0.3404 5.5024z"/>
  <path d="m12.174 7.0419c-0.03466-0.031762-0.07545-0.06459-0.11914-0.097611-0.0162-0.012105-0.0322-0.024209-0.04941-0.036314a2.7437 2.7437 0 0 0-1.9162-0.46527c2.8585 1.4292 2.0916 6.3509-1.8699 6.1652a3.5341 3.5341 0 0 1-1.0341-0.1995q-0.11668-0.04367-0.23336-0.09558c-0.044907-0.02053-0.089813-0.04096-0.13411-0.06401l0.00554 0.0039c0.55242 0.37709 3.2809 1.2984 6.1336-1.0253l0.0046-0.01026c0.07116-0.16609 1.0152-2.5145-0.78741-4.1749z"/>
  <path d="m4.9472 9.6468s0.36684-1.3671 2.6268-1.3671c0.24422 0 0.94325-0.6818 0.95576-0.87947a3.9576 3.9576 0 0 1-2.9839-0.11729 2.9975 2.9975 0 0 0-2.9218 0.11729 2.0409 2.0409 0 0 0 1.8826 1.1842c-0.14723 1.2994 0.53971 2.8143 2.2025 3.609 0.037114 0.01782 0.071974 0.03709 0.11011 0.05413-0.97049-0.50135-1.7719-1.4495-1.8719-2.6007z"/>
  <path d="m8.5247 4.8735c-0.09433 0-0.18688 0.00756-0.27956 0.013952a3.9754 3.9754 0 0 0-2.1869 0.84283c0.12119 0.10252 0.2576 0.23947 0.54569 0.52347 0.53929 0.53129 1.9228 1.0821 1.9259 1.1467-0.01393 0.19813-0.71192 0.879-0.956 0.879-2.2599 0-2.6267 1.3673-2.6267 1.3673 0.10007 1.1512 0.90199 2.0992 1.8717 2.6008 0.04429 0.02295 0.08945 0.04374 0.13436 0.06408 0.07778 0.03447 0.15527 0.06635 0.23306 0.0956a3.5341 3.5341 0 0 0 1.0345 0.19947c3.9611 0.18578 4.728-4.7364 1.8696-6.1649a2.7437 2.7437 0 0 1 1.9161 0.46508 4.0109 4.0109 0 0 0-3.4819-2.0334z"/>
  <path d="m15.869 5.9767c-0.34531-0.83088-1.0457-1.7279-1.5943-2.0116a8.2567 8.2567 0 0 1 0.80483 2.4123l0.0015 0.013363c-0.8986-2.2402-2.4224-3.1435-3.6668-5.1103-0.06295-0.099451-0.12591-0.1991-0.18721-0.3043-0.03506-0.060038-0.06316-0.11422-0.08756-0.16404a1.4462 1.4462 0 0 1-0.11852-0.31476 0.020505 0.020505 0 0 0-0.01804-0.020529 0.028297 0.028297 0 0 0-0.01497 0c-0.0011 0-0.0027 0.001937-0.0039 0.001937-0.0013 4.0671e-4 -0.0039 0.001937-0.0057 0.002905l0.0031-0.00581c-1.9962 1.1688-2.6735 3.3325-2.7358 4.4148 0.092685-0.00678 0.18455-0.014138 0.27928-0.014138a4.0109 4.0109 0 0 1 3.4822 2.0336 2.7437 2.7437 0 0 0-1.9162-0.46527c2.8585 1.4292 2.0916 6.3509-1.8699 6.1652a3.5341 3.5341 0 0 1-1.0342-0.19859q-0.11668-0.04367-0.23336-0.09558c-0.044907-0.02053-0.089813-0.04096-0.13411-0.06401l0.00554 0.0039q-0.057826-0.02769-0.11565-0.05762c0.037114 0.01782 0.071974 0.03709 0.11011 0.05413-0.97049-0.50158-1.7719-1.4498-1.8719-2.6009 0 0 0.36684-1.3671 2.6268-1.3671 0.24422 0 0.94325-0.6818 0.95576-0.87947-0.00308-0.06459-1.3862-0.61516-1.9255-1.1462-0.2881-0.284-0.42487-0.42077-0.54606-0.52351a2.376 2.376 0 0 0-0.20505-0.15543 3.6844 3.6844 0 0 1-0.022351-1.9425 5.8861 5.8861 0 0 0-1.913 1.4785h-0.003689c-0.31497-0.39957-0.29282-1.716-0.27477-1.9909a1.4206 1.4206 0 0 0-0.26534 0.14087 5.7877 5.7877 0 0 0-0.77674 0.66541 6.94 6.94 0 0 0-0.74291 0.89137v9.683e-4 -9.683e-4a6.712 6.712 0 0 0-1.0663 2.4079l-0.010663 0.052485c-0.014969 0.069916-0.082022 0.42507-0.091659 0.50136a9.2467 9.2467 0 0 0-0.11729 1.1079v0.040962a7.9477 7.9477 0 0 0 15.779 1.3439c0.01333-0.10253 0.0242-0.20403 0.03609-0.30758a8.1729 8.1729 0 0 0-0.5155-3.9922zm-0.78844 0.40826 0.0015 0.00872z"/>
 </g>
 <g transform="matrix(.69344 0 0 .69344 2.5691 2.3135)" stroke-width=".20505">
  <path d="m15.869 5.9767c-0.34531-0.83088-1.0457-1.7279-1.5943-2.0116a8.2567 8.2567 0 0 1 0.80483 2.4123l0.0015 0.013363c-0.8986-2.2402-2.4224-3.1435-3.6668-5.1103-0.06295-0.099451-0.12591-0.1991-0.18721-0.3043-0.03506-0.060038-0.06316-0.11422-0.08756-0.16404a1.4462 1.4462 0 0 1-0.11852-0.31476 0.020505 0.020505 0 0 0-0.01804-0.020529 0.028297 0.028297 0 0 0-0.01497 0c-0.0011 0-0.0027 0.001937-0.0039 0.001937-0.0013 4.0671e-4 -0.0039 0.001937-0.0057 0.002905l0.0031-0.00581c-1.9962 1.1688-2.6735 3.3325-2.7358 4.4148a3.9754 3.9754 0 0 0-2.1871 0.84298 2.376 2.376 0 0 0-0.20505-0.15543 3.6844 3.6844 0 0 1-0.022351-1.9425 5.8861 5.8861 0 0 0-1.913 1.4785h-0.003689c-0.31506-0.3983-0.29291-1.7148-0.27487-1.9897a1.4206 1.4206 0 0 0-0.26534 0.14087 5.7877 5.7877 0 0 0-0.77674 0.66541 6.94 6.94 0 0 0-0.74291 0.89137v9.684e-4 -9.684e-4a6.712 6.712 0 0 0-1.0663 2.4079l-0.010663 0.052485c-0.014969 0.069916-0.068898 0.42015-0.078125 0.49623 0 0.00581-0.001231 0.011524-0.001846 0.01743a7.5741 7.5741 0 0 0-0.12898 1.0956v0.040962a7.9477 7.9477 0 0 0 15.779 1.3439c0.01332-0.10253 0.0242-0.20403 0.03609-0.30758a8.1729 8.1729 0 0 0-0.5155-3.9922zm-9.1598 6.2209c0.037114 0.01782 0.071974 0.03709 0.11011 0.05413l0.00554 0.0039q-0.057826-0.02769-0.11565-0.05762zm1.8205-4.7934m6.5519-1.0117v-0.00775l0.0015 0.00872z" fill="url(#a-3)"/>
  <path d="m15.869 5.9767c-0.34531-0.83088-1.0457-1.7279-1.5943-2.0116a8.2567 8.2567 0 0 1 0.80483 2.4123v0.00775l0.0015 0.00872a7.1974 7.1974 0 0 1-0.2473 5.3638c-0.91085 1.9543-3.1156 3.9575-6.5666 3.8602-3.7289-0.10561-7.0129-2.8726-7.6268-6.4967-0.11176-0.57149 0-0.86123 0.056185-1.3257a5.9211 5.9211 0 0 0-0.12779 1.0967v0.040962a7.9477 7.9477 0 0 0 15.779 1.3439c0.01333-0.10253 0.0242-0.20403 0.03609-0.30758a8.1729 8.1729 0 0 0-0.5155-3.9922z" fill="url(#b-1)"/>
  <path d="m15.869 5.9767c-0.34531-0.83088-1.0457-1.7279-1.5943-2.0116a8.2567 8.2567 0 0 1 0.80483 2.4123v0.00775l0.0015 0.00872a7.1974 7.1974 0 0 1-0.2473 5.3638c-0.91085 1.9543-3.1156 3.9575-6.5666 3.8602-3.7289-0.10561-7.0129-2.8726-7.6268-6.4967-0.11176-0.57149 0-0.86123 0.056185-1.3257a5.9211 5.9211 0 0 0-0.12779 1.0967v0.040962a7.9477 7.9477 0 0 0 15.779 1.3439c0.01333-0.10253 0.0242-0.20403 0.03609-0.30758a8.1729 8.1729 0 0 0-0.5155-3.9922z" fill="url(#c-6)"/>
  <path d="m12.007 6.9063c0.01723 0.012105 0.03321 0.024209 0.04942 0.036314a4.3266 4.3266 0 0 0-0.7382-0.96272c-2.4701-2.4705-0.64736-5.3567-0.33998-5.5033l0.0031-0.004842c-1.9962 1.1688-2.6735 3.3325-2.7358 4.4149 0.092685-0.00678 0.18455-0.014138 0.27928-0.014138a4.0109 4.0109 0 0 1 3.4822 2.0336z" fill="url(#d-0)"/>
  <path d="m5.6877 5.4634c0.064387 0.040962 0.1175 0.076694 0.16404 0.10888a3.6844 3.6844 0 0 1-0.022351-1.9425 5.8861 5.8861 0 0 0-1.913 1.4785c0.038756-9.684e-4 1.1916-0.021691 1.7712 0.35516z" fill="url(#g-9)"/>
  <path d="m0.64109 9.1142c0.61332 3.6241 3.8978 6.3912 7.6268 6.4967 3.451 0.0976 5.6558-1.9057 6.5666-3.8602a7.1974 7.1974 0 0 0 0.2473-5.3638v-0.00775c0-0.00581-0.0013-0.00968 0-0.00775l0.0015 0.013363c0.28195 1.8408-0.65433 3.6241-2.118 4.8301l-0.0046 0.01026c-2.8519 2.3226-5.5811 1.4013-6.1336 1.0253q-0.057826-0.02769-0.11565-0.05762c-1.6628-0.79478-2.3497-2.3097-2.2025-3.609a2.0409 2.0409 0 0 1-1.8826-1.1842 2.9975 2.9975 0 0 1 2.9218-0.1173 3.9576 3.9576 0 0 0 2.9839 0.1173c-0.00308-0.06459-1.3862-0.61516-1.9255-1.1462-0.2881-0.284-0.42487-0.42077-0.54606-0.52351a2.376 2.376 0 0 0-0.20505-0.15543c-0.047163-0.03215-0.10027-0.06701-0.16404-0.10888-0.57969-0.37689-1.7325-0.35617-1.7706-0.35515h-0.00369c-0.31494-0.39896-0.29279-1.7154-0.27475-1.9904a1.4206 1.4206 0 0 0-0.26534 0.14087 5.7877 5.7877 0 0 0-0.77674 0.6654 6.94 6.94 0 0 0-0.74599 0.88932v9.684e-4 -9.684e-4a6.712 6.712 0 0 0-1.0663 2.4079c-0.003896 0.016172-0.28626 1.2506-0.14703 1.8908z" fill="url(#h-97)"/>
  <path d="m11.318 5.9864a4.3266 4.3266 0 0 1 0.7382 0.96375c0.04367 0.033021 0.08448 0.065848 0.11914 0.097601 1.8018 1.6609 0.85774 4.0088 0.78741 4.176 1.4637-1.2059 2.3991-2.9893 2.118-4.8301-0.89896-2.2413-2.4227-3.1445-3.6672-5.1114-0.06295-0.099451-0.12591-0.1991-0.18721-0.3043-0.03506-0.060038-0.06316-0.11422-0.08756-0.16404a1.4462 1.4462 0 0 1-0.11852-0.31476 0.020505 0.020505 0 0 0-0.01804-0.020529 0.028297 0.028297 0 0 0-0.01497 0c-0.0011 0-0.0027 0.001937-0.0039 0.001937-0.0013 4.0671e-4 -0.0039 0.001937-0.0057 0.002905-0.30736 0.14579-2.1301 3.0319 0.3404 5.5024z" fill="url(#i-2)"/>
  <path d="m12.174 7.0419c-0.03466-0.031762-0.07545-0.06459-0.11914-0.097611-0.0162-0.012105-0.0322-0.024209-0.04941-0.036314a2.7437 2.7437 0 0 0-1.9162-0.46527c2.8585 1.4292 2.0916 6.3509-1.8699 6.1652a3.5341 3.5341 0 0 1-1.0341-0.1995q-0.11668-0.04367-0.23336-0.09558c-0.044907-0.02053-0.089813-0.04096-0.13411-0.06401l0.00554 0.0039c0.55242 0.37709 3.2809 1.2984 6.1336-1.0253l0.0046-0.01026c0.07116-0.16609 1.0152-2.5145-0.78741-4.1749z" fill="url(#j-9)"/>
  <path d="m4.9472 9.6468s0.36684-1.3671 2.6268-1.3671c0.24422 0 0.94325-0.6818 0.95576-0.87947a3.9576 3.9576 0 0 1-2.9839-0.11729 2.9975 2.9975 0 0 0-2.9218 0.11729 2.0409 2.0409 0 0 0 1.8826 1.1842c-0.14723 1.2994 0.53971 2.8143 2.2025 3.609 0.037114 0.01782 0.071974 0.03709 0.11011 0.05413-0.97049-0.50135-1.7719-1.4495-1.8719-2.6007z" fill="url(#k-3-4)"/>
  <path d="m8.5247 4.8735c-0.09433 0-0.18688 0.00756-0.27956 0.013952a3.9754 3.9754 0 0 0-2.1869 0.84283c0.12119 0.10252 0.2576 0.23947 0.54569 0.52347 0.53929 0.53129 1.9228 1.0821 1.9259 1.1467-0.01393 0.19813-0.71192 0.879-0.956 0.879-2.2599 0-2.6267 1.3673-2.6267 1.3673 0.10007 1.1512 0.90199 2.0992 1.8717 2.6008 0.04429 0.02295 0.08945 0.04374 0.13436 0.06408 0.07778 0.03447 0.15527 0.06635 0.23306 0.0956a3.5341 3.5341 0 0 0 1.0345 0.19947c3.9611 0.18578 4.728-4.7364 1.8696-6.1649a2.7437 2.7437 0 0 1 1.9161 0.46508 4.0109 4.0109 0 0 0-3.4819-2.0334z" fill="url(#linearGradient3634)"/>
  <path d="m15.869 5.9767c-0.34531-0.83088-1.0457-1.7279-1.5943-2.0116a8.2567 8.2567 0 0 1 0.80483 2.4123l0.0015 0.013363c-0.8986-2.2402-2.4224-3.1435-3.6668-5.1103-0.06295-0.099451-0.12591-0.1991-0.18721-0.3043-0.03506-0.060038-0.06316-0.11422-0.08756-0.16404a1.4462 1.4462 0 0 1-0.11852-0.31476 0.020505 0.020505 0 0 0-0.01804-0.020529 0.028297 0.028297 0 0 0-0.01497 0c-0.0011 0-0.0027 0.001937-0.0039 0.001937-0.0013 4.0671e-4 -0.0039 0.001937-0.0057 0.002905l0.0031-0.00581c-1.9962 1.1688-2.6735 3.3325-2.7358 4.4148 0.092685-0.00678 0.18455-0.014138 0.27928-0.014138a4.0109 4.0109 0 0 1 3.4822 2.0336 2.7437 2.7437 0 0 0-1.9162-0.46527c2.8585 1.4292 2.0916 6.3509-1.8699 6.1652a3.5341 3.5341 0 0 1-1.0342-0.19859q-0.11668-0.04367-0.23336-0.09558c-0.044907-0.02053-0.089813-0.04096-0.13411-0.06401l0.00554 0.0039q-0.057826-0.02769-0.11565-0.05762c0.037114 0.01782 0.071974 0.03709 0.11011 0.05413-0.97049-0.50158-1.7719-1.4498-1.8719-2.6009 0 0 0.36684-1.3671 2.6268-1.3671 0.24422 0 0.94325-0.6818 0.95576-0.87947-0.00308-0.06459-1.3862-0.61516-1.9255-1.1462-0.2881-0.284-0.42487-0.42077-0.54606-0.52351a2.376 2.376 0 0 0-0.20505-0.15543 3.6844 3.6844 0 0 1-0.022351-1.9425 5.8861 5.8861 0 0 0-1.913 1.4785h-0.003689c-0.31497-0.39957-0.29282-1.716-0.27477-1.9909a1.4206 1.4206 0 0 0-0.26534 0.14087 5.7877 5.7877 0 0 0-0.77674 0.66541 6.94 6.94 0 0 0-0.74291 0.89137v9.683e-4 -9.683e-4a6.712 6.712 0 0 0-1.0663 2.4079l-0.010663 0.052485c-0.014969 0.069916-0.082022 0.42507-0.091659 0.50136a9.2467 9.2467 0 0 0-0.11729 1.1079v0.040962a7.9477 7.9477 0 0 0 15.779 1.3439c0.01333-0.10253 0.0242-0.20403 0.03609-0.30758a8.1729 8.1729 0 0 0-0.5155-3.9922zm-0.78844 0.40826 0.0015 0.00872z" fill="url(#l-5-6)"/>
 </g>
</svg>
