<?xml version="1.0" encoding="UTF-8"?>
<!-- Created with Inkscape (http://www.inkscape.org/) -->
<svg width="64" height="64" version="1.1" viewBox="0 0 16.933 16.933" xmlns="http://www.w3.org/2000/svg" xmlns:cc="http://creativecommons.org/ns#" xmlns:dc="http://purl.org/dc/elements/1.1/" xmlns:rdf="http://www.w3.org/1999/02/22-rdf-syntax-ns#" xmlns:xlink="http://www.w3.org/1999/xlink">
 <defs>
  <filter id="filter2761" x="-.024" y="-.024" width="1.048" height="1.048" color-interpolation-filters="sRGB">
   <feGaussianBlur stdDeviation="0.14552168"/>
  </filter>
  <filter id="filter924" x="-.060054" y="-.059946" width="1.1201" height="1.1199" color-interpolation-filters="sRGB">
   <feGaussianBlur stdDeviation="0.2078715"/>
  </filter>
  <linearGradient id="c-5" x1="32.779" x2="31.947" y1="45.883" y2="18.026" gradientUnits="userSpaceOnUse">
   <stop stop-color="#707070" offset="0"/>
   <stop stop-color="#1b1b1b" offset="1"/>
  </linearGradient>
  <linearGradient id="linearGradient886" x1="32.779" x2="31.947" y1="45.883" y2="18.026" gradientUnits="userSpaceOnUse" xlink:href="#c-5"/>
 </defs>
 <metadata>
  <rdf:RDF>
   <cc:Work rdf:about="">
    <dc:format>image/svg+xml</dc:format>
    <dc:type rdf:resource="http://purl.org/dc/dcmitype/StillImage"/>
    <dc:title/>
   </cc:Work>
  </rdf:RDF>
 </metadata>
 <path d="m10.709 1.05c4.405 0 5.0345 0.67282 5.0345 5.388v3.7761c0 4.7152-0.62954 5.388-5.0345 5.388h-4.4832c-4.405 0-5.0346-0.6728-5.0346-5.388v-3.7761c0-4.7152 0.62954-5.388 5.0346-5.388z" enable-background="new" fill="#141414" filter="url(#filter2761)" opacity=".3"/>
 <g transform="matrix(1.3181 0 0 1.3181 -2.6291 -2.6396)" fill="#285ae6" filter="url(#filter924)">
  <path d="m11.198 11.399a4.1537 4.1537 0 0 1-2.7795 1.067 4.1537 4.1537 0 0 1-4.1537-4.1537 4.1537 4.1537 0 0 1 4.1537-4.1537 4.1537 4.1537 0 0 1 2.7795 1.0671"/>
  <circle cx="8.4188" cy="8.3271" r="4.1537" opacity=".2"/>
 </g>
 <path d="m10.709 1.05c4.405 0 5.0345 0.67282 5.0345 5.388v3.7761c0 4.7152-0.62954 5.388-5.0345 5.388h-4.4832c-4.405 0-5.0346-0.6728-5.0346-5.388v-3.7761c0-4.7152 0.62954-5.388 5.0346-5.388z" enable-background="new" fill="#fafafa"/>
 <g transform="matrix(.26458 0 0 .26458 .00070464 -.14045)" fill="url(#linearGradient886)" aria-label="Aa">
  <path d="m18.758 34.229 1.294-4.0258c0.93457-2.9834 1.7972-5.8231 2.624-8.9144h0.14378c0.86268 3.0553 1.6894 5.9309 2.6599 8.9144l1.2581 4.0258zm11.323 10.712h3.5226l-8.9503-26.348h-3.7023l-8.9503 26.348h3.3788l2.5521-8.0517h9.6332z"/>
  <path d="m42.439 45.407c2.4083 0 4.601-1.2581 6.4701-2.8037h0.10784l0.28756 2.3364h2.6959v-12.006c0-4.8166-2.0129-8.0157-6.7577-8.0157-3.1272 0-5.895 1.4019-7.6922 2.5521l1.294 2.2645c1.5456-1.0424 3.5945-2.0848 5.859-2.0848 3.1991 0 4.0258 2.4083 4.0258 4.9245-8.3033 0.93457-12.006 3.0553-12.006 7.2968 0 3.5226 2.4443 5.5355 5.7152 5.5355zm0.93457-2.624c-1.941 0-3.4507-0.89862-3.4507-3.1272 0-2.5161 2.2286-4.1337 8.8065-4.9245v5.4636c-1.9051 1.6894-3.4507 2.588-5.3558 2.588z"/>
 </g>
</svg>
