<svg width="64" height="64" version="1.1" viewBox="0 0 16.933 16.933" xmlns="http://www.w3.org/2000/svg">
 <circle cx="8.4665" cy="8.7311" r="7.9373" opacity=".25" stroke-width=".26458" style="paint-order:stroke markers fill"/>
 <circle cx="8.4665" cy="8.4665" r="7.9373" fill="#68d18b" stroke-width=".26458" style="paint-order:stroke markers fill"/>
 <g transform="translate(-.1876 .37573)" opacity=".15" aria-label="P">
  <path d="m7.3167 5.4667v2.899h1.3126q0.72862 0 1.1265-0.37723 0.3979-0.37723 0.3979-1.0748 0-0.69245-0.3979-1.0697-0.3979-0.37723-1.1265-0.37723zm-1.0438-0.85781h2.3564q1.2971 0 1.9585 0.5891 0.66661 0.58393 0.66661 1.7156 0 1.142-0.66661 1.726-0.66145 0.58393-1.9585 0.58393h-1.3126v3.1005h-1.0438z" stroke-width=".26458"/>
 </g>
 <g transform="translate(-.1876 .15352)" fill="#fff" aria-label="P">
  <path d="m7.3167 5.4667v2.899h1.3126q0.72862 0 1.1265-0.37723 0.3979-0.37723 0.3979-1.0748 0-0.69245-0.3979-1.0697-0.3979-0.37723-1.1265-0.37723zm-1.0438-0.85781h2.3564q1.2971 0 1.9585 0.5891 0.66661 0.58393 0.66661 1.7156 0 1.142-0.66661 1.726-0.66145 0.58393-1.9585 0.58393h-1.3126v3.1005h-1.0438z" fill="#fff" stroke-width=".26458"/>
 </g>
</svg>
