<?xml version="1.0" encoding="UTF-8"?>
<!-- Created with Inkscape (http://www.inkscape.org/) -->
<svg width="64" height="64" version="1.1" viewBox="0 0 16.933 16.933" xmlns="http://www.w3.org/2000/svg" xmlns:cc="http://creativecommons.org/ns#" xmlns:dc="http://purl.org/dc/elements/1.1/" xmlns:rdf="http://www.w3.org/1999/02/22-rdf-syntax-ns#">
 <defs>
  <filter id="filter2761" x="-.024" y="-.024" width="1.048" height="1.048" color-interpolation-filters="sRGB">
   <feGaussianBlur stdDeviation="0.14552168"/>
  </filter>
  <linearGradient id="linearGradient2645-3" x1="15.752" x2="1.3927" y1="281.24" y2="295.6" gradientTransform="translate(-.13126 -280.07)" gradientUnits="userSpaceOnUse">
   <stop stop-color="#dc28e6" offset="0"/>
   <stop stop-color="#8c14e6" offset="1"/>
  </linearGradient>
  <filter id="b" x="-.064998" y="-.055716" width="1.13" height="1.1114" color-interpolation-filters="sRGB">
   <feGaussianBlur stdDeviation="0.97496488"/>
  </filter>
 </defs>
 <metadata>
  <rdf:RDF>
   <cc:Work rdf:about="">
    <dc:format>image/svg+xml</dc:format>
    <dc:type rdf:resource="http://purl.org/dc/dcmitype/StillImage"/>
    <dc:title/>
   </cc:Work>
  </rdf:RDF>
 </metadata>
 <path d="m10.709 1.05c4.405 0 5.0345 0.67282 5.0345 5.388v3.7761c0 4.7152-0.62954 5.388-5.0345 5.388h-4.4832c-4.405 0-5.0346-0.6728-5.0346-5.388v-3.7761c0-4.7152 0.62954-5.388 5.0346-5.388z" enable-background="new" fill="#141414" filter="url(#filter2761)" opacity=".3"/>
 <path d="m10.709 1.05c4.405 0 5.0345 0.67282 5.0345 5.388v3.7761c0 4.7152-0.62954 5.388-5.0345 5.388h-4.4832c-4.405 0-5.0346-0.6728-5.0346-5.388v-3.7761c0-4.7152 0.62954-5.388 5.0346-5.388z" enable-background="new" fill="url(#linearGradient2645-3)"/>
 <path transform="matrix(.2835 0 0 .2835 -16.75 -2.0618)" d="m103.77 18.547c-0.85213-0.0398-3.2532 0.2448-7.0059 2.8555-2.0994-0.63304-4.4958-0.86737-6.9941-0.86133-2.2854 0.0055-4.6554 0.19277-6.959 0.86133-3.7539-2.6105-5.6724-2.8937-6.5254-2.8535-0.28439 0.0134-0.42188 0.05664-0.42188 0.05664-1.4271 3.7021-0.5242 6.4409-0.25391 7.1211-1.6765 1.8792-2.6602 4.2789-2.6602 7.2148 0 10.307 6.6786 12.616 12.498 13.295-0.74814 0.67208-1.2189 2.0617-1.457 3.7988-1.4931 0.68858-5.4982 2.3738-7.8359-1.7363 0 0-1.383-2.5836-4.0137-2.7734 0 0-2.5574-0.03303-0.17773 1.6348 0 0 1.7179 0.82775 2.9102 3.9355 0 0 1.7706 4.7304 9.0605 3.1055 0.0073 1.2621 0.01333 3.6146 0.01953 5.8906 1.621 0.28979 3.2893 0.44922 4.9961 0.44922 2.7819 0 5.4633-0.40752 7.9961-1.1562 0.0075-2.775 0.01563-6.0522 0.01563-8.1875 0-2.5083-1.037-4.1499-1.9766-4.9805 5.837-0.66546 11.965-2.9417 11.965-13.275 0-2.9359-0.81648-5.3377-2.4961-7.2168 0.26869-0.68034 1.1705-3.417-0.25977-7.1191 0 0-0.13782-0.04533-0.42187-0.05859z" filter="url(#b)" opacity=".15" stroke-width=".93331"/>
 <path d="m12.668 3.6974c-0.24156-0.011282-0.92221 0.069399-1.9861 0.80948-0.59514-0.17946-1.2745-0.24589-1.9827-0.24417-0.6479 0.001561-1.3197 0.054649-1.9728 0.24417-1.0642-0.74005-1.6081-0.82032-1.8499-0.80892-0.08062 0.0038-0.11959 0.016057-0.11959 0.016057-0.40457 1.0495-0.1486 1.8259-0.07198 2.0187-0.47526 0.5327-0.7541 1.213-0.7541 2.0453 0 2.922 1.8933 3.5766 3.543 3.7689-0.21209 0.19052-0.34554 0.58445-0.41306 1.0769-0.42324 0.1952-1.5587 0.67293-2.2214-0.49222 0 0-0.39208-0.73243-1.1378-0.78622 0 0-0.72497-0.0094-0.05039 0.46344 0 0 0.48698 0.23465 0.82498 1.1157 0 0 0.50193 1.341 2.5685 0.88036 0.0021 0.35776 0.0038 1.1504 0.0055 1.7956 0.54617 0.0019 0.93245 0.0016 1.4163 0.0016 0.78863 0 1.4054-0.0013 2.2668-0.0013 0.0021-0.78667 0.0044-2.0422 0.0044-2.6476 0-0.71108-0.29397-1.1764-0.56032-1.4119 1.6547-0.18865 3.3919-0.83392 3.3919-3.7634 0-0.83228-0.23146-1.5131-0.70761-2.0459 0.07617-0.19287 0.33183-0.96867-0.07364-2.0182 0 0-0.03907-0.012851-0.1196-0.01661z" fill="#fff" stroke-width=".26458"/>
</svg>
