<?xml version="1.0" encoding="UTF-8"?>
<!-- Created with Inkscape (http://www.inkscape.org/) -->
<svg width="64" height="64" version="1.1" viewBox="0 0 16.933 16.933" xmlns="http://www.w3.org/2000/svg" xmlns:cc="http://creativecommons.org/ns#" xmlns:dc="http://purl.org/dc/elements/1.1/" xmlns:rdf="http://www.w3.org/1999/02/22-rdf-syntax-ns#">
 <defs>
  <style type="text/css"/>
  <filter id="filter2761-3" x="-.024" y="-.024" width="1.048" height="1.048" color-interpolation-filters="sRGB">
   <feGaussianBlur stdDeviation="0.14552168"/>
  </filter>
  <linearGradient id="linearGradient4673" x1="1.2573" x2="15.644" y1="15.429" y2="1.1082" gradientTransform="translate(-7e-4 .21485)" gradientUnits="userSpaceOnUse">
   <stop stop-color="#32dcff" offset="0"/>
   <stop stop-color="#3296ff" offset="1"/>
  </linearGradient>
 </defs>
 <metadata>
  <rdf:RDF>
   <cc:Work rdf:about="">
    <dc:format>image/svg+xml</dc:format>
    <dc:type rdf:resource="http://purl.org/dc/dcmitype/StillImage"/>
    <dc:title/>
   </cc:Work>
  </rdf:RDF>
 </metadata>
 <path d="m10.708 1.1905c4.405 0 5.0345 0.67282 5.0345 5.388v3.7761c0 4.7152-0.62954 5.388-5.0345 5.388h-4.4832c-4.405 0-5.0346-0.6728-5.0346-5.388v-3.7761c0-4.7152 0.62954-5.388 5.0346-5.388z" enable-background="new" fill="#141414" filter="url(#filter2761-3)" opacity=".3"/>
 <path d="m10.708 1.1906c4.405 0 5.0344 0.67282 5.0344 5.3879v3.7761c0 4.7153-0.62954 5.3879-5.0344 5.3879h-4.4833c-4.405 0-5.0347-0.6728-5.0347-5.3879v-3.7761c0-4.7153 0.62954-5.3879 5.0347-5.3879z" enable-background="new" fill="url(#linearGradient4673)"/>
 <path d="m12.669 3.8377c-0.24156-0.011282-0.92221 0.069399-1.9861 0.80948-0.59514-0.17946-1.2745-0.24589-1.9827-0.24417-0.6479 0.00156-1.3197 0.054649-1.9728 0.24417-1.0642-0.74005-1.6081-0.82032-1.8499-0.80892-0.08062 0.0038-0.11959 0.016057-0.11959 0.016057-0.40457 1.0495-0.1486 1.8259-0.07198 2.0187-0.47526 0.5327-0.7541 1.213-0.7541 2.0453 0 2.922 1.8933 3.5766 3.543 3.7689-0.21209 0.19052-0.34554 0.58445-0.41306 1.0769-0.42324 0.1952-1.5587 0.67293-2.2214-0.49222 0 0-0.39208-0.73243-1.1378-0.78622 0 0-0.72497-0.0094-0.05039 0.46344 0 0 0.48698 0.23465 0.82498 1.1157 0 0 0.50193 1.341 2.5685 0.88036 0.0021 0.35776 0.0038 1.1504 0.0055 1.7956 0.54617 0.0019 0.93245 0.0016 1.4163 0.0016 0.78863 0 1.4054-0.0013 2.2668-0.0013 0.0021-0.78667 0.0044-2.0422 0.0044-2.6476 0-0.71108-0.29397-1.1764-0.56032-1.4119 1.6547-0.18865 3.3919-0.83392 3.3919-3.7634 0-0.83228-0.23146-1.5131-0.70761-2.0459 0.07617-0.19287 0.33183-0.96867-0.07364-2.0182 0 0-0.03907-0.012851-0.1196-0.01661z" fill="#fff" stroke-width=".26458"/>
 <circle cx="-327.3" cy="-349.81" r="0" fill="#5e4aa6" stroke-width=".26458"/>
 <g transform="translate(3.0582 -21.439)" fill="#5e4aa6" stroke-width=".26458">
  <circle cx="-299.02" cy="-338.77" r="0"/>
  <circle cx="-8.1062" cy="-3.9487" r="0" fill-rule="evenodd"/>
  <circle cx="-278.25" cy="-357.69" r="0"/>
  <circle cx="12.663" cy="-22.859" r="0" fill-rule="evenodd"/>
 </g>
</svg>
