<svg width="64" height="64" version="1.1" viewBox="0 0 16.933 16.933" xmlns="http://www.w3.org/2000/svg" xmlns:xlink="http://www.w3.org/1999/xlink">
 <defs>
  <linearGradient id="d" x1="13.751" x2="3.1103" y1="288.58" y2="288.58" gradientUnits="userSpaceOnUse">
   <stop stop-color="#ff3c69" offset="0"/>
   <stop stop-color="#ff462b" offset="1"/>
  </linearGradient>
  <linearGradient id="c" x1="4.0775" x2="11.616" y1="288.53" y2="288.53" gradientUnits="userSpaceOnUse">
   <stop stop-color="#ffbe14" offset="0"/>
   <stop stop-color="#ff8214" offset="1"/>
  </linearGradient>
  <linearGradient id="b" x1="4.8092" x2="8.4941" y1="288.53" y2="288.53" gradientUnits="userSpaceOnUse">
   <stop stop-color="#14dc78" offset="0"/>
   <stop stop-color="#14a03c" offset="1"/>
  </linearGradient>
  <linearGradient id="a" x1="5.5409" x2="8.4941" y1="288.97" y2="288.97" gradientUnits="userSpaceOnUse">
   <stop stop-color="#32b4ff" offset="0"/>
   <stop stop-color="#3287ff" offset="1"/>
  </linearGradient>
 </defs>
 <g transform="translate(0 -280.07)">
  <g>
   <circle cx="-330.35" cy="-48.312" r="0" fill="#5e4aa6" stroke-width=".26458"/>
   <circle cx="8.4935" cy="288.8" r="7.9375" opacity=".2" stroke-width=".14032"/>
   <circle cx="8.4935" cy="288.53" r="7.9375" fill="#fafafa" stroke-width=".14032"/>
   <ellipse cx="-39.434" cy="286.51" r=".90502" fill="#5e4aa6" fill-rule="evenodd" stroke-width=".26458"/>
  </g>
  <path class="st0" d="m9.911 288.53c0-0.78141-0.63552-1.4169-1.4169-1.4169-0.78141 0-1.4169 0.63551-1.4169 1.4169s0.63552 1.4169 1.4169 1.4169c0.78141 0 1.4169-0.63662 1.4169-1.4169z" fill="none" stroke-width=".11052"/>
  <g fill="#e6e6e6" stroke-width=".11052">
   <path class="st1" d="m8.4941 293.02v0.58578c2.7985 0 5.0753-2.2768 5.0753-5.0753h-0.58578c0.0011 2.4758-2.0138 4.4895-4.4895 4.4895z"/>
   <path class="st1" d="m12.253 288.53c0 2.0723-1.6866 3.7589-3.7589 3.7589v0.58579c2.3951 0 4.3436-1.9486 4.3436-4.3436 0-1.1981-0.48741-2.2834-1.2732-3.0704l-0.41336 0.41336c0.67973 0.67973 1.1019 1.6192 1.1019 2.6559z"/>
   <path class="st1" d="m11.521 288.53c0 1.6689-1.3583 3.0273-3.0273 3.0273v0.58578c1.9917 0 3.6119-1.6203 3.6119-3.612 0-1.9916-1.6203-3.6119-3.6119-3.6119v0.58578c1.6689-2e-3 3.0273 1.355 3.0273 3.0251z"/>
   <path class="st1" d="m8.4941 286.24c1.2655 0 2.2956 1.0301 2.2956 2.2956s-1.029 2.2945-2.2956 2.2945v0.58579c1.5882 0 2.8803-1.292 2.8803-2.8803s-1.292-2.8803-2.8803-2.8803c-0.79357 0-1.5142 0.32273-2.0359 0.8444l0.41336 0.41337c0.41557-0.41557 0.9903-0.6731 1.6225-0.6731z"/>
   <path class="st1" d="m8.4941 286.97c0.86209 0 1.5639 0.70183 1.5639 1.5639s-0.70183 1.5639-1.5639 1.5639v0.58578c1.1848 0 2.1486-0.96377 2.1486-2.1486 0-1.1848-0.96378-2.1486-2.1486-2.1486-1.1848 0-2.1486 0.96378-2.1486 2.1486h0.58578c0-0.86319 0.70073-1.565 1.5628-1.565z"/>
  </g>
  <g stroke-width=".11052">
   <path class="st2" d="m8.4941 293.02v-0.0729c-2.436 0-4.4166-1.9817-4.4166-4.4166 0-2.436 1.9817-4.4177 4.4166-4.4177 2.436 0 4.4166 1.9817 4.4166 4.4177h0.73168c0-2.8394-2.31-5.1493-5.1493-5.1493-2.8394 0-5.1482 2.31-5.1482 5.1493s2.31 5.1493 5.1482 5.1493v-0.65979z" fill="url(#d)"/>
   <path class="st3" d="m8.4941 292.29v-0.0729c-2.0325 0-3.6849-1.6534-3.6849-3.6849 0-2.0326 1.6534-3.686 3.6849-3.686 1.0157 0 1.9375 0.41336 2.6051 1.0809l0.05195-0.0519 0.41336-0.41336 0.05194-0.0519c-0.8002-0.80021-1.9043-1.2954-3.1223-1.2954-2.436 0-4.4166 1.9817-4.4166 4.4177 0 2.436 1.9817 4.4166 4.4166 4.4166v-0.0729z" fill="url(#c)"/>
   <path class="st4" d="m8.4941 291.56v-0.073c-1.6291 0-2.9532-1.3252-2.9532-2.9532 0-0.79025 0.31168-1.5087 0.81788-2.0392 0.53826-0.56367 1.2965-0.91515 2.1353-0.91515v-0.73158c-2.0325 0-3.6849 1.6534-3.6849 3.686s1.6534 3.6849 3.6849 3.6849v-0.0729z" fill="url(#b)"/>
   <path class="st5" d="m8.4941 290.83v-0.0729c-1.2246 0-2.2215-0.99693-2.2215-2.2215 0-0.6123 0.24868-1.1682 0.65099-1.5706l-0.051945-0.0519-0.41336-0.41337-0.051945-0.0519c-0.01658 0.0166-0.03205 0.032-0.047527 0.0486-0.5062 0.53051-0.81788 1.2489-0.81788 2.0392 0 1.6291 1.3252 2.9532 2.9532 2.9532v-0.0729z" fill="url(#a)"/>
  </g>
  <path class="st6" d="m8.4941 290.1v-0.0729c-0.8212 0-1.4899-0.66867-1.4899-1.4899h-0.73167c0 1.2246 0.99693 2.2215 2.2215 2.2215v-0.0729z" fill="#58595b" stroke-width=".11052"/>
 </g>
</svg>
