<svg width="64" height="64" version="1.1" viewBox="0 0 16.933 16.933" xmlns="http://www.w3.org/2000/svg" xmlns:xlink="http://www.w3.org/1999/xlink">
 <defs>
  <linearGradient id="b" x1="252.44" x2="346.83" y1="260.08" y2="354.47" gradientUnits="userSpaceOnUse" spreadMethod="reflect">
   <stop offset="0"/>
   <stop stop-opacity="0" offset="1"/>
  </linearGradient>
  <filter id="h" x="-.095999" y="-.096001" width="1.192" height="1.192" color-interpolation-filters="sRGB">
   <feGaussianBlur stdDeviation="10.787499"/>
  </filter>
  <filter id="i" x="-.012" y="-.012" width="1.024" height="1.024" color-interpolation-filters="sRGB">
   <feGaussianBlur stdDeviation="1.3484374"/>
  </filter>
  <linearGradient id="c" x1="140.45" x2="217.69" y1="291.43" y2="214.2" gradientTransform="matrix(1.0838,0,0,1.0838,-21.332,-37.718)" gradientUnits="userSpaceOnUse" xlink:href="#a"/>
  <linearGradient id="a">
   <stop stop-color="#fff" offset="0"/>
   <stop stop-color="#fff" stop-opacity=".3" offset="1"/>
  </linearGradient>
  <linearGradient id="d" x1="299.57" x2="373.31" y1="298.93" y2="225.18" gradientTransform="matrix(1.0838,0,0,1.0838,-21.332,-37.718)" gradientUnits="userSpaceOnUse" xlink:href="#a"/>
  <linearGradient id="j" x1="30.5" x2="30.5" y1="17" y2="46" gradientUnits="userSpaceOnUse">
   <stop stop-color="#999" offset="0"/>
   <stop stop-color="#aeaeae" offset="1"/>
  </linearGradient>
 </defs>
 <circle cx="8.4935" cy="8.73" r="7.9375" opacity=".2" stroke-width=".14032"/>
 <circle cx="8.4935" cy="8.46" r="7.9375" fill="#fafafa" style="paint-order:normal"/>
 <circle cx="-330.35" cy="-328.38" r="0" fill="#5e4aa6" stroke-width=".26458"/>
 <g transform="matrix(.52916 0 0 .52916 -168.54 -98.158)" enable-background="new" stroke-width=".5">
  <g fill="#afb7c1" fill-opacity=".9969">
   <path transform="matrix(.5 0 0 .5 318.5 185.5)" d="m13 17v2h35v-2zm0 4v2h31v-2zm0 4v13h15v-13zm17 0v2h18v-2zm0 4v2h14v-2zm0 3.998v1.9824h18v-1.9824zm-17 7.002v2h35v-2zm0 4v2h16v-2z" color="#000000" enable-background="accumulate" fill="url(#j)" fill-opacity="1" stroke-width="1"/>
  </g>
  <path d="m330.75 199c-0.41421 0-0.75 0.33578-0.75 0.75001 0 0.4142 0.33579 0.74999 0.75 0.74999 0.41423 0 0.75002-0.33579 0.75002-0.74999 0-0.41423-0.33579-0.75001-0.75002-0.75001z" color="#000000" enable-background="accumulate" fill="#fff"/>
  <path d="m328.12 199.35-2.1197 3.6525h4.8195l-1.4086-2.6997-0.39699 0.76095z" color="#000000" enable-background="accumulate" fill="#fff"/>
 </g>
 <g transform="matrix(.019705 -.020181 .019705 .020181 1.2058 11.087)" enable-background="new" stroke-width="4.6908">
  <path d="m402.6 214.13c-0.0574-0.0429-0.12197-0.0718-0.19498-0.0934-2.608-0.772-18.882-3.5325-27.487-4.6615-12.712-1.668-27.568-2.6173-39.218-2.6047-3.8836 4e-3 -7.4116 0.11464-10.384 0.34188-15.226 1.163-35.222 4.5488-50.531 8.5568-9.541 2.497-9.8335 2.5443-17.212 2.8092-9.047 0.32501-12.618-0.1225-23.792-2.9795-11.15-2.851-19.85-4.5418-33.414-6.4918-13.599-1.956-20.242-2.3794-33.303-2.1214-14.096 0.279-26.425 1.4027-41.758 3.8047-6.0975 0.95461-17.319 2.9879-18.535 3.3571l-4e-3 1e-3 -1e-3 1e-3c-0.66715 0.2042-0.68688 0.62249-0.44211 10.073l0.25676 7.8607 0.99682 0.85129c0.54901 0.47 1.6017 1.17 2.3397 1.557 3.112 1.633 4.3845 6.8306 6.9915 19.58 2.877 14.065 4.54 19.642 7.943 26.652 0.97371 2.0062 2.0627 3.9168 3.2514 5.7393-10.435 8.2459-17.087 15.022-16.249 17.111 4.1161 10.248 19.76 9.2767 29.113-1.1328 0.48346-0.53807 0.97532-1.0715 1.4623-1.6078 0.92355 0.60807 1.8679 1.1949 2.8408 1.7506 4.746 2.711 11.154 4.4665 19.532 5.3535 3.775 0.4 16.785 0.16903 20.958-0.36797 8.394-1.087 16.747-3.297 22.512-5.959 12.5-5.773 21.83-17.885 27.989-36.329 1.3928-4.1725 3.5204-12.305 4.8702-18.348 4.3703-0.80291 8.8506-1.5658 13.417-2.2875 4.6431 0.73318 9.1958 1.5075 13.636 2.3246 1.3273 5.9004 3.2959 13.521 4.5846 17.486 5.144 15.826 12.748 27.361 22.269 33.781 6.644 4.48 14.61 7.2046 26.393 9.0236 6.985 1.079 20.843 1.1748 27.122 0.19085 7.5998-1.1916 12.796-2.9978 18.222-6.5755 0.47688 0.52535 0.95858 1.0479 1.4321 1.5749 9.353 10.409 24.995 11.382 29.111 1.1341 0.83753-2.0852-5.7894-8.844-16.196-17.072 2.3634-3.6248 4.3986-7.6526 5.959-11.893 1.811-4.923 2.8723-8.9952 4.8963-18.783 1.921-9.29 3.2774-16.539 4.2304-18.384 0.58199-1.124 1.5562-1.9606 4.4432-3.8116l1.8495-1.1877 0.0206-0.38033c6.2e-4 -1e-5 0.0728-1e-3 0.0728-1e-3l-0.0124-1.1245 0.14966-2.7502c0.125-2.342 0.24761-4.8695 0.27461-8.0625 0.0376-4.5798-2e-3 -5.6035-0.40367-5.9041zm-23.128 18.764c0.54643 0.79932 1.0335 1.6051 1.4334 2.4083 1.6099 3.2354 2.0067 6.9746 2.017 15.039a2.6823 2.6217 0 0 0 1e-3 1e-3c0.0153 13.377-2.2491 23.779-7.2098 31.916-19.505-14.563-48.105-31.835-68.217-36.458-7.3981-1.7007-15.753-3.4257-24.693-5.1489 36.389-4.3625 73.578-6.6495 96.668-7.7577zm-18.428-13.421c-23.843 3.2419-54.616 7.6107-85.089 12.513 0.33209-0.82495 0.71624-1.6167 1.1808-2.3699 2.1039-3.4109 5.4806-5.8138 10.084-7.9884 11.239-5.3099 25.292-7.9019 39.317-7.9348 12.135-0.0285 24.247 1.8617 34.507 5.7805zm-2.8532 72.178c1.2668 1.2906 2.5166 2.5958 3.758 3.9091-4.0405 2.2379-8.657 3.8295-13.997 4.8716-3.5339 0.69019-6.1588 0.86823-13.689 0.95563-10.116 0.11706-10.969 0.057-16.684-0.98446-9.179-1.6736-16.61-4.9047-22.706-10.406-6.0958-5.5016-10.798-13.139-15.046-23.463-2.6001-6.3234-4.3127-12.554-5.035-18.4 11.922 2.3808 22.82 5.093 31.905 8.193 19.965 6.8118 36.636 20.188 51.493 35.324zm-94.497-59.281c0.45556 0.39231 0.84537 0.86757 1.1877 1.4321-3.483 0.57783-6.9045 1.1602-10.325 1.7465-3.3856-0.58017-6.7716-1.1554-10.218-1.7273 1.6464-2.767 4.4292-3.3022 10.272-3.3022 4.6235 0 7.3338 0.3436 9.0841 1.8509zm-32.689-5.4757c0.67995 0.73491 1.2819 1.519 1.8042 2.3671 0.5611 0.91117 1.0099 1.8762 1.3785 2.8944-31.297-5.0473-62.944-9.5334-87.184-12.823 4.6055-1.7722 10.065-3.322 15.346-4.3567 6.3679-1.2472 13.055-1.8553 19.737-1.8742 14.702-0.0414 29.388 2.7435 40.679 8.1737 3.4496 1.6593 6.1984 3.4138 8.2382 5.6185zm4.1699 21.064c-0.94086 7.997-3.7153 16.442-8.3467 25.677-3.4287 6.8354-6.7002 11.689-10.541 15.443-7.8745 7.6966-18.269 11.732-32.323 12.839-14.75 1.1616-27.718-0.79761-37.155-5.9288 15.903-16.887 33.806-32.217 55.662-39.674 9.2909-3.17 20.463-5.9372 32.703-8.3563zm-8.8781-7.3046c-8.914 1.7189-17.246 3.4401-24.626 5.1366-20.261 4.6578-49.135 22.152-68.648 36.782-0.97111-1.5432-1.83-3.1251-2.5333-4.7109l-1e-3 -1e-3c-3.4306-7.7347-4.7434-15.695-4.7494-27.957-3e-3 -4.096 0.0102-6.3857 0.13593-8.1051 0.12572-1.7186 0.41917-2.9204 0.83207-4.2043 0.50976-1.5853 1.3078-3.1711 2.3355-4.7219 23.022 1.0954 60.538 3.382 97.254 7.781z" fill="url(#b)" filter="url(#h)" opacity=".4" stroke-width="4.6908"/>
  <path transform="matrix(1.0838,0,0,1.0838,-21.332,-37.718)" d="m402.6 214.13c-0.0574-0.0429-0.12197-0.0718-0.19498-0.0934-2.608-0.772-18.882-3.5325-27.487-4.6615-12.712-1.668-27.568-2.6173-39.218-2.6047-3.8836 4e-3 -7.4116 0.11464-10.384 0.34188-15.226 1.163-35.222 4.5488-50.531 8.5568-9.541 2.497-9.8335 2.5443-17.212 2.8092-9.047 0.32501-12.618-0.1225-23.792-2.9795-11.15-2.851-19.85-4.5418-33.414-6.4918-13.599-1.956-20.242-2.3794-33.303-2.1214-14.096 0.279-26.425 1.4027-41.758 3.8047-6.0975 0.95461-17.319 2.9879-18.535 3.3571l-4e-3 1e-3 -1e-3 1e-3c-0.66715 0.2042-0.68688 0.62249-0.44211 10.073l0.25676 7.8607 0.99682 0.85129c0.54901 0.47 1.6017 1.17 2.3397 1.557 3.112 1.633 4.3845 6.8306 6.9915 19.58 2.877 14.065 4.54 19.642 7.943 26.652 0.97371 2.0062 2.0627 3.9168 3.2514 5.7393-10.435 8.2459-17.087 15.022-16.249 17.111 4.1161 10.248 19.76 9.2767 29.113-1.1328 0.48346-0.53807 0.97532-1.0715 1.4623-1.6078 0.92355 0.60807 1.8679 1.1949 2.8408 1.7506 4.746 2.711 11.154 4.4665 19.532 5.3535 3.775 0.4 16.785 0.16903 20.958-0.36797 8.394-1.087 16.747-3.297 22.512-5.959 12.5-5.773 21.83-17.885 27.989-36.329 1.3928-4.1725 3.5204-12.305 4.8702-18.348 4.3703-0.80291 8.8506-1.5658 13.417-2.2875 4.6431 0.73318 9.1958 1.5075 13.636 2.3246 1.3273 5.9004 3.2959 13.521 4.5846 17.486 5.144 15.826 12.748 27.361 22.269 33.781 6.644 4.48 14.61 7.2046 26.393 9.0236 6.985 1.079 20.843 1.1748 27.122 0.19085 7.5998-1.1916 12.796-2.9978 18.222-6.5755 0.47688 0.52535 0.95858 1.0479 1.4321 1.5749 9.353 10.409 24.995 11.382 29.111 1.1341 0.83753-2.0852-5.7894-8.844-16.196-17.072 2.3634-3.6248 4.3986-7.6526 5.959-11.893 1.811-4.923 2.8723-8.9952 4.8963-18.783 1.921-9.29 3.2774-16.539 4.2304-18.384 0.58199-1.124 1.5562-1.9606 4.4432-3.8116l1.8495-1.1877 0.0206-0.38033c6.2e-4 -1e-5 0.0728-1e-3 0.0728-1e-3l-0.0124-1.1245 0.14966-2.7502c0.125-2.342 0.24761-4.8695 0.27461-8.0625 0.0376-4.5798-2e-3 -5.6035-0.40367-5.9041zm-23.128 18.764c0.54643 0.79932 1.0335 1.6051 1.4334 2.4083 1.6099 3.2354 2.0067 6.9746 2.017 15.039a2.6823 2.6217 0 0 0 1e-3 1e-3c0.0153 13.377-2.2491 23.779-7.2098 31.916-19.505-14.563-48.105-31.835-68.217-36.458-7.3981-1.7007-15.753-3.4257-24.693-5.1489 36.389-4.3625 73.578-6.6495 96.668-7.7577zm-18.428-13.421c-23.843 3.2419-54.616 7.6107-85.089 12.513 0.33209-0.82495 0.71624-1.6167 1.1808-2.3699 2.1039-3.4109 5.4806-5.8138 10.084-7.9884 11.239-5.3099 25.292-7.9019 39.317-7.9348 12.135-0.0285 24.247 1.8617 34.507 5.7805zm-2.8532 72.178c1.2668 1.2906 2.5166 2.5958 3.758 3.9091-4.0405 2.2379-8.657 3.8295-13.997 4.8716-3.5339 0.69019-6.1588 0.86823-13.689 0.95563-10.116 0.11706-10.969 0.057-16.684-0.98446-9.179-1.6736-16.61-4.9047-22.706-10.406-6.0958-5.5016-10.798-13.139-15.046-23.463-2.6001-6.3234-4.3127-12.554-5.035-18.4 11.922 2.3808 22.82 5.093 31.905 8.193 19.965 6.8118 36.636 20.188 51.493 35.324zm-94.497-59.281c0.45556 0.39231 0.84537 0.86757 1.1877 1.4321-3.483 0.57783-6.9045 1.1602-10.325 1.7465-3.3856-0.58017-6.7716-1.1554-10.218-1.7273 1.6464-2.767 4.4292-3.3022 10.272-3.3022 4.6235 0 7.3338 0.3436 9.0841 1.8509zm-32.689-5.4757c0.67995 0.73491 1.2819 1.519 1.8042 2.3671 0.5611 0.91117 1.0099 1.8762 1.3785 2.8944-31.297-5.0473-62.944-9.5334-87.184-12.823 4.6055-1.7722 10.065-3.322 15.346-4.3567 6.3679-1.2472 13.055-1.8553 19.737-1.8742 14.702-0.0414 29.388 2.7435 40.679 8.1737 3.4496 1.6593 6.1984 3.4138 8.2382 5.6185zm4.1699 21.064c-0.94086 7.997-3.7153 16.442-8.3467 25.677-3.4287 6.8354-6.7002 11.689-10.541 15.443-7.8745 7.6966-18.269 11.732-32.323 12.839-14.75 1.1616-27.718-0.79761-37.155-5.9288 15.903-16.887 33.806-32.217 55.662-39.674 9.2909-3.17 20.463-5.9372 32.703-8.3563zm-8.8781-7.3046c-8.914 1.7189-17.246 3.4401-24.626 5.1366-20.261 4.6578-49.135 22.152-68.648 36.782-0.97111-1.5432-1.83-3.1251-2.5333-4.7109l-1e-3 -1e-3c-3.4306-7.7347-4.7434-15.695-4.7494-27.957-3e-3 -4.096 0.0102-6.3857 0.13593-8.1051 0.12572-1.7186 0.41917-2.9204 0.83207-4.2043 0.50976-1.5853 1.3078-3.1711 2.3355-4.7219 23.022 1.0954 60.538 3.382 97.254 7.781z" filter="url(#i)" opacity=".1" stroke-width="4.3282"/>
  <path d="m416.31 192.73s-147.27 18.256-217.55 34.413c-36.828 8.4662-99.935 56.072-97.346 62.518 4.461 11.107 21.415 10.053 31.552-1.2285 18.806-20.931 40.029-40.796 66.66-49.883 65.509-22.351 216.89-26.382 216.89-26.382z" color="#000000" enable-background="accumulate" fill="#636363"/>
  <path d="m95.899 192.74s147.27 18.256 217.55 34.413c36.828 8.4662 99.935 56.072 97.346 62.518-4.461 11.107-21.415 10.053-31.552-1.2285-18.806-20.931-40.029-40.796-66.66-49.883-65.509-22.351-216.89-26.382-216.89-26.382z" color="#000000" enable-background="accumulate" fill="#636363"/>
  <path d="m344.02 184.86c-4.209 4e-3 -8.033 0.12415-11.255 0.37044-16.502 1.2604-38.171 4.9298-54.763 9.2736-10.34 2.7062-10.658 2.7588-18.655 3.046-9.805 0.35223-13.676-0.1338-25.787-3.2302-12.084-3.0899-21.513-4.9228-36.214-7.0362-14.738-2.1199-21.938-2.5784-36.093-2.2988-15.277 0.30237-28.639 1.5202-45.257 4.1235-6.6111 1.035-18.783 3.2399-20.092 3.6387-0.72506 0.22109-0.74604 0.66677-0.48051 10.918l0.2773 8.52 1.0817 0.92291c0.595 0.50938 1.7361 1.2676 2.5359 1.6871 3.3728 1.7698 4.7505 7.4034 7.5759 21.221 3.1181 15.243 4.9208 21.288 8.6089 28.886 4.915 10.127 12.388 18.127 22.129 23.691 5.1437 2.9382 12.09 4.8408 21.17 5.8021 4.0913 0.43351 18.19 0.18404 22.713-0.39796 9.0973-1.1781 18.15-3.5732 24.398-6.4583 13.547-6.2567 23.66-19.385 30.336-39.374 2.0354-6.0974 5.5322-20.028 6.435-25.636 1.6831-10.457 3.3414-11.93 13.454-11.93 10.022 0 11.75 1.4875 13.448 11.581 0.9559 5.6758 4.307 19.175 6.2297 25.09 5.575 17.152 13.817 29.654 24.135 36.612 7.2007 4.8554 15.834 7.8081 28.604 9.7795 7.5703 1.1694 22.588 1.2739 29.394 0.20745 10.762-1.6875 17.075-4.4983 25.308-11.265 6.8496-5.6325 12.82-14.459 16.447-24.318 1.9627-5.3355 3.1132-9.7489 5.3068-20.357 2.082-10.068 3.5521-17.924 4.5849-19.923 0.63077-1.2182 1.6868-2.1259 4.8157-4.132l2.0046-1.287 0.24978-4.6125c0.13547-2.5382 0.2692-5.2775 0.29846-8.738 0.0466-5.6726-0.0169-6.3131-0.64985-6.5006-2.8265-0.83669-20.463-3.827-29.789-5.0506-13.778-1.8078-29.878-2.8374-42.505-2.8238zm-166.48 6.8605c15.934-0.0449 31.851 2.9735 44.088 8.8587 4.9849 2.3978 8.618 4.9785 10.882 8.6555 2.2643 3.677 2.9678 8.0895 2.9635 13.746-9e-3 10.587-3.1507 21.796-9.445 34.347-3.716 7.4082-7.2618 12.667-11.424 16.735-8.5342 8.3415-19.8 12.715-35.031 13.916-16.377 1.2897-30.74-0.95881-41.023-6.8287-6.8872-3.9326-13.528-11.562-16.934-19.244h2e-3c-3.7186-8.3834-5.1415-17.009-5.148-30.3-3e-3 -4.4392 0.01-6.9212 0.14605-8.7846 0.13626-1.8626 0.45425-3.166 0.90175-4.5574 1.8251-5.6758 7.0279-11.355 13.528-15.668 5.3319-3.5389 15.519-6.9663 25.103-8.8439 6.9015-1.3517 14.147-2.0116 21.39-2.0321zm156.55 0.64138c15.2-0.0357 30.372 2.6982 42.443 8.4036 6.8047 3.2155 13.573 9.1753 16.481 15.016 1.7448 3.5065 2.1755 7.5592 2.1866 16.299a2.907 2.8414 0 0 0 0 2e-3c0.0216 18.878-4.1263 32.303-13.492 41.94-6.2363 6.416-14.075 10.328-24.409 12.345-3.83 0.74803-6.6751 0.9425-14.836 1.0372-10.963 0.12686-11.888 0.0597-18.082-1.069-9.9481-1.8138-18.003-5.3156-24.61-11.278-6.6065-5.9625-11.702-14.238-16.306-25.427-3.7739-9.1781-5.8286-18.181-5.8804-26.235-0.0353-5.636 0.68332-10.081 2.9635-13.778 2.2802-3.6967 5.9402-6.3009 10.929-8.6576 12.181-5.7548 27.411-8.5627 42.611-8.5983z" fill="#3b3b3b" stroke="#3b3b3b" stroke-width="4.6908"/>
  <g stroke-width="4.6376">
   <path d="m177.53 191.72c-7.2426 0.0205-14.487 0.6804-21.388 2.0321-9.5842 1.8776-19.773 5.305-25.105 8.8439-6.5004 4.3135-11.702 9.9926-13.527 15.668-0.44749 1.3914-0.76683 2.6948-0.90308 4.5574-0.13633 1.8635-0.14789 4.3454-0.1451 8.7846 7e-3 13.29 1.4292 21.916 5.1478 30.3h-2e-3c3.4061 7.682 10.046 15.311 16.933 19.244 10.283 5.8699 24.648 8.1184 41.025 6.8287 15.231-1.2005 26.496-5.5742 35.03-13.916 4.1625-4.0685 7.708-9.327 11.424-16.735 6.2944-12.551 9.4364-23.76 9.4445-34.347 4e-3 -5.6568-0.69835-10.069-2.9626-13.746-2.2643-3.677-5.8976-6.2577-10.883-8.6555-12.237-5.8852-28.155-8.9036-44.089-8.8587z" fill="url(#c)" opacity=".5"/>
   <path d="m334.09 192.36c-15.2 0.0357-30.429 2.8435-42.61 8.5983-4.9887 2.3568-8.65 4.9609-10.93 8.6576-2.2802 3.6967-2.998 8.1421-2.9626 13.778 0.0518 8.0546 2.106 17.057 5.8798 26.235 4.6036 11.188 9.6989 19.464 16.305 25.427 6.6065 5.9625 14.663 9.4644 24.611 11.278 6.194 1.1287 7.1181 1.1958 18.081 1.069 8.1614-0.0947 11.005-0.2892 14.835-1.0372 10.333-2.0166 18.173-5.929 24.409-12.345 9.3661-9.6364 13.514-23.062 13.492-41.94a2.907 2.8414 0 0 0 0-2e-3c-0.0112-8.74-0.44252-12.793-2.1873-16.299-2.9083-5.8411-9.6761-11.801-16.481-15.016-12.072-5.7054-27.243-8.4393-42.443-8.4036z" fill="url(#d)" opacity=".5"/>
   <path d="m206.95 275.67c-6.4104 3.4113-14.173 5.3601-23.877 6.0216-16.038 1.092-29.898-1.3479-39.419-6.8515l-2e-3 2e-3c-6.0991-3.5264-12.593-10.903-15.76-17.901a3.7246 3.6455 45 0 0-3e-3 -0.0129c-3.6054-7.9741-5.0534-16.018-5.2011-29.19-0.0508-4.4796-0.0582-6.9443 0.0456-8.6056 0.0994-1.5902 0.31481-2.4928 0.70417-3.7409 0.14912-0.47811 0.34312-0.96799 0.56426-1.4634-1.4176 1.8628-2.4686 3.7203-3.0226 5.4431-0.39847 1.239-0.622 2.1334-0.73718 3.7079-0.12033 1.6447-0.13796 4.0845-0.13518 8.516 6e-3 13.031 1.3523 20.972 4.8348 28.824a3.6455 3.6455 0 0 1 5e-3 0.0142c3.0591 6.8908 9.4051 14.119 15.402 17.543l2e-3 -2e-3c9.3621 5.3441 23.049 7.6116 38.929 6.3611 11.7-0.92217 20.577-3.6985 27.671-8.6653z" fill="#fff" opacity=".5"/>
   <path d="m374.54 274.25c-4.0101 2.2766-8.6794 3.8815-14.343 4.9402-3.581 0.66995-5.9468 0.81581-14.116 0.84091-11.034 0.0335-11.152 0.0304-17.36-1.1521-9.4444-1.8001-16.644-5.0334-22.629-10.445-6.0037-5.4279-10.882-13.14-15.466-24.092l2e-3 -2e-3c-3.7007-8.8481-5.6836-17.415-5.7936-24.772-0.0624-4.212 0.34623-7.2577 1.3407-9.6776-0.66688 0.68136-1.2391 1.3894-1.7054 2.1455-1.6407 2.6599-2.3088 6.1005-2.276 11.33 0.0469 7.293 1.9398 15.77 5.5343 24.512h-3e-3c4.4525 10.821 9.2263 18.428 15.133 23.759 5.8888 5.3148 13 8.4599 22.349 10.165 6.1462 1.12 6.2619 1.1216 17.203 0.99495 8.1006-0.094 10.448-0.25792 14.005-0.95251 7.5371-1.4709 13.316-3.8958 18.126-7.5949z" fill="#fff" opacity=".5"/>
  </g>
 </g>
</svg>
