<?xml version="1.0" encoding="UTF-8"?>
<!-- Created with Inkscape (http://www.inkscape.org/) -->
<svg width="64" height="64" version="1.1" viewBox="0 0 16.933 16.933" xmlns="http://www.w3.org/2000/svg" xmlns:cc="http://creativecommons.org/ns#" xmlns:dc="http://purl.org/dc/elements/1.1/" xmlns:rdf="http://www.w3.org/1999/02/22-rdf-syntax-ns#">
 <defs>
  <filter id="filter2761" x="-.024" y="-.024" width="1.048" height="1.048" color-interpolation-filters="sRGB">
   <feGaussianBlur stdDeviation="0.14552168"/>
  </filter>
  <linearGradient id="linearGradient1449" x1="3.464" x2="13.856" y1="13.408" y2="2.9603" gradientUnits="userSpaceOnUse">
   <stop stop-color="#ff503c" offset="0"/>
   <stop stop-color="#ff4646" offset="1"/>
  </linearGradient>
  <filter id="filter1491" x="-.084" y="-.084" width="1.168" height="1.168" color-interpolation-filters="sRGB">
   <feGaussianBlur stdDeviation="1.4131935"/>
  </filter>
 </defs>
 <metadata>
  <rdf:RDF>
   <cc:Work rdf:about="">
    <dc:format>image/svg+xml</dc:format>
    <dc:type rdf:resource="http://purl.org/dc/dcmitype/StillImage"/>
    <dc:title/>
   </cc:Work>
  </rdf:RDF>
 </metadata>
 <path d="m10.709 1.05c4.405 0 5.0345 0.67282 5.0345 5.388v3.7761c0 4.7152-0.62954 5.388-5.0345 5.388h-4.4832c-4.405 0-5.0346-0.6728-5.0346-5.388v-3.7761c0-4.7152 0.62954-5.388 5.0346-5.388z" enable-background="new" fill="#141414" filter="url(#filter2761)" opacity=".3"/>
 <path d="m10.709 0.97579c4.405 0 5.0345 0.67282 5.0345 5.388v3.7761c0 4.7152-0.62954 5.388-5.0345 5.388h-4.4832c-4.405 0-5.0346-0.6728-5.0346-5.388v-3.7761c0-4.7152 0.62954-5.388 5.0346-5.388z" enable-background="new" fill="#fafafa"/>
 <path transform="matrix(.26458 0 0 .26458 -29.5 5.1602e-5)" d="m143.5 11a20.189 20.189 0 0 0-20.189 20.189 20.189 20.189 0 0 0 20.189 20.188 20.189 20.189 0 0 0 20.188-20.188 20.189 20.189 0 0 0-20.188-20.189zm0 6.75a13.439 13.439 0 0 1 13.438 13.439 13.439 13.439 0 0 1-13.438 13.438 13.439 13.439 0 0 1-13.439-13.438 13.439 13.439 0 0 1 13.439-13.439z" fill="#ff4646" filter="url(#filter1491)" opacity=".7"/>
 <circle cx="8.4674" cy="8.2518" r="3.5557" fill="none" stroke="url(#linearGradient1449)" stroke-dashoffset=".42096" stroke-width="3.534"/>
</svg>
