<svg width="64" height="64" version="1.1" viewBox="0 0 16.933 16.933" xmlns="http://www.w3.org/2000/svg" xmlns:xlink="http://www.w3.org/1999/xlink">
 <defs>
  <linearGradient id="a" x1="-6.1472" x2="-6.1472" y1="-137.82" y2="-100.78" gradientTransform="matrix(.53033 0 0 .53033 11.536 352.06)" gradientUnits="userSpaceOnUse">
   <stop stop-color="#ff8214" offset="0"/>
   <stop stop-color="#ff6464" offset="1"/>
  </linearGradient>
  <clipPath id="SVGID_2_">
   <use width="100%" height="100%" xlink:href="#SVGID_1_"/>
  </clipPath>
  <rect id="SVGID_1_" x="247.79" y="352.04" width="99.69" height="99.8"/>
 </defs>
 <g transform="translate(0 -280.07)">
  <circle cx="-330.35" cy="-48.312" r="0" fill="#5e4aa6" stroke-width=".26458"/>
  <ellipse cx="-39.434" cy="286.51" r=".90502" fill="#5e4aa6" fill-rule="evenodd" stroke-width=".26458"/>
  <circle cx="8.4935" cy="288.8" r="7.9375" opacity=".2" stroke-width=".14032"/>
  <circle cx="8.4935" cy="288.53" r="7.9375" fill="url(#a)" stroke-width=".14032"/>
  <path class="st0" transform="matrix(.085856 0 0 .085856 -17.056 254.76)" d="m247.78 356.75v71.76c0 3.5 2.63 7.26 5.87 8.42l41.86 14.79v-84.42l-41.86-14.79c-3.24-1.16-5.87 0.74-5.87 4.24zm93.69-4.33-14.84 6.44v71.76c0 3.5-2.32 7.91-5.19 9.83l-11.41 7.75 31.44-11.36c3.28-1.12 5.91-4.83 5.91-8.33v-71.76c0.01-3.5-2.63-5.42-5.91-4.33zm-18.99 76.09v-71.76c0-3.5-2.32-4.75-5.19-2.83l-17.64 13.38v84.42l17.64-13.38c2.87-1.92 5.19-6.33 5.19-9.83z" clip-path="url(#SVGID_2_)" fill="#ff5050" opacity=".5"/>
  <path class="st0" transform="matrix(.085856 0 0 .085856 -17.056 254.39)" d="m247.78 356.75v71.76c0 3.5 2.63 7.26 5.87 8.42l41.86 14.79v-84.42l-41.86-14.79c-3.24-1.16-5.87 0.74-5.87 4.24zm93.69-4.33-14.84 6.44v71.76c0 3.5-2.32 7.91-5.19 9.83l-11.41 7.75 31.44-11.36c3.28-1.12 5.91-4.83 5.91-8.33v-71.76c0.01-3.5-2.63-5.42-5.91-4.33zm-18.99 76.09v-71.76c0-3.5-2.32-4.75-5.19-2.83l-17.64 13.38v84.42l17.64-13.38c2.87-1.92 5.19-6.33 5.19-9.83z" clip-path="url(#SVGID_2_)" fill="#fff"/>
 </g>
</svg>
