<svg width="64" height="64" version="1.1" viewBox="0 0 16.933 16.933" xmlns="http://www.w3.org/2000/svg">
 <defs>
  <linearGradient id="a" x1="8.0543" x2="7.8932" y1="282.04" y2="295.49" gradientUnits="userSpaceOnUse">
   <stop stop-color="#f9f9f9" offset="0"/>
   <stop stop-color="#eaeaea" offset="1"/>
  </linearGradient>
  <filter id="b" x="-.062744" y="-.057486" width="1.1255" height="1.115" color-interpolation-filters="sRGB">
   <feGaussianBlur stdDeviation="1.1017537"/>
  </filter>
 </defs>
 <g transform="translate(0,-280.07)">
  <circle cx="-330.35" cy="-48.312" r="0" fill="#5e4aa6" stroke-width=".26458"/>
  <circle cx="-39.434" cy="286.51" r="0" fill="#5e4aa6" fill-rule="evenodd" stroke-width=".26458"/>
  <circle cx="8.4935" cy="288.8" r="7.9375" opacity=".2" stroke-width=".14032"/>
  <circle cx="8.4939" cy="288.53" r="7.9375" fill="url(#a)" style="paint-order:normal"/>
 </g>
 <g transform="matrix(.22601 0 0 .22601 1.2343 1.2344)" fill-rule="evenodd" stroke-width=".056845">
  <path d="m32.102 10.071-21.007 11.695-0.02286-0.01143v0.02515l-0.06173 0.0343 0.06173 0.03429-0.14404 22.311 21.074 11.91v-0.0503l21.069-11.908-0.14176-22.251 0.07774-0.04115-0.07774-0.04344v-0.06859l-0.06173 0.0343z" filter="url(#b)" opacity=".15" stroke-width=".056845"/>
  <g>
   <path d="m31.997 54.95 21.074-11.91-0.14345-22.405-20.93 11.469z" fill="#8be260"/>
   <path d="m32.002 54.997-21.074-11.91 0.14345-22.405 20.93 11.469z" fill="#ff7676"/>
   <path d="M 11.011,20.743 32.102,9 53.006,20.748 31.989,32.263 Z" fill="#60c8e2"/>
  </g>
 </g>
 <g transform="translate(0 .28695)" opacity=".15" stroke-width=".087453" aria-label="GTK">
  <path d="m6.9053 9.376v-0.68493h-0.56366v-0.28354h0.90527v1.0949q-0.19984 0.14177-0.44068 0.21522-0.24084 0.071738-0.51413 0.071738-0.59782 0-0.93602-0.34844-0.33649-0.35015-0.33649-0.97359 0-0.62515 0.33649-0.97359 0.3382-0.35015 0.93602-0.35015 0.24938 0 0.47313 0.06149 0.22546 0.06149 0.41506 0.18105v0.36723q-0.1913-0.16227-0.40652-0.24425-0.21522-0.081987-0.45264-0.081987-0.46801 0-0.70372 0.26133-0.234 0.26133-0.234 0.77887 0 0.51583 0.234 0.77717 0.23571 0.26133 0.70372 0.26133 0.18276 0 0.32624-0.030745 0.14348-0.032453 0.25792-0.099067z"/>
  <path d="m7.399 7.1897h2.1573v0.29037h-0.90527v2.2598h-0.34674v-2.2598h-0.90527z"/>
  <path d="m9.8893 7.1897h0.34503v1.0778l1.1444-1.0778h0.4441l-1.2657 1.1888 1.3562 1.3613h-0.45434l-1.2247-1.2281v1.2281h-0.34503z"/>
 </g>
 <g fill="#fff" stroke-width=".087453" aria-label="GTK">
  <path d="m6.9053 9.376v-0.68493h-0.56366v-0.28354h0.90527v1.0949q-0.19984 0.14177-0.44068 0.21522-0.24084 0.071738-0.51413 0.071738-0.59782 0-0.93602-0.34844-0.33649-0.35015-0.33649-0.97359 0-0.62515 0.33649-0.97359 0.3382-0.35015 0.93602-0.35015 0.24938 0 0.47313 0.06149 0.22546 0.06149 0.41506 0.18105v0.36723q-0.1913-0.16227-0.40652-0.24425-0.21522-0.081987-0.45264-0.081987-0.46801 0-0.70372 0.26133-0.234 0.26133-0.234 0.77887 0 0.51583 0.234 0.77717 0.23571 0.26133 0.70372 0.26133 0.18276 0 0.32624-0.030745 0.14348-0.032453 0.25792-0.099067z"/>
  <path d="m7.399 7.1897h2.1573v0.29037h-0.90527v2.2598h-0.34674v-2.2598h-0.90527z"/>
  <path d="m9.8893 7.1897h0.34503v1.0778l1.1444-1.0778h0.4441l-1.2657 1.1888 1.3562 1.3613h-0.45434l-1.2247-1.2281v1.2281h-0.34503z"/>
 </g>
</svg>
