<?xml version="1.0" encoding="UTF-8"?>
<svg width="64" height="64" version="1.1" viewBox="0 0 16.933 16.933" xmlns="http://www.w3.org/2000/svg" xmlns:cc="http://creativecommons.org/ns#" xmlns:dc="http://purl.org/dc/elements/1.1/" xmlns:rdf="http://www.w3.org/1999/02/22-rdf-syntax-ns#" xmlns:xlink="http://www.w3.org/1999/xlink">
 <metadata>
  <rdf:RDF>
   <cc:Work rdf:about="">
    <dc:format>image/svg+xml</dc:format>
    <dc:type rdf:resource="http://purl.org/dc/dcmitype/StillImage"/>
    <dc:title/>
   </cc:Work>
  </rdf:RDF>
 </metadata>
 <defs>
  <linearGradient id="linearGradient1270">
   <stop stop-color="#dd32ec" offset="0"/>
   <stop stop-color="#389cf4" offset="1"/>
  </linearGradient>
  <filter id="filter2761" x="-.024" y="-.024" width="1.048" height="1.048" color-interpolation-filters="sRGB">
   <feGaussianBlur stdDeviation="0.14552168"/>
  </filter>
  <filter id="filter855-1" x="-.059067" y="-.060963" width="1.1181" height="1.1219" color-interpolation-filters="sRGB">
   <feGaussianBlur stdDeviation="0.2154143"/>
  </filter>
  <linearGradient id="linearGradient1052" x1="5.0196" x2="11.913" y1="8.4665" y2="8.4665" gradientUnits="userSpaceOnUse" xlink:href="#linearGradient1270"/>
 </defs>
 <g transform="translate(.00015016 -4.9837e-5)">
  <path d="m10.708 1.1905c4.405 0 5.0345 0.67282 5.0345 5.388v3.7761c0 4.7152-0.62954 5.388-5.0345 5.388h-4.4832c-4.405 0-5.0346-0.6728-5.0346-5.388v-3.7761c0-4.7152 0.62954-5.388 5.0346-5.388z" enable-background="new" fill="#141414" filter="url(#filter2761)" opacity=".3"/>
  <path d="m10.708 1.1905c4.405 0 5.0345 0.67282 5.0345 5.388v3.7761c0 4.7152-0.62954 5.388-5.0345 5.388h-4.4832c-4.405 0-5.0346-0.6728-5.0346-5.388v-3.7761c0-4.7152 0.62954-5.388 5.0346-5.388z" enable-background="new" fill="#fafafa"/>
  <g transform="matrix(1.4186,0,0,1.4186,-7.9577,-422.12)" filter="url(#filter855-1)">
   <g stroke-width=".57432">
    <path d="m11.15 307.77c2.6769-0.34724 5.3572-3.7582 4.7049-5.4512-0.37742-1.607-5.0847-4.1763-6.9323-2.4509-2.5258 2.2658-0.64776 8.1044 2.2273 7.9022z" fill="#389cf4"/>
    <path d="m7.5629 305.39c1.6391 2.1446 5.9332 2.7604 7.0734 1.349 1.2029-1.1303 1.0744-6.4916-1.3436-7.229-3.2251-1.0545-7.3425 3.4912-5.7298 5.88z" fill="#dc28eb" opacity=".8"/>
   </g>
   <path d="m10.303 303.89c0 0.76057 0.01435 1.026-0.47356 1.026s-0.87538 0.15785-0.87538 0.60271c0 0.44485 0.45921 0.66011 0.74621 0.66011 0.28701 0 0.85385-0.2009 0.85385-0.80362v-2.7265l2.4395-0.56683v2.088s0.0287 0.25114-0.29418 0.25114c-0.32287 0-1.0332-0.0933-1.0332 0.58838 0 0.68162 0.68882 0.63858 0.79644 0.63858 0.10763 0 0.80362-0.11479 0.80362-0.92559v-3.8316l-2.9776 0.57402z" fill="#fff" stroke-width=".16674"/>
  </g>
  <g transform="matrix(1.4186,0,0,1.4186,-7.9577,-422.12)" stroke-width=".57432">
   <path d="m11.15 307.77c2.6769-0.34724 5.3572-3.7582 4.7049-5.4512-0.37742-1.607-5.0847-4.1763-6.9323-2.4509-2.5258 2.2658-0.64776 8.1044 2.2273 7.9022z" fill="#389cf4"/>
   <path d="m7.5629 305.39c1.6391 2.1446 5.9332 2.7604 7.0734 1.349 1.2029-1.1303 1.0744-6.4916-1.3436-7.229-3.2251-1.0545-7.3425 3.4912-5.7298 5.88z" fill="#dc28eb" opacity=".8"/>
  </g>
  <circle cx="8.4671" cy="8.4665" r="5.2044" fill="#fff"/>
  <g transform="translate(4e-5,-3e-6)" fill="url(#linearGradient1052)" stroke-width=".087453" aria-label="GTK">
   <path d="m6.9053 9.376v-0.68493h-0.56366v-0.28354h0.90527v1.0949q-0.19984 0.14177-0.44068 0.21522-0.24084 0.071738-0.51413 0.071738-0.59782 0-0.93602-0.34844-0.33649-0.35015-0.33649-0.97359 0-0.62515 0.33649-0.97359 0.3382-0.35015 0.93602-0.35015 0.24938 0 0.47313 0.06149 0.22546 0.06149 0.41506 0.18105v0.36723q-0.1913-0.16227-0.40652-0.24425-0.21522-0.081987-0.45264-0.081987-0.46801 0-0.70372 0.26133-0.234 0.26133-0.234 0.77887 0 0.51583 0.234 0.77717 0.23571 0.26133 0.70372 0.26133 0.18276 0 0.32624-0.030745 0.14348-0.032453 0.25792-0.099067z"/>
   <path d="m7.399 7.1897h2.1573v0.29037h-0.90527v2.2598h-0.34674v-2.2598h-0.90527z"/>
   <path d="m9.8893 7.1897h0.34503v1.0778l1.1444-1.0778h0.4441l-1.2657 1.1888 1.3562 1.3613h-0.45434l-1.2247-1.2281v1.2281h-0.34503z"/>
  </g>
 </g>
</svg>
