<?xml version="1.0" encoding="UTF-8"?>
<!-- Created with Inkscape (http://www.inkscape.org/) -->
<svg width="64" height="64" version="1.1" viewBox="0 0 16.933 16.933" xmlns="http://www.w3.org/2000/svg" xmlns:cc="http://creativecommons.org/ns#" xmlns:dc="http://purl.org/dc/elements/1.1/" xmlns:rdf="http://www.w3.org/1999/02/22-rdf-syntax-ns#">
 <defs>
  <filter id="filter2761" x="-.024" y="-.024" width="1.048" height="1.048" color-interpolation-filters="sRGB">
   <feGaussianBlur stdDeviation="0.14552168"/>
  </filter>
  <linearGradient id="linearGradient2645-3" x1="15.752" x2="1.3927" y1="281.24" y2="295.6" gradientTransform="translate(-.13126 -280.07)" gradientUnits="userSpaceOnUse">
   <stop stop-color="#0a82f0" offset="0"/>
   <stop stop-color="#3250e6" offset="1"/>
  </linearGradient>
  <filter id="filter1048" x="-.06" y="-.06" width="1.12" height="1.12" color-interpolation-filters="sRGB">
   <feGaussianBlur stdDeviation="0.29290494"/>
  </filter>
 </defs>
 <metadata>
  <rdf:RDF>
   <cc:Work rdf:about="">
    <dc:format>image/svg+xml</dc:format>
    <dc:type rdf:resource="http://purl.org/dc/dcmitype/StillImage"/>
    <dc:title/>
   </cc:Work>
  </rdf:RDF>
 </metadata>
 <path d="m10.709 1.05c4.405 0 5.0345 0.67282 5.0345 5.388v3.7761c0 4.7152-0.62954 5.388-5.0345 5.388h-4.4832c-4.405 0-5.0346-0.6728-5.0346-5.388v-3.7761c0-4.7152 0.62954-5.388 5.0346-5.388z" enable-background="new" fill="#141414" filter="url(#filter2761)" opacity=".3"/>
 <path d="m10.709 1.05c4.405 0 5.0345 0.67282 5.0345 5.388v3.7761c0 4.7152-0.62954 5.388-5.0345 5.388h-4.4832c-4.405 0-5.0346-0.6728-5.0346-5.388v-3.7761c0-4.7152 0.62954-5.388 5.0346-5.388z" enable-background="new" fill="url(#linearGradient2645-3)"/>
 <g transform="matrix(.9521 0 0 .9521 9.9824 1.3424)" fill="#2832fa" filter="url(#filter1048)">
  <circle cx="-1.5913" cy="7.335" r="3.2974"/>
  <g transform="translate(55.098 .066145)">
   <rect x="-57.102" y="1.4108" width=".82434" height="1.8708" ry=".41217"/>
   <rect x="-57.102" y="11.256" width=".82434" height="1.8708" ry=".41217"/>
   <rect transform="rotate(45)" x="-35.358" y="39.367" width=".82434" height="1.8708" ry=".41217"/>
   <rect transform="rotate(45)" x="-35.358" y="49.213" width=".82434" height="1.8708" ry=".41217"/>
   <rect transform="rotate(90)" x="6.8567" y="50.832" width=".82434" height="1.8708" ry=".41217"/>
   <rect transform="rotate(90)" x="6.8567" y="60.677" width=".82434" height="1.8708" ry=".41217"/>
   <rect transform="rotate(135)" x="44.813" y="29.088" width=".82434" height="1.8708" ry=".41217"/>
   <rect transform="rotate(135)" x="44.813" y="38.933" width=".82434" height="1.8708" ry=".41217"/>
   <rect transform="rotate(135)" x="44.813" y="29.088" width=".82434" height="1.8708" ry=".41217"/>
   <rect transform="rotate(135)" x="44.813" y="38.933" width=".82434" height="1.8708" ry=".41217"/>
  </g>
 </g>
 <g transform="matrix(.9521 0 0 .9521 9.9824 1.3424)" fill="#ff9726">
  <circle cx="-1.5913" cy="7.335" r="3.2974"/>
  <g transform="translate(55.098 .066145)">
   <rect x="-57.102" y="1.4108" width=".82434" height="1.8708" ry=".41217"/>
   <rect x="-57.102" y="11.256" width=".82434" height="1.8708" ry=".41217"/>
   <rect transform="rotate(45)" x="-35.358" y="39.367" width=".82434" height="1.8708" ry=".41217"/>
   <rect transform="rotate(45)" x="-35.358" y="49.213" width=".82434" height="1.8708" ry=".41217"/>
   <rect transform="rotate(90)" x="6.8567" y="50.832" width=".82434" height="1.8708" ry=".41217"/>
   <rect transform="rotate(90)" x="6.8567" y="60.677" width=".82434" height="1.8708" ry=".41217"/>
   <rect transform="rotate(135)" x="44.813" y="29.088" width=".82434" height="1.8708" ry=".41217"/>
   <rect transform="rotate(135)" x="44.813" y="38.933" width=".82434" height="1.8708" ry=".41217"/>
   <rect transform="rotate(135)" x="44.813" y="29.088" width=".82434" height="1.8708" ry=".41217"/>
   <rect transform="rotate(135)" x="44.813" y="38.933" width=".82434" height="1.8708" ry=".41217"/>
  </g>
 </g>
</svg>
