<?xml version="1.0" encoding="UTF-8"?>
<!-- Created with Inkscape (http://www.inkscape.org/) -->
<svg width="64" height="64" version="1.1" viewBox="0 0 16.933 16.933" xmlns="http://www.w3.org/2000/svg" xmlns:cc="http://creativecommons.org/ns#" xmlns:dc="http://purl.org/dc/elements/1.1/" xmlns:rdf="http://www.w3.org/1999/02/22-rdf-syntax-ns#">
 <defs>
  <filter id="filter2761" x="-.024" y="-.024" width="1.048" height="1.048" color-interpolation-filters="sRGB">
   <feGaussianBlur stdDeviation="0.14552168"/>
  </filter>
  <linearGradient id="linearGradient4673" x1="1.2573" x2="15.644" y1="15.429" y2="1.1082" gradientUnits="userSpaceOnUse">
   <stop stop-color="#32dcff" offset="0"/>
   <stop stop-color="#3296ff" offset="1"/>
  </linearGradient>
  <linearGradient id="linearGradient4691" x1="10.574" x2="15.644" y1="6.1782" y2="1.1082" gradientTransform="translate(-6.7e-6)" gradientUnits="userSpaceOnUse">
   <stop stop-color="#fff" offset="0"/>
   <stop stop-color="#c8e6fa" offset="1"/>
  </linearGradient>
 </defs>
 <metadata>
  <rdf:RDF>
   <cc:Work rdf:about="">
    <dc:format>image/svg+xml</dc:format>
    <dc:type rdf:resource="http://purl.org/dc/dcmitype/StillImage"/>
    <dc:title/>
   </cc:Work>
  </rdf:RDF>
 </metadata>
 <path d="m10.709 1.05c4.405 0 5.0345 0.67282 5.0345 5.388v3.7761c0 4.7152-0.62954 5.388-5.0345 5.388h-4.4832c-4.405 0-5.0346-0.6728-5.0346-5.388v-3.7761c0-4.7152 0.62954-5.388 5.0346-5.388z" enable-background="new" fill="#141414" filter="url(#filter2761)" opacity=".3"/>
 <path d="m10.709 0.97579c4.405 0 5.0345 0.67282 5.0345 5.388v3.7761c0 4.7152-0.62954 5.388-5.0345 5.388h-4.4832c-4.405 0-5.0346-0.6728-5.0346-5.388v-3.7761c0-4.7152 0.62954-5.388 5.0346-5.388z" enable-background="new" fill="url(#linearGradient4673)"/>
 <path d="m12.905 15.403c0.1451-0.01971 0.31821-0.02789 0.44906-0.05426 0.33923-0.06837 0.63168-0.16036 0.88365-0.28266 0.25197-0.12231 0.46326-0.27516 0.64026-0.46456s0.31975-0.41556 0.43407-0.68522 0.20014-0.58258 0.26406-0.94566c0.12785-0.72615 0.16743-1.6525 0.16743-2.8313v-3.7759c0-1.1788-0.03958-2.1051-0.16743-2.8313-0.063923-0.36307-0.14975-0.676-0.26406-0.94566-0.11432-0.26966-0.25707-0.49582-0.43407-0.68522s-0.38829-0.34225-0.64026-0.46456-0.54442-0.21429-0.88365-0.28266c-0.33923-0.068376-0.72546-0.11295-1.1642-0.14056-0.43878-0.027607-0.93039-0.03824-1.481-0.03824h-4.4828c-0.55063 0-1.0422 0.010634-1.481 0.03824-0.43879 0.027606-0.82501 0.072182-1.1642 0.14056-0.33924 0.068375-0.63167 0.16036-0.88365 0.28266-0.25198 0.12231-0.46325 0.27516-0.64026 0.46456-0.177 0.1894-0.31975 0.41556-0.43407 0.68522s-0.20014 0.58259-0.26406 0.94566c-0.041861 0.23776-0.030164 0.64456-0.054776 0.92706a14.854 14.854 0 0 0 11.601 10.944z" fill="#fafafa" opacity=".1"/>
 <path d="m15.663 11.506c0.02385-0.4571 0.08061-0.79745 0.08061-1.3663v-3.7759c0-1.1788-0.03958-2.1051-0.16743-2.8313-0.063919-0.36307-0.14974-0.676-0.26406-0.94566s-0.25707-0.49582-0.43407-0.68522-0.38829-0.34225-0.64026-0.46456-0.54442-0.21429-0.88365-0.28266c-0.33923-0.068376-0.72546-0.11295-1.1642-0.14056-0.43878-0.027607-0.93039-0.03824-1.481-0.03824h-4.4828c-0.45169 0-0.8392 0.013741-1.2149 0.031522a10.687 10.687 0 0 0 10.652 10.499z" fill="#fafafa" opacity=".2"/>
 <path d="m9.0324 0.97563c0.00129 0.10549 0.00508 0.21094 0.011369 0.31625 0.015655 0.22168 0.042387 0.44244 0.080096 0.66145 0.037708 0.21899 0.086343 0.43595 0.14572 0.65008 0.059529 0.21404 0.12972 0.42496 0.21032 0.63199 0.080409 0.20714 0.17113 0.41014 0.27181 0.60822 0.10088 0.19799 0.21161 0.3908 0.33175 0.57773 0.12007 0.18704 0.24942 0.36796 0.38757 0.54208 0.13816 0.17396 0.28493 0.34091 0.43976 0.50022 0.15476 0.15944 0.3174 0.31104 0.4873 0.45423 0.1699 0.14311 0.34685 0.27763 0.53019 0.40307 0.18338 0.12549 0.37292 0.24173 0.56791 0.34829 0.19502 0.10658 0.39526 0.20333 0.59995 0.2899 0.20466 0.086519 0.41352 0.16275 0.62579 0.22841 0.21226 0.065672 0.42767 0.12069 0.64542 0.16484 0.21782 0.04421 0.43772 0.077496 0.65886 0.099734 0.22117 0.022116 0.44331 0.033153 0.66558 0.033072 0.01723-6.232e-4 0.03445-0.00131 0.05167-0.00207v-1.1193c0-4.721-0.6005-5.3882-5.0347-5.3882z" enable-background="new" fill="url(#linearGradient4691)" opacity=".8"/>
 <circle cx="5.4716" cy="11.562" r="2.3167" fill="#fff" opacity=".1"/>
 <circle cx="9.5407" cy="6.9317" r="1.1942" fill="#fff" opacity=".1"/>
 <text x="5.4422855" y="12.438681" fill="#ffffff" font-family="sans-serif" font-size="5.1441px" letter-spacing="0px" stroke-width=".1286" word-spacing="0px" style="line-height:1.25" xml:space="preserve"><tspan x="5.4422855" y="12.438681" fill="#ffffff" stroke-width=".1286">6°</tspan></text>
</svg>
