<?xml version="1.0" encoding="UTF-8"?>
<!-- Created with Inkscape (http://www.inkscape.org/) -->
<svg width="64" height="64" version="1.1" viewBox="0 0 16.933 16.933" xmlns="http://www.w3.org/2000/svg" xmlns:cc="http://creativecommons.org/ns#" xmlns:dc="http://purl.org/dc/elements/1.1/" xmlns:rdf="http://www.w3.org/1999/02/22-rdf-syntax-ns#">
 <defs>
  <filter id="filter2761" x="-.024" y="-.024" width="1.048" height="1.048" color-interpolation-filters="sRGB">
   <feGaussianBlur stdDeviation="0.14552168"/>
  </filter>
  <filter id="filter2470" x="-.0506" y="-.07369" width="1.1012" height="1.1474" color-interpolation-filters="sRGB">
   <feGaussianBlur stdDeviation="0.2774912"/>
  </filter>
 </defs>
 <metadata>
  <rdf:RDF>
   <cc:Work rdf:about="">
    <dc:format>image/svg+xml</dc:format>
    <dc:type rdf:resource="http://purl.org/dc/dcmitype/StillImage"/>
    <dc:title/>
   </cc:Work>
  </rdf:RDF>
 </metadata>
 <path d="m10.709 1.05c4.405 0 5.0345 0.67282 5.0345 5.388v3.7761c0 4.7152-0.62954 5.388-5.0345 5.388h-4.4832c-4.405 0-5.0346-0.6728-5.0346-5.388v-3.7761c0-4.7152 0.62954-5.388 5.0346-5.388z" enable-background="new" fill="#141414" filter="url(#filter2761)" opacity=".3"/>
 <path d="m10.692 1.05c4.405 0 5.0345 0.67282 5.0345 5.388v3.7761c0 4.7152-0.62954 5.388-5.0345 5.388h-4.4832c-4.405 0-5.0346-0.6728-5.0346-5.388v-3.7761c0-4.7152 0.62954-5.388 5.0346-5.388z" enable-background="new" fill="#fff"/>
 <g transform="translate(24.617 20.567)">
  <rect transform="matrix(1 0 -.47461 .8802 0 0)" x="4.2112" y="-20.515" width=".93452" height="17.96" fill="#ff3c50"/>
  <rect transform="matrix(1 0 -.47461 .8802 0 0)" x="5.1434" y="-20.515" width=".93452" height="17.96" fill="#fff"/>
  <rect transform="matrix(1 0 -.47461 .8802 0 0)" x="6.0777" y="-20.515" width=".93452" height="17.96" fill="#465ad2"/>
 </g>
 <g transform="translate(-56.355 -2.0877)">
  <path transform="scale(.26458)" d="m245.82 11.859-26.574 49.283c0.52602 1.1199 1.1923 2.0343 2.041 2.7695l28.064-52.053z" fill="#ff3c50"/>
  <path transform="scale(.26458)" d="m249.34 11.859-28.064 52.047c0.74782 0.64954 1.6377 1.1617 2.6875 1.5664l28.908-53.613z" fill="#fff"/>
  <path transform="scale(.26458)" d="m252.87 11.859-28.91 53.613c0.9003 0.34718 1.9444 0.60264 3.0996 0.80469l29.324-54.385c-0.93687-0.02327-1.9259-0.0332-2.9727-0.0332z" fill="#465ad2"/>
  <path transform="scale(.26458)" d="m236.47 11.859c-0.43781 0-0.82584 0.0099-1.2441 0.01367l-17.785 32.984v1.6387c0 1.7374 0.0336 3.2893 0.0899 4.748l21.234-39.385z" fill="#ff3c50"/>
  <path transform="scale(.26458)" d="m238.76 11.859-21.229 39.369c0.0823 2.1445 0.23584 4.023 0.49805 5.6289l24.262-44.998z" fill="#fff"/>
  <path transform="scale(.26458)" d="m242.29 11.859-24.262 44.994c0.27548 1.6886 0.66726 3.111 1.2207 4.2891l26.572-49.283z" fill="#465ad2"/>
  <path transform="scale(.26458)" d="m227.95 12.303c-1.5575 0.21782-2.916 0.52339-4.0547 0.9707l-6.2051 11.508c-0.16408 2.0168-0.23768 4.325-0.24414 7.002z" fill="#ff3c50"/>
  <path transform="scale(.26458)" d="m231.65 11.971c-1.3579 0.06787-2.5935 0.17766-3.709 0.33398l-10.496 19.461c-4e-4 0.15898-4e-3 0.29751-4e-3 0.45898v6.1016z" fill="#fff"/>
  <path transform="scale(.26458)" d="m235.23 11.873c-1.2812 0.01138-2.4796 0.04236-3.5859 0.09766l-14.209 26.354v6.5508z" fill="#465ad2"/>
  <path transform="scale(.26458)" d="m223.89 13.273c-4.0936 1.608-5.6716 4.9508-6.2051 11.508z" fill="#465ad2"/>
  <path transform="scale(.26458)" d="m271.92 22.33-24.014 44.531h3.5332l20.932-38.82c-0.0697-2.1766-0.21043-4.0712-0.45117-5.7109z" fill="#ff3c50"/>
  <path transform="scale(.26458)" d="m272.37 28.027-20.941 38.834h1.9824c0.54915 0 1.042-0.01159 1.5606-0.01758l17.467-32.395v-2.2246c0-1.5203-0.0264-2.8915-0.0684-4.1973z" fill="#fff"/>
  <path transform="scale(.26458)" d="m272.44 34.447-17.469 32.396c1.2809-0.01478 2.4887-0.04643 3.5918-0.10742l13.877-25.738z" fill="#465ad2"/>
  <path transform="scale(.26458)" d="m266.18 13.355-28.852 53.506h3.5332l27.955-51.846c-0.73023-0.68584-1.6007-1.2308-2.6367-1.6602z" fill="#ff3c50"/>
  <path transform="scale(.26458)" d="m268.81 15.012-27.959 51.85h3.5332l26.4-48.963c-0.50231-1.1683-1.1517-2.1153-1.9746-2.8867z" fill="#fff"/>
  <path transform="scale(.26458)" d="m270.79 17.898-26.402 48.963h3.5332l24.006-44.52c-0.25424-1.7363-0.6125-3.2241-1.1367-4.4434z" fill="#465ad2"/>
  <path transform="scale(.26458)" d="m256.38 11.893-29.326 54.385c1.0027 0.17554 2.1043 0.30759 3.3203 0.39648l29.439-54.598c-1.0652-0.0853-2.1858-0.15263-3.4336-0.18359z" fill="#ff3c50"/>
  <path transform="scale(.26458)" d="m259.81 12.074-29.441 54.598c1.0644 0.07804 2.2051 0.13339 3.4473 0.16016l29.301-54.344c-0.99118-0.18636-2.1005-0.31769-3.3066-0.41406z" fill="#fff"/>
  <path transform="scale(.26458)" d="m263.12 12.488-29.303 54.344c0.84632 0.01826 1.7203 0.0293 2.6543 0.0293h0.86328l28.85-53.506c-0.89023-0.36898-1.9142-0.65092-3.0644-0.86719z" fill="#465ad2"/>
  <path transform="scale(.26458)" d="m272.44 40.996-13.879 25.74c1.3797-0.07624 2.6121-0.20419 3.7363-0.37695l10.133-18.793c2e-3 -0.36303 0.01-0.69376 0.01-1.0703z" fill="#ff3c50"/>
  <path transform="scale(.26458)" d="m272.43 47.551-10.145 18.811c1.5994-0.24506 2.9805-0.58982 4.125-1.0957l5.7285-10.625c0.19417-2.0156 0.27457-4.3761 0.29102-7.0898z" fill="#fff"/>
  <path transform="scale(.26458)" d="m272.14 54.637-5.7305 10.629c3.6407-1.6085 5.1642-4.7452 5.7305-10.629z" fill="#465ad2"/>
 </g>
 <path d="m10.479 1.7445c3.9845 0 4.554 0.6086 4.554 4.8737v3.4157c0 4.2651-0.56945 4.8737-4.554 4.8737h-4.0553c-3.9845 0-4.554-0.60858-4.554-4.8737v-3.4157c0-4.2651 0.56945-4.8737 4.554-4.8737z" enable-background="new" fill="#f0f0f0" stroke-width=".90455"/>
 <circle cx="19.731" cy="-12.184" r="7.9373" fill-opacity="0" stroke-width=".41578"/>
 <path d="m27.97-7.0787s5.9279 4.5659 6.2515 4.6468c0.32355 0.080889 0.88857 0.43334 1.7179 0 0.82935-0.43334 6.1282-4.3949 6.1282-4.3949v-5.3117h-14.102z" fill="#c8cfd3"/>
 <path d="m11.274-12.474c-4.0305 0-5.4705 0.46196-5.939 3.1183 1.3264 1.0195 7.2093 5.5357 7.601 5.6336 0.4365 0.10913 1.1991 0.58461 2.318 0 0.92234-0.48192 5.7356-4.0452 7.4706-5.3359-0.41658-2.9101-1.8088-3.416-5.9801-3.416z" enable-background="new" fill="#fafafa" stroke-width="1.2203"/>
 <path d="m6.434 15.028c-2.9785 0-4.0426-0.34138-4.3888-2.3044 0.98022-0.75342 5.3276-4.0908 5.617-4.1632 0.32257-0.080642 0.88615-0.43202 1.713 0 0.6816 0.35613 4.2385 2.9893 5.5207 3.9432-0.30785 2.1505-1.3367 2.5244-4.4192 2.5244z" enable-background="new" fill="#fff" stroke-width=".90179"/>
 <path transform="matrix(.93501 0 0 .94712 .5491 .84534)" d="m6.4212 1.7446c-3.9358 0-4.5384 0.60019-4.5526 4.7252 2.2169 1.6901 5.2223 3.9572 5.4998 4.0265 0.4365 0.10913 1.1993 0.58461 2.3182 0 0.6555-0.3425 3.2594-2.2307 5.3438-3.764v-0.1142c0-4.2651-0.5691-4.8735-4.5536-4.8735z" enable-background="new" filter="url(#filter2470)" opacity=".25" stroke-width=".90455"/>
 <path d="m6.4212 1.7446c-3.9358 0-4.5384 0.60019-4.5526 4.7252 2.2169 1.6901 5.2223 3.9572 5.4998 4.0265 0.4365 0.10913 1.1993 0.58461 2.3182 0 0.6555-0.3425 3.2594-2.2307 5.3438-3.764v-0.1142c0-4.2651-0.5691-4.8735-4.5536-4.8735z" enable-background="new" fill="#fafafa" stroke-width=".90455"/>
</svg>
