<svg width="64" height="64" version="1.1" xmlns="http://www.w3.org/2000/svg" xmlns:xlink="http://www.w3.org/1999/xlink">
 <defs>
  <linearGradient id="b" x1="399.57" x2="399.57" y1="545.8" y2="517.8" gradientTransform="matrix(2.1429,0,0,2.1429,-826.36,-1107.5)" gradientUnits="userSpaceOnUse">
   <stop stop-color="#3889e9" offset="0"/>
   <stop stop-color="#5ea5fb" offset="1"/>
  </linearGradient>
  <linearGradient id="g" x1="32.02" x2="32.02" y1="2.043" y2="62.045" gradientUnits="userSpaceOnUse" xlink:href="#a"/>
  <linearGradient id="i" x1="3618.4" x2="3618.4" y1="-758.64" y2="-772.64" gradientTransform="matrix(1.875,0,0,2,-6759.2,1563.3)" gradientUnits="userSpaceOnUse">
   <stop stop-color="#fff" offset="0"/>
   <stop stop-color="#fff" offset="1"/>
  </linearGradient>
  <linearGradient id="h" x1="3716.2" x2="3716.2" y1="683.98" y2="705.13" gradientUnits="userSpaceOnUse" xlink:href="#a"/>
  <linearGradient id="a">
   <stop stop-color="#666" offset="0"/>
   <stop stop-color="#333" offset="1"/>
  </linearGradient>
  <linearGradient id="j" x1="195.75" x2="195.75" y1="1016.2" y2="1032.2" gradientTransform="matrix(1.25 0 0 1.25 -211.12 -1249.1)" gradientUnits="userSpaceOnUse" xlink:href="#a"/>
  <linearGradient id="l" x1="195.75" x2="195.75" y1="1016.2" y2="1032.2" gradientTransform="matrix(-1.25 0 0 1.25 282.62 -1249.7)" gradientUnits="userSpaceOnUse" xlink:href="#a"/>
  <linearGradient id="m" x1="3716.2" x2="3716.2" y1="683.98" y2="705.13" gradientTransform="matrix(.99459 0 0 1 20.039 -.13057)" gradientUnits="userSpaceOnUse" xlink:href="#a"/>
 </defs>
 <g stroke-width="1.5715">
  <circle cx="32.02" cy="32.999" r="30.001" opacity=".25"/>
  <circle cx="32.02" cy="32.044" r="30.001" fill="url(#g)"/>
  <path d="m32 7a25 25 0 0 0-25 25 25 25 0 0 0 25 25 25 25 0 0 0 25-25 25 25 0 0 0-0.10352-2.1035l-22.791-22.791a25 25 0 0 0-2.1055-0.10547z" fill="#f9f9f9"/>
  <circle cx="32.02" cy="32.044" r="30.001" fill-opacity="0"/>
  <circle cx="32.02" cy="32.044" r="0" fill="url(#b)"/>
 </g>
 <path d="m19 18c-1.108 0-2 0.89199-2 2v24c0 1.108 0.89199 2 2 2h26c1.108 0 2-0.89199 2-2v-19c0-3-5-7-8-7z" fill="url(#i)"/>
 <g transform="matrix(1.25,0,0,1.25,-4505.5,1115.3)" fill="#f09e6f" stroke-width=".8">
  <rect x="3618" y="-857.84" width="24" height=".79998"/>
  <rect x="3618" y="-876.24" width="24" height=".80003"/>
  <rect transform="rotate(90)" x="-877.84" y="-3620.4" width="22.4" height=".8"/>
  <rect transform="rotate(90)" x="-877.84" y="-3640.4" width="22.4" height=".79992"/>
 </g>
 <path d="m32 30.75 8.75 8.75" fill="none" stroke="url(#l)" stroke-linecap="round" stroke-linejoin="round" stroke-width="2"/>
 <g transform="matrix(1.8801 0 0 1.8801 -6960.4 -1277.4)" fill="url(#h)" stroke-width=".8">
  <path d="m3724.9 691.66v1.9945h-0.9918v-0.93078h-6.1496l-1.3887 8.2441h-1.5869l-1.3225-4.1885h-0.7936v-1.1302l1.6532 2e-5 1.1571 3.3242 1.1572-7.3133" fill="url(#m)" stroke-width=".8"/>
 </g>
 <path d="M 40.75,30.75 32,39.5" fill="none" stroke="url(#j)" stroke-linecap="round" stroke-linejoin="round" stroke-width="2"/>
 <path d="m37.707 7.6895 18.605 18.605a25 25 0 0 0-18.605-18.605z" fill="#fff" opacity=".5"/>
</svg>
