<svg width="64" height="64" version="1.1" viewBox="0 0 16.933 16.933" xmlns="http://www.w3.org/2000/svg">
 <defs>
  <linearGradient id="d" x1="152" x2="152" y1="100" y2="212" gradientTransform="translate(-64,-68)" gradientUnits="userSpaceOnUse">
   <stop stop-opacity="0" offset="0"/>
   <stop offset=".5"/>
   <stop stop-opacity="0" offset="1"/>
  </linearGradient>
  <filter id="a" x="-.024" y="-.024" width="1.048" height="1.048" color-interpolation-filters="sRGB">
   <feGaussianBlur stdDeviation="1.5000091"/>
  </filter>
  <clipPath id="f">
   <path d="m152 68c-48.601 0-88 39.399-88 88s39.399 88 88 88 88-39.399 88-88-39.399-88-88-88z" color="#000000" fill="#5d5d5d"/>
  </clipPath>
  <filter id="e" x="-.06" y="-.06" width="1.12" height="1.12" color-interpolation-filters="sRGB">
   <feGaussianBlur stdDeviation="4.4"/>
  </filter>
  <linearGradient id="b" x1="8.1703" x2="8.117" y1="1.9731" y2="15.498" gradientUnits="userSpaceOnUse">
   <stop stop-color="#ee9e4e" offset="0"/>
   <stop stop-color="#e98b50" offset="1"/>
  </linearGradient>
 </defs>
 <g transform="translate(0,-280.07)">
  <circle cx="-330.35" cy="-48.312" r="0" fill="#5e4aa6" stroke-width=".26458"/>
  <circle cx="8.4935" cy="288.8" r="7.9375" opacity=".2" stroke-width=".14032"/>
  <circle cx="-39.434" cy="286.51" r="0" fill="#5e4aa6" fill-rule="evenodd" stroke-width=".26458"/>
 </g>
 <circle cx="8.4665" cy="8.4665" r="7.9376" fill="url(#b)" stroke-width=".26458"/>
 <g transform="translate(-19.152 1.0156)">
  <path d="m24.708 3.7478c-0.29307 0-0.52916 0.23609-0.52916 0.52916v6.8801c0 0.29307 0.23609 0.52916 0.52916 0.52916h5.8207c0.29307 0 0.52916-0.23609 0.52916-0.52916v-6.8801c0-0.29307-0.23609-0.52916-0.52916-0.52916zm0.26511 0.52812a0.265 0.265 0 0 1 0.26458 0.26511 0.265 0.265 0 0 1-0.26458 0.26511 0.265 0.265 0 0 1-0.26511-0.26511 0.265 0.265 0 0 1 0.26511-0.26511zm0 1.588a0.265 0.265 0 0 1 0.26458 0.26511 0.265 0.265 0 0 1-0.26458 0.26511 0.265 0.265 0 0 1-0.26511-0.26511 0.265 0.265 0 0 1 0.26511-0.26511zm0 1.5869a0.265 0.265 0 0 1 0.26458 0.26511 0.265 0.265 0 0 1-0.26458 0.26511 0.265 0.265 0 0 1-0.26511-0.26511 0.265 0.265 0 0 1 0.26511-0.26511zm0 1.588a0.265 0.265 0 0 1 0.26458 0.26511 0.265 0.265 0 0 1-0.26458 0.26511 0.265 0.265 0 0 1-0.26511-0.26511 0.265 0.265 0 0 1 0.26511-0.26511zm0 1.5869a0.265 0.265 0 0 1 0.26458 0.26511 0.265 0.265 0 0 1-0.26458 0.26511 0.265 0.265 0 0 1-0.26511-0.26511 0.265 0.265 0 0 1 0.26511-0.26511z" opacity=".15" stroke-width=".26458" style="paint-order:markers stroke fill"/>
  <path d="m24.708 3.4817c-0.29307 0-0.52916 0.23609-0.52916 0.52916v6.8801c0 0.29307 0.23609 0.52916 0.52916 0.52916h5.8207c0.29307 0 0.52916-0.23609 0.52916-0.52916v-6.8801c0-0.29307-0.23609-0.52916-0.52916-0.52916zm0.26511 0.52812a0.265 0.265 0 0 1 0.26458 0.26511 0.265 0.265 0 0 1-0.26458 0.26511 0.265 0.265 0 0 1-0.26511-0.26511 0.265 0.265 0 0 1 0.26511-0.26511zm0 1.588a0.265 0.265 0 0 1 0.26458 0.26511 0.265 0.265 0 0 1-0.26458 0.26511 0.265 0.265 0 0 1-0.26511-0.26511 0.265 0.265 0 0 1 0.26511-0.26511zm0 1.5869a0.265 0.265 0 0 1 0.26458 0.26511 0.265 0.265 0 0 1-0.26458 0.26511 0.265 0.265 0 0 1-0.26511-0.26511 0.265 0.265 0 0 1 0.26511-0.26511zm0 1.588a0.265 0.265 0 0 1 0.26458 0.26511 0.265 0.265 0 0 1-0.26458 0.26511 0.265 0.265 0 0 1-0.26511-0.26511 0.265 0.265 0 0 1 0.26511-0.26511zm0 1.5869a0.265 0.265 0 0 1 0.26458 0.26511 0.265 0.265 0 0 1-0.26458 0.26511 0.265 0.265 0 0 1-0.26511-0.26511 0.265 0.265 0 0 1 0.26511-0.26511z" fill="#fff" stroke-width=".26458" style="paint-order:markers stroke fill"/>
  <path d="m24.179 4.8048h6.8801v0.264h-6.8801zm0 1.587h6.8801v0.265h-6.8801zm0 1.588h6.8801v0.264h-6.8801zm0 1.587h6.8801v0.265h-6.8801z" opacity=".1" style="paint-order:markers stroke fill"/>
 </g>
 <g transform="matrix(.38205 0 0 .38197 16.099 -101.6)">
  <circle transform="scale(1,-1)" cx="-6.1279" cy="-302.72" r="7.6175" color="#000000" opacity=".15"/>
  <circle transform="scale(1,-1)" cx="-6.1279" cy="-302.02" r="7.6175" color="#000000" fill="#4d4d4d"/>
  <path transform="matrix(.086563 0 0 .086563 -19.285 288.52)" d="m152 70c-48.601 0-88 39.399-88 88s39.399 88 88 88 88-39.399 88-88-39.399-88-88-88z" clip-path="url(#f)" color="#000000" fill="none" filter="url(#e)" opacity=".2"/>
  <path transform="matrix(.086563 0 0 .086563 -13.745 294.41)" d="m88 15.006c-5.3937-0.05998-7.2804 0.14029-8.0391 6.6621l-0.28906 2.3047c-0.66573 4.2298-0.793 6.1452-4.7949 7.1816-0.26817 0.0599-0.53589 0.12007-0.80273 0.18359-0.0631 0.013-0.11886 0.0282-0.1836 0.041l8e-3 2e-3c-1.0104 0.24375-2.0099 0.51443-3 0.80859l0.01-0.0117c-0.16537 0.0565-0.31605 0.10151-0.47265 0.15039-0.14986 0.0458-0.29985 0.0898-0.44922 0.13672-4.0215 1.1281-5.0854-0.46762-7.7871-3.8106l-1.4043-1.8516c-1.959-2.6344-3.3698-3.7587-4.873-3.8809-0.18789-0.01527-0.37832-0.01507-0.57032 0-1.3439 0.10545-2.8172 0.93022-4.8476 2.1328-4.7011 2.6449-6.2347 3.7597-3.6309 9.7871l0.90039 2.1406c1.6564 4.3025 2.5183 5.9673-1.3027 9.3047l0.10157-0.0234c-0.78976 0.74858-1.558 1.5188-2.3066 2.3086l0.0215-0.10157c-3.3374 3.8211-5.0022 2.9591-9.3047 1.3027l-2.1406-0.90235c-1.8836-0.81371-3.2874-1.2228-4.4082-1.2578-2.4657-0.0772-3.5605 1.6567-5.3789 4.8887-2.7488 4.6411-3.5207 6.375 1.748 10.293l1.8516 1.4043c3.3429 2.7017 4.9387 3.7656 3.8105 7.7871-0.04698 0.14937-0.09087 0.29936-0.13672 0.44922-0.04894 0.1566-0.09193 0.30729-0.14844 0.47265l0.0098-0.01c-0.29416 0.99009-0.56485 1.9896-0.80859 3l-2e-3 -8e-3c-0.01271 0.0647-0.02795 0.12053-0.04102 0.1836-0.06352 0.26684-0.12365 0.53456-0.18359 0.80273-1.0365 4.0019-2.9518 4.1292-7.1816 4.7949l-2.3047 0.28906c-6.5218 0.75868-6.7221 2.6454-6.6621 8.0391-0.05998 5.3937 0.14028 7.2804 6.6621 8.0391l2.3047 0.28906c4.2298 0.66573 6.1452 0.793 7.1816 4.7949 0.05994 0.26818 0.12007 0.5359 0.18359 0.80273 0.01301 0.0631 0.02824 0.11886 0.04102 0.1836l2e-3 -8e-3c0.24375 1.0104 0.51443 2.0099 0.80859 3l-0.01172-0.01c0.0565 0.16537 0.10147 0.31605 0.15039 0.47265 0.04582 0.14985 0.08974 0.29986 0.13672 0.44922 1.1281 4.0215-0.46762 5.0854-3.8105 7.7871l-1.8516 1.4043c-5.2687 3.9179-4.4968 5.6499-1.748 10.291 2.6449 4.7011 3.7597 6.2347 9.7871 3.6309l2.1406-0.90039c4.3025-1.6564 5.9673-2.5183 9.3047 1.3027l-0.0234-0.10157c0.74858 0.78976 1.5188 1.5581 2.3086 2.3066l-0.10157-0.0215c3.8211 3.3374 2.9591 5.0022 1.3027 9.3047l-0.90235 2.1406c-2.6039 6.0274-1.0702 7.1441 3.6309 9.7891 4.6411 2.7488 6.375 3.5187 10.293-1.75l1.4043-1.8516c2.7017-3.3429 3.7656-4.9386 7.7871-3.8105 0.14937 0.047 0.29936 0.0909 0.44922 0.13672 0.1566 0.0489 0.30728 0.0938 0.47265 0.15039l-0.01-0.0117c0.99009 0.29416 1.9896 0.56484 3 0.80859l-8e-3 2e-3c0.0647 0.0128 0.12053 0.028 0.1836 0.041 0.26684 0.0635 0.53456 0.12365 0.80273 0.18359 4.0019 1.0365 4.1292 2.9518 4.7949 7.1816l0.28906 2.3047c0.75867 6.5218 2.6453 6.7221 8.0391 6.6621 5.3937 0.06 7.2804-0.14029 8.0391-6.6621l0.28906-2.3047c0.66576-4.2298 0.79299-6.1452 4.7949-7.1816 0.26817-0.06 0.5359-0.12007 0.80273-0.18359 0.0631-0.0131 0.11886-0.0281 0.1836-0.041l-8e-3 -2e-3c1.0104-0.24375 2.0099-0.51443 3-0.80859l-0.01 0.0117c0.16536-0.0565 0.31604-0.10151 0.47265-0.15039 0.14985-0.0458 0.29986-0.0897 0.44922-0.13672 4.0215-1.1281 5.0854 0.46761 7.7871 3.8105l1.4043 1.8516c3.9179 5.2687 5.6499 4.4968 10.291 1.748 4.7011-2.6449 6.2348-3.7597 3.6309-9.7871l-0.90039-2.1406c-1.6564-4.3025-2.5183-5.9673 1.3027-9.3047l-0.10157 0.0234c0.78977-0.74858 1.5581-1.5188 2.3066-2.3086l-0.0215 0.10157c3.3374-3.8211 5.0022-2.9591 9.3047-1.3027l2.1406 0.90235c6.0274 2.6039 7.1422 1.0702 9.7871-3.6309 2.7488-4.6411 3.5207-6.375-1.748-10.293l-1.8516-1.4043c-3.3429-2.7017-4.9387-3.7656-3.8105-7.7871 0.047-0.14936 0.0908-0.29937 0.13672-0.44922 0.0489-0.1566 0.092-0.30728 0.14843-0.47265l-0.01 0.01c0.29416-0.99009 0.56484-1.9896 0.80859-3l2e-3 8e-3c0.0128-0.0647 0.028-0.12052 0.041-0.1836 0.0635-0.26683 0.12365-0.53455 0.18359-0.80273 1.0365-4.0019 2.9518-4.1292 7.1816-4.7949l2.3047-0.28906c6.5218-0.75867 6.7221-2.6453 6.6621-8.0391 0.06-5.3937-0.14028-7.2804-6.6621-8.0391l-2.3047-0.28906c-4.2298-0.66574-6.1452-0.79299-7.1816-4.7949-0.06-0.26816-0.12007-0.53589-0.18359-0.80273-0.0131-0.0631-0.0281-0.11887-0.041-0.1836l-2e-3 8e-3c-0.24375-1.0104-0.51442-2.0099-0.80859-3l0.0117 0.01c-0.0565-0.16536-0.10151-0.31604-0.15039-0.47265-0.0458-0.14986-0.0897-0.29985-0.13672-0.44922-1.1281-4.0215 0.46762-5.0854 3.8105-7.7871l1.8516-1.4043c5.2687-3.9179 4.4968-5.6499 1.748-10.291-1.8184-3.232-2.9132-4.9678-5.3789-4.8906-1.1207 0.0351-2.5246 0.44605-4.4082 1.2598l-2.1406 0.90039c-4.3025 1.6564-5.9673 2.5183-9.3047-1.3027l0.0234 0.10157c-0.74858-0.78977-1.5188-1.5581-2.3086-2.3066l0.10157 0.0215c-3.8211-3.3374-2.9591-5.0022-1.3027-9.3047l0.90235-2.1406c2.6039-6.0274 1.0702-7.1422-3.6309-9.7871-2.3206-1.3744-3.9148-2.2549-5.418-2.1328-1.5032 0.12213-2.916 1.2465-4.875 3.8809l-1.4043 1.8516c-2.7017 3.3429-3.7656 4.9387-7.7871 3.8106-0.14936-0.047-0.29937-0.0909-0.44922-0.13672-0.15661-0.0489-0.30729-0.0919-0.47265-0.14844l0.01 0.01c-0.9901-0.29416-1.9896-0.56485-3-0.80859l8e-3 -2e-3c-0.0647-0.0127-0.12052-0.028-0.1836-0.041-0.26683-0.0635-0.53456-0.12366-0.80273-0.1836-4.0019-1.0365-4.1292-2.9518-4.7949-7.1816l-0.28906-2.3047c-0.75844-6.5221-2.6451-6.7223-8.0388-6.6624zm-0.01172 30.994c4e-3 -1e-5 8e-3 -1e-5 0.0117 0 5.0653 3e-4 9.9608 0.87493 14.535 2.4805a12 12 0 0 0 5.4648 6.8789 12 12 0 0 0 8.6699 1.291c7.2034 6.1907 12.43 14.704 14.439 24.549 0.50642 2.48-1.3887 4.801-3.9199 4.8008h-12.379c-1.7693 1.5e-4 -3.3285-1.1619-3.834-2.8574-3.0341-10.177-12.349-17.126-22.967-17.141-1.8655 0.0101-3.7243 0.23539-5.5371 0.67578-1.7253 0.41898-3.5203-0.34928-4.4082-1.8867l-6.1797-10.701c-1.2629-2.1886-0.20551-4.9854 2.1894-5.791 4.4847-1.5096 9.1822-2.2858 13.914-2.2988zm-26.307 10.096c1.3611 0.0638 2.5961 0.816 3.2773 1.9961l6.1797 10.701c0.88545 1.5335 0.65743 3.4666-0.56055 4.752-4.2128 4.4466-6.5656 10.332-6.5781 16.457 7e-3 6.1287 2.3554 12.019 6.5684 16.471 1.217 1.285 1.445 3.217 0.56055 4.75l-6.1621 10.676c-1.2649 2.191-4.2204 2.6724-6.1152 0.99609-7.3582-6.507-12.254-15.238-14.062-24.74a12 12 0 0 0 3.2109-8.1543 12 12 0 0 0-3.2129-8.1504c1.8045-9.5062 6.6973-18.242 14.057-24.754 0.77978-0.68994 1.7978-1.0487 2.8379-1zm53.139 37.904h12.328c2.5312-2.4e-4 4.4264 2.3208 3.9199 4.8008-2.0084 9.8393-7.2302 18.349-14.428 24.539a12 12 0 0 0-2.9238-0.30273 12 12 0 0 0-5.7168 1.6035 12 12 0 0 0-5.4531 6.8613c-4.5756 1.6125-9.4742 2.4926-14.543 2.498-6e-3 2e-5 -0.0125 2e-5 -0.0195 0-4.7298-0.0188-9.4252-0.80071-13.906-2.3144-2.3921-0.80764-3.4471-3.6021-2.1855-5.7891l6.1699-10.688c0.88793-1.5374 2.6829-2.3057 4.4082-1.8867 1.814 0.44068 3.6743 0.66578 5.541 0.67578 10.621-0.0108 19.94-6.961 22.975-17.141 0.50551-1.6955 2.0647-2.8576 3.834-2.8574z" color="#000000" fill-opacity=".71429" filter="url(#a)" opacity=".2"/>
  <path transform="matrix(.086563 0 0 .086563 -13.745 294.41)" d="m88 17.006c-5.3937-0.05998-7.2804 0.14029-8.0391 6.6621l-0.28906 2.3047c-0.66573 4.2298-0.793 6.1452-4.7949 7.1816-0.26817 0.0599-0.53589 0.12007-0.80273 0.18359-0.0631 0.013-0.11886 0.0282-0.1836 0.041l8e-3 2e-3c-1.0104 0.24375-2.0099 0.51443-3 0.80859l0.01-0.0117c-0.16537 0.0565-0.31605 0.10151-0.47265 0.15039-0.14986 0.0458-0.29985 0.0898-0.44922 0.13672-4.0215 1.1281-5.0854-0.46762-7.7871-3.8106l-1.4043-1.8516c-1.959-2.6344-3.3698-3.7587-4.873-3.8809-0.18789-0.01527-0.37832-0.01507-0.57032 0-1.3439 0.10545-2.8172 0.93022-4.8476 2.1328-4.7011 2.6449-6.2347 3.7597-3.6309 9.7871l0.90039 2.1406c1.6564 4.3025 2.5183 5.9673-1.3027 9.3047l0.10157-0.0234c-0.78976 0.74858-1.558 1.5188-2.3066 2.3086l0.0215-0.10157c-3.3374 3.8211-5.0022 2.9591-9.3047 1.3027l-2.1406-0.90235c-1.8836-0.81371-3.2874-1.2228-4.4082-1.2578-2.4657-0.0772-3.5605 1.6567-5.3789 4.8887-2.7488 4.6411-3.5207 6.375 1.748 10.293l1.8516 1.4043c3.3429 2.7017 4.9387 3.7656 3.8105 7.7871-0.04698 0.14937-0.09087 0.29936-0.13672 0.44922-0.04894 0.1566-0.09193 0.30729-0.14844 0.47265l0.0098-0.01c-0.29416 0.99009-0.56485 1.9896-0.80859 3l-2e-3 -8e-3c-0.01271 0.0647-0.02795 0.12053-0.04102 0.1836-0.06352 0.26684-0.12365 0.53456-0.18359 0.80273-1.0365 4.0019-2.9518 4.1292-7.1816 4.7949l-2.3047 0.28906c-6.5218 0.75868-6.7221 2.6454-6.6621 8.0391-0.05998 5.3937 0.14028 7.2804 6.6621 8.0391l2.3047 0.28906c4.2298 0.66573 6.1452 0.793 7.1816 4.7949 0.05994 0.26818 0.12007 0.5359 0.18359 0.80273 0.01301 0.0631 0.02824 0.11886 0.04102 0.1836l2e-3 -8e-3c0.24375 1.0104 0.51443 2.0099 0.80859 3l-0.01172-0.01c0.0565 0.16537 0.10147 0.31605 0.15039 0.47265 0.04582 0.14985 0.08974 0.29986 0.13672 0.44922 1.1281 4.0215-0.46762 5.0854-3.8105 7.7871l-1.8516 1.4043c-5.2687 3.9179-4.4968 5.6499-1.748 10.291 2.6449 4.7011 3.7597 6.2347 9.7871 3.6309l2.1406-0.90039c4.3025-1.6564 5.9673-2.5183 9.3047 1.3027l-0.0234-0.10157c0.74858 0.78976 1.5188 1.5581 2.3086 2.3066l-0.10157-0.0215c3.8211 3.3374 2.9591 5.0022 1.3027 9.3047l-0.90235 2.1406c-2.6039 6.0274-1.0702 7.1441 3.6309 9.7891 4.6411 2.7488 6.375 3.5187 10.293-1.75l1.4043-1.8516c2.7017-3.3429 3.7656-4.9386 7.7871-3.8105 0.14937 0.047 0.29936 0.0909 0.44922 0.13672 0.1566 0.0489 0.30728 0.0938 0.47265 0.15039l-0.01-0.0117c0.99009 0.29416 1.9896 0.56484 3 0.80859l-8e-3 2e-3c0.0647 0.0128 0.12053 0.028 0.1836 0.041 0.26684 0.0635 0.53456 0.12365 0.80273 0.18359 4.0019 1.0365 4.1292 2.9518 4.7949 7.1816l0.28906 2.3047c0.75867 6.5218 2.6453 6.7221 8.0391 6.6621 5.3937 0.06 7.2804-0.14029 8.0391-6.6621l0.28906-2.3047c0.66576-4.2298 0.79299-6.1452 4.7949-7.1816 0.26817-0.06 0.5359-0.12007 0.80273-0.18359 0.0631-0.0131 0.11886-0.0281 0.1836-0.041l-8e-3 -2e-3c1.0104-0.24375 2.0099-0.51443 3-0.80859l-0.01 0.0117c0.16536-0.0565 0.31604-0.10151 0.47265-0.15039 0.14985-0.0458 0.29986-0.0897 0.44922-0.13672 4.0215-1.1281 5.0854 0.46761 7.7871 3.8105l1.4043 1.8516c3.9179 5.2687 5.6499 4.4968 10.291 1.748 4.7011-2.6449 6.2348-3.7597 3.6309-9.7871l-0.90039-2.1406c-1.6564-4.3025-2.5183-5.9673 1.3027-9.3047l-0.10157 0.0234c0.78977-0.74858 1.5581-1.5188 2.3066-2.3086l-0.0215 0.10157c3.3374-3.8211 5.0022-2.9591 9.3047-1.3027l2.1406 0.90235c6.0274 2.6039 7.1422 1.0702 9.7871-3.6309 2.7488-4.6411 3.5207-6.375-1.748-10.293l-1.8516-1.4043c-3.3429-2.7017-4.9387-3.7656-3.8105-7.7871 0.047-0.14936 0.0908-0.29937 0.13672-0.44922 0.0489-0.1566 0.092-0.30728 0.14843-0.47265l-0.01 0.01c0.29416-0.99009 0.56484-1.9896 0.80859-3l2e-3 8e-3c0.0128-0.0647 0.028-0.12052 0.041-0.1836 0.0635-0.26683 0.12365-0.53455 0.18359-0.80273 1.0365-4.0019 2.9518-4.1292 7.1816-4.7949l2.3047-0.28906c6.5218-0.75867 6.7221-2.6453 6.6621-8.0391 0.06-5.3937-0.14028-7.2804-6.6621-8.0391l-2.3047-0.28906c-4.2298-0.66574-6.1452-0.79299-7.1816-4.7949-0.06-0.26816-0.12007-0.53589-0.18359-0.80273-0.0131-0.0631-0.0281-0.11887-0.041-0.1836l-2e-3 8e-3c-0.24375-1.0104-0.51442-2.0099-0.80859-3l0.0117 0.01c-0.0565-0.16536-0.10151-0.31604-0.15039-0.47265-0.0458-0.14986-0.0897-0.29985-0.13672-0.44922-1.1281-4.0215 0.46762-5.0854 3.8105-7.7871l1.8516-1.4043c5.2687-3.9179 4.4968-5.6499 1.748-10.291-1.8184-3.232-2.9132-4.9678-5.3789-4.8906-1.1207 0.0351-2.5246 0.44605-4.4082 1.2598l-2.1406 0.90039c-4.3025 1.6564-5.9673 2.5183-9.3047-1.3027l0.0234 0.10157c-0.74858-0.78977-1.5188-1.5581-2.3086-2.3066l0.10157 0.0215c-3.8211-3.3374-2.9591-5.0022-1.3027-9.3047l0.90235-2.1406c2.6039-6.0274 1.0702-7.1422-3.6309-9.7871-2.3206-1.3744-3.9148-2.2549-5.418-2.1328-1.5032 0.12213-2.916 1.2465-4.875 3.8809l-1.4043 1.8516c-2.7017 3.3429-3.7656 4.9387-7.7871 3.8106-0.14936-0.047-0.29937-0.0909-0.44922-0.13672-0.15661-0.0489-0.30729-0.0919-0.47265-0.14844l0.01 0.01c-0.9901-0.29416-1.9896-0.56485-3-0.80859l8e-3 -2e-3c-0.0647-0.0127-0.12052-0.028-0.1836-0.041-0.26683-0.0635-0.53456-0.12366-0.80273-0.1836-4.0019-1.0365-4.1292-2.9518-4.7949-7.1816l-0.28906-2.3047c-0.75844-6.5221-2.6451-6.7223-8.0388-6.6624zm-0.01172 30.994c4e-3 -1e-5 8e-3 -1e-5 0.0117 0 5.0653 3e-4 9.9608 0.87493 14.535 2.4805a12 12 0 0 0 5.4648 6.8789 12 12 0 0 0 8.6699 1.291c7.2034 6.1907 12.43 14.704 14.439 24.549 0.50642 2.48-1.3887 4.801-3.9199 4.8008h-12.379c-1.7693 1.5e-4 -3.3285-1.1619-3.834-2.8574-3.0341-10.177-12.349-17.126-22.967-17.141-1.8655 0.0101-3.7243 0.23539-5.5371 0.67578-1.7253 0.41898-3.5203-0.34928-4.4082-1.8867l-6.1797-10.701c-1.2629-2.1886-0.20551-4.9854 2.1894-5.791 4.4847-1.5096 9.1822-2.2858 13.914-2.2988zm-26.307 10.096c1.3611 0.0638 2.5961 0.816 3.2773 1.9961l6.1797 10.701c0.88545 1.5335 0.65743 3.4666-0.56055 4.752-4.2128 4.4466-6.5656 10.332-6.5781 16.457 7e-3 6.1287 2.3554 12.019 6.5684 16.471 1.217 1.285 1.445 3.217 0.56055 4.75l-6.1621 10.676c-1.2649 2.191-4.2204 2.6724-6.1152 0.99609-7.3582-6.507-12.254-15.238-14.062-24.74a12 12 0 0 0 3.2109-8.1543 12 12 0 0 0-3.2129-8.1504c1.8045-9.5062 6.6973-18.242 14.057-24.754 0.77978-0.68994 1.7978-1.0487 2.8379-1zm53.139 37.904h12.328c2.5312-2.4e-4 4.4264 2.3208 3.9199 4.8008-2.0084 9.8393-7.2302 18.349-14.428 24.539a12 12 0 0 0-2.9238-0.30273 12 12 0 0 0-5.7168 1.6035 12 12 0 0 0-5.4531 6.8613c-4.5756 1.6125-9.4742 2.4926-14.543 2.498-6e-3 2e-5 -0.0125 2e-5 -0.0195 0-4.7298-0.0188-9.4252-0.80071-13.906-2.3144-2.3921-0.80764-3.4471-3.6021-2.1855-5.7891l6.1699-10.688c0.88793-1.5374 2.6829-2.3057 4.4082-1.8867 1.814 0.44068 3.6743 0.66578 5.541 0.67578 10.621-0.0108 19.94-6.961 22.975-17.141 0.50551-1.6955 2.0647-2.8576 3.834-2.8574z" color="#000000" fill="url(#d)" filter="url(#a)" opacity=".2"/>
  <path d="m-6.1279 295.53c-0.4669-5e-3 -0.63021 0.0121-0.69588 0.5767l-0.025022 0.1995c-0.057627 0.36614-0.068644 0.53194-0.41506 0.62166-0.023212 5e-3 -0.046388 0.0104-0.069487 0.0159-0.00546 9.8e-4 -0.010289 2e-3 -0.015894 4e-3l6.87e-4 1.8e-4c-0.087459 0.0211-0.17398 0.0445-0.25969 0.07l8.507e-4 -9.8e-4c-0.014314 5e-3 -0.027358 9e-3 -0.040914 0.013-0.012972 4e-3 -0.025957 8e-3 -0.038886 0.0118-0.34811 0.0976-0.44021-0.0405-0.67407-0.32985l-0.12156-0.16028c-0.16957-0.22804-0.2917-0.32537-0.42182-0.33594-0.016263-1e-3 -0.032749-1e-3 -0.049369 0-0.11633 9e-3 -0.24386 0.0805-0.41963 0.18462-0.40694 0.22895-0.5397 0.32545-0.3143 0.8472l0.07794 0.1853c0.14338 0.37244 0.21799 0.51655-0.11277 0.80544l0.00879-2e-3c-0.068364 0.0648-0.13487 0.13147-0.19967 0.19983l0.00186-9e-3c-0.28889 0.33077-0.433 0.25615-0.80544 0.11277l-0.1853-0.0781c-0.16305-0.0704-0.28457-0.10584-0.38159-0.10888-0.21344-7e-3 -0.30821 0.14341-0.46561 0.42318-0.23794 0.40175-0.30476 0.55184 0.15132 0.89099l0.16028 0.12156c0.28937 0.23387 0.4275 0.32596 0.32985 0.67407-0.0041 0.0129-0.0079 0.0259-0.01184 0.0389-0.0042 0.0135-8e-3 0.0266-0.01285 0.0409l8.47e-4 -9.8e-4c-0.02546 0.0857-0.04889 0.17223-0.06999 0.25969l-1.73e-4 -6.6e-4c-0.0011 6e-3 -0.0024 0.0104-0.0036 0.0159-0.0055 0.0231-0.0107 0.0463-0.01589 0.0695-0.08972 0.34642-0.25552 0.35743-0.62166 0.41506l-0.1995 0.025c-0.56455 0.0657-0.58188 0.22899-0.57669 0.69588-0.0052 0.4669 0.01214 0.63021 0.57669 0.69589l0.1995 0.025c0.36615 0.0576 0.53194 0.0687 0.62166 0.41507 0.0052 0.0232 0.01039 0.0464 0.01589 0.0695 0.0011 5e-3 0.0024 0.0103 0.0036 0.0159l1.73e-4 -6.5e-4c0.0211 0.0875 0.04453 0.17398 0.06999 0.25969l-1e-3 -9.8e-4c0.0049 0.0143 0.0088 0.0274 0.01302 0.0409 4e-3 0.013 0.0078 0.026 0.01183 0.0389 0.09765 0.34811-0.04048 0.4402-0.32985 0.67407l-0.16028 0.12156c-0.45608 0.33915-0.38926 0.48907-0.15132 0.89082 0.22895 0.40694 0.32545 0.53969 0.8472 0.3143l0.1853-0.0779c0.37244-0.14338 0.51655-0.21799 0.80544 0.11278l-0.00203-9e-3c0.064799 0.0684 0.13147 0.13487 0.19984 0.19966l-0.00879-2e-3c0.33076 0.2889 0.25615 0.433 0.11277 0.80544l-0.07811 0.1853c-0.2254 0.52175-0.092641 0.61842 0.3143 0.84737 0.40175 0.23794 0.55184 0.30459 0.89099-0.15148l0.12156-0.16028c0.23387-0.28938 0.32596-0.4275 0.67407-0.32985 0.01293 4e-3 0.025915 8e-3 0.038886 0.0118 0.013554 4e-3 0.026599 8e-3 0.040914 0.013l-8.506e-4 -9.8e-4c0.085705 0.0254 0.17223 0.0489 0.25969 0.07l-6.871e-4 1.8e-4c0.0056 9.8e-4 0.010433 2e-3 0.015894 4e-3 0.023098 5e-3 0.046273 0.0107 0.069487 0.0159 0.34642 0.0897 0.35743 0.25552 0.41506 0.62166l0.025022 0.1995c0.065673 0.56455 0.22899 0.58188 0.69588 0.57669 0.46689 5e-3 0.63021-0.0121 0.69588-0.57669l0.025022-0.1995c0.05763-0.36614 0.068643-0.53194 0.41506-0.62166 0.023212-5e-3 0.046389-0.0104 0.069487-0.0159 0.00546-9.8e-4 0.010289-2e-3 0.015894-4e-3l-6.871e-4 -1.8e-4c0.08746-0.0211 0.17398-0.0445 0.25969-0.07l-8.507e-4 9.8e-4c0.014314-5e-3 0.027358-9e-3 0.040914-0.013 0.012972-4e-3 0.025957-8e-3 0.038886-0.0118 0.34811-0.0976 0.44021 0.0405 0.67407 0.32985l0.12156 0.16028c0.33915 0.45607 0.48907 0.38926 0.89082 0.15131 0.40694-0.22895 0.5397-0.32545 0.3143-0.8472l-0.07794-0.1853c-0.14338-0.37243-0.21799-0.51654 0.11277-0.80544l-0.00879 2e-3c0.068365-0.0648 0.13487-0.13147 0.19967-0.19984l-0.00186 9e-3c0.28889-0.33077 0.433-0.25615 0.80544-0.11277l0.1853 0.0781c0.52175 0.2254 0.61825 0.0926 0.8472-0.3143 0.23794-0.40175 0.30476-0.55184-0.15132-0.89099l-0.16028-0.12156c-0.28937-0.23386-0.4275-0.32596-0.32985-0.67407 0.00407-0.0129 0.00786-0.0259 0.011834-0.0389 0.00423-0.0135 0.00796-0.0266 0.012848-0.0409l-8.506e-4 9.8e-4c0.025463-0.0857 0.048894-0.17223 0.069994-0.25969l1.731e-4 6.6e-4c0.00111-6e-3 0.00242-0.0104 0.00355-0.0159 0.0055-0.0231 0.010705-0.0463 0.015894-0.0695 0.08972-0.34642 0.25552-0.35743 0.62166-0.41506l0.1995-0.025c0.56455-0.0657 0.58188-0.22899 0.57669-0.69588 0.005195-0.4669-0.012144-0.63021-0.57669-0.69589l-0.1995-0.025c-0.36615-0.0576-0.53194-0.0686-0.62166-0.41507-0.0052-0.0232-0.010394-0.0464-0.015894-0.0695-0.00115-5e-3 -0.00242-0.0103-0.00355-0.0159l-1.731e-4 6.5e-4c-0.021099-0.0875-0.04453-0.17398-0.069994-0.25969l0.00101 9.8e-4c-0.00489-0.0143-0.00879-0.0273-0.013018-0.0409-0.00397-0.013-0.00776-0.0259-0.011834-0.0389-0.097652-0.34811 0.040479-0.4402 0.32985-0.67407l0.16028-0.12156c0.45608-0.33915 0.38926-0.48907 0.15132-0.89082-0.1574-0.27977-0.25218-0.43002-0.46561-0.42335-0.097014 3e-3 -0.21854 0.0386-0.38159 0.10905l-0.1853 0.0779c-0.37243 0.14338-0.51655 0.21799-0.80544-0.11278l0.00203 9e-3c-0.064799-0.0684-0.13147-0.13487-0.19984-0.19966l0.00879 2e-3c-0.33076-0.28889-0.25615-0.433-0.11277-0.80544l0.07811-0.1853c0.2254-0.52175 0.092641-0.61825-0.3143-0.8472-0.20087-0.11897-0.33887-0.19519-0.46899-0.18462-0.13012 0.0106-0.25242 0.1079-0.42199 0.33594l-0.12156 0.16028c-0.23387 0.28937-0.32596 0.4275-0.67407 0.32985-0.01293-4e-3 -0.025915-8e-3 -0.038886-0.0118-0.013558-4e-3 -0.026599-8e-3 -0.040914-0.0129l8.506e-4 9.9e-4c-0.085706-0.0255-0.17223-0.0489-0.25969-0.07l6.871e-4 -1.7e-4c-0.0056-9.8e-4 -0.010433-2e-3 -0.015894-4e-3 -0.023098-5e-3 -0.046273-0.0107-0.069487-0.0159-0.34642-0.0897-0.35743-0.25551-0.41506-0.62166l-0.025022-0.1995c-0.065653-0.56455-0.22897-0.58188-0.69586-0.57669zm-0.00101 2.6829h0.00101c0.43847 3e-5 0.86224 0.0757 1.2582 0.21472a1.0388 1.0388 0 0 0 0.47305 0.59546 1.0388 1.0388 0 0 0 0.75049 0.11175c0.62354 0.53589 1.076 1.2728 1.2499 2.125 0.043837 0.21468-0.12021 0.4156-0.33932 0.41557h-1.0716c-0.15315 2e-5 -0.28812-0.10057-0.33188-0.24734-0.26264-0.88092-1.0689-1.4825-1.9881-1.4837-0.16148 9.8e-4 -0.32238 0.0204-0.47931 0.0585-0.14934 0.0363-0.30473-0.0302-0.38159-0.16332l-0.53493-0.92633c-0.10932-0.18945-0.017791-0.43154 0.18952-0.50128 0.38821-0.13067 0.79483-0.19787 1.2044-0.199zm-2.2772 0.87392c0.11782 6e-3 0.22473 0.0706 0.2837 0.17278l0.53493 0.92633c0.076647 0.13274 0.056909 0.30007-0.048523 0.41134-0.36467 0.38491-0.56834 0.89435-0.56942 1.4246 6.216e-4 0.53052 0.20389 1.0404 0.56858 1.4258 0.10535 0.11124 0.12508 0.27848 0.048523 0.41118l-0.53341 0.92412c-0.10949 0.18966-0.36533 0.23134-0.52935 0.0862-0.63695-0.56327-1.0607-1.3191-1.2173-2.1416a1.0388 1.0388 0 0 0 0.27795-0.70587 1.0388 1.0388 0 0 0-0.27812-0.70551c0.1562-0.82288 0.57974-1.5791 1.2168-2.1428 0.0675-0.0597 0.15563-0.0908 0.24566-0.0866zm4.5998 3.2811h1.0672c0.21911-3e-5 0.38316 0.20089 0.33932 0.41556-0.17386 0.85172-0.62587 1.5883-1.2489 2.1242a1.0388 1.0388 0 0 0-0.25309-0.0262 1.0388 1.0388 0 0 0-0.49486 0.1388 1.0388 1.0388 0 0 0-0.47204 0.59394c-0.39608 0.13958-0.82011 0.21576-1.2589 0.21624h-0.0017c-0.40943-2e-3 -0.81587-0.0693-1.2038-0.20035-0.20707-0.0699-0.29839-0.3118-0.18919-0.50112l0.53409-0.92514c0.076862-0.13308 0.23224-0.19958 0.38159-0.16331 0.15703 0.0381 0.31806 0.0576 0.47965 0.0585 0.91941-9.8e-4 1.726-0.60256 1.9887-1.4837 0.043759-0.14677 0.17873-0.24736 0.33188-0.24734z" color="#000000" fill="#fff"/>
  <path d="m-6.1279 297.52c-2.1302 0-3.9148 1.4822-4.3812 3.4706a1.0388 1.0388 0 0 1 0.6406 0.32512c0.1562-0.82288 0.57974-1.5791 1.2168-2.1428 0.0675-0.0597 0.15563-0.0908 0.24566-0.0866 0.11782 6e-3 0.22473 0.0706 0.2837 0.17278l0.53493 0.92633c0.076647 0.13274 0.056909 0.30007-0.048523 0.41134-0.36467 0.38491-0.56834 0.89435-0.56942 1.4246 6.216e-4 0.53052 0.20389 1.0404 0.56858 1.4258 0.10535 0.11124 0.12508 0.27848 0.048523 0.41118l-0.53341 0.92412c-0.10949 0.18966-0.36533 0.23134-0.52935 0.0862-0.63695-0.56327-1.0607-1.3191-1.2173-2.1416a1.0388 1.0388 0 0 1-0.6406 0.32511c0.46659 1.9883 2.251 3.4703 4.3811 3.4703 0.45148 0 0.88719-0.0672 1.2984-0.19105a1.0388 1.0388 0 0 1-0.039223-0.71769c-0.39608 0.13958-0.82011 0.21576-1.2589 0.21624h-0.0017c-0.40943-2e-3 -0.81587-0.0693-1.2038-0.20035-0.20707-0.0699-0.29839-0.3118-0.18919-0.50112l0.53409-0.92514c0.076862-0.13308 0.23224-0.19958 0.38159-0.16331 0.15703 0.0381 0.31806 0.0576 0.47965 0.0585 0.91941-9.8e-4 1.726-0.60256 1.9887-1.4837 0.043759-0.14677 0.17873-0.24736 0.33188-0.24734h1.0672c0.21911-3e-5 0.38316 0.20089 0.33932 0.41556-0.17386 0.85172-0.62587 1.5883-1.2489 2.1242a1.0388 1.0388 0 0 1 0.60357 0.39157c0.87261-0.8211 1.4185-1.9855 1.4185-3.2776 0-1.2923-0.54607-2.4569-1.419-3.278a1.0388 1.0388 0 0 1-0.60053 0.39122c0.62354 0.53589 1.076 1.2728 1.2499 2.125 0.043837 0.21468-0.12021 0.4156-0.33932 0.41557h-1.0716c-0.15315 2e-5 -0.28812-0.10057-0.33188-0.24734-0.26264-0.88092-1.0689-1.4825-1.9881-1.4837-0.16148 9.8e-4 -0.32238 0.0204-0.47931 0.0585-0.14934 0.0363-0.30472-0.0302-0.38159-0.16332l-0.53493-0.92633c-0.10932-0.18945-0.017788-0.43154 0.18952-0.50128 0.38821-0.13067 0.79483-0.19787 1.2044-0.199h0.00101c0.43847 3e-5 0.86224 0.0757 1.2582 0.21472a1.0388 1.0388 0 0 1 0.039731-0.71634c-0.4111-0.12373-0.84664-0.19088-1.2979-0.19088zm0 3.1163a1.385 1.385 0 0 1 1.385 1.385 1.385 1.385 0 0 1-1.385 1.385 1.385 1.385 0 0 1-1.385-1.385 1.385 1.385 0 0 1 1.385-1.385z" color="#000000" opacity=".1"/>
  <path d="m-3.9018 297.61a0.51938 0.51938 0 0 0-0.42521 0.25918 0.51938 0.51938 0 0 0 0.19003 0.70941 0.51938 0.51938 0 0 0 0.70941-0.19003 0.51938 0.51938 0 0 0-0.19003-0.70958 0.51938 0.51938 0 0 0-0.2842-0.069zm-6.7274 3.8977a0.51938 0.51938 0 0 0-0.51938 0.51937 0.51938 0.51938 0 0 0 0.51938 0.51938 0.51938 0.51938 0 0 0 0.51938-0.51938 0.51938 0.51938 0 0 0-0.51938-0.51937zm6.7397 3.8984a0.51938 0.51938 0 0 0-0.24752 0.0695 0.51938 0.51938 0 0 0-0.19003 0.70941 0.51938 0.51938 0 0 0 0.70941 0.19003 0.51938 0.51938 0 0 0 0.19003-0.7094 0.51938 0.51938 0 0 0-0.46189-0.25952z" enable-background="new" fill="#b3b3b3"/>
 </g>
</svg>
