<?xml version="1.0" encoding="UTF-8"?>
<svg width="64" height="64" version="1.1" viewBox="0 0 64 64" xmlns="http://www.w3.org/2000/svg" xmlns:cc="http://creativecommons.org/ns#" xmlns:dc="http://purl.org/dc/elements/1.1/" xmlns:rdf="http://www.w3.org/1999/02/22-rdf-syntax-ns#" xmlns:xlink="http://www.w3.org/1999/xlink">
 <metadata>
  <rdf:RDF>
   <cc:Work rdf:about="">
    <dc:format>image/svg+xml</dc:format>
    <dc:type rdf:resource="http://purl.org/dc/dcmitype/StillImage"/>
    <dc:title/>
   </cc:Work>
  </rdf:RDF>
 </metadata>
 <defs>
  <filter id="filter2761" x="-.024" y="-.024" width="1.048" height="1.048" color-interpolation-filters="sRGB">
   <feGaussianBlur stdDeviation="0.14552168"/>
  </filter>
  <linearGradient id="linearGradient1030" x1="78.5" x2="106.56" y1="55.812" y2="27.75" gradientTransform="matrix(1.0489,0,0,1.0489,-50.005,2.2535)" gradientUnits="userSpaceOnUse">
   <stop stop-color="#ff5a3c" offset="0"/>
   <stop stop-color="#be3c23" offset="1"/>
  </linearGradient>
  <linearGradient id="linearGradient1378" x1="35.572" x2="35.572" y1="9.6794" y2="-45.321" gradientTransform="translate(0 50)" gradientUnits="userSpaceOnUse">
   <stop offset="0"/>
   <stop stop-opacity="0" offset="1"/>
  </linearGradient>
  <linearGradient id="linearGradient1005" x1="8.9333" x2="8.9333" y1="1.1166" y2="15.677" gradientTransform="matrix(3.7796 0 0 3.7796 -.18222 .71024)" gradientUnits="userSpaceOnUse">
   <stop stop-color="#f5a078" offset="0"/>
   <stop stop-color="#fe9a69" offset=".515"/>
   <stop stop-color="#c84b28" offset=".515"/>
   <stop stop-color="#d23c23" offset="1"/>
  </linearGradient>
  <linearGradient id="linearGradient1017" x1="8.9333" x2="8.9333" y1="1.1166" y2="15.677" gradientTransform="matrix(3.7796 0 0 3.7796 -.18222 .71064)" gradientUnits="userSpaceOnUse">
   <stop stop-color="#e16e46" offset="0"/>
   <stop stop-color="#e6653c" offset=".515"/>
   <stop stop-color="#c84b28" offset=".515"/>
   <stop stop-color="#d23c23" offset="1"/>
  </linearGradient>
 </defs>
 <path transform="matrix(3.7796 0 0 3.7796 -.18222 .71024)" d="m10.709 1.05c4.405 0 5.0345 0.67282 5.0345 5.388v3.7761c0 4.7152-0.62954 5.388-5.0345 5.388h-4.4832c-4.405 0-5.0346-0.6728-5.0346-5.388v-3.7761c0-4.7152 0.62954-5.388 5.0346-5.388z" enable-background="new" fill="#141414" filter="url(#filter2761)" opacity=".3"/>
 <g fill-rule="evenodd">
  <path d="m40.294 4.6788c16.649 0 19.028 2.543 19.028 20.364v14.272c0 17.822-2.3794 20.364-19.028 20.364h-16.945c-16.649 0-19.029-2.5429-19.029-20.364v-14.272c0-17.822 2.3794-20.364 19.029-20.364z" enable-background="new" fill="url(#linearGradient1005)" stroke-width="3.7796"/>
  <path d="m40.294 4.6788c16.649 0 19.028 2.543 19.028 20.364v14.272c0 17.822-2.3794 20.364-19.028 20.364h-16.945c-16.649 0-19.029-2.5429-19.029-20.364v-14.272c0-17.822 2.3794-20.364 19.029-20.364z" enable-background="new" fill="url(#linearGradient1378)" opacity=".15" stroke-width="3.7796"/>
  <circle cx="47.219" cy="45.719" r="15.406" fill="url(#linearGradient1030)" style="paint-order:stroke fill markers"/>
 </g>
 <path d="m40.326 35.207-0.1069 21.025h5.5451v-6.4872c7.595 0.01591 11.455-0.97442 11.455-7.2154 0-6.9079-3.7773-7.3478-11.455-7.3222zm7.4559 4.4395c1.842 0.04391 4.2991 0.55427 4.2991 2.963 0 3.8539-6.2901 2.8461-6.2901 2.8461v-5.6955s0.88576-0.13993 1.9909-0.11358z" fill="#fff" stroke-width="1.0513"/>
 <path d="m31.824 4.6788h-8.4746c-16.65 0-19.029 2.5432-19.029 20.365v14.271c0 17.821 2.3803 20.363 19.029 20.363h8.4746z" enable-background="new" fill="url(#linearGradient1017)" fill-rule="evenodd" stroke-width="3.7796"/>
</svg>
