<?xml version="1.0" encoding="UTF-8"?>
<svg width="64" height="64" version="1.1" viewBox="0 0 64 64" xmlns="http://www.w3.org/2000/svg" xmlns:cc="http://creativecommons.org/ns#" xmlns:dc="http://purl.org/dc/elements/1.1/" xmlns:rdf="http://www.w3.org/1999/02/22-rdf-syntax-ns#">
 <metadata>
  <rdf:RDF>
   <cc:Work rdf:about="">
    <dc:format>image/svg+xml</dc:format>
    <dc:type rdf:resource="http://purl.org/dc/dcmitype/StillImage"/>
    <dc:title/>
   </cc:Work>
  </rdf:RDF>
 </metadata>
 <defs>
  <filter id="filter2761" x="-.024" y="-.024" width="1.048" height="1.048" color-interpolation-filters="sRGB">
   <feGaussianBlur stdDeviation="0.14552168"/>
  </filter>
  <linearGradient id="linearGradient942" x1="8.9333" x2="8.9333" y1="1.1166" y2="15.677" gradientTransform="matrix(3.7796 0 0 3.7796 -.18222 .71024)" gradientUnits="userSpaceOnUse">
   <stop stop-color="#5ab9ff" offset="0"/>
   <stop stop-color="#30c9fd" offset=".22539"/>
   <stop stop-color="#4691e6" offset=".22539"/>
   <stop stop-color="#1aa7f4" offset=".46111"/>
   <stop stop-color="#376ec3" offset=".46111"/>
   <stop stop-color="#3366b7" offset=".75362"/>
   <stop stop-color="#284b96" offset=".75362"/>
   <stop stop-color="#27468e" offset="1"/>
  </linearGradient>
  <linearGradient id="linearGradient1030" x1="78.5" x2="106.56" y1="55.812" y2="27.75" gradientTransform="matrix(1.0489 0 0 1.0489 -50.005 2.2535)" gradientUnits="userSpaceOnUse">
   <stop stop-color="#2d5faa" offset="0"/>
   <stop stop-color="#5a87d2" offset="1"/>
  </linearGradient>
  <linearGradient id="linearGradient1378" x1="35.572" x2="35.572" y1="9.6794" y2="-45.321" gradientTransform="translate(0,50)" gradientUnits="userSpaceOnUse">
   <stop offset="0"/>
   <stop stop-opacity="0" offset="1"/>
  </linearGradient>
 </defs>
 <path transform="matrix(3.7796 0 0 3.7796 -.18222 .71024)" d="m10.709 1.05c4.405 0 5.0345 0.67282 5.0345 5.388v3.7761c0 4.7152-0.62954 5.388-5.0345 5.388h-4.4832c-4.405 0-5.0346-0.6728-5.0346-5.388v-3.7761c0-4.7152 0.62954-5.388 5.0346-5.388z" enable-background="new" fill="#141414" filter="url(#filter2761)" opacity=".3"/>
 <g fill-rule="evenodd">
  <path d="m40.294 4.6788c16.649 0 19.028 2.543 19.028 20.364v14.272c0 17.822-2.3794 20.364-19.028 20.364h-16.945c-16.649 0-19.029-2.5429-19.029-20.364v-14.272c0-17.822 2.3794-20.364 19.029-20.364z" enable-background="new" fill="url(#linearGradient942)" stroke-width="3.7796"/>
  <path d="m40.294 4.6788c16.649 0 19.028 2.543 19.028 20.364v14.272c0 17.822-2.3794 20.364-19.028 20.364h-16.945c-16.649 0-19.029-2.5429-19.029-20.364v-14.272c0-17.822 2.3794-20.364 19.029-20.364z" enable-background="new" fill="url(#linearGradient1378)" opacity=".15" stroke-width="3.7796"/>
  <circle cx="47.219" cy="45.719" r="15.406" fill="url(#linearGradient1030)" style="paint-order:stroke fill markers"/>
 </g>
 <path d="m37.719 37.728h3.9682l1.71 9.3613 2.1923-9.3613h3.2628l2.1303 9.449 1.8416-9.449h3.8948l-3.3687 15.982h-4.0392l-2.0737-8.6817-1.9549 8.6817h-4.1435z" fill="#fff" stroke-width=".95"/>
</svg>
