<svg width="64" height="64" version="1.1" viewBox="0 0 16.933 16.933" xmlns="http://www.w3.org/2000/svg" xmlns:xlink="http://www.w3.org/1999/xlink">
 <defs>
  <filter id="b" x="-.81" y="-.81" width="2.62" height="2.62" color-interpolation-filters="sRGB">
   <feGaussianBlur stdDeviation="2.7"/>
  </filter>
  <filter id="c" x="-.81" y="-.81" width="2.62" height="2.62" color-interpolation-filters="sRGB">
   <feGaussianBlur stdDeviation="2.7"/>
  </filter>
  <filter id="d" x="-.81" y="-.81" width="2.62" height="2.62" color-interpolation-filters="sRGB">
   <feGaussianBlur stdDeviation="2.7"/>
  </filter>
  <filter id="e" x="-.81" y="-.81" width="2.62" height="2.62" color-interpolation-filters="sRGB">
   <feGaussianBlur stdDeviation="2.7"/>
  </filter>
  <linearGradient id="a" x1="104" x2="200" y1="44" y2="268" gradientTransform="matrix(.26458 0 0 .26458 -27.014 -32.014)" gradientUnits="userSpaceOnUse">
   <stop stop-color="#3e6cd3" offset="0"/>
   <stop stop-color="#6aafe8" offset="1"/>
  </linearGradient>
 </defs>
 <g transform="matrix(.26786 0 0 .26786 4.9303 5.9861)">
  <circle cx="13.202" cy="9.2602" r="29.633" enable-background="new" fill="url(#a)"/>
  <g fill="#fff">
   <path d="m13.202-20.373a29.633 29.633 0 0 0-11.799 2.4887l2.8029 2.8029v3.3181l3.7041 4.0901h2.1166v-2.1166l3.1749-3.1749v-2.1166l2.1166-2.1166v-3.069a29.633 29.633 0 0 0-2.1166-0.10594zm-17.203 5.5505a29.633 29.633 0 0 0-12.429 24.082h3.1749l5.2916 5.2916v-6.3499l3.1749-3.1749h2.1166l3.1749-3.1749h3.1749l-1.5875-1.5875 3.1749-3.7041-3.1749-3.1749h-4.7624v4.2332h-2.1166l-2.1166-2.1166v-2.1166l3.1749-3.1749h2.6458v-2.1166zm30.961 1.8577-3.1749 3.1749v2.6458h3.1749v-1.5875h2.1166v2.1166l-1.0583 1.0583-4.2332 0.07183-1.5875 1.5156h-2.1166v2.1166l-1.5875 1.5875v3.1749h3.1749l2.1166-2.1166h2.1166v1.0583l2.1166 2.1166h1.0583v-1.0583l-2.1166-2.1166h2.1166l2.1166 2.1166h2.6458l-1.5875-1.5875 1.5875-1.5875h1.5875l1.5875 1.5875h-1.5875l-1.5875 1.5875 1.5585 1.5585 0.02894 1.6164h-2.1166l6.3499 6.3499h1.0583l1.0583-1.0583 1.0025-1.0025a29.633 29.633 0 0 0 0.05581-1.1141 29.633 29.633 0 0 0-0.03876-1.0971l-1.0196-1.0196h0.98132a29.633 29.633 0 0 0-9.9935-20.108zm6.3499 19.05h-6.3499l-1.0583-1.0583h-6.3499l-3.7041 3.7041v5.2916l2.6458 2.6458h3.7041l1.5875 1.5875v1.5875l1.0583 1.0583v6.3499l4.0188 4.2477 6.6356-6.6362-0.07131-6.0781 5.2916-5.2916h-2.1166l-5.2916-5.2916zm-20.637-14.816v1.5875h3.1749l-1.5875-1.5875zm9.5248 0.52916-1.5875 1.5875v1.5875h1.5875zm-16.404 5.8207-1.5875 1.5875h1.5875l0.52916 0.52916h0.52916l0.52916-0.52916zm-8.9957 11.112-1.5875 1.5875h3.1749v-1.5875zm-1.5875 4.7624-2.1166 2.1166v5.2916l4.2477 3.7222-0.01447 4.7443-1.5875 1.5875v2.2065a29.633 29.633 0 0 0 3.2369 2.0918l5.2296-4.8275v-2.1166l3.1749-3.1749v-1.5875l1.5875-1.5875v-4.2332l-2.1166-2.1166h-4.2332l-2.1166-2.1166zm43.92 7.4082-2.1166 1.9735v3.3181h0.49195a29.633 29.633 0 0 0 1.6247-2.6019z" color="#000000" opacity=".24"/>
   <circle cx="-1.0852" cy="3.4395" r="1.0583" enable-background="new"/>
   <circle cx="4.2064" cy="24.606" r="1.0583" enable-background="new"/>
   <circle cx="20.081" cy="14.023" r="1.0583" enable-background="new"/>
   <circle cx="25.373" cy="-1.852" r="1.0583" enable-background="new"/>
   <path d="m-0.54314-16.974a29.633 29.633 0 0 0-0.55758 0.31987c-0.53705 6.7837-0.64601 13.434-0.15141 19.768-4.0464-2.4909-7.949-5.1112-11.709-7.7332a29.633 29.633 0 0 0-0.23306 0.48265c3.6608 2.5513 7.4602 5.1019 11.398 7.5348-5.088 1.8417-9.9548 4.2012-14.586 7.2346a29.633 29.633 0 0 0 0.02222 0.61649c4.7916-3.1723 9.8419-5.6115 15.136-7.4955 0.0088 0.0054 0.0176 0.01066 0.02636 0.01601 0.30502 3.5881 0.80567 7.0727 1.5368 10.419 0.79033 3.6169 1.8502 7.073 3.2183 10.325-2.0585 0.70206-4.1178 1.2469-6.1075 1.6577-2.8136 0.58094-5.4821 0.89372-7.8128 1.0165a29.633 29.633 0 0 0 0.36534 0.50797c2.2765-0.13573 4.8465-0.447 7.5544-1.0061 2.0211-0.41732 4.1153-0.97184 6.2104-1.6877 2.2671 5.2357 5.354 9.9271 9.4256 13.891a29.633 29.633 0 0 0 0.0088 5.29e-4 29.633 29.633 0 0 0 0.72811-0.02585c-4.1927-3.976-7.354-8.7172-9.6623-14.039 5.7632-2.0414 11.486-5.3344 15.666-10.442 6.7413 2.5522 13.782 4.3383 21.101 4.9355a29.633 29.633 0 0 0 0.1881-0.5152c-15.168-1.2035-29.163-7.5764-41.803-15.282 8.0347-2.7805 16.629-4.3023 25.74-5.1557-1.2195 5.1119-2.992 10.045-5.1861 14.748l0.47955 0.22324c2.232-4.7844 4.0321-9.8092 5.2616-15.02 4.7425-0.4293 9.6242-0.68247 14.639-0.84282a29.633 29.633 0 0 0-0.23409-0.52296c-4.883 0.15891-9.6436 0.40794-14.277 0.82267 1.0652-4.6773 1.6664-9.503 1.7027-14.439a29.633 29.633 0 0 0-0.52864-0.27285c-0.01561 5.0475-0.62655 9.9812-1.727 14.76-9.1983 0.85184-17.887 2.3789-26.018 5.1898-0.49525-6.3947-0.37325-13.123 0.185-19.99zm-0.09353 21.084c6.3426 3.854 13.032 7.3757 20.048 10.079-4.0987 4.9414-9.7004 8.1523-15.353 10.152-1.3599-3.2281-2.4142-6.6632-3.2013-10.265-0.69946-3.201-1.1876-6.533-1.4934-9.9651z" color="#000000" color-rendering="auto" dominant-baseline="auto" fill-rule="evenodd" image-rendering="auto" opacity=".5" shape-rendering="auto" solid-color="#000000" style="font-feature-settings:normal;font-variant-alternates:normal;font-variant-caps:normal;font-variant-ligatures:normal;font-variant-numeric:normal;font-variant-position:normal;isolation:auto;mix-blend-mode:normal;shape-padding:0;text-decoration-color:#000000;text-decoration-line:none;text-decoration-style:solid;text-indent:0;text-orientation:mixed;text-transform:none;white-space:normal"/>
   <circle transform="matrix(.26458 0 0 .26458 -16.431 -20.373)" cx="58" cy="90" r="4" enable-background="new" filter="url(#e)"/>
   <circle transform="matrix(.26458 0 0 .26458 -16.431 -20.373)" cx="78" cy="170" r="4" enable-background="new" filter="url(#d)"/>
   <circle transform="matrix(.26458 0 0 .26458 -16.431 -20.373)" cx="138" cy="130" r="4" enable-background="new" filter="url(#c)"/>
   <circle transform="matrix(.26458 0 0 .26458 -16.431 -20.373)" cx="158" cy="70" r="4" enable-background="new" filter="url(#b)"/>
   <path d="m13.202-20.373a29.633 29.633 0 0 0-29.633 29.633 29.633 29.633 0 0 0 0.01085 0.30954 29.633 29.633 0 0 1 29.622-29.413 29.633 29.633 0 0 1 29.622 29.323 29.633 29.633 0 0 0 0.010848-0.21962 29.633 29.633 0 0 0-29.633-29.633z" enable-background="new" opacity=".3"/>
  </g>
  <path d="m13.202 38.893a29.633 29.633 0 0 1-29.633-29.633 29.633 29.633 0 0 1 0.010852-0.30954 29.633 29.633 0 0 0 29.622 29.413 29.633 29.633 0 0 0 29.622-29.323 29.633 29.633 0 0 1 0.01085 0.21962 29.633 29.633 0 0 1-29.633 29.633z" enable-background="new" opacity=".2"/>
 </g>
</svg>
