<svg width="64" height="64" version="1.1" xmlns="http://www.w3.org/2000/svg">
 <rect x="1.9826" y="3.0331" width="59.997" height="59.997" ry="29.998" opacity=".15" stroke-width="1.0115"/>
 <rect x="1.9826" y="1.9784" width="59.997" height="59.997" ry="29.998" fill="#f9f9f9" stroke-width="1.0115"/>
 <g transform="matrix(.058825 0 0 .058825 1.6234 15.493)" fill="#fff" stroke-width=".41667">
  <g fill="#fff" stroke-width=".41667">
   <g fill="#fff" stroke-width=".41667">
    <g transform="translate(973.09,-210.4)" fill="#fff" stroke-width=".41667">
     <path d="m-456.7 534.13c-49.553 0-96.331 21.852-128.34 59.948-9.93 11.811-8.402 29.434 3.428 39.363 5.234 4.396 11.605 6.557 17.958 6.557 7.973 0 15.891-3.39 21.405-9.966 21.368-25.429 52.552-40.016 85.544-40.016s64.177 14.587 85.544 40.016c5.533 6.595 13.45 9.966 21.405 9.966 6.353 0 12.724-2.142 17.958-6.557 11.83-9.93 13.357-27.553 3.428-39.363-32.005-38.096-78.783-59.948-128.34-59.948z"/>
     <path d="m-456.71 411.21c-82.545 0-160.49 36.419-213.88 99.926-9.929 11.811-8.402 29.434 3.428 39.363 5.234 4.396 11.605 6.558 17.958 6.558 7.973 0 15.891-3.391 21.405-9.967 42.716-50.838 105.09-79.993 171.09-79.993s128.37 29.155 171.11 79.993c5.533 6.595 13.45 9.967 21.404 9.967 6.353 0 12.724-2.143 17.959-6.558 11.829-9.929 13.356-27.57 3.428-39.363-53.41-63.506-131.35-99.926-213.9-99.926z"/>
     <path d="m-157.26 432.77c-74.739-88.935-183.89-139.92-299.44-139.92s-224.69 50.988-299.44 139.92c-9.93 11.811-8.402 29.434 3.428 39.363 5.234 4.396 11.587 6.558 17.939 6.558 7.973 0 15.891-3.391 21.423-9.967 64.084-76.248 157.64-119.99 256.65-119.99s192.57 43.741 256.65 119.97c5.533 6.576 13.45 9.967 21.424 9.967 6.353 0 12.724-2.143 17.958-6.558 11.811-9.912 13.34-27.553 3.41-39.345z"/>
     <path d="m-502.73 682.98c0 25.406 20.62 46.025 46.025 46.025s46.025-20.619 46.025-46.025c-7.7755-65.326-90.569-48.667-92.049 0z"/>
    </g>
   </g>
  </g>
 </g>
 <g transform="matrix(.058825 0 0 .058825 1.6234 14.493)" fill="#009eff" stroke-width=".41667">
  <g fill="#009eff" stroke-width=".41667">
   <g fill="#009eff" stroke-width=".41667">
    <g transform="translate(973.09,-210.4)" fill="#009eff" stroke-width=".41667">
     <path d="m-456.7 534.13c-49.553 0-96.331 21.852-128.34 59.948-9.93 11.811-8.402 29.434 3.428 39.363 5.234 4.396 11.605 6.557 17.958 6.557 7.973 0 15.891-3.39 21.405-9.966 21.368-25.429 52.552-40.016 85.544-40.016s64.177 14.587 85.544 40.016c5.533 6.595 13.45 9.966 21.405 9.966 6.353 0 12.724-2.142 17.958-6.557 11.83-9.93 13.357-27.553 3.428-39.363-32.005-38.096-78.783-59.948-128.34-59.948z"/>
     <path d="m-456.71 411.21c-82.545 0-160.49 36.419-213.88 99.926-9.929 11.811-8.402 29.434 3.428 39.363 5.234 4.396 11.605 6.558 17.958 6.558 7.973 0 15.891-3.391 21.405-9.967 42.716-50.838 105.09-79.993 171.09-79.993s128.37 29.155 171.11 79.993c5.533 6.595 13.45 9.967 21.404 9.967 6.353 0 12.724-2.143 17.959-6.558 11.829-9.929 13.356-27.57 3.428-39.363-53.41-63.506-131.35-99.926-213.9-99.926z"/>
     <path d="m-157.26 432.77c-74.739-88.935-183.89-139.92-299.44-139.92s-224.69 50.988-299.44 139.92c-9.93 11.811-8.402 29.434 3.428 39.363 5.234 4.396 11.587 6.558 17.939 6.558 7.973 0 15.891-3.391 21.423-9.967 64.084-76.248 157.64-119.99 256.65-119.99s192.57 43.741 256.65 119.97c5.533 6.576 13.45 9.967 21.424 9.967 6.353 0 12.724-2.143 17.958-6.558 11.811-9.912 13.34-27.553 3.41-39.345z"/>
     <path d="m-502.73 682.98c0 25.406 20.62 46.025 46.025 46.025s46.025-20.619 46.025-46.025c-7.7755-65.326-90.569-48.667-92.049 0z"/>
    </g>
   </g>
  </g>
 </g>
</svg>
