<?xml version="1.0" encoding="UTF-8"?>
<svg width="64" height="64" version="1.1" xmlns="http://www.w3.org/2000/svg" xmlns:cc="http://creativecommons.org/ns#" xmlns:dc="http://purl.org/dc/elements/1.1/" xmlns:rdf="http://www.w3.org/1999/02/22-rdf-syntax-ns#">
 <metadata>
  <rdf:RDF>
   <cc:Work rdf:about="">
    <dc:format>image/svg+xml</dc:format>
    <dc:type rdf:resource="http://purl.org/dc/dcmitype/StillImage"/>
    <dc:title/>
   </cc:Work>
  </rdf:RDF>
 </metadata>
 <defs>
  <style type="text/css"/>
  <filter id="filter2761-3" x="-.024" y="-.024" width="1.048" height="1.048" color-interpolation-filters="sRGB">
   <feGaussianBlur stdDeviation="0.14552168"/>
  </filter>
  <linearGradient id="linearGradient1025" x1="15.752" x2="1.3927" y1="281.24" y2="295.6" gradientTransform="matrix(3.7796 0 0 3.7796 -.49932 -1058)" gradientUnits="userSpaceOnUse">
   <stop stop-color="#ffdc32" offset="0"/>
   <stop stop-color="#ff7832" offset="1"/>
  </linearGradient>
 </defs>
 <path transform="matrix(3.7796 0 0 3.7796 -.0031954 .53086)" d="m10.709 1.05c4.405 0 5.0345 0.67282 5.0345 5.388v3.7761c0 4.7152-0.62954 5.388-5.0345 5.388h-4.4832c-4.405 0-5.0346-0.6728-5.0346-5.388v-3.7761c0-4.7152 0.62954-5.388 5.0346-5.388z" enable-background="new" fill="#141414" filter="url(#filter2761-3)" opacity=".3"/>
 <path d="m40.473 4.5c16.649 0 19.028 2.543 19.028 20.364v14.272c0 17.822-2.3794 20.364-19.028 20.364h-16.945c-16.649 0-19.029-2.5429-19.029-20.364v-14.272c0-17.822 2.3794-20.364 19.029-20.364z" enable-background="new" fill="url(#linearGradient1025)" stroke-width="3.7796"/>
 <g fill="#5e4aa6">
  <circle cx="-1168.4" cy="-1251.4" r="0"/>
  <circle cx="-68.875" cy="14.092" r="0" fill-rule="evenodd"/>
  <circle cx="-1168.4" cy="-1251.4" r="0"/>
  <circle cx="-68.875" cy="14.092" r="0" fill-rule="evenodd"/>
 </g>
 <g transform="matrix(1.447 0 0 1.447 -5.8754 -2.9961)" fill="#fafafa">
  <path d="m19.061 12.803c-2.7588 0-4.9797 2.221-4.9797 4.9797 0 2.7588 2.221 4.9798 4.9797 4.9798 2.7588 0 4.9797-2.221 4.9797-4.9798s-2.2209-4.9797-4.9797-4.9797zm-3.557 12.805v9.9595h7.1139v-9.9595z" stroke-width="1.1526"/>
  <g transform="matrix(.80676 0 0 .80676 -303.74 -398.09)">
   <path transform="rotate(-36.621,416.41,534.81)" d="m420.91 541.36-10.562-7.9019 12.124-5.1962z"/>
   <path d="m411.91 509.56h11.8v11.8h-11.8z"/>
  </g>
 </g>
 <g transform="matrix(1.3 0 0 1.3 -698.35 -681.55)" font-size="12.666px" stroke-width=".76923">
  <text x="730.88" y="132.19" font-family="'Droid Sans'" stroke-width=".76923"/>
 </g>
 <circle cx="-1373.6" cy="-1274.2" r="0" fill="#5e4aa6"/>
</svg>
