<?xml version="1.0" encoding="UTF-8"?>
<!-- Created with Inkscape (http://www.inkscape.org/) -->
<svg width="64" height="64" version="1.1" viewBox="0 0 16.933 16.933" xmlns="http://www.w3.org/2000/svg" xmlns:cc="http://creativecommons.org/ns#" xmlns:dc="http://purl.org/dc/elements/1.1/" xmlns:rdf="http://www.w3.org/1999/02/22-rdf-syntax-ns#">
 <defs>
  <filter id="filter2761" x="-.024" y="-.024" width="1.048" height="1.048" color-interpolation-filters="sRGB">
   <feGaussianBlur stdDeviation="0.14552168"/>
  </filter>
  <linearGradient id="linearGradient1024-6" x1="1.3315" x2="15.65" y1="15.576" y2="1.17" gradientUnits="userSpaceOnUse">
   <stop stop-color="#dddfe1" offset="0"/>
   <stop stop-color="#f3f4f6" stop-opacity=".99608" offset="1"/>
  </linearGradient>
 </defs>
 <metadata>
  <rdf:RDF>
   <cc:Work rdf:about="">
    <dc:format>image/svg+xml</dc:format>
    <dc:type rdf:resource="http://purl.org/dc/dcmitype/StillImage"/>
    <dc:title/>
   </cc:Work>
  </rdf:RDF>
 </metadata>
 <path d="m10.709 1.05c4.405 0 5.0345 0.67282 5.0345 5.388v3.7761c0 4.7152-0.62954 5.388-5.0345 5.388h-4.4832c-4.405 0-5.0346-0.6728-5.0346-5.388v-3.7761c0-4.7152 0.62954-5.388 5.0346-5.388z" enable-background="new" fill="#141414" filter="url(#filter2761)" opacity=".3"/>
 <path d="m10.709 1.05c4.405 0 5.0345 0.67282 5.0345 5.388v3.7761c0 4.7152-0.62954 5.388-5.0345 5.388h-4.4832c-4.405 0-5.0346-0.6728-5.0346-5.388v-3.7761c0-4.7152 0.62954-5.388 5.0346-5.388z" enable-background="new" fill="url(#linearGradient1024-6)"/>
 <circle cx="8.4674" cy="8.326" r="4.8484" fill="#323232" stroke="#232323" stroke-dashoffset=".42096" stroke-width=".63568"/>
 <rect x="8.2915" y="5.4812" width=".35169" height="3.022" ry=".13742" fill="#fff"/>
 <rect transform="rotate(-45)" x=".02247" y="12.044" width=".16519" height="3.848" rx=".044441" ry=".043322" fill="#f04646"/>
</svg>
