<svg width="64" height="64" version="1.1" viewBox="0 0 16.933 16.933" xmlns="http://www.w3.org/2000/svg" xmlns:xlink="http://www.w3.org/1999/xlink">
 <defs>
  <linearGradient id="a" x1="8.1347" x2="8.2243" y1="-.7175" y2="15.139" gradientUnits="userSpaceOnUse">
   <stop stop-color="#2f5fdd" offset="0"/>
   <stop stop-color="#5884f4" offset="1"/>
  </linearGradient>
 </defs>
 <circle cx="8.4665" cy="8.7311" r="7.9373" opacity=".25" stroke-width=".26458" style="paint-order:stroke markers fill"/>
 <circle cx="8.4665" cy="8.4665" r="7.9373" fill="url(#a)" stroke-width=".26458" style="paint-order:stroke markers fill"/>
 <path d="m8.4665 2.5136c-3.2845 0-5.953 2.6686-5.953 5.9529 0 3.2843 2.6685 5.9529 5.953 5.9529 3.2845 0 5.953-2.6686 5.953-5.9529 0-3.2843-2.6685-5.9529-5.953-5.9529zm0 0.56668c2.9779 0 5.3861 2.4081 5.3861 5.3862s-2.4082 5.3862-5.3861 5.3862c-2.9779 0-5.3861-2.4081-5.3861-5.3862s2.4082-5.3862 5.3861-5.3862zm-1.41e-4 1.4177a1.1339 1.1339 0 0 0-1.1339 1.1339 1.1339 1.1339 0 0 0 1.1339 1.1339 1.1339 1.1339 0 0 0 1.1339-1.1339 1.1339 1.1339 0 0 0-1.1339-1.1339zm-3.4017 2.8348v0.56695l0.70288 0.0011c0.29548-3e-6 0.54656 0.04263 0.75326 0.13316 0.20305 0.08436 0.36958 0.20876 0.49193 0.37151 0.12537 0.15615 0.21243 0.34404 0.26133 0.5592 0.04924 0.21665 0.05635 0.44543 0.07142 0.68738l2.95e-4 0.0033-0.0053 2.78h0.55892v-1.9843c0-0.31312 0.25383-0.56695 0.56695-0.56695 0.31312 0 0.56695 0.25383 0.56695 0.56695v1.9843h0.56695l0.0053-2.7766c5.36e-4 -0.25086 0.02387-0.48233 0.07198-0.69402 0.04898-0.21552 0.13618-0.40373 0.26188-0.56003 0.12236-0.16239 0.28884-0.28675 0.49165-0.37096 0.2066-0.09037 0.49911-0.13288 0.75271-0.13288h0.68433v-0.56806z" enable-background="new" fill="#faf8f6"/>
</svg>
