<?xml version="1.0" encoding="UTF-8"?>
<!-- Created with Inkscape (http://www.inkscape.org/) -->
<svg width="64" height="64" version="1.1" viewBox="0 0 16.933 16.933" xmlns="http://www.w3.org/2000/svg" xmlns:cc="http://creativecommons.org/ns#" xmlns:dc="http://purl.org/dc/elements/1.1/" xmlns:rdf="http://www.w3.org/1999/02/22-rdf-syntax-ns#" xmlns:xlink="http://www.w3.org/1999/xlink">
 <defs>
  <filter id="filter2761" x="-.024" y="-.024" width="1.048" height="1.048" color-interpolation-filters="sRGB">
   <feGaussianBlur stdDeviation="0.14552168"/>
  </filter>
  <linearGradient id="linearGradient1081" x1="1.3315" x2="13.449" y1="15.576" y2="3.4588" gradientUnits="userSpaceOnUse">
   <stop stop-color="#3caaff" offset="0"/>
   <stop stop-color="#b496ff" offset="1"/>
  </linearGradient>
 </defs>
 <metadata>
  <rdf:RDF>
   <cc:Work rdf:about="">
    <dc:format>image/svg+xml</dc:format>
    <dc:type rdf:resource="http://purl.org/dc/dcmitype/StillImage"/>
    <dc:title/>
   </cc:Work>
  </rdf:RDF>
 </metadata>
 <path d="m10.709 1.05c4.405 0 5.0345 0.67282 5.0345 5.388v3.7761c0 4.7152-0.62954 5.388-5.0345 5.388h-4.4832c-4.405 0-5.0346-0.6728-5.0346-5.388v-3.7761c0-4.7152 0.62954-5.388 5.0346-5.388z" enable-background="new" fill="#141414" filter="url(#filter2761)" opacity=".3"/>
 <path d="m10.709 1.05c4.405 0 5.0345 0.67282 5.0345 5.388v3.7761c0 4.7152-0.62954 5.388-5.0345 5.388h-4.4832c-4.405 0-5.0346-0.6728-5.0346-5.388v-3.7761c0-4.7152 0.62954-5.388 5.0346-5.388z" enable-background="new" fill="url(#linearGradient1081)"/>
 <g transform="matrix(.75254 0 0 .75254 2.8835 .89375)" stroke-width=".025791">
  <path d="m13.671 4.7886h-10.336c-0.39351 0-0.70834 0.31483-0.70834 0.70834v7.1796c0 0.39351 0.31483 0.70834 0.70834 0.70834h10.328c0.39351 0 0.70834-0.31483 0.70834-0.70834v-7.1796c0.008743-0.39351-0.31483-0.70834-0.6996-0.70834z" fill="#f1f3f7"/>
  <rect x="3.3347" y="6.5289" width="10.336" height="6.1127" fill="#fcfcfd"/>
  <circle cx="13.444" cy="5.7069" r=".22737" fill="#f0582f"/>
  <circle cx="12.648" cy="5.7069" r=".22737" fill="#fbd303"/>
  <circle cx="11.852" cy="5.7069" r=".22737" fill="#6eb1e1"/>
 </g>
 <g transform="matrix(.82638 0 0 .82638 .65739 -228.73)" stroke-width="1.612">
  <path d="m2.646 290.65h2.646v2.646h-2.646z" fill="#fff" opacity=".1"/>
  <path d="m3.631 285.09-0.985 2.125c0.159-0.09 0.332-0.155 0.511-0.197l0.478 4.637 0.477-4.638c0.178 0.042 0.349 0.107 0.504 0.198zm5.261 6.237c0.09 0.159 0.155 0.332 0.197 0.511l-4.802 0.478 4.803 0.478a1.84 1.84 0 0 1-0.198 0.503l2.125-0.985z" fill="#fff"/>
  <path d="m2.81 288.54h4.596v4.596h-4.596z" fill="none" opacity=".2" stroke="#fff" stroke-dasharray="0.85295759, 0.85295759" stroke-dashoffset="1" stroke-width=".52919"/>
 </g>
</svg>
