<?xml version="1.0" encoding="UTF-8"?>
<svg width="64" height="64" version="1.1" viewBox="0 0 16.933 16.933" xmlns="http://www.w3.org/2000/svg" xmlns:cc="http://creativecommons.org/ns#" xmlns:dc="http://purl.org/dc/elements/1.1/" xmlns:rdf="http://www.w3.org/1999/02/22-rdf-syntax-ns#" xmlns:xlink="http://www.w3.org/1999/xlink">
 <metadata>
  <rdf:RDF>
   <cc:Work rdf:about="">
    <dc:format>image/svg+xml</dc:format>
    <dc:type rdf:resource="http://purl.org/dc/dcmitype/StillImage"/>
    <dc:title/>
   </cc:Work>
  </rdf:RDF>
 </metadata>
 <defs>
  <linearGradient id="linearGradient1005" x1="8.5307" x2="8.5307" y1="8.3419" y2="8.6336" gradientUnits="userSpaceOnUse">
   <stop stop-color="#969696" offset="0"/>
   <stop stop-color="#e6e6e6" stop-opacity=".90196" offset="1"/>
  </linearGradient>
 </defs>
 <circle cx="-330.35" cy="-328.38" r="0" fill="#5e4aa6" stroke-width=".26458"/>
 <circle cx="8.4935" cy="8.73" r="7.9375" opacity=".2" stroke-width=".14032"/>
 <circle cx="8.5617" cy="8.46" r="7.9375" fill="#fafafa" fill-opacity=".98039" stroke-width=".14032"/>
 <path d="m0.62948 8.34c4.359e-5 0.091-1.6347e-4 0.16788-7.6747e-4 0.25748h15.866c2e-3 -0.086 0.0024-0.16479-7.78e-4 -0.25393z" fill="url(#linearGradient1005)" opacity=".6" style="paint-order:normal"/>
 <g transform="matrix(2.5951,0,0,2.5951,-15.728,-739.47)">
  <g stroke-width=".080397">
   <path class="st3" d="m8.0544 288.21c0 0.72036 0.58449 1.3048 1.3048 1.3048 0.72116 0 1.3056-0.58448 1.3056-1.3048 0-0.72117-0.58449-1.3048-1.3056-1.3048-0.71955 0-1.3048 0.58447-1.3048 1.3048z" fill="#dcdcdc"/>
   <path class="st4" d="m8.2232 288.21c0 0.62789 0.50972 1.1368 1.1368 1.1368 0.6279 0 1.1376-0.50893 1.1376-1.1368 0-0.62791-0.50972-1.1368-1.1376-1.1368-0.6279 0-1.1368 0.50891-1.1368 1.1368z" fill="#c8c8c8"/>
   <path class="st3" d="m8.4708 288.21c0 0.49041 0.39797 0.88838 0.88839 0.88838s0.88919-0.39797 0.88919-0.88838c0-0.49043-0.39796-0.88839-0.88919-0.88839-0.48962 0-0.88839 0.39796-0.88839 0.88839z" fill="#b4b4b4"/>
  </g>
  <g stroke-width=".080397">
   <path class="st5" d="m8.5568 288.21c0 0.44379 0.36018 0.80316 0.80317 0.80316 0.44379 0 0.80317-0.35937 0.80317-0.80316 0-0.4438-0.36018-0.80317-0.80317-0.80317-0.44379 0-0.80317 0.35937-0.80317 0.80317z" fill="#fff"/>
   <path class="st6" d="m8.6766 288.21c0 0.37706 0.30551 0.68257 0.68257 0.68257s0.68338-0.30551 0.68338-0.68257c0-0.37707-0.30631-0.68258-0.68338-0.68258-0.37626 0-0.68257 0.30551-0.68257 0.68258z" fill="#1f2020"/>
   <path class="st7" d="m8.7361 288.21c0 0.34408 0.27898 0.62306 0.62308 0.62306s0.62388-0.27898 0.62388-0.62306c0-0.3441-0.27898-0.62308-0.62388-0.62308-0.3433 0-0.62308 0.27898-0.62308 0.62308z" fill="#969696"/>
  </g>
  <g transform="matrix(.080397 0 0 .080397 -16.961 263.84)">
   <rect class="st6" x="326.93" y="289.26" width=".92" height="2.52" fill="#1f2020"/>
  </g>
  <g transform="matrix(.080397 0 0 .080397 -16.961 263.84)">
   <rect class="st6" transform="rotate(-70.001,331.67,291.27)" x="330.42" y="290.81" width="2.52" height=".92" fill="#1f2020"/>
  </g>
  <g transform="matrix(.080397 0 0 .080397 -16.961 263.84)">
   <rect class="st6" transform="matrix(.643 -.7659 .7659 .643 -104.98 361.71)" x="334.2" y="293" width="2.52" height=".92" fill="#1f2020"/>
  </g>
  <g transform="matrix(.080397 0 0 .080397 -16.961 263.84)">
   <rect class="st6" transform="matrix(.8661 -.4999 .4999 .8661 -103.07 208.86)" x="337.01" y="296.34" width="2.52" height=".92" fill="#1f2020"/>
  </g>
  <g transform="matrix(.080397 0 0 .080397 -16.961 263.84)">
   <rect class="st6" transform="matrix(.9848 -.1736 .1736 .9848 -47.088 63.568)" x="338.5" y="300.44" width="2.52" height=".92" fill="#1f2020"/>
  </g>
  <g transform="matrix(.080397 0 0 .080397 -16.961 263.84)">
   <rect class="st6" transform="matrix(.1736 -.9848 .9848 .1736 -19.857 586.86)" x="339.3" y="304" width=".92" height="2.52" fill="#1f2020"/>
  </g>
  <g transform="matrix(.080397 0 0 .080397 -16.961 263.84)">
   <rect class="st6" transform="matrix(.5003 -.8659 .8659 .5003 -98.826 447.49)" x="337.81" y="308.1" width=".92" height="2.52" fill="#1f2020"/>
  </g>
  <g transform="matrix(.080397 0 0 .080397 -16.961 263.84)">
   <rect class="st6" transform="matrix(.766 -.6428 .6428 .766 -122.52 288.8)" x="335" y="311.45" width=".92" height="2.52" fill="#1f2020"/>
  </g>
  <g transform="matrix(.080397 0 0 .080397 -16.961 263.84)">
   <rect class="st6" transform="matrix(.9398 -.3418 .3418 .9398 -87.65 132.33)" x="331.22" y="313.63" width=".92" height="2.52" fill="#1f2020"/>
  </g>
  <g transform="matrix(.080397 0 0 .080397 -16.961 263.84)">
   <rect class="st6" x="326.92" y="314.38" width=".92" height="2.52" fill="#1f2020"/>
  </g>
  <g transform="matrix(.080397 0 0 .080397 -16.961 263.84)">
   <rect class="st6" transform="matrix(.3423 -.9396 .9396 .3423 -83.365 510.68)" x="321.83" y="314.42" width="2.52" height=".92" fill="#1f2020"/>
  </g>
  <g transform="matrix(.080397 0 0 .080397 -16.961 263.84)">
   <rect class="st6" transform="matrix(.6431 -.7658 .7658 .6431 -125.5 356.13)" x="318.05" y="312.24" width="2.52" height=".92" fill="#1f2020"/>
  </g>
  <g transform="matrix(.080397 0 0 .080397 -16.961 263.84)">
   <rect class="st6" transform="matrix(.8663 -.4996 .4996 .8663 -112.23 199.5)" x="315.24" y="308.9" width="2.52" height=".92" fill="#1f2020"/>
  </g>
  <g transform="matrix(.080397 0 0 .080397 -16.961 263.84)">
   <rect class="st6" transform="matrix(.9849 -.1734 .1734 .9849 -48.154 59.238)" x="313.75" y="304.8" width="2.52" height=".92" fill="#1f2020"/>
  </g>
  <g transform="matrix(.080397 0 0 .080397 -16.961 263.84)">
   <rect class="st6" transform="matrix(.1739 -.9848 .9848 .1739 -36.086 558.77)" x="314.55" y="299.64" width=".92" height="2.52" fill="#1f2020"/>
  </g>
  <g transform="matrix(.080397 0 0 .080397 -16.961 263.84)">
   <rect class="st6" transform="matrix(.5002 -.8659 .8659 .5002 -98.815 422.38)" x="316.05" y="295.53" width=".92" height="2.52" fill="#1f2020"/>
  </g>
  <g transform="matrix(.080397 0 0 .080397 -16.961 263.84)">
   <rect class="st6" transform="matrix(.7663 -.6425 .6425 .7663 -113.92 273.74)" x="318.85" y="292.19" width=".92" height="2.52" fill="#1f2020"/>
  </g>
  <g transform="matrix(.080397 0 0 .080397 -16.961 263.84)">
   <rect class="st6" transform="matrix(.9399 -.3414 .3414 .9399 -80.037 127.82)" x="322.63" y="290.01" width=".92" height="2.52" fill="#1f2020"/>
  </g>
 </g>
</svg>
