<?xml version="1.0" encoding="UTF-8"?>
<!-- Created with Inkscape (http://www.inkscape.org/) -->
<svg width="64" height="64" version="1.1" viewBox="0 0 16.933 16.933" xmlns="http://www.w3.org/2000/svg" xmlns:cc="http://creativecommons.org/ns#" xmlns:dc="http://purl.org/dc/elements/1.1/" xmlns:rdf="http://www.w3.org/1999/02/22-rdf-syntax-ns#" xmlns:xlink="http://www.w3.org/1999/xlink">
 <defs>
  <filter id="filter2761" x="-.024" y="-.024" width="1.048" height="1.048" color-interpolation-filters="sRGB">
   <feGaussianBlur stdDeviation="0.14552168"/>
  </filter>
  <filter id="filter924" x="-.060054" y="-.059946" width="1.1201" height="1.1199" color-interpolation-filters="sRGB">
   <feGaussianBlur stdDeviation="0.2078715"/>
  </filter>
  <linearGradient id="c-7" x1="20.23" x2="28.402" y1="30.701" y2="17" gradientTransform="matrix(.46933 0 0 .46933 -1.5981 -4.6036)" gradientUnits="userSpaceOnUse">
   <stop stop-color="#ff7832" offset="0"/>
   <stop stop-color="#ffdc32" offset="1"/>
  </linearGradient>
  <linearGradient id="linearGradient994-6" x1="13.131" x2="3.7382" y1="-4.101" y2="-13.46" gradientTransform="matrix(1.2341 0 0 1.2341 27.284 7.8733)" gradientUnits="userSpaceOnUse">
   <stop stop-color="#0a82f0" offset="0"/>
   <stop stop-color="#3250e6" offset="1"/>
  </linearGradient>
  <linearGradient id="linearGradient1373" x1="85.996" x2="140.56" y1="42.96" y2="42.96" gradientTransform="matrix(.26458 0 0 .26458 -21.561 0)" gradientUnits="userSpaceOnUse" xlink:href="#linearGradient994-6"/>
  <linearGradient id="linearGradient1388" x1="13.779" x2="3.6876" y1="6.4099" y2="15.055" gradientUnits="userSpaceOnUse" xlink:href="#linearGradient994-6"/>
  <filter id="filter1443" x="-.0825" y="-.047143" width="1.165" height="1.0943" color-interpolation-filters="sRGB">
   <feGaussianBlur stdDeviation="0.12906632"/>
  </filter>
 </defs>
 <metadata>
  <rdf:RDF>
   <cc:Work rdf:about="">
    <dc:format>image/svg+xml</dc:format>
    <dc:type rdf:resource="http://purl.org/dc/dcmitype/StillImage"/>
    <dc:title/>
   </cc:Work>
  </rdf:RDF>
 </metadata>
 <path d="m10.709 1.05c4.405 0 5.0345 0.67282 5.0345 5.388v3.7761c0 4.7152-0.62954 5.388-5.0345 5.388h-4.4832c-4.405 0-5.0346-0.6728-5.0346-5.388v-3.7761c0-4.7152 0.62954-5.388 5.0346-5.388z" enable-background="new" fill="#141414" filter="url(#filter2761)" opacity=".3"/>
 <g>
  <g transform="matrix(1.3181 0 0 1.3181 -2.6291 -2.6396)" fill="#285ae6" filter="url(#filter924)">
   <path d="m11.198 11.399a4.1537 4.1537 0 0 1-2.7795 1.067 4.1537 4.1537 0 0 1-4.1537-4.1537 4.1537 4.1537 0 0 1 4.1537-4.1537 4.1537 4.1537 0 0 1 2.7795 1.0671"/>
   <circle cx="8.4188" cy="8.3271" r="4.1537" opacity=".2"/>
  </g>
  <path d="m10.709 1.05c4.405 0 5.0345 0.67282 5.0345 5.388v3.7761c0 4.7152-0.62954 5.388-5.0345 5.388h-4.4832c-4.405 0-5.0346-0.6728-5.0346-5.388v-3.7761c0-4.7152 0.62954-5.388 5.0346-5.388z" enable-background="new" fill="#fafafa"/>
  <path d="m10.135 3.3751-2.3467 3.7547h1.408v2.816l2.3467-3.7547h-1.408z" fill="#ff7832" fill-rule="evenodd" filter="url(#filter1443)" stroke-width=".3129"/>
  <path d="m10.135 3.3751-2.3467 3.7547h1.408v2.816l2.3467-3.7547h-1.408z" fill="url(#c-7)" fill-rule="evenodd" stroke-width=".3129"/>
  <path d="m4.0008 7.1322v0.00103c-0.17271-0.0089166-0.35675 3.598e-4 -0.55293 0.029459-1.2174 0.17828-1.7594 1.0506-2.2567 2.0748v0.97667c0 1.6407 0.076734 2.7908 0.36173 3.5945 0.38039 1.0612 1.0242 1.3046 1.512 1.479 0.7387 0.24551 1.7577 0.3147 3.161 0.3147h4.4834c3.4792 0 4.5992-0.4292 4.9179-2.929-2.9533-2.8907-4.0881 1.3018-6.8031-0.0026-2.0998-1.2911-2.2313-5.4072-4.8234-5.5386z" enable-background="new" fill="url(#linearGradient1373)"/>
  <path d="m3.9915 7.1328 0.00155 5.17e-4c-0.08401-0.00375-0.17127-0.00417-0.26044 5.167e-4 -0.09199 0.00469-0.18711 0.014389-0.28473 0.028938-1.217 0.17822-1.7595 1.0501-2.2567 2.0737v0.45268c0.49699-1.0222 1.041-1.8895 2.2567-2.0675 3.1361-0.45901 3.1357 4.1321 5.3758 5.5091 2.6968 1.296 3.8332-2.8418 6.7457-0.05633 0.02259-0.12476 0.03987-0.26247 0.05736-0.39945-2.9541-2.8928-4.0888 1.3009-6.8041-0.0036-2.1021-1.2926-2.231-5.4156-4.8311-5.5386z" enable-background="new" fill="url(#linearGradient1388)"/>
 </g>
</svg>
