<svg width="64" height="64" version="1.1" xmlns="http://www.w3.org/2000/svg" xmlns:xlink="http://www.w3.org/1999/xlink">
 <defs>
  <filter id="e" x="-.06" y="-.06" width="1.12" height="1.12" color-interpolation-filters="sRGB">
   <feGaussianBlur stdDeviation="3.4"/>
  </filter>
  <linearGradient id="b" x1="-434" x2="-82" y1="-256" y2="-256" gradientUnits="userSpaceOnUse">
   <stop stop-opacity="0" offset="0"/>
   <stop offset=".49903"/>
   <stop stop-opacity="0" offset="1"/>
  </linearGradient>
  <filter id="d" x="-.096" y="-.096" width="1.192" height="1.192" color-interpolation-filters="sRGB">
   <feGaussianBlur stdDeviation="14.079999"/>
  </filter>
  <filter id="c" x="-.012" y="-.012" width="1.024" height="1.024" color-interpolation-filters="sRGB">
   <feGaussianBlur stdDeviation="1.7599998"/>
  </filter>
  <linearGradient id="a" x1="-38.87" x2="-37.605" y1="-121.46" y2="74.956" gradientUnits="userSpaceOnUse">
   <stop stop-color="#ba4bba" offset="0"/>
   <stop stop-color="#9b4bba" offset="1"/>
  </linearGradient>
 </defs>
 <circle cx="32" cy="33" r="30" color="#000000" opacity=".15"/>
 <g transform="matrix(.26786 0 0 .26786 21.758 26.044)">
  <circle transform="scale(-1)" cx="-38.237" cy="-22.237" r="112" enable-background="new" fill="url(#a)"/>
  <circle transform="matrix(0 -.5 -.5 0 -89.763 -105.76)" cx="-258" cy="-256" r="176" color="#000000" fill-opacity=".99608" filter="url(#c)" opacity=".1"/>
  <g>
   <g>
    <circle transform="matrix(0 -.5 -.5 0 -89.763 -105.76)" cx="-258" cy="-256" r="176" color="#000000" fill="url(#b)" filter="url(#d)" opacity=".4"/>
    <circle transform="matrix(0,-1,-1,0,0,0)" cx="-22.237" cy="-38.237" r="88" color="#000000" fill="#f7f7f7"/>
    <circle transform="matrix(0,-1,-1,0,0,0)" cx="-23.237" cy="-38.237" r="80" color="#000000" fill="#fff"/>
    <circle transform="matrix(0,-1,-1,0,0,0)" cx="-22.237" cy="-38.237" r="80" color="#000000" fill="#ae95a8"/>
    <circle transform="matrix(0 -1 -1 0 -113.76 -133.76)" cx="-157" cy="-152" r="68" color="#000000" filter="url(#e)" opacity=".1"/>
    <circle transform="matrix(0,-1,-1,0,0,0)" cx="-22.237" cy="-38.237" r="68" color="#000000" fill="#f7f7f7"/>
    <circle transform="matrix(0,-1,-1,0,0,0)" cx="-22.237" cy="-38.237" r="60" color="#000000" fill="#2d1226" opacity=".1"/>
    <circle transform="matrix(0,-1,-1,0,0,0)" cx="-22.237" cy="-38.237" r="32" color="#000000" opacity=".1"/>
    <path d="m38.237-65.763a88 88 0 0 0-88 88 88 88 0 0 0 0.041 0.83008 88 88 0 0 1 87.959-86.83 88 88 0 0 1 87.959 87.17 88 88 0 0 0 0.041-1.1699 88 88 0 0 0-88-88z" color="#000000" fill="#fff"/>
   </g>
   <path d="m30.237-17.763h16v42.5l-5.3333 5 5.3333 5v27.5h-16v-42.5l5.3333-5-5.3333-5z" enable-background="new" fill="#2d1e29"/>
   <path d="m38.237-45.763a68 68 0 0 0-68 68 68 68 0 0 0 0.041 0.82812 68 68 0 0 1 67.959-66.828 68 68 0 0 1 67.959 67.172 68 68 0 0 0 0.041-1.1719 68 68 0 0 0-68-68z" color="#000000" fill="#fff"/>
   <path d="m38.237-89.763a112 112 0 0 0-112 112 112 112 0 0 0 0.04102 1.1699 112 112 0 0 1 111.96-111.17 112 112 0 0 1 111.96 110.83 112 112 0 0 0 0.041-0.83008 112 112 0 0 0-112-112z" enable-background="new" fill="#fff" opacity=".3"/>
   <path d="m38.237 134.24a112 112 0 0 1-112-112 112 112 0 0 1 0.04102-1.1699 112 112 0 0 0 111.96 111.17 112 112 0 0 0 111.96-110.83 112 112 0 0 1 0.041 0.83008 112 112 0 0 1-112 112z" enable-background="new" opacity=".2"/>
  </g>
 </g>
</svg>
