<?xml version="1.0" encoding="UTF-8"?>
<svg width="64" height="64" version="1.1" viewBox="0 0 16.933 16.933" xmlns="http://www.w3.org/2000/svg" xmlns:cc="http://creativecommons.org/ns#" xmlns:dc="http://purl.org/dc/elements/1.1/" xmlns:rdf="http://www.w3.org/1999/02/22-rdf-syntax-ns#">
 <metadata>
  <rdf:RDF>
   <cc:Work rdf:about="">
    <dc:format>image/svg+xml</dc:format>
    <dc:type rdf:resource="http://purl.org/dc/dcmitype/StillImage"/>
    <dc:title/>
   </cc:Work>
  </rdf:RDF>
 </metadata>
 <defs>
  <style type="text/css"/>
  <filter id="filter2761" x="-.024" y="-.024" width="1.048" height="1.048" color-interpolation-filters="sRGB">
   <feGaussianBlur stdDeviation="0.14552168"/>
  </filter>
  <linearGradient id="linearGradient1024" x1="1.3315" x2="15.65" y1="15.576" y2="1.17" gradientTransform="translate(-.00054952 .14035)" gradientUnits="userSpaceOnUse">
   <stop stop-color="#00c8ff" offset="0"/>
   <stop stop-color="#14a0ff" offset="1"/>
  </linearGradient>
  <style type="text/css"/>
 </defs>
 <g transform="translate(.00030032 -9.9674e-5)" fill="#5e4aa6" stroke-width=".26458">
  <circle cx="-347.64" cy="-328.38" r="0"/>
  <circle cx="-56.726" cy="6.44" r="0" fill-rule="evenodd"/>
  <g transform="translate(-.0272 .0065001)">
   <circle cx="-330.35" cy="-328.38" r="0"/>
   <circle cx="-312.11" cy="-326.25" r="0"/>
   <circle cx="-306.02" cy="-333.07" r="0"/>
   <circle cx="-308.84" cy="-326.01" r="0"/>
  </g>
 </g>
 <path d="m10.708 1.1905c4.405 0 5.0345 0.67282 5.0345 5.388v3.7761c0 4.7152-0.62954 5.388-5.0345 5.388h-4.4832c-4.405 0-5.0346-0.6728-5.0346-5.388v-3.7761c0-4.7152 0.62954-5.388 5.0346-5.388z" enable-background="new" fill="#141414" filter="url(#filter2761)" opacity=".3"/>
 <path d="m10.708 1.1905c4.405 0 5.0345 0.67282 5.0345 5.388v3.7761c0 4.7152-0.62954 5.388-5.0345 5.388h-4.4832c-4.405 0-5.0346-0.6728-5.0346-5.388v-3.7761c0-4.7152 0.62954-5.388 5.0346-5.388z" enable-background="new" fill="url(#linearGradient1024)"/>
 <g transform="matrix(.96771 0 0 .96771 .21354 .49247)" stroke-width=".01234">
  <path d="m7.5703 7.2541h-3.1342l-1.271 1.577 1.271 0.78849v3.5575h3.9412v-5.116c0-0.44546-0.36155-0.807-0.807-0.807zm-1.1932-0.79466c0.65399 0 1.1846-0.5306 1.1846-1.1846v-1.9719h-1.519c-0.4689 0-0.85019 0.38006-0.85019 0.85019v1.1217c0 0.65399 0.5306 1.1846 1.1846 1.1846zm6.287 1.4413h-2.3803c-0.62438 0-1.1315 0.50715-1.1315 1.1315v4.1448h3.5106v-2.764l1.229-0.79343zm-1.73-0.70829c0.58242 0 1.055-0.4726 1.055-1.055v-1.7571h-1.3524c-0.41831 0-0.75765 0.33934-0.75765 0.75764v0.9995c0 0.58242 0.4726 1.055 1.055 1.055z" fill="#fafafa" p-id="1147"/>
 </g>
</svg>
