<svg width="64" height="64" version="1.1" viewBox="0 0 16.933 16.933" xmlns="http://www.w3.org/2000/svg" xmlns:xlink="http://www.w3.org/1999/xlink">
 <defs>
  <linearGradient id="b" x1="515.66" x2="513.83" y1="-5.4857" y2="1025.8" gradientUnits="userSpaceOnUse">
   <stop stop-color="#fff" offset="0"/>
   <stop stop-color="#d7d7d7" offset="1"/>
  </linearGradient>
  <linearGradient id="a" x1="-6.1472" x2="-6.1472" y1="-137.82" y2="-100.78" gradientTransform="matrix(.53033 0 0 .53033 11.536 352.06)" gradientUnits="userSpaceOnUse">
   <stop stop-color="#14dc78" offset="0"/>
   <stop stop-color="#14a03c" offset="1"/>
  </linearGradient>
 </defs>
 <g transform="translate(0 -280.07)">
  <circle cx="-330.35" cy="-48.312" r="0" fill="#5e4aa6" stroke-width=".26458"/>
  <ellipse cx="-39.434" cy="286.51" r=".90502" fill="#5e4aa6" fill-rule="evenodd" stroke-width=".26458"/>
  <circle cx="8.4935" cy="288.8" r="7.9375" opacity=".2" stroke-width=".14032"/>
  <circle cx="8.4935" cy="288.53" r="7.9375" fill="url(#a)" stroke-width=".14032"/>
  <g transform="translate(0 .16762)">
   <path d="m8.4938 284.39c-0.97343 0-1.8403 0.20461-2.6002 0.61452-0.25846 0.13823-0.50407 0.30078-0.73724 0.48639-0.62016 0.49364-1.032 1.0566-1.2349 1.6892-0.016857 0.0521-0.031983 0.10533-0.045322 0.15825-0.030905 0.1161-0.055187 0.23461-0.06993 0.34755-0.022477 0.15639-0.032375 0.30797-0.032375 0.46357 0 0.3333 0.047736 0.65134 0.14115 0.94752 0.12923 0.4115 0.34503 0.79217 0.64142 1.1373 0.17558 0.20378 0.37383 0.39368 0.59998 0.57376 0.4509 0.35858 0.94681 0.62994 1.4827 0.81161 0.043542 0.39886 0.051887 0.8864 0.025902 1.4606-0.00284 0.0577 0.00961 0.11122 0.038414 0.16018 0.02809 0.0498 0.066354 0.0855 0.11482 0.10679 0.048463 0.0213 0.098188 0.0244 0.14805 0.0102 0.049866-0.015 0.091896-0.0441 0.12561-0.0884l1.0226-1.3703c0.12642 8e-3 0.25229 0.0102 0.37941 0.0102 1.0858 0 2.0395-0.25461 2.8605-0.76404 0.16435-0.10215 0.32339-0.21419 0.47696-0.33687 0.22746-0.18079 0.42682-0.37166 0.59955-0.57376 0.29919-0.34832 0.51375-0.72819 0.64228-1.1373 0.0934-0.29855 0.14028-0.61501 0.14028-0.94752 0-0.15718-0.0104-0.31113-0.03151-0.46357-0.01686-0.1161-0.04-0.23224-0.0695-0.34755-0.01335-0.0514-0.02835-0.10296-0.04662-0.15825-0.19946-0.62634-0.61152-1.1924-1.2345-1.6892-0.92146-0.73375-2.0339-1.1009-3.3375-1.1009z" opacity=".25" stroke-width=".23345"/>
   <path d="m8.4938 284.05c-0.97343 0-1.8403 0.20461-2.6002 0.61452-0.25846 0.13823-0.50407 0.30078-0.73724 0.48639-0.62016 0.49364-1.032 1.0566-1.2349 1.6892-0.016857 0.0521-0.031983 0.10533-0.045322 0.15825-0.030905 0.1161-0.055187 0.23461-0.06993 0.34755-0.022477 0.15639-0.032375 0.30797-0.032375 0.46357 0 0.3333 0.047736 0.65134 0.14115 0.94752 0.12923 0.4115 0.34503 0.79217 0.64142 1.1373 0.17558 0.20378 0.37383 0.39368 0.59998 0.57376 0.4509 0.35858 0.94681 0.62994 1.4827 0.81161 0.043542 0.39886 0.051887 0.8864 0.025902 1.4606-0.00284 0.0577 0.00961 0.11122 0.038414 0.16018 0.02809 0.0498 0.066354 0.0855 0.11482 0.10679 0.048463 0.0213 0.098188 0.0244 0.14805 0.0102 0.049866-0.015 0.091896-0.0441 0.12561-0.0884l1.0226-1.3703c0.12642 8e-3 0.25229 0.0102 0.37941 0.0102 1.0858 0 2.0395-0.25461 2.8605-0.76404 0.16435-0.10215 0.32339-0.21419 0.47696-0.33687 0.22746-0.18079 0.42682-0.37166 0.59955-0.57376 0.29919-0.34832 0.51375-0.72819 0.64228-1.1373 0.0934-0.29855 0.14028-0.61501 0.14028-0.94752 0-0.15718-0.0104-0.31113-0.03151-0.46357-0.01686-0.1161-0.04-0.23224-0.0695-0.34755-0.01335-0.0514-0.02835-0.10296-0.04662-0.15825-0.19946-0.62634-0.61152-1.1924-1.2345-1.6892-0.92146-0.73375-2.0339-1.1009-3.3375-1.1009z" fill="#fff" stroke-width=".23345"/>
   <g transform="translate(.40834)" fill="#14b955" fill-rule="evenodd" stroke-width=".26458">
    <circle cx="5.9433" cy="287.77" r=".5249"/>
    <circle cx="8.0852" cy="287.77" r=".5249"/>
    <circle cx="10.227" cy="287.77" r=".5249"/>
   </g>
  </g>
 </g>
</svg>
