<?xml version="1.0" encoding="UTF-8"?>
<!-- Created with Inkscape (http://www.inkscape.org/) -->
<svg width="64" height="64" version="1.1" viewBox="0 0 16.933 16.933" xmlns="http://www.w3.org/2000/svg" xmlns:cc="http://creativecommons.org/ns#" xmlns:dc="http://purl.org/dc/elements/1.1/" xmlns:rdf="http://www.w3.org/1999/02/22-rdf-syntax-ns#">
 <defs>
  <style type="text/css"/>
  <filter id="filter2761-36" x="-.024" y="-.024" width="1.048" height="1.048" color-interpolation-filters="sRGB">
   <feGaussianBlur stdDeviation="0.14552168"/>
  </filter>
  <linearGradient id="linearGradient4673-7" x1="1.2573" x2="15.644" y1="15.429" y2="1.1082" gradientTransform="translate(-.00084544 .21466)" gradientUnits="userSpaceOnUse">
   <stop stop-color="#32dcff" offset="0"/>
   <stop stop-color="#3296ff" offset="1"/>
  </linearGradient>
  <style type="text/css"/>
 </defs>
 <metadata>
  <rdf:RDF>
   <cc:Work rdf:about="">
    <dc:format>image/svg+xml</dc:format>
    <dc:type rdf:resource="http://purl.org/dc/dcmitype/StillImage"/>
    <dc:title/>
   </cc:Work>
  </rdf:RDF>
 </metadata>
 <g fill="#5e4aa6" stroke-width=".26458">
  <circle cx="-330.35" cy="-328.38" r="0"/>
  <circle cx="-330.35" cy="-328.37" r="0"/>
  <circle cx="-330.35" cy="-328.37" r="0"/>
  <circle cx="-352.63" cy="-336.83" r="0"/>
 </g>
 <path d="m10.708 1.1905c4.405 0 5.0345 0.67282 5.0345 5.388v3.7761c0 4.7152-0.62954 5.388-5.0345 5.388h-4.4832c-4.405 0-5.0346-0.6728-5.0346-5.388v-3.7761c0-4.7152 0.62954-5.388 5.0346-5.388z" enable-background="new" fill="#141414" filter="url(#filter2761-36)" opacity=".3"/>
 <path d="m10.708 1.1904c4.405 0 5.0344 0.67282 5.0344 5.3879v3.7761c0 4.7153-0.62954 5.3879-5.0344 5.3879h-4.4833c-4.405 0-5.0347-0.6728-5.0347-5.3879v-3.7761c0-4.7153 0.62954-5.3879 5.0347-5.3879z" enable-background="new" fill="url(#linearGradient4673-7)"/>
 <g transform="matrix(.0085407 0 0 .0085407 4.0972 4.0241)" fill="#fff">
  <path d="m437.38 802.66c-203.97 0-369.92-165.95-369.92-369.95 0-203.97 165.95-369.86 369.92-369.86 204 0 369.95 165.89 369.95 369.86 0 204-165.95 369.95-369.95 369.95zm0.576-677.86c-169.82 0-307.97 138.11-307.97 307.9 0 169.86 138.14 308.03 307.97 308.03 169.86 0 308.03-138.18 308.03-308.03 0-169.76-138.18-307.9-308.03-307.9z" p-id="1306"/>
  <path d="m923.2 977.44c-8.032 0-16.064-2.976-22.368-8.96l-259.26-241.98c-13.056-12.416-13.6-32.992-1.28-46.016 12.448-12.992 32.992-13.632 46.016-1.344l259.26 242.11c13.024 12.352 13.568 32.96 1.248 46.016-6.4 6.72-15.008 10.176-23.616 10.176z" p-id="1307"/>
 </g>
</svg>
