<?xml version="1.0" encoding="UTF-8"?>
<!-- Created with Inkscape (http://www.inkscape.org/) -->
<svg width="64" height="64" version="1.1" viewBox="0 0 16.933 16.933" xmlns="http://www.w3.org/2000/svg" xmlns:cc="http://creativecommons.org/ns#" xmlns:dc="http://purl.org/dc/elements/1.1/" xmlns:rdf="http://www.w3.org/1999/02/22-rdf-syntax-ns#">
 <defs>
  <filter id="filter2761-3" x="-.024" y="-.024" width="1.048" height="1.048" color-interpolation-filters="sRGB">
   <feGaussianBlur stdDeviation="0.14552168"/>
  </filter>
  <linearGradient id="linearGradient4673" x1="1.2573" x2="15.644" y1="15.429" y2="1.1082" gradientTransform="translate(-7e-4 .2147)" gradientUnits="userSpaceOnUse">
   <stop stop-color="#a0b9cd" offset="0"/>
   <stop stop-color="#96b4c8" offset=".47728"/>
   <stop stop-color="#a0b9cd" offset="1"/>
  </linearGradient>
  <filter id="filter871-6" x="-.07393" y="-.050487" width="1.1479" height="1.101" color-interpolation-filters="sRGB">
   <feGaussianBlur stdDeviation="0.12698534"/>
  </filter>
 </defs>
 <metadata>
  <rdf:RDF>
   <cc:Work rdf:about="">
    <dc:format>image/svg+xml</dc:format>
    <dc:type rdf:resource="http://purl.org/dc/dcmitype/StillImage"/>
    <dc:title/>
   </cc:Work>
  </rdf:RDF>
 </metadata>
 <path d="m10.708 1.1905c4.405 0 5.0345 0.67282 5.0345 5.388v3.7761c0 4.7152-0.62954 5.388-5.0345 5.388h-4.4832c-4.405 0-5.0346-0.6728-5.0346-5.388v-3.7761c0-4.7152 0.62954-5.388 5.0346-5.388z" enable-background="new" fill="#141414" filter="url(#filter2761-3)" opacity=".3"/>
 <path d="m10.708 1.1904c4.405 0 5.0345 0.67282 5.0345 5.388v3.7761c0 4.7152-0.62954 5.388-5.0345 5.388h-4.4832c-4.405 0-5.0346-0.6728-5.0346-5.388v-3.7761c0-4.7152 0.62954-5.388 5.0346-5.388z" enable-background="new" fill="url(#linearGradient4673)"/>
 <g transform="translate(-25.328 1.0762)" fill="#5e4aa6" stroke-width=".26458">
  <circle cx="-330.35" cy="-328.38" r="0"/>
  <circle cx="-312.11" cy="-326.25" r="0"/>
  <circle cx="-306.02" cy="-333.07" r="0"/>
  <circle cx="-308.84" cy="-326.01" r="0"/>
  <circle cx="-298.82" cy="-353.17" r="0"/>
  <g transform="translate(10.272,-16.531)">
   <circle cx="-330.35" cy="-328.38" r="0"/>
   <circle cx="-39.434" cy="6.44" r="0" fill-rule="evenodd"/>
   <circle cx="-306.9" cy="-332.28" r="0"/>
  </g>
  <circle cx="-298.03" cy="-351.89" r="0"/>
 </g>
 <g transform="translate(-.41209 .25992)">
  <path d="m7.5371 8.8434v0.39835s0.10755 0.85578-0.50008 1.1723c-0.60764 0.31647-2.6192 1.2658-2.7272 1.4416-0.10802 0.17582-0.26993 0.68298 0.18917 0.81192h8.7592c0.45911-0.12893 0.2972-0.6361 0.18917-0.81192s-2.1196-1.1251-2.7272-1.4416c-0.60764-0.31647-0.50008-1.1723-0.50008-1.1723v-0.39835h-1.3415z" fill="#fafafa"/>
  <path transform="matrix(.93263 0 0 1.0034 78.969 1.3613)" d="m-73.274 5.839c-0.26458 1.8862-0.88842 2.8929-1.9843 2.8929-1.0959 1e-7 -1.7198-1.0067-1.9843-2.8929-0.2414-1.7209 0-3.1436 1.9843-3.1436s2.2257 1.4227 1.9843 3.1436z" filter="url(#filter871-6)" opacity=".15"/>
  <path d="m10.87 6.8892c-0.26458 1.8862-0.88842 2.8929-1.9843 2.8929-1.0959 1e-7 -1.7198-1.0067-1.9843-2.8929-0.2414-1.7209 0-3.1436 1.9843-3.1436s2.2257 1.4227 1.9843 3.1436z" fill="#f0f0f0"/>
  <g transform="translate(.41126 -.11945)">
   <path d="m10.499 6.577s0.6201-0.024804 0.45474 0.5953c-0.16536 0.6201-0.47955 1.2816-0.82681 1.356-0.34726 0.074413 0.27285-1.9265 0.37206-1.9513z" fill="#fff"/>
   <path d="m6.4354 6.5186s-0.6201-0.024804-0.45474 0.5953c0.16536 0.6201 0.47955 1.2816 0.82681 1.356 0.34726 0.074413-0.27285-1.9265-0.37206-1.9513z" fill="#fff"/>
   <path d="m10.459 7.0087c-0.26458 1.8862-0.88842 2.8929-1.9843 2.8929-1.0959 1e-7 -1.7198-1.0067-1.9843-2.8929-0.2414-1.7209 0-3.1436 1.9843-3.1436s2.2257 1.4227 1.9843 3.1436z" fill="#fafafa"/>
  </g>
 </g>
 <g transform="translate(-44.333 -6.6304)" fill="#5e4aa6" stroke-width=".26458">
  <circle cx="-330.35" cy="-328.38" r="0"/>
  <circle cx="-312.11" cy="-326.25" r="0"/>
  <circle cx="-306.02" cy="-333.07" r="0"/>
  <circle cx="-308.84" cy="-326.01" r="0"/>
 </g>
</svg>
