<svg width="64" height="64" version="1.1" viewBox="0 0 16.933 16.933" xmlns="http://www.w3.org/2000/svg" xmlns:xlink="http://www.w3.org/1999/xlink">
 <defs>
  <linearGradient id="d" x1="-6.1472" x2="-6.1472" y1="-137.82" y2="-100.78" gradientTransform="matrix(.17677 0 0 .17677 9.5071 325.11)" gradientUnits="userSpaceOnUse">
   <stop stop-color="#32b4ff" offset="0"/>
   <stop stop-color="#3287ff" offset="1"/>
  </linearGradient>
  <radialGradient id="c" cx="190.1" cy="88.003" r="30" gradientTransform="matrix(.25557 -.06848 .095871 .3578 -45.652 280.8)" gradientUnits="userSpaceOnUse" xlink:href="#a"/>
  <linearGradient id="a">
   <stop stop-color="#646464" offset="0"/>
   <stop offset="1"/>
  </linearGradient>
  <radialGradient id="b" cx="190.1" cy="88.003" r="30" gradientTransform="matrix(.25557 -.06848 -.095871 -.3578 -34.53 322.31)" gradientUnits="userSpaceOnUse" xlink:href="#a"/>
 </defs>
 <g transform="translate(0 -280.07)">
  <circle cx="-330.35" cy="-48.312" r="0" fill="#5e4aa6" stroke-width=".26458"/>
  <ellipse cx="-39.434" cy="286.51" r=".90502" fill="#5e4aa6" fill-rule="evenodd" stroke-width=".26458"/>
  <circle cx="8.4935" cy="288.8" r="7.9375" opacity=".2" stroke-width=".14032"/>
  <path d="m8.4935 280.6a7.9375 7.9375 0 0 0-7.9375 7.9375 7.9375 7.9375 0 0 0 7.9375 7.9375 7.9375 7.9375 0 0 0 7.9375-7.9375 7.9375 7.9375 0 0 0-7.9375-7.9375zm0 5.2917a2.6458 2.6458 0 0 1 2.6458 2.6458 2.6458 2.6458 0 0 1-2.6458 2.6458 2.6458 2.6458 0 0 1-2.6458-2.6458 2.6458 2.6458 0 0 1 2.6458-2.6458z" stroke-width=".5"/>
  <g transform="translate(-8.2463e-7 -15.405)">
   <circle cx="8.4931" cy="303.94" r="2.6457" fill="url(#d)" style="paint-order:normal"/>
   <circle cx="8.4931" cy="303.94" r=".52917" fill="#fff" fill-rule="evenodd" stroke-width=".26458"/>
  </g>
  <g transform="rotate(-15 8.493 288.54)" stroke-width=".5">
   <path d="m0.8257 290.59a7.9375 7.9375 0 0 0 9.7211 5.6117 7.9375 7.9375 0 0 0 5.6129-9.7204l-5.1114 1.3696a2.6458 2.6458 0 0 1-1.8712 3.2395 2.6458 2.6458 0 0 1-3.2402-1.8699z" fill="url(#c)"/>
   <path d="m0.82623 290.59a7.9375 7.9375 0 0 1 5.6129-9.7204 7.9375 7.9375 0 0 1 9.7211 5.6117l-5.1114 1.3696a2.6458 2.6458 0 0 0-3.2402-1.8699 2.6458 2.6458 0 0 0-1.8712 3.2395z" fill="url(#b)"/>
  </g>
 </g>
</svg>
