<svg width="64" height="64" version="1.1" viewBox="0 0 16.933 16.933" xmlns="http://www.w3.org/2000/svg" xmlns:xlink="http://www.w3.org/1999/xlink">
 <defs>
  <clipPath id="a">
   <circle cx="8.467" cy="288.53" r="6.879" fill="#d86eb0" stroke-opacity=".039" stroke-width=".491" style="paint-order:stroke markers fill"/>
  </clipPath>
 </defs>
 <circle cx="8.4935" cy="8.73" r="7.9375" opacity=".2" stroke-width=".14032"/>
 <circle cx="8.4935" cy="8.46" r="7.9375" fill="#fafafa" style="paint-order:normal"/>
 <g transform="matrix(1.1539 0 0 1.1539 -1.3032 -325.79)" clip-path="url(#a)" fill="none" stroke="#606060" stroke-opacity=".937" stroke-width=".127">
  <path d="m1.8921 287.85c0.719 0.15538 0.98388 0.51598 1.5759 1.8715 0.674 1.544 1.623 2.229 2.772 2.283 1.48 0.07 2.673-1.226 3.459-2.385 1.602-2.362 4.12-2.1957 5.4177-1.3109" opacity=".35"/>
  <path d="m1.8173 288.31c0.89388-0.34988 1.7582-0.60159 2.5477 0.64891 0.722 1.143 1.576 2.867 4.049 2.709 1.478-0.095 2.956-0.71 3.718-2.15 0.52913-0.93299 1.1843-1.8364 2.2171-2.0686 0.38219-0.0816 0.53829-0.0276 0.63986 0.0527" opacity=".35"/>
  <path d="m1.7748 290.25c0.94712-0.44412 2.7457-0.95337 4.1972-0.52987 1.297 0.379 2.937 1.847 6.056 1.504 0.824-0.09 1.522-0.563 2.183-1.464 0.4785-0.6525 0.9057-0.97039 1.135-1.1047" opacity=".35"/>
 </g>
 <circle cx="-330.35" cy="-328.38" r="0" fill="#5e4aa6" stroke-width=".26458"/>
 <g transform="matrix(1.0776 0 0 1.0776 .93406 -300.89)">
  <g transform="rotate(-11.451,10.144,297.59)" fill="#828282" opacity=".5">
   <path class="st0" d="m9.1426 284.31c1.7329 0 3.1374 1.4046 3.1374 3.1374 0 1.7329-1.4045 3.1374-3.1374 3.1374s-3.1374-1.4045-3.1374-3.1374 1.4045-3.1374 3.1374-3.1374z" clip-rule="evenodd" fill-rule="evenodd" opacity=".5" stroke-width=".15711"/>
   <rect class="st1" transform="rotate(-29.829)" x="-135.36" y="256.88" width=".64098" height="1.6292" stroke-width=".1571"/>
   <g clip-rule="evenodd" fill-rule="evenodd" stroke-width=".15711">
    <path class="st2" d="m10.995 291.69 0.88922-0.50902c0.12254-0.0707 0.27965-0.0268 0.35034 0.0943l1.6559 2.8892c0.07069 0.1226 0.02828 0.27965-0.09426 0.35033l-0.88922 0.50904c-0.12254 0.0707-0.27965 0.0283-0.35035-0.0943l-1.6559-2.8892c-0.07069-0.12259-0.02828-0.27966 0.09426-0.35036z"/>
    <path class="st3" d="m12.516 291.76 0.14454 0.25295-1.3307 0.76825-0.14454-0.25137zm0.25451 0.44461-1.3307 0.76825 0.14454 0.25294 1.3307-0.76825z"/>
    <path class="st4" d="m7.361 284.32c1.7187-0.98506 3.9104-0.3912 4.8954 1.3275 0.98505 1.7187 0.39119 3.9104-1.3275 4.8954-1.7187 0.98504-3.9104 0.39118-4.8954-1.3276-0.98505-1.7172-0.38962-3.9088 1.3275-4.8954zm0.30164 0.52473c-1.4281 0.81851-1.923 2.641-1.1029 4.069 0.81852 1.4281 2.6409 1.923 4.0706 1.1044 1.4281-0.81852 1.923-2.6409 1.1029-4.0706-0.82009-1.4281-2.6425-1.9214-4.0706-1.1029z"/>
   </g>
  </g>
  <path class="st0" d="m6.4761 284.53c1.6984-0.34401 3.3538 0.75375 3.6978 2.4521 0.34402 1.6984-0.75372 3.3538-2.4521 3.6978-1.6984 0.34402-3.3538-0.75372-3.6978-2.4521-0.34401-1.6984 0.75372-3.3538 2.4521-3.6978z" clip-rule="evenodd" fill="#fff" fill-rule="evenodd" opacity=".5" stroke-width=".15711"/>
  <rect class="st1" transform="rotate(-41.279)" x="-184.71" y="223.78" width=".64098" height="1.6292" fill="#757575" stroke-width=".1571"/>
  <g clip-rule="evenodd" fill-rule="evenodd" stroke-width=".15711">
   <path class="st2" d="m9.7555 291.39 0.77047-0.67541c0.10606-0.0936 0.26876-0.0818 0.36209 0.0229l2.1965 2.5029c0.09362 0.10613 0.08323 0.26847-0.02284 0.36207l-0.77046 0.67544c-0.10607 0.0936-0.26847 0.0833-0.36209-0.0229l-2.1965-2.5029c-0.09362-0.10611-0.08324-0.26848 0.02283-0.36209z" fill="#424242"/>
   <path class="st3" d="m11.261 291.16 0.19188 0.21922-1.1517 1.0171-0.19157-0.21767zm0.33771 0.38524-1.1517 1.0171 0.19188 0.21921 1.1517-1.0171z" fill="#757575"/>
   <path class="st4" d="m4.7315 284.89c1.489-1.3067 3.7549-1.1597 5.0615 0.32927 1.3067 1.489 1.1597 3.7549-0.32927 5.0615-1.489 1.3066-3.7549 1.1597-5.0615-0.32928-1.3063-1.4874-1.1578-3.7536 0.32927-5.0615zm0.39981 0.4544c-1.2372 1.0857-1.3604 2.9701-0.27314 4.207 1.0857 1.2372 2.9701 1.3604 4.2088 0.27436 1.2372-1.0857 1.3604-2.9701 0.27282-4.2085-1.0873-1.2368-2.9714-1.3586-4.2085-0.27282z" fill="#616161"/>
  </g>
 </g>
</svg>
