<?xml version="1.0" encoding="UTF-8"?>
<!-- Created with Inkscape (http://www.inkscape.org/) -->
<svg width="64" height="64" version="1.1" viewBox="0 0 16.933 16.933" xmlns="http://www.w3.org/2000/svg" xmlns:cc="http://creativecommons.org/ns#" xmlns:dc="http://purl.org/dc/elements/1.1/" xmlns:rdf="http://www.w3.org/1999/02/22-rdf-syntax-ns#">
 <defs>
  <filter id="filter2761" x="-.024" y="-.024" width="1.048" height="1.048" color-interpolation-filters="sRGB">
   <feGaussianBlur stdDeviation="0.14552168"/>
  </filter>
  <linearGradient id="linearGradient4673" x1="1.2573" x2="15.644" y1="15.429" y2="1.1082" gradientUnits="userSpaceOnUse">
   <stop stop-color="#ff8228" offset="0"/>
   <stop stop-color="#ff7346" offset=".47728"/>
   <stop stop-color="#ff8c55" offset="1"/>
  </linearGradient>
  <filter id="filter859" x="-.19864" y="-.085967" width="1.3973" height="1.1719" color-interpolation-filters="sRGB">
   <feGaussianBlur stdDeviation="0.18176567"/>
  </filter>
 </defs>
 <metadata>
  <rdf:RDF>
   <cc:Work rdf:about="">
    <dc:format>image/svg+xml</dc:format>
    <dc:type rdf:resource="http://purl.org/dc/dcmitype/StillImage"/>
    <dc:title/>
   </cc:Work>
  </rdf:RDF>
 </metadata>
 <path d="m10.709 1.05c4.405 0 5.0345 0.67282 5.0345 5.388v3.7761c0 4.7152-0.62954 5.388-5.0345 5.388h-4.4832c-4.405 0-5.0346-0.6728-5.0346-5.388v-3.7761c0-4.7152 0.62954-5.388 5.0346-5.388z" enable-background="new" fill="#141414" filter="url(#filter2761)" opacity=".3"/>
 <path d="m10.709 0.97579c4.405 0 5.0345 0.67282 5.0345 5.388v3.7761c0 4.7152-0.62954 5.388-5.0345 5.388h-4.4832c-4.405 0-5.0346-0.6728-5.0346-5.388v-3.7761c0-4.7152 0.62954-5.388 5.0346-5.388z" enable-background="new" fill="url(#linearGradient4673)"/>
 <path d="m11.772 2.7097a3.3072 3.3072 0 0 1 0.0027 0.13228 3.3072 3.3072 0 0 1-3.3072 3.3072 3.3072 3.3072 0 0 1-3.3072-3.3072 3.3072 3.3072 0 0 1 0.0026-0.13247" fill="none" stroke="#fff" stroke-dashoffset=".42096" stroke-width=".52916"/>
 <rect transform="matrix(-.70711 .70711 .70711 .70711 0 0)" x="2.7122" y="12.316" width=".51973" height="2.89" ry=".25986" fill="#fafafa" stroke-width=".61734"/>
 <path transform="matrix(1.0596 0 0 1 -.61961 0)" d="m8.4673 7.8556c-0.14396 0-0.25968 0.11603-0.25968 0.25999v4.5548c0 0.0135 0.0019 0.02631 0.0038 0.03924 5.06e-4 0.0033 3.27e-4 0.0066 9.88e-4 0.0099 0.0029 0.01507 0.0077 0.02937 0.01308 0.04339 6.79e-4 0.0017 9.26e-4 0.0035 0.0016 0.0051 0.02629 0.06489 0.0777 0.11662 0.1426 0.14291 0.0022 9.26e-4 0.0044 0.0014 0.0067 0.0022 0.01352 0.0051 0.0273 0.0094 0.04179 0.01212 0.01637 0.0032 0.03284 0.0048 0.04945 0.0048 0.0169-2.1e-5 0.03347-0.0017 0.04945-0.0048 1e-4 -1.9e-5 2.12e-4 2e-5 3.26e-4 0 0.01228-0.0024 0.02382-0.0065 0.03541-0.01052 0.0044-0.0015 0.0091-0.0021 0.0134-0.0038 0.0142-0.0058 0.0274-0.01325 0.04019-0.02137 0.0014-9.26e-4 3e-3 -0.0016 0.0044-0.0025 0.01456-0.0096 0.02822-0.02087 0.04052-0.03318l1.6761-1.6761c0.1018-0.1018 0.1018-0.2657 0-0.3675-0.1018-0.1018-0.2657-0.1018-0.3675 0l-1.2326 1.2326v-3.9274c5.5e-5 -0.14396-0.11597-0.25999-0.25994-0.25999z" fill="#ff6446" filter="url(#filter859)" stroke-width=".61734"/>
 <path d="m8.4673 7.8556c-0.14396 0-0.25968 0.11603-0.25968 0.25999v4.5548c0 0.0135 0.0019 0.02631 0.0038 0.03924 5.06e-4 0.0033 3.27e-4 0.0066 9.88e-4 0.0099 0.0029 0.01507 0.0077 0.02937 0.01308 0.04339 6.79e-4 0.0017 9.26e-4 0.0035 0.0016 0.0051 0.02629 0.06489 0.0777 0.11662 0.1426 0.14291 0.0022 9.26e-4 0.0044 0.0014 0.0067 0.0022 0.01352 0.0051 0.0273 0.0094 0.04179 0.01212 0.01637 0.0032 0.03284 0.0048 0.04945 0.0048 0.0169-2.1e-5 0.03347-0.0017 0.04945-0.0048 1e-4 -1.9e-5 2.12e-4 2e-5 3.26e-4 0 0.01228-0.0024 0.02382-0.0065 0.03541-0.01052 0.0044-0.0015 0.0091-0.0021 0.0134-0.0038 0.0142-0.0058 0.0274-0.01325 0.04019-0.02137 0.0014-9.26e-4 3e-3 -0.0016 0.0044-0.0025 0.01456-0.0096 0.02822-0.02087 0.04052-0.03318l1.6761-1.6761c0.1018-0.1018 0.1018-0.2657 0-0.3675-0.1018-0.1018-0.2657-0.1018-0.3675 0l-1.2326 1.2326v-3.9274c5.5e-5 -0.14396-0.11597-0.25999-0.25994-0.25999z" fill="#fafafa" stroke-width=".61734"/>
</svg>
