<svg id="Iterm" width="64" height="64" enable-background="new 0 0 1024 1024" image-rendering="optimizeSpeed" version="1.1" viewBox="0 0 64 64" xmlns="http://www.w3.org/2000/svg" xmlns:xlink="http://www.w3.org/1999/xlink">
 <defs>
  <linearGradient id="a" x1="-6.8469" x2="-6.1472" y1="-139.06" y2="-102.47" gradientTransform="matrix(2.0044 0 0 2.0044 43.601 272.09)" gradientUnits="userSpaceOnUse">
   <stop stop-color="#6a6a6a" offset="0"/>
   <stop stop-color="#505050" offset="1"/>
  </linearGradient>
 </defs>
 <mask>
  <g id="g">
   <path d="m969.75 392.05c-1.1-4.35-2.35-9-3.65-13.6-1-3.4-2-6.85-3.15-10.5-1.6-5.15-3.4-10.5-5.3-15.85-6.45-18.25-14.15-36.05-23.15-53.65-3.8-7.4-7.95-14.95-12.3-22.4-20.3-34.5-45.8-67.2-76.35-97.75-72.6-72.6-157.15-116.65-253.65-132.05-16.25-2.6-32.8-4.4-50.05-5.35-9.7-0.55-19.85-0.85-30.1-0.85-9.35 0-18.6 0.25-27.9 0.75-118.35 6.1-220.3 51.95-305.85 137.5q-138.25 138.25-138.25 333.75c0 130.35 46.1 241.65 138.25 333.8 56.7 56.65 120.55 95.9 191.1 117.55 36.75 11.25 74.8 17.85 114.75 19.95h0.4c8.5 0.45 16.6 0.7 24.5 0.7h3c10.3 0 20.5-0.3 30.1-0.8 2.5-0.15 4.75-0.3 6.95-0.45 20.2-1.45 39.9-4.05 58.7-7.7 7.95-1.55 15.8-3.3 23.4-5.15 80.8-20.3 152.15-61.6 214.65-124.1 48.6-48.6 84.4-102.5 107.35-161.8 18.45-47.65 28.65-98.8 30.55-153.5 0.2-6.05 0.3-12.25 0.3-18.5v-3c-0.2-40.65-4.95-79.5-14.3-117z" fill="#fff"/>
  </g>
 </mask>
 <circle cx="32.102" cy="32.996" r="30.001" opacity=".2" stroke-width=".53035"/>
 <circle cx="32.102" cy="31.975" r="30.001" fill="url(#a)" stroke-width=".53035"/>
 <g transform="translate(2.0985 -1.612)" fill="#fff" stroke-width="3.2202">
  <rect x="13.189" y="40.492" width="13.631" height="1.7035" ry=".85335" style="paint-order:stroke markers fill"/>
  <path d="m8.9419 25.035a0.85013 0.85013 0 0 0-0.84369 0.41863 0.85013 0.85013 0 0 0 0.31236 1.1657l9.1518 5.2811-9.1518 5.2843a0.85013 0.85013 0 0 0-0.31236 1.1657c0.2383 0.40896 0.75675 0.54743 1.1657 0.31236l10.327-5.9638a0.83725 0.83725 0 0 0 0.40897-0.72454c0.0065-0.02577 0.0033-0.04829 0.0065-0.07085 0-0.02577 0-0.04829-0.0065-0.07407a0.83725 0.83725 0 0 0-0.40897-0.72131l-10.327-5.967a0.85657 0.85657 0 0 0-0.32202-0.10626z" style="paint-order:stroke markers fill"/>
  <rect x="38.189" y="40.492" width="13.631" height="1.7035" ry=".85335" style="paint-order:stroke markers fill"/>
  <path d="m33.942 25.035a0.85013 0.85013 0 0 0-0.84369 0.41863 0.85013 0.85013 0 0 0 0.31236 1.1657l9.1518 5.2811-9.1518 5.2843a0.85013 0.85013 0 0 0-0.31236 1.1657c0.2383 0.40896 0.75674 0.54743 1.1657 0.31236l10.327-5.9638a0.83725 0.83725 0 0 0 0.40897-0.72454c0.0065-0.02577 0.0033-0.04829 0.0065-0.07085 0-0.02577 0-0.04829-0.0065-0.07407a0.83725 0.83725 0 0 0-0.40897-0.72131l-10.327-5.967a0.85657 0.85657 0 0 0-0.32202-0.10626z" style="paint-order:stroke markers fill"/>
 </g>
</svg>
