<?xml version="1.0" encoding="UTF-8"?>
<!-- Created with Inkscape (http://www.inkscape.org/) -->
<svg width="64" height="64" version="1.1" viewBox="0 0 16.933 16.933" xmlns="http://www.w3.org/2000/svg" xmlns:cc="http://creativecommons.org/ns#" xmlns:dc="http://purl.org/dc/elements/1.1/" xmlns:rdf="http://www.w3.org/1999/02/22-rdf-syntax-ns#">
 <defs>
  <filter id="filter2761" x="-.024" y="-.024" width="1.048" height="1.048" color-interpolation-filters="sRGB">
   <feGaussianBlur stdDeviation="0.14552168"/>
  </filter>
  <linearGradient id="linearGradient924" x1="15.223" x2="1.9546" y1="281.77" y2="295.04" gradientTransform="translate(-.13126 -280.07)" gradientUnits="userSpaceOnUse">
   <stop stop-color="#643cfa" offset="0"/>
   <stop stop-color="#32b4fa" offset=".35028"/>
   <stop stop-color="#f03c8c" offset=".71294"/>
   <stop stop-color="#ff7832" offset="1"/>
  </linearGradient>
  <linearGradient id="linearGradient4756" x1="-11.629" x2="-5.4248" y1="7.1071" y2="7.1071" gradientUnits="userSpaceOnUse">
   <stop stop-color="#e6e6fa" offset="0"/>
   <stop stop-color="#c8b4fa" offset="1"/>
  </linearGradient>
  <filter id="filter866" x="-.070253" y="-.052359" width="1.1405" height="1.1047" color-interpolation-filters="sRGB">
   <feGaussianBlur stdDeviation="0.18306885"/>
  </filter>
 </defs>
 <metadata>
  <rdf:RDF>
   <cc:Work rdf:about="">
    <dc:format>image/svg+xml</dc:format>
    <dc:type rdf:resource="http://purl.org/dc/dcmitype/StillImage"/>
    <dc:title/>
   </cc:Work>
  </rdf:RDF>
 </metadata>
 <path d="m10.709 1.05c4.405 0 5.0345 0.67282 5.0345 5.388v3.7761c0 4.7152-0.62954 5.388-5.0345 5.388h-4.4832c-4.405 0-5.0346-0.6728-5.0346-5.388v-3.7761c0-4.7152 0.62954-5.388 5.0346-5.388z" enable-background="new" fill="#141414" filter="url(#filter2761)" opacity=".3"/>
 <path d="m10.709 1.05c4.405 0 5.0345 0.67282 5.0345 5.388v3.7761c0 4.7152-0.62954 5.388-5.0345 5.388h-4.4832c-4.405 0-5.0346-0.6728-5.0346-5.388v-3.7761c0-4.7152 0.62954-5.388 5.0346-5.388z" enable-background="new" fill="url(#linearGradient924)"/>
 <g transform="matrix(1.283 0 0 1.283 19.376 -3.9134)" filter="url(#filter866)">
  <path d="m-11.16 8.5384v1.4257s0.07392 0.56532 0.58368 0.56532 1.6683-0.26935 1.9 0.49297c0.23171 0.76232-1.0775 2.9177 0.40799 3.0049 1.4438-0.11413 0.17681-2.2425 0.40852-3.0049 0.23171-0.76233 1.3903-0.49297 1.9-0.49297 0.50976 0 0.58421-0.56532 0.58421-0.56532v-1.4257h-2.8922z" fill="#fff"/>
  <path d="m-10.939 8.5785-0.68403-2.6893s-0.07016-0.22801 0.24555-0.24555c0.31571-0.017539 5.6184 0 5.6184 0s0.35078-0.040925 0.33325 0.30986c-0.01754 0.35078-0.22216 2.625-0.22216 2.625z" fill="url(#linearGradient4756)"/>
  <path d="m-8.4488 5.6373c-1.3651-0.00219-2.7701-0.00257-2.9279 0.0062-0.31571 0.017539-0.24546 0.24546-0.24546 0.24546l0.07235 0.28473c0.13328 0.08006 0.32311 0.14098 0.5767 0.083714 0.54372-0.12277 1.5933-0.19605 1.3942 0.6139-0.02191 0.089125-0.15318 0.083189-0.23357 0.22789-0.05212 0.093819-0.24102 0.61976 0.29765 0.68935 0.48253 0.062341 0.5844-0.72245 0.30592-0.85161-0.25018-0.11603-0.043411-0.67798 0.16329-0.71519 0.2067-0.037206 1.9409-0.32245 2.528-0.074413 0.49345 0.2085 0.86218 0.21702 1.0661 0.13384 0.00623-0.083192 0.024881-0.28782 0.026871-0.32762 0.017539-0.35078-0.33331-0.31005-0.33331-0.31005s-1.3256-0.00401-2.6907-0.0062z" fill="#f2a638"/>
 </g>
 <g transform="matrix(1.283 0 0 1.283 19.376 -3.9134)">
  <path d="m-11.16 8.5384v1.4257s0.07392 0.56532 0.58368 0.56532 1.6683-0.26935 1.9 0.49297c0.23171 0.76232-1.0775 2.9177 0.40799 3.0049 1.4438-0.11413 0.17681-2.2425 0.40852-3.0049 0.23171-0.76233 1.3903-0.49297 1.9-0.49297 0.50976 0 0.58421-0.56532 0.58421-0.56532v-1.4257h-2.8922z" fill="#fff"/>
  <path d="m-10.939 8.5785-0.68403-2.6893s-0.07016-0.22801 0.24555-0.24555c0.31571-0.017539 5.6184 0 5.6184 0s0.35078-0.040925 0.33325 0.30986c-0.01754 0.35078-0.22216 2.625-0.22216 2.625z" fill="url(#linearGradient4756)"/>
  <path d="m-8.4488 5.6373c-1.3651-0.00219-2.7701-0.00257-2.9279 0.0062-0.31571 0.017539-0.24546 0.24546-0.24546 0.24546l0.07235 0.28473c0.13328 0.08006 0.32311 0.14098 0.5767 0.083714 0.54372-0.12277 1.5933-0.19605 1.3942 0.6139-0.02191 0.089125-0.15318 0.083189-0.23357 0.22789-0.05212 0.093819-0.24102 0.61976 0.29765 0.68935 0.48253 0.062341 0.5844-0.72245 0.30592-0.85161-0.25018-0.11603-0.043411-0.67798 0.16329-0.71519 0.2067-0.037206 1.9409-0.32245 2.528-0.074413 0.49345 0.2085 0.86218 0.21702 1.0661 0.13384 0.00623-0.083192 0.024881-0.28782 0.026871-0.32762 0.017539-0.35078-0.33331-0.31005-0.33331-0.31005s-1.3256-0.00401-2.6907-0.0062z" fill="#f2a638"/>
 </g>
</svg>
