<?xml version="1.0" encoding="UTF-8"?>
<!-- Created with Inkscape (http://www.inkscape.org/) -->
<svg width="64" height="64" version="1.1" viewBox="0 0 16.933 16.933" xmlns="http://www.w3.org/2000/svg" xmlns:cc="http://creativecommons.org/ns#" xmlns:dc="http://purl.org/dc/elements/1.1/" xmlns:rdf="http://www.w3.org/1999/02/22-rdf-syntax-ns#">
 <defs>
  <filter id="filter2761" x="-.024" y="-.024" width="1.048" height="1.048" color-interpolation-filters="sRGB">
   <feGaussianBlur stdDeviation="0.14552168"/>
  </filter>
  <linearGradient id="linearGradient888" x1="-81.49" x2="-76.144" y1="-33.072" y2="-23.812" gradientUnits="userSpaceOnUse">
   <stop stop-color="#f89f39" offset="0"/>
   <stop stop-color="#ff5f1c" offset="1"/>
  </linearGradient>
  <filter id="filter967" x="-.058135" y="-.061988" width="1.1163" height="1.124" color-interpolation-filters="sRGB">
   <feGaussianBlur stdDeviation="0.24586246"/>
  </filter>
 </defs>
 <metadata>
  <rdf:RDF>
   <cc:Work rdf:about="">
    <dc:format>image/svg+xml</dc:format>
    <dc:type rdf:resource="http://purl.org/dc/dcmitype/StillImage"/>
    <dc:title/>
   </cc:Work>
  </rdf:RDF>
 </metadata>
 <path d="m10.709 1.05c4.405 0 5.0345 0.67282 5.0345 5.388v3.7761c0 4.7152-0.62954 5.388-5.0345 5.388h-4.4832c-4.405 0-5.0346-0.6728-5.0346-5.388v-3.7761c0-4.7152 0.62954-5.388 5.0346-5.388z" enable-background="new" fill="#141414" filter="url(#filter2761)" opacity=".3"/>
 <path d="m10.709 1.05c4.405 0 5.0345 0.67282 5.0345 5.388v3.7761c0 4.7152-0.62954 5.388-5.0345 5.388h-4.4832c-4.405 0-5.0346-0.6728-5.0346-5.388v-3.7761c0-4.7152 0.62954-5.388 5.0346-5.388z" enable-background="new" fill="#fafafa"/>
 <path d="m3.7041-10.848a0.92602 0.92602 0 0 0-0.06563 0.0021 0.92602 0.92602 0 0 0-0.09198 0.01137 0.92602 0.92602 0 0 0-0.08992 0.02015 0.92602 0.92602 0 0 0-0.08785 0.02945 0.92602 0.92602 0 0 0-0.08475 0.03772 0.92602 0.92602 0 0 0-0.0801 0.04599 0.92602 0.92602 0 0 0-0.07545 0.05374 0.92602 0.92602 0 0 0-0.06925 0.06149 0.92602 0.92602 0 0 0-0.06356 0.0677 0.92602 0.92602 0 0 0-0.05581 0.07338 0.92602 0.92602 0 0 0-0.04858 0.07906 0.92602 0.92602 0 0 0-0.04031 0.0832 0.92602 0.92602 0 0 0-0.03152 0.08681 0.92602 0.92602 0 0 0-0.02274 0.08992 0.92602 0.92602 0 0 0-0.01395 0.09146 0.92602 0.92602 0 0 0-0.0047 0.0925v6.6145a0.92602 0.92602 0 0 0 0.0021 0.06563 0.92602 0.92602 0 0 0 0.01137 0.09198 0.92602 0.92602 0 0 0 0.02015 0.08992 0.92602 0.92602 0 0 0 0.02946 0.08785 0.92602 0.92602 0 0 0 0.03772 0.08475 0.92602 0.92602 0 0 0 0.04599 0.0801 0.92602 0.92602 0 0 0 0.05374 0.07545 0.92602 0.92602 0 0 0 0.06149 0.06924 0.92602 0.92602 0 0 0 0.0677 0.06356 0.92602 0.92602 0 0 0 0.07338 0.05581 0.92602 0.92602 0 0 0 0.07906 0.04857 0.92602 0.92602 0 0 0 0.0832 0.04031 0.92602 0.92602 0 0 0 0.08681 0.03152 0.92602 0.92602 0 0 0 0.08992 0.02274 0.92602 0.92602 0 0 0 0.09146 0.01395 0.92602 0.92602 0 0 0 0.0925 0.0047h4.4978a0.92602 0.92602 0 0 0 0.06563-0.0021 0.92602 0.92602 0 0 0 0.09198-0.01137 0.92602 0.92602 0 0 0 0.08992-0.02015 0.92602 0.92602 0 0 0 0.08785-0.02945 0.92602 0.92602 0 0 0 0.08475-0.03772 0.92602 0.92602 0 0 0 0.0801-0.04599 0.92602 0.92602 0 0 0 0.07545-0.05374 0.92602 0.92602 0 0 0 0.06976-0.06098 0.92602 0.92602 0 0 0 0.06304-0.06821 0.92602 0.92602 0 0 0 0.05581-0.07338 0.92602 0.92602 0 0 0 0.04858-0.07906 0.92602 0.92602 0 0 0 0.04031-0.0832 0.92602 0.92602 0 0 0 0.03152-0.08681 0.92602 0.92602 0 0 0 0.02274-0.08992 0.92602 0.92602 0 0 0 0.01395-0.09146 0.92602 0.92602 0 0 0 0.0047-0.0925v-6.6145a0.92602 0.92602 0 0 0-0.0021-0.06563 0.92602 0.92602 0 0 0-0.01137-0.09198 0.92602 0.92602 0 0 0-0.02015-0.08992 0.92602 0.92602 0 0 0-0.02946-0.08785 0.92602 0.92602 0 0 0-0.03772-0.08475 0.92602 0.92602 0 0 0-0.04599-0.0801 0.92602 0.92602 0 0 0-0.05374-0.07545 0.92602 0.92602 0 0 0-0.06098-0.06925 0.92602 0.92602 0 0 0-0.06821-0.06356 0.92602 0.92602 0 0 0-0.07338-0.05581 0.92602 0.92602 0 0 0-0.07906-0.04858 0.92602 0.92602 0 0 0-0.0832-0.04031 0.92602 0.92602 0 0 0-0.08681-0.03152 0.92602 0.92602 0 0 0-0.08992-0.02274 0.92602 0.92602 0 0 0-0.09146-0.01395 0.92602 0.92602 0 0 0-0.0925-0.0047z" fill="#fafafa"/>
 <g transform="matrix(1.0922 0 0 1.0922 69.955 33.758)" filter="url(#filter967)">
  <g transform="translate(17.699 5.8148)" style="">
   <path d="m-74.346-32.808a0.92602 0.92602 0 0 0-0.06563 0.0021 0.92602 0.92602 0 0 0-0.09198 0.01137 0.92602 0.92602 0 0 0-0.08992 0.02015 0.92602 0.92602 0 0 0-0.08785 0.02945 0.92602 0.92602 0 0 0-0.08475 0.03772 0.92602 0.92602 0 0 0-0.0801 0.04599 0.92602 0.92602 0 0 0-0.07545 0.05374 0.92602 0.92602 0 0 0-0.06925 0.06149 0.92602 0.92602 0 0 0-0.06356 0.0677 0.92602 0.92602 0 0 0-0.05581 0.07338 0.92602 0.92602 0 0 0-0.04858 0.07906 0.92602 0.92602 0 0 0-0.04031 0.0832 0.92602 0.92602 0 0 0-0.03152 0.08681 0.92602 0.92602 0 0 0-0.02274 0.08992 0.92602 0.92602 0 0 0-0.01395 0.09146 0.92602 0.92602 0 0 0-0.0047 0.0925v6.6145a0.92602 0.92602 0 0 0 0.0021 0.06563 0.92602 0.92602 0 0 0 0.01137 0.09198 0.92602 0.92602 0 0 0 0.02015 0.08992 0.92602 0.92602 0 0 0 0.02946 0.08785 0.92602 0.92602 0 0 0 0.03772 0.08475 0.92602 0.92602 0 0 0 0.04599 0.0801 0.92602 0.92602 0 0 0 0.05374 0.07545 0.92602 0.92602 0 0 0 0.06149 0.06924 0.92602 0.92602 0 0 0 0.0677 0.06356 0.92602 0.92602 0 0 0 0.07338 0.05581 0.92602 0.92602 0 0 0 0.07906 0.04857 0.92602 0.92602 0 0 0 0.0832 0.04031 0.92602 0.92602 0 0 0 0.08681 0.03152 0.92602 0.92602 0 0 0 0.08992 0.02274 0.92602 0.92602 0 0 0 0.09146 0.01395 0.92602 0.92602 0 0 0 0.0925 0.0047h4.4978a0.92602 0.92602 0 0 0 0.06563-0.0021 0.92602 0.92602 0 0 0 0.09198-0.01137 0.92602 0.92602 0 0 0 0.08992-0.02015 0.92602 0.92602 0 0 0 0.08785-0.02945 0.92602 0.92602 0 0 0 0.08475-0.03772 0.92602 0.92602 0 0 0 0.0801-0.04599 0.92602 0.92602 0 0 0 0.07545-0.05374 0.92602 0.92602 0 0 0 0.06976-0.06098 0.92602 0.92602 0 0 0 0.06304-0.06821 0.92602 0.92602 0 0 0 0.05581-0.07338 0.92602 0.92602 0 0 0 0.04858-0.07906 0.92602 0.92602 0 0 0 0.04031-0.0832 0.92602 0.92602 0 0 0 0.03152-0.08681 0.92602 0.92602 0 0 0 0.02274-0.08992 0.92602 0.92602 0 0 0 0.01395-0.09146 0.92602 0.92602 0 0 0 0.0047-0.0925v-6.6145a0.92602 0.92602 0 0 0-0.0021-0.06563 0.92602 0.92602 0 0 0-0.01137-0.09198 0.92602 0.92602 0 0 0-0.02015-0.08992 0.92602 0.92602 0 0 0-0.02946-0.08785 0.92602 0.92602 0 0 0-0.03772-0.08475 0.92602 0.92602 0 0 0-0.04599-0.0801 0.92602 0.92602 0 0 0-0.05374-0.07545 0.92602 0.92602 0 0 0-0.06098-0.06925 0.92602 0.92602 0 0 0-0.06821-0.06356 0.92602 0.92602 0 0 0-0.07338-0.05581 0.92602 0.92602 0 0 0-0.07906-0.04858 0.92602 0.92602 0 0 0-0.0832-0.04031 0.92602 0.92602 0 0 0-0.08681-0.03152 0.92602 0.92602 0 0 0-0.08992-0.02274 0.92602 0.92602 0 0 0-0.09146-0.01395 0.92602 0.92602 0 0 0-0.0925-0.0047z" fill="#fcc105"/>
   <path d="m-72.098-30.036a1.4616 1.4616 0 0 0-1.4614 1.4614 1.4616 1.4616 0 0 0 1.4614 1.4614 1.4616 1.4616 0 0 0 1.4614-1.4614 1.4616 1.4616 0 0 0-1.4614-1.4614zm0.78185 0.72036 0.24701 0.24701-1.2345 1.235-0.82319-0.82319 0.24649-0.24701 0.5767 0.57618z" fill="#fff"/>
  </g>
  <g transform="translate(21.043 4.7624)" style="">
   <path d="m-81.49-32.808a0.92602 0.92602 0 0 0-0.06563 0.0021 0.92602 0.92602 0 0 0-0.09198 0.01137 0.92602 0.92602 0 0 0-0.08992 0.02015 0.92602 0.92602 0 0 0-0.08785 0.02945 0.92602 0.92602 0 0 0-0.08475 0.03772 0.92602 0.92602 0 0 0-0.0801 0.04599 0.92602 0.92602 0 0 0-0.07545 0.05374 0.92602 0.92602 0 0 0-0.06925 0.06149 0.92602 0.92602 0 0 0-0.06356 0.0677 0.92602 0.92602 0 0 0-0.05581 0.07338 0.92602 0.92602 0 0 0-0.04858 0.07906 0.92602 0.92602 0 0 0-0.04031 0.0832 0.92602 0.92602 0 0 0-0.03152 0.08681 0.92602 0.92602 0 0 0-0.02274 0.08992 0.92602 0.92602 0 0 0-0.01395 0.09146 0.92602 0.92602 0 0 0-0.0047 0.0925v6.6145a0.92602 0.92602 0 0 0 0.0021 0.06563 0.92602 0.92602 0 0 0 0.01137 0.09198 0.92602 0.92602 0 0 0 0.02015 0.08992 0.92602 0.92602 0 0 0 0.02946 0.08785 0.92602 0.92602 0 0 0 0.03772 0.08475 0.92602 0.92602 0 0 0 0.04599 0.0801 0.92602 0.92602 0 0 0 0.05374 0.07545 0.92602 0.92602 0 0 0 0.06149 0.06924 0.92602 0.92602 0 0 0 0.0677 0.06356 0.92602 0.92602 0 0 0 0.07338 0.05581 0.92602 0.92602 0 0 0 0.07906 0.04857 0.92602 0.92602 0 0 0 0.0832 0.04031 0.92602 0.92602 0 0 0 0.08681 0.03152 0.92602 0.92602 0 0 0 0.08992 0.02274 0.92602 0.92602 0 0 0 0.09146 0.01395 0.92602 0.92602 0 0 0 0.0925 0.0047h4.4978a0.92602 0.92602 0 0 0 0.06563-0.0021 0.92602 0.92602 0 0 0 0.09198-0.01137 0.92602 0.92602 0 0 0 0.08992-0.02015 0.92602 0.92602 0 0 0 0.08785-0.02945 0.92602 0.92602 0 0 0 0.08475-0.03772 0.92602 0.92602 0 0 0 0.0801-0.04599 0.92602 0.92602 0 0 0 0.07545-0.05374 0.92602 0.92602 0 0 0 0.06976-0.06098 0.92602 0.92602 0 0 0 0.06304-0.06821 0.92602 0.92602 0 0 0 0.05581-0.07338 0.92602 0.92602 0 0 0 0.04858-0.07906 0.92602 0.92602 0 0 0 0.04031-0.0832 0.92602 0.92602 0 0 0 0.03152-0.08681 0.92602 0.92602 0 0 0 0.02274-0.08992 0.92602 0.92602 0 0 0 0.01395-0.09146 0.92602 0.92602 0 0 0 0.0047-0.0925v-6.6145a0.92602 0.92602 0 0 0-0.0021-0.06563 0.92602 0.92602 0 0 0-0.01137-0.09198 0.92602 0.92602 0 0 0-0.02015-0.08992 0.92602 0.92602 0 0 0-0.02946-0.08785 0.92602 0.92602 0 0 0-0.03772-0.08475 0.92602 0.92602 0 0 0-0.04599-0.0801 0.92602 0.92602 0 0 0-0.05374-0.07545 0.92602 0.92602 0 0 0-0.06098-0.06925 0.92602 0.92602 0 0 0-0.06821-0.06356 0.92602 0.92602 0 0 0-0.07338-0.05581 0.92602 0.92602 0 0 0-0.07906-0.04858 0.92602 0.92602 0 0 0-0.0832-0.04031 0.92602 0.92602 0 0 0-0.08681-0.03152 0.92602 0.92602 0 0 0-0.08992-0.02274 0.92602 0.92602 0 0 0-0.09146-0.01395 0.92602 0.92602 0 0 0-0.0925-0.0047z" fill="url(#linearGradient888)"/>
   <g transform="translate(.0010063 .094556)" fill="#fff" style="">
    <rect x="-81.218" y="-30.891" width="3.9522" height=".4911"/>
    <rect x="-81.218" y="-29.573" width="3.9522" height=".4911"/>
    <rect x="-81.218" y="-28.256" width="3.9522" height=".4911"/>
    <rect x="-81.218" y="-26.938" width="3.9522" height=".4911"/>
   </g>
  </g>
 </g>
 <g transform="matrix(1.0922 0 0 1.0922 69.955 33.758)">
  <g transform="translate(17.699 5.8148)">
   <path d="m-74.346-32.808a0.92602 0.92602 0 0 0-0.06563 0.0021 0.92602 0.92602 0 0 0-0.09198 0.01137 0.92602 0.92602 0 0 0-0.08992 0.02015 0.92602 0.92602 0 0 0-0.08785 0.02945 0.92602 0.92602 0 0 0-0.08475 0.03772 0.92602 0.92602 0 0 0-0.0801 0.04599 0.92602 0.92602 0 0 0-0.07545 0.05374 0.92602 0.92602 0 0 0-0.06925 0.06149 0.92602 0.92602 0 0 0-0.06356 0.0677 0.92602 0.92602 0 0 0-0.05581 0.07338 0.92602 0.92602 0 0 0-0.04858 0.07906 0.92602 0.92602 0 0 0-0.04031 0.0832 0.92602 0.92602 0 0 0-0.03152 0.08681 0.92602 0.92602 0 0 0-0.02274 0.08992 0.92602 0.92602 0 0 0-0.01395 0.09146 0.92602 0.92602 0 0 0-0.0047 0.0925v6.6145a0.92602 0.92602 0 0 0 0.0021 0.06563 0.92602 0.92602 0 0 0 0.01137 0.09198 0.92602 0.92602 0 0 0 0.02015 0.08992 0.92602 0.92602 0 0 0 0.02946 0.08785 0.92602 0.92602 0 0 0 0.03772 0.08475 0.92602 0.92602 0 0 0 0.04599 0.0801 0.92602 0.92602 0 0 0 0.05374 0.07545 0.92602 0.92602 0 0 0 0.06149 0.06924 0.92602 0.92602 0 0 0 0.0677 0.06356 0.92602 0.92602 0 0 0 0.07338 0.05581 0.92602 0.92602 0 0 0 0.07906 0.04857 0.92602 0.92602 0 0 0 0.0832 0.04031 0.92602 0.92602 0 0 0 0.08681 0.03152 0.92602 0.92602 0 0 0 0.08992 0.02274 0.92602 0.92602 0 0 0 0.09146 0.01395 0.92602 0.92602 0 0 0 0.0925 0.0047h4.4978a0.92602 0.92602 0 0 0 0.06563-0.0021 0.92602 0.92602 0 0 0 0.09198-0.01137 0.92602 0.92602 0 0 0 0.08992-0.02015 0.92602 0.92602 0 0 0 0.08785-0.02945 0.92602 0.92602 0 0 0 0.08475-0.03772 0.92602 0.92602 0 0 0 0.0801-0.04599 0.92602 0.92602 0 0 0 0.07545-0.05374 0.92602 0.92602 0 0 0 0.06976-0.06098 0.92602 0.92602 0 0 0 0.06304-0.06821 0.92602 0.92602 0 0 0 0.05581-0.07338 0.92602 0.92602 0 0 0 0.04858-0.07906 0.92602 0.92602 0 0 0 0.04031-0.0832 0.92602 0.92602 0 0 0 0.03152-0.08681 0.92602 0.92602 0 0 0 0.02274-0.08992 0.92602 0.92602 0 0 0 0.01395-0.09146 0.92602 0.92602 0 0 0 0.0047-0.0925v-6.6145a0.92602 0.92602 0 0 0-0.0021-0.06563 0.92602 0.92602 0 0 0-0.01137-0.09198 0.92602 0.92602 0 0 0-0.02015-0.08992 0.92602 0.92602 0 0 0-0.02946-0.08785 0.92602 0.92602 0 0 0-0.03772-0.08475 0.92602 0.92602 0 0 0-0.04599-0.0801 0.92602 0.92602 0 0 0-0.05374-0.07545 0.92602 0.92602 0 0 0-0.06098-0.06925 0.92602 0.92602 0 0 0-0.06821-0.06356 0.92602 0.92602 0 0 0-0.07338-0.05581 0.92602 0.92602 0 0 0-0.07906-0.04858 0.92602 0.92602 0 0 0-0.0832-0.04031 0.92602 0.92602 0 0 0-0.08681-0.03152 0.92602 0.92602 0 0 0-0.08992-0.02274 0.92602 0.92602 0 0 0-0.09146-0.01395 0.92602 0.92602 0 0 0-0.0925-0.0047z" fill="#fcc105"/>
   <path d="m-72.098-30.036a1.4616 1.4616 0 0 0-1.4614 1.4614 1.4616 1.4616 0 0 0 1.4614 1.4614 1.4616 1.4616 0 0 0 1.4614-1.4614 1.4616 1.4616 0 0 0-1.4614-1.4614zm0.78185 0.72036 0.24701 0.24701-1.2345 1.235-0.82319-0.82319 0.24649-0.24701 0.5767 0.57618z" fill="#fff"/>
  </g>
  <g transform="translate(21.043 4.7624)">
   <path d="m-81.49-32.808a0.92602 0.92602 0 0 0-0.06563 0.0021 0.92602 0.92602 0 0 0-0.09198 0.01137 0.92602 0.92602 0 0 0-0.08992 0.02015 0.92602 0.92602 0 0 0-0.08785 0.02945 0.92602 0.92602 0 0 0-0.08475 0.03772 0.92602 0.92602 0 0 0-0.0801 0.04599 0.92602 0.92602 0 0 0-0.07545 0.05374 0.92602 0.92602 0 0 0-0.06925 0.06149 0.92602 0.92602 0 0 0-0.06356 0.0677 0.92602 0.92602 0 0 0-0.05581 0.07338 0.92602 0.92602 0 0 0-0.04858 0.07906 0.92602 0.92602 0 0 0-0.04031 0.0832 0.92602 0.92602 0 0 0-0.03152 0.08681 0.92602 0.92602 0 0 0-0.02274 0.08992 0.92602 0.92602 0 0 0-0.01395 0.09146 0.92602 0.92602 0 0 0-0.0047 0.0925v6.6145a0.92602 0.92602 0 0 0 0.0021 0.06563 0.92602 0.92602 0 0 0 0.01137 0.09198 0.92602 0.92602 0 0 0 0.02015 0.08992 0.92602 0.92602 0 0 0 0.02946 0.08785 0.92602 0.92602 0 0 0 0.03772 0.08475 0.92602 0.92602 0 0 0 0.04599 0.0801 0.92602 0.92602 0 0 0 0.05374 0.07545 0.92602 0.92602 0 0 0 0.06149 0.06924 0.92602 0.92602 0 0 0 0.0677 0.06356 0.92602 0.92602 0 0 0 0.07338 0.05581 0.92602 0.92602 0 0 0 0.07906 0.04857 0.92602 0.92602 0 0 0 0.0832 0.04031 0.92602 0.92602 0 0 0 0.08681 0.03152 0.92602 0.92602 0 0 0 0.08992 0.02274 0.92602 0.92602 0 0 0 0.09146 0.01395 0.92602 0.92602 0 0 0 0.0925 0.0047h4.4978a0.92602 0.92602 0 0 0 0.06563-0.0021 0.92602 0.92602 0 0 0 0.09198-0.01137 0.92602 0.92602 0 0 0 0.08992-0.02015 0.92602 0.92602 0 0 0 0.08785-0.02945 0.92602 0.92602 0 0 0 0.08475-0.03772 0.92602 0.92602 0 0 0 0.0801-0.04599 0.92602 0.92602 0 0 0 0.07545-0.05374 0.92602 0.92602 0 0 0 0.06976-0.06098 0.92602 0.92602 0 0 0 0.06304-0.06821 0.92602 0.92602 0 0 0 0.05581-0.07338 0.92602 0.92602 0 0 0 0.04858-0.07906 0.92602 0.92602 0 0 0 0.04031-0.0832 0.92602 0.92602 0 0 0 0.03152-0.08681 0.92602 0.92602 0 0 0 0.02274-0.08992 0.92602 0.92602 0 0 0 0.01395-0.09146 0.92602 0.92602 0 0 0 0.0047-0.0925v-6.6145a0.92602 0.92602 0 0 0-0.0021-0.06563 0.92602 0.92602 0 0 0-0.01137-0.09198 0.92602 0.92602 0 0 0-0.02015-0.08992 0.92602 0.92602 0 0 0-0.02946-0.08785 0.92602 0.92602 0 0 0-0.03772-0.08475 0.92602 0.92602 0 0 0-0.04599-0.0801 0.92602 0.92602 0 0 0-0.05374-0.07545 0.92602 0.92602 0 0 0-0.06098-0.06925 0.92602 0.92602 0 0 0-0.06821-0.06356 0.92602 0.92602 0 0 0-0.07338-0.05581 0.92602 0.92602 0 0 0-0.07906-0.04858 0.92602 0.92602 0 0 0-0.0832-0.04031 0.92602 0.92602 0 0 0-0.08681-0.03152 0.92602 0.92602 0 0 0-0.08992-0.02274 0.92602 0.92602 0 0 0-0.09146-0.01395 0.92602 0.92602 0 0 0-0.0925-0.0047z" fill="url(#linearGradient888)"/>
   <g transform="translate(.0010063 .094556)" fill="#fff">
    <rect x="-81.218" y="-30.891" width="3.9522" height=".4911"/>
    <rect x="-81.218" y="-29.573" width="3.9522" height=".4911"/>
    <rect x="-81.218" y="-28.256" width="3.9522" height=".4911"/>
    <rect x="-81.218" y="-26.938" width="3.9522" height=".4911"/>
   </g>
  </g>
 </g>
</svg>
