<?xml version="1.0" encoding="UTF-8"?>
<svg width="64" height="64" version="1.1" viewBox="0 0 16.933 16.933" xmlns="http://www.w3.org/2000/svg" xmlns:cc="http://creativecommons.org/ns#" xmlns:dc="http://purl.org/dc/elements/1.1/" xmlns:rdf="http://www.w3.org/1999/02/22-rdf-syntax-ns#" xmlns:xlink="http://www.w3.org/1999/xlink">
 <metadata>
  <rdf:RDF>
   <cc:Work rdf:about="">
    <dc:format>image/svg+xml</dc:format>
    <dc:type rdf:resource="http://purl.org/dc/dcmitype/StillImage"/>
    <dc:title/>
   </cc:Work>
  </rdf:RDF>
 </metadata>
 <defs>
  <linearGradient id="linearGradient2727" x1="-82.91" x2="-82.91" y1="280.31" y2="283.98" gradientTransform="translate(14.056 .42995)" gradientUnits="userSpaceOnUse">
   <stop stop-color="#faf0c8" offset="0"/>
   <stop stop-color="#ffc85a" offset="1"/>
  </linearGradient>
  <linearGradient id="linearGradient2735" x1="-76.928" x2="-83.608" y1="278.35" y2="285.69" gradientTransform="translate(14.056 .42995)" gradientUnits="userSpaceOnUse">
   <stop stop-color="#fafadc" offset="0"/>
   <stop stop-color="#faf0a0" offset="1"/>
  </linearGradient>
  <filter id="filter2747" x="-.062943" y="-.05732" width="1.1259" height="1.1146" color-interpolation-filters="sRGB">
   <feGaussianBlur stdDeviation="0.16528108"/>
  </filter>
  <filter id="filter2761" x="-.024" y="-.024" width="1.048" height="1.048" color-interpolation-filters="sRGB">
   <feGaussianBlur stdDeviation="0.14552168"/>
  </filter>
  <filter x="-.060054" y="-.059946" width="1.1201" height="1.1199" color-interpolation-filters="sRGB">
   <feGaussianBlur stdDeviation="0.2078715"/>
  </filter>
  <linearGradient id="linearGradient2645-3" x1="15.752" x2="1.3927" y1="281.24" y2="295.6" gradientTransform="translate(-.13211 -279.93)" gradientUnits="userSpaceOnUse">
   <stop stop-color="#ffdc32" offset="0"/>
   <stop stop-color="#ff7832" offset="1"/>
  </linearGradient>
 </defs>
 <circle cx="-363.6" cy="-331.39" r="0" fill="#5e4aa6" stroke-width=".26458"/>
 <path d="m10.708 1.1905c4.405 0 5.0345 0.67282 5.0345 5.388v3.7761c0 4.7152-0.62954 5.388-5.0345 5.388h-4.4832c-4.405 0-5.0346-0.6728-5.0346-5.388v-3.7761c0-4.7152 0.62954-5.388 5.0346-5.388z" enable-background="new" fill="#141414" filter="url(#filter2761)" opacity=".3"/>
 <path d="m10.708 1.1905c4.405 0 5.0345 0.67282 5.0345 5.388v3.7761c0 4.7152-0.62954 5.388-5.0345 5.388h-4.4832c-4.405 0-5.0346-0.6728-5.0346-5.388v-3.7761c0-4.7152 0.62954-5.388 5.0346-5.388z" enable-background="new" fill="url(#linearGradient2645-3)"/>
 <g transform="translate(-.049211 -.073899)" fill-rule="evenodd">
  <g transform="matrix(1.4731,0,0,1.4731,106.38,-407.89)" fill="#fa7846" filter="url(#filter2747)">
   <path d="m-68.837 281.7a0.74769 0.74769 0 0 0-0.74776 0.74673 0.74769 0.74769 0 0 0 0 5.1e-4v2.5885h1.4955v-2.5885a0.74769 0.74769 0 0 0 0-5.1e-4 0.74769 0.74769 0 0 0-0.74776-0.74673z"/>
   <path d="m-68.604 279.23a0.73279 0.73279 0 0 0-0.65216 0.36639 0.73279 0.73279 0 0 0 0.2682 1.0004 0.73279 0.73279 0 0 0 5.18e-4 5.2e-4v5.2e-4l0.74259 0.42839 2.9755 1.7441s-1.7859 1.0253-2.9352 1.7033c-1.1493 0.67799-1.3808-0.50436-1.3808-0.50436v1.1327c0.1819 1.356 1.48 1.0335 1.6702 0.96739 0.1902-0.0661 4.1119-2.4102 4.1119-2.4102 0.66019-0.40426 0.70708-1.2998 0.05271-1.7715-0.10894-0.0934-3.2659-1.8506-3.6587-2.0691l0.0015-2e-3 -0.84646-0.48886-5.16e-4 5.2e-4a0.73279 0.73279 0 0 0-5.19e-4 0 0.73279 0.73279 0 0 0-0.34882-0.0982z"/>
  </g>
  <g transform="matrix(1.4731,0,0,1.4731,106.38,-407.89)">
   <path d="m-68.837 281.7a0.74769 0.74769 0 0 0-0.74776 0.74673 0.74769 0.74769 0 0 0 0 5.1e-4v2.5885h1.4955v-2.5885a0.74769 0.74769 0 0 0 0-5.1e-4 0.74769 0.74769 0 0 0-0.74776-0.74673z" fill="url(#linearGradient2727)"/>
   <path d="m-68.604 279.23a0.73279 0.73279 0 0 0-0.65216 0.36639 0.73279 0.73279 0 0 0 0.2682 1.0004 0.73279 0.73279 0 0 0 5.18e-4 5.2e-4v5.2e-4l0.74259 0.42839 2.9755 1.7441s-1.7859 1.0253-2.9352 1.7033c-1.1493 0.67799-1.3808-0.50436-1.3808-0.50436v1.1327c0.1819 1.356 1.48 1.0335 1.6702 0.96739 0.1902-0.0661 4.1119-2.4102 4.1119-2.4102 0.66019-0.40426 0.70708-1.2998 0.05271-1.7715-0.10894-0.0934-3.2659-1.8506-3.6587-2.0691l0.0015-2e-3 -0.84646-0.48886-5.16e-4 5.2e-4a0.73279 0.73279 0 0 0-5.19e-4 0 0.73279 0.73279 0 0 0-0.34882-0.0982z" fill="url(#linearGradient2735)"/>
  </g>
 </g>
</svg>
