<svg width="64" height="64" version="1.1" viewBox="0 0 16.933 16.933" xmlns="http://www.w3.org/2000/svg" xmlns:xlink="http://www.w3.org/1999/xlink">
 <defs>
  <linearGradient id="a" x1="-6.1472" x2="-6.1472" y1="-137.82" y2="-100.78" gradientTransform="matrix(.53033 0 0 .53033 11.536 71.99)" gradientUnits="userSpaceOnUse">
   <stop stop-color="#32b4ff" offset="0"/>
   <stop stop-color="#3287ff" offset="1"/>
  </linearGradient>
 </defs>
 <circle cx="-330.35" cy="-328.38" r="0" fill="#5e4aa6" stroke-width=".26458"/>
 <circle cx="8.4935" cy="8.73" r="7.9375" opacity=".2" stroke-width=".14032"/>
 <circle cx="8.4939" cy="8.46" r="7.9375" fill="url(#a)" style="paint-order:normal"/>
 <path d="m10.006 6.57a1.0831 0.82507 0 0 0-0.03514 0.00155v0.43407c0.0059 0.00718 0.02194 0.00618 0.02739 0.013436 0.11073 0.14733 0.15806 0.3158 0.15813 0.4904-6.5e-5 0.1746-0.04739 0.34307-0.15813 0.4904-0.05599 0.074496-0.18403 0.090251-0.27956 0.14262-0.033699 0.12312-0.042512 0.23914-0.10697 0.3669-0.011934 0.023785-0.025969 0.047005-0.04134 0.068728l-0.22427 0.31419 2.2029 1.3771c0.02411 0.01506 0.04682 0.03191 0.06821 0.05064 0.45344 0.39945 0.65113 0.91028 0.60564 1.3487h0.04909c0.31623 0 0.76614-0.49113 0.17156-1.0857l-1.9507-1.2195 0.38963-0.54879c0.05974-0.13443 0.08836-0.26067 0.0987-0.37516h0.10904v-5.17e-4a0.13231 0.17607 0 0 0 0.12299-0.17569 0.13231 0.17607 0 0 0-0.12299-0.1757v-0.71519h-0.0021a1.0831 0.82507 0 0 0-1.082-0.80252zm-1.1777 3.2462-1.2273 0.76686c-0.66533 0.58612-0.15062 1.0857 0.17156 1.0857h3.2705c0.03639-0.02402 0.11516-0.0657 0.13281-0.10645 0.02545-0.05877 0.07161-0.1451-0.25011-0.43562z" opacity=".15" style="paint-order:markers fill stroke"/>
 <path d="m10.006 6.2734a1.0831 0.82507 0 0 0-0.03514 0.00155v0.43407c0.0059 0.00718 0.02194 0.00618 0.02739 0.013436 0.11073 0.14733 0.15806 0.3158 0.15813 0.4904-6.5e-5 0.1746-0.04739 0.34307-0.15813 0.4904-0.05599 0.074496-0.18403 0.090251-0.27956 0.14262-0.033699 0.12312-0.042512 0.23914-0.10697 0.3669-0.011934 0.023785-0.025969 0.047005-0.04134 0.068728l-0.22427 0.31419 2.2029 1.3771c0.02411 0.015064 0.04682 0.031906 0.06821 0.050642 0.45344 0.39945 0.65113 0.91028 0.60564 1.3487h0.04909c0.31623 0 0.76614-0.49113 0.17156-1.0857l-1.9507-1.2195 0.38963-0.54879c0.05974-0.13443 0.08836-0.26067 0.0987-0.37516h0.10904v-5.17e-4a0.13231 0.17607 0 0 0 0.12299-0.1757 0.13231 0.17607 0 0 0-0.12299-0.1757v-0.71519h-0.0021a1.0831 0.82507 0 0 0-1.082-0.80252zm-1.1777 3.2462-1.2273 0.76686c-0.66533 0.58612-0.15062 1.0857 0.17156 1.0857h3.2705c0.03639-0.02402 0.11516-0.0657 0.13281-0.10645 0.02545-0.05877 0.07161-0.1451-0.25011-0.43562z" fill="#fff" style="paint-order:markers fill stroke"/>
 <path d="m7.9373 5.1667a1.498 1.1411 0 0 0-1.496 1.1105h-0.0031v0.98855a0.18299 0.24351 0 0 0-0.00414 0 0.18299 0.24351 0 0 0-0.18293 0.24339 0.18299 0.24351 0 0 0 0.18293 0.24339 0.18299 0.24351 0 0 0 0.00414 0h0.15089c0.01534 0.15907 0.058684 0.33401 0.15193 0.51881l0.54879 0.77204-2.6783 1.6743c-0.92021 0.81065-0.20842 1.5012 0.23719 1.5012h6.2229c0.43738 0 1.0595-0.67883 0.23719-1.5012l-2.6985-1.6872 0.5395-0.75911c0.082634-0.18592 0.12212-0.36046 0.13642-0.51881h0.15038v-5.292e-4a0.18299 0.24351 0 0 1 5.291e-4 0 0.18299 0.24351 0 0 0 0.17001-0.24288 0.18299 0.24351 0 0 0-0.17053-0.24288v-0.98905h-0.00259a1.498 1.1411 0 0 0-1.4965-1.1105z" opacity=".15" style="paint-order:markers fill stroke"/>
 <path d="m7.9373 4.8701a1.498 1.1411 0 0 0-1.496 1.1105h-0.0031v0.98855a0.18299 0.24351 0 0 0-0.00414 0 0.18299 0.24351 0 0 0-0.18293 0.24339 0.18299 0.24351 0 0 0 0.18293 0.24339 0.18299 0.24351 0 0 0 0.00414 0h0.15089c0.01534 0.15907 0.058684 0.33401 0.15193 0.51881l0.54879 0.77204-2.6783 1.6743c-0.92021 0.81065-0.20842 1.5012 0.23719 1.5012h6.2229c0.43738 0 1.0595-0.67883 0.23719-1.5012l-2.6985-1.6872 0.5395-0.75911c0.082634-0.18592 0.12212-0.36046 0.13642-0.51881h0.15038v-5.292e-4a0.18299 0.24351 0 0 1 5.291e-4 0 0.18299 0.24351 0 0 0 0.17001-0.24288 0.18299 0.24351 0 0 0-0.17053-0.24288v-0.98905h-0.00259a1.498 1.1411 0 0 0-1.4965-1.1105z" fill="#fff" style="paint-order:markers fill stroke"/>
 <circle cx="-39.434" cy="6.44" r="0" fill="#5e4aa6" fill-rule="evenodd" stroke-width=".26458"/>
</svg>
