<?xml version="1.0" encoding="UTF-8"?>
<!-- Created with Inkscape (http://www.inkscape.org/) -->
<svg width="64" height="64" version="1.1" viewBox="0 0 16.933 16.933" xmlns="http://www.w3.org/2000/svg" xmlns:cc="http://creativecommons.org/ns#" xmlns:dc="http://purl.org/dc/elements/1.1/" xmlns:rdf="http://www.w3.org/1999/02/22-rdf-syntax-ns#" xmlns:xlink="http://www.w3.org/1999/xlink">
 <defs>
  <filter id="filter2761" x="-.024" y="-.024" width="1.048" height="1.048" color-interpolation-filters="sRGB">
   <feGaussianBlur stdDeviation="0.14552168"/>
  </filter>
  <filter id="filter924" x="-.060054" y="-.059946" width="1.1201" height="1.1199" color-interpolation-filters="sRGB">
   <feGaussianBlur stdDeviation="0.2078715"/>
  </filter>
  <linearGradient id="linearGradient1056" x1="42.137" x2="45.252" y1="45.492" y2="42.441" gradientTransform="matrix(.26458 0 0 .26458 .31705 -.43674)" gradientUnits="userSpaceOnUse" xlink:href="#linearGradient2645-5">
   <stop stop-color="#ffc85a" offset="0"/>
   <stop stop-color="#fce4a7" offset="1"/>
  </linearGradient>
  <filter id="filter1262" x="-.36" y="-.36" width="1.72" height="1.72" color-interpolation-filters="sRGB">
   <feGaussianBlur stdDeviation="1.0799994"/>
  </filter>
  <linearGradient id="linearGradient2645-5" x1="15.752" x2="1.3927" y1="281.24" y2="295.6" gradientTransform="translate(-.13126 -280.07)" gradientUnits="userSpaceOnUse">
   <stop stop-color="#ffdc32" offset="0"/>
   <stop stop-color="#ff7832" offset="1"/>
  </linearGradient>
  <filter id="filter1025" x="-.192" y="-.192" width="1.384" height="1.384" color-interpolation-filters="sRGB">
   <feGaussianBlur stdDeviation="0.598736"/>
  </filter>
  <filter id="filter1029" x="-.072" y="-.072" width="1.144" height="1.144" color-interpolation-filters="sRGB">
   <feGaussianBlur stdDeviation="0.79199999"/>
  </filter>
 </defs>
 <metadata>
  <rdf:RDF>
   <cc:Work rdf:about="">
    <dc:format>image/svg+xml</dc:format>
    <dc:type rdf:resource="http://purl.org/dc/dcmitype/StillImage"/>
    <dc:title/>
   </cc:Work>
  </rdf:RDF>
 </metadata>
 <path d="m10.709 1.05c4.405 0 5.0345 0.67282 5.0345 5.388v3.7761c0 4.7152-0.62954 5.388-5.0345 5.388h-4.4832c-4.405 0-5.0346-0.6728-5.0346-5.388v-3.7761c0-4.7152 0.62954-5.388 5.0346-5.388z" enable-background="new" fill="#141414" filter="url(#filter2761)" opacity=".3"/>
 <g transform="matrix(1.3181 0 0 1.3181 -2.6291 -2.6396)" fill="#285ae6" filter="url(#filter924)">
  <path d="m11.198 11.399a4.1537 4.1537 0 0 1-2.7795 1.067 4.1537 4.1537 0 0 1-4.1537-4.1537 4.1537 4.1537 0 0 1 4.1537-4.1537 4.1537 4.1537 0 0 1 2.7795 1.0671"/>
  <circle cx="8.4188" cy="8.3271" r="4.1537" opacity=".2"/>
 </g>
 <path d="m10.709 1.05c4.405 0 5.0345 0.67282 5.0345 5.388v3.7761c0 4.7152-0.62954 5.388-5.0345 5.388h-4.4832c-4.405 0-5.0346-0.6728-5.0346-5.388v-3.7761c0-4.7152 0.62954-5.388 5.0346-5.388z" enable-background="new" fill="url(#linearGradient2645-5)"/>
 <g transform="translate(-.22349 .3673)">
  <path d="m4.0211 3.6838v0.31749h9.5248v-0.31749zm0 0.95248v0.31749h9.5248v-0.31749zm0 0.95248v0.31749h9.5248v-0.31749zm0 0.95248v0.31749h9.5248v-0.31749zm0 0.95248v0.31749h9.5248v-0.31749zm0 0.95248v0.31749h9.5248v-0.31749zm0 0.95248v0.31749h9.5248v-0.31749zm0 0.95248v0.31749h9.5248v-0.31749zm0 0.95248v0.31749h9.5248v-0.31749zm0 0.95248v0.31749h9.5248v-0.31749z" enable-background="new" fill="#fff" image-rendering="optimizeSpeed" opacity=".2" stroke-width=".26458"/>
  <g fill="none">
   <path transform="matrix(.26458 0 0 .26458 .31705 -.43674)" d="m47.979 48.353-7.4842-7.4842" color="#000000" filter="url(#filter1025)" image-rendering="optimizeSpeed" opacity=".6" stroke="#fa7846" stroke-width="3.6"/>
   <circle transform="matrix(.26458 0 0 .26458 .31705 -.43674)" cx="28.4" cy="28.774" r="13.2" color="#000000" filter="url(#filter1029)" image-rendering="optimizeSpeed" opacity=".6" stroke="#fa7846" stroke-width="2.4"/>
   <path d="m11.163 10.508-0.79207-0.79207" color="#000000" image-rendering="optimizeSpeed" stroke="#faf6c6" stroke-width=".63499"/>
  </g>
  <circle cx="7.8311" cy="7.1762" r="3.4924" color="#000000" fill="#fff" fill-opacity=".5098" image-rendering="optimizeSpeed" stroke="#fafafa" stroke-width=".63499"/>
  <path d="m13.011 12.356-1.9802-1.9802" color="#000000" fill="none" image-rendering="optimizeSpeed" stroke="url(#linearGradient1056)" stroke-width=".95248"/>
  <circle transform="matrix(.26458 0 0 .26458 .31705 -.43674)" cx="24.8" cy="25.174" r="3.6" color="#000000" fill="#fff" fill-opacity=".3937" filter="url(#filter1262)" image-rendering="optimizeSpeed"/>
 </g>
</svg>
