<svg width="64" height="64" version="1.1" viewBox="0 0 16.933 16.933" xmlns="http://www.w3.org/2000/svg" xmlns:xlink="http://www.w3.org/1999/xlink">
 <defs>
  <linearGradient id="a">
   <stop stop-color="#14d16d" offset="0"/>
   <stop stop-color="#148c4b" offset="1"/>
  </linearGradient>
  <clipPath id="bl">
   <path d="m641.57 1047.1h77.223v80.595h-77.223z"/>
  </clipPath>
  <clipPath id="bk">
   <path d="m796.19 1032.6h108v108h-108z"/>
  </clipPath>
  <clipPath id="bj">
   <path d="m797.19 1036.6h106v33.142h-106z"/>
  </clipPath>
  <clipPath id="bi">
   <path d="m799.19 1066.7v-21.138c0-4.419 3.582-8.005 8.003-8.005h85.993c4.419 0 8.003 3.583 8.003 8.005v21.138z"/>
  </clipPath>
  <clipPath id="bh">
   <path d="m590.19 1067.7h104v-31.14h-104z"/>
  </clipPath>
  <clipPath id="bg">
   <path d="m813.88 1115.7h14.8v14.8h-14.8z"/>
  </clipPath>
  <clipPath id="bf">
   <path d="m871.68 1115.7h14.8v14.8h-14.8z"/>
  </clipPath>
  <clipPath id="be">
   <path d="m815.62 1089.4h69.177v37.75h-69.177z"/>
  </clipPath>
  <clipPath id="bd">
   <path d="m291.18 844.46h108v108.12h-108z"/>
  </clipPath>
  <clipPath id="bc">
   <path d="m658.79 884.04h17.705v17.706h-17.705z"/>
  </clipPath>
  <clipPath id="bb">
   <path d="m678.86 884.04h17.705v17.706h-17.705z"/>
  </clipPath>
  <clipPath id="ba">
   <path d="m698.92 884.04h17.705v17.706h-17.705z"/>
  </clipPath>
  <clipPath id="az">
   <path d="m796.19 844.58h108v108h-108zm3 55.999c0 28.167 22.826 51.001 51 51.001 28.165 0 50.999-22.828 50.999-51.001 0-28.166-22.826-51-50.999-51-28.167 0-51 22.828-51 51"/>
  </clipPath>
  <clipPath id="ay">
   <path d="m802.14 850.53h96.099v96.1h-96.099zm2.999 50.05c0 24.881 20.165 45.05 45.051 45.05 24.88 0 45.049-20.164 45.049-45.05 0-24.88-20.164-45.049-45.049-45.049-24.881 0-45.051 20.163-45.051 45.049"/>
  </clipPath>
  <clipPath id="ax">
   <path d="m808.09 856.48h84.2v84.2h-84.2z"/>
  </clipPath>
  <clipPath id="aw">
   <path d="m836.28 848.58h66.9v45.65h-66.9z"/>
  </clipPath>
  <clipPath id="av">
   <path d="m123.19 653.58h108v108h-108z"/>
  </clipPath>
  <clipPath id="au">
   <path d="m626.19 654.58h108v108h-108z"/>
  </clipPath>
  <clipPath id="at">
   <path d="m629.59 657.98h101.2v101.2h-101.2z"/>
  </clipPath>
  <clipPath id="as">
   <path d="m626.19 467.58h108v108h-108z"/>
  </clipPath>
  <clipPath id="ar">
   <path d="m122.19 275.58h108v108h-108z"/>
  </clipPath>
  <clipPath id="aq">
   <path d="m210.34 363.74h16.929v16.929h-16.929z"/>
  </clipPath>
  <clipPath id="ap">
   <path d="m124.37 278.5h30.772v30.772h-30.772z"/>
  </clipPath>
  <clipPath id="ao">
   <path d="m493.74 324.58h36.9v36.9h-36.9z"/>
  </clipPath>
  <clipPath id="an">
   <path d="m127.98 91.381h96.4v96.401h-96.4z"/>
  </clipPath>
  <clipPath id="am">
   <path d="m461.18 141.58c0-28.166 22.834-51 51-51 28.167 0 51.001 22.834 51.001 51s-22.834 51-51.001 51c-28.166 0-51-22.834-51-51"/>
  </clipPath>
  <clipPath id="al">
   <path d="m242.19 195.58h108v-108h-108z"/>
  </clipPath>
  <clipPath id="ak">
   <path d="m485.87 109.62h52.06v59.185h-52.06z"/>
  </clipPath>
  <clipPath id="aj">
   <path d="m821.69 123.68h60.701v53.051h-60.701z"/>
  </clipPath>
  <clipPath id="ai">
   <path d="m816.59 104.98h71.75v36.049h-71.75z"/>
  </clipPath>
  <clipPath id="ah">
   <path d="m641.57 1047.1h77.223v80.595h-77.223z"/>
  </clipPath>
  <clipPath id="ag">
   <path d="m796.19 1032.6h108v108h-108z"/>
  </clipPath>
  <clipPath id="af">
   <path d="m797.19 1036.6h106v33.142h-106z"/>
  </clipPath>
  <clipPath id="ae">
   <path d="m799.19 1066.7v-21.138c0-4.419 3.582-8.005 8.003-8.005h85.993c4.419 0 8.003 3.583 8.003 8.005v21.138z"/>
  </clipPath>
  <clipPath id="ad">
   <path d="m590.19 1067.7h104v-31.14h-104z"/>
  </clipPath>
  <clipPath id="ac">
   <path d="m813.88 1115.7h14.8v14.8h-14.8z"/>
  </clipPath>
  <clipPath id="ab">
   <path d="m871.68 1115.7h14.8v14.8h-14.8z"/>
  </clipPath>
  <clipPath id="aa">
   <path d="m815.62 1089.4h69.177v37.75h-69.177z"/>
  </clipPath>
  <clipPath id="z">
   <path d="m291.18 844.46h108v108.12h-108z"/>
  </clipPath>
  <clipPath id="y">
   <path d="m658.79 884.04h17.705v17.706h-17.705z"/>
  </clipPath>
  <clipPath id="x">
   <path d="m678.86 884.04h17.705v17.706h-17.705z"/>
  </clipPath>
  <clipPath id="w">
   <path d="m698.92 884.04h17.705v17.706h-17.705z"/>
  </clipPath>
  <clipPath id="v">
   <path d="m796.19 844.58h108v108h-108zm3 55.999c0 28.167 22.826 51.001 51 51.001 28.165 0 50.999-22.828 50.999-51.001 0-28.166-22.826-51-50.999-51-28.167 0-51 22.828-51 51"/>
  </clipPath>
  <clipPath id="u">
   <path d="m802.14 850.53h96.099v96.1h-96.099zm2.999 50.05c0 24.881 20.165 45.05 45.051 45.05 24.88 0 45.049-20.164 45.049-45.05 0-24.88-20.164-45.049-45.049-45.049-24.881 0-45.051 20.163-45.051 45.049"/>
  </clipPath>
  <clipPath id="t">
   <path d="m808.09 856.48h84.2v84.2h-84.2z"/>
  </clipPath>
  <clipPath id="s">
   <path d="m836.28 848.58h66.9v45.65h-66.9z"/>
  </clipPath>
  <clipPath id="r">
   <path d="m123.19 653.58h108v108h-108z"/>
  </clipPath>
  <clipPath id="q">
   <path d="m626.19 654.58h108v108h-108z"/>
  </clipPath>
  <clipPath id="p">
   <path d="m629.59 657.98h101.2v101.2h-101.2z"/>
  </clipPath>
  <clipPath id="o">
   <path d="m626.19 467.58h108v108h-108z"/>
  </clipPath>
  <clipPath id="n">
   <path d="m122.19 275.58h108v108h-108z"/>
  </clipPath>
  <clipPath id="m">
   <path d="m210.34 363.74h16.929v16.929h-16.929z"/>
  </clipPath>
  <clipPath id="l">
   <path d="m124.37 278.5h30.772v30.772h-30.772z"/>
  </clipPath>
  <clipPath id="k">
   <path d="m493.74 324.58h36.9v36.9h-36.9z"/>
  </clipPath>
  <clipPath id="j">
   <path d="m127.98 91.381h96.4v96.401h-96.4z"/>
  </clipPath>
  <clipPath id="i">
   <path d="m461.18 141.58c0-28.166 22.834-51 51-51 28.167 0 51.001 22.834 51.001 51s-22.834 51-51.001 51c-28.166 0-51-22.834-51-51"/>
  </clipPath>
  <clipPath id="h">
   <path d="m242.19 195.58h108v-108h-108z"/>
  </clipPath>
  <clipPath id="g">
   <path d="m485.87 109.62h52.06v59.185h-52.06z"/>
  </clipPath>
  <clipPath id="f">
   <path d="m821.69 123.68h60.701v53.051h-60.701z"/>
  </clipPath>
  <clipPath id="e">
   <path d="m816.59 104.98h71.75v36.049h-71.75z"/>
  </clipPath>
  <linearGradient id="d" x1="8.4207" x2="8.4207" y1="279.52" y2="297.9" gradientTransform="translate(-.027406 -.0014556)" gradientUnits="userSpaceOnUse" xlink:href="#a"/>
  <linearGradient id="c" x1="12.402" x2="12.402" y1="285.52" y2="295.88" gradientTransform="matrix(.93348 0 0 .939 .5406 17.573)" gradientUnits="userSpaceOnUse" xlink:href="#a"/>
  <linearGradient id="b" x1="8.5328" x2="8.5328" y1="300.69" y2="286.02" gradientTransform="matrix(.93348 0 0 .939 .5406 17.573)" gradientUnits="userSpaceOnUse" xlink:href="#a"/>
 </defs>
 <g transform="translate(0 -280.07)">
  <circle cx="8.4935" cy="288.8" r="7.9375" opacity=".2" stroke-width=".14032"/>
  <circle cx="-330.35" cy="-48.312" r="0" fill="#5e4aa6" stroke-width=".26458"/>
  <g transform="matrix(.35278 0 0 -.35278 94.216 544.65)">
   <g clip-path="url(#bl)">
    <g transform="translate(506.13 1122.7)">
     <path d="m0 0h39.223c6.628 0 12-5.372 12-12v-42.595c0-6.627-5.372-12-12-12h-39.223c-6.628 0-12 5.373-12 12v42.595c0 6.628 5.372 12 12 12" fill="#fff" fill-rule="evenodd"/>
    </g>
   </g>
  </g>
  <g transform="matrix(.35278 0 0 -.35278 94.216 544.65)">
   <g clip-path="url(#bk)">
    <g transform="translate(583.19 1131.6)">
     <path d="m0 0c0 4.421 3.585 8.004 8.004 8.004h85.992c4.421 0 8.004-3.585 8.004-8.004v-85.992c0-4.421-3.585-8.004-8.004-8.004h-85.992c-4.421 0-8.004 3.585-8.004 8.004z" fill="#fff" fill-rule="evenodd"/>
    </g>
   </g>
  </g>
  <g transform="matrix(.35278 0 0 -.35278 94.216 544.65)">
   <g clip-path="url(#bj)">
    <g transform="translate(689.19 1066.7)">
     <path d="m0 0v-21.139c0-4.421-3.585-8.004-8.004-8.004h-85.992c-4.421 0-8.004 3.585-8.004 8.004v21.139z" fill="#fff" fill-rule="evenodd"/>
    </g>
   </g>
  </g>
  <g transform="matrix(.35278 0 0 -.35278 94.216 544.65)">
   <g clip-path="url(#bi)">
    <g clip-path="url(#bh)">
     <path d="m590.19 1067.7h104v-31.143h-104zm103-1v-21.14c0-4.42-3.585-8.003-8.004-8.003h-85.993c-4.42 0-8.003 3.585-8.003 8.003v21.14z" fill="#fff" fill-rule="evenodd"/>
    </g>
   </g>
  </g>
  <g transform="matrix(.35278 0 0 -.35278 94.216 544.65)">
   <g clip-path="url(#bg)">
    <g transform="translate(791.69 1121.7)">
     <path d="m0 0c-1.878 0-3.4 1.522-3.4 3.4s1.522 3.4 3.4 3.4 3.4-1.522 3.4-3.4-1.522-3.4-3.4-3.4m0 1.7c0.938 0 1.7 0.761 1.7 1.7s-0.762 1.7-1.7 1.7-1.7-0.761-1.7-1.7 0.762-1.7 1.7-1.7" fill="#fff" fill-rule="evenodd"/>
    </g>
   </g>
  </g>
  <g transform="matrix(.35278 0 0 -.35278 94.216 544.65)">
   <g clip-path="url(#bf)">
    <g transform="translate(849.49 1121.7)">
     <path d="m0 0c-1.878 0-3.399 1.522-3.399 3.4s1.521 3.4 3.399 3.4 3.4-1.522 3.4-3.4-1.522-3.4-3.4-3.4m0 1.7c0.939 0 1.7 0.761 1.7 1.7s-0.761 1.7-1.7 1.7c-0.938 0-1.7-0.761-1.7-1.7s0.762-1.7 1.7-1.7" fill="#fff" fill-rule="evenodd"/>
    </g>
   </g>
  </g>
  <g transform="matrix(.35278 0 0 -.35278 94.216 544.65)">
   <g clip-path="url(#be)">
    <g transform="translate(681.27 1125.1)">
     <path d="m0 0h3.401c0.45-14.629 12.45-26.35 27.188-26.35 14.737 0 26.737 11.721 27.186 26.35h3.402c-0.45-16.507-13.973-29.75-30.588-29.75-16.616 0-30.139 13.243-30.589 29.75" fill="#fff" fill-rule="evenodd"/>
    </g>
   </g>
  </g>
  <g transform="matrix(.35278 0 0 -.35278 94.216 544.65)">
   <g clip-path="url(#bd)">
    <g transform="translate(78.186 943.59)">
     <path d="m0 0c0 4.414 3.585 7.992 8.004 7.992h85.992c4.421 0 8.004-3.575 8.004-7.992v-86.137c0-4.414-3.585-7.992-8.004-7.992h-85.992c-4.421 0-8.004 3.574-8.004 7.992z" fill="#fff" fill-rule="evenodd"/>
    </g>
   </g>
  </g>
  <g transform="matrix(.35278 0 0 -.35278 94.216 544.65)">
   <g clip-path="url(#bc)">
    <g transform="translate(632.23 888.04)">
     <path d="m0 0c3.232 0 5.853 2.62 5.853 5.853 0 3.232-2.621 5.852-5.853 5.852-3.231 0-5.853-2.62-5.853-5.852 0-3.233 2.622-5.853 5.853-5.853" fill="#fff" fill-rule="evenodd"/>
    </g>
   </g>
  </g>
  <g transform="matrix(.35278 0 0 -.35278 94.216 544.65)">
   <g clip-path="url(#bb)">
    <g transform="translate(652.3 888.04)">
     <path d="m0 0c3.231 0 5.852 2.62 5.852 5.853 0 3.232-2.621 5.852-5.852 5.852-3.232 0-5.853-2.62-5.853-5.852 0-3.233 2.621-5.853 5.853-5.853" fill="#fff" fill-rule="evenodd"/>
    </g>
   </g>
  </g>
  <g transform="matrix(.35278 0 0 -.35278 94.216 544.65)">
   <g clip-path="url(#ba)">
    <g transform="translate(672.37 888.04)">
     <path d="m0 0c3.231 0 5.853 2.62 5.853 5.853 0 3.232-2.622 5.852-5.853 5.852-3.232 0-5.853-2.62-5.853-5.852 0-3.233 2.621-5.853 5.853-5.853" fill="#fff" fill-rule="evenodd"/>
    </g>
   </g>
  </g>
  <g transform="matrix(.35278 0 0 -.35278 94.216 544.65)">
   <g clip-path="url(#az)">
    <g transform="translate(583.19 900.58)">
     <path d="m0 0c0 28.167 22.827 51 51 51 28.166 0 51-22.827 51-51 0-28.167-22.827-51-51-51-28.166 0-51 22.827-51 51" fill="#fff" fill-rule="evenodd"/>
    </g>
   </g>
  </g>
  <g transform="matrix(.35278 0 0 -.35278 94.216 544.65)">
   <g clip-path="url(#ay)">
    <g transform="translate(612.94 900.58)">
     <path d="m0 0c0 24.88 20.164 45.05 45.05 45.05 24.881 0 45.05-20.164 45.05-45.05 0-24.88-20.164-45.05-45.05-45.05-24.88 0-45.05 20.164-45.05 45.05" fill="#fff" fill-rule="evenodd"/>
    </g>
   </g>
  </g>
  <g transform="matrix(.35278 0 0 -.35278 94.216 544.65)">
   <g clip-path="url(#ax)">
    <g transform="translate(642.69 900.58)">
     <path d="m0 0c0 21.594 17.501 39.1 39.1 39.1 21.594 0 39.1-17.501 39.1-39.1 0-21.594-17.501-39.1-39.1-39.1-21.594 0-39.1 17.501-39.1 39.1" fill="#fff" fill-rule="evenodd"/>
    </g>
   </g>
  </g>
  <g transform="matrix(.35278 0 0 -.35278 94.216 544.65)">
   <g clip-path="url(#aw)">
    <g transform="translate(719.17 880.17)">
     <path d="m0 0c3.16 6.546 9.861 11.062 17.616 11.062 8.78 0 16.209-5.788 18.678-13.756 6.748-1.015 11.923-6.838 11.923-13.869 0-7.604-6.051-13.794-13.601-14.019v-6e-3h-35.699v0.093c-7.65 0.846-13.601 7.332-13.601 15.207 0 8.244 6.52 14.965 14.684 15.288" fill="#fff" fill-rule="evenodd"/>
    </g>
   </g>
  </g>
  <g transform="matrix(.35278 0 0 -.35278 94.216 544.65)">
   <g clip-path="url(#av)">
    <g transform="translate(12.186 693.43)">
     <path d="m0 0v-26.846c0-4.421-3.585-8.004-8.004-8.004h-85.992c-4.421 0-8.004 3.585-8.004 8.004v26.846h5.1v11.9h-5.1v47.246c0 4.42 3.585 8.004 8.004 8.004h85.992c4.421 0 8.004-3.586 8.004-8.004v-47.246h-5.1v-11.9z" fill="#fff" fill-rule="evenodd"/>
    </g>
   </g>
  </g>
  <g transform="matrix(.35278 0 0 -.35278 94.216 544.65)">
   <g clip-path="url(#au)">
    <g transform="translate(464.19 659.58)">
     <path d="m0 0c28.166 0 51 22.833 51 51 0 28.166-22.834 51-51 51s-51-22.834-51-51c0-28.167 22.834-51 51-51" fill="#fff" fill-rule="evenodd"/>
    </g>
   </g>
  </g>
  <g transform="matrix(.35278 0 0 -.35278 94.216 544.65)">
   <g clip-path="url(#at)">
    <g transform="translate(477.79 662.98)">
     <path d="m0 0c26.289 0 47.601 21.311 47.601 47.6s-21.312 47.6-47.601 47.6c-26.288 0-47.6-21.311-47.6-47.6s21.312-47.6 47.6-47.6" fill="#fff" fill-rule="evenodd"/>
    </g>
   </g>
  </g>
  <g transform="matrix(.35278 0 0 -.35278 94.216 544.65)">
   <g clip-path="url(#as)">
    <g transform="translate(451.38 563.66)">
     <path d="m0 0c1.018 0.434 2.133 1.633 2.489 2.668l2.192 6.371c0.357 1.039 1.538 1.883 2.648 1.883h10.947c1.106 0 2.295-0.854 2.65-1.885l2.149-6.25c0.359-1.041 1.474-2.228 2.488-2.652l6.613-2.764c1.016-0.426 2.639-0.379 3.639 0.108l5.966 2.912c0.993 0.486 2.429 0.25 3.213-0.536l7.742-7.742c0.782-0.781 1.025-2.213 0.536-3.213l-3.001-6.15c-0.485-0.992-0.539-2.633-0.124-3.654l2.553-6.283c0.416-1.026 1.601-2.149 2.653-2.51l6.551-2.254c1.049-0.362 1.899-1.543 1.899-2.653v-10.949c0-1.103-0.855-2.295-1.892-2.65l-6.662-2.293c-1.045-0.359-2.237-1.484-2.653-2.49l-2.528-6.106c-0.42-1.015-0.365-2.652 0.116-3.637l3.089-6.33c0.485-0.992 0.248-2.425-0.537-3.211l-7.742-7.742c-0.781-0.781-2.222-1.019-3.213-0.537l-6.272 3.063c-0.994 0.484-2.623 0.537-3.655 0.109l-6.151-2.553c-1.024-0.424-2.147-1.617-2.506-2.66l-2.269-6.598c-0.36-1.042-1.541-1.89-2.652-1.89h-10.947c-1.105 0-2.29 0.842-2.65 1.889l-2.313 6.72c-0.358 1.043-1.469 2.237-2.491 2.67l-5.926 2.514c-1.017 0.43-2.649 0.385-3.644-0.1l-6.477-3.162c-0.996-0.484-2.432-0.25-3.217 0.535l-7.742 7.742c-0.781 0.782-1.019 2.223-0.539 3.207l3.274 6.709c0.484 0.991 0.539 2.616 0.116 3.645l-2.281 5.563c-0.419 1.023-1.613 2.146-2.655 2.503l-7.087 2.438c-1.046 0.361-1.894 1.543-1.894 2.652v10.949c0 1.104 0.845 2.291 1.889 2.651l6.999 2.406c1.043 0.36 2.221 1.475 2.634 2.5l2.325 5.776c0.412 1.021 0.349 2.662-0.132 3.648l-3.186 6.523c-0.484 0.995-0.247 2.428 0.537 3.213l7.742 7.742c0.782 0.782 2.214 1.024 3.207 0.54l6.192-3.022c0.99-0.484 2.614-0.525 3.634-0.09z" fill="#fff" fill-rule="evenodd"/>
    </g>
   </g>
  </g>
  <g transform="matrix(.35278 0 0 -.35278 94.216 544.65)">
   <g clip-path="url(#ar)">
    <g transform="translate(-39.814 280.58)">
     <path d="m0 0c28.167 0 51 22.834 51 51s-22.833 51-51 51-51-22.834-51-51 22.833-51 51-51" fill="#fff" fill-rule="evenodd"/>
    </g>
   </g>
  </g>
  <g transform="matrix(.35278 0 0 -.35278 94.216 544.65)">
   <g clip-path="url(#aq)">
    <g transform="translate(184.95 368.74)">
     <path d="m0 0c3.018 0 5.464 2.447 5.464 5.465 0 3.017-2.446 5.465-5.464 5.465-3.019 0-5.465-2.448-5.465-5.465 0-3.018 2.446-5.465 5.465-5.465" fill="#fff" fill-rule="evenodd"/>
    </g>
   </g>
  </g>
  <g transform="matrix(.35278 0 0 -.35278 94.216 544.65)">
   <g clip-path="url(#ap)">
    <g transform="translate(78.214 283.5)">
     <path d="m0 0c6.84 0 12.385 5.545 12.385 12.385 0 6.842-5.545 12.386-12.385 12.386-6.841 0-12.386-5.544-12.386-12.386 0-6.84 5.545-12.385 12.386-12.385" fill="#fff" fill-rule="evenodd"/>
    </g>
   </g>
  </g>
  <g transform="matrix(.35278 0 0 -.35278 94.216 544.65)">
   <g clip-path="url(#ao)">
    <g transform="translate(438.39 330.58)">
     <path d="m0 0c7.98 0 14.45 6.469 14.45 14.449 0 7.981-6.47 14.451-14.45 14.451s-14.45-6.47-14.45-14.451c0-7.98 6.47-14.449 14.45-14.449" fill="#fff" fill-rule="evenodd"/>
    </g>
   </g>
  </g>
  <g transform="matrix(.35278 0 0 -.35278 94.216 544.65)">
   <g clip-path="url(#an)">
    <g transform="translate(-16.614 97.381)">
     <path d="m0 0c24.411 0 44.2 19.789 44.2 44.201 0 24.41-19.789 44.199-44.2 44.199s-44.2-19.789-44.2-44.199c0-24.412 19.789-44.201 44.2-44.201" fill="#fff" fill-rule="evenodd"/>
    </g>
   </g>
  </g>
  <g transform="matrix(.35278 0 0 -.35278 94.216 544.65)">
   <g clip-path="url(#am)">
    <g clip-path="url(#al)">
     <path d="m242.19 195.58h108v-108h-108zm54-105c28.166 0 51 22.834 51 51s-22.834 51-51 51-51-22.834-51-51 22.834-51 51-51" fill="#fff" fill-rule="evenodd"/>
    </g>
   </g>
  </g>
  <g transform="matrix(.35278 0 0 -.35278 94.216 544.65)">
   <g clip-path="url(#ak)">
    <g transform="translate(407.78 167.81)">
     <path d="m0 0 23.029-13.297v-26.592l-23.029-13.297-23.03 13.297v26.592z" fill="#fff" fill-rule="evenodd"/>
    </g>
   </g>
  </g>
  <g transform="matrix(.35278 0 0 -.35278 94.216 544.65)">
   <g clip-path="url(#aj)">
    <g transform="translate(751.51 132.06)">
     <path d="m0 0h5.475v16.178c0 14.568-11.854 26.496-26.35 26.496-14.488 0-26.351-11.92-26.351-26.496v-18.555h5.484v18.01c0 13.008 7.929 21.517 20.875 21.517 12.937 0 20.875-8.509 20.875-21.517v-15.633z" fill="#fff"/>
    </g>
   </g>
  </g>
  <g transform="matrix(.35278 0 0 -.35278 94.216 544.65)">
   <g clip-path="url(#ai)">
    <g transform="translate(691.13 139.02)">
     <path d="m0 0c-6.089 0-14.043-4.908-14.043-10.916v-6.209c0-6 7.954-10.916 14.043-10.916h2.34c0.45 0 0.81 0.355 0.81 0.799v26.451c0 0.443-0.36 0.799-0.81 0.799zm0.72-26.564c-0.45 0-0.81 0.355-0.81 0.798v23.553c0 0.445 0.36 0.801 0.81 0.801s0.81-0.356 0.81-0.801v-23.553c0-0.443-0.36-0.798-0.81-0.798m34.944 26.564h-2.341c-0.45 0-0.81-0.355-0.81-0.799v-26.443c0-0.444 0.36-0.799 0.81-0.799h2.341c6.08 0 14.043 4.908 14.043 10.916v6.209c0 6.008-7.955 10.916-14.043 10.916m-0.859-26.564c-0.451 0-0.811 0.355-0.811 0.798v23.553c0 0.445 0.36 0.801 0.811 0.801 0.45 0 0.809-0.356 0.809-0.801v-23.553c0-0.443-0.359-0.798-0.809-0.798" fill="#fff"/>
    </g>
   </g>
  </g>
  <g transform="matrix(.35278 0 0 -.35278 95.25 533.01)">
   <g clip-path="url(#ah)">
    <g transform="translate(506.13 1122.7)">
     <path d="m0 0h39.223c6.628 0 12-5.372 12-12v-42.595c0-6.627-5.372-12-12-12h-39.223c-6.628 0-12 5.373-12 12v42.595c0 6.628 5.372 12 12 12" fill="#fff" fill-rule="evenodd"/>
    </g>
   </g>
  </g>
  <g transform="matrix(.35278 0 0 -.35278 95.25 533.01)">
   <g clip-path="url(#ag)">
    <g transform="translate(583.19 1131.6)">
     <path d="m0 0c0 4.421 3.585 8.004 8.004 8.004h85.992c4.421 0 8.004-3.585 8.004-8.004v-85.992c0-4.421-3.585-8.004-8.004-8.004h-85.992c-4.421 0-8.004 3.585-8.004 8.004z" fill="#fff" fill-rule="evenodd"/>
    </g>
   </g>
  </g>
  <g transform="matrix(.35278 0 0 -.35278 95.25 533.01)">
   <g clip-path="url(#af)">
    <g transform="translate(689.19 1066.7)">
     <path d="m0 0v-21.139c0-4.421-3.585-8.004-8.004-8.004h-85.992c-4.421 0-8.004 3.585-8.004 8.004v21.139z" fill="#fff" fill-rule="evenodd"/>
    </g>
   </g>
  </g>
  <g transform="matrix(.35278 0 0 -.35278 95.25 533.01)">
   <g clip-path="url(#ae)">
    <g clip-path="url(#ad)">
     <path d="m590.19 1067.7h104v-31.143h-104zm103-1v-21.14c0-4.42-3.585-8.003-8.004-8.003h-85.993c-4.42 0-8.003 3.585-8.003 8.003v21.14z" fill="#fff" fill-rule="evenodd"/>
    </g>
   </g>
  </g>
  <g transform="matrix(.35278 0 0 -.35278 95.25 533.01)">
   <g clip-path="url(#ac)">
    <g transform="translate(791.69 1121.7)">
     <path d="m0 0c-1.878 0-3.4 1.522-3.4 3.4s1.522 3.4 3.4 3.4 3.4-1.522 3.4-3.4-1.522-3.4-3.4-3.4m0 1.7c0.938 0 1.7 0.761 1.7 1.7s-0.762 1.7-1.7 1.7-1.7-0.761-1.7-1.7 0.762-1.7 1.7-1.7" fill="#fff" fill-rule="evenodd"/>
    </g>
   </g>
  </g>
  <g transform="matrix(.35278 0 0 -.35278 95.25 533.01)">
   <g clip-path="url(#ab)">
    <g transform="translate(849.49 1121.7)">
     <path d="m0 0c-1.878 0-3.399 1.522-3.399 3.4s1.521 3.4 3.399 3.4 3.4-1.522 3.4-3.4-1.522-3.4-3.4-3.4m0 1.7c0.939 0 1.7 0.761 1.7 1.7s-0.761 1.7-1.7 1.7c-0.938 0-1.7-0.761-1.7-1.7s0.762-1.7 1.7-1.7" fill="#fff" fill-rule="evenodd"/>
    </g>
   </g>
  </g>
  <g transform="matrix(.35278 0 0 -.35278 95.25 533.01)">
   <g clip-path="url(#aa)">
    <g transform="translate(681.27 1125.1)">
     <path d="m0 0h3.401c0.45-14.629 12.45-26.35 27.188-26.35 14.737 0 26.737 11.721 27.186 26.35h3.402c-0.45-16.507-13.973-29.75-30.588-29.75-16.616 0-30.139 13.243-30.589 29.75" fill="#fff" fill-rule="evenodd"/>
    </g>
   </g>
  </g>
  <g transform="matrix(.35278 0 0 -.35278 95.25 533.01)">
   <g clip-path="url(#z)">
    <g transform="translate(78.186 943.59)">
     <path d="m0 0c0 4.414 3.585 7.992 8.004 7.992h85.992c4.421 0 8.004-3.575 8.004-7.992v-86.137c0-4.414-3.585-7.992-8.004-7.992h-85.992c-4.421 0-8.004 3.574-8.004 7.992z" fill="#fff" fill-rule="evenodd"/>
    </g>
   </g>
  </g>
  <g transform="matrix(.35278 0 0 -.35278 95.25 533.01)">
   <g clip-path="url(#y)">
    <g transform="translate(632.23 888.04)">
     <path d="m0 0c3.232 0 5.853 2.62 5.853 5.853 0 3.232-2.621 5.852-5.853 5.852-3.231 0-5.853-2.62-5.853-5.852 0-3.233 2.622-5.853 5.853-5.853" fill="#fff" fill-rule="evenodd"/>
    </g>
   </g>
  </g>
  <g transform="matrix(.35278 0 0 -.35278 95.25 533.01)">
   <g clip-path="url(#x)">
    <g transform="translate(652.3 888.04)">
     <path d="m0 0c3.231 0 5.852 2.62 5.852 5.853 0 3.232-2.621 5.852-5.852 5.852-3.232 0-5.853-2.62-5.853-5.852 0-3.233 2.621-5.853 5.853-5.853" fill="#fff" fill-rule="evenodd"/>
    </g>
   </g>
  </g>
  <g transform="matrix(.35278 0 0 -.35278 95.25 533.01)">
   <g clip-path="url(#w)">
    <g transform="translate(672.37 888.04)">
     <path d="m0 0c3.231 0 5.853 2.62 5.853 5.853 0 3.232-2.622 5.852-5.853 5.852-3.232 0-5.853-2.62-5.853-5.852 0-3.233 2.621-5.853 5.853-5.853" fill="#fff" fill-rule="evenodd"/>
    </g>
   </g>
  </g>
  <g transform="matrix(.35278 0 0 -.35278 95.25 533.01)">
   <g clip-path="url(#v)">
    <g transform="translate(583.19 900.58)">
     <path d="m0 0c0 28.167 22.827 51 51 51 28.166 0 51-22.827 51-51 0-28.167-22.827-51-51-51-28.166 0-51 22.827-51 51" fill="#fff" fill-rule="evenodd"/>
    </g>
   </g>
  </g>
  <g transform="matrix(.35278 0 0 -.35278 95.25 533.01)">
   <g clip-path="url(#u)">
    <g transform="translate(612.94 900.58)">
     <path d="m0 0c0 24.88 20.164 45.05 45.05 45.05 24.881 0 45.05-20.164 45.05-45.05 0-24.88-20.164-45.05-45.05-45.05-24.88 0-45.05 20.164-45.05 45.05" fill="#fff" fill-rule="evenodd"/>
    </g>
   </g>
  </g>
  <g transform="matrix(.35278 0 0 -.35278 95.25 533.01)">
   <g clip-path="url(#t)">
    <g transform="translate(642.69 900.58)">
     <path d="m0 0c0 21.594 17.501 39.1 39.1 39.1 21.594 0 39.1-17.501 39.1-39.1 0-21.594-17.501-39.1-39.1-39.1-21.594 0-39.1 17.501-39.1 39.1" fill="#fff" fill-rule="evenodd"/>
    </g>
   </g>
  </g>
  <g transform="matrix(.35278 0 0 -.35278 95.25 533.01)">
   <g clip-path="url(#s)">
    <g transform="translate(719.17 880.17)">
     <path d="m0 0c3.16 6.546 9.861 11.062 17.616 11.062 8.78 0 16.209-5.788 18.678-13.756 6.748-1.015 11.923-6.838 11.923-13.869 0-7.604-6.051-13.794-13.601-14.019v-6e-3h-35.699v0.093c-7.65 0.846-13.601 7.332-13.601 15.207 0 8.244 6.52 14.965 14.684 15.288" fill="#fff" fill-rule="evenodd"/>
    </g>
   </g>
  </g>
  <g transform="matrix(.35278 0 0 -.35278 95.25 533.01)">
   <g clip-path="url(#r)">
    <g transform="translate(12.186 693.43)">
     <path d="m0 0v-26.846c0-4.421-3.585-8.004-8.004-8.004h-85.992c-4.421 0-8.004 3.585-8.004 8.004v26.846h5.1v11.9h-5.1v47.246c0 4.42 3.585 8.004 8.004 8.004h85.992c4.421 0 8.004-3.586 8.004-8.004v-47.246h-5.1v-11.9z" fill="#fff" fill-rule="evenodd"/>
    </g>
   </g>
  </g>
  <g transform="matrix(.35278 0 0 -.35278 95.25 533.01)">
   <g clip-path="url(#q)">
    <g transform="translate(464.19 659.58)">
     <path d="m0 0c28.166 0 51 22.833 51 51 0 28.166-22.834 51-51 51s-51-22.834-51-51c0-28.167 22.834-51 51-51" fill="#fff" fill-rule="evenodd"/>
    </g>
   </g>
  </g>
  <g transform="matrix(.35278 0 0 -.35278 95.25 533.01)">
   <g clip-path="url(#p)">
    <g transform="translate(477.79 662.98)">
     <path d="m0 0c26.289 0 47.601 21.311 47.601 47.6s-21.312 47.6-47.601 47.6c-26.288 0-47.6-21.311-47.6-47.6s21.312-47.6 47.6-47.6" fill="#fff" fill-rule="evenodd"/>
    </g>
   </g>
  </g>
  <g transform="matrix(.35278 0 0 -.35278 95.25 533.01)">
   <g clip-path="url(#o)">
    <g transform="translate(451.38 563.66)">
     <path d="m0 0c1.018 0.434 2.133 1.633 2.489 2.668l2.192 6.371c0.357 1.039 1.538 1.883 2.648 1.883h10.947c1.106 0 2.295-0.854 2.65-1.885l2.149-6.25c0.359-1.041 1.474-2.228 2.488-2.652l6.613-2.764c1.016-0.426 2.639-0.379 3.639 0.108l5.966 2.912c0.993 0.486 2.429 0.25 3.213-0.536l7.742-7.742c0.782-0.781 1.025-2.213 0.536-3.213l-3.001-6.15c-0.485-0.992-0.539-2.633-0.124-3.654l2.553-6.283c0.416-1.026 1.601-2.149 2.653-2.51l6.551-2.254c1.049-0.362 1.899-1.543 1.899-2.653v-10.949c0-1.103-0.855-2.295-1.892-2.65l-6.662-2.293c-1.045-0.359-2.237-1.484-2.653-2.49l-2.528-6.106c-0.42-1.015-0.365-2.652 0.116-3.637l3.089-6.33c0.485-0.992 0.248-2.425-0.537-3.211l-7.742-7.742c-0.781-0.781-2.222-1.019-3.213-0.537l-6.272 3.063c-0.994 0.484-2.623 0.537-3.655 0.109l-6.151-2.553c-1.024-0.424-2.147-1.617-2.506-2.66l-2.269-6.598c-0.36-1.042-1.541-1.89-2.652-1.89h-10.947c-1.105 0-2.29 0.842-2.65 1.889l-2.313 6.72c-0.358 1.043-1.469 2.237-2.491 2.67l-5.926 2.514c-1.017 0.43-2.649 0.385-3.644-0.1l-6.477-3.162c-0.996-0.484-2.432-0.25-3.217 0.535l-7.742 7.742c-0.781 0.782-1.019 2.223-0.539 3.207l3.274 6.709c0.484 0.991 0.539 2.616 0.116 3.645l-2.281 5.563c-0.419 1.023-1.613 2.146-2.655 2.503l-7.087 2.438c-1.046 0.361-1.894 1.543-1.894 2.652v10.949c0 1.104 0.845 2.291 1.889 2.651l6.999 2.406c1.043 0.36 2.221 1.475 2.634 2.5l2.325 5.776c0.412 1.021 0.349 2.662-0.132 3.648l-3.186 6.523c-0.484 0.995-0.247 2.428 0.537 3.213l7.742 7.742c0.782 0.782 2.214 1.024 3.207 0.54l6.192-3.022c0.99-0.484 2.614-0.525 3.634-0.09z" fill="#fff" fill-rule="evenodd"/>
    </g>
   </g>
  </g>
  <g transform="matrix(.35278 0 0 -.35278 95.25 533.01)">
   <g clip-path="url(#n)">
    <g transform="translate(-39.814 280.58)">
     <path d="m0 0c28.167 0 51 22.834 51 51s-22.833 51-51 51-51-22.834-51-51 22.833-51 51-51" fill="#fff" fill-rule="evenodd"/>
    </g>
   </g>
  </g>
  <g transform="matrix(.35278 0 0 -.35278 95.25 533.01)">
   <g clip-path="url(#m)">
    <g transform="translate(184.95 368.74)">
     <path d="m0 0c3.018 0 5.464 2.447 5.464 5.465 0 3.017-2.446 5.465-5.464 5.465-3.019 0-5.465-2.448-5.465-5.465 0-3.018 2.446-5.465 5.465-5.465" fill="#fff" fill-rule="evenodd"/>
    </g>
   </g>
  </g>
  <g transform="matrix(.35278 0 0 -.35278 95.25 533.01)">
   <g clip-path="url(#l)">
    <g transform="translate(78.214 283.5)">
     <path d="m0 0c6.84 0 12.385 5.545 12.385 12.385 0 6.842-5.545 12.386-12.385 12.386-6.841 0-12.386-5.544-12.386-12.386 0-6.84 5.545-12.385 12.386-12.385" fill="#fff" fill-rule="evenodd"/>
    </g>
   </g>
  </g>
  <g transform="matrix(.35278 0 0 -.35278 95.25 533.01)">
   <g clip-path="url(#k)">
    <g transform="translate(438.39 330.58)">
     <path d="m0 0c7.98 0 14.45 6.469 14.45 14.449 0 7.981-6.47 14.451-14.45 14.451s-14.45-6.47-14.45-14.451c0-7.98 6.47-14.449 14.45-14.449" fill="#fff" fill-rule="evenodd"/>
    </g>
   </g>
  </g>
  <g transform="matrix(.35278 0 0 -.35278 95.25 533.01)">
   <g clip-path="url(#j)">
    <g transform="translate(-16.614 97.381)">
     <path d="m0 0c24.411 0 44.2 19.789 44.2 44.201 0 24.41-19.789 44.199-44.2 44.199s-44.2-19.789-44.2-44.199c0-24.412 19.789-44.201 44.2-44.201" fill="#fff" fill-rule="evenodd"/>
    </g>
   </g>
  </g>
  <g transform="matrix(.35278 0 0 -.35278 95.25 533.01)">
   <g clip-path="url(#i)">
    <g clip-path="url(#h)">
     <path d="m242.19 195.58h108v-108h-108zm54-105c28.166 0 51 22.834 51 51s-22.834 51-51 51-51-22.834-51-51 22.834-51 51-51" fill="#fff" fill-rule="evenodd"/>
    </g>
   </g>
  </g>
  <g transform="matrix(.35278 0 0 -.35278 95.25 533.01)">
   <g clip-path="url(#g)">
    <g transform="translate(407.78 167.81)">
     <path d="m0 0 23.029-13.297v-26.592l-23.029-13.297-23.03 13.297v26.592z" fill="#fff" fill-rule="evenodd"/>
    </g>
   </g>
  </g>
  <g transform="matrix(.35278 0 0 -.35278 95.25 533.01)">
   <g clip-path="url(#f)">
    <g transform="translate(751.51 132.06)">
     <path d="m0 0h5.475v16.178c0 14.568-11.854 26.496-26.35 26.496-14.488 0-26.351-11.92-26.351-26.496v-18.555h5.484v18.01c0 13.008 7.929 21.517 20.875 21.517 12.937 0 20.875-8.509 20.875-21.517v-15.633z" fill="#fff"/>
    </g>
   </g>
  </g>
  <g transform="matrix(.35278 0 0 -.35278 95.25 533.01)">
   <g clip-path="url(#e)">
    <g transform="translate(691.13 139.02)">
     <path d="m0 0c-6.089 0-14.043-4.908-14.043-10.916v-6.209c0-6 7.954-10.916 14.043-10.916h2.34c0.45 0 0.81 0.355 0.81 0.799v26.451c0 0.443-0.36 0.799-0.81 0.799zm0.72-26.564c-0.45 0-0.81 0.355-0.81 0.798v23.553c0 0.445 0.36 0.801 0.81 0.801s0.81-0.356 0.81-0.801v-23.553c0-0.443-0.36-0.798-0.81-0.798m34.944 26.564h-2.341c-0.45 0-0.81-0.355-0.81-0.799v-26.443c0-0.444 0.36-0.799 0.81-0.799h2.341c6.08 0 14.043 4.908 14.043 10.916v6.209c0 6.008-7.955 10.916-14.043 10.916m-0.859-26.564c-0.451 0-0.811 0.355-0.811 0.798v23.553c0 0.445 0.36 0.801 0.811 0.801 0.45 0 0.809-0.356 0.809-0.801v-23.553c0-0.443-0.359-0.798-0.809-0.798" fill="#fff"/>
    </g>
   </g>
  </g>
  <circle cx="8.4667" cy="288.53" r="7.9375" fill="url(#d)"/>
  <g transform="matrix(1.071 0 0 1.071 -.60569 -20.493)">
   <path d="m6.8563 289.41c-0.21194 1.9895 2.5464 4.9468 5.0228 5.65 2.3496-1.3188 3.816-3.876 3.8188-6.659-0.0016-0.64693-0.08281-1.291-0.24148-1.9164-3.26-1.203-8.1624-0.17193-8.6001 2.9253z" fill="#149851" opacity=".3"/>
   <path d="m6.857 289.5c-0.21634 1.9586 2.5994 4.87 5.1273 5.5623 2.3985-1.2984 3.8954-3.8158 3.8982-6.5556-0.0017-0.63689-0.08454-1.2709-0.2465-1.8866-3.3278-1.1843-8.3322-0.16925-8.779 2.8799z" fill="url(#c)"/>
   <path d="m3.5247 286.47c-0.94538-0.0195-1.9396 0.33547-2.2957 0.47456a7.4095 7.4533 0 0 0-0.16932 1.5634 7.4095 7.4533 0 0 0 7.3999 7.4528h0.023633a7.4095 7.4533 0 0 0 7.3787-7.1102v-0.82784a7.4095 7.4533 0 0 0-0.08731-0.75453c-1.7081 0.0321-3.6504 0.99498-5.5933 1.2393-1.9759 0.24844-4.9397-1.7391-6.1746-1.9876-0.15437-0.0311-0.31645-0.0463-0.48191-0.05z" fill="url(#b)"/>
   <g transform="matrix(1.6907 0 0 1.6907 -5.8931 -199.3)" fill="#149150" opacity=".5" stroke-width=".038142" style="font-feature-settings:normal;font-variant-caps:normal;font-variant-ligatures:normal;font-variant-numeric:normal" aria-label="50%">
    <path d="m7.3967 291.05q0 0.25026-0.14926 0.39391-0.14814 0.14365-0.41187 0.14365-0.22109 0-0.35688-0.0965t-0.17171-0.27945l0.20425-0.0236q0.063969 0.23455 0.32882 0.23455 0.16273 0 0.25475-0.0976 0.092026-0.0988 0.092026-0.27046 0-0.14926-0.093148-0.24129-0.092026-0.092-0.24914-0.092-0.081925 0-0.15263 0.0258-0.070703 0.0258-0.14141 0.0875h-0.19752l0.052746-0.85067h0.89893v0.1717h-0.71488l-0.030301 0.50166q0.1313-0.10101 0.32658-0.10101 0.23343 0 0.37147 0.13692 0.13916 0.13692 0.13916 0.35688z" style="font-feature-settings:normal;font-variant-caps:normal;font-variant-ligatures:normal;font-variant-numeric:normal"/>
    <path d="m8.6817 290.77q0 0.39616-0.14028 0.6049-0.13916 0.20874-0.41187 0.20874t-0.40963-0.20762q-0.13692-0.20761-0.13692-0.60602 0-0.40738 0.13243-0.61051 0.13355-0.20313 0.42085-0.20313 0.27944 0 0.41187 0.20537 0.13355 0.20538 0.13355 0.60827zm-0.20537 0q0-0.34229-0.079681-0.49604-0.078558-0.15375-0.26037-0.15375-0.1863 0-0.26822 0.15151-0.080803 0.1515-0.080803 0.49828 0 0.33668 0.081925 0.49268 0.083048 0.15599 0.26261 0.15599 0.17844 0 0.26149-0.15936 0.083048-0.15936 0.083048-0.48931z" style="font-feature-settings:normal;font-variant-caps:normal;font-variant-ligatures:normal;font-variant-numeric:normal"/>
    <path d="m10.733 291.08q0 0.24128-0.0909 0.37146-0.0909 0.12907-0.26822 0.12907-0.17507 0-0.26486-0.1257-0.08866-0.12681-0.08866-0.37483 0-0.25588 0.08529-0.38045 0.08641-0.1257 0.27271-0.1257 0.18405 0 0.26934 0.12906 0.08529 0.12794 0.08529 0.37709zm-1.3703 0.48706h-0.17395l1.0347-1.5813h0.1762zm-0.14926-1.5947q0.17844 0 0.26485 0.12569 0.086414 0.1257 0.086414 0.37484 0 0.24353-0.089781 0.37484-0.088659 0.1313-0.26598 0.1313-0.17732 0-0.2671-0.13018-0.088659-0.13018-0.088659-0.37596 0-0.25026 0.086414-0.37484 0.086414-0.12569 0.27383-0.12569zm1.3535 1.1077q0-0.20089-0.04377-0.29067-0.04265-0.0909-0.14477-0.0909-0.10213 0-0.14814 0.0887-0.04489 0.0887-0.04489 0.29292 0 0.1919 0.04377 0.28505 0.04489 0.092 0.14702 0.092 0.09876 0 0.14477-0.0932 0.04601-0.0943 0.04601-0.28393zm-1.1672-0.60715q0-0.19752-0.042646-0.28842t-0.14365-0.0909q-0.10549 0-0.15038 0.0898-0.044891 0.0887-0.044891 0.28954 0 0.19415 0.044891 0.2873 0.044891 0.092 0.14814 0.092 0.097637 0 0.14253-0.0943 0.046013-0.0943 0.046013-0.28506z" style="font-feature-settings:normal;font-variant-caps:normal;font-variant-ligatures:normal;font-variant-numeric:normal"/>
   </g>
   <g transform="matrix(1.6907 0 0 1.6907 -5.8931 -199.3)" fill="#fff" stroke-width=".038142" style="font-feature-settings:normal;font-variant-caps:normal;font-variant-ligatures:normal;font-variant-numeric:normal" aria-label="50%">
    <path d="m7.3967 290.94q0 0.25027-0.14926 0.39392-0.14814 0.14365-0.41187 0.14365-0.22109 0-0.35688-0.0965t-0.17171-0.27944l0.20425-0.0236q0.063969 0.23455 0.32882 0.23455 0.16273 0 0.25475-0.0976 0.092026-0.0988 0.092026-0.27047 0-0.14926-0.093148-0.24129-0.092026-0.092-0.24914-0.092-0.081925 0-0.15263 0.0258-0.070703 0.0258-0.14141 0.0875h-0.19752l0.052746-0.85068h0.89893v0.17171h-0.71488l-0.030301 0.50165q0.1313-0.101 0.32658-0.101 0.23343 0 0.37147 0.13691 0.13916 0.13692 0.13916 0.35688z" style="font-feature-settings:normal;font-variant-caps:normal;font-variant-ligatures:normal;font-variant-numeric:normal"/>
    <path d="m8.6817 290.66q0 0.39615-0.14028 0.6049-0.13916 0.20874-0.41187 0.20874t-0.40963-0.20762-0.13692-0.60602q0-0.40739 0.13243-0.61052 0.13355-0.20313 0.42085-0.20313 0.27944 0 0.41187 0.20538 0.13355 0.20537 0.13355 0.60827zm-0.20537 0q0-0.34229-0.079681-0.49605-0.078558-0.15375-0.26037-0.15375-0.1863 0-0.26822 0.15151-0.080803 0.15151-0.080803 0.49829 0 0.33667 0.081925 0.49267 0.083048 0.15599 0.26261 0.15599 0.17844 0 0.26149-0.15936 0.083048-0.15936 0.083048-0.4893z" style="font-feature-settings:normal;font-variant-caps:normal;font-variant-ligatures:normal;font-variant-numeric:normal"/>
    <path d="m10.733 290.97q0 0.24129-0.0909 0.37147-0.0909 0.12906-0.26822 0.12906-0.17507 0-0.26486-0.12569-0.08866-0.12682-0.08866-0.37484 0-0.25588 0.08529-0.38045 0.08641-0.12569 0.27271-0.12569 0.18405 0 0.26934 0.12906 0.08529 0.12794 0.08529 0.37708zm-1.3703 0.48706h-0.17395l1.0347-1.5813h0.1762zm-0.14926-1.5947q0.17844 0 0.26485 0.1257 0.086414 0.12569 0.086414 0.37483 0 0.24354-0.089781 0.37484-0.088659 0.13131-0.26598 0.13131-0.17732 0-0.2671-0.13019-0.088659-0.13018-0.088659-0.37596 0-0.25026 0.086414-0.37483 0.086414-0.1257 0.27383-0.1257zm1.3535 1.1077q0-0.20089-0.04377-0.29067-0.04265-0.0909-0.14477-0.0909-0.10213 0-0.14814 0.0887-0.04489 0.0887-0.04489 0.29291 0 0.19191 0.04377 0.28505 0.04489 0.092 0.14702 0.092 0.09876 0 0.14477-0.0931 0.04601-0.0943 0.04601-0.28393zm-1.1672-0.60715q0-0.19751-0.042646-0.28842-0.042646-0.0909-0.14365-0.0909-0.10549 0-0.15038 0.0898-0.044891 0.0887-0.044891 0.28954 0 0.19416 0.044891 0.2873 0.044891 0.092 0.14814 0.092 0.097637 0 0.14253-0.0943 0.046013-0.0943 0.046013-0.28506z" style="font-feature-settings:normal;font-variant-caps:normal;font-variant-ligatures:normal;font-variant-numeric:normal"/>
   </g>
  </g>
 </g>
</svg>
