<svg id="Calculator" width="64" height="64" enable-background="new 0 0 1024 1024" image-rendering="optimizeSpeed" version="1.1" viewBox="0 0 64 64" xmlns="http://www.w3.org/2000/svg" xmlns:xlink="http://www.w3.org/1999/xlink">
 <defs>
  <linearGradient id="c" x1="520.32" x2="520.32" y1="-19.132" y2="1028.8" gradientTransform="matrix(.063633 0 0 .063633 -.56761 -.53897)" gradientUnits="userSpaceOnUse">
   <stop stop-color="#ffbc64" offset="0"/>
   <stop stop-color="#f34f17" offset="1"/>
  </linearGradient>
 </defs>
 <path d="m62 33c0-0.50588-0.01273-1.0086-0.03182-1.4986q-0.50906-11.464-8.7527-19.717c-5.8574-5.8543-12.93-8.7846-21.215-8.7846-8.2819 0-15.358 2.9303-21.212 8.7846-5.8574 5.8543-8.7877 12.93-8.7877 21.215 0 8.2819 2.9303 15.358 8.7877 21.212 5.482 5.4915 12.049 8.4091 19.672 8.7559 0.50907 0.01909 1.0181 0.03182 1.5399 0.03182 8.285 0 15.358-2.9335 21.215-8.7877 5.8543-5.8543 8.7846-12.93 8.7846-21.212z" opacity=".15" stroke-width=".99796"/>
 <path d="m62 32c0-0.50588-0.01273-1.0086-0.03182-1.4986q-0.50906-11.464-8.7527-19.717c-5.8574-5.8543-12.93-8.7846-21.215-8.7846-8.2819 0-15.358 2.9303-21.212 8.7846-5.8574 5.8543-8.7877 12.93-8.7877 21.215 0 8.2819 2.9303 15.358 8.7877 21.212 5.482 5.4915 12.049 8.4091 19.672 8.7559 0.50907 0.01909 1.0181 0.03182 1.5399 0.03182 8.285 0 15.358-2.9335 21.215-8.7877 5.8543-5.8543 8.7846-12.93 8.7846-21.212z" fill="url(#c)" stroke-width=".99796"/>
 <path d="m31.942 36.636c4.6149 0 8.478-1.5682 8.7121-3.6152-0.6862-1.925-1.4346-4.0241-2.1698-6.0874-0.5105 1.4716-3.3298 2.5092-6.5419 2.5092-3.2113 0-6.0306-1.038-6.5419-2.5089-0.73524 2.0628-1.4828 4.1616-2.169 6.087 0.23324 2.047 4.0956 3.6152 8.7105 3.6152zm0-12.946c2.169 0 4.1844-0.67152 4.774-1.7141-0.81286-2.2833-1.5114-4.2423-1.9528-5.4784-0.29309-0.82367-1.6222-1.2515-2.8213-1.2515-1.199 0-2.5282 0.42786-2.8216 1.2515-0.4406 1.2361-1.1388 3.195-1.9528 5.4784 0.59005 1.0426 2.6062 1.7141 4.7744 1.7141zm16.954 14.853-7.2508-2.9205 0.83487 2.3297c-0.04209 2.4691-4.8351 4.4365-10.538 4.4365-5.702 0-10.496-1.9675-10.537-4.4365l0.8341-2.3297-7.2501 2.9205c-2.0327 0.81904-2.1177 2.3359-0.18922 3.3696l13.636 7.3119c1.9285 1.0337 5.0849 1.0337 7.0134 0l13.636-7.3119c1.9288-1.0337 1.8435-2.5506-0.18922-3.3696z" opacity=".15" stroke-width="6.0561"/>
 <path d="m31.942 35.636c4.6149 0 8.478-1.5682 8.7121-3.6152-0.6862-1.925-1.4346-4.0241-2.1698-6.0874-0.5105 1.4716-3.3298 2.5092-6.5419 2.5092-3.2113 0-6.0306-1.038-6.5419-2.5089-0.73524 2.0628-1.4828 4.1616-2.169 6.087 0.23324 2.047 4.0956 3.6152 8.7105 3.6152zm0-12.946c2.169 0 4.1844-0.67152 4.774-1.7141-0.81286-2.2833-1.5114-4.2423-1.9528-5.4784-0.29309-0.82367-1.6222-1.2515-2.8213-1.2515-1.199 0-2.5282 0.42786-2.8216 1.2515-0.4406 1.2361-1.1388 3.195-1.9528 5.4784 0.59005 1.0426 2.6062 1.7141 4.7744 1.7141zm16.954 14.853-7.2508-2.9205 0.83487 2.3297c-0.04209 2.4691-4.8351 4.4365-10.538 4.4365-5.702 0-10.496-1.9675-10.537-4.4365l0.8341-2.3297-7.2501 2.9205c-2.0327 0.81904-2.1177 2.3359-0.18922 3.3696l13.636 7.3119c1.9285 1.0337 5.0849 1.0337 7.0134 0l13.636-7.3119c1.9288-1.0337 1.8435-2.5506-0.18922-3.3696z" fill="#fff" stroke-width="6.0561"/>
</svg>
