<svg width="64" height="64" version="1.1" xmlns="http://www.w3.org/2000/svg" xmlns:xlink="http://www.w3.org/1999/xlink">
 <defs>
  <filter id="e" x="-.012" y="-.012" width="1.024" height="1.024" color-interpolation-filters="sRGB">
   <feGaussianBlur stdDeviation="0.72000001"/>
  </filter>
  <linearGradient id="c" x1="104" x2="200" y1="44" y2="268" gradientTransform="matrix(.26316 0 0 .26316 -8.0001 -9.0517)" gradientUnits="userSpaceOnUse">
   <stop stop-color="#325fd1" offset="0"/>
   <stop stop-color="#6e98ff" offset="1"/>
  </linearGradient>
  <linearGradient id="a" x1="152" x2="152" y1="236" y2="76" gradientTransform="translate(-13.153,-113.86)" gradientUnits="userSpaceOnUse">
   <stop stop-opacity="0" offset="0"/>
   <stop offset=".51494"/>
   <stop stop-opacity="0" offset="1"/>
  </linearGradient>
 </defs>
 <g stroke-width=".26316">
  <circle cx="32.001" cy="32" r="30" enable-background="new" opacity=".1"/>
  <circle cx="32.001" cy="32" r="29.474" enable-background="new" fill="url(#c)"/>
  <path d="m32.001 2.5263a29.474 29.474 0 0 0-11.735 2.4754l2.7879 2.7879v3.3003l3.6842 4.0682h2.1053v-2.1053l3.1579-3.1579v-2.1053l2.1053-2.1053v-3.0527a29.474 29.474 0 0 0-2.1053-0.10537zm-17.111 5.5208a29.474 29.474 0 0 0-12.363 23.953h3.1579l5.2632 5.2632v-6.3158l3.1579-3.1579h2.1053l3.1579-3.1579h3.1579l-1.579-1.579 3.1579-3.6842-3.1579-3.1579h-4.7369v4.2106h-2.1053l-2.1053-2.1053v-2.1053l3.1579-3.1579h2.6316v-2.1053zm30.795 1.8478-3.1579 3.1579v2.6316h3.1579v-1.579h2.1053v2.1053l-1.0526 1.0526-4.2106 0.07144-1.579 1.5075h-2.1053v2.1053l-1.579 1.579v3.1579h3.1579l2.1053-2.1053h2.1053v1.0526l2.1053 2.1053h1.0526v-1.0526l-2.1053-2.1053h2.1053l2.1053 2.1053h2.6316l-1.579-1.579 1.579-1.579h1.579l1.579 1.579h-1.579l-1.579 1.579 1.5502 1.5502 0.02878 1.6078h-2.1053l6.3158 6.3158h1.0526l2.0498-2.0498a29.474 29.474 0 0 0 0.05551-1.1081 29.474 29.474 0 0 0-0.03855-1.0912l-1.0141-1.0141h0.97606a29.474 29.474 0 0 0-9.9398-20zm6.3158 18.948h-6.3158l-1.0526-1.0526h-6.3158l-3.6842 3.6842v5.2632l2.6316 2.6316h3.6842l1.579 1.579v1.579l1.0526 1.0526v6.3158l3.9971 4.225 6.6001-6.6006-0.07093-6.0456 5.2632-5.2632h-2.1053l-5.2632-5.2632zm-20.526-14.737v1.579h3.1579l-1.579-1.579zm9.4738 0.52632-1.579 1.579v1.579h1.579zm-16.316 5.7895-1.579 1.579h1.579l0.52632 0.52632h0.52632l0.52632-0.52632zm-8.9474 11.053-1.579 1.579h3.1579v-1.579zm-1.579 4.7369-2.1053 2.1053v5.2632l4.225 3.7021-0.01439 4.719-1.579 1.579v2.1947a29.474 29.474 0 0 0 3.2195 2.0806l5.2016-4.8016v-2.1053l3.1579-3.1579v-1.579l1.579-1.579v-4.2106l-2.1053-2.1053h-4.2106l-2.1053-2.1053zm43.685 7.3685-2.1053 1.9629v3.3003h0.48932a29.474 29.474 0 0 0 1.616-2.5879z" color="#000000" fill="#fff" opacity=".24"/>
 </g>
 <path transform="matrix(.26316 0 0 .26316 -4.5388 21.438)" d="m210.85-29.864-59.043 34.184a40 40 0 0 0-41.242 9.5313 40 40 0 0 0-9.5156 41.215l-34.199 59.07 59.043-34.184a40 40 0 0 0 41.242-9.5312 40 40 0 0 0 9.5156-41.215z" color="#000000" fill="url(#a)" filter="url(#e)" opacity=".1"/>
 <g stroke-width=".26316">
  <path d="m26.948 26.948 24-13.895-13.895 24z" color="#000000" fill="#e93549"/>
  <path d="m26.948 26.948-13.895 24 24-13.895z" color="#000000" fill="#dfdfdf"/>
  <path d="m50.948 13.053-24 13.895-13.895 24 0.88406-0.51192 36.499-36.499z" color="#000000" fill="#fff" opacity=".2"/>
  <circle transform="rotate(45)" cx="45.797" cy=".54218" r="10.526" color="#000000" opacity=".15"/>
  <circle transform="rotate(45)" cx="45.255" cy="-.00019732" r="10.526" color="#000000" fill="#f2f2f2"/>
  <path d="m32.154 21.475a10.526 10.526 0 0 0-7.5972 3.0819 10.526 10.526 0 0 0-3.0695 7.629 10.526 10.526 0 0 1 3.0695-7.1027 10.526 10.526 0 0 1 14.887 0 10.526 10.526 0 0 1 3.0695 7.258 10.526 10.526 0 0 0-3.0695-7.7843 10.526 10.526 0 0 0-7.2898-3.0819z" color="#000000" fill="#fff"/>
  <path d="m32.001 61.475a29.474 29.474 0 0 1-29.474-29.474 29.474 29.474 0 0 1 0.010795-0.30787 29.474 29.474 0 0 0 29.463 29.255 29.474 29.474 0 0 0 29.463-29.166 29.474 29.474 0 0 1 0.01079 0.21844 29.474 29.474 0 0 1-29.474 29.474z" enable-background="new" opacity=".2"/>
 </g>
</svg>
