<?xml version="1.0" encoding="UTF-8"?>
<!-- Created with Inkscape (http://www.inkscape.org/) -->
<svg width="64" height="64" version="1.1" viewBox="0 0 16.933 16.933" xmlns="http://www.w3.org/2000/svg" xmlns:cc="http://creativecommons.org/ns#" xmlns:dc="http://purl.org/dc/elements/1.1/" xmlns:rdf="http://www.w3.org/1999/02/22-rdf-syntax-ns#">
 <defs>
  <filter id="filter2761" x="-.024" y="-.024" width="1.048" height="1.048" color-interpolation-filters="sRGB">
   <feGaussianBlur stdDeviation="0.14552168"/>
  </filter>
  <linearGradient id="linearGradient4673" x1="1.2573" x2="15.644" y1="15.429" y2="1.1082" gradientUnits="userSpaceOnUse">
   <stop stop-color="#ff8228" offset="0"/>
   <stop stop-color="#ff5a1e" offset=".47728"/>
   <stop stop-color="#ff8c55" offset="1"/>
  </linearGradient>
 </defs>
 <metadata>
  <rdf:RDF>
   <cc:Work rdf:about="">
    <dc:format>image/svg+xml</dc:format>
    <dc:type rdf:resource="http://purl.org/dc/dcmitype/StillImage"/>
    <dc:title/>
   </cc:Work>
  </rdf:RDF>
 </metadata>
 <path d="m10.709 1.05c4.405 0 5.0345 0.67282 5.0345 5.388v3.7761c0 4.7152-0.62954 5.388-5.0345 5.388h-4.4832c-4.405 0-5.0346-0.6728-5.0346-5.388v-3.7761c0-4.7152 0.62954-5.388 5.0346-5.388z" enable-background="new" fill="#141414" filter="url(#filter2761)" opacity=".3"/>
 <path d="m10.709 0.97579c4.405 0 5.0345 0.67282 5.0345 5.388v3.7761c0 4.7152-0.62954 5.388-5.0345 5.388h-4.4832c-4.405 0-5.0346-0.6728-5.0346-5.388v-3.7761c0-4.7152 0.62954-5.388 5.0346-5.388z" enable-background="new" fill="url(#linearGradient4673)"/>
 <path d="m7.6736 4.2834c-0.21986 0-0.39687 0.177-0.39687 0.39687v3.1749c0 0.21986 0.177 0.39687 0.39687 0.39687s0.39687-0.177 0.39687-0.39687v-2.7781h1.3229a1.852 1.852 0 0 1 1.852 1.852 1.852 1.852 0 0 1-1.852 1.852h-2.9104v0.0067a1.7198 1.7198 0 0 0-1.5875 1.713 1.7198 1.7198 0 0 0 1.7198 1.7198h1.0583c0.21986 0 0.39687-0.177 0.39687-0.39687v-1.3229c0-0.21986-0.177-0.39687-0.39687-0.39687s-0.39687 0.177-0.39687 0.39687v0.92602h-0.66144a0.92602 0.92602 0 0 1-0.92602-0.92602 0.92602 0.92602 0 0 1 0.92602-0.92602h2.7781a2.6458 2.6458 0 0 0 2.6458-2.6458 2.6458 2.6458 0 0 0-2.6458-2.6458z" fill="#fff" fill-rule="evenodd" style="paint-order:stroke fill markers"/>
</svg>
