<?xml version="1.0" encoding="UTF-8"?>
<!-- Created with Inkscape (http://www.inkscape.org/) -->
<svg width="64" height="64" version="1.1" viewBox="0 0 16.933 16.933" xmlns="http://www.w3.org/2000/svg" xmlns:cc="http://creativecommons.org/ns#" xmlns:dc="http://purl.org/dc/elements/1.1/" xmlns:rdf="http://www.w3.org/1999/02/22-rdf-syntax-ns#">
 <defs>
  <filter id="filter2761" x="-.024" y="-.024" width="1.048" height="1.048" color-interpolation-filters="sRGB">
   <feGaussianBlur stdDeviation="0.14552168"/>
  </filter>
  <linearGradient id="linearGradient4673" x1="2.2495" x2="15.644" y1="14.536" y2="1.1082" gradientUnits="userSpaceOnUse">
   <stop stop-color="#ff7d50" offset="0"/>
   <stop stop-color="#fa4b5a" offset=".47728"/>
   <stop stop-color="#ff509b" offset="1"/>
  </linearGradient>
 </defs>
 <metadata>
  <rdf:RDF>
   <cc:Work rdf:about="">
    <dc:format>image/svg+xml</dc:format>
    <dc:type rdf:resource="http://purl.org/dc/dcmitype/StillImage"/>
    <dc:title/>
   </cc:Work>
  </rdf:RDF>
 </metadata>
 <path d="m10.709 1.05c4.405 0 5.0345 0.67282 5.0345 5.388v3.7761c0 4.7152-0.62954 5.388-5.0345 5.388h-4.4832c-4.405 0-5.0346-0.6728-5.0346-5.388v-3.7761c0-4.7152 0.62954-5.388 5.0346-5.388z" enable-background="new" fill="#141414" filter="url(#filter2761)" opacity=".3"/>
 <path d="m10.709 0.97579c4.405 0 5.0345 0.67282 5.0345 5.388v3.7761c0 4.7152-0.62954 5.388-5.0345 5.388h-4.4832c-4.405 0-5.0346-0.6728-5.0346-5.388v-3.7761c0-4.7152 0.62954-5.388 5.0346-5.388z" enable-background="new" fill="url(#linearGradient4673)"/>
 <path d="m7.6726 7.6507 0.62971-1.3194-0.57068-1.2016s-0.12722-0.3575-0.54068-0.3575h-3.0506s-0.56454 0.0553-0.46382 0.56423l2.8306 6.0403s0.41876 0.79247 0.98596 0l2.4734-5.2759s0.09746-0.21553 0.19866-0.21553h1.415s0.14243-0.0112 0.07872 0.12745c-0.06372 0.13869-1.6661 3.5786-1.6661 3.5786s-0.09558 0.24364-0.20241 0l-0.55287-1.2135-0.60909 1.3081 0.69083 1.5052s0.58044 1.2165 1.1476 0c0.56719-1.2165 2.7379-5.8071 2.7379-5.8071s0.30215-0.61225-0.39226-0.61225h-3.262s-0.20616 8e-3 -0.3261 0.25878c-0.11994 0.25114-2.1356 4.5954-2.1356 4.5954s-0.07497 0.15087-0.15462 0-1.6986-3.6012-1.6986-3.6012-0.08018-0.14776 0.13384-0.14776h1.3473s0.12182-0.0218 0.22302 0.2012c0.1012 0.22303 0.73278 1.5724 0.73278 1.5724z" fill="#fff"/>
</svg>
