<?xml version="1.0" encoding="UTF-8"?>
<!-- Created with Inkscape (http://www.inkscape.org/) -->
<svg width="64" height="64" version="1.1" viewBox="0 0 16.933 16.933" xmlns="http://www.w3.org/2000/svg" xmlns:cc="http://creativecommons.org/ns#" xmlns:dc="http://purl.org/dc/elements/1.1/" xmlns:rdf="http://www.w3.org/1999/02/22-rdf-syntax-ns#" xmlns:xlink="http://www.w3.org/1999/xlink">
 <defs>
  <filter id="filter2761" x="-.024" y="-.024" width="1.048" height="1.048" color-interpolation-filters="sRGB">
   <feGaussianBlur stdDeviation="0.14552168"/>
  </filter>
  <linearGradient id="linearGradient2645-3" x1="15.752" x2="1.3927" y1="281.24" y2="295.6" gradientTransform="translate(-.13126 -280.07)" gradientUnits="userSpaceOnUse">
   <stop stop-color="#0a82f0" offset="0"/>
   <stop stop-color="#3250e6" offset="1"/>
  </linearGradient>
  <linearGradient id="linearGradient874" x1="4.2341" x2="12.701" y1="8.326" y2="8.326" gradientUnits="userSpaceOnUse">
   <stop stop-color="#f9f9f9" offset="0"/>
   <stop stop-color="#ccf2f6" offset="1"/>
  </linearGradient>
 </defs>
 <metadata>
  <rdf:RDF>
   <cc:Work rdf:about="">
    <dc:format>image/svg+xml</dc:format>
    <dc:type rdf:resource="http://purl.org/dc/dcmitype/StillImage"/>
    <dc:title/>
   </cc:Work>
  </rdf:RDF>
 </metadata>
 <path d="m10.709 1.05c4.405 0 5.0345 0.67282 5.0345 5.388v3.7761c0 4.7152-0.62954 5.388-5.0345 5.388h-4.4832c-4.405 0-5.0346-0.6728-5.0346-5.388v-3.7761c0-4.7152 0.62954-5.388 5.0346-5.388z" enable-background="new" fill="#141414" filter="url(#filter2761)" opacity=".3"/>
 <path d="m10.709 1.05c4.405 0 5.0345 0.67282 5.0345 5.388v3.7761c0 4.7152-0.62954 5.388-5.0345 5.388h-4.4832c-4.405 0-5.0346-0.6728-5.0346-5.388v-3.7761c0-4.7152 0.62954-5.388 5.0346-5.388z" enable-background="new" fill="url(#linearGradient2645-3)"/>
 <path d="m4.7046 5.5074v5.644l3.7627-3.292 3.7627 3.292v-5.644" fill="none" stroke="url(#linearGradient874)" stroke-linecap="round" stroke-linejoin="round" stroke-width=".941"/>
</svg>
