<svg version="1.1" viewBox="0 0 22 22" xmlns="http://www.w3.org/2000/svg">
 <style id="current-color-scheme" type="text/css">.ColorScheme-Highlight { color:#3daee9; }
   .ColorScheme-Text { color:#232629; }</style>
 <g transform="translate(-20.788 -17.619)">
  <rect transform="matrix(0,-1,-1,0,0,0)" x="-36.619" y="-39.288" width="15" height="15" rx="7.5" ry="7.5" enable-background="new" opacity=".2"/>
  <rect transform="matrix(0,-1,-1,0,0,0)" x="-35.619" y="-39.288" width="15" height="15" rx="7.5" ry="7.5" enable-background="new" fill="#618bf5"/>
  <path d="m33.428 23.427c-0.30484 0-0.59223 0.0566-0.85615 0.17064l-5.3e-4 1.8e-4 -3.4e-4 1.8e-4c-0.26246 0.10835-0.49342 0.26689-0.68656 0.47213l-3.3e-4 3.3e-4 -1e-3 2e-3 -5.3e-4 5.2e-4c-0.18807 0.20633-0.33391 0.45483-0.4372 0.73955v2e-4l-2e-4 3.5e-4c-0.10453 0.28327-0.15586 0.59502-0.15586 0.93139 0 0.34139 0.0512 0.65534 0.15586 0.93904 0.10347 0.28026 0.24948 0.5261 0.43737 0.73226l5.3e-4 5.2e-4 0.00135 0.00135 1.9e-4 2e-4c0.19307 0.20525 0.42352 0.36639 0.68552 0.47995l5.2e-4 2e-4 5.3e-4 5.2e-4 5.3e-4 3.5e-4 5.2e-4 1.9e-4c0.26384 0.10864 0.55086 0.1623 0.85545 0.1623 0.3046 0 0.59179-0.0537 0.85564-0.1623l1e-3 -5.2e-4 1e-3 -5.3e-4c0.26237-0.11372 0.49079-0.27581 0.67908-0.48221l5.4e-4 -5.4e-4c0.19303-0.20593 0.34223-0.45192 0.44572-0.73226 0.10472-0.28368 0.15551-0.59763 0.15551-0.93904 0-0.33587-0.051-0.6471-0.15517-0.93l-5.3e-4 -2e-3c-0.10332-0.28477-0.25217-0.53329-0.44537-0.73939l-5.3e-4 -5.3e-4c-0.1884-0.20652-0.41754-0.366-0.68047-0.47455l-5.2e-4 -1.8e-4 -3.4e-4 -1.9e-4c-0.26342-0.11378-0.55041-0.17043-0.85459-0.17061zm-1e-3 0.36353h1e-3c0.26105 0 0.49731 0.0476 0.714 0.14144l5.3e-4 1.9e-4 5.2e-4 3.6e-4 5.3e-4 3.3e-4 5.3e-4 2.1e-4c0.21716 0.0894 0.39958 0.21667 0.55274 0.38471l5.3e-4 5.3e-4 1e-3 2e-3c0.15809 0.16835 0.28145 0.37215 0.37013 0.61721l1e-3 4e-3 5.3e-4 3e-3v3.5e-4c0.0866 0.2368 0.13136 0.50224 0.13136 0.79968 0 0.30532-0.0455 0.57521-0.13328 0.81306-0.0885 0.23987-0.21175 0.44179-0.37047 0.61079l-5.3e-4 5.2e-4 -1e-3 1e-3 -5.2e-4 5.3e-4c-0.15313 0.16799-0.33593 0.29781-0.5531 0.39236l-5.3e-4 3.6e-4 -5.2e-4 2e-4c-0.21697 0.0891-0.45392 0.13449-0.71558 0.13449-0.26165 0-0.4986-0.0454-0.71557-0.13449l-5.2e-4 -2e-4 -5.3e-4 -3.6e-4c-0.21713-0.0945-0.40292-0.22477-0.56161-0.39323l-3.5e-4 -3.5e-4 -3.4e-4 -3.5e-4c-0.15363-0.16896-0.27492-0.37135-0.36369-0.61183-0.0878-0.23785-0.13328-0.50773-0.13328-0.81306 0-0.29803 0.0449-0.5641 0.13189-0.80124l5.3e-4 -3e-3 3.4e-4 -5.2e-4 3.4e-4 -1e-3c0.0889-0.24569 0.21029-0.44993 0.36334-0.61826l3.5e-4 -3.4e-4 3.4e-4 -3.4e-4c0.15876-0.16852 0.34401-0.29621 0.56109-0.3856l1e-3 -3.4e-4 2e-4 -2e-4 1e-3 -3.5e-4c0.21644-0.0938 0.45246-0.14136 0.71314-0.14145zm-4.4171 0.70484c-0.23088 0-0.45014 0.0432-0.65128 0.12997l-3.4e-4 2.1e-4 -3.3e-4 2e-4c-0.20001 0.0826-0.37702 0.20396-0.52426 0.36056l-5.2e-4 5.3e-4 -6.6e-4 7e-4 -5.2e-4 5.2e-4c-0.14371 0.15762-0.25474 0.3473-0.33295 0.56318l-3.3e-4 5.2e-4c-6e-5 7e-5 -6e-5 3.4e-4 -2e-4 3.5e-4 -0.079 0.21477-0.11747 0.45018-0.11747 0.70289 0 0.25701 0.0386 0.4949 0.11816 0.71054 0.0784 0.21219 0.18952 0.39961 0.33277 0.55675l0.00153 0.00153c0.14711 0.15646 0.32341 0.27952 0.52287 0.36595l3.4e-4 2e-4 3e-3 1e-3 1.9e-4 1.9e-4c0.20075 0.0825 0.41927 0.12304 0.64954 0.12304 0.23035 0 0.44858-0.0405 0.64938-0.12304 6e-5 -5e-5 3.4e-4 -5e-5 3.4e-4 -1.9e-4l2e-3 -1e-3 1e-3 -5.3e-4c0.19958-0.0865 0.37438-0.21016 0.518-0.36752l3.4e-4 -3.5e-4 2e-4 -3.5e-4c0.147-0.15691 0.26065-0.34432 0.33902-0.55658 0.0796-0.21564 0.11798-0.45353 0.11798-0.71053 0-0.25291-0.0385-0.48851-0.11763-0.70341l-2.1e-4 -5.3e-4c-0.0783-0.21619-0.19181-0.406-0.33954-0.56353l-3.4e-4 -3.4e-4 -2e-4 -3.6e-4c-0.14366-0.15725-0.31908-0.27901-0.51904-0.3616l-6.8e-4 -4e-4c-0.20115-0.0868-0.42021-0.13002-0.65109-0.13002zm-0.0106 0.36369h0.0106c0.18707 0 0.35491 0.0339 0.50879 0.10062l5.2e-4 1.9e-4 1e-3 3.5e-4 1e-3 5.2e-4c0.15412 0.0634 0.28246 0.15327 0.39081 0.27195l5.3e-4 5.3e-4 5.2e-4 3.5e-4 1e-3 1e-3c0.11234 0.11948 0.20012 0.26464 0.26378 0.4405l5.2e-4 3e-3c0.0625 0.16981 0.095 0.3613 0.095 0.57743 0 0.22091-0.0327 0.41475-0.0954 0.58455-0.0635 0.17203-0.15158 0.31557-0.26447 0.43564l-5.3e-4 5.2e-4 -5.2e-4 3.5e-4 -3.4e-4 3.5e-4 -5.3e-4 5.3e-4c-0.10866 0.11919-0.23823 0.21088-0.39288 0.2782l-5.3e-4 3.4e-4 -5.2e-4 2e-4c-0.15382 0.063-0.32198 0.0956-0.50932 0.0956-0.18738 0-0.35575-0.0325-0.50965-0.0956l-5.3e-4 -2e-4 -5.2e-4 -3.4e-4c-0.15453-0.0673-0.28606-0.15942-0.3988-0.2789l-3.3e-4 -3.5e-4 -3.4e-4 -3.5e-4c-0.10905-0.11993-0.19587-0.26353-0.2596-0.43615-0.0627-0.16993-0.0954-0.36382-0.0954-0.58473 0-0.21641 0.0325-0.40816 0.0952-0.57812 7e-5 -3.4e-4 7e-5 -5.3e-4 2e-4 -1e-3l2.1e-4 -2.1e-4 1.9e-4 -5.3e-4c0.0639-0.17646 0.15076-0.32168 0.25926-0.44102l3.4e-4 -3.4e-4 3.2e-4 -3.6e-4c0.11256-0.11924 0.24324-0.20969 0.39742-0.27316l1e-3 -3.5e-4 1e-3 -5.2e-4c0.14988-0.065 0.31399-0.0975 0.49524-0.0992zm4.4793 3.9877c-1.6032 0-2.5805 0.14619-3.1912 0.5988-0.30437 0.22556-0.50446 0.53144-0.61949 0.89751-0.11069 0.3523-0.14724 0.79405-0.15118 1.2736l0.3637 1e-3c4e-3 -0.45945 0.0411-0.86828 0.13449-1.1654 0.0971-0.30917 0.24723-0.53524 0.48916-0.71453 0.48653-0.36056 1.3954-0.52738 2.9746-0.52738s2.4879 0.16689 2.974 0.52738c0.24168 0.17924 0.39155 0.40523 0.48828 0.71436 0.0929 0.29706 0.12936 0.70581 0.13276 1.1652l0.3637-3.4e-4c-3e-3 -0.47961-0.0391-0.92113-0.14927-1.2735-0.11456-0.36609-0.31476-0.67226-0.61897-0.89785-0.61041-0.4527-1.5873-0.59881-3.1905-0.59881zm-4.5768-0.0762c-1.1365 3e-3 -1.8079 0.11416-2.2633 0.45391-0.23044 0.17189-0.38355 0.40906-0.46951 0.68777-0.0863 0.27972-0.11331 0.60242-0.11416 0.9837v0.54368h0.36352v-0.54318c5.3e-4 -0.36336 0.0291-0.65362 0.098-0.877 0.0685-0.22217 0.17217-0.37867 0.33937-0.50341 0.33238-0.24794 0.93531-0.37734 2.0461-0.38162z" color="#000000" color-rendering="auto" dominant-baseline="auto" fill="#fff" image-rendering="auto" shape-rendering="auto" solid-color="#000000" stroke="#fff" stroke-width=".1" style="font-feature-settings:normal;font-variant-alternates:normal;font-variant-caps:normal;font-variant-ligatures:normal;font-variant-numeric:normal;font-variant-position:normal;isolation:auto;mix-blend-mode:normal;shape-padding:0;text-decoration-color:#000000;text-decoration-line:none;text-decoration-style:solid;text-indent:0;text-orientation:mixed;text-transform:none;white-space:normal"/>
 </g>
</svg>
