<svg width="64" height="64" version="1.1" viewBox="0 0 16.933 16.933" xmlns="http://www.w3.org/2000/svg" xmlns:xlink="http://www.w3.org/1999/xlink">
 <defs>
  <linearGradient id="b" x1="192" x2="192" y1="68" y2="212" gradientTransform="matrix(.065559 0 0 .065559 -1.4983 -1.8263)" gradientUnits="userSpaceOnUse">
   <stop stop-color="#808080" offset="0"/>
   <stop stop-color="#999" offset="1"/>
  </linearGradient>
  <linearGradient id="a" x1="529.66" x2="-35.31" y1="295.64" y2="295.64" gradientTransform="matrix(0 -.029707 -.029706 0 16.2 15.219)" gradientUnits="userSpaceOnUse">
   <stop stop-color="#999" offset="0"/>
   <stop stop-color="#b7b7b7" offset=".61328"/>
   <stop stop-color="#dbdbdb" offset="1"/>
  </linearGradient>
 </defs>
 <g>
  <rect x="5.2916" y="13.229" width="6.3499" height="2.6458" enable-background="new" fill="#c0bfbc"/>
  <rect x="5.2916" y="12.964" width="6.3499" height="2.6458" fill="#f6f5f4"/>
  <rect transform="scale(-1,1)" x="-7.6728" y="14.023" width="1.5875" height=".79373" fill="#9a9996"/>
  <path d="m10.635 1.0583c2.314 0 2.563 0.23768 2.5517 2.5564v3.8684 3.2128c0.01134 2.3187-0.23764 2.5564-2.5517 2.5564h-4.3372c-2.314 0-2.5517-0.23765-2.5517-2.5564v-3.2128-3.8684c0-2.3187 0.23765-2.5564 2.5517-2.5564z" color="#000000" fill="url(#a)"/>
  <path d="m8.4669 2.8942-0.60565 1.0487h0.43202v4.9669l-1.1027-1.0436c-0.0712-0.088825-0.12118-0.20517-0.12395-0.32472 0-0.48363 8e-6 -0.77088-2.73e-4 -0.8766 0.20417-0.071659 0.35136-0.26414 0.35136-0.49298 0-0.28948-0.23488-0.52422-0.52447-0.52422-0.28972 0-0.52447 0.23471-0.52447 0.52422 0 0.22883 0.14736 0.42132 0.35136 0.49298l-2.72e-4 0.86635c0 0.23478 0.1289 0.48083 0.27991 0.63741v2.726e-4c0.0037 0.00332 1.1698 1.1073 1.1698 1.1073 0.07109 0.088636 0.12084 0.20474 0.12369 0.32421v0.92167c-0.2848 0.0781-0.48222 0.33697-0.48221 0.63228 0 0.36207 0.29352 0.65559 0.65559 0.65559 0.36207 0 0.65559-0.29352 0.65559-0.65559-2.73e-4 -0.29527-0.19791-0.55392-0.48273-0.63178v-0.91169c0-0.00151 6.6e-5 -0.00306 0-0.00462v-1.0553c3e-3 -0.11924 0.05277-0.2354 0.12395-0.32395 0 0 1.166-1.1037 1.1698-1.1071 0.15099-0.15658 0.27991-0.40284 0.27991-0.63767l-2.72e-4 -0.83486h0.35161v-1.0489h-1.0489v1.0489h0.3511s-2.72e-4 0.21991-2.72e-4 0.8451c-0.0027 0.11957-0.05275 0.23594-0.12395 0.32472l-1.103 1.0438v-3.9182h0.43279z" enable-background="new" fill="#fff" opacity=".2"/>
  <path d="m8.4669 2.7631-0.60565 1.0487h0.43202v4.9669l-1.1027-1.0436c-0.0712-0.088825-0.12118-0.20517-0.12395-0.32472 0-0.48363 8e-6 -0.77088-2.73e-4 -0.8766 0.20417-0.071659 0.35136-0.26414 0.35136-0.49297 0-0.28948-0.23488-0.52422-0.52447-0.52422-0.28972 0-0.52447 0.23471-0.52447 0.52422 0 0.22883 0.14736 0.42132 0.35136 0.49297l-2.72e-4 0.86635c0 0.23478 0.1289 0.48083 0.27991 0.63741v2.726e-4c0.0037 0.00332 1.1698 1.1073 1.1698 1.1073 0.07109 0.088636 0.12084 0.20474 0.12369 0.32421v0.92167c-0.2848 0.0781-0.48222 0.33697-0.48221 0.63228 0 0.36207 0.29352 0.65559 0.65559 0.65559 0.36207 0 0.65559-0.29352 0.65559-0.65559-2.73e-4 -0.29527-0.19791-0.55392-0.48273-0.63178v-0.91168c0-0.00151 6.6e-5 -0.00306 0-0.00462v-1.0553c3e-3 -0.11924 0.05277-0.2354 0.12395-0.32395 0 0 1.166-1.1037 1.1698-1.1071 0.15099-0.15658 0.27991-0.40284 0.27991-0.63767l-2.72e-4 -0.83486h0.35161v-1.0489h-1.0489v1.0489h0.3511s-2.72e-4 0.21991-2.72e-4 0.8451c-0.0027 0.11957-0.05275 0.23594-0.12395 0.32472l-1.103 1.0438v-3.9182h0.43279z" enable-background="new" fill="url(#b)"/>
  <path d="m3.7464 10.565v0.13112c-0.01134 2.3187 0.23766 2.5564 2.5517 2.5564h4.3371c2.314 0 2.4915-0.23847 2.5517-2.5564v-0.13112c-0.0602 2.318-0.23766 2.5564-2.5517 2.5564h-4.3371c-2.314 0-2.563-0.23772-2.5517-2.5564z" color="#000000" opacity=".2"/>
  <rect transform="scale(-1,1)" x="-10.848" y="14.023" width="1.5875" height=".79373" fill="#9a9996"/>
 </g>
</svg>
