<?xml version="1.0" encoding="UTF-8"?>
<svg width="64" height="64" version="1.1" viewBox="0 0 16.933 16.933" xmlns="http://www.w3.org/2000/svg" xmlns:cc="http://creativecommons.org/ns#" xmlns:dc="http://purl.org/dc/elements/1.1/" xmlns:rdf="http://www.w3.org/1999/02/22-rdf-syntax-ns#">
 <metadata>
  <rdf:RDF>
   <cc:Work rdf:about="">
    <dc:format>image/svg+xml</dc:format>
    <dc:type rdf:resource="http://purl.org/dc/dcmitype/StillImage"/>
    <dc:title/>
   </cc:Work>
  </rdf:RDF>
 </metadata>
 <defs>
  <filter id="filter2761" x="-.024" y="-.024" width="1.048" height="1.048" color-interpolation-filters="sRGB">
   <feGaussianBlur stdDeviation="0.14552168"/>
  </filter>
  <linearGradient id="linearGradient1024" x1="1.3315" x2="15.65" y1="15.576" y2="1.17" gradientTransform="translate(.084079 .18792)" gradientUnits="userSpaceOnUse">
   <stop stop-color="#3c4b55" offset="0"/>
   <stop stop-color="#324146" offset="1"/>
  </linearGradient>
 </defs>
 <path d="m10.793 1.2379c4.405 0 5.0345 0.67282 5.0345 5.388v3.7761c0 4.7152-0.62954 5.388-5.0345 5.388h-4.4832c-4.405 0-5.0346-0.6728-5.0346-5.388v-3.7761c0-4.7152 0.62954-5.388 5.0346-5.388z" enable-background="new" fill="#141414" filter="url(#filter2761)" opacity=".3"/>
 <path d="m10.793 1.2379c4.405 0 5.0345 0.67282 5.0345 5.388v3.7761c0 4.7152-0.62954 5.388-5.0345 5.388h-4.4832c-4.405 0-5.0346-0.6728-5.0346-5.388v-3.7761c0-4.7152 0.62954-5.388 5.0346-5.388z" enable-background="new" fill="url(#linearGradient1024)"/>
 <g transform="translate(-.20215 .33432)" fill="#b2b7bf" stroke-width=".27968">
  <rect x="3.4395" y="2.8656" width=".55937" height=".55937" rx=".41953" ry=".41953"/>
  <rect x="13.508" y="2.8656" width=".55937" height=".55937" rx=".41953" ry=".41953"/>
  <rect x="13.508" y="12.934" width=".55937" height=".55937" rx=".41953" ry=".41953"/>
  <rect x="3.4395" y="12.934" width=".55937" height=".55937" rx=".41953" ry=".41953"/>
 </g>
 <path transform="scale(.26458)" d="m32.32 10.68a21.5 21.5 0 0 0-21.5 21.5 21.5 21.5 0 0 0 21.5 21.5 21.5 21.5 0 0 0 21.5-21.5 21.5 21.5 0 0 0-21.5-21.5zm0 14.5a7 7 0 0 1 0.69922 0.035156 7 7 0 0 1 0.69141 0.10352 7 7 0 0 1 0.67773 0.17383 7 7 0 0 1 0.6582 0.24023 7 7 0 0 1 0.62891 0.30469 7 7 0 0 1 0.59766 0.36524 7 7 0 0 1 0.55664 0.42383 7 7 0 0 1 0.51172 0.47656 7 7 0 0 1 0.46289 0.52539 7 7 0 0 1 0.40625 0.56836 7 7 0 0 1 0.34766 0.60742 7 7 0 0 1 0.28711 0.63867 7 7 0 0 1 0.2207 0.66406 7 7 0 0 1 0.15234 0.68359 7 7 0 0 1 0.083984 0.69336 7 7 0 0 1 0.017578 0.49609 7 7 0 0 1-0.035156 0.69922 7 7 0 0 1-0.10352 0.69141 7 7 0 0 1-0.17383 0.67774 7 7 0 0 1-0.24023 0.65625 7 7 0 0 1-0.30469 0.63086 7 7 0 0 1-0.36524 0.59766 7 7 0 0 1-0.42383 0.55664 7 7 0 0 1-0.47656 0.51172 7 7 0 0 1-0.52539 0.46094 7 7 0 0 1-0.56836 0.4082 7 7 0 0 1-0.60742 0.34766 7 7 0 0 1-0.63867 0.28516 7 7 0 0 1-0.66406 0.2207 7 7 0 0 1-0.68359 0.1543 7 7 0 0 1-0.69336 0.083984 7 7 0 0 1-0.49609 0.017579 7 7 0 0 1-0.69922-0.035157 7 7 0 0 1-0.69141-0.10547 7 7 0 0 1-0.67774-0.17187 7 7 0 0 1-0.65625-0.24024 7 7 0 0 1-0.63086-0.30469 7 7 0 0 1-0.5957-0.36524 7 7 0 0 1-0.55859-0.42383 7 7 0 0 1-0.51172-0.47656 7 7 0 0 1-0.46094-0.52539 7 7 0 0 1-0.4082-0.57031 7 7 0 0 1-0.34766-0.60547 7 7 0 0 1-0.28516-0.63867 7 7 0 0 1-0.2207-0.66406 7 7 0 0 1-0.1543-0.68359 7 7 0 0 1-0.083984-0.69531 7 7 0 0 1-0.017579-0.49414 7 7 0 0 1 0.035157-0.69922 7 7 0 0 1 0.10547-0.69141 7 7 0 0 1 0.17187-0.67773 7 7 0 0 1 0.24024-0.6582 7 7 0 0 1 0.30469-0.62891 7 7 0 0 1 0.36524-0.59766 7 7 0 0 1 0.42383-0.55664 7 7 0 0 1 0.47656-0.51172 7 7 0 0 1 0.52539-0.46289 7 7 0 0 1 0.57031-0.40625 7 7 0 0 1 0.60742-0.34766 7 7 0 0 1 0.63867-0.28711 7 7 0 0 1 0.66211-0.2207 7 7 0 0 1 0.68359-0.15234 7 7 0 0 1 0.69531-0.083984 7 7 0 0 1 0.49414-0.017578z" fill="#fff669" stroke="#272a2f" stroke-opacity=".784"/>
</svg>
