<?xml version="1.0" encoding="UTF-8"?>
<svg width="64" height="64" version="1.1" viewBox="0 0 16.933 16.933" xmlns="http://www.w3.org/2000/svg" xmlns:cc="http://creativecommons.org/ns#" xmlns:dc="http://purl.org/dc/elements/1.1/" xmlns:rdf="http://www.w3.org/1999/02/22-rdf-syntax-ns#" xmlns:xlink="http://www.w3.org/1999/xlink">
 <metadata>
  <rdf:RDF>
   <cc:Work rdf:about="">
    <dc:format>image/svg+xml</dc:format>
    <dc:type rdf:resource="http://purl.org/dc/dcmitype/StillImage"/>
    <dc:title/>
   </cc:Work>
  </rdf:RDF>
 </metadata>
 <defs>
  <filter id="filter2761" x="-.024" y="-.024" width="1.048" height="1.048" color-interpolation-filters="sRGB">
   <feGaussianBlur stdDeviation="0.14552168"/>
  </filter>
  <linearGradient id="linearGradient1024" x1="1.3315" x2="15.65" y1="15.576" y2="1.17" gradientTransform="translate(.084079 .18792)" gradientUnits="userSpaceOnUse">
   <stop stop-color="#3c4b55" offset="0"/>
   <stop stop-color="#324146" offset="1"/>
  </linearGradient>
 </defs>
 <path d="m10.793 1.2379c4.405 0 5.0345 0.67282 5.0345 5.388v3.7761c0 4.7152-0.62954 5.388-5.0345 5.388h-4.4832c-4.405 0-5.0346-0.6728-5.0346-5.388v-3.7761c0-4.7152 0.62954-5.388 5.0346-5.388z" enable-background="new" fill="#141414" filter="url(#filter2761)" opacity=".3"/>
 <path d="m10.793 1.2379c4.405 0 5.0345 0.67282 5.0345 5.388v3.7761c0 4.7152-0.62954 5.388-5.0345 5.388h-4.4832c-4.405 0-5.0346-0.6728-5.0346-5.388v-3.7761c0-4.7152 0.62954-5.388 5.0346-5.388z" enable-background="new" fill="url(#linearGradient1024)"/>
 <g transform="translate(-.20215 .33432)" fill="#b2b7bf" stroke-width=".27968">
  <rect x="3.4395" y="2.8656" width=".55937" height=".55937" rx=".41953" ry=".41953"/>
  <rect x="13.508" y="2.8656" width=".55937" height=".55937" rx=".41953" ry=".41953"/>
  <rect x="13.508" y="12.934" width=".55937" height=".55937" rx=".41953" ry=".41953"/>
  <rect x="3.4395" y="12.934" width=".55937" height=".55937" rx=".41953" ry=".41953"/>
 </g>
 <g transform="matrix(.030718 0 0 .012411 25.062 9.3462)"></g>
 <g transform="matrix(.027926 0 0 .027926 5.4976 -7.6985)"></g>
 <path d="m11.631 5.4092h-2.4691c-0.10896 0-0.1976 0.088644-0.1976 0.1976v3.0974h-3.162c-0.10895 0-0.1976 0.088769-0.1976 0.19785v2.4171c0 0.10896 0.088644 0.1976 0.1976 0.1976l5.8284-0.0015c0.10895 0 0.19772-0.08877 0.19772-0.19785l2.5e-4 -5.7107c1.26e-4 -0.10885-0.088518-0.19749-0.19772-0.19749zm-3.0798 4.859c0 0.12801-0.10369 0.2317-0.2317 0.2317h-1.2937c-0.00878 0-0.017302-5.22e-4 -0.025828-0.0015v0.01993l0.18556 0.4698c0.00627 0.0158 0.00121 0.03386-0.012291 0.04401-0.00676 0.0051-0.014792 0.0076-0.022691 0.0076-0.00815 0-0.016176-0.0027-0.022949-0.0079l-0.92305-0.70964c-0.00928-0.0072-0.014672-0.01818-0.014672-0.02984 0-0.01178 0.00539-0.02282 0.014672-0.02996l0.92305-0.70963c0.013417-0.010406 0.032094-0.010406 0.04564-2.507e-4 0.013417 0.010279 0.018428 0.028211 0.012291 0.043882l-0.17403 0.44071c0.00475-2.51e-4 0.0094-7.57e-4 0.014294-7.57e-4h1.062v-0.77685c0-0.12801 0.10381-0.2317 0.2317-0.2317 0.12801 0 0.2317 0.10369 0.2317 0.2317v1.0087zm3.513-5.5091h-3.5263c-0.22518 0-0.40774 0.18255-0.40774 0.40774v2.8346h-3.0919c-0.22518 0-0.40774 0.18268-0.40774 0.40786v3.4518c0 0.22518 0.18255 0.40774 0.40774 0.40774h3.5262c0.0078 0 0.014921-0.0019 0.022571-0.0023h3.4767c0.22518 0 0.40786-0.18268 0.40786-0.40786v-3.2362c0-0.00138 3.76e-4 -0.00265 3.76e-4 -0.00389v-3.4518c0-0.22518-0.18268-0.40774-0.40774-0.40774zm-0.06005 6.5584c0 0.206-0.16751 0.37351-0.37338 0.37351h-2.4344c-0.00161 8.84e-4 -0.00853 0.0016-0.015798 0.0016h-3.3782c-0.20587 0-0.37338-0.16751-0.37338-0.37338v-2.417c0-0.206 0.16751-0.37338 0.37338-0.37338h2.9862v-2.922c0-0.20587 0.16751-0.37338 0.37338-0.37338h2.4691c0.206 0 0.37338 0.16751 0.37338 0.37338z" fill="#e6e6e6" stroke-width=".12538"/>
</svg>
