<svg width="64" height="64" version="1.1" viewBox="0 0 16.933 16.933" xmlns="http://www.w3.org/2000/svg" xmlns:xlink="http://www.w3.org/1999/xlink">
 <defs>
  <linearGradient id="a" x1="104" x2="200" y1="44" y2="268" gradientTransform="matrix(.26458 0 0 .26458 -26.458 -37.306)" gradientUnits="userSpaceOnUse">
   <stop stop-color="#cdcdcd" offset="0"/>
   <stop stop-color="#d9d9d9" offset="1"/>
  </linearGradient>
 </defs>
 <g transform="matrix(.26316 0 0 .26316 4.846 7.4221)">
  <circle cx="13.758" cy="3.9687" r="30.162" enable-background="new" opacity=".1"/>
  <circle cx="13.758" cy="3.9687" r="29.633" enable-background="new" fill="url(#a)"/>
  <path d="m13.758-25.664a29.633 29.633 0 0 0-29.633 29.633h29.633zm0 29.633v29.633a29.633 29.633 0 0 0 29.633-29.633z" enable-background="new" fill="#fff" opacity=".2"/>
  <path d="m34.712-16.985a29.633 29.633 0 0 0-41.907 0l20.954 20.954zm-20.954 20.954-20.954 20.954a29.633 29.633 0 0 0 41.907 0z" enable-background="new" opacity=".02"/>
  <path d="m5.6748-24.54a29.633 29.633 0 0 0-0.53806 0.18216 29.633 29.633 0 0 1 1.433-0.38824 29.633 29.633 0 0 0-0.89491 0.20609zm2.3335-0.53752a29.633 29.633 0 0 1 1.4597-0.24241 29.633 29.633 0 0 0-1.4597 0.24241zm-4.27 1.1928a29.633 29.633 0 0 0-1.3856 0.52909 29.633 29.633 0 0 1 1.3856-0.52909zm7.2017-1.6221a29.633 29.633 0 0 1 1.4707-0.09556 29.633 29.633 0 0 0-1.4707 0.09556zm-9.93 2.7608a29.633 29.633 0 0 0-1.3319 0.6677 29.633 29.633 0 0 1 1.3319-0.6677zm12.887-2.8955a29.633 29.633 0 0 1 1.4779 0.05286 29.633 29.633 0 0 0-1.4779-0.05286zm-15.487 4.3007a29.633 29.633 0 0 0-1.2601 0.79774 29.633 29.633 0 0 1 1.2601-0.79774zm18.438-4.1396a29.633 29.633 0 0 1 1.4692 0.20016 29.633 29.633 0 0 0-1.4692-0.20016zm-20.888 5.7987a29.633 29.633 0 0 0-1.1743 0.92026 29.633 29.633 0 0 1 1.1743-0.92026zm23.818-5.3426a29.633 29.633 0 0 1 1.4316 0.34344 29.633 29.633 0 0 0-1.4316-0.34344zm-26.517 7.6178a29.633 29.633 0 0 0-0.33606 0.31313 29.633 29.633 0 0 1 0.33606-0.31313zm-0.4434 0.42963a29.633 29.633 0 0 0-4.7177 6.1287l25.663 14.816zm20.945 20.945 20.945 20.945a29.633 29.633 0 0 0 4.7177-6.1287zm8.8792-28.247a29.633 29.633 0 0 1 1.3931 0.48536 29.633 29.633 0 0 0-1.3931-0.48536zm2.7741 1.0269a29.633 29.633 0 0 1 1.3446 0.62569 29.633 29.633 0 0 0-1.3446-0.62569zm2.6593 1.2995a29.633 29.633 0 0 1 0.48607 0.28865l0.01754-0.03038a29.633 29.633 0 0 0-0.50361-0.25827zm-29.111 51.553-0.01754 0.03038a29.633 29.633 0 0 0 0.50361 0.25827 29.633 29.633 0 0 1-0.48607-0.28865zm1.8008 0.96247a29.633 29.633 0 0 0 1.3446 0.62569 29.633 29.633 0 0 1-1.3446-0.62569zm2.7255 1.1673a29.633 29.633 0 0 0 1.3931 0.48536 29.633 29.633 0 0 1-1.3931-0.48536zm31.11-6.7004a29.633 29.633 0 0 1-0.33606 0.31313 29.633 29.633 0 0 0 0.33606-0.31313zm-28.285 7.5875a29.633 29.633 0 0 0 1.4316 0.34344 29.633 29.633 0 0 1-1.4316-0.34344zm26.424-5.9194a29.633 29.633 0 0 1-1.1743 0.92026 29.633 29.633 0 0 0 1.1743-0.92026zm-23.532 6.5188a29.633 29.633 0 0 0 1.4692 0.20016 29.633 29.633 0 0 1-1.4692-0.20016zm21.167-4.7372a29.633 29.633 0 0 1-1.2601 0.79774 29.633 29.633 0 0 0 1.2601-0.79774zm-18.225 5.0455a29.633 29.633 0 0 0 1.4779 0.05286 29.633 29.633 0 0 1-1.4779-0.05286zm15.696-3.5103a29.633 29.633 0 0 1-1.3319 0.6677 29.633 29.633 0 0 0 1.3319-0.6677zm-12.733 3.524a29.633 29.633 0 0 0 1.4707-0.09556 29.633 29.633 0 0 1-1.4707 0.09556zm10.058-2.2467a29.633 29.633 0 0 1-1.3856 0.52909 29.633 29.633 0 0 0 1.3856-0.52909zm-7.1154 1.9643a29.633 29.633 0 0 0 1.4597-0.24241 29.633 29.633 0 0 1-1.4597 0.24241zm4.3313-0.96208a29.633 29.633 0 0 1-1.433 0.38824 29.633 29.633 0 0 0 1.433-0.38824z" enable-background="new" fill="#faf8f6"/>
  <circle transform="scale(1,-1)" cx="13.758" cy="-3.9687" r="10.583" enable-background="new" fill="#aea795"/>
  <circle cx="13.758" cy="3.9687" r="9.5248" enable-background="new" fill="#faf8f6"/>
  <circle cx="13.758" cy="3.9687" r="3.7041" enable-background="new" fill="#4d4d4d"/>
  <path d="m13.758-25.664a29.633 29.633 0 0 0-29.633 29.633 29.633 29.633 0 0 0 0.010853 0.30954 29.633 29.633 0 0 1 29.622-29.413 29.633 29.633 0 0 1 29.622 29.323 29.633 29.633 0 0 0 0.010847-0.21962 29.633 29.633 0 0 0-29.633-29.633z" enable-background="new" fill="#fff" opacity=".3"/>
  <path d="m13.758 33.601a29.633 29.633 0 0 1-29.633-29.633 29.633 29.633 0 0 1 0.01085-0.30954 29.633 29.633 0 0 0 29.622 29.413 29.633 29.633 0 0 0 29.622-29.323 29.633 29.633 0 0 1 0.01085 0.21962 29.633 29.633 0 0 1-29.633 29.633z" enable-background="new" opacity=".2"/>
 </g>
</svg>
