<svg width="16" height="16" version="1.1" xmlns="http://www.w3.org/2000/svg">
 <defs>
  <style id="current-color-scheme" type="text/css">
   .ColorScheme-Text { color:#808080; } .ColorScheme-Highlight { color:#5294e2; }
  </style>
 </defs>
 <path style="fill:currentColor" class="ColorScheme-Text" d="m0 1v13h6c0.975 0 1.6016 0.80078 1.6016 0.80078l0.39062 0.51758 0.40039-0.50976s0.65133-0.79359 1.6113-0.80859h1.9961c2.45e-4 -0.17561 0.04673-0.34806 0.13477-0.5-0.088041-0.15194-0.13452-0.32439-0.13477-0.5h-2.0078c-1.025 0.015-1.6243 0.47822-1.9883 0.82422-0.52978-0.5333-1.2522-0.83045-2.0039-0.82422h-5v-11h5c0.983 0 1.5996 0.79883 1.5996 0.79883l0.40039 0.53516 0.40039-0.53516s0.61661-0.79883 1.5996-0.79883v7l2-0.66602v-0.33398c5.5e-5 -0.55226 0.44774-0.99994 1-1v-6h-3c-1.036 0-1.635 0.46531-2 0.82031-0.365-0.355-0.964-0.82031-2-0.82031zm14 0v1h1v5c0.55226 5.52e-5 0.99994 0.44774 1 1v-7zm-11 3v1h3v-1zm0 2v1h3v-1zm0 2v1h3v-1zm0 2v1h3v-1z" />
 <path class="warning" d="M13 8v5h2V8zm0 6v2h2v-2z" fill="#f55"/>
</svg>
