<svg width="16" height="16" version="1.1" xmlns="http://www.w3.org/2000/svg">
 <defs>
  <style id="current-color-scheme" type="text/css">
   .ColorScheme-Text { color:#808080; } .ColorScheme-Highlight { color:#5294e2; }
  </style>
 </defs>
 <g transform="translate(-352 -200)">
  <path d="m359 202v0.5h1v-0.5zm0 1v0.5h1v-0.5zm0 1v3h-3.5c-0.0334-7.3e-4 -0.0668 2e-3 -0.0996 8e-3 -1.5395 0.0443-2.8806 1.0908-3.2812 2.5859-0.40938 1.5278 0.26106 3.1466 1.6309 3.9375 1.3584 0.7843 3.0761 0.56329 4.1953-0.53125h3.1094c1.1192 1.0945 2.8369 1.3156 4.1953 0.53125 1.3698-0.79086 2.0402-2.4097 1.6309-3.9375-0.40114-1.497-1.7451-2.5441-3.2871-2.5859-0.03091-0.00619-0.06236-8e-3 -0.09376-8e-3h-3.5v-3zm-3.5 4h8c1.1339 0 2.1225 0.75823 2.416 1.8535 0.29348 1.0953-0.18401 2.2455-1.166 2.8125-0.92813 0.53585-2.0763 0.41206-2.877-0.2793-0.13062-0.12963-0.25898-0.39005-0.49414-0.38672h-3.7578c-0.23385-3e-3 -0.39409 0.26769-0.49218 0.38477-0.80076 0.69295-1.95 0.81756-2.8789 0.28125-0.98202-0.56697-1.4576-1.7172-1.1641-2.8125 0.29348-1.0953 1.2801-1.8535 2.4141-1.8535zm-0.5 1v1h-1v1h1v1h1v-1h1v-1h-1v-1zm8.5 0c-0.27614 0-0.5 0.22386-0.5 0.5s0.22386 0.5 0.5 0.5 0.5-0.22386 0.5-0.5-0.22386-0.5-0.5-0.5zm-1 1c-0.27614 0-0.5 0.22386-0.5 0.5s0.22386 0.5 0.5 0.5 0.5-0.22386 0.5-0.5-0.22386-0.5-0.5-0.5zm2 0c-0.27614 0-0.5 0.22386-0.5 0.5s0.22386 0.5 0.5 0.5 0.5-0.22386 0.5-0.5-0.22386-0.5-0.5-0.5zm-1 1c-0.27614 0-0.5 0.22386-0.5 0.5s0.22386 0.5 0.5 0.5 0.5-0.22386 0.5-0.5-0.22386-0.5-0.5-0.5z" style="fill:currentColor" class="ColorScheme-Text" />
 </g>
</svg>
