<svg width="16" height="16" version="1.1" xmlns="http://www.w3.org/2000/svg">
 <defs>
  <style id="current-color-scheme" type="text/css">
   .ColorScheme-Text { color:#808080; } .ColorScheme-Highlight { color:#5294e2; }
  </style>
 </defs>
 <g transform="translate(-293 235)">
  <path d="m295-233c-0.43839 0-0.78571 0.0387-1.0781 0.14844-0.29241 0.10976-0.52561 0.30961-0.66406 0.56054-0.2769 0.50188-0.24811 1.1143-0.25781 1.9531v6.6759c0.01 0.83879-0.0191 1.4512 0.25781 1.9531 0.13845 0.25093 0.37165 0.45077 0.66406 0.56054 0.29242 0.10957 0.63974 0.14834 1.0781 0.14834h12c0.43839 0 0.78571-0.0387 1.0781-0.14844 0.29242-0.10977 0.52757-0.30961 0.66602-0.56054 0.2769-0.50188 0.24616-1.1143 0.25586-1.9531v-6.6759c-0.01-0.83879 0.021-1.4512-0.25586-1.9531-0.13845-0.25093-0.3736-0.45078-0.66602-0.56054-0.29241-0.10948-0.63973-0.14834-1.0781-0.14834zm0 1h12c0.37958 0 0.60557 0.0386 0.72656 0.084 0.0837 0.0314 0.12701 0.0792 0.14258 0.10743 0.0948 0.17181 0.12036 0.61468 0.13086 1.4726v6.6738c-0.0102 0.85536-0.0361 1.2989-0.13086 1.4707-0.0156 0.0282-0.0589 0.076-0.14258 0.10743-0.12083 0.0454-0.34698 0.084-0.72656 0.084h-12c-0.37959 0-0.60571-0.0386-0.72656-0.084-0.0823-0.0309-0.12313-0.0757-0.14063-0.10743-0.0957-0.17353-0.12259-0.61685-0.13281-1.4707v-6.6738c0.0102-0.85607 0.0369-1.2989 0.13281-1.4726 0.0175-0.0317 0.0583-0.0765 0.14063-0.10743 0.12085-0.0454 0.34697-0.084 0.72656-0.084zm0.53711 1.5781-0.28516 0.4375 5.873 4.2207 5.875-4.2363-0.28516-0.42188-5.5898 3.373z" style="fill:currentColor" class="ColorScheme-Text"/>
 </g>
</svg>
