<svg width="16" height="16" version="1.1" xmlns="http://www.w3.org/2000/svg">
 <defs>
  <style id="current-color-scheme" type="text/css">
   .ColorScheme-Text { color:#808080; } .ColorScheme-Highlight { color:#5294e2; }
  </style>
 </defs>
 <g transform="translate(-1253 47)">
  <path transform="translate(221 -367)" d="m1036 321c-1.257 0.0144-2.1773-0.0284-2.9297 0.38672-0.3764 0.20768-0.6752 0.55747-0.8398 0.99609-0.1647 0.43862-0.2227 0.9596-0.2227 1.6172v8c0 0.65759 0.058 1.1786 0.2227 1.6172 0.1646 0.43862 0.4634 0.79036 0.8398 0.99804 0.7528 0.41535 1.6735 0.37023 2.9316 0.38477h0.01 8 0.01c1.2581-0.0145 2.1788 0.0306 2.9316-0.38477 0.3764-0.20768 0.6753-0.55942 0.8399-0.99804 0.1558-0.43862 0.2144-0.9596 0.2144-1.6172v-3-3c0-0.65759-0.058-1.1786-0.2227-1.6172-0.02-0.0546-0.048-0.10399-0.074-0.15429-0.01-0.0185-0.018-0.038-0.027-0.0566-0.1727-0.33876-0.4255-0.61453-0.7383-0.78711-0.7529-0.41536-1.6735-0.37023-2.9316-0.38477h-0.01-3.0332l-2.0215-2h-2.9473zm0 1h0.01 2.5293l2.0215 2h3.447c1.2822 0.0148 2.0319 0.0263 2.4551 0.25977 0.1178 0.065 0.2369 0.18454 0.3301 0.36718-0.016-0.0305 2e-4 0.0108 0.031 0.0645 0.01 0.0169 6e-4 2e-3 0.01 0.0117v2e-3c0.011 0.022 0.025 0.0525 0.018 0.0293 0.1001 0.26699 0.1582 0.66683 0.1582 1.2656h-14.002v-2c0-0.59878 0.058-0.99856 0.1582-1.2656 0.086-0.22979 0.2302-0.3863 0.3867-0.47266 0.4234-0.23354 1.1733-0.24697 2.4492-0.26172z" style="fill:currentColor" class="ColorScheme-Text"/>
 </g>
</svg>
