<svg width="16" height="16" version="1.1" xmlns="http://www.w3.org/2000/svg">
 <defs>
  <style id="current-color-scheme" type="text/css">
   .ColorScheme-Text { color:#808080; } .ColorScheme-Highlight { color:#5294e2; }
  </style>
 </defs>
    <g style="fill:currentColor" class="ColorScheme-Text">
        <path d="M11 16l-.479-.922a19.554 19.554 0 0 1-1.126-2.666 14.225 14.225 0 0 1-.383-1.271L9 11.084V1s0-1 1-1h2s1 0 1 1v10.084l-.012.057c-.028.122-.136.547-.383 1.271a19.588 19.588 0 0 1-1.126 2.666zm-.209-3.043h.416c.14-.315.294-.65.377-.893.225-.66.417-1.07.416-1.064h-2c-.002-.009.189.403.414 1.064.083.244.238.578.377.893zM10 3h2V1h-2z"/>
        <path d="M3 0v15h5V0zm1 1h3v1H6v1h1v1H6v1h1v1H6v1h1v1H6v1h1v1H6v1h1v1H6v1h1v1H4z"/>
    </g>
</svg>
