<svg width="16" height="16" version="1.1" xmlns="http://www.w3.org/2000/svg">
 <defs>
  <style id="current-color-scheme" type="text/css">
   .ColorScheme-Text { color:#808080; } .ColorScheme-Highlight { color:#5294e2; }
  </style>
 </defs>
 <path d="m7.5 4.5068e-7c-1.1 0-2.145 0.32-2.145 0.32l-0.355 0.108v1.683a13.88 13.88 0 0 0-2.998 0.889l-2e-3 1h-1v1h1l4e-3 9c0 0.439 0.04 0.788 0.15 1.082 0.111 0.294 0.311 0.528 0.563 0.668 0.503 0.28 1.12 0.25 1.953 0.25h5.664c0.833 0 1.45 0.03 1.953-0.25 0.252-0.14 0.45-0.374 0.56-0.668s0.153-0.643 0.153-1.082l-2e-3 -8h-1l2e-3 8c0 0.376-0.04 0.603-0.088 0.729-0.034 0.09-0.078 0.129-0.11 0.146-0.173 0.097-0.611 0.125-1.468 0.125h-5.664c-0.857 0-1.295-0.028-1.469-0.125a0.267 0.267 0 0 1-0.113-0.146v-2e-3c-0.046-0.122-0.084-0.348-0.084-0.727v-2e-3l-4e-3 -8.998h11v-1h-1.002l2e-3 -1a13.855 13.855 0 0 0-3-0.889v-1.661l-0.33-0.119s-0.913-0.33-2.17-0.33zm0 1c0.89 0 1.29 0.155 1.5 0.22v0.739a14.05 14.05 0 0 0-1.498-0.084c-0.502 0-1.003 0.032-1.502 0.086v-0.734c0.266-0.07 0.772-0.227 1.5-0.227zm-2.5 5v6h1v-6zm2 0v6h1v-6zm2 0v6h1v-6z" style="fill:currentColor" class="ColorScheme-Text"/>
</svg>
