<svg width="16" height="16" version="1.1" xmlns="http://www.w3.org/2000/svg">
 <defs>
  <style id="current-color-scheme" type="text/css">
   .ColorScheme-Text { color:#808080; } .ColorScheme-Highlight { color:#5294e2; }
  </style>
 </defs>
    <g style="fill:currentColor" class="ColorScheme-Text">
        <path d="M14 5V3h-2.002z"/>
        <path d="M2 7v8h9v-1H3V6.333zm11.002-1L13 15h1V7z"/>
        <path d="M8 8.986a8.47 8.47 0 0 1 .607-.122c.253-.043.543-.064.872-.064.295 0 .54.043.735.129.195.08.35.197.465.35.119.147.202.326.25.535.047.21.071.44.071.693V14.2H8z"/>
        <path d="M8 .293L.146 8.146l.708.708L8 1.707l7.146 7.147.708-.708z"/>
    </g>
</svg>
