<?xml version="1.0" encoding="UTF-8" standalone="no"?>
<svg
   width="64"
   height="64"
   version="1.1"
   id="svg5"
   sodipodi:docname="hwloc.svg"
   inkscape:version="1.4 (e7c3feb100, 2024-10-09)"
   xmlns:inkscape="http://www.inkscape.org/namespaces/inkscape"
   xmlns:sodipodi="http://sodipodi.sourceforge.net/DTD/sodipodi-0.dtd"
   xmlns="http://www.w3.org/2000/svg"
   xmlns:svg="http://www.w3.org/2000/svg">
  <sodipodi:namedview
     id="namedview5"
     pagecolor="#505050"
     bordercolor="#eeeeee"
     borderopacity="1"
     inkscape:showpageshadow="0"
     inkscape:pageopacity="0"
     inkscape:pagecheckerboard="0"
     inkscape:deskcolor="#505050"
     inkscape:zoom="4.5859375"
     inkscape:cx="71.522998"
     inkscape:cy="39.250426"
     inkscape:window-width="2560"
     inkscape:window-height="1411"
     inkscape:window-x="0"
     inkscape:window-y="0"
     inkscape:window-maximized="1"
     inkscape:current-layer="svg5" />
  <defs
     id="defs2">
    <linearGradient
       id="linearGradient1"
       x1="417.87"
       x2="417.87"
       y1="565.24"
       y2="509.24"
       gradientTransform="translate(-298.39228,-505.27)"
       gradientUnits="userSpaceOnUse">
      <stop
         stop-color="#63984b"
         offset="0"
         id="stop1" />
      <stop
         stop-color="#75af5a"
         offset="1"
         id="stop2" />
    </linearGradient>
    <filter
       inkscape:collect="always"
       style="color-interpolation-filters:sRGB"
       id="filter1057"
       x="-0.026999999"
       width="1.054"
       y="-0.026999999"
       height="1.054">
      <feGaussianBlur
         inkscape:collect="always"
         stdDeviation="0.61875"
         id="feGaussianBlur1059" />
    </filter>
    <linearGradient
       id="c"
       x1="32"
       x2="32"
       y1="11"
       y2="53"
       gradientTransform="translate(-1.0175e-5,-0.033043)"
       gradientUnits="userSpaceOnUse">
      <stop
         stop-color="#dcdede"
         offset="0"
         id="stop2-3" />
      <stop
         stop-color="#939493"
         offset="1"
         id="stop4" />
    </linearGradient>
    <filter
       id="f"
       x="-0.059999947"
       y="-0.060000271"
       width="1.1199999"
       height="1.1200005"
       color-interpolation-filters="sRGB">
      <feGaussianBlur
         stdDeviation="0.18520833"
         id="feGaussianBlur7" />
    </filter>
    <linearGradient
       id="b"
       x1="8.4666004"
       x2="8.4666004"
       y1="284.82999"
       y2="292.23999"
       gradientUnits="userSpaceOnUse">
      <stop
         stop-color="#4c5557"
         offset="0"
         id="stop10" />
      <stop
         stop-color="#282929"
         offset="1"
         id="stop12" />
    </linearGradient>
  </defs>
  <rect
     style="opacity:0.3;fill:#141414;fill-opacity:1;stroke-width:2.74436;stroke-linecap:round;filter:url(#filter1057)"
     id="rect1055"
     width="55"
     height="55"
     x="4.4999995"
     y="4.4999995"
     ry="15" />
  <rect
     ry="14.999999"
     y="4.5000019"
     x="4.5000024"
     height="54.999996"
     width="54.999996"
     id="rect1045"
     style="fill:#008237;fill-opacity:1;stroke-width:2.74436;stroke-linecap:round" />
  <path
     id="rect4708"
     style="fill:#43a047;fill-opacity:1;stroke-width:1.5;stroke-linecap:round;stroke-linejoin:round;paint-order:stroke fill markers"
     d="m 19.5,4.4999999 c -0.854072,0 -1.685656,0.086828 -2.5,0.2226562 v 5.4492189 l 4,4 V 4.4999999 Z m 3.5,0 V 16.171875 l 3.5,3.5 L 27.171875,19 H 26 V 4.4999999 Z m 5,0 V 18.171875 L 31.171875,15 H 31 V 4.4999999 Z m 5,0 v 8.6718751 l 3,-3 V 4.4999999 Z m 5,0 V 11 L 27.914062,21.085937 29,22.171875 l 12,-12 V 4.4999999 Z m 5,0 V 11 L 29.564453,24.435546 29,23.871093 28.435547,24.435546 26.5,22.5 24.564453,24.435546 24,23.871093 23.435547,24.435546 9.9999997,11 V 7.876953 c -1.591872,1.3010014 -2.899735,2.928213 -3.845703,4.775391 v 4.271484 L 4.5488282,18.527343 C 4.5282152,18.850603 4.5000002,19.171358 4.5000002,19.5 v 2.230468 l 2.7304685,2.730469 H 16.818359 L 9.3496097,16.992187 A 1.5,1.5 0 0 1 7.9999997,15.5 1.5,1.5 0 0 1 9.4999997,14 1.5,1.5 0 0 1 11,15.5 1.5,1.5 0 0 1 10.97266,15.787108 l 8.673828,8.673829 h 28.507813 l 7.537109,-8.615235 h 3.345703 C 58.946563,15.482032 58.84885,15.122 58.732426,14.76953 H 55.69141 v -4.308592 l -8.615234,9.693358 h -3.230469 l 8.615235,-9.693358 V 6.7890624 C 51.104748,5.9402848 49.604493,5.305204 48,4.923828 V 11 L 34.5625,24.435546 33.148438,23.021484 46,10.171875 V 4.5761718 C 45.506368,4.5275498 45.006835,4.4999998 44.5,4.4999998 Z M 15,5.1816405 c -1.058233,0.3301866 -2.058053,0.7848818 -3,1.328125 v 3.6621095 l 12,12 1.085938,-1.085938 L 23,19 H 21 V 17 L 15,11 Z M 14.769531,37.382812 v 0.002 L 4.5546876,45.55664 c 0.070853,1.022531 0.2398351,2.01584 0.5039063,2.970703 l 5.4023441,-3.603515 v 2.152343 l -4.8085941,3.207032 c 0.1566456,0.376525 0.3338718,0.741469 0.5195308,1.101562 h 2.136719 v 3.09961 c 1.7253813,1.933928 3.9395393,3.415205 6.4609373,4.248046 V 48.154296 l 6.460938,-5.384765 h 3.230469 L 18,48.154296 v 11.269532 c 0.493632,0.04862 0.993165,0.07617 1.5,0.07617 H 22 V 54.871091 L 35.435547,41.433591 36,41.998044 36.564453,41.433591 38.5,43.369138 40.435547,41.433591 41,41.998044 41.564453,41.433591 55,54.871091 v 0.351562 c 0.425786,-0.416936 0.825574,-0.85906 1.199219,-1.324218 L 45.150391,42.847656 46.564453,41.433593 57.355469,52.224609 c 0.782492,-1.303385 1.371837,-2.733298 1.730469,-4.257813 l -6.625,-8.429687 H 50.308594 L 48.154297,37.382812 H 35.199219 l 0.236328,0.236328 -12.462891,12.462891 a 1.5,1.5 0 0 1 0.02734,0.287109 1.5,1.5 0 0 1 -1.5,1.5 1.5,1.5 0 0 1 -1.5,-1.5 1.5,1.5 0 0 1 1.349609,-1.492187 L 32.84375,37.382812 Z M 36,43.699218 l -12,12 V 59.5 h 3 v -4.628907 l 6,-6 v -2 h 2 l 2.085938,-2.085937 z m 5,0 -1.085938,1.085938 L 50,54.871093 v 3.580078 c 1.064401,-0.41783 2.07173,-0.944391 3,-1.582031 v -1.169922 z m -2.5,2.5 -3.5,3.5 V 59.5 h 3 V 46.86914 h 1.171875 z m 1.5,1.5 V 59.5 h 3 v -8.628907 h 0.171875 z m -7,4 -4,4 V 59.5 h 4 z m 12,1 v 6.775391 c 1.030516,-0.03375 2.033268,-0.168653 3,-0.398438 v -3.376953 z" />
  <g
     transform="matrix(3.7796,0,0,3.7796,-1.01e-5,-1058.6)"
     id="g51">
    <g
       transform="translate(0,-0.0088674)"
       id="g39">
      <path
         transform="matrix(0.26458,0,0,0.26458,2.692e-6,280.08)"
         d="m 20,13 -0.5,2 H 19 v 3.9668 H 15 V 19.5 l -2,0.5 2,0.5 v 0.4668 h 4 v 2 H 15 V 23.5 l -2,0.5 2,0.5 v 0.4668 h 4 v 2 H 15 V 27.5 l -2,0.5 2,0.5 v 0.4668 h 4 v 2 H 15 V 31.5 l -2,0.5 2,0.5 v 0.4668 h 4 v 2 H 15 V 35.5 l -2,0.5 2,0.5 v 0.4668 h 4 v 2 H 15 V 39.5 l -2,0.5 2,0.5 v 0.4668 h 4 v 2 H 15 V 43.5 l -2,0.5 2,0.5 v 0.4668 h 4 V 49 h 0.5 l 0.5,2 0.5,-2 H 21 v -4.0332 h 2 V 49 h 0.5 l 0.5,2 0.5,-2 H 25 v -4.0332 h 2 V 49 h 0.5 l 0.5,2 0.5,-2 H 29 v -4.0332 h 2 V 49 h 0.5 l 0.5,2 0.5,-2 H 33 v -4.0332 h 2 V 49 h 0.5 l 0.5,2 0.5,-2 H 37 v -4.0332 h 2 V 49 h 0.5 l 0.5,2 0.5,-2 H 41 v -4.0332 h 2 V 49 h 0.5 l 0.5,2 0.5,-2 H 45 v -4.0332 h 4 V 44.5 L 51,44 49,43.5 v -0.5332 h -4 v -2 h 4 V 40.5 L 51,40 49,39.5 v -0.5332 h -4 v -2 h 4 V 36.5 L 51,36 49,35.5 v -0.5332 h -4 v -2 h 4 V 32.5 L 51,32 49,31.5 v -0.5332 h -4 v -2 h 4 V 28.5 L 51,28 49,27.5 v -0.5332 h -4 v -2 h 4 V 24.5 L 51,24 49,23.5 v -0.5332 h -4 v -2 h 4 V 20.5 L 51,20 49,19.5 V 18.9668 H 45 V 15 H 44.5 L 44,13 43.5,15 H 43 v 3.9668 H 41 V 15 H 40.5 L 40,13 39.5,15 H 39 v 3.9668 H 37 V 15 H 36.5 L 36,13 35.5,15 H 35 v 3.9668 H 33 V 15 H 32.5 L 32,13 31.5,15 H 31 v 3.9668 H 29 V 15 H 28.5 L 28,13 27.5,15 H 27 v 3.9668 H 25 V 15 H 24.5 L 24,13 23.5,15 H 23 v 3.9668 H 21 V 15 h -0.5 z m 1,7.9668 h 2 v 2 h -2 z m 4,0 h 2 v 2 h -2 z m 4,0 h 2 v 2 h -2 z m 4,0 h 2 v 2 h -2 z m 4,0 h 2 v 2 h -2 z m 4,0 h 2 v 2 h -2 z m -20,4 h 2 v 2 h -2 z m 4,0 h 2 v 2 h -2 z m 4,0 h 2 v 2 h -2 z m 4,0 h 2 v 2 h -2 z m 4,0 h 2 v 2 h -2 z m 4,0 h 2 v 2 h -2 z m -20,4 h 2 v 2 h -2 z m 4,0 h 2 v 2 h -2 z m 4,0 h 2 v 2 h -2 z m 4,0 h 2 v 2 h -2 z m 4,0 h 2 v 2 h -2 z m 4,0 h 2 v 2 h -2 z m -20,4 h 2 v 2 h -2 z m 4,0 h 2 v 2 h -2 z m 4,0 h 2 v 2 h -2 z m 4,0 h 2 v 2 h -2 z m 4,0 h 2 v 2 h -2 z m 4,0 h 2 v 2 h -2 z m -20,4 h 2 v 2 h -2 z m 4,0 h 2 v 2 h -2 z m 4,0 h 2 v 2 h -2 z m 4,0 h 2 v 2 h -2 z m 4,0 h 2 v 2 h -2 z m 4,0 h 2 v 2 h -2 z m -20,4 h 2 v 2 h -2 z m 4,0 h 2 v 2 h -2 z m 4,0 h 2 v 2 h -2 z m 4,0 h 2 v 2 h -2 z m 4,0 h 2 v 2 h -2 z m 4,0 h 2 v 2 h -2 z"
         fill="url(#c)"
         id="path33"
         style="fill:url(#c)" />
      <path
         d="m 5.2917,284.83 h 6.35 c 0.29316,0 0.52917,0.236 0.52917,0.52915 v 6.35 c 0,0.29315 -0.23601,0.52915 -0.52917,0.52915 h -6.35 c -0.29316,0 -0.52917,-0.236 -0.52917,-0.52915 v -6.35 c 0,-0.29315 0.23601,-0.52915 0.52917,-0.52915 z"
         fill-rule="evenodd"
         filter="url(#f)"
         opacity="0.5"
         id="path35" />
      <path
         d="m 5.2917,284.83 h 6.35 c 0.29316,0 0.52917,0.236 0.52917,0.52915 v 6.35 c 0,0.29315 -0.23601,0.52915 -0.52917,0.52915 h -6.35 c -0.29316,0 -0.52917,-0.236 -0.52917,-0.52915 v -6.35 c 0,-0.29315 0.23601,-0.52915 0.52917,-0.52915 z"
         fill="url(#b)"
         fill-rule="evenodd"
         id="path37"
         style="fill:url(#b)" />
    </g>
    <g
       fill-rule="evenodd"
       id="g49">
      <path
         d="M 5.5563,285.49 A 0.13229,0.13229 0 0 1 5.42401,285.62229 0.13229,0.13229 0 0 1 5.29172,285.49 0.13229,0.13229 0 0 1 5.42401,285.35771 0.13229,0.13229 0 0 1 5.5563,285.49"
         opacity="0.35"
         style="paint-order:stroke fill markers"
         id="path41" />
      <path
         d="M 11.641,285.49 A 0.13229,0.13229 0 0 1 11.50871,285.62229 0.13229,0.13229 0 0 1 11.37642,285.49 0.13229,0.13229 0 0 1 11.50871,285.35771 0.13229,0.13229 0 0 1 11.641,285.49"
         opacity="0.35"
         style="paint-order:stroke fill markers"
         id="path43" />
      <path
         d="M 5.5563,291.58 A 0.13229,0.13229 0 0 1 5.42401,291.71229 0.13229,0.13229 0 0 1 5.29172,291.58 0.13229,0.13229 0 0 1 5.42401,291.44771 0.13229,0.13229 0 0 1 5.5563,291.58"
         opacity="0.35"
         style="paint-order:stroke fill markers"
         id="path45" />
      <path
         d="M 11.641,291.58 A 0.13229,0.13229 0 0 1 11.50871,291.71229 0.13229,0.13229 0 0 1 11.37642,291.58 0.13229,0.13229 0 0 1 11.50871,291.44771 0.13229,0.13229 0 0 1 11.641,291.58"
         opacity="0.35"
         style="paint-order:stroke fill markers"
         id="path47" />
    </g>
  </g>
  <path
     d="m 32,23 c -0.57438,0 -1,0.42562 -1,1 0.002,0.5732 0.42679,1.0006 1,1 0.57164,-0.0022 0.99836,-0.42835 1,-1 -5.5e-4,-0.57282 -0.42719,-0.99835 -1,-1 m -3,4 v 2 h 2 v 8 h -2 v 2 h 6 v -2 h -2 v -8 h 2 v -2 z"
     fill="#808080"
     style="paint-order:stroke fill markers;fill:#ffffff;fill-opacity:0.50196081"
     id="path6" />
</svg>
