<?xml version="1.0" encoding="UTF-8" standalone="no"?>
<svg
   width="64"
   height="64"
   version="1.1"
   viewBox="0 0 16.933 16.933"
   id="svg5"
   sodipodi:docname="indicator-cpufreq.svg"
   inkscape:version="1.4 (e7c3feb100, 2024-10-09)"
   xmlns:inkscape="http://www.inkscape.org/namespaces/inkscape"
   xmlns:sodipodi="http://sodipodi.sourceforge.net/DTD/sodipodi-0.dtd"
   xmlns="http://www.w3.org/2000/svg"
   xmlns:svg="http://www.w3.org/2000/svg">
  <sodipodi:namedview
     id="namedview5"
     pagecolor="#505050"
     bordercolor="#eeeeee"
     borderopacity="1"
     inkscape:showpageshadow="0"
     inkscape:pageopacity="0"
     inkscape:pagecheckerboard="0"
     inkscape:deskcolor="#505050"
     inkscape:zoom="4.5859375"
     inkscape:cx="79.809199"
     inkscape:cy="46.010221"
     inkscape:window-width="2560"
     inkscape:window-height="1411"
     inkscape:window-x="0"
     inkscape:window-y="0"
     inkscape:window-maximized="1"
     inkscape:current-layer="svg5" />
  <defs
     id="defs2">
    <linearGradient
       id="linearGradient1"
       x1="417.87"
       x2="417.87"
       y1="565.24"
       y2="509.24"
       gradientTransform="matrix(0.26458,0,0,0.26458,-79.266875,-133.68)"
       gradientUnits="userSpaceOnUse">
      <stop
         stop-color="#63984b"
         offset="0"
         id="stop1" />
      <stop
         stop-color="#75af5a"
         offset="1"
         id="stop2" />
    </linearGradient>
    <filter
       inkscape:collect="always"
       style="color-interpolation-filters:sRGB"
       id="filter1057"
       x="-0.026999999"
       width="1.054"
       y="-0.026999999"
       height="1.054">
      <feGaussianBlur
         inkscape:collect="always"
         stdDeviation="0.61875"
         id="feGaussianBlur1059" />
    </filter>
    <linearGradient
       id="c"
       x1="32"
       x2="32"
       y1="11"
       y2="53"
       gradientTransform="translate(-1.0175e-5,-0.033043)"
       gradientUnits="userSpaceOnUse">
      <stop
         stop-color="#dcdede"
         offset="0"
         id="stop2-6" />
      <stop
         stop-color="#939493"
         offset="1"
         id="stop4" />
    </linearGradient>
    <filter
       id="f"
       x="-0.059999947"
       y="-0.060000271"
       width="1.1199999"
       height="1.1200005"
       color-interpolation-filters="sRGB">
      <feGaussianBlur
         stdDeviation="0.18520833"
         id="feGaussianBlur7" />
    </filter>
    <linearGradient
       id="b"
       x1="8.4666004"
       x2="8.4666004"
       y1="284.82999"
       y2="292.23999"
       gradientUnits="userSpaceOnUse">
      <stop
         stop-color="#4c5557"
         offset="0"
         id="stop10" />
      <stop
         stop-color="#282929"
         offset="1"
         id="stop12" />
    </linearGradient>
  </defs>
  <rect
     style="opacity:0.3;fill:#141414;fill-opacity:1;stroke-width:2.74436;stroke-linecap:round;filter:url(#filter1057)"
     id="rect1055"
     width="55"
     height="55"
     x="4.4999995"
     y="4.4999995"
     ry="15"
     transform="scale(0.26457812)" />
  <rect
     ry="3.9686716"
     y="1.1906022"
     x="1.1906021"
     height="14.551796"
     width="14.551796"
     id="rect1045"
     style="fill:#008237;fill-opacity:1;stroke-width:0.726098;stroke-linecap:round" />
  <path
     id="rect4708"
     style="fill:#43a047;fill-opacity:1;stroke-width:0.396867;stroke-linecap:round;stroke-linejoin:round;paint-order:stroke fill markers"
     d="m 5.1592734,1.1906017 c -0.2259687,0 -0.4459877,0.022973 -0.6614453,0.05891 v 1.441744 L 5.5561405,3.7495682 V 1.1906017 Z m 0.9260231,0 v 3.0881227 l 0.926024,0.9260234 0.177763,-0.1777634 H 6.8790315 V 1.1906017 Z m 1.322891,0 v 3.6172789 l 0.839209,-0.8392087 h -0.04547 V 1.1906017 Z m 1.322891,0 V 3.48499 l 0.793734,-0.7937343 v -1.500654 z m 1.3228905,0 V 2.9103594 L 7.3854505,5.5788779 7.6727655,5.8661931 10.847704,2.6912557 v -1.500654 z m 1.32289,0 V 2.9103594 L 7.8221075,6.4651112 7.6727655,6.3157693 7.5234235,6.4651112 7.0113205,5.9530078 6.4992165,6.4651112 6.3498745,6.3157693 6.2005335,6.4651112 2.6457813,2.9103594 V 2.0840696 C 2.2246068,2.4282861 1.8785747,2.8588106 1.6282924,3.3475335 V 4.4776747 L 1.2035205,4.90193 c -0.00545,0.085528 -0.012919,0.1703922 -0.012919,0.2573435 v 0.5901332 l 0.7224223,0.7224224 h 2.536746 L 2.4737022,4.4957613 A 0.39686718,0.39686718 0 0 1 2.1166251,4.100961 0.39686718,0.39686718 0 0 1 2.5134922,3.7040938 0.39686718,0.39686718 0 0 1 2.9103594,4.100961 0.39686718,0.39686718 0 0 1 2.9031294,4.176924 l 2.2949051,2.2949054 h 7.5425435 l 1.994154,-2.2794027 h 0.885201 c -0.02396,-0.096219 -0.04981,-0.191476 -0.08062,-0.2847318 H 14.734728 V 2.7677354 L 12.455327,5.3323861 H 11.600615 L 13.880018,2.7677354 V 1.7962375 C 13.521199,1.5716695 13.124264,1.403641 12.699749,1.3027373 V 2.9103594 L 9.1444815,6.4651112 8.7703515,6.0909811 12.170594,2.6912557 V 1.2107551 C 12.03999,1.1978908 11.907824,1.1906017 11.773727,1.1906017 Z M 3.9686719,1.3709488 C 3.6886866,1.458309 3.4241561,1.5786114 3.1749375,1.7223417 v 0.968914 L 6.3498745,5.8661931 6.6371905,5.5788779 6.0852965,5.0269844 H 5.5561405 V 4.4978282 L 3.9686719,2.9103594 Z m -0.060977,8.5197254 v 5.292e-4 l -2.702624,2.1620876 c 0.018746,0.270539 0.063455,0.533347 0.1333225,0.785983 l 1.4293421,-0.953412 v 0.569463 l -1.2722488,0.848511 c 0.041445,0.09962 0.088335,0.196176 0.1374566,0.291449 h 0.565329 v 0.820089 c 0.4564981,0.511675 1.0423159,0.903589 1.7094226,1.12394 v -2.79874 l 1.7094226,-1.424692 h 0.854712 l -1.7094231,1.424692 v 2.981671 c 0.1306042,0.01286 0.2627697,0.02015 0.3968671,0.02015 h 0.661445 v -1.224707 l 3.554752,-3.555268 0.149342,0.149342 0.149342,-0.149342 0.5121035,0.512103 0.512104,-0.512103 0.149342,0.149342 0.149341,-0.149342 3.554752,3.555268 v 0.09302 c 0.112654,-0.110312 0.218429,-0.227289 0.317287,-0.350359 l -2.923278,-2.923795 0.37413,-0.37413 2.855067,2.855066 c 0.20703,-0.344847 0.362958,-0.723171 0.457844,-1.126524 l -1.75283,-2.230311 H 13.310554 L 12.740574,9.8906752 H 9.3129435 l 0.06253,0.062527 -3.297408,3.2974078 a 0.39686718,0.39686718 0 0 1 0.0072,0.07596 0.39686718,0.39686718 0 0 1 -0.396867,0.396867 0.39686718,0.39686718 0 0 1 -0.3968669,-0.396867 0.39686718,0.39686718 0 0 1 0.3570769,-0.3948 l 3.041098,-3.0410983 z m 5.6171176,1.6711838 -3.174938,3.174937 v 1.005603 h 0.793735 v -1.224707 l 1.587469,-1.587469 v -0.529156 h 0.529156 l 0.551893,-0.551893 z m 1.3228915,0 -0.287316,0.287315 2.668519,2.668518 v 0.947211 c 0.281617,-0.110549 0.548134,-0.249866 0.793734,-0.418571 v -0.309536 z m -0.661446,0.661445 -0.9260235,0.926023 v 2.593072 H 10.053969 V 12.40055 h 0.310053 z m 0.396867,0.396867 v 3.122228 h 0.793735 v -2.283019 h 0.04547 z m -1.8520465,1.058312 -1.058313,1.058313 v 1.005603 h 1.058313 z m 3.1749375,0.264579 v 1.79262 c 0.272652,-0.0089 0.537958,-0.04462 0.793734,-0.105418 v -0.893468 z" />
  <g
     transform="translate(-2.6e-6,-280.08239)"
     id="g51">
    <g
       transform="translate(0,-0.0088674)"
       id="g39">
      <path
         transform="matrix(0.26458,0,0,0.26458,2.692e-6,280.08)"
         d="m 20,13 -0.5,2 H 19 v 3.9668 H 15 V 19.5 l -2,0.5 2,0.5 v 0.4668 h 4 v 2 H 15 V 23.5 l -2,0.5 2,0.5 v 0.4668 h 4 v 2 H 15 V 27.5 l -2,0.5 2,0.5 v 0.4668 h 4 v 2 H 15 V 31.5 l -2,0.5 2,0.5 v 0.4668 h 4 v 2 H 15 V 35.5 l -2,0.5 2,0.5 v 0.4668 h 4 v 2 H 15 V 39.5 l -2,0.5 2,0.5 v 0.4668 h 4 v 2 H 15 V 43.5 l -2,0.5 2,0.5 v 0.4668 h 4 V 49 h 0.5 l 0.5,2 0.5,-2 H 21 v -4.0332 h 2 V 49 h 0.5 l 0.5,2 0.5,-2 H 25 v -4.0332 h 2 V 49 h 0.5 l 0.5,2 0.5,-2 H 29 v -4.0332 h 2 V 49 h 0.5 l 0.5,2 0.5,-2 H 33 v -4.0332 h 2 V 49 h 0.5 l 0.5,2 0.5,-2 H 37 v -4.0332 h 2 V 49 h 0.5 l 0.5,2 0.5,-2 H 41 v -4.0332 h 2 V 49 h 0.5 l 0.5,2 0.5,-2 H 45 v -4.0332 h 4 V 44.5 L 51,44 49,43.5 v -0.5332 h -4 v -2 h 4 V 40.5 L 51,40 49,39.5 v -0.5332 h -4 v -2 h 4 V 36.5 L 51,36 49,35.5 v -0.5332 h -4 v -2 h 4 V 32.5 L 51,32 49,31.5 v -0.5332 h -4 v -2 h 4 V 28.5 L 51,28 49,27.5 v -0.5332 h -4 v -2 h 4 V 24.5 L 51,24 49,23.5 v -0.5332 h -4 v -2 h 4 V 20.5 L 51,20 49,19.5 V 18.9668 H 45 V 15 H 44.5 L 44,13 43.5,15 H 43 v 3.9668 H 41 V 15 H 40.5 L 40,13 39.5,15 H 39 v 3.9668 H 37 V 15 H 36.5 L 36,13 35.5,15 H 35 v 3.9668 H 33 V 15 H 32.5 L 32,13 31.5,15 H 31 v 3.9668 H 29 V 15 H 28.5 L 28,13 27.5,15 H 27 v 3.9668 H 25 V 15 H 24.5 L 24,13 23.5,15 H 23 v 3.9668 H 21 V 15 h -0.5 z m 1,7.9668 h 2 v 2 h -2 z m 4,0 h 2 v 2 h -2 z m 4,0 h 2 v 2 h -2 z m 4,0 h 2 v 2 h -2 z m 4,0 h 2 v 2 h -2 z m 4,0 h 2 v 2 h -2 z m -20,4 h 2 v 2 h -2 z m 4,0 h 2 v 2 h -2 z m 4,0 h 2 v 2 h -2 z m 4,0 h 2 v 2 h -2 z m 4,0 h 2 v 2 h -2 z m 4,0 h 2 v 2 h -2 z m -20,4 h 2 v 2 h -2 z m 4,0 h 2 v 2 h -2 z m 4,0 h 2 v 2 h -2 z m 4,0 h 2 v 2 h -2 z m 4,0 h 2 v 2 h -2 z m 4,0 h 2 v 2 h -2 z m -20,4 h 2 v 2 h -2 z m 4,0 h 2 v 2 h -2 z m 4,0 h 2 v 2 h -2 z m 4,0 h 2 v 2 h -2 z m 4,0 h 2 v 2 h -2 z m 4,0 h 2 v 2 h -2 z m -20,4 h 2 v 2 h -2 z m 4,0 h 2 v 2 h -2 z m 4,0 h 2 v 2 h -2 z m 4,0 h 2 v 2 h -2 z m 4,0 h 2 v 2 h -2 z m 4,0 h 2 v 2 h -2 z m -20,4 h 2 v 2 h -2 z m 4,0 h 2 v 2 h -2 z m 4,0 h 2 v 2 h -2 z m 4,0 h 2 v 2 h -2 z m 4,0 h 2 v 2 h -2 z m 4,0 h 2 v 2 h -2 z"
         fill="url(#c)"
         id="path33"
         style="fill:url(#c)" />
      <path
         d="m 5.2917,284.83 h 6.35 c 0.29316,0 0.52917,0.236 0.52917,0.52915 v 6.35 c 0,0.29315 -0.23601,0.52915 -0.52917,0.52915 h -6.35 c -0.29316,0 -0.52917,-0.236 -0.52917,-0.52915 v -6.35 c 0,-0.29315 0.23601,-0.52915 0.52917,-0.52915 z"
         fill-rule="evenodd"
         filter="url(#f)"
         opacity="0.5"
         id="path35" />
      <path
         d="m 5.2917,284.83 h 6.35 c 0.29316,0 0.52917,0.236 0.52917,0.52915 v 6.35 c 0,0.29315 -0.23601,0.52915 -0.52917,0.52915 h -6.35 c -0.29316,0 -0.52917,-0.236 -0.52917,-0.52915 v -6.35 c 0,-0.29315 0.23601,-0.52915 0.52917,-0.52915 z"
         fill="url(#b)"
         fill-rule="evenodd"
         id="path37"
         style="fill:url(#b)" />
    </g>
    <g
       fill-rule="evenodd"
       id="g49">
      <path
         d="M 5.5563,285.49 A 0.13229,0.13229 0 0 1 5.42401,285.62229 0.13229,0.13229 0 0 1 5.29172,285.49 0.13229,0.13229 0 0 1 5.42401,285.35771 0.13229,0.13229 0 0 1 5.5563,285.49"
         opacity="0.35"
         style="paint-order:stroke fill markers"
         id="path41" />
      <path
         d="M 11.641,285.49 A 0.13229,0.13229 0 0 1 11.50871,285.62229 0.13229,0.13229 0 0 1 11.37642,285.49 0.13229,0.13229 0 0 1 11.50871,285.35771 0.13229,0.13229 0 0 1 11.641,285.49"
         opacity="0.35"
         style="paint-order:stroke fill markers"
         id="path43" />
      <path
         d="M 5.5563,291.58 A 0.13229,0.13229 0 0 1 5.42401,291.71229 0.13229,0.13229 0 0 1 5.29172,291.58 0.13229,0.13229 0 0 1 5.42401,291.44771 0.13229,0.13229 0 0 1 5.5563,291.58"
         opacity="0.35"
         style="paint-order:stroke fill markers"
         id="path45" />
      <path
         d="M 11.641,291.58 A 0.13229,0.13229 0 0 1 11.50871,291.71229 0.13229,0.13229 0 0 1 11.37642,291.58 0.13229,0.13229 0 0 1 11.50871,291.44771 0.13229,0.13229 0 0 1 11.641,291.58"
         opacity="0.35"
         style="paint-order:stroke fill markers"
         id="path47" />
    </g>
  </g>
  <path
     d="m 5.622635,9.177085 v -1.4212 l 0.34773,-0.34773 h 1.0341 l 0.34168,0.34168 v 0.32354 h -0.41123 v -0.17235 l -0.14212,-0.14212 h -0.60475 l -0.15421,0.15421 v 1.1067 l 0.15421,0.15421 h 0.60475 l 0.14212,-0.14212 v -0.17235 h 0.41123 v 0.32354 l -0.34168,0.34168 h -1.0341 z m 2.0108,-1.7689 h 1.3274 l 0.32354,0.32657 v 0.74082 l -0.32657,0.32959 h -0.91318 v 0.71965 h -0.41123 z m 1.14,1.0523 0.10583,-0.10583 v -0.4959 l -0.10583,-0.10583 h -0.72873 v 0.70756 z m 0.81339,0.70151 v -1.7538 h 0.41123 v 1.6117 l 0.15421,0.15421 h 0.59266 l 0.15421,-0.15421 v -1.6117 h 0.41123 v 1.7538 l -0.36285,0.36285 h -0.99784 z"
     fill="#666666"
     stroke-width="0.25198"
     aria-label="CPU"
     id="path6"
     style="fill:#ffffff;fill-opacity:0.501961" />
</svg>
