<?xml version="1.0" encoding="UTF-8" standalone="no"?>
<svg
   width="64"
   height="64"
   version="1.1"
   viewBox="0 0 16.933 16.933"
   id="svg8"
   sodipodi:docname="krusader_user.svg"
   inkscape:version="1.4 (e7c3feb100, 2024-10-09)"
   xmlns:inkscape="http://www.inkscape.org/namespaces/inkscape"
   xmlns:sodipodi="http://sodipodi.sourceforge.net/DTD/sodipodi-0.dtd"
   xmlns="http://www.w3.org/2000/svg"
   xmlns:svg="http://www.w3.org/2000/svg">
  <sodipodi:namedview
     id="namedview8"
     pagecolor="#505050"
     bordercolor="#eeeeee"
     borderopacity="1"
     inkscape:showpageshadow="0"
     inkscape:pageopacity="0"
     inkscape:pagecheckerboard="0"
     inkscape:deskcolor="#505050"
     inkscape:zoom="3.2427475"
     inkscape:cx="83.879488"
     inkscape:cy="49.649256"
     inkscape:window-width="2560"
     inkscape:window-height="1411"
     inkscape:window-x="0"
     inkscape:window-y="0"
     inkscape:window-maximized="1"
     inkscape:current-layer="svg8" />
  <defs
     id="defs4">
    <linearGradient
       id="b-2"
       x1="26.655"
       x2="26.655"
       y1="17.999"
       y2="49.215"
       gradientTransform="matrix(0.26749,0,0,0.26219,-98.584095,-41.354)"
       gradientUnits="userSpaceOnUse">
      <stop
         stop-color="#3ab8fb"
         offset="0"
         id="stop1" />
      <stop
         stop-color="#60c4fb"
         offset="1"
         id="stop2" />
    </linearGradient>
    <linearGradient
       id="a-9"
       x1="11.572"
       x2="11.572"
       y1="17.999"
       y2="8.996"
       gradientTransform="matrix(0.26458,0,0,0.26458,12.418905,-0.38152)"
       gradientUnits="userSpaceOnUse">
      <stop
         stop-color="#009ef8"
         offset="0"
         id="stop3" />
      <stop
         stop-color="#27affa"
         offset="1"
         id="stop4" />
    </linearGradient>
    <filter
       id="filter2076-6-5"
       x="-0.048000001"
       y="-0.048000001"
       width="1.096"
       height="1.096"
       color-interpolation-filters="sRGB">
      <feGaussianBlur
         stdDeviation="1.1"
         id="feGaussianBlur1-6" />
    </filter>
    <filter
       id="filter2076-6"
       x="-0.048000001"
       y="-0.048000001"
       width="1.096"
       height="1.096"
       color-interpolation-filters="sRGB">
      <feGaussianBlur
         stdDeviation="1.1"
         id="feGaussianBlur1" />
    </filter>
  </defs>
  <g
     transform="translate(22.83694,-1.1719597)"
     id="g4">
    <rect
       transform="matrix(0.26458,0,0,0.26458,-22.837,1.1719)"
       x="4.5"
       y="4.5"
       width="55"
       height="55"
       rx="13.002"
       ry="13.002"
       filter="url(#filter2076-6)"
       opacity="0.3"
       id="rect1" />
    <path
       d="m -18.206,2.3625 c -1.9058,0 -3.44,1.5342 -3.44,3.44 v 7.6717 c 0,1.9058 1.5342,3.44 3.44,3.44 h 7.6717 c 1.9058,0 3.44,-1.5342 3.44,-3.44 V 5.8025 c 0,-1.9058 -1.5342,-3.44 -3.44,-3.44 z"
       fill="#1964ff"
       stroke-linecap="round"
       stroke-width="0.079373"
       style="paint-order:stroke fill markers"
       id="path1" />
    <path
       d="m -17.985,3.95 c -1.1488,0 -2.0737,0.92498 -2.0737,2.0737 v 7.2294 c 0,1.1488 0.92498,2.0737 2.0737,2.0737 h 7.2294 c 1.1488,0 2.0737,-0.92498 2.0737,-2.0737 V 6.0237 c 0,-1.1488 -0.92498,-2.0737 -2.0737,-2.0737 z"
       fill="#fafafa"
       stroke-linecap="round"
       stroke-width="0.079373"
       style="paint-order:stroke fill markers"
       id="path2" />
    <path
       d="m -18.573,5.3996 c 0.005,0.04062 0.0099,0.08118 0.01548,0.12163 h 8.376 c 0.0052,-0.0437 0.0097,-0.07849 0.01437,-0.12163 z"
       fill="#198cff"
       opacity="0.6"
       stroke-width="0.67718"
       style="paint-order:normal"
       id="path3" />
    <path
       d="m -21.084,4.7618 c -0.31183,0 -0.56274,0.25092 -0.56274,0.56274 v 1.8278 c 0,0.02268 0.0041,0.04418 0.0067,0.06615 -0.0055,0.54053 -0.0052,1.1567 -0.0052,1.9652 v 0.22427 h -5.16e-4 v 4.0663 c 0,0.03645 0.0041,0.07184 0.0052,0.108 0.002,0.05118 0.0031,0.10258 0.0078,0.15296 0.12639,1.6956 1.4693,3.0388 3.1646,3.1662 0.08518,0.0081 0.17144,0.0128 0.25941,0.01292 0.0012,3e-6 0.0024,0 0.0036,0 h 7.6717 c 0.08936,0 0.17707,-0.0047 0.26354,-0.01292 1.691,-0.12755 3.0311,-1.4649 3.1625,-3.1548 0.0087,-0.08956 0.01395,-0.18019 0.01395,-0.27233 v -4.1439 c 1.6e-5,-0.0018 5.17e-4,-0.0034 5.17e-4,-0.0052 v -1.8278 c 0,-0.31183 -0.25092,-0.56274 -0.56274,-0.56274 h -6.0068 c -0.27152,0 -0.48409,-0.01833 -0.66041,-0.06511 -0.17632,-0.04678 -0.31607,-0.12227 -0.44079,-0.23564 -0.12472,-0.11337 -0.23465,-0.2648 -0.35139,-0.46456 -0.11674,-0.19977 -0.24036,-0.44746 -0.39273,-0.75343 -0.07349,-0.18081 -0.17612,-0.31227 -0.28835,-0.4072 -0.11223,-0.09493 -0.23385,-0.15348 -0.34674,-0.18965 -0.22578,-0.07234 -0.41495,-0.05426 -0.41495,-0.05426 h -2.5533 c -0.01048,-5.75e-4 -0.02036,-0.0031 -0.03101,-0.0031 h -0.91517 z"
       fill="#198cff"
       stroke-width="0.26458"
       id="path4-2" />
  </g>
  <path
     d="m 7.0057925,7.6245357 c -0.14122,-0.0078 -0.2542419,0.1189909 -0.2511597,0.2918278 h 1.897e-4 v 4.2163035 c 0,0.137822 0.1254358,0.263524 0.2635241,0.263524 h 0.9470416 l 0.707714,0.707942 c 0.077736,0.078 0.2066684,0.09895 0.3047047,0.04967 l 0.2635241,-0.13176 c 0.086434,-0.04217 0.1461231,-0.134395 0.1484928,-0.23058 V 11.84442 l 0.7164632,-0.71673 c 0.09619,-0.0975 0.09619,-0.272806 0,-0.37031 L 7.2076023,7.7268751 C 7.1400726,7.659349 7.0700316,7.6279976 7.0058414,7.6244521 Z M 7.0171095,7.9130348 9.915795,10.943539 9.125223,11.73411 v 1.054095 L 8.8616987,12.919966 8.0711272,12.129397 H 7.0170324 Z"
     fill="#ffffff"
     id="path5-9"
     style="stroke-width:0.190215" />
</svg>
