<?xml version="1.0" encoding="UTF-8" standalone="no"?>
<svg
   width="64"
   height="64"
   version="1.1"
   viewBox="0 0 16.933 16.933"
   id="svg5"
   sodipodi:docname="krusader_root.svg"
   inkscape:version="1.4 (e7c3feb100, 2024-10-09)"
   xmlns:inkscape="http://www.inkscape.org/namespaces/inkscape"
   xmlns:sodipodi="http://sodipodi.sourceforge.net/DTD/sodipodi-0.dtd"
   xmlns="http://www.w3.org/2000/svg"
   xmlns:svg="http://www.w3.org/2000/svg">
  <defs
     id="defs5">
    <filter
       id="filter2076-6"
       x="-0.048000001"
       y="-0.048000001"
       width="1.096"
       height="1.096"
       color-interpolation-filters="sRGB">
      <feGaussianBlur
         stdDeviation="1.1"
         id="feGaussianBlur1" />
    </filter>
    <filter
       id="filter2076-6-5"
       x="-0.048000001"
       y="-0.048000001"
       width="1.096"
       height="1.096"
       color-interpolation-filters="sRGB">
      <feGaussianBlur
         stdDeviation="1.1"
         id="feGaussianBlur1-6" />
    </filter>
  </defs>
  <sodipodi:namedview
     id="namedview5"
     pagecolor="#505050"
     bordercolor="#eeeeee"
     borderopacity="1"
     inkscape:showpageshadow="0"
     inkscape:pageopacity="0"
     inkscape:pagecheckerboard="0"
     inkscape:deskcolor="#505050"
     inkscape:zoom="4.2536892"
     inkscape:cx="-23.038825"
     inkscape:cy="24.684455"
     inkscape:window-width="2560"
     inkscape:window-height="1411"
     inkscape:window-x="0"
     inkscape:window-y="0"
     inkscape:window-maximized="1"
     inkscape:current-layer="svg5" />
  <g
     id="g5">
    <rect
       transform="matrix(0.26458,0,0,0.26458,-6e-5,-5.97e-5)"
       x="4.5"
       y="4.5"
       width="55"
       height="55"
       rx="13.002"
       ry="13.002"
       filter="url(#filter2076-6)"
       opacity="0.3"
       id="rect1"
       style="filter:url(#filter2076-6-5)" />
    <path
       d="m 4.6305,1.1905 c -1.9058,0 -3.44,1.5342 -3.44,3.44 v 7.6717 c 0,1.9058 1.5342,3.44 3.44,3.44 h 7.6717 c 1.9058,0 3.44,-1.5342 3.44,-3.44 V 4.6305 c 0,-1.9058 -1.5342,-3.44 -3.44,-3.44 z"
       fill="#c84641"
       stroke-linecap="round"
       stroke-width="0.079373"
       style="paint-order:stroke fill markers"
       id="path1" />
    <path
       d="M 4.8517,2.778 C 3.7029,2.778 2.778,3.70298 2.778,4.8517 v 7.2294 c 0,1.1488 0.92498,2.0737 2.0737,2.0737 h 7.2294 c 1.1488,0 2.0737,-0.92498 2.0737,-2.0737 V 4.8517 c 0,-1.1488 -0.92498,-2.0737 -2.0737,-2.0737 z"
       fill="#fafafa"
       stroke-linecap="round"
       stroke-width="0.079373"
       style="paint-order:stroke fill markers"
       id="path2" />
    <path
       d="m 4.2635,4.2276 c 0.005,0.04062 0.0099,0.08118 0.01548,0.12163 h 8.376 c 0.0052,-0.0437 0.0097,-0.07849 0.01437,-0.12163 z"
       fill="#f05050"
       opacity="0.6"
       stroke-width="0.67718"
       style="paint-order:normal"
       id="path3" />
    <path
       d="m 1.7522,3.5898 c -0.31183,0 -0.56274,0.25092 -0.56274,0.56274 v 1.8278 c 0,0.02268 0.0041,0.04418 0.0067,0.06615 -0.0055,0.54053 -0.0052,1.1567 -0.0052,1.9652 v 0.22427 h -5.16e-4 v 4.0663 c 0,0.03645 0.0041,0.07184 0.0052,0.108 0.002,0.05118 0.0031,0.10258 0.0078,0.15296 0.12639,1.6956 1.4693,3.0388 3.1646,3.1662 0.08518,0.0081 0.17144,0.0128 0.25941,0.01292 0.0012,3e-6 0.0024,0 0.0036,0 h 7.6717 c 0.08936,0 0.17707,-0.0047 0.26354,-0.01292 1.691,-0.12755 3.0311,-1.4649 3.1625,-3.1548 0.0087,-0.08956 0.01395,-0.18019 0.01395,-0.27233 v -4.1439 c 1.6e-5,-0.0018 5.17e-4,-0.0034 5.17e-4,-0.0052 v -1.8278 c 0,-0.31183 -0.25092,-0.56274 -0.56274,-0.56274 h -6.0068 c -0.27152,0 -0.48409,-0.01833 -0.66041,-0.06511 C 8.336991,5.65076 8.197241,5.57527 8.072521,5.4619 7.947801,5.34853 7.837871,5.1971 7.721131,4.99734 7.604391,4.79757 7.480771,4.54988 7.328401,4.24391 7.254911,4.0631 7.152281,3.93164 7.040051,3.83671 6.927821,3.74178 6.806201,3.68323 6.693311,3.64706 6.467531,3.57472 6.278361,3.5928 6.278361,3.5928 h -2.5533 C 3.714581,3.592225 3.704701,3.5897 3.694051,3.5897 h -0.91517 z"
       fill="#f05050"
       stroke-width="0.26458"
       id="path4" />
  </g>
  <path
     d="m 7.0057922,7.6245357 c -0.14122,-0.0078 -0.2542419,0.1189909 -0.2511597,0.2918278 h 1.897e-4 v 4.2163035 c 0,0.137822 0.1254358,0.263524 0.2635241,0.263524 h 0.9470416 l 0.707714,0.707942 c 0.077736,0.078 0.2066684,0.09895 0.3047047,0.04967 l 0.2635241,-0.131761 c 0.086434,-0.04217 0.1461231,-0.134394 0.1484928,-0.230579 V 11.84442 l 0.7164635,-0.71673 c 0.09619,-0.0975 0.09619,-0.272806 0,-0.37031 L 7.207602,7.7268751 C 7.1400723,7.659349 7.0700313,7.6279976 7.0058411,7.6244521 Z m 0.011317,0.2884991 2.8986855,3.0305042 -0.790572,0.790571 v 1.054095 L 8.8616984,12.919966 8.0711269,12.129396 H 7.0170321 Z"
     fill="#ffffff"
     id="path5-9"
     style="stroke-width:0.190215" />
</svg>
