<?xml version="1.0" encoding="UTF-8" standalone="no"?>
<svg
   width="64"
   height="64"
   version="1.1"
   viewBox="0 0 16.933 16.933"
   id="svg301"
   sodipodi:docname="pidgin.svg"
   xml:space="preserve"
   inkscape:version="1.3 (0e150ed6c4, 2023-07-21)"
   xmlns:inkscape="http://www.inkscape.org/namespaces/inkscape"
   xmlns:sodipodi="http://sodipodi.sourceforge.net/DTD/sodipodi-0.dtd"
   xmlns:xlink="http://www.w3.org/1999/xlink"
   xmlns="http://www.w3.org/2000/svg"
   xmlns:svg="http://www.w3.org/2000/svg"><defs
     id="defs305"><linearGradient
       inkscape:collect="always"
       id="linearGradient28138"><stop
         style="stop-color:#cb7642;stop-opacity:1"
         offset="0"
         id="stop28134" /><stop
         style="stop-color:#f3c293;stop-opacity:1"
         offset="0.38648036"
         id="stop33179" /><stop
         style="stop-color:#f28b30;stop-opacity:1"
         offset="0.63182157"
         id="stop35113" /><stop
         style="stop-color:#c35c31;stop-opacity:1"
         offset="1"
         id="stop28136" /></linearGradient><linearGradient
       inkscape:collect="always"
       id="linearGradient22295"><stop
         style="stop-color:#4c2956;stop-opacity:1"
         offset="0"
         id="stop22291" /><stop
         style="stop-color:#663c71;stop-opacity:1"
         offset="1"
         id="stop22293" /></linearGradient><linearGradient
       inkscape:collect="always"
       id="linearGradient13704"><stop
         style="stop-color:#462551;stop-opacity:1"
         offset="0"
         id="stop13700" /><stop
         style="stop-color:#72457e;stop-opacity:1"
         offset="0.32838112"
         id="stop18901" /><stop
         style="stop-color:#784a84;stop-opacity:1"
         offset="0.56781095"
         id="stop20490" /><stop
         style="stop-color:#60386b;stop-opacity:1"
         offset="1"
         id="stop13702" /></linearGradient><linearGradient
       inkscape:collect="always"
       xlink:href="#linearGradient13704"
       id="linearGradient13706"
       x1="7.7342486"
       y1="-21.508259"
       x2="7.7342486"
       y2="-4.4832044"
       gradientUnits="userSpaceOnUse"
       gradientTransform="matrix(0.97879323,0,0,0.97879323,1.1374544,25.782297)" /><radialGradient
       inkscape:collect="always"
       xlink:href="#linearGradient22295"
       id="radialGradient22297"
       cx="7.8147583"
       cy="-6.3028841"
       fx="7.8147583"
       fy="-6.3028841"
       r="5.4259263"
       gradientTransform="matrix(0.86239602,0,0,0.78438518,2.0841056,24.065366)"
       gradientUnits="userSpaceOnUse" /><linearGradient
       inkscape:collect="always"
       xlink:href="#linearGradient28138"
       id="linearGradient28140"
       x1="7.1929103"
       y1="-15.430085"
       x2="10.238373"
       y2="-15.430085"
       gradientUnits="userSpaceOnUse"
       gradientTransform="matrix(0.97879323,0,0,0.97879323,1.1374544,25.782297)" /><filter
       id="filter1057"
       x="-0.026999999"
       y="-0.026999999"
       width="1.054"
       height="1.054"
       color-interpolation-filters="sRGB"><feGaussianBlur
         stdDeviation="0.61875"
         id="feGaussianBlur864" /></filter><linearGradient
       id="linearGradient1053"
       x1="-127"
       x2="-72"
       y1="60"
       y2="5"
       gradientTransform="matrix(0.26457812,0,0,0.26457812,33.60142,-5.4499655)"
       gradientUnits="userSpaceOnUse"><stop
         stop-color="#32d7ff"
         offset="0"
         id="stop867" /><stop
         stop-color="#329bff"
         offset="1"
         id="stop869" /></linearGradient><filter
       height="1.054"
       y="-0.026999999"
       width="1.054"
       x="-0.026999999"
       id="filter1057-7"
       style="color-interpolation-filters:sRGB"
       inkscape:collect="always"><feGaussianBlur
         id="feGaussianBlur1059-0"
         stdDeviation="0.61875"
         inkscape:collect="always" /></filter><linearGradient
       gradientTransform="matrix(0.26457812,0,0,0.26457812,34.792023,-0.13493441)"
       gradientUnits="userSpaceOnUse"
       y2="5"
       x2="-72"
       y1="60"
       x1="-127"
       id="linearGradient1053-3"
       xlink:href="#linearGradient1051"
       inkscape:collect="always" /><linearGradient
       id="linearGradient1051"
       inkscape:collect="always"><stop
         id="stop1047"
         offset="0"
         style="stop-color:#dee0e2;stop-opacity:1" /><stop
         id="stop1049"
         offset="1"
         style="stop-color:#f1f3f5;stop-opacity:0.99607843" /></linearGradient></defs><sodipodi:namedview
     id="namedview303"
     pagecolor="#ffffff"
     bordercolor="#999999"
     borderopacity="1"
     inkscape:showpageshadow="0"
     inkscape:pageopacity="0"
     inkscape:pagecheckerboard="0"
     inkscape:deskcolor="#d1d1d1"
     showgrid="false"
     inkscape:zoom="6.3281251"
     inkscape:cx="-15.012345"
     inkscape:cy="64.474073"
     inkscape:window-width="1920"
     inkscape:window-height="989"
     inkscape:window-x="0"
     inkscape:window-y="0"
     inkscape:window-maximized="1"
     inkscape:current-layer="svg301" /><g
     id="g2"><rect
       style="opacity:0.3;fill:#141414;fill-opacity:1;stroke-width:2.74436;stroke-linecap:round;filter:url(#filter1057-7)"
       id="rect1055-9"
       width="55"
       height="55"
       x="4.4999995"
       y="4.4999995"
       ry="15"
       transform="scale(0.26457812)" /><rect
       ry="3.9686716"
       y="1.1906021"
       x="1.1906021"
       height="14.551796"
       width="14.551796"
       id="rect1045-3"
       style="fill:url(#linearGradient1053-3);fill-opacity:1;stroke-width:0.726098;stroke-linecap:round" /><path
       id="path565"
       style="fill:url(#radialGradient22297);fill-opacity:1;stroke:none;stroke-width:0.258968px;stroke-linecap:butt;stroke-linejoin:round;stroke-opacity:1"
       d="m 5.3757934,12.882164 c -0.4175104,0.434136 -2.2339083,1.9666 -2.2199758,2.176052 0.00209,0.03137 0.058364,0.113377 0.1483084,0.225822 0.5532179,0.291851 1.1838256,0.45836 1.8551474,0.45836 h 1.175099 c -0.0086,-0.0095 -0.022956,-0.02516 -0.031005,-0.03411 -0.037183,-0.04133 -0.068856,-0.07599 -0.093016,-0.103868 -0.02416,-0.02787 -0.040513,-0.04905 -0.049608,-0.06149 -0.00454,-0.0062 -0.00867,-0.01226 -0.011885,-0.0186 -0.00334,-0.0063 -0.00612,-0.01268 -0.00827,-0.01912 -0.00215,-0.0064 -0.0037,-0.01312 -0.00465,-0.01964 -9.883e-4,-0.0066 -0.00109,-0.01307 -0.00103,-0.01964 5.13e-5,-0.0066 4.943e-4,-0.01304 0.00155,-0.01964 0.00102,-0.0067 0.00274,-0.01303 0.00465,-0.01964 0.00382,-0.01325 0.00902,-0.0266 0.016019,-0.03979 0.00704,-0.01319 0.015724,-0.0268 0.025321,-0.03979 0.00955,-0.01299 0.020449,-0.02563 0.032039,-0.03824 0.011579,-0.01262 0.023655,-0.02461 0.03669,-0.03669 0.013035,-0.01208 0.026413,-0.02377 0.040307,-0.03514 0.027777,-0.02276 0.056995,-0.04402 0.084748,-0.06304 0.027753,-0.019 0.053886,-0.03565 0.076996,-0.04961 0.046219,-0.02793 0.079063,-0.04444 0.079063,-0.04444 0,0 -0.031633,-0.04263 -0.081647,-0.108519 C 6.4006294,14.905511 6.3320959,14.815993 6.2578951,14.720249 6.1836961,14.624499 6.1035816,14.523025 6.03104,14.43345 5.994776,14.38866 5.960251,14.34695 5.9292394,14.310463 c -0.031011,-0.03649 -0.058089,-0.06778 -0.080614,-0.09147 -0.022525,-0.02369 -0.043949,-0.04776 -0.063561,-0.07183 -0.00979,-0.01204 -0.019059,-0.02402 -0.027905,-0.03617 -0.00883,-0.01216 -0.017092,-0.0244 -0.024804,-0.03669 -0.00776,-0.0123 -0.014741,-0.02476 -0.021187,-0.03721 -0.00645,-0.01245 -0.012556,-0.02509 -0.01757,-0.03772 -0.00501,-0.01263 -0.00895,-0.02543 -0.012402,-0.03824 -0.00346,-0.01281 -0.0066,-0.02574 -0.00827,-0.03876 -0.00167,-0.01302 -0.00231,-0.02602 -0.00207,-0.03927 2.388e-4,-0.01323 0.00186,-0.02684 0.00413,-0.04031 0.00227,-0.01348 0.0058,-0.02659 0.010335,-0.04031 0.00454,-0.01372 0.010118,-0.02786 0.017053,-0.04186 0.00692,-0.014 0.014857,-0.02758 0.024287,-0.04186 0.00943,-0.01428 0.020429,-0.02933 0.032555,-0.04392 0.012116,-0.01458 0.025339,-0.02901 0.040307,-0.04392 0.014969,-0.01491 0.031631,-0.03023 0.049608,-0.04547 0.00895,-0.0076 0.016363,-0.01584 0.022737,-0.02429 0.00633,-0.0084 0.011034,-0.01712 0.014986,-0.02635 0.00394,-0.0092 0.00723,-0.01848 0.00878,-0.02842 0.00155,-0.0099 0.00157,-0.02044 0.00103,-0.03101 -5.884e-4,-0.01058 -0.00202,-0.02143 -0.00465,-0.03256 -0.00263,-0.01114 -0.00632,-0.02249 -0.010852,-0.03411 -0.00442,-0.01163 -0.00986,-0.02361 -0.016019,-0.03566 -0.00621,-0.01205 -0.012923,-0.02429 -0.02067,-0.03669 -0.00776,-0.0124 -0.016153,-0.02503 -0.025321,-0.03772 -0.00919,-0.01268 -0.019551,-0.02534 -0.029972,-0.03824 -0.020841,-0.02581 -0.043745,-0.0523 -0.068728,-0.07855 -0.024984,-0.02625 -0.05166,-0.05242 -0.07958,-0.07855 -0.02792,-0.02613 -0.057165,-0.05205 -0.086815,-0.07751 -0.029651,-0.02546 -0.059751,-0.05018 -0.089915,-0.07441 -0.029794,-0.02393 -0.059239,-0.04706 -0.088365,-0.06925 z m 6.2775296,0.02636 c -0.0018,0.006 -0.004,0.01161 -0.0057,0.01757 -0.0081,0.03006 -0.01466,0.06076 -0.01964,0.09147 -0.005,0.03071 -0.0078,0.06132 -0.0098,0.0925 -0.0019,0.03118 -0.0025,0.06257 -0.0016,0.09405 0.0011,0.03147 0.0032,0.06301 0.0072,0.09457 0.0039,0.03158 0.0097,0.06308 0.01654,0.09457 0.0068,0.03149 0.01465,0.06283 0.02429,0.09405 0.0097,0.03122 0.02067,0.06225 0.03307,0.09302 0.01241,0.03077 0.02621,0.06184 0.04134,0.09198 0.01512,0.03014 0.03184,0.05957 0.04961,0.08888 0.01777,0.02932 0.03699,0.05799 0.05736,0.0863 0.02038,0.02832 0.04167,0.05659 0.06459,0.08371 0.01146,0.01357 0.02201,0.02732 0.03101,0.04186 0.009,0.01455 0.01658,0.02954 0.02325,0.04496 0.0067,0.01544 0.01206,0.03132 0.01654,0.04754 0.0045,0.01623 0.0084,0.03318 0.01085,0.05012 0.0024,0.01693 0.0036,0.03412 0.0041,0.05168 4.95e-4,0.01755 2.25e-4,0.03565 -10e-4,0.05374 -0.0013,0.01808 -0.0037,0.03574 -0.0067,0.05426 -0.003,0.01852 -0.0065,0.03747 -0.01085,0.05633 -0.0045,0.01886 -0.0096,0.03773 -0.0155,0.05684 -0.0058,0.01912 -0.01256,0.0386 -0.01964,0.05788 -0.007,0.01928 -0.01458,0.03852 -0.02274,0.05788 -0.0082,0.01936 -0.0172,0.03854 -0.02635,0.05788 -0.0183,0.03868 -0.03805,0.07717 -0.05943,0.115236 -0.02137,0.03808 -0.04434,0.07592 -0.0677,0.112653 -0.02335,0.03674 -0.0476,0.07278 -0.07183,0.107484 -0.02423,0.03469 -0.04831,0.06783 -0.07235,0.09973 -0.02404,0.03189 -0.04804,0.06254 -0.0708,0.09095 -0.02275,0.0284 -0.04423,0.05489 -0.06459,0.07906 -0.04075,0.04833 -0.07552,0.08714 -0.10025,0.114203 -0.02472,0.02706 -0.03927,0.04186 -0.03927,0.04186 0,0 0.0094,-0.0044 0.02532,-0.01137 0.0079,-0.0035 0.01748,-0.0078 0.02842,-0.01188 0.01098,-0.0041 0.02292,-0.0079 0.03617,-0.01189 0.01325,-0.0039 0.02745,-0.0077 0.04237,-0.01085 0.01491,-0.003 0.03062,-0.0053 0.04651,-0.0067 0.0159,-0.0014 0.03183,-0.002 0.04806,-10e-4 0.01623,8.94e-4 0.03268,0.0028 0.04857,0.0067 0.0079,0.0019 0.01551,0.0049 0.02325,0.0078 0.0078,0.003 0.01529,0.0064 0.02274,0.01033 0.0074,0.0039 0.01566,0.0079 0.02274,0.01292 0.007,0.005 0.01354,0.01083 0.02015,0.01705 0.0067,0.0062 0.01304,0.01319 0.01912,0.02067 0.0061,0.0074 0.01155,0.01542 0.01705,0.02429 0.0055,0.009 0.01072,0.01808 0.0155,0.02842 0.0048,0.01038 0.009,0.02169 0.01292,0.03359 0.0039,0.01194 0.0077,0.02469 0.01085,0.03824 0.0031,0.01355 0.0057,0.0276 0.0078,0.04289 0.0021,0.0153 0.0037,0.03144 0.0047,0.04858 0.0011,0.01714 0.0021,0.03571 0.0021,0.05478 -2.3e-5,0.01906 -8.67e-4,0.03936 -0.0021,0.06046 -0.0013,0.02093 -0.0031,0.0426 -0.0057,0.06563 0.716846,-0.0036 1.385706,-0.197987 1.963666,-0.531224 0.02291,-0.06446 0.0267,-0.123013 0.0047,-0.173112 -0.186613,-0.423598 -0.569198,-0.807179 -1.206621,-1.260364 -0.407634,-0.289813 -0.725683,-0.571085 -0.902253,-0.868663 z" /><path
       id="path21803"
       style="fill:url(#linearGradient13706);fill-opacity:1;stroke:none;stroke-width:0.258968px;stroke-linecap:butt;stroke-linejoin:round;stroke-opacity:1"
       d="m 7.997804,4.6931612 c -0.3777685,0.00734 -0.6821155,0.047025 -0.6821155,0.047025 0,0 0.5156206,0.2507438 0.4552604,0.3922164 -0.060364,0.1414728 -0.9239564,0.051675 -0.9239564,0.051675 0,0 0.4916709,0.2248739 0.6624788,0.5859992 0.061796,0.1306541 -0.1400404,0.212386 -0.1400404,0.212386 0,0 -1.9057893,0.6643085 -1.9057893,2.2034397 0,1.5391323 0.1865144,4.3415735 -0.01757,4.6166815 -0.014205,0.01914 -0.039569,0.04711 -0.070795,0.07958 0.029126,0.02219 0.0591,0.04532 0.088882,0.06925 0.030164,0.02424 0.060276,0.04895 0.089915,0.07441 0.029651,0.02546 0.058378,0.05138 0.086298,0.07751 0.02792,0.02613 0.055114,0.0523 0.080097,0.07855 0.024983,0.02625 0.047887,0.05274 0.068728,0.07855 0.010385,0.01291 0.020816,0.02555 0.029972,0.03824 0.00919,0.01269 0.017574,0.02532 0.025321,0.03772 0.00776,0.0124 0.014487,0.02464 0.02067,0.03669 0.00621,0.01205 0.011531,0.02403 0.016019,0.03566 0.00442,0.01163 0.00823,0.02297 0.010852,0.03411 0.00263,0.01112 0.00405,0.02199 0.00465,0.03256 5.885e-4,0.01058 5.435e-4,0.02056 -0.00103,0.03049 -0.00155,0.0099 -0.00485,0.0197 -0.00878,0.02894 -0.00394,0.0092 -0.00864,0.01789 -0.014986,0.02635 -0.00633,0.0084 -0.013749,0.01668 -0.022737,0.02429 -0.017965,0.01524 -0.034652,0.03057 -0.049608,0.04547 -0.014969,0.01491 -0.028709,0.02933 -0.040823,0.04392 -0.012116,0.01458 -0.022609,0.02964 -0.032039,0.04392 -0.00943,0.01428 -0.017389,0.02786 -0.024287,0.04186 -0.00692,0.014 -0.013046,0.02814 -0.01757,0.04186 -0.00454,0.01372 -0.00743,0.02684 -0.00982,0.04031 -0.00227,0.01347 -0.00389,0.02707 -0.00413,0.04031 -2.387e-4,0.01323 3.952e-4,0.02625 0.00207,0.03927 0.00167,0.01302 0.00481,0.02595 0.00827,0.03876 0.00346,0.01281 0.0074,0.02561 0.012402,0.03824 0.00501,0.01263 0.010595,0.02526 0.017053,0.03772 0.00645,0.01245 0.013464,0.02492 0.021187,0.03721 0.00776,0.01229 0.015971,0.02453 0.024804,0.03669 0.00883,0.01216 0.018105,0.02413 0.027905,0.03617 0.019612,0.02408 0.041552,0.04815 0.064078,0.07183 0.022525,0.02369 0.049602,0.05498 0.080614,0.09147 0.031011,0.03649 0.065525,0.0782 0.1018006,0.122987 0.072539,0.08958 0.1521387,0.191054 0.2263383,0.286799 0.074198,0.09574 0.1427299,0.185255 0.1927493,0.251142 0.050015,0.06588 0.082164,0.108519 0.082164,0.108519 0,0 -0.032845,0.01651 -0.079063,0.04444 -0.023109,0.01397 -0.04976,0.03061 -0.077513,0.04961 -0.027753,0.019 -0.056454,0.04028 -0.084231,0.06304 -0.013894,0.01134 -0.027272,0.02254 -0.040307,0.03462 -0.013035,0.01208 -0.025604,0.0246 -0.037206,0.03721 -0.011579,0.01262 -0.021925,0.02526 -0.031522,0.03824 -0.00955,0.01299 -0.018314,0.02659 -0.025321,0.03979 -0.00704,0.01319 -0.012692,0.02655 -0.016536,0.03979 -0.00191,0.0067 -0.00317,0.01304 -0.00413,0.01964 -0.00102,0.0066 -0.00143,0.01307 -0.00155,0.01964 -5.14e-5,0.0066 4.49e-5,0.01313 0.00103,0.01964 9.884e-4,0.0066 0.00262,0.0132 0.00465,0.01964 0.00215,0.0064 0.00492,0.01278 0.00827,0.01912 0.00334,0.0063 0.00683,0.01238 0.011369,0.0186 0.00907,0.01243 0.025965,0.0331 0.050125,0.06098 0.02416,0.02787 0.055328,0.06306 0.092499,0.104385 0.00805,0.0089 0.022405,0.02459 0.031005,0.03411 h 5.4398712 c 0.0068,0 0.01339,-4.83e-4 0.02015,-5.16e-4 0.0025,-0.02302 0.0044,-0.04469 0.0057,-0.06563 0.0013,-0.02109 0.002,-0.0414 0.0021,-0.06046 2.2e-5,-0.01908 -9.93e-4,-0.03765 -0.0021,-0.05478 -0.0011,-0.01714 -0.0026,-0.03328 -0.0047,-0.04858 -0.0021,-0.0153 -0.0047,-0.02936 -0.0078,-0.04289 -0.0031,-0.01355 -0.0069,-0.02635 -0.01085,-0.03824 -0.0039,-0.01194 -0.0083,-0.02325 -0.01292,-0.03359 -0.0048,-0.01038 -0.01003,-0.01955 -0.0155,-0.02842 -0.0055,-0.009 -0.01095,-0.01732 -0.01705,-0.0248 -0.0061,-0.0074 -0.0125,-0.01395 -0.01912,-0.02015 -0.0067,-0.0062 -0.01307,-0.01204 -0.02015,-0.01705 -0.007,-0.005 -0.01477,-0.009 -0.02222,-0.01292 -0.0074,-0.0039 -0.01553,-0.0075 -0.02325,-0.01033 -0.0078,-0.003 -0.01529,-0.0058 -0.02325,-0.0078 -0.0159,-0.0041 -0.03233,-0.0059 -0.04857,-0.0067 -0.01623,-8.94e-4 -0.03217,-3.93e-4 -0.04806,0.001 -0.0159,0.0014 -0.0316,0.0038 -0.04651,0.0067 -0.01491,0.003 -0.02911,0.0069 -0.04237,0.01085 -0.01325,0.0039 -0.02524,0.0077 -0.03617,0.01189 -0.01098,0.0041 -0.02045,0.0085 -0.02842,0.01188 -0.0159,0.0069 -0.02532,0.01137 -0.02532,0.01137 0,0 0.01454,-0.0148 0.03927,-0.04186 0.02472,-0.02706 0.0595,-0.06587 0.10025,-0.114203 0.02038,-0.02417 0.04185,-0.05066 0.06459,-0.07906 0.02275,-0.0284 0.04676,-0.05904 0.0708,-0.09095 0.02404,-0.0319 0.04809,-0.06504 0.07235,-0.09973 0.02423,-0.03469 0.04848,-0.07126 0.07183,-0.108001 0.02335,-0.03674 0.04633,-0.07406 0.0677,-0.112136 0.02137,-0.03808 0.04113,-0.07655 0.05943,-0.115236 0.0092,-0.01934 0.01817,-0.03903 0.02635,-0.05839 0.0082,-0.01936 0.01567,-0.03808 0.02274,-0.05736 0.007,-0.01928 0.01381,-0.03876 0.01964,-0.05788 0.0058,-0.01912 0.01107,-0.03798 0.0155,-0.05684 0.0045,-0.01886 0.008,-0.03781 0.01085,-0.05633 0.003,-0.01852 0.0054,-0.0367 0.0067,-0.05478 0.0013,-0.01808 0.0015,-0.03618 10e-4,-0.05374 -4.94e-4,-0.01755 -0.0017,-0.03422 -0.0041,-0.05116 -0.0024,-0.01693 -0.0064,-0.03389 -0.01085,-0.05012 -0.0045,-0.01623 -0.0099,-0.03211 -0.01654,-0.04754 -0.0067,-0.01543 -0.01427,-0.03041 -0.02325,-0.04496 -0.009,-0.01454 -0.01954,-0.02881 -0.03101,-0.04237 -0.02293,-0.02712 -0.04422,-0.0549 -0.06459,-0.0832 -0.02038,-0.02832 -0.03959,-0.05698 -0.05736,-0.0863 -0.01779,-0.02932 -0.0345,-0.05926 -0.04961,-0.0894 -0.01512,-0.03014 -0.02894,-0.06069 -0.04134,-0.09147 -0.01241,-0.03077 -0.02292,-0.0618 -0.03256,-0.09302 -0.0097,-0.03122 -0.01797,-0.06255 -0.0248,-0.09405 -0.0068,-0.03149 -0.01257,-0.06301 -0.01654,-0.09457 -0.0039,-0.03158 -0.0062,-0.0631 -0.0072,-0.09457 -0.0011,-0.03147 -4.84e-4,-0.06287 0.0016,-0.09405 0.0019,-0.03119 0.0048,-0.06179 0.0098,-0.0925 0.005,-0.03072 0.01162,-0.06142 0.01964,-0.09147 0.0016,-0.006 0.0039,-0.01215 0.0057,-0.01809 -0.09954,-0.16775 -0.153993,-0.340422 -0.153993,-0.522955 0,-0.50634 0.251659,-2.4039406 0.251659,-2.4039406 0,0 1.325508,-0.4768274 0.635091,-2.0060396 0,0 -0.163872,-0.3045512 -0.760662,-0.651627 0,0 0.149601,-0.1669641 -0.429423,-0.6743641 -0.579024,-0.507401 -1.191635,-0.8500606 -1.191635,-0.8500606 0,0 -0.6826465,-0.9773038 -1.2965356,-1.0691644 C 8.4776158,4.6954078 8.2244648,4.6887372 7.997804,4.6931612 Z" /><ellipse
       style="fill:#ffffff;fill-opacity:1;fill-rule:evenodd;stroke:#8b5996;stroke-width:0.28239;stroke-linecap:round;stroke-linejoin:round;stroke-dasharray:none;stroke-opacity:1;paint-order:stroke fill markers"
       id="path1428"
       cx="7.327745"
       cy="8.6895008"
       rx="1.0901557"
       ry="1.0985137" /><ellipse
       style="fill:#ffffff;fill-opacity:1;fill-rule:evenodd;stroke:#8b5996;stroke-width:0.244531;stroke-linecap:round;stroke-linejoin:round;stroke-dasharray:none;stroke-opacity:1;paint-order:stroke fill markers"
       id="ellipse12409"
       cx="11.522398"
       cy="8.6895008"
       rx="0.86949003"
       ry="1.0327719" /><ellipse
       style="fill:#ece6e9;fill-opacity:1;fill-rule:evenodd;stroke:none;stroke-width:0.276577;stroke-linecap:round;stroke-linejoin:round;stroke-dasharray:none;stroke-opacity:1;paint-order:stroke fill markers"
       id="path39169"
       cx="9.7889357"
       cy="9.8142395"
       rx="0.86007047"
       ry="0.30941758" /><path
       style="fill:url(#linearGradient28140);fill-opacity:1;stroke:none;stroke-width:0.258968px;stroke-linecap:butt;stroke-linejoin:miter;stroke-opacity:1"
       d="M 10.964635,10.7848 9.9939838,11.85571 C 9.5864663,11.363728 8.6094255,11.026194 8.3644571,10.949075 8.1194876,10.871956 8.1860895,10.371507 8.1860895,10.371507 c 0,0 0.1604889,-0.217128 0.1959695,-0.02591 0.035476,0.191218 0.2159132,0.230927 0.6212594,0.223684 0.4053473,-0.0072 0.5211858,-0.473828 0.5173302,-0.787565 -0.00382,-0.3137384 0.2682855,-0.2768966 0.2682855,-0.2768966 0,0 0.2067984,-0.045504 0.2067984,0.3397175 0,0.3852261 0.6636205,0.5622831 1.0173955,0.5138591 0.353775,0.0549 -0.04849,0.426402 -0.04849,0.426402 z"
       id="path12411"
       sodipodi:nodetypes="scscssscsccs" /><ellipse
       style="fill:#000000;fill-opacity:1;fill-rule:evenodd;stroke:none;stroke-width:0.111955;stroke-linecap:round;stroke-linejoin:round;stroke-dasharray:none;stroke-opacity:1;paint-order:stroke fill markers"
       id="ellipse39171"
       cx="7.327745"
       cy="8.6895008"
       rx="0.4322015"
       ry="0.43551511" /><ellipse
       style="fill:#000000;fill-opacity:1;fill-rule:evenodd;stroke:none;stroke-width:0.0937891;stroke-linecap:round;stroke-linejoin:round;stroke-dasharray:none;stroke-opacity:1;paint-order:stroke fill markers"
       id="ellipse39173"
       cx="11.598541"
       cy="8.6895008"
       rx="0.33349049"
       ry="0.39611673" /></g></svg>
