<?xml version="1.0" encoding="UTF-8" standalone="no"?>
<svg
   xmlns:dc="http://purl.org/dc/elements/1.1/"
   xmlns:cc="http://creativecommons.org/ns#"
   xmlns:rdf="http://www.w3.org/1999/02/22-rdf-syntax-ns#"
   xmlns:svg="http://www.w3.org/2000/svg"
   xmlns="http://www.w3.org/2000/svg"
   xmlns:sodipodi="http://sodipodi.sourceforge.net/DTD/sodipodi-0.dtd"
   xmlns:inkscape="http://www.inkscape.org/namespaces/inkscape"
   width="64"
   height="64"
   version="1.1"
   viewBox="0 0 16.933 16.933"
   id="svg29"
   sodipodi:docname="folder-videos.svg"
   inkscape:version="1.0.1 (3bc2e813f5, 2020-09-07)">
  <sodipodi:namedview
     pagecolor="#ffffff"
     bordercolor="#666666"
     borderopacity="1"
     objecttolerance="10"
     gridtolerance="10"
     guidetolerance="10"
     inkscape:pageopacity="0"
     inkscape:pageshadow="2"
     inkscape:window-width="1920"
     inkscape:window-height="978"
     id="namedview31"
     showgrid="false"
     inkscape:zoom="6.4921875"
     inkscape:cx="12.975252"
     inkscape:cy="45.502965"
     inkscape:window-x="0"
     inkscape:window-y="0"
     inkscape:window-maximized="1"
     inkscape:current-layer="svg29" />
  <defs
     id="defs5">
    <filter
       id="filter2761"
       x="-.024"
       y="-.024"
       width="1.048"
       height="1.048"
       color-interpolation-filters="sRGB">
      <feGaussianBlur
         stdDeviation="0.14552168"
         id="feGaussianBlur2" />
    </filter>
    <filter
       color-interpolation-filters="sRGB"
       height="1.048"
       width="1.048"
       y="-.024"
       x="-.024"
       id="filter2761-5">
      <feGaussianBlur
         id="feGaussianBlur2-3"
         stdDeviation="0.14552168" />
    </filter>
  </defs>
  <metadata
     id="metadata7">
    <rdf:RDF>
      <cc:Work
         rdf:about="">
        <dc:format>image/svg+xml</dc:format>
        <dc:type
           rdf:resource="http://purl.org/dc/dcmitype/StillImage" />
        <dc:title></dc:title>
      </cc:Work>
    </rdf:RDF>
  </metadata>
  <path
     d="m10.709 1.05c4.405 0 5.0345 0.67282 5.0345 5.388v3.7761c0 4.7152-0.62954 5.388-5.0345 5.388h-4.4832c-4.405 0-5.0346-0.6728-5.0346-5.388v-3.7761c0-4.7152 0.62954-5.388 5.0346-5.388z"
     enable-background="new"
     fill="#141414"
     filter="url(#filter2761)"
     opacity=".3"
     id="path9" />
  <path
     d="m10.709 0.97579c4.405 0 5.0345 0.67282 5.0345 5.388v3.7761c0 4.7152-0.62954 5.388-5.0345 5.388h-4.4832c-4.405 0-5.0346-0.6728-5.0346-5.388v-3.7761c0-4.7152 0.62954-5.388 5.0346-5.388z"
     enable-background="new"
     fill="#f5aa1e"
     id="path11" />
  <path
     d="m10.389 2.0134c3.7768 0 4.3166 0.57688 4.3166 4.6197v3.2376c0 4.0428-0.53977 4.6197-4.3166 4.6197h-3.8439c-3.7768 0-4.3167-0.57686-4.3167-4.6197v-3.2376c0-4.0428 0.53977-4.6197 4.3167-4.6197z"
     enable-background="new"
     fill="#fafafa"
     stroke-width=".8574"
     id="path13" />
  <g
     transform="matrix(1.3006 0 0 1.34 -2.5449 -2.4261)"
     fill="#f08705"
     id="g23">
    <path
       d="m3.9856 6.9374c-0.00585 0.029589-0.00947 0.060448-0.015081 0.09077h8.9931c-0.0053-0.030317-0.0092-0.061202-0.01567-0.09077z"
       opacity=".6"
       stroke-width=".60512"
       style="paint-order:normal"
       id="path15" />
    <path
       d="m4.1332 4.9655c0.00521 0.030317 0.010173 0.060579 0.015962 0.09077h8.6371c0.0054-0.032616 0.01-0.058576 0.01482-0.09077z"
       opacity=".6"
       stroke-width=".59404"
       style="paint-order:normal"
       id="path17" />
    <path
       d="m3.9856 8.9093c-0.00585 0.029589-0.00947 0.060448-0.015081 0.09077h8.9931c-0.0053-0.030317-0.0092-0.061202-0.01567-0.09077z"
       opacity=".6"
       stroke-width=".60512"
       style="paint-order:normal"
       id="path19" />
    <path
       d="m3.9856 10.881c-0.00585 0.02959-0.00947 0.06045-0.015081 0.09077h8.9931c-0.0053-0.03032-0.0092-0.0612-0.01567-0.09077z"
       opacity=".6"
       stroke-width=".60512"
       style="paint-order:normal"
       id="path21" />
  </g>
  <path
     d="m3.4739 3.5929c-2.4228 0-2.2827-0.28116-2.2827 4.4191v3.0968c3e-6 3.8671 0.62974 4.4191 5.0347 4.4191h4.4834c4.405 0 5.0342-0.55196 5.0342-4.4191v-3.0968c0-2.3235 0.0505-2.2492-1.2779-2.2492h-5.2916c-1.0861 0-1.2361-0.29501-1.8456-1.5189-0.29396-0.72325-1.0501-0.65098-1.0501-0.65098z"
     enable-background="new"
     fill="#ffc841"
     stroke-width=".90562"
     id="path25" />
  <path
     style="stroke-width:0.889754"
     id="path27-6"
     fill="#ffffff"
     color="#000000"
     d="M 11.112281,8.0150502 V 13.30665 h -0.220477 v -0.2785 l -0.440964,7e-5 v 0.27843 H 6.48216 V 13.02814 H 6.041197 v 0.2785 H 5.820719 V 8.0150402 h 0.220478 v 0.41775 l 0.440963,-6.96e-5 v -0.41768 h 3.96868 v 0.41769 l 0.440964,6.96e-5 v -0.41775 z m -0.881911,0.27837 H 6.702646 l 5e-6,2.2281998 h 3.527724 z m 0.661442,0.55714 h -0.440964 v 0.41775 h 0.440964 z m -4.409636,0 H 6.041213 v 0.41775 h 0.440963 z m 4.409636,0.83551 H 10.450848 V 10.10382 h 0.440964 z m -4.409636,0 H 6.041213 V 10.10382 h 0.440963 z m 4.409636,0.8355098 h -0.440964 v 0.41775 h 0.440964 z m -4.409636,0 H 6.041213 v 0.41775 h 0.440963 z m 3.748202,0.27837 H 6.702654 l -5e-6,2.2283 h 3.527724 z m 0.661434,0.55714 h -0.440964 v 0.41775 h 0.440964 z m -4.409636,0 H 6.041213 v 0.41775 h 0.440963 z m 4.409636,0.83551 h -0.440964 v 0.41775 h 0.440964 z m -4.409636,0 H 6.041213 v 0.41775 h 0.440963 z" />
</svg>
