<?xml version="1.0" encoding="UTF-8" standalone="no"?>
<svg
   xmlns:dc="http://purl.org/dc/elements/1.1/"
   xmlns:cc="http://creativecommons.org/ns#"
   xmlns:rdf="http://www.w3.org/1999/02/22-rdf-syntax-ns#"
   xmlns:svg="http://www.w3.org/2000/svg"
   xmlns="http://www.w3.org/2000/svg"
   xmlns:sodipodi="http://sodipodi.sourceforge.net/DTD/sodipodi-0.dtd"
   xmlns:inkscape="http://www.inkscape.org/namespaces/inkscape"
   width="64"
   height="64"
   version="1.1"
   viewBox="0 0 16.933 16.933"
   id="svg41"
   sodipodi:docname="folder-image-people.svg"
   inkscape:version="1.0.1 (3bc2e813f5, 2020-09-07)">
  <sodipodi:namedview
     pagecolor="#ffffff"
     bordercolor="#666666"
     borderopacity="1"
     objecttolerance="10"
     gridtolerance="10"
     guidetolerance="10"
     inkscape:pageopacity="0"
     inkscape:pageshadow="2"
     inkscape:window-width="1920"
     inkscape:window-height="978"
     id="namedview43"
     showgrid="false"
     inkscape:zoom="4.5906698"
     inkscape:cx="9.7259148"
     inkscape:cy="51.418116"
     inkscape:window-x="0"
     inkscape:window-y="0"
     inkscape:window-maximized="1"
     inkscape:current-layer="svg41" />
  <defs
     id="defs5">
    <filter
       id="filter2761"
       x="-.024"
       y="-.024"
       width="1.048"
       height="1.048"
       color-interpolation-filters="sRGB">
      <feGaussianBlur
         stdDeviation="0.14552168"
         id="feGaussianBlur2" />
    </filter>
  </defs>
  <metadata
     id="metadata7">
    <rdf:RDF>
      <cc:Work
         rdf:about="">
        <dc:format>image/svg+xml</dc:format>
        <dc:type
           rdf:resource="http://purl.org/dc/dcmitype/StillImage" />
        <dc:title></dc:title>
      </cc:Work>
    </rdf:RDF>
  </metadata>
  <path
     d="m10.709 1.05c4.405 0 5.0345 0.67282 5.0345 5.388v3.7761c0 4.7152-0.62954 5.388-5.0345 5.388h-4.4832c-4.405 0-5.0346-0.6728-5.0346-5.388v-3.7761c0-4.7152 0.62954-5.388 5.0346-5.388z"
     enable-background="new"
     fill="#141414"
     filter="url(#filter2761)"
     opacity=".3"
     id="path9" />
  <path
     d="m10.709 0.97579c4.405 0 5.0345 0.67282 5.0345 5.388v3.7761c0 4.7152-0.62954 5.388-5.0345 5.388h-4.4832c-4.405 0-5.0346-0.6728-5.0346-5.388v-3.7761c0-4.7152 0.62954-5.388 5.0346-5.388z"
     enable-background="new"
     fill="#f5aa1e"
     id="path11" />
  <path
     d="m10.389 2.0134c3.7768 0 4.3166 0.57688 4.3166 4.6197v3.2376c0 4.0428-0.53977 4.6197-4.3166 4.6197h-3.8439c-3.7768 0-4.3167-0.57686-4.3167-4.6197v-3.2376c0-4.0428 0.53977-4.6197 4.3167-4.6197z"
     enable-background="new"
     fill="#fafafa"
     stroke-width=".8574"
     id="path13" />
  <g
     transform="matrix(1.3006 0 0 1.34 -2.5449 -2.4261)"
     fill="#f08705"
     id="g23">
    <path
       d="m3.9856 6.9374c-0.00585 0.029589-0.00947 0.060448-0.015081 0.09077h8.9931c-0.0053-0.030317-0.0092-0.061202-0.01567-0.09077z"
       opacity=".6"
       stroke-width=".60512"
       style="paint-order:normal"
       id="path15" />
    <path
       d="m4.1332 4.9655c0.00521 0.030317 0.010173 0.060579 0.015962 0.09077h8.6371c0.0054-0.032616 0.01-0.058576 0.01482-0.09077z"
       opacity=".6"
       stroke-width=".59404"
       style="paint-order:normal"
       id="path17" />
    <path
       d="m3.9856 8.9093c-0.00585 0.029589-0.00947 0.060448-0.015081 0.09077h8.9931c-0.0053-0.030317-0.0092-0.061202-0.01567-0.09077z"
       opacity=".6"
       stroke-width=".60512"
       style="paint-order:normal"
       id="path19" />
    <path
       d="m3.9856 10.881c-0.00585 0.02959-0.00947 0.06045-0.015081 0.09077h8.9931c-0.0053-0.03032-0.0092-0.0612-0.01567-0.09077z"
       opacity=".6"
       stroke-width=".60512"
       style="paint-order:normal"
       id="path21" />
  </g>
  <path
     d="m3.4739 3.5929c-2.4228 0-2.2827-0.28116-2.2827 4.4191v3.0968c3e-6 3.8671 0.62974 4.4191 5.0347 4.4191h4.4834c4.405 0 5.0342-0.55196 5.0342-4.4191v-3.0968c0-2.3235 0.0505-2.2492-1.2779-2.2492h-5.2916c-1.0861 0-1.2361-0.29501-1.8456-1.5189-0.29396-0.72325-1.0501-0.65098-1.0501-0.65098z"
     enable-background="new"
     fill="#ffc841"
     stroke-width=".90562"
     id="path25" />
  <path
     id="rect967"
     style="opacity:1;fill:#ffffff;fill-opacity:1;stroke-width:2;stroke-linecap:round"
     d="M 34.25 31.761719 C 31.122946 31.761719 28.434464 33.565648 27.248047 36.148438 C 26.61349 35.656184 25.814521 35.363281 24.949219 35.363281 C 22.910993 35.363281 21.253293 36.989984 21.201172 39.015625 C 19.097294 39.804693 17.599609 41.833484 17.599609 44.212891 C 17.599609 47.023629 19.690076 49.346651 22.400391 49.712891 L 22.400391 49.761719 L 41.599609 49.761719 L 41.599609 49.753906 C 44.276626 49.598602 46.400391 47.377942 46.400391 44.662109 C 46.400391 42.042921 44.424708 39.885221 41.882812 39.595703 C 41.893773 39.436015 41.900391 39.275577 41.900391 39.113281 C 41.900376 35.053993 38.47499 31.763672 34.25 31.763672 L 34.25 31.761719 z "
     transform="scale(0.26457812)" />
</svg>
