<?xml version="1.0" encoding="UTF-8" standalone="no"?>
<svg
   xmlns:dc="http://purl.org/dc/elements/1.1/"
   xmlns:cc="http://creativecommons.org/ns#"
   xmlns:rdf="http://www.w3.org/1999/02/22-rdf-syntax-ns#"
   xmlns:svg="http://www.w3.org/2000/svg"
   xmlns="http://www.w3.org/2000/svg"
   xmlns:sodipodi="http://sodipodi.sourceforge.net/DTD/sodipodi-0.dtd"
   xmlns:inkscape="http://www.inkscape.org/namespaces/inkscape"
   inkscape:version="1.0 (4035a4fb49, 2020-05-01)"
   sodipodi:docname="folder-root.svg"
   id="svg37"
   version="1.1"
   height="64"
   width="64">
  <metadata
     id="metadata41">
    <rdf:RDF>
      <cc:Work
         rdf:about="">
        <dc:format>image/svg+xml</dc:format>
        <dc:type
           rdf:resource="http://purl.org/dc/dcmitype/StillImage" />
        <dc:title></dc:title>
      </cc:Work>
    </rdf:RDF>
  </metadata>
  <sodipodi:namedview
     inkscape:current-layer="svg37"
     inkscape:window-maximized="1"
     inkscape:window-y="65"
     inkscape:window-x="0"
     inkscape:cy="10.745208"
     inkscape:cx="4.4390446"
     inkscape:zoom="2.5950818"
     showgrid="false"
     id="namedview39"
     inkscape:window-height="903"
     inkscape:window-width="1920"
     inkscape:pageshadow="2"
     inkscape:pageopacity="0"
     guidetolerance="10"
     gridtolerance="10"
     objecttolerance="10"
     borderopacity="1"
     bordercolor="#666666"
     pagecolor="#ffffff"
     inkscape:document-rotation="0" />
  <defs
     id="defs19">
    <linearGradient
       gradientUnits="userSpaceOnUse"
       y2="1082.6"
       y1="1070.2"
       x2="-26.201"
       x1="-26.201"
       id="o">
      <stop
         id="stop2"
         offset="0"
         stop-color="#5c5c5c" />
      <stop
         id="stop4"
         offset="1"
         stop-color="#646464" />
    </linearGradient>
    <linearGradient
       gradientUnits="userSpaceOnUse"
       y2="1139.8"
       y1="1081.4"
       x2="-9.9119997"
       x1="-9.9119997"
       id="n">
      <stop
         id="stop7"
         offset="0"
         stop-color="#343434" />
      <stop
         id="stop9"
         offset=".5"
         stop-color="#404040" />
      <stop
         id="stop11"
         offset="1"
         stop-color="#353333" />
    </linearGradient>
    <linearGradient
       gradientUnits="userSpaceOnUse"
       y2="1140.2"
       y1="1138.4"
       x2="-9.6169996"
       x1="-9.6169996"
       id="d">
      <stop
         id="stop14"
         offset="0"
         stop-opacity=".046784" />
      <stop
         id="stop16"
         offset="1" />
    </linearGradient>
    <filter
       id="filter2761"
       x="-0.024"
       y="-0.024"
       width="1.048"
       height="1.048"
       color-interpolation-filters="sRGB">
      <feGaussianBlur
         stdDeviation="0.14552168"
         id="feGaussianBlur866" />
    </filter>
    <filter
       id="filter2761-3"
       x="-.024"
       y="-.024"
       width="1.048"
       height="1.048"
       color-interpolation-filters="sRGB">
      <feGaussianBlur
         stdDeviation="0.14552168"
         id="feGaussianBlur908" />
    </filter>
    <filter
       id="filter2761-36"
       x="-.024"
       y="-.024"
       width="1.048"
       height="1.048"
       color-interpolation-filters="sRGB">
      <feGaussianBlur
         stdDeviation="0.14552168"
         id="feGaussianBlur856" />
    </filter>
  </defs>
  <g
     transform="matrix(3.779602,0,0,3.779602,-0.00321238,0.53084538)"
     id="g896">
    <path
       d="m 10.709,1.05 c 4.405,0 5.0345,0.67282 5.0345,5.388 v 3.7761 c 0,4.7152 -0.62954,5.388 -5.0345,5.388 H 6.2258 c -4.405,0 -5.0346,-0.6728 -5.0346,-5.388 V 6.438 c 0,-4.7152 0.62954,-5.388 5.0346,-5.388 z"
       enable-background="new"
       fill="#141414"
       filter="url(#filter2761)"
       opacity="0.3"
       id="path863"
       style="filter:url(#filter2761-36)" />
    <path
       d="m 10.709,0.97579 c 4.405,0 5.0345,0.67282 5.0345,5.388 v 3.7761 c 0,4.7152 -0.62954,5.388 -5.0345,5.388 H 6.2258 c -4.405,0 -5.0346,-0.6728 -5.0346,-5.388 v -3.7761 c 0,-4.7152 0.62954,-5.388 5.0346,-5.388 z"
       enable-background="new"
       fill="#dc5a8c"
       id="path865" />
    <path
       d="m 10.389,2.0134 c 3.7768,0 4.3166,0.57688 4.3166,4.6197 v 3.2376 c 0,4.0428 -0.53977,4.6197 -4.3166,4.6197 H 6.5451 c -3.7768,0 -4.3167,-0.57686 -4.3167,-4.6197 V 6.6331 c 0,-4.0428 0.53977,-4.6197 4.3167,-4.6197 z"
       enable-background="new"
       fill="#fafafa"
       stroke-width="0.8574"
       id="path867" />
    <g
       transform="matrix(1.3006,0,0,1.34,-2.5449,-2.4261)"
       fill="#ff6ea0"
       id="g877">
      <path
         d="M 3.9856,6.9374 C 3.97975,6.966989 3.97613,6.997848 3.970519,7.02817 h 8.9931 c -0.0053,-0.030317 -0.0092,-0.061202 -0.01567,-0.09077 z"
         opacity="0.6"
         stroke-width="0.60512"
         style="paint-order:normal"
         id="path869" />
      <path
         d="m 4.1332,4.9655 c 0.00521,0.030317 0.010173,0.060579 0.015962,0.09077 h 8.6371 c 0.0054,-0.032616 0.01,-0.058576 0.01482,-0.09077 z"
         opacity="0.6"
         stroke-width="0.59404"
         style="paint-order:normal"
         id="path871" />
      <path
         d="M 3.9856,8.9093 C 3.97975,8.938889 3.97613,8.969748 3.970519,9.00007 h 8.9931 c -0.0053,-0.030317 -0.0092,-0.061202 -0.01567,-0.09077 z"
         opacity="0.6"
         stroke-width="0.60512"
         style="paint-order:normal"
         id="path873-7" />
      <path
         d="m 3.9856,10.881 c -0.00585,0.02959 -0.00947,0.06045 -0.015081,0.09077 h 8.9931 c -0.0053,-0.03032 -0.0092,-0.0612 -0.01567,-0.09077 z"
         opacity="0.6"
         stroke-width="0.60512"
         style="paint-order:normal"
         id="path875-5" />
    </g>
    <path
       d="m 3.4739,3.5929 c -2.4228,0 -2.2827,-0.28116 -2.2827,4.4191 v 3.0968 c 3e-6,3.8671 0.62974,4.4191 5.0347,4.4191 h 4.4834 c 4.405,0 5.0342,-0.55196 5.0342,-4.4191 V 8.012 c 0,-2.3235 0.0505,-2.2492 -1.2779,-2.2492 H 9.174 C 8.0879,5.7628 7.9379,5.46779 7.3284,4.2439 7.03444,3.52065 6.2783,3.59292 6.2783,3.59292 Z"
       enable-background="new"
       fill="#ff6ea0"
       stroke-width="0.90562"
       id="path879-3" />
  </g>
  <g
     style="fill:#f5f5f5;fill-opacity:1"
     transform="translate(0,-41.587485)"
     id="g982">
    <path
       id="path976"
       style="opacity:1;fill:#f5f5f5;stroke-linecap:round;fill-opacity:1"
       d="m 32,71.880859 -10,20 h 3.333984 l 10,-20 z" />
    <path
       id="rect970"
       style="opacity:1;fill:#f5f5f5;stroke-linecap:round;fill-opacity:1"
       d="m 32,90.214844 v 1.666015 h 10 v -1.666015 z" />
  </g>
</svg>
