<?xml version="1.0" encoding="UTF-8" standalone="no"?>
<svg
   xmlns:dc="http://purl.org/dc/elements/1.1/"
   xmlns:cc="http://creativecommons.org/ns#"
   xmlns:rdf="http://www.w3.org/1999/02/22-rdf-syntax-ns#"
   xmlns:svg="http://www.w3.org/2000/svg"
   xmlns="http://www.w3.org/2000/svg"
   xmlns:xlink="http://www.w3.org/1999/xlink"
   xmlns:sodipodi="http://sodipodi.sourceforge.net/DTD/sodipodi-0.dtd"
   xmlns:inkscape="http://www.inkscape.org/namespaces/inkscape"
   width="64"
   height="64"
   version="1.1"
   viewBox="0 0 16.933 16.933"
   id="svg32"
   sodipodi:docname="user-trash-full.svg"
   inkscape:version="1.0 (4035a4fb49, 2020-05-01)">
  <defs
     id="defs36">
    <linearGradient
       inkscape:collect="always"
       id="linearGradient2741">
      <stop
         style="stop-color:#d8d9dd;stop-opacity:1;"
         offset="0"
         id="stop2737" />
      <stop
         style="stop-color:#eceeef;stop-opacity:0.92156863"
         offset="1"
         id="stop2739" />
    </linearGradient>
    <linearGradient
       inkscape:collect="always"
       id="linearGradient2733">
      <stop
         style="stop-color:#d7d8db;stop-opacity:0.92000002"
         offset="0"
         id="stop2729" />
      <stop
         style="stop-color:#eceeef;stop-opacity:0.92156863"
         offset="1"
         id="stop2731" />
    </linearGradient>
    <linearGradient
       inkscape:collect="always"
       id="linearGradient2703">
      <stop
         style="stop-color:#d8d9dd;stop-opacity:1;"
         offset="0"
         id="stop2699" />
      <stop
         style="stop-color:#f0f1f3;stop-opacity:0.92156863"
         offset="1"
         id="stop2701" />
    </linearGradient>
    <linearGradient
       inkscape:collect="always"
       id="linearGradient2685">
      <stop
         style="stop-color:#d8d9dc;stop-opacity:0.92156863"
         offset="0"
         id="stop2681" />
      <stop
         id="stop2689"
         offset="0.21963745"
         style="stop-color:#e2e3e6;stop-opacity:0.92000002" />
      <stop
         style="stop-color:#dadde0;stop-opacity:0.92000002"
         offset="0.75068599"
         id="stop2697" />
      <stop
         style="stop-color:#f0f1f3;stop-opacity:0.92000002"
         offset="1"
         id="stop2683" />
    </linearGradient>
    <linearGradient
       inkscape:collect="always"
       id="linearGradient2546">
      <stop
         style="stop-color:#d7d8db;stop-opacity:0.92156863"
         offset="0"
         id="stop2542" />
      <stop
         style="stop-color:#eceeef;stop-opacity:0.91764706"
         offset="1"
         id="stop2544" />
    </linearGradient>
    <linearGradient
       inkscape:collect="always"
       id="linearGradient2538">
      <stop
         style="stop-color:#d7d8db;stop-opacity:0.92156863"
         offset="0"
         id="stop2534" />
      <stop
         style="stop-color:#eceeef;stop-opacity:0.91764706"
         offset="1"
         id="stop2536" />
    </linearGradient>
    <linearGradient
       inkscape:collect="always"
       id="linearGradient2530">
      <stop
         style="stop-color:#d8d9dc;stop-opacity:0.92156863"
         offset="0"
         id="stop2526" />
      <stop
         style="stop-color:#f0f1f3;stop-opacity:0.91764706"
         offset="1"
         id="stop2528" />
    </linearGradient>
    <linearGradient
       inkscape:collect="always"
       id="linearGradient2518">
      <stop
         style="stop-color:#d8d9dc;stop-opacity:0.92156863"
         offset="0"
         id="stop2514" />
      <stop
         id="stop2522"
         offset="0.19083995"
         style="stop-color:#e2e3e6;stop-opacity:0.91764706" />
      <stop
         style="stop-color:#dadde0;stop-opacity:0.91764706"
         offset="0.70130521"
         id="stop2524" />
      <stop
         style="stop-color:#f0f1f3;stop-opacity:0.91764706"
         offset="1"
         id="stop2516" />
    </linearGradient>
    <pattern
       xlink:href="#i"
       patternTransform="matrix(0.02486505,0,0,0.02486505,41.703649,11.6479)"
       id="bo" />
    <pattern
       xlink:href="#g"
       patternTransform="matrix(0.02486505,0,0,0.02486505,43.632938,12.749379)"
       id="bp" />
    <pattern
       xlink:href="#h"
       patternTransform="translate(-4.5558e-6 -1.5878e-5)"
       id="f" />
    <linearGradient
       id="b">
      <stop
         id="stop877"
         offset="0"
         stop-color="#d9dadd" />
      <stop
         id="stop879"
         offset=".25424"
         stop-color="#e3e4e6" />
      <stop
         id="stop881"
         offset=".74364"
         stop-color="#d8dbde" />
      <stop
         id="stop883"
         offset="1"
         stop-color="#f7f7f8" />
    </linearGradient>
    <clipPath
       id="bl">
      <path
         id="path886"
         opacity=".691"
         fill="#fff"
         color="#000000"
         d="m45.102 268 3.7755 30.736c-5e-6 2.8428 5.3769 5.1475 12.01 5.1475 6.6332 0 12.011-2.3047 12.011-5.1475l3.7419-30.736c-7.94e-4 2.1771-7.0606 3.9419-15.769 3.9419-8.7084 2e-5 -15.768-1.7648-15.769-3.9419zm31.538 0c0-0.0854-0.01476-0.17017-0.03617-0.25425 0.02299 0.0846 0.03506 0.16942 0.03617 0.25425z" />
    </clipPath>
    <filter
       color-interpolation-filters="sRGB"
       height="1.3745"
       width="1.1689"
       y="-.18727"
       x="-.084444"
       id="at">
      <feGaussianBlur
         id="feGaussianBlur889"
         stdDeviation="1.0791004" />
    </filter>
    <clipPath
       id="bj">
      <path
         id="path892"
         opacity=".691"
         fill="#fff"
         color="#000000"
         d="m45.102 268 3.7755 30.736c-5e-6 2.8428 5.3769 5.1475 12.01 5.1475 6.6332 0 12.011-2.3047 12.011-5.1475l3.7419-30.736c-7.94e-4 2.1771-7.0606 3.9419-15.769 3.9419-8.7084 2e-5 -15.768-1.7648-15.769-3.9419zm31.538 0c0-0.0854-0.01476-0.17017-0.03617-0.25425 0.02299 0.0846 0.03506 0.16942 0.03617 0.25425z" />
    </clipPath>
    <filter
       color-interpolation-filters="sRGB"
       height="2.1812"
       width="1.7332"
       y="-.59062"
       x="-.36661"
       id="as">
      <feGaussianBlur
         id="feGaussianBlur895"
         stdDeviation="1.6947276" />
    </filter>
    <linearGradient
       xlink:href="#b"
       gradientUnits="userSpaceOnUse"
       y2="713.63"
       y1="713.63"
       x2="289.66"
       x1="170.46"
       id="r" />
    <linearGradient
       xlink:href="#a"
       gradientUnits="userSpaceOnUse"
       gradientTransform="matrix(3.7795,0,0,3.7795,82.118,-750.16)"
       y2="211.6"
       y1="217.79"
       x2="-3.3545"
       x1="-.68508"
       id="k" />
    <linearGradient
       id="a">
      <stop
         id="stop900"
         offset="0"
         stop-color="#fff" />
      <stop
         id="stop902"
         offset="1"
         stop-opacity="0"
         stop-color="#fff" />
    </linearGradient>
    <filter
       color-interpolation-filters="sRGB"
       height="1.1393"
       width="1.1711"
       y="-.069658"
       x="-.085574"
       id="c">
      <feGaussianBlur
         id="feGaussianBlur905"
         stdDeviation="0.93845522" />
    </filter>
    <filter
       color-interpolation-filters="sRGB"
       height="1.2118"
       width="1.1602"
       y="-.1059"
       x="-.080085"
       id="ah">
      <feGaussianBlur
         id="feGaussianBlur908"
         stdDeviation="0.20389857" />
    </filter>
    <filter
       color-interpolation-filters="sRGB"
       height="1.2118"
       width="1.1602"
       y="-.1059"
       x="-.080085"
       id="aj">
      <feGaussianBlur
         id="feGaussianBlur911"
         stdDeviation="0.20389857" />
    </filter>
    <filter
       color-interpolation-filters="sRGB"
       height="1.5725"
       width="1.7528"
       y="-.28625"
       x="-.37642"
       id="ae">
      <feGaussianBlur
         id="feGaussianBlur914"
         stdDeviation="0.46610163" />
    </filter>
    <filter
       color-interpolation-filters="sRGB"
       height="1.5725"
       width="1.7528"
       y="-.28625"
       x="-.37642"
       id="ad">
      <feGaussianBlur
         id="feGaussianBlur917"
         stdDeviation="0.46610163" />
    </filter>
    <filter
       color-interpolation-filters="sRGB"
       height="1.2118"
       width="1.1602"
       y="-.1059"
       x="-.080085"
       id="ai">
      <feGaussianBlur
         id="feGaussianBlur920"
         stdDeviation="0.20389857" />
    </filter>
    <linearGradient
       xlink:href="#a"
       gradientUnits="userSpaceOnUse"
       y2="211.6"
       y1="217.79"
       x2="-3.3545"
       x1="-.68508"
       id="l" />
    <radialGradient
       xlink:href="#a"
       gradientUnits="userSpaceOnUse"
       gradientTransform="matrix(1.5723,1.7816,-0.76333,0.67366,158.91,65.624)"
       r="1.1949"
       cy="209.31"
       cx="1.4014"
       id="e" />
    <filter
       color-interpolation-filters="sRGB"
       height="1.1405"
       width="1.1084"
       y="-.07024"
       x="-.054222"
       id="aa">
      <feGaussianBlur
         id="feGaussianBlur925"
         stdDeviation="0.053991352" />
    </filter>
    <filter
       color-interpolation-filters="sRGB"
       height="1.5725"
       width="1.7528"
       y="-.28625"
       x="-.37642"
       id="ac">
      <feGaussianBlur
         id="feGaussianBlur928"
         stdDeviation="0.46610163" />
    </filter>
    <filter
       color-interpolation-filters="sRGB"
       height="1.2118"
       width="1.1602"
       y="-.1059"
       x="-.080085"
       id="ag">
      <feGaussianBlur
         id="feGaussianBlur931"
         stdDeviation="0.20389857" />
    </filter>
    <filter
       color-interpolation-filters="sRGB"
       height="1.5725"
       width="1.7528"
       y="-.28625"
       x="-.37642"
       id="ab">
      <feGaussianBlur
         id="feGaussianBlur934"
         stdDeviation="0.46610163" />
    </filter>
    <filter
       color-interpolation-filters="sRGB"
       height="1.2118"
       width="1.1602"
       y="-.1059"
       x="-.080085"
       id="af">
      <feGaussianBlur
         id="feGaussianBlur937"
         stdDeviation="0.20389857" />
    </filter>
    <filter
       color-interpolation-filters="sRGB"
       height="2.5679"
       width="1.4863"
       y="-.78397"
       x="-.24316"
       id="z">
      <feGaussianBlur
         id="feGaussianBlur940"
         stdDeviation="0.89514091" />
    </filter>
    <filter
       color-interpolation-filters="sRGB"
       height="2.5679"
       width="1.4863"
       y="-.78397"
       x="-.24316"
       id="v">
      <feGaussianBlur
         id="feGaussianBlur943"
         stdDeviation="0.89514091" />
    </filter>
    <filter
       color-interpolation-filters="sRGB"
       height="2.5679"
       width="1.4863"
       y="-.78397"
       x="-.24316"
       id="y">
      <feGaussianBlur
         id="feGaussianBlur946"
         stdDeviation="0.89514091" />
    </filter>
    <filter
       color-interpolation-filters="sRGB"
       height="2.5679"
       width="1.4863"
       y="-.78397"
       x="-.24316"
       id="u">
      <feGaussianBlur
         id="feGaussianBlur949"
         stdDeviation="0.89514091" />
    </filter>
    <filter
       color-interpolation-filters="sRGB"
       height="1.4873"
       width="1.3201"
       y="-.24367"
       x="-.16005"
       id="t">
      <feGaussianBlur
         id="feGaussianBlur952"
         stdDeviation="0.5727377" />
    </filter>
    <filter
       color-interpolation-filters="sRGB"
       height="2.5679"
       width="1.4863"
       y="-.78397"
       x="-.24316"
       id="x">
      <feGaussianBlur
         id="feGaussianBlur955"
         stdDeviation="0.89514091" />
    </filter>
    <filter
       color-interpolation-filters="sRGB"
       height="2.5679"
       width="1.4863"
       y="-.78397"
       x="-.24316"
       id="w">
      <feGaussianBlur
         id="feGaussianBlur958"
         stdDeviation="0.89514091" />
    </filter>
    <clipPath
       id="ax">
      <path
         id="path961"
         fill-rule="evenodd"
         fill="#b0afad"
         d="m-16.962 206.64c-1.1694-0.69689-2.6576-1.9844-2.6576-3.9333 0-1.1694 0.75595-1.7127 0.75595-1.7127-0.05906 0.61421-0.7087 1.7954 0.12993 2.4805 0.2008 0.3071 0.43703 0.33073 1.1103 0.3071 0.67327-0.0236 0.53153 0.17718 0.53153 0.17718s0.16536-0.74414 0.33073-0.93313c0.16536-0.18899 0.86226-1.7009 0.86226-1.7009s3.3191-1.6891 3.5553-1.7954c0.23624-0.1063 1.193-0.24805 1.193-0.24805s3.39 1.193 3.5553 1.3584c0.16536 0.16536 0.37798 1.2638 0.37798 1.2638l-0.42522 1.6418-3.0829 1.1576 1.571 3.3782-3.3545 0.22443s-3.6616-0.29529-4.453-1.6655z" />
    </clipPath>
    <clipPath
       id="az">
      <path
         id="path964"
         fill-rule="evenodd"
         fill="#b0afad"
         d="m-16.962 206.64c-1.1694-0.69689-2.6576-1.9844-2.6576-3.9333 0-1.1694 0.75595-1.7127 0.75595-1.7127-0.05906 0.61421-0.7087 1.7954 0.12993 2.4805 0.2008 0.3071 0.43703 0.33073 1.1103 0.3071 0.67327-0.0236 0.53153 0.17718 0.53153 0.17718s0.16536-0.74414 0.33073-0.93313c0.16536-0.18899 0.86226-1.7009 0.86226-1.7009s3.3191-1.6891 3.5553-1.7954c0.23624-0.1063 1.193-0.24805 1.193-0.24805s3.39 1.193 3.5553 1.3584c0.16536 0.16536 0.37798 1.2638 0.37798 1.2638l-0.42522 1.6418-3.0829 1.1576 1.571 3.3782-3.3545 0.22443s-3.6616-0.29529-4.453-1.6655z" />
    </clipPath>
    <clipPath
       id="ay">
      <path
         id="path967"
         fill-rule="evenodd"
         fill="#b0afad"
         d="m-16.962 206.64c-1.1694-0.69689-2.6576-1.9844-2.6576-3.9333 0-1.1694 0.75595-1.7127 0.75595-1.7127-0.05906 0.61421-0.7087 1.7954 0.12993 2.4805 0.2008 0.3071 0.43703 0.33073 1.1103 0.3071 0.67327-0.0236 0.53153 0.17718 0.53153 0.17718s0.16536-0.74414 0.33073-0.93313c0.16536-0.18899 0.86226-1.7009 0.86226-1.7009s3.3191-1.6891 3.5553-1.7954c0.23624-0.1063 1.193-0.24805 1.193-0.24805s3.39 1.193 3.5553 1.3584c0.16536 0.16536 0.37798 1.2638 0.37798 1.2638l-0.42522 1.6418-3.0829 1.1576 1.571 3.3782-3.3545 0.22443s-3.6616-0.29529-4.453-1.6655z" />
    </clipPath>
    <clipPath
       id="bh">
      <path
         id="path970"
         fill-rule="evenodd"
         fill="#dedede"
         d="m-14.611 203.49c4.2995 1.6064 4.3704 4.3113 5.3035 4.3113 0.93313 0 0.83863 0.4961 1.3229-0.16536 0.48428-0.66146 1.6064-1.8308 1.7245-2.8939 0.11812-1.0631 1.0276-0.57878 1.0158-0.14174-0.011811 0.43703-0.30711 3.3545-0.2008 3.579s0.25986 0.34254 0.35435-0.43704c0.094494-0.77957 0.11812-1.9844 0.31892-2.1379 0.2008-0.15356 1.4292-0.8977 1.6655-1.7481 0 0 0.03543-0.42523-0.68508-0.67328-0.72052-0.24804 1.7127-2.2915 1.7127-2.2915s3.4845 1.6064 4.3704 2.5277c0 0-0.33707 1.2262 0.08054 1.2262s0.60136 1.0858-0.31738 0.86862-1.6203-0.61806-2.1883 0.0167-0.81851 1.2361-1.1192 1.353-0.70158 0.31738-0.68488-0.53454-0.11693 0.70158-0.3675 0.66817c-0.25056-0.0334-0.15034 0.40091-1.6871 0.45102 0 0 0.90204 0.3508 0.96885 0.88534 0.06682 0.53454 0.11693 0.55124 0.11693 0.55124s1.921 0.16705 2.0045-0.3842c0.08352-0.55124 0.55124-1.3029 0.7517-1.5535 0.20045-0.25057 1.1025-1.2862 1.9544-1.1693 0 0-1.5535 0.98555-2.1716 2.3553-0.61806 1.3698 4.3932 1.0023 4.3932 1.0023s2.6727-0.70158 2.9734-1.6537 0.3675-4.6271-0.21716-5.2285c-0.89971-0.75589-2.0809-1.4646-3.5219-0.54328-1.441 0.92131-0.25986 1.3702-2.2206-0.35435-1.9608-1.7245-3.7561-2.5041-3.7561-2.5041s-2.2915 3.0947-2.3387 2.764c-0.047247-0.33073-0.56696-2.0552-0.82682-0.77957 0 0-0.75595-0.28348-0.68508 0.37797 0.070871 0.66146-1.0158-0.7087-1.0158-0.7087s0.094494 1.8899-0.37798 2.1261c0 0 1.9844-0.51971 1.252 0.54335-0.73233 1.063-1.5592 1.1339-2.8348 1.2048-1.2757 0.0709-2.1025-0.66145-2.7403-0.85044s-1.1576-0.75595-2.3269-0.0591z" />
    </clipPath>
    <filter
       color-interpolation-filters="sRGB"
       height="1.2429"
       width="1.3464"
       y="-.12147"
       x="-.17321"
       id="aq">
      <feGaussianBlur
         id="feGaussianBlur973"
         stdDeviation="0.18354709" />
    </filter>
    <clipPath
       id="bg">
      <path
         id="path976"
         fill-rule="evenodd"
         fill="#dedede"
         d="m-14.611 203.49c4.2995 1.6064 4.3704 4.3113 5.3035 4.3113 0.93313 0 0.83863 0.4961 1.3229-0.16536 0.48428-0.66146 1.6064-1.8308 1.7245-2.8939 0.11812-1.0631 1.0276-0.57878 1.0158-0.14174-0.011811 0.43703-0.30711 3.3545-0.2008 3.579s0.25986 0.34254 0.35435-0.43704c0.094494-0.77957 0.11812-1.9844 0.31892-2.1379 0.2008-0.15356 1.4292-0.8977 1.6655-1.7481 0 0 0.03543-0.42523-0.68508-0.67328-0.72052-0.24804 1.7127-2.2915 1.7127-2.2915s3.4845 1.6064 4.3704 2.5277c0 0-0.33707 1.2262 0.08054 1.2262s0.60136 1.0858-0.31738 0.86862-1.6203-0.61806-2.1883 0.0167-0.81851 1.2361-1.1192 1.353-0.70158 0.31738-0.68488-0.53454-0.11693 0.70158-0.3675 0.66817c-0.25056-0.0334-0.15034 0.40091-1.6871 0.45102 0 0 0.90204 0.3508 0.96885 0.88534 0.06682 0.53454 0.11693 0.55124 0.11693 0.55124s1.921 0.16705 2.0045-0.3842c0.08352-0.55124 0.55124-1.3029 0.7517-1.5535 0.20045-0.25057 1.1025-1.2862 1.9544-1.1693 0 0-1.5535 0.98555-2.1716 2.3553-0.61806 1.3698 4.3932 1.0023 4.3932 1.0023s2.6727-0.70158 2.9734-1.6537 0.3675-4.6271-0.21716-5.2285c-0.89971-0.75589-2.0809-1.4646-3.5219-0.54328-1.441 0.92131-0.25986 1.3702-2.2206-0.35435-1.9608-1.7245-3.7561-2.5041-3.7561-2.5041s-2.2915 3.0947-2.3387 2.764c-0.047247-0.33073-0.56696-2.0552-0.82682-0.77957 0 0-0.75595-0.28348-0.68508 0.37797 0.070871 0.66146-1.0158-0.7087-1.0158-0.7087s0.094494 1.8899-0.37798 2.1261c0 0 1.9844-0.51971 1.252 0.54335-0.73233 1.063-1.5592 1.1339-2.8348 1.2048-1.2757 0.0709-2.1025-0.66145-2.7403-0.85044s-1.1576-0.75595-2.3269-0.0591z" />
    </clipPath>
    <filter
       color-interpolation-filters="sRGB"
       height="1.0657"
       width="1.1077"
       y="-.03284"
       x="-.053854"
       id="ap">
      <feGaussianBlur
         id="feGaussianBlur979"
         stdDeviation="0.097488778" />
    </filter>
    <clipPath
       id="bf">
      <path
         id="path982"
         fill-rule="evenodd"
         fill="#dedede"
         d="m-14.611 203.49c4.2995 1.6064 4.3704 4.3113 5.3035 4.3113 0.93313 0 0.83863 0.4961 1.3229-0.16536 0.48428-0.66146 1.6064-1.8308 1.7245-2.8939 0.11812-1.0631 1.0276-0.57878 1.0158-0.14174-0.011811 0.43703-0.30711 3.3545-0.2008 3.579s0.25986 0.34254 0.35435-0.43704c0.094494-0.77957 0.11812-1.9844 0.31892-2.1379 0.2008-0.15356 1.4292-0.8977 1.6655-1.7481 0 0 0.03543-0.42523-0.68508-0.67328-0.72052-0.24804 1.7127-2.2915 1.7127-2.2915s3.4845 1.6064 4.3704 2.5277c0 0-0.33707 1.2262 0.08054 1.2262s0.60136 1.0858-0.31738 0.86862-1.6203-0.61806-2.1883 0.0167-0.81851 1.2361-1.1192 1.353-0.70158 0.31738-0.68488-0.53454-0.11693 0.70158-0.3675 0.66817c-0.25056-0.0334-0.15034 0.40091-1.6871 0.45102 0 0 0.90204 0.3508 0.96885 0.88534 0.06682 0.53454 0.11693 0.55124 0.11693 0.55124s1.921 0.16705 2.0045-0.3842c0.08352-0.55124 0.55124-1.3029 0.7517-1.5535 0.20045-0.25057 1.1025-1.2862 1.9544-1.1693 0 0-1.5535 0.98555-2.1716 2.3553-0.61806 1.3698 4.3932 1.0023 4.3932 1.0023s2.6727-0.70158 2.9734-1.6537 0.3675-4.6271-0.21716-5.2285c-0.89971-0.75589-2.0809-1.4646-3.5219-0.54328-1.441 0.92131-0.25986 1.3702-2.2206-0.35435-1.9608-1.7245-3.7561-2.5041-3.7561-2.5041s-2.2915 3.0947-2.3387 2.764c-0.047247-0.33073-0.56696-2.0552-0.82682-0.77957 0 0-0.75595-0.28348-0.68508 0.37797 0.070871 0.66146-1.0158-0.7087-1.0158-0.7087s0.094494 1.8899-0.37798 2.1261c0 0 1.9844-0.51971 1.252 0.54335-0.73233 1.063-1.5592 1.1339-2.8348 1.2048-1.2757 0.0709-2.1025-0.66145-2.7403-0.85044s-1.1576-0.75595-2.3269-0.0591z" />
    </clipPath>
    <filter
       color-interpolation-filters="sRGB"
       height="1.3506"
       width="1.4304"
       y="-.1753"
       x="-.21518"
       id="ao">
      <feGaussianBlur
         id="feGaussianBlur985"
         stdDeviation="0.13798654" />
    </filter>
    <clipPath
       id="be">
      <path
         id="path988"
         fill-rule="evenodd"
         fill="#dedede"
         d="m-14.611 203.49c4.2995 1.6064 4.3704 4.3113 5.3035 4.3113 0.93313 0 0.83863 0.4961 1.3229-0.16536 0.48428-0.66146 1.6064-1.8308 1.7245-2.8939 0.11812-1.0631 1.0276-0.57878 1.0158-0.14174-0.011811 0.43703-0.30711 3.3545-0.2008 3.579s0.25986 0.34254 0.35435-0.43704c0.094494-0.77957 0.11812-1.9844 0.31892-2.1379 0.2008-0.15356 1.4292-0.8977 1.6655-1.7481 0 0 0.03543-0.42523-0.68508-0.67328-0.72052-0.24804 1.7127-2.2915 1.7127-2.2915s3.4845 1.6064 4.3704 2.5277c0 0-0.33707 1.2262 0.08054 1.2262s0.60136 1.0858-0.31738 0.86862-1.6203-0.61806-2.1883 0.0167-0.81851 1.2361-1.1192 1.353-0.70158 0.31738-0.68488-0.53454-0.11693 0.70158-0.3675 0.66817c-0.25056-0.0334-0.15034 0.40091-1.6871 0.45102 0 0 0.90204 0.3508 0.96885 0.88534 0.06682 0.53454 0.11693 0.55124 0.11693 0.55124s1.921 0.16705 2.0045-0.3842c0.08352-0.55124 0.55124-1.3029 0.7517-1.5535 0.20045-0.25057 1.1025-1.2862 1.9544-1.1693 0 0-1.5535 0.98555-2.1716 2.3553-0.61806 1.3698 4.3932 1.0023 4.3932 1.0023s2.6727-0.70158 2.9734-1.6537 0.3675-4.6271-0.21716-5.2285c-0.89971-0.75589-2.0809-1.4646-3.5219-0.54328-1.441 0.92131-0.25986 1.3702-2.2206-0.35435-1.9608-1.7245-3.7561-2.5041-3.7561-2.5041s-2.2915 3.0947-2.3387 2.764c-0.047247-0.33073-0.56696-2.0552-0.82682-0.77957 0 0-0.75595-0.28348-0.68508 0.37797 0.070871 0.66146-1.0158-0.7087-1.0158-0.7087s0.094494 1.8899-0.37798 2.1261c0 0 1.9844-0.51971 1.252 0.54335-0.73233 1.063-1.5592 1.1339-2.8348 1.2048-1.2757 0.0709-2.1025-0.66145-2.7403-0.85044s-1.1576-0.75595-2.3269-0.0591z" />
    </clipPath>
    <filter
       color-interpolation-filters="sRGB"
       height="1.1645"
       width="1.0858"
       y="-.08227"
       x="-.042908"
       id="an">
      <feGaussianBlur
         id="feGaussianBlur991"
         stdDeviation="0.17003381" />
    </filter>
    <clipPath
       id="bd">
      <path
         id="path994"
         fill-rule="evenodd"
         fill="#dedede"
         d="m-14.611 203.49c4.2995 1.6064 4.3704 4.3113 5.3035 4.3113 0.93313 0 0.83863 0.4961 1.3229-0.16536 0.48428-0.66146 1.6064-1.8308 1.7245-2.8939 0.11812-1.0631 1.0276-0.57878 1.0158-0.14174-0.011811 0.43703-0.30711 3.3545-0.2008 3.579s0.25986 0.34254 0.35435-0.43704c0.094494-0.77957 0.11812-1.9844 0.31892-2.1379 0.2008-0.15356 1.4292-0.8977 1.6655-1.7481 0 0 0.03543-0.42523-0.68508-0.67328-0.72052-0.24804 1.7127-2.2915 1.7127-2.2915s3.4845 1.6064 4.3704 2.5277c0 0-0.33707 1.2262 0.08054 1.2262s0.60136 1.0858-0.31738 0.86862-1.6203-0.61806-2.1883 0.0167-0.81851 1.2361-1.1192 1.353-0.70158 0.31738-0.68488-0.53454-0.11693 0.70158-0.3675 0.66817c-0.25056-0.0334-0.15034 0.40091-1.6871 0.45102 0 0 0.90204 0.3508 0.96885 0.88534 0.06682 0.53454 0.11693 0.55124 0.11693 0.55124s1.921 0.16705 2.0045-0.3842c0.08352-0.55124 0.55124-1.3029 0.7517-1.5535 0.20045-0.25057 1.1025-1.2862 1.9544-1.1693 0 0-1.5535 0.98555-2.1716 2.3553-0.61806 1.3698 4.3932 1.0023 4.3932 1.0023s2.6727-0.70158 2.9734-1.6537 0.3675-4.6271-0.21716-5.2285c-0.89971-0.75589-2.0809-1.4646-3.5219-0.54328-1.441 0.92131-0.25986 1.3702-2.2206-0.35435-1.9608-1.7245-3.7561-2.5041-3.7561-2.5041s-2.2915 3.0947-2.3387 2.764c-0.047247-0.33073-0.56696-2.0552-0.82682-0.77957 0 0-0.75595-0.28348-0.68508 0.37797 0.070871 0.66146-1.0158-0.7087-1.0158-0.7087s0.094494 1.8899-0.37798 2.1261c0 0 1.9844-0.51971 1.252 0.54335-0.73233 1.063-1.5592 1.1339-2.8348 1.2048-1.2757 0.0709-2.1025-0.66145-2.7403-0.85044s-1.1576-0.75595-2.3269-0.0591z" />
    </clipPath>
    <filter
       color-interpolation-filters="sRGB"
       height="1.1524"
       width="1.1527"
       y="-.076177"
       x="-.076365"
       id="am">
      <feGaussianBlur
         id="feGaussianBlur997"
         stdDeviation="0.22924756" />
    </filter>
    <clipPath
       id="bc">
      <path
         id="path1000"
         fill-rule="evenodd"
         fill="#dedede"
         d="m-55.223 402.47c16.25 6.0714 16.518 16.295 20.045 16.295 3.5268 0 3.1696 1.875 5-0.62498 1.8304-2.5 6.0714-6.9196 6.5179-10.938 0.44643-4.0179 3.8839-2.1875 3.8393-0.53571-0.04464 1.6518-1.1607 12.679-0.75893 13.527s0.98214 1.2946 1.3393-1.6518c0.35714-2.9464 0.44643-7.5 1.2054-8.0803 0.75893-0.58039 5.4018-3.3929 6.2946-6.6072 0 0 0.13391-1.6072-2.5893-2.5447-2.7232-0.93747 6.4732-8.6607 6.4732-8.6607s13.17 6.0714 16.518 9.5536c0 0-1.274 4.6345 0.3044 4.6345s2.2728 4.1037-1.1996 3.283c-3.4724-0.82076-6.124-2.336-8.2706 0.0631s-3.0936 4.672-4.23 5.1139-2.6517 1.1996-2.5885-2.0203c0.063118-3.2198-0.44194 2.6516-1.389 2.5254-0.94702-0.12624-0.56821 1.5152-6.3766 1.7046 0 0 3.4093 1.3259 3.6618 3.3462 0.25255 2.0203 0.44194 2.0834 0.44194 2.0834s7.2605 0.63137 7.5761-1.4521c0.31567-2.0834 2.0834-4.9245 2.8411-5.8715 0.75761-0.94703 4.1669-4.8614 7.3867-4.4194 0 0-5.8715 3.7249-8.2075 8.902-2.336 5.177 16.604 3.7881 16.604 3.7881s10.102-2.6516 11.238-6.2503c1.1364-3.5987 1.389-17.488-0.82075-19.761-3.4005-2.8569-7.8648-5.5355-13.311-2.0533-5.4464 3.4821-0.98214 5.1786-8.3929-1.3393-7.4107-6.5179-14.196-9.4643-14.196-9.4643s-8.6607 11.696-8.8393 10.446c-0.17857-1.25-2.1429-7.7678-3.125-2.9464 0 0-2.8571-1.0714-2.5893 1.4286 0.26786 2.5-3.8393-2.6786-3.8393-2.6786s0.35714 7.1428-1.4286 8.0357c0 0 7.5-1.9643 4.7321 2.0536-2.7679 4.0178-5.8929 4.2857-10.714 4.5535-4.8214 0.26797-7.9464-2.5-10.357-3.2143s-4.375-2.8571-8.7946-0.22337z" />
    </clipPath>
    <filter
       color-interpolation-filters="sRGB"
       height="1.2481"
       width="1.395"
       y="-.12406"
       x="-.19752"
       id="al">
      <feGaussianBlur
         id="feGaussianBlur1003"
         stdDeviation="0.2430634" />
    </filter>
    <clipPath
       id="bb">
      <path
         id="path1006"
         fill-rule="evenodd"
         fill="#dedede"
         d="m-14.611 203.49c4.2995 1.6064 4.3704 4.3113 5.3035 4.3113 0.93313 0 0.83863 0.4961 1.3229-0.16536 0.48428-0.66146 1.6064-1.8308 1.7245-2.8939 0.11812-1.0631 1.0276-0.57878 1.0158-0.14174-0.011811 0.43703-0.30711 3.3545-0.2008 3.579s0.25986 0.34254 0.35435-0.43704c0.094494-0.77957 0.11812-1.9844 0.31892-2.1379 0.2008-0.15356 1.4292-0.8977 1.6655-1.7481 0 0 0.03543-0.42523-0.68508-0.67328-0.72052-0.24804 1.7127-2.2915 1.7127-2.2915s3.4845 1.6064 4.3704 2.5277c0 0-0.33707 1.2262 0.08054 1.2262s0.60136 1.0858-0.31738 0.86862-1.6203-0.61806-2.1883 0.0167-0.81851 1.2361-1.1192 1.353-0.70158 0.31738-0.68488-0.53454-0.11693 0.70158-0.3675 0.66817c-0.25056-0.0334-0.15034 0.40091-1.6871 0.45102 0 0 0.90204 0.3508 0.96885 0.88534 0.06682 0.53454 0.11693 0.55124 0.11693 0.55124s1.921 0.16705 2.0045-0.3842c0.08352-0.55124 0.55124-1.3029 0.7517-1.5535 0.20045-0.25057 1.1025-1.2862 1.9544-1.1693 0 0-1.5535 0.98555-2.1716 2.3553-0.61806 1.3698 4.3932 1.0023 4.3932 1.0023s2.6727-0.70158 2.9734-1.6537 0.3675-4.6271-0.21716-5.2285c-0.89971-0.75589-2.0809-1.4646-3.5219-0.54328-1.441 0.92131-0.25986 1.3702-2.2206-0.35435-1.9608-1.7245-3.7561-2.5041-3.7561-2.5041s-2.2915 3.0947-2.3387 2.764c-0.047247-0.33073-0.56696-2.0552-0.82682-0.77957 0 0-0.75595-0.28348-0.68508 0.37797 0.070871 0.66146-1.0158-0.7087-1.0158-0.7087s0.094494 1.8899-0.37798 2.1261c0 0 1.9844-0.51971 1.252 0.54335-0.73233 1.063-1.5592 1.1339-2.8348 1.2048-1.2757 0.0709-2.1025-0.66145-2.7403-0.85044s-1.1576-0.75595-2.3269-0.0591z" />
    </clipPath>
    <filter
       color-interpolation-filters="sRGB"
       height="1.2943"
       width="1.2394"
       y="-.14714"
       x="-.11969"
       id="ak">
      <feGaussianBlur
         id="feGaussianBlur1009"
         stdDeviation="0.12848643" />
    </filter>
    <clipPath
       id="ba">
      <path
         id="path1012"
         fill-rule="evenodd"
         fill="#b0afad"
         d="m-16.962 206.64c-1.1694-0.69689-2.6576-1.9844-2.6576-3.9333 0-1.1694 0.75595-1.7127 0.75595-1.7127-0.05906 0.61421-0.7087 1.7954 0.12993 2.4805 0.2008 0.3071 0.43703 0.33073 1.1103 0.3071 0.67327-0.0236 0.53153 0.17718 0.53153 0.17718s0.16536-0.74414 0.33073-0.93313c0.16536-0.18899 0.86226-1.7009 0.86226-1.7009s3.3191-1.6891 3.5553-1.7954c0.23624-0.1063 1.193-0.24805 1.193-0.24805s3.39 1.193 3.5553 1.3584c0.16536 0.16536 0.37798 1.2638 0.37798 1.2638l-0.42522 1.6418-3.0829 1.1576 1.571 3.3782-3.3545 0.22443s-3.6616-0.29529-4.453-1.6655z" />
    </clipPath>
    <clipPath
       id="bi">
      <g
         id="g1021"
         transform="translate(-3.4018 -18.615)">
        <path
           id="path1015"
           opacity=".915"
           fill="url(#r)"
           color="#000000"
           d="m170.46 646.3 14.27 116.17c-2e-5 10.744 20.322 19.455 45.393 19.455s45.395-8.7107 45.395-19.455l14.143-116.17c-3e-3 8.2284-26.686 14.899-59.6 14.898-32.914 8e-5 -59.597-6.67-59.6-14.898zm119.2 0c0-0.3229-0.0558-0.64315-0.13672-0.96094 0.0869 0.31986 0.13251 0.64034 0.13672 0.96094z"
           transform="matrix(.26458 0 0 .26458 0 97)" />
        <path
           id="path1017"
           opacity=".729"
           filter="url(#at)"
           fill-rule="evenodd"
           fill="#fff"
           clip-path="url(#bl)"
           d="m46.505 302.14c7.684-6.0136 8.7531-2.8063 14.767-2.205 6.0136 0.60135 15.903-4.2763 15.903-4.2763l-1.0023 13.631s-28.531 2.0713-29.667-7.1495z" />
        <path
           id="path1019"
           opacity=".483"
           filter="url(#as)"
           fill-rule="evenodd"
           fill="#a4a4a4"
           clip-path="url(#bj)"
           d="m60.737 305.42c6.7486-6.3476 8.1517-7.4836 10.758-1.6704 2.6059 5.8131-10.758 1.6704-10.758 1.6704z" />
      </g>
    </clipPath>
    <filter
       color-interpolation-filters="sRGB"
       height="1.0639"
       width="1.4806"
       y="-.031949"
       x="-.24031"
       id="ar">
      <feGaussianBlur
         id="feGaussianBlur1024"
         stdDeviation="0.50623594" />
    </filter>
    <clipPath
       id="bm">
      <path
         id="path1027"
         opacity=".691"
         fill="#fff"
         color="#000000"
         d="m45.102 268 3.7755 30.736c-5e-6 2.8428 5.3769 5.1475 12.01 5.1475 6.6332 0 12.011-2.3047 12.011-5.1475l3.7419-30.736c-7.94e-4 2.1771-7.0606 3.9419-15.769 3.9419-8.7084 2e-5 -15.768-1.7648-15.769-3.9419zm31.538 0c0-0.0854-0.01476-0.17017-0.03617-0.25425 0.02299 0.0846 0.03506 0.16942 0.03617 0.25425z" />
    </clipPath>
    <filter
       color-interpolation-filters="sRGB"
       height="1.3745"
       width="1.1689"
       y="-.18727"
       x="-.084444"
       id="au">
      <feGaussianBlur
         id="feGaussianBlur1030"
         stdDeviation="1.0791004" />
    </filter>
    <clipPath
       id="bk">
      <path
         id="path1033"
         opacity=".691"
         fill="#fff"
         color="#000000"
         d="m45.102 268 3.7755 30.736c-5e-6 2.8428 5.3769 5.1475 12.01 5.1475 6.6332 0 12.011-2.3047 12.011-5.1475l3.7419-30.736c-7.94e-4 2.1771-7.0606 3.9419-15.769 3.9419-8.7084 2e-5 -15.768-1.7648-15.769-3.9419zm31.538 0c0-0.0854-0.01476-0.17017-0.03617-0.25425 0.02299 0.0846 0.03506 0.16942 0.03617 0.25425z" />
    </clipPath>
    <filter
       color-interpolation-filters="sRGB"
       height="2.1812"
       width="1.7332"
       y="-.59062"
       x="-.36661"
       id="d">
      <feGaussianBlur
         id="feGaussianBlur1036"
         stdDeviation="1.6947276" />
    </filter>
    <linearGradient
       gradientUnits="userSpaceOnUse"
       gradientTransform="matrix(0.10327777,0,0,0.10327777,9.1462235,-64.889862)"
       y2="704.73"
       y1="704.73"
       x2="289.66"
       x1="170.46"
       id="s">
      <stop
         id="stop1039"
         offset="0"
         stop-color="#dcdde0" />
      <stop
         id="stop1041"
         offset=".25424"
         stop-color="#e3e4e6" />
      <stop
         id="stop1043"
         offset=".74364"
         stop-color="#d8dbde" />
      <stop
         id="stop1045"
         offset="1"
         stop-color="#e1e1e5" />
    </linearGradient>
    <linearGradient
       xlink:href="#b"
       gradientUnits="userSpaceOnUse"
       gradientTransform="matrix(0.10327777,0,0,0.10327777,9.1462235,-64.889862)"
       y2="713.63"
       y1="713.63"
       x2="289.66"
       x1="170.46"
       id="j" />
    <pattern
       patternUnits="userSpaceOnUse"
       patternTransform="matrix(.25862 0 0 .25862 40.717 233.84)"
       height="169.71596"
       width="495.11253"
       id="i">
      <path
         id="path1049"
         opacity=".729"
         filter="url(#au)"
         fill-rule="evenodd"
         fill="#fff"
         clip-path="url(#bm)"
         d="m46.505 302.14c7.684-6.0136 8.7531-2.8063 14.767-2.205 6.0136 0.60135 15.903-4.2763 15.903-4.2763l-1.0023 13.631s-28.531 2.0713-29.667-7.1495z"
         transform="matrix(15.699 0 0 15.699 -708.04 -4600.9)" />
    </pattern>
    <pattern
       patternUnits="userSpaceOnUse"
       patternTransform="matrix(.25862 0 0 .25862 87.684 245.3)"
       height="125.41462"
       width="301.87741"
       id="h">
      <path
         id="path1052"
         opacity=".483"
         filter="url(#d)"
         fill-rule="evenodd"
         fill="#a4a4a4"
         clip-path="url(#bk)"
         d="m60.737 305.42c6.7486-6.3476 8.1517-7.4836 10.758-1.6704 2.6059 5.8131-10.758 1.6704-10.758 1.6704z"
         transform="matrix(15.699 0 0 15.699 -889.65 -4645.2)" />
    </pattern>
    <pattern
       patternUnits="userSpaceOnUse"
       patternTransform="matrix(.25862 0 0 .25862 87.684 245.3)"
       height="125.41463"
       width="301.8774"
       id="g">
      <rect
         id="rect1055"
         fill="url(#f)"
         height="125.41"
         width="301.88" />
    </pattern>
    <linearGradient
       gradientUnits="userSpaceOnUse"
       gradientTransform="matrix(4.1648,0,0,4.1648,126.22,-812.53)"
       y2="207.18"
       y1="207.18"
       x2="-5.0417"
       x1="-8.6403"
       id="q">
      <stop
         id="stop1058"
         offset="0"
         stop-color="#99662e" />
      <stop
         id="stop1060"
         offset="1"
         stop-color="#b67937" />
    </linearGradient>
    <linearGradient
       gradientUnits="userSpaceOnUse"
       gradientTransform="matrix(4.1648,0,0,4.1648,126.22,-812.53)"
       y2="205.26"
       y1="202.91"
       x2="-4.1513"
       x1="-7.6835"
       id="p">
      <stop
         id="stop1063"
         offset="0"
         stop-color="#77d743" />
      <stop
         id="stop1065"
         offset="1"
         stop-color="#254a12" />
    </linearGradient>
    <linearGradient
       gradientUnits="userSpaceOnUse"
       gradientTransform="matrix(4.1648,0,0,4.1648,126.22,-812.53)"
       y2="204.85"
       y1="203.74"
       x2="-9.916"
       x1="-9.8639"
       id="o">
      <stop
         id="stop1068"
         offset="0"
         stop-color="#3cd0f2" />
      <stop
         id="stop1070"
         offset="1"
         stop-color="#0eacd0" />
    </linearGradient>
    <linearGradient
       gradientUnits="userSpaceOnUse"
       gradientTransform="matrix(4.1648,0,0,4.1648,126.22,-812.53)"
       y2="205.46"
       y1="205.46"
       x2="-5.0417"
       x1="-7.6187"
       id="n">
      <stop
         id="stop1073"
         offset="0"
         stop-color="#872c1f" />
      <stop
         id="stop1075"
         offset="1"
         stop-color="#bf3f2d" />
    </linearGradient>
    <linearGradient
       gradientUnits="userSpaceOnUse"
       gradientTransform="matrix(4.1648,0,0,4.1648,126.22,-812.53)"
       y2="205.53"
       y1="206.88"
       x2="-2.2384"
       x1="-3.579"
       id="m">
      <stop
         id="stop1078"
         offset="0"
         stop-color="#3c4533" />
      <stop
         id="stop1080"
         offset=".32423"
         stop-color="#3c4533" />
      <stop
         id="stop1082"
         offset=".5756"
         stop-color="#414a37" />
      <stop
         id="stop1084"
         offset=".80512"
         stop-color="#3c4533" />
      <stop
         id="stop1086"
         offset="1"
         stop-color="#3c4533" />
    </linearGradient>
    <linearGradient
       inkscape:collect="always"
       xlink:href="#linearGradient2518"
       id="linearGradient2520"
       x1="2.2389161"
       y1="9.5271182"
       x2="14.722464"
       y2="9.5271182"
       gradientUnits="userSpaceOnUse"
       gradientTransform="translate(21.332789)" />
    <linearGradient
       inkscape:collect="always"
       xlink:href="#linearGradient2530"
       id="linearGradient2532"
       x1="2.2389161"
       y1="9.5271182"
       x2="14.722464"
       y2="9.5271182"
       gradientUnits="userSpaceOnUse"
       gradientTransform="translate(21.332789)" />
    <linearGradient
       inkscape:collect="always"
       xlink:href="#linearGradient2538"
       id="linearGradient2540"
       x1="2.2361579"
       y1="2.86293"
       x2="14.725223"
       y2="2.86293"
       gradientUnits="userSpaceOnUse"
       gradientTransform="translate(21.332789)" />
    <linearGradient
       inkscape:collect="always"
       xlink:href="#linearGradient2546"
       id="linearGradient2548"
       x1="2.2361579"
       y1="2.86293"
       x2="14.725223"
       y2="2.86293"
       gradientUnits="userSpaceOnUse"
       gradientTransform="translate(21.332789)" />
    <linearGradient
       inkscape:collect="always"
       xlink:href="#linearGradient2685"
       id="linearGradient2687"
       x1="-164.73405"
       y1="36.008789"
       x2="-116.99525"
       y2="36.008789"
       gradientUnits="userSpaceOnUse"
       gradientTransform="matrix(0.26457812,0,0,0.26457812,45.805341,0)" />
    <linearGradient
       inkscape:collect="always"
       xlink:href="#linearGradient2703"
       id="linearGradient2705"
       x1="-164.73405"
       y1="36.008789"
       x2="-117.51787"
       y2="36.008789"
       gradientUnits="userSpaceOnUse"
       gradientTransform="matrix(0.26457812,0,0,0.26457812,45.805341,0)" />
    <linearGradient
       inkscape:collect="always"
       xlink:href="#linearGradient2733"
       id="linearGradient2735"
       x1="-150.47907"
       y1="10.820313"
       x2="-103.24358"
       y2="10.820313"
       gradientUnits="userSpaceOnUse"
       gradientTransform="matrix(0.26457812,0,0,0.26457812,42.031232,0)" />
    <linearGradient
       inkscape:collect="always"
       xlink:href="#linearGradient2741"
       id="linearGradient2743"
       x1="-150.47907"
       y1="10.820313"
       x2="-103.24358"
       y2="10.820313"
       gradientUnits="userSpaceOnUse"
       gradientTransform="matrix(0.26457812,0,0,0.26457812,42.031232,0)" />
  </defs>
  <sodipodi:namedview
     inkscape:document-rotation="0"
     pagecolor="#ffffff"
     bordercolor="#666666"
     borderopacity="1"
     objecttolerance="10"
     gridtolerance="10"
     guidetolerance="10"
     inkscape:pageopacity="0"
     inkscape:pageshadow="2"
     inkscape:window-width="1920"
     inkscape:window-height="985"
     id="namedview34"
     showgrid="false"
     inkscape:zoom="3.1875"
     inkscape:cx="45.92774"
     inkscape:cy="6.902588"
     inkscape:window-x="0"
     inkscape:window-y="0"
     inkscape:window-maximized="1"
     inkscape:current-layer="svg32" />
  <metadata
     id="metadata2">
    <rdf:RDF>
      <cc:Work
         rdf:about="">
        <dc:format>image/svg+xml</dc:format>
        <dc:type
           rdf:resource="http://purl.org/dc/dcmitype/StillImage" />
        <dc:title></dc:title>
      </cc:Work>
    </rdf:RDF>
  </metadata>
  <path
     id="rect2719"
     style="fill:url(#linearGradient2735);fill-opacity:1;stroke:url(#linearGradient2743);stroke-width:0.264578;stroke-linecap:round;stroke-miterlimit:4;stroke-dasharray:none;stroke-opacity:0.921569"
     d="m 3.3402992,1.7094227 c -0.28399,0 -0.416499,0.2455451 -0.51262,0.5126201 l -0.461462,1.2815504 c -0.09612,0.2673311 0.228628,0.5126201 0.512621,0.5126201 H 14.054162 c 0.283993,0 0.608742,-0.245289 0.51262,-0.5126201 L 14.105321,2.2220428 c -0.09612,-0.267075 -0.22863,-0.5126201 -0.51262,-0.5126201 z" />
  <path
     id="rect2747"
     style="fill:#000000;fill-opacity:0.29803923;stroke:none;stroke-width:0.264578;stroke-linecap:round;stroke-miterlimit:4;stroke-dasharray:none;stroke-opacity:0.921569"
     d="M 3.3402989,1.8375777 4.9551568,12.869762 c 0.04024,0.275021 0.2286272,0.501768 0.5126201,0.501768 h 5.9974491 c 0.28399,0 0.47238,-0.226747 0.51262,-0.501768 L 13.592701,1.8375777 Z" />
  <g
     id="g2765"
     transform="translate(6.2316558,-0.57382824)">
    <rect
       transform="rotate(-15)"
       y="2.110229"
       x="-4.2387915"
       height="7.1637039"
       width="5.9237165"
       id="rect2751"
       style="opacity:0.922;fill:#aa531f;fill-opacity:1;stroke:#f0f1f3;stroke-width:0.271506;stroke-linecap:round;stroke-miterlimit:4;stroke-dasharray:none;stroke-opacity:0.921569" />
    <rect
       transform="rotate(15)"
       style="opacity:0.922;fill:#99aad1;fill-opacity:1;stroke:#f0f1f3;stroke-width:0.271506;stroke-linecap:round;stroke-miterlimit:4;stroke-dasharray:none;stroke-opacity:0.921569"
       id="rect2759"
       width="5.9237165"
       height="7.1637039"
       x="2.7613127"
       y="1.4342649" />
    <rect
       transform="rotate(-15)"
       style="opacity:0.922;fill:#3cd0f2;fill-opacity:1;stroke:#f0f1f3;stroke-width:0.271506;stroke-linecap:round;stroke-miterlimit:4;stroke-dasharray:none;stroke-opacity:0.921569"
       id="rect2755"
       width="5.9237165"
       height="7.1637039"
       x="-2.2364645"
       y="2.6467505" />
    <rect
       transform="rotate(30)"
       y="0.51051939"
       x="1.4599931"
       height="7.1637039"
       width="5.9237165"
       id="rect2757"
       style="opacity:0.922;fill:#abe58c;fill-opacity:1;stroke:#f0f1f3;stroke-width:0.271506;stroke-linecap:round;stroke-miterlimit:4;stroke-dasharray:none;stroke-opacity:0.921569" />
  </g>
  <path
     id="rect2677"
     style="fill:url(#linearGradient2687);fill-opacity:1;stroke:url(#linearGradient2705);stroke-width:0.264578;stroke-linecap:round;stroke-miterlimit:4;stroke-dasharray:none;stroke-opacity:0.921569;opacity:0.9"
     d="m 2.3664721,3.76042 1.101719,11.032184 c 0.02768,0.276559 0.22863,0.501252 0.51262,0.501252 h 8.9708519 c 0.28399,0 0.48494,-0.224437 0.51262,-0.501252 L 14.566521,3.76042 Z" />
  <path
     id="path4"
     fill="none"
     d="m 21.611559,0.29983 h 16.40384 v 16.40384 h -16.40384 z"
     style="stroke-width:0.25631" />
  <path
     id="path6"
     stroke="#ffc841"
     fill="#f5aa1e"
     d="m 24.687279,1.709535 h 10.2524 c 0.283991,0 0.416504,0.245545 0.51262,0.51262 l 0.461358,1.28155 c 0.09612,0.2673313 -0.228629,0.51262 -0.51262,0.51262 H 24.225921 c -0.283991,0 -0.608736,-0.2452887 -0.51262,-0.51262 l 0.461358,-1.28155 c 0.09612,-0.267075 0.228629,-0.51262 0.51262,-0.51262 z"
     style="fill:url(#linearGradient2540);fill-opacity:1;stroke:url(#linearGradient2548);stroke-width:0.25631" />
  <path
     id="path8"
     opacity="0.3"
     d="m 34.939679,1.83769 -1.614753,11.032095 c -0.04024,0.275021 -0.228629,0.501599 -0.51262,0.501599 h -5.997654 c -0.283991,0 -0.472379,-0.226578 -0.51262,-0.501599 L 24.687279,1.83769 Z"
     style="stroke-width:0.25631" />
  <path
     id="path10"
     fill="#fafafa"
     d="m 35.379763,2.4023409 -5.802345,-0.567214 -0.716643,7.2935574 5.802089,0.5674703 z"
     style="stroke-width:0.25631" />
  <path
     id="path12"
     stroke-width="0.256228"
     stroke-linejoin="round"
     stroke="#ffc841"
     opacity="0.6"
     fill="none"
     d="M 35.448006,2.3441791 29.521095,1.7651679 28.791833,9.18591 34.718694,9.765427 Z"
     style="fill:#5975b5;fill-opacity:1;stroke:#d8d9dd;stroke-opacity:0.921569" />
  <path
     id="path14"
     fill="#fafafa"
     d="m 24.275133,2.3592808 c 1.330248,-0.1204657 5.80619,-0.5241539 5.80619,-0.5241539 l 0.662818,7.2984273 -5.806191,0.5246665 z"
     style="fill:#aa531f;fill-opacity:1;stroke-width:0.25631" />
  <path
     id="path16"
     stroke-width="0.256229"
     stroke-linejoin="round"
     stroke="#ffc841"
     opacity="0.6"
     fill="none"
     d="m 24.20729,2.3005602 5.931033,-0.5354123 0.674449,7.42593 -5.930987,0.5359186 z"
     style="stroke:#d8d9dd;stroke-opacity:0.921569" />
  <path
     id="path18"
     fill="#fafafa"
     d="m 26.071866,3.1005294 5.555006,-1.7649507 2.230666,6.9826533 -5.55475,1.765207 z"
     style="fill:#3cd0f2;fill-opacity:1;stroke-width:0.25631" />
  <path
     id="path20"
     stroke-width="0.256226"
     stroke-linejoin="round"
     stroke="#ffc841"
     opacity="0.6"
     fill="none"
     d="m 25.993144,3.0580485 5.674217,-1.8029256 2.269554,7.1043824 -5.674062,1.8034097 z"
     style="stroke:#d8d9dd;stroke-opacity:0.921569" />
  <path
     id="path22"
     fill="#fafafa"
     d="m 29.796819,1.3378855 5.40404,2.1824796 -2.756614,6.7929839 -5.40404,-2.1817106 z"
     style="stroke-width:0.25631" />
  <path
     id="path24"
     stroke-width="0.256228"
     stroke-linejoin="round"
     stroke="#ffc841"
     opacity="0.6"
     fill="none"
     d="M 29.76361,1.2551499 35.283631,3.4842493 32.478917,10.395884 26.958704,8.1672555 Z"
     style="fill:#77d743;fill-opacity:1;stroke:#d8d9dd;stroke-opacity:0.921569" />
  <path
     id="path26"
     stroke="#ffc841"
     fill="#ffc841"
     d="M 35.913657,3.7602713 34.811524,14.792366 c -0.02768,0.276815 -0.228629,0.501599 -0.51262,0.501599 h -8.97085 c -0.283991,0 -0.484938,-0.22504 -0.51262,-0.501599 L 23.713301,3.7602713 Z"
     style="fill:url(#linearGradient2520);fill-opacity:1;stroke:url(#linearGradient2532);stroke-width:0.25631" />
  <path
     id="path28"
     fill="#ffffff"
     d="m 27.714813,10.972835 c -0.06562,0.117902 -0.117903,0.295269 -0.117903,0.406764 0,0.02589 0,0.05895 0.0064,0.10483 l -0.819681,-1.409961 a 0.36575437,0.36575437 0 0 1 -0.04588,-0.1707023 c 0,-0.059208 0.01948,-0.1312307 0.04588,-0.1768539 l 0.393435,-0.6889613 -0.439315,-0.2486207 1.429697,-0.0264 0.695113,1.2523311 L 28.41659,9.7597195 Z M 28.34431,6.8452185 c 0.124567,-0.216582 0.328077,-0.3347409 0.576954,-0.3347409 0.269125,0 0.4793,0.124823 0.629754,0.380364 l 0.222989,0.3737 -0.774056,1.4917242 -1.252331,-0.8817064 z m 0.09176,5.2620445 a 0.68562925,0.68562925 0 0 1 -0.681784,-0.681785 c 0,-0.105087 0.04588,-0.282197 0.111494,-0.393692 l 0.209662,-0.3737 h 1.554264 v 1.449177 z M 29.682248,6.8057467 C 29.584082,6.6353006 29.452851,6.5168854 29.29522,6.45127 h 1.613215 c 0.144303,0 0.255798,0.059208 0.321669,0.1709588 L 31.629948,7.3040134 32.062599,7.048216 31.367487,8.2943952 29.94471,8.274403 30.384025,8.0252697 Z m 2.485695,3.8654113 c 0.196589,0 0.360628,-0.05229 0.498266,-0.157118 l -0.813271,1.416369 a 0.35422042,0.35422042 0 0 1 -0.321157,0.176854 h -0.767648 v 0.50493 l -0.734328,-1.226187 0.734328,-1.226443 v 0.511595 z m 0.629241,-1.1803077 c 0.05895,0.1050871 0.09201,0.2163256 0.09201,0.3344845 0,0.2358052 -0.151223,0.4851952 -0.360628,0.6030972 a 0.73227767,0.73227767 0 0 1 -0.3737,0.08561 H 31.721707 L 30.948163,9.1761016 32.200494,8.4609967 Z"
     style="stroke-width:0.25631" />
  <path
     style="stroke-width:0.25631"
     d="m 6.3678405,10.972835 c -0.06561,0.117902 -0.117902,0.295269 -0.117902,0.406764 0,0.02589 0,0.05895 0.0064,0.10483 l -0.819682,-1.409961 a 0.36575437,0.36575437 0 0 1 -0.04588,-0.1707023 c 0,-0.059208 0.01948,-0.1312307 0.04588,-0.1768539 l 0.393435,-0.6889613 -0.439315,-0.2486207 1.429697,-0.0264 0.695112,1.2523312 -0.445979,-0.2555416 z m 0.629498,-4.1276165 c 0.124566,-0.216582 0.328076,-0.3347409 0.576953,-0.3347409 0.269126,0 0.4793,0.124823 0.629754,0.380364 l 0.22299,0.3737 -0.774056,1.4917242 -1.252331,-0.8817064 z m 0.09176,5.2620445 a 0.68562925,0.68562925 0 0 1 -0.681785,-0.681785 c 0,-0.105087 0.04588,-0.282197 0.111495,-0.393692 l 0.209661,-0.3737 h 1.554264 v 1.449177 z M 8.3352775,6.8057467 C 8.2371095,6.6353006 8.1058785,6.5168854 7.9482485,6.45127 h 1.613215 c 0.144302,0 0.255797,0.059208 0.321669,0.1709588 L 10.282977,7.3040134 10.715628,7.048216 10.020516,8.2943952 8.5977375,8.2744032 9.0370535,8.0252699 Z m 2.4856955,3.8654113 c 0.196589,0 0.360628,-0.05229 0.498266,-0.157118 l -0.813271,1.416369 a 0.35422042,0.35422042 0 0 1 -0.321157,0.176854 H 9.4171615 v 0.50493 l -0.734328,-1.226187 0.734328,-1.226443 v 0.511595 z m 0.629241,-1.1803077 c 0.05895,0.1050871 0.09201,0.2163256 0.09201,0.3344845 0,0.2358052 -0.151223,0.4851952 -0.360628,0.6030972 a 0.73227767,0.73227767 0 0 1 -0.3737,0.08561 H 10.374737 L 9.6011925,9.1761016 10.853524,8.4609967 Z"
     fill="#ffffff"
     id="path2628" />
</svg>
