<?xml version="1.0" encoding="UTF-8" standalone="no"?>
<svg
   xmlns:dc="http://purl.org/dc/elements/1.1/"
   xmlns:cc="http://creativecommons.org/ns#"
   xmlns:rdf="http://www.w3.org/1999/02/22-rdf-syntax-ns#"
   xmlns:svg="http://www.w3.org/2000/svg"
   xmlns="http://www.w3.org/2000/svg"
   xmlns:xlink="http://www.w3.org/1999/xlink"
   xmlns:sodipodi="http://sodipodi.sourceforge.net/DTD/sodipodi-0.dtd"
   xmlns:inkscape="http://www.inkscape.org/namespaces/inkscape"
   inkscape:version="1.0 (4035a4fb49, 2020-05-01)"
   sodipodi:docname="user-trash.svg"
   id="svg16"
   viewBox="0 0 16.933 16.933"
   version="1.1"
   height="64"
   width="64">
  <defs
     id="defs20">
    <linearGradient
       inkscape:collect="always"
       xlink:href="#linearGradient2733"
       id="linearGradient2735"
       x1="-150.47906"
       y1="10.820313"
       x2="-103.24358"
       y2="10.820313"
       gradientUnits="userSpaceOnUse"
       gradientTransform="matrix(0.26457812,0,0,0.26457812,42.03123,0.5470031)" />
    <linearGradient
       inkscape:collect="always"
       id="linearGradient2733">
      <stop
         style="stop-color:#d7d8db;stop-opacity:0.92000002"
         offset="0"
         id="stop2729" />
      <stop
         style="stop-color:#eceeef;stop-opacity:0.92156863"
         offset="1"
         id="stop2731" />
    </linearGradient>
    <linearGradient
       inkscape:collect="always"
       xlink:href="#linearGradient2741"
       id="linearGradient2743"
       x1="-150.47906"
       y1="10.820313"
       x2="-103.24358"
       y2="10.820313"
       gradientUnits="userSpaceOnUse"
       gradientTransform="matrix(0.26457812,0,0,0.26457812,42.03123,0.5470031)" />
    <linearGradient
       inkscape:collect="always"
       id="linearGradient2741">
      <stop
         style="stop-color:#d8d9dd;stop-opacity:1;"
         offset="0"
         id="stop2737" />
      <stop
         style="stop-color:#eceeef;stop-opacity:0.92156863"
         offset="1"
         id="stop2739" />
    </linearGradient>
    <linearGradient
       inkscape:collect="always"
       xlink:href="#linearGradient2685"
       id="linearGradient2687"
       x1="-164.73405"
       y1="36.008789"
       x2="-116.99525"
       y2="36.008789"
       gradientUnits="userSpaceOnUse"
       gradientTransform="matrix(0.26457812,0,0,0.26457812,45.805339,0.5470031)" />
    <linearGradient
       inkscape:collect="always"
       id="linearGradient2685">
      <stop
         style="stop-color:#d8d9dc;stop-opacity:0.92156863"
         offset="0"
         id="stop2681" />
      <stop
         id="stop2689"
         offset="0.21963745"
         style="stop-color:#e2e3e6;stop-opacity:0.92000002" />
      <stop
         style="stop-color:#dadde0;stop-opacity:0.92000002"
         offset="0.75068599"
         id="stop2697" />
      <stop
         style="stop-color:#f0f1f3;stop-opacity:0.92000002"
         offset="1"
         id="stop2683" />
    </linearGradient>
    <linearGradient
       inkscape:collect="always"
       xlink:href="#linearGradient2703"
       id="linearGradient2705"
       x1="-164.73405"
       y1="36.008789"
       x2="-117.51787"
       y2="36.008789"
       gradientUnits="userSpaceOnUse"
       gradientTransform="matrix(0.26457812,0,0,0.26457812,45.805339,0.5470031)" />
    <linearGradient
       inkscape:collect="always"
       id="linearGradient2703">
      <stop
         style="stop-color:#d8d9dd;stop-opacity:1;"
         offset="0"
         id="stop2699" />
      <stop
         style="stop-color:#f0f1f3;stop-opacity:0.92156863"
         offset="1"
         id="stop2701" />
    </linearGradient>
  </defs>
  <sodipodi:namedview
     inkscape:current-layer="svg16"
     inkscape:window-maximized="1"
     inkscape:window-y="0"
     inkscape:window-x="0"
     inkscape:cy="35.315016"
     inkscape:cx="23.284073"
     inkscape:zoom="4.5078057"
     showgrid="false"
     id="namedview18"
     inkscape:window-height="985"
     inkscape:window-width="1920"
     inkscape:pageshadow="2"
     inkscape:pageopacity="0"
     guidetolerance="10"
     gridtolerance="10"
     objecttolerance="10"
     borderopacity="1"
     bordercolor="#666666"
     pagecolor="#ffffff" />
  <metadata
     id="metadata2">
    <rdf:RDF>
      <cc:Work
         rdf:about="">
        <dc:format>image/svg+xml</dc:format>
        <dc:type
           rdf:resource="http://purl.org/dc/dcmitype/StillImage" />
        <dc:title></dc:title>
      </cc:Work>
    </rdf:RDF>
  </metadata>
  <path
     id="rect2719"
     style="fill:url(#linearGradient2735);fill-opacity:1;stroke:url(#linearGradient2743);stroke-width:0.264578;stroke-linecap:round;stroke-miterlimit:4;stroke-dasharray:none;stroke-opacity:0.921569"
     d="m 3.340299,2.2564259 c -0.28399,0 -0.416499,0.2455451 -0.51262,0.5126201 L 2.366217,4.0505964 c -0.09612,0.2673311 0.228628,0.5126202 0.512621,0.5126202 h 11.175324 c 0.283993,0 0.608742,-0.2452891 0.51262,-0.5126202 L 14.105321,2.769046 c -0.09612,-0.267075 -0.22863,-0.5126201 -0.51262,-0.5126201 z" />
  <path
     id="rect2747"
     style="fill:#000000;fill-opacity:0.298039;stroke:none;stroke-width:0.264578;stroke-linecap:round;stroke-miterlimit:4;stroke-dasharray:none;stroke-opacity:0.921569"
     d="M 3.340299,2.3845809 4.955157,13.416765 c 0.04024,0.275021 0.228627,0.501768 0.51262,0.501768 h 5.997449 c 0.28399,0 0.47238,-0.226747 0.51262,-0.501768 L 13.592701,2.3845809 Z" />
  <path
     id="rect2677"
     style="fill:url(#linearGradient2687);fill-opacity:1;stroke:url(#linearGradient2705);stroke-width:0.264578;stroke-linecap:round;stroke-miterlimit:4;stroke-dasharray:none;stroke-opacity:0.921569"
     d="M 2.366472,4.3074232 3.468191,15.339607 c 0.02768,0.276559 0.22863,0.501252 0.51262,0.501252 h 8.970852 c 0.28399,0 0.48494,-0.224437 0.51262,-0.501252 L 14.566521,4.3074232 Z" />
  <path
     style="stroke-width:0.25631"
     d="m 6.36784,11.519838 c -0.06561,0.117902 -0.117902,0.295269 -0.117902,0.406764 0,0.02589 0,0.05895 0.0064,0.10483 L 5.436657,10.621471 a 0.36575436,0.36575436 0 0 1 -0.04588,-0.170702 c 0,-0.05921 0.01948,-0.131231 0.04588,-0.176854 L 5.830092,9.5849538 5.390777,9.3363328 6.820474,9.3099328 7.515586,10.562265 7.069607,10.306723 Z M 6.997338,7.3922216 C 7.121904,7.1756398 7.325414,7.0574808 7.574291,7.0574808 c 0.269126,0 0.4793,0.1248229 0.629754,0.3803641 l 0.22299,0.3737 -0.774056,1.4917239 -1.252331,-0.881706 z m 0.09176,5.2620444 A 0.68562926,0.68562926 0 0 1 6.407313,11.972481 c 0,-0.105087 0.04588,-0.282197 0.111495,-0.393692 l 0.209661,-0.3737 h 1.554265 v 1.449177 z M 8.335277,7.35275 C 8.237109,7.1823037 8.105878,7.0638886 7.948248,6.9982732 h 1.613215 c 0.144302,0 0.255797,0.059208 0.321669,0.1709588 l 0.399845,0.6817847 0.432651,-0.2557975 -0.695112,1.2461796 -1.422779,-0.01999 0.439316,-0.249133 z m 2.485696,3.865411 c 0.196589,0 0.360628,-0.05229 0.498266,-0.157118 l -0.813271,1.416369 a 0.35422042,0.35422042 0 0 1 -0.321157,0.176854 h -0.76765 v 0.50493 L 8.682833,11.933009 9.417161,10.706567 v 0.511594 z m 0.629241,-1.180307 c 0.05895,0.105087 0.09201,0.216325 0.09201,0.334484 0,0.235805 -0.151223,0.485195 -0.360628,0.603097 a 0.73227767,0.73227767 0 0 1 -0.3737,0.08561 H 10.374737 L 9.601192,9.7231048 10.853524,9.0079998 Z"
     fill="#ffffff"
     id="path2628" />
</svg>
