<svg width="32" height="32" version="1.1" viewBox="0 0 32 32" xmlns="http://www.w3.org/2000/svg" xmlns:xlink="http://www.w3.org/1999/xlink">
 <defs>
  <linearGradient id="d" x1="399.57" x2="399.57" y1="545.8" y2="517.8" gradientUnits="userSpaceOnUse">
   <stop stop-color="#3889e9" offset="0"/>
   <stop stop-color="#5ea5fb" offset="1"/>
  </linearGradient>
  <linearGradient id="c" x1="400.51" x2="400.7" y1="546.07" y2="517.77" gradientTransform="matrix(.95874 0 0 .95874 16.466 21.899)" gradientUnits="userSpaceOnUse">
   <stop stop-color="#1d2125" offset="0"/>
   <stop stop-color="#67747f" offset="1"/>
  </linearGradient>
  <linearGradient id="b">
   <stop stop-color="#e3e3e3" offset="0"/>
   <stop stop-color="#fffcff" offset="1"/>
  </linearGradient>
  <linearGradient id="a" x1="282.37" x2="281.84" y1="644.85" y2="10.592" gradientUnits="userSpaceOnUse" xlink:href="#b"/>
  <filter id="f" x="-.036" y="-.036" width="1.072" height="1.072" color-interpolation-filters="sRGB">
   <feGaussianBlur stdDeviation="0.40267136"/>
  </filter>
  <filter id="e" x="-.036" y="-.036" width="1.072" height="1.072" color-interpolation-filters="sRGB">
   <feGaussianBlur stdDeviation="12.360295"/>
  </filter>
 </defs>
 <g transform="translate(-384.57 -515.8)">
  <ellipse cx="400.57" cy="531.8" r="14" fill="url(#d)"/>
  <g transform="matrix(1.0753 0 0 1.0753 -30.117 -39.986)">
   <g transform="matrix(1.0393 0 0 1.0393 -15.715 -20.9)">
    <circle cx="400.51" cy="531.76" r="13.422" filter="url(#f)" opacity=".25"/>
    <circle cx="400.51" cy="531.76" r="13.422" fill="url(#c)"/>
    <circle cx="400.57" cy="531.8" r="14" fill-opacity="0"/>
    <g transform="matrix(.016796 -.017337 .017337 .016796 390.32 532.21)" fill="url(#a)">
     <g fill="url(#a)">
      <g id="Fan">
       <path d="m562.04 0h-512.08c-27.591 0-49.959 22.368-49.959 49.959v512.08c0 27.591 22.368 49.959 49.959 49.959h512.08c27.591 0 49.959-22.368 49.959-49.959v-512.08c0-27.591-22.368-49.959-49.959-49.959zm-512.08 37.469c6.898 0 12.49 5.592 12.49 12.49s-5.592 12.49-12.49 12.49-12.49-5.592-12.49-12.49 5.592-12.49 12.49-12.49zm0 537.06c-6.898 0-12.49-5.592-12.49-12.49s5.592-12.49 12.49-12.49 12.49 5.592 12.49 12.49-5.592 12.49-12.49 12.49zm256.04-19.984c-137.27 0-248.55-111.28-248.55-248.55s111.28-248.55 248.55-248.55 248.55 111.28 248.55 248.55-111.28 248.55-248.55 248.55zm256.04 19.984c-6.898 0-12.49-5.592-12.49-12.49s5.592-12.49 12.49-12.49 12.49 5.592 12.49 12.49-5.592 12.49-12.49 12.49zm0-512.08c-6.898 0-12.49-5.592-12.49-12.49s5.592-12.49 12.49-12.49 12.49 5.592 12.49 12.49-5.592 12.49-12.49 12.49z" fill="#000" filter="url(#e)" opacity=".25"/>
       <path d="m562.04 0h-512.08c-27.591 0-49.959 22.368-49.959 49.959v512.08c0 27.591 22.368 49.959 49.959 49.959h512.08c27.591 0 49.959-22.368 49.959-49.959v-512.08c0-27.591-22.368-49.959-49.959-49.959zm-512.08 37.469c6.898 0 12.49 5.592 12.49 12.49s-5.592 12.49-12.49 12.49-12.49-5.592-12.49-12.49 5.592-12.49 12.49-12.49zm0 537.06c-6.898 0-12.49-5.592-12.49-12.49s5.592-12.49 12.49-12.49 12.49 5.592 12.49 12.49-5.592 12.49-12.49 12.49zm256.04-19.984c-137.27 0-248.55-111.28-248.55-248.55s111.28-248.55 248.55-248.55 248.55 111.28 248.55 248.55-111.28 248.55-248.55 248.55zm256.04 19.984c-6.898 0-12.49-5.592-12.49-12.49s5.592-12.49 12.49-12.49 12.49 5.592 12.49 12.49-5.592 12.49-12.49 12.49zm0-512.08c-6.898 0-12.49-5.592-12.49-12.49s5.592-12.49 12.49-12.49 12.49 5.592 12.49 12.49-5.592 12.49-12.49 12.49z" fill="url(#a)"/>
       <path d="m524.98 260.92c-1.238-6.015-3.819-10.307-8.554-14.218-37.84-31.272-90.317-29.17-157.43 6.305-4.38-4.38-9.121-8.082-14.434-11.27 46.257-41.499 88.423-58.921 126.5-52.269 11.225 1.961 18.998-10.901 12.043-19.926-15.437-20.035-33.006-36.347-54.128-50.259-5.13-3.378-9.989-4.586-16.103-4.005-48.869 4.645-84.49 43.238-106.86 115.78-6.195 0-12.165 0.734-18.175 2.237 3.365-62.052 20.86-104.19 52.486-126.4 9.324-6.55 5.725-21.141-5.574-22.607-25.083-3.251-49.04-2.363-73.813 2.737-6.015 1.238-10.307 3.819-14.218 8.554-31.272 37.84-29.17 90.317 6.305 157.43-4.38 4.38-8.082 9.121-11.27 14.434-41.499-46.257-58.921-88.423-52.269-126.5 1.961-11.225-10.901-18.998-19.926-12.044-20.035 15.437-36.347 33.006-50.259 54.128-3.378 5.13-4.586 9.989-4.005 16.103 4.645 48.869 43.238 84.49 115.78 106.86 0 6.195 0.734 12.165 2.237 18.175-62.052-3.365-104.19-20.86-126.4-52.486-6.55-9.324-21.141-5.725-22.607 5.574-3.251 25.083-2.363 49.04 2.737 73.813 1.238 6.015 3.819 10.307 8.554 14.218 37.84 31.272 90.317 29.17 157.43-6.305 4.38 4.38 9.121 8.082 14.434 11.27-46.257 41.499-88.423 58.921-126.5 52.269-11.225-1.961-18.998 10.901-12.043 19.926 15.437 20.035 33.006 36.347 54.128 50.259 5.13 3.378 9.989 4.586 16.103 4.005 48.869-4.645 84.49-43.238 106.86-115.78 6.195 0 12.165-0.734 18.175-2.238-3.365 62.052-20.86 104.19-52.486 126.4-9.324 6.55-5.725 21.141 5.574 22.607 25.083 3.251 49.04 2.363 73.813-2.737 6.015-1.238 10.307-3.819 14.218-8.554 31.272-37.84 29.17-90.317-6.305-157.43 4.38-4.38 8.082-9.121 11.27-14.434 41.499 46.257 58.921 88.423 52.269 126.5-1.961 11.225 10.901 18.998 19.926 12.043 20.035-15.437 36.347-33.006 50.259-54.128 3.378-5.13 4.586-9.989 4.005-16.103-4.645-48.869-43.238-84.49-115.78-106.86 0-6.195-0.734-12.165-2.237-18.175 62.052 3.365 104.19 20.86 126.4 52.486 6.55 9.324 21.141 5.725 22.607-5.574 3.251-25.082 2.363-49.037-2.737-73.811zm-218.98 107.52c-34.489 0-62.449-27.96-62.449-62.449s27.96-62.449 62.449-62.449 62.449 27.96 62.449 62.449-27.96 62.449-62.449 62.449z" fill="url(#a)"/>
      </g>
     </g>
    </g>
   </g>
  </g>
 </g>
</svg>
