<svg width="32" height="32" version="1.1" viewBox="0 0 32 32" xmlns="http://www.w3.org/2000/svg" xmlns:xlink="http://www.w3.org/1999/xlink">
 <defs>
  <linearGradient id="b" x1="403.44" x2="402.49" y1="544.99" y2="518.34" gradientTransform="matrix(1.0196 0 0 1.0196 -7.8349 -10.539)" gradientUnits="userSpaceOnUse">
   <stop stop-color="#981fe7" offset="0"/>
   <stop stop-color="#db50c8" offset="1"/>
  </linearGradient>
  <linearGradient id="e" x1="18.246" x2="16.811" y1="29.791" y2="1.1044" gradientUnits="userSpaceOnUse">
   <stop stop-color="#d3d3d3" offset="0"/>
   <stop stop-color="#fcf9f9" offset="1"/>
  </linearGradient>
  <linearGradient id="a" x1="18.246" x2="16.811" y1="29.791" y2="1.1044" gradientUnits="userSpaceOnUse">
   <stop stop-color="#f8dbed" offset="0"/>
   <stop stop-color="#fcf9f9" offset="1"/>
  </linearGradient>
  <filter id="d" x="-.036" y="-.036" width="1.072" height="1.072" color-interpolation-filters="sRGB">
   <feGaussianBlur stdDeviation="0.42822461"/>
  </filter>
  <filter id="c" x="-.035798" y="-.036204" width="1.0716" height="1.0724" color-interpolation-filters="sRGB">
   <feGaussianBlur stdDeviation="0.47572487"/>
  </filter>
 </defs>
 <g transform="translate(-384.57 -515.8)">
  <g transform="matrix(1.0509 0 0 1.0509 -20.38 -26.904)">
   <circle cx="400.58" cy="531.67" r="14.274" filter="url(#d)" opacity=".25"/>
   <circle cx="400.58" cy="531.67" r="14.274" fill="url(#b)"/>
   <g transform="matrix(.59674 0 0 .59674 390.64 522.81)" opacity=".9">
    <path d="m31.821 4.074c-0.31-1.174-1.511-1.875-2.685-1.566-1.176 0.309-1.877 1.511-1.568 2.686 0.146 0.551 0.488 0.996 0.933 1.284-0.107 1.614-0.588 3.58-2.009 5.299-4.005-4.569-5.696-6.434-6.479-7.189 0.418-0.265 0.771-0.43 1.004-0.523 0.529 0.44 1.254 0.629 1.97 0.44 1.173-0.309 1.875-1.512 1.565-2.685-0.311-1.175-1.514-1.877-2.687-1.569-0.881 0.232-1.495 0.966-1.618 1.813-1.656 0.703-7.309 3.832-6.466 13.582-6.191 0.18-9.447 1.819-10.928 2.889-0.381-0.12-0.798-0.139-1.213-0.03-1.174 0.312-1.875 1.512-1.567 2.688 0.31 1.175 1.512 1.877 2.686 1.565 0.968-0.254 1.614-1.117 1.637-2.069l6.472 6.794c-0.152 0.094-0.301 0.181-0.446 0.257-0.516-0.376-1.19-0.525-1.856-0.353-1.174 0.31-1.876 1.513-1.567 2.688 0.31 1.175 1.512 1.877 2.687 1.566 0.916-0.24 1.541-1.026 1.627-1.918 3.028-1.504 5.535-5.198 4.881-11.935 1.943-9e-3 3.734-0.228 5.343-0.651 2.406-0.633 4.406-1.716 5.921-3.229 1.911-1.911 3.002-4.414 3.188-7.291 0.932-0.448 1.449-1.506 1.175-2.543zm-20.091 22.749-6.753-7.088c0.433-0.235 0.97-0.487 1.632-0.729l6.326 6.303c-0.362 0.623-0.777 1.119-1.205 1.514zm1.701-2.539-5.667-5.647c0.871-0.244 1.902-0.461 3.11-0.612l3.242 3.094c-0.095 1.261-0.342 2.304-0.685 3.165zm-1.148-6.406c0.552-0.043 1.135-0.072 1.751-0.086 0.073 0.666 0.111 1.289 0.121 1.872l-1.872-1.786zm3.66-2.239c-0.141-1.48-0.119-2.781 0.019-3.92l3.165 3.712c-0.996 0.144-2.06 0.214-3.184 0.208zm4.411-0.427-4.154-4.87c0.222-0.963 0.531-1.787 0.892-2.491 1.349 1.457 3.855 4.284 5.838 6.54-0.788 0.344-1.649 0.618-2.576 0.821zm3.572-1.316c-3.516-4.011-5.31-6.012-6.267-7.007 0.479-0.703 0.997-1.25 1.491-1.667 0.847 0.837 4.134 4.537 6.602 7.345-0.535 0.502-1.148 0.946-1.826 1.329z" filter="url(#c)" opacity=".25"/>
    <path d="m31.821 4.074c-0.31-1.174-1.511-1.875-2.685-1.566-1.176 0.309-1.877 1.511-1.568 2.686 0.146 0.551 0.488 0.996 0.933 1.284-0.107 1.614-0.588 3.58-2.009 5.299-4.005-4.569-5.696-6.434-6.479-7.189 0.418-0.265 0.771-0.43 1.004-0.523 0.529 0.44 1.254 0.629 1.97 0.44 1.173-0.309 1.875-1.512 1.565-2.685-0.311-1.175-1.514-1.877-2.687-1.569-0.881 0.232-1.495 0.966-1.618 1.813-1.656 0.703-7.309 3.832-6.466 13.582-6.191 0.18-9.447 1.819-10.928 2.889-0.381-0.12-0.798-0.139-1.213-0.03-1.174 0.312-1.875 1.512-1.567 2.688 0.31 1.175 1.512 1.877 2.686 1.565 0.968-0.254 1.614-1.117 1.637-2.069l6.472 6.794c-0.152 0.094-0.301 0.181-0.446 0.257-0.516-0.376-1.19-0.525-1.856-0.353-1.174 0.31-1.876 1.513-1.567 2.688 0.31 1.175 1.512 1.877 2.687 1.566 0.916-0.24 1.541-1.026 1.627-1.918 3.028-1.504 5.535-5.198 4.881-11.935 1.943-9e-3 3.734-0.228 5.343-0.651 2.406-0.633 4.406-1.716 5.921-3.229 1.911-1.911 3.002-4.414 3.188-7.291 0.932-0.448 1.449-1.506 1.175-2.543zm-20.091 22.749-6.753-7.088c0.433-0.235 0.97-0.487 1.632-0.729l6.326 6.303c-0.362 0.623-0.777 1.119-1.205 1.514zm1.701-2.539-5.667-5.647c0.871-0.244 1.902-0.461 3.11-0.612l3.242 3.094c-0.095 1.261-0.342 2.304-0.685 3.165zm-1.148-6.406c0.552-0.043 1.135-0.072 1.751-0.086 0.073 0.666 0.111 1.289 0.121 1.872l-1.872-1.786zm3.66-2.239c-0.141-1.48-0.119-2.781 0.019-3.92l3.165 3.712c-0.996 0.144-2.06 0.214-3.184 0.208zm4.411-0.427-4.154-4.87c0.222-0.963 0.531-1.787 0.892-2.491 1.349 1.457 3.855 4.284 5.838 6.54-0.788 0.344-1.649 0.618-2.576 0.821zm3.572-1.316c-3.516-4.011-5.31-6.012-6.267-7.007 0.479-0.703 0.997-1.25 1.491-1.667 0.847 0.837 4.134 4.537 6.602 7.345-0.535 0.502-1.148 0.946-1.826 1.329z" fill="url(#a)"/>
   </g>
  </g>
 </g>
</svg>
