<svg width="32" height="32" version="1.1" viewBox="0 0 32 32" xmlns="http://www.w3.org/2000/svg" xmlns:xlink="http://www.w3.org/1999/xlink">
 <defs>
  <linearGradient id="d">
   <stop stop-color="#e8e8e8" stop-opacity=".925" offset="0"/>
   <stop stop-color="#fffcff" offset="1"/>
  </linearGradient>
  <linearGradient id="f" x1="399.57" x2="399.57" y1="545.8" y2="517.8" gradientUnits="userSpaceOnUse">
   <stop stop-color="#3889e9" offset="0"/>
   <stop stop-color="#5ea5fb" offset="1"/>
  </linearGradient>
  <linearGradient id="e" x1="400.51" x2="400.7" y1="546.07" y2="517.77" gradientTransform="matrix(.95874 0 0 .95874 16.466 21.899)" gradientUnits="userSpaceOnUse">
   <stop stop-color="#2fae61" offset="0"/>
   <stop stop-color="#4bdf88" offset="1"/>
  </linearGradient>
  <linearGradient id="c" x1="226.91" x2="205.13" y1="358.16" y2="7.441" gradientUnits="userSpaceOnUse">
   <stop stop-color="#f3f3f3" offset="0"/>
   <stop stop-color="#fffcff" offset="1"/>
  </linearGradient>
  <linearGradient id="b" x1="173.1" x2="205.13" y1="358.16" y2="7.441" gradientUnits="userSpaceOnUse">
   <stop stop-color="#e3e3e3" offset="0"/>
   <stop stop-color="#fffcff" offset="1"/>
  </linearGradient>
  <linearGradient id="a" x1="238.07" x2="205.13" y1="372.36" y2="7.441" gradientUnits="userSpaceOnUse" xlink:href="#d"/>
  <filter id="h" x="-.036" y="-.036" width="1.072" height="1.072" color-interpolation-filters="sRGB">
   <feGaussianBlur stdDeviation="0.40267136"/>
  </filter>
  <filter id="g" x="-.031347" y="-.042276" width="1.0627" height="1.0846" color-interpolation-filters="sRGB">
   <feGaussianBlur stdDeviation="4.2418752"/>
  </filter>
 </defs>
 <g transform="translate(-384.57 -515.8)">
  <ellipse cx="400.57" cy="531.8" r="14" fill="url(#f)"/>
  <g transform="matrix(1.0753 0 0 1.0753 -30.117 -39.986)">
   <g transform="matrix(1.0393 0 0 1.0393 -15.715 -20.9)">
    <circle cx="400.51" cy="531.76" r="13.422" filter="url(#h)" opacity=".25"/>
    <circle cx="400.51" cy="531.76" r="13.422" fill="url(#e)"/>
    <circle cx="400.57" cy="531.8" r="14" fill-opacity="0"/>
    <g transform="matrix(.059807 0 0 .059807 827.81 529.6)" filter="url(#g)" opacity=".25">
     <g transform="matrix(.70353 0 0 .70353 -6823.1 -40.25)">
      <g transform="translate(-654.86 -88.217)">
       <g transform="matrix(1.0301 0 0 1.0301 -2.8242 -15.71)">
        <g transform="matrix(.92594 0 0 .92594 -33.98 -.030807)">
         <g>
          <g>
           <polygon points="241.9 306.47 484.01 189.84 484.01 179.19 241.9 62.561 0 179.08 0 189.95"/>
           <path d="m83.808 251.57v69.7l145.84 70.25h24.506l145.44-70.057c0.14-0.307 0.271-0.613 0.402-0.922v-68.972l-158.09 76.152-158.09-76.151z"/>
           <polygon points="470.98 396.2 458.51 358.2 458.51 222.6 439.36 232.26 439.36 358.2 426.88 396.2 445.74 421.44 452.12 421.44"/>
          </g>
         </g>
        </g>
       </g>
      </g>
     </g>
    </g>
    <g transform="matrix(.059807 0 0 .059807 827.81 529.6)">
     <g transform="matrix(.70353 0 0 .70353 -6823.1 -40.25)" fill="url(#c)">
      <g transform="translate(-654.86 -88.217)" fill="url(#b)">
       <g transform="matrix(1.0301 0 0 1.0301 -2.8242 -15.71)" fill="url(#a)">
        <g transform="matrix(.92594 0 0 .92594 -33.98 -.030807)" fill="url(#a)">
         <g fill="url(#a)">
          <g fill="url(#a)">
           <polygon points="241.9 306.47 484.01 189.84 484.01 179.19 241.9 62.561 0 179.08 0 189.95"/>
           <path d="m83.808 251.57v69.7l145.84 70.25h24.506l145.44-70.057c0.14-0.307 0.271-0.613 0.402-0.922v-68.972l-158.09 76.152-158.09-76.151z"/>
           <polygon points="470.98 396.2 458.51 358.2 458.51 222.6 439.36 232.26 439.36 358.2 426.88 396.2 445.74 421.44 452.12 421.44"/>
          </g>
         </g>
        </g>
       </g>
      </g>
     </g>
    </g>
   </g>
  </g>
 </g>
</svg>
