<?xml version="1.0" encoding="UTF-8" standalone="no"?>
<svg
   width="24"
   height="24"
   enable-background="new"
   version="1.1"
   id="svg5"
   sodipodi:docname="audio-volume-low-panel.svg"
   inkscape:version="1.4 (e7c3feb100, 2024-10-09)"
   xmlns:inkscape="http://www.inkscape.org/namespaces/inkscape"
   xmlns:sodipodi="http://sodipodi.sourceforge.net/DTD/sodipodi-0.dtd"
   xmlns="http://www.w3.org/2000/svg"
   xmlns:svg="http://www.w3.org/2000/svg"
   xmlns:rdf="http://www.w3.org/1999/02/22-rdf-syntax-ns#"
   xmlns:cc="http://creativecommons.org/ns#"
   xmlns:dc="http://purl.org/dc/elements/1.1/">
  <defs
     id="defs5" />
  <sodipodi:namedview
     id="namedview5"
     pagecolor="#c8c8c8"
     bordercolor="#000000"
     borderopacity="0.25"
     inkscape:showpageshadow="2"
     inkscape:pageopacity="0.0"
     inkscape:pagecheckerboard="0"
     inkscape:deskcolor="#d1d1d1"
     inkscape:zoom="15.583333"
     inkscape:cx="11.871658"
     inkscape:cy="13.475936"
     inkscape:window-width="1920"
     inkscape:window-height="1051"
     inkscape:window-x="0"
     inkscape:window-y="0"
     inkscape:window-maximized="1"
     inkscape:current-layer="svg5" />
  <title
     id="title1">Paper Symbolic Icon Theme</title>
  <metadata
     id="metadata5">
    <rdf:RDF>
      <cc:Work
         rdf:about="">
        <dc:title>Paper Symbolic Icon Theme</dc:title>
      </cc:Work>
    </rdf:RDF>
  </metadata>
  <g
     id="16-16-audio-volume-high"
     transform="matrix(1.25,0,0,1.25,14.5,89.499628)">
    <rect
       class="ColorScheme-Text"
       x="-10"
       y="-69.999702"
       width="16"
       height="16"
       ry="0"
       fill="currentColor"
       opacity="0"
       id="rect93"
       style="color:#363636" />
    <g
       id="g8988"
       transform="translate(0,23.427307)">
      <path
         class="ColorScheme-Text" fill="currentColor"
         d="m -3.6738281,-90.529297 c -0.2906739,0 -0.4952437,0.131175 -0.8144531,0.421875 l -2.5019532,2.216797 c -0.034197,0.0342 -0.079401,0.04297 -0.125,0.04297 H -8.7285156 C -9.5721186,-87.847655 -10,-87.40288 -10,-86.513671 v 2.189453 c 0,0.894915 0.4335755,1.333984 1.2714844,1.333985 h 1.6132812 c 0.045599,0 0.090803,0.01074 0.125,0.04492 l 2.5019532,2.234374 c 0.296381,0.267911 0.5240836,0.394532 0.8261718,0.394532 0.421808,0 0.7421875,-0.32038 0.7421875,-0.742188 v -8.703125 c 0,-0.427503 -0.3206839,-0.767578 -0.7539062,-0.767577 z m -0.4160157,1.447266 c 0.045592,0 0.080078,0.02878 0.080078,0.08008 v 7.154297 c 0,0.05701 -0.034334,0.08203 -0.074219,0.08203 -0.034178,0 -0.061526,-0.0086 -0.095703,-0.03711 l -2.2695313,-2.058594 c -0.1311017,-0.119719 -0.2445399,-0.146485 -0.3984374,-0.146484 h -1.7792969 c -0.1881014,0 -0.2792969,-0.09122 -0.2792969,-0.279297 v -2.251953 c 0,-0.193783 0.091195,-0.285157 0.2792969,-0.285157 h 1.7792969 c 0.1538975,0 0.2673358,-0.02872 0.3984374,-0.148437 l 2.2695313,-2.06836 c 0.028471,-0.0228 0.055666,-0.04102 0.089844,-0.04102 z m 3.40820318,1.023437 c -0.10133735,9.69e-4 -0.20299186,0.03176 -0.29492188,0.09375 -0.2792597,0.182414 -0.3373355,0.518986 -0.109375,0.84961 0.31350248,0.450279 0.49023438,1.054788 0.49023438,1.6875 0,0.632712 -0.18237416,1.231514 -0.49023438,1.6875 -0.2222533,0.330624 -0.1698847,0.665374 0.109375,0.853515 0.24514672,0.159604 0.56357309,0.104305 0.74023438,-0.146484 C 0.22536487,-83.648794 0.5,-84.521469 0.5,-85.427734 c 0,-0.906329 -0.27463514,-1.773209 -0.73632812,-2.394532 -0.11041331,-0.156752 -0.27641693,-0.237941 -0.4453125,-0.236328 z"
         id="path1"
         style="fill:#ffffff;fill-opacity:1" />
    </g>
  </g>
</svg>
