<?xml version="1.0" encoding="UTF-8" standalone="no"?>
<svg
   viewBox="0 0 24 24"
   width="24"
   height="24"
   version="1.1"
   id="svg5"
   sodipodi:docname="audio-volume-high-danger.svg"
   inkscape:version="1.4 (e7c3feb100, 2024-10-09)"
   xmlns:inkscape="http://www.inkscape.org/namespaces/inkscape"
   xmlns:sodipodi="http://sodipodi.sourceforge.net/DTD/sodipodi-0.dtd"
   xmlns="http://www.w3.org/2000/svg"
   xmlns:svg="http://www.w3.org/2000/svg">
  <defs
     id="defs5" />
  <sodipodi:namedview
     id="namedview5"
     pagecolor="#c8c8c8"
     bordercolor="#000000"
     borderopacity="0.25"
     inkscape:showpageshadow="2"
     inkscape:pageopacity="0.0"
     inkscape:pagecheckerboard="0"
     inkscape:deskcolor="#d1d1d1"
     inkscape:zoom="15.416667"
     inkscape:cx="19.07027"
     inkscape:cy="12.454054"
     inkscape:window-width="1920"
     inkscape:window-height="952"
     inkscape:window-x="0"
     inkscape:window-y="34"
     inkscape:window-maximized="1"
     inkscape:current-layer="svg5" />
  <style
     id="current-color-scheme"
     type="text/css">
        .ColorScheme-Text {
            color:#f2f2f2;
        }
        .ColorScheme-NegativeText {
            color:#da4453;
        }
    </style>
  <g
     id="g3">
    <rect
       class="ColorScheme-Text"
       x="2"
       y="1.9999999"
       width="20"
       height="20"
       ry="0"
       fill="currentColor"
       opacity="0"
       id="rect93"
       style="color:#363636;stroke-width:1.25" />
    <path
       id="path7590"
       style="fill:#da4453;fill-opacity:1;stroke-width:0.81067"
       d="m 16.528809,6.7988962 c -0.1298,-0.00117 -0.262835,0.032388 -0.385743,0.1098626 -0.34194,0.2137575 -0.391044,0.64044 -0.141601,1.0180662 0.762354,1.1115025 1.196289,2.559301 1.196289,4.069824 0,1.503388 -0.448203,2.948739 -1.196289,4.067383 -0.242309,0.37761 -0.200339,0.7996 0.141601,1.020508 0.327755,0.199425 0.726358,0.127368 0.947266,-0.20752 0.933406,-1.311016 1.467285,-3.07063 1.467285,-4.880371 0,-1.80982 -0.526826,-3.5764877 -1.467285,-4.8803702 -0.138067,-0.2093 -0.345192,-0.3154338 -0.561523,-0.3173826 z" />
    <path
       id="path8982"
       style="fill:#da4453;fill-opacity:1;stroke-width:0.81067"
       d="m 13.647949,8.7105175 c -0.126671,0.00121 -0.25374,0.0397 -0.368652,0.1171875 -0.349075,0.2280175 -0.421669,0.6487325 -0.136719,1.0620125 0.391878,0.5628485 0.612793,1.3184845 0.612793,2.1093755 0,0.790889 -0.227968,1.539392 -0.612793,2.109375 -0.277816,0.41328 -0.212356,0.831717 0.136719,1.066893 0.306433,0.199505 0.704466,0.130381 0.925293,-0.183105 0.577116,-0.769488 0.92041,-1.860332 0.92041,-2.993163 0,-1.132912 -0.343294,-2.2165117 -0.92041,-2.9931655 -0.138017,-0.19594 -0.345521,-0.2974263 -0.556641,-0.29541 z"
       sodipodi:nodetypes="sccscccscs" />
    <path
       id="path8980"
       style="fill:#da4453;fill-opacity:1;stroke-width:0.81067"
       d="m 19.409668,4.87751 c -0.131843,-0.00312 -0.263302,0.029937 -0.380859,0.107425 -0.342022,0.220875 -0.391426,0.64044 -0.15625,1.0180662 1.090108,1.66014 1.767578,3.7209663 1.767578,6.0009758 0,2.265743 -0.67747,4.338174 -1.767578,5.991212 -0.235176,0.37761 -0.185772,0.797157 0.15625,1.018066 0.313486,0.206639 0.733953,0.114963 0.961914,-0.227051 C 21.244749,16.905204 22,14.571377 22,12.006416 22,9.43424 21.230481,7.1049962 19.990723,5.216865 19.848247,4.9986575 19.629406,4.8827975 19.409668,4.87751 Z" />
    <path
       class="ColorScheme-Text" fill="currentColor"
       d="m 9.9077149,5.6221388 c -0.3633424,0 -0.6190546,0.1639687 -1.0180664,0.5273437 L 5.762207,8.9204788 c -0.042746,0.04275 -0.099251,0.053712 -0.15625,0.053712 H 3.5893555 C 2.5348518,8.9741912 2,9.53016 2,10.641671 v 2.736817 c 0,1.118643 0.5419694,1.66748 1.5893555,1.667481 H 5.605957 c 0.056999,0 0.1135038,0.01342 0.15625,0.05615 l 3.1274415,2.792967 c 0.3704763,0.334889 0.6551045,0.493165 1.0327148,0.493165 0.5272597,0 0.9277347,-0.400475 0.9277347,-0.927735 V 6.58161 c 0,-0.5343787 -0.400855,-0.9594725 -0.9423831,-0.9594712 z M 9.3876953,7.4312212 c 0.05699,0 0.1000975,0.035975 0.1000975,0.1001 v 8.9428708 c 0,0.07126 -0.042918,0.102538 -0.092774,0.102538 -0.042722,0 -0.076907,-0.01075 -0.1196288,-0.04639 L 6.4384761,13.9571 C 6.274599,13.807451 6.1328012,13.773994 5.9404294,13.773995 H 3.7163083 c -0.2351268,0 -0.3491212,-0.114025 -0.3491212,-0.349121 v -2.814942 c 0,-0.242228 0.1139938,-0.356446 0.3491212,-0.356446 h 2.2241211 c 0.1923719,0 0.3341697,-0.0359 0.4980467,-0.185546 L 9.2753903,7.48249 c 0.035589,-0.0285 0.069583,-0.051275 0.112305,-0.051275 z"
       sodipodi:nodetypes="sccssssssccsssscssscccssssscccc" />
  </g>
</svg>
