<?xml version="1.0" encoding="UTF-8" standalone="no"?>
<svg
   width="24"
   height="24"
   enable-background="new"
   version="1.1"
   id="svg1"
   sodipodi:docname="audio-volume-muted-blocking-panel.svg"
   inkscape:version="1.4 (e7c3feb100, 2024-10-09)"
   xmlns:inkscape="http://www.inkscape.org/namespaces/inkscape"
   xmlns:sodipodi="http://sodipodi.sourceforge.net/DTD/sodipodi-0.dtd"
   xmlns="http://www.w3.org/2000/svg"
   xmlns:svg="http://www.w3.org/2000/svg"
   xmlns:rdf="http://www.w3.org/1999/02/22-rdf-syntax-ns#"
   xmlns:cc="http://creativecommons.org/ns#"
   xmlns:dc="http://purl.org/dc/elements/1.1/">
  <defs
     id="defs1" />
  <sodipodi:namedview
     id="namedview1"
     pagecolor="#c8c8c8"
     bordercolor="#000000"
     borderopacity="0.25"
     inkscape:showpageshadow="2"
     inkscape:pageopacity="0.0"
     inkscape:pagecheckerboard="0"
     inkscape:deskcolor="#d1d1d1"
     inkscape:zoom="11.019081"
     inkscape:cx="-4.9913418"
     inkscape:cy="7.9861469"
     inkscape:window-width="1920"
     inkscape:window-height="1051"
     inkscape:window-x="0"
     inkscape:window-y="0"
     inkscape:window-maximized="1"
     inkscape:current-layer="svg1"
     showgrid="true">
    <inkscape:grid
       id="grid1"
       units="px"
       originx="0"
       originy="0"
       spacingx="1"
       spacingy="1"
       empcolor="#0099e5"
       empopacity="0.30196078"
       color="#0099e5"
       opacity="0.14901961"
       empspacing="5"
       enabled="true"
       visible="true" />
  </sodipodi:namedview>
  <title
     id="title1">Paper Symbolic Icon Theme</title>
  <metadata
     id="metadata1">
    <rdf:RDF>
      <cc:Work
         rdf:about="">
        <dc:title>Paper Symbolic Icon Theme</dc:title>
      </cc:Work>
    </rdf:RDF>
  </metadata>
  <path
     class="ColorScheme-Text" fill="currentColor"
     d="M 9.9082031 5.6230469 C 9.5448607 5.6230469 9.2896368 5.7870156 8.890625 6.1503906 L 5.7617188 8.9199219 C 5.7189727 8.9626719 5.6624677 8.9746094 5.6054688 8.9746094 L 3.5898438 8.9746094 C 2.5353401 8.9746098 2 9.5310671 2 10.642578 L 2 13.378906 C 2 14.497549 2.5424577 15.046874 3.5898438 15.046875 L 5.6054688 15.046875 C 5.6624678 15.046875 5.7189725 15.058832 5.7617188 15.101562 L 8.890625 17.894531 C 9.2611013 18.22942 9.5442647 18.388672 9.921875 18.388672 C 10.449135 18.388672 10.849609 17.988197 10.849609 17.460938 L 10.849609 6.5820312 C 10.849609 6.0476525 10.449731 5.6230456 9.9082031 5.6230469 z M 12.949219 7 C 12.803619 7 12.656488 7.0564035 12.544922 7.1679688 C 12.321791 7.3910998 12.32179 7.749525 12.544922 7.9726562 L 16.572266 12 L 12.544922 16.027344 C 12.32179 16.250475 12.321791 16.608899 12.544922 16.832031 C 12.768053 17.055162 13.12843 17.055162 13.351562 16.832031 L 17.378906 12.804688 L 21.40625 16.832031 C 21.629383 17.055162 21.987807 17.055162 22.210938 16.832031 C 22.434069 16.608899 22.43407 16.250474 22.210938 16.027344 L 18.183594 12 L 22.210938 7.9726562 C 22.434069 7.7495249 22.434069 7.3910999 22.210938 7.1679688 C 21.987807 6.9448374 21.629383 6.9448375 21.40625 7.1679688 L 17.378906 11.195312 L 13.351562 7.1679688 C 13.239996 7.0564031 13.094817 7 12.949219 7 z M 9.3867188 7.4316406 C 9.4437088 7.4316406 9.4882812 7.467125 9.4882812 7.53125 L 9.4882812 16.474609 C 9.4882812 16.545869 9.4443872 16.576172 9.3945312 16.576172 C 9.3518093 16.576172 9.3181124 16.56689 9.2753906 16.53125 L 6.4375 13.957031 C 6.2736229 13.807382 6.1318249 13.773437 5.9394531 13.773438 L 3.7167969 13.773438 C 3.4816701 13.773438 3.3671875 13.660877 3.3671875 13.425781 L 3.3671875 10.609375 C 3.3671875 10.367147 3.4816695 10.253906 3.7167969 10.253906 L 5.9394531 10.253906 C 6.131825 10.253906 6.273623 10.218005 6.4375 10.068359 L 9.2753906 7.4824219 C 9.3109796 7.4539219 9.3439968 7.4316406 9.3867188 7.4316406 z "
     id="path1"
     style="fill:#ffffff;fill-opacity:1;opacity:0.3" />
</svg>
