<?xml version="1.0" encoding="UTF-8"?>
<!-- Created with Inkscape (http://www.inkscape.org/) -->
<svg width="64" height="64" version="1.1" viewBox="0 0 16.933 16.933" xmlns="http://www.w3.org/2000/svg" xmlns:cc="http://creativecommons.org/ns#" xmlns:dc="http://purl.org/dc/elements/1.1/" xmlns:rdf="http://www.w3.org/1999/02/22-rdf-syntax-ns#" xmlns:xlink="http://www.w3.org/1999/xlink">
 <defs>
  <filter id="filter2761" x="-.024" y="-.024" width="1.048" height="1.048" color-interpolation-filters="sRGB">
   <feGaussianBlur stdDeviation="0.14552168"/>
  </filter>
  <linearGradient id="linearGradient2725" x1="8.4084" x2="8.4084" y1="281.15" y2="295.88" gradientTransform="translate(-.1478 -280.07)" gradientUnits="userSpaceOnUse">
   <stop stop-color="#ffbe3c" offset="0"/>
   <stop stop-color="#e68c28" offset="1"/>
  </linearGradient>
  <linearGradient id="linearGradient2771" x1="8.4084" x2="8.4084" y1="281.15" y2="295.88" gradientTransform="translate(-.14773 -280.07)" gradientUnits="userSpaceOnUse">
   <stop stop-color="#ffbe3c" offset="0"/>
   <stop stop-color="#e68c28" offset="1"/>
  </linearGradient>
  <linearGradient id="linearGradient991">
   <stop stop-color="#969696" offset="0"/>
   <stop stop-color="#e6e6e6" stop-opacity=".90196" offset="1"/>
  </linearGradient>
  <linearGradient id="linearGradient13510-3" x1="8.7643" x2="8.7643" y1="287.18" y2="287.64" gradientTransform="matrix(.81179 0 0 .47636 1.5779 -131.36)" gradientUnits="userSpaceOnUse" xlink:href="#linearGradient991"/>
  <linearGradient id="linearGradient13512" x1="8.3178" x2="8.3178" y1="289.36" y2="289.81" gradientTransform="matrix(.78232 0 0 .47636 1.8128 -134.31)" gradientUnits="userSpaceOnUse" xlink:href="#linearGradient991"/>
  <linearGradient id="linearGradient677348" x1="-6.1738" x2="-6.1738" y1="-126.08" y2="-126.7" gradientTransform="matrix(.52936 0 0 .54035 11.512 75.408)" gradientUnits="userSpaceOnUse">
   <stop stop-color="#ffb932" offset="0"/>
   <stop stop-color="#e68c32" offset="1"/>
  </linearGradient>
  <clipPath id="e-2">
   <path d="m0 1337h1028v-1337h-1028z"/>
  </clipPath>
  <clipPath id="d-4">
   <path d="m643.08 355.8h39.287v-33.32h-39.287z"/>
  </clipPath>
  <clipPath id="c-27">
   <path d="m678.88 333.92h10.444v-9.946h-10.444z"/>
  </clipPath>
  <clipPath id="a-51">
   <path d="m679.38 339.39h3.482v-3.481h-3.482z"/>
  </clipPath>
 </defs>
 <metadata>
  <rdf:RDF>
   <cc:Work rdf:about="">
    <dc:format>image/svg+xml</dc:format>
    <dc:type rdf:resource="http://purl.org/dc/dcmitype/StillImage"/>
    <dc:title/>
   </cc:Work>
  </rdf:RDF>
 </metadata>
 <path d="m10.709 1.05c4.405 0 5.0345 0.67282 5.0345 5.388v3.7761c0 4.7152-0.62954 5.388-5.0345 5.388h-4.4832c-4.405 0-5.0346-0.6728-5.0346-5.388v-3.7761c0-4.7152 0.62954-5.388 5.0346-5.388z" enable-background="new" fill="#141414" filter="url(#filter2761)" opacity=".3"/>
 <path d="m10.692 1.05c4.405 0 5.0345 0.67282 5.0345 5.388v3.7761c0 4.7152-0.62954 5.388-5.0345 5.388h-4.4832c-4.405 0-5.0346-0.6728-5.0346-5.388v-3.7761c0-4.7152 0.62954-5.388 5.0346-5.388z" enable-background="new" fill="url(#linearGradient2725)"/>
 <path d="m10.489 1.7114c4.0046 0 4.5768 0.61166 4.5768 4.8982v3.4328c0 4.2866-0.57231 4.8982-4.5768 4.8982h-4.0757c-4.0046 0-4.5769-0.61164-4.5769-4.8982v-3.4328c0-4.2866 0.57231-4.8982 4.5769-4.8982z" enable-background="new" fill="#fafafa" stroke-width=".90909"/>
 <path d="m2.0941 5.4766c-0.0083 0.04197-0.01343 0.08574-0.02139 0.12875h12.756c-0.0076-0.043002-0.01301-0.08681-0.02223-0.12875z" fill="url(#linearGradient13510-3)" opacity=".6" stroke-width=".85831" style="paint-order:normal"/>
 <path d="m2.3034 3.5593c0.00742 0.043002 0.014427 0.085926 0.022638 0.12875h12.251c0.0077-0.046263 0.01416-0.083085 0.02102-0.12875z" fill="url(#linearGradient13512)" opacity=".6" stroke-width=".8426" style="paint-order:normal"/>
 <path d="m8.234 5.0195c-0.293 0-0.38167 0.27567-0.52967 0.52967l-0.30798 0.52812h-6.2181c-9.74e-4 0.12127-0.0036 0.23413-0.0036 0.36121v3.7759c0 4.7152 0.62974 5.3877 5.0347 5.3877h4.4834c4.405 0 5.0342-0.67248 5.0342-5.3877v-3.7759c0-0.52382-0.0096-0.99035-0.02945-1.419z" enable-background="new" fill="url(#linearGradient2771)"/>
 <path d="m15.727 11.554-4.0312 4.0312c3.1176-0.10511 3.8959-0.84418 4.0312-4.0312z" enable-background="new" fill="#fff" opacity=".2"/>
 <path d="m1.4314 6.9805c-0.045162 0.091-0.089736 0.18276-0.13152 0.27537h14.353c-0.03997-0.0926-0.08778-0.18438-0.13102-0.27537z" fill="url(#linearGradient677348)" stroke-width=".1415"/>
 <g transform="translate(-14.038 -2.8521)">
  <path d="m24.472 14.546c-0.33062 0.33103-0.77016 0.51331-1.2379 0.51331-0.46782 0-0.90809-0.18277-1.2384-0.51331-0.33063-0.33021-0.51258-0.77044-0.51258-1.2382 0-0.29629 0.073-0.58169 0.21095-0.83429 0.0795-0.14707 0.18076-0.28268 0.30163-0.40398 0.0177-0.0178 0.0356-0.0348 0.0537-0.0516 0.32407-0.29781 0.74202-0.46113 1.1847-0.46113 0.46772 0 0.90725 0.18229 1.2379 0.51284 0.0665 0.0665 0.12671 0.13751 0.1804 0.21127 0.4955 0.68404 0.43609 1.6491-0.1804 2.2652m2.585 1.4776-0.99771-0.99804c-0.15331-0.15292-0.40065-0.15292-0.55434 0v7.14e-4l-0.27096-0.27144c0.72375-0.9907 0.63808-2.3919-0.25593-3.2866-0.4782-0.47916-1.115-0.74286-1.7917-0.74286-0.67698 0-1.3132 0.2637-1.7921 0.74286-0.47869 0.47918-0.74189 1.1155-0.74189 1.7927-7.14e-4 0.67734 0.26321 1.314 0.74189 1.7928 0.47858 0.4787 1.1151 0.74324 1.7921 0.74324 0.54419 0 1.0626-0.17107 1.4933-0.48729l0.27061 0.27109h-4.76e-4c-0.15285 0.1528-0.15201 0.40112 4.76e-4 0.55438l0.99743 0.99812c0.16357 0.16332 0.42762 0.16332 0.59131 0l0.51758-0.51807c0.16358-0.1638 0.16358-0.42821 3.44e-4 -0.5916" opacity=".25" stroke-width=".98679"/>
  <g transform="matrix(.11931 0 0 -.11937 -58.927 53.056)">
   <g clip-path="url(#e-2)">
    <g clip-path="url(#d-4)" opacity=".66548">
     <g transform="translate(648.55,338.99)">
      <path d="m0 0c2.161 2.507 7.198 7.761 13.427 10.347-3.602-2.205-5.999-6.121-5.999-10.584 0-3.7 1.649-7.024 4.266-9.308-5.425 2.754-9.74 7.272-11.694 9.545m22.483-12.244c-1.727 2.549-2.658 5.559-2.658 8.719 0 4.126 1.448 8.152 4.465 10.925 2.923 2.689 7.358 4.29 9.527 4.468-3.971 2.736-8.815 4.944-14.112 4.944-13.649 0-24.284-14.641-24.729-15.261-0.595-0.834-0.595-1.961 0-2.793 0.445-0.62 11.08-15.265 24.729-15.265 2.038 0 4.009 0.328 5.882 0.885-0.448 0.366-0.883 0.752-1.297 1.174-0.677 0.683-1.277 1.421-1.807 2.204" fill="#fff"/>
     </g>
    </g>
    <g clip-path="url(#c-27)" opacity=".61821">
     <g transform="translate(687.91,327.34)">
      <path d="m0 0c-4.463 0.805-5.583 5.069-5.629 5.268-0.224 0.91-1.139 1.469-2.066 1.26-0.926-0.214-1.5-1.129-1.286-2.042 0.063-0.269 1.641-6.626 8.369-7.833 0.104-0.018 0.205-0.028 0.312-0.028 0.813 0 1.538 0.576 1.69 1.401 0.168 0.918-0.452 1.808-1.39 1.974" fill="#fff"/>
     </g>
    </g>
    <g transform="translate(698.96,324.29)">
     <path d="m0 0c-2.771-2.773-6.455-4.3-10.375-4.3-3.921 0-7.611 1.531-10.379 4.3-2.771 2.766-4.296 6.454-4.296 10.372 0 2.482 0.612 4.873 1.768 6.989 0.667 1.232 1.515 2.368 2.528 3.384 0.149 0.149 0.298 0.291 0.45 0.433 2.716 2.495 6.219 3.863 9.929 3.863 3.92 0 7.604-1.527 10.375-4.296 0.557-0.557 1.062-1.152 1.512-1.77 4.153-5.73 3.655-13.815-1.512-18.975m21.666-12.378-8.362 8.36c-1.285 1.281-3.358 1.281-4.646 0v-6e-3l-2.271 2.274c6.066 8.299 5.348 20.037-2.145 27.531-4.008 4.014-9.345 6.223-15.016 6.223-5.674 0-11.006-2.209-15.02-6.223-4.012-4.014-6.218-9.344-6.218-15.017-6e-3 -5.674 2.206-11.007 6.218-15.018 4.011-4.01 9.346-6.226 15.02-6.226 4.561 0 8.906 1.433 12.516 4.082l2.268-2.271h-4e-3c-1.281-1.28-1.274-3.36 4e-3 -4.644l8.359-8.361c1.371-1.368 3.584-1.368 4.956 0l4.338 4.34c1.371 1.372 1.371 3.587 3e-3 4.956" fill="#fff"/>
    </g>
    <g clip-path="url(#a-51)" opacity=".61821">
     <g transform="translate(679.38,337.65)">
      <path d="m0 0c0-0.961 0.779-1.741 1.741-1.741 0.961 0 1.74 0.78 1.74 1.741s-0.779 1.741-1.74 1.741c-0.962 0-1.741-0.78-1.741-1.741" fill="#fff"/>
     </g>
    </g>
   </g>
  </g>
 </g>
</svg>
