<?xml version="1.0" encoding="UTF-8"?>
<!-- Created with Inkscape (http://www.inkscape.org/) -->
<svg width="64" height="64" version="1.1" viewBox="0 0 16.933 16.933" xmlns="http://www.w3.org/2000/svg" xmlns:cc="http://creativecommons.org/ns#" xmlns:dc="http://purl.org/dc/elements/1.1/" xmlns:rdf="http://www.w3.org/1999/02/22-rdf-syntax-ns#" xmlns:xlink="http://www.w3.org/1999/xlink">
 <defs>
  <filter id="filter2761" x="-.024" y="-.024" width="1.048" height="1.048" color-interpolation-filters="sRGB">
   <feGaussianBlur stdDeviation="0.14552168"/>
  </filter>
  <linearGradient id="linearGradient2725" x1="8.4084" x2="8.4084" y1="281.15" y2="295.88" gradientTransform="translate(-.1478 -280.07)" gradientUnits="userSpaceOnUse">
   <stop stop-color="#ffbe3c" offset="0"/>
   <stop stop-color="#e68c28" offset="1"/>
  </linearGradient>
  <linearGradient id="linearGradient2771" x1="8.4084" x2="8.4084" y1="281.15" y2="295.88" gradientTransform="translate(-.14773 -280.07)" gradientUnits="userSpaceOnUse">
   <stop stop-color="#ffbe3c" offset="0"/>
   <stop stop-color="#e68c28" offset="1"/>
  </linearGradient>
  <linearGradient id="linearGradient991">
   <stop stop-color="#969696" offset="0"/>
   <stop stop-color="#e6e6e6" stop-opacity=".90196" offset="1"/>
  </linearGradient>
  <linearGradient id="linearGradient13510-3" x1="8.7643" x2="8.7643" y1="287.18" y2="287.64" gradientTransform="matrix(.81179 0 0 .47636 1.5779 -131.36)" gradientUnits="userSpaceOnUse" xlink:href="#linearGradient991"/>
  <linearGradient id="linearGradient13512" x1="8.3178" x2="8.3178" y1="289.36" y2="289.81" gradientTransform="matrix(.78232 0 0 .47636 1.8128 -134.31)" gradientUnits="userSpaceOnUse" xlink:href="#linearGradient991"/>
  <linearGradient id="linearGradient677348" x1="-6.1738" x2="-6.1738" y1="-126.08" y2="-126.7" gradientTransform="matrix(.52936 0 0 .54035 11.512 75.408)" gradientUnits="userSpaceOnUse">
   <stop stop-color="#ffb932" offset="0"/>
   <stop stop-color="#e68c32" offset="1"/>
  </linearGradient>
 </defs>
 <metadata>
  <rdf:RDF>
   <cc:Work rdf:about="">
    <dc:format>image/svg+xml</dc:format>
    <dc:type rdf:resource="http://purl.org/dc/dcmitype/StillImage"/>
    <dc:title/>
   </cc:Work>
  </rdf:RDF>
 </metadata>
 <path d="m10.709 1.05c4.405 0 5.0345 0.67282 5.0345 5.388v3.7761c0 4.7152-0.62954 5.388-5.0345 5.388h-4.4832c-4.405 0-5.0346-0.6728-5.0346-5.388v-3.7761c0-4.7152 0.62954-5.388 5.0346-5.388z" enable-background="new" fill="#141414" filter="url(#filter2761)" opacity=".3"/>
 <path d="m10.692 1.05c4.405 0 5.0345 0.67282 5.0345 5.388v3.7761c0 4.7152-0.62954 5.388-5.0345 5.388h-4.4832c-4.405 0-5.0346-0.6728-5.0346-5.388v-3.7761c0-4.7152 0.62954-5.388 5.0346-5.388z" enable-background="new" fill="url(#linearGradient2725)"/>
 <path d="m10.489 1.7114c4.0046 0 4.5768 0.61166 4.5768 4.8982v3.4328c0 4.2866-0.57231 4.8982-4.5768 4.8982h-4.0757c-4.0046 0-4.5769-0.61164-4.5769-4.8982v-3.4328c0-4.2866 0.57231-4.8982 4.5769-4.8982z" enable-background="new" fill="#fafafa" stroke-width=".90909"/>
 <path d="m2.0941 5.4766c-0.0083 0.04197-0.01343 0.08574-0.02139 0.12875h12.756c-0.0076-0.043002-0.01301-0.08681-0.02223-0.12875z" fill="url(#linearGradient13510-3)" opacity=".6" stroke-width=".85831" style="paint-order:normal"/>
 <path d="m2.3034 3.5593c0.00742 0.043002 0.014427 0.085926 0.022638 0.12875h12.251c0.0077-0.046263 0.01416-0.083085 0.02102-0.12875z" fill="url(#linearGradient13512)" opacity=".6" stroke-width=".8426" style="paint-order:normal"/>
 <path d="m8.234 5.0195c-0.293 0-0.38167 0.27567-0.52967 0.52967l-0.30798 0.52812h-6.2181c-9.74e-4 0.12127-0.0036 0.23413-0.0036 0.36121v3.7759c0 4.7152 0.62974 5.3877 5.0347 5.3877h4.4834c4.405 0 5.0342-0.67248 5.0342-5.3877v-3.7759c0-0.52382-0.0096-0.99035-0.02945-1.419z" enable-background="new" fill="url(#linearGradient2771)"/>
 <path d="m15.727 11.554-4.0312 4.0312c3.1176-0.10511 3.8959-0.84418 4.0312-4.0312z" enable-background="new" fill="#fff" opacity=".2"/>
 <path d="m1.4314 6.9805c-0.045162 0.091-0.089736 0.18276-0.13152 0.27537h14.353c-0.03997-0.0926-0.08778-0.18438-0.13102-0.27537z" fill="url(#linearGradient677348)" stroke-width=".1415"/>
 <g transform="translate(-13.576 -3.961)" stroke-width=".3227">
  <path d="m22.027 11.904c-0.11165 0-0.22396 9e-3 -0.33272 0.0203a3.1625 3.1625 0 0 0-0.62541 0.12102 3.2416 3.2416 0 0 0-2.1276 2.1276 3.1625 3.1625 0 0 0-0.12101 0.6254 3.2368 3.2368 0 0 0-0.02033 0.33272c0 0.11165 0.0091 0.22396 0.02033 0.33271a3.1625 3.1625 0 0 0 0.12101 0.62541 3.2416 3.2416 0 0 0 2.1276 2.1276 3.1625 3.1625 0 0 0 0.62541 0.12133c0.10875 0.011 0.22105 0.02 0.33272 0.02s0.22396-9e-3 0.33272-0.0203a3.1625 3.1625 0 0 0 0.62541-0.12069 3.2965 3.2965 0 0 0 0.58474-0.25236 3.2212 3.2212 0 0 0 1.5433-1.8756 3.1625 3.1625 0 0 0 0.12069-0.62541c0.01138-0.10875 0.02033-0.22105 0.02033-0.33271 0-0.11133-0.0091-0.22429-0.02033-0.33272a3.1625 3.1625 0 0 0-0.12069-0.62541 3.2497 3.2497 0 0 0-0.59508-1.0991c-0.06586-0.0797-0.13876-0.14877-0.21201-0.22203-0.29141-0.29141-0.63218-0.53278-1.0184-0.69576a3.3439 3.3439 0 0 0-0.30238-0.11068 3.1625 3.1625 0 0 0-0.62541-0.12102 3.3284 3.3284 0 0 0-0.33272-0.0203zm0 0.3227c0.48825 0 0.94747 0.11973 1.3515 0.33272 0.01067 6e-3 0.01941 0.0145 0.02998 0.0203 0.0081 0.0107 0.0061 0.0223 0.02033 0.03 0.01037 6e-3 0.02033 0.0151 0.02998 0.0203 0.01708 0.0102 0.03385 0.0239 0.03029 0.0403-0.0041 0.0242-0.04391 0.0226-0.06037 0.0403 2e-3 0.0338-0.01159 0.0274-0.02033 0.0503 0.0051 0.0148 0.01809 0.0129 0.02033 0.0303-0.0031 0.0187-0.02744 0.0209-0.02033 0.0403 0.03161 0.0245 0.06098 4e-3 0.09097 0 0.06546-8e-3 0.1207 1e-3 0.16136-0.0303-0.0041-0.0252 0.01931-0.0322 0.02998-0.0503 0.02165 0.0151 0.03974 0.0349 0.06068 0.0503-0.0123 5e-3 -0.03933 0.0132-0.05062 0.0203-0.01616 0.011-0.02134 0.0281-0.04004 0.0403-0.01352 9e-3 -0.04645 0.0403-0.06068 0.0403-0.01708 0-0.04838-0.0142-0.06068-0.0104-0.01738 5e-3 -0.01037 0.0335-0.02998 0.0403-0.03872 0.0142-0.10746-0.0378-0.12101 0.0203 0.01616 0.0335 0.07135 0.0223 0.10072 0.0403 0.0184 0.0116 0.04584 0.0711 0.05072 0.0907a0.23654 0.23654 0 0 1 0 0.091c-0.0184 0.0467-0.06708 0.0413-0.12134 0.0403-0.01453 0-0.02683 1e-3 -0.04005 0-0.09097-6e-3 -0.18072-0.0349-0.22203 0.03 0.0031 0.05 0.01128 0.0774 0 0.12102-0.0081 0.0316-0.04198 0.0533-0.04035 0.0807 6.61e-4 0.0142 0.02683 0.0413 0.03029 0.0607 2e-3 0.0104-0.0051 0.031 0 0.0403 0.01514 0.0288 0.05356-5e-3 0.0807 0 0.02582 4e-3 0.05031 0.042 0.05031 0.0703a0.18427 0.18427 0 0 1-0.02033 0.0807c-0.02582 0.0387-0.07389 0.0294-0.1107 0.0507-0.03069 0.0174-0.04228 0.0601-0.06068 0.0907-0.01941 0.0329-0.03771 0.0439-0.02998 0.0907a0.21783 0.21783 0 0 1-0.11101 0.11101 0.31883 0.31883 0 0 0-0.05062 0.0304 0.25559 0.25559 0 0 0-0.04005 0.0403c-0.02063 0.0226-0.0494 0.0326-0.06068 0.0503-0.0081 0.0135-1e-3 0.0423-0.01017 0.0607-0.01291 0.0245-0.03425 0.0458-0.05062 0.0703-0.0071 0.0119-0.02196 0.0252-0.02998 0.0403-0.0187 0.0342-0.04391 0.061-0.04035 0.091 3e-3 0.0288 0.03872 0.0352 0.04035 0.0604 2e-3 0.0142-0.01067 0.0252-0.01037 0.0403 9.52e-4 0.0226 0.0081 0.0329 0.01037 0.0503 0.0041 0.0436-0.02226 0.061-0.03039 0.091-0.0041 0.0139 3e-3 0.0291 0 0.04-0.0071 0.022-0.03974 0.0349-0.04035 0.0607-6.62e-4 0.0181 0.02836 0.0349 0.03029 0.0607 1e-3 0.0174-0.01352 0.0338-0.01037 0.0503 0.0061 0.0316 0.06617 0.0761 0.09097 0.10073 0.03324 0.0335 0.06586 0.0555 0.0807 0.091 0.0123 0.0297 0.01738 0.0784 0.04035 0.10073 0.01677 0.0162 0.04869 0.0233 0.07033 0.0404 0.02063 0.0162 0.04909 0.0233 0.07105 0.0403 0.03547 0.0281 0.08385 0.0849 0.14102 0.0807 0.02968-2e-3 0.05712-0.0142 0.09066-0.0203 0.03456-6e-3 0.07582-0.0236 0.11101-0.02 0.02683 3e-3 0.05224 0.022 0.0807 0.0203 0.02907-2e-3 0.06749-0.0159 0.10072-0.0303 0.05814-0.0252 0.14748-0.073 0.23203-0.0607 0.06454 0.0102 0.06586 0.0823 0.11101 0.11102 0.05163 4e-3 0.09005-0.0102 0.13101 0 0.031 8e-3 0.06779 0.0662 0.07064 0.0907 3e-3 0.0252-0.01677 0.0448-0.02033 0.0607-0.0081 0.0339-0.01423 0.0791-0.02002 0.10072-0.0051 0.0171-0.01057 0.0335-0.01037 0.0507 0 0.0152 0.02449 0.0503 0.04066 0.0703 0.01941 0.0248 0.04716 0.0436 0.07033 0.0706 0.04289 0.0494 0.06098 0.11617 0.09097 0.18168 0.0071 0.0162-0.0071 0.0194 0 0.04-0.01291 0.0987-0.04645 0.16328-0.111 0.27235-0.03069 0.0355-0.06129 0.0772-0.06068 0.12102-2e-3 0.10553 0.05519 0.16007 0.05072 0.26236-0.01067 0.13716 3.17e-4 0.15845-0.01037 0.2317 0.04645 0.0236 0.02358 0.0926 0.01037 0.14135-0.02002 0.058-0.03944 0.0723-0.05072 0.11101a0.12908 0.12908 0 0 0 0.07064 0.0102 2.9021 2.9021 0 0 1-2.0976 0.88744 2.8988 2.8988 0 0 1-1.0891-0.2117c-9.66e-4 -6.61e-4 9.76e-4 -0.0102 0-0.0104 0.03069-0.0129 0.08873 0.0226 0.11102-0.02 0.01098-0.0206-0.01484-0.0601 0-0.0807 0.01037-0.0142 0.07907-0.0268 0.10072-0.0303 0.0313-5e-3 0.06322 1e-3 0.0807-0.0102a0.091972 0.091972 0 0 0 0.04035-0.0807c-2e-3 -0.0171-0.01677-0.0252-0.02998-0.0404-0.01128-0.0129-0.0031-0.0288-0.01037-0.0403-0.01382-0.0206-0.03456-0.0307-0.04035-0.0607 0.04228-8e-3 0.10042 0.0475 0.16136 0.0303 0.02907-8e-3 0.07745-0.0635 0.09097-0.0907 0.0041-8e-3 -0.0051-0.0403 0-0.0503 0.0051-0.0114 0.01809-0.0145 0.02002-0.0203 0.0041-0.0158-3e-3 -0.0203 0-0.03 0.01067-0.03 0.04289-0.0491 0.06068-0.071 0.01321-0.0162 0.02775-0.0332 0.04035-0.0503 0.01382-0.0181 0.02063-0.0242 0.02998-0.04 0.0092-0.0536-0.03293-0.0945-0.02002-0.14135 0.01382-0.053 0.09036-0.0871 0.14101-0.11101 0.01779-8e-3 0.03578-0.0248 0.05072-0.03 0.03517-0.0126 0.07775-8e-3 0.11068-0.0203 0.05519-0.02 0.0742-0.0807 0.10103-0.13102 0.01291-0.0236 0.02775-0.0436 0.02998-0.0607 3e-3 -0.0152-0.0031-0.0326 0-0.0503 3e-3 -0.0174 0.0051-0.031 0.01037-0.0503a0.5131 0.5131 0 0 0 0.01017-0.10103c0-0.0233-0.01017-0.0291-0.01017-0.0503-0.0041-0.0761 0.02226-0.0794 0.05031-0.12102 0.01423-0.0206 0.02033-0.0558 0.03039-0.0706 0.04747-0.0703 0.12683-0.10488 0.12101-0.21169-2e-3 -0.0355-0.01453-0.10973-0.04035-0.12102-0.01484-6e-3 -0.04909-2e-3 -0.07064-0.0102-0.06942-0.0258-0.1194-0.10519-0.19168-0.111-0.01514-6.61e-4 -0.02328 6.35e-4 -0.04035 0-0.02805-6.61e-4 -0.05905-0.0267-0.09066-0.0303-0.02002-2e-3 -0.05875 6e-3 -0.07064 0-0.01809-8e-3 -0.01545-0.0403-0.02998-0.0503-0.01199-8e-3 -0.03222-0.0135-0.05062-0.0203a0.24042 0.24042 0 0 0-0.0807-0.02c-0.01037-6.35e-4 -0.03872 2e-3 -0.05031 0-0.01809-3e-3 -0.03354-0.0197-0.05031-0.0303-0.02134-0.0129-0.03161-0.022-0.04035-0.0404 0.01931-0.0632-0.04777-0.0739-0.06068-0.11068-0.0061-0.0171 0.0061-0.0451 0-0.0607-0.0071-0.0216-0.02612-0.0322-0.05031-0.0503-0.04198-0.0329-0.0807-0.0629-0.14135-0.0706-0.02683-3e-3 -0.05814 2e-3 -0.09036 0a0.15715 0.15715 0 0 1-0.10103-0.0504c-0.0248-0.0291-0.02907-0.0571-0.05062-0.0706-0.02033-0.0129-0.05651-0.0168-0.07033-0.0303-0.0061-6e-3 -0.0041-0.0168-0.01037-0.03-0.01037-0.0213-0.03293-0.0249-0.02002-0.0506-0.02358-0.0116-0.01514 0.0148-0.04035 0.0104-0.02256-0.0322-0.03903-0.0503-0.09066-0.0407-0.02358 5e-3 -0.0433 0.0401-0.07064 0.0407-0.02256 6.35e-4 -0.04066-0.0365-0.07064-0.0407-0.02256-2e-3 -0.05488 0.0239-0.07033 0.0203-0.02551-4e-3 -0.02775-0.0352-0.05062-0.0503-0.01677-0.0113-0.05102-0.041-0.06037-0.0403-0.02937 6.62e-4 -0.05031 0.062-0.09097 0.0403-0.01972-0.0252 0.03385-0.0271 0.01037-0.0507-0.01779-0.0174-0.02643 9.79e-4 -0.04035 0.0104-0.01647 0.011-0.03232 0.0239-0.05072 0.03-0.04035 0.0154-0.06901 0.0139-0.10072 0.0303-0.02907 0.0154-0.03354 0.0407-0.05031 0.0706-0.01352 0.0245-0.04005 0.0594-0.06068 0.0607-0.0245 2e-3 -0.04838-0.031-0.07033-0.0407-0.06779-0.0291-0.10585 0.0197-0.16135 0.0203-0.05163 6.35e-4 -0.1236-0.0823-0.12102-0.13101 2e-3 -0.03 0.01647-0.0742 0.02002-0.11102 3e-3 -0.0291 0.02968-0.0536 0.03029-0.0807 6.51e-4 -0.0355-0.05743-0.0665-0.0807-0.0706-0.05519-0.0102-0.12909 0.0249-0.19169 0-0.01159-0.02 0.02327-0.031 0.03029-0.0503 0.0041-0.0113-0.0041-0.0181 0-0.0303 0.0071-0.0187 0.0313-0.0304 0.04035-0.0503 0.0061-0.0151 3e-3 -0.042 0.01016-0.0607 0.0081-0.0209 0.02836-0.0349 0.03039-0.0503 2e-3 -0.02-0.01453-0.0475-0.03039-0.0604a0.31432 0.31432 0 0 0-0.11101 0.02c-0.06322 0.0291-0.04675 0.11133-0.11068 0.13134-0.02195 7e-3 -0.05621 0.0162-0.0807 0.02a2.8754 2.8754 0 0 1 0.19141-0.60512c0.02256 4e-3 0.04127 0.0184 0.06068 0.0203 0.05387 4e-3 0.0561-0.0371 0.10072-0.0607 0.04584 6e-3 0.06942-4e-3 0.11101 0 0.02805 3e-3 0.0684 0.0387 0.09066 0.0403 0.0187 6.41e-4 0.02256-0.0233 0.04035-0.0203s0.04747 0.0396 0.05062 0.0607c3e-3 0.0264-0.01779 0.0516-0.01037 0.0807 0.02775 0.0281 0.08162 0.0442 0.12101 0.0607 0.02582-0.0213 0.0041-0.0703 0-0.10103-6.4e-4 -0.0135 2e-3 -0.0281 0-0.0403-0.0031-0.0209-0.01016-0.0423-0.01016-0.0607 0-0.0838 0.06454-0.11812 0.12102-0.15104 0.02419-0.0142 0.0494-0.04 0.07064-0.0506 0.02968-0.0145 0.04584-0.0162 0.07033-0.03 0.04482-0.0252 0.08649-0.0519 0.12101-0.0807 0.01616-0.0381-2e-3 -0.0836 0-0.12101 0.01616-0.0102 0.02358 2e-3 0.04035 0 0.02714-6e-3 0.03547-0.0452 0.05062-0.0607 0.0092-9e-3 0.03974-0.0113 0.05031-0.02 0.02714-0.0212 0.02714-0.0513 0.05031-0.0607 0.0081-3e-3 0.02744-6e-3 0.04035-0.0102 0.01779-5e-3 0.04259-0.0203 0.07064-0.0304 0.01809-6e-3 0.06363-3e-3 0.07064-0.0102 0.0091-9e-3 -2e-3 -0.0471 0-0.0607 0.01382-0.0662 0.11199-0.0684 0.17136-0.0904 0.04096-0.0162 0.08517-0.0494 0.13101-0.0407-0.0092 0.0316-0.04777 0.0226-0.04035 0.0607 0.01016 0.0533 0.07196-0.0129 0.09097-0.0203 0.03547-0.0151 0.10423-0.0233 0.15103-0.0403 0.04126-0.0145 0.1094-0.0433 0.07064-0.0907-0.03232-2e-3 -0.04228 0.0288-0.07064 0.0403-0.01931 3e-3 -0.02388-9e-3 -0.04035-0.0102-0.01586-6.5e-4 -0.02449 0.0129-0.04035 0.0102-0.01586-3e-3 -0.03781-0.0316-0.04035-0.0503-0.0061-0.0494 0.05062-0.0645 0.07064-0.10103-0.01352-0.0445-0.07328-3e-3 -0.11102-0.02 0.0041-0.0264 0.01931-0.0552 0.05062-0.0607a0.19944 0.19944 0 0 1 0.10072 0.0203c0.0091 7e-3 -0.0031 0.0277 0.01016 0.0403 0.01545 0.0135 0.04066 3e-3 0.06068 0 0.0071-0.0335-0.04614-0.0187-0.04035-0.0403 0.03974-0.0258 0.11263-0.0139 0.16135-0.0203 0.02805-4e-3 0.05549-0.0268 0.0807-0.0403 0.02328-0.0135 0.04584-0.0322 0.07033-0.0102 0.0071 0.0242-0.01677 0.0381-0.02998 0.0503-0.04523 0.04-0.08589 0.0849-0.12102 0.13133 0.02165 0.0209 0.05417 6e-3 0.09066 0.0102 0.01423 2e-3 0.03547 8e-3 0.05031 0.0104 0.01779 3e-3 0.03649-3e-3 0.05062 0 0.0245 6e-3 0.02582 0.0404 0.05031 0.0404 0.03974 0 0.04289-0.0335 0.02002-0.0607 0.0071-0.0275 0.02033-0.051 0.01037-0.0703-0.0184-0.0365-0.0871 6e-3 -0.09097-0.0403-2e-3 -0.0294 0.02998-0.0384 0.04035-0.0607-0.0041-0.0562 0.04614-0.0597 0.04035-0.11069-0.0031-0.0212-0.02582-0.0206-0.04035-0.0404-0.0071-0.0107-0.01128-0.0329-0.02002-0.0403-0.03069-0.0258-0.0871-0.0216-0.09097-0.0711-2e-3 -0.0291 0.0041-0.0487 0-0.0807-0.0041-0.0297-0.03456-0.11488-0.06037-0.12069-0.03293-7e-3 -0.05163 0.0522-0.09066 0.0703a0.15909 0.15909 0 0 1-0.0807 0.0104c-0.01423-3e-3 -0.03872-0.0135-0.04035-0.0404-2e-3 -0.0154 3e-3 -0.0209 0.01016-0.0303 2e-3 -2e-3 -2e-3 -8e-3 0-0.0102a2.927 2.927 0 0 1 0.80677-0.11102zm-1.2002 0.26236c-0.02836 0.0917-0.11133 0.14392-0.2217 0.14102-0.02714 0.0258-0.01586 0.0752-0.03039 0.11102a0.089067 0.089067 0 0 1-0.0807 0.0503c-0.02165-2e-3 -0.06068-0.03-0.06068-0.0503 0-0.0168 0.01616-0.0358 0.02033-0.0506a2.8798 2.8798 0 0 1 0.37305-0.20169zm2.4709 0.10073a0.088422 0.088422 0 0 0-0.03029 0.0102c-0.02256 0.0135-0.02358 0.0338-0.04035 0.0403-0.02419 9e-3 -0.05712 9e-3 -0.06068 0.0303-3e-3 0.0181 0.02094 0.0239 0.02033 0.0403-0.0091 0.0217-0.02582 0.0239-0.03029 0.0503 0.02998 0.0487 0.10424 6.51e-4 0.14135-0.0102 0.01616-5e-3 0.0313 3e-3 0.04005-0.0102 0.01017-0.0162 2e-3 -0.0484 0.01037-0.0706 0.0081-0.0245 0.03324-0.0187 0.02998-0.0403-2e-3 -0.0216-0.04421-0.0439-0.0807-0.0403zm-3.1971 0.37304c0.02165 0.0258 0.03974 0.0639 0 0.0807-0.0061 3e-3 -0.07643 0.0129-0.09066 0.0104-0.0041-6.4e-4 -0.0061-7e-3 -0.01016-0.0104 0.0307-0.03 0.06871-0.0519 0.10072-0.0807zm0.0807 0.10103c0.01423 6.41e-4 0.02388 0.0291 0.04035 0.03 0.01616 2e-3 0.04096-0.0129 0.05072-0.0102 0.0245 6e-3 0.03354 0.0522 0.01016 0.0703-0.01931 2e-3 -0.02582-0.0233-0.04005-0.0203-0.04005 7e-3 -0.05102 0.0832-0.0807 0.0807-0.02836-3e-3 -0.04909-0.0601-0.02033-0.0807 6.4e-4 -0.0174-0.01128-0.0226-0.01016-0.0403 0.0091-0.011 0.02673-0.0319 0.05031-0.03zm-0.13101 0.02c0.0081 0 0.0071-3e-3 0.01016 0-0.0041 0.0313-0.01616 0.0358-0.04035 0.0506a0.16522 0.16522 0 0 0-0.0807 0.11069c-0.0041 0.0162-0.05062 0.0645-0.07033 0.0607-0.04645-0.0102 0.01931-0.0975 0.02998-0.11102 0.01199-0.0148 0.02683-0.0239 0.04035-0.0403 0.01352-0.0162 0.01748-0.051 0.03039-0.0607 0.01423-0.0102 0.0561-0.011 0.0807-0.0102zm3.9735 0.0807c0.04614-3e-3 0.06942 0.0525 0.09036 0.0807 0.01779 0.0229 0.07226 0.0549 0.10103 0.0706 0.01647 9e-3 0.03232 0.022 0.05072 0.0304 0.01901 8e-3 0.04777 0.0193 0.07033 0.0404 0.02256 0.0206 0.03974 0.0516 0.04035 0.0703 6.62e-4 0.019-0.01291 0.0329-0.01016 0.0506 0.02033 3e-3 0.031-0.0175 0.04035-0.0403 0.07613 0.10842 0.14071 0.22428 0.20169 0.34271a0.038079 0.038079 0 0 0-0.02033 0.0304c-0.0061 0.0329 0.01931 0.0749-0.02998 0.0807-0.0313 4e-3 -0.0681-0.031-0.11102-0.0404-0.01738-4e-3 -0.04645 4e-3 -0.06068 0-0.03222-0.0113-0.02256-0.0513-0.05031-0.0706a0.2259 0.2259 0 0 0-0.0807-0.03c-0.01586-2e-3 -0.02388 2e-3 -0.04035 0-0.02002-3e-3 -0.05417 0-0.07033-0.0104-0.01616-0.0102-0.05651-0.0268-0.06068-0.0404-0.0061-0.0216 0.0494-0.0522 0.05031-0.0703 1e-3 -0.0142-0.01708-0.0193-0.02002-0.0407-2e-3 -0.0129 3e-3 -0.0319 0-0.04-0.0041-0.0154-0.02643-0.0297-0.05062-0.0303-0.02094 0-0.04198 0.0102-0.06037 0.0102-0.02582 6.51e-4 -0.07877-0.0129-0.11101-0.0102-0.01931 2e-3 -0.03222 9e-3 -0.05031 0.0102-0.05102 4e-3 -0.08101-3e-3 -0.12102 0-0.02907 2e-3 -0.08385 0.0181-0.11101 0.0303-0.01352 6e-3 -0.02256 0.0212-0.04035 0.03-0.0081 4e-3 -0.01931 5e-3 -0.02998 0.0104-0.01647 7e-3 -0.04482 0.0258-0.06068 0.03-0.02256 6e-3 -0.04909-2e-3 -0.09066 0-0.02998 2e-3 -0.07999-4e-3 -0.0807-0.0401-6.35e-4 -0.0549 0.09971-0.031 0.15104-0.0407 0.01931-4e-3 0.02714-0.0268 0.05062-0.04 0.01098-6e-3 0.01931-0.0132 0.02998-0.0203 0.01779-0.0123 0.04777-0.0365 0.05062-0.0503 2e-3 -0.0129-0.01189-0.031-0.01037-0.0403 2e-3 -0.0123 0.02449-0.0245 0.04066-0.0403 0.02449-0.0248 0.04005-0.0549 0.07033-0.0706 0.02063-0.0113 0.06129-0.0138 0.07064-0.0303 2e-3 -0.0187-6.62e-4 -0.0233 0-0.0403 0.01291-0.0116 0.0091-0.0178 0.02033-0.02 0.03161-7e-3 0.06363 0.0119 0.10072 0.0102 0.01616-6.4e-4 0.03354 1e-3 0.05031-0.0102 0.01423-0.0102 0.02643-0.0233 0.04035-0.0303 0.01545-8e-3 0.03161-0.0291 0.05062-0.0304zm-3.7015 0.0304c0.0081-1e-3 0.02094 9.61e-4 0.0307 0 0.01321-6.58e-4 0.02582 0 0.04035 0s0.03425-6e-3 0.04035 0c-0.01016 0.0387-0.10072 0.0242-0.13134 0.0102 9.66e-4 -7e-3 0.0126-9e-3 0.02033-0.0102zm-0.11068 0.0706c0.01016 0 0.01972-4e-3 0.03039 0-0.02714 0.0226-0.06424 0.0355-0.11102 0.0503-0.02256 7e-3 -0.05651 0.0145-0.06068-0.0102-0.0041-0.0307 0.02063-0.0274 0.04035-0.0303 0.02582-3e-3 0.07105-0.0102 0.10103-0.0102zm3.8221 0c-0.01931 6e-3 -0.02907 0.0452 0 0.0503 0.01352-8e-3 0.01352-0.0258 0.01016-0.0503-0.0081-8e-3 -0.0041-2e-3 -0.01016 0zm-0.01037 0.0807c-0.0091 3e-3 -0.02002-6.5e-4 -0.02998 0.0102 6.62e-4 0.0329 0.0061 0.0516 0 0.0807 0.0187 0.0365 0.06129 0.0145 0.07034-0.0102 0.01138-0.0613-0.01199-0.0884-0.04005-0.0807zm0.25236 0.16135a0.086809 0.086809 0 0 0-0.06068 0.02c0.02195 0.0355 0.06231 0.042 0.11101 0.0506 0.01748-0.0129 0.01199-0.0484 0.02033-0.071-0.02124 0-0.03486 2e-3 -0.06068 0h-0.01016zm-5.123 1.2401c0.02063 0.0264 0.04289 0.0571 0.07033 0.0711 0.01484 7e-3 0.03192 6e-3 0.05062 0.0102 0.01514 3e-3 0.02582 0.0159 0.04035 0.0203 0.031 0.0107 0.07613 9e-3 0.10072 0.0203 0.03771 0.0162 0.05844 0.0819 0.09097 0.10072 2e-3 0.0187-0.0061 0.0365 0 0.0503 0.01514 0.0206 0.04584 0.0268 0.07033 0.0404 0.02998 0.0165 0.04259 0.0577 0.07064 0.0706 0.01016 4e-3 0.02521-4e-3 0.04035 0 0.03872 0.0116 0.04716 0.0703 0.0807 0.0607 0.02165-6e-3 0.02673-0.0396 0.03029-0.0607 0.01453-0.0162 0.02744-0.0404 0.05031-0.0404 0.03649-6.62e-4 0.04716 0.0452 0.06068 0.0807 0.0071 0.02 0.0249 0.0393 0.02998 0.0607a0.52924 0.52924 0 0 1 0 0.16137c-0.0091 0.0268-0.04838 0.041-0.07033 0.0703-0.01067 0.0142-0.02226 0.031-0.03029 0.0403-0.01423 0.0178-0.02968 0.0245-0.04035 0.0404-0.0061 9e-3 -0.0051 0.028-0.01037 0.0403-0.01738 0.0377-0.04482 0.0659-0.02998 0.11101 0.0061 0.0181 0.02998 0.0387 0.02998 0.0607 0 0.0258-0.05611 0.0323-0.06037 0.0604-3e-3 0.0206 0.02388 0.0632 0.03039 0.0907 0.0041 0.0206 0.03812 0.0371 0.05031 0.0506 0.02063 0.0226 0.04198 0.0513 0.06068 0.0807 0.03679 0.0568 0.05417 0.12586 0.09036 0.18137 0.01931 0.0291 0.05814 0.05 0.07105 0.0807 0.0061 0.0151-0.0061 0.0465 0 0.0607 0.02094 0.0475 0.12359 0.0975 0.17103 0.1207 0.02256 0.0114 0.04035 0.0187 0.06068 0.0303 0.03131 0.0178 0.09524 0.0533 0.11102 0.0807 0.01423 0.0248 0.02328 0.0816 0.03029 0.12101 0.0091 0.0516-2e-3 0.0955 0 0.15135 2e-3 0.0303 0.01016 0.05 0.01016 0.0807 0 0.0106 6.51e-4 0.0297 0 0.0403-6.4e-4 0.0365 3e-3 0.0742 0 0.11101a0.42017 0.42017 0 0 0 0 0.0604c2e-3 0.0184 0.01901 0.0245 0.02033 0.0403 1e-3 0.0171-0.02226 0.0371-0.02033 0.0507 0.0041 0.0368 0.0433 0.0668 0.05031 0.10073 0.0061 0.0271 0.01352 0.0887 0.01037 0.12102-3e-3 0.0171-0.0081 0.042-0.01037 0.0607-2e-3 0.0145 2e-3 0.0268 0 0.04-0.80386-0.5163-1.3411-1.4134-1.3411-2.4404 0-0.13167 0.01321-0.25623 0.03029-0.38337zm1.1091 0.2927c0.02836-0.0129 0.02287 0.0368 0 0.0404-0.02165 3e-3 -0.02094-0.0303 0-0.0404z" color="#000000" opacity=".25"/>
  <path d="m22.027 11.634c-0.11165 0-0.22396 9e-3 -0.33272 0.0203a3.1625 3.1625 0 0 0-0.62541 0.12101 3.2416 3.2416 0 0 0-2.1276 2.1276 3.1625 3.1625 0 0 0-0.12101 0.62541 3.2368 3.2368 0 0 0-0.02033 0.33271c0 0.11165 0.0091 0.22397 0.02033 0.33272a3.1625 3.1625 0 0 0 0.12101 0.6254 3.2416 3.2416 0 0 0 2.1276 2.1276 3.1625 3.1625 0 0 0 0.62541 0.12134c0.10875 0.011 0.22105 0.02 0.33272 0.02s0.22396-9e-3 0.33272-0.0203a3.1625 3.1625 0 0 0 0.62541-0.12069 3.2965 3.2965 0 0 0 0.58474-0.25236 3.2212 3.2212 0 0 0 1.5433-1.8756 3.1625 3.1625 0 0 0 0.12069-0.6254c0.01138-0.10875 0.02033-0.22106 0.02033-0.33272 0-0.11132-0.0091-0.22428-0.02033-0.33271a3.1625 3.1625 0 0 0-0.12069-0.62541 3.2497 3.2497 0 0 0-0.59508-1.0991c-0.06586-0.0797-0.13876-0.14876-0.21201-0.22203-0.29141-0.2914-0.63218-0.53278-1.0184-0.69576a3.3439 3.3439 0 0 0-0.30238-0.11069 3.1625 3.1625 0 0 0-0.62541-0.12101 3.3284 3.3284 0 0 0-0.33272-0.0203zm0 0.32269c0.48825 0 0.94747 0.11973 1.3515 0.33271 0.01067 6e-3 0.01941 0.0145 0.02998 0.0203 0.0081 0.0107 0.0061 0.0223 0.02033 0.03 0.01037 6e-3 0.02033 0.0151 0.02998 0.0203 0.01708 0.0102 0.03385 0.0239 0.03029 0.0403-0.0041 0.0242-0.04391 0.0226-0.06037 0.0404 2e-3 0.0338-0.01159 0.0274-0.02033 0.0503 0.0051 0.0148 0.01809 0.0129 0.02033 0.0304-0.0031 0.0187-0.02744 0.0209-0.02033 0.0403 0.03161 0.0245 0.06098 4e-3 0.09097 0 0.06546-8e-3 0.1207 1e-3 0.16136-0.0303-0.0041-0.0252 0.01931-0.0322 0.02998-0.0503 0.02165 0.0151 0.03974 0.0349 0.06068 0.0503-0.0123 5e-3 -0.03933 0.0132-0.05062 0.0203-0.01616 0.011-0.02134 0.0281-0.04004 0.0403-0.01352 9e-3 -0.04645 0.0403-0.06068 0.0403-0.01708 0-0.04838-0.0142-0.06068-0.0104-0.01738 5e-3 -0.01037 0.0335-0.02998 0.0403-0.03872 0.0142-0.10746-0.0377-0.12101 0.0203 0.01616 0.0335 0.07135 0.0223 0.10072 0.0403 0.0184 0.0116 0.04584 0.0711 0.05072 0.0907a0.23654 0.23654 0 0 1 0 0.091c-0.0184 0.0468-0.06708 0.0413-0.12134 0.0403-0.01453 0-0.02683 1e-3 -0.04005 0-0.09097-6e-3 -0.18072-0.0349-0.22203 0.03 0.0031 0.05 0.01128 0.0774 0 0.12101-0.0081 0.0316-0.04198 0.0533-0.04035 0.0807 6.61e-4 0.0142 0.02683 0.0413 0.03029 0.0607 2e-3 0.0104-0.0051 0.031 0 0.0403 0.01514 0.0288 0.05356-5e-3 0.0807 0 0.02582 4e-3 0.05031 0.042 0.05031 0.0703a0.18427 0.18427 0 0 1-0.02033 0.0807c-0.02582 0.0387-0.07389 0.0294-0.1107 0.0506-0.03069 0.0174-0.04228 0.0601-0.06068 0.0907-0.01941 0.0329-0.03771 0.0439-0.02998 0.0907a0.21783 0.21783 0 0 1-0.11101 0.11101 0.31883 0.31883 0 0 0-0.05062 0.0304 0.25559 0.25559 0 0 0-0.04005 0.0403c-0.02063 0.0226-0.0494 0.0326-0.06068 0.0503-0.0081 0.0135-1e-3 0.0423-0.01017 0.0607-0.01291 0.0245-0.03425 0.0458-0.05062 0.0703-0.0071 0.0119-0.02196 0.0252-0.02998 0.0404-0.0187 0.0342-0.04391 0.061-0.04035 0.091 3e-3 0.0288 0.03872 0.0352 0.04035 0.0604 2e-3 0.0142-0.01067 0.0252-0.01037 0.0403 9.52e-4 0.0226 0.0081 0.0329 0.01037 0.0503 0.0041 0.0436-0.02226 0.061-0.03039 0.091-0.0041 0.0139 3e-3 0.0291 0 0.04-0.0071 0.022-0.03974 0.0349-0.04035 0.0607-6.62e-4 0.0181 0.02836 0.0349 0.03029 0.0607 1e-3 0.0175-0.01352 0.0338-0.01037 0.0503 0.0061 0.0316 0.06617 0.0761 0.09097 0.10072 0.03324 0.0335 0.06586 0.0555 0.0807 0.091 0.0123 0.0297 0.01738 0.0785 0.04035 0.10072 0.01677 0.0162 0.04869 0.0233 0.07033 0.0404 0.02063 0.0162 0.04909 0.0233 0.07105 0.0404 0.03547 0.028 0.08385 0.0849 0.14102 0.0807 0.02968-2e-3 0.05712-0.0142 0.09066-0.0203 0.03456-6e-3 0.07582-0.0236 0.11101-0.02 0.02683 3e-3 0.05224 0.022 0.0807 0.0203 0.02907-2e-3 0.06749-0.0159 0.10072-0.0303 0.05814-0.0252 0.14748-0.073 0.23203-0.0607 0.06454 0.0102 0.06586 0.0823 0.11101 0.11101 0.05163 4e-3 0.09005-0.0102 0.13101 0 0.031 8e-3 0.06779 0.0662 0.07064 0.0907 3e-3 0.0252-0.01677 0.0448-0.02033 0.0607-0.0081 0.0338-0.01423 0.0791-0.02002 0.10072-0.0051 0.0171-0.01057 0.0335-0.01037 0.0506 0 0.0151 0.02449 0.0503 0.04066 0.0703 0.01941 0.0248 0.04716 0.0436 0.07033 0.0706 0.04289 0.0494 0.06098 0.11619 0.09097 0.18169 0.0071 0.0162-0.0071 0.0193 0 0.0401-0.01291 0.0987-0.04645 0.16328-0.111 0.27236-0.03069 0.0355-0.06129 0.0771-0.06068 0.12101-2e-3 0.10552 0.05519 0.16007 0.05072 0.26236-0.01067 0.13715 3.17e-4 0.15845-0.01037 0.2317 0.04645 0.0236 0.02358 0.0926 0.01037 0.14135-0.02002 0.058-0.03944 0.0723-0.05072 0.11101a0.12908 0.12908 0 0 0 0.07064 0.0102 2.9021 2.9021 0 0 1-2.0976 0.88745 2.8988 2.8988 0 0 1-1.0891-0.2117c-9.66e-4 -6.35e-4 9.76e-4 -0.0102 0-0.0104 0.03069-0.0129 0.08873 0.0226 0.11102-0.02 0.01098-0.0206-0.01484-0.0601 0-0.0807 0.01037-0.0142 0.07907-0.0268 0.10072-0.0303 0.0313-5e-3 0.06322 1e-3 0.0807-0.0102a0.091972 0.091972 0 0 0 0.04035-0.0807c-2e-3 -0.0171-0.01677-0.0252-0.02998-0.0404-0.01128-0.0129-0.0031-0.0288-0.01037-0.0403-0.01382-0.0206-0.03456-0.0307-0.04035-0.0607 0.04228-8e-3 0.10042 0.0475 0.16136 0.0303 0.02907-8e-3 0.07745-0.0635 0.09097-0.0907 0.0041-8e-3 -0.0051-0.0404 0-0.0503 0.0051-0.0114 0.01809-0.0145 0.02002-0.0203 0.0041-0.0158-3e-3 -0.0203 0-0.03 0.01067-0.03 0.04289-0.0491 0.06068-0.071 0.01321-0.0162 0.02775-0.0332 0.04035-0.0503 0.01382-0.0181 0.02063-0.0242 0.02998-0.0401 0.0092-0.0536-0.03293-0.0945-0.02002-0.14133 0.01382-0.053 0.09036-0.0871 0.14101-0.11102 0.01779-8e-3 0.03578-0.0248 0.05072-0.03 0.03517-0.0126 0.07775-8e-3 0.11068-0.0203 0.05519-0.02 0.0742-0.0807 0.10103-0.13101 0.01291-0.0236 0.02775-0.0436 0.02998-0.0607 3e-3 -0.0151-0.0031-0.0326 0-0.0503 3e-3 -0.0174 0.0051-0.031 0.01037-0.0503a0.5131 0.5131 0 0 0 0.01017-0.10103c0-0.0233-0.01017-0.0291-0.01017-0.0503-0.0041-0.0761 0.02226-0.0794 0.05031-0.12101 0.01423-0.0206 0.02033-0.0558 0.03039-0.0706 0.04747-0.0703 0.12683-0.10488 0.12101-0.21169-2e-3 -0.0355-0.01453-0.10972-0.04035-0.12103-0.01484-6e-3 -0.04909-2e-3 -0.07064-0.0102-0.06942-0.0258-0.1194-0.1052-0.19168-0.111-0.01514-6.35e-4 -0.02328 6.62e-4 -0.04035 0-0.02805-6.35e-4 -0.05905-0.0268-0.09066-0.0303-0.02002-2e-3 -0.05875 6e-3 -0.07064 0-0.01809-8e-3 -0.01545-0.0403-0.02998-0.0503-0.01199-8e-3 -0.03222-0.0135-0.05062-0.0203a0.24042 0.24042 0 0 0-0.0807-0.02c-0.01037-6.61e-4 -0.03872 2e-3 -0.05031 0-0.01809-3e-3 -0.03354-0.0197-0.05031-0.0303-0.02134-0.0129-0.03161-0.022-0.04035-0.0403 0.01931-0.0632-0.04777-0.0739-0.06068-0.11069-0.0061-0.0171 0.0061-0.0452 0-0.0607-0.0071-0.0217-0.02612-0.0322-0.05031-0.0503-0.04198-0.0329-0.0807-0.0629-0.14135-0.0706-0.02683-3e-3 -0.05814 2e-3 -0.09036 0a0.15715 0.15715 0 0 1-0.10103-0.0504c-0.0248-0.0291-0.02907-0.0571-0.05062-0.0706-0.02033-0.0129-0.05651-0.0168-0.07033-0.0304-0.0061-6e-3 -0.0041-0.0168-0.01037-0.03-0.01037-0.0213-0.03293-0.0249-0.02002-0.0506-0.02358-0.0116-0.01514 0.0148-0.04035 0.0104-0.02256-0.0322-0.03903-0.0503-0.09066-0.0406-0.02358 5e-3 -0.0433 0.04-0.07064 0.0406-0.02256 6.62e-4 -0.04066-0.0365-0.07064-0.0406-0.02256-3e-3 -0.05488 0.0239-0.07033 0.0203-0.02551-4e-3 -0.02775-0.0352-0.05062-0.0503-0.01677-0.0113-0.05102-0.041-0.06037-0.0403-0.02937 6.62e-4 -0.05031 0.062-0.09097 0.0403-0.01972-0.0252 0.03385-0.0271 0.01037-0.0506-0.01779-0.0174-0.02643 9.53e-4 -0.04035 0.0104-0.01647 0.011-0.03232 0.0239-0.05072 0.03-0.04035 0.0154-0.06901 0.0139-0.10072 0.0304-0.02907 0.0154-0.03354 0.0406-0.05031 0.0706-0.01352 0.0245-0.04005 0.0594-0.06068 0.0607-0.0245 2e-3 -0.04838-0.031-0.07033-0.0407-0.06779-0.0291-0.10585 0.0197-0.16135 0.0203-0.05163 6.35e-4 -0.1236-0.0823-0.12102-0.13102 2e-3 -0.03 0.01647-0.0742 0.02002-0.11102 3e-3 -0.0291 0.02968-0.0536 0.03029-0.0807 6.51e-4 -0.0355-0.05743-0.0665-0.0807-0.0706-0.05519-0.0102-0.12909 0.0249-0.19169 0-0.01159-0.02 0.02327-0.031 0.03029-0.0503 0.0041-0.0113-0.0041-0.0181 0-0.0303 0.0071-0.0187 0.0313-0.0304 0.04035-0.0503 0.0061-0.0151 3e-3 -0.042 0.01016-0.0607 0.0081-0.0209 0.02836-0.0349 0.03039-0.0503 2e-3 -0.02-0.01453-0.0475-0.03039-0.0604a0.31432 0.31432 0 0 0-0.11101 0.02c-0.06322 0.0291-0.04675 0.11133-0.11068 0.13134-0.02195 7e-3 -0.05621 0.0162-0.0807 0.02a2.8754 2.8754 0 0 1 0.19141-0.60513c0.02256 4e-3 0.04127 0.0184 0.06068 0.0203 0.05387 4e-3 0.0561-0.0371 0.10072-0.0607 0.04584 6e-3 0.06942-4e-3 0.11101 0 0.02805 3e-3 0.0684 0.0387 0.09066 0.0403 0.0187 6.5e-4 0.02256-0.0233 0.04035-0.0203s0.04747 0.0397 0.05062 0.0607c3e-3 0.0264-0.01779 0.0516-0.01037 0.0807 0.02775 0.0281 0.08162 0.0442 0.12101 0.0607 0.02582-0.0212 0.0041-0.0703 0-0.10103-6.4e-4 -0.0135 2e-3 -0.0281 0-0.0403-0.0031-0.0209-0.01016-0.0423-0.01016-0.0607 0-0.0839 0.06454-0.11812 0.12102-0.15104 0.02419-0.0142 0.0494-0.04 0.07064-0.0506 0.02968-0.0145 0.04584-0.0162 0.07033-0.03 0.04482-0.0252 0.08649-0.0519 0.12101-0.0807 0.01616-0.0381-2e-3 -0.0836 0-0.12101 0.01616-0.0102 0.02358 2e-3 0.04035 0 0.02714-6e-3 0.03547-0.0452 0.05062-0.0607 0.0092-9e-3 0.03974-0.0113 0.05031-0.02 0.02714-0.0212 0.02714-0.0513 0.05031-0.0607 0.0081-3e-3 0.02744-6e-3 0.04035-0.0102 0.01779-5e-3 0.04259-0.0203 0.07064-0.0304 0.01809-6e-3 0.06363-3e-3 0.07064-0.0102 0.0091-9e-3 -2e-3 -0.0471 0-0.0607 0.01382-0.0662 0.11199-0.0684 0.17136-0.0904 0.04096-0.0162 0.08517-0.0494 0.13101-0.0407-0.0092 0.0316-0.04777 0.0226-0.04035 0.0607 0.01016 0.0533 0.07196-0.0129 0.09097-0.0203 0.03547-0.0151 0.10423-0.0233 0.15103-0.0403 0.04126-0.0145 0.1094-0.0433 0.07064-0.0907-0.03232-2e-3 -0.04228 0.0288-0.07064 0.0403-0.01931 3e-3 -0.02388-9e-3 -0.04035-0.0102-0.01586-6.6e-4 -0.02449 0.0129-0.04035 0.0102-0.01586-3e-3 -0.03781-0.0316-0.04035-0.0503-0.0061-0.0494 0.05062-0.0645 0.07064-0.10103-0.01352-0.0445-0.07328-3e-3 -0.11102-0.02 0.0041-0.0264 0.01931-0.0552 0.05062-0.0607a0.19944 0.19944 0 0 1 0.10072 0.0203c0.0091 7e-3 -0.0031 0.0278 0.01016 0.0404 0.01545 0.0135 0.04066 3e-3 0.06068 0 0.0071-0.0335-0.04614-0.0187-0.04035-0.0404 0.03974-0.0258 0.11263-0.0139 0.16135-0.0203 0.02805-4e-3 0.05549-0.0268 0.0807-0.0403 0.02328-0.0135 0.04584-0.0323 0.07033-0.0102 0.0071 0.0242-0.01677 0.0381-0.02998 0.0503-0.04523 0.0401-0.08589 0.0849-0.12102 0.13134 0.02165 0.0209 0.05417 6e-3 0.09066 0.0102 0.01423 2e-3 0.03547 8e-3 0.05031 0.0104 0.01779 3e-3 0.03649-3e-3 0.05062 0 0.0245 6e-3 0.02582 0.0403 0.05031 0.0403 0.03974 0 0.04289-0.0335 0.02002-0.0607 0.0071-0.0274 0.02033-0.051 0.01037-0.0703-0.0184-0.0365-0.0871 6e-3 -0.09097-0.0403-2e-3 -0.0294 0.02998-0.0384 0.04035-0.0607-0.0041-0.0562 0.04614-0.0597 0.04035-0.11069-0.0031-0.0212-0.02582-0.0206-0.04035-0.0403-0.0071-0.0107-0.01128-0.0329-0.02002-0.0403-0.03069-0.0258-0.0871-0.0217-0.09097-0.0711-2e-3 -0.0291 0.0041-0.0487 0-0.0807-0.0041-0.0297-0.03456-0.11488-0.06037-0.12069-0.03293-7e-3 -0.05163 0.0522-0.09066 0.0703a0.15909 0.15909 0 0 1-0.0807 0.0104c-0.01423-3e-3 -0.03872-0.0135-0.04035-0.0404-2e-3 -0.0154 3e-3 -0.0209 0.01016-0.0303 2e-3 -2e-3 -2e-3 -8e-3 0-0.0102a2.927 2.927 0 0 1 0.80677-0.11102zm-1.2002 0.26236c-0.02836 0.0917-0.11133 0.14393-0.2217 0.14102-0.02714 0.0258-0.01586 0.0752-0.03039 0.11101a0.089067 0.089067 0 0 1-0.0807 0.0503c-0.02165-2e-3 -0.06068-0.03-0.06068-0.0503 0-0.0168 0.01616-0.0358 0.02033-0.0506a2.8798 2.8798 0 0 1 0.37305-0.20168zm2.4709 0.10072a0.088422 0.088422 0 0 0-0.03029 0.0102c-0.02256 0.0135-0.02358 0.0338-0.04035 0.0403-0.02419 9e-3 -0.05712 9e-3 -0.06068 0.0304-3e-3 0.0181 0.02094 0.0239 0.02033 0.0403-0.0091 0.0217-0.02582 0.0239-0.03029 0.0503 0.02998 0.0487 0.10424 6.51e-4 0.14135-0.0102 0.01616-5e-3 0.0313 3e-3 0.04005-0.0102 0.01017-0.0162 2e-3 -0.0484 0.01037-0.0706 0.0081-0.0245 0.03324-0.0187 0.02998-0.0403-2e-3 -0.0217-0.04421-0.0439-0.0807-0.0403zm-3.1971 0.37305c0.02165 0.0258 0.03974 0.0639 0 0.0807-0.0061 3e-3 -0.07643 0.0129-0.09066 0.0104-0.0041-6.4e-4 -0.0061-7e-3 -0.01016-0.0104 0.0307-0.03 0.06871-0.0519 0.10072-0.0807zm0.0807 0.10103c0.01423 6.51e-4 0.02388 0.0291 0.04035 0.03 0.01616 2e-3 0.04096-0.0129 0.05072-0.0102 0.0245 6e-3 0.03354 0.0522 0.01016 0.0703-0.01931 2e-3 -0.02582-0.0233-0.04005-0.0203-0.04005 7e-3 -0.05102 0.0832-0.0807 0.0807-0.02836-3e-3 -0.04909-0.0601-0.02033-0.0807 6.4e-4 -0.0174-0.01128-0.0226-0.01016-0.0404 0.0091-0.011 0.02673-0.0319 0.05031-0.03zm-0.13101 0.02c0.0081 0 0.0071-3e-3 0.01016 0-0.0041 0.0313-0.01616 0.0358-0.04035 0.0506a0.16522 0.16522 0 0 0-0.0807 0.11068c-0.0041 0.0162-0.05062 0.0645-0.07033 0.0607-0.04645-0.0102 0.01931-0.0975 0.02998-0.11101 0.01199-0.0148 0.02683-0.0239 0.04035-0.0403 0.01352-0.0162 0.01748-0.051 0.03039-0.0607 0.01423-0.0102 0.0561-0.011 0.0807-0.0102zm3.9735 0.0807c0.04614-3e-3 0.06942 0.0527 0.09036 0.0807 0.01779 0.0229 0.07226 0.0549 0.10103 0.0706 0.01647 9e-3 0.03232 0.022 0.05072 0.0304 0.01901 8e-3 0.04777 0.0193 0.07033 0.0403 0.02256 0.0206 0.03974 0.0516 0.04035 0.0703 6.62e-4 0.019-0.01291 0.0329-0.01016 0.0506 0.02033 3e-3 0.031-0.0174 0.04035-0.0404 0.07613 0.10844 0.14071 0.22429 0.20169 0.34272a0.038079 0.038079 0 0 0-0.02033 0.0304c-0.0061 0.0329 0.01931 0.0749-0.02998 0.0807-0.0313 4e-3 -0.0681-0.031-0.11102-0.0403-0.01738-4e-3 -0.04645 4e-3 -0.06068 0-0.03222-0.0113-0.02256-0.0513-0.05031-0.0706a0.2259 0.2259 0 0 0-0.0807-0.03c-0.01586-2e-3 -0.02388 2e-3 -0.04035 0-0.02002-3e-3 -0.05417 0-0.07033-0.0104-0.01616-0.0102-0.05651-0.0268-0.06068-0.0403-0.0061-0.0217 0.0494-0.0522 0.05031-0.0703 1e-3 -0.0142-0.01708-0.0193-0.02002-0.0407-2e-3 -0.0129 3e-3 -0.0319 0-0.04-0.0041-0.0154-0.02643-0.0297-0.05062-0.0303-0.02094 0-0.04198 0.0102-0.06037 0.0102-0.02582 6.41e-4 -0.07877-0.0129-0.11101-0.0102-0.01931 2e-3 -0.03222 9e-3 -0.05031 0.0102-0.05102 4e-3 -0.08101-3e-3 -0.12102 0-0.02907 2e-3 -0.08385 0.0181-0.11101 0.0303-0.01352 6e-3 -0.02256 0.0213-0.04035 0.03-0.0081 4e-3 -0.01931 5e-3 -0.02998 0.0104-0.01647 7e-3 -0.04482 0.0258-0.06068 0.03-0.02256 6e-3 -0.04909-2e-3 -0.09066 0-0.02998 2e-3 -0.07999-4e-3 -0.0807-0.04-6.35e-4 -0.0549 0.09971-0.031 0.15104-0.0407 0.01931-4e-3 0.02714-0.0268 0.05062-0.04 0.01098-6e-3 0.01931-0.0132 0.02998-0.0203 0.01779-0.0123 0.04777-0.0365 0.05062-0.0503 2e-3 -0.0129-0.01189-0.031-0.01037-0.0403 2e-3 -0.0123 0.02449-0.0245 0.04066-0.0403 0.02449-0.0249 0.04005-0.0549 0.07033-0.0706 0.02063-0.0113 0.06129-0.0138 0.07064-0.0303 2e-3 -0.0187-6.62e-4 -0.0233 0-0.0403 0.01291-0.0116 0.0091-0.0178 0.02033-0.02 0.03161-7e-3 0.06363 0.0119 0.10072 0.0102 0.01616-6.4e-4 0.03354 1e-3 0.05031-0.0102 0.01423-0.0102 0.02643-0.0233 0.04035-0.0303 0.01545-8e-3 0.03161-0.0291 0.05062-0.0304zm-3.7015 0.0304c0.0081-1e-3 0.02094 9.71e-4 0.0307 0 0.01321-6.5e-4 0.02582 0 0.04035 0s0.03425-6e-3 0.04035 0c-0.01016 0.0387-0.10072 0.0242-0.13134 0.0102 9.66e-4 -7e-3 0.0126-9e-3 0.02033-0.0102zm-0.11068 0.0706c0.01016 0 0.01972-4e-3 0.03039 0-0.02714 0.0226-0.06424 0.0355-0.11102 0.0503-0.02256 7e-3 -0.05651 0.0145-0.06068-0.0102-0.0041-0.0307 0.02063-0.0274 0.04035-0.0303 0.02582-3e-3 0.07105-0.0102 0.10103-0.0102zm3.8221 0c-0.01931 6e-3 -0.02907 0.0452 0 0.0503 0.01352-8e-3 0.01352-0.0258 0.01016-0.0503-0.0081-8e-3 -0.0041-2e-3 -0.01016 0zm-0.01037 0.0807c-0.0091 3e-3 -0.02002-6.5e-4 -0.02998 0.0102 6.62e-4 0.0329 0.0061 0.0516 0 0.0807 0.0187 0.0365 0.06129 0.0145 0.07034-0.0102 0.01138-0.0613-0.01199-0.0884-0.04005-0.0807zm0.25236 0.16136a0.086809 0.086809 0 0 0-0.06068 0.02c0.02195 0.0355 0.06231 0.042 0.11101 0.0506 0.01748-0.0129 0.01199-0.0484 0.02033-0.071-0.02124 0-0.03486 2e-3 -0.06068 0h-0.01016zm-5.123 1.2401c0.02063 0.0264 0.04289 0.0571 0.07033 0.0711 0.01484 7e-3 0.03192 6e-3 0.05062 0.0102 0.01514 3e-3 0.02582 0.0159 0.04035 0.0203 0.031 0.0107 0.07613 9e-3 0.10072 0.0203 0.03771 0.0162 0.05844 0.0819 0.09097 0.10072 2e-3 0.0187-0.0061 0.0365 0 0.0503 0.01514 0.0206 0.04584 0.0267 0.07033 0.0403 0.02998 0.0165 0.04259 0.0577 0.07064 0.0706 0.01016 4e-3 0.02521-4e-3 0.04035 0 0.03872 0.0116 0.04716 0.0703 0.0807 0.0607 0.02165-6e-3 0.02673-0.0397 0.03029-0.0607 0.01453-0.0162 0.02744-0.0403 0.05031-0.0403 0.03649-6.35e-4 0.04716 0.0452 0.06068 0.0807 0.0071 0.02 0.0249 0.0393 0.02998 0.0607a0.52924 0.52924 0 0 1 0 0.16135c-0.0091 0.0268-0.04838 0.041-0.07033 0.0703-0.01067 0.0142-0.02226 0.031-0.03029 0.0403-0.01423 0.0178-0.02968 0.0245-0.04035 0.0403-0.0061 9e-3 -0.0051 0.0281-0.01037 0.0403-0.01738 0.0378-0.04482 0.0659-0.02998 0.11101 0.0061 0.0181 0.02998 0.0387 0.02998 0.0607 0 0.0258-0.05611 0.0322-0.06037 0.0604-3e-3 0.0206 0.02388 0.0632 0.03039 0.0907 0.0041 0.0206 0.03812 0.0371 0.05031 0.0507 0.02063 0.0226 0.04198 0.0513 0.06068 0.0807 0.03679 0.0568 0.05417 0.12585 0.09036 0.18137 0.01931 0.0291 0.05814 0.05 0.07105 0.0807 0.0061 0.0151-0.0061 0.0464 0 0.0607 0.02094 0.0475 0.12359 0.0975 0.17103 0.12069 0.02256 0.0114 0.04035 0.0187 0.06068 0.0303 0.03131 0.0178 0.09524 0.0533 0.11102 0.0807 0.01423 0.0248 0.02328 0.0816 0.03029 0.12102 0.0091 0.0516-2e-3 0.0955 0 0.15135 2e-3 0.0303 0.01016 0.05 0.01016 0.0807 0 0.0106 6.51e-4 0.0297 0 0.0403-6.4e-4 0.0365 3e-3 0.0742 0 0.11101a0.42017 0.42017 0 0 0 0 0.0604c2e-3 0.0184 0.01901 0.0245 0.02033 0.0403 1e-3 0.0171-0.02226 0.0371-0.02033 0.0507 0.0041 0.0368 0.0433 0.0668 0.05031 0.10073 0.0061 0.0271 0.01352 0.0887 0.01037 0.12101-3e-3 0.0171-0.0081 0.042-0.01037 0.0607-2e-3 0.0145 2e-3 0.0268 0 0.04-0.80386-0.51634-1.3411-1.4134-1.3411-2.4404 0-0.13166 0.01321-0.25622 0.03029-0.38337zm1.1091 0.2927c0.02836-0.0129 0.02287 0.0368 0 0.0403-0.02165 3e-3 -0.02094-0.0304 0-0.0403z" color="#000000" fill="#fff"/>
 </g>
</svg>
