<?xml version="1.0" encoding="UTF-8"?>
<!-- Created with Inkscape (http://www.inkscape.org/) -->
<svg width="64" height="64" version="1.1" viewBox="0 0 16.933 16.933" xmlns="http://www.w3.org/2000/svg" xmlns:cc="http://creativecommons.org/ns#" xmlns:dc="http://purl.org/dc/elements/1.1/" xmlns:rdf="http://www.w3.org/1999/02/22-rdf-syntax-ns#">
 <metadata>
  <rdf:RDF>
   <cc:Work rdf:about="">
    <dc:format>image/svg+xml</dc:format>
    <dc:type rdf:resource="http://purl.org/dc/dcmitype/StillImage"/>
    <dc:title/>
   </cc:Work>
  </rdf:RDF>
 </metadata>
 <g stroke-width=".25631">
  <path d="m0.27877 0.29983h16.404v16.404h-16.404z" fill="none"/>
  <path d="m3.3545 1.7095h10.252c0.28399 0 0.4165 0.24554 0.51262 0.51262l0.46136 1.2816c0.09612 0.26733-0.22863 0.51262-0.51262 0.51262h-11.175c-0.28399 0-0.60874-0.24529-0.51262-0.51262l0.46136-1.2816c0.096116-0.26708 0.22863-0.51262 0.51262-0.51262z" fill="#dc5a8c" stroke="#ff6ea0"/>
  <path d="m13.607 1.8377-1.6148 11.032c-0.04024 0.27502-0.22863 0.5016-0.51262 0.5016h-5.9977c-0.28399 0-0.47238-0.22658-0.51262-0.5016l-1.6148-11.032z" opacity=".3"/>
  <path d="m14.047 2.4023-5.8023-0.56721-0.71664 7.2936 5.8021 0.56747z" fill="#fafafa"/>
 </g>
 <path d="m14.115 2.3442-5.9269-0.57901-0.72926 7.4207 5.9269 0.57952z" fill="none" fill-opacity="0" opacity=".6" stroke="#ff6ea0" stroke-linejoin="round" stroke-width=".25623"/>
 <path d="m2.9423 2.3593c1.3302-0.12047 5.8062-0.52415 5.8062-0.52415l0.66282 7.2984-5.8062 0.52467z" fill="#fafafa" stroke-width=".25631"/>
 <path d="m2.8745 2.3006 5.931-0.53541 0.67445 7.4259-5.931 0.53592z" fill="none" fill-opacity="0" opacity=".6" stroke="#ff6ea0" stroke-linejoin="round" stroke-width=".25623"/>
 <path d="m4.7391 3.1005 5.555-1.765 2.2307 6.9827-5.5548 1.7652z" fill="#fafafa" stroke-width=".25631"/>
 <path d="m4.6604 3.058 5.6742-1.8029 2.2696 7.1044-5.6741 1.8034z" fill="none" fill-opacity="0" opacity=".6" stroke="#ff6ea0" stroke-linejoin="round" stroke-width=".25623"/>
 <path d="m8.464 1.3379 5.404 2.1825-2.7566 6.793-5.404-2.1817z" fill="#fafafa" stroke-width=".25631"/>
 <path d="m8.4308 1.2551 5.52 2.2291-2.8047 6.9116-5.5202-2.2286z" fill="none" fill-opacity="0" opacity=".6" stroke="#ff6ea0" stroke-linejoin="round" stroke-width=".25623"/>
 <path d="m14.581 3.7603-1.1021 11.032c-0.02768 0.27682-0.22863 0.5016-0.51262 0.5016h-8.9708c-0.28399 0-0.48494-0.22504-0.51262-0.5016l-1.1021-11.032z" fill="#ff6ea0" stroke="#ff6ea0" stroke-width=".25631"/>
 <path d="m6.382 10.973c-0.065615 0.1179-0.1179 0.29527-0.1179 0.40676 0 0.02589 0 0.05895 0.00641 0.10483l-0.81968-1.41a0.36575 0.36575 0 0 1-0.04588-0.1707c0-0.059208 0.01948-0.13123 0.04588-0.17685l0.39344-0.68896-0.43932-0.24862 1.4297-0.0264 0.69511 1.2523-0.44598-0.25554zm0.6295-4.1276c0.12457-0.21658 0.32808-0.33474 0.57695-0.33474 0.26913 0 0.4793 0.12482 0.62975 0.38036l0.22299 0.3737-0.77406 1.4917-1.2523-0.88171zm0.091759 5.262a0.68563 0.68563 0 0 1-0.68178-0.68178c0-0.10509 0.045879-0.2822 0.11149-0.39369l0.20966-0.3737h1.5543v1.4492zm1.2462-5.3015c-0.098167-0.17045-0.2294-0.28886-0.38703-0.35448h1.6132c0.1443 0 0.2558 0.059208 0.32167 0.17096l0.39984 0.68178 0.43265-0.2558-0.69511 1.2462-1.4228-0.019992 0.43932-0.24913zm2.4857 3.8654c0.19659 0 0.36063-0.05229 0.49827-0.15712l-0.81327 1.4164a0.35422 0.35422 0 0 1-0.32116 0.17685h-0.76765v0.50493l-0.73433-1.2262 0.73433-1.2264v0.5116zm0.62924-1.1803c0.05895 0.10509 0.09201 0.21633 0.09201 0.33448 0 0.23581-0.15122 0.4852-0.36063 0.6031a0.73228 0.73228 0 0 1-0.3737 0.08561h-0.43316l-0.77354-1.3379 1.2523-0.7151z" fill="#fff" stroke-width=".25631"/>
</svg>
