<?xml version="1.0" encoding="UTF-8"?>
<!-- Created with Inkscape (http://www.inkscape.org/) -->
<svg width="64" height="64" version="1.1" viewBox="0 0 16.933 16.933" xmlns="http://www.w3.org/2000/svg" xmlns:cc="http://creativecommons.org/ns#" xmlns:dc="http://purl.org/dc/elements/1.1/" xmlns:rdf="http://www.w3.org/1999/02/22-rdf-syntax-ns#" xmlns:xlink="http://www.w3.org/1999/xlink">
 <defs>
  <filter id="filter2761" x="-.024" y="-.024" width="1.048" height="1.048" color-interpolation-filters="sRGB">
   <feGaussianBlur stdDeviation="0.14552168"/>
  </filter>
  <linearGradient id="linearGradient2725" x1="8.4084" x2="8.4084" y1="281.15" y2="295.88" gradientTransform="translate(-.1478 -280.07)" gradientUnits="userSpaceOnUse">
   <stop stop-color="#ffbe3c" offset="0"/>
   <stop stop-color="#e68c28" offset="1"/>
  </linearGradient>
 </defs>
 <metadata>
  <rdf:RDF>
   <cc:Work rdf:about="">
    <dc:format>image/svg+xml</dc:format>
    <dc:type rdf:resource="http://purl.org/dc/dcmitype/StillImage"/>
    <dc:title/>
   </cc:Work>
  </rdf:RDF>
 </metadata>
 <path d="m10.709 1.05c4.405 0 5.0345 0.67282 5.0345 5.388v3.7761c0 4.7152-0.62954 5.388-5.0345 5.388h-4.4832c-4.405 0-5.0346-0.6728-5.0346-5.388v-3.7761c0-4.7152 0.62954-5.388 5.0346-5.388z" enable-background="new" fill="#141414" filter="url(#filter2761)" opacity=".3"/>
 <path d="m10.692 1.05c4.405 0 5.0345 0.67282 5.0345 5.388v3.7761c0 4.7152-0.62954 5.388-5.0345 5.388h-4.4832c-4.405 0-5.0346-0.6728-5.0346-5.388v-3.7761c0-4.7152 0.62954-5.388 5.0346-5.388z" enable-background="new" fill="url(#linearGradient2725)"/>
 <path d="m15.799 11.628-4.0312 4.0312c3.1176-0.10511 3.8959-0.84418 4.0312-4.0312z" enable-background="new" fill="#fff" opacity=".2"/>
 <g transform="translate(83.709 1.0498)" opacity=".25">
  <path d="m-76.691 7.6728s0.918 1.1876 0.12426 1.5875c-0.79374 0.39984-2.8512 1.1717-2.9331 1.3704s-0.83052 1.7188 0.1049 1.7539c0.93346 0.03501 4.1191 0.04646 4.1325 0.04651h0.0072c0.01344-5e-5 3.1985-0.0115 4.132-0.04651 0.93542-0.03508 0.18727-1.5551 0.10542-1.7539s-2.1399-0.9706-2.9336-1.3704c-0.79374-0.39984 0.1418-1.5875 0.1418-1.5875h-1.4647z"/>
  <path d="m-73.274 5.839c-0.26458 1.8862-0.88842 2.8929-1.9843 2.8929-1.0959 1e-7 -1.7198-1.0067-1.9843-2.8929-0.2414-1.7209 0-3.1436 1.9843-3.1436s2.2257 1.4227 1.9843 3.1436z"/>
  <path d="m-73.234 5.4073s0.6201-0.024804 0.45474 0.5953c-0.16536 0.6201-0.47955 1.2816-0.82681 1.356-0.34726 0.074413 0.27285-1.9265 0.37206-1.9513z"/>
  <path d="m-77.298 5.3489s-0.6201-0.024804-0.45474 0.5953c0.16536 0.6201 0.47955 1.2816 0.82681 1.356 0.34726 0.074413-0.27285-1.9265-0.37206-1.9513z"/>
  <path d="m-73.274 5.839c-0.26458 1.8862-0.88842 2.8929-1.9843 2.8929-1.0959 1e-7 -1.7198-1.0067-1.9843-2.8929-0.2414-1.7209 0-3.1436 1.9843-3.1436s2.2257 1.4227 1.9843 3.1436z"/>
 </g>
 <g transform="translate(83.709 .7628)">
  <path d="m-76.691 7.6728s0.918 1.1876 0.12426 1.5875c-0.79374 0.39984-2.8512 1.1717-2.9331 1.3704s-0.83052 1.7188 0.1049 1.7539c0.93346 0.03501 4.1191 0.04646 4.1325 0.04651h0.0072c0.01344-5e-5 3.1985-0.0115 4.132-0.04651 0.93542-0.03508 0.18727-1.5551 0.10542-1.7539s-2.1399-0.9706-2.9336-1.3704c-0.79374-0.39984 0.1418-1.5875 0.1418-1.5875h-1.4647z" fill="#fff"/>
  <path d="m-73.274 5.839c-0.26458 1.8862-0.88842 2.8929-1.9843 2.8929-1.0959 1e-7 -1.7198-1.0067-1.9843-2.8929-0.2414-1.7209 0-3.1436 1.9843-3.1436s2.2257 1.4227 1.9843 3.1436z" fill="#f0f0f0"/>
  <path d="m-73.234 5.4073s0.6201-0.024804 0.45474 0.5953c-0.16536 0.6201-0.47955 1.2816-0.82681 1.356-0.34726 0.074413 0.27285-1.9265 0.37206-1.9513z" fill="#fafafa"/>
  <path d="m-77.298 5.3489s-0.6201-0.024804-0.45474 0.5953c0.16536 0.6201 0.47955 1.2816 0.82681 1.356 0.34726 0.074413-0.27285-1.9265-0.37206-1.9513z" fill="#fafafa"/>
  <path d="m-73.274 5.839c-0.26458 1.8862-0.88842 2.8929-1.9843 2.8929-1.0959 1e-7 -1.7198-1.0067-1.9843-2.8929-0.2414-1.7209 0-3.1436 1.9843-3.1436s2.2257 1.4227 1.9843 3.1436z" fill="#fff"/>
 </g>
</svg>
