<?xml version="1.0" encoding="UTF-8"?>
<!-- Created with Inkscape (http://www.inkscape.org/) -->
<svg width="64" height="64" version="1.1" viewBox="0 0 16.933 16.933" xmlns="http://www.w3.org/2000/svg" xmlns:cc="http://creativecommons.org/ns#" xmlns:dc="http://purl.org/dc/elements/1.1/" xmlns:rdf="http://www.w3.org/1999/02/22-rdf-syntax-ns#" xmlns:xlink="http://www.w3.org/1999/xlink">
 <defs>
  <filter id="filter2761" x="-.024" y="-.024" width="1.048" height="1.048" color-interpolation-filters="sRGB">
   <feGaussianBlur stdDeviation="0.14552168"/>
  </filter>
  <linearGradient id="linearGradient2725" x1="8.4084" x2="8.4084" y1="281.15" y2="295.88" gradientTransform="translate(-.1308 -280.07)" gradientUnits="userSpaceOnUse">
   <stop stop-color="#ffbe3c" offset="0"/>
   <stop stop-color="#e68c28" offset="1"/>
  </linearGradient>
  <linearGradient id="linearGradient2771" x1="8.4084" x2="8.4084" y1="281.15" y2="295.88" gradientTransform="matrix(-1 0 0 1 45.765 -280.07)" gradientUnits="userSpaceOnUse">
   <stop stop-color="#ffbe3c" offset="0"/>
   <stop stop-color="#e68c28" offset="1"/>
  </linearGradient>
  <linearGradient id="linearGradient1095" x1="8.4084" x2="8.4084" y1="281.15" y2="295.88" gradientTransform="translate(-.13088 -280.07)" gradientUnits="userSpaceOnUse" xlink:href="#linearGradient2725"/>
 </defs>
 <metadata>
  <rdf:RDF>
   <cc:Work rdf:about="">
    <dc:format>image/svg+xml</dc:format>
    <dc:type rdf:resource="http://purl.org/dc/dcmitype/StillImage"/>
    <dc:title/>
   </cc:Work>
  </rdf:RDF>
 </metadata>
 <path d="m10.709 1.05c4.405 0 5.0345 0.67282 5.0345 5.388v3.7761c0 4.7152-0.62954 5.388-5.0345 5.388h-4.4832c-4.405 0-5.0346-0.6728-5.0346-5.388v-3.7761c0-4.7152 0.62954-5.388 5.0346-5.388z" enable-background="new" fill="#141414" filter="url(#filter2761)" opacity=".3"/>
 <path d="m10.709 1.05c4.405 0 5.0345 0.67282 5.0345 5.388v3.7761c0 4.7152-0.62954 5.388-5.0345 5.388h-4.4832c-4.405 0-5.0346-0.6728-5.0346-5.388v-3.7761c0-4.7152 0.62954-5.388 5.0346-5.388z" enable-background="new" fill="url(#linearGradient2725)"/>
 <path d="m3.3615 2.5419a0.50735 0.36361 0 0 0-0.035656 7.407e-4 0.50735 0.36361 0 0 0-0.050642 0.00444 0.50735 0.36361 0 0 0-0.049092 0.00778 0.50735 0.36361 0 0 0-0.048058 0.011481 0.50735 0.36361 0 0 0-0.046508 0.014814 0.50735 0.36361 0 0 0-0.043924 0.018147 0.50735 0.36361 0 0 0-0.04134 0.02111 0.50735 0.36361 0 0 0-0.03824 0.024073 0.50735 0.36361 0 0 0-0.034623 0.026665 0.50735 0.36361 0 0 0-0.030488 0.028887 0.50735 0.36361 0 0 0-0.026354 0.031109 0.50735 0.36361 0 0 0-0.022221 0.032591 0.50735 0.36361 0 0 0-0.01757 0.034072 0.50735 0.36361 0 0 0-0.012402 0.035183 0.50735 0.36361 0 0 0-0.00775 0.035924 0.50735 0.36361 0 0 0-0.00207 0.036294v1.9047a0.50735 0.36361 0 0 0 0.00103 0.025924 0.50735 0.36361 0 0 0 0.0062 0.035924 0.50735 0.36361 0 0 0 0.010852 0.035553 0.50735 0.36361 0 0 0 0.016019 0.034442 0.50735 0.36361 0 0 0 0.02067 0.033331 0.50735 0.36361 0 0 0 0.025321 0.03148 0.50735 0.36361 0 0 0 0.029455 0.029257 0.50735 0.36361 0 0 0 0.033589 0.027406 0.50735 0.36361 0 0 0 0.037206 0.024813 0.50735 0.36361 0 0 0 0.040307 0.022221 0.50735 0.36361 0 0 0 0.043407 0.018888 0.50735 0.36361 0 0 0 0.045474 0.015925 0.50735 0.36361 0 0 0 0.047541 0.012221 0.50735 0.36361 0 0 0 0.049092 0.00889 0.50735 0.36361 0 0 0 0.050125 0.00555 0.50735 0.36361 0 0 0 0.050642 0.00185h10.179a0.50735 0.36361 0 0 0 0.03566-7.407e-4 0.50735 0.36361 0 0 0 0.05064-0.00444 0.50735 0.36361 0 0 0 0.04961-0.00815 0.50735 0.36361 0 0 0 0.04806-0.011481 0.50735 0.36361 0 0 0 0.04599-0.014814 0.50735 0.36361 0 0 0 0.04392-0.018147 0.50735 0.36361 0 0 0 0.04134-0.02111 0.50735 0.36361 0 0 0 0.03824-0.023702 0.50735 0.36361 0 0 0 0.03462-0.026665 0.50735 0.36361 0 0 0 0.03049-0.028887 0.50735 0.36361 0 0 0 0.02687-0.031109 0.50735 0.36361 0 0 0 0.0217-0.032591 0.50735 0.36361 0 0 0 0.01757-0.034442 0.50735 0.36361 0 0 0 0.0124-0.035183 0.50735 0.36361 0 0 0 0.0078-0.035924 0.50735 0.36361 0 0 0 0.0026-0.036294v-1.9047a0.50735 0.36361 0 0 0-0.0016-0.025554 0.50735 0.36361 0 0 0-0.0062-0.036294 0.50735 0.36361 0 0 0-0.01085-0.035183 0.50735 0.36361 0 0 0-0.01602-0.034442 0.50735 0.36361 0 0 0-0.02067-0.033331 0.50735 0.36361 0 0 0-0.02532-0.03148 0.50735 0.36361 0 0 0-0.02946-0.029628 0.50735 0.36361 0 0 0-0.03359-0.027406 0.50735 0.36361 0 0 0-0.03721-0.024813 0.50735 0.36361 0 0 0-0.04031-0.021851 0.50735 0.36361 0 0 0-0.04289-0.018888 0.50735 0.36361 0 0 0-0.04599-0.015925 0.50735 0.36361 0 0 0-0.04754-0.012592 0.50735 0.36361 0 0 0-0.04909-0.00889 0.50735 0.36361 0 0 0-0.05012-0.00556 0.50735 0.36361 0 0 0-0.05064-0.00148z" fill="#666"/>
 <path d="m15.727 11.554-4.0312 4.0312c3.1176-0.10511 3.8959-0.84418 4.0312-4.0312z" enable-background="new" opacity=".1"/>
 <path d="m37.384 5.0195c0.293 0 0.38167 0.27567 0.52967 0.52967l0.30798 0.52812h6.2181c9.74e-4 0.12127 0.0036 0.23413 0.0036 0.36121v3.7759c0 4.7152-0.62974 5.3877-5.0347 5.3877h-4.4834c-4.405 0-5.0342-0.67248-5.0342-5.3877v-3.7759c0-0.52382 0.0096-0.99035 0.02945-1.419z" enable-background="new" fill="url(#linearGradient2771)"/>
 <path d="m1.215 5.1737c-0.01511 0.38818-0.02377 0.80157-0.02377 1.2645v3.7759c0 4.7152 0.62974 5.3882 5.0347 5.3882h4.4828c4.405 0 5.0347-0.673 5.0347-5.3882v-3.7759c0-0.46292-0.0087-0.87631-0.02377-1.2645z" enable-background="new" fill="url(#linearGradient1095)"/>
 <g transform="translate(-9.4251 -2.3982)">
  <path d="m17.4 10.341c0.09485 0.0172 0.19836 0.10342 0.2501 0.1724l0.83642 1.4486-0.43108 0.25867h1.4313l0.71565-1.2416-0.43983 0.24993-0.43965-0.77603c-0.04311-0.0776-0.12935-0.11202-0.2242-0.11202zm-0.49351 0.0873c-0.21987 7e-3 -0.43334 0.0894-0.52388 0.2489l-0.65527 1.1469 1.2587 0.73282 0.80194-1.3968-0.31906-0.53451c-0.1164-0.13796-0.3426-0.20481-0.56247-0.19726zm3.408 1.7752-1.2675 0.72424 0.80194 1.3709h0.68117c0.27592-0.0517 0.68983-0.50014 0.4484-0.96576zm-5.6132 0.30174 0.45698 0.26725-0.29316 0.49145c-0.25868 0.48287 0.17239 1.0154 0.43108 1.0434h0.6726l0.45698-0.79335 0.45698 0.2501-0.73282-1.2589zm4.113 1.4743-0.73298 1.2589 0.73298 1.2503v-0.52593h0.8968c0.10347 0 0.17238-0.0604 0.20687-0.12935l0.81052-1.4313c-0.04311 0.0259-0.06895 0.0689-0.23278 0.0861h-1.6814zm-3.725 0.43981c0.03449 0.0431 0.02583 0.0346 0.78462 1.3796 0.05174 0.0776 0.12077 0.17245 0.21562 0.16383h1.6124v-1.4745h-2.397c-0.12934 0-0.17466-0.0345-0.21562-0.069z" enable-background="new" opacity=".15"/>
  <path d="m17.4 10.071c0.09485 0.0172 0.19836 0.10341 0.2501 0.17239l0.83642 1.4486-0.43108 0.25868h1.4313l0.71565-1.2416-0.43983 0.24994-0.43965-0.77604c-0.04311-0.0776-0.12935-0.11201-0.2242-0.11201zm-0.49351 0.0873c-0.21987 7e-3 -0.43334 0.0894-0.52388 0.24891l-0.65527 1.1469 1.2587 0.73281 0.80194-1.3968-0.31906-0.53452c-0.1164-0.13796-0.3426-0.20481-0.56247-0.19726zm3.408 1.7752-1.2675 0.72423 0.80194 1.3709h0.68117c0.27592-0.0517 0.68983-0.50014 0.4484-0.96576zm-5.6132 0.30173 0.45698 0.26726-0.29316 0.49145c-0.25868 0.48287 0.17239 1.0154 0.43108 1.0434h0.6726l0.45698-0.79336 0.45698 0.25011-0.73282-1.2589zm4.113 1.4743-0.73298 1.2589 0.73298 1.2503v-0.52593h0.8968c0.10347 0 0.17238-0.0604 0.20687-0.12934l0.81052-1.4313c-0.04311 0.0259-0.06895 0.0689-0.23278 0.0861h-1.6814zm-3.725 0.43982c0.03449 0.0431 0.02583 0.0346 0.78462 1.3796 0.05174 0.0776 0.12077 0.17244 0.21562 0.16382h1.6124v-1.4745h-2.397c-0.12934 0-0.17466-0.0345-0.21562-0.069z" enable-background="new" fill="#fff"/>
 </g>
 <path d="m15.743 11.571-4.0312 4.0312c3.1176-0.10511 3.8959-0.84418 4.0312-4.0312z" enable-background="new" fill="#fff" opacity=".2"/>
</svg>
