<?xml version="1.0" encoding="UTF-8" standalone="no"?>
<svg
   width="64"
   height="64"
   viewBox="0 0 16.933 16.933"
   version="1.1"
   id="svg18"
   sodipodi:docname="folder-projects.svg"
   inkscape:version="1.4 (e7c3feb100, 2024-10-09)"
   xmlns:inkscape="http://www.inkscape.org/namespaces/inkscape"
   xmlns:sodipodi="http://sodipodi.sourceforge.net/DTD/sodipodi-0.dtd"
   xmlns="http://www.w3.org/2000/svg"
   xmlns:svg="http://www.w3.org/2000/svg">
  <sodipodi:namedview
     id="namedview18"
     pagecolor="#505050"
     bordercolor="#eeeeee"
     borderopacity="1"
     inkscape:showpageshadow="0"
     inkscape:pageopacity="0"
     inkscape:pagecheckerboard="0"
     inkscape:deskcolor="#505050"
     inkscape:zoom="4.1321553"
     inkscape:cx="30.734566"
     inkscape:cy="45.496838"
     inkscape:window-width="1920"
     inkscape:window-height="1051"
     inkscape:window-x="0"
     inkscape:window-y="0"
     inkscape:window-maximized="1"
     inkscape:current-layer="svg18" />
  <defs
     id="defs13">
    <linearGradient
       id="b"
       x1="445.28"
       x2="445.28"
       y1="179.28"
       y2="200.07"
       gradientTransform="matrix(0.38956,0,0,0.38184,-136.38677,-63.44)"
       gradientUnits="userSpaceOnUse">
      <stop
         stop-color="#60c0f0"
         offset="0"
         id="stop1" />
      <stop
         stop-color="#83d4fb"
         offset="1"
         id="stop2" />
    </linearGradient>
    <linearGradient
       id="c"
       x1="8.467"
       x2="8.467"
       y1="293.3"
       y2="292.77"
       gradientTransform="translate(29.133234,-280.07)"
       gradientUnits="userSpaceOnUse">
      <stop
         stop-color="#008ea2"
         stop-opacity=".25"
         offset="0"
         id="stop3" />
      <stop
         stop-color="#fff"
         stop-opacity=".15"
         offset="1"
         id="stop4" />
    </linearGradient>
    <linearGradient
       id="d"
       x1="8.467"
       x2="8.467"
       y1="294.62"
       y2="293.56"
       gradientTransform="matrix(0.99998,0,0,0.99998,29.133234,-280.06)"
       gradientUnits="userSpaceOnUse">
      <stop
         stop-color="#008ea2"
         stop-opacity=".251"
         offset="0"
         id="stop5" />
      <stop
         stop-color="#008ea2"
         stop-opacity=".15"
         offset=".757"
         id="stop6" />
      <stop
         stop-color="#fff"
         stop-opacity=".15"
         offset="1"
         id="stop7" />
    </linearGradient>
    <linearGradient
       id="a"
       x1="6.879"
       x2="6.879"
       y1="285.36"
       y2="283.77"
       gradientTransform="matrix(0.99998,0,0,0.99998,29.133234,-280.06)"
       gradientUnits="userSpaceOnUse">
      <stop
         offset="0"
         id="stop8" />
      <stop
         stop-opacity="0"
         offset="1"
         id="stop9" />
    </linearGradient>
    <linearGradient
       id="e"
       x1="1.058"
       x2="15.875"
       y1="289.59"
       y2="289.59"
       gradientTransform="translate(29.133234,-280.07)"
       gradientUnits="userSpaceOnUse">
      <stop
         stop-color="#46a2d7"
         stop-opacity=".5"
         offset="0"
         id="stop10" />
      <stop
         stop-color="#46a2d7"
         stop-opacity="0"
         offset=".108"
         id="stop11" />
      <stop
         stop-color="#46a2d7"
         stop-opacity=".096"
         offset=".894"
         id="stop12" />
      <stop
         stop-color="#46a2d7"
         stop-opacity=".5"
         offset="1"
         id="stop13" />
    </linearGradient>
    <filter
       color-interpolation-filters="sRGB"
       height="1.0264005"
       width="1.0219998"
       y="-0.013200229"
       x="-0.010999908"
       id="filter1733">
      <feGaussianBlur
         id="feGaussianBlur869"
         stdDeviation="0.072761339" />
    </filter>
    <linearGradient
       gradientUnits="userSpaceOnUse"
       gradientTransform="matrix(0.26458,0,0,0.26458,-0.79373,-39.158)"
       y2="166"
       y1="155"
       x2="25"
       x1="25"
       id="linearGradient1387">
      <stop
         id="stop850"
         offset="0"
         stop-color="#3296d7" />
      <stop
         id="stop852"
         offset="1"
         stop-color="#0a7db4" />
    </linearGradient>
    <filter
       color-interpolation-filters="sRGB"
       height="1.2969998"
       width="1.0296998"
       y="-0.14849988"
       x="-0.014849913"
       id="filter935">
      <feGaussianBlur
         id="feGaussianBlur872"
         stdDeviation="0.098224626" />
    </filter>
    <linearGradient
       gradientUnits="userSpaceOnUse"
       gradientTransform="matrix(0.26458,0,0,0.26458,-0.79374,-39.158)"
       y2="185"
       y1="185"
       x2="65"
       x1="5"
       id="linearGradient1401">
      <stop
         id="stop855"
         offset="0"
         stop-color="#3492cb" />
      <stop
         id="stop857"
         offset=".083713"
         stop-color="#6ec8fa" />
      <stop
         id="stop859"
         offset=".91237"
         stop-color="#6ec8fa" />
      <stop
         id="stop861"
         offset="1"
         stop-color="#3492cb" />
    </linearGradient>
    <linearGradient
       gradientUnits="userSpaceOnUse"
       gradientTransform="matrix(0.18168,0,0,0.40956,9.2005,-451.88)"
       y2="1140.2"
       y1="1138.4"
       x2="-9.6169996"
       x1="-9.6169996"
       id="linearGradient1438">
      <stop
         id="stop864"
         offset="0"
         stop-opacity="0"
         stop-color="#1482be" />
      <stop
         id="stop866"
         offset="1"
         stop-color="#1482be" />
    </linearGradient>
    <filter
       id="filter2076-6"
       x="-0.048000001"
       y="-0.048000001"
       width="1.096"
       height="1.096"
       color-interpolation-filters="sRGB">
      <feGaussianBlur
         stdDeviation="1.1"
         id="feGaussianBlur1" />
    </filter>
  </defs>
  <g
     id="g5"
     transform="translate(-5.97e-5,-5.967e-5)">
    <rect
       transform="scale(0.26458)"
       x="4.5"
       y="4.5"
       width="55"
       height="55"
       rx="13.002"
       ry="13.002"
       filter="url(#filter2076-6)"
       opacity="0.3"
       id="rect1" />
    <path
       d="m 4.6306,1.1906 c -1.9058,0 -3.44,1.5342 -3.44,3.44 v 7.6717 c 0,1.9058 1.5342,3.44 3.44,3.44 h 7.6717 c 1.9058,0 3.44,-1.5342 3.44,-3.44 V 4.6306 c 0,-1.9058 -1.5342,-3.44 -3.44,-3.44 z"
       fill="#f5aa1e"
       stroke-linecap="round"
       stroke-width="0.079373"
       style="paint-order:stroke fill markers"
       id="path1" />
    <path
       d="m 4.8518,2.7781 c -1.1488,0 -2.0737,0.92498 -2.0737,2.0737 v 7.2294 c 0,1.1488 0.92498,2.0737 2.0737,2.0737 h 7.2294 c 1.1488,0 2.0737,-0.92498 2.0737,-2.0737 V 4.8518 c 0,-1.1488 -0.92498,-2.0737 -2.0737,-2.0737 z"
       fill="#fafafa"
       stroke-linecap="round"
       stroke-width="0.079373"
       style="paint-order:stroke fill markers"
       id="path2" />
    <path
       d="m 4.2636,4.2277 c 0.005,0.04062 0.0099,0.08118 0.01548,0.12163 h 8.376 c 0.0052,-0.0437 0.0097,-0.07849 0.01437,-0.12163 z"
       fill="#f08705"
       opacity="0.6"
       stroke-width="0.67718"
       style="paint-order:normal"
       id="path3" />
    <path
       d="m 1.7523,3.5899 c -0.31183,0 -0.56274,0.25092 -0.56274,0.56274 v 1.8278 c 0,0.02268 0.0041,0.04418 0.0067,0.06615 -0.0055,0.54053 -0.0052,1.1567 -0.0052,1.9652 v 0.22427 h -5.16e-4 v 4.0663 c 0,0.03645 0.0041,0.07184 0.0052,0.108 0.002,0.05118 0.0031,0.10258 0.0078,0.15296 0.12639,1.6956 1.4693,3.0388 3.1646,3.1662 0.08518,0.0081 0.17144,0.0128 0.25941,0.01292 0.0012,3e-6 0.0024,0 0.0036,0 h 7.6712 5.17e-4 c 0.08936,0 0.17707,-0.0047 0.26354,-0.01292 1.691,-0.12755 3.0311,-1.4649 3.1625,-3.1548 0.0087,-0.08956 0.01395,-0.18019 0.01395,-0.27233 v -4.1439 c 1.6e-5,-0.0018 5.17e-4,-0.0034 5.17e-4,-0.0052 v -1.8278 c 0,-0.31183 -0.25092,-0.56274 -0.56274,-0.56274 h -6.0068 c -0.27152,0 -0.48409,-0.01833 -0.66041,-0.06511 C 8.337108,5.65086 8.197358,5.57537 8.072638,5.462 7.947918,5.34863 7.837988,5.1972 7.721248,4.99744 7.604508,4.79767 7.480888,4.54998 7.328518,4.24401 7.255028,4.0632 7.152398,3.93174 7.040168,3.83681 6.927938,3.74188 6.806318,3.68333 6.693428,3.64716 6.467648,3.57482 6.278478,3.5929 6.278478,3.5929 h -2.5533 C 3.714698,3.592325 3.704818,3.5898 3.694168,3.5898 h -0.91517 z"
       fill="#ffc841"
       stroke-width="0.26458"
       id="path4" />
  </g>
  <path
     class="st0"
     d="m 10.63858,11.071064 0.171849,0.171849 c 0.04522,0.04522 0.04522,0.117581 0,0.162804 l -0.140193,0.139288 c 0.03618,0.07235 0.06784,0.149237 0.08592,0.230639 h 0.180893 c 0.06331,0 0.11758,0.05427 0.11758,0.117581 v 0.244206 c 0,0.06331 -0.05427,0.117581 -0.11758,0.117581 h -0.19446 c -0.02261,0.07598 -0.05879,0.152854 -0.09949,0.22069 l 0.126624,0.126625 c 0.04522,0.04522 0.04522,0.117581 0,0.162804 l -0.171849,0.171849 c -0.04522,0.04522 -0.11758,0.04522 -0.162804,0 l -0.139283,-0.141098 c -0.07235,0.03618 -0.149236,0.06784 -0.230638,0.08592 v 0.180894 c 0,0.06331 -0.05427,0.11758 -0.1175809,0.11758 H 9.7033614 c -0.063315,0 -0.1175809,-0.05427 -0.1175809,-0.11758 V 12.863718 A 0.97682432,0.97682432 0 0 1 9.3650907,12.764228 L 9.238465,12.890853 c -0.04522,0.04522 -0.1175807,0.04522 -0.1628033,0 l -0.1718491,-0.17185 a 0.1148673,0.1148673 0 0 1 0,-0.162804 l 0.1401925,-0.139288 a 1.0066717,1.0066717 0 0 1 -0.085925,-0.230639 h -0.180894 c -0.063315,0 -0.1175808,-0.05427 -0.1175808,-0.11758 v -0.244206 c 0,-0.06331 0.054267,-0.117581 0.1175808,-0.117581 h 0.1944608 a 0.97682432,0.97682432 0 0 1 0.099491,-0.22069 L 8.9490353,11.364112 a 0.1148673,0.1148673 0 0 1 0,-0.162804 l 0.1718481,-0.17185 c 0.04522,-0.04522 0.1175809,-0.04522 0.1628043,0 l 0.1401925,0.141098 c 0.072354,-0.03618 0.1492373,-0.06784 0.2297347,-0.08592 v -0.180893 c 0,-0.06331 0.054267,-0.117581 0.1175807,-0.117581 h 0.2442074 c 0.06332,0 0.11758,0.05427 0.11758,0.117581 v 0.194461 c 0.07688,0.02261 0.15376,0.05879 0.221595,0.09949 l 0.126625,-0.126626 c 0.03618,-0.04522 0.112154,-0.04522 0.157377,0 z m -2.8906765,0.265913 c -0.063315,0 -0.1130579,-0.06331 -0.1130579,-0.135669 0,-0.07598 0.049744,-0.135671 0.1130579,-0.135671 h 0.56077 c 0.063315,0 0.112154,0.06331 0.112154,0.135671 0,0.07688 -0.049744,0.135669 -0.1130588,0.135669 z m 0.1673271,1.359414 a 0.1356705,0.1356705 0 0 1 0,0.271341 H 6.1985516 A 0.32199023,0.32199023 0 0 1 5.8783707,12.647551 V 7.9443219 c 0,-0.090447 0.036181,-0.1664219 0.094064,-0.2252123 0.05789,-0.05879 0.1356705,-0.094969 0.2261167,-0.094969 h 3.9163425 a 0.32199023,0.32199023 0 0 1 0.321085,0.3210858 v 2.1815746 a 0.13567004,0.13567004 0 0 1 -0.13567,0.13567 0.13567004,0.13567004 0 0 1 -0.135669,-0.13567 V 7.9452264 a 0.04070101,0.04070101 0 0 0 -0.01357,-0.031657 0.04070101,0.04070101 0 0 0 -0.03166,-0.013567 H 6.1985463 a 0.04070101,0.04070101 0 0 0 -0.031657,0.013567 c -0.00905,0.00452 -0.013563,0.01809 -0.013563,0.031657 v 4.7113691 c 0,0.01356 0.00455,0.02261 0.013563,0.03166 0.00905,0.009 0.018086,0.01356 0.031657,0.01356 H 7.9152254 Z M 6.726761,10.971573 h 0.4838899 c 0.027134,0 0.04522,0.01809 0.04522,0.04522 v 0.416055 c 0,0.02713 -0.018086,0.04522 -0.04522,0.04522 H 6.726761 c -0.027134,0 -0.04522,-0.01809 -0.04522,-0.04522 v -0.416055 c 0,-0.02713 0.018086,-0.04522 0.04522,-0.04522 z m 0,-2.3896019 h 0.4838899 c 0.027134,0 0.04522,0.01809 0.04522,0.045223 v 0.4160548 c 0,0.027134 -0.018086,0.045223 -0.04522,0.045223 H 6.726761 c -0.027134,0 -0.04522,-0.01809 -0.04522,-0.045223 v -0.416055 c 0,-0.027134 0.018086,-0.045223 0.04522,-0.045223 z m 1.0211425,0.3654046 c -0.063315,0 -0.1130579,-0.063312 -0.1130579,-0.13567 0,-0.075975 0.049744,-0.1356701 0.1130579,-0.1356701 h 1.5674417 c 0.063315,0 0.1130578,0.063312 0.1130578,0.1356701 0,0.077784 -0.049744,0.13567 -0.1130578,0.13567 z M 6.8669527,10.217247 c -0.031658,0.02261 -0.072354,0.01809 -0.104013,-0.01357 l -0.00905,-0.009 -0.1447145,-0.149237 c -0.030745,-0.0317 -0.021706,-0.081444 0.014475,-0.1176222 0.039795,-0.031657 0.094065,-0.036179 0.1266256,-0.00452 L 6.8262518,10.0047 7.0795022,9.8011947 c 0.031658,-0.027134 0.085925,-0.013567 0.1130587,0.027134 0.031658,0.040701 0.027134,0.099492 -0.00905,0.1266254 z m 0.8049763,-0.11758 c -0.063315,0 -0.1139635,-0.06331 -0.1139635,-0.1356705 0,-0.076879 0.049744,-0.13567 0.1130587,-0.13567 H 9.238465 c 0.063315,0 0.1130588,0.063312 0.1130588,0.13567 0,0.076878 -0.049744,0.1356705 -0.1130588,0.1356705 z m 2.1851921,1.404637 a 0.47936785,0.47936785 0 1 1 0,0.958735 0.47936785,0.47936785 0 0 1 0,-0.958735 z"
     clip-rule="evenodd"
     fill-rule="evenodd"
     opacity="0.15"
     id="path6"
     style="opacity:1;fill:#ffffff;fill-opacity:1;stroke-width:0.90447" />
</svg>
