<?xml version="1.0" encoding="UTF-8" standalone="no"?>
<svg
   width="64"
   height="64"
   version="1.1"
   viewBox="0 0 64 64"
   id="svg18"
   sodipodi:docname="folder-build.svg"
   inkscape:version="1.4 (e7c3feb100, 2024-10-09)"
   xmlns:inkscape="http://www.inkscape.org/namespaces/inkscape"
   xmlns:sodipodi="http://sodipodi.sourceforge.net/DTD/sodipodi-0.dtd"
   xmlns="http://www.w3.org/2000/svg"
   xmlns:svg="http://www.w3.org/2000/svg">
  <sodipodi:namedview
     id="namedview18"
     pagecolor="#505050"
     bordercolor="#eeeeee"
     borderopacity="1"
     inkscape:showpageshadow="0"
     inkscape:pageopacity="0"
     inkscape:pagecheckerboard="0"
     inkscape:deskcolor="#505050"
     inkscape:zoom="4.1432038"
     inkscape:cx="33.548917"
     inkscape:cy="34.031635"
     inkscape:window-width="1920"
     inkscape:window-height="1051"
     inkscape:window-x="0"
     inkscape:window-y="0"
     inkscape:window-maximized="1"
     inkscape:current-layer="svg18" />
  <defs
     id="defs13">
    <style
       id="current-color-scheme"
       type="text/css">.ColorScheme-Text {
      color:#333333;
    }
    .ColorScheme-Highlight {
      color:#60c0f0;
    }</style>
    <linearGradient
       id="e"
       x1="1.058"
       x2="15.875"
       y1="289.59"
       y2="289.59"
       gradientTransform="matrix(3.7796,0,0,3.7796,0,-1058.6)"
       gradientUnits="userSpaceOnUse">
      <stop
         stop-color="#46a2d7"
         stop-opacity=".5"
         offset="0"
         id="stop1" />
      <stop
         stop-color="#46a2d7"
         stop-opacity="0"
         offset=".108"
         id="stop2" />
      <stop
         stop-color="#46a2d7"
         stop-opacity=".096"
         offset=".894"
         id="stop3" />
      <stop
         stop-color="#46a2d7"
         stop-opacity=".5"
         offset="1"
         id="stop4" />
    </linearGradient>
    <linearGradient
       id="d"
       x1="8.467"
       x2="8.467"
       y1="294.62"
       y2="293.56"
       gradientTransform="matrix(3.7795,0,0,3.7795,0,-1058.5)"
       gradientUnits="userSpaceOnUse">
      <stop
         stop-color="#008ea2"
         stop-opacity=".251"
         offset="0"
         id="stop5" />
      <stop
         stop-color="#008ea2"
         stop-opacity=".15"
         offset=".757"
         id="stop6" />
      <stop
         stop-color="#fff"
         stop-opacity=".15"
         offset="1"
         id="stop7" />
    </linearGradient>
    <linearGradient
       id="c"
       x1="8.467"
       x2="8.467"
       y1="293.3"
       y2="292.77"
       gradientTransform="matrix(3.7796,0,0,3.7796,0,-1058.6)"
       gradientUnits="userSpaceOnUse">
      <stop
         stop-color="#008ea2"
         stop-opacity=".25"
         offset="0"
         id="stop8" />
      <stop
         stop-color="#fff"
         stop-opacity=".15"
         offset="1"
         id="stop9" />
    </linearGradient>
    <linearGradient
       id="b"
       x1="445.28"
       x2="445.28"
       y1="179.28"
       y2="200.07"
       gradientTransform="matrix(1.4724,0,0,1.4432,-625.6,-239.78)"
       gradientUnits="userSpaceOnUse">
      <stop
         stop-color="#60c0f0"
         offset="0"
         id="stop10" />
      <stop
         stop-color="#83d4fb"
         offset="1"
         id="stop11" />
    </linearGradient>
    <linearGradient
       id="a"
       x1="6.879"
       x2="6.879"
       y1="285.36"
       y2="283.77"
       gradientTransform="matrix(3.7795,0,0,3.7795,0,-1058.5)"
       gradientUnits="userSpaceOnUse">
      <stop
         offset="0"
         id="stop12" />
      <stop
         stop-opacity="0"
         offset="1"
         id="stop13" />
    </linearGradient>
    <filter
       color-interpolation-filters="sRGB"
       height="1.0264005"
       width="1.0219998"
       y="-0.013200229"
       x="-0.010999908"
       id="filter1733">
      <feGaussianBlur
         id="feGaussianBlur869"
         stdDeviation="0.072761339" />
    </filter>
    <linearGradient
       gradientUnits="userSpaceOnUse"
       gradientTransform="matrix(0.26458,0,0,0.26458,-0.79373,-39.158)"
       y2="166"
       y1="155"
       x2="25"
       x1="25"
       id="linearGradient1387">
      <stop
         id="stop850"
         offset="0"
         stop-color="#3296d7" />
      <stop
         id="stop852"
         offset="1"
         stop-color="#0a7db4" />
    </linearGradient>
    <filter
       color-interpolation-filters="sRGB"
       height="1.2969998"
       width="1.0296998"
       y="-0.14849988"
       x="-0.014849913"
       id="filter935">
      <feGaussianBlur
         id="feGaussianBlur872"
         stdDeviation="0.098224626" />
    </filter>
    <linearGradient
       gradientUnits="userSpaceOnUse"
       gradientTransform="matrix(0.26458,0,0,0.26458,-0.79374,-39.158)"
       y2="185"
       y1="185"
       x2="65"
       x1="5"
       id="linearGradient1401">
      <stop
         id="stop855"
         offset="0"
         stop-color="#3492cb" />
      <stop
         id="stop857"
         offset=".083713"
         stop-color="#6ec8fa" />
      <stop
         id="stop859"
         offset=".91237"
         stop-color="#6ec8fa" />
      <stop
         id="stop861"
         offset="1"
         stop-color="#3492cb" />
    </linearGradient>
    <linearGradient
       gradientUnits="userSpaceOnUse"
       gradientTransform="matrix(0.18168,0,0,0.40956,9.2005,-451.88)"
       y2="1140.2"
       y1="1138.4"
       x2="-9.6169996"
       x1="-9.6169996"
       id="linearGradient1438">
      <stop
         id="stop864"
         offset="0"
         stop-opacity="0"
         stop-color="#1482be" />
      <stop
         id="stop866"
         offset="1"
         stop-color="#1482be" />
    </linearGradient>
    <filter
       id="filter2076-6"
       x="-0.048000001"
       y="-0.048000001"
       width="1.096"
       height="1.096"
       color-interpolation-filters="sRGB">
      <feGaussianBlur
         stdDeviation="1.1"
         id="feGaussianBlur1" />
    </filter>
  </defs>
  <g
     id="g5"
     transform="matrix(3.779602,0,0,3.779602,-2.259e-4,-2.2588e-4)">
    <rect
       transform="scale(0.26458)"
       x="4.5"
       y="4.5"
       width="55"
       height="55"
       rx="13.002"
       ry="13.002"
       filter="url(#filter2076-6)"
       opacity="0.3"
       id="rect1" />
    <path
       d="m 4.6306,1.1906 c -1.9058,0 -3.44,1.5342 -3.44,3.44 v 7.6717 c 0,1.9058 1.5342,3.44 3.44,3.44 h 7.6717 c 1.9058,0 3.44,-1.5342 3.44,-3.44 V 4.6306 c 0,-1.9058 -1.5342,-3.44 -3.44,-3.44 z"
       fill="#f5aa1e"
       stroke-linecap="round"
       stroke-width="0.079373"
       style="paint-order:stroke fill markers"
       id="path1" />
    <path
       d="m 4.8518,2.7781 c -1.1488,0 -2.0737,0.92498 -2.0737,2.0737 v 7.2294 c 0,1.1488 0.92498,2.0737 2.0737,2.0737 h 7.2294 c 1.1488,0 2.0737,-0.92498 2.0737,-2.0737 V 4.8518 c 0,-1.1488 -0.92498,-2.0737 -2.0737,-2.0737 z"
       fill="#fafafa"
       stroke-linecap="round"
       stroke-width="0.079373"
       style="paint-order:stroke fill markers"
       id="path2" />
    <path
       d="m 4.2636,4.2277 c 0.005,0.04062 0.0099,0.08118 0.01548,0.12163 h 8.376 c 0.0052,-0.0437 0.0097,-0.07849 0.01437,-0.12163 z"
       fill="#f08705"
       opacity="0.6"
       stroke-width="0.67718"
       style="paint-order:normal"
       id="path3" />
    <path
       d="m 1.7523,3.5899 c -0.31183,0 -0.56274,0.25092 -0.56274,0.56274 v 1.8278 c 0,0.02268 0.0041,0.04418 0.0067,0.06615 -0.0055,0.54053 -0.0052,1.1567 -0.0052,1.9652 v 0.22427 h -5.16e-4 v 4.0663 c 0,0.03645 0.0041,0.07184 0.0052,0.108 0.002,0.05118 0.0031,0.10258 0.0078,0.15296 0.12639,1.6956 1.4693,3.0388 3.1646,3.1662 0.08518,0.0081 0.17144,0.0128 0.25941,0.01292 0.0012,3e-6 0.0024,0 0.0036,0 h 7.6712 5.17e-4 c 0.08936,0 0.17707,-0.0047 0.26354,-0.01292 1.691,-0.12755 3.0311,-1.4649 3.1625,-3.1548 0.0087,-0.08956 0.01395,-0.18019 0.01395,-0.27233 v -4.1439 c 1.6e-5,-0.0018 5.17e-4,-0.0034 5.17e-4,-0.0052 v -1.8278 c 0,-0.31183 -0.25092,-0.56274 -0.56274,-0.56274 h -6.0068 c -0.27152,0 -0.48409,-0.01833 -0.66041,-0.06511 C 8.337108,5.65086 8.197358,5.57537 8.072638,5.462 7.947918,5.34863 7.837988,5.1972 7.721248,4.99744 7.604508,4.79767 7.480888,4.54998 7.328518,4.24401 7.255028,4.0632 7.152398,3.93174 7.040168,3.83681 6.927938,3.74188 6.806318,3.68333 6.693428,3.64716 6.467648,3.57482 6.278478,3.5929 6.278478,3.5929 h -2.5533 C 3.714698,3.592325 3.704818,3.5898 3.694168,3.5898 h -0.91517 z"
       fill="#ffc841"
       stroke-width="0.26458"
       id="path4" />
  </g>
  <path
     d="m 39.057822,28.816197 -0.283064,0.966638 c -0.579709,-0.04831 -1.163703,0.01557 -1.719714,0.186929 l -0.482452,-0.883008 -1.600489,0.874103 0.482453,0.883008 c -0.445722,0.375535 -0.814291,0.831792 -1.087776,1.345911 l -0.963085,-0.281279 -0.512713,1.748244 0.966638,0.283064 c -0.04831,0.57971 0.01377,1.165526 0.185142,1.721536 l -0.883008,0.482454 0.874103,1.60049 0.883008,-0.484231 c 0.375535,0.445721 0.833579,0.816069 1.347643,1.089507 l -0.283064,0.963084 1.749975,0.512714 0.283063,-0.966638 c 0.57971,0.04831 1.163704,-0.01557 1.719714,-0.186929 l 0.484231,0.883009 1.598667,-0.874103 -0.482453,-0.883009 c 0.445719,-0.375535 0.81429,-0.831792 1.087774,-1.34591 l 0.963084,0.281278 0.512715,-1.748244 -0.966638,-0.283064 c 0.04831,-0.579709 -0.01377,-1.165526 -0.185142,-1.721536 l 0.883009,-0.482453 -0.874103,-1.60049 -0.883009,0.484231 c -0.375535,-0.44572 -0.833579,-0.81607 -1.347642,-1.089508 l 0.283063,-0.963083 z m -0.90081,1.867466 c 0.180904,-0.01178 0.363439,-0.01 0.544762,0.0053 0.241757,0.02036 0.48292,0.06424 0.719224,0.133516 0.90967,0.267067 1.680338,0.877895 2.147022,1.703671 0.484913,0.856803 0.602879,1.874758 0.325786,2.819976 -0.267068,0.909669 -0.877896,1.680337 -1.703672,2.147022 -0.856803,0.484913 -1.874758,0.602879 -2.819975,0.325785 -0.90967,-0.267067 -1.682069,-0.877895 -2.148754,-1.703671 -0.484913,-0.856804 -0.602879,-1.874758 -0.325785,-2.819976 0.267066,-0.90967 0.877895,-1.680337 1.703671,-2.147021 0.481952,-0.272765 1.015037,-0.429296 1.557741,-0.464643 z m -12.1502,2.663291 -1.814054,0.178024 0.09792,1.002277 c -0.55601,0.171361 -1.073557,0.44716 -1.525656,0.81358 l -0.779756,-0.639111 -1.157139,1.408165 0.777978,0.639111 c -0.273447,0.514994 -0.443614,1.07775 -0.505596,1.657459 l -0.998723,0.09792 0.178023,1.814053 1.002278,-0.09792 c 0.171361,0.556011 0.44716,1.073556 0.813581,1.525657 l -0.639112,0.779755 1.408166,1.15714 0.639111,-0.777978 c 0.514993,0.273448 1.077749,0.443614 1.657458,0.505596 l 0.09792,0.998723 1.814053,-0.178024 -0.09792,-1.002277 c 0.556012,-0.171361 1.073556,-0.44716 1.525657,-0.813581 l 0.779758,0.639112 1.15714,-1.408165 -0.777977,-0.639111 c 0.273447,-0.514995 0.443613,-1.07775 0.505595,-1.657459 l 0.998723,-0.09792 -0.178024,-1.814053 -1.002277,0.09792 c -0.171362,-0.55601 -0.447161,-1.073555 -0.813581,-1.525656 l 0.639111,-0.779755 -1.408168,-1.15714 -0.639111,0.777978 c -0.515,-0.273449 -1.077756,-0.443616 -1.657465,-0.505597 z m -0.02489,1.901283 c 0.698231,0.06721 1.367968,0.336085 1.924434,0.779755 0.770211,0.614346 1.259047,1.513351 1.354754,2.494117 0.09298,0.944307 -0.186418,1.887519 -0.777978,2.629474 -0.614347,0.770211 -1.515176,1.259046 -2.49594,1.354753 -0.944308,0.09298 -1.885698,-0.186419 -2.627653,-0.777978 -0.770211,-0.614346 -1.259044,-1.515175 -1.354751,-2.49594 -0.09298,-0.944307 0.186419,-1.885697 0.777978,-2.627652 0.614346,-0.770212 1.513351,-1.259045 2.494117,-1.354752 0.236076,-0.02329 0.472235,-0.02418 0.704984,-0.0018 z m 7.854482,3.629929 v 1.007655 c -0.570595,0.116671 -1.112842,0.341409 -1.598669,0.662254 l -0.712103,-0.712104 -1.288941,1.288942 0.712103,0.712104 c -0.321758,0.485826 -0.548236,1.028073 -0.665819,1.598667 h -1.0041 v 1.822986 h 1.007655 c 0.116671,0.570594 0.341408,1.112841 0.662255,1.598667 l -0.712104,0.712104 1.288943,1.288942 0.712103,-0.712104 c 0.485827,0.321757 1.028073,0.548236 1.598669,0.665818 v 1.0041 h 1.822983 v -1.007654 c 0.570597,-0.116672 1.112843,-0.34141 1.598669,-0.662255 l 0.712103,0.712104 1.288942,-1.288942 -0.712104,-0.712104 c 0.321758,-0.485826 0.548237,-1.028073 0.665819,-1.598667 h 1.004101 v -1.822986 h -1.007655 c -0.11667,-0.570594 -0.341408,-1.112841 -0.662253,-1.598667 l 0.712102,-0.712104 -1.288941,-1.288942 -0.712104,0.712104 c -0.485822,-0.321757 -1.028069,-0.548236 -1.598664,-0.665817 v -1.004101 z m 0.911493,1.822985 c 0.948863,0 1.859536,0.369939 2.540421,1.030807 0.706407,0.686355 1.10555,1.62984 1.10555,2.615164 0,0.948864 -0.369938,1.859537 -1.030807,2.540422 -0.686355,0.706407 -1.629841,1.105549 -2.615164,1.105549 -0.948864,0 -1.859538,-0.369938 -2.540422,-1.030807 -0.706407,-0.686354 -1.10555,-1.62984 -1.10555,-2.615164 0,-0.948864 0.369939,-1.859536 1.030807,-2.540421 0.686355,-0.706407 1.629841,-1.10555 2.615165,-1.10555 z"
     fill="#000000"
     opacity="0.15"
     id="path6"
     style="opacity:1;fill:#ffffff;fill-opacity:1;stroke-width:0.911493" />
</svg>
