<?xml version="1.0" encoding="UTF-8" standalone="no"?>
<svg
   version="1.1"
   viewBox="0 0 64 64"
   id="svg18"
   sodipodi:docname="folder-activities.svg"
   inkscape:version="1.4 (e7c3feb100, 2024-10-09)"
   xmlns:inkscape="http://www.inkscape.org/namespaces/inkscape"
   xmlns:sodipodi="http://sodipodi.sourceforge.net/DTD/sodipodi-0.dtd"
   xmlns="http://www.w3.org/2000/svg"
   xmlns:svg="http://www.w3.org/2000/svg">
  <sodipodi:namedview
     id="namedview18"
     pagecolor="#505050"
     bordercolor="#eeeeee"
     borderopacity="1"
     inkscape:showpageshadow="0"
     inkscape:pageopacity="0"
     inkscape:pagecheckerboard="0"
     inkscape:deskcolor="#505050"
     inkscape:zoom="2.9296875"
     inkscape:cx="17.749333"
     inkscape:cy="-2.3893333"
     inkscape:window-width="1920"
     inkscape:window-height="1051"
     inkscape:window-x="0"
     inkscape:window-y="0"
     inkscape:window-maximized="1"
     inkscape:current-layer="svg18"
     showguides="false" />
  <defs
     id="defs13">
    <style
       id="current-color-scheme"
       type="text/css">.ColorScheme-Text {
        color:#333333;
      }
      .ColorScheme-Highlight {
        color:#60c0f0;
      }</style>
    <linearGradient
       id="e"
       x1="1.058"
       x2="15.875"
       y1="289.59"
       y2="289.59"
       gradientTransform="matrix(3.7796 0 0 3.7796 0 -1058.6)"
       gradientUnits="userSpaceOnUse">
      <stop
         stop-color="#46a2d7"
         stop-opacity=".5"
         offset="0"
         id="stop1" />
      <stop
         stop-color="#46a2d7"
         stop-opacity="0"
         offset=".108"
         id="stop2" />
      <stop
         stop-color="#46a2d7"
         stop-opacity=".096"
         offset=".894"
         id="stop3" />
      <stop
         stop-color="#46a2d7"
         stop-opacity=".5"
         offset="1"
         id="stop4" />
    </linearGradient>
    <linearGradient
       id="d"
       x1="8.467"
       x2="8.467"
       y1="294.62"
       y2="293.56"
       gradientTransform="matrix(3.7795 0 0 3.7795 0 -1058.5)"
       gradientUnits="userSpaceOnUse">
      <stop
         stop-color="#008ea2"
         stop-opacity=".251"
         offset="0"
         id="stop5" />
      <stop
         stop-color="#008ea2"
         stop-opacity=".15"
         offset=".757"
         id="stop6" />
      <stop
         stop-color="#fff"
         stop-opacity=".15"
         offset="1"
         id="stop7" />
    </linearGradient>
    <linearGradient
       id="c"
       x1="8.467"
       x2="8.467"
       y1="293.3"
       y2="292.77"
       gradientTransform="matrix(3.7796 0 0 3.7796 0 -1058.6)"
       gradientUnits="userSpaceOnUse">
      <stop
         stop-color="#008ea2"
         stop-opacity=".25"
         offset="0"
         id="stop8" />
      <stop
         stop-color="#fff"
         stop-opacity=".15"
         offset="1"
         id="stop9" />
    </linearGradient>
    <linearGradient
       id="b"
       x1="445.28"
       x2="445.28"
       y1="179.28"
       y2="200.07"
       gradientTransform="matrix(1.4724 0 0 1.4432 -625.6 -239.78)"
       gradientUnits="userSpaceOnUse">
      <stop
         stop-color="#60c0f0"
         offset="0"
         id="stop10" />
      <stop
         stop-color="#83d4fb"
         offset="1"
         id="stop11" />
    </linearGradient>
    <linearGradient
       id="a"
       x1="6.879"
       x2="6.879"
       y1="285.36"
       y2="283.77"
       gradientTransform="matrix(3.7795 0 0 3.7795 0 -1058.5)"
       gradientUnits="userSpaceOnUse">
      <stop
         offset="0"
         id="stop12" />
      <stop
         stop-opacity="0"
         offset="1"
         id="stop13" />
    </linearGradient>
    <filter
       color-interpolation-filters="sRGB"
       height="1.0264005"
       width="1.0219998"
       y="-0.013200229"
       x="-0.010999908"
       id="filter1733">
      <feGaussianBlur
         id="feGaussianBlur869"
         stdDeviation="0.072761339" />
    </filter>
    <linearGradient
       gradientUnits="userSpaceOnUse"
       gradientTransform="matrix(0.26458,0,0,0.26458,-0.79373,-39.158)"
       y2="166"
       y1="155"
       x2="25"
       x1="25"
       id="linearGradient1387">
      <stop
         id="stop850"
         offset="0"
         stop-color="#3296d7" />
      <stop
         id="stop852"
         offset="1"
         stop-color="#0a7db4" />
    </linearGradient>
    <filter
       color-interpolation-filters="sRGB"
       height="1.2969998"
       width="1.0296998"
       y="-0.14849988"
       x="-0.014849913"
       id="filter935">
      <feGaussianBlur
         id="feGaussianBlur872"
         stdDeviation="0.098224626" />
    </filter>
    <linearGradient
       gradientUnits="userSpaceOnUse"
       gradientTransform="matrix(0.26458,0,0,0.26458,-0.79374,-39.158)"
       y2="185"
       y1="185"
       x2="65"
       x1="5"
       id="linearGradient1401">
      <stop
         id="stop855"
         offset="0"
         stop-color="#3492cb" />
      <stop
         id="stop857"
         offset=".083713"
         stop-color="#6ec8fa" />
      <stop
         id="stop859"
         offset=".91237"
         stop-color="#6ec8fa" />
      <stop
         id="stop861"
         offset="1"
         stop-color="#3492cb" />
    </linearGradient>
    <linearGradient
       gradientUnits="userSpaceOnUse"
       gradientTransform="matrix(0.18168,0,0,0.40956,9.2005,-451.88)"
       y2="1140.2"
       y1="1138.4"
       x2="-9.6169996"
       x1="-9.6169996"
       id="linearGradient1438">
      <stop
         id="stop864"
         offset="0"
         stop-opacity="0"
         stop-color="#1482be" />
      <stop
         id="stop866"
         offset="1"
         stop-color="#1482be" />
    </linearGradient>
    <filter
       color-interpolation-filters="sRGB"
       height="1.0264005"
       width="1.0219998"
       y="-0.013200229"
       x="-0.010999908"
       id="filter1733-3">
      <feGaussianBlur
         id="feGaussianBlur880"
         stdDeviation="0.072761339" />
    </filter>
    <linearGradient
       gradientUnits="userSpaceOnUse"
       gradientTransform="matrix(0.26458,0,0,0.26458,-0.79373,-39.158)"
       y2="166"
       y1="155"
       x2="25"
       x1="25"
       id="linearGradient1387-6">
      <stop
         id="stop861-7"
         offset="0"
         stop-color="#3296d7" />
      <stop
         id="stop863"
         offset="1"
         stop-color="#0a7db4" />
    </linearGradient>
    <filter
       color-interpolation-filters="sRGB"
       height="1.2969998"
       width="1.0296998"
       y="-0.14849988"
       x="-0.014849913"
       id="filter935-5">
      <feGaussianBlur
         id="feGaussianBlur883"
         stdDeviation="0.098224626" />
    </filter>
    <linearGradient
       gradientUnits="userSpaceOnUse"
       gradientTransform="matrix(0.26458,0,0,0.26458,-0.79374,-39.158)"
       y2="185"
       y1="185"
       x2="65"
       x1="5"
       id="linearGradient1401-3">
      <stop
         id="stop866-5"
         offset="0"
         stop-color="#3492cb" />
      <stop
         id="stop868"
         offset=".083713"
         stop-color="#6ec8fa" />
      <stop
         id="stop870"
         offset=".91237"
         stop-color="#6ec8fa" />
      <stop
         id="stop872"
         offset="1"
         stop-color="#3492cb" />
    </linearGradient>
    <linearGradient
       gradientUnits="userSpaceOnUse"
       gradientTransform="matrix(0.18168,0,0,0.40956,9.2005,-451.88)"
       y2="1140.2"
       y1="1138.4"
       x2="-9.6169996"
       x1="-9.6169996"
       id="linearGradient1438-6">
      <stop
         id="stop875"
         offset="0"
         stop-opacity="0"
         stop-color="#1482be" />
      <stop
         id="stop877"
         offset="1"
         stop-color="#1482be" />
    </linearGradient>
    <filter
       color-interpolation-filters="sRGB"
       height="1.0264005"
       width="1.0219998"
       y="-0.013200229"
       x="-0.010999908"
       id="filter1733-36">
      <feGaussianBlur
         id="feGaussianBlur895"
         stdDeviation="0.072761339" />
    </filter>
    <linearGradient
       gradientUnits="userSpaceOnUse"
       gradientTransform="matrix(0.26458,0,0,0.26458,-0.79373,-39.158)"
       y2="166"
       y1="155"
       x2="25"
       x1="25"
       id="linearGradient1387-0">
      <stop
         id="stop876"
         offset="0"
         stop-color="#3296d7" />
      <stop
         id="stop878"
         offset="1"
         stop-color="#0a7db4" />
    </linearGradient>
    <filter
       color-interpolation-filters="sRGB"
       height="1.2969998"
       width="1.0296998"
       y="-0.14849988"
       x="-0.014849913"
       id="filter935-6">
      <feGaussianBlur
         id="feGaussianBlur898"
         stdDeviation="0.098224626" />
    </filter>
    <linearGradient
       gradientUnits="userSpaceOnUse"
       gradientTransform="matrix(0.26458,0,0,0.26458,-0.79374,-39.158)"
       y2="185"
       y1="185"
       x2="65"
       x1="5"
       id="linearGradient1401-2">
      <stop
         id="stop881"
         offset="0"
         stop-color="#3492cb" />
      <stop
         id="stop883"
         offset=".083713"
         stop-color="#6ec8fa" />
      <stop
         id="stop885"
         offset=".91237"
         stop-color="#6ec8fa" />
      <stop
         id="stop887"
         offset="1"
         stop-color="#3492cb" />
    </linearGradient>
    <linearGradient
       gradientUnits="userSpaceOnUse"
       gradientTransform="matrix(0.18168,0,0,0.40956,9.2005,-451.88)"
       y2="1140.2"
       y1="1138.4"
       x2="-9.6169996"
       x1="-9.6169996"
       id="linearGradient1438-61">
      <stop
         id="stop890"
         offset="0"
         stop-opacity="0"
         stop-color="#1482be" />
      <stop
         id="stop892"
         offset="1"
         stop-color="#1482be" />
    </linearGradient>
    <filter
       id="filter2076-6"
       x="-0.048000001"
       y="-0.048000001"
       width="1.096"
       height="1.096"
       color-interpolation-filters="sRGB">
      <feGaussianBlur
         stdDeviation="1.1"
         id="feGaussianBlur1" />
    </filter>
  </defs>
  <rect
     transform="matrix(1.0000071,0,0,1.0000071,-2.2597e-4,-2.2597e-4)"
     x="4.5"
     y="4.5"
     width="55"
     height="55"
     rx="13.002"
     ry="13.002"
     filter="url(#filter2076-6)"
     opacity="0.3"
     id="rect1" />
  <path
     d="m 17.501599,4.4997681 c -7.203166,0 -13.0018309,5.7986649 -13.0018309,13.0018309 v 28.995972 c 0,7.203166 5.7986649,13.001831 13.0018309,13.001831 h 28.995972 c 7.203166,0 13.001831,-5.798665 13.001831,-13.001831 V 17.501599 c 0,-7.203166 -5.798665,-13.0018309 -13.001831,-13.0018309 z"
     fill="#f5aa1e"
     stroke-linecap="round"
     stroke-width="0.299998"
     style="paint-order:stroke fill markers"
     id="path1" />
  <path
     d="m 18.337647,10.499886 c -4.342007,0 -7.837761,3.496056 -7.837761,7.837761 v 27.324254 c 0,4.342007 3.496056,7.837761 7.837761,7.837761 h 27.324254 c 4.342007,0 7.837761,-3.496056 7.837761,-7.837761 V 18.337647 c 0,-4.342007 -3.496056,-7.837761 -7.837761,-7.837761 z"
     fill="#fafafa"
     stroke-linecap="round"
     stroke-width="0.299998"
     style="paint-order:stroke fill markers"
     id="path2" />
  <path
     d="m 16.114485,15.978797 c 0.0189,0.153528 0.03742,0.306828 0.05851,0.459713 h 31.657946 c 0.01965,-0.165168 0.03666,-0.296661 0.05431,-0.459713 z"
     fill="#f08705"
     opacity="0.6"
     stroke-width="2.55947"
     style="paint-order:normal"
     id="path3" />
  <path
     d="m 6.6227706,13.568167 c -1.1785933,0 -2.1269332,0.948378 -2.1269332,2.126933 v 6.908357 c 0,0.08572 0.015496,0.166983 0.025323,0.25002 -0.020788,2.042989 -0.019654,4.371866 -0.019654,7.427674 v 0.847652 h -0.00195 v 15.368995 c 0,0.137767 0.015496,0.271527 0.019654,0.408197 0.00756,0.19344 0.011717,0.387712 0.029481,0.578128 0.4777039,6.408693 5.5533686,11.485455 11.9609286,11.966976 0.321946,0.03061 0.647975,0.04838 0.980466,0.04883 0.0045,1.1e-5 0.0091,0 0.01361,0 h 28.994083 0.002 c 0.337745,0 0.669254,-0.01776 0.996076,-0.04883 6.391307,-0.482088 11.456352,-5.536739 11.952991,-11.923888 0.03288,-0.338501 0.05273,-0.681047 0.05273,-1.029299 V 30.835619 c 6e-5,-0.0068 0.002,-0.01285 0.002,-0.01965 v -6.908357 c 0,-1.178593 -0.948378,-2.126933 -2.126933,-2.126933 H 34.67323 c -1.026237,0 -1.829667,-0.06928 -2.496087,-0.24609 -0.666419,-0.176809 -1.194619,-0.462132 -1.66601,-0.890625 -0.471392,-0.428498 -0.886884,-1.000843 -1.328115,-1.755856 -0.441231,-0.755051 -0.908465,-1.691221 -1.484363,-2.847666 -0.277763,-0.683389 -0.665663,-1.180256 -1.089848,-1.539053 -0.424185,-0.358798 -0.88386,-0.580094 -1.310539,-0.716802 -0.853359,-0.273416 -1.568346,-0.205081 -1.568346,-0.205081 h -9.650458 c -0.03961,-0.0022 -0.07695,-0.01172 -0.117205,-0.01172 H 10.50328 Z"
     fill="#ffc841"
     stroke-width="1.00001"
     id="path4" />
  <path
     d="m 26.225,28.816197 a 1.575,1.575 0 0 0 -1.575,1.575 1.575,1.575 0 0 0 1.575,1.575 1.575,1.575 0 0 0 1.575,-1.575 1.575,1.575 0 0 0 -1.575,-1.575 z m 8.925,0 -3.045,2.94 4.62,4.62 -4.725,5.46 3.15,2.73 7.35,-8.4 z m -11.025,7.35 a 2.625,2.625 0 0 0 -2.625,2.625 2.625,2.625 0 0 0 2.625,2.625 2.625,2.625 0 0 0 2.625,-2.625 2.625,2.625 0 0 0 -2.625,-2.625 z m 4.725,7.35 a 3.15,3.15 0 0 0 -3.15,3.15 3.15,3.15 0 0 0 3.15,3.15 3.15,3.15 0 0 0 3.15,-3.15 3.15,3.15 0 0 0 -3.15,-3.15 z"
     opacity="0.15"
     id="path6"
     style="fill:#ffffff;fill-opacity:1;stroke-width:1.05;opacity:1" />
</svg>
