<?xml version="1.0" encoding="UTF-8" standalone="no"?>
<svg
   width="64"
   height="64"
   version="1.1"
   viewBox="0 0 64 64"
   id="svg7"
   sodipodi:docname="folder-sign.svg"
   inkscape:version="1.4 (e7c3feb100, 2024-10-09)"
   xmlns:inkscape="http://www.inkscape.org/namespaces/inkscape"
   xmlns:sodipodi="http://sodipodi.sourceforge.net/DTD/sodipodi-0.dtd"
   xmlns="http://www.w3.org/2000/svg"
   xmlns:svg="http://www.w3.org/2000/svg">
  <sodipodi:namedview
     id="namedview7"
     pagecolor="#505050"
     bordercolor="#eeeeee"
     borderopacity="1"
     inkscape:showpageshadow="0"
     inkscape:pageopacity="0"
     inkscape:pagecheckerboard="0"
     inkscape:deskcolor="#505050"
     inkscape:zoom="4.1321553"
     inkscape:cx="20.328375"
     inkscape:cy="36.784678"
     inkscape:window-width="1920"
     inkscape:window-height="1051"
     inkscape:window-x="0"
     inkscape:window-y="0"
     inkscape:window-maximized="1"
     inkscape:current-layer="svg7" />
  <defs
     id="defs2">
    <style
       id="current-color-scheme"
       type="text/css">.ColorScheme-Text {
      color:#333333;
    }
    .ColorScheme-Highlight {
      color:#60c0f0;
    }</style>
    <linearGradient
       id="linearGradient946"
       x1="445.28"
       x2="445.28"
       y1="181.8"
       y2="200.07"
       gradientTransform="matrix(1.4724,0,0,1.4432,-550.55862,-239.75)"
       gradientUnits="userSpaceOnUse">
      <stop
         stop-color="#ffffff"
         stop-opacity="0"
         offset="0"
         id="stop1" />
      <stop
         stop-color="#ffffff"
         offset="1"
         id="stop2" />
    </linearGradient>
    <filter
       color-interpolation-filters="sRGB"
       height="1.0264005"
       width="1.0219998"
       y="-0.013200229"
       x="-0.010999908"
       id="filter1733">
      <feGaussianBlur
         id="feGaussianBlur869"
         stdDeviation="0.072761339" />
    </filter>
    <linearGradient
       gradientUnits="userSpaceOnUse"
       gradientTransform="matrix(0.26458,0,0,0.26458,-0.79373,-39.158)"
       y2="166"
       y1="155"
       x2="25"
       x1="25"
       id="linearGradient1387">
      <stop
         id="stop850"
         offset="0"
         stop-color="#3296d7" />
      <stop
         id="stop852"
         offset="1"
         stop-color="#0a7db4" />
    </linearGradient>
    <filter
       color-interpolation-filters="sRGB"
       height="1.2969998"
       width="1.0296998"
       y="-0.14849988"
       x="-0.014849913"
       id="filter935">
      <feGaussianBlur
         id="feGaussianBlur872"
         stdDeviation="0.098224626" />
    </filter>
    <linearGradient
       gradientUnits="userSpaceOnUse"
       gradientTransform="matrix(0.26458,0,0,0.26458,-0.79374,-39.158)"
       y2="185"
       y1="185"
       x2="65"
       x1="5"
       id="linearGradient1401">
      <stop
         id="stop855"
         offset="0"
         stop-color="#3492cb" />
      <stop
         id="stop857"
         offset=".083713"
         stop-color="#6ec8fa" />
      <stop
         id="stop859"
         offset=".91237"
         stop-color="#6ec8fa" />
      <stop
         id="stop861"
         offset="1"
         stop-color="#3492cb" />
    </linearGradient>
    <linearGradient
       gradientUnits="userSpaceOnUse"
       gradientTransform="matrix(0.18168,0,0,0.40956,9.2005,-451.88)"
       y2="1140.2"
       y1="1138.4"
       x2="-9.6169996"
       x1="-9.6169996"
       id="linearGradient1438">
      <stop
         id="stop864"
         offset="0"
         stop-opacity="0"
         stop-color="#1482be" />
      <stop
         id="stop866"
         offset="1"
         stop-color="#1482be" />
    </linearGradient>
    <filter
       id="filter2076-6"
       x="-0.048000001"
       y="-0.048000001"
       width="1.096"
       height="1.096"
       color-interpolation-filters="sRGB">
      <feGaussianBlur
         stdDeviation="1.1"
         id="feGaussianBlur1" />
    </filter>
  </defs>
  <g
     id="g5"
     transform="matrix(3.779602,0,0,3.779602,-2.26e-4,-2.259e-4)">
    <rect
       transform="scale(0.26458)"
       x="4.5"
       y="4.5"
       width="55"
       height="55"
       rx="13.002"
       ry="13.002"
       filter="url(#filter2076-6)"
       opacity="0.3"
       id="rect1" />
    <path
       d="m 4.6306,1.1906 c -1.9058,0 -3.44,1.5342 -3.44,3.44 v 7.6717 c 0,1.9058 1.5342,3.44 3.44,3.44 h 7.6717 c 1.9058,0 3.44,-1.5342 3.44,-3.44 V 4.6306 c 0,-1.9058 -1.5342,-3.44 -3.44,-3.44 z"
       fill="#f5aa1e"
       stroke-linecap="round"
       stroke-width="0.079373"
       style="paint-order:stroke fill markers"
       id="path1" />
    <path
       d="m 4.8518,2.7781 c -1.1488,0 -2.0737,0.92498 -2.0737,2.0737 v 7.2294 c 0,1.1488 0.92498,2.0737 2.0737,2.0737 h 7.2294 c 1.1488,0 2.0737,-0.92498 2.0737,-2.0737 V 4.8518 c 0,-1.1488 -0.92498,-2.0737 -2.0737,-2.0737 z"
       fill="#fafafa"
       stroke-linecap="round"
       stroke-width="0.079373"
       style="paint-order:stroke fill markers"
       id="path2" />
    <path
       d="m 4.2636,4.2277 c 0.005,0.04062 0.0099,0.08118 0.01548,0.12163 h 8.376 c 0.0052,-0.0437 0.0097,-0.07849 0.01437,-0.12163 z"
       fill="#f08705"
       opacity="0.6"
       stroke-width="0.67718"
       style="paint-order:normal"
       id="path3" />
    <path
       d="m 1.7523,3.5899 c -0.31183,0 -0.56274,0.25092 -0.56274,0.56274 v 1.8278 c 0,0.02268 0.0041,0.04418 0.0067,0.06615 -0.0055,0.54053 -0.0052,1.1567 -0.0052,1.9652 v 0.22427 h -5.16e-4 v 4.0663 c 0,0.03645 0.0041,0.07184 0.0052,0.108 0.002,0.05118 0.0031,0.10258 0.0078,0.15296 0.12639,1.6956 1.4693,3.0388 3.1646,3.1662 0.08518,0.0081 0.17144,0.0128 0.25941,0.01292 0.0012,3e-6 0.0024,0 0.0036,0 h 7.6712 5.17e-4 c 0.08936,0 0.17707,-0.0047 0.26354,-0.01292 1.691,-0.12755 3.0311,-1.4649 3.1625,-3.1548 0.0087,-0.08956 0.01395,-0.18019 0.01395,-0.27233 v -4.1439 c 1.6e-5,-0.0018 5.17e-4,-0.0034 5.17e-4,-0.0052 v -1.8278 c 0,-0.31183 -0.25092,-0.56274 -0.56274,-0.56274 h -6.0068 c -0.27152,0 -0.48409,-0.01833 -0.66041,-0.06511 C 8.337108,5.65086 8.197358,5.57537 8.072638,5.462 7.947918,5.34863 7.837988,5.1972 7.721248,4.99744 7.604508,4.79767 7.480888,4.54998 7.328518,4.24401 7.255028,4.0632 7.152398,3.93174 7.040168,3.83681 6.927938,3.74188 6.806318,3.68333 6.693428,3.64716 6.467648,3.57482 6.278478,3.5929 6.278478,3.5929 h -2.5533 C 3.714698,3.592325 3.704818,3.5898 3.694168,3.5898 h -0.91517 z"
       fill="#ffc841"
       stroke-width="0.26458"
       id="path4" />
  </g>
  <path
     d="m 38.51839,28.816255 c -0.09179,-9.69e-4 -0.185931,0.02429 -0.274705,0.08087 -0.04741,0.03286 -0.253341,0.279711 -0.4557,0.549406 l -0.368413,0.495494 -0.133496,-0.09114 c -0.186835,-0.123211 -0.367121,-0.15046 -0.535282,-0.07445 -0.116227,0.05234 -0.388614,0.403987 -2.175764,2.780419 -1.127878,1.49816 -2.045046,2.735596 -2.042284,2.754722 0.0024,0.01596 0.460224,0.37357 1.014107,0.789467 l 1.012799,0.761206 1.332402,-1.775315 c 0.733337,-0.976647 1.343517,-1.767034 1.358104,-1.756058 0.04741,0.03549 0.133811,0.802217 0.116817,1.048745 -0.0065,0.134483 -0.0571,0.376147 -0.109112,0.536571 -0.09272,0.286665 -0.102819,0.303463 -1.754745,2.510823 -0.913614,1.220348 -1.674299,2.256802 -1.68803,2.297748 -0.03925,0.112965 0.0048,0.324265 0.08986,0.445432 0.142897,0.204281 0.496351,0.268841 0.69699,0.123231 0.138633,-0.101154 3.410638,-4.505653 3.514677,-4.735421 0.303918,-0.655162 0.366854,-1.494085 0.174574,-2.319569 -0.07592,-0.327636 -0.175301,-0.642575 -0.272127,-0.866494 -0.02819,-0.06113 0.01874,-0.139347 0.324765,-0.550689 0.289186,-0.392656 0.35549,-0.502919 0.360707,-0.6046 0.01147,-0.2164 -0.05468,-0.336858 -0.266999,-0.501908 l -0.197682,-0.154042 0.392797,-0.52758 c 0.321995,-0.436343 0.39161,-0.550438 0.39665,-0.652099 0.01462,-0.324107 -0.235548,-0.561868 -0.51089,-0.564812 z m -6.617018,7.316962 c -0.0097,0.0014 -1.211402,1.598257 -2.672567,3.544189 -2.350056,3.133551 -2.684327,3.597359 -2.90108,3.996036 -0.430621,0.793607 -0.899229,2.003572 -1.210489,3.109035 -0.20177,0.709022 -0.211899,0.64483 0.0693,0.494206 0.867413,-0.468488 2.000478,-1.228958 2.659749,-1.788131 0.644636,-0.547395 0.754369,-0.686545 3.485107,-4.323337 l 2.626359,-3.501797 -1.02048,-0.766333 C 32.375997,36.475642 31.911,36.131936 31.90134,36.133316 Z m 0.295245,8.110242 c -0.128981,-0.0073 -0.261774,-0.0033 -0.347874,0.01412 v 0.0013 c -0.408135,0.0861 -0.862616,0.439728 -1.082131,0.847238 -0.05912,0.105814 -0.153308,0.345559 -0.211809,0.526297 -0.05517,0.184025 -0.106446,0.337509 -0.110388,0.341453 -0.03158,0.03943 -0.812078,0.226639 -1.270824,0.305507 -1.07852,0.188626 -1.372965,0.25893 -1.478773,0.356858 -0.20769,0.191911 -0.04668,0.38519 0.247744,0.299092 0.07819,-0.02366 0.411576,-0.08984 0.732941,-0.145051 0.322043,-0.05521 0.811812,-0.157065 1.08982,-0.219502 0.27867,-0.06638 0.514468,-0.110671 0.526301,-0.09884 0.01187,0.01183 -0.03481,0.235164 -0.109111,0.498056 l -0.133496,0.471104 -0.295244,0.129646 c -0.161022,0.07033 -0.391876,0.191892 -0.513466,0.274703 -0.368704,0.243176 -0.439943,0.548664 -0.180988,0.744512 0.141298,0.105815 0.533432,0.101964 0.77658,-0.0039 0.215574,-0.09793 0.336849,-0.234887 0.505762,-0.591764 0.09004,-0.184682 0.161102,-0.28213 0.215654,-0.293961 0.04337,-0.01183 0.432754,-0.0903 0.863932,-0.180995 0.431801,-0.0861 0.823581,-0.169165 0.874183,-0.180995 0.08216,-0.01972 0.09041,-0.01203 0.06671,0.06289 -0.01575,0.04732 -0.08681,0.185208 -0.161732,0.306796 -0.07423,0.121588 -0.133504,0.266271 -0.133504,0.324764 0,0.121588 0.10269,0.243353 0.184849,0.211807 0.03158,-0.01183 0.07398,-0.02311 0.0937,-0.02311 0.01971,0 0.106454,-0.06299 0.192554,-0.1412 0.161022,-0.145248 0.549409,-0.855913 0.549409,-1.005104 0,-0.07427 0.05888,-0.09315 0.0937,-0.03466 0.01187,0.01972 0.101042,0.0553 0.198967,0.07831 0.137364,0.03549 0.177143,0.06207 0.177143,0.124512 0,0.121588 0.200599,0.298916 0.377395,0.333749 0.137364,0.02366 0.313942,-0.004 0.501908,-0.08215 0.06639,-0.02761 0.07051,-0.01972 0.04749,0.08215 -0.01575,0.0631 -0.130006,0.263314 -0.251588,0.447995 -0.258954,0.384481 -0.572509,0.996167 -0.654667,1.266947 -0.06639,0.231345 -0.03942,0.404349 0.08216,0.486502 0.109758,0.07033 0.289825,0.03834 0.383808,-0.06419 0.08215,-0.09004 0.530153,-1.034812 0.69443,-1.465956 0.117649,-0.302327 0.172176,-0.384888 0.439014,-0.667485 0.219514,-0.231345 0.291213,-0.286441 0.243891,-0.196401 -0.07818,0.168909 -0.07455,0.297904 0.01155,0.376115 0.184024,0.168908 0.450902,0.0041 0.682928,-0.419755 0.137365,-0.251062 0.239643,-0.324922 0.749644,-0.564812 l 0.265715,-0.121949 -0.02698,0.145051 c -0.01575,0.07821 -0.106268,0.302294 -0.200251,0.494206 -0.184687,0.388424 -0.218877,0.635582 -0.109119,0.847237 0.07423,0.145248 0.152646,0.149921 0.513466,0.02439 0.502127,-0.168909 1.157053,-0.558286 1.327282,-0.781778 0.23134,-0.314157 0.302384,-0.615695 0.161733,-0.717566 -0.145248,-0.105814 -0.227366,-0.06282 -0.412045,0.207955 -0.247122,0.368708 -0.552777,0.655754 -0.847238,0.801034 -0.137364,0.07033 -0.259027,0.117093 -0.270851,0.105263 -0.01575,-0.01577 0.297707,-0.859134 0.465958,-1.255444 0.03546,-0.08215 0.06421,-0.184486 0.06421,-0.227206 0,-0.109758 -0.1378,-0.234908 -0.255441,-0.234908 -0.05525,0 -0.314847,0.105342 -0.573801,0.23876 -0.537617,0.266836 -0.501917,0.290319 -0.36456,-0.211806 0.08216,-0.309557 0.05517,-0.392335 -0.133496,-0.412052 -0.180737,-0.01972 -0.250934,0.03996 -0.415905,0.333749 -0.105808,0.199798 -0.246532,0.365093 -0.517311,0.616155 -0.35688,0.329273 -0.372888,0.340899 -0.455701,0.282406 -0.125532,-0.09004 -0.196294,-0.07802 -0.501908,0.07445 -0.298378,0.149192 -0.396836,0.169001 -0.471104,0.07831 -0.06308,-0.07427 0.03602,-0.113688 0.581499,-0.219502 0.529734,-0.101871 0.595617,-0.13029 0.595617,-0.240047 0,-0.176796 -0.145401,-0.344568 -0.404355,-0.458262 -0.447575,-0.199799 -0.497321,-0.212345 -0.693179,-0.161738 -0.211631,0.05521 -0.525937,0.356929 -0.568656,0.545555 -0.04337,0.196512 -0.177143,0.13727 -0.177143,-0.07831 0,-0.09004 -0.110202,-0.317423 -0.173299,-0.356857 -0.133414,-0.09004 -0.348495,0.106432 -0.513458,0.467252 l -0.129651,0.278555 -0.290107,0.06289 c -0.376595,0.08216 -1.47089,0.301637 -1.616138,0.329898 -0.09398,0.01577 -0.109571,0.0078 -0.08986,-0.0475 0.01575,-0.03943 0.06243,-0.210866 0.109111,-0.387661 0.12159,-0.486352 0.157613,-0.549867 0.333755,-0.612304 0.211623,-0.07427 0.926367,-0.380971 1.110392,-0.474955 0.08609,-0.04338 0.26204,-0.176315 0.391513,-0.29396 0.396311,-0.368707 0.458471,-0.710402 0.175859,-0.961465 -0.07819,-0.06638 -0.180544,-0.136888 -0.227204,-0.156605 -0.07229,-0.02761 -0.197061,-0.0466 -0.32605,-0.05391 z m -0.395366,0.458268 c 0.05452,-0.0031 0.118925,-10e-4 0.200251,0.0039 0.20769,0.01183 0.290665,0.03127 0.349158,0.09371 0.07818,0.07821 0.07802,0.08187 0.0081,0.231057 -0.04733,0.09398 -0.156596,0.204451 -0.29396,0.299093 -0.239231,0.164965 -0.989133,0.466601 -1.012791,0.412051 -0.03158,-0.09004 0.208854,-0.628149 0.361984,-0.801034 0.152807,-0.173509 0.224232,-0.229578 0.387668,-0.238759 z m -2.014088,3.284845 c 0.02989,0.0019 0.03045,0.02806 0.0057,0.07702 -0.05129,0.09793 -0.185026,0.168804 -0.259294,0.1412 -0.0861,-0.03549 -0.06292,-0.08177 0.07447,-0.152754 0.09036,-0.04502 0.149802,-0.06744 0.179711,-0.06546 z"
     fill="#000000"
     opacity="0.15"
     id="path6"
     style="opacity:1;fill:#ffffff;fill-opacity:1;stroke-width:0.657232" />
</svg>
