<?xml version="1.0" encoding="UTF-8" standalone="no"?>
<svg
   width="64"
   height="64"
   viewBox="0 0 16.933 16.933"
   version="1.1"
   id="svg18"
   sodipodi:docname="folder-games.svg"
   inkscape:version="1.4 (e7c3feb100, 2024-10-09)"
   xmlns:inkscape="http://www.inkscape.org/namespaces/inkscape"
   xmlns:sodipodi="http://sodipodi.sourceforge.net/DTD/sodipodi-0.dtd"
   xmlns="http://www.w3.org/2000/svg"
   xmlns:svg="http://www.w3.org/2000/svg">
  <sodipodi:namedview
     id="namedview18"
     pagecolor="#505050"
     bordercolor="#eeeeee"
     borderopacity="1"
     inkscape:showpageshadow="0"
     inkscape:pageopacity="0"
     inkscape:pagecheckerboard="0"
     inkscape:deskcolor="#505050"
     inkscape:zoom="4.1321553"
     inkscape:cx="33.154611"
     inkscape:cy="45.980847"
     inkscape:window-width="1920"
     inkscape:window-height="1051"
     inkscape:window-x="0"
     inkscape:window-y="0"
     inkscape:window-maximized="1"
     inkscape:current-layer="svg18" />
  <defs
     id="defs13">
    <linearGradient
       id="b"
       x1="445.28"
       x2="445.28"
       y1="179.28"
       y2="200.07"
       gradientTransform="matrix(0.38956,0,0,0.38184,-144.10474,-63.44)"
       gradientUnits="userSpaceOnUse">
      <stop
         stop-color="#60c0f0"
         offset="0"
         id="stop1" />
      <stop
         stop-color="#83d4fb"
         offset="1"
         id="stop2" />
    </linearGradient>
    <linearGradient
       id="c"
       x1="8.467"
       x2="8.467"
       y1="293.3"
       y2="292.77"
       gradientTransform="translate(21.415265,-280.07)"
       gradientUnits="userSpaceOnUse">
      <stop
         stop-color="#008ea2"
         stop-opacity=".25"
         offset="0"
         id="stop3" />
      <stop
         stop-color="#fff"
         stop-opacity=".15"
         offset="1"
         id="stop4" />
    </linearGradient>
    <linearGradient
       id="d"
       x1="8.467"
       x2="8.467"
       y1="294.62"
       y2="293.56"
       gradientTransform="matrix(0.99998,0,0,0.99998,21.415265,-280.06)"
       gradientUnits="userSpaceOnUse">
      <stop
         stop-color="#008ea2"
         stop-opacity=".251"
         offset="0"
         id="stop5" />
      <stop
         stop-color="#008ea2"
         stop-opacity=".15"
         offset=".757"
         id="stop6" />
      <stop
         stop-color="#fff"
         stop-opacity=".15"
         offset="1"
         id="stop7" />
    </linearGradient>
    <linearGradient
       id="a"
       x1="6.879"
       x2="6.879"
       y1="285.36"
       y2="283.77"
       gradientTransform="matrix(0.99998,0,0,0.99998,21.415265,-280.06)"
       gradientUnits="userSpaceOnUse">
      <stop
         offset="0"
         id="stop8" />
      <stop
         stop-opacity="0"
         offset="1"
         id="stop9" />
    </linearGradient>
    <linearGradient
       id="e"
       x1="1.058"
       x2="15.875"
       y1="289.59"
       y2="289.59"
       gradientTransform="translate(21.415265,-280.07)"
       gradientUnits="userSpaceOnUse">
      <stop
         stop-color="#46a2d7"
         stop-opacity=".5"
         offset="0"
         id="stop10" />
      <stop
         stop-color="#46a2d7"
         stop-opacity="0"
         offset=".108"
         id="stop11" />
      <stop
         stop-color="#46a2d7"
         stop-opacity=".096"
         offset=".894"
         id="stop12" />
      <stop
         stop-color="#46a2d7"
         stop-opacity=".5"
         offset="1"
         id="stop13" />
    </linearGradient>
    <filter
       color-interpolation-filters="sRGB"
       height="1.0264005"
       width="1.0219998"
       y="-0.013200229"
       x="-0.010999908"
       id="filter1733">
      <feGaussianBlur
         id="feGaussianBlur869"
         stdDeviation="0.072761339" />
    </filter>
    <linearGradient
       gradientUnits="userSpaceOnUse"
       gradientTransform="matrix(0.26458,0,0,0.26458,-0.79373,-39.158)"
       y2="166"
       y1="155"
       x2="25"
       x1="25"
       id="linearGradient1387">
      <stop
         id="stop850"
         offset="0"
         stop-color="#3296d7" />
      <stop
         id="stop852"
         offset="1"
         stop-color="#0a7db4" />
    </linearGradient>
    <filter
       color-interpolation-filters="sRGB"
       height="1.2969998"
       width="1.0296998"
       y="-0.14849988"
       x="-0.014849913"
       id="filter935">
      <feGaussianBlur
         id="feGaussianBlur872"
         stdDeviation="0.098224626" />
    </filter>
    <linearGradient
       gradientUnits="userSpaceOnUse"
       gradientTransform="matrix(0.26458,0,0,0.26458,-0.79374,-39.158)"
       y2="185"
       y1="185"
       x2="65"
       x1="5"
       id="linearGradient1401">
      <stop
         id="stop855"
         offset="0"
         stop-color="#3492cb" />
      <stop
         id="stop857"
         offset=".083713"
         stop-color="#6ec8fa" />
      <stop
         id="stop859"
         offset=".91237"
         stop-color="#6ec8fa" />
      <stop
         id="stop861"
         offset="1"
         stop-color="#3492cb" />
    </linearGradient>
    <linearGradient
       gradientUnits="userSpaceOnUse"
       gradientTransform="matrix(0.18168,0,0,0.40956,9.2005,-451.88)"
       y2="1140.2"
       y1="1138.4"
       x2="-9.6169996"
       x1="-9.6169996"
       id="linearGradient1438">
      <stop
         id="stop864"
         offset="0"
         stop-opacity="0"
         stop-color="#1482be" />
      <stop
         id="stop866"
         offset="1"
         stop-color="#1482be" />
    </linearGradient>
    <filter
       id="filter2076-6"
       x="-0.048000001"
       y="-0.048000001"
       width="1.096"
       height="1.096"
       color-interpolation-filters="sRGB">
      <feGaussianBlur
         stdDeviation="1.1"
         id="feGaussianBlur1" />
    </filter>
  </defs>
  <g
     id="g5"
     transform="translate(-5.97e-5,-5.967e-5)">
    <rect
       transform="scale(0.26458)"
       x="4.5"
       y="4.5"
       width="55"
       height="55"
       rx="13.002"
       ry="13.002"
       filter="url(#filter2076-6)"
       opacity="0.3"
       id="rect1" />
    <path
       d="m 4.6306,1.1906 c -1.9058,0 -3.44,1.5342 -3.44,3.44 v 7.6717 c 0,1.9058 1.5342,3.44 3.44,3.44 h 7.6717 c 1.9058,0 3.44,-1.5342 3.44,-3.44 V 4.6306 c 0,-1.9058 -1.5342,-3.44 -3.44,-3.44 z"
       fill="#f5aa1e"
       stroke-linecap="round"
       stroke-width="0.079373"
       style="paint-order:stroke fill markers"
       id="path1" />
    <path
       d="m 4.8518,2.7781 c -1.1488,0 -2.0737,0.92498 -2.0737,2.0737 v 7.2294 c 0,1.1488 0.92498,2.0737 2.0737,2.0737 h 7.2294 c 1.1488,0 2.0737,-0.92498 2.0737,-2.0737 V 4.8518 c 0,-1.1488 -0.92498,-2.0737 -2.0737,-2.0737 z"
       fill="#fafafa"
       stroke-linecap="round"
       stroke-width="0.079373"
       style="paint-order:stroke fill markers"
       id="path2" />
    <path
       d="m 4.2636,4.2277 c 0.005,0.04062 0.0099,0.08118 0.01548,0.12163 h 8.376 c 0.0052,-0.0437 0.0097,-0.07849 0.01437,-0.12163 z"
       fill="#f08705"
       opacity="0.6"
       stroke-width="0.67718"
       style="paint-order:normal"
       id="path3" />
    <path
       d="m 1.7523,3.5899 c -0.31183,0 -0.56274,0.25092 -0.56274,0.56274 v 1.8278 c 0,0.02268 0.0041,0.04418 0.0067,0.06615 -0.0055,0.54053 -0.0052,1.1567 -0.0052,1.9652 v 0.22427 h -5.16e-4 v 4.0663 c 0,0.03645 0.0041,0.07184 0.0052,0.108 0.002,0.05118 0.0031,0.10258 0.0078,0.15296 0.12639,1.6956 1.4693,3.0388 3.1646,3.1662 0.08518,0.0081 0.17144,0.0128 0.25941,0.01292 0.0012,3e-6 0.0024,0 0.0036,0 h 7.6712 5.17e-4 c 0.08936,0 0.17707,-0.0047 0.26354,-0.01292 1.691,-0.12755 3.0311,-1.4649 3.1625,-3.1548 0.0087,-0.08956 0.01395,-0.18019 0.01395,-0.27233 v -4.1439 c 1.6e-5,-0.0018 5.17e-4,-0.0034 5.17e-4,-0.0052 v -1.8278 c 0,-0.31183 -0.25092,-0.56274 -0.56274,-0.56274 h -6.0068 c -0.27152,0 -0.48409,-0.01833 -0.66041,-0.06511 C 8.337108,5.65086 8.197358,5.57537 8.072638,5.462 7.947918,5.34863 7.837988,5.1972 7.721248,4.99744 7.604508,4.79767 7.480888,4.54998 7.328518,4.24401 7.255028,4.0632 7.152398,3.93174 7.040168,3.83681 6.927938,3.74188 6.806318,3.68333 6.693428,3.64716 6.467648,3.57482 6.278478,3.5929 6.278478,3.5929 h -2.5533 C 3.714698,3.592325 3.704818,3.5898 3.694168,3.5898 h -0.91517 z"
       fill="#ffc841"
       stroke-width="0.26458"
       id="path4" />
  </g>
  <path
     class="cls-1"
     d="M 7.7407718,10.518214 7.5282267,10.730759 V 10.309605 Z M 10.9811,8.8621332 h 0.01574 a 0.14661676,0.14661676 0 0 1 0.112177,0.053136 c 0.662235,0.6858516 1.013525,2.1746518 0.936773,3.1724328 a 1.9965463,1.9965463 0 0 1 -0.165313,0.700612 c -0.101353,0.209593 -0.247969,0.34637 -0.44477,0.382778 -0.249938,0.04625 -0.561867,-0.08561 -0.937757,-0.467403 L 10.347401,12.554121 A 4.3532385,4.3532385 0 0 1 9.8317827,11.98143 H 7.1021525 a 4.2686141,4.2686141 0 0 1 -0.5166026,0.574659 c -0.051168,0.0492 -0.1013526,0.0984 -0.1495688,0.1476 -0.3749059,0.382778 -0.6888036,0.514635 -0.9377569,0.467403 -0.196801,-0.03444 -0.3444017,-0.174169 -0.4457543,-0.38081 A 1.9994983,1.9994983 0 0 1 4.8871571,12.088686 C 4.8104047,11.085985 5.1636625,9.5883289 5.835738,8.9073974 a 0.14464875,0.14464875 0 0 1 0.1043045,-0.04428 h 0.015744 c 0.4142662,-0.569739 1.344151,-0.575643 1.7584171,0 H 8.1766861 C 8.1402779,7.9893206 8.3833272,7.7708715 8.741505,7.7462714 a 1.8164734,1.8164734 0 0 1 0.4083621,0.037392 c 0.2715854,0.045264 0.572691,0.094464 0.7862201,-0.1161126 a 0.14464875,0.14464875 0 0 1 0.2066408,0 0.14563275,0.14563275 0 0 1 0,0.2066411 C 9.8229266,8.1930097 9.4411327,8.1300334 9.1026349,8.0739451 A 1.6265604,1.6265604 0 0 0 8.7582331,8.0395049 C 8.5653681,8.052297 8.4364635,8.2146578 8.4659836,8.8641012 h 0.7547319 c 0.4132821,-0.571707 1.3441505,-0.573675 1.7574325,0 z M 7.1670969,9.7831619 v 0.3896661 h 0.388682 c 0.4408343,0 0.4408343,0.666172 0,0.666172 h -0.388682 v 0.388682 c 0,0.440834 -0.6661715,0.440834 -0.6661715,0 V 10.839 h -0.388682 c -0.4408343,0 -0.4408343,-0.666172 0,-0.666172 h 0.388682 V 9.7831619 c 0,-0.4398502 0.6661715,-0.4398502 0.6661715,0 z M 10.20964,9.4446642 a 0.30700959,0.30700959 0 1 1 -0.4349296,0 0.30700959,0.30700959 0 0 1 0.4349296,0 z m 0,1.3402158 a 0.30700959,0.30700959 0 1 1 -0.4349296,0 0.30700959,0.30700959 0 0 1 0.4349296,0 z m 0.738004,-0.700612 a 0.30700959,0.30700959 0 1 1 -0.43493,0 0.30799359,0.30799359 0 0 1 0.433946,0 z m -1.4760072,0 a 0.30700959,0.30700959 0 1 1 -0.4349302,0 0.30700959,0.30700959 0 0 1 0.4349302,0 z M 6.8423752,9.6237531 7.0549203,9.8353142 H 6.6327821 L 6.8453272,9.6237531 Z m -0.8905246,0.8954449 0.2105771,0.211561 v -0.421154 l -0.2115611,0.211561 z m 0.8934766,0.892493 0.2115611,-0.212545 H 6.6337661 Z"
     fill-rule="evenodd"
     opacity="0.15"
     id="path6"
     style="opacity:1;fill:#ffffff;fill-opacity:1;stroke-width:0.984005" />
</svg>
