<?xml version="1.0" encoding="UTF-8" standalone="no"?>
<svg
   width="64"
   height="64"
   version="1.1"
   viewBox="0 0 64 64"
   id="svg7"
   sodipodi:docname="folder-design.svg"
   inkscape:version="1.4 (e7c3feb100, 2024-10-09)"
   xmlns:inkscape="http://www.inkscape.org/namespaces/inkscape"
   xmlns:sodipodi="http://sodipodi.sourceforge.net/DTD/sodipodi-0.dtd"
   xmlns="http://www.w3.org/2000/svg"
   xmlns:svg="http://www.w3.org/2000/svg">
  <sodipodi:namedview
     id="namedview7"
     pagecolor="#505050"
     bordercolor="#eeeeee"
     borderopacity="1"
     inkscape:showpageshadow="0"
     inkscape:pageopacity="0"
     inkscape:pagecheckerboard="0"
     inkscape:deskcolor="#505050"
     inkscape:zoom="4.1321553"
     inkscape:cx="23.958442"
     inkscape:cy="9.4381739"
     inkscape:window-width="1920"
     inkscape:window-height="1051"
     inkscape:window-x="0"
     inkscape:window-y="0"
     inkscape:window-maximized="1"
     inkscape:current-layer="svg7" />
  <defs
     id="defs2">
    <style
       id="current-color-scheme"
       type="text/css">.ColorScheme-Text {
      color:#333333;
    }
    .ColorScheme-Highlight {
      color:#60c0f0;
    }</style>
    <linearGradient
       id="linearGradient946"
       x1="445.28"
       x2="445.28"
       y1="181.8"
       y2="200.07"
       gradientTransform="matrix(1.4724,0,0,1.4432,-541.21636,-239.75)"
       gradientUnits="userSpaceOnUse">
      <stop
         stop-color="#ffffff"
         stop-opacity="0"
         offset="0"
         id="stop1" />
      <stop
         stop-color="#ffffff"
         offset="1"
         id="stop2" />
    </linearGradient>
    <filter
       color-interpolation-filters="sRGB"
       height="1.0264005"
       width="1.0219998"
       y="-0.013200229"
       x="-0.010999908"
       id="filter1733">
      <feGaussianBlur
         id="feGaussianBlur869"
         stdDeviation="0.072761339" />
    </filter>
    <linearGradient
       gradientUnits="userSpaceOnUse"
       gradientTransform="matrix(0.26458,0,0,0.26458,-0.79373,-39.158)"
       y2="166"
       y1="155"
       x2="25"
       x1="25"
       id="linearGradient1387">
      <stop
         id="stop850"
         offset="0"
         stop-color="#3296d7" />
      <stop
         id="stop852"
         offset="1"
         stop-color="#0a7db4" />
    </linearGradient>
    <filter
       color-interpolation-filters="sRGB"
       height="1.2969998"
       width="1.0296998"
       y="-0.14849988"
       x="-0.014849913"
       id="filter935">
      <feGaussianBlur
         id="feGaussianBlur872"
         stdDeviation="0.098224626" />
    </filter>
    <linearGradient
       gradientUnits="userSpaceOnUse"
       gradientTransform="matrix(0.26458,0,0,0.26458,-0.79374,-39.158)"
       y2="185"
       y1="185"
       x2="65"
       x1="5"
       id="linearGradient1401">
      <stop
         id="stop855"
         offset="0"
         stop-color="#3492cb" />
      <stop
         id="stop857"
         offset=".083713"
         stop-color="#6ec8fa" />
      <stop
         id="stop859"
         offset=".91237"
         stop-color="#6ec8fa" />
      <stop
         id="stop861"
         offset="1"
         stop-color="#3492cb" />
    </linearGradient>
    <linearGradient
       gradientUnits="userSpaceOnUse"
       gradientTransform="matrix(0.18168,0,0,0.40956,9.2005,-451.88)"
       y2="1140.2"
       y1="1138.4"
       x2="-9.6169996"
       x1="-9.6169996"
       id="linearGradient1438">
      <stop
         id="stop864"
         offset="0"
         stop-opacity="0"
         stop-color="#1482be" />
      <stop
         id="stop866"
         offset="1"
         stop-color="#1482be" />
    </linearGradient>
    <filter
       id="filter2076-6"
       x="-0.048000001"
       y="-0.048000001"
       width="1.096"
       height="1.096"
       color-interpolation-filters="sRGB">
      <feGaussianBlur
         stdDeviation="1.1"
         id="feGaussianBlur1" />
    </filter>
  </defs>
  <g
     id="g5"
     transform="matrix(3.779602,0,0,3.779602,-2.26e-4,-2.259e-4)">
    <rect
       transform="scale(0.26458)"
       x="4.5"
       y="4.5"
       width="55"
       height="55"
       rx="13.002"
       ry="13.002"
       filter="url(#filter2076-6)"
       opacity="0.3"
       id="rect1" />
    <path
       d="m 4.6306,1.1906 c -1.9058,0 -3.44,1.5342 -3.44,3.44 v 7.6717 c 0,1.9058 1.5342,3.44 3.44,3.44 h 7.6717 c 1.9058,0 3.44,-1.5342 3.44,-3.44 V 4.6306 c 0,-1.9058 -1.5342,-3.44 -3.44,-3.44 z"
       fill="#f5aa1e"
       stroke-linecap="round"
       stroke-width="0.079373"
       style="paint-order:stroke fill markers"
       id="path1" />
    <path
       d="m 4.8518,2.7781 c -1.1488,0 -2.0737,0.92498 -2.0737,2.0737 v 7.2294 c 0,1.1488 0.92498,2.0737 2.0737,2.0737 h 7.2294 c 1.1488,0 2.0737,-0.92498 2.0737,-2.0737 V 4.8518 c 0,-1.1488 -0.92498,-2.0737 -2.0737,-2.0737 z"
       fill="#fafafa"
       stroke-linecap="round"
       stroke-width="0.079373"
       style="paint-order:stroke fill markers"
       id="path2" />
    <path
       d="m 4.2636,4.2277 c 0.005,0.04062 0.0099,0.08118 0.01548,0.12163 h 8.376 c 0.0052,-0.0437 0.0097,-0.07849 0.01437,-0.12163 z"
       fill="#f08705"
       opacity="0.6"
       stroke-width="0.67718"
       style="paint-order:normal"
       id="path3" />
    <path
       d="m 1.7523,3.5899 c -0.31183,0 -0.56274,0.25092 -0.56274,0.56274 v 1.8278 c 0,0.02268 0.0041,0.04418 0.0067,0.06615 -0.0055,0.54053 -0.0052,1.1567 -0.0052,1.9652 v 0.22427 h -5.16e-4 v 4.0663 c 0,0.03645 0.0041,0.07184 0.0052,0.108 0.002,0.05118 0.0031,0.10258 0.0078,0.15296 0.12639,1.6956 1.4693,3.0388 3.1646,3.1662 0.08518,0.0081 0.17144,0.0128 0.25941,0.01292 0.0012,3e-6 0.0024,0 0.0036,0 h 7.6712 5.17e-4 c 0.08936,0 0.17707,-0.0047 0.26354,-0.01292 1.691,-0.12755 3.0311,-1.4649 3.1625,-3.1548 0.0087,-0.08956 0.01395,-0.18019 0.01395,-0.27233 v -4.1439 c 1.6e-5,-0.0018 5.17e-4,-0.0034 5.17e-4,-0.0052 v -1.8278 c 0,-0.31183 -0.25092,-0.56274 -0.56274,-0.56274 h -6.0068 c -0.27152,0 -0.48409,-0.01833 -0.66041,-0.06511 C 8.337108,5.65086 8.197358,5.57537 8.072638,5.462 7.947918,5.34863 7.837988,5.1972 7.721248,4.99744 7.604508,4.79767 7.480888,4.54998 7.328518,4.24401 7.255028,4.0632 7.152398,3.93174 7.040168,3.83681 6.927938,3.74188 6.806318,3.68333 6.693428,3.64716 6.467648,3.57482 6.278478,3.5929 6.278478,3.5929 h -2.5533 C 3.714698,3.592325 3.704818,3.5898 3.694168,3.5898 h -0.91517 z"
       fill="#ffc841"
       stroke-width="0.26458"
       id="path4" />
  </g>
  <path
     d="m 31.97473,28.816188 c -0.37072,0 -0.67424,0.299229 -0.67424,0.669956 v 0.612814 c -1.19463,0.306761 -2.05415,1.366285 -2.05415,2.639831 0,0.891475 0.42562,1.6848 1.0899,2.184111 0.0707,0.08357 0.11429,0.189259 0.11429,0.307121 0,0.03428 2e-5,0.06785 -0.004,0.09999 l -2.95264,6.2581 h -1.22132 c -0.1993,0 -0.36284,0.160684 -0.36284,0.359976 v 0.0015 c 0,0.199293 0.16354,0.359976 0.36284,0.359976 h 0.88137 l -2.27984,4.832501 c -0.14358,0.306439 -0.0722,0.660645 0.15284,0.889939 l -0.87853,1.784194 1.38845,-1.504149 c 0.36858,0.09643 0.76275,-0.07925 0.92994,-0.43283 l 2.62843,-5.569581 h 2.30983 v 0.47853 c 0,0.304297 0.2478,0.549959 0.55425,0.549959 h 0.03 c 0.30643,0 0.55568,-0.245662 0.55568,-0.549959 v -0.478539 h 2.36271 l 2.62696,5.569581 c 0.16501,0.355727 0.56206,0.529261 0.92848,0.43283 l 1.38845,1.504149 -0.87568,-1.784194 c 0.22287,-0.229294 0.29499,-0.581357 0.15141,-0.889939 l -2.27984,-4.832501 h 0.82711 c 0.20144,0 0.36284,-0.160683 0.36284,-0.359976 0,-0.199293 -0.1614,-0.359282 -0.36284,-0.361403 h -1.1671 l -2.95125,-6.2581 c -0.004,-0.03215 -0.004,-0.0657 -0.004,-0.09999 0,-0.115719 0.0429,-0.223545 0.11142,-0.307119 0.66431,-0.499305 1.09275,-1.292636 1.09275,-2.184112 0,-1.290953 -0.89996,-2.363517 -2.10842,-2.654094 v -0.598533 c 0,-0.370728 -0.29994,-0.669956 -0.67281,-0.669956 z m 0.64138,2.47125 c 0.56842,0.238779 0.9671,0.798297 0.9671,1.451344 0,0.870046 -0.707,1.575606 -1.5813,1.575606 -0.87861,0 -1.58132,-0.705574 -1.58132,-1.575606 0,-0.631851 0.37561,-1.173348 0.91708,-1.42421 0.0802,0.279378 0.3288,0.488538 0.63709,0.488538 0.31628,-1e-6 0.56996,-0.221805 0.64139,-0.51568 z m -0.62709,5.23249 h 0.0257 c 0.0857,0 0.16142,0.04 0.20856,0.09999 l 2.34414,4.968244 h -2.02269 v -0.581387 c 0,-0.30644 -0.24925,-0.552818 -0.55569,-0.552818 h -0.03 c -0.30643,0 -0.55424,0.248521 -0.55424,0.552818 v 0.581387 h -1.9699 l 2.34414,-4.968244 c 0.0493,-0.06214 0.12427,-0.09999 0.20999,-0.09999 z"
     fill="#000000"
     opacity="0.15"
     id="path6"
     style="opacity:1;fill:#ffffff;fill-opacity:1;stroke-width:0.731377" />
</svg>
