<?xml version="1.0" encoding="UTF-8" standalone="no"?>
<svg
   width="64"
   height="64"
   viewBox="0 0 16.933 16.933"
   version="1.1"
   id="svg18"
   sodipodi:docname="folder-vbox.svg"
   inkscape:version="1.4 (e7c3feb100, 2024-10-09)"
   xmlns:inkscape="http://www.inkscape.org/namespaces/inkscape"
   xmlns:sodipodi="http://sodipodi.sourceforge.net/DTD/sodipodi-0.dtd"
   xmlns="http://www.w3.org/2000/svg"
   xmlns:svg="http://www.w3.org/2000/svg">
  <sodipodi:namedview
     id="namedview18"
     pagecolor="#505050"
     bordercolor="#eeeeee"
     borderopacity="1"
     inkscape:showpageshadow="0"
     inkscape:pageopacity="0"
     inkscape:pagecheckerboard="0"
     inkscape:deskcolor="#505050"
     inkscape:zoom="5.84375"
     inkscape:cx="37.304813"
     inkscape:cy="31.315508"
     inkscape:window-width="1920"
     inkscape:window-height="1051"
     inkscape:window-x="0"
     inkscape:window-y="0"
     inkscape:window-maximized="1"
     inkscape:current-layer="svg18" />
  <defs
     id="defs13">
    <linearGradient
       id="b"
       x1="445.28"
       x2="445.28"
       y1="179.28"
       y2="200.07"
       gradientTransform="matrix(0.38956,0,0,0.38184,-145.6441,-63.44)"
       gradientUnits="userSpaceOnUse">
      <stop
         stop-color="#60c0f0"
         offset="0"
         id="stop1" />
      <stop
         stop-color="#83d4fb"
         offset="1"
         id="stop2" />
    </linearGradient>
    <linearGradient
       id="c"
       x1="8.467"
       x2="8.467"
       y1="293.3"
       y2="292.77"
       gradientTransform="translate(19.875901,-280.07)"
       gradientUnits="userSpaceOnUse">
      <stop
         stop-color="#008ea2"
         stop-opacity=".25"
         offset="0"
         id="stop3" />
      <stop
         stop-color="#fff"
         stop-opacity=".15"
         offset="1"
         id="stop4" />
    </linearGradient>
    <linearGradient
       id="d"
       x1="8.467"
       x2="8.467"
       y1="294.62"
       y2="293.56"
       gradientTransform="matrix(0.99998,0,0,0.99998,19.875901,-280.06)"
       gradientUnits="userSpaceOnUse">
      <stop
         stop-color="#008ea2"
         stop-opacity=".251"
         offset="0"
         id="stop5" />
      <stop
         stop-color="#008ea2"
         stop-opacity=".15"
         offset=".757"
         id="stop6" />
      <stop
         stop-color="#fff"
         stop-opacity=".15"
         offset="1"
         id="stop7" />
    </linearGradient>
    <linearGradient
       id="a"
       x1="6.879"
       x2="6.879"
       y1="285.36"
       y2="283.77"
       gradientTransform="matrix(0.99998,0,0,0.99998,19.875901,-280.06)"
       gradientUnits="userSpaceOnUse">
      <stop
         offset="0"
         id="stop8" />
      <stop
         stop-opacity="0"
         offset="1"
         id="stop9" />
    </linearGradient>
    <linearGradient
       id="e"
       x1="1.058"
       x2="15.875"
       y1="289.59"
       y2="289.59"
       gradientTransform="translate(19.875901,-280.07)"
       gradientUnits="userSpaceOnUse">
      <stop
         stop-color="#46a2d7"
         stop-opacity=".5"
         offset="0"
         id="stop10" />
      <stop
         stop-color="#46a2d7"
         stop-opacity="0"
         offset=".108"
         id="stop11" />
      <stop
         stop-color="#46a2d7"
         stop-opacity=".096"
         offset=".894"
         id="stop12" />
      <stop
         stop-color="#46a2d7"
         stop-opacity=".5"
         offset="1"
         id="stop13" />
    </linearGradient>
    <filter
       color-interpolation-filters="sRGB"
       height="1.0264005"
       width="1.0219998"
       y="-0.013200229"
       x="-0.010999908"
       id="filter1733">
      <feGaussianBlur
         id="feGaussianBlur869"
         stdDeviation="0.072761339" />
    </filter>
    <linearGradient
       gradientUnits="userSpaceOnUse"
       gradientTransform="matrix(0.26458,0,0,0.26458,-0.79373,-39.158)"
       y2="166"
       y1="155"
       x2="25"
       x1="25"
       id="linearGradient1387">
      <stop
         id="stop850"
         offset="0"
         stop-color="#3296d7" />
      <stop
         id="stop852"
         offset="1"
         stop-color="#0a7db4" />
    </linearGradient>
    <filter
       color-interpolation-filters="sRGB"
       height="1.2969998"
       width="1.0296998"
       y="-0.14849988"
       x="-0.014849913"
       id="filter935">
      <feGaussianBlur
         id="feGaussianBlur872"
         stdDeviation="0.098224626" />
    </filter>
    <linearGradient
       gradientUnits="userSpaceOnUse"
       gradientTransform="matrix(0.26458,0,0,0.26458,-0.79374,-39.158)"
       y2="185"
       y1="185"
       x2="65"
       x1="5"
       id="linearGradient1401">
      <stop
         id="stop855"
         offset="0"
         stop-color="#3492cb" />
      <stop
         id="stop857"
         offset=".083713"
         stop-color="#6ec8fa" />
      <stop
         id="stop859"
         offset=".91237"
         stop-color="#6ec8fa" />
      <stop
         id="stop861"
         offset="1"
         stop-color="#3492cb" />
    </linearGradient>
    <linearGradient
       gradientUnits="userSpaceOnUse"
       gradientTransform="matrix(0.18168,0,0,0.40956,9.2005,-451.88)"
       y2="1140.2"
       y1="1138.4"
       x2="-9.6169996"
       x1="-9.6169996"
       id="linearGradient1438">
      <stop
         id="stop864"
         offset="0"
         stop-opacity="0"
         stop-color="#1482be" />
      <stop
         id="stop866"
         offset="1"
         stop-color="#1482be" />
    </linearGradient>
    <filter
       id="filter2076-6"
       x="-0.048000001"
       y="-0.048000001"
       width="1.096"
       height="1.096"
       color-interpolation-filters="sRGB">
      <feGaussianBlur
         stdDeviation="1.1"
         id="feGaussianBlur1" />
    </filter>
  </defs>
  <g
     id="g5"
     transform="translate(-5.967e-5,-5.97e-5)">
    <rect
       transform="scale(0.26458)"
       x="4.5"
       y="4.5"
       width="55"
       height="55"
       rx="13.002"
       ry="13.002"
       filter="url(#filter2076-6)"
       opacity="0.3"
       id="rect1" />
    <path
       d="m 4.6306,1.1906 c -1.9058,0 -3.44,1.5342 -3.44,3.44 v 7.6717 c 0,1.9058 1.5342,3.44 3.44,3.44 h 7.6717 c 1.9058,0 3.44,-1.5342 3.44,-3.44 V 4.6306 c 0,-1.9058 -1.5342,-3.44 -3.44,-3.44 z"
       fill="#f5aa1e"
       stroke-linecap="round"
       stroke-width="0.079373"
       style="paint-order:stroke fill markers"
       id="path1" />
    <path
       d="m 4.8518,2.7781 c -1.1488,0 -2.0737,0.92498 -2.0737,2.0737 v 7.2294 c 0,1.1488 0.92498,2.0737 2.0737,2.0737 h 7.2294 c 1.1488,0 2.0737,-0.92498 2.0737,-2.0737 V 4.8518 c 0,-1.1488 -0.92498,-2.0737 -2.0737,-2.0737 z"
       fill="#fafafa"
       stroke-linecap="round"
       stroke-width="0.079373"
       style="paint-order:stroke fill markers"
       id="path2" />
    <path
       d="m 4.2636,4.2277 c 0.005,0.04062 0.0099,0.08118 0.01548,0.12163 h 8.376 c 0.0052,-0.0437 0.0097,-0.07849 0.01437,-0.12163 z"
       fill="#f08705"
       opacity="0.6"
       stroke-width="0.67718"
       style="paint-order:normal"
       id="path3" />
    <path
       d="m 1.7523,3.5899 c -0.31183,0 -0.56274,0.25092 -0.56274,0.56274 v 1.8278 c 0,0.02268 0.0041,0.04418 0.0067,0.06615 -0.0055,0.54053 -0.0052,1.1567 -0.0052,1.9652 v 0.22427 h -5.16e-4 v 4.0663 c 0,0.03645 0.0041,0.07184 0.0052,0.108 0.002,0.05118 0.0031,0.10258 0.0078,0.15296 0.12639,1.6956 1.4693,3.0388 3.1646,3.1662 0.08518,0.0081 0.17144,0.0128 0.25941,0.01292 0.0012,3e-6 0.0024,0 0.0036,0 h 7.6712 5.17e-4 c 0.08936,0 0.17707,-0.0047 0.26354,-0.01292 1.691,-0.12755 3.0311,-1.4649 3.1625,-3.1548 0.0087,-0.08956 0.01395,-0.18019 0.01395,-0.27233 v -4.1439 c 1.6e-5,-0.0018 5.17e-4,-0.0034 5.17e-4,-0.0052 v -1.8278 c 0,-0.31183 -0.25092,-0.56274 -0.56274,-0.56274 h -6.0068 c -0.27152,0 -0.48409,-0.01833 -0.66041,-0.06511 C 8.337108,5.65086 8.197358,5.57537 8.072638,5.462 7.947918,5.34863 7.837988,5.1972 7.721248,4.99744 7.604508,4.79767 7.480888,4.54998 7.328518,4.24401 7.255028,4.0632 7.152398,3.93174 7.040168,3.83681 6.927938,3.74188 6.806318,3.68333 6.693428,3.64716 6.467648,3.57482 6.278478,3.5929 6.278478,3.5929 h -2.5533 C 3.714698,3.592325 3.704818,3.5898 3.694168,3.5898 h -0.91517 z"
       fill="#ffc841"
       stroke-width="0.26458"
       id="path4" />
  </g>
  <path
     style="fill:#ffffff;fill-opacity:1;stroke-width:0.769234;stroke-linecap:round;stroke-linejoin:round"
     d="M 8.4620097,7.6241415 A 0.16270936,0.16270936 0 0 0 8.3463238,7.6707163 L 7.758881,8.2596615 a 0.16269309,0.16269309 0 0 0 0,0.2298689 0.16269309,0.16269309 0 0 0 0.2298688,0 L 8.4620097,8.0177732 8.9292589,8.4895303 a 0.16269309,0.16269309 0 0 0 0.2298696,0.0015 0.16269309,0.16269309 0 0 0 0.00154,-0.2313713 L 8.5776949,7.6722186 A 0.16270936,0.16270936 0 0 0 8.4620097,7.6241415 Z M 8.4094249,8.773486 6.9385647,9.2752913 a 0.16270936,0.16270936 0 0 0 -0.012023,0.016526 0.16270936,0.16270936 0 0 0 -0.08113,0.1066711 0.16270936,0.16270936 0 0 0 -0.013523,0.027043 0.16270936,0.16270936 0 0 0 -0.003,0.00451 v 1.7608266 a 0.16269309,0.16269309 0 0 0 0.082633,0.129207 0.16269309,0.16269309 0 0 0 0.00454,0.01502 l 1.4783725,0.770737 a 0.16270936,0.16270936 0 0 0 0.010516,0 0.16269309,0.16269309 0 0 0 0.042069,0.01051 0.16269309,0.16269309 0 0 0 0.022539,0.009 0.16269309,0.16269309 0 0 0 0.036054,-0.01502 0.16269309,0.16269309 0 0 0 0.037562,-0.003 L 10.017036,11.35914 a 0.16270936,0.16270936 0 0 0 0.08864,-0.145733 V 9.4510734 a 0.16270936,0.16270936 0 0 0 -0.01352,-0.025541 0.16270936,0.16270936 0 0 0 -0.04507,-0.082633 0.16270936,0.16270936 0 0 0 -0.03306,-0.030049 0.16270936,0.16270936 0 0 0 -0.01653,-0.015024 L 8.5160962,8.773486 a 0.16270936,0.16270936 0 0 0 -0.1066713,0 z M 8.4605097,9.0995092 9.5016809,9.4675999 8.4710236,9.9213281 7.4328578,9.4510734 Z m 2.2235693,0.5603994 a 0.16269309,0.16269309 0 0 0 -0.115686,0.048077 0.16269309,0.16269309 0 0 0 0,0.2298689 l 0.47326,0.4732595 -0.471758,0.46725 a 0.16269309,0.16269309 0 0 0 -0.0015,0.229869 0.16269309,0.16269309 0 0 0 0.229869,0.0015 l 0.588946,-0.582897 a 0.16270936,0.16270936 0 0 0 0,-0.231371 L 10.798258,9.7079857 a 0.16269309,0.16269309 0 0 0 -0.114183,-0.048077 z m -4.4336153,0.00601 a 0.16269309,0.16269309 0 0 0 -0.115686,0.046575 L 5.5458295,10.295427 a 0.16270936,0.16270936 0 0 0 0,0.231371 l 0.5889451,0.58594 a 0.16269309,0.16269309 0 0 0 0.2298689,0 0.16269309,0.16269309 0 0 0 0,-0.229868 L 5.8913842,10.411114 6.3631411,9.9438642 a 0.16269309,0.16269309 0 0 0 0.00154,-0.2298688 0.16269309,0.16269309 0 0 0 -0.1141836,-0.048077 z m 0.902949,0.016526 1.1538517,0.5228394 v 1.488887 L 7.1534127,11.091704 Z m 2.6277169,0.018029 v 1.4137684 l -1.1493444,0.582936 v -1.490392 z m -2.381325,0.6400294 a 0.16269309,0.16269309 0 0 0 -0.16226,0.163763 l 0.00154,0.396637 a 0.16270936,0.16270936 0 0 0 0.093147,0.145731 l 0.2584151,0.123198 a 0.16269309,0.16269309 0 0 0 0.2163472,-0.07662 0.16269309,0.16269309 0 0 0 -0.076624,-0.216347 l -0.1667654,-0.07963 -0.00154,-0.294473 a 0.16269309,0.16269309 0 0 0 -0.1622623,-0.16226 z m 1.5354644,1.972666 -0.4732593,0.47326 -0.4672499,-0.471757 a 0.16269309,0.16269309 0 0 0 -0.2298688,0 0.16269309,0.16269309 0 0 0 -0.00154,0.229868 l 0.5829352,0.587443 a 0.16270936,0.16270936 0 0 0 0.2313711,0 l 0.5874405,-0.588946 a 0.16269309,0.16269309 0 0 0 0,-0.229869 0.16269309,0.16269309 0 0 0 -0.2298688,0 z"
     id="path6" />
</svg>
