<?xml version="1.0" encoding="UTF-8" standalone="no"?>
<svg
   version="1.1"
   viewBox="0 0 64 64"
   id="svg7"
   sodipodi:docname="folder-deb.svg"
   inkscape:version="1.4 (e7c3feb100, 2024-10-09)"
   xmlns:inkscape="http://www.inkscape.org/namespaces/inkscape"
   xmlns:sodipodi="http://sodipodi.sourceforge.net/DTD/sodipodi-0.dtd"
   xmlns="http://www.w3.org/2000/svg"
   xmlns:svg="http://www.w3.org/2000/svg">
  <sodipodi:namedview
     id="namedview7"
     pagecolor="#505050"
     bordercolor="#eeeeee"
     borderopacity="1"
     inkscape:showpageshadow="0"
     inkscape:pageopacity="0"
     inkscape:pagecheckerboard="0"
     inkscape:deskcolor="#505050"
     inkscape:zoom="4.1321553"
     inkscape:cx="-0.96801783"
     inkscape:cy="22.022406"
     inkscape:window-width="1920"
     inkscape:window-height="1051"
     inkscape:window-x="0"
     inkscape:window-y="0"
     inkscape:window-maximized="1"
     inkscape:current-layer="svg7" />
  <defs
     id="defs2">
    <style
       id="current-color-scheme"
       type="text/css">.ColorScheme-Text {
        color:#232629;
      }
      .ColorScheme-Highlight {
        color:#3daee9;
      }</style>
    <linearGradient
       id="a"
       x1="445.28"
       x2="445.28"
       y1="179.28"
       y2="200.07"
       gradientTransform="matrix(1.4723,0,0,1.4432,-548.04128,-239.75)"
       gradientUnits="userSpaceOnUse">
      <stop
         stop-opacity=".15"
         offset="0"
         id="stop1" />
      <stop
         stop-opacity="0"
         offset="1"
         id="stop2" />
    </linearGradient>
    <filter
       color-interpolation-filters="sRGB"
       height="1.0264005"
       width="1.0219998"
       y="-0.013200229"
       x="-0.010999908"
       id="filter1733">
      <feGaussianBlur
         id="feGaussianBlur869"
         stdDeviation="0.072761339" />
    </filter>
    <linearGradient
       gradientUnits="userSpaceOnUse"
       gradientTransform="matrix(0.26458,0,0,0.26458,-0.79373,-39.158)"
       y2="166"
       y1="155"
       x2="25"
       x1="25"
       id="linearGradient1387">
      <stop
         id="stop850"
         offset="0"
         stop-color="#3296d7"
         style="stop-color:#e25378;stop-opacity:1" />
      <stop
         id="stop852"
         offset="1"
         stop-color="#0a7db4"
         style="stop-color:#b94462;stop-opacity:1" />
    </linearGradient>
    <filter
       color-interpolation-filters="sRGB"
       height="1.2969998"
       width="1.0296998"
       y="-0.14849988"
       x="-0.014849913"
       id="filter935">
      <feGaussianBlur
         id="feGaussianBlur872"
         stdDeviation="0.098224626" />
    </filter>
    <linearGradient
       gradientUnits="userSpaceOnUse"
       gradientTransform="matrix(0.26458,0,0,0.26458,-0.79374,-39.158)"
       y2="185"
       y1="185"
       x2="65"
       x1="5"
       id="linearGradient1401">
      <stop
         id="stop855"
         offset="0"
         stop-color="#3492cb"
         style="stop-color:#b94462;stop-opacity:1" />
      <stop
         id="stop857"
         offset=".083713"
         stop-color="#6ec8fa"
         style="stop-color:#e5547a;stop-opacity:1" />
      <stop
         id="stop859"
         offset=".91237"
         stop-color="#6ec8fa"
         style="stop-color:#e6547a;stop-opacity:1" />
      <stop
         id="stop861"
         offset="1"
         stop-color="#3492cb"
         style="stop-color:#b94462;stop-opacity:1" />
    </linearGradient>
    <linearGradient
       gradientUnits="userSpaceOnUse"
       gradientTransform="matrix(0.18168,0,0,0.40956,9.2005,-451.88)"
       y2="1140.2"
       y1="1138.4"
       x2="-9.6169996"
       x1="-9.6169996"
       id="linearGradient1438">
      <stop
         id="stop864"
         offset="0"
         stop-opacity="0"
         stop-color="#1482be"
         style="stop-color:#c44869;stop-opacity:0;" />
      <stop
         id="stop866"
         offset="1"
         stop-color="#1482be"
         style="stop-color:#b44262;stop-opacity:1;" />
    </linearGradient>
    <filter
       id="filter2076-6"
       x="-0.048000001"
       y="-0.048000001"
       width="1.096"
       height="1.096"
       color-interpolation-filters="sRGB">
      <feGaussianBlur
         stdDeviation="1.1"
         id="feGaussianBlur1" />
    </filter>
    <filter
       id="filter2761"
       x="-0.023999783"
       y="-0.024000113"
       width="1.0479996"
       height="1.0480002"
       color-interpolation-filters="sRGB">
      <feGaussianBlur
         stdDeviation="0.14552168"
         id="feGaussianBlur1-0" />
    </filter>
  </defs>
  <g
     id="g5"
     transform="matrix(3.779602,0,0,3.779602,-2.26e-4,-2.259e-4)">
    <rect
       transform="scale(0.26458)"
       x="4.5"
       y="4.5"
       width="55"
       height="55"
       rx="13.002"
       ry="13.002"
       filter="url(#filter2076-6)"
       opacity="0.3"
       id="rect1" />
    <path
       d="m 4.6306,1.1906 c -1.9058,0 -3.44,1.5342 -3.44,3.44 v 7.6717 c 0,1.9058 1.5342,3.44 3.44,3.44 h 7.6717 c 1.9058,0 3.44,-1.5342 3.44,-3.44 V 4.6306 c 0,-1.9058 -1.5342,-3.44 -3.44,-3.44 z"
       fill="#f5aa1e"
       stroke-linecap="round"
       stroke-width="0.079373"
       style="paint-order:stroke fill markers;fill:#dc5a8c;fill-opacity:1"
       id="path1" />
    <path
       d="m 4.8518,2.7781 c -1.1488,0 -2.0737,0.92498 -2.0737,2.0737 v 7.2294 c 0,1.1488 0.92498,2.0737 2.0737,2.0737 h 7.2294 c 1.1488,0 2.0737,-0.92498 2.0737,-2.0737 V 4.8518 c 0,-1.1488 -0.92498,-2.0737 -2.0737,-2.0737 z"
       fill="#fafafa"
       stroke-linecap="round"
       stroke-width="0.079373"
       style="paint-order:stroke fill markers"
       id="path2" />
    <path
       d="m 4.2636,4.2277 c 0.005,0.04062 0.0099,0.08118 0.01548,0.12163 h 8.376 c 0.0052,-0.0437 0.0097,-0.07849 0.01437,-0.12163 z"
       fill="#f08705"
       opacity="0.6"
       stroke-width="0.67718"
       style="paint-order:normal;fill:#fda6c4;fill-opacity:1"
       id="path3" />
    <path
       d="m 1.7523,3.5899 c -0.31183,0 -0.56274,0.25092 -0.56274,0.56274 v 1.8278 c 0,0.02268 0.0041,0.04418 0.0067,0.06615 -0.0055,0.54053 -0.0052,1.1567 -0.0052,1.9652 v 0.22427 h -5.16e-4 v 4.0663 c 0,0.03645 0.0041,0.07184 0.0052,0.108 0.002,0.05118 0.0031,0.10258 0.0078,0.15296 0.12639,1.6956 1.4693,3.0388 3.1646,3.1662 0.08518,0.0081 0.17144,0.0128 0.25941,0.01292 0.0012,3e-6 0.0024,0 0.0036,0 h 7.6712 5.17e-4 c 0.08936,0 0.17707,-0.0047 0.26354,-0.01292 1.691,-0.12755 3.0311,-1.4649 3.1625,-3.1548 0.0087,-0.08956 0.01395,-0.18019 0.01395,-0.27233 v -4.1439 c 1.6e-5,-0.0018 5.17e-4,-0.0034 5.17e-4,-0.0052 v -1.8278 c 0,-0.31183 -0.25092,-0.56274 -0.56274,-0.56274 h -6.0068 c -0.27152,0 -0.48409,-0.01833 -0.66041,-0.06511 C 8.337108,5.65086 8.197358,5.57537 8.072638,5.462 7.947918,5.34863 7.837988,5.1972 7.721248,4.99744 7.604508,4.79767 7.480888,4.54998 7.328518,4.24401 7.255028,4.0632 7.152398,3.93174 7.040168,3.83681 6.927938,3.74188 6.806318,3.68333 6.693428,3.64716 6.467648,3.57482 6.278478,3.5929 6.278478,3.5929 h -2.5533 C 3.714698,3.592325 3.704818,3.5898 3.694168,3.5898 h -0.91517 z"
       fill="#ffc841"
       stroke-width="0.26458"
       id="path4"
       style="fill:#ff6ea0;fill-opacity:1" />
  </g>
  <path
     d="m 33.438758,49.705342 c -1.144609,-0.190767 -2.766135,-0.858455 -3.719978,-1.478452 -2.193826,-1.430761 -3.629739,-3.022243 -4.517292,-5.008615 -0.28615,-0.667688 -0.455943,-1.144609 -0.953834,-2.861521 -0.09539,-0.429229 -0.257187,-0.910212 -0.316897,-1.060098 -0.100721,-0.252825 -0.10514,-0.338108 -0.06125,-1.181427 0.04165,-0.763072 0.190776,-1.907681 0.286159,-1.999249 0.01409,-0.02213 0.04734,-0.02738 0.07385,-0.01164 0.08966,0.05323 0.172567,-0.192857 0.254038,-0.754154 0.04462,-0.307518 0.114764,-0.630002 0.155845,-0.716649 0.04112,-0.08661 0.110679,-0.277844 0.154656,-0.424898 0.101211,-0.338479 0.239215,-0.598658 0.665846,-1.255253 0.187634,-0.288785 0.382671,-0.603323 0.433421,-0.698974 0.05968,-0.112534 0.124949,-0.167676 0.184852,-0.15624 0.05775,0.01097 0.152949,-0.062 0.25269,-0.193629 0.433771,-0.572514 2.476835,-2.26165 2.665887,-2.204039 0.05163,0.01574 0.267189,-0.05523 0.479087,-0.157622 0.383266,-0.185226 0.55214,-0.228073 0.55214,-0.1401 0,0.02538 -0.05539,0.08298 -0.123103,0.128044 -0.118816,0.07907 -0.116436,0.08041 0.06842,0.03749 0.105324,-0.02452 0.282703,-0.05933 0.394178,-0.07746 0.137724,-0.02242 0.193724,-0.05542 0.174719,-0.102909 -0.01671,-0.04169 0.02301,-0.08299 0.09823,-0.102357 0.188352,-0.04836 0.481834,-0.04044 0.481834,0.01307 0,0.06419 -0.167806,0.129016 -0.30092,0.116349 -0.0908,-0.0086 -0.09544,-9.62e-4 -0.02739,0.04359 0.06772,0.04464 0.0686,0.05418 0.0044,0.05485 -0.04261,4.39e-4 -0.06344,0.01421 -0.04637,0.03071 0.01715,0.01641 0.131232,-0.01907 0.253513,-0.07898 0.122289,-0.0599 0.346262,-0.134358 0.497715,-0.165539 0.186436,-0.03834 0.275371,-0.08289 0.275371,-0.13783 0,-0.07068 0.08662,-0.07669 0.670212,-0.04655 0.368636,0.01908 0.924898,0.0745 1.236178,0.123227 0.565877,0.08861 0.56593,0.08861 0.776813,-0.02785 0.252935,-0.1397 0.659782,-0.15789 0.766689,-0.03424 0.03911,0.04521 0.146763,0.119755 0.239233,0.165644 0.150832,0.07487 0.160816,0.07497 0.09705,9.63e-4 -0.121109,-0.14012 -8.23e-4,-0.136591 0.466802,0.01374 1.507645,0.484561 2.736665,1.34749 3.64863,2.56192 0.216273,0.287975 0.229372,0.417534 0.0245,0.242238 l -0.117249,-0.100316 0.08956,0.168047 c 0.04917,0.09243 0.08957,0.196292 0.08957,0.230811 0,0.03453 0.144987,0.2897 0.322174,0.567049 0.399348,0.62508 0.511068,0.835678 0.484275,0.912825 -0.01155,0.0331 -0.188413,-0.187086 -0.393162,-0.489253 -0.204749,-0.302149 -0.507734,-0.709266 -0.673301,-0.90468 -0.247257,-0.291827 -0.312015,-0.341742 -0.362459,-0.27937 -0.03377,0.04178 -0.116287,0.08346 -0.183347,0.09281 l -0.121922,0.01688 0.120619,0.226919 c 0.06632,0.1248 0.129403,0.201594 0.140165,0.170642 0.05757,-0.165759 0.325674,0.05218 0.447587,0.363785 0.03946,0.101069 0.144637,0.309216 0.233572,0.462546 0.0889,0.15332 0.150491,0.289509 0.136814,0.302643 -0.01365,0.01316 -0.09481,-0.0289 -0.18017,-0.09338 l -0.155286,-0.117228 0.105901,0.174496 c 0.05828,0.09597 0.155793,0.213374 0.216754,0.260895 0.07604,0.05932 0.112402,0.152957 0.115797,0.29857 0.007,0.26884 0.16674,0.586431 0.254003,0.502684 0.135957,-0.130466 0.163913,-0.04893 0.129701,0.378341 -0.0252,0.314796 -0.01181,0.522284 0.04795,0.742555 0.09081,0.334406 0.07122,0.416943 -0.06151,0.260655 -0.08444,-0.09939 -0.08531,-0.09932 -0.04751,0.0038 0.08111,0.22112 0.141609,0.551912 0.124775,0.681748 -0.03141,0.242276 -0.126219,0.14155 -0.15883,-0.168811 l -0.03185,-0.30291 -0.0095,0.322359 c -0.0044,0.177309 -0.04848,0.51991 -0.09641,0.761346 -0.04847,0.243868 -0.07306,0.539368 -0.0553,0.664836 0.03325,0.236047 0.0097,0.245194 -0.195842,0.07612 -0.08365,-0.06887 -0.09809,-0.05494 -0.155557,0.149896 -0.04839,0.17235 -0.04795,0.270471 0.0018,0.414806 0.03579,0.103988 0.05661,0.245032 0.0462,0.313413 -0.02398,0.157822 -0.155671,0.207031 -0.155671,0.05819 0,-0.187162 -0.0742,-0.120546 -0.30092,0.270176 -0.612252,1.055138 -1.580987,1.871625 -2.677428,2.256786 -0.646412,0.227071 -1.079938,0.311267 -1.808959,0.351309 l -0.656545,0.03606 0.324388,0.09603 c 0.261571,0.07746 0.415177,0.08899 0.793324,0.05971 0.495406,-0.03844 1.077068,-0.141588 1.34081,-0.237821 0.105262,-0.03844 0.176355,-0.04015 0.212738,-0.0057 0.08575,0.08232 -0.67618,0.405973 -1.128492,0.479305 -0.769612,0.12478 -1.799798,-0.01011 -2.709191,-0.354648 -0.617012,-0.233786 -1.532635,-0.842651 -1.39232,-0.925864 0.0266,-0.01574 0.200767,0.06381 0.387098,0.176908 0.238165,0.144508 0.338764,0.182575 0.338764,0.128139 0,-0.102814 0.03518,-0.09788 0.224436,0.03139 0.17087,0.11677 0.696445,0.333587 1.074977,0.443478 0.412631,0.119774 0.252647,-0.02537 -0.300911,-0.273074 -1.750299,-0.783074 -2.476844,-1.566301 -2.839014,-3.060206 -0.132798,-0.547829 0.0095,-1.748866 0.251667,-2.124966 0.06142,-0.09529 0.111606,-0.212525 0.111606,-0.260474 0,-0.20808 0.361548,-0.757836 0.732547,-1.113895 0.653736,-0.627369 1.333372,-0.887825 2.215771,-0.84907 0.426517,0.0188 0.608682,0.05475 0.96366,0.190395 0.402621,0.153874 0.909576,0.476006 0.754317,0.479315 -0.03658,7.72e-4 -0.196533,-0.05065 -0.355625,-0.11427 -0.24184,-0.09671 -0.396907,-0.116083 -0.94581,-0.118133 -0.770793,-0.0029 -1.147567,0.102061 -1.69612,0.472465 -0.777705,0.525137 -1.210137,1.130015 -1.363323,1.906822 -0.102768,0.521237 -0.105918,0.665657 -0.02573,1.182668 0.0462,0.297922 0.07901,0.385341 0.13678,0.364071 0.04856,-0.01783 0.07604,0.0086 0.07604,0.0723 0,0.184654 0.418659,0.933667 0.70901,1.268512 0.698851,0.805957 1.829276,1.320306 2.901961,1.320306 0.556716,0 1.006779,-0.102548 1.421029,-0.3238 0.166354,-0.0889 0.376318,-0.197474 0.466592,-0.241389 0.318516,-0.154942 0.516125,-0.331917 0.747151,-0.669138 0.12844,-0.187477 0.268064,-0.340855 0.310273,-0.340855 0.06239,0 0.05967,0.02709 -0.01444,0.144393 -0.244212,0.386781 0.328929,-0.316485 0.625719,-0.767794 l 0.332437,-0.505488 -0.03622,-0.332051 c -0.03482,-0.319079 -0.02975,-0.338556 0.129299,-0.498811 0.153203,-0.154321 0.166966,-0.2 0.184624,-0.612546 0.01584,-0.369231 0.0044,-0.445892 -0.063,-0.446312 -0.06318,-3.62e-4 -0.09023,-0.09761 -0.117416,-0.420547 -0.03596,-0.427398 -0.398578,-1.865522 -0.483006,-1.915693 -0.02546,-0.01507 -0.0962,-0.153397 -0.157124,-0.307309 -0.20565,-0.519404 -0.56635,-1.018892 -1.12878,-1.562962 -0.809249,-0.782884 -1.828699,-1.387457 -2.791598,-1.655486 -0.819084,-0.228025 -2.209952,-0.14525 -3.200711,0.190453 -0.483506,0.163851 -0.959941,0.380793 -1.040257,0.473753 -0.0364,0.04216 -0.08937,0.06305 -0.117512,0.04636 -0.02966,-0.01755 -0.02144,-0.06467 0.01943,-0.111972 0.182506,-0.211046 -0.423122,0.175221 -0.813021,0.518527 -0.235706,0.207556 -0.437157,0.383682 -0.447666,0.391399 -0.0105,0.0076 0.03544,3.62e-4 0.101964,-0.01631 0.110783,-0.02775 0.115473,-0.02041 0.05539,0.08737 -0.0385,0.06905 -0.239093,0.193248 -0.484941,0.300269 -0.413077,0.179818 -0.680248,0.377434 -0.892522,0.660201 -0.0847,0.112896 -0.08966,0.13721 -0.02257,0.112524 0.04699,-0.01736 0.08557,-0.0066 0.08557,0.02413 0,0.149953 -0.141968,0.317362 -0.352264,0.415426 -0.465919,0.217237 -1.284434,1.377632 -1.722825,2.442499 -0.195387,0.474546 -0.19228,0.458063 -0.08601,0.458063 0.111973,0 0.104186,0.122034 -0.04961,0.777599 -0.224052,0.95489 -0.224314,0.924357 0.01969,2.267755 0.297289,1.63679 0.470967,2.183627 0.801182,2.522431 0.07744,0.07946 0.152757,0.248542 0.186322,0.418393 0.04007,0.202805 0.107362,0.336648 0.233291,0.464033 0.114809,0.11614 0.15309,0.187363 0.10899,0.202797 -0.08654,0.03024 0.184353,0.417877 0.431496,0.617439 0.124328,0.100392 0.216474,0.134149 0.316285,0.115835 0.218758,-0.04015 0.441497,0.08079 0.783743,0.42545 0.355668,0.358186 0.391298,0.454487 0.155933,0.421331 -0.151812,-0.02137 -0.155286,-0.01746 -0.08059,0.09205 0.04305,0.06296 0.201485,0.214242 0.352256,0.336238 0.211758,0.171376 0.266305,0.245509 0.239723,0.325889 -0.03824,0.115586 0.07079,0.223428 0.317466,0.313928 0.152949,0.05609 0.202229,0.177147 0.08706,0.213965 -0.03482,0.01116 0.180591,0.223942 0.478728,0.472886 0.335894,0.280467 0.561836,0.434197 0.594044,0.404161 0.08505,-0.07927 0.194092,-0.05513 0.196052,0.0434 0.0017,0.107517 0.09869,0.22048 0.446082,0.521788 0.219519,0.190406 0.27432,0.214366 0.408877,0.178798 0.123217,-0.03262 0.200707,-0.01164 0.374245,0.100906 0.34621,0.224611 0.556139,0.314262 0.735898,0.314262 0.176863,0 0.202046,0.04874 0.110215,0.213479 -0.04865,0.08719 -0.03824,0.101556 0.0735,0.101556 0.07157,0 0.273262,0.04722 0.448182,0.105008 0.397739,0.131325 0.563647,0.140252 0.463959,0.02499 -0.147254,-0.17028 0.0087,-0.123742 0.535042,0.159386 0.735155,0.395634 1.107029,0.440836 2.570977,0.312459 0.216745,-0.01898 0.287243,-0.0076 0.287243,0.04521 0,0.0456 -0.188071,0.11406 -0.53345,0.194249 -0.454018,0.105399 -0.696348,0.125793 -1.627634,0.136972 -0.733868,0.0086 -1.235127,-0.0104 -1.522135,-0.05819 z m -0.748402,-7.871185 c 0,-0.01116 -0.06772,-0.05981 -0.150455,-0.108127 l -0.150465,-0.08794 0.129176,0.108127 c 0.126034,0.105504 0.171744,0.128902 0.171744,0.08794 z m 7.532959,-5.5028 c -0.0175,-0.04188 -0.03045,-0.02947 -0.03307,0.03176 -0.0026,0.05533 0.01059,0.08632 0.0287,0.06886 0.0182,-0.01746 0.02013,-0.06276 0.0035,-0.10063 z M 27.807175,30.82455 c 0.06808,-0.08327 0.06606,-0.08518 -0.02074,-0.01984 -0.05268,0.03968 -0.09574,0.08098 -0.09574,0.09185 0,0.04321 0.04489,0.01536 0.116401,-0.07201 z m 0.622211,-0.485685 c 0.05442,-0.0578 0.08671,-0.105008 0.07166,-0.105008 -0.01505,0 -0.07193,0.04722 -0.126376,0.105008 -0.05443,0.0578 -0.08671,0.105008 -0.07166,0.105008 0.01505,0 0.07192,-0.04722 0.126384,-0.105008 z m 0.688692,-0.369098 c 0.180345,-0.05856 0.282825,-0.06896 0.320861,-0.03243 0.03806,0.03653 0.179156,0.01488 0.44183,-0.06782 0.212265,-0.06677 0.376178,-0.130781 0.364261,-0.142237 -0.0119,-0.01144 -0.186707,0.03205 -0.388385,0.09668 -0.277007,0.0888 -0.376695,0.101965 -0.407591,0.05399 -0.05215,-0.08108 -0.55004,0.07869 -0.764021,0.245232 l -0.146229,0.113774 0.15714,-0.09052 c 0.08645,-0.04979 0.276386,-0.129284 0.422134,-0.176642 z m 1.577365,-0.13329 c 0.15889,-0.04531 0.279404,-0.09147 0.267828,-0.102538 -0.02555,-0.02451 -0.591568,0.131019 -0.591568,0.162573 0,0.03176 0.0044,0.031 0.32374,-0.06 z m 0.907284,-0.286237 0.218854,-0.03834 -0.191493,-0.0047 c -0.105323,-0.0029 -0.25304,0.03157 -0.328273,0.07583 -0.08851,0.05218 -0.0982,0.06734 -0.02739,0.04302 0.0602,-0.02061 0.207899,-0.05475 0.328264,-0.07583 z m 0.434549,-0.09909 c 0.01689,-0.02614 -0.01864,-0.03519 -0.07892,-0.02013 -0.12775,0.03205 -0.143902,0.06773 -0.03062,0.06773 0.0434,0 0.09262,-0.02146 0.109506,-0.0476 z m 1.766513,0.01584 c -0.0182,-0.01746 -0.06536,-0.01927 -0.104868,-0.0038 -0.04366,0.01679 -0.03071,0.02919 0.03307,0.03176 0.05766,0.0019 0.08994,-0.01012 0.07184,-0.02756 z m -0.327135,-0.05695 c -0.05267,-0.01316 -0.138827,-0.01316 -0.191493,0 -0.05267,0.01316 -0.0095,0.02404 0.09575,0.02404 0.105324,0 0.148408,-0.01078 0.09574,-0.02404 z M 32.93098,29.35557 c -0.112043,-0.01125 -0.309014,-0.01145 -0.437699,-3.43e-4 -0.128677,0.01106 -0.03701,0.02032 0.203725,0.02051 0.240738,1.91e-4 0.346026,-0.0086 0.233974,-0.02012 z M 32.217141,29.3095 c -0.0182,-0.01746 -0.06536,-0.01936 -0.104869,-0.0038 -0.04366,0.01679 -0.03071,0.02919 0.03308,0.03176 0.05775,0.0019 0.08995,-0.01011 0.07184,-0.02756 z M 31.84679,41.929761 c -0.557303,-0.383205 -0.763785,-0.581413 -0.763785,-0.733188 0,-0.08051 0.01899,-0.146396 0.04218,-0.146396 0.07884,0 1.010595,0.933295 0.990181,0.991994 -0.01181,0.03396 -0.124215,-0.01307 -0.268589,-0.112372 z m -0.286772,-0.973003 c -0.289431,-0.280686 -0.382172,-0.43166 -0.265194,-0.43166 0.07026,0 0.608858,0.591772 0.608858,0.669004 0,0.03634 -0.007,0.0661 -0.01531,0.0661 -0.0088,0 -0.156187,-0.136532 -0.328281,-0.303426 z m 3.202426,-1.148996 c -0.152809,-0.05914 -0.0574,-0.16882 0.191493,-0.220069 0.142931,-0.02947 0.37008,-0.100869 0.50476,-0.158768 0.134688,-0.0579 0.254606,-0.09591 0.266497,-0.08451 0.0119,0.01145 -0.04909,0.1281 -0.135458,0.25933 -0.156117,0.237134 -0.158908,0.238565 -0.457982,0.23454 -0.165514,-0.0019 -0.331702,-0.01593 -0.36931,-0.03052 z m 1.641371,-1.174463 c -0.14769,-0.05694 -0.153798,-0.153912 -0.03054,-0.484055 0.10591,-0.283567 0.215748,-0.33951 0.154647,-0.07878 -0.02205,0.09386 -0.05136,0.229723 -0.06527,0.30191 l -0.02529,0.131268 0.109339,-0.119498 c 0.06466,-0.07068 0.124591,-0.236686 0.146667,-0.406336 0.02047,-0.157765 0.05915,-0.273885 0.08584,-0.258071 0.06773,0.04015 0.06046,0.455297 -0.01269,0.7344 -0.06396,0.243802 -0.12152,0.272207 -0.362817,0.179131 z m -12.947429,-0.65899 c -0.0182,-0.04569 -0.03316,-0.224858 -0.03316,-0.398171 0,-0.228664 0.01881,-0.309159 0.06842,-0.293411 0.08129,0.02575 0.12893,0.774642 0.04935,0.774642 -0.02826,0 -0.06615,-0.03739 -0.08452,-0.08308 z m 13.16204,-1.228165 c -0.08496,-0.110349 -0.111212,-0.197474 -0.08706,-0.289663 0.04952,-0.189327 0.179041,-0.1624 0.274591,0.05704 0.148662,0.341446 0.01969,0.501471 -0.187494,0.232574 z M 23.444933,35.912536 c -0.0035,-0.297732 -2.7e-5,-0.306937 0.137313,-0.30191 0.116453,0.0038 0.144567,0.03367 0.157998,0.1655 0.01514,0.148657 -0.153291,0.443508 -0.253364,0.443508 -0.02074,0 -0.03955,-0.138193 -0.042,-0.307089 z m 14.181699,-6.454734 c 0.0079,-0.469889 0.09014,-0.629067 0.154419,-0.300078 0.0448,0.229237 -0.01216,0.634028 -0.099,0.703172 -0.04725,0.03758 -0.06134,-0.06486 -0.05539,-0.403094 z M 30.437538,29.17622 c 0.02205,-0.06333 0.776734,-0.35998 0.915955,-0.35998 0.163563,0 -0.12985,0.192342 -0.468255,0.306955 -0.377324,0.127796 -0.4778,0.1397 -0.4477,0.05303 z"
     fill="#000000"
     opacity="0.15"
     id="path6"
     style="stroke-width:0.953842;fill:#ffffff;fill-opacity:1;opacity:1" />
</svg>
