<?xml version="1.0" encoding="UTF-8" standalone="no"?>
<svg
   width="22"
   height="22"
   version="1.1"
   id="svg2"
   sodipodi:docname="audio-volume-high-warning.svg"
   inkscape:version="1.3.2 (091e20ef0f, 2023-11-25, custom)"
   xmlns:inkscape="http://www.inkscape.org/namespaces/inkscape"
   xmlns:sodipodi="http://sodipodi.sourceforge.net/DTD/sodipodi-0.dtd"
   xmlns="http://www.w3.org/2000/svg"
   xmlns:svg="http://www.w3.org/2000/svg">
  <sodipodi:namedview
     id="namedview2"
     pagecolor="#c8c8c8"
     bordercolor="#000000"
     borderopacity="0.25"
     inkscape:showpageshadow="2"
     inkscape:pageopacity="0.0"
     inkscape:pagecheckerboard="0"
     inkscape:deskcolor="#d1d1d1"
     inkscape:zoom="12.004745"
     inkscape:cx="-4.0400693"
     inkscape:cy="21.699753"
     inkscape:window-width="1920"
     inkscape:window-height="954"
     inkscape:window-x="0"
     inkscape:window-y="34"
     inkscape:window-maximized="1"
     inkscape:current-layer="svg2" />
  <defs
     id="defs1">
    <style
       id="current-color-scheme"
       type="text/css">.ColorScheme-Text {
                color:#f2f2f2;
            }</style>
  </defs>
  <rect
     class="ColorScheme-Text"
     x="2"
     y="2"
     width="18"
     height="18"
     ry="0"
     fill="currentColor"
     opacity="0"
     id="rect93"
     style="color:#363636;stroke-width:1.125" />
  <path
     id="path7590"
     style="fill:#f67400;fill-opacity:1;stroke-width:0.729603"
     d="m 15.075928,6.319013 c -0.116819,-0.0011 -0.236551,0.02915 -0.347168,0.09888 -0.307747,0.192381 -0.351941,0.576396 -0.127442,0.916259 0.686119,1.000353 1.07666,2.303371 1.07666,3.662842 0,1.35305 -0.403382,2.653865 -1.07666,3.660645 -0.218078,0.339849 -0.180305,0.71964 0.127442,0.918457 0.294978,0.179483 0.653722,0.114631 0.852539,-0.186768 0.840065,-1.179915 1.320557,-2.763567 1.320557,-4.392334 0,-1.628838 -0.474144,-3.218839 -1.320557,-4.392333 C 15.457038,6.416291 15.270626,6.32077 15.075928,6.319017 Z" />
  <path
     id="path8982"
     style="fill:#f67400;fill-opacity:1;stroke-width:0.729603"
     d="M 12.483154,8.039472 C 12.36915,8.040572 12.254788,8.075202 12.151367,8.144941 11.8372,8.350156 11.771865,8.7288 12.02832,9.100752 c 0.352691,0.506564 0.551514,1.186636 0.551514,1.898437 0,0.711801 -0.205171,1.385453 -0.551514,1.898438 -0.250035,0.371952 -0.19112,0.748546 0.123047,0.960204 0.27579,0.179555 0.63402,0.117343 0.832764,-0.164794 0.519404,-0.69254 0.828369,-1.6743 0.828369,-2.693848 0,-1.01962 -0.308965,-1.99486 -0.828369,-2.693848 C 12.859916,8.128995 12.673162,8.037657 12.483154,8.039472 Z"
     sodipodi:nodetypes="sccscccscs" />
  <path
     id="path8980"
     style="fill:#f67400;fill-opacity:1;stroke-width:0.729603"
     d="m 17.668701,4.589765 c -0.118659,-0.0028 -0.236972,0.02694 -0.342773,0.09668 -0.30782,0.198788 -0.352283,0.576396 -0.140625,0.91626 0.981097,1.494126 1.59082,3.348869 1.59082,5.400879 0,2.039168 -0.609723,3.904356 -1.59082,5.392089 -0.211658,0.33985 -0.167195,0.717442 0.140625,0.916259 0.282137,0.185975 0.660558,0.103467 0.865722,-0.204346 C 19.320274,15.414689 20,13.314246 20,11.005781 20,8.690822 19.307433,6.594503 18.19165,4.895185 18.063423,4.698798 17.866466,4.594524 17.668701,4.589765 Z" />
  <path
     class="ColorScheme-Text" fill="currentColor"
     d="m 9.116943,5.259931 c -0.327008,0 -0.557149,0.147572 -0.916259,0.474609 L 5.385986,8.228437 c -0.03847,0.03848 -0.08933,0.04834 -0.140625,0.04834 H 3.43042 C 2.4813666,8.276778 2,8.77715 2,9.77751 v 2.463135 c 0,1.006779 0.4877724,1.500732 1.43042,1.500733 h 1.814941 c 0.0513,0 0.102154,0.01208 0.140625,0.05053 l 2.814698,2.513671 c 0.333428,0.301399 0.589594,0.443848 0.929443,0.443848 0.474534,0 0.834961,-0.360427 0.834961,-0.834961 V 6.123455 c 0,-0.480941 -0.36077,-0.863525 -0.848145,-0.863524 z M 8.648926,6.888105 c 0.05129,0 0.09009,0.03238 0.09009,0.09009 v 8.048584 c 0,0.06414 -0.03863,0.09228 -0.0835,0.09228 -0.03845,0 -0.06922,-0.0097 -0.107666,-0.04175 L 5.994627,12.761396 C 5.847137,12.626712 5.719519,12.5966 5.546384,12.596601 H 3.5446774 c -0.2116141,0 -0.314209,-0.102622 -0.314209,-0.314209 V 9.748945 c 0,-0.218005 0.1025944,-0.320801 0.314209,-0.320801 H 5.546386 c 0.173135,0 0.300753,-0.03231 0.448243,-0.166992 L 8.547851,6.934247 c 0.03203,-0.02565 0.06262,-0.04615 0.101075,-0.04615 z"
     sodipodi:nodetypes="sccssssssccsssscssscccssssscccc" />
</svg>
