<?xml version="1.0" encoding="UTF-8" standalone="no"?>
<svg
   width="22"
   height="22"
   version="1.1"
   id="svg2"
   sodipodi:docname="audio-on.svg"
   inkscape:version="1.3.2 (091e20ef0f, 2023-11-25, custom)"
   xmlns:inkscape="http://www.inkscape.org/namespaces/inkscape"
   xmlns:sodipodi="http://sodipodi.sourceforge.net/DTD/sodipodi-0.dtd"
   xmlns="http://www.w3.org/2000/svg"
   xmlns:svg="http://www.w3.org/2000/svg">
  <sodipodi:namedview
     id="namedview2"
     pagecolor="#c8c8c8"
     bordercolor="#000000"
     borderopacity="0.25"
     inkscape:showpageshadow="2"
     inkscape:pageopacity="0.0"
     inkscape:pagecheckerboard="0"
     inkscape:deskcolor="#d1d1d1"
     inkscape:zoom="16.977273"
     inkscape:cx="-3.7402945"
     inkscape:cy="12.104418"
     inkscape:window-width="1920"
     inkscape:window-height="954"
     inkscape:window-x="0"
     inkscape:window-y="34"
     inkscape:window-maximized="1"
     inkscape:current-layer="svg2" />
  <defs
     id="defs1">
    <style
       id="current-color-scheme"
       type="text/css">.ColorScheme-Text {
                color:#f2f2f2;
            }</style>
  </defs>
  <rect
     class="ColorScheme-Text"
     x="2"
     y="1.9999998"
     width="18"
     height="18"
     ry="0"
     fill="currentColor"
     opacity="0"
     id="rect93"
     style="color:#363636;stroke-width:1.125" />
  <path
     id="path7590"
     style="fill:#27ae60;fill-opacity:1;stroke-width:0.729603"
     d="m 15.075928,6.3190126 c -0.116819,-0.00105 -0.236551,0.029149 -0.347168,0.098876 -0.307747,0.1923817 -0.351941,0.576396 -0.127442,0.9162596 0.686119,1.0003523 1.07666,2.3033711 1.07666,3.6628418 0,1.35305 -0.403382,2.653865 -1.07666,3.660645 -0.218078,0.339849 -0.180305,0.71964 0.127442,0.918457 0.294978,0.179483 0.653722,0.114631 0.852539,-0.186768 0.840065,-1.179915 1.320557,-2.763567 1.320557,-4.392334 0,-1.6288384 -0.474144,-3.2188392 -1.320557,-4.3923334 -0.124261,-0.18837 -0.310673,-0.2838904 -0.505371,-0.285644 z" />
  <path
     id="path8982"
     style="fill:#27ae60;fill-opacity:1;stroke-width:0.729603"
     d="m 12.483154,8.0394718 c -0.114004,0.00109 -0.228366,0.03573 -0.331787,0.1054687 -0.314167,0.2052157 -0.379502,0.5838592 -0.123047,0.9558113 0.352691,0.5065638 0.551514,1.1866362 0.551514,1.8984372 0,0.711801 -0.205171,1.385453 -0.551514,1.898438 -0.250035,0.371952 -0.19112,0.748546 0.123047,0.960204 0.27579,0.179555 0.63402,0.117343 0.832764,-0.164794 0.519404,-0.69254 0.828369,-1.6743 0.828369,-2.693848 0,-1.0196199 -0.308965,-1.9948599 -0.828369,-2.6938483 C 12.859916,8.1289948 12.673162,8.0376571 12.483154,8.0394718 Z"
     sodipodi:nodetypes="sccscccscs" />
  <path
     id="path8980"
     style="fill:#27ae60;fill-opacity:1;stroke-width:0.729603"
     d="m 17.668701,4.589765 c -0.118659,-0.00281 -0.236972,0.026944 -0.342773,0.096683 -0.30782,0.1987875 -0.352283,0.576396 -0.140625,0.9162596 0.981097,1.494126 1.59082,3.3488696 1.59082,5.4008794 0,2.039168 -0.609723,3.904356 -1.59082,5.392089 -0.211658,0.33985 -0.167195,0.717442 0.140625,0.916259 0.282137,0.185975 0.660558,0.103467 0.865722,-0.204346 C 19.320274,15.414689 20,13.314246 20,11.005781 20,8.690822 19.307433,6.5945026 18.19165,4.8951845 18.063423,4.6987977 17.866466,4.5945238 17.668701,4.589765 Z" />
  <path
     class="ColorScheme-Text" fill="currentColor"
     d="m 9.1169434,5.2599309 c -0.3270082,0 -0.5571492,0.1475718 -0.9162598,0.4746093 L 5.3859863,8.2284369 c -0.038472,0.038475 -0.089326,0.048341 -0.140625,0.048341 H 3.43042 C 2.4813666,8.2767781 2,8.77715 2,9.7775101 v 2.4631349 c 0,1.006779 0.4877724,1.500732 1.43042,1.500733 h 1.8149413 c 0.051299,0 0.1021534,0.01208 0.140625,0.05053 l 2.8146974,2.513671 c 0.3334286,0.301399 0.589594,0.443848 0.9294432,0.443848 0.474534,0 0.834961,-0.360427 0.834961,-0.834961 V 6.123455 c 0,-0.4809409 -0.3607694,-0.8635253 -0.8481445,-0.8635241 z M 8.6489257,6.8881051 c 0.051291,0 0.090088,0.032377 0.090088,0.09009 v 8.0485839 c 0,0.06414 -0.038626,0.09228 -0.083496,0.09228 -0.03845,0 -0.069217,-0.0097 -0.1076659,-0.04175 L 5.9946285,12.761396 C 5.8471391,12.626712 5.7195211,12.5966 5.5463864,12.596601 h -2.001709 c -0.2116141,0 -0.314209,-0.102622 -0.314209,-0.314209 V 9.7489452 c 0,-0.2180058 0.1025944,-0.3208016 0.314209,-0.3208016 h 2.001709 c 0.1731347,0 0.3007528,-0.03231 0.4482421,-0.1669916 L 8.5478512,6.934247 c 0.03203,-0.02565 0.062624,-0.046148 0.1010745,-0.046148 z"
     sodipodi:nodetypes="sccssssssccsssscssscccssssscccc" />
</svg>
