<?xml version="1.0" encoding="UTF-8" standalone="no"?>
<svg
   width="22"
   height="22"
   version="1.1"
   id="svg2"
   sodipodi:docname="audio-ready.svg"
   inkscape:version="1.3.2 (091e20ef0f, 2023-11-25, custom)"
   xmlns:inkscape="http://www.inkscape.org/namespaces/inkscape"
   xmlns:sodipodi="http://sodipodi.sourceforge.net/DTD/sodipodi-0.dtd"
   xmlns="http://www.w3.org/2000/svg"
   xmlns:svg="http://www.w3.org/2000/svg">
  <sodipodi:namedview
     id="namedview2"
     pagecolor="#c8c8c8"
     bordercolor="#000000"
     borderopacity="0.25"
     inkscape:showpageshadow="2"
     inkscape:pageopacity="0.0"
     inkscape:pagecheckerboard="0"
     inkscape:deskcolor="#d1d1d1"
     inkscape:zoom="6.0023723"
     inkscape:cx="-32.153953"
     inkscape:cy="12.078558"
     inkscape:window-width="1920"
     inkscape:window-height="954"
     inkscape:window-x="0"
     inkscape:window-y="34"
     inkscape:window-maximized="1"
     inkscape:current-layer="svg2" />
  <defs
     id="defs1">
    <style
       id="current-color-scheme"
       type="text/css">.ColorScheme-Text {
                color:#f2f2f2;
            }</style>
  </defs>
  <path
     d="M16 11a2 2 0 0 1-2 2 2 2 0 0 1-2-2 2 2 0 0 1 2-2 2 2 0 0 1 2 2"
     style="fill:#f67400"
     id="path1" />
  <path
     class="ColorScheme-Text" fill="currentColor"
     d="m 9.1169434,5.2599309 c -0.3270082,0 -0.5571492,0.1475718 -0.9162598,0.4746093 L 5.3859863,8.2284369 c -0.038472,0.038475 -0.089326,0.048341 -0.140625,0.048341 H 3.43042 C 2.4813666,8.2767781 2,8.77715 2,9.7775101 v 2.4631349 c 0,1.006779 0.4877724,1.500732 1.43042,1.500733 h 1.8149413 c 0.051299,0 0.1021534,0.01208 0.140625,0.05053 l 2.8146974,2.513671 c 0.3334286,0.301399 0.589594,0.443848 0.9294432,0.443848 0.474534,0 0.834961,-0.360427 0.834961,-0.834961 V 6.123455 c 0,-0.4809409 -0.3607694,-0.8635253 -0.8481445,-0.8635241 z M 8.6489257,6.8881051 c 0.051291,0 0.090088,0.032377 0.090088,0.09009 v 8.0485839 c 0,0.06414 -0.038626,0.09228 -0.083496,0.09228 -0.03845,0 -0.069217,-0.0097 -0.1076659,-0.04175 L 5.9946285,12.761396 C 5.8471391,12.626712 5.7195211,12.5966 5.5463864,12.596601 h -2.001709 c -0.2116141,0 -0.314209,-0.102622 -0.314209,-0.314209 V 9.7489452 c 0,-0.2180058 0.1025944,-0.3208016 0.314209,-0.3208016 h 2.001709 c 0.1731347,0 0.3007528,-0.03231 0.4482421,-0.1669916 L 8.5478512,6.934247 c 0.03203,-0.02565 0.062624,-0.046148 0.1010745,-0.046148 z"
     sodipodi:nodetypes="sccssssssccsssscssscccssssscccc" />
</svg>
