<?xml version="1.0" encoding="UTF-8" standalone="no"?>
<svg
   version="1.1"
   viewBox="0 0 22 22"
   id="svg3"
   sodipodi:docname="brightness-low.svg"
   inkscape:version="1.3.2 (091e20ef0f, 2023-11-25, custom)"
   xmlns:inkscape="http://www.inkscape.org/namespaces/inkscape"
   xmlns:sodipodi="http://sodipodi.sourceforge.net/DTD/sodipodi-0.dtd"
   xmlns="http://www.w3.org/2000/svg"
   xmlns:svg="http://www.w3.org/2000/svg">
  <sodipodi:namedview
     id="namedview3"
     pagecolor="#c8c8c8"
     bordercolor="#000000"
     borderopacity="0.25"
     inkscape:showpageshadow="2"
     inkscape:pageopacity="0.0"
     inkscape:pagecheckerboard="0"
     inkscape:deskcolor="#d1d1d1"
     showgrid="true"
     inkscape:zoom="11.313709"
     inkscape:cx="3.9332815"
     inkscape:cy="17.147339"
     inkscape:window-width="1920"
     inkscape:window-height="955"
     inkscape:window-x="0"
     inkscape:window-y="34"
     inkscape:window-maximized="1"
     inkscape:current-layer="svg3">
    <inkscape:grid
       id="grid3"
       units="px"
       originx="0"
       originy="0"
       spacingx="1"
       spacingy="1"
       empcolor="#0099e5"
       empopacity="0.30196078"
       color="#0099e5"
       opacity="0.14902"
       empspacing="5"
       dotted="false"
       gridanglex="30"
       gridanglez="30"
       visible="true" />
  </sodipodi:namedview>
  <defs
     id="defs1">
    <style
       id="current-color-scheme"
       type="text/css">.ColorScheme-Text {
                color:#ffffff;
            }</style>
  </defs>
  <rect
     id="rect5"
     opacity="0"
     height="22"
     width="22"
     y="2.6310624e-13"
     x="-3.864746e-07"
     style="color:#363636;fill:#363636" />
  <path
     id="rect875"
     style="fill:#ffffff;fill-opacity:1;stroke-width:2.3983;stroke-linecap:round;paint-order:stroke fill markers"
     d="M 3,3 C 1.892002,3 1,3.8920022 1,5 v 11 c 0,1.107998 0.892002,2 2,2 h 16 c 1.107998,0 2,-0.892002 2,-2 V 5 C 21,3.8920022 20.107998,3 19,3 Z m 0,1 h 16 c 0.553998,0 1,0.4460012 1,1 v 9 c 0,0.553998 -0.446002,1 -1,1 H 3 C 2.446001,15 2,14.553998 2,14 V 5 C 2,4.4460012 2.446001,4 3,4 Z m 6.5,12 h 3 c 0.277,0 0.5,0.223 0.5,0.5 0,0.277 -0.223,0.5 -0.5,0.5 h -3 C 9.223,17 9,16.777 9,16.5 9,16.223 9.223,16 9.5,16 Z"
     sodipodi:nodetypes="sssssssssssssssssssssssss" />
  <g
     id="g10"
     transform="translate(-0.5,-1)">
    <circle
       cx="11.5"
       cy="10.5"
       r="1.5"
       id="circle64"
       style="fill:#ffffff;fill-opacity:1" />
    <circle
       style="fill:#ffffff;stroke:none;stroke-width:2;stroke-linejoin:round"
       id="path4"
       cx="11.5"
       cy="7.5"
       r="0.5" />
    <circle
       style="fill:#ffffff;stroke:none;stroke-width:2;stroke-linejoin:round"
       id="circle4"
       cx="11.5"
       cy="13.5"
       r="0.5" />
    <circle
       style="fill:#ffffff;stroke:none;stroke-width:2;stroke-linejoin:round"
       id="circle5"
       cx="15.556349"
       cy="-3.7071068"
       r="0.5"
       transform="rotate(45)" />
    <circle
       style="fill:#ffffff;stroke:none;stroke-width:2;stroke-linejoin:round"
       id="circle6"
       cx="15.556349"
       cy="2.2928932"
       r="0.5"
       transform="rotate(45)" />
    <circle
       style="fill:#ffffff;stroke:none;stroke-width:2;stroke-linejoin:round"
       id="circle7"
       cx="10.5"
       cy="-14.5"
       r="0.5"
       transform="rotate(90)" />
    <circle
       style="fill:#ffffff;stroke:none;stroke-width:2;stroke-linejoin:round"
       id="circle8"
       cx="10.5"
       cy="-8.5"
       r="0.5"
       transform="rotate(90)" />
    <circle
       style="fill:#ffffff;stroke:none;stroke-width:2;stroke-linejoin:round"
       id="circle9"
       cx="-0.70710677"
       cy="-18.556349"
       r="0.5"
       transform="rotate(135)" />
    <circle
       style="fill:#ffffff;stroke:none;stroke-width:2;stroke-linejoin:round"
       id="circle10"
       cx="-0.70710677"
       cy="-12.556349"
       r="0.5"
       transform="rotate(135)" />
  </g>
</svg>
