<?xml version="1.0" encoding="UTF-8" standalone="no"?>
<svg
   width="22"
   height="22"
   version="1.1"
   id="svg2"
   sodipodi:docname="klipper.svg"
   inkscape:version="1.3.2 (091e20ef0f, 2023-11-25, custom)"
   xmlns:inkscape="http://www.inkscape.org/namespaces/inkscape"
   xmlns:sodipodi="http://sodipodi.sourceforge.net/DTD/sodipodi-0.dtd"
   xmlns="http://www.w3.org/2000/svg"
   xmlns:svg="http://www.w3.org/2000/svg">
  <sodipodi:namedview
     id="namedview2"
     pagecolor="#c8c8c8"
     bordercolor="#000000"
     borderopacity="0.25"
     inkscape:showpageshadow="2"
     inkscape:pageopacity="0.0"
     inkscape:pagecheckerboard="0"
     inkscape:deskcolor="#d1d1d1"
     showgrid="true"
     inkscape:zoom="11.908321"
     inkscape:cx="-4.5766317"
     inkscape:cy="6.5920292"
     inkscape:window-width="1920"
     inkscape:window-height="948"
     inkscape:window-x="0"
     inkscape:window-y="34"
     inkscape:window-maximized="1"
     inkscape:current-layer="svg2">
    <inkscape:grid
       id="grid2"
       units="px"
       originx="0"
       originy="0"
       spacingx="1"
       spacingy="1"
       empcolor="#0099e5"
       empopacity="0.30196078"
       color="#0099e5"
       opacity="0.14901961"
       empspacing="5"
       dotted="false"
       gridanglex="30"
       gridanglez="30"
       visible="true" />
  </sodipodi:namedview>
  <defs
     id="defs1">
    <style
       id="current-color-scheme"
       type="text/css">.ColorScheme-Text { color:#ffffff; } .ColorScheme-Highlight { color:#4285f4; }</style>
  </defs>
  <path
     id="rect4"
     style="opacity:1;fill:#ffffff;fill-opacity:1;stroke-width:2;stroke-linejoin:round"
     d="M 7,2 C 4.784002,2 3,3.7840022 3,6 v 9 c 0,2.215998 1.784002,4 4,4 h 8 c 2.215998,0 4,-1.784002 4,-4 V 6 C 19,3.7840022 17.215998,2 15,2 Z m 0,1 h 8 c 1.661998,0 3,1.3380017 3,3 v 9 c 0,1.661998 -1.338002,3 -3,3 H 7 C 5.338002,18 4,16.661998 4,15 V 6 C 4,4.3380017 5.338002,3 7,3 Z" />
  <rect
     style="opacity:1;fill:#ffffff;fill-opacity:1;stroke-width:1.33333;stroke-linejoin:round"
     id="rect6"
     width="8"
     height="0.99999982"
     x="6"
     y="7"
     ry="0.49999991" />
  <rect
     style="opacity:1;fill:#ffffff;fill-opacity:1;stroke-width:1.49071;stroke-linejoin:round"
     id="rect7"
     width="10"
     height="1"
     x="6"
     y="10"
     ry="0.5" />
  <rect
     style="opacity:1;fill:#ffffff;fill-opacity:1;stroke-width:1.49071;stroke-linejoin:round"
     id="rect8"
     width="10"
     height="1"
     x="6"
     y="13"
     ry="0.5" />
  <path
     id="path10"
     style="opacity:1;fill:#ffffff;fill-opacity:1;stroke:none;stroke-width:1px;stroke-linecap:butt;stroke-linejoin:miter;stroke-opacity:1"
     d="m 14,2 5,5 V 4 C 19,2.892 18.108,2 17,2 Z"
     sodipodi:nodetypes="ccssc" />
</svg>
