<?xml version="1.0" encoding="UTF-8"?>
<!-- Created with Inkscape (http://www.inkscape.org/) -->
<svg width="64" height="64" version="1.1" viewBox="0 0 16.933 16.933" xmlns="http://www.w3.org/2000/svg" xmlns:cc="http://creativecommons.org/ns#" xmlns:dc="http://purl.org/dc/elements/1.1/" xmlns:rdf="http://www.w3.org/1999/02/22-rdf-syntax-ns#">
 <defs>
  <filter id="filter2761" x="-.024" y="-.024" width="1.048" height="1.048" color-interpolation-filters="sRGB">
   <feGaussianBlur stdDeviation="0.14552168"/>
  </filter>
 </defs>
 <metadata>
  <rdf:RDF>
   <cc:Work rdf:about="">
    <dc:format>image/svg+xml</dc:format>
    <dc:type rdf:resource="http://purl.org/dc/dcmitype/StillImage"/>
    <dc:title/>
   </cc:Work>
  </rdf:RDF>
 </metadata>
 <path d="m10.709 1.05c4.405 0 5.0345 0.67282 5.0345 5.388v3.7761c0 4.7152-0.62954 5.388-5.0345 5.388h-4.4832c-4.405 0-5.0346-0.6728-5.0346-5.388v-3.7761c0-4.7152 0.62954-5.388 5.0346-5.388z" enable-background="new" fill="#141414" filter="url(#filter2761)" opacity=".3"/>
 <path d="m10.709 0.97579c4.405 0 5.0345 0.67282 5.0345 5.388v3.7761c0 4.7152-0.62954 5.388-5.0345 5.388h-4.4832c-4.405 0-5.0346-0.6728-5.0346-5.388v-3.7761c0-4.7152 0.62954-5.388 5.0346-5.388z" enable-background="new" fill="#212121"/>
 <path d="m10.389 2.0134c3.7768 0 4.3166 0.57688 4.3166 4.6197v3.2376c0 4.0428-0.53977 4.6197-4.3166 4.6197h-3.8439c-3.7768 0-4.3167-0.57686-4.3167-4.6197v-3.2376c0-4.0428 0.53977-4.6197 4.3167-4.6197z" enable-background="new" fill="#fafafa" stroke-width=".8574"/>
 <g transform="matrix(1.3006 0 0 1.34 -2.5449 -2.4261)" fill="#464646">
  <path d="m3.9856 6.9374c-0.00585 0.029589-0.00947 0.060448-0.015081 0.09077h8.9931c-0.0053-0.030317-0.0092-0.061202-0.01567-0.09077z" opacity=".6" stroke-width=".60512" style="paint-order:normal"/>
  <path d="m4.1332 4.9655c0.00521 0.030317 0.010173 0.060579 0.015962 0.09077h8.6371c0.0054-0.032616 0.01-0.058576 0.01482-0.09077z" opacity=".6" stroke-width=".59404" style="paint-order:normal"/>
  <path d="m3.9856 8.9093c-0.00585 0.029589-0.00947 0.060448-0.015081 0.09077h8.9931c-0.0053-0.030317-0.0092-0.061202-0.01567-0.09077z" opacity=".6" stroke-width=".60512" style="paint-order:normal"/>
  <path d="m3.9856 10.881c-0.00585 0.02959-0.00947 0.06045-0.015081 0.09077h8.9931c-0.0053-0.03032-0.0092-0.0612-0.01567-0.09077z" opacity=".6" stroke-width=".60512" style="paint-order:normal"/>
 </g>
 <path d="m3.4739 3.5929c-2.4228 0-2.2827-0.28116-2.2827 4.4191v3.0968c3e-6 3.8671 0.62974 4.4191 5.0347 4.4191h4.4834c4.405 0 5.0342-0.55196 5.0342-4.4191v-3.0968c0-2.3235 0.0505-2.2492-1.2779-2.2492h-5.2916c-1.0861 0-1.2361-0.29501-1.8456-1.5189-0.29396-0.72325-1.0501-0.65098-1.0501-0.65098z" enable-background="new" fill="#464646" stroke-width=".90562"/>
 <path d="m8.4673 7.8746c-0.091423 0-0.18339 0.00737-0.27244 0.016622a2.5896 2.5896 0 0 0-0.51211 0.099087 2.6543 2.6543 0 0 0-1.7421 1.7421 2.5896 2.5896 0 0 0-0.099087 0.5121 2.6504 2.6504 0 0 0-0.016647 0.27243c0 0.09142 0.00745 0.18339 0.016647 0.27244a2.5896 2.5896 0 0 0 0.099087 0.5121 2.6543 2.6543 0 0 0 1.7421 1.7421 2.5896 2.5896 0 0 0 0.51211 0.09936c0.089048 9e-3 0.181 0.01638 0.27244 0.01638 0.091438 0 0.18338-0.0074 0.27244-0.01662a2.5896 2.5896 0 0 0 0.5121-0.09882 2.6993 2.6993 0 0 0 0.4788-0.20664 2.6376 2.6376 0 0 0 1.2637-1.5358 2.5896 2.5896 0 0 0 0.09882-0.5121c0.0093-0.08905 0.01665-0.18101 0.01665-0.27244 0-0.09115-0.0075-0.18365-0.01665-0.27243a2.5896 2.5896 0 0 0-0.09882-0.51212 2.661 2.661 0 0 0-0.48727-0.89998c-0.053929-0.065261-0.11362-0.12181-0.1736-0.1818-0.23862-0.23861-0.51765-0.43626-0.8339-0.56971a2.7381 2.7381 0 0 0-0.2476-0.090636 2.5896 2.5896 0 0 0-0.5121-0.099087 2.7254 2.7254 0 0 0-0.27244-0.016622zm0 0.26423c0.39979 0 0.77582 0.098039 1.1066 0.27243 0.0087 0.00491 0.01589 0.011873 0.02455 0.016622 0.0066 0.00876 5e-3 0.01826 0.01665 0.024565 0.0085 0.00491 0.01665 0.012364 0.02455 0.016622 0.01399 0.00835 0.02772 0.01957 0.0248 0.032999-0.0034 0.019816-0.03595 0.018506-0.04943 0.033081 0.0016 0.027677-0.0095 0.022436-0.01665 0.041187 0.0042 0.012119 0.01481 0.010563 0.01665 0.024892-0.0025 0.015312-0.02247 0.017114-0.01665 0.032999 0.02588 0.020061 0.04993 0.00328 0.07449 0 0.0536-0.00655 0.09883 8.188e-4 0.13213-0.024811-0.0034-0.020634 0.01581-0.026366 0.02455-0.041187 0.01773 0.012364 0.03254 0.028577 0.04969 0.041187-0.01007 0.00409-0.0322 0.010809-0.04145 0.016622-0.01323 0.00901-0.01747 0.023009-0.03279 0.032999-0.01107 0.00737-0.03803 0.032999-0.04969 0.032999-0.01399 0-0.03962-0.011627-0.04969-0.00852-0.01423 0.00409-0.0085 0.027431-0.02455 0.032999-0.03171 0.011627-0.08799-0.03087-0.09909 0.016622 0.01323 0.027431 0.05842 0.01826 0.08247 0.032999 0.01507 0.0095 0.03754 0.058219 0.04153 0.074268a0.19369 0.19369 0 0 1 0 0.074514c-0.01507 0.038321-0.05493 0.033818-0.09936 0.032999-0.0119 0-0.02197 8.188e-4 -0.0328 0-0.07449-0.00491-0.14798-0.028577-0.1818 0.024565 0.0025 0.040941 0.0092 0.063377 0 0.099087-0.0066 0.025875-0.03437 0.043644-0.03304 0.06608 5.42e-4 0.011627 0.02197 0.033818 0.0248 0.049703 0.0016 0.00852-0.0042 0.025384 0 0.032999 0.0124 0.023582 0.04386-0.00409 0.06608 0 0.02114 0.00328 0.0412 0.034391 0.0412 0.057564a0.15089 0.15089 0 0 1-0.01665 0.06608c-0.02114 0.031689-0.0605 0.024074-0.09065 0.041433-0.02513 0.014248-0.03462 0.049212-0.04969 0.074268-0.01589 0.02694-0.03088 0.035947-0.02455 0.074268a0.17837 0.17837 0 0 1-0.0909 0.090898 0.26107 0.26107 0 0 0-0.04145 0.024892 0.20929 0.20929 0 0 0-0.03279 0.032999c-0.01689 0.018505-0.04045 0.026694-0.04969 0.041187-0.0066 0.011054-8.19e-4 0.034636-0.0083 0.049703-0.01057 0.020061-0.02805 0.037502-0.04145 0.057564-0.0058 0.00974-0.01798 0.020635-0.02455 0.033081-0.01531 0.028004-0.03595 0.049949-0.03304 0.074514 0.0025 0.023582 0.03171 0.028823 0.03304 0.049457 0.0016 0.011627-0.0087 0.020634-0.0085 0.032999 7.8e-4 0.0185 0.0066 0.02694 0.0085 0.04119 0.0034 0.0357-0.01823 0.04995-0.02488 0.07451-0.0034 0.01138 0.0025 0.02383 0 0.03275-0.0058 0.01801-0.03254 0.02858-0.03304 0.0497-5.42e-4 0.01482 0.02322 0.02858 0.0248 0.0497 8.19e-4 0.01433-0.01107 0.02768-0.0085 0.04119 5e-3 0.02587 0.05418 0.06231 0.07449 0.08247 0.02722 0.02743 0.05393 0.04545 0.06608 0.07451 0.01007 0.02432 0.01423 0.06428 0.03304 0.08247 0.01373 0.01327 0.03987 0.01908 0.05759 0.03308 0.01689 0.01326 0.0402 0.01908 0.05818 0.03308 0.02904 0.02293 0.06866 0.06952 0.11547 0.06608 0.0243-0.0016 0.04677-0.01163 0.07423-0.01662 0.0283-0.0049 0.06208-0.01933 0.0909-0.01638 0.02197 0.0025 0.04277 0.01801 0.06608 0.01662 0.0238-0.0016 0.05526-0.01302 0.08247-0.02481 0.04761-0.02064 0.12076-0.05978 0.18999-0.0497 0.05285 0.0084 0.05393 0.06739 0.0909 0.0909 0.04228 0.0033 0.07374-0.0084 0.10727 0 0.02538 0.0066 0.05551 0.05421 0.05784 0.07427 0.0025 0.02064-0.01373 0.03668-0.01665 0.0497-0.0066 0.02768-0.01165 0.06477-0.01639 0.08247-0.0042 0.014-0.0087 0.02743-0.0085 0.04143 0 0.01236 0.02005 0.04119 0.03329 0.05756 0.01589 0.02031 0.03862 0.0357 0.05759 0.05781 0.03512 0.04045 0.04993 0.09514 0.07449 0.14877 0.0058 0.01327-0.0058 0.0158 0 0.03284-0.01057 0.08082-0.03804 0.1337-0.09089 0.22302-0.02513 0.02907-0.05019 0.06313-0.04969 0.09909-0.0016 0.0864 0.04519 0.13107 0.04153 0.21483-0.0087 0.1123 2.6e-4 0.12974-0.0085 0.18972 0.03803 0.01932 0.01931 0.07582 0.0085 0.11574-0.01639 0.04749-0.03229 0.0592-0.04153 0.0909a0.10569 0.10569 0 0 0 0.05784 0.0084 2.3763 2.3763 0 0 1-1.7176 0.72667 2.3736 2.3736 0 0 1-0.89179-0.17335c-7.909e-4 -5.21e-4 7.992e-4 -0.0084 0-0.0085 0.02513-0.01056 0.072655 0.01851 0.090907-0.01638 0.00899-0.01687-0.012151-0.04921 0-0.06608 0.00849-0.01163 0.064745-0.02195 0.082473-0.02481 0.025629-0.0041 0.051766 8.19e-4 0.06608-0.0084a0.07531 0.07531 0 0 0 0.03304-0.06608c-0.00164-0.014-0.013732-0.02064-0.024548-0.03308-0.00924-0.01056-0.00254-0.02358-0.00849-0.033-0.011316-0.01687-0.028299-0.02514-0.03304-0.0497 0.03462-0.0066 0.082227 0.03889 0.13213 0.02481 0.023803-0.0066 0.063419-0.052 0.074489-0.07427 0.00336-0.0066-0.00418-0.03308 0-0.04119 0.00418-0.0093 0.014813-0.01187 0.016393-0.01662 0.00336-0.01294-0.00246-0.01662 0-0.02456 0.00874-0.02457 0.03512-0.0402 0.049687-0.05814 0.010817-0.01327 0.022723-0.02718 0.03304-0.04119 0.011316-0.01482 0.016892-0.01982 0.024548-0.03283 0.00753-0.04389-0.026964-0.07738-0.016393-0.11573 0.011316-0.0434 0.07399-0.07132 0.11546-0.09091 0.014567-0.0066 0.029298-0.02031 0.041531-0.02456 0.028798-0.01032 0.063664-0.0066 0.090628-0.01662 0.045191-0.01638 0.060757-0.06608 0.082726-0.10728 0.010571-0.01933 0.022723-0.0357 0.024549-0.0497 0.00246-0.01237-0.00254-0.02669 0-0.04119 0.00246-0.01425 0.00418-0.02538 0.00849-0.04119a0.42014 0.42014 0 0 0 0.00833-0.08272c0-0.01908-0.00833-0.02383-0.00833-0.04119-0.00336-0.06231 0.018227-0.06501 0.041195-0.09909 0.011652-0.01687 0.016647-0.04569 0.024884-0.05781 0.03887-0.05756 0.10385-0.08588 0.099087-0.17334-0.00164-0.02907-0.011898-0.08984-0.03304-0.0991-0.012151-0.0049-0.040196-0.0016-0.057842-0.0084-0.056843-0.02113-0.097768-0.08614-0.15695-0.09089-0.012397-5.2e-4 -0.019062 5.42e-4 -0.03304 0-0.022968-5.2e-4 -0.048352-0.02194-0.074235-0.02481-0.016393-0.0016-0.048106 0.0049-0.057842 0-0.014813-0.0066-0.012651-0.033-0.024549-0.04119-0.00982-0.0066-0.026383-0.01106-0.041449-0.01662a0.19686 0.19686 0 0 0-0.06608-0.01638c-0.00849-5.41e-4 -0.031705 0.0016-0.041195 0-0.014813-0.0025-0.027464-0.01613-0.041195-0.02481-0.017474-0.01056-0.025883-0.01801-0.03304-0.033 0.015812-0.05175-0.039116-0.06051-0.049687-0.09064-0.00499-0.014 0.00499-0.03701 0-0.0497-0.00581-0.01777-0.021388-0.02637-0.041195-0.04119-0.034375-0.02694-0.06608-0.05151-0.11574-0.05781-0.021969-0.0025-0.047607 0.0016-0.073989 0a0.12868 0.12868 0 0 1-0.082726-0.04127c-0.020307-0.02383-0.023803-0.04676-0.041449-0.05781-0.016647-0.01056-0.046272-0.01376-0.057588-0.02489-0.00499-0.0049-0.00336-0.01376-0.00849-0.02456-0.00849-0.01744-0.026964-0.02039-0.016393-0.04143-0.019308-0.0095-0.012397 0.01212-0.03304 0.0085-0.018473-0.02637-0.031959-0.04119-0.074235-0.03324-0.019308 0.0041-0.035455 0.03275-0.057842 0.03324-0.018473 5.42e-4 -0.033294-0.02989-0.057842-0.03324-0.018473-0.0025-0.044938 0.01957-0.057588 0.01662-0.020888-0.0033-0.022723-0.02882-0.041449-0.04119-0.013732-0.0093-0.041777-0.03357-0.049433-0.033-0.024049 5.42e-4 -0.041195 0.05077-0.074489 0.033-0.016147-0.02064 0.027717-0.02219 0.00849-0.04143-0.014567-0.01425-0.021642 7.8e-4 -0.03304 0.0085-0.013486 9e-3 -0.026465 0.01957-0.041531 0.02457-0.03304 0.01261-0.056508 0.01138-0.082473 0.02489-0.023803 0.01261-0.027464 0.03325-0.041195 0.05781-0.011071 0.02006-0.032794 0.04864-0.049687 0.0497-0.020061 0.0016-0.039615-0.02538-0.057588-0.03333-0.055509-0.02383-0.086673 0.01613-0.13212 0.01662-0.042276 5.2e-4 -0.10121-0.06739-0.099095-0.10728 0.00164-0.02456 0.013486-0.06076 0.016393-0.09091 0.00246-0.02383 0.024303-0.04389 0.024802-0.06608 5.331e-4 -0.02907-0.047025-0.05445-0.06608-0.05781-0.045191-0.0084-0.1057 0.02039-0.15696 0-0.00949-0.01638 0.019054-0.02538 0.024802-0.04119 0.00336-0.0093-0.00336-0.01482 0-0.02481 0.00581-0.01531 0.025629-0.02489 0.03304-0.04119 0.00499-0.01237 0.00246-0.03439 0.00832-0.0497 0.00663-0.017114 0.023222-0.028578 0.024884-0.041188 0.00164-0.016377-0.011898-0.038895-0.024884-0.049457a0.25737 0.25737 0 0 0-0.090898 0.016377c-0.051767 0.023828-0.03828 0.09116-0.090628 0.10755-0.017973 0.0057-0.046026 0.01327-0.06608 0.01638a2.3545 2.3545 0 0 1 0.15676-0.49541c0.018473 0.00328 0.033793 0.015067 0.049687 0.016622 0.04411 0.00328 0.045936-0.030379 0.082473-0.049703 0.037535 0.00491 0.056843-0.00328 0.090898 0 0.022968 0.00246 0.056008 0.031689 0.074235 0.032999 0.015312 5.323e-4 0.018473-0.019079 0.03304-0.016622 0.014567 0.00246 0.03887 0.032508 0.041449 0.049703 0.00246 0.021617-0.014567 0.042252-0.00849 0.066079 0.022722 0.023009 0.066833 0.036192 0.099087 0.049703 0.021142-0.017359 0.00336-0.057564 0-0.082726-5.24e-4 -0.011053 0.00164-0.023008 0-0.032998-0.00254-0.017114-0.00832-0.034636-0.00832-0.049703 0-0.0687 0.052847-0.09672 0.099095-0.12368 0.019808-0.011627 0.04045-0.032753 0.057842-0.041433 0.024303-0.011873 0.037535-0.013265 0.057588-0.024565 0.0367-0.020635 0.070821-0.042497 0.099087-0.06608 0.013232-0.031197-0.00164-0.068454 0-0.099087 0.013232-0.00835 0.019308 0.00164 0.03304 0 0.022223-0.00491 0.029044-0.037011 0.041449-0.049703 0.00753-0.00737 0.03254-0.00925 0.041195-0.016377 0.022223-0.017359 0.022223-0.042006 0.041195-0.049703 0.00663-0.00246 0.022469-0.00491 0.03304-0.00835 0.014567-0.00409 0.034874-0.016622 0.057842-0.024892 0.014813-0.00491 0.052102-0.00246 0.057842-0.00835 0.00745-0.00737-0.00164-0.038567 0-0.049703 0.011316-0.054207 0.091701-0.056008 0.14031-0.074022 0.033539-0.013265 0.06974-0.04045 0.10728-0.033326-0.00753 0.025875-0.039116 0.018505-0.03304 0.049703 0.00832 0.043644 0.058923-0.010563 0.074489-0.016622 0.029044-0.012364 0.085347-0.019079 0.12367-0.032999 0.033785-0.011873 0.08958-0.035455 0.057842-0.074268-0.026465-0.00164-0.03462 0.023582-0.057842 0.032999-0.015812 0.00246-0.019554-0.00737-0.03304-0.00835-0.012987-5.404e-4 -0.020053 0.010563-0.03304 0.00835-0.012987-0.00246-0.03096-0.025875-0.03304-0.041187-0.00499-0.04045 0.041449-0.052815 0.057842-0.082726-0.011071-0.036438-0.060004-0.00246-0.090907-0.016377 0.00336-0.021617 0.015812-0.0452 0.041449-0.049703a0.16331 0.16331 0 0 1 0.082473 0.016622c0.00745 0.00573-0.00254 0.022763 0.00832 0.033081 0.012651 0.011054 0.033294 0.00246 0.049687 0 0.00581-0.027431-0.037781-0.015312-0.03304-0.033081 0.03254-0.021126 0.092225-0.011382 0.13212-0.016622 0.022968-0.00328 0.045437-0.021945 0.06608-0.032999 0.019062-0.011054 0.037535-0.026448 0.057588-0.00835 0.00581 0.019816-0.013732 0.031198-0.024548 0.041187-0.037036 0.032835-0.070329 0.069519-0.099095 0.10755 0.017728 0.017114 0.044356 0.00491 0.074235 0.00835 0.011652 0.00164 0.029044 0.00655 0.041195 0.00852 0.014567 0.00246 0.029879-0.00246 0.041449 0 0.020061 0.00491 0.021142 0.032999 0.041195 0.032999 0.03254 0 0.03512-0.027431 0.016393-0.049703 0.00581-0.022436 0.016647-0.04176 0.00849-0.057564-0.015066-0.029887-0.07132 0.00491-0.074489-0.032999-0.00164-0.024074 0.024548-0.031443 0.03304-0.049703-0.00336-0.046018 0.037781-0.048884 0.03304-0.090636-0.00254-0.017359-0.021142-0.016868-0.03304-0.032999-0.00581-0.00876-0.00924-0.026939-0.016393-0.032999-0.02513-0.021126-0.07132-0.017769-0.074489-0.058219-0.00164-0.023828 0.00336-0.039877 0-0.06608-0.00336-0.024319-0.028299-0.094067-0.049433-0.098825-0.026964-0.00573-0.042276 0.042743-0.074235 0.057564a0.13027 0.13027 0 0 1-0.06608 0.00852c-0.011652-0.00246-0.031705-0.011054-0.03304-0.033081-0.00164-0.01261 0.00246-0.017114 0.00832-0.024811 0.00164-0.00164-0.00164-0.00655 0-0.00835a2.3967 2.3967 0 0 1 0.66061-0.090907zm-0.98276 0.21483c-0.023222 0.075087-0.09116 0.11785-0.18153 0.11547-0.022223 0.021126-0.012987 0.061576-0.024884 0.090898a0.072931 0.072931 0 0 1-0.06608 0.041187c-0.017728-0.00164-0.049687-0.024565-0.049687-0.041187 0-0.013756 0.013232-0.029314 0.016647-0.041433a2.3581 2.3581 0 0 1 0.30547-0.16514zm2.0232 0.082473a0.072403 0.072403 0 0 0-0.0248 0.00835c-0.01847 0.011054-0.01931 0.027677-0.03304 0.032999-0.01981 0.00737-0.04677 0.00737-0.04969 0.024892-0.0025 0.014821 0.01715 0.01957 0.01665 0.032999-0.0075 0.017769-0.02114 0.01957-0.0248 0.041187 0.02455 0.039877 0.08535 5.331e-4 0.11574-0.00835 0.01323-0.00409 0.02563 0.00246 0.03279-0.00835 0.0083-0.013265 0.0016-0.039631 0.0085-0.05781 0.0066-0.020061 0.02722-0.015312 0.02455-0.032999-0.0016-0.017769-0.0362-0.035947-0.06608-0.032999zm-2.6179 0.30546c0.017728 0.021126 0.03254 0.052323 0 0.06608-0.00499 0.00246-0.062583 0.010563-0.074235 0.00852-0.00336-5.24e-4 -0.00499-0.00573-0.00832-0.00852 0.025138-0.024565 0.056262-0.042497 0.082473-0.06608zm0.06608 0.082726c0.011652 5.331e-4 0.019554 0.023828 0.03304 0.024565 0.013232 0.00164 0.033539-0.010563 0.041531-0.00835 0.020061 0.00491 0.027464 0.042743 0.00832 0.057564-0.015812 0.00164-0.021142-0.019079-0.032794-0.016622-0.032794 0.00573-0.041777 0.068127-0.06608 0.06608-0.023222-0.00246-0.040196-0.049212-0.016647-0.06608 5.241e-4 -0.014248-0.00924-0.018505-0.00832-0.033081 0.00745-0.00901 0.021887-0.026121 0.041195-0.024565zm-0.10727 0.016377c0.00663 0 0.00581-0.00246 0.00832 0-0.00336 0.025629-0.013232 0.029314-0.03304 0.041433a0.13529 0.13529 0 0 0-0.06608 0.090628c-0.00336 0.013265-0.041449 0.052815-0.057588 0.049703-0.038035-0.00835 0.015812-0.079836 0.024549-0.090898 0.00982-0.012119 0.021969-0.01957 0.03304-0.032999 0.011071-0.013265 0.014313-0.04176 0.024884-0.049703 0.011652-0.00835 0.045936-0.00901 0.06608-0.00835zm3.2536 0.06608c0.03778-0.00246 0.05684 0.043152 0.07399 0.06608 0.01457 0.018751 0.05917 0.044954 0.08273 0.057809 0.01349 0.00737 0.02646 0.018014 0.04153 0.024892 0.01557 0.00655 0.03911 0.015803 0.05759 0.032999 0.01847 0.016868 0.03254 0.042252 0.03304 0.057564 5.42e-4 0.015558-0.01057 0.026939-0.0083 0.041433 0.01665 0.00246 0.02538-0.014248 0.03304-0.033081 0.06234 0.088794 0.11522 0.18366 0.16515 0.28063a0.03118 0.03118 0 0 0-0.01665 0.024892c-5e-3 0.026939 0.01581 0.06133-0.02455 0.06608-0.02563 0.00328-0.05576-0.025384-0.09091-0.032999-0.01423-0.00328-0.03803 0.00328-0.04969 0-0.02638-0.00925-0.01847-0.042006-0.0412-0.057809a0.18497 0.18497 0 0 0-0.06608-0.024565c-0.01299-0.00164-0.01955 0.00164-0.03304 0-0.01639-0.00246-0.04436 0-0.05759-0.00852-0.01323-0.00835-0.04627-0.021945-0.04969-0.032999-5e-3 -0.017769 0.04045-0.042743 0.0412-0.057564 8.19e-4 -0.011627-0.01398-0.015803-0.01639-0.033326-0.0016-0.010563 0.0025-0.026121 0-0.032753-0.0034-0.01261-0.02164-0.024319-0.04145-0.024811-0.01715 0-0.03438 0.00835-0.04943 0.00835-0.02114 5.248e-4 -0.0645-0.010563-0.0909-0.00835-0.01581 0.00164-0.02638 0.00737-0.0412 0.00835-0.04178 0.00328-0.06633-0.00246-0.0991 0-0.0238 0.00164-0.06866 0.014821-0.0909 0.024811-0.01107 0.00491-0.01847 0.017441-0.03304 0.024565-0.0066 0.00328-0.01581 0.00409-0.02455 0.00852-0.01349 0.00573-0.0367 0.021126-0.04969 0.024565-0.01847 0.00491-0.0402-0.00164-0.07423 0-0.02455 0.00164-0.0655-0.00328-0.06608-0.032753-5.2e-4 -0.044954 0.08165-0.025384 0.12368-0.033326 0.01581-0.00328 0.02222-0.021945 0.04145-0.032753 9e-3 -0.00491 0.01581-0.010809 0.02455-0.016622 0.01457-0.010072 0.03912-0.029887 0.04145-0.041187 0.0016-0.010563-0.0097-0.025384-0.0085-0.032999 0.0016-0.010072 0.02005-0.020061 0.03329-0.032999 0.02005-0.020389 0.03279-0.044954 0.05759-0.057809 0.01689-0.00925 0.05019-0.0113 0.05784-0.02481 0.0016-0.015312-5.42e-4 -0.019079 0-0.032999 0.01057-0.0095 0.0075-0.014575 0.01665-0.016377 0.02588-0.00573 0.0521 0.00974 0.08247 0.00835 0.01323-5.24e-4 0.02746 8.188e-4 0.0412-0.00835 0.01165-0.00835 0.02164-0.019079 0.03304-0.02481 0.01265-0.00655 0.02588-0.023828 0.04145-0.024892zm-3.0309 0.024892c0.00663-8.189e-4 0.017146 7.951e-4 0.025138 0 0.010817-5.323e-4 0.021142 0 0.03304 0s0.028045-0.00491 0.03304 0c-0.00832 0.031689-0.082473 0.019816-0.10755 0.00835 7.91e-4 -0.00573 0.010317-0.00737 0.016647-0.00835zm-0.090628 0.057809c0.00832 0 0.016147-0.00328 0.024884 0-0.022223 0.018506-0.052602 0.029069-0.090907 0.041187-0.018473 0.00573-0.046272 0.011873-0.049687-0.00835-0.00336-0.025138 0.016893-0.022436 0.03304-0.024811 0.021142-0.00246 0.058178-0.00835 0.082726-0.00835zm3.1297 0c-0.01581 0.00491-0.0238 0.037011 0 0.041187 0.01107-0.00655 0.01107-0.021126 0.0083-0.041187-0.0066-0.00655-0.0034-0.00164-0.0083 0zm-0.0085 0.06608c-0.0075 0.00246-0.01639-5.322e-4 -0.02455 0.00835 5.43e-4 0.026939 5e-3 0.042252 0 0.06608 0.01531 0.029887 0.05019 0.011873 0.0576-0.00835 0.0093-0.050194-0.0098-0.072385-0.03279-0.06608zm0.20664 0.13213a0.071082 0.071082 0 0 0-0.04969 0.016377c0.01797 0.029069 0.05102 0.034391 0.0909 0.041433 0.01431-0.010563 0.0098-0.039631 0.01665-0.058137-0.01739 0-0.02854 0.00164-0.04969 0h-0.0083zm-4.1949 1.0154c0.016892 0.02162 0.03512 0.04675 0.057588 0.05822 0.012151 0.0057 0.026137 0.0049 0.041449 0.0084 0.012397 0.0025 0.021142 0.01302 0.03304 0.01662 0.025384 0.0088 0.062338 0.0074 0.082473 0.01662 0.030878 0.01327 0.047852 0.06706 0.074489 0.08247 0.00164 0.01531-0.00499 0.02989 0 0.04119 0.012397 0.01687 0.037535 0.02186 0.057588 0.033 0.024549 0.01351 0.034874 0.04725 0.057842 0.05781 0.00832 0.0033 0.020643-0.0033 0.03304 0 0.031705 0.0095 0.038616 0.05756 0.06608 0.0497 0.017728-0.0049 0.021887-0.03251 0.024802-0.0497 0.011898-0.01327 0.022469-0.033 0.041195-0.033 0.029879-5.2e-4 0.038616 0.03701 0.049687 0.06608 0.00581 0.01638 0.020389 0.03218 0.024548 0.0497a0.43336 0.43336 0 0 1 0 0.13212c-0.00745 0.02194-0.039615 0.03357-0.057588 0.05756-0.00874 0.01163-0.018227 0.02538-0.024802 0.033-0.011652 0.01458-0.024303 0.02006-0.03304 0.033-0.00499 0.0074-0.00418 0.02301-0.00849 0.033-0.014231 0.03095-0.0367 0.05396-0.024548 0.0909 0.00499 0.01482 0.024548 0.03169 0.024548 0.0497 0 0.02112-0.045945 0.02637-0.049433 0.04946-0.00246 0.01687 0.019554 0.05175 0.024884 0.07427 0.00336 0.01687 0.031214 0.03038 0.041195 0.04151 0.016892 0.01851 0.034374 0.04201 0.049687 0.06608 0.030125 0.04651 0.044356 0.10305 0.07399 0.14851 0.015812 0.02383 0.047607 0.04094 0.058178 0.06608 0.00499 0.01237-0.00499 0.03799 0 0.0497 0.017146 0.0389 0.1012 0.07984 0.14004 0.09883 0.018473 0.0093 0.03304 0.01531 0.049687 0.02481 0.025638 0.01457 0.077985 0.04364 0.090907 0.06608 0.011652 0.02031 0.019062 0.06682 0.024802 0.0991 0.00745 0.04225-0.00164 0.0782 0 0.12393 0.00164 0.02481 0.00832 0.04094 0.00832 0.06608 0 0.0087 5.331e-4 0.02432 0 0.033-5.241e-4 0.02989 0.00246 0.06076 0 0.0909a0.34405 0.34405 0 0 0 0 0.04946c0.00164 0.01507 0.015566 0.02006 0.016647 0.033 8.189e-4 0.014-0.018227 0.03038-0.016647 0.04151 0.00336 0.03013 0.035455 0.0547 0.041195 0.08248 0.00499 0.02219 0.011071 0.07263 0.00849 0.09909-0.00246 0.014-0.00663 0.03439-0.00849 0.0497-0.00164 0.01187 0.00164 0.02195 0 0.03275-0.65823-0.4228-1.0981-1.1573-1.0981-1.9983 0-0.10781 0.010817-0.2098 0.024802-0.31392zm0.90817 0.23967c0.023222-0.01056 0.018727 0.03013 0 0.033-0.017728 0.0025-0.017146-0.02489 0-0.033z" color="#000000" fill="#fff" stroke-width=".26424"/>
</svg>
