<?xml version="1.0" encoding="UTF-8"?>
<svg width="64" height="64" version="1.1" xmlns="http://www.w3.org/2000/svg" xmlns:cc="http://creativecommons.org/ns#" xmlns:dc="http://purl.org/dc/elements/1.1/" xmlns:rdf="http://www.w3.org/1999/02/22-rdf-syntax-ns#">
 <metadata>
  <rdf:RDF>
   <cc:Work rdf:about="">
    <dc:format>image/svg+xml</dc:format>
    <dc:type rdf:resource="http://purl.org/dc/dcmitype/StillImage"/>
   </cc:Work>
  </rdf:RDF>
 </metadata>
 <defs>
  <filter id="filter2076-6" x="-.048" y="-.048" width="1.096" height="1.096" color-interpolation-filters="sRGB">
   <feGaussianBlur stdDeviation="1.1"/>
  </filter>
 </defs>
 <g transform="translate(142.21 8.494)">
  <rect transform="matrix(1 0 0 1 -142.21 -8.4942)" x="4.5" y="4.5" width="55" height="55" rx="13.002" ry="13.002" filter="url(#filter2076-6)" opacity=".3"/>
  <path d="m-124.71-3.9942c-7.2032 0-13.002 5.7987-13.002 13.002v28.996c0 7.2032 5.7987 13.002 13.002 13.002h28.996c7.2032 0 13.002-5.7987 13.002-13.002v-28.996c0-7.2032-5.7987-13.002-13.002-13.002z" fill="#212121" stroke-linecap="round" stroke-width=".3" style="paint-order:stroke fill markers"/>
  <path d="m-123.87 2.0059c-4.342 0-7.8378 3.4961-7.8378 7.8378v27.324c0 4.342 3.496 7.8378 7.8378 7.8378h27.324c4.342 0 7.8378-3.4961 7.8378-7.8378v-27.324c0-4.342-3.4961-7.8378-7.8378-7.8378z" fill="#fafafa" stroke-linecap="round" stroke-width=".3" style="paint-order:stroke fill markers"/>
  <path d="m-126.09 7.4848c0.0189 0.15353 0.0374 0.30683 0.0585 0.45971h31.658c0.01965-0.16517 0.03666-0.29666 0.05431-0.45971z" fill="#464646" opacity=".6" stroke-width="2.5595" style="paint-order:normal"/>
  <path d="m-135.59 5.0742c-1.1786 0-2.1269 0.94838-2.1269 2.1269v6.9084c0 0.08572 0.0155 0.16698 0.0253 0.25002-0.0208 2.043-0.0197 4.3719-0.0197 7.4277v0.84765h-2e-3v15.369c0 0.13777 0.0155 0.27153 0.0197 0.4082 8e-3 0.19344 0.0117 0.38771 0.0295 0.57813 0.4777 6.4087 5.5534 11.485 11.961 11.967 0.32195 0.03061 0.64797 0.04838 0.98047 0.04883 5e-3 1.2e-5 9e-3 0 0.0136 0h28.996c0.33774 0 0.66925-0.01776 0.99608-0.04883 6.3913-0.48209 11.456-5.5367 11.953-11.924 0.03288-0.3385 0.05273-0.68105 0.05273-1.0293v-15.662c6.1e-5 -0.0068 2e-3 -0.01285 2e-3 -0.01965v-6.9084c0-1.1786-0.94838-2.1269-2.1269-2.1269h-22.703c-1.0262 0-1.8297-0.06928-2.4961-0.24609-0.66642-0.17681-1.1946-0.46213-1.666-0.89062s-0.88688-1.0008-1.3281-1.7559c-0.44123-0.75505-0.90847-1.6912-1.4844-2.8477-0.27776-0.68339-0.66566-1.1803-1.0898-1.5391-0.42419-0.3588-0.88386-0.58009-1.3105-0.7168-0.85336-0.27342-1.5684-0.20508-1.5684-0.20508h-9.6505c-0.0396-0.00217-0.077-0.011717-0.1172-0.011717h-3.459z" fill="#464646"/>
 </g>
 <g transform="translate(0 -41.587)" fill="#f5f5f5" stroke-linecap="round">
  <path d="m32 71.881-10 20h3.334l10-20z"/>
  <path d="m32 90.215v1.666h10v-1.666z"/>
 </g>
</svg>
