<svg width="32" height="32" version="1.1" xmlns="http://www.w3.org/2000/svg">
 <path d="m16 1c-8.2759 0-15 6.7241-15 15s6.7241 15 15 15 15-6.7241 15-15-6.7241-15-15-15z" color="#000000" fill="#69e07f" overflow="visible"/>
 <path d="m16 8c-2.216 0-4 1.784-4 4v3c-1.108 0-2 0.892-2 2v4c0 1.108 0.892 2 2 2h8c1.108 0 2-0.892 2-2v-4c0-1.108-0.892-2-2-2v-3c0-2.216-1.784-4-4-4zm0 1c1.662 0 3 1.338 3 3v3h-6v-3c0-1.662 1.338-3 3-3z" fill="#fff" fill-rule="evenodd" style="paint-order:fill markers stroke"/>
</svg>
