<?xml version="1.0" encoding="UTF-8"?>
<svg width="32" height="32" version="1.1" xmlns="http://www.w3.org/2000/svg" xmlns:cc="http://creativecommons.org/ns#" xmlns:dc="http://purl.org/dc/elements/1.1/" xmlns:rdf="http://www.w3.org/1999/02/22-rdf-syntax-ns#">
 <metadata>
  <rdf:RDF>
   <cc:Work rdf:about="">
    <dc:format>image/svg+xml</dc:format>
    <dc:type rdf:resource="http://purl.org/dc/dcmitype/StillImage"/>
    <dc:title/>
   </cc:Work>
  </rdf:RDF>
 </metadata>
 <path d="m20.621 1.0002c9.081 0 10.379 1.387 10.379 11.108v7.7845c0 9.7205-1.2978 11.108-10.379 11.108h-9.2423c-9.081 0-10.379-1.387-10.379-11.108v-7.7845c0-9.7205 1.2978-11.108 10.379-11.108z" enable-background="new" fill="#fff" stroke-width="2.0615"/>
 <path d="m9.1246 12.946h13.752c0.34398 0 0.62366 0 0.62366-0.53793 0-0.29897-0.48328-0.57544-0.52722-0.6033l-2.5472-1.6513c-0.28932-0.18753-0.65473-0.13716-0.81761 0.11144-0.16073 0.24968-0.05784 0.60437 0.23146 0.7919l1.2548 0.81333h-11.97c-0.34505 0-0.62473 0.2411-0.62473 0.53793 0 0.2979 0.27968 0.53793 0.62473 0.53793zm13.751 6.108h-13.752c-0.34398 0-0.62366 0-0.62366 0.53794 0 0.29897 0.48328 0.57544 0.52722 0.6033l2.5471 1.6513c0.28932 0.18753 0.65473 0.13716 0.81761-0.11144 0.16073-0.24968 0.05784-0.60437-0.23146-0.79083l-1.2548-0.8144h11.97c0.34398 0 0.62473-0.24111 0.62473-0.53793 0-0.29683-0.28075-0.53794-0.62473-0.53794z" fill="#505050" stroke-width=".016743" p-id="13423"/>
</svg>
