<?xml version="1.0" encoding="UTF-8"?>
<svg width="32" height="32" version="1.1" xmlns="http://www.w3.org/2000/svg" xmlns:cc="http://creativecommons.org/ns#" xmlns:dc="http://purl.org/dc/elements/1.1/" xmlns:rdf="http://www.w3.org/1999/02/22-rdf-syntax-ns#">
 <metadata>
  <rdf:RDF>
   <cc:Work rdf:about="">
    <dc:format>image/svg+xml</dc:format>
    <dc:type rdf:resource="http://purl.org/dc/dcmitype/StillImage"/>
    <dc:title/>
   </cc:Work>
  </rdf:RDF>
 </metadata>
 <path d="m20.621 1.0002c9.081 0 10.379 1.387 10.379 11.108v7.7845c0 9.7205-1.2978 11.108-10.379 11.108h-9.2423c-9.081 0-10.379-1.387-10.379-11.108v-7.7845c0-9.7205 1.2978-11.108 10.379-11.108z" enable-background="new" fill="#fff" stroke-width="2.0615"/>
 <g transform="matrix(.017549 0 0 .017564 7.0149 7.0066)" fill="#505050">
  <path d="m511.94 939.05c-114.17 0-221.48-44.477-302.16-125.16-80.679-80.808-125.16-188.12-125.16-302.16 0-227.04 177.39-414.38 403.91-426.67 7.8869-0.38788 15.515 2.7152 20.687 8.6626s7.499 13.834 6.2061 21.592c-4.0081 24.048-6.0768 48.743-6.0768 73.438 0 126.32 29.22 221.74 84.558 275.78 39.564 38.659 93.996 57.406 161.62 55.855 51.329-1.1636 99.556-21.204 139.38-57.794 7.2404-6.7232 17.842-8.6626 27.022-5.0424 9.1798 3.6202 15.515 12.283 16.291 22.109 0.77576 10.602 1.1636 21.463 1.1636 32.065 0 114.17-44.477 221.48-125.16 302.16-80.808 80.679-188.12 125.16-302.29 125.16zm-51.976-799.42c-183.85 25.341-323.62 183.08-323.62 372.11 0 207.13 168.47 375.6 375.6 375.6 199.89 0 363.83-156.96 374.95-354.13-39.564 24.436-83.782 37.754-130.33 38.788-82.101 1.9394-149.07-21.851-198.98-70.594-34.909-34.133-61.156-80.42-77.834-137.44-14.739-50.295-22.238-109.38-22.238-175.32 0.12929-16.42 0.90505-32.711 2.4566-49.002z" p-id="13793"/>
  <path d="m848.1 367.71h-216.31c-10.473 0-19.911-6.3354-23.919-16.032s-1.6808-20.945 5.8182-28.186l137.44-135.11h-121.66c-14.222 0-25.859-11.636-25.859-25.859s11.636-25.859 25.859-25.859h184.89c10.473 0 19.911 6.3354 23.919 16.032s1.6808 20.945-5.8182 28.186l-137.44 135.11h153.08c14.222 0 25.859 11.636 25.859 25.859 0 14.222-11.636 25.859-25.859 25.859z" p-id="13794"/>
 </g>
</svg>
