<?xml version="1.0" encoding="UTF-8"?>
<svg width="32" height="32" version="1.1" xmlns="http://www.w3.org/2000/svg" xmlns:cc="http://creativecommons.org/ns#" xmlns:dc="http://purl.org/dc/elements/1.1/" xmlns:rdf="http://www.w3.org/1999/02/22-rdf-syntax-ns#">
 <metadata>
  <rdf:RDF>
   <cc:Work rdf:about="">
    <dc:format>image/svg+xml</dc:format>
    <dc:type rdf:resource="http://purl.org/dc/dcmitype/StillImage"/>
    <dc:title/>
   </cc:Work>
  </rdf:RDF>
 </metadata>
 <path d="m20.621 1.0002c9.081 0 10.379 1.387 10.379 11.108v7.7845c0 9.7205-1.2978 11.108-10.379 11.108h-9.2423c-9.081 0-10.379-1.387-10.379-11.108v-7.7845c0-9.7205 1.2978-11.108 10.379-11.108z" enable-background="new" fill="#fff" stroke-width="2.0615"/>
 <g transform="matrix(.016753 0 0 .016753 7.4198 7.4172)" fill="#505050">
  <path d="m927.89 480.29h-0.0102c-17.652 0-31.968 14.306-31.973 31.962-0.0256 66.875-17.823 133.02-51.467 191.3-51.233 88.737-133.95 152.21-232.93 178.73-98.978 26.509-202.35 12.906-291.09-38.327-88.737-51.233-152.21-133.95-178.73-232.93-26.519-98.973-12.911-202.35 38.322-291.09 63.815-110.53 178.04-181.9 305.54-190.92 17.615-1.2484 30.885-16.538 29.641-34.148-1.2495-17.615-16.569-30.849-34.148-29.641-148.72 10.518-281.96 93.78-356.42 222.73-59.77 103.53-75.648 224.14-44.71 339.61 30.943 115.47 105 211.98 208.53 271.75 68.963 39.815 145.5 60.152 223.05 60.152 38.868 0 78.007-5.1104 116.56-15.44 115.47-30.943 211.98-104.99 271.75-208.53 39.243-67.973 60.002-145.17 60.032-223.25 5e-3 -17.657-14.306-31.978-31.963-31.983z" p-id="1575"/>
  <path d="m614.24 149.88h205.2l-226.14 196.02c-10.086 8.7421-13.682 22.83-9.0133 35.34 4.6632 12.505 16.605 20.795 29.954 20.795h290.9c17.657 0 31.973-14.316 31.973-31.973s-14.316-31.973-31.973-31.973h-205.2l226.14-196.02c10.085-8.7421 13.682-22.83 9.0133-35.34-4.6632-12.505-16.605-20.795-29.954-20.795h-290.9c-17.657 0-31.973 14.316-31.973 31.973s14.316 31.973 31.973 31.973z" p-id="1576"/>
  <path d="m355.53 498.61v31.166c0 17.657 14.316 31.973 31.973 31.973s31.973-14.316 31.973-31.973v-31.166c0-17.657-14.316-31.973-31.973-31.973s-31.973 14.316-31.973 31.973z" p-id="1577"/>
  <path d="m604.87 498.61v31.166c0 17.657 14.316 31.973 31.973 31.973s31.973-14.316 31.973-31.973v-31.166c0-17.657-14.316-31.973-31.973-31.973s-31.973 14.316-31.973 31.973z" p-id="1578"/>
  <path d="m479.33 613.9c-9.3929-14.763-28.939-19.234-43.837-9.9864-15.003 9.3203-19.609 29.032-10.288 44.03 11.277 18.151 42.22 48.865 86.661 48.865 44.213 0 75.534-30.479 87.072-48.49 9.4349-14.733 5.1575-34.127-9.4502-43.755-14.603-9.617-34.367-5.5422-44.181 8.9355-0.13508 0.19238-13.368 19.364-33.441 19.364-19.494 0-31.687-17.698-32.535-18.963z" p-id="1579"/>
 </g>
</svg>
