<?xml version="1.0" encoding="UTF-8" standalone="no"?>
<svg
   xmlns:dc="http://purl.org/dc/elements/1.1/"
   xmlns:cc="http://creativecommons.org/ns#"
   xmlns:rdf="http://www.w3.org/1999/02/22-rdf-syntax-ns#"
   xmlns:svg="http://www.w3.org/2000/svg"
   xmlns="http://www.w3.org/2000/svg"
   xmlns:sodipodi="http://sodipodi.sourceforge.net/DTD/sodipodi-0.dtd"
   xmlns:inkscape="http://www.inkscape.org/namespaces/inkscape"
   inkscape:version="1.0 (4035a4fb49, 2020-05-01)"
   sodipodi:docname="folder-video.svg"
   id="svg29"
   viewBox="0 0 16.933 16.933"
   version="1.1"
   height="64"
   width="64">
  <sodipodi:namedview
     inkscape:current-layer="svg29"
     inkscape:window-maximized="1"
     inkscape:window-y="65"
     inkscape:window-x="0"
     inkscape:cy="28.348431"
     inkscape:cx="-4.2896102"
     inkscape:zoom="5.734375"
     showgrid="false"
     id="namedview31"
     inkscape:window-height="903"
     inkscape:window-width="1920"
     inkscape:pageshadow="2"
     inkscape:pageopacity="0"
     guidetolerance="10"
     gridtolerance="10"
     objecttolerance="10"
     borderopacity="1"
     bordercolor="#666666"
     pagecolor="#ffffff" />
  <defs
     id="defs5">
    <filter
       color-interpolation-filters="sRGB"
       height="1.048"
       width="1.048"
       y="-.024"
       x="-.024"
       id="filter2761">
      <feGaussianBlur
         id="feGaussianBlur2"
         stdDeviation="0.14552168" />
    </filter>
  </defs>
  <metadata
     id="metadata7">
    <rdf:RDF>
      <cc:Work
         rdf:about="">
        <dc:format>image/svg+xml</dc:format>
        <dc:type
           rdf:resource="http://purl.org/dc/dcmitype/StillImage" />
        <dc:title></dc:title>
      </cc:Work>
    </rdf:RDF>
  </metadata>
  <path
     id="path9"
     opacity=".3"
     filter="url(#filter2761)"
     fill="#141414"
     enable-background="new"
     d="m10.709 1.05c4.405 0 5.0345 0.67282 5.0345 5.388v3.7761c0 4.7152-0.62954 5.388-5.0345 5.388h-4.4832c-4.405 0-5.0346-0.6728-5.0346-5.388v-3.7761c0-4.7152 0.62954-5.388 5.0346-5.388z" />
  <path
     id="path11"
     fill="#212121"
     enable-background="new"
     d="m10.709 0.97579c4.405 0 5.0345 0.67282 5.0345 5.388v3.7761c0 4.7152-0.62954 5.388-5.0345 5.388h-4.4832c-4.405 0-5.0346-0.6728-5.0346-5.388v-3.7761c0-4.7152 0.62954-5.388 5.0346-5.388z" />
  <path
     id="path13"
     stroke-width=".8574"
     fill="#fafafa"
     enable-background="new"
     d="m10.389 2.0134c3.7768 0 4.3166 0.57688 4.3166 4.6197v3.2376c0 4.0428-0.53977 4.6197-4.3166 4.6197h-3.8439c-3.7768 0-4.3167-0.57686-4.3167-4.6197v-3.2376c0-4.0428 0.53977-4.6197 4.3167-4.6197z" />
  <g
     id="g23"
     fill="#464646"
     transform="matrix(1.3006 0 0 1.34 -2.5449 -2.4261)">
    <path
       id="path15"
       style="paint-order:normal"
       stroke-width=".60512"
       opacity=".6"
       d="m3.9856 6.9374c-0.00585 0.029589-0.00947 0.060448-0.015081 0.09077h8.9931c-0.0053-0.030317-0.0092-0.061202-0.01567-0.09077z" />
    <path
       id="path17"
       style="paint-order:normal"
       stroke-width=".59404"
       opacity=".6"
       d="m4.1332 4.9655c0.00521 0.030317 0.010173 0.060579 0.015962 0.09077h8.6371c0.0054-0.032616 0.01-0.058576 0.01482-0.09077z" />
    <path
       id="path19"
       style="paint-order:normal"
       stroke-width=".60512"
       opacity=".6"
       d="m3.9856 8.9093c-0.00585 0.029589-0.00947 0.060448-0.015081 0.09077h8.9931c-0.0053-0.030317-0.0092-0.061202-0.01567-0.09077z" />
    <path
       id="path21"
       style="paint-order:normal"
       stroke-width=".60512"
       opacity=".6"
       d="m3.9856 10.881c-0.00585 0.02959-0.00947 0.06045-0.015081 0.09077h8.9931c-0.0053-0.03032-0.0092-0.0612-0.01567-0.09077z" />
  </g>
  <path
     id="path25"
     stroke-width=".90562"
     fill="#464646"
     enable-background="new"
     d="m3.4739 3.5929c-2.4228 0-2.2827-0.28116-2.2827 4.4191v3.0968c3e-6 3.8671 0.62974 4.4191 5.0347 4.4191h4.4834c4.405 0 5.0342-0.55196 5.0342-4.4191v-3.0968c0-2.3235 0.0505-2.2492-1.2779-2.2492h-5.2916c-1.0861 0-1.2361-0.29501-1.8456-1.5189-0.29396-0.72325-1.0501-0.65098-1.0501-0.65098z" />
  <path
     style="stroke-width:0.889754"
     id="path27"
     fill="#ffffff"
     color="#000000"
     d="m 11.112281,7.8746 v 5.2916 h -0.220478 v -0.2785 l -0.440963,7e-5 V 13.1662 H 6.4821604 V 12.88769 H 6.0411968 v 0.2785 H 5.820719 v -5.2916 h 0.2204778 v 0.41775 l 0.4409636,-6.96e-5 v -0.41768 H 10.45084 v 0.41769 l 0.440963,6.96e-5 V 7.8746 Z M 10.23037,8.15297 H 6.702646 l 5.1e-6,2.2282 h 3.5277239 z m 0.661441,0.55714 h -0.440963 v 0.41775 h 0.440963 z m -4.4096348,0 H 6.0412126 v 0.41775 h 0.4409636 z m 4.4096348,0.83551 h -0.440963 v 0.41775 h 0.440963 z m -4.4096348,0 H 6.0412126 v 0.41775 h 0.4409636 z m 4.4096348,0.83551 h -0.440963 v 0.41775 h 0.440963 z m -4.4096348,0 H 6.0412126 v 0.41775 H 6.4821762 Z M 10.230378,10.6595 H 6.7026539 l -4.9e-6,2.2283 h 3.527724 z m 0.661433,0.55714 h -0.440963 v 0.41775 h 0.440963 z m -4.4096348,0 H 6.0412126 v 0.41775 h 0.4409636 z m 4.4096348,0.83551 h -0.440963 v 0.41775 h 0.440963 z m -4.4096348,0 H 6.0412126 v 0.41775 h 0.4409636 z" />
</svg>
