<?xml version="1.0" encoding="UTF-8"?>
<svg width="64" height="64" version="1.1" viewBox="0 0 16.933 16.933" xmlns="http://www.w3.org/2000/svg" xmlns:cc="http://creativecommons.org/ns#" xmlns:dc="http://purl.org/dc/elements/1.1/" xmlns:rdf="http://www.w3.org/1999/02/22-rdf-syntax-ns#">
 <metadata>
  <rdf:RDF>
   <cc:Work rdf:about="">
    <dc:format>image/svg+xml</dc:format>
    <dc:type rdf:resource="http://purl.org/dc/dcmitype/StillImage"/>
    <dc:title/>
   </cc:Work>
  </rdf:RDF>
 </metadata>
 <defs>
  <filter id="filter2761" x="-.024" y="-.024" width="1.048" height="1.048" color-interpolation-filters="sRGB">
   <feGaussianBlur stdDeviation="0.14552168"/>
  </filter>
  <linearGradient id="linearGradient1024-6" x1="1.3315" x2="15.65" y1="15.576" y2="1.17" gradientTransform="translate(.084 .1879)" gradientUnits="userSpaceOnUse">
   <stop stop-color="#dddfe1" offset="0"/>
   <stop stop-color="#f3f4f6" stop-opacity=".99608" offset="1"/>
  </linearGradient>
 </defs>
 <path d="m10.793 1.2379c4.405 0 5.0345 0.67282 5.0345 5.388v3.7761c0 4.7152-0.62954 5.388-5.0345 5.388h-4.4832c-4.405 0-5.0346-0.6728-5.0346-5.388v-3.7761c0-4.7152 0.62954-5.388 5.0346-5.388z" enable-background="new" fill="#141414" filter="url(#filter2761)" opacity=".3"/>
 <path d="m10.793 1.2379c4.405 0 5.0345 0.67282 5.0345 5.388v3.7761c0 4.7152-0.62954 5.388-5.0345 5.388h-4.4832c-4.405 0-5.0346-0.6728-5.0346-5.388v-3.7761c0-4.7152 0.62954-5.388 5.0346-5.388z" enable-background="new" fill="url(#linearGradient1024-6)"/>
 <g transform="translate(-.20215 .33432)" fill="#d2d2d2" stroke-width=".27968">
  <rect x="3.4395" y="2.8656" width=".55937" height=".55937" rx=".41953" ry=".41953"/>
  <rect x="13.508" y="2.8656" width=".55937" height=".55937" rx=".41953" ry=".41953"/>
  <rect x="13.508" y="12.934" width=".55937" height=".55937" rx=".41953" ry=".41953"/>
  <rect x="3.4395" y="12.934" width=".55937" height=".55937" rx=".41953" ry=".41953"/>
 </g>
 <path d="m8.5514 2.8255a5.6885 5.6885 0 0 0-5.6885 5.6885 5.6885 5.6885 0 0 0 5.6885 5.6885 5.6885 5.6885 0 0 0 5.6885-5.6885 5.6885 5.6885 0 0 0-5.6885-5.6885zm0 3.8364a1.8521 1.8521 0 0 1 0.185 0.0093 1.8521 1.8521 0 0 1 0.18293 0.027389 1.8521 1.8521 0 0 1 0.17931 0.045992 1.8521 1.8521 0 0 1 0.17415 0.06356 1.8521 1.8521 0 0 1 0.1664 0.080615 1.8521 1.8521 0 0 1 0.15813 0.096635 1.8521 1.8521 0 0 1 0.14728 0.11214 1.8521 1.8521 0 0 1 0.13539 0.12609 1.8521 1.8521 0 0 1 0.12247 0.13901 1.8521 1.8521 0 0 1 0.10748 0.15038 1.8521 1.8521 0 0 1 0.09198 0.16071 1.8521 1.8521 0 0 1 0.07596 0.16898 1.8521 1.8521 0 0 1 0.05839 0.1757 1.8521 1.8521 0 0 1 0.04031 0.18086 1.8521 1.8521 0 0 1 0.02222 0.18345 1.8521 1.8521 0 0 1 0.0047 0.13126 1.8521 1.8521 0 0 1-0.0093 0.185 1.8521 1.8521 0 0 1-0.02739 0.18293 1.8521 1.8521 0 0 1-0.04599 0.17932 1.8521 1.8521 0 0 1-0.06356 0.17363 1.8521 1.8521 0 0 1-0.08062 0.16691 1.8521 1.8521 0 0 1-0.09663 0.15813 1.8521 1.8521 0 0 1-0.11214 0.14728 1.8521 1.8521 0 0 1-0.12609 0.13539 1.8521 1.8521 0 0 1-0.13901 0.12196 1.8521 1.8521 0 0 1-0.15038 0.108 1.8521 1.8521 0 0 1-0.16071 0.09198 1.8521 1.8521 0 0 1-0.16898 0.07545 1.8521 1.8521 0 0 1-0.1757 0.05839 1.8521 1.8521 0 0 1-0.18086 0.04082 1.8521 1.8521 0 0 1-0.18345 0.02222 1.8521 1.8521 0 0 1-0.13126 0.0047 1.8521 1.8521 0 0 1-0.185-0.0093 1.8521 1.8521 0 0 1-0.18293-0.02791 1.8521 1.8521 0 0 1-0.17932-0.04547 1.8521 1.8521 0 0 1-0.17363-0.06356 1.8521 1.8521 0 0 1-0.16691-0.08061 1.8521 1.8521 0 0 1-0.15761-0.09664 1.8521 1.8521 0 0 1-0.14779-0.11214 1.8521 1.8521 0 0 1-0.13539-0.12609 1.8521 1.8521 0 0 1-0.12196-0.13901 1.8521 1.8521 0 0 1-0.108-0.15089 1.8521 1.8521 0 0 1-0.09198-0.1602 1.8521 1.8521 0 0 1-0.07545-0.16898 1.8521 1.8521 0 0 1-0.05839-0.1757 1.8521 1.8521 0 0 1-0.04082-0.18086 1.8521 1.8521 0 0 1-0.02222-0.18396 1.8521 1.8521 0 0 1-0.0047-0.13074 1.8521 1.8521 0 0 1 0.0093-0.185 1.8521 1.8521 0 0 1 0.0279-0.18293 1.8521 1.8521 0 0 1 0.04547-0.17931 1.8521 1.8521 0 0 1 0.06356-0.17415 1.8521 1.8521 0 0 1 0.08062-0.1664 1.8521 1.8521 0 0 1 0.09663-0.15813 1.8521 1.8521 0 0 1 0.11214-0.14728 1.8521 1.8521 0 0 1 0.12609-0.13539 1.8521 1.8521 0 0 1 0.13901-0.12247 1.8521 1.8521 0 0 1 0.15089-0.10749 1.8521 1.8521 0 0 1 0.16071-0.091984 1.8521 1.8521 0 0 1 0.16898-0.075964 1.8521 1.8521 0 0 1 0.17518-0.058393 1.8521 1.8521 0 0 1 0.18086-0.040306 1.8521 1.8521 0 0 1 0.18396-0.022219 1.8521 1.8521 0 0 1 0.13074-0.00465z" fill="#323232" stroke="#fafafa" stroke-width=".26458"/>
</svg>
