<?xml version="1.0" encoding="UTF-8"?>
<svg width="64" height="64" version="1.1" viewBox="0 0 16.933 16.933" xmlns="http://www.w3.org/2000/svg" xmlns:cc="http://creativecommons.org/ns#" xmlns:dc="http://purl.org/dc/elements/1.1/" xmlns:rdf="http://www.w3.org/1999/02/22-rdf-syntax-ns#">
 <metadata>
  <rdf:RDF>
   <cc:Work rdf:about="">
    <dc:format>image/svg+xml</dc:format>
    <dc:type rdf:resource="http://purl.org/dc/dcmitype/StillImage"/>
    <dc:title/>
   </cc:Work>
  </rdf:RDF>
 </metadata>
 <defs>
  <filter id="filter2761" x="-.024" y="-.024" width="1.048" height="1.048" color-interpolation-filters="sRGB">
   <feGaussianBlur stdDeviation="0.14552168"/>
  </filter>
  <linearGradient id="linearGradient1024-6" x1="1.3315" x2="15.65" y1="15.576" y2="1.17" gradientTransform="translate(.084 .1879)" gradientUnits="userSpaceOnUse">
   <stop stop-color="#dddfe1" offset="0"/>
   <stop stop-color="#f3f4f6" stop-opacity=".99608" offset="1"/>
  </linearGradient>
 </defs>
 <path d="m10.793 1.2379c4.405 0 5.0345 0.67282 5.0345 5.388v3.7761c0 4.7152-0.62954 5.388-5.0345 5.388h-4.4832c-4.405 0-5.0346-0.6728-5.0346-5.388v-3.7761c0-4.7152 0.62954-5.388 5.0346-5.388z" enable-background="new" fill="#141414" filter="url(#filter2761)" opacity=".3"/>
 <path d="m10.793 1.2379c4.405 0 5.0345 0.67282 5.0345 5.388v3.7761c0 4.7152-0.62954 5.388-5.0345 5.388h-4.4832c-4.405 0-5.0346-0.6728-5.0346-5.388v-3.7761c0-4.7152 0.62954-5.388 5.0346-5.388z" enable-background="new" fill="url(#linearGradient1024-6)"/>
 <g transform="translate(-.20215 .33432)" fill="#d2d2d2" stroke-width=".27968">
  <rect x="3.4395" y="2.8656" width=".55937" height=".55937" rx=".41953" ry=".41953"/>
  <rect x="13.508" y="2.8656" width=".55937" height=".55937" rx=".41953" ry=".41953"/>
  <rect x="13.508" y="12.934" width=".55937" height=".55937" rx=".41953" ry=".41953"/>
  <rect x="3.4395" y="12.934" width=".55937" height=".55937" rx=".41953" ry=".41953"/>
 </g>
 <path d="m10.947 6.1253c0-0.33309-0.26946-0.60255-0.60068-0.60255s-0.60068 0.26946-0.60068 0.60068c0 0.22642 0.12538 0.42478 0.31063 0.5277 0.02433 0.028069 0.04117 0.084207 0.04117 0.11228v0.00749c-0.01497 0.32934-0.07111 0.59693-0.13286 0.78032-0.08046 0.23578-0.71482 0.74102-0.9637 0.78968-0.10853 0.022455-0.14783-0.011228-0.14783-0.19087v-2.6273c0-0.028069 0.0037-0.065494 0.03555-0.093564 0.16093-0.10853 0.26759-0.29192 0.26759-0.5015 0-0.33309-0.26946-0.60255-0.60068-0.60255s-0.60068 0.26946-0.60068 0.60255c0 0.21145 0.10853 0.39858 0.2732 0.50524l0.0019 0.00187c0.0019 0.00187 0.0037 0.00187 0.0075 0.00374 0.0037 0.00187 0.0075 0.00374 0.01123 0.00749 0.04304 0.028069 0.06175 0.056138 0.06175 0.078593v3.6733c0 0.13099-0.02058 0.23016-0.15719 0.22081-0.1366-0.0094-0.78032-0.43975-0.96183-0.82523-0.08421-0.17777-0.12725-0.3518-0.12725-0.52396v-0.00936c0-0.058009 0-0.21145 0.05988-0.25449 0.14596-0.1104 0.23952-0.28443 0.23952-0.48092 0-0.33309-0.26946-0.60255-0.60068-0.60255s-0.60629 0.26572-0.60629 0.59881c0 0.22268 0.12163 0.41729 0.2994 0.52021 0.04491 0.028069 0.05614 0.054267 0.07111 0.19835 0.01497 0.14409 0.05614 0.46033 0.17028 0.74664 0.1366 0.34806 0.3911 0.61003 0.74289 0.84581 0.25449 0.17403 0.47343 0.31063 0.60068 0.49402 0.12725 0.18338 0.19087 0.25262 0.19087 0.50524 0 0.23952-0.07485 0.26198-0.17403 0.33309-0.26385 0.1628-0.43975 0.45285-0.43975 0.78593v0.0206c0 0.5146 0.41729 0.93189 0.93189 0.93189s0.93189-0.41729 0.93189-0.93189c0-0.24888-0.0973-0.4753-0.25636-0.64184-0.05427-0.05988-0.11228-0.11228-0.17964-0.15532-0.14034-0.09731-0.19274-0.2152-0.19274-0.3387v-0.45099c0-0.46969 0.07672-0.76909 0.20771-0.99739 0.1366-0.23765 0.34244-0.42291 0.66243-0.63997 0.3518-0.23578 0.60255-0.49776 0.74102-0.84581 0.10666-0.26946 0.14222-0.58009 0.16093-0.95248 0.0019-0.033683 0.0262-0.10853 0.06175-0.12725 0.15532-0.10853 0.26011-0.29005 0.26011-0.49589z" fill="#323232" stroke-width=".027926"/>
</svg>
