<?xml version="1.0" encoding="UTF-8" standalone="no"?>
<svg
   width="64"
   height="64"
   version="1.1"
   id="svg93"
   sodipodi:docname="drive-multipartition.svg"
   inkscape:version="1.4 (e7c3feb100, 2024-10-09)"
   xmlns:inkscape="http://www.inkscape.org/namespaces/inkscape"
   xmlns:sodipodi="http://sodipodi.sourceforge.net/DTD/sodipodi-0.dtd"
   xmlns:xlink="http://www.w3.org/1999/xlink"
   xmlns="http://www.w3.org/2000/svg"
   xmlns:svg="http://www.w3.org/2000/svg">
  <sodipodi:namedview
     id="namedview93"
     pagecolor="#505050"
     bordercolor="#eeeeee"
     borderopacity="1"
     inkscape:showpageshadow="0"
     inkscape:pageopacity="0"
     inkscape:pagecheckerboard="0"
     inkscape:deskcolor="#505050"
     inkscape:zoom="9.125"
     inkscape:cx="41.643836"
     inkscape:cy="28.931507"
     inkscape:window-width="2560"
     inkscape:window-height="1411"
     inkscape:window-x="0"
     inkscape:window-y="0"
     inkscape:window-maximized="1"
     inkscape:current-layer="svg93" />
  <defs
     id="defs31">
    <linearGradient
       id="k"
       x1="32"
       x2="32"
       y1="41"
       y2="23"
       gradientTransform="matrix(1.1538,0,0,1.1538,-4.923,-4.923)"
       gradientUnits="userSpaceOnUse"
       xlink:href="#a" />
    <linearGradient
       id="m-2"
       x1="38.364"
       x2="39.951"
       y1="15.17"
       y2="15.17"
       gradientTransform="matrix(7.3154,0,0,7.3154,-196.59123,-58)"
       gradientUnits="userSpaceOnUse">
      <stop
         stop-color="#2d2e30"
         offset="0"
         id="stop1" />
      <stop
         stop-color="#5d5c5b"
         stop-opacity="0"
         offset=".334"
         id="stop2" />
      <stop
         stop-color="#7a7b7b"
         stop-opacity="0"
         offset=".502"
         id="stop3" />
      <stop
         stop-color="#555"
         stop-opacity="0"
         offset=".686"
         id="stop4" />
      <stop
         stop-color="#333"
         offset="1"
         id="stop5" />
    </linearGradient>
    <linearGradient
       id="n-6"
       x1="38.364"
       x2="39.951"
       y1="15.17"
       y2="15.17"
       gradientTransform="matrix(7.3154,0,0,7.3154,-152.07123,-58)"
       gradientUnits="userSpaceOnUse">
      <stop
         stop-color="#2d2e30"
         offset="0"
         id="stop6" />
      <stop
         stop-color="#5d5c5b"
         stop-opacity="0"
         offset=".334"
         id="stop7" />
      <stop
         stop-color="#7a7b7b"
         stop-opacity="0"
         offset=".502"
         id="stop8" />
      <stop
         stop-color="#555"
         stop-opacity="0"
         offset=".686"
         id="stop9" />
      <stop
         stop-color="#70787e"
         offset="1"
         id="stop10" />
    </linearGradient>
    <linearGradient
       id="o-1"
       x1="50.27"
       x2="50.27"
       y1="14.816"
       y2="8.731"
       gradientTransform="matrix(7.3154,0,0,7.3154,-255.41123,-59.935)"
       gradientUnits="userSpaceOnUse">
      <stop
         stop-color="#c0d5dc"
         offset="0"
         id="stop11" />
      <stop
         stop-color="#9ea5a8"
         offset="1"
         id="stop12" />
    </linearGradient>
    <linearGradient
       id="p-8"
       x1="285.3"
       x2="177.35"
       y1="58.879"
       y2="58.879"
       gradientTransform="matrix(0.3932,0,0,0.3932,21.342767,0.793)"
       gradientUnits="userSpaceOnUse">
      <stop
         stop-color="#3e3f41"
         offset="0"
         id="stop13" />
      <stop
         stop-color="#f6f7f7"
         offset=".148"
         id="stop14" />
      <stop
         stop-color="#8396a5"
         offset=".55"
         id="stop15" />
      <stop
         stop-color="#50484b"
         offset="1"
         id="stop16" />
    </linearGradient>
    <linearGradient
       id="q-7"
       x1="237.32"
       x2="239.69"
       y1="18.634"
       y2="111.87"
       gradientTransform="matrix(0.3932,0,0,0.3932,21.342767,0.793)"
       gradientUnits="userSpaceOnUse">
      <stop
         stop-color="#9fa6aa"
         offset="0"
         id="stop17" />
      <stop
         stop-color="#c2d5dc"
         offset="1"
         id="stop18" />
    </linearGradient>
    <linearGradient
       id="r-9"
       x1="144.66"
       x2="174.56"
       y1="55.562"
       y2="55.562"
       gradientTransform="matrix(1.9355,0,0,1.9355,-196.59123,-58)"
       gradientUnits="userSpaceOnUse"
       xlink:href="#a-2" />
    <linearGradient
       id="a-2">
      <stop
         stop-color="#868f93"
         offset="0"
         id="stop19" />
      <stop
         stop-color="#939b9d"
         offset=".056"
         id="stop20" />
      <stop
         stop-color="#7c7a74"
         offset=".115"
         id="stop21" />
      <stop
         stop-color="#918b7f"
         offset=".505"
         id="stop22" />
      <stop
         stop-color="#656866"
         offset=".915"
         id="stop23" />
      <stop
         stop-color="#8f9ea5"
         offset=".962"
         id="stop24" />
      <stop
         stop-color="#98aab4"
         offset="1"
         id="stop25" />
    </linearGradient>
    <linearGradient
       id="s-0"
       x1="144.66"
       x2="174.56"
       y1="55.562"
       y2="55.562"
       gradientTransform="matrix(1.9355,0,0,1.9355,-196.59123,-48.322)"
       gradientUnits="userSpaceOnUse"
       xlink:href="#a-2" />
    <linearGradient
       id="f-2"
       x1="120.59"
       x2="118.64"
       y1="137.54"
       y2="139.07"
       gradientTransform="matrix(0.3932,0,0,0.3932,-17.752,1.088)"
       gradientUnits="userSpaceOnUse"
       xlink:href="#b-3" />
    <linearGradient
       id="b-3">
      <stop
         offset="0"
         id="stop26" />
      <stop
         stop-color="#313131"
         offset="1"
         id="stop27" />
    </linearGradient>
    <linearGradient
       id="g-7"
       x1="120.59"
       x2="118.64"
       y1="137.54"
       y2="139.07"
       gradientTransform="matrix(0.3932,0,0,0.3932,-15.285,1.088)"
       gradientUnits="userSpaceOnUse"
       xlink:href="#b-3" />
    <linearGradient
       id="h-5"
       x1="120.59"
       x2="118.64"
       y1="137.54"
       y2="139.07"
       gradientTransform="matrix(0.3932,0,0,0.3932,-12.819,1.088)"
       gradientUnits="userSpaceOnUse"
       xlink:href="#b-3" />
    <linearGradient
       id="i-9"
       x1="120.59"
       x2="118.64"
       y1="137.54"
       y2="139.07"
       gradientTransform="matrix(0.3932,0,0,0.3932,-10.353,1.088)"
       gradientUnits="userSpaceOnUse"
       xlink:href="#b-3" />
    <linearGradient
       id="j-2"
       x1="120.59"
       x2="118.64"
       y1="137.54"
       y2="139.07"
       gradientTransform="matrix(0.3932,0,0,0.3932,-7.887,1.088)"
       gradientUnits="userSpaceOnUse"
       xlink:href="#b-3" />
    <linearGradient
       id="k-2"
       x1="120.59"
       x2="118.64"
       y1="137.54"
       y2="139.07"
       gradientTransform="matrix(0.3932,0,0,0.3932,-5.42,1.088)"
       gradientUnits="userSpaceOnUse"
       xlink:href="#b-3" />
    <linearGradient
       id="l-8"
       x1="120.59"
       x2="118.64"
       y1="137.54"
       y2="139.07"
       gradientTransform="matrix(0.3932,0,0,0.3932,-2.955,1.088)"
       gradientUnits="userSpaceOnUse"
       xlink:href="#b-3" />
    <linearGradient
       id="d-9"
       x1="50.27"
       x2="50.27"
       y1="15.081"
       y2="14.023"
       gradientTransform="matrix(7.3154,0,0,7.3154,-335.74,-50.258)"
       gradientUnits="userSpaceOnUse">
      <stop
         stop-color="#404041"
         offset="0"
         id="stop28" />
      <stop
         stop-color="#1e1e1e"
         offset="1"
         id="stop29" />
    </linearGradient>
    <linearGradient
       id="e-7"
       x1="242.09"
       x2="173.32"
       y1="131.04"
       y2="131.04"
       gradientTransform="matrix(0.3932,0,0,0.3932,-58.986,0.793)"
       gradientUnits="userSpaceOnUse">
      <stop
         stop-color="#8a8a8a"
         offset="0"
         id="stop30" />
      <stop
         stop-color="#3d3c3c"
         offset="1"
         id="stop31" />
    </linearGradient>
    <filter
       id="c-3"
       x="-0.025256761"
       y="-0.029044375"
       width="1.0505135"
       height="1.0580887"
       color-interpolation-filters="sRGB">
      <feGaussianBlur
         stdDeviation=".609"
         id="feGaussianBlur31" />
    </filter>
    <filter
       id="filter861"
       x="-0.027"
       y="-0.027"
       width="1.054"
       height="1.054"
       color-interpolation-filters="sRGB">
      <feGaussianBlur
         stdDeviation="0.16371"
         id="feGaussianBlur22" />
    </filter>
    <linearGradient
       id="linearGradient1448"
       x1="3.9686999"
       x2="3.9686999"
       y1="16.403999"
       y2="2.6458001"
       gradientTransform="matrix(3.4646478,0,0,3.4646478,2.66628,2.666281)"
       gradientUnits="userSpaceOnUse">
      <stop
         stop-color="#737878"
         offset="0"
         id="stop17-3" />
      <stop
         stop-color="#d2e1e6"
         offset="1"
         id="stop19-6" />
    </linearGradient>
    <linearGradient
       id="linearGradient2244"
       x1="53.490002"
       x2="69.710999"
       y1="1029.6"
       y2="983.83002"
       gradientTransform="matrix(0.6060643,0,0,0.6060643,2.9089318,-576.87149)"
       gradientUnits="userSpaceOnUse">
      <stop
         stop-color="#83898b"
         offset="0"
         id="stop84" />
      <stop
         stop-color="#6f7677"
         offset=".1904"
         id="stop86" />
      <stop
         stop-color="#c2cfd3"
         offset=".39515"
         id="stop88" />
      <stop
         stop-color="#e6eef0"
         offset="1"
         id="stop90" />
    </linearGradient>
    <linearGradient
       id="linearGradient2242"
       x1="69.75"
       x2="69.75"
       y1="1001.1"
       y2="972.10999"
       gradientTransform="matrix(0.6060643,0,0,0.6060643,4.1213811,-575.40546)"
       gradientUnits="userSpaceOnUse">
      <stop
         stop-color="#d2dde0"
         offset="0"
         id="stop77" />
      <stop
         stop-color="#e0e8ea"
         offset=".35345"
         id="stop79" />
      <stop
         stop-color="#dbe5e7"
         offset="1"
         id="stop81" />
    </linearGradient>
    <linearGradient
       id="linearGradient2240"
       x1="50.911999"
       x2="50.911999"
       y1="1025.5"
       y2="988.02002"
       gradientTransform="matrix(0.57823272,0,0,0.55940345,4.2446189,-530.07319)"
       gradientUnits="userSpaceOnUse">
      <stop
         stop-color="#7d8385"
         offset="0"
         id="stop72" />
      <stop
         stop-color="#bccdd1"
         offset="1"
         id="stop74" />
    </linearGradient>
    <radialGradient
       id="radialGradient2238"
       cx="-75.884003"
       cy="44.051998"
       r="29.714001"
       gradientTransform="matrix(0.58521925,0.00200135,0,0.3971556,76.54925,16.662873)"
       gradientUnits="userSpaceOnUse">
      <stop
         stop-opacity="0"
         offset="0"
         id="stop63" />
      <stop
         stop-opacity="0"
         offset=".81612"
         id="stop65" />
      <stop
         stop-opacity=".023529"
         offset=".90911"
         id="stop67" />
      <stop
         stop-opacity=".2"
         offset="1"
         id="stop69" />
    </radialGradient>
    <linearGradient
       id="linearGradient2234"
       x1="53.033001"
       x2="55.685001"
       y1="1010.3"
       y2="998.62"
       gradientUnits="userSpaceOnUse">
      <stop
         stop-color="#797e81"
         offset="0"
         id="stop51" />
      <stop
         stop-color="#b0b7bb"
         offset=".34201"
         id="stop53" />
      <stop
         stop-color="#b8c5c8"
         offset="1"
         id="stop55" />
    </linearGradient>
    <linearGradient
       id="linearGradient2236"
       x1="48.790001"
       x2="48.790001"
       y1="1009.7"
       y2="1001.2"
       gradientTransform="matrix(0.90295,0,0,0.80113,4.6586,197.89)"
       gradientUnits="userSpaceOnUse">
      <stop
         stop-color="#909b9f"
         offset="0"
         id="stop58" />
      <stop
         stop-color="#bbc8cb"
         offset="1"
         id="stop60" />
    </linearGradient>
    <linearGradient
       id="linearGradient2232"
       x1="42.073002"
       x2="42.073002"
       y1="980.09998"
       y2="964.85999"
       gradientTransform="matrix(0.58079826,0,0,0.53475588,3.8687207,-506.98328)"
       gradientUnits="userSpaceOnUse">
      <stop
         stop-color="#88969a"
         offset="0"
         id="stop42-7" />
      <stop
         stop-color="#c0cfd4"
         offset=".28696"
         id="stop44-5" />
      <stop
         stop-color="#b9c9ce"
         offset=".6087"
         id="stop46" />
      <stop
         stop-color="#d2e1e5"
         offset="1"
         id="stop48" />
    </linearGradient>
    <linearGradient
       id="linearGradient2230"
       x1="69.75"
       x2="69.75"
       y1="1001.1"
       y2="972.10999"
       gradientTransform="matrix(0.6060643,0,0,0.6060643,2.9089318,-576.87149)"
       gradientUnits="userSpaceOnUse">
      <stop
         stop-color="#a5b2b5"
         offset="0"
         id="stop35-3" />
      <stop
         stop-color="#b9cacd"
         offset=".35345"
         id="stop37-5" />
      <stop
         stop-color="#cad8db"
         offset="1"
         id="stop39-6" />
    </linearGradient>
    <linearGradient
       id="linearGradient2228"
       x1="57.188"
       x2="57.188"
       y1="977.16998"
       y2="966.54999"
       gradientTransform="matrix(0.63492669,0,0,0.71624532,1.811703,-683.96011)"
       gradientUnits="userSpaceOnUse">
      <stop
         stop-color="#b6c4c8"
         offset="0"
         id="stop30-2" />
      <stop
         stop-color="#ddecee"
         offset="1"
         id="stop32-9" />
    </linearGradient>
    <linearGradient
       id="linearGradient2226"
       x1="52.326"
       x2="31.113001"
       y1="973.87"
       y2="967.85999"
       gradientTransform="matrix(0.61179097,0,0,0.58182906,2.8791531,-553.34635)"
       gradientUnits="userSpaceOnUse">
      <stop
         stop-color="#121212"
         offset="0"
         id="stop25-1" />
      <stop
         stop-color="#3f3e3e"
         offset="1"
         id="stop27-2" />
    </linearGradient>
    <linearGradient
       id="linearGradient2363"
       x1="1.1906"
       x2="15.742"
       y1="12.846"
       y2="12.846"
       gradientUnits="userSpaceOnUse"
       gradientTransform="matrix(3.779602,0,0,3.779602,0,-1e-6)">
      <stop
         stop-color="#5f6469"
         offset="0"
         id="stop93" />
      <stop
         stop-color="#737373"
         offset=".12512"
         id="stop95" />
      <stop
         stop-color="#373737"
         offset=".27172"
         id="stop97" />
      <stop
         stop-color="#646969"
         offset=".75536"
         id="stop99" />
      <stop
         stop-color="#5f5f5f"
         offset=".87327"
         id="stop101" />
      <stop
         stop-color="#6e7378"
         offset="1"
         id="stop103" />
    </linearGradient>
    <linearGradient
       id="linearGradient2375"
       x1="69.191002"
       x2="69.191002"
       y1="87.105003"
       y2="87.728996"
       gradientTransform="matrix(0.72727102,0,0,0.80596233,-5.80849,-13.064951)"
       gradientUnits="userSpaceOnUse">
      <stop
         offset="0"
         id="stop106" />
      <stop
         stop-color="#2f2f2f"
         offset="1"
         id="stop108" />
    </linearGradient>
    <radialGradient
       id="radialGradient2379"
       cx="-18.219"
       cy="85.049004"
       r="3.266"
       gradientTransform="matrix(0.088165,-0.088165,0.085923,0.085923,-3.2881,-5.6025)"
       gradientUnits="userSpaceOnUse"
       xlink:href="#linearGradient4178" />
    <linearGradient
       id="linearGradient4178">
      <stop
         stop-color="#8ba4aa"
         offset="0"
         id="stop12-7" />
      <stop
         stop-color="#6f8c92"
         offset="1"
         id="stop14-0" />
    </linearGradient>
    <radialGradient
       id="radialGradient2385"
       cx="-18.219"
       cy="85.049004"
       r="3.266"
       gradientTransform="matrix(0.088165,-0.088165,0.085923,0.085923,8.8368,-5.6025)"
       gradientUnits="userSpaceOnUse"
       xlink:href="#linearGradient4178" />
    <radialGradient
       id="radialGradient2389"
       cx="-18.219"
       cy="85.049004"
       r="3.266"
       gradientTransform="matrix(0.088165,-0.088165,0.085923,0.085923,-3.2881,-1.7161)"
       gradientUnits="userSpaceOnUse"
       xlink:href="#linearGradient4261" />
    <linearGradient
       id="linearGradient4261">
      <stop
         stop-color="#586c71"
         offset="0"
         id="stop3-6" />
      <stop
         stop-color="#597075"
         offset="1"
         id="stop4-0" />
    </linearGradient>
    <radialGradient
       id="radialGradient2393"
       cx="-18.219"
       cy="85.049004"
       r="3.266"
       gradientTransform="matrix(0.088165,-0.088165,0.085923,0.085923,8.8368,-1.7161)"
       gradientUnits="userSpaceOnUse"
       xlink:href="#linearGradient4261" />
    <radialGradient
       id="radialGradient2397"
       cx="-18.219"
       cy="85.049004"
       r="3.266"
       gradientTransform="matrix(0.088165,-0.088165,0.085923,0.085923,-3.2881,2.1703)"
       gradientUnits="userSpaceOnUse"
       xlink:href="#linearGradient4251" />
    <linearGradient
       id="linearGradient4251">
      <stop
         stop-color="#3b3f40"
         offset="0"
         id="stop7-6" />
      <stop
         stop-color="#4d5253"
         offset="1"
         id="stop9-1" />
    </linearGradient>
    <radialGradient
       id="radialGradient2401"
       cx="-18.219"
       cy="85.049004"
       r="3.266"
       gradientTransform="matrix(0.088165,-0.088165,0.085923,0.085923,8.8368,2.1703)"
       gradientUnits="userSpaceOnUse"
       xlink:href="#linearGradient4251" />
    <linearGradient
       inkscape:collect="always"
       xlink:href="#linearGradient2226"
       id="linearGradient98"
       gradientUnits="userSpaceOnUse"
       gradientTransform="matrix(0.61179097,0,0,0.58182906,2.8791531,-566.24863)"
       x1="52.326"
       y1="973.87"
       x2="31.113001"
       y2="967.85999" />
    <linearGradient
       inkscape:collect="always"
       xlink:href="#b"
       id="linearGradient112"
       gradientUnits="userSpaceOnUse"
       gradientTransform="matrix(1.1538,0,0,1.1538,-4.923,-4.923)"
       x1="6"
       y1="58"
       x2="6"
       y2="6" />
    <linearGradient
       inkscape:collect="always"
       xlink:href="#e"
       id="linearGradient113"
       gradientUnits="userSpaceOnUse"
       gradientTransform="matrix(-1.154,0,0,1.2,68.924,-6.4004)"
       x1="32"
       y1="58"
       x2="32"
       y2="32" />
    <linearGradient
       inkscape:collect="always"
       xlink:href="#f"
       id="linearGradient114"
       gradientUnits="userSpaceOnUse"
       gradientTransform="matrix(1.154,0,0,1.2,-4.9239,-6.4004)"
       x1="32"
       y1="58"
       x2="32"
       y2="32" />
    <linearGradient
       inkscape:collect="always"
       xlink:href="#i"
       id="linearGradient115"
       gradientUnits="userSpaceOnUse"
       gradientTransform="matrix(1.1538,0,0,1.1538,-4.923,-4.923)"
       x1="32"
       y1="32"
       x2="32"
       y2="6" />
    <linearGradient
       inkscape:collect="always"
       xlink:href="#j"
       id="linearGradient116"
       gradientUnits="userSpaceOnUse"
       gradientTransform="matrix(1.1538,0,0,1.1538,-4.923,-4.923)"
       x1="32"
       y1="32"
       x2="32"
       y2="6" />
    <linearGradient
       inkscape:collect="always"
       xlink:href="#a"
       id="linearGradient117"
       gradientUnits="userSpaceOnUse"
       gradientTransform="matrix(1.1538,0,0,1.1538,-4.923,-4.923)"
       x1="32"
       y1="41"
       x2="32"
       y2="23" />
    <linearGradient
       inkscape:collect="always"
       xlink:href="#l"
       id="linearGradient118"
       gradientUnits="userSpaceOnUse"
       gradientTransform="matrix(1.1538,0,0,1.1538,-4.923,-4.923)"
       x1="32"
       y1="36"
       x2="32"
       y2="28" />
    <linearGradient
       inkscape:collect="always"
       xlink:href="#b"
       id="linearGradient119"
       gradientUnits="userSpaceOnUse"
       gradientTransform="matrix(0.67318657,0,0,0.42526111,10.461034,18.689586)"
       x1="32"
       y1="35"
       x2="32"
       y2="29" />
    <linearGradient
       inkscape:collect="always"
       xlink:href="#a"
       id="linearGradient120"
       gradientUnits="userSpaceOnUse"
       gradientTransform="matrix(1.1538,0,0,1.1538,-4.923,-4.923)"
       x1="32"
       y1="58"
       x2="32"
       y2="40" />
  </defs>
  <linearGradient
     id="d"
     x1="6"
     x2="6"
     y1="58"
     y2="6"
     gradientTransform="matrix(1.1538,0,0,1.1538,-4.923,-4.923)"
     gradientUnits="userSpaceOnUse"
     xlink:href="#b" />
  <linearGradient
     id="f"
     x1="32"
     x2="32"
     y1="58"
     y2="32"
     gradientTransform="matrix(1.154,0,0,1.2,-4.9239,-6.4004)"
     gradientUnits="userSpaceOnUse">
    <stop
       stop-color="#fdad23"
       offset="0"
       id="stop32" />
    <stop
       stop-color="#fdc96f"
       offset="1"
       id="stop33" />
  </linearGradient>
  <linearGradient
     id="i"
     x1="32"
     x2="32"
     y1="32"
     y2="6"
     gradientTransform="matrix(1.1538,0,0,1.1538,-4.923,-4.923)"
     gradientUnits="userSpaceOnUse">
    <stop
       stop-color="#27ad60"
       offset="0"
       id="stop34" />
    <stop
       stop-color="#58d68d"
       offset="1"
       id="stop35" />
  </linearGradient>
  <linearGradient
     id="e"
     x1="32"
     x2="32"
     y1="58"
     y2="32"
     gradientTransform="matrix(-1.154,0,0,1.2,68.924,-6.4004)"
     gradientUnits="userSpaceOnUse">
    <stop
       stop-color="#8e44ad"
       offset="0"
       id="stop36" />
    <stop
       stop-color="#af7ac4"
       offset="1"
       id="stop37" />
  </linearGradient>
  <linearGradient
     id="s"
     x1="32"
     x2="32"
     y1="35"
     y2="29"
     gradientTransform="matrix(1.1538,0,0,1.1538,-4.923,-4.923)"
     gradientUnits="userSpaceOnUse"
     xlink:href="#b" />
  <linearGradient
     id="l"
     x1="32"
     x2="32"
     y1="36"
     y2="28"
     gradientTransform="matrix(1.1538,0,0,1.1538,-4.923,-4.923)"
     gradientUnits="userSpaceOnUse">
    <stop
       stop-color="#5c7274"
       offset="0"
       id="stop38" />
    <stop
       stop-color="#a4a4a4"
       offset="1"
       id="stop39" />
  </linearGradient>
  <linearGradient
     id="v"
     x1="32"
     x2="32"
     y1="58"
     y2="40"
     gradientTransform="matrix(1.1538,0,0,1.1538,-4.923,-4.923)"
     gradientUnits="userSpaceOnUse"
     xlink:href="#a" />
  <linearGradient
     id="j"
     x1="32"
     x2="32"
     y1="32"
     y2="6"
     gradientTransform="matrix(1.1538,0,0,1.1538,-4.923,-4.923)"
     gradientUnits="userSpaceOnUse">
    <stop
       stop-color="#1190d9"
       offset="0"
       id="stop40" />
    <stop
       stop-color="#73c4ef"
       offset="1"
       id="stop41" />
  </linearGradient>
  <linearGradient
     id="a"
     x1="32"
     x2="32"
     y1="41"
     y2="23"
     gradientUnits="userSpaceOnUse">
    <stop
       stop-color="#cecece"
       offset="0"
       id="stop42" />
    <stop
       stop-color="#ececec"
       offset="1"
       id="stop43" />
  </linearGradient>
  <linearGradient
     id="b"
     x1="6"
     x2="6"
     y1="58"
     y2="6"
     gradientUnits="userSpaceOnUse">
    <stop
       stop-color="#98a7b0"
       offset="0"
       id="stop44" />
    <stop
       stop-color="#dde1e3"
       offset="1"
       id="stop45" />
  </linearGradient>
  <rect
     x="1.1905"
     y="1.1905"
     width="14.552"
     height="14.552"
     ry="3.4395001"
     filter="url(#filter861)"
     opacity="0.3"
     stroke-opacity="0.95294"
     stroke-width="0.083153"
     id="rect121"
     transform="scale(3.779602)" />
  <rect
     x="4.4996233"
     y="4.4996157"
     width="55.000767"
     height="55.000767"
     ry="12.999942"
     fill="url(#linearGradient1448)"
     stroke-opacity="0.95294"
     stroke-width="0.314285"
     id="rect123"
     style="fill:url(#linearGradient1448)" />
  <g
     id="g133"
     transform="matrix(2.2906656,0,0,2.2906656,26.82119,10.867489)">
    <ellipse
       cx="2.2609"
       cy="10.218"
       rx="8.5714998"
       ry="6.0767002"
       opacity="0.05"
       id="ellipse125" />
    <ellipse
       cx="2.2609"
       cy="10.085"
       rx="8.5481005"
       ry="6.0767002"
       opacity="0.1"
       id="ellipse127" />
    <ellipse
       cx="2.2609"
       cy="9.9530001"
       rx="8.5481005"
       ry="6.0767002"
       opacity="0.1"
       id="ellipse129" />
    <rect
       x="4.7743001"
       y="2.5397"
       width="0.39686999"
       height="1.5875"
       rx="0"
       ry="0"
       opacity="0.2"
       id="rect131" />
  </g>
  <ellipse
     cx="32.000156"
     cy="33.060375"
     rx="20.009422"
     ry="13.919688"
     fill="url(#linearGradient2244)"
     id="ellipse135"
     style="fill:url(#linearGradient2244);stroke-width:2.29067" />
  <path
     d="m 41.541923,10.709055 c -0.920412,0.03601 -1.663114,0.818134 -1.663114,1.834755 v 9.809317 c 6.043921,1.521414 10.688474,6.2258 12.095172,10.464218 l -0.55402,-20.594916 c -0.02291,-1.016345 -0.742703,-1.870764 -1.663115,-1.834754 z"
     fill="url(#linearGradient2242)"
     id="path137"
     style="fill:url(#linearGradient2242);stroke-width:2.29067" />
  <ellipse
     cx="32.000156"
     cy="32.919727"
     rx="19.090864"
     ry="12.848344"
     fill="url(#linearGradient2240)"
     id="ellipse139"
     style="fill:url(#linearGradient2240);stroke-width:2.29067" />
  <g
     stroke-width="0.867"
     id="g108"
     transform="matrix(0.5834517,0,0,0.36857437,13.333367,20.504078)">
    <path
       d="M 31.999,21.615 A 10.384,10.384 0 0 0 21.615,31.999 10.384,10.384 0 0 0 31.999,42.383 10.384,10.384 0 0 0 42.383,31.999 10.384,10.384 0 0 0 31.999,21.615 Z m 0,6.923 c 1.918,0 3.461,1.544 3.461,3.461 0,1.917 -1.543,3.462 -3.46,3.462 -1.917,0 -3.461,-1.544 -3.461,-3.462 0,-1.918 1.543,-3.461 3.461,-3.461 z"
       fill="url(#d)"
       id="path100"
       style="fill:url(#linearGradient112)" />
    <path
       d="M 32,62 V 38 a 5.7698,6 0 0 0 5.7698,-6 h 24.23 c 0,17.284 -13.38,30 -30,30 z"
       fill="url(#e)"
       stroke-width="0.88425"
       id="path101"
       style="fill:url(#linearGradient113)" />
    <path
       d="M 32,62 V 38 a 5.7698,6 0 0 1 -5.7698,-6 h -24.23 c 0,17.284 13.38,30 30,30 z"
       fill="url(#f)"
       stroke-width="0.88425"
       id="path102"
       style="fill:url(#linearGradient114)" />
    <path
       d="M 31.999,2 V 26.23 A 5.769,5.769 0 0 0 26.23,31.999 H 2.003 C 2.003,15.38 15.381,2 31.999,2 Z"
       fill="url(#i)"
       id="path103"
       style="fill:url(#linearGradient115)" />
    <path
       d="m 31.999,2 v 24.23 a 5.769,5.769 0 0 1 5.769,5.769 H 61.995 C 61.995,15.38 48.617,2 31.999,2 Z"
       fill="url(#j)"
       id="path104"
       style="fill:url(#linearGradient116)" />
    <path
       d="m 31.999,21.615 a 10.384,10.384 0 1 0 0,20.768 10.384,10.384 0 0 0 0,-20.768 z m 0,4.615 a 5.769,5.769 0 1 1 0,11.538 5.769,5.769 0 0 1 0,-11.538 z"
       fill="url(#k)"
       id="path105"
       style="fill:url(#linearGradient117)" />
    <path
       d="m 37.768,27.384 a 1.154,1.154 0 1 1 0,-2.308 1.154,1.154 0 0 1 0,2.308 z M 26.23,38.922 a 1.154,1.154 0 1 1 0,-2.308 1.154,1.154 0 0 1 0,2.308 z M 27.384,26.23 a 1.154,1.154 0 1 1 -2.308,0 1.154,1.154 0 0 1 2.308,0 z m 11.538,11.538 a 1.154,1.154 0 1 1 -2.308,0 1.154,1.154 0 0 1 2.308,0 z"
       fill="#292c2f"
       opacity="0.4"
       id="path106" />
    <path
       d="m 31.999,27.384 a 4.615,4.615 0 1 0 0,9.23 4.615,4.615 0 0 0 0,-9.23 z m 0,1.154 a 3.4615,3.4615 0 1 1 0,6.923 3.4615,3.4615 0 0 1 0,-6.923 z"
       fill="url(#l)"
       id="path107"
       style="fill:url(#linearGradient118)" />
    <path
       d="m 33.153,23.922 a 1.154,1.154 0 1 1 -2.308,0 1.154,1.154 0 0 1 2.308,0 z m 8.077,8.077 a 1.154,1.154 0 1 1 -2.308,0 1.154,1.154 0 0 1 2.308,0 z m -8.077,8.076 a 1.154,1.154 0 1 1 -2.308,0 1.154,1.154 0 0 1 2.308,0 z M 25.076,32 a 1.154,1.154 0 1 1 -2.307,0 1.154,1.154 0 0 1 2.307,0 z"
       fill="#4d4d4d"
       id="path108" />
  </g>
  <path
     d="m 41.427733,35.700031 -5.385259,1.70097 -0.673303,0.85067 -2.01991,1.275636 -7.032927,3.232397 a 17.575316,11.102566 0 0 0 5.687487,0.594511 c 0.146447,0 0.290559,-0.0041 0.435839,-0.0066 l 2.929511,-2.544637 2.01991,-1.276005 1.346023,-0.425334 z"
     fill="#292c2f"
     opacity="0.2"
     id="path109"
     style="stroke-width:0.46373" />
  <ellipse
     cx="32.003239"
     cy="32.298088"
     fill="url(#s)"
     id="circle109"
     style="fill:url(#linearGradient119);stroke-width:0.46373"
     rx="2.0193262"
     ry="1.2756358" />
  <g
     stroke-width="0.867"
     id="g111"
     transform="matrix(0.5834517,0,0,0.36857437,13.333367,20.504078)">
    <path
       d="m 48.152,41.229 -9.23,4.615 -1.154,2.308 -3.462,3.461 -12.054,8.77 A 30.123,30.123 0 0 0 32,61.996 c 0.251,0 0.498,-0.011 0.747,-0.018 l 5.021,-6.904 3.462,-3.462 2.307,-1.154 z m -6.923,5.291 1.632,1.632 -1.632,1.631 -1.631,-1.631 z m -3.939,3.94 1.632,1.63 -0.677,0.677 h -1.631 v -1.631 z m -2.984,3.46 a 1.154,1.154 0 0 1 1.154,1.155 1.154,1.154 0 0 1 -1.154,1.153 1.154,1.154 0 0 1 -1.153,-1.153 1.154,1.154 0 0 1 1.153,-1.154 z m -3.461,2.308 2.308,2.308 -1.909,2.29 a 29.451,29.451 0 0 1 -5.21,-0.59 z m -4.656,5.204 c 0.111,0.022 0.223,0.038 0.334,0.058 -0.11,-0.02 -0.223,-0.036 -0.335,-0.058 z"
       fill="url(#v)"
       id="path110"
       style="fill:url(#linearGradient120)" />
    <path
       d="m 36.614,51.136 -5.769,5.093 2.308,2.308 5.093,-5.77 h -1.632 z m 2.984,-2.984 -2.308,2.308 1.632,1.631 2.307,-2.307 z m 6.246,-4.615 -4.615,2.984 1.632,1.631 z"
       fill="#292c2f"
       opacity="0.1"
       id="path111" />
  </g>
  <path
     d="m 32.000156,21.241226 c -9.664776,0 -17.507099,5.217449 -17.507099,11.646431 0,6.428982 7.842323,11.630168 17.507099,11.630168 9.664776,0 17.507099,-5.201186 17.507099,-11.630168 0,-6.428982 -7.842323,-11.646431 -17.507099,-11.646431 z m 0,3.118742 c 7.081134,0 12.830247,3.817394 12.830247,8.527689 0,4.710296 -5.749113,8.52769 -12.830247,8.52769 -7.081135,0 -12.830247,-3.817394 -12.830247,-8.52769 0,-4.710295 5.749112,-8.527689 12.830247,-8.527689 z"
     fill="url(#radialGradient2238)"
     id="path149"
     style="fill:url(#radialGradient2238);stroke-width:2.29067" />
  <rect
     x="12.000125"
     y="8.1922207"
     width="27.87969"
     height="9.0909643"
     rx="1.6626567"
     ry="1.8350294"
     fill="url(#linearGradient2232)"
     id="rect161"
     style="fill:url(#linearGradient2232);stroke-width:2.29067" />
  <path
     d="m 40.329932,9.2528446 c -0.921099,0 -1.663115,0.8181344 -1.663115,1.8347544 v 9.809317 c 6.043922,1.521392 10.992217,7.485666 12.398915,11.723856 L 50.636439,11.08737 c 0,-1.016597 -0.742016,-1.8347544 -1.663115,-1.8347544 z"
     fill="url(#linearGradient2230)"
     id="path163"
     style="fill:url(#linearGradient2230);stroke-width:2.29067" />
  <rect
     x="12.606236"
     y="8.1922207"
     width="26.665638"
     height="7.8787446"
     rx="1.5903634"
     ry="1.5903634"
     fill="url(#linearGradient2228)"
     id="rect165"
     style="fill:url(#linearGradient2228);stroke-width:2.29067" />
  <path
     d="m 4.49999,37.604015 v 8.896427 c 0,7.202032 5.797914,12.999941 12.999945,12.999941 h 29.00013 c 7.202032,0 12.999942,-5.797909 12.999942,-12.999941 v -8.896427 c 0,7.202032 -5.79791,12.999941 -12.999942,12.999941 h -29.00013 c -7.202031,0 -12.999945,-5.797909 -12.999945,-12.999941 z"
     fill="url(#linearGradient2363)"
     stroke-opacity="0.95294"
     stroke-width="0.314285"
     id="path321"
     style="fill:url(#linearGradient2363)" />
  <path
     d="m 26.827993,50.60509 v 8.865813 h 2.000014 V 50.60509 Z m 2.909084,0 v 8.865813 h 2.000014 V 50.60509 Z m 2.909084,0 v 8.865813 h 2.000014 V 50.60509 Z m 2.909084,0 v 8.865813 h 2.000014 V 50.60509 Z m 2.909084,0 v 8.865813 h 2.000014 V 50.60509 Z m 2.909084,0 v 8.865813 h 2.000014 V 50.60509 Z m 2.909084,0 v 8.865813 h 2.000015 V 50.60509 Z"
     fill="url(#linearGradient2375)"
     id="path323"
     style="fill:url(#linearGradient2375);stroke-width:3.7796" />
  <g
     transform="matrix(3.779602,0,0,3.779602,0.17123,-1e-6)"
     id="g337">
    <circle
       cx="2.3587"
       cy="3.3971"
       r="0.39686999"
       fill="url(#radialGradient2379)"
       id="circle325"
       style="fill:url(#radialGradient2379)" />
    <circle
       cx="14.484"
       cy="3.3971"
       r="0.39686999"
       fill="url(#radialGradient2385)"
       id="circle327"
       style="fill:url(#radialGradient2385)" />
    <circle
       cx="2.3587"
       cy="7.2835002"
       r="0.39686999"
       fill="url(#radialGradient2389)"
       id="circle329"
       style="fill:url(#radialGradient2389)" />
    <circle
       cx="14.484"
       cy="7.2835002"
       r="0.39686999"
       fill="url(#radialGradient2393)"
       id="circle331"
       style="fill:url(#radialGradient2393)" />
    <circle
       cx="2.3587"
       cy="11.17"
       r="0.39686999"
       fill="url(#radialGradient2397)"
       id="circle333"
       style="fill:url(#radialGradient2397)" />
    <circle
       cx="14.484"
       cy="11.17"
       r="0.39686999"
       fill="url(#radialGradient2401)"
       id="circle335"
       style="fill:url(#radialGradient2401)" />
  </g>
  <g
     id="g99"
     transform="translate(0,12.902277)">
    <rect
       x="13.818227"
       y="-3.4979279"
       width="24.242115"
       height="5.4545331"
       rx="0.61179101"
       ry="0.58182907"
       fill="url(#linearGradient2226)"
       id="rect96"
       style="fill:url(#linearGradient98);stroke-width:2.29067" />
    <g
       id="g98"
       transform="translate(0.28325664,0.33100298)">
      <path
         d="M 14.914967,-1.80477 H 30.67497 v 0.086 H 14.914967 Z m -0.066,-1.244 v 0.121 h 0.095 v -0.12 z m 8.302003,0 v 0.314 a 0.199,0.199 0 0 0 -0.076,-0.08 0.22,0.22 0 0 0 -0.11,-0.022 0.205,0.205 0 0 0 -0.17,0.083 0.344,0.344 0 0 0 -0.068,0.22 c 0,0.09 0.024,0.166 0.068,0.222 0.044,0.056 0.1,0.084 0.17,0.084 0.043,0 0.08,-0.01 0.11,-0.027 a 0.194,0.194 0 0 0 0.076,-0.076 v 0.087 h 0.094 v -0.805 z m 1.444,0 v 0.121 h 0.098 v -0.12 z m 0.843,0 v 0.805 h 0.098 v -0.283 l 0.295,0.283 h 0.125 l -0.322,-0.31 0.306,-0.272 h -0.12 l -0.284,0.254 v -0.477 z m -4.53,0.03 v 0.775 h 0.107 v -0.37 h 0.378 v 0.37 h 0.106 v -0.775 h -0.106 v 0.318 h -0.378 v -0.318 z m 2.874,0 v 0.775 h 0.215 c 0.15,0 0.259,-0.032 0.33,-0.094 0.07,-0.063 0.105,-0.162 0.105,-0.295 0,-0.133 -0.032,-0.229 -0.102,-0.291 -0.07,-0.063 -0.183,-0.095 -0.333,-0.095 z m -7.965003,0.03 v 0.163 h -0.072 v 0.076 h 0.072 v 0.314 c 0,0.072 0.014,0.123 0.042,0.15 0.027,0.028 0.077,0.042 0.15,0.042 h 0.1 v -0.08 h -0.1 c -0.039,0 -0.066,-0.008 -0.079,-0.022 -0.012,-0.013 -0.019,-0.043 -0.019,-0.09 v -0.314 h 0.197 v -0.076 h -0.197 v -0.162 z m 3.243003,0 v 0.163 h -0.068 v 0.076 h 0.068 v 0.314 c 0,0.072 0.014,0.123 0.042,0.15 0.028,0.028 0.082,0.042 0.155,0.042 h 0.098 v -0.08 h -0.098 c -0.04,0 -0.066,-0.008 -0.08,-0.022 -0.012,-0.013 -0.018,-0.043 -0.018,-0.09 v -0.314 h 0.196 v -0.076 h -0.196 v -0.162 z m 4.828,0.057 h 0.128 c 0.107,0 0.182,0.024 0.23,0.072 0.05,0.048 0.077,0.123 0.077,0.227 0,0.104 -0.026,0.182 -0.076,0.23 -0.05,0.049 -0.124,0.072 -0.23,0.072 h -0.13 z m -8.464003,0.095 a 0.213,0.213 0 0 0 -0.185,0.102 v -0.09 h -0.099 v 0.581 h 0.099 v -0.329 c 0,-0.056 0.011,-0.1 0.041,-0.132 a 0.163,0.163 0 0 1 0.125,-0.049 c 0.043,0 0.073,0.014 0.095,0.042 a 0.191,0.191 0 0 1 0.034,0.12 v 0.348 h 0.095 v -0.35 a 0.28,0.28 0 0 0 -0.053,-0.182 c -0.035,-0.041 -0.085,-0.06 -0.151,-0.06 z m 1.05,0 a 0.268,0.268 0 0 0 -0.207,0.083 0.322,0.322 0 0 0 -0.076,0.227 c 0,0.092 0.026,0.161 0.08,0.215 0.054,0.054 0.13,0.083 0.223,0.083 a 0.534,0.534 0 0 0 0.211,-0.045 v -0.09 a 0.414,0.414 0 0 1 -0.208,0.053 c -0.062,0 -0.111,-0.016 -0.147,-0.05 a 0.227,0.227 0 0 1 -0.06,-0.151 h 0.438 v -0.045 a 0.292,0.292 0 0 0 -0.068,-0.205 0.237,0.237 0 0 0 -0.185,-0.075 z m 0.696,0 a 0.23,0.23 0 0 0 -0.113,0.026 0.19,0.19 0 0 0 -0.08,0.076 v -0.09 h -0.098 v 0.581 h 0.099 v -0.306 c 0,-0.065 0.013,-0.116 0.041,-0.151 a 0.153,0.153 0 0 1 0.125,-0.053 c 0.015,0 0.03,0 0.042,0.004 a 0.113,0.113 0 0 1 0.033,0.015 v -0.098 a 0.327,0.327 0 0 0 -0.026,-0.004 z m 0.412,0 c -0.04,0 -0.074,0.009 -0.105,0.026 a 0.236,0.236 0 0 0 -0.084,0.076 v -0.09 h -0.094 v 0.581 h 0.094 v -0.329 c 0,-0.056 0.016,-0.1 0.046,-0.132 0.03,-0.033 0.07,-0.049 0.12,-0.049 0.043,0 0.078,0.014 0.1,0.042 0.02,0.027 0.03,0.066 0.03,0.12 v 0.348 h 0.094 v -0.35 c 0,-0.08 -0.016,-0.14 -0.05,-0.182 -0.034,-0.041 -0.084,-0.06 -0.15,-0.06 z m 0.636,0 a 0.268,0.268 0 0 0 -0.208,0.083 0.322,0.322 0 0 0 -0.076,0.227 c 0,0.092 0.026,0.161 0.08,0.215 a 0.298,0.298 0 0 0 0.219,0.083 0.534,0.534 0 0 0 0.215,-0.045 v -0.09 a 0.414,0.414 0 0 1 -0.208,0.053 c -0.063,0 -0.112,-0.016 -0.147,-0.05 a 0.227,0.227 0 0 1 -0.061,-0.151 h 0.439 v -0.045 a 0.292,0.292 0 0 0 -0.069,-0.205 0.237,0.237 0 0 0 -0.185,-0.075 z m 0.695003,0 a 0.245,0.245 0 0 0 -0.117003,0.026 0.18,0.18 0 0 0 -0.076,0.076 v -0.09 h -0.098 v 0.581 h 0.098 v -0.306 c 0,-0.065 0.013,-0.116 0.042,-0.151 a 0.153,0.153 0 0 1 0.125003,-0.053 c 0.015,0 0.029,0 0.041,0.004 a 0.113,0.113 0 0 1 0.034,0.015 v -0.098 a 0.327,0.327 0 0 0 -0.026,-0.004 z m 0.81,0 a 0.268,0.268 0 0 0 -0.209,0.083 0.322,0.322 0 0 0 -0.075,0.227 c 0,0.092 0.025,0.161 0.079,0.215 a 0.298,0.298 0 0 0 0.22,0.083 0.534,0.534 0 0 0 0.215,-0.045 v -0.09 a 0.414,0.414 0 0 1 -0.208,0.053 c -0.063,0 -0.112,-0.016 -0.148,-0.05 a 0.227,0.227 0 0 1 -0.06,-0.151 h 0.438 v -0.045 a 0.292,0.292 0 0 0 -0.068,-0.205 0.237,0.237 0 0 0 -0.185,-0.075 z m 0.695,0 a 0.245,0.245 0 0 0 -0.118,0.026 0.18,0.18 0 0 0 -0.075,0.076 v -0.09 h -0.098 v 0.581 h 0.098 v -0.306 c 0,-0.065 0.013,-0.116 0.042,-0.151 a 0.153,0.153 0 0 1 0.124,-0.053 c 0.016,0 0.03,0 0.042,0.004 a 0.126,0.126 0 0 1 0.034,0.015 v -0.098 a 0.287,0.287 0 0 0 -0.026,-0.004 z m 1.489,0 a 0.478,0.478 0 0 0 -0.197,0.038 v 0.09 a 0.374,0.374 0 0 1 0.185,-0.05 c 0.053,0.001 0.093,0.015 0.122,0.039 a 0.128,0.128 0 0 1 0.045,0.102 v 0.008 h -0.136 c -0.087,0 -0.149,0.015 -0.193,0.049 a 0.176,0.176 0 0 0 -0.068,0.147 c 0,0.056 0.018,0.103 0.053,0.136 0.035,0.033 0.084,0.05 0.143,0.05 0.047,0 0.085,-0.01 0.118,-0.027 a 0.208,0.208 0 0 0 0.083,-0.076 v 0.087 h 0.094 v -0.332 c 0,-0.089 -0.022,-0.153 -0.064,-0.197 -0.042,-0.044 -0.101,-0.064 -0.185,-0.064 z m 0.733,0 a 0.245,0.245 0 0 0 -0.117,0.026 0.19,0.19 0 0 0 -0.08,0.076 v -0.09 h -0.094 v 0.581 h 0.095 v -0.306 c 0,-0.065 0.013,-0.116 0.042,-0.151 a 0.153,0.153 0 0 1 0.124,-0.053 c 0.016,0 0.03,0 0.042,0.004 a 0.15,0.15 0 0 1 0.038,0.015 l -0.004,-0.098 a 0.327,0.327 0 0 0 -0.026,-0.004 z m 2.435,0 a 0.259,0.259 0 0 0 -0.163,0.045 0.149,0.149 0 0 0 -0.06,0.125 c 0,0.045 0.015,0.08 0.041,0.106 0.027,0.025 0.07,0.044 0.129,0.056 l 0.03,0.008 c 0.06,0.013 0.1,0.028 0.117,0.042 0.018,0.013 0.026,0.03 0.026,0.056 a 0.078,0.078 0 0 1 -0.038,0.068 0.19,0.19 0 0 1 -0.102,0.023 0.528,0.528 0 0 1 -0.208,-0.057 v 0.099 a 0.78,0.78 0 0 0 0.205,0.037 0.284,0.284 0 0 0 0.173,-0.049 0.147,0.147 0 0 0 0.068,-0.125 0.151,0.151 0 0 0 -0.045,-0.113 0.306,0.306 0 0 0 -0.144,-0.06 l -0.034,-0.008 a 0.312,0.312 0 0 1 -0.102,-0.034 c -0.017,-0.013 -0.023,-0.03 -0.023,-0.053 0,-0.029 0.01,-0.05 0.035,-0.064 a 0.205,0.205 0 0 1 0.106,-0.023 0.386,0.386 0 0 1 0.173,0.042 v -0.09 a 0.394,0.394 0 0 0 -0.083,-0.024 0.647,0.647 0 0 0 -0.102,-0.007 z m -10.225003,0.011 v 0.582 h 0.094 v -0.582 z m 9.745003,0 v 0.582 h 0.099 v -0.582 z m -8.116003,0.068 c 0.047,0 0.081,0.014 0.11,0.046 a 0.182,0.182 0 0 1 0.045,0.124 l -0.34,0.004 a 0.198,0.198 0 0 1 0.056,-0.128 0.182,0.182 0 0 1 0.129,-0.046 z m 1.739,0 c 0.047,0 0.085,0.014 0.113,0.046 a 0.182,0.182 0 0 1 0.046,0.124 l -0.34,0.004 a 0.198,0.198 0 0 1 0.056,-0.128 0.172,0.172 0 0 1 0.124,-0.046 z m 1.504003,0 c 0.047,0 0.086,0.014 0.114,0.046 a 0.182,0.182 0 0 1 0.045,0.124 l -0.34,0.004 a 0.196,0.196 0 0 1 0.053,-0.128 0.181,0.181 0 0 1 0.128,-0.046 z m 3.267,0 c 0.05,0 0.092,0.02 0.12,0.06 a 0.27,0.27 0 0 1 0.042,0.163 c 0,0.07 -0.013,0.127 -0.041,0.167 -0.03,0.04 -0.07,0.06 -0.121,0.06 a 0.137,0.137 0 0 1 -0.118,-0.06 0.284,0.284 0 0 1 -0.045,-0.167 0.27,0.27 0 0 1 0.045,-0.162 c 0.03,-0.04 0.067,-0.06 0.118,-0.06 z m -1.025,0.223 h 0.099 v 0.02 a 0.227,0.227 0 0 1 -0.05,0.15 0.162,0.162 0 0 1 -0.128,0.057 0.134,0.134 0 0 1 -0.09,-0.03 0.101,0.101 0 0 1 -0.034,-0.08 c 0,-0.042 0.015,-0.073 0.045,-0.09 a 0.335,0.335 0 0 1 0.159,-0.027 z m -7.114003,1.134 v 0.091 h 0.075 v -0.09 z m 6.370003,0 v 0.239 a 0.15,0.15 0 0 0 -0.061,-0.057 0.167,0.167 0 0 0 -0.083,-0.019 0.162,0.162 0 0 0 -0.133,0.064 0.269,0.269 0 0 0 -0.049,0.17 c 0,0.07 0.016,0.124 0.05,0.167 a 0.161,0.161 0 0 0 0.132,0.064 0.17,0.17 0 0 0 0.083,-0.019 0.157,0.157 0 0 0 0.06,-0.057 v 0.065 h 0.072 v -0.617 z m 1.107,0 v 0.091 h 0.072 v -0.09 z m 0.647,0 v 0.617 h 0.075 v -0.216 l 0.223,0.216 h 0.098 l -0.245,-0.235 0.234,-0.208 h -0.094 l -0.216,0.19 v -0.364 z m 0.733,0 v 0.091 h 0.072 v -0.09 z m -4.207,0.023 v 0.594 h 0.079 v -0.28 h 0.291 v 0.28 h 0.08 v -0.594 h -0.08 v 0.246 h -0.291 v -0.246 z m 2.203,0 v 0.594 h 0.167 c 0.114,0 0.199,-0.024 0.253,-0.072 0.054,-0.048 0.08,-0.121 0.08,-0.223 0,-0.102 -0.026,-0.18 -0.08,-0.227 -0.053,-0.048 -0.138,-0.072 -0.253,-0.072 z m -6.112003,0.023 v 0.128 h -0.053 v 0.057 h 0.053 v 0.238 c 0,0.056 0.012,0.096 0.033,0.117 0.022,0.021 0.058,0.03 0.114,0.03 h 0.075 v -0.06 h -0.075 c -0.03,0 -0.05,-0.005 -0.06,-0.015 -0.01,-0.01 -0.013,-0.036 -0.013,-0.072 v -0.238 h 0.148 v -0.057 h -0.148 v -0.127 z m 2.491,0 v 0.128 h -0.053 v 0.057 h 0.053 v 0.238 c 0,0.056 0.009,0.096 0.03,0.117 0.021,0.021 0.06,0.03 0.117,0.03 h 0.076 v -0.06 h -0.076 c -0.03,0 -0.05,-0.005 -0.06,-0.015 -0.01,-0.01 -0.016,-0.036 -0.016,-0.072 v -0.238 h 0.151 v -0.057 h -0.15 v -0.127 z m 6.366003,0 v 0.128 h -0.053 v 0.057 h 0.053 v 0.238 c 0,0.056 0.009,0.096 0.03,0.117 0.021,0.021 0.06,0.03 0.117,0.03 h 0.076 v -0.06 h -0.076 c -0.03,0 -0.05,-0.005 -0.06,-0.015 -0.01,-0.01 -0.016,-0.036 -0.016,-0.072 v -0.238 h 0.151 v -0.057 h -0.151 v -0.127 z m 2.491,0 v 0.128 h -0.057 v 0.057 h 0.057 v 0.238 c 0,0.056 0.009,0.096 0.03,0.117 0.021,0.021 0.06,0.03 0.117,0.03 h 0.076 v -0.06 h -0.076 c -0.03,0 -0.05,-0.005 -0.06,-0.015 -0.01,-0.01 -0.016,-0.036 -0.016,-0.072 v -0.238 h 0.151 v -0.057 h -0.15 v -0.127 z m -5.156,0.045 h 0.098 c 0.082,0 0.14,0.02 0.178,0.057 0.038,0.037 0.06,0.094 0.06,0.174 0,0.08 -0.022,0.137 -0.06,0.174 -0.038,0.037 -0.096,0.056 -0.178,0.056 h -0.098 z m -6.490003,0.072 a 0.17,0.17 0 0 0 -0.084,0.019 0.18,0.18 0 0 0 -0.06,0.06 v -0.068 h -0.076 v 0.443 h 0.075 v -0.25 c 0,-0.043 0.011,-0.077 0.035,-0.102 a 0.114,0.114 0 0 1 0.09,-0.038 c 0.033,0 0.06,0.01 0.076,0.03 0.017,0.021 0.026,0.053 0.026,0.095 v 0.265 h 0.072 v -0.269 a 0.214,0.214 0 0 0 -0.042,-0.14 c -0.026,-0.032 -0.062,-0.045 -0.113,-0.045 z m 0.804,0 a 0.205,0.205 0 0 0 -0.158,0.064 0.25,0.25 0 0 0 -0.061,0.174 c 0,0.07 0.023,0.125 0.064,0.166 0.042,0.042 0.096,0.06 0.167,0.06 0.028,0 0.06,0 0.087,-0.007 a 0.441,0.441 0 0 0 0.079,-0.026 v -0.068 a 0.378,0.378 0 0 1 -0.159,0.041 c -0.048,0 -0.086,-0.011 -0.113,-0.037 a 0.174,0.174 0 0 1 -0.046,-0.118 h 0.333 v -0.034 a 0.229,0.229 0 0 0 -0.053,-0.158 0.175,0.175 0 0 0 -0.14,-0.057 z m 0.537,0 a 0.19,0.19 0 0 0 -0.09,0.019 0.159,0.159 0 0 0 -0.061,0.06 v -0.068 h -0.072 v 0.443 h 0.072 v -0.235 c 0,-0.05 0.012,-0.086 0.034,-0.113 a 0.115,0.115 0 0 1 0.095,-0.042 0.12,0.12 0 0 1 0.03,0.004 c 0.01,0.002 0.018,0.007 0.026,0.011 v -0.075 l -0.019,-0.004 z m 0.31,0 a 0.156,0.156 0 0 0 -0.08,0.019 0.19,0.19 0 0 0 -0.064,0.06 v -0.068 h -0.071 v 0.443 h 0.071 v -0.25 c 0,-0.043 0.015,-0.077 0.038,-0.102 a 0.114,0.114 0 0 1 0.091,-0.038 c 0.033,0 0.06,0.01 0.076,0.03 0.017,0.021 0.022,0.053 0.022,0.095 v 0.265 h 0.076 v -0.269 a 0.214,0.214 0 0 0 -0.042,-0.14 c -0.026,-0.032 -0.065,-0.045 -0.117,-0.045 z m 0.488,0 a 0.205,0.205 0 0 0 -0.159,0.064 0.249,0.249 0 0 0 -0.057,0.174 c 0,0.07 0.019,0.125 0.06,0.166 0.042,0.042 0.1,0.06 0.17,0.06 a 0.405,0.405 0 0 0 0.084,-0.007 0.441,0.441 0 0 0 0.08,-0.026 v -0.068 a 0.338,0.338 0 0 1 -0.16,0.041 c -0.048,0 -0.085,-0.011 -0.113,-0.037 a 0.174,0.174 0 0 1 -0.045,-0.118 h 0.336 v -0.034 a 0.229,0.229 0 0 0 -0.052,-0.158 0.184,0.184 0 0 0 -0.144,-0.057 z m 0.537,0 a 0.192,0.192 0 0 0 -0.091,0.019 0.142,0.142 0 0 0 -0.057,0.06 v -0.068 h -0.076 v 0.443 h 0.076 v -0.235 c 0,-0.05 0.008,-0.086 0.03,-0.113 a 0.115,0.115 0 0 1 0.094,-0.042 c 0.011,0 0.024,0.002 0.035,0.004 0.01,0.002 0.018,0.007 0.026,0.011 v -0.075 l -0.019,-0.004 h -0.019 z m 0.62,0 a 0.205,0.205 0 0 0 -0.16,0.064 0.25,0.25 0 0 0 -0.06,0.174 c 0,0.07 0.023,0.125 0.064,0.166 0.042,0.042 0.096,0.06 0.167,0.06 a 0.405,0.405 0 0 0 0.166,-0.033 v -0.068 a 0.378,0.378 0 0 1 -0.162,0.041 c -0.049,0 -0.087,-0.011 -0.114,-0.037 a 0.174,0.174 0 0 1 -0.045,-0.118 h 0.336 v -0.034 a 0.229,0.229 0 0 0 -0.052,-0.158 0.175,0.175 0 0 0 -0.14,-0.057 z m 0.533003,0 a 0.175,0.175 0 0 0 -0.087,0.019 0.159,0.159 0 0 0 -0.061,0.06 v -0.068 h -0.076 v 0.443 h 0.076 v -0.235 c 0,-0.05 0.008,-0.086 0.03,-0.113 a 0.123,0.123 0 0 1 0.098,-0.042 0.12,0.12 0 0 1 0.03,0.004 c 0.01,0.002 0.019,0.007 0.027,0.011 v -0.075 l -0.02,-0.004 h -0.018 z m 1.141,0 a 0.378,0.378 0 0 0 -0.151,0.03 v 0.068 a 0.316,0.316 0 0 1 0.144,-0.038 c 0.04,0 0.068,0.008 0.09,0.027 a 0.098,0.098 0 0 1 0.035,0.08 v 0.007 h -0.102 c -0.067,0 -0.114,0.012 -0.148,0.038 a 0.137,0.137 0 0 0 -0.052,0.113 c 0,0.043 0.014,0.076 0.041,0.102 a 0.155,0.155 0 0 0 0.11,0.038 0.197,0.197 0 0 0 0.09,-0.019 0.159,0.159 0 0 0 0.061,-0.06 v 0.068 h 0.076 v -0.254 c 0,-0.068 -0.017,-0.118 -0.049,-0.151 -0.031,-0.033 -0.08,-0.05 -0.144,-0.05 z m 0.564,0 a 0.192,0.192 0 0 0 -0.091,0.019 0.15,0.15 0 0 0 -0.06,0.06 v -0.068 h -0.073 v 0.443 h 0.072 v -0.235 c 0,-0.05 0.013,-0.086 0.034,-0.113 a 0.115,0.115 0 0 1 0.095,-0.042 c 0.011,0 0.024,0.002 0.034,0.004 0.01,0.002 0.018,0.007 0.026,0.011 v -0.075 l -0.023,-0.004 h -0.015 z m 1.867,0 a 0.2,0.2 0 0 0 -0.125,0.034 0.11,0.11 0 0 0 -0.045,0.094 c 0,0.035 0.01,0.064 0.03,0.084 0.02,0.02 0.053,0.032 0.098,0.041 l 0.027,0.008 c 0.045,0.01 0.073,0.02 0.087,0.03 0.013,0.01 0.019,0.025 0.019,0.045 a 0.054,0.054 0 0 1 -0.027,0.05 0.147,0.147 0 0 1 -0.08,0.018 0.38,0.38 0 0 1 -0.159,-0.042 v 0.076 a 0.593,0.593 0 0 0 0.16,0.027 c 0.057,0 0.1,-0.01 0.132,-0.034 a 0.115,0.115 0 0 0 0.05,-0.099 c 0,-0.036 -0.009,-0.066 -0.03,-0.087 a 0.25,0.25 0 0 0 -0.114,-0.045 l -0.023,-0.007 a 0.252,0.252 0 0 1 -0.08,-0.027 0.043,0.043 0 0 1 -0.018,-0.038 0.06,0.06 0 0 1 0.026,-0.053 0.168,0.168 0 0 1 0.083,-0.015 0.293,0.293 0 0 1 0.133,0.03 v -0.068 a 0.3,0.3 0 0 0 -0.065,-0.018 c -0.024,-0.004 -0.052,-0.004 -0.08,-0.004 z m 1.452,0 a 0.156,0.156 0 0 0 -0.08,0.019 0.19,0.19 0 0 0 -0.064,0.06 v -0.068 h -0.072 v 0.443 h 0.072 v -0.25 c 0,-0.043 0.01,-0.077 0.034,-0.102 a 0.122,0.122 0 0 1 0.095,-0.038 c 0.033,0 0.059,0.01 0.075,0.03 0.017,0.021 0.023,0.053 0.023,0.095 v 0.265 h 0.076 v -0.269 h -0.004 c 0,-0.061 -0.012,-0.108 -0.038,-0.14 -0.027,-0.032 -0.066,-0.045 -0.117,-0.045 z m 0.809,0 a 0.205,0.205 0 0 0 -0.16,0.064 0.25,0.25 0 0 0 -0.06,0.174 c 0,0.07 0.023,0.125 0.065,0.166 0.041,0.042 0.095,0.06 0.166,0.06 a 0.405,0.405 0 0 0 0.166,-0.033 v -0.068 a 0.378,0.378 0 0 1 -0.162,0.041 c -0.049,0 -0.086,-0.011 -0.114,-0.037 a 0.174,0.174 0 0 1 -0.045,-0.118 h 0.336 v -0.034 a 0.229,0.229 0 0 0 -0.052,-0.158 0.175,0.175 0 0 0 -0.14,-0.057 z m 0.533,0 a 0.176,0.176 0 0 0 -0.087,0.019 0.15,0.15 0 0 0 -0.061,0.06 v -0.068 h -0.076 v 0.443 h 0.076 v -0.235 c 0,-0.05 0.008,-0.086 0.03,-0.113 a 0.123,0.123 0 0 1 0.098,-0.042 0.12,0.12 0 0 1 0.03,0.004 c 0.01,0.002 0.019,0.007 0.027,0.011 v -0.075 l -0.02,-0.004 h -0.018 z m 0.313,0 a 0.17,0.17 0 0 0 -0.083,0.019 0.18,0.18 0 0 0 -0.06,0.06 v -0.068 h -0.072 v 0.443 h 0.071 v -0.25 c 0,-0.043 0.011,-0.077 0.035,-0.102 a 0.122,0.122 0 0 1 0.094,-0.038 c 0.033,0 0.06,0.01 0.076,0.03 0.017,0.021 0.023,0.053 0.023,0.095 v 0.265 h 0.071 v -0.269 c 0,-0.061 -0.011,-0.108 -0.038,-0.14 -0.026,-0.032 -0.065,-0.045 -0.117,-0.045 z m 0.488,0 a 0.205,0.205 0 0 0 -0.159,0.064 0.249,0.249 0 0 0 -0.057,0.174 c 0,0.07 0.02,0.125 0.061,0.166 0.042,0.042 0.1,0.06 0.17,0.06 a 0.405,0.405 0 0 0 0.083,-0.007 0.441,0.441 0 0 0 0.08,-0.026 v -0.068 a 0.378,0.378 0 0 1 -0.16,0.041 c -0.047,0 -0.085,-0.011 -0.113,-0.037 a 0.174,0.174 0 0 1 -0.045,-0.118 h 0.337 v -0.034 a 0.229,0.229 0 0 0 -0.053,-0.158 0.184,0.184 0 0 0 -0.144,-0.057 z m 0.537,0 a 0.192,0.192 0 0 0 -0.09,0.019 0.15,0.15 0 0 0 -0.062,0.06 v -0.068 h -0.071 v 0.443 h 0.071 v -0.235 c 0,-0.05 0.013,-0.086 0.035,-0.113 a 0.115,0.115 0 0 1 0.094,-0.042 0.12,0.12 0 0 1 0.03,0.004 c 0.01,0.002 0.022,0.007 0.03,0.011 v -0.075 l -0.022,-0.004 h -0.016 z m 0.616,0 a 0.205,0.205 0 0 0 -0.159,0.064 0.249,0.249 0 0 0 -0.057,0.174 c 0,0.07 0.02,0.125 0.06,0.166 0.043,0.042 0.1,0.06 0.171,0.06 a 0.404,0.404 0 0 0 0.083,-0.007 0.441,0.441 0 0 0 0.08,-0.026 v -0.068 a 0.338,0.338 0 0 1 -0.16,0.041 c -0.047,0 -0.085,-0.011 -0.113,-0.037 a 0.174,0.174 0 0 1 -0.045,-0.118 h 0.337 v -0.034 a 0.229,0.229 0 0 0 -0.053,-0.158 0.184,0.184 0 0 0 -0.144,-0.057 z m 0.537,0 a 0.192,0.192 0 0 0 -0.09,0.019 0.142,0.142 0 0 0 -0.058,0.06 v -0.068 h -0.076 v 0.443 h 0.076 v -0.235 c 0,-0.05 0.008,-0.086 0.03,-0.113 a 0.115,0.115 0 0 1 0.095,-0.042 c 0.01,0 0.024,0.002 0.034,0.004 0.01,0.002 0.018,0.007 0.026,0.011 v -0.075 l -0.019,-0.004 h -0.019 z m -13.130003,0.011 v 0.443 h 0.076 v -0.443 z m 7.478003,0 v 0.443 h 0.071 v -0.443 z m 1.38,0 v 0.443 h 0.071 v -0.443 z m -7.610003,0.05 c 0.036,0 0.065,0.013 0.087,0.037 a 0.137,0.137 0 0 1 0.034,0.095 h -0.26 a 0.15,0.15 0 0 1 0.041,-0.098 0.136,0.136 0 0 1 0.099,-0.034 z m 1.338,0 c 0.036,0 0.066,0.013 0.087,0.037 a 0.137,0.137 0 0 1 0.035,0.095 h -0.261 a 0.147,0.147 0 0 1 0.042,-0.098 0.136,0.136 0 0 1 0.098,-0.034 z m 1.153,0 c 0.036,0 0.066,0.013 0.087,0.037 a 0.133,0.133 0 0 1 0.034,0.095 h -0.26 a 0.147,0.147 0 0 1 0.04,-0.098 0.136,0.136 0 0 1 0.1,-0.034 z m 2.507003,0 c 0.038,0 0.068,0.014 0.09,0.045 0.023,0.03 0.035,0.075 0.035,0.128 a 0.203,0.203 0 0 1 -0.035,0.125 c -0.022,0.03 -0.052,0.045 -0.09,0.045 -0.038,0 -0.068,-0.014 -0.091,-0.045 a 0.208,0.208 0 0 1 -0.034,-0.125 0.22,0.22 0 0 1 0.034,-0.128 0.105,0.105 0 0 1 0.09,-0.046 z m 3.86,0 c 0.035,0 0.065,0.013 0.086,0.037 a 0.137,0.137 0 0 1 0.035,0.095 h -0.261 a 0.15,0.15 0 0 1 0.042,-0.098 0.136,0.136 0 0 1 0.098,-0.034 z m 1.338,0 c 0.035,0 0.061,0.013 0.083,0.037 a 0.137,0.137 0 0 1 0.034,0.095 h -0.26 a 0.153,0.153 0 0 1 0.045,-0.098 0.136,0.136 0 0 1 0.098,-0.034 z m 1.153,0 c 0.035,0 0.065,0.013 0.087,0.037 a 0.137,0.137 0 0 1 0.034,0.095 h -0.261 a 0.15,0.15 0 0 1 0.042,-0.098 0.136,0.136 0 0 1 0.098,-0.034 z m -7.137,0.17 h 0.071 v 0.015 c 0,0.047 -0.01,0.088 -0.034,0.117 a 0.122,0.122 0 0 1 -0.099,0.041 0.105,0.105 0 0 1 -0.071,-0.022 c -0.017,-0.016 -0.023,-0.035 -0.023,-0.06 0,-0.033 0.011,-0.059 0.035,-0.073 0.022,-0.013 0.062,-0.018 0.12,-0.018 z m -5.460003,0.415 v 0.091 h 0.076 v -0.09 z m 6.370003,0 v 0.239 a 0.15,0.15 0 0 0 -0.06,-0.057 0.167,0.167 0 0 0 -0.083,-0.019 0.162,0.162 0 0 0 -0.133,0.064 0.269,0.269 0 0 0 -0.049,0.17 c 0,0.07 0.016,0.124 0.05,0.167 a 0.161,0.161 0 0 0 0.132,0.064 0.17,0.17 0 0 0 0.083,-0.019 0.157,0.157 0 0 0 0.06,-0.057 v 0.065 h 0.072 v -0.617 z m 1.108,0 v 0.091 h 0.072 v -0.09 z m 0.647,0 v 0.617 h 0.075 v -0.216 l 0.223,0.216 h 0.098 l -0.245,-0.235 0.234,-0.208 h -0.094 l -0.216,0.19 v -0.364 z m 0.733,0 v 0.091 h 0.072 v -0.09 z m -4.207,0.023 v 0.594 h 0.079 v -0.28 h 0.291 v 0.28 h 0.08 v -0.594 h -0.08 v 0.246 h -0.291 v -0.246 z m 2.203,0 v 0.594 h 0.167 c 0.114,0 0.199,-0.024 0.253,-0.072 0.054,-0.048 0.08,-0.121 0.08,-0.223 0,-0.102 -0.026,-0.18 -0.08,-0.227 -0.053,-0.048 -0.138,-0.072 -0.253,-0.072 z m -6.112003,0.023 v 0.128 h -0.053 v 0.057 h 0.053 v 0.238 c 0,0.056 0.012,0.096 0.033,0.117 0.022,0.021 0.058,0.03 0.114,0.03 h 0.075 v -0.06 h -0.075 c -0.03,0 -0.05,-0.005 -0.06,-0.015 -0.01,-0.01 -0.013,-0.036 -0.013,-0.072 v -0.238 h 0.148 v -0.057 h -0.148 v -0.128 z m 2.491,0 v 0.128 h -0.053 v 0.057 h 0.053 v 0.238 c 0,0.056 0.009,0.096 0.03,0.117 0.021,0.021 0.06,0.03 0.117,0.03 h 0.076 v -0.06 h -0.076 c -0.03,0 -0.05,-0.005 -0.06,-0.015 -0.01,-0.01 -0.016,-0.036 -0.016,-0.072 v -0.238 h 0.151 v -0.057 h -0.15 v -0.128 z m 6.366003,0 v 0.128 h -0.053 v 0.057 h 0.053 v 0.238 c 0,0.056 0.009,0.096 0.03,0.117 0.021,0.021 0.06,0.03 0.117,0.03 h 0.076 v -0.06 h -0.076 c -0.03,0 -0.05,-0.005 -0.06,-0.015 -0.01,-0.01 -0.016,-0.036 -0.016,-0.072 v -0.238 h 0.151 v -0.057 h -0.151 v -0.128 z m 2.491,0 v 0.128 h -0.057 v 0.057 h 0.057 v 0.238 c 0,0.056 0.009,0.096 0.03,0.117 0.021,0.021 0.06,0.03 0.117,0.03 h 0.076 v -0.06 h -0.076 c -0.03,0 -0.05,-0.005 -0.06,-0.015 -0.01,-0.01 -0.016,-0.036 -0.016,-0.072 v -0.238 h 0.151 v -0.057 h -0.15 v -0.128 z m -5.156,0.045 h 0.098 c 0.082,0 0.14,0.02 0.178,0.057 0.038,0.037 0.06,0.094 0.06,0.174 0,0.08 -0.022,0.137 -0.06,0.174 -0.038,0.037 -0.096,0.056 -0.178,0.056 h -0.098 z m -6.490003,0.072 a 0.17,0.17 0 0 0 -0.084,0.019 0.18,0.18 0 0 0 -0.06,0.06 v -0.068 h -0.076 v 0.443 h 0.075 v -0.25 c 0,-0.043 0.011,-0.077 0.035,-0.102 a 0.114,0.114 0 0 1 0.09,-0.038 c 0.033,0 0.06,0.01 0.076,0.03 0.017,0.021 0.026,0.053 0.026,0.095 v 0.265 h 0.072 v -0.269 a 0.214,0.214 0 0 0 -0.042,-0.14 c -0.026,-0.032 -0.062,-0.045 -0.113,-0.045 z m 0.804,0 a 0.205,0.205 0 0 0 -0.158,0.064 0.25,0.25 0 0 0 -0.061,0.174 c 0,0.07 0.023,0.125 0.064,0.166 0.042,0.042 0.096,0.06 0.167,0.06 0.028,0 0.06,0 0.087,-0.007 a 0.441,0.441 0 0 0 0.079,-0.026 v -0.068 a 0.378,0.378 0 0 1 -0.159,0.041 c -0.048,0 -0.086,-0.011 -0.113,-0.037 a 0.174,0.174 0 0 1 -0.046,-0.118 h 0.333 v -0.034 a 0.229,0.229 0 0 0 -0.053,-0.158 0.175,0.175 0 0 0 -0.14,-0.057 z m 0.537,0 a 0.19,0.19 0 0 0 -0.09,0.019 0.159,0.159 0 0 0 -0.061,0.06 v -0.068 h -0.072 v 0.443 h 0.072 v -0.235 c 0,-0.05 0.012,-0.086 0.034,-0.113 a 0.115,0.115 0 0 1 0.095,-0.042 0.12,0.12 0 0 1 0.03,0.004 c 0.01,0.002 0.018,0.007 0.026,0.011 v -0.075 c -0.008,-0.002 -0.013,-0.004 -0.019,-0.004 z m 0.31,0 a 0.155,0.155 0 0 0 -0.08,0.019 0.19,0.19 0 0 0 -0.064,0.06 v -0.068 h -0.071 v 0.443 h 0.071 v -0.25 c 0,-0.043 0.015,-0.077 0.038,-0.102 a 0.114,0.114 0 0 1 0.091,-0.038 c 0.033,0 0.06,0.01 0.076,0.03 0.017,0.021 0.022,0.053 0.022,0.095 v 0.265 h 0.076 v -0.269 a 0.214,0.214 0 0 0 -0.042,-0.14 c -0.026,-0.032 -0.065,-0.045 -0.117,-0.045 z m 0.488,0 a 0.205,0.205 0 0 0 -0.159,0.064 0.249,0.249 0 0 0 -0.057,0.174 c 0,0.07 0.019,0.125 0.06,0.166 0.042,0.042 0.1,0.06 0.17,0.06 a 0.404,0.404 0 0 0 0.084,-0.007 0.441,0.441 0 0 0 0.08,-0.026 v -0.068 a 0.338,0.338 0 0 1 -0.16,0.041 c -0.048,0 -0.085,-0.011 -0.113,-0.037 a 0.174,0.174 0 0 1 -0.045,-0.118 h 0.336 v -0.034 a 0.229,0.229 0 0 0 -0.052,-0.158 0.184,0.184 0 0 0 -0.144,-0.057 z m 0.537,0 a 0.192,0.192 0 0 0 -0.091,0.019 0.142,0.142 0 0 0 -0.057,0.06 v -0.068 h -0.076 v 0.443 h 0.076 v -0.235 c 0,-0.05 0.008,-0.086 0.03,-0.113 a 0.115,0.115 0 0 1 0.094,-0.042 c 0.011,0 0.024,0.002 0.035,0.004 0.01,0.002 0.018,0.007 0.026,0.011 v -0.075 c -0.008,-0.002 -0.013,-0.004 -0.019,-0.004 h -0.019 z m 0.62,0 a 0.205,0.205 0 0 0 -0.16,0.064 0.25,0.25 0 0 0 -0.06,0.174 c 0,0.07 0.023,0.125 0.065,0.166 0.041,0.042 0.095,0.06 0.166,0.06 a 0.405,0.405 0 0 0 0.166,-0.033 v -0.068 a 0.378,0.378 0 0 1 -0.162,0.041 c -0.049,0 -0.087,-0.011 -0.114,-0.037 a 0.174,0.174 0 0 1 -0.045,-0.118 h 0.336 v -0.034 a 0.229,0.229 0 0 0 -0.052,-0.158 0.175,0.175 0 0 0 -0.14,-0.057 z m 0.533003,0 a 0.175,0.175 0 0 0 -0.087,0.019 0.159,0.159 0 0 0 -0.061,0.06 v -0.068 h -0.076 v 0.443 h 0.076 v -0.235 c 0,-0.05 0.008,-0.086 0.03,-0.113 a 0.123,0.123 0 0 1 0.098,-0.042 0.12,0.12 0 0 1 0.03,0.004 c 0.01,0.002 0.019,0.007 0.027,0.011 v -0.075 c -0.008,-0.002 -0.014,-0.004 -0.02,-0.004 h -0.018 z m 1.141,0 a 0.377,0.377 0 0 0 -0.15,0.03 v 0.068 a 0.316,0.316 0 0 1 0.144,-0.038 c 0.039,0 0.067,0.008 0.09,0.027 a 0.098,0.098 0 0 1 0.034,0.08 v 0.007 h -0.102 c -0.067,0 -0.114,0.012 -0.148,0.038 a 0.137,0.137 0 0 0 -0.052,0.113 c 0,0.043 0.014,0.076 0.041,0.102 a 0.155,0.155 0 0 0 0.11,0.038 0.197,0.197 0 0 0 0.09,-0.019 0.159,0.159 0 0 0 0.061,-0.06 v 0.067 h 0.076 v -0.253 c 0,-0.068 -0.017,-0.118 -0.049,-0.151 -0.031,-0.033 -0.08,-0.05 -0.144,-0.05 z m 0.564,0 a 0.192,0.192 0 0 0 -0.091,0.019 0.15,0.15 0 0 0 -0.06,0.06 v -0.068 h -0.073 v 0.443 h 0.072 v -0.235 c 0,-0.05 0.013,-0.086 0.034,-0.113 a 0.115,0.115 0 0 1 0.095,-0.042 0.15,0.15 0 0 1 0.034,0.004 c 0.01,0.002 0.018,0.007 0.026,0.011 v -0.075 c -0.008,-0.002 -0.017,-0.004 -0.023,-0.004 h -0.015 z m 1.867,0 a 0.2,0.2 0 0 0 -0.125,0.034 0.11,0.11 0 0 0 -0.045,0.094 c 0,0.035 0.01,0.064 0.03,0.084 0.02,0.02 0.053,0.032 0.098,0.041 l 0.027,0.008 c 0.045,0.01 0.073,0.02 0.087,0.03 0.013,0.01 0.019,0.025 0.019,0.045 a 0.054,0.054 0 0 1 -0.027,0.05 0.147,0.147 0 0 1 -0.08,0.018 0.38,0.38 0 0 1 -0.159,-0.042 v 0.076 a 0.593,0.593 0 0 0 0.16,0.027 c 0.057,0 0.1,-0.01 0.132,-0.034 a 0.115,0.115 0 0 0 0.05,-0.099 c 0,-0.036 -0.009,-0.066 -0.03,-0.087 a 0.25,0.25 0 0 0 -0.114,-0.045 l -0.023,-0.007 a 0.252,0.252 0 0 1 -0.08,-0.027 0.043,0.043 0 0 1 -0.018,-0.038 0.06,0.06 0 0 1 0.026,-0.053 0.168,0.168 0 0 1 0.083,-0.015 0.293,0.293 0 0 1 0.133,0.03 v -0.068 a 0.3,0.3 0 0 0 -0.065,-0.018 c -0.024,-0.004 -0.052,-0.004 -0.08,-0.004 z m 1.452,0 a 0.155,0.155 0 0 0 -0.08,0.019 0.19,0.19 0 0 0 -0.064,0.06 v -0.068 h -0.072 v 0.443 h 0.072 v -0.25 c 0,-0.043 0.01,-0.077 0.034,-0.102 a 0.122,0.122 0 0 1 0.095,-0.038 c 0.033,0 0.059,0.01 0.075,0.03 0.017,0.021 0.023,0.053 0.023,0.095 v 0.265 h 0.076 v -0.269 h -0.004 c 0,-0.061 -0.012,-0.108 -0.038,-0.14 -0.027,-0.032 -0.066,-0.045 -0.117,-0.045 z m 0.809,0 a 0.205,0.205 0 0 0 -0.16,0.064 0.25,0.25 0 0 0 -0.06,0.174 c 0,0.07 0.023,0.125 0.065,0.166 0.041,0.042 0.095,0.06 0.166,0.06 a 0.405,0.405 0 0 0 0.166,-0.033 v -0.068 a 0.378,0.378 0 0 1 -0.162,0.041 c -0.049,0 -0.086,-0.011 -0.114,-0.037 a 0.174,0.174 0 0 1 -0.045,-0.118 h 0.336 v -0.034 a 0.229,0.229 0 0 0 -0.052,-0.158 0.175,0.175 0 0 0 -0.14,-0.057 z m 0.533,0 a 0.176,0.176 0 0 0 -0.087,0.019 0.15,0.15 0 0 0 -0.061,0.06 v -0.068 h -0.076 v 0.443 h 0.076 v -0.235 c 0,-0.05 0.008,-0.086 0.03,-0.113 a 0.123,0.123 0 0 1 0.098,-0.042 0.12,0.12 0 0 1 0.03,0.004 c 0.01,0.002 0.019,0.007 0.027,0.011 v -0.075 c -0.008,-0.002 -0.014,-0.004 -0.02,-0.004 h -0.018 z m 0.313,0 a 0.17,0.17 0 0 0 -0.083,0.019 0.18,0.18 0 0 0 -0.06,0.06 v -0.068 h -0.072 v 0.443 h 0.072 v -0.25 c 0,-0.043 0.01,-0.077 0.034,-0.102 a 0.122,0.122 0 0 1 0.094,-0.038 c 0.033,0 0.06,0.01 0.076,0.03 0.017,0.021 0.023,0.053 0.023,0.095 v 0.265 h 0.071 v -0.269 c 0,-0.061 -0.011,-0.108 -0.038,-0.14 -0.026,-0.032 -0.065,-0.045 -0.117,-0.045 z m 0.488,0 a 0.205,0.205 0 0 0 -0.159,0.064 0.249,0.249 0 0 0 -0.057,0.174 c 0,0.07 0.02,0.125 0.061,0.166 0.042,0.042 0.1,0.06 0.17,0.06 a 0.404,0.404 0 0 0 0.083,-0.007 0.441,0.441 0 0 0 0.08,-0.026 v -0.068 a 0.378,0.378 0 0 1 -0.16,0.041 c -0.047,0 -0.085,-0.011 -0.113,-0.037 a 0.174,0.174 0 0 1 -0.045,-0.118 h 0.337 v -0.034 a 0.229,0.229 0 0 0 -0.053,-0.158 0.184,0.184 0 0 0 -0.144,-0.057 z m 0.537,0 a 0.192,0.192 0 0 0 -0.09,0.019 0.15,0.15 0 0 0 -0.062,0.06 v -0.068 h -0.071 v 0.443 h 0.071 v -0.235 c 0,-0.05 0.013,-0.086 0.035,-0.113 a 0.115,0.115 0 0 1 0.094,-0.042 0.12,0.12 0 0 1 0.03,0.004 c 0.01,0.002 0.022,0.007 0.03,0.011 v -0.075 l -0.022,-0.004 h -0.016 z m 0.616,0 a 0.205,0.205 0 0 0 -0.159,0.064 0.249,0.249 0 0 0 -0.057,0.174 c 0,0.07 0.02,0.125 0.06,0.166 0.043,0.042 0.1,0.06 0.171,0.06 a 0.405,0.405 0 0 0 0.083,-0.007 0.441,0.441 0 0 0 0.08,-0.026 v -0.068 a 0.338,0.338 0 0 1 -0.16,0.041 c -0.047,0 -0.085,-0.011 -0.112,-0.037 a 0.174,0.174 0 0 1 -0.046,-0.118 h 0.337 v -0.034 a 0.229,0.229 0 0 0 -0.053,-0.158 0.184,0.184 0 0 0 -0.144,-0.057 z m 0.537,0 a 0.192,0.192 0 0 0 -0.09,0.019 0.142,0.142 0 0 0 -0.058,0.06 v -0.068 h -0.076 v 0.443 h 0.076 v -0.235 c 0,-0.05 0.008,-0.086 0.03,-0.113 a 0.115,0.115 0 0 1 0.095,-0.042 c 0.01,0 0.024,0.002 0.034,0.004 0.01,0.002 0.018,0.007 0.026,0.011 v -0.075 c -0.008,-0.002 -0.013,-0.004 -0.019,-0.004 h -0.019 z m -13.130003,0.011 v 0.443 h 0.076 v -0.443 z m 7.478003,0 v 0.443 h 0.072 v -0.443 z m 1.38,0 v 0.443 h 0.071 v -0.443 z m -7.610003,0.05 c 0.036,0 0.065,0.013 0.087,0.037 a 0.137,0.137 0 0 1 0.035,0.095 h -0.261 a 0.15,0.15 0 0 1 0.041,-0.098 0.136,0.136 0 0 1 0.099,-0.035 z m 1.338,0 c 0.036,0 0.066,0.013 0.087,0.037 a 0.137,0.137 0 0 1 0.035,0.095 h -0.261 a 0.147,0.147 0 0 1 0.042,-0.098 0.136,0.136 0 0 1 0.098,-0.035 z m 1.153,0 c 0.036,0 0.066,0.013 0.087,0.037 a 0.133,0.133 0 0 1 0.034,0.095 h -0.26 a 0.147,0.147 0 0 1 0.041,-0.098 0.136,0.136 0 0 1 0.098,-0.035 z m 2.507003,0 c 0.038,0 0.068,0.014 0.09,0.045 0.023,0.03 0.035,0.075 0.035,0.128 a 0.203,0.203 0 0 1 -0.035,0.125 c -0.022,0.03 -0.052,0.045 -0.09,0.045 -0.038,0 -0.068,-0.014 -0.091,-0.045 a 0.208,0.208 0 0 1 -0.034,-0.125 0.22,0.22 0 0 1 0.034,-0.128 0.105,0.105 0 0 1 0.09,-0.046 z m 3.86,0 c 0.035,0 0.065,0.013 0.086,0.037 a 0.137,0.137 0 0 1 0.035,0.095 h -0.261 a 0.15,0.15 0 0 1 0.042,-0.098 0.136,0.136 0 0 1 0.098,-0.035 z m 1.338,0 c 0.035,0 0.061,0.013 0.083,0.037 a 0.137,0.137 0 0 1 0.034,0.095 h -0.26 a 0.153,0.153 0 0 1 0.045,-0.098 0.136,0.136 0 0 1 0.098,-0.035 z m 1.153,0 c 0.035,0 0.065,0.013 0.087,0.037 a 0.137,0.137 0 0 1 0.034,0.095 h -0.261 a 0.15,0.15 0 0 1 0.042,-0.098 0.136,0.136 0 0 1 0.098,-0.035 z m -7.137,0.17 h 0.071 v 0.015 c 0,0.047 -0.01,0.088 -0.034,0.117 a 0.122,0.122 0 0 1 -0.098,0.041 0.105,0.105 0 0 1 -0.072,-0.022 c -0.017,-0.016 -0.023,-0.035 -0.023,-0.06 0,-0.033 0.011,-0.059 0.035,-0.073 0.022,-0.013 0.062,-0.018 0.12,-0.018 z m -5.460003,0.415 v 0.091 h 0.076 v -0.09 z m 6.370003,0 v 0.239 a 0.15,0.15 0 0 0 -0.06,-0.057 0.167,0.167 0 0 0 -0.083,-0.019 0.162,0.162 0 0 0 -0.133,0.064 0.269,0.269 0 0 0 -0.049,0.17 c 0,0.07 0.016,0.124 0.05,0.167 a 0.161,0.161 0 0 0 0.132,0.064 0.17,0.17 0 0 0 0.083,-0.019 0.157,0.157 0 0 0 0.06,-0.057 v 0.065 h 0.072 v -0.617 z m 1.108,0 v 0.091 h 0.072 v -0.09 z m 0.647,0 v 0.617 h 0.075 v -0.216 l 0.223,0.216 h 0.099 l -0.246,-0.235 0.234,-0.208 h -0.094 l -0.216,0.19 v -0.364 z m 0.733,0 v 0.091 h 0.072 v -0.09 z m -4.207,0.023 v 0.594 h 0.079 v -0.28 h 0.291 v 0.28 h 0.08 v -0.594 h -0.08 v 0.246 h -0.291 v -0.246 z m 2.203,0 v 0.594 h 0.167 c 0.114,0 0.2,-0.024 0.253,-0.072 0.054,-0.048 0.08,-0.121 0.08,-0.223 0,-0.102 -0.026,-0.18 -0.08,-0.227 -0.053,-0.048 -0.138,-0.072 -0.253,-0.072 z m -6.112003,0.023 v 0.128 h -0.053 v 0.057 h 0.053 v 0.238 c 0,0.056 0.012,0.096 0.033,0.117 0.022,0.021 0.058,0.03 0.114,0.03 h 0.075 v -0.06 h -0.075 c -0.03,0 -0.05,-0.005 -0.06,-0.015 -0.01,-0.01 -0.013,-0.036 -0.013,-0.072 v -0.238 h 0.148 v -0.057 h -0.148 v -0.128 z m 2.491,0 v 0.128 h -0.053 v 0.057 h 0.053 v 0.238 c 0,0.056 0.009,0.096 0.03,0.117 0.021,0.021 0.06,0.03 0.117,0.03 h 0.076 v -0.06 h -0.076 c -0.03,0 -0.05,-0.005 -0.06,-0.015 -0.01,-0.01 -0.016,-0.036 -0.016,-0.072 v -0.238 h 0.151 v -0.057 h -0.15 v -0.128 z m 6.366003,0 v 0.128 h -0.053 v 0.057 h 0.053 v 0.238 c 0,0.056 0.009,0.096 0.03,0.117 0.021,0.021 0.06,0.03 0.117,0.03 h 0.076 v -0.06 h -0.076 c -0.03,0 -0.05,-0.005 -0.06,-0.015 -0.01,-0.01 -0.016,-0.036 -0.016,-0.072 v -0.238 h 0.151 v -0.057 h -0.151 v -0.128 z m 2.491,0 v 0.128 h -0.057 v 0.057 h 0.057 v 0.238 c 0,0.056 0.009,0.096 0.03,0.117 0.021,0.021 0.06,0.03 0.117,0.03 h 0.076 v -0.06 h -0.076 c -0.03,0 -0.05,-0.005 -0.06,-0.015 -0.01,-0.01 -0.016,-0.036 -0.016,-0.072 v -0.238 h 0.151 v -0.057 h -0.15 v -0.128 z m 2.764,0 v 0.128 h -0.058 v 0.057 h 0.058 v 0.238 c 0,0.056 0.008,0.096 0.03,0.117 0.02,0.021 0.06,0.03 0.117,0.03 h 0.075 v -0.06 h -0.075 c -0.03,0 -0.05,-0.005 -0.061,-0.015 -0.01,-0.01 -0.015,-0.036 -0.015,-0.072 v -0.238 h 0.15 v -0.057 h -0.15 v -0.128 z m -7.92,0.045 h 0.098 c 0.082,0 0.14,0.02 0.178,0.057 0.038,0.037 0.06,0.094 0.06,0.174 0,0.08 -0.022,0.137 -0.06,0.174 -0.038,0.037 -0.096,0.056 -0.178,0.056 h -0.098 z m -6.490003,0.072 a 0.17,0.17 0 0 0 -0.084,0.019 0.18,0.18 0 0 0 -0.06,0.06 v -0.068 h -0.076 v 0.443 h 0.075 v -0.25 c 0,-0.043 0.011,-0.077 0.035,-0.102 a 0.114,0.114 0 0 1 0.09,-0.038 c 0.033,0 0.06,0.01 0.076,0.03 0.017,0.021 0.026,0.053 0.026,0.095 v 0.265 h 0.072 v -0.269 a 0.214,0.214 0 0 0 -0.042,-0.14 c -0.026,-0.032 -0.062,-0.045 -0.113,-0.045 z m 0.804,0 a 0.205,0.205 0 0 0 -0.158,0.064 0.25,0.25 0 0 0 -0.061,0.174 c 0,0.07 0.023,0.125 0.064,0.166 0.042,0.042 0.096,0.06 0.167,0.06 0.028,0 0.06,0 0.087,-0.007 a 0.441,0.441 0 0 0 0.079,-0.026 v -0.068 a 0.378,0.378 0 0 1 -0.159,0.041 c -0.048,0 -0.086,-0.011 -0.113,-0.037 a 0.174,0.174 0 0 1 -0.046,-0.118 h 0.333 v -0.034 a 0.229,0.229 0 0 0 -0.053,-0.158 0.175,0.175 0 0 0 -0.14,-0.057 z m 0.537,0 a 0.19,0.19 0 0 0 -0.09,0.019 0.159,0.159 0 0 0 -0.061,0.06 v -0.068 h -0.072 v 0.443 h 0.072 v -0.235 c 0,-0.05 0.012,-0.086 0.034,-0.113 a 0.115,0.115 0 0 1 0.095,-0.042 0.12,0.12 0 0 1 0.03,0.004 c 0.01,0.002 0.018,0.007 0.026,0.011 v -0.075 l -0.019,-0.004 z m 0.31,0 a 0.155,0.155 0 0 0 -0.08,0.019 0.19,0.19 0 0 0 -0.064,0.06 v -0.068 h -0.071 v 0.443 h 0.071 v -0.25 c 0,-0.043 0.015,-0.077 0.038,-0.102 a 0.114,0.114 0 0 1 0.091,-0.038 c 0.033,0 0.06,0.01 0.076,0.03 0.017,0.021 0.023,0.053 0.023,0.095 v 0.265 h 0.075 v -0.269 a 0.214,0.214 0 0 0 -0.042,-0.14 c -0.026,-0.032 -0.065,-0.045 -0.117,-0.045 z m 0.488,0 a 0.205,0.205 0 0 0 -0.159,0.064 0.249,0.249 0 0 0 -0.057,0.174 c 0,0.07 0.019,0.125 0.06,0.166 0.042,0.042 0.1,0.06 0.17,0.06 a 0.405,0.405 0 0 0 0.084,-0.007 0.441,0.441 0 0 0 0.08,-0.026 v -0.068 a 0.338,0.338 0 0 1 -0.16,0.041 c -0.048,0 -0.085,-0.011 -0.113,-0.037 a 0.174,0.174 0 0 1 -0.045,-0.118 h 0.336 v -0.034 a 0.229,0.229 0 0 0 -0.052,-0.158 0.184,0.184 0 0 0 -0.144,-0.057 z m 0.537,0 a 0.192,0.192 0 0 0 -0.091,0.019 0.142,0.142 0 0 0 -0.057,0.06 v -0.068 h -0.076 v 0.443 h 0.076 v -0.235 c 0,-0.05 0.008,-0.086 0.03,-0.113 a 0.115,0.115 0 0 1 0.094,-0.042 c 0.011,0 0.024,0.002 0.035,0.004 0.01,0.002 0.018,0.007 0.026,0.011 v -0.075 l -0.019,-0.004 h -0.019 z m 0.62,0 a 0.205,0.205 0 0 0 -0.16,0.064 0.25,0.25 0 0 0 -0.06,0.174 c 0,0.07 0.023,0.125 0.065,0.166 0.041,0.042 0.095,0.06 0.166,0.06 a 0.405,0.405 0 0 0 0.166,-0.033 v -0.068 a 0.378,0.378 0 0 1 -0.162,0.041 c -0.049,0 -0.086,-0.011 -0.114,-0.037 a 0.174,0.174 0 0 1 -0.045,-0.118 h 0.336 v -0.034 a 0.229,0.229 0 0 0 -0.052,-0.158 0.175,0.175 0 0 0 -0.14,-0.057 z m 0.533003,0 a 0.175,0.175 0 0 0 -0.087,0.019 0.159,0.159 0 0 0 -0.061,0.06 v -0.068 h -0.076 v 0.443 h 0.076 v -0.235 c 0,-0.05 0.008,-0.086 0.03,-0.113 a 0.123,0.123 0 0 1 0.098,-0.042 0.12,0.12 0 0 1 0.03,0.004 c 0.01,0.002 0.019,0.007 0.027,0.011 v -0.075 l -0.02,-0.004 h -0.018 z m 1.141,0 a 0.377,0.377 0 0 0 -0.15,0.03 v 0.068 a 0.316,0.316 0 0 1 0.144,-0.038 c 0.039,0 0.067,0.008 0.09,0.027 a 0.098,0.098 0 0 1 0.034,0.08 v 0.007 h -0.102 c -0.067,0 -0.114,0.012 -0.148,0.038 a 0.137,0.137 0 0 0 -0.052,0.113 c 0,0.043 0.014,0.076 0.041,0.102 a 0.155,0.155 0 0 0 0.11,0.038 0.197,0.197 0 0 0 0.09,-0.019 0.159,0.159 0 0 0 0.061,-0.06 v 0.067 h 0.076 v -0.253 c 0,-0.068 -0.017,-0.118 -0.049,-0.151 -0.031,-0.033 -0.08,-0.05 -0.144,-0.05 z m 0.564,0 a 0.192,0.192 0 0 0 -0.091,0.019 0.15,0.15 0 0 0 -0.06,0.06 v -0.068 h -0.073 v 0.443 h 0.072 v -0.235 c 0,-0.05 0.013,-0.086 0.035,-0.113 a 0.115,0.115 0 0 1 0.094,-0.042 0.15,0.15 0 0 1 0.034,0.004 c 0.01,0.002 0.018,0.007 0.026,0.011 v -0.075 l -0.023,-0.004 h -0.015 z m 1.867,0 a 0.2,0.2 0 0 0 -0.125,0.034 0.11,0.11 0 0 0 -0.045,0.094 c 0,0.035 0.01,0.064 0.03,0.084 0.02,0.02 0.053,0.035 0.098,0.045 l 0.027,0.004 c 0.045,0.01 0.073,0.02 0.087,0.03 0.013,0.01 0.019,0.026 0.019,0.045 a 0.054,0.054 0 0 1 -0.027,0.05 0.147,0.147 0 0 1 -0.08,0.018 0.38,0.38 0 0 1 -0.159,-0.042 v 0.076 a 0.593,0.593 0 0 0 0.16,0.027 c 0.057,0 0.1,-0.01 0.132,-0.034 a 0.115,0.115 0 0 0 0.05,-0.098 c 0,-0.037 -0.009,-0.067 -0.03,-0.087 a 0.25,0.25 0 0 0 -0.114,-0.046 l -0.023,-0.007 a 0.252,0.252 0 0 1 -0.08,-0.027 0.043,0.043 0 0 1 -0.018,-0.038 0.06,0.06 0 0 1 0.026,-0.052 0.168,0.168 0 0 1 0.083,-0.016 0.293,0.293 0 0 1 0.133,0.03 v -0.067 a 0.299,0.299 0 0 0 -0.065,-0.02 c -0.024,-0.003 -0.052,-0.003 -0.08,-0.003 z m 1.452,0 a 0.155,0.155 0 0 0 -0.08,0.019 0.19,0.19 0 0 0 -0.064,0.06 v -0.068 h -0.072 v 0.443 h 0.072 v -0.25 c 0,-0.043 0.01,-0.077 0.034,-0.102 a 0.122,0.122 0 0 1 0.095,-0.038 c 0.033,0 0.059,0.01 0.075,0.03 0.017,0.021 0.023,0.053 0.023,0.095 v 0.265 h 0.076 v -0.269 h -0.004 c 0,-0.061 -0.012,-0.108 -0.038,-0.14 -0.027,-0.032 -0.066,-0.045 -0.117,-0.045 z m 0.809,0 a 0.205,0.205 0 0 0 -0.16,0.064 0.25,0.25 0 0 0 -0.06,0.174 c 0,0.07 0.023,0.125 0.065,0.166 0.041,0.042 0.095,0.06 0.166,0.06 a 0.405,0.405 0 0 0 0.166,-0.033 v -0.068 a 0.378,0.378 0 0 1 -0.162,0.041 c -0.049,0 -0.086,-0.011 -0.114,-0.037 a 0.174,0.174 0 0 1 -0.045,-0.118 h 0.336 v -0.034 a 0.229,0.229 0 0 0 -0.052,-0.158 0.175,0.175 0 0 0 -0.14,-0.057 z m 0.533,0 a 0.176,0.176 0 0 0 -0.087,0.019 0.15,0.15 0 0 0 -0.061,0.06 v -0.068 h -0.076 v 0.443 h 0.076 v -0.235 c 0,-0.05 0.008,-0.086 0.03,-0.113 a 0.123,0.123 0 0 1 0.098,-0.042 0.12,0.12 0 0 1 0.03,0.004 c 0.01,0.002 0.019,0.007 0.027,0.011 v -0.075 l -0.02,-0.004 h -0.018 z m 0.313,0 a 0.17,0.17 0 0 0 -0.083,0.019 0.18,0.18 0 0 0 -0.06,0.06 v -0.068 h -0.072 v 0.443 h 0.072 v -0.25 c 0,-0.043 0.01,-0.077 0.034,-0.102 a 0.122,0.122 0 0 1 0.094,-0.038 c 0.033,0 0.06,0.01 0.076,0.03 0.017,0.021 0.023,0.053 0.023,0.095 v 0.265 h 0.071 v -0.269 c 0,-0.061 -0.011,-0.108 -0.038,-0.14 -0.026,-0.032 -0.065,-0.045 -0.117,-0.045 z m 0.488,0 a 0.205,0.205 0 0 0 -0.159,0.064 0.249,0.249 0 0 0 -0.057,0.174 c 0,0.07 0.02,0.125 0.061,0.166 0.042,0.042 0.1,0.06 0.17,0.06 a 0.405,0.405 0 0 0 0.083,-0.007 0.441,0.441 0 0 0 0.08,-0.026 v -0.068 a 0.378,0.378 0 0 1 -0.16,0.041 c -0.047,0 -0.085,-0.011 -0.113,-0.037 a 0.174,0.174 0 0 1 -0.045,-0.118 h 0.337 v -0.034 a 0.229,0.229 0 0 0 -0.053,-0.158 0.184,0.184 0 0 0 -0.144,-0.057 z m 0.537,0 a 0.192,0.192 0 0 0 -0.09,0.019 0.15,0.15 0 0 0 -0.062,0.06 v -0.068 h -0.071 v 0.443 h 0.071 v -0.235 c 0,-0.05 0.013,-0.086 0.035,-0.113 a 0.115,0.115 0 0 1 0.094,-0.042 0.12,0.12 0 0 1 0.03,0.004 c 0.01,0.002 0.022,0.007 0.03,0.011 v -0.075 l -0.022,-0.004 h -0.016 z m 0.616,0 a 0.205,0.205 0 0 0 -0.159,0.064 0.249,0.249 0 0 0 -0.057,0.174 c 0,0.07 0.02,0.125 0.06,0.166 0.043,0.042 0.1,0.06 0.171,0.06 a 0.405,0.405 0 0 0 0.083,-0.007 0.441,0.441 0 0 0 0.08,-0.026 v -0.068 a 0.338,0.338 0 0 1 -0.16,0.041 c -0.047,0 -0.085,-0.011 -0.112,-0.037 a 0.174,0.174 0 0 1 -0.046,-0.118 h 0.337 v -0.034 a 0.229,0.229 0 0 0 -0.053,-0.158 0.184,0.184 0 0 0 -0.144,-0.057 z m 0.537,0 a 0.192,0.192 0 0 0 -0.09,0.019 0.142,0.142 0 0 0 -0.058,0.06 v -0.068 h -0.076 v 0.443 h 0.076 v -0.235 c 0,-0.05 0.008,-0.086 0.03,-0.113 a 0.115,0.115 0 0 1 0.095,-0.042 c 0.01,0 0.024,0.002 0.034,0.004 0.01,0.002 0.018,0.007 0.026,0.011 v -0.075 l -0.019,-0.004 h -0.019 z m 0.586,0 a 0.17,0.17 0 0 0 -0.083,0.019 0.18,0.18 0 0 0 -0.061,0.06 v -0.068 h -0.072 v 0.443 h 0.072 v -0.25 c 0,-0.043 0.01,-0.077 0.034,-0.102 a 0.122,0.122 0 0 1 0.095,-0.038 c 0.033,0 0.059,0.01 0.075,0.03 0.017,0.021 0.023,0.053 0.023,0.095 v 0.265 h 0.072 v -0.269 c 0,-0.061 -0.012,-0.108 -0.038,-0.14 -0.027,-0.032 -0.066,-0.045 -0.118,-0.045 z m 0.487,0 a 0.205,0.205 0 0 0 -0.158,0.064 0.249,0.249 0 0 0 -0.057,0.174 c 0,0.07 0.019,0.125 0.06,0.166 0.042,0.042 0.1,0.06 0.17,0.06 a 0.405,0.405 0 0 0 0.084,-0.007 0.441,0.441 0 0 0 0.079,-0.026 v -0.068 a 0.378,0.378 0 0 1 -0.159,0.041 c -0.048,0 -0.086,-0.011 -0.113,-0.037 a 0.174,0.174 0 0 1 -0.046,-0.118 h 0.337 v -0.034 a 0.229,0.229 0 0 0 -0.053,-0.158 0.184,0.184 0 0 0 -0.143,-0.057 z m 0.537,0 a 0.19,0.19 0 0 0 -0.09,0.019 0.159,0.159 0 0 0 -0.061,0.06 v -0.068 h -0.072 v 0.443 h 0.072 v -0.235 c 0,-0.05 0.012,-0.086 0.034,-0.113 a 0.115,0.115 0 0 1 0.095,-0.042 0.12,0.12 0 0 1 0.03,0.004 c 0.01,0.002 0.022,0.007 0.03,0.011 v -0.075 l -0.023,-0.004 z m 0.616,0 a 0.205,0.205 0 0 0 -0.158,0.064 0.249,0.249 0 0 0 -0.057,0.174 c 0,0.07 0.019,0.125 0.06,0.166 0.042,0.042 0.1,0.06 0.17,0.06 a 0.405,0.405 0 0 0 0.084,-0.007 0.441,0.441 0 0 0 0.079,-0.026 v -0.068 a 0.338,0.338 0 0 1 -0.159,0.041 c -0.048,0 -0.086,-0.011 -0.113,-0.037 a 0.174,0.174 0 0 1 -0.046,-0.118 h 0.337 v -0.034 a 0.229,0.229 0 0 0 -0.053,-0.158 0.184,0.184 0 0 0 -0.143,-0.057 z m 0.537,0 a 0.192,0.192 0 0 0 -0.09,0.019 0.15,0.15 0 0 0 -0.061,0.06 v -0.068 h -0.072 v 0.443 h 0.072 v -0.235 c 0,-0.05 0.012,-0.086 0.033,-0.113 a 0.115,0.115 0 0 1 0.095,-0.042 c 0.01,0 0.024,0.002 0.034,0.004 0.01,0.002 0.019,0.007 0.027,0.011 v -0.075 l -0.02,-0.004 z m -15.892003,0.011 v 0.443 h 0.076 v -0.443 z m 7.477003,0 v 0.443 h 0.072 v -0.443 z m 1.38,0 v 0.443 h 0.072 v -0.443 z m -7.610003,0.05 c 0.036,0 0.066,0.013 0.087,0.037 a 0.137,0.137 0 0 1 0.035,0.095 h -0.261 a 0.15,0.15 0 0 1 0.042,-0.099 0.136,0.136 0 0 1 0.098,-0.034 z m 1.339,0 c 0.036,0 0.065,0.013 0.087,0.037 a 0.137,0.137 0 0 1 0.034,0.095 h -0.26 a 0.147,0.147 0 0 1 0.041,-0.099 0.136,0.136 0 0 1 0.098,-0.034 z m 1.153,0 c 0.036,0 0.065,0.013 0.087,0.037 a 0.133,0.133 0 0 1 0.033,0.095 h -0.26 a 0.147,0.147 0 0 1 0.041,-0.099 0.136,0.136 0 0 1 0.099,-0.034 z m 2.506003,0 c 0.039,0 0.068,0.014 0.09,0.045 0.023,0.03 0.035,0.075 0.035,0.128 a 0.203,0.203 0 0 1 -0.034,0.125 c -0.023,0.03 -0.052,0.045 -0.09,0.045 -0.038,0 -0.069,-0.014 -0.092,-0.045 a 0.208,0.208 0 0 1 -0.034,-0.125 0.22,0.22 0 0 1 0.034,-0.128 0.105,0.105 0 0 1 0.091,-0.046 z m 3.86,0 c 0.036,0 0.065,0.013 0.087,0.037 a 0.137,0.137 0 0 1 0.034,0.095 h -0.26 a 0.15,0.15 0 0 1 0.04,-0.099 0.136,0.136 0 0 1 0.1,-0.034 z m 1.338,0 c 0.036,0 0.061,0.013 0.083,0.037 a 0.137,0.137 0 0 1 0.035,0.095 h -0.261 a 0.153,0.153 0 0 1 0.045,-0.099 0.136,0.136 0 0 1 0.098,-0.034 z m 1.153,0 c 0.036,0 0.065,0.013 0.087,0.037 a 0.137,0.137 0 0 1 0.034,0.095 h -0.26 a 0.15,0.15 0 0 1 0.041,-0.099 0.136,0.136 0 0 1 0.098,-0.034 z m 1.61,0 c 0.036,0 0.062,0.013 0.084,0.037 a 0.133,0.133 0 0 1 0.033,0.095 h -0.26 a 0.153,0.153 0 0 1 0.045,-0.099 0.136,0.136 0 0 1 0.098,-0.034 z m 1.153,0 c 0.036,0 0.065,0.013 0.087,0.037 a 0.137,0.137 0 0 1 0.035,0.095 h -0.261 a 0.15,0.15 0 0 1 0.042,-0.099 0.136,0.136 0 0 1 0.098,-0.034 z m -9.9,0.17 h 0.071 v 0.015 c 0,0.047 -0.009,0.088 -0.034,0.117 a 0.122,0.122 0 0 1 -0.098,0.041 0.105,0.105 0 0 1 -0.072,-0.022 c -0.017,-0.016 -0.023,-0.035 -0.023,-0.06 0,-0.033 0.011,-0.059 0.035,-0.073 0.022,-0.013 0.062,-0.018 0.12,-0.018 z"
         fill="#ffffff"
         id="path97"
         style="stroke-width:7.315" />
      <path
         d="m 34.10296,-2.67377 c -0.154,0 -0.191,0.153 -0.28,0.28 l -1.996,2.842 c -0.088,0.126 0.122,0.28 0.276,0.28 h 4.064 c 0.154,0 0.362,-0.152 0.276,-0.28 l -1.902,-2.842 c -0.085,-0.128 -0.125,-0.28 -0.28,-0.28 z m 0.034,1.058 c 0.131,0 0.235,0.126 0.235,0.28 v 0.62 c 0,0.154 -0.104,0.28 -0.235,0.28 -0.13,0 -0.238,-0.126 -0.238,-0.28 v -0.62 c 0,-0.154 0.107,-0.28 0.238,-0.28 z m -0.015,1.346 a 0.22,0.197 0 0 1 0.015,0 0.22,0.197 0 0 1 0.22,0.196 0.22,0.197 0 0 1 -0.22,0.197 0.22,0.197 0 0 1 -0.219,-0.197 0.22,0.197 0 0 1 0.204,-0.196 z"
         fill="#ffffff"
         id="path98" />
    </g>
  </g>
</svg>
