<?xml version="1.0" encoding="UTF-8"?>
<svg width="64" height="64" version="1.1" viewBox="0 0 16.933 16.933" xmlns="http://www.w3.org/2000/svg" xmlns:xlink="http://www.w3.org/1999/xlink">
 <defs>
  <linearGradient id="c">
   <stop stop-color="#fcfcfc" offset="0"/>
   <stop stop-color="#e3e3e3" offset="1"/>
  </linearGradient>
  <linearGradient id="b" x1="-241.22" x2="-241.22" y1="231.54" y2="240.93" gradientTransform="matrix(.31498 0 0 .31498 91.172 198.65)" gradientUnits="userSpaceOnUse">
   <stop stop-color="#e5e5e5" offset="0"/>
   <stop stop-color="#b2b2b2" offset="1"/>
  </linearGradient>
  <linearGradient id="a" x1="-230.59" x2="-128.89" y1="205.2" y2="247.06" gradientUnits="userSpaceOnUse" xlink:href="#c"/>
  <filter id="filter1057" x="-.027" y="-.027" width="1.054" height="1.054" color-interpolation-filters="sRGB">
   <feGaussianBlur stdDeviation="0.61875"/>
  </filter>
  <linearGradient id="linearGradient1053" x1="-127" x2="-72" y1="60" y2="5" gradientTransform="matrix(.26458 0 0 .26458 47.587 3.918)" gradientUnits="userSpaceOnUse">
   <stop stop-color="#32d7ff" offset="0"/>
   <stop stop-color="#329bff" offset="1"/>
  </linearGradient>
  <linearGradient id="linearGradient13955" x1="2.0208" x2="14.938" y1="12.86" y2="4.0527" gradientTransform="rotate(15 -.62306 59.232)" gradientUnits="userSpaceOnUse">
   <stop stop-color="#fff" offset="0"/>
   <stop stop-color="#fff" offset="1"/>
  </linearGradient>
  <linearGradient id="linearGradient2393" x1="12.902" x2="51.847" y1="30.471" y2="30.471" gradientTransform="matrix(.024304 -.0033607 .0033607 .024304 16.14 5.1499)" gradientUnits="userSpaceOnUse" xlink:href="#linearGradient13963"/>
  <linearGradient id="linearGradient13963" x1="12.902" x2="51.847" y1="30.471" y2="30.471" gradientTransform="matrix(.88217 -.12198 .12198 .88217 32.107 -4.6962)" gradientUnits="userSpaceOnUse">
   <stop stop-color="#00c8ff" offset="0"/>
   <stop stop-color="#14b4ff" offset="1"/>
  </linearGradient>
  <linearGradient id="linearGradient2407" x1="12.902" x2="51.847" y1="30.471" y2="30.471" gradientTransform="matrix(.2334 -.032274 .032274 .2334 21.191 3.2149)" gradientUnits="userSpaceOnUse" xlink:href="#linearGradient13963"/>
  <linearGradient id="linearGradient2457" x1="12.902" x2="51.847" y1="30.471" y2="30.471" gradientTransform="matrix(.2334 -.032274 .032274 .2334 21.191 3.1261)" gradientUnits="userSpaceOnUse" xlink:href="#linearGradient13963"/>
 </defs>
 <g transform="translate(-19.626 -280.07)">
  <g transform="matrix(.5035 0 0 .50116 -.059227 148.3)" stroke-width="1.9907">
   <rect x=".31629" y="270.52" width="33.234" height="18.603" ry=".70999" fill="url(#b)" stroke="#808080" stroke-linecap="round" stroke-linejoin="round" stroke-width=".26336"/>
   <g transform="matrix(.31498 0 0 .31498 73.43 210.79)" opacity=".25">
    <rect x="-230.59" y="201.44" width="6.5692" height="3.7538" ry=".54973" opacity="1"/>
    <rect x="-222.96" y="201.44" width="6.5692" height="3.7538" ry=".54973" opacity="1"/>
    <rect x="-215.24" y="201.44" width="6.5692" height="3.7538" ry=".54973" opacity="1"/>
    <rect x="-207.61" y="201.44" width="6.5692" height="3.7538" ry=".54973" opacity="1"/>
    <rect x="-199.89" y="201.44" width="6.5692" height="3.7538" ry=".54973" opacity="1"/>
    <rect x="-192.27" y="201.44" width="6.5692" height="3.7538" ry=".54973" opacity="1"/>
    <rect x="-184.55" y="201.44" width="6.5692" height="3.7538" ry=".54973" opacity="1"/>
    <rect x="-176.92" y="201.44" width="6.5692" height="3.7538" ry=".54973" opacity="1"/>
    <rect x="-169.2" y="201.44" width="6.5692" height="3.7538" ry=".54973" opacity="1"/>
    <rect x="-161.58" y="201.44" width="6.5692" height="3.7538" ry=".54973" opacity="1"/>
    <rect x="-153.86" y="201.44" width="6.5692" height="3.7538" ry=".54973" opacity="1"/>
    <rect x="-146.23" y="201.44" width="6.5692" height="3.7538" ry=".54973" opacity="1"/>
    <rect x="-132.82" y="201.44" width="4.5534" height="3.7538" ry=".54973" opacity="1"/>
    <rect x="-230.59" y="206.34" width="7.0971" height="7.3317" ry=".78043" opacity="1"/>
    <rect x="-222.12" y="206.34" width="7.0971" height="7.3317" ry=".78043" opacity="1"/>
    <rect x="-213.65" y="206.34" width="7.0971" height="7.3317" ry=".78043" opacity="1"/>
    <rect x="-205.19" y="206.34" width="7.0971" height="7.3317" ry=".78043" opacity="1"/>
    <rect x="-196.72" y="206.34" width="7.0971" height="7.3317" ry=".78043" opacity="1"/>
    <rect x="-188.25" y="206.34" width="7.0971" height="7.3317" ry=".78043" opacity="1"/>
    <rect x="-179.79" y="206.34" width="7.0971" height="7.3317" ry=".78043" opacity="1"/>
    <rect x="-171.32" y="206.34" width="7.0971" height="7.3317" ry=".78043" opacity="1"/>
    <rect x="-163.16" y="206.34" width="7.0971" height="7.3317" ry=".78043" opacity="1"/>
    <rect x="-154.7" y="206.34" width="7.0971" height="7.3317" ry=".78043" opacity="1"/>
    <rect x="-146.23" y="206.34" width="7.0971" height="7.3317" ry=".78043" opacity="1"/>
    <rect x="-137.78" y="206.34" width="9.5077" height="7.3317" ry=".78043" opacity="1"/>
    <rect x="-138.44" y="201.44" width="4.5534" height="3.7538" ry=".54973" opacity="1"/>
    <rect x="-230.35" y="214.78" width="10.264" height="7.2144" ry=".76795" opacity="1"/>
    <rect x="-218.5" y="214.78" width="6.7805" height="7.214" ry=".7679" opacity="1"/>
    <rect x="-210.38" y="214.78" width="6.7805" height="7.214" ry=".7679" opacity="1"/>
    <rect x="-201.84" y="214.78" width="6.7805" height="7.214" ry=".7679" opacity="1"/>
    <rect x="-193.72" y="214.78" width="6.7805" height="7.214" ry=".7679" opacity="1"/>
    <rect x="-185.18" y="214.78" width="6.7805" height="7.214" ry=".7679" opacity="1"/>
    <rect x="-177.06" y="214.78" width="6.7805" height="7.214" ry=".7679" opacity="1"/>
    <rect x="-168.53" y="214.78" width="6.7805" height="7.214" ry=".7679" opacity="1"/>
    <rect x="-160.41" y="214.78" width="6.7805" height="7.214" ry=".7679" opacity="1"/>
    <rect x="-152.03" y="214.78" width="6.7805" height="7.214" ry=".7679" opacity="1"/>
    <rect x="-143.91" y="214.78" width="6.7805" height="7.214" ry=".7679" opacity="1"/>
    <rect x="-135.58" y="214.78" width="6.7805" height="7.214" ry=".7679" opacity="1"/>
    <rect x="-230.35" y="223.18" width="12.732" height="7.2144" ry=".76795" opacity="1"/>
    <rect x="-216.15" y="223.18" width="6.7805" height="7.214" ry=".7679" opacity="1"/>
    <rect x="-208.09" y="223.18" width="6.7805" height="7.214" ry=".7679" opacity="1"/>
    <rect x="-199.56" y="223.18" width="6.7805" height="7.214" ry=".7679" opacity="1"/>
    <rect x="-191.44" y="223.18" width="6.7805" height="7.214" ry=".7679" opacity="1"/>
    <rect x="-182.9" y="223.18" width="6.7805" height="7.214" ry=".7679" opacity="1"/>
    <rect x="-174.78" y="223.18" width="6.7805" height="7.214" ry=".7679" opacity="1"/>
    <rect x="-166.24" y="223.18" width="6.7805" height="7.214" ry=".7679" opacity="1"/>
    <rect x="-158.12" y="223.18" width="6.7805" height="7.214" ry=".7679" opacity="1"/>
    <rect x="-149.74" y="223.18" width="6.7805" height="7.214" ry=".7679" opacity="1"/>
    <rect x="-141.2" y="223.18" width="13.063" height="7.214" ry=".7679" opacity="1"/>
    <rect x="-230.35" y="231.45" width="15.175" height="7.2144" ry=".76795" opacity="1"/>
    <rect x="-213.59" y="231.45" width="6.7805" height="7.214" ry=".7679" opacity="1"/>
    <rect x="-205.47" y="231.45" width="6.7805" height="7.214" ry=".7679" opacity="1"/>
    <rect x="-196.93" y="231.45" width="6.7805" height="7.214" ry=".7679" opacity="1"/>
    <rect x="-188.81" y="231.45" width="6.7805" height="7.214" ry=".7679" opacity="1"/>
    <rect x="-180.27" y="231.45" width="6.7805" height="7.214" ry=".7679" opacity="1"/>
    <rect x="-172.15" y="231.45" width="6.7805" height="7.214" ry=".7679" opacity="1"/>
    <rect x="-163.77" y="231.45" width="6.7805" height="7.214" ry=".7679" opacity="1"/>
    <rect x="-147" y="231.45" width="18.862" height="7.214" ry=".7679" opacity="1"/>
    <rect x="-155.41" y="231.45" width="6.7805" height="7.214" ry=".7679" opacity="1"/>
    <rect x="-230.25" y="239.85" width="6.7805" height="7.214" ry=".7679" opacity="1"/>
    <rect x="-222.13" y="239.85" width="6.7805" height="7.214" ry=".7679" opacity="1"/>
    <rect x="-213.59" y="239.85" width="6.7805" height="7.214" ry=".7679" opacity="1"/>
    <rect x="-205.47" y="239.85" width="6.7805" height="7.214" ry=".7679" opacity="1"/>
    <rect x="-197.1" y="239.85" width="32.258" height="7.214" ry=".7679" opacity="1"/>
    <rect x="-163.77" y="239.85" width="6.7805" height="7.214" ry=".7679" opacity="1"/>
    <rect x="-155.41" y="239.85" width="6.7805" height="7.214" ry=".7679" opacity="1"/>
    <rect x="-141.59" y="239.85" width="6.7805" height="7.214" ry=".7679" opacity="1"/>
    <rect x="-134.28" y="243.08" width="5.3845" height="3.9857" ry=".42426" opacity="1"/>
    <rect x="-147.5" y="243.08" width="5.3845" height="3.9857" ry=".42426" opacity="1"/>
   </g>
   <g transform="matrix(.31498 0 0 .31498 73.43 210.55)" fill="url(#a)" stroke="#808080" stroke-linecap="round" stroke-linejoin="round" stroke-width=".65364">
    <rect x="-230.59" y="201.44" width="6.5692" height="3.7538" ry=".54973"/>
    <rect x="-222.96" y="201.44" width="6.5692" height="3.7538" ry=".54973"/>
    <rect x="-215.24" y="201.44" width="6.5692" height="3.7538" ry=".54973"/>
    <rect x="-207.61" y="201.44" width="6.5692" height="3.7538" ry=".54973"/>
    <rect x="-199.89" y="201.44" width="6.5692" height="3.7538" ry=".54973"/>
    <rect x="-192.27" y="201.44" width="6.5692" height="3.7538" ry=".54973"/>
    <rect x="-184.55" y="201.44" width="6.5692" height="3.7538" ry=".54973"/>
    <rect x="-176.92" y="201.44" width="6.5692" height="3.7538" ry=".54973"/>
    <rect x="-169.2" y="201.44" width="6.5692" height="3.7538" ry=".54973"/>
    <rect x="-161.58" y="201.44" width="6.5692" height="3.7538" ry=".54973"/>
    <rect x="-153.86" y="201.44" width="6.5692" height="3.7538" ry=".54973"/>
    <rect x="-146.23" y="201.44" width="6.5692" height="3.7538" ry=".54973"/>
    <rect x="-132.82" y="201.44" width="4.5534" height="3.7538" ry=".54973"/>
    <rect x="-230.59" y="206.34" width="7.0971" height="7.3317" ry=".78043"/>
    <rect x="-222.12" y="206.34" width="7.0971" height="7.3317" ry=".78043"/>
    <rect x="-213.65" y="206.34" width="7.0971" height="7.3317" ry=".78043"/>
    <rect x="-205.19" y="206.34" width="7.0971" height="7.3317" ry=".78043"/>
    <rect x="-196.72" y="206.34" width="7.0971" height="7.3317" ry=".78043"/>
    <rect x="-188.25" y="206.34" width="7.0971" height="7.3317" ry=".78043"/>
    <rect x="-179.79" y="206.34" width="7.0971" height="7.3317" ry=".78043"/>
    <rect x="-171.32" y="206.34" width="7.0971" height="7.3317" ry=".78043"/>
    <rect x="-163.16" y="206.34" width="7.0971" height="7.3317" ry=".78043"/>
    <rect x="-154.7" y="206.34" width="7.0971" height="7.3317" ry=".78043"/>
    <rect x="-146.23" y="206.34" width="7.0971" height="7.3317" ry=".78043"/>
    <rect x="-137.78" y="206.34" width="9.5077" height="7.3317" ry=".78043"/>
    <rect x="-138.44" y="201.44" width="4.5534" height="3.7538" ry=".54973"/>
    <rect x="-230.35" y="214.78" width="10.264" height="7.2144" ry=".76795"/>
    <rect x="-218.5" y="214.78" width="6.7805" height="7.214" ry=".7679"/>
    <rect x="-210.38" y="214.78" width="6.7805" height="7.214" ry=".7679"/>
    <rect x="-201.84" y="214.78" width="6.7805" height="7.214" ry=".7679"/>
    <rect x="-193.72" y="214.78" width="6.7805" height="7.214" ry=".7679"/>
    <rect x="-185.18" y="214.78" width="6.7805" height="7.214" ry=".7679"/>
    <rect x="-177.06" y="214.78" width="6.7805" height="7.214" ry=".7679"/>
    <rect x="-168.53" y="214.78" width="6.7805" height="7.214" ry=".7679"/>
    <rect x="-160.41" y="214.78" width="6.7805" height="7.214" ry=".7679"/>
    <rect x="-152.03" y="214.78" width="6.7805" height="7.214" ry=".7679"/>
    <rect x="-143.91" y="214.78" width="6.7805" height="7.214" ry=".7679"/>
    <rect x="-135.58" y="214.78" width="6.7805" height="7.214" ry=".7679"/>
    <rect x="-230.35" y="223.18" width="12.732" height="7.2144" ry=".76795"/>
    <rect x="-216.15" y="223.18" width="6.7805" height="7.214" ry=".7679"/>
    <rect x="-208.09" y="223.18" width="6.7805" height="7.214" ry=".7679"/>
    <rect x="-199.56" y="223.18" width="6.7805" height="7.214" ry=".7679"/>
    <rect x="-191.44" y="223.18" width="6.7805" height="7.214" ry=".7679"/>
    <rect x="-182.9" y="223.18" width="6.7805" height="7.214" ry=".7679"/>
    <rect x="-174.78" y="223.18" width="6.7805" height="7.214" ry=".7679"/>
    <rect x="-166.24" y="223.18" width="6.7805" height="7.214" ry=".7679"/>
    <rect x="-158.12" y="223.18" width="6.7805" height="7.214" ry=".7679"/>
    <rect x="-149.74" y="223.18" width="6.7805" height="7.214" ry=".7679"/>
    <rect x="-141.2" y="223.18" width="13.063" height="7.214" ry=".7679"/>
    <rect x="-230.35" y="231.45" width="15.175" height="7.2144" ry=".76795"/>
    <rect x="-213.59" y="231.45" width="6.7805" height="7.214" ry=".7679"/>
    <rect x="-205.47" y="231.45" width="6.7805" height="7.214" ry=".7679"/>
    <rect x="-196.93" y="231.45" width="6.7805" height="7.214" ry=".7679"/>
    <rect x="-188.81" y="231.45" width="6.7805" height="7.214" ry=".7679"/>
    <rect x="-180.27" y="231.45" width="6.7805" height="7.214" ry=".7679"/>
    <rect x="-172.15" y="231.45" width="6.7805" height="7.214" ry=".7679"/>
    <rect x="-163.77" y="231.45" width="6.7805" height="7.214" ry=".7679"/>
    <rect x="-147" y="231.45" width="18.862" height="7.214" ry=".7679"/>
    <rect x="-155.41" y="231.45" width="6.7805" height="7.214" ry=".7679"/>
    <rect x="-230.25" y="239.85" width="6.7805" height="7.214" ry=".7679"/>
    <rect x="-222.13" y="239.85" width="6.7805" height="7.214" ry=".7679"/>
    <rect x="-213.59" y="239.85" width="6.7805" height="7.214" ry=".7679"/>
    <rect x="-205.47" y="239.85" width="6.7805" height="7.214" ry=".7679"/>
    <rect x="-197.1" y="239.85" width="32.258" height="7.214" ry=".7679"/>
    <rect x="-163.77" y="239.85" width="6.7805" height="7.214" ry=".7679"/>
    <rect x="-155.41" y="239.85" width="6.7805" height="7.214" ry=".7679"/>
    <rect x="-141.59" y="239.85" width="6.7805" height="7.214" ry=".7679"/>
    <rect x="-134.28" y="243.08" width="5.3845" height="3.9857" ry=".42426"/>
    <rect x="-147.5" y="243.08" width="5.3845" height="3.9857" ry=".42426"/>
   </g>
  </g>
 </g>
 <g transform="translate(-12.795 -4.0529)">
  <rect transform="matrix(.26458 0 0 .26458 12.795 4.0529)" x="4.5" y="4.5" width="55" height="55" ry="15" fill="#141414" filter="url(#filter1057)" image-rendering="optimizeSpeed" opacity=".3" stroke-linecap="round" stroke-width="2.7444"/>
  <rect x="13.986" y="5.2435" width="14.552" height="14.552" ry="3.9687" fill="url(#linearGradient1053)" image-rendering="optimizeSpeed" stroke-linecap="round" stroke-width=".72611"/>
  <path d="m26.735 15.531-10.948 3.6e-5c-0.29377-3e-6 -0.53194-0.27405-0.53194-0.61212l6.4e-5 -4.7997c4e-6 -0.33809 0.23818-0.61214 0.53193-0.61212l10.948-3.6e-5c0.2938 4.1e-6 0.53193 0.27407 0.53194 0.61212l-6.4e-5 4.7997c-4e-6 0.33809-0.23818 0.61214-0.53193 0.61212z" fill="url(#linearGradient13955)" stroke="#fafafa" stroke-width=".13229"/>
  <g fill="url(#linearGradient2393)" stroke-width=".027551">
   <path d="m26.291 12.656-0.59366 2e-6c-0.06769 0-0.12254 0.05485-0.12254 0.12255l2e-6 0.73753c0 0.06769 0.05485 0.12254 0.12255 0.12254l0.59366-2e-6c0.06769 0 0.12255-0.05488 0.12254-0.12255l-2e-6 -0.73753c0-0.06766-0.05485-0.12254-0.12255-0.12254z"/>
   <path d="m26.414 12.34-3e-6 -0.83396c0-0.06769-0.05488-0.12255-0.12255-0.12254l-0.59366 2e-6c-0.06769 0-0.12255 0.05488-0.12254 0.12255l2e-6 0.83396c1e-6 0.06769 0.05485 0.12254 0.12255 0.12254l0.59366-2e-6c0.06769 0 0.12255-0.05485 0.12255-0.12255z"/>
   <path d="m24.692 13.638 0.5676-2e-6c0.06769 0 0.12255-0.05488 0.12254-0.12255l-2e-6 -0.73753c0-0.06769-0.05488-0.12254-0.12255-0.12254l-0.5676 2e-6c-0.06769 0-0.12254 0.05485-0.12254 0.12255l2e-6 0.73753c1e-6 0.06766 0.05485 0.12254 0.12255 0.12254z"/>
   <path d="m24.692 14.91 0.5676-2e-6c0.06769 0 0.12255-0.05488 0.12255-0.12255l-3e-6 -0.83396c0-0.06769-0.05488-0.12255-0.12255-0.12254l-0.5676 1e-6c-0.06769 1e-6 -0.12254 0.05485-0.12254 0.12255l2e-6 0.83396c1e-6 0.06769 0.05485 0.12254 0.12255 0.12254z"/>
   <path d="m24.692 12.463 0.5676-2e-6c0.06769-1e-6 0.12255-0.05488 0.12255-0.12255l-3e-6 -0.83396c0-0.06769-0.05488-0.12254-0.12255-0.12254l-0.5676 2e-6c-0.06769 0-0.12255 0.05488-0.12254 0.12255l2e-6 0.83396c1e-6 0.06769 0.05485 0.12255 0.12255 0.12255z"/>
   <path d="m25.575 13.954 3e-6 0.83396c0 0.06769 0.05485 0.12254 0.12255 0.12254l0.59366-2e-6c0.06769 0 0.12254-0.05488 0.12254-0.12255l-3e-6 -0.83396c0-0.06769-0.05488-0.12255-0.12255-0.12254l-0.59366 2e-6c-0.06769 0-0.12254 0.05485-0.12254 0.12255z"/>
  </g>
  <g fill="url(#linearGradient2407)">
   <g stroke-width=".027551">
    <path d="m18.522 14.793-3e-6 -0.84361c0-0.06502-0.05271-0.11772-0.11772-0.11772l-0.85274 3e-6c-0.06502 0-0.11772 0.0527-0.11772 0.11772l3e-6 0.84361c0 0.06502 0.0527 0.11772 0.11773 0.11772l0.85274-3e-6c0.06502 0 0.11772-0.0527 0.11772-0.11772z"/>
    <path d="m19.107 12.656-0.85274 3e-6c-0.06502 0-0.11772 0.0527-0.11772 0.11772l2e-6 0.74717c0 0.06502 0.0527 0.11772 0.11772 0.11772l0.85274-3e-6c0.06502 0 0.11772-0.0527 0.11772-0.11772l-2e-6 -0.74717c2.7e-5 -0.06502-0.0527-0.11772-0.11773-0.11772z"/>
    <path d="m20.967 13.831-2.1338 7e-6c-0.06502 0-0.11772 0.0527-0.11772 0.11772l3e-6 0.84361c0 0.06502 0.0527 0.11772 0.11772 0.11772l2.1338-7e-6c0.06502-1e-6 0.11772-0.0527 0.11772-0.11773l-3e-6 -0.84361c2.8e-5 -0.06502-0.0527-0.11772-0.11772-0.11772z"/>
    <path d="m16.938 12.773 2e-6 0.74717c0 0.06502 0.0527 0.11772 0.11772 0.11772l0.77009-3e-6c0.06502 0 0.11772-0.0527 0.11772-0.11772l-2e-6 -0.74717c0-0.06502-0.0527-0.11772-0.11772-0.11772l-0.77006 2e-6c-0.06502-2.7e-5 -0.11775 0.05268-0.11775 0.11773z"/>
    <path d="m19.418 12.773 3e-6 0.74717c0 0.06502 0.0527 0.11772 0.11772 0.11772l0.85269-3e-6c0.06502 0 0.11772-0.05271 0.11772-0.11772l-3e-6 -0.74717c0-0.06502-0.05271-0.11772-0.11772-0.11772l-0.85269 3e-6c-0.06502-2.7e-5 -0.11772 0.05268-0.11772 0.11772z"/>
    <path d="m21.395 14.91 0.85274-3e-6c0.06502 0 0.11772-0.0527 0.11772-0.11772l-3e-6 -0.84361c0-0.06502-0.0527-0.11772-0.11772-0.11772l-0.85274 3e-6c-0.06502 0-0.11772 0.05271-0.11772 0.11772l3e-6 0.84361c0 0.06502 0.0527 0.11772 0.11772 0.11772z"/>
    <path d="m18.522 12.345-3e-6 -0.84361c0-0.06502-0.0527-0.11772-0.11772-0.11772l-0.85274 3e-6c-0.06502 0-0.11772 0.05271-0.11772 0.11772l3e-6 0.84361c0 0.06502 0.0527 0.11772 0.11772 0.11772l0.85274-3e-6c0.06502 0 0.11772-0.0527 0.11772-0.11772z"/>
    <path d="m16.227 13.639 0.40015-2e-6c0.06502 0 0.11772-0.0527 0.11772-0.11772l-3e-6 -0.74717c0-0.06502-0.0527-0.11772-0.11772-0.11772l-0.40015 1e-6c-0.06502 0-0.11772 0.05271-0.11772 0.11772l2e-6 0.74717c-2.7e-5 0.06499 0.05268 0.11772 0.11773 0.11772z"/>
    <path d="m16.227 14.91 0.89603-3e-6c0.06502 0 0.11772-0.0527 0.11772-0.11772l-3e-6 -0.84361c0-0.06502-0.0527-0.11772-0.11772-0.11772l-0.89603 3e-6c-0.06502 0-0.11772 0.0527-0.11772 0.11772l2e-6 0.84361c-2.7e-5 0.06502 0.05268 0.11772 0.11773 0.11772z"/>
    <path d="m16.227 12.463 0.89603-3e-6c0.06502-1e-6 0.11772-0.0527 0.11772-0.11773l-3e-6 -0.84361c0-0.06502-0.0527-0.11772-0.11772-0.11772l-0.89603 3e-6c-0.06502 0-0.11772 0.0527-0.11772 0.11772l2e-6 0.84361c-2.7e-5 0.06502 0.05268 0.11772 0.11773 0.11772z"/>
    <path d="m19.803 12.345-3e-6 -0.84361c0-0.06502-0.0527-0.11772-0.11773-0.11772l-0.85274 3e-6c-0.06502 0-0.11772 0.0527-0.11772 0.11772l3e-6 0.84361c0 0.06502 0.0527 0.11772 0.11772 0.11772l0.85274-3e-6c0.06499 0 0.11772-0.05271 0.11772-0.11772z"/>
    <path d="m21.669 12.656-0.85274 3e-6c-0.06502 0-0.11772 0.05271-0.11772 0.11772l2e-6 0.74717c1e-6 0.06502 0.0527 0.11772 0.11773 0.11772l0.85274-2e-6c0.06502-1e-6 0.11772-0.0527 0.11772-0.11773l-3e-6 -0.74717c2.7e-5 -0.06502-0.0527-0.11772-0.11772-0.11772z"/>
    <path d="m21.084 12.345-2e-6 -0.84361c-1e-6 -0.06502-0.0527-0.11772-0.11773-0.11772l-0.85269 2e-6c-0.06502 1e-6 -0.11772 0.0527-0.11772 0.11773l3e-6 0.84361c0 0.06502 0.0527 0.11772 0.11772 0.11772l0.85269-3e-6c0.06499-1e-6 0.11772-0.0527 0.11772-0.11773z"/>
   </g>
   <path d="m23.522 12.656-1.4204 4e-6c-0.0672 1e-6 -0.12167 0.05271-0.12167 0.11773l3e-6 0.74717c0 0.06502 0.05447 0.11772 0.12167 0.11772l1.4204-5e-6c0.0672 0 0.12167-0.05271 0.12167-0.11772l-3e-6 -0.74717c0-0.06502-0.05447-0.11772-0.12167-0.11772z" stroke-width=".028008"/>
   <g stroke-width=".027551">
    <path d="m22.365 12.345-3e-6 -0.84361c0-0.06502-0.0527-0.11772-0.11772-0.11772l-0.85274 3e-6c-0.06502 0-0.11772 0.0527-0.11772 0.11772l3e-6 0.84361c0 0.06502 0.0527 0.11772 0.11772 0.11772l0.85274-3e-6c0.06499 0 0.11772-0.0527 0.11772-0.11772z"/>
    <path d="m18.522 11.09-3e-6 -0.84361c0-0.06502-0.0527-0.11772-0.11772-0.11772l-0.85274 3e-6c-0.06502 0-0.11772 0.0527-0.11772 0.11772l3e-6 0.84361c0 0.06502 0.0527 0.11772 0.11772 0.11772l0.85274-3e-6c0.06502 0 0.11772-0.0527 0.11772-0.11772z"/>
    <path d="m16.227 11.207 0.89603-3e-6c0.06502 0 0.11772-0.05271 0.11772-0.11772l-3e-6 -0.84361c0-0.06502-0.0527-0.11772-0.11772-0.11772l-0.89603 3e-6c-0.06502 0-0.11772 0.0527-0.11772 0.11772l3e-6 0.84361c-2.7e-5 0.06502 0.05268 0.11772 0.11772 0.11772z"/>
    <path d="m19.803 11.09-2e-6 -0.84361c-1e-6 -0.06502-0.0527-0.11772-0.11773-0.11772l-0.85274 3e-6c-0.06502 0-0.11772 0.0527-0.11772 0.11772l2e-6 0.84361c1e-6 0.06502 0.0527 0.11772 0.11773 0.11772l0.85274-3e-6c0.06499 0 0.11772-0.0527 0.11772-0.11772z"/>
    <path d="m21.084 11.09-3e-6 -0.84361c0-0.06502-0.05271-0.11772-0.11772-0.11772l-0.85269 3e-6c-0.06502 0-0.11772 0.0527-0.11772 0.11772l3e-6 0.84361c0 0.06502 0.0527 0.11772 0.11772 0.11772l0.85269-3e-6c0.06499 0 0.11772-0.0527 0.11772-0.11772z"/>
    <path d="m22.365 11.09-3e-6 -0.84361c0-0.06502-0.0527-0.11772-0.11773-0.11772l-0.85274 2e-6c-0.06502 1e-6 -0.11772 0.05271-0.11772 0.11773l3e-6 0.84361c0 0.06502 0.0527 0.11772 0.11772 0.11772l0.85274-3e-6c0.06499-1e-6 0.11772-0.0527 0.11772-0.11772z"/>
    <path d="m23.647 11.09-3e-6 -0.84361c0-0.06502-0.0527-0.11772-0.11773-0.11772l-0.85274 3e-6c-0.06502 1e-6 -0.11772 0.0527-0.11772 0.11773l2e-6 0.84361c1e-6 0.06502 0.0527 0.11772 0.11773 0.11772l0.85274-2e-6c0.06499-1e-6 0.11772-0.0527 0.11772-0.11773z"/>
    <path d="m23.647 12.345-3e-6 -0.84361c0-0.06502-0.0527-0.11772-0.11772-0.11772l-0.85274 3e-6c-0.06502 0-0.11772 0.05271-0.11772 0.11772l3e-6 0.84361c0 0.06502 0.0527 0.11772 0.11772 0.11772l0.85274-3e-6c0.06499 0 0.11772-0.0527 0.11772-0.11772z"/>
    <path d="m23.647 14.793-3e-6 -0.84361c0-0.06502-0.05271-0.11772-0.11772-0.11772l-0.85274 3e-6c-0.06502 0-0.11772 0.0527-0.11772 0.11772l3e-6 0.84361c0 0.06502 0.0527 0.11772 0.11772 0.11772l0.85274-3e-6c0.06499 0 0.11772-0.0527 0.11772-0.11772z"/>
   </g>
  </g>
  <g fill="url(#linearGradient2457)" stroke-width=".26458">
   <path d="m24.937 10.666a0.18391 0.18391 0 0 1-0.17662 0.18377 0.18391 0.18391 0 0 1-0.19063-0.1692 0.18391 0.18391 0 0 1 0.1615-0.19719 0.18391 0.18391 0 0 1 0.20344 0.15356" style="paint-order:stroke fill markers"/>
   <path d="m25.675 10.666a0.18391 0.18391 0 0 1-0.17662 0.18377 0.18391 0.18391 0 0 1-0.19063-0.1692 0.18391 0.18391 0 0 1 0.1615-0.19719 0.18391 0.18391 0 0 1 0.20344 0.15356" style="paint-order:stroke fill markers"/>
   <path d="m26.414 10.666a0.18391 0.18391 0 0 1-0.17662 0.18377 0.18391 0.18391 0 0 1-0.19063-0.1692 0.18391 0.18391 0 0 1 0.1615-0.19719 0.18391 0.18391 0 0 1 0.20344 0.15356" style="paint-order:stroke fill markers"/>
  </g>
 </g>
</svg>
