<?xml version="1.0" encoding="UTF-8"?>
<svg width="64px" height="64px" version="1.1" viewBox="0 0 64 64" xmlns="http://www.w3.org/2000/svg" xmlns:cc="http://creativecommons.org/ns#" xmlns:dc="http://purl.org/dc/elements/1.1/" xmlns:rdf="http://www.w3.org/1999/02/22-rdf-syntax-ns#" xmlns:xlink="http://www.w3.org/1999/xlink">
 <metadata>
  <rdf:RDF>
   <cc:Work rdf:about="">
    <dc:format>image/svg+xml</dc:format>
    <dc:type rdf:resource="http://purl.org/dc/dcmitype/StillImage"/>
    <dc:title/>
   </cc:Work>
  </rdf:RDF>
 </metadata>
 <defs>
  <style type="text/css"/>
  <style type="text/css"/>
  <style type="text/css"/>
  <filter id="filter1057" x="-.027" y="-.027" width="1.054" height="1.054" color-interpolation-filters="sRGB">
   <feGaussianBlur stdDeviation="0.61875"/>
  </filter>
  <linearGradient id="linearGradient1053" x1="-127" x2="-72" y1="60" y2="5" gradientTransform="translate(131.5 -.51)" gradientUnits="userSpaceOnUse">
   <stop stop-color="#eb3f78" offset="0"/>
   <stop stop-color="#ec497e" offset="1"/>
  </linearGradient>
  <style type="text/css"/>
  <style type="text/css"/>
  <style type="text/css"/>
 </defs>
 <g fill="#5e4aa6">
  <circle cx="-1248.7" cy="-1241.6" r="0"/>
  <circle cx="-149.15" cy="23.855" r="0" fill-rule="evenodd"/>
  <circle cx="-1248.7" cy="-1241.6" r="0"/>
  <circle cx="-149.15" cy="23.855" r="0" fill-rule="evenodd"/>
  <circle cx="-1150.9" cy="-1256.6" r="0"/>
  <circle cx="-51.327" cy="8.8744" r="0" fill-rule="evenodd"/>
  <g transform="matrix(3.7796,0,0,3.7796,167.86,4.61)" stroke-width=".26458">
   <g transform="translate(-.0272 .0065001)">
    <circle cx="-330.35" cy="-328.38" r="0"/>
    <circle cx="-312.11" cy="-326.25" r="0"/>
    <circle cx="-306.02" cy="-333.07" r="0"/>
    <circle cx="-308.84" cy="-326.01" r="0"/>
    <circle cx="-330.35" cy="-328.38" r="0"/>
    <circle cx="-312.11" cy="-326.25" r="0"/>
    <circle cx="-306.02" cy="-333.07" r="0"/>
    <circle cx="-308.84" cy="-326.01" r="0"/>
   </g>
   <g transform="translate(-.02705 .0064503)">
    <circle cx="-330.35" cy="-328.38" r="0"/>
    <circle cx="-312.11" cy="-326.25" r="0"/>
    <circle cx="-306.02" cy="-333.07" r="0"/>
    <circle cx="-308.84" cy="-326.01" r="0"/>
   </g>
  </g>
 </g>
 <g>
  <rect x="4.5" y="4.5" width="55" height="55" ry="15" fill="#141414" filter="url(#filter1057)" opacity=".3" stroke-linecap="round" stroke-width="2.7444"/>
  <rect x="4.5" y="4.5" width="55" height="55" ry="15" fill="url(#linearGradient1053)" stroke-linecap="round" stroke-width="2.7444"/>
  <path d="m21.453 4.5-6.3828 25.809h27.164l6.248-25.262c-1.269-0.34672-2.6005-0.54688-3.9824-0.54688h-23.047zm30.547 2.0098-5.8867 23.799h13.387v-10.809c0-5.5712-3.014-10.403-7.5-12.99zm-37.891 27.682-5.1836 20.965c2.708 2.6871 6.4402 4.3438 10.574 4.3438h15.518l6.2559-25.309h-27.164zm31.047 0-6.2598 25.309h5.6035c8.31 0 15-6.69 15-15v-10.309h-14.344z" fill="#f06191"/>
  <path d="m4.5 20.344v1.3242h55v-1.3242h-55z" fill="#ab1157"/>
 </g>
 <g transform="translate(-59.556 -.9716)">
  <path d="m80.502 26.957c-9.4609 0-17.078 7.6172-17.078 17.078 0 9.4609 7.6172 17.078 17.078 17.078s17.078-7.6172 17.078-17.078c0-9.4609-7.6172-17.078-17.078-17.078zm0 12.422c2.582 0 4.6562 2.0781 4.6562 4.6562 0 2.582-2.0742 4.6602-4.6562 4.6602s-4.6562-2.0781-4.6562-4.6602c0-2.5781 2.0742-4.6562 4.6562-4.6562z" fill="#dedede"/>
  <path d="m80.502 28.281c-8.7266 0-15.754 7.0273-15.754 15.754 0 8.7305 7.0274 15.754 15.754 15.754s15.754-7.0234 15.754-15.754c0-8.7266-7.0273-15.754-15.754-15.754zm0 11.254c2.4922 0 4.5 2.0078 4.5 4.5 0 2.4961-2.0078 4.5039-4.5 4.5039s-4.5-2.0078-4.5-4.5039c0-2.4922 2.0078-4.5 4.5-4.5z" fill="#f5f5f5"/>
  <path d="m80.502 36.219c-4.332 0-7.8164 3.4883-7.8164 7.8164 0 4.332 3.4844 7.8164 7.8164 7.8164s7.8164-3.4844 7.8164-7.8164c0-4.3281-3.4844-7.8164-7.8164-7.8164zm0 5.4727c1.3008 0 2.3438 1.0469 2.3438 2.3438 0 1.3008-1.043 2.3477-2.3438 2.3477s-2.3438-1.0469-2.3438-2.3477c0-1.2969 1.043-2.3438 2.3438-2.3438z" fill="#bdbdbd"/>
 </g>
</svg>
