<?xml version="1.0" encoding="UTF-8"?>
<svg width="64" height="64" version="1.1" viewBox="0 0 64 64" xmlns="http://www.w3.org/2000/svg" xmlns:cc="http://creativecommons.org/ns#" xmlns:dc="http://purl.org/dc/elements/1.1/" xmlns:rdf="http://www.w3.org/1999/02/22-rdf-syntax-ns#">
 <metadata>
  <rdf:RDF>
   <cc:Work rdf:about="">
    <dc:format>image/svg+xml</dc:format>
    <dc:type rdf:resource="http://purl.org/dc/dcmitype/StillImage"/>
    <dc:title/>
   </cc:Work>
  </rdf:RDF>
 </metadata>
 <defs>
  <filter id="filter2761" x="-.024" y="-.024" width="1.048" height="1.048" color-interpolation-filters="sRGB">
   <feGaussianBlur stdDeviation="0.14552168"/>
  </filter>
  <linearGradient id="linearGradient1024" x1="1.3315" x2="14.217" y1="15.576" y2="2.6243" gradientTransform="matrix(3.7796 0 0 3.7796 -.0032124 .53085)" gradientUnits="userSpaceOnUse">
   <stop stop-color="#ff7d1e" offset="0"/>
   <stop stop-color="#ffa53c" offset="1"/>
  </linearGradient>
 </defs>
 <circle cx="-1168.4" cy="-1251.4" r="0" fill="#5e4aa6"/>
 <circle cx="-68.875" cy="14.092" r="0" fill="#5e4aa6" fill-rule="evenodd"/>
 <path transform="matrix(3.7796 0 0 3.7796 -.0032124 .53085)" d="m10.709 1.05c4.405 0 5.0345 0.67282 5.0345 5.388v3.7761c0 4.7152-0.62954 5.388-5.0345 5.388h-4.4832c-4.405 0-5.0346-0.6728-5.0346-5.388v-3.7761c0-4.7152 0.62954-5.388 5.0346-5.388z" enable-background="new" fill="#141414" filter="url(#filter2761)" opacity=".3"/>
 <path d="m40.473 4.4994c16.649 0 19.028 2.543 19.028 20.364v14.272c0 17.822-2.3794 20.364-19.028 20.364h-16.945c-16.649 0-19.029-2.5429-19.029-20.364v-14.272c0-17.822 2.3794-20.364 19.029-20.364z" enable-background="new" fill="url(#linearGradient1024)" stroke-width="3.7796"/>
 <g transform="matrix(4.1339 0 0 4.1339 -113.33 -23.871)" fill-opacity=".8">
  <path d="m35.156 9.2822c-0.76017 0-1.4647 0.20483-2.0814 0.55562h-1.5875v1.5699c-0.35739 0.62089-0.56444 1.34-0.56444 2.1078 0 0.76784 0.20705 1.487 0.56444 2.1078v1.5522h1.5522c0.62434 0.36286 1.3425 0.57326 2.1167 0.57326s1.5011-0.21041 2.1255-0.57326h1.5434v-1.5434c0.36078-0.62304 0.56444-1.3449 0.56444-2.1167 0-0.77176-0.20366-1.4936-0.56444-2.1167v-1.561h-1.5787c-0.61665-0.3508-1.33-0.55562-2.0902-0.55562zm0.01764 0.71437c1.94 0 3.5101 1.5701 3.5101 3.5101s-1.5701 3.519-3.5101 3.519-3.5101-1.5789-3.5101-3.519 1.5701-3.5101 3.5101-3.5101z"/>
  <path d="m35.978 11.878 0.15685 0.2166-0.35105 2.3229c-0.25831-1.0459-0.59628-2.4318-0.59753-2.4349l-0.56765 2.4275-0.44068-2.1138 0.08963-0.4108-1.2772-0.01494c0.10218 0.07806 0.18006 0.20946 0.26142 0.3137l0.80666 3.2789c-0.06637 0.12313-0.16608 0.23927-0.24648 0.34358 0.43074 0.0023 0.87079 0.0052 1.2399 0.0075l-0.08963-0.38838 0.24648-1.1278 0.20914 1.2249-0.03735 0.2913 1.2175-0.0075-0.0075-0.0075-0.16432-0.3137 0.49296-3.0773 0.37345-0.54524c-0.43819 0.0048-0.87637 0.0099-1.3146 0.01494z"/>
 </g>
</svg>
