<?xml version="1.0" encoding="UTF-8" standalone="no"?>
<svg
   xmlns:dc="http://purl.org/dc/elements/1.1/"
   xmlns:cc="http://creativecommons.org/ns#"
   xmlns:rdf="http://www.w3.org/1999/02/22-rdf-syntax-ns#"
   xmlns:svg="http://www.w3.org/2000/svg"
   xmlns="http://www.w3.org/2000/svg"
   xmlns:sodipodi="http://sodipodi.sourceforge.net/DTD/sodipodi-0.dtd"
   xmlns:inkscape="http://www.inkscape.org/namespaces/inkscape"
   width="64"
   height="64"
   viewBox="0 0 16.933333 16.933334"
   version="1.1"
   id="svg8"
   inkscape:version="1.0.2 (e86c870879, 2021-01-15)"
   sodipodi:docname="7z.svg">
  <defs
     id="defs2">
    <filter
       id="filter2076"
       x="-0.048"
       y="-0.048"
       width="1.096"
       height="1.096"
       color-interpolation-filters="sRGB">
      <feGaussianBlur
         stdDeviation="1.1"
         id="feGaussianBlur161" />
    </filter>
    <linearGradient
       id="linearGradient2070"
       x1="145"
       x2="200"
       y1="59"
       y2="4"
       gradientTransform="matrix(0.26458333,0,0,0.26458333,-33.450892,3.3356404)"
       gradientUnits="userSpaceOnUse">
      <stop
         stop-color="#ffc841"
         offset="0"
         id="stop154" />
      <stop
         stop-color="#ffbe37"
         offset=".4925"
         id="stop156" />
      <stop
         stop-color="#ffc841"
         offset="1"
         id="stop158" />
    </linearGradient>
  </defs>
  <sodipodi:namedview
     id="base"
     pagecolor="#ffffff"
     bordercolor="#666666"
     borderopacity="1.0"
     inkscape:pageopacity="0.0"
     inkscape:pageshadow="2"
     inkscape:zoom="5.6"
     inkscape:cx="25.200982"
     inkscape:cy="19.236416"
     inkscape:document-units="mm"
     inkscape:current-layer="layer1"
     inkscape:document-rotation="0"
     showgrid="false"
     units="px"
     inkscape:window-width="1920"
     inkscape:window-height="992"
     inkscape:window-x="0"
     inkscape:window-y="0"
     inkscape:window-maximized="1" />
  <metadata
     id="metadata5">
    <rdf:RDF>
      <cc:Work
         rdf:about="">
        <dc:format>image/svg+xml</dc:format>
        <dc:type
           rdf:resource="http://purl.org/dc/dcmitype/StillImage" />
        <dc:title></dc:title>
      </cc:Work>
    </rdf:RDF>
  </metadata>
  <g
     inkscape:label="图层 1"
     inkscape:groupmode="layer"
     id="layer1">
    <g
       id="g1715"
       transform="translate(-3.7230655,-3.2033483)">
      <rect
         x="4.5"
         y="4.5"
         width="55"
         height="55"
         rx="13.002"
         ry="13.002"
         filter="url(#filter2076)"
         opacity="0.3"
         id="rect170"
         transform="matrix(0.26458333,0,0,0.26458333,3.7230659,3.2033487)" />
      <rect
         x="4.913691"
         y="4.3939738"
         width="14.552083"
         height="14.552083"
         rx="3.4401124"
         ry="3.4401124"
         fill="url(#linearGradient2070)"
         id="rect172"
         style="fill:url(#linearGradient2070);stroke-width:0.264583" />
      <rect
         x="11.925356"
         y="4.3936892"
         width="0.52901012"
         height="5.1590991"
         ry="0"
         opacity="0.35"
         style="stroke-width:1.00002;paint-order:markers stroke fill"
         id="rect570" />
      <path
         d="m 12.190361,9.1567805 a 1.0600203,1.0600203 0 0 0 -1.05902,1.0580205 v 2.11704 a 1.0600203,1.0600203 0 0 0 1.05902,1.058021 1.0600203,1.0600203 0 0 0 1.058021,-1.058021 v -2.11704 A 1.0600203,1.0600203 0 0 0 12.190361,9.1567805 Z m 0,0.5290101 c 0.292006,0 0.52901,0.2110041 0.52901,0.5290104 0,0.265005 -0.237004,0.53001 -0.53001,0.53001 a 0.5480105,0.5480105 0 0 1 -0.52901,-0.53001 c 0,-0.3180063 0.238005,-0.5300103 0.53001,-0.5300103 z m 0,1.5870304 a 0.53001015,0.53001015 0 0 1 0.52901,0.53001 v 0.52901 a 0.53001015,0.53001015 0 0 1 -1.05902,0 v -0.53001 a 0.53001015,0.53001015 0 0 1 0.53001,-0.52901 z"
         fill="#ffffff"
         id="path572"
         style="stroke-width:1.00002" />
    </g>
  </g>
</svg>
