<?xml version="1.0" encoding="UTF-8" standalone="no"?>
<svg
   width="64"
   height="64"
   version="1.1"
   id="svg4"
   sodipodi:docname="aaaaxy.svg"
   inkscape:version="1.4 (e7c3feb100, 2024-10-09)"
   xmlns:inkscape="http://www.inkscape.org/namespaces/inkscape"
   xmlns:sodipodi="http://sodipodi.sourceforge.net/DTD/sodipodi-0.dtd"
   xmlns="http://www.w3.org/2000/svg"
   xmlns:svg="http://www.w3.org/2000/svg">
  <defs
     id="defs4">
    <filter
       id="filter1057-2"
       x="-0.026999999"
       y="-0.026999999"
       width="1.054"
       height="1.054"
       color-interpolation-filters="sRGB">
      <feGaussianBlur
         stdDeviation="0.61875"
         id="feGaussianBlur1" />
    </filter>
    <linearGradient
       id="linearGradient1053"
       x1="-127"
       x2="-72"
       y1="60"
       y2="5"
       gradientTransform="translate(131.5,-0.5090015)"
       gradientUnits="userSpaceOnUse">
      <stop
         stop-color="#1d2123"
         offset="0"
         id="stop1-3" />
      <stop
         stop-color="#33393e"
         stop-opacity=".99608"
         offset="1"
         id="stop2-6" />
    </linearGradient>
    <linearGradient
       id="linearGradient862"
       x1="7.9373002"
       x2="7.9373002"
       y1="15.081"
       y2="1.852"
       gradientTransform="matrix(3.7796,0,0,3.7796,38.890411,-68.009696)"
       gradientUnits="userSpaceOnUse">
      <stop
         stop-color="#ff540d"
         offset="0"
         id="stop1" />
      <stop
         stop-color="#ff9f00"
         offset="1"
         id="stop2" />
    </linearGradient>
  </defs>
  <sodipodi:namedview
     id="namedview4"
     pagecolor="#505050"
     bordercolor="#eeeeee"
     borderopacity="1"
     inkscape:showpageshadow="0"
     inkscape:pageopacity="0"
     inkscape:pagecheckerboard="0"
     inkscape:deskcolor="#505050"
     inkscape:zoom="4.5625"
     inkscape:cx="-8.5479452"
     inkscape:cy="24.328767"
     inkscape:window-width="2560"
     inkscape:window-height="1411"
     inkscape:window-x="0"
     inkscape:window-y="0"
     inkscape:window-maximized="1"
     inkscape:current-layer="svg4" />
  <rect
     x="4.5000005"
     y="4.5009995"
     width="55"
     height="55"
     ry="15"
     fill="#141414"
     filter="url(#filter1057-2)"
     opacity="0.3"
     stroke-linecap="round"
     stroke-width="2.7444"
     id="rect4" />
  <rect
     x="4.5000005"
     y="4.5009995"
     width="55"
     height="55"
     ry="15"
     fill="url(#linearGradient1053)"
     stroke-linecap="round"
     stroke-width="2.7444"
     id="rect5"
     style="fill:url(#linearGradient1053)" />
  <circle
     cx="32"
     cy="32.000999"
     r="30.000999"
     fill-opacity="0"
     stroke-width="1.5715"
     id="circle5" />
  <path
     fill="#aaaaaa"
     d="M 23,50 V 47 H 20 V 44 H 17 V 41 H 14 V 23 h 3 v -3 h 3 v -3 h 3 v -3 h 18 v 3 h 3 v 3 h 3 v 3 h 3 v 18 h -3 v 3 h -3 v 3 h -3 v 3 z m 15,-3 v -3 h 3 v -3 h 3 v -3 h 3 V 26 H 44 V 23 H 41 V 20 H 38 V 17 H 26 v 3 h -3 v 3 h -3 v 3 h -3 v 12 h 3 v 3 h 3 v 3 h 3 v 3 z"
     id="path5"
     style="fill:#ffffff;fill-opacity:1" />
  <path
     fill="#55ff55"
     d="M 29,44 V 29 h -3 v 3 h -6 v -3 h 3 v -3 h 3 v -3 h 3 v -3 h 6 v 3 h 3 v 3 h 3 v 3 h 3 v 3 h -6 v -3 h -3 v 15 z"
     id="path6" />
  <path
     fill="#aa5500"
     d="m 17,11 v 3 h -3 v 3 h -3 v 30 h 3 v 3 h 3 v 3 h 30 v -3 h 3 v -3 h 3 V 17 h -3 v -3 h -3 v -3 z m 6,3 h 18 v 3 h 3 v 3 h 3 v 3 h 3 v 18 h -3 v 3 h -3 v 3 h -3 v 3 H 23 V 47 H 20 V 44 H 17 V 41 H 14 V 23 h 3 v -3 h 3 v -3 h 3 z"
     id="path7"
     style="fill:#ff7208;fill-opacity:1" />
  <path
     fill="#0000aa"
     d="M 26,47 V 44 H 23 V 41 H 20 V 38 H 17 V 26 h 3 v -3 h 3 v -3 h 3 v -3 h 12 v 3 h 3 v 3 h 3 v 3 h 3 v 12 h -3 v 3 h -3 v 3 h -3 v 3 z m 9,-3 V 29 h 3 v 3 h 6 v -3 h -3 v -3 h -3 v -3 h -3 v -3 h -6 v 3 h -3 v 3 h -3 v 3 h -3 v 3 h 6 v -3 h 3 v 15 z"
     id="path8" />
</svg>
