<?xml version="1.0" encoding="UTF-8" standalone="no"?>
<svg
   width="64"
   height="64"
   version="1.1"
   viewBox="0 0 64 64"
   id="svg2"
   sodipodi:docname="abgx360gui.svg"
   inkscape:version="1.4 (e7c3feb100, 2024-10-09)"
   xmlns:inkscape="http://www.inkscape.org/namespaces/inkscape"
   xmlns:sodipodi="http://sodipodi.sourceforge.net/DTD/sodipodi-0.dtd"
   xmlns="http://www.w3.org/2000/svg"
   xmlns:svg="http://www.w3.org/2000/svg"
   xmlns:rdf="http://www.w3.org/1999/02/22-rdf-syntax-ns#"
   xmlns:cc="http://creativecommons.org/ns#"
   xmlns:dc="http://purl.org/dc/elements/1.1/">
  <sodipodi:namedview
     id="namedview2"
     pagecolor="#505050"
     bordercolor="#eeeeee"
     borderopacity="1"
     inkscape:showpageshadow="0"
     inkscape:pageopacity="0"
     inkscape:pagecheckerboard="0"
     inkscape:deskcolor="#505050"
     inkscape:zoom="4.5625"
     inkscape:cx="36.164384"
     inkscape:cy="17.09589"
     inkscape:window-width="2560"
     inkscape:window-height="1411"
     inkscape:window-x="0"
     inkscape:window-y="0"
     inkscape:window-maximized="1"
     inkscape:current-layer="svg2" />
  <metadata
     id="metadata1">
    <rdf:RDF>
      <cc:Work
         rdf:about="">
        <dc:format>image/svg+xml</dc:format>
        <dc:type
           rdf:resource="http://purl.org/dc/dcmitype/StillImage" />
      </cc:Work>
    </rdf:RDF>
  </metadata>
  <defs
     id="defs2">
    <linearGradient
       id="linearGradient1448"
       x1="3.9687"
       x2="3.9687"
       y1="16.404"
       y2="2.6458"
       gradientTransform="matrix(3.4646,0,0,3.4646,111.37853,2.6662)"
       gradientUnits="userSpaceOnUse">
      <stop
         stop-color="#144bb4"
         offset="0"
         id="stop1" />
      <stop
         stop-color="#00c8ff"
         offset="1"
         id="stop2" />
    </linearGradient>
    <filter
       id="filter1057"
       x="-0.026999999"
       y="-0.026999999"
       width="1.054"
       height="1.054"
       color-interpolation-filters="sRGB">
      <feGaussianBlur
         stdDeviation="0.61875"
         id="feGaussianBlur879" />
    </filter>
    <linearGradient
       id="linearGradient1053"
       x1="-127"
       x2="-72"
       y1="60"
       y2="5"
       gradientTransform="translate(131.5,-0.5100001)"
       gradientUnits="userSpaceOnUse">
      <stop
         stop-color="#32d7ff"
         offset="0"
         id="stop882" />
      <stop
         stop-color="#329bff"
         offset="1"
         id="stop884" />
    </linearGradient>
  </defs>
  <rect
     x="4.4999995"
     y="4.4999995"
     width="55"
     height="55"
     ry="15"
     fill="#141414"
     filter="url(#filter1057)"
     opacity="0.3"
     stroke-linecap="round"
     stroke-width="2.7444"
     id="rect915" />
  <rect
     x="4.5000005"
     y="4.5000005"
     width="55"
     height="55"
     ry="15"
     fill="url(#linearGradient1053)"
     stroke-linecap="round"
     stroke-width="2.7444"
     id="rect917"
     style="fill:url(#linearGradient1053)" />
  <path
     id="path6"
     style="fill:#98d8ff;fill-opacity:1;stroke-width:2.41951"
     d="M 32 14.5 A 17.5 17.5 0 0 0 14.5 32 A 17.5 17.5 0 0 0 32 49.5 A 17.5 17.5 0 0 0 49.5 32 A 17.5 17.5 0 0 0 32 14.5 z M 31.994141 28.771484 C 33.787641 28.771484 35.207031 30.198963 35.207031 31.976562 C 35.207031 33.753862 33.781741 35.228516 31.994141 35.228516 C 30.210641 35.228516 28.792969 33.752562 28.792969 31.976562 C 28.78671 30.205388 30.22296 28.767384 31.994141 28.771484 z " />
  <path
     id="path7"
     style="fill:#ffffff;fill-opacity:1;stroke-width:1.39102"
     d="m 46.65548,18.616901 0.274399,8.723738 -2.409828,0.714526 -4.143163,-7.691343 c -3.862019,5.766319 -2.382691,11.39958 4.075243,12.991877 L 48.081814,47.124588 53.167718,45.874847 49.5,32 c 4.524835,-3.257343 2.99455,-11.616786 -2.84452,-13.383099 z"
     sodipodi:nodetypes="ccccccccc" />
</svg>
