<?xml version="1.0" encoding="UTF-8" standalone="no"?>
<svg
   width="64"
   height="64"
   viewBox="0 0 16.933333 16.933334"
   version="1.1"
   id="svg8"
   inkscape:version="1.4 (e7c3feb100, 2024-10-09)"
   sodipodi:docname="about.svg"
   xmlns:inkscape="http://www.inkscape.org/namespaces/inkscape"
   xmlns:sodipodi="http://sodipodi.sourceforge.net/DTD/sodipodi-0.dtd"
   xmlns="http://www.w3.org/2000/svg"
   xmlns:svg="http://www.w3.org/2000/svg"
   xmlns:rdf="http://www.w3.org/1999/02/22-rdf-syntax-ns#"
   xmlns:cc="http://creativecommons.org/ns#"
   xmlns:dc="http://purl.org/dc/elements/1.1/">
  <defs
     id="defs2">
    <linearGradient
       id="linearGradient862-3"
       x1="7.9373002"
       x2="7.9373002"
       y1="15.081"
       y2="1.852"
       gradientTransform="matrix(3.7796,0,0,3.7796,-6.9952011e-4,-0.82721169)"
       gradientUnits="userSpaceOnUse">
      <stop
         stop-color="#8811a2"
         offset="0"
         id="stop833" />
      <stop
         stop-color="#da50d5"
         offset="1"
         id="stop835" />
    </linearGradient>
    <filter
       id="filter1057"
       x="-0.026999999"
       y="-0.026999999"
       width="1.054"
       height="1.054"
       color-interpolation-filters="sRGB">
      <feGaussianBlur
         stdDeviation="0.61875"
         id="feGaussianBlur1" />
    </filter>
    <linearGradient
       id="linearGradient1053"
       x1="-127"
       x2="-72"
       y1="60"
       y2="5"
       gradientTransform="matrix(0.26458521,0,0,0.26458521,34.793425,262.99846)"
       gradientUnits="userSpaceOnUse">
      <stop
         stop-color="#a53cff"
         offset="0"
         id="stop1" />
      <stop
         stop-color="#b496ff"
         offset="1"
         id="stop2" />
    </linearGradient>
  </defs>
  <sodipodi:namedview
     id="base"
     pagecolor="#ffffff"
     bordercolor="#666666"
     borderopacity="1.0"
     inkscape:pageopacity="0.0"
     inkscape:pageshadow="2"
     inkscape:zoom="5.6"
     inkscape:cx="12.142857"
     inkscape:cy="25.535714"
     inkscape:document-units="mm"
     inkscape:current-layer="layer1"
     showgrid="false"
     inkscape:window-width="2560"
     inkscape:window-height="1411"
     inkscape:window-x="0"
     inkscape:window-y="0"
     inkscape:window-maximized="1"
     units="px"
     inkscape:document-rotation="0"
     inkscape:showpageshadow="0"
     inkscape:pagecheckerboard="0"
     inkscape:deskcolor="#505050" />
  <metadata
     id="metadata5">
    <rdf:RDF>
      <cc:Work
         rdf:about="">
        <dc:format>image/svg+xml</dc:format>
        <dc:type
           rdf:resource="http://purl.org/dc/dcmitype/StillImage" />
        <dc:title />
      </cc:Work>
    </rdf:RDF>
  </metadata>
  <g
     inkscape:label="Layer 1"
     inkscape:groupmode="layer"
     id="layer1"
     transform="translate(0,-263.13332)">
    <rect
       transform="matrix(0.26458521,0,0,0.26458521,-6.027916e-5,263.13326)"
       x="4.5"
       y="4.5"
       width="55"
       height="55"
       ry="15"
       fill="#141414"
       filter="url(#filter1057)"
       image-rendering="optimizeSpeed"
       opacity="0.3"
       stroke-linecap="round"
       stroke-width="2.7444"
       id="rect2" />
    <rect
       x="1.1906632"
       y="264.32391"
       width="14.552287"
       height="14.552287"
       ry="3.9688783"
       fill="url(#linearGradient1053)"
       image-rendering="optimizeSpeed"
       stroke-linecap="round"
       stroke-width="0.726134"
       id="rect3"
       style="fill:url(#linearGradient1053)" />
    <path
       id="path1"
       style="fill:#ffffff;fill-opacity:1;stroke:none;stroke-width:0.441723;stroke-opacity:1"
       d="m 9.3067312,266.96962 c -0.156748,0 -0.204797,0.007 -0.315617,0.0434 -0.318531,0.10563 -0.571302,0.3619 -0.67579,0.68515 -0.03599,0.11134 -0.04253,0.16037 -0.04253,0.31887 0,0.15878 0.0065,0.20741 0.04282,0.31967 0.121103,0.37474 0.437089,0.65122 0.826462,0.72313 0.123707,0.0228 0.340103,0.005 0.481644,-0.0408 0.312533,-0.10001 0.5702468,-0.36089 0.6741418,-0.68238 0.03628,-0.11226 0.04281,-0.16089 0.04281,-0.31968 0,-0.15878 -0.0065,-0.20746 -0.04281,-0.31972 -0.104278,-0.32267 -0.3572548,-0.57873 -0.6763548,-0.68458 -0.109912,-0.0364 -0.158304,-0.0431 -0.314769,-0.0431 z m -0.351696,2.59672 c -0.02524,4.1e-4 -0.05177,10e-4 -0.07983,0.003 -0.674099,0.0353 -1.285231,0.35487 -1.717075,0.89766 -0.240212,0.30193 -0.439095,0.64016 -0.51923,0.88307 -0.07491,0.22708 -0.05814,0.38493 0.0455,0.42841 0.08389,0.0352 0.143817,-0.0122 0.300121,-0.23747 0.279304,-0.40249 0.366973,-0.51857 0.488097,-0.64612 0.155502,-0.16375 0.327692,-0.28761 0.416552,-0.29968 0.0839,-0.0114 0.106266,0.0194 0.09491,0.13092 -0.0097,0.0952 -0.01632,0.11629 -0.686011,2.185 -0.258072,0.7972 -0.487109,1.51906 -0.509009,1.60415 -0.102993,0.40019 -0.136232,0.86249 -0.08078,1.12373 0.102964,0.48504 0.450056,0.67323 1.03097,0.55896 0.521931,-0.10268 1.058817,-0.46682 1.507529,-1.02244 0.347433,-0.43022 0.574616,-0.85238 0.622661,-1.15703 0.02996,-0.18996 -0.01986,-0.2838 -0.138615,-0.26123 -0.09179,0.0174 -0.183766,0.12908 -0.537316,0.65214 -0.305547,0.45204 -0.402192,0.55393 -0.514709,0.54268 -0.08981,-0.009 -0.120153,-0.0709 -0.116996,-0.23861 0.0022,-0.11421 0.01668,-0.18997 0.07592,-0.3962 0.139195,-0.4846 0.335326,-1.09946 0.583663,-1.8296 0.37101,-1.09081 0.401476,-1.18705 0.445753,-1.40871 0.148885,-0.74537 0.04237,-1.24108 -0.307138,-1.42895 -0.115851,-0.0623 -0.228278,-0.0863 -0.404966,-0.0835 z"
       inkscape:connector-curvature="0" />
  </g>
</svg>
