<?xml version="1.0" encoding="UTF-8" standalone="no"?>
<svg
   xmlns:dc="http://purl.org/dc/elements/1.1/"
   xmlns:cc="http://creativecommons.org/ns#"
   xmlns:rdf="http://www.w3.org/1999/02/22-rdf-syntax-ns#"
   xmlns:svg="http://www.w3.org/2000/svg"
   xmlns="http://www.w3.org/2000/svg"
   xmlns:xlink="http://www.w3.org/1999/xlink"
   xmlns:sodipodi="http://sodipodi.sourceforge.net/DTD/sodipodi-0.dtd"
   xmlns:inkscape="http://www.inkscape.org/namespaces/inkscape"
   inkscape:version="1.0 (4035a4fb49, 2020-05-01)"
   sodipodi:docname="accessories-screenshot.svg"
   id="svg46"
   viewBox="0 0 16.933 16.933"
   version="1.1"
   height="64"
   width="64">
  <sodipodi:namedview
     inkscape:current-layer="svg46"
     inkscape:window-maximized="1"
     inkscape:window-y="0"
     inkscape:window-x="0"
     inkscape:cy="28.884368"
     inkscape:cx="31.445671"
     inkscape:zoom="4.5906698"
     showgrid="false"
     id="namedview48"
     inkscape:window-height="1000"
     inkscape:window-width="1920"
     inkscape:pageshadow="2"
     inkscape:pageopacity="0"
     guidetolerance="10"
     gridtolerance="10"
     objecttolerance="10"
     borderopacity="1"
     bordercolor="#666666"
     pagecolor="#ffffff" />
  <defs
     id="defs18">
    <filter
       color-interpolation-filters="sRGB"
       height="1.048"
       width="1.048"
       y="-.024"
       x="-.024"
       id="filter2761">
      <feGaussianBlur
         id="feGaussianBlur2"
         stdDeviation="0.14552168" />
    </filter>
    <linearGradient
       gradientTransform="translate(23.382179)"
       gradientUnits="userSpaceOnUse"
       y2="2.8905"
       y1="12.38"
       x2="13.849"
       x1="4.4771"
       id="linearGradient1024">
      <stop
         id="stop5"
         offset="0"
         stop-color="#9150dc" />
      <stop
         id="stop7"
         offset="1"
         stop-color="#b496ff" />
    </linearGradient>
    <linearGradient
       gradientUnits="userSpaceOnUse"
       gradientTransform="matrix(0.26458,0,0,0.26458,27.829,18.943)"
       y2="14"
       y1="50"
       x2="45.094"
       x1="45.094"
       id="b">
      <stop
         id="stop10"
         offset="0" />
      <stop
         id="stop12"
         offset="1"
         stop-opacity="0" />
    </linearGradient>
    <filter
       color-interpolation-filters="sRGB"
       height="1.188"
       width="1.1518"
       y="-.094012"
       x="-.075915"
       id="filter949">
      <feGaussianBlur
         id="feGaussianBlur15"
         stdDeviation="0.49298235" />
    </filter>
    <filter
       color-interpolation-filters="sRGB"
       height="1.048"
       width="1.048"
       y="-.024"
       x="-.024"
       id="filter2761-3">
      <feGaussianBlur
         id="feGaussianBlur4"
         stdDeviation="0.14552168" />
    </filter>
    <linearGradient
       gradientUnits="userSpaceOnUse"
       gradientTransform="matrix(3.7796,0,0,3.7796,93.808377,0.53085)"
       y2="1.1269"
       y1="15.576"
       x2="15.673"
       x1="1.3315"
       id="linearGradient1024-6">
      <stop
         id="stop7-7"
         offset="0"
         stop-color="#a53cff" />
      <stop
         id="stop9"
         offset="1"
         stop-color="#b496ff" />
    </linearGradient>
    <linearGradient
       gradientUnits="userSpaceOnUse"
       gradientTransform="matrix(1.2346,0,0,1.2346,2.3832028,3.6047)"
       y2="4"
       y1="44"
       x2="0"
       id="linearGradient890">
      <stop
         id="stop4"
         offset="0"
         stop-color="#FFB900" />
      <stop
         id="stop6"
         offset="1"
         stop-color="#ff0" />
    </linearGradient>
    <filter
       color-interpolation-filters="sRGB"
       height="1.048"
       width="1.048"
       y="-.024"
       x="-.024"
       id="filter2761-67">
      <feGaussianBlur
         id="feGaussianBlur9"
         stdDeviation="0.14552168" />
    </filter>
    <linearGradient
       gradientUnits="userSpaceOnUse"
       gradientTransform="matrix(3.7796,0,0,3.7796,66.443573,0.53068)"
       y2="1.1082"
       y1="15.601"
       x2="15.644"
       x1="1.4377"
       id="linearGradient4673">
      <stop
         id="stop12-5"
         offset="0"
         stop-color="#dc2828" />
      <stop
         id="stop14"
         offset="1"
         stop-color="#fa4141" />
    </linearGradient>
    <linearGradient
       gradientUnits="userSpaceOnUse"
       y2="9.67"
       y1="54.592"
       x2="34.134"
       x1="34.134"
       id="linearGradient915">
      <stop
         id="stop17"
         offset="0"
         stop-color="#ffb900" />
      <stop
         id="stop19"
         offset="1"
         stop-color="#ff0" />
    </linearGradient>
    <filter
       inkscape:collect="always"
       style="color-interpolation-filters:sRGB"
       id="filter1057"
       x="-0.027000001"
       width="1.054"
       y="-0.027000001"
       height="1.054">
      <feGaussianBlur
         inkscape:collect="always"
         stdDeviation="0.61875"
         id="feGaussianBlur1059" />
    </filter>
    <linearGradient
       inkscape:collect="always"
       xlink:href="#linearGradient1051"
       id="linearGradient1053"
       x1="-127"
       y1="60"
       x2="-72"
       y2="5"
       gradientUnits="userSpaceOnUse"
       gradientTransform="matrix(0.26457812,0,0,0.26457812,34.792023,-0.13493417)" />
    <linearGradient
       inkscape:collect="always"
       id="linearGradient1051">
      <stop
         style="stop-color:#a53cff;stop-opacity:1"
         offset="0"
         id="stop1047" />
      <stop
         style="stop-color:#b496ff;stop-opacity:1"
         offset="1"
         id="stop1049" />
    </linearGradient>
    <linearGradient
       id="linearGradient890-3"
       x2="0"
       y1="44"
       y2="4"
       gradientTransform="matrix(1.2346,0,0,1.2346,3.1419,3.6047)"
       gradientUnits="userSpaceOnUse">
      <stop
         stop-color="#FFB900"
         offset="0"
         id="stop861" />
      <stop
         stop-color="#ff0"
         offset="1"
         id="stop863" />
    </linearGradient>
    <filter
       id="filter2761-6"
       x="-.024"
       y="-.024"
       width="1.048"
       height="1.048"
       color-interpolation-filters="sRGB">
      <feGaussianBlur
         stdDeviation="0.14552168"
         id="feGaussianBlur866" />
    </filter>
  </defs>
  <metadata
     id="metadata20">
    <rdf:RDF>
      <cc:Work
         rdf:about="">
        <dc:format>image/svg+xml</dc:format>
        <dc:type
           rdf:resource="http://purl.org/dc/dcmitype/StillImage" />
        <dc:title></dc:title>
      </cc:Work>
    </rdf:RDF>
  </metadata>
  <g
     transform="scale(0.26457812)"
     id="g30"
     fill="#5e4aa6">
    <circle
       id="circle24"
       r="0"
       cy="-1241.6"
       cx="-1248.7" />
    <circle
       id="circle26"
       r="0"
       cy="-1301.8"
       cx="-1140.3" />
    <circle
       id="circle28"
       r="0"
       cy="-1246"
       cx="-1158.1" />
  </g>
  <circle
     style="stroke-width:0.264578"
     id="circle36"
     fill="#5e4aa6"
     r="0"
     cy="-335.40567"
     cx="-306.19626" />
  <circle
     style="stroke-width:0.264578"
     id="circle38"
     fill-rule="evenodd"
     fill="#5e4aa6"
     r="0"
     cy="-0.57754755"
     cx="-15.280974" />
  <rect
     transform="scale(0.26457812)"
     style="opacity:0.3;fill:#141414;fill-opacity:1;stroke-width:2.74436;stroke-linecap:round;filter:url(#filter1057)"
     id="rect1055"
     width="55"
     height="55"
     x="4.5"
     y="4.5"
     ry="15" />
  <rect
     ry="3.9686716"
     y="1.1906021"
     x="1.1906021"
     height="14.551796"
     width="14.551796"
     id="rect1045"
     style="fill:url(#linearGradient1053);fill-opacity:1;stroke-width:0.726098;stroke-linecap:round" />
  <g
     id="g34"
     filter="url(#filter949)"
     fill-rule="evenodd"
     fill="#9150dc"
     transform="matrix(0.72112,0,0,0.72112,-17.706142,-11.29893)">
    <path
       id="path26"
       d="m 41.805,33.428 c -0.054,0.2 -0.27,0.316 -0.48,0.26 L 28.801,30.332 c -0.212,-0.057 -0.34,-0.267 -0.287,-0.465 l 2.272,-8.476 c 0.053,-0.2 0.27,-0.316 0.48,-0.26 l 12.523,3.357 c 0.211,0.057 0.34,0.267 0.286,0.465 z" />
    <path
       id="path28"
       d="m 43.175,31.797 c 0,0.207 -0.18,0.375 -0.397,0.375 H 29.813 c -0.219,0 -0.397,-0.17 -0.397,-0.375 v -8.774 c 0,-0.207 0.18,-0.375 0.397,-0.375 h 12.966 c 0.22,0 0.397,0.17 0.397,0.375 z" />
    <path
       id="path30"
       d="m 39.206,28.865 v -3.308 a 0.397,0.397 0 0 0 -0.394,-0.396 h -4.633 v -1.059 c 0,-0.132 -0.132,-0.397 -0.397,-0.397 -0.264,0 -0.397,0.265 -0.397,0.397 v 1.059 h -1.058 c -0.132,0 -0.397,0.132 -0.397,0.397 0,0.264 0.265,0.396 0.397,0.396 h 1.058 v 3.308 c 0,0.22 0.18,0.397 0.395,0.397 h 4.632 v 1.058 c 0,0.132 0.133,0.397 0.397,0.397 0.265,0 0.397,-0.265 0.397,-0.397 v -1.058 h 1.058 c 0.133,0 0.397,-0.133 0.397,-0.397 0,-0.265 -0.264,-0.397 -0.397,-0.397 z m -5.027,0 v -2.91 h 4.233 v 2.91 z" />
    <path
       id="path32"
       stroke-width="0.26458"
       opacity="0.15"
       d="m 41.279,22.647 a 15.346,14.023 0 0 1 -4.9339,9.5249 h 6.4325 c 0.21801,0 0.39687,-0.16774 0.39687,-0.37464 v -8.7756 c 0,-0.20478 -0.17753,-0.37464 -0.39687,-0.37464 z" />
  </g>
  <g
     id="g44"
     fill-rule="evenodd"
     transform="matrix(0.72112,0,0,0.72112,-17.70631,-11.299039)">
    <path
       id="path36"
       fill="#ffc771"
       d="m 41.805,33.428 c -0.054,0.2 -0.27,0.316 -0.48,0.26 L 28.801,30.332 c -0.212,-0.057 -0.34,-0.267 -0.287,-0.465 l 2.272,-8.476 c 0.053,-0.2 0.27,-0.316 0.48,-0.26 l 12.523,3.357 c 0.211,0.057 0.34,0.267 0.286,0.465 z" />
    <path
       id="path38"
       fill="#a75dfa"
       d="m 43.175,31.797 c 0,0.207 -0.18,0.375 -0.397,0.375 H 29.813 c -0.219,0 -0.397,-0.17 -0.397,-0.375 v -8.774 c 0,-0.207 0.18,-0.375 0.397,-0.375 h 12.966 c 0.22,0 0.397,0.17 0.397,0.375 z" />
    <path
       id="path40"
       fill="#fff9f9"
       d="m 39.206,28.865 v -3.308 a 0.397,0.397 0 0 0 -0.394,-0.396 h -4.633 v -1.059 c 0,-0.132 -0.132,-0.397 -0.397,-0.397 -0.264,0 -0.397,0.265 -0.397,0.397 v 1.059 h -1.058 c -0.132,0 -0.397,0.132 -0.397,0.397 0,0.264 0.265,0.396 0.397,0.396 h 1.058 v 3.308 c 0,0.22 0.18,0.397 0.395,0.397 h 4.632 v 1.058 c 0,0.132 0.133,0.397 0.397,0.397 0.265,0 0.397,-0.265 0.397,-0.397 v -1.058 h 1.058 c 0.133,0 0.397,-0.133 0.397,-0.397 0,-0.265 -0.264,-0.397 -0.397,-0.397 z m -5.027,0 v -2.91 h 4.233 v 2.91 z" />
    <path
       style="fill:url(#b)"
       id="path42"
       stroke-width="0.26458"
       opacity="0.15"
       fill="url(#b)"
       d="m 41.279,22.647 a 15.346,14.023 0 0 1 -4.9339,9.5249 h 6.4325 c 0.21801,0 0.39687,-0.16774 0.39687,-0.37464 v -8.7756 c 0,-0.20478 -0.17753,-0.37464 -0.39687,-0.37464 z" />
  </g>
</svg>
