<?xml version="1.0" encoding="UTF-8"?>
<svg width="64" height="64" version="1.1" viewBox="0 0 64 64" xmlns="http://www.w3.org/2000/svg" xmlns:cc="http://creativecommons.org/ns#" xmlns:dc="http://purl.org/dc/elements/1.1/" xmlns:rdf="http://www.w3.org/1999/02/22-rdf-syntax-ns#">
 <metadata>
  <rdf:RDF>
   <cc:Work rdf:about="">
    <dc:format>image/svg+xml</dc:format>
    <dc:type rdf:resource="http://purl.org/dc/dcmitype/StillImage"/>
    <dc:title/>
   </cc:Work>
  </rdf:RDF>
 </metadata>
 <defs>
  <filter id="filter2761" x="-.024" y="-.024" width="1.048" height="1.048" color-interpolation-filters="sRGB">
   <feGaussianBlur stdDeviation="0.14552168"/>
  </filter>
  <linearGradient id="linearGradient1024" x1="1.3315" x2="15.673" y1="15.576" y2="1.1269" gradientTransform="matrix(3.7796 0 0 3.7796 -.0032124 .53085)" gradientUnits="userSpaceOnUse">
   <stop stop-color="#a53cff" offset="0"/>
   <stop stop-color="#b496ff" offset="1"/>
  </linearGradient>
 </defs>
 <filter id="i" x="-.069933" y="-.054406" width="1.1399" height="1.1088" color-interpolation-filters="sRGB">
  <feGaussianBlur stdDeviation="1.9764485"/>
 </filter>
 <path transform="matrix(3.7796 0 0 3.7796 -.0032124 .53085)" d="m10.709 1.05c4.405 0 5.0345 0.67282 5.0345 5.388v3.7761c0 4.7152-0.62954 5.388-5.0345 5.388h-4.4832c-4.405 0-5.0346-0.6728-5.0346-5.388v-3.7761c0-4.7152 0.62954-5.388 5.0346-5.388z" enable-background="new" fill="#141414" filter="url(#filter2761)" opacity=".3"/>
 <path d="m40.473 4.4994c16.649 0 19.028 2.543 19.028 20.364v14.272c0 17.822-2.3794 20.364-19.028 20.364h-16.945c-16.649 0-19.029-2.5429-19.029-20.364v-14.272c0-17.822 2.3794-20.364 19.029-20.364z" enable-background="new" fill="url(#linearGradient1024)" stroke-width="3.7796"/>
 <path d="m32.005 12c-0.76551-3.16e-4 -1.5306 0.0205-1.8977 0.06229-4.4984 0.5119-8.1816 2.3711-11.36 5.7343-2.1395 2.2636-3.6027 4.9941-4.3862 8.1852-0.25633 1.0439-0.32331 1.5007-0.38423 2.6266-0.06263 1.1578 0.0019 3.1611 0.13445 4.1716 0.19194 1.4643 0.76511 3.3384 1.5288 4.999 1.4127 3.0719 3.6936 5.6563 6.6445 7.5302 0.93171 0.59159 2.826 1.5624 3.6178 1.8539 0.23937 0.08814 0.28196 0.08757 0.3577-0.0036 0.14038-0.16914-0.04386-1.7276-0.25224-2.1339-0.13381-0.26086-0.26877-0.36502-0.84864-0.65437-3.1726-1.5831-5.6951-4.1474-7.3026-7.4231-0.69386-1.4138-1.1693-2.8253-1.3297-3.9489-0.18086-1.2669-0.2124-3.3657-0.07462-4.9807 0.12318-1.4438 0.54041-2.8701 1.3068-4.4672 1.1633-2.424 2.8282-4.4564 4.9521-6.0471 2.0679-1.5485 4.523-2.5811 6.943-2.9196 0.63041-0.08816 3.3387-0.12134 4.1672-0.05119 1.8927 0.16026 3.4986 0.63742 5.3836 1.5998 3.395 1.7335 6.119 4.7433 7.5458 8.3383 0.76288 1.9221 0.96318 3.1407 0.96336 5.8614 1.03e-4 2.1741-0.11666 3.0397-0.6081 4.5109-0.73638 2.2042-1.897 4.1906-3.4487 5.9021-1.2404 1.368-3.0892 2.7785-4.6585 3.5548-0.71702 0.35465-0.85185 0.47358-0.99357 0.87514-0.18388 0.52114-0.30665 1.8489-0.18256 1.9729 0.10299 0.10299 0.48415-0.03828 1.5918-0.58837 1.1082-0.55041 2.6104-1.4249 3.3026-1.9229 3.1869-2.2929 5.7152-5.9458 6.7637-9.7721 0.43289-1.5795 0.52034-2.2451 0.55876-4.2561 0.03222-1.6856-0.03097-2.9211-0.19057-3.7226-0.6114-3.0705-1.7906-5.6817-3.5665-7.8983-0.91732-1.1451-2.0789-2.3189-3.0935-3.1256-2.7355-2.1749-5.7098-3.3919-9.2829-3.799-0.3693-0.04208-1.1353-0.06381-1.9007-0.06415zm-0.05242 6.0123c-1.3548 0.0067-2.6735 0.17456-3.5493 0.46808-1.87 0.62666-3.7206 1.7952-5.1169 3.2317-1.313 1.3507-2.2462 2.8851-2.8413 4.6715-0.4242 1.2735-0.55617 2.3434-0.50941 4.1253 0.01617 0.61675 0.06489 1.3381 0.1104 1.6294 0.35673 2.2837 1.8502 5.0606 3.6245 6.7405 0.2428 0.22982 0.5223 0.47269 0.62166 0.53966 0.09934 0.06695 0.37152 0.25795 0.60502 0.42431 0.23349 0.16636 0.44859 0.2947 0.47795 0.28494 0.02937-0.0098 0.06825-0.08394 0.08573-0.16467 0.01746-0.08073 0.03435-0.65633 0.03762-1.2791l0.0056-1.1323-0.5828-0.70367c-1.2425-1.4996-1.9389-2.7905-2.3356-4.3288-0.97181-3.769 0.40117-7.7002 3.5493-10.162 1.4871-1.1632 3.2716-1.8187 5.5331-2.0327 1.145-0.10833 3.2542 0.32806 4.5729 0.9461 2.3304 1.092 4.2573 3.2959 5.0869 5.8164 0.38386 1.1666 0.45127 1.6224 0.449 3.0455-0.0019 1.1404-0.01203 1.2797-0.1363 1.8625-0.26915 1.2624-0.80861 2.5531-1.4937 3.574-0.19392 0.28897-0.62612 0.85386-0.96021 1.255l-0.60747 0.72897 0.01541 1.2427c0.01093 0.9024 0.03194 1.2599 0.07709 1.305 0.08334 0.08323 0.57138-0.2506 1.2458-0.85171 2.3755-2.1173 3.6395-4.4579 4.1346-7.6573 0.13428-0.86791 0.12158-2.4811-0.0259-3.3205-0.22715-1.2926-0.54296-2.2754-1.091-3.3957-1.8804-3.8439-5.6366-6.5017-9.6309-6.8141-0.44456-0.03479-0.90024-0.05034-1.3519-0.0481zm0.09189 6.4669c-0.79947-4.1e-4 -0.91822 0.01113-1.2933 0.12643-1.0529 0.32372-2.0593 1.2144-2.5526 2.2603-0.2424 0.51392-0.3327 0.88679-0.36449 1.5048-0.04815 0.93621 0.17814 1.8327 0.63893 2.5341 0.26787 0.40777 0.98908 1.1213 1.4227 1.4074 1.0202 0.67293 2.262 0.88474 3.4346 0.58588 1.4922-0.3803 2.6102-1.4729 3.0725-3.0028 0.11734-0.38828 0.13383-0.52917 0.13383-1.1471 0-0.61796-0.01648-0.75824-0.13383-1.1465-0.4618-1.5281-1.5496-2.5939-3.0756-3.0121-0.34253-0.09387-0.53354-0.11-1.2828-0.1104zm-0.11286 10.139c-2.003 0.01029-3.4701 0.67824-4.0698 1.8662-0.29964 0.5936-0.39395 1.6186-0.29912 3.2563 0.15854 2.7378 0.81352 7.6877 1.2396 9.3692 0.31048 1.2248 0.75467 1.9532 1.469 2.4071 0.28048 0.17825 0.90923 0.3834 1.3703 0.44775 0.55567 0.07753 1.4434 0.02048 1.8945-0.12212 1.0024-0.3167 1.5674-0.99879 1.9186-2.3164 0.31021-1.1636 0.86653-5.3136 1.1465-8.5528 0.1099-1.2714 0.11177-3.0828 0.0037-3.614-0.1543-0.75855-0.41156-1.1653-1.0398-1.6436-1.013-0.77114-1.7995-1.0366-3.2261-1.0904-0.13819-0.0052-0.27413-0.0075-0.40766-0.0067z" fill="#fff" stroke-width=".89914" style="paint-order:fill markers stroke"/>
</svg>
