<?xml version="1.0" encoding="UTF-8" standalone="no"?>
<svg
   inkscape:version="1.4 (e7c3feb100, 2024-10-09)"
   sodipodi:docname="addwater.svg"
   id="svg44"
   version="1.1"
   height="64"
   width="64"
   xml:space="preserve"
   xmlns:inkscape="http://www.inkscape.org/namespaces/inkscape"
   xmlns:sodipodi="http://sodipodi.sourceforge.net/DTD/sodipodi-0.dtd"
   xmlns:xlink="http://www.w3.org/1999/xlink"
   xmlns="http://www.w3.org/2000/svg"
   xmlns:svg="http://www.w3.org/2000/svg"
   xmlns:rdf="http://www.w3.org/1999/02/22-rdf-syntax-ns#"
   xmlns:cc="http://creativecommons.org/ns#"
   xmlns:dc="http://purl.org/dc/elements/1.1/"><sodipodi:namedview
     inkscape:current-layer="svg44"
     inkscape:window-maximized="1"
     inkscape:window-y="34"
     inkscape:window-x="0"
     inkscape:cy="54.093669"
     inkscape:cx="-31.466252"
     inkscape:zoom="2.8284271"
     showgrid="false"
     id="namedview46"
     inkscape:window-height="950"
     inkscape:window-width="1920"
     inkscape:pageshadow="2"
     inkscape:pageopacity="0"
     guidetolerance="10"
     gridtolerance="10"
     objecttolerance="10"
     borderopacity="1"
     bordercolor="#666666"
     pagecolor="#ffffff"
     inkscape:showpageshadow="2"
     inkscape:pagecheckerboard="0"
     inkscape:deskcolor="#d1d1d1" /><metadata
     id="metadata2"><rdf:RDF><cc:Work
         rdf:about=""><dc:format>image/svg+xml</dc:format><dc:type
           rdf:resource="http://purl.org/dc/dcmitype/StillImage" /><dc:title /></cc:Work></rdf:RDF></metadata><defs
     id="defs22"><linearGradient
       id="linearGradient15"
       inkscape:collect="always"><stop
         style="stop-color:#e1e1e1;stop-opacity:1;"
         offset="0"
         id="stop16" /><stop
         style="stop-color:#ffffff;stop-opacity:1"
         offset="1"
         id="stop18" /></linearGradient><linearGradient
       id="linearGradient11"
       inkscape:collect="always"><stop
         style="stop-color:#fdfdff;stop-opacity:1"
         offset="0"
         id="stop11" /><stop
         style="stop-color:#e6e6e6;stop-opacity:1;"
         offset="0.49564654"
         id="stop15" /><stop
         style="stop-color:#fafafa;stop-opacity:1;"
         offset="1"
         id="stop13" /></linearGradient><linearGradient
       id="linearGradient1"
       inkscape:collect="always"><stop
         style="stop-color:#125fe1;stop-opacity:1;"
         offset="0"
         id="stop5" /><stop
         style="stop-color:#5fb2a8;stop-opacity:1"
         offset="1"
         id="stop7" /></linearGradient><linearGradient
       gradientUnits="userSpaceOnUse"
       gradientTransform="matrix(1.2346,0,0,1.2346,2.3832028,3.6047)"
       y2="4"
       y1="44"
       x2="0"
       id="linearGradient890"><stop
         id="stop4"
         offset="0"
         stop-color="#FFB900" /><stop
         id="stop6"
         offset="1"
         stop-color="#ff0" /></linearGradient><filter
       color-interpolation-filters="sRGB"
       height="1.048"
       width="1.048"
       y="-.024"
       x="-.024"
       id="filter2761"><feGaussianBlur
         id="feGaussianBlur9"
         stdDeviation="0.14552168" /></filter><linearGradient
       gradientUnits="userSpaceOnUse"
       gradientTransform="matrix(3.7796,0,0,3.7796,66.443573,0.53068)"
       y2="1.1082"
       y1="15.601"
       x2="15.644"
       x1="1.4377"
       id="linearGradient4673"><stop
         id="stop12"
         offset="0"
         stop-color="#dc2828" /><stop
         id="stop14"
         offset="1"
         stop-color="#fa4141" /></linearGradient><linearGradient
       gradientUnits="userSpaceOnUse"
       y2="9.67"
       y1="54.592"
       x2="34.134"
       x1="34.134"
       id="linearGradient915"><stop
         id="stop17"
         offset="0"
         stop-color="#ffb900" /><stop
         id="stop19"
         offset="1"
         stop-color="#ff0" /></linearGradient><linearGradient
       id="linearGradient890-3"
       x2="0"
       y1="44"
       y2="4"
       gradientTransform="matrix(1.2346,0,0,1.2346,3.1419,3.6047)"
       gradientUnits="userSpaceOnUse"><stop
         stop-color="#FFB900"
         offset="0"
         id="stop861" /><stop
         stop-color="#ff0"
         offset="1"
         id="stop863" /></linearGradient><filter
       id="filter2761-6"
       x="-.024"
       y="-.024"
       width="1.048"
       height="1.048"
       color-interpolation-filters="sRGB"><feGaussianBlur
         stdDeviation="0.14552168"
         id="feGaussianBlur866" /></filter><filter
       id="filter1057-1"
       x="-0.026999999"
       y="-0.026999999"
       width="1.054"
       height="1.054"
       color-interpolation-filters="sRGB"><feGaussianBlur
         stdDeviation="0.61875"
         id="feGaussianBlur4" /></filter><linearGradient
       id="linearGradient1053-9"
       x1="-127"
       x2="-72"
       y1="60"
       y2="5"
       gradientTransform="matrix(1.0000071,0,0,1.0000071,131.49969,-0.51020942)"
       gradientUnits="userSpaceOnUse"><stop
         stop-color="#dee0e2"
         offset="0"
         id="stop3"
         style="stop-color:#343434;stop-opacity:1" /><stop
         stop-color="#f1f3f5"
         stop-opacity=".99608"
         offset="1"
         id="stop4-3"
         style="stop-color:#454545;stop-opacity:1" /></linearGradient><linearGradient
       id="linearGradient848-7"
       x1="145"
       x2="200"
       y1="59"
       y2="4"
       gradientTransform="matrix(1.0000449,0,0,1.0000449,-140.50179,0.50008101)"
       gradientUnits="userSpaceOnUse"><stop
         stop-color="#e1e1e1"
         offset="0"
         id="stop1" /><stop
         stop-color="#f5f5f5"
         offset="1"
         id="stop2" /></linearGradient><linearGradient
       inkscape:collect="always"
       xlink:href="#linearGradient1"
       id="linearGradient7"
       x1="31.310547"
       y1="24.545979"
       x2="31.310547"
       y2="56.498047"
       gradientUnits="userSpaceOnUse" /><linearGradient
       inkscape:collect="always"
       xlink:href="#linearGradient11"
       id="linearGradient13"
       x1="14.672465"
       y1="-41.729828"
       x2="14.672465"
       y2="-1.110223e-16"
       gradientUnits="userSpaceOnUse" /><linearGradient
       inkscape:collect="always"
       xlink:href="#linearGradient15"
       id="linearGradient18"
       x1="33.019337"
       y1="-23.660275"
       x2="41.441334"
       y2="-22.046711"
       gradientUnits="userSpaceOnUse" /></defs><g
     id="g30"
     fill="#5e4aa6"><circle
       id="circle24"
       r="0"
       cy="-1241.6"
       cx="-1248.7" /><circle
       id="circle26"
       r="0"
       cy="-1301.8"
       cx="-1140.3" /><circle
       id="circle28"
       r="0"
       cy="-1246"
       cx="-1158.1" /></g><circle
     id="circle36"
     fill="#5e4aa6"
     r="0"
     cy="-1267.7"
     cx="-1157.3" /><circle
     id="circle38"
     fill-rule="evenodd"
     fill="#5e4aa6"
     r="0"
     cy="-2.1829"
     cx="-57.756" /><g
     id="g20"><rect
       transform="matrix(1.0000071,0,0,1.0000071,-2.277238e-4,-2.277238e-4)"
       x="4.5"
       y="4.5"
       width="55"
       height="55"
       ry="15"
       fill="#141414"
       filter="url(#filter1057-1)"
       opacity="0.3"
       stroke-width="2.7444"
       id="rect4"
       style="stroke-linecap:round" /><rect
       x="4.4997663"
       y="4.4997663"
       width="55.000767"
       height="55.000767"
       ry="15.000106"
       fill="url(#linearGradient1053-9)"
       stroke-width="2.74441"
       id="rect5"
       style="fill:url(#linearGradient1053-9);stroke-linecap:round" /><rect
       x="7.4996367"
       y="7.4996367"
       width="48.99876"
       height="48.99876"
       ry="11.999859"
       fill="#262626"
       stroke-width="2.44499"
       id="rect6"
       style="fill:#ffffff;fill-opacity:0.431373;stroke-linecap:round" /><rect
       x="6.9998226"
       y="6.9998226"
       width="50.000355"
       height="50.000355"
       rx="11.820327"
       ry="11.820327"
       fill="url(#linearGradient848-7)"
       fill-opacity="0"
       stroke-width="0.90907"
       id="rect7"
       style="fill:url(#linearGradient848-7)" /><path
       id="path1"
       style="fill:url(#linearGradient7);fill-opacity:1;stroke:none;stroke-width:0.447114;stroke-linejoin:round"
       d="m 54.894531,17.548828 c -1.015055,-0.03754 -1.65433,0.72461 -1.326172,0.72461 0.525052,0 1.443418,0.300771 0.88086,0.394531 -0.562554,0.09376 -0.542969,0.617187 -0.542969,0.617187 1.912692,-0.112511 0.505409,1.913086 -2.794922,3.863282 -3.300332,1.950196 -6.45008,-0.748947 -9.52539,-3.449219 -3.075309,-2.700272 -5.624923,-2.8501 -10.275391,2.02539 C 26.660081,26.6001 23.05942,22.998874 18.708984,18.648438 15.047513,14.986965 9.2578503,21.723909 7.5,23.966797 v 20.53125 c 0,6.647922 5.352078,12 12,12 h 24.998047 c 6.647922,0 12,-5.352078 12,-12 V 19.5 c 0,-0.428427 -0.02304,-0.851002 -0.06641,-1.267578 -0.552343,-0.477401 -1.082637,-0.666786 -1.53711,-0.683594 z" /><g
       id="g19"
       transform="matrix(0.55758674,0,0,0.55758674,22.38739,49.187609)"><g
         id="g18"><path
           style="opacity:1;fill:url(#linearGradient18);fill-opacity:1;stroke:none;stroke-linejoin:round"
           d="m 32.820401,-26.625477 c 0,0 10.835849,4.969227 8.210849,9.094227 0,0 -2.6875,0.6875 -4.96875,-2.46875 -2.28125,-3.15625 -9.09375,-0.75 -9.09375,-0.75 l 0.625,-5.71875 z"
           id="path11" /><path
           style="opacity:1;fill:url(#linearGradient13);fill-opacity:1;stroke:none;stroke-linejoin:round"
           d="m -9.3481303,-16.540363 c 0,0 -2.2577697,15.3206931 7.37656,18.2375086 0,0 -1.06066,-2.16551459 -0.22097,-2.8063301 0,0 2.12131995,4.9718446 6.54074,5.2149125 0,0 -2.25391,-2.8726213 -1.59099,-5.08232995 0,0 5.3033,9.25867895 10.9601513,8.68415515 0,0 -10.6949913,-8.08753379 -3.093592,-21.3015922 0,0 19.003495,-4.021669 21.831922,-7.822368 0,0 1.414214,-3.911185 0.287262,-6.341864 -0.436588,-0.941661 16.543477,-12.634634 9.819547,-13.960479 -2.21875,-0.4375 -12.581683,12.214809 -20.448246,14.601294 -7.866562,2.386486 -31.4623843,10.577093 -31.4623843,10.577093 z"
           id="path10"
           sodipodi:nodetypes="ccccccccsssc" /><circle
           style="opacity:1;fill:#000000;fill-opacity:1;stroke:none;stroke-width:0.729008;stroke-linejoin:round"
           id="path18"
           cx="42.647373"
           cy="-40.23764"
           r="1.4921875" /></g><path
         id="path9"
         style="opacity:1;fill:#ffffff;fill-opacity:1;stroke:none;stroke-linejoin:round"
         d="m 25.833984,-44.193359 c -2.222805,0 1.929688,4.990234 1.929688,4.990234 0,0 -4.824178,2.308233 -3.230469,8.263672 0,0 -18.6204186,4.361328 -24.32421862,4.361328 -5.70379998,0 -15.67426638,13.822937 -5.47265628,19.5761719 1.09278,0.6162758 1.9425169,1.137243 2.6542969,1.5976562 -0.0823,-0.270828 -0.1308138,-0.5589184 -0.1210938,-0.8652343 0.1186301,-3.7366378 3.0117188,-5.2968748 3.0117188,-5.2968748 0,0 0.16404245,4.9523218 3.0703125,5.6640622 2.90628,0.7117406 2.03125,0.4453124 2.03125,0.4453126 0,0 1.3039473,-7.9188338 4.2695313,-9.4609378 C 12.617929,-16.460074 23.769531,-21.5 23.769531,-21.5 c 0,0 0.474238,4.387699 1.957031,6.404297 1.482794,2.016598 -2.669976,4.211145 -0.890624,8.0664061 1.77935,3.855261 0.18164,-0.048828 0.18164,-0.048828 0,0 5.097139,-1.3153237 4.978516,-6.8906251 -0.118624,-5.575299 -2.904752,-9.607453 -0.769532,-10.734375 2.135222,-1.126922 10.320313,-5.160335 10.320313,-7.888672 0,-2.728339 -0.05917,-4.912309 -1.927734,-6.400391 0,0 0.166605,-5.117187 -0.923829,-5.117187 -1.090431,0 -2.850448,2.389951 -3.521484,4.193359 -0.671035,1.803408 -0.04492,-0.166015 -0.04492,-0.166015 h -2.095703 c 0,0 -2.976414,-4.111328 -5.199219,-4.111328 z" /></g></g></svg>
