<?xml version="1.0" encoding="UTF-8" standalone="no"?>
<svg
   width="64"
   height="64"
   version="1.1"
   id="svg8"
   sodipodi:docname="adw-steam-gtk.svg"
   inkscape:version="1.3.2 (091e20ef0f, 2023-11-25, custom)"
   xmlns:inkscape="http://www.inkscape.org/namespaces/inkscape"
   xmlns:sodipodi="http://sodipodi.sourceforge.net/DTD/sodipodi-0.dtd"
   xmlns:xlink="http://www.w3.org/1999/xlink"
   xmlns="http://www.w3.org/2000/svg"
   xmlns:svg="http://www.w3.org/2000/svg">
  <sodipodi:namedview
     id="namedview8"
     pagecolor="#ffffff"
     bordercolor="#000000"
     borderopacity="0.25"
     inkscape:showpageshadow="2"
     inkscape:pageopacity="0.0"
     inkscape:pagecheckerboard="0"
     inkscape:deskcolor="#d1d1d1"
     inkscape:zoom="4.0934854"
     inkscape:cx="-11.848094"
     inkscape:cy="-3.5422137"
     inkscape:window-width="1920"
     inkscape:window-height="948"
     inkscape:window-x="0"
     inkscape:window-y="34"
     inkscape:window-maximized="1"
     inkscape:current-layer="svg8" />
  <defs
     id="defs6">
    <linearGradient
       id="a">
      <stop
         offset="0"
         style="stop-color:#dcdcdc;stop-opacity:1"
         id="stop1" />
      <stop
         offset="1"
         style="stop-color:#f8f8f8;stop-opacity:1"
         id="stop2" />
    </linearGradient>
    <linearGradient
       id="i"
       x1="540"
       x2="540"
       y1="452.36"
       y2="632.36"
       gradientTransform="matrix(0.06401,0,0,0.06401,-1.906,-91.216779)"
       gradientUnits="userSpaceOnUse">
      <stop
         offset="0"
         stop-color="#d7d7d7"
         id="stop3" />
      <stop
         offset="1"
         stop-color="#fff"
         id="stop4" />
    </linearGradient>
    <linearGradient
       id="c"
       x1="7.937"
       x2="7.937"
       y1="15.081"
       y2="1.852"
       gradientTransform="scale(3.7796)"
       gradientUnits="userSpaceOnUse">
      <stop
         offset="0"
         stop-color="#112b40"
         id="stop5" />
      <stop
         offset="1"
         stop-color="#0074a4"
         id="stop6" />
    </linearGradient>
    <linearGradient
       xlink:href="#a"
       id="e"
       x1="18.085"
       x2="15.425"
       y1="21.879"
       y2="11.119"
       gradientUnits="userSpaceOnUse"
       gradientTransform="matrix(3.2219615,0.86332198,-0.86332198,3.2219615,-8.366,-125.5217)" />
    <linearGradient
       xlink:href="#a"
       id="g"
       x1="18.085"
       x2="15.425"
       y1="21.879"
       y2="11.119"
       gradientTransform="matrix(1.5970919,2.9284225,-2.9284225,1.5970919,25.653576,-20.523559)"
       gradientUnits="userSpaceOnUse" />
    <linearGradient
       xlink:href="#c"
       id="d"
       x1="7.937"
       x2="7.937"
       y1="15.081"
       y2="1.852"
       gradientTransform="translate(0 .03)scale(3.7796)"
       gradientUnits="userSpaceOnUse" />
    <clipPath
       id="f"
       clipPathUnits="userSpaceOnUse">
      <rect
         width="56.002"
         height="56.002"
         x="4"
         y="3.999"
         fill="url(#c)"
         rx="13.002"
         ry="13.002"
         style="fill:url(#d)"
         id="rect6" />
    </clipPath>
    <filter
       id="filter1057-2"
       x="-0.026999999"
       y="-0.026999999"
       width="1.054"
       height="1.054"
       color-interpolation-filters="sRGB">
      <feGaussianBlur
         stdDeviation="0.61875"
         id="feGaussianBlur1" />
    </filter>
    <linearGradient
       id="linearGradient1053"
       x1="-127"
       x2="-72"
       y1="60"
       y2="5"
       gradientTransform="translate(131.5,-0.510001)"
       gradientUnits="userSpaceOnUse">
      <stop
         stop-color="#1d2123"
         offset="0"
         id="stop1-3" />
      <stop
         stop-color="#33393e"
         stop-opacity=".99608"
         offset="1"
         id="stop2-6" />
    </linearGradient>
    <linearGradient
       id="linearGradient1948"
       x1="404.23001"
       x2="404.23001"
       y1="537.38"
       y2="507.84"
       gradientTransform="matrix(1.2144,0,0,1.2144,-545.22586,-604.341)"
       gradientUnits="userSpaceOnUse">
      <stop
         stop-color="#d8d8d8"
         offset="0"
         id="stop3-7" />
      <stop
         stop-color="#fff"
         offset="1"
         id="stop4-5" />
    </linearGradient>
  </defs>
  <rect
     x="4.5000005"
     y="4.5"
     width="55"
     height="55"
     ry="15"
     fill="#141414"
     filter="url(#filter1057-2)"
     opacity="0.3"
     stroke-linecap="round"
     stroke-width="2.7444"
     id="rect4" />
  <rect
     x="4.5000005"
     y="4.5"
     width="55"
     height="55"
     ry="15"
     fill="url(#linearGradient1053)"
     stroke-linecap="round"
     stroke-width="2.7444"
     id="rect5"
     style="fill:url(#linearGradient1053)" />
  <circle
     cx="32"
     cy="32"
     r="30.000999"
     fill-opacity="0"
     stroke-width="1.5715"
     id="circle5" />
  <g
     transform="translate(-46.020004,9.0499988)"
     id="g238" />
  <g
     id="g8"
     transform="matrix(1.2500042,0,0,1.2500042,-8.000147,-8.0005153)">
    <circle
       cx="32"
       cy="32"
       r="11.911"
       opacity="0.15"
       stroke-width="3.4623"
       style="paint-order:stroke markers fill"
       id="circle9" />
    <path
       d="m 31.577997,18.000001 c -0.78109,0.02908 -1.2104,0.29129 -1.4902,0.8545 -0.17952,0.36141 -0.32625,0.96346 -0.32642,1.3381 -5.78e-4,1.3745 -1.3883,2.6284 -2.9104,2.6284 -0.74686,0 -1.1571,-0.20559 -2.6695,-1.3381 -0.68836,-0.51549 -1.1229,-0.38141 -2.1909,0.66993 -1.0147,0.99899 -1.0403,1.4774 -0.14185,2.6695 0.37129,0.49277 0.74748,1.1496 0.83569,1.4612 0.21817,0.7705 -0.13902,2.1809 -0.71266,2.8079 -0.47018,0.5139 -1.6377,0.91429 -2.6558,0.91429 -0.9681,0 -1.3159,0.55114 -1.3159,2.0764 0,1.1877 0.04559,1.3499 0.45287,1.6202 0.24891,0.1653 0.96793,0.37437 1.5996,0.46485 0.6317,0.09046 1.3609,0.3042 1.6184,0.47511 0.54366,0.36084 1.1738,1.6524 1.1792,2.4182 0.0044,0.556 -0.42365,1.539 -0.86476,1.9858 -0.48076,0.48698 -0.83244,1.3732 -0.70581,1.7773 0.16224,0.51776 1.2612,1.6249 1.8303,1.844 0.32597,0.12557 0.56278,0.08896 0.87841,-0.135 0.92514,-0.65634 2.5079,-1.3689 3.042,-1.3689 0.80516,0 2.1407,0.71057 2.4336,1.2954 0.13789,0.27549 0.3098,0.91761 0.3828,1.4253 0.17701,1.2312 0.45682,1.8106 0.92628,1.9107 0.21341,0.04524 0.55685,0.122 0.7622,0.16919 0.20536,0.04845 0.66771,0.04845 1.0271,0 0.93739,-0.12587 1.437,-0.8248 1.5945,-2.2302 0.14396,-1.285 0.26195,-1.4918 1.2083,-2.0969 0.96093,-0.61447 1.7131,-0.73445 2.4524,-0.39137 0.61298,0.28452 0.86072,0.43194 1.8662,1.1023 0.7367,0.49128 1.1958,0.41009 2.0473,-0.36915 1.2805,-1.1717 1.3063,-1.6812 0.15894,-3.0198 -1.0921,-1.2739 -1.1045,-2.8412 -0.0308,-4.045 0.41118,-0.46102 0.77986,-0.62138 1.9978,-0.86476 1.8389,-0.36742 2.1377,-0.66771 2.143,-2.1602 0.005,-1.4907 -0.23183,-1.7343 -1.9585,-2.0046 -1.643,-0.25727 -2.169,-0.62846 -2.7464,-1.9295 -0.47996,-1.0818 -0.34755,-1.7157 0.67678,-3.2009 0.52527,-0.76158 0.78674,-1.3174 0.72632,-1.5517 -0.135,-0.52293 -1.837,-2.0833 -2.273,-2.0833 -0.20191,0 -0.73952,0.29076 -1.1946,0.64258 -1.2553,0.97073 -2.0029,1.19 -3.0762,0.9023 -1.2611,-0.33783 -1.71,-0.87051 -2.0286,-2.4097 -0.3658,-1.7677 -0.60167,-2.0858 -1.6424,-2.2046 -0.34672,-0.03985 -0.64543,-0.05583 -0.9058,-0.04614 v -0.0034 z m 0.42213,8.75 a 5.2501,5.2501 0 0 1 5.2501,5.2501 5.2501,5.2501 0 0 1 -5.2501,5.2501 5.2501,5.2501 0 0 1 -5.2501,-5.2501 5.2501,5.2501 0 0 1 5.2501,-5.2501 z"
       fill="#ffffff"
       stroke-width="0.875"
       id="path9" />
  </g>
  <path
     id="path12"
     style="paint-order:stroke markers fill;fill:#000000;fill-opacity:1;opacity:0.2"
     d="M 4.5 36.414062 L 4.5 44.5 C 4.5 51.491439 9.2418329 57.319285 15.693359 58.998047 A 14.888801 14.888801 0 0 0 17.904297 51.226562 A 14.888801 14.888801 0 0 0 4.5 36.414062 z " />
  <path
     id="path11"
     d="M 4.5 34.017578 L 4.5 44.5 C 4.5 44.614754 4.5052744 44.727674 4.5078125 44.841797 A 6.5626471 6.5626471 0 0 1 9.578125 51.228516 A 6.5626471 6.5626471 0 0 1 8.5214844 54.720703 C 10.176512 56.498449 12.256278 57.866845 14.607422 58.673828 C 14.090973 57.381 14.333698 55.999154 15.339844 54.871094 C 15.853819 54.294817 16.313509 54.093288 17.835938 53.789062 C 20.134568 53.329786 20.509 52.95546 20.515625 51.089844 C 20.521925 49.226464 20.224748 48.92186 18.066406 48.583984 C 16.012651 48.262397 15.354565 47.798179 14.632812 46.171875 C 14.032861 44.819622 14.200053 44.026426 15.480469 42.169922 C 16.137058 41.217945 16.462244 40.523344 16.386719 40.230469 C 16.217969 39.576805 14.091875 37.626953 13.546875 37.626953 C 13.294486 37.626953 12.621585 37.989912 12.052734 38.429688 C 10.483605 39.643103 9.5486594 39.916266 8.2070312 39.556641 C 6.6306525 39.134352 6.0701259 38.468914 5.671875 36.544922 C 5.3436704 34.958899 5.0929631 34.314451 4.5 34.017578 z "
     style="fill:#ffffff;fill-opacity:1" />
</svg>
