<?xml version="1.0" encoding="UTF-8" standalone="no"?>
<svg
   xmlns:dc="http://purl.org/dc/elements/1.1/"
   xmlns:cc="http://creativecommons.org/ns#"
   xmlns:rdf="http://www.w3.org/1999/02/22-rdf-syntax-ns#"
   xmlns:svg="http://www.w3.org/2000/svg"
   xmlns="http://www.w3.org/2000/svg"
   xmlns:xlink="http://www.w3.org/1999/xlink"
   xmlns:sodipodi="http://sodipodi.sourceforge.net/DTD/sodipodi-0.dtd"
   xmlns:inkscape="http://www.inkscape.org/namespaces/inkscape"
   inkscape:version="1.0 (4035a4fb49, 2020-05-01)"
   sodipodi:docname="akonadi.svg"
   viewBox="0 0 64 64"
   version="1.1"
   image-rendering="optimizeSpeed"
   enable-background="new 0 0 1024 1024"
   height="64"
   width="64"
   id="Iterm">
  <sodipodi:namedview
     inkscape:current-layer="Iterm"
     inkscape:window-maximized="1"
     inkscape:window-y="36"
     inkscape:window-x="0"
     inkscape:cy="18.543301"
     inkscape:cx="-22.475403"
     inkscape:zoom="4.391796"
     showgrid="false"
     id="namedview582"
     inkscape:window-height="964"
     inkscape:window-width="1920"
     inkscape:pageshadow="2"
     inkscape:pageopacity="0"
     guidetolerance="10"
     gridtolerance="10"
     objecttolerance="10"
     borderopacity="1"
     bordercolor="#666666"
     pagecolor="#ffffff" />
  <metadata
     id="metadata2">
    <rdf:RDF>
      <cc:Work
         rdf:about="">
        <dc:format>image/svg+xml</dc:format>
        <dc:type
           rdf:resource="http://purl.org/dc/dcmitype/StillImage" />
        <dc:title></dc:title>
      </cc:Work>
    </rdf:RDF>
  </metadata>
  <defs
     id="defs156">
    <clipPath
       id="aw">
      <path
         id="path4"
         d="m481 318h22v22h-22z" />
    </clipPath>
    <clipPath
       id="av">
      <path
         id="path7"
         d="m507 318h22v22h-22z" />
    </clipPath>
    <clipPath
       id="au">
      <path
         id="path10"
         d="m530 318h22v22h-22z" />
    </clipPath>
    <clipPath
       id="at">
      <path
         id="path13"
         d="m672 1064c0-1.105 4.925-2 11-2s11 0.895 11 2-4.925 2-11 2-11-0.895-11-2" />
    </clipPath>
    <clipPath
       id="as">
      <path
         id="path16"
         d="m660 1057h51v65.001h-51z" />
    </clipPath>
    <clipPath
       id="ar">
      <path
         id="path19"
         d="m659 517h53v18h-53z" />
    </clipPath>
    <clipPath
       id="aq">
      <path
         id="path22"
         d="m659 500h53v18h-53z" />
    </clipPath>
    <clipPath
       id="ap">
      <path
         id="path25"
         d="m648 112h73v60h-73z" />
    </clipPath>
    <clipPath
       id="ao">
      <path
         id="path28"
         d="m826 1056h59v60h-59z" />
    </clipPath>
    <clipPath
       id="an">
      <path
         id="path31"
         d="m805 276h100v100h-100z" />
    </clipPath>
    <clipPath
       id="am">
      <path
         id="path34"
         d="m145 1063.8h74.152v45.21h-74.152z" />
    </clipPath>
    <clipPath
       id="al">
      <path
         id="path37"
         d="m151 667h57v57h-57z" />
    </clipPath>
    <clipPath
       id="ak">
      <path
         id="path40"
         d="m154 697h51v51h-51z" />
    </clipPath>
    <clipPath
       id="aj">
      <path
         id="path43"
         d="m500.04 864.45h36.012v67.52h-36.012z" />
    </clipPath>
    <clipPath
       id="ai">
      <path
         id="path46"
         d="m836 870.54h47v55.539h-47z" />
    </clipPath>
    <clipPath
       id="ah">
      <path
         id="path49"
         d="m318.03 702.35h62.848v37.991h-62.848z" />
    </clipPath>
    <clipPath
       id="ag">
      <path
         id="path52"
         d="m485.03 133.35h62.847v37.991h-62.847z" />
    </clipPath>
    <clipPath
       id="af">
      <path
         id="path55"
         d="m493.37 677.93h45.643v68.067h-45.643z" />
    </clipPath>
    <clipPath
       id="ae">
      <path
         id="path58"
         d="m144.34 1018.2h71.467v78h-71.467z" />
    </clipPath>
    <clipPath
       id="ad">
      <path
         id="path61"
         d="m293.21 1068.6 66.323-38.292 36.047 62.435-66.323 38.292z" />
    </clipPath>
    <clipPath
       id="ac">
      <path
         id="path64"
         d="m488.86 1054.5h10v10.706h-10z" />
    </clipPath>
    <clipPath
       id="ab">
      <path
         id="path67"
         d="m508 1066.8h10.001v10.705h-10.001z" />
    </clipPath>
    <clipPath
       id="aa">
      <path
         id="path70"
         d="m525 1045.8h10v10.706h-10z" />
    </clipPath>
    <clipPath
       id="z">
      <path
         id="path73"
         d="m836 1043.7h25.5v31.5h-25.5z" />
    </clipPath>
    <clipPath
       id="y">
      <path
         id="path76"
         d="m838 1062.2h24v24h-24z" />
    </clipPath>
    <clipPath
       id="x">
      <path
         id="path79"
         d="m134 489.24h7v6h-7z" />
    </clipPath>
    <clipPath
       id="w">
      <path
         id="path82"
         d="m216 489.24h7v6h-7z" />
    </clipPath>
    <clipPath
       id="v">
      <path
         id="path85"
         d="m838 477.24h22v22h-22z" />
    </clipPath>
    <clipPath
       id="u">
      <path
         id="path88"
         d="m704 1061.2h25v25h-25z" />
    </clipPath>
    <clipPath
       id="t">
      <path
         id="path91"
         d="m663.04 1078.6-1.808-3.514-21.07-47.453c13.336-18.439 48.336-26.938 73.836-3.439 0.842 0 6.476 6.246 6 7l-18.386 25.895c-0.483 0.765-1.453 0.946-2.177 0.431l-15.505-11.011c-0.359-0.255-0.847-0.153-1.07 0.238l-18.272 31.869c-0.218 0.384-0.502 0.578-0.782 0.578-0.282 0-0.561-0.197-0.766-0.594" />
    </clipPath>
    <clipPath
       id="s">
      <path
         id="path94"
         d="m127 820.24h100v100h-100z" />
    </clipPath>
    <clipPath
       id="r">
      <path
         id="path97"
         d="m809 680.24c0-22.092 17.908-40 40-40s40 17.908 40 40c0 22.091-17.908 40-40 40s-40-17.909-40-40" />
    </clipPath>
    <clipPath
       id="q">
      <path
         id="path100"
         d="m658 469.24h44v45h-44z" />
    </clipPath>
    <clipPath
       id="p">
      <path
         id="path103"
         d="m651 271.24h58v58h-58z" />
    </clipPath>
    <clipPath
       id="o">
      <path
         id="path106"
         d="m662 307.24h38v8h-38z" />
    </clipPath>
    <clipPath
       id="n">
      <path
         id="path109"
         d="m858.98 137.24c0.013-0.101 0.021-0.203 0.021-0.307v-6.693h15.75c1.237 0 2.25-1.013 2.25-2.25v-11.25l-27-4.5-27 4.5v-2.25l27-4.5 27 4.5v-27c0-1.237-1.013-2.25-2.25-2.25h-49.5c-1.237 0-2.25 1.013-2.25 2.25v-4.25h54v54zm-35.979 0v-9.25c0 1.237 1.013 2.25 2.25 2.25h15.75v6.693c0 0.104 7e-3 0.207 0.02 0.307zm22.5-7h9v4.5h-9zm1.125-9c-0.62 0-1.125-0.506-1.125-1.125v-2.25c0-0.619 0.505-1.125 1.125-1.125h6.75c0.619 0 1.125 0.506 1.125 1.125v2.25c0 0.619-0.506 1.125-1.125 1.125z" />
    </clipPath>
    <clipPath
       id="m">
      <path
         id="path112"
         d="m531.27 136.24c6.325-2.29 10.727-8.277 10.727-15.484 0-11.316-10.2-20.563-25.65-34.575l-4.35-3.941-4.35 3.941c-15.45 14.012-25.65 23.259-25.65 34.575v-39.516h60v55zm-26.983 0c2.995-1.052 5.686-2.883 7.71-5.25 2.024 2.367 4.715 4.198 7.71 5.25zm-22.29 0v-15.484c0 7.207 4.402 13.194 10.727 15.484z" />
    </clipPath>
    <clipPath
       id="l">
      <path
         id="path115"
         d="m648 79.241h64v64h-64z" />
    </clipPath>
    <clipPath
       id="k">
      <path
         id="path118"
         d="m500 691.74c0-3.037 2.463-5.5 5.5-5.5s5.5 2.463 5.5 5.5-2.463 5.5-5.5 5.5-5.5-2.463-5.5-5.5" />
    </clipPath>
    <clipPath
       id="j">
      <path
         id="path121"
         d="m500 669.74c0-3.037 2.463-5.5 5.5-5.5s5.5 2.463 5.5 5.5c0 3.038-2.463 5.5-5.5 5.5s-5.5-2.462-5.5-5.5" />
    </clipPath>
    <clipPath
       id="i">
      <path
         id="path124"
         d="m494 680.74c0-3.037 2.462-5.5 5.5-5.5s5.5 2.463 5.5 5.5c0 3.038-2.462 5.5-5.5 5.5s-5.5-2.462-5.5-5.5" />
    </clipPath>
    <clipPath
       id="h">
      <path
         id="path127"
         d="m513 691.74c0-3.037 2.463-5.5 5.5-5.5s5.5 2.463 5.5 5.5-2.463 5.5-5.5 5.5-5.5-2.463-5.5-5.5" />
    </clipPath>
    <clipPath
       id="g-3">
      <path
         id="path130"
         d="m513 669.74c0-3.037 2.463-5.5 5.5-5.5s5.5 2.463 5.5 5.5c0 3.038-2.463 5.5-5.5 5.5s-5.5-2.462-5.5-5.5" />
    </clipPath>
    <clipPath
       id="f-0">
      <path
         id="path133"
         d="m507 680.74c0-3.037 2.463-5.5 5.5-5.5s5.5 2.463 5.5 5.5c0 3.038-2.463 5.5-5.5 5.5s-5.5-2.462-5.5-5.5" />
    </clipPath>
    <clipPath
       id="e-7">
      <path
         id="path136"
         d="m520 680.74c0-3.037 2.463-5.5 5.5-5.5s5.5 2.463 5.5 5.5c0 3.038-2.463 5.5-5.5 5.5s-5.5-2.462-5.5-5.5" />
    </clipPath>
    <clipPath
       id="d-8">
      <path
         id="path139"
         d="m321 322.24c-4.97 0-9-4.029-9-9 0-4.97 4.03-9 9-9h45c4.971 0 9 4.03 9 9 0 4.971-4.029 9-9 9z" />
    </clipPath>
    <clipPath
       id="c">
      <path
         id="path142"
         d="m322 297.24c-4.971 0-9-4.029-9-9 0-4.97 4.029-9 9-9h45c4.971 0 9 4.03 9 9 0 4.971-4.029 9-9 9z" />
    </clipPath>
    <clipPath
       id="b-6">
      <path
         id="path145"
         d="m155 83.24h44v53h-44z" />
    </clipPath>
    <filter
       color-interpolation-filters="sRGB"
       height="1.048"
       width="1.048"
       y="-.024"
       x="-.024"
       id="filter2761">
      <feGaussianBlur
         id="feGaussianBlur148"
         stdDeviation="0.14552168" />
    </filter>
    <linearGradient
       gradientUnits="userSpaceOnUse"
       gradientTransform="matrix(3.7796,0,0,3.7796,17.699027,-31.479792)"
       y2="1.1269"
       y1="15.576"
       x2="15.673"
       x1="1.3315"
       id="linearGradient1024">
      <stop
         id="stop151"
         offset="0"
         stop-color="#a53cff" />
      <stop
         id="stop153"
         offset="1"
         stop-color="#b496ff" />
    </linearGradient>
    <filter
       color-interpolation-filters="sRGB"
       height="1.048"
       width="1.048"
       y="-.024"
       x="-.024"
       id="filter2761-36">
      <feGaussianBlur
         id="feGaussianBlur2"
         stdDeviation="0.14552168" />
    </filter>
    <linearGradient
       gradientTransform="translate(23.382179)"
       gradientUnits="userSpaceOnUse"
       y2="2.8905"
       y1="12.38"
       x2="13.849"
       x1="4.4771"
       id="linearGradient1024-7">
      <stop
         id="stop5"
         offset="0"
         stop-color="#9150dc" />
      <stop
         id="stop7"
         offset="1"
         stop-color="#b496ff" />
    </linearGradient>
    <linearGradient
       gradientUnits="userSpaceOnUse"
       gradientTransform="matrix(0.26458,0,0,0.26458,27.829,18.943)"
       y2="14"
       y1="50"
       x2="45.094"
       x1="45.094"
       id="b">
      <stop
         id="stop10"
         offset="0" />
      <stop
         id="stop12"
         offset="1"
         stop-opacity="0" />
    </linearGradient>
    <filter
       color-interpolation-filters="sRGB"
       height="1.188"
       width="1.1518"
       y="-.094012"
       x="-.075915"
       id="filter949">
      <feGaussianBlur
         id="feGaussianBlur15"
         stdDeviation="0.49298235" />
    </filter>
    <filter
       color-interpolation-filters="sRGB"
       height="1.048"
       width="1.048"
       y="-.024"
       x="-.024"
       id="filter2761-3">
      <feGaussianBlur
         id="feGaussianBlur4"
         stdDeviation="0.14552168" />
    </filter>
    <linearGradient
       gradientUnits="userSpaceOnUse"
       gradientTransform="matrix(3.7796,0,0,3.7796,93.808377,0.53085)"
       y2="1.1269"
       y1="15.576"
       x2="15.673"
       x1="1.3315"
       id="linearGradient1024-6">
      <stop
         id="stop7-7"
         offset="0"
         stop-color="#a53cff" />
      <stop
         id="stop9"
         offset="1"
         stop-color="#b496ff" />
    </linearGradient>
    <linearGradient
       gradientUnits="userSpaceOnUse"
       gradientTransform="matrix(1.2346,0,0,1.2346,2.3832028,3.6047)"
       y2="4"
       y1="44"
       x2="0"
       id="linearGradient890">
      <stop
         id="stop4"
         offset="0"
         stop-color="#FFB900" />
      <stop
         id="stop6"
         offset="1"
         stop-color="#ff0" />
    </linearGradient>
    <filter
       color-interpolation-filters="sRGB"
       height="1.048"
       width="1.048"
       y="-.024"
       x="-.024"
       id="filter2761-67">
      <feGaussianBlur
         id="feGaussianBlur9"
         stdDeviation="0.14552168" />
    </filter>
    <linearGradient
       gradientUnits="userSpaceOnUse"
       gradientTransform="matrix(3.7796,0,0,3.7796,66.443573,0.53068)"
       y2="1.1082"
       y1="15.601"
       x2="15.644"
       x1="1.4377"
       id="linearGradient4673">
      <stop
         id="stop12-5"
         offset="0"
         stop-color="#dc2828" />
      <stop
         id="stop14"
         offset="1"
         stop-color="#fa4141" />
    </linearGradient>
    <linearGradient
       gradientUnits="userSpaceOnUse"
       y2="9.67"
       y1="54.592"
       x2="34.134"
       x1="34.134"
       id="linearGradient915">
      <stop
         id="stop17"
         offset="0"
         stop-color="#ffb900" />
      <stop
         id="stop19"
         offset="1"
         stop-color="#ff0" />
    </linearGradient>
    <filter
       inkscape:collect="always"
       style="color-interpolation-filters:sRGB"
       id="filter1057"
       x="-0.027000001"
       width="1.054"
       y="-0.027000001"
       height="1.054">
      <feGaussianBlur
         inkscape:collect="always"
         stdDeviation="0.61875"
         id="feGaussianBlur1059" />
    </filter>
    <linearGradient
       inkscape:collect="always"
       xlink:href="#linearGradient1051"
       id="linearGradient1053"
       x1="-127"
       y1="60"
       x2="-72"
       y2="5"
       gradientUnits="userSpaceOnUse"
       gradientTransform="translate(131.5,-0.50999758)" />
    <linearGradient
       inkscape:collect="always"
       id="linearGradient1051">
      <stop
         style="stop-color:#a53cff;stop-opacity:1"
         offset="0"
         id="stop1047" />
      <stop
         style="stop-color:#b496ff;stop-opacity:1"
         offset="1"
         id="stop1049" />
    </linearGradient>
    <linearGradient
       id="linearGradient890-3"
       x2="0"
       y1="44"
       y2="4"
       gradientTransform="matrix(1.2346,0,0,1.2346,3.1419,3.6047)"
       gradientUnits="userSpaceOnUse">
      <stop
         stop-color="#FFB900"
         offset="0"
         id="stop861" />
      <stop
         stop-color="#ff0"
         offset="1"
         id="stop863" />
    </linearGradient>
    <filter
       id="filter2761-6"
       x="-.024"
       y="-.024"
       width="1.048"
       height="1.048"
       color-interpolation-filters="sRGB">
      <feGaussianBlur
         stdDeviation="0.14552168"
         id="feGaussianBlur866" />
    </filter>
  </defs>
  <mask
     id="mask161">
    <g
       id="g">
      <path
         id="path158"
         fill="#fff"
         d="m969.75 392.05c-1.1-4.35-2.35-9-3.65-13.6-1-3.4-2-6.85-3.15-10.5-1.6-5.15-3.4-10.5-5.3-15.85-6.45-18.25-14.15-36.05-23.15-53.65-3.8-7.4-7.95-14.95-12.3-22.4-20.3-34.5-45.8-67.2-76.35-97.75-72.6-72.6-157.15-116.65-253.65-132.05-16.25-2.6-32.8-4.4-50.05-5.35-9.7-0.55-19.85-0.85-30.1-0.85-9.35 0-18.6 0.25-27.9 0.75-118.35 6.1-220.3 51.95-305.85 137.5q-138.25 138.25-138.25 333.75c0 130.35 46.1 241.65 138.25 333.8 56.7 56.65 120.55 95.9 191.1 117.55 36.75 11.25 74.8 17.85 114.75 19.95h0.4c8.5 0.45 16.6 0.7 24.5 0.7h3c10.3 0 20.5-0.3 30.1-0.8 2.5-0.15 4.75-0.3 6.95-0.45 20.2-1.45 39.9-4.05 58.7-7.7 7.95-1.55 15.8-3.3 23.4-5.15 80.8-20.3 152.15-61.6 214.65-124.1 48.6-48.6 84.4-102.5 107.35-161.8 18.45-47.65 28.65-98.8 30.55-153.5 0.2-6.05 0.3-12.25 0.3-18.5v-3c-0.2-40.65-4.95-79.5-14.3-117z" />
    </g>
  </mask>
  <rect
     ry="15"
     y="4.4999995"
     x="4.4999995"
     height="55"
     width="55"
     id="rect1055"
     style="opacity:0.3;fill:#141414;fill-opacity:1;stroke-width:2.74436;stroke-linecap:round;filter:url(#filter1057)" />
  <rect
     style="fill:url(#linearGradient1053);fill-opacity:1;stroke-width:2.74436;stroke-linecap:round"
     id="rect1045"
     width="54.999996"
     height="54.999996"
     x="4.5000019"
     y="4.5000019"
     ry="14.999999" />
  <g
     id="g175"
     stroke-width=".26458"
     fill="#5e4aa6"
     transform="matrix(3.7796 0 0 3.7796 -.10281 .024568)">
    <circle
       id="circle167"
       r="0"
       cy="-328.38"
       cx="-330.35" />
    <circle
       id="circle169"
       r="0"
       cy="-326.25"
       cx="-312.11" />
    <circle
       id="circle171"
       r="0"
       cy="-333.07"
       cx="-306.02" />
    <circle
       id="circle173"
       r="0"
       cy="-326.01"
       cx="-308.84" />
  </g>
  <g
     id="g197"
     stroke-width=".26458"
     fill="#5e4aa6"
     transform="matrix(3.7796 0 0 3.7796 100.41 28.805)">
    <circle
       id="circle177"
       r="0"
       cy="-328.38"
       cx="-330.35" />
    <circle
       id="circle179"
       r="0"
       cy="-337.27"
       cx="-299.17" />
    <circle
       id="circle181"
       r="0"
       cy="-339.42"
       cx="-299.81" />
    <circle
       id="circle183"
       r="0"
       cy="-338.13"
       cx="-302.25" />
    <circle
       id="circle185"
       r="0"
       cy="-335.91"
       cx="-301.89" />
    <circle
       id="circle187"
       r="0"
       cy="-351.05"
       cx="-304.76" />
    <circle
       id="circle189"
       r="0"
       cy="-349.54"
       cx="-304.83" />
    <circle
       id="circle191"
       r="0"
       cy="-336.91"
       cx="-359.94" />
    <circle
       id="circle193"
       r="0"
       cy="-349.7"
       cx="-278.47" />
    <circle
       id="circle195"
       fill-rule="evenodd"
       r="0"
       cy="-14.878"
       cx="12.449" />
  </g>
  <g
     id="g205"
     transform="matrix(1.3334 0 0 -1.3334 873.35 874.03)">
    <g
       id="g203"
       clip-path="url(#aw)">
      <g
         id="g201"
         transform="translate(448,326)">
        <path
           id="path199"
           fill-rule="evenodd"
           fill="#fff"
           d="m0 0c3.866 0 7 3.134 7 7s-3.134 7-7 7-7-3.134-7-7 3.134-7 7-7" />
      </g>
    </g>
  </g>
  <g
     id="g213"
     transform="matrix(1.3334 0 0 -1.3334 873.35 874.03)">
    <g
       id="g211"
       clip-path="url(#av)">
      <g
         id="g209"
         transform="translate(474,326)">
        <path
           id="path207"
           fill-rule="evenodd"
           fill="#fff"
           d="m0 0c3.866 0 7 3.134 7 7s-3.134 7-7 7-7-3.134-7-7 3.134-7 7-7" />
      </g>
    </g>
  </g>
  <g
     id="g221"
     transform="matrix(1.3334 0 0 -1.3334 873.35 874.03)">
    <g
       id="g219"
       clip-path="url(#au)">
      <g
         id="g217"
         transform="translate(497,326)">
        <path
           id="path215"
           fill-rule="evenodd"
           fill="#fff"
           d="m0 0c3.866 0 7 3.134 7 7s-3.134 7-7 7-7-3.134-7-7 3.134-7 7-7" />
      </g>
    </g>
  </g>
  <g
     id="g227"
     transform="matrix(1.3334 0 0 -1.3334 873.35 874.03)">
    <g
       id="g225"
       clip-path="url(#at)">
      <path
         id="path223"
         fill-rule="evenodd"
         fill="#fff"
         d="m593 1073h36v-18h-36zm18-11c6.075 0 11 0.895 11 2s-4.925 2-11 2-11-0.895-11-2 4.925-2 11-2" />
    </g>
  </g>
  <g
     id="g235"
     transform="matrix(1.3334 0 0 -1.3334 873.35 874.03)">
    <g
       id="g233"
       clip-path="url(#as)">
      <g
         id="g231"
         transform="translate(583.42,1063)">
        <path
           id="path229"
           fill="#fff"
           d="m0 0s21.582 23.182 21.582 35.147c0 12.048-9.684 21.853-21.582 21.853-11.816 0-21.418-9.805-21.418-21.853 0-8.06 9.766-21.188 16.002-28.832zm0 42.542c3.938 0 7.14-3.323 7.14-7.395 0-3.822-3.202-7.146-7.14-7.146-3.856 0-7.222 3.324-7.222 7.146 0 4.072 3.366 7.395 7.222 7.395" />
      </g>
    </g>
  </g>
  <g
     id="g243"
     transform="matrix(1.3334 0 0 -1.3334 873.35 874.03)">
    <g
       id="g241"
       clip-path="url(#ar)">
      <g
         id="g239"
         transform="translate(562,535)">
        <path
           id="path237"
           fill-rule="evenodd"
           fill="#fff"
           d="m0 0h35c2.762 0 5-2.238 5-5s-2.238-5-5-5h-35c-2.762 0-5 2.238-5 5s2.238 5 5 5" />
      </g>
    </g>
  </g>
  <g
     id="g251"
     transform="matrix(1.3334 0 0 -1.3334 873.35 874.03)">
    <g
       id="g249"
       clip-path="url(#aq)">
      <g
         id="g247"
         transform="translate(562,518)">
        <path
           id="path245"
           fill-rule="evenodd"
           fill="#fff"
           d="m0 0h35c2.762 0 5-2.238 5-5s-2.238-5-5-5h-35c-2.762 0-5 2.238-5 5s2.238 5 5 5" />
      </g>
    </g>
  </g>
  <g
     id="g259"
     transform="matrix(1.3334 0 0 -1.3334 873.35 874.03)">
    <g
       id="g257"
       clip-path="url(#ap)">
      <g
         id="g255"
         transform="translate(536.43,133.83)">
        <path
           id="path253"
           fill="#fff"
           d="m0 0c-10.01-12.916-22.288-9.047-24.23-8.072-4.847 1.293-6.464 10.015-0.326 12.918 10.018 3.226 19.06-0.325 25.524-3.553-0.644-0.967-0.968-1.293-0.968-1.293m10.667 3.553c4.521 8.072 6.139 15.826 6.139 15.826h-15.189v5.812h17.767v2.26h-17.767v8.723h-8.074v-8.723h-16.156v-2.584h16.156v-5.812h-13.57v-2.585h27.783c0-0.325 0-0.325-0.324-0.968 0-2.909-1.936-6.779-3.554-10.014-20.677 8.079-26.491 3.235-28.108 2.584-13.564-9.689-0.968-21.963 1.293-21.638 14.538-3.227 23.905 2.91 30.369 10.657 0.324-0.325 0.967-0.325 1.292-0.325 4.528-2.578 25.848-12.592 25.848-12.592v12.274c-3.878 0.325-15.506 4.195-23.905 7.105" />
      </g>
    </g>
  </g>
  <g
     id="g267"
     transform="matrix(1.3334 0 0 -1.3334 873.35 874.03)">
    <g
       id="g265"
       clip-path="url(#ao)">
      <g
         id="g263"
         transform="translate(720.03,1091.5)">
        <path
           id="path261"
           fill="#fff"
           d="m0 0c-0.149 0.354-0.224 0.837-0.224 1.451 0 0.372 0.103 0.828 0.306 1.368 0.205 0.539 0.428 0.958 0.671 1.256-0.019 0.409 0.051 0.902 0.209 1.478 0.159 0.576 0.368 0.976 0.629 1.2 0 2.586 0.86 5.269 2.581 8.05 1.722 2.782 3.744 4.73 6.07 5.846 2.585 1.228 5.6 1.842 9.041 1.842 2.475 0 4.949-0.511 7.423-1.534 0.912-0.391 1.749-0.837 2.512-1.34 0.762-0.502 1.423-1.022 1.981-1.562 0.559-0.54 1.07-1.172 1.534-1.897 0.465-0.725 0.856-1.413 1.172-2.064 0.318-0.651 0.619-1.437 0.908-2.358 0.287-0.921 0.524-1.753 0.71-2.497s0.391-1.655 0.614-2.734l0.028-0.14c1.023-1.543 1.535-2.939 1.535-4.186 0-0.26-0.084-0.632-0.252-1.115-0.168-0.484-0.252-0.837-0.252-1.061 0-0.019 0.015-0.052 0.043-0.099s0.061-0.093 0.098-0.139c0.038-0.046 0.057-0.077 0.057-0.098 1.432-2.121 2.553-4.116 3.363-5.985 0.809-1.869 1.214-3.808 1.214-5.817 0-0.8-0.182-1.73-0.544-2.791-0.363-1.06-0.879-1.59-1.549-1.59-0.167 0-0.349 0.069-0.544 0.209-0.194 0.14-0.371 0.303-0.529 0.489-0.159 0.186-0.335 0.428-0.53 0.725s-0.344 0.543-0.447 0.739-0.228 0.438-0.377 0.725c-0.147 0.288-0.231 0.451-0.251 0.489-0.019 0.019-0.047 0.028-0.085 0.028l-0.138-0.111c-1.099-2.864-2.327-4.938-3.684-6.222 0.372-0.372 0.944-0.73 1.716-1.075s1.414-0.73 1.925-1.158c0.511-0.426 0.841-1.031 0.991-1.814-0.037-0.074-0.074-0.223-0.112-0.447-0.036-0.224-0.101-0.391-0.195-0.501-1.19-1.804-4-2.706-8.427-2.706-0.986 0-2.013 0.084-3.084 0.251-1.069 0.168-1.981 0.354-2.734 0.558s-1.726 0.483-2.916 0.837c-0.279 0.093-0.493 0.158-0.643 0.196-0.259 0.075-0.687 0.115-1.282 0.125-0.595 9e-3 -0.967 0.023-1.116 0.042-0.763-0.838-1.949-1.442-3.559-1.814-1.609-0.372-3.176-0.558-4.702-0.558-0.65 0-1.293 0.014-1.925 0.042s-1.498 0.113-2.595 0.252c-1.098 0.139-2.038 0.33-2.82 0.572-0.781 0.241-1.473 0.613-2.078 1.115-0.604 0.502-0.906 1.098-0.906 1.786 0 0.744 0.093 1.298 0.279 1.661 0.187 0.364 0.569 0.815 1.144 1.353 0.205 0.038 0.581 0.159 1.131 0.363 0.549 0.204 1.009 0.316 1.381 0.334 0.074 0 0.204 0.019 0.39 0.057 0.038 0.037 0.057 0.074 0.057 0.111l-0.057 0.084c-0.892 0.204-1.897 1.185-3.014 2.944-1.117 1.758-1.796 3.214-2.038 4.367l-0.139 0.084c-0.074 0-0.186-0.185-0.334-0.557-0.335-0.763-0.842-1.455-1.521-2.079-0.679-0.622-1.4-0.971-2.163-1.046h-0.028c-0.073 0-0.129 0.041-0.167 0.125-0.037 0.083-0.084 0.134-0.139 0.153-0.428 1.004-0.642 1.934-0.642 2.79 0 5.116 2.343 9.45 7.032 13.002z" />
      </g>
    </g>
  </g>
  <g
     id="g275"
     transform="matrix(1.3334 0 0 -1.3334 873.35 874.03)">
    <g
       id="g273"
       clip-path="url(#an)">
      <g
         id="g271"
         transform="translate(655,300)">
        <path
           id="path269"
           stroke-width="8"
           stroke-miterlimit="10"
           stroke="#fff"
           fill="none"
           d="m0 0c16.568 0 30 13.432 30 30s-13.432 30-30 30-30-13.432-30-30 13.432-30 30-30z" />
      </g>
    </g>
  </g>
  <g
     id="g283"
     transform="matrix(1.3334 0 0 -1.3334 873.35 874.03)">
    <g
       id="g281"
       clip-path="url(#am)">
      <g
         id="g279"
         transform="translate(66.849,1083.1)">
        <path
           id="path277"
           fill="#fff"
           d="m0 0c0 5.302-3.661 9.749-8.591 10.948-0.209 8.314-7.006 14.991-15.366 14.991-4.897 0-9.254-2.293-12.07-5.861-1.579 2.041-4.05 3.358-6.828 3.358-4.769 0-8.633-3.868-8.633-8.639 0-0.416 0.031-0.825 0.089-1.224-0.726 0.13-1.47 0.203-2.232 0.203-6.913 0-12.515-5.607-12.515-12.524 0-6.916 5.602-12.523 12.515-12.523h42.394c6.21 0.013 11.241 5.053 11.241 11.269z" />
      </g>
    </g>
  </g>
  <g
     id="g291"
     transform="matrix(1.3334 0 0 -1.3334 873.35 874.03)">
    <g
       id="g289"
       clip-path="url(#al)">
      <g
         id="g287"
         transform="translate(65.5,681)">
        <path
           id="path285"
           stroke-width="4"
           stroke-miterlimit="10"
           stroke="#fff"
           fill="none"
           d="m0 0c9.113 0 16.5 7.387 16.5 16.5s-7.387 16.5-16.5 16.5-16.5-7.387-16.5-16.5 7.387-16.5 16.5-16.5z" />
      </g>
    </g>
  </g>
  <g
     id="g299"
     transform="matrix(1.3334 0 0 -1.3334 873.35 874.03)">
    <g
       id="g297"
       clip-path="url(#ak)">
      <g
         id="g295"
         transform="translate(77.5,711)">
        <path
           id="path293"
           stroke-width="4"
           stroke-miterlimit="10"
           stroke="#fff"
           fill="none"
           d="m0 0c7.456 0 13.5 6.044 13.5 13.5s-6.044 13.5-13.5 13.5-13.5-6.044-13.5-13.5 6.044-13.5 13.5-13.5z" />
      </g>
    </g>
  </g>
  <g
     id="g307"
     transform="matrix(1.3334 0 0 -1.3334 873.35 874.03)">
    <g
       id="g305"
       clip-path="url(#aj)">
      <g
         id="g303"
         transform="translate(455.91,931.53)">
        <path
           id="path301"
           fill="#fff"
           d="m0 0c-0.742-1.039-4.75-2.821-8.165-3.563-4.305-0.891-6.531-1.633-8.758-2.82-2.969-1.782-4.601-4.009-4.305-6.087 0.149-0.445 3.711-5.64 7.868-11.578 4.304-5.938 7.868-10.985 8.016-11.134 0.149-0.297-0.445-0.297-2.524-0.148-6.531 0.445-12.469-2.969-15.142-8.314-0.742-1.632-0.89-2.523-0.89-4.453 0-4.453 2.376-8.016 6.829-10.094 1.781-0.742 2.375-0.891 6.086-0.891 4.007 0 4.156 0 6.829 1.336 7.125 3.414 10.093 10.095 7.125 16.181-0.594 1.336-4.305 7.719-8.313 14.251l-7.274 12.024h1.187c4.75 0.297 8.017 1.781 10.244 4.305 1.929 2.227 2.523 4.453 2.374 8.016-0.148 3.266-0.445 4.008-1.187 2.969" />
      </g>
    </g>
  </g>
  <g
     id="g315"
     transform="matrix(1.3334 0 0 -1.3334 873.35 874.03)">
    <g
       id="g313"
       clip-path="url(#ai)">
      <g
         id="g311"
         transform="translate(784,902.31)">
        <path
           id="path309"
           fill="#fff"
           d="m0 0c0-1.565-0.904-2.931-2.251-3.674l-27.781-18.472c-0.012-8e-3 -0.026-0.014-0.037-0.02l-0.017-0.011c-0.684-0.376-1.48-0.592-2.331-0.592-2.53 0-4.583 1.913-4.583 4.269v37c0 2.356 2.053 4.27 4.583 4.27 0.851 0 1.647-0.217 2.331-0.596l0.017-8e-3c0.011-9e-3 0.022-0.014 0.037-0.02l27.781-18.471c1.347-0.743 2.251-2.11 2.251-3.675" />
      </g>
    </g>
  </g>
  <g
     id="g323"
     transform="matrix(1.3334 0 0 -1.3334 873.35 874.03)">
    <g
       id="g321"
       clip-path="url(#ah)">
      <g
         id="g319"
         transform="translate(223.75,708.35)">
        <path
           id="path317"
           fill-rule="evenodd"
           fill="#fff"
           d="m0 0c-15.123 0-27.418 12.329-27.418 27.486 0 1.382 1.111 2.505 2.487 2.505 1.379 0 2.499-1.123 2.499-2.505 0-12.4 10.06-22.487 22.432-22.487 12.375 0 22.443 10.087 22.443 22.487 0 1.382 1.112 2.505 2.488 2.505 1.378 0 2.499-1.123 2.499-2.505 0-15.157-12.304-27.486-27.43-27.486" />
      </g>
    </g>
  </g>
  <g
     id="g331"
     transform="matrix(1.3334 0 0 -1.3334 873.35 874.03)">
    <g
       id="g329"
       clip-path="url(#ag)">
      <g
         id="g327"
         transform="translate(390.75,139.35)">
        <path
           id="path325"
           fill-rule="evenodd"
           fill="#fff"
           d="m0 0c-15.123 0-27.418 12.329-27.418 27.485 0 1.383 1.111 2.506 2.487 2.506 1.379 0 2.499-1.123 2.499-2.506 0-12.398 10.06-22.486 22.432-22.486 12.375 0 22.443 10.088 22.443 22.486 0 1.383 1.112 2.506 2.488 2.506 1.378 0 2.499-1.123 2.499-2.506 0-15.156-12.304-27.485-27.43-27.485" />
      </g>
    </g>
  </g>
  <g
     id="g339"
     transform="matrix(1.3334 0 0 -1.3334 873.35 874.03)">
    <g
       id="g337"
       clip-path="url(#af)">
      <g
         id="g335"
         transform="translate(423.93,686.39)">
        <path
           id="path333"
           fill="#fff"
           d="m0 0c0.245-0.286 0.605-0.456 0.986-0.456 0.382 0 0.743 0.17 0.988 0.456l17.516 20.497c0.333 0.388 0.408 0.933 0.191 1.388-0.211 0.463-0.674 0.756-1.184 0.756h-9.93c-2.118 4.172-3.109 8.382-2.973 12.63 0.135 4.248 1.954 12.361 5.455 24.34-10.956-6.59-17.656-18.44-17.656-31.225v-5.745h-9.93c-0.51 0-0.966-0.293-1.184-0.756-0.211-0.462-0.135-1 0.191-1.388z" />
      </g>
    </g>
  </g>
  <g
     id="g347"
     transform="matrix(1.3334 0 0 -1.3334 740.42 1029.8)">
    <g
       id="g345"
       clip-path="url(#ae)">
      <g
         id="g343"
         transform="translate(9.1685,1040.9)">
        <path
           id="path341"
           fill-rule="evenodd"
           fill="#fff"
           d="m0 0 25.314 21.067-26.077 18.651c5.846 7.671 15.079 12.622 25.468 12.622 17.673 0 32-14.327 32-32s-14.327-32-32-32c-9.948 0-18.836 4.539-24.705 11.66m27.349 31.812c2.835 0 5.132 2.297 5.132 5.132 0 2.834-2.297 5.132-5.132 5.132-2.834 0-5.132-2.298-5.132-5.132 0-2.835 2.298-5.132 5.132-5.132" />
      </g>
    </g>
  </g>
  <g
     id="g355"
     transform="matrix(1.3334 0 0 -1.3334 740.42 1029.8)">
    <g
       id="g353"
       clip-path="url(#ad)">
      <g
         id="g351"
         transform="translate(194.25,1130.3)">
        <path
           id="path349"
           fill-rule="evenodd"
           fill="#fff"
           d="m0 0c20.173-11.579 43.841 2 51.309 14.862 7.467 12.861 5.032 31.138-10.468 37.638s-45.487 6.611-54.5-9-6.515-31.922 13.659-43.5" />
      </g>
    </g>
  </g>
  <g
     id="g363"
     transform="matrix(1.3334 0 0 -1.3334 740.42 1029.8)">
    <g
       id="g361"
       clip-path="url(#ac)">
      <g
         id="g359"
         transform="translate(473.86,1057.5)">
        <path
           id="path357"
           fill-rule="evenodd"
           fill="#fff"
           d="m0 0c1.657 0 3 1.501 3 3.353s-1.343 3.353-3 3.353c-1.656 0-3-1.501-3-3.353s1.344-3.353 3-3.353" />
      </g>
    </g>
  </g>
  <g
     id="g371"
     transform="matrix(1.3334 0 0 -1.3334 740.42 1029.8)">
    <g
       id="g369"
       clip-path="url(#ab)">
      <g
         id="g367"
         transform="translate(493,1069.8)">
        <path
           id="path365"
           fill-rule="evenodd"
           fill="#fff"
           d="m0 0c1.657 0 3 1.501 3 3.353s-1.343 3.353-3 3.353-3-1.501-3-3.353 1.343-3.353 3-3.353" />
      </g>
    </g>
  </g>
  <g
     id="g379"
     transform="matrix(1.3334 0 0 -1.3334 740.42 1029.8)">
    <g
       id="g377"
       clip-path="url(#aa)">
      <g
         id="g375"
         transform="translate(510,1048.8)">
        <path
           id="path373"
           fill-rule="evenodd"
           fill="#fff"
           d="m0 0c1.657 0 3 1.501 3 3.353s-1.343 3.353-3 3.353-3-1.501-3-3.353 1.343-3.353 3-3.353" />
      </g>
    </g>
  </g>
  <g
     id="g387"
     transform="matrix(1.3334 0 0 -1.3334 740.42 1029.8)">
    <g
       id="g385"
       clip-path="url(#z)">
      <g
         id="g383"
         transform="translate(806.5,1072.2)">
        <path
           id="path381"
           stroke-miterlimit="10"
           stroke-linecap="round"
           stroke="#fff"
           fill="none"
           d="m0 0c-3.667-14-9.5-21.833-17.5-23.5" />
      </g>
    </g>
  </g>
  <g
     id="g395"
     transform="matrix(1.3334 0 0 -1.3334 740.42 1029.8)">
    <g
       id="g393"
       clip-path="url(#y)">
      <g
         id="g391"
         transform="translate(802,1066.2)">
        <path
           id="path389"
           fill-rule="evenodd"
           fill="#fff"
           d="m0 0c-4.971 0-9 4.029-9 9s4.029 9 9 9 9-4.029 9-9-4.029-9-9-9m0 6c1.657 0 3 1.343 3 3s-1.343 3-3 3-3-1.343-3-3 1.343-3 3-3" />
      </g>
    </g>
  </g>
  <g
     id="g403"
     transform="matrix(1.3334 0 0 -1.3334 740.42 1029.8)">
    <g
       id="g401"
       clip-path="url(#x)">
      <g
         id="g399"
         transform="translate(122,495.24)">
        <path
           id="path397"
           fill-rule="evenodd"
           fill="#fff"
           d="m0 0h3c0.553 0 1-0.447 1-1v-2c0-0.553-0.447-1-1-1h-3c-0.553 0-1 0.447-1 1v2c0 0.553 0.447 1 1 1" />
      </g>
    </g>
  </g>
  <g
     id="g411"
     transform="matrix(1.3334 0 0 -1.3334 740.42 1029.8)">
    <g
       id="g409"
       clip-path="url(#w)">
      <g
         id="g407"
         transform="translate(204,495.24)">
        <path
           id="path405"
           fill-rule="evenodd"
           fill="#fff"
           d="m0 0h3c0.553 0 1-0.447 1-1v-2c0-0.553-0.447-1-1-1h-3c-0.553 0-1 0.447-1 1v2c0 0.553 0.447 1 1 1" />
      </g>
    </g>
  </g>
  <g
     id="g419"
     transform="matrix(1.3334 0 0 -1.3334 740.42 1029.8)">
    <g
       id="g417"
       clip-path="url(#v)">
      <g
         id="g415"
         transform="translate(805,482.24)">
        <path
           id="path413"
           fill-rule="evenodd"
           fill="#fff"
           d="m0 0c4.418 0 8 3.582 8 8s-3.582 8-8 8-8-3.582-8-8 3.582-8 8-8" />
      </g>
    </g>
  </g>
  <g
     id="g427"
     transform="matrix(1.3334 0 0 -1.3334 740.42 1029.8)">
    <g
       id="g425"
       clip-path="url(#u)">
      <g
         id="g423"
         transform="translate(658,1075.7)">
        <path
           id="path421"
           fill="#fff"
           d="m0 0c0-4.694 3.806-8.5 8.5-8.5s8.5 3.806 8.5 8.5-3.806 8.5-8.5 8.5-8.5-3.806-8.5-8.5" />
      </g>
    </g>
  </g>
  <g
     id="g433"
     transform="matrix(1.3334 0 0 -1.3334 740.42 1029.8)">
    <g
       id="g431"
       clip-path="url(#t)">
      <path
         id="path429"
         fill-rule="evenodd"
         fill="#fff"
         d="m465.44 1082.2h85.864v-75.319h-85.864zm64.45-25.106c-0.483 0.765-1.453 0.947-2.178 0.431l-15.504-11.01c-0.359-0.255-0.847-0.153-1.071 0.238l-18.271 31.869c-0.438 0.771-1.139 0.776-1.549-0.016l-1.807-3.514-21.07-47.452c13.336-18.44 48.336-26.94 73.836-3.44 0.841 0 6.477 6.246 6 7z" />
    </g>
  </g>
  <g
     id="g441"
     transform="matrix(1.3334 0 0 -1.3334 740.42 1029.8)">
    <g
       id="g439"
       clip-path="url(#s)">
      <g
         id="g437"
         transform="translate(-23,837.24)">
        <path
           id="path435"
           stroke-width="8"
           stroke-miterlimit="10"
           stroke="#fff"
           fill="none"
           d="m0 0c18.778 0 34 15.222 34 34s-15.222 34-34 34-34-15.222-34-34 15.222-34 34-34z" />
      </g>
    </g>
  </g>
  <g
     id="g447"
     transform="matrix(1.3334 0 0 -1.3334 740.42 1029.8)">
    <g
       id="g445"
       clip-path="url(#r)">
      <path
         id="path443"
         fill-rule="evenodd"
         fill="#fff"
         d="m644 721.24h82v-82h-82zm41-81c22.092 0 40 17.908 40 40s-17.908 40-40 40-40-17.908-40-40 17.908-40 40-40" />
    </g>
  </g>
  <g
     id="g455"
     transform="matrix(1.3334 0 0 -1.3334 740.42 1029.8)">
    <g
       id="g453"
       clip-path="url(#q)">
      <g
         id="g451"
         transform="translate(613.88,476.03)">
        <path
           id="path449"
           fill="#fff"
           d="m0 0c0.187-0.771 0.148-1.502-0.116-2.193-0.266-0.692-0.678-1.303-1.239-1.833-0.561-0.531-1.247-0.949-2.057-1.255-0.81-0.305-1.683-0.457-2.617-0.457-5.889-0.033-11.156-0.049-15.798-0.049h-15.891c-1.122 0-2.111 0.209-2.968 0.627s-1.543 0.932-2.056 1.543c-0.515 0.611-0.858 1.279-1.029 2.002s-0.148 1.375 0.071 1.953c0.186 0.451 0.373 0.917 0.56 1.398 0.157 0.418 0.343 0.893 0.561 1.424 0.219 0.53 0.452 1.069 0.701 1.615l1.776 4.438h5.329l-2.01-6.077h30.099l-2.009 6.077h5.094c0.655-1.64 1.246-3.119 1.777-4.438 0.218-0.578 0.435-1.14 0.654-1.687 0.218-0.547 0.412-1.037 0.584-1.472 0.171-0.433 0.312-0.804 0.421-1.109 0.108-0.306 0.163-0.474 0.163-0.507m-22.922 9.236c-0.601 0.698-1.289 1.571-2.064 2.618-0.776 1.046-1.575 2.125-2.398 3.235-0.822 1.11-1.637 2.204-2.443 3.283-0.808 1.079-1.527 2.015-2.16 2.808-0.728 0.856-1.013 1.562-0.855 2.117s0.696 0.832 1.614 0.832c0.506-0.031 1.187-0.024 2.041 0.024 0.855 0.048 1.567 0.072 2.136 0.072 0.633 0 1.029 0.19 1.187 0.57 0.158 0.381 0.237 0.889 0.237 1.523 0 0.698-8e-3 1.467-0.024 2.308s-0.024 1.705-0.024 2.593-8e-3 1.76-0.023 2.617c-0.016 0.856-0.024 1.65-0.024 2.379 0 0.318 0.024 0.65 0.071 1 0.047 0.348 0.158 0.666 0.333 0.951 0.173 0.285 0.426 0.523 0.758 0.714 0.332 0.19 0.784 0.285 1.353 0.285 0.665 0 1.274 9e-3 1.827 0.024 0.555 0.016 1.195 0.024 1.923 0.024 1.044 0 1.748-0.246 2.112-0.737 0.364-0.492 0.562-1.277 0.593-2.356v-1.855c0-0.73 8e-3 -1.507 0.023-2.331 0.017-0.826 0.025-1.651 0.025-2.475v-2.236c0-0.92 0.095-1.659 0.284-2.213 0.191-0.555 0.617-0.817 1.282-0.785 0.475 0 1.052-0.016 1.732-0.047 0.68-0.032 1.274-0.049 1.78-0.049 0.855 0 1.4-0.23 1.638-0.69 0.237-0.46 0.071-1.054-0.498-1.784-0.602-0.76-1.298-1.68-2.089-2.759-0.791-1.08-1.606-2.197-2.445-3.355-0.838-1.158-1.661-2.284-2.467-3.379-0.807-1.094-1.528-2.037-2.16-2.83-0.57-0.73-1.116-1.103-1.637-1.119-0.523-0.016-1.069 0.326-1.638 1.023" />
      </g>
    </g>
  </g>
  <g
     id="g463"
     transform="matrix(1.3334 0 0 -1.3334 740.42 1029.8)">
    <g
       id="g461"
       clip-path="url(#p)">
      <g
         id="g459"
         transform="translate(588.67,331.24)">
        <path
           id="path457"
           fill="#fff"
           d="m0 0h-49.301c-2.41 0-4.367-1.941-4.367-4.299v-49.402c0-2.393 1.957-4.299 4.367-4.299h49.301c2.41 0 4.332 1.941 4.332 4.299v49.367c0 2.393-1.957 4.334-4.332 4.334m-33.403-53.008h-8.839v6.795h8.839zm-8.91 24.58h8.84v-6.795h-8.84zm8.945-15.566h-8.84v6.795h8.84zm12.998-9.014h-8.84v6.795h8.84zm-8.91 24.58h8.84v-6.795h-8.84zm8.944-15.566h-8.839v6.795h8.839zm13.277-9.014h-8.84v6.795h8.84zm-8.909 24.58h8.84v-6.795h-8.84zm8.945-15.566h-8.84v6.795h8.84zm5.276 24.441c0-2.392-1.957-4.299-4.368-4.299h-37.77c-2.411-0.035-4.367 1.907-4.367 4.299v10.054c0 2.392 1.956 4.333 4.332 4.333h37.805c2.411 0 4.368-1.941 4.368-4.333z" />
      </g>
    </g>
  </g>
  <g
     id="g471"
     transform="matrix(1.3334 0 0 -1.3334 740.42 1029.8)">
    <g
       id="g469"
       clip-path="url(#o)">
      <g
         id="g467"
         transform="translate(609.3,312.46)">
        <path
           id="path465"
           fill="#fff"
           d="m0 0h-0.72c-0.206 0-0.377 0-0.514-0.212-0.103-0.142-0.103-0.283-0.103-0.46v-0.566c0-0.178 0-0.319 0.103-0.461 0.137-0.212 0.308-0.212 0.514-0.212h0.72c0.205 0 0.376 0 0.514 0.212 0.102 0.142 0.102 0.283 0.102 0.461v0.566c0 0.213 0 0.318-0.102 0.46-0.138 0.212-0.275 0.212-0.514 0.212m-5.003 4.779h-2.947c-0.548 0-0.993-0.46-0.993-1.026v-2.407h0.993v2.407h2.947v-2.407h0.993v2.407c0 0.566-0.445 1.026-0.993 1.026m0-6.973h-2.947v2.407h-0.993v-2.407c0-0.567 0.411-1.027 0.993-1.027h2.947c0.582 0 0.993 0.46 0.993 1.027v2.407h-0.993zm-14.357 0h-2.947v2.584h-0.994v-2.584c0-0.567 0.411-1.027 0.994-1.027h2.947c0.583 0 0.994 0.46 0.994 1.027v2.584h-0.994zm0 6.973h-2.947c-0.548 0-0.994-0.46-0.994-1.026v-2.231h0.994v2.231h2.947v-2.231h0.994v2.231c0 0.566-0.446 1.026-0.994 1.026m7.195 0h-2.946c-0.549 0-0.994-0.46-0.994-1.026v-2.231h0.994v2.231h2.946v-2.231h0.994v2.231c0 0.566-0.445 1.026-0.994 1.026m0-6.973h-2.946v2.584h-0.994v-2.584c0-0.567 0.445-1.027 0.994-1.027h2.946c0.583 0 0.994 0.46 0.994 1.027v2.584h-0.994zm18.675 6.973h-2.947c-0.548 0-0.994-0.46-0.994-1.026v-2.584h0.994v2.584h2.947v-2.584h0.994v2.584c0 0.566-0.445 1.026-0.994 1.026m0-6.973h-2.947v2.23h-0.994v-2.23c0-0.567 0.446-1.027 0.994-1.027h2.947c0.583 0 0.994 0.46 0.994 1.027v2.23h-0.994zm7.195 0h-2.946v2.053h-0.994v-2.053c0-0.567 0.411-1.027 0.994-1.027h2.946c0.583 0 0.994 0.46 0.994 1.027v2.053h-0.994zm0 6.973h-2.946c-0.548 0-0.994-0.46-0.994-1.026v-2.761h0.994v2.761h2.946v-2.761h0.994v2.761c0 0.566-0.479 1.026-0.994 1.026" />
      </g>
    </g>
  </g>
  <g
     id="g479"
     transform="matrix(1.3334 0 0 -1.3334 740.42 1029.8)">
    <g
       id="g477"
       clip-path="url(#n)">
      <g
         id="g475"
         transform="translate(766.75,130.24)">
        <path
           id="path473"
           fill="#fff"
           d="m0 0h-15.75v6.693c0 1.239-1.013 2.307-2.307 2.307h-13.386c-1.239 0-2.307-1.013-2.307-2.307v-6.693h-15.75c-1.237 0-2.25-1.013-2.25-2.25v-11.25l27-4.5 27 4.5v11.25c0 1.237-1.013 2.25-2.25 2.25m-29.25 4.5h9v-4.5h-9zm9-16.875c0-0.619-0.506-1.125-1.125-1.125h-6.75c-0.619 0-1.125 0.506-1.125 1.125v2.25c0 0.619 0.506 1.125 1.125 1.125h6.75c0.619 0 1.125-0.506 1.125-1.125zm-4.5-7.875 27 4.5v-27c0-1.237-1.013-2.25-2.25-2.25h-49.5c-1.237 0-2.25 1.013-2.25 2.25v27z" />
      </g>
    </g>
  </g>
  <g
     id="g487"
     transform="matrix(1.3334 0 0 -1.3334 740.42 1029.8)">
    <g
       id="g485"
       clip-path="url(#m)">
      <g
         id="g483"
         transform="translate(392,82.24)">
        <path
           id="path481"
           fill="#fff"
           d="M 0,0 -4.35,3.941 C -19.8,17.953 -30,27.2 -30,38.516 -30,47.762 -22.755,55 -13.5,55 -8.28,55 -3.27,52.572 0,48.75 3.27,52.572 8.28,55 13.5,55 22.755,55 30,47.762 30,38.516 30,27.2 19.8,17.953 4.35,3.941 Z" />
      </g>
    </g>
  </g>
  <g
     id="g495"
     transform="matrix(1.3334 0 0 -1.3334 740.42 1029.8)">
    <g
       id="g493"
       clip-path="url(#l)">
      <g
         id="g491"
         transform="translate(542.77,113.24)">
        <path
           id="path489"
           fill="#fff"
           d="m0 0c0 2.621 0.885 4.8 2.689 6.604s3.983 2.689 6.604 2.689c2.622 0 4.801-0.885 6.604-2.689 1.805-1.804 2.69-3.983 2.69-6.604s-0.885-4.834-2.69-6.639c-1.803-1.803-3.982-2.689-6.604-2.689-2.621 0-4.809 0.877-6.604 2.689-1.813 1.83-2.689 4.051-2.689 6.639m-13.141-6.06c0.545-1.94 1.363-3.846 2.35-5.617l-6.128-7.523 6.944-6.945 7.524 6.127c1.769-0.986 3.71-1.803 5.65-2.382l1.022-9.6h10.008l1.022 9.6c1.94 0.579 3.778 1.396 5.651 2.382l7.49-6.127 7.012 6.945-6.162 7.523c0.953 1.771 1.805 3.677 2.383 5.617l9.601 1.056v10.008l-9.601 1.021c-0.578 1.941-1.43 3.745-2.383 5.618l6.162 7.523-7.012 7.013-7.49-6.161c-1.907 0.953-3.711 1.803-5.651 2.382l-1.022 9.6h-10.008l-1.022-9.6c-2.008-0.579-3.88-1.429-5.65-2.382l-7.524 6.161-6.944-7.013 6.128-7.523c-0.953-1.873-1.771-3.677-2.35-5.618l-9.633-1.021v-10.008z" />
      </g>
    </g>
  </g>
  <g
     id="g501"
     transform="matrix(1.3334 0 0 -1.3334 740.42 1029.8)">
    <g
       id="g499"
       clip-path="url(#k)">
      <path
         id="path497"
         fill-rule="evenodd"
         fill="#fff"
         d="m473 698.24h13v-13h-13zm6.5-12c3.037 0 5.5 2.463 5.5 5.5 0 3.038-2.463 5.5-5.5 5.5s-5.5-2.462-5.5-5.5c0-3.037 2.463-5.5 5.5-5.5" />
    </g>
  </g>
  <g
     id="g507"
     transform="matrix(1.3334 0 0 -1.3334 740.42 1029.8)">
    <g
       id="g505"
       clip-path="url(#j)">
      <path
         id="path503"
         fill-rule="evenodd"
         fill="#fff"
         d="m473 676.24h13v-13h-13zm6.5-12c3.037 0 5.5 2.463 5.5 5.5 0 3.038-2.463 5.5-5.5 5.5s-5.5-2.462-5.5-5.5c0-3.037 2.463-5.5 5.5-5.5" />
    </g>
  </g>
  <g
     id="g513"
     transform="matrix(1.3334 0 0 -1.3334 740.42 1029.8)">
    <g
       id="g511"
       clip-path="url(#i)">
      <path
         id="path509"
         fill-rule="evenodd"
         fill="#fff"
         d="m467 687.24h13v-13h-13zm6.5-12c3.037 0 5.5 2.463 5.5 5.5 0 3.038-2.463 5.5-5.5 5.5s-5.5-2.462-5.5-5.5c0-3.037 2.463-5.5 5.5-5.5" />
    </g>
  </g>
  <g
     id="g519"
     transform="matrix(1.3334 0 0 -1.3334 740.42 1029.8)">
    <g
       id="g517"
       clip-path="url(#h)">
      <path
         id="path515"
         fill-rule="evenodd"
         fill="#fff"
         d="m486 698.24h13v-13h-13zm6.5-12c3.037 0 5.5 2.463 5.5 5.5 0 3.038-2.463 5.5-5.5 5.5s-5.5-2.462-5.5-5.5c0-3.037 2.463-5.5 5.5-5.5" />
    </g>
  </g>
  <g
     id="g525"
     transform="matrix(1.3334 0 0 -1.3334 740.42 1029.8)">
    <g
       id="g523"
       clip-path="url(#g-3)">
      <path
         id="path521"
         fill-rule="evenodd"
         fill="#fff"
         d="m486 676.24h13v-13h-13zm6.5-12c3.037 0 5.5 2.463 5.5 5.5 0 3.038-2.463 5.5-5.5 5.5s-5.5-2.462-5.5-5.5c0-3.037 2.463-5.5 5.5-5.5" />
    </g>
  </g>
  <g
     id="g531"
     transform="matrix(1.3334 0 0 -1.3334 740.42 1029.8)">
    <g
       id="g529"
       clip-path="url(#f-0)">
      <path
         id="path527"
         fill-rule="evenodd"
         fill="#fff"
         d="m480 687.24h13v-13h-13zm6.5-12c3.037 0 5.5 2.463 5.5 5.5 0 3.038-2.463 5.5-5.5 5.5s-5.5-2.462-5.5-5.5c0-3.037 2.463-5.5 5.5-5.5" />
    </g>
  </g>
  <g
     id="g537"
     transform="matrix(1.3334 0 0 -1.3334 740.42 1029.8)">
    <g
       id="g535"
       clip-path="url(#e-7)">
      <path
         id="path533"
         fill-rule="evenodd"
         fill="#fff"
         d="m493 687.24h13v-13h-13zm6.5-12c3.037 0 5.5 2.463 5.5 5.5 0 3.038-2.463 5.5-5.5 5.5s-5.5-2.462-5.5-5.5c0-3.037 2.463-5.5 5.5-5.5" />
    </g>
  </g>
  <g
     id="g543"
     transform="matrix(1.3334 0 0 -1.3334 740.42 1029.8)">
    <g
       id="g541"
       clip-path="url(#d-8)">
      <path
         id="path539"
         fill-rule="evenodd"
         fill="#fff"
         d="m161 327.24h73v-28h-73zm14-5h45c4.971 0 9-4.029 9-9 0-4.97-4.029-9-9-9h-45c-4.971 0-9 4.03-9 9 0 4.971 4.029 9 9 9" />
    </g>
  </g>
  <g
     id="g549"
     transform="matrix(1.3334 0 0 -1.3334 740.42 1029.8)">
    <g
       id="g547"
       clip-path="url(#c)">
      <path
         id="path545"
         fill-rule="evenodd"
         fill="#fff"
         d="m162 302.24h73v-28h-73zm14-5h45c4.971 0 9-4.029 9-9 0-4.97-4.029-9-9-9h-45c-4.971 0-9 4.03-9 9 0 4.971 4.029 9 9 9" />
    </g>
  </g>
  <g
     id="g557"
     transform="matrix(1.3334 0 0 -1.3334 740.42 1029.8)">
    <g
       id="g555"
       clip-path="url(#b-6)">
      <g
         id="g553"
         transform="translate(104.49,129.57)">
        <path
           id="path551"
           fill="#fff"
           d="m0 0c-4.298-0.338-8.165-0.637-11.604-0.898-1.458-0.113-2.906-0.225-4.344-0.336-1.44-0.114-2.747-0.207-3.924-0.282-1.178-0.074-2.168-0.149-2.972-0.224-0.803-0.074-1.28-0.113-1.428-0.113-0.188-0.037-0.403-0.065-0.645-0.084-0.244-0.018-0.459-0.065-0.645-0.139l-0.673-0.225-2.467 1.121c0.187 0.263 0.412 0.506 0.674 0.731 0.185 0.186 0.42 0.364 0.7 0.533 0.28 0.168 0.569 0.27 0.868 0.309 0.225 0.037 0.822 0.093 1.795 0.168 0.971 0.074 2.167 0.168 3.588 0.28 0 0.486 0.047 1.15 0.14 1.992 0.092 0.841 0.317 1.674 0.672 2.497 0.356 0.822 0.869 1.553 1.541 2.188 0.673 0.636 1.589 1.009 2.747 1.123 1.346 0.111 2.439-0.094 3.281-0.618 0.84-0.523 1.494-1.169 1.961-1.935 0.467-0.768 0.795-1.553 0.981-2.358 0.187-0.804 0.299-1.43 0.337-1.878 1.606 0.111 2.942 0.205 4.008 0.279 1.064 0.076 1.653 0.131 1.765 0.169 0.412 0.038 0.87-0.038 1.373-0.225 0.505-0.186 0.907-0.43 1.206-0.729 0.075-0.075 0.177-0.188 0.308-0.336 0.131-0.151 0.252-0.3 0.365-0.449 0.149-0.151 0.28-0.337 0.392-0.561m-15.528 6.676c-0.709-0.074-1.28-0.326-1.709-0.757-0.43-0.431-0.758-0.944-0.982-1.543-0.223-0.599-0.374-1.206-0.448-1.823-0.075-0.617-0.112-1.114-0.112-1.488 1.159 0.076 2.344 0.169 3.559 0.281s2.402 0.206 3.56 0.281c-0.037 0.336-0.121 0.804-0.252 1.402-0.131 0.599-0.346 1.178-0.645 1.74-0.299 0.561-0.691 1.028-1.176 1.403-0.487 0.373-1.084 0.542-1.795 0.504m21.919-41.24c0.186-1.047 0.159-1.917-0.084-2.61-0.244-0.691-0.925-1.168-2.046-1.43-0.374-0.113-1.187-0.299-2.439-0.562-1.252-0.262-2.747-0.579-4.485-0.953-1.737-0.374-3.597-0.777-5.577-1.207-1.982-0.43-3.878-0.832-5.691-1.205-1.812-0.375-3.437-0.711-4.877-1.011-1.438-0.3-2.457-0.505-3.054-0.617-1.383-0.3-2.402-0.206-3.055 0.28-0.654 0.486-0.982 1.217-0.982 2.189v34.452c0 0.934 0.197 1.691 0.589 2.271 0.393 0.58 0.962 0.889 1.709 0.926 0.299 0 0.664 0.02 1.094 0.057s0.85 0.074 1.261 0.112c0.485 0.037 0.991 0.075 1.514 0.112l0.504-8.023c-0.037-0.038-0.112-0.057-0.224-0.057-0.074 0-0.187-0.01-0.336-0.027-0.15-0.02-0.318-0.029-0.505-0.029-0.784-0.075-1.159-0.542-1.121-1.403 0.038-0.336 0.075-0.805 0.112-1.402 0.037-0.599 0.066-1.225 0.084-1.88 0.019-0.655 0.047-1.29 0.084-1.907s0.074-1.114 0.113-1.488c0.037-0.711 0.149-1.112 0.336-1.206 0.186-0.093 0.598-0.14 1.233-0.14h0.785c0.225 0 0.439 0.01 0.645 0.027 0.205 0.02 0.439 0.038 0.701 0.057 0.261 0.018 0.597 0.047 1.008 0.084 0.785 0.075 1.29 0.243 1.513 0.506 0.225 0.261 0.319 0.654 0.281 1.177 0 0.262-0.028 0.721-0.084 1.375-0.056 0.655-0.113 1.337-0.168 2.048-0.056 0.71-0.103 1.384-0.14 2.02-0.037 0.635-0.074 1.085-0.112 1.346-0.076 0.45-0.168 0.768-0.281 0.954-0.112 0.187-0.318 0.262-0.617 0.224-0.148 0-0.299-9e-3 -0.447-0.027-0.151-0.019-0.3-0.028-0.449-0.028h-0.449l-0.505 7.967c2.542 0.225 4.877 0.412 7.008 0.561 0.897 0.076 1.803 0.15 2.719 0.224 0.916 0.076 1.766 0.141 2.551 0.198 0.785 0.055 1.476 0.111 2.074 0.168 0.598 0.056 1.046 0.103 1.346 0.14 1.083 0.074 1.942-0.113 2.578-0.561 0.635-0.449 1.027-1.122 1.178-2.021 0.037-0.299 0.168-1.196 0.391-2.693 0.224-1.496 0.505-3.291 0.841-5.386s0.691-4.349 1.065-6.761c0.374-2.413 0.729-4.667 1.066-6.761 0.336-2.095 0.625-3.891 0.869-5.387 0.242-1.496 0.4-2.395 0.476-2.693m-35.261-4.881c0-0.525 0.028-0.983 0.084-1.375 0.057-0.393 0.122-0.701 0.197-0.926 0.074-0.299 0.168-0.524 0.279-0.674-0.933 0.486-1.831 0.973-2.69 1.459-0.747 0.412-1.495 0.832-2.242 1.263-0.747 0.43-1.383 0.795-1.906 1.094-0.972 0.561-1.635 1.235-1.99 2.02s-0.439 1.608-0.253 2.469c0.076 0.224 0.244 1.047 0.505 2.469 0.262 1.421 0.588 3.142 0.981 5.162 0.392 2.019 0.803 4.189 1.233 6.508 0.43 2.32 0.831 4.49 1.205 6.509 0.374 2.02 0.701 3.76 0.982 5.218 0.28 1.459 0.439 2.319 0.476 2.581 0.15 0.823 0.42 1.459 0.813 1.908 0.392 0.449 0.849 0.561 1.373 0.336 0.299-0.149 0.543-0.317 0.728-0.504 0.114-0.113 0.188-0.207 0.225-0.281z" />
      </g>
    </g>
  </g>
  <g
     id="g567"
     stroke-width=".26458"
     fill="#5e4aa6"
     transform="scale(3.7796)">
    <circle
       id="circle559"
       r="0"
       cy="-328.38"
       cx="-330.35" />
    <circle
       id="circle561"
       r="0"
       cy="-326.25"
       cx="-312.11" />
    <circle
       id="circle563"
       r="0"
       cy="-333.07"
       cx="-306.02" />
    <circle
       id="circle565"
       r="0"
       cy="-326.01"
       cx="-308.84" />
  </g>
  <g
     id="g577"
     stroke-width=".26458"
     fill="#5e4aa6"
     transform="matrix(3.7796 0 0 3.7796 -.10281 .024568)">
    <circle
       id="circle569"
       r="0"
       cy="-328.38"
       cx="-330.35" />
    <circle
       id="circle571"
       r="0"
       cy="-326.25"
       cx="-312.11" />
    <circle
       id="circle573"
       r="0"
       cy="-333.07"
       cx="-306.02" />
    <circle
       id="circle575"
       r="0"
       cy="-326.01"
       cx="-308.84" />
  </g>
  <path
     id="path579"
     stroke-width=".9"
     fill="#fff"
     d="m31.997 19.4c-6.8278 0-12.347 5.3634-12.597 12.126 1.8004 4.7324 6.3764 8.0739 11.757 8.0739 3.8055 0 7.1889-1.6691 9.4896-4.322-0.94689 4.4332-4.2097 7.9762-8.4717 9.3213 6.9054-0.08608 12.425-5.6668 12.425-12.597 0-6.9873-5.6142-12.597-12.597-12.597" />
  <g
     fill="#5e4aa6"
     id="g30"
     transform="translate(-82.16798,-33.987599)">
    <circle
       cx="-1248.7"
       cy="-1241.6"
       r="0"
       id="circle24" />
    <circle
       cx="-1140.3"
       cy="-1301.8"
       r="0"
       id="circle26" />
    <circle
       cx="-1158.1"
       cy="-1246"
       r="0"
       id="circle28" />
  </g>
  <circle
     cx="-1239.468"
     cy="-1301.6875"
     r="0"
     fill="#5e4aa6"
     id="circle36"
     style="stroke-width:1" />
  <circle
     cx="-139.92398"
     cy="-36.170498"
     r="0"
     fill="#5e4aa6"
     fill-rule="evenodd"
     id="circle38"
     style="stroke-width:1" />
</svg>
