<?xml version="1.0" encoding="UTF-8" standalone="no"?>
<svg
   xmlns:dc="http://purl.org/dc/elements/1.1/"
   xmlns:cc="http://creativecommons.org/ns#"
   xmlns:rdf="http://www.w3.org/1999/02/22-rdf-syntax-ns#"
   xmlns:svg="http://www.w3.org/2000/svg"
   xmlns="http://www.w3.org/2000/svg"
   xmlns:xlink="http://www.w3.org/1999/xlink"
   xmlns:sodipodi="http://sodipodi.sourceforge.net/DTD/sodipodi-0.dtd"
   xmlns:inkscape="http://www.inkscape.org/namespaces/inkscape"
   inkscape:version="1.0 (4035a4fb49, 2020-05-01)"
   sodipodi:docname="akonadiconsole.svg"
   viewBox="0 0 64 64"
   version="1.1"
   image-rendering="optimizeSpeed"
   enable-background="new 0 0 1024 1024"
   height="64"
   width="64"
   id="Iterm">
  <sodipodi:namedview
     inkscape:current-layer="Iterm"
     inkscape:window-maximized="1"
     inkscape:window-y="36"
     inkscape:window-x="0"
     inkscape:cy="37.632443"
     inkscape:cx="-18.561923"
     inkscape:zoom="4.391796"
     showgrid="false"
     id="namedview1198"
     inkscape:window-height="964"
     inkscape:window-width="1920"
     inkscape:pageshadow="2"
     inkscape:pageopacity="0"
     guidetolerance="10"
     gridtolerance="10"
     objecttolerance="10"
     borderopacity="1"
     bordercolor="#666666"
     pagecolor="#ffffff" />
  <metadata
     id="metadata2">
    <rdf:RDF>
      <cc:Work
         rdf:about="">
        <dc:format>image/svg+xml</dc:format>
        <dc:type
           rdf:resource="http://purl.org/dc/dcmitype/StillImage" />
        <dc:title></dc:title>
      </cc:Work>
    </rdf:RDF>
  </metadata>
  <defs
     id="defs348">
    <clipPath
       id="dk">
      <path
         id="path4"
         d="m641.57 1047.1h77.223v80.595h-77.223z" />
    </clipPath>
    <clipPath
       id="dj">
      <path
         id="path7"
         d="m796.19 1032.6h108v108h-108z" />
    </clipPath>
    <clipPath
       id="di">
      <path
         id="path10"
         d="m797.19 1036.6h106v33.142h-106z" />
    </clipPath>
    <clipPath
       id="dh">
      <path
         id="path13"
         d="m799.19 1066.7v-21.138c0-4.419 3.582-8.005 8.003-8.005h85.993c4.419 0 8.003 3.583 8.003 8.005v21.138z" />
    </clipPath>
    <clipPath
       id="dg">
      <path
         id="path16"
         d="m590.19 1067.7h104v-31.14h-104z" />
    </clipPath>
    <clipPath
       id="df">
      <path
         id="path19"
         d="m813.88 1115.7h14.8v14.8h-14.8z" />
    </clipPath>
    <clipPath
       id="de">
      <path
         id="path22"
         d="m871.68 1115.7h14.8v14.8h-14.8z" />
    </clipPath>
    <clipPath
       id="dd">
      <path
         id="path25"
         d="m815.62 1089.4h69.177v37.75h-69.177z" />
    </clipPath>
    <clipPath
       id="dc">
      <path
         id="path28"
         d="m291.18 844.46h108v108.12h-108z" />
    </clipPath>
    <clipPath
       id="db">
      <path
         id="path31"
         d="m658.79 884.04h17.705v17.706h-17.705z" />
    </clipPath>
    <clipPath
       id="da">
      <path
         id="path34"
         d="m678.86 884.04h17.705v17.706h-17.705z" />
    </clipPath>
    <clipPath
       id="cz">
      <path
         id="path37"
         d="m698.92 884.04h17.705v17.706h-17.705z" />
    </clipPath>
    <clipPath
       id="cy">
      <path
         id="path40"
         d="m796.19 844.58h108v108h-108zm3 55.999c0 28.167 22.826 51.001 51 51.001 28.165 0 50.999-22.828 50.999-51.001 0-28.166-22.826-51-50.999-51-28.167 0-51 22.828-51 51" />
    </clipPath>
    <clipPath
       id="cx">
      <path
         id="path43"
         d="m802.14 850.53h96.099v96.1h-96.099zm2.999 50.05c0 24.881 20.165 45.05 45.051 45.05 24.88 0 45.049-20.164 45.049-45.05 0-24.88-20.164-45.049-45.049-45.049-24.881 0-45.051 20.163-45.051 45.049" />
    </clipPath>
    <clipPath
       id="cw">
      <path
         id="path46"
         d="m808.09 856.48h84.2v84.2h-84.2z" />
    </clipPath>
    <clipPath
       id="cv">
      <path
         id="path49"
         d="m836.28 848.58h66.9v45.65h-66.9z" />
    </clipPath>
    <clipPath
       id="cu">
      <path
         id="path52"
         d="m123.19 653.58h108v108h-108z" />
    </clipPath>
    <clipPath
       id="ct">
      <path
         id="path55"
         d="m626.19 654.58h108v108h-108z" />
    </clipPath>
    <clipPath
       id="cs">
      <path
         id="path58"
         d="m629.59 657.98h101.2v101.2h-101.2z" />
    </clipPath>
    <clipPath
       id="co">
      <path
         id="path61"
         d="m626.19 467.58h108v108h-108z" />
    </clipPath>
    <clipPath
       id="ck">
      <path
         id="path64"
         d="m122.19 275.58h108v108h-108z" />
    </clipPath>
    <clipPath
       id="ch">
      <path
         id="path67"
         d="m210.34 363.74h16.929v16.929h-16.929z" />
    </clipPath>
    <clipPath
       id="cg">
      <path
         id="path70"
         d="m124.37 278.5h30.772v30.772h-30.772z" />
    </clipPath>
    <clipPath
       id="ce">
      <path
         id="path73"
         d="m493.74 324.58h36.9v36.9h-36.9z" />
    </clipPath>
    <clipPath
       id="cb">
      <path
         id="path76"
         d="m127.98 91.381h96.4v96.401h-96.4z" />
    </clipPath>
    <clipPath
       id="by">
      <path
         id="path79"
         d="m461.18 141.58c0-28.166 22.834-51 51-51 28.167 0 51.001 22.834 51.001 51s-22.834 51-51.001 51c-28.166 0-51-22.834-51-51" />
    </clipPath>
    <clipPath
       id="bx">
      <path
         id="path82"
         d="m242.19 195.58h108v-108h-108z" />
    </clipPath>
    <clipPath
       id="bw">
      <path
         id="path85"
         d="m485.87 109.62h52.06v59.185h-52.06z" />
    </clipPath>
    <clipPath
       id="bt">
      <path
         id="path88"
         d="m821.69 123.68h60.701v53.051h-60.701z" />
    </clipPath>
    <clipPath
       id="bs">
      <path
         id="path91"
         d="m816.59 104.98h71.75v36.049h-71.75z" />
    </clipPath>
    <clipPath
       id="bo">
      <path
         id="path94"
         d="m641.57 1047.1h77.223v80.595h-77.223z" />
    </clipPath>
    <clipPath
       id="bn">
      <path
         id="path97"
         d="m796.19 1032.6h108v108h-108z" />
    </clipPath>
    <clipPath
       id="bm">
      <path
         id="path100"
         d="m797.19 1036.6h106v33.142h-106z" />
    </clipPath>
    <clipPath
       id="bl">
      <path
         id="path103"
         d="m799.19 1066.7v-21.138c0-4.419 3.582-8.005 8.003-8.005h85.993c4.419 0 8.003 3.583 8.003 8.005v21.138z" />
    </clipPath>
    <clipPath
       id="bk">
      <path
         id="path106"
         d="m590.19 1067.7h104v-31.14h-104z" />
    </clipPath>
    <clipPath
       id="bj">
      <path
         id="path109"
         d="m813.88 1115.7h14.8v14.8h-14.8z" />
    </clipPath>
    <clipPath
       id="bi">
      <path
         id="path112"
         d="m871.68 1115.7h14.8v14.8h-14.8z" />
    </clipPath>
    <clipPath
       id="bh">
      <path
         id="path115"
         d="m815.62 1089.4h69.177v37.75h-69.177z" />
    </clipPath>
    <clipPath
       id="bf">
      <path
         id="path118"
         d="m291.18 844.46h108v108.12h-108z" />
    </clipPath>
    <clipPath
       id="ay">
      <path
         id="path121"
         d="m658.79 884.04h17.705v17.706h-17.705z" />
    </clipPath>
    <clipPath
       id="ax">
      <path
         id="path124"
         d="m678.86 884.04h17.705v17.706h-17.705z" />
    </clipPath>
    <clipPath
       id="av">
      <path
         id="path127"
         d="m698.92 884.04h17.705v17.706h-17.705z" />
    </clipPath>
    <clipPath
       id="at">
      <path
         id="path130"
         d="m796.19 844.58h108v108h-108zm3 55.999c0 28.167 22.826 51.001 51 51.001 28.165 0 50.999-22.828 50.999-51.001 0-28.166-22.826-51-50.999-51-28.167 0-51 22.828-51 51" />
    </clipPath>
    <clipPath
       id="as">
      <path
         id="path133"
         d="m802.14 850.53h96.099v96.1h-96.099zm2.999 50.05c0 24.881 20.165 45.05 45.051 45.05 24.88 0 45.049-20.164 45.049-45.05 0-24.88-20.164-45.049-45.049-45.049-24.881 0-45.051 20.163-45.051 45.049" />
    </clipPath>
    <clipPath
       id="ar">
      <path
         id="path136"
         d="m808.09 856.48h84.2v84.2h-84.2z" />
    </clipPath>
    <clipPath
       id="aq">
      <path
         id="path139"
         d="m836.28 848.58h66.9v45.65h-66.9z" />
    </clipPath>
    <clipPath
       id="ap">
      <path
         id="path142"
         d="m123.19 653.58h108v108h-108z" />
    </clipPath>
    <clipPath
       id="al">
      <path
         id="path145"
         d="m626.19 654.58h108v108h-108z" />
    </clipPath>
    <clipPath
       id="ak">
      <path
         id="path148"
         d="m629.59 657.98h101.2v101.2h-101.2z" />
    </clipPath>
    <clipPath
       id="ai">
      <path
         id="path151"
         d="m626.19 467.58h108v108h-108z" />
    </clipPath>
    <clipPath
       id="ag">
      <path
         id="path154"
         d="m122.19 275.58h108v108h-108z" />
    </clipPath>
    <clipPath
       id="af">
      <path
         id="path157"
         d="m210.34 363.74h16.929v16.929h-16.929z" />
    </clipPath>
    <clipPath
       id="ae">
      <path
         id="path160"
         d="m124.37 278.5h30.772v30.772h-30.772z" />
    </clipPath>
    <clipPath
       id="ab">
      <path
         id="path163"
         d="m493.74 324.58h36.9v36.9h-36.9z" />
    </clipPath>
    <clipPath
       id="y">
      <path
         id="path166"
         d="m127.98 91.381h96.4v96.401h-96.4z" />
    </clipPath>
    <clipPath
       id="v">
      <path
         id="path169"
         d="m461.18 141.58c0-28.166 22.834-51 51-51 28.167 0 51.001 22.834 51.001 51s-22.834 51-51.001 51c-28.166 0-51-22.834-51-51" />
    </clipPath>
    <clipPath
       id="u">
      <path
         id="path172"
         d="m242.19 195.58h108v-108h-108z" />
    </clipPath>
    <clipPath
       id="t">
      <path
         id="path175"
         d="m485.87 109.62h52.06v59.185h-52.06z" />
    </clipPath>
    <clipPath
       id="m">
      <path
         id="path178"
         d="m821.69 123.68h60.701v53.051h-60.701z" />
    </clipPath>
    <clipPath
       id="k">
      <path
         id="path181"
         d="m816.59 104.98h71.75v36.049h-71.75z" />
    </clipPath>
    <clipPath
       id="cr">
      <path
         id="path184"
         d="m481 318h22v22h-22z" />
    </clipPath>
    <clipPath
       id="cq">
      <path
         id="path187"
         d="m507 318h22v22h-22z" />
    </clipPath>
    <clipPath
       id="cp">
      <path
         id="path190"
         d="m530 318h22v22h-22z" />
    </clipPath>
    <clipPath
       id="cn">
      <path
         id="path193"
         d="m672 1064c0-1.105 4.925-2 11-2s11 0.895 11 2-4.925 2-11 2-11-0.895-11-2" />
    </clipPath>
    <clipPath
       id="cm">
      <path
         id="path196"
         d="m660 1057h51v65.001h-51z" />
    </clipPath>
    <clipPath
       id="cl">
      <path
         id="path199"
         d="m659 517h53v18h-53z" />
    </clipPath>
    <clipPath
       id="cj">
      <path
         id="path202"
         d="m659 500h53v18h-53z" />
    </clipPath>
    <clipPath
       id="ci">
      <path
         id="path205"
         d="m648 112h73v60h-73z" />
    </clipPath>
    <clipPath
       id="cf">
      <path
         id="path208"
         d="m826 1056h59v60h-59z" />
    </clipPath>
    <clipPath
       id="cd">
      <path
         id="path211"
         d="m805 276h100v100h-100z" />
    </clipPath>
    <clipPath
       id="cc">
      <path
         id="path214"
         d="m145 1063.8h74.152v45.21h-74.152z" />
    </clipPath>
    <clipPath
       id="ca">
      <path
         id="path217"
         d="m151 667h57v57h-57z" />
    </clipPath>
    <clipPath
       id="bz">
      <path
         id="path220"
         d="m154 697h51v51h-51z" />
    </clipPath>
    <clipPath
       id="bv">
      <path
         id="path223"
         d="m500.04 864.45h36.012v67.52h-36.012z" />
    </clipPath>
    <clipPath
       id="bu">
      <path
         id="path226"
         d="m836 870.54h47v55.539h-47z" />
    </clipPath>
    <clipPath
       id="br">
      <path
         id="path229"
         d="m318.03 702.35h62.848v37.991h-62.848z" />
    </clipPath>
    <clipPath
       id="bq">
      <path
         id="path232"
         d="m485.03 133.35h62.847v37.991h-62.847z" />
    </clipPath>
    <clipPath
       id="bp">
      <path
         id="path235"
         d="m493.37 677.93h45.643v68.067h-45.643z" />
    </clipPath>
    <clipPath
       id="bg">
      <path
         id="path238"
         d="m144.34 1018.2h71.467v78h-71.467z" />
    </clipPath>
    <clipPath
       id="be">
      <path
         id="path241"
         d="m293.21 1068.6 66.323-38.292 36.047 62.435-66.323 38.292z" />
    </clipPath>
    <clipPath
       id="bd">
      <path
         id="path244"
         d="m488.86 1054.5h10v10.706h-10z" />
    </clipPath>
    <clipPath
       id="bc">
      <path
         id="path247"
         d="m508 1066.8h10.001v10.705h-10.001z" />
    </clipPath>
    <clipPath
       id="bb">
      <path
         id="path250"
         d="m525 1045.8h10v10.706h-10z" />
    </clipPath>
    <clipPath
       id="ba">
      <path
         id="path253"
         d="m836 1043.7h25.5v31.5h-25.5z" />
    </clipPath>
    <clipPath
       id="az">
      <path
         id="path256"
         d="m838 1062.2h24v24h-24z" />
    </clipPath>
    <clipPath
       id="aw">
      <path
         id="path259"
         d="m134 489.24h7v6h-7z" />
    </clipPath>
    <clipPath
       id="au">
      <path
         id="path262"
         d="m216 489.24h7v6h-7z" />
    </clipPath>
    <clipPath
       id="ao">
      <path
         id="path265"
         d="m838 477.24h22v22h-22z" />
    </clipPath>
    <clipPath
       id="an">
      <path
         id="path268"
         d="m704 1061.2h25v25h-25z" />
    </clipPath>
    <clipPath
       id="am">
      <path
         id="path271"
         d="m663.04 1078.6-1.808-3.514-21.07-47.453c13.336-18.439 48.336-26.938 73.836-3.439 0.842 0 6.476 6.246 6 7l-18.386 25.895c-0.483 0.765-1.453 0.946-2.177 0.431l-15.505-11.011c-0.359-0.255-0.847-0.153-1.07 0.238l-18.272 31.869c-0.218 0.384-0.502 0.578-0.782 0.578-0.282 0-0.561-0.197-0.766-0.594" />
    </clipPath>
    <clipPath
       id="aj">
      <path
         id="path274"
         d="m127 820.24h100v100h-100z" />
    </clipPath>
    <clipPath
       id="ah">
      <path
         id="path277"
         d="m809 680.24c0-22.092 17.908-40 40-40s40 17.908 40 40c0 22.091-17.908 40-40 40s-40-17.909-40-40" />
    </clipPath>
    <clipPath
       id="ad">
      <path
         id="path280"
         d="m658 469.24h44v45h-44z" />
    </clipPath>
    <clipPath
       id="ac">
      <path
         id="path283"
         d="m651 271.24h58v58h-58z" />
    </clipPath>
    <clipPath
       id="aa">
      <path
         id="path286"
         d="m662 307.24h38v8h-38z" />
    </clipPath>
    <clipPath
       id="z">
      <path
         id="path289"
         d="m858.98 137.24c0.013-0.101 0.021-0.203 0.021-0.307v-6.693h15.75c1.237 0 2.25-1.013 2.25-2.25v-11.25l-27-4.5-27 4.5v-2.25l27-4.5 27 4.5v-27c0-1.237-1.013-2.25-2.25-2.25h-49.5c-1.237 0-2.25 1.013-2.25 2.25v-4.25h54v54zm-35.979 0v-9.25c0 1.237 1.013 2.25 2.25 2.25h15.75v6.693c0 0.104 7e-3 0.207 0.02 0.307zm22.5-7h9v4.5h-9zm1.125-9c-0.62 0-1.125-0.506-1.125-1.125v-2.25c0-0.619 0.505-1.125 1.125-1.125h6.75c0.619 0 1.125 0.506 1.125 1.125v2.25c0 0.619-0.506 1.125-1.125 1.125z" />
    </clipPath>
    <clipPath
       id="x">
      <path
         id="path292"
         d="m531.27 136.24c6.325-2.29 10.727-8.277 10.727-15.484 0-11.316-10.2-20.563-25.65-34.575l-4.35-3.941-4.35 3.941c-15.45 14.012-25.65 23.259-25.65 34.575v-39.516h60v55zm-26.983 0c2.995-1.052 5.686-2.883 7.71-5.25 2.024 2.367 4.715 4.198 7.71 5.25zm-22.29 0v-15.484c0 7.207 4.402 13.194 10.727 15.484z" />
    </clipPath>
    <clipPath
       id="w">
      <path
         id="path295"
         d="m648 79.241h64v64h-64z" />
    </clipPath>
    <clipPath
       id="s">
      <path
         id="path298"
         d="m500 691.74c0-3.037 2.463-5.5 5.5-5.5s5.5 2.463 5.5 5.5-2.463 5.5-5.5 5.5-5.5-2.463-5.5-5.5" />
    </clipPath>
    <clipPath
       id="r">
      <path
         id="path301"
         d="m500 669.74c0-3.037 2.463-5.5 5.5-5.5s5.5 2.463 5.5 5.5c0 3.038-2.463 5.5-5.5 5.5s-5.5-2.462-5.5-5.5" />
    </clipPath>
    <clipPath
       id="q">
      <path
         id="path304"
         d="m494 680.74c0-3.037 2.462-5.5 5.5-5.5s5.5 2.463 5.5 5.5c0 3.038-2.462 5.5-5.5 5.5s-5.5-2.462-5.5-5.5" />
    </clipPath>
    <clipPath
       id="p">
      <path
         id="path307"
         d="m513 691.74c0-3.037 2.463-5.5 5.5-5.5s5.5 2.463 5.5 5.5-2.463 5.5-5.5 5.5-5.5-2.463-5.5-5.5" />
    </clipPath>
    <clipPath
       id="o">
      <path
         id="path310"
         d="m513 669.74c0-3.037 2.463-5.5 5.5-5.5s5.5 2.463 5.5 5.5c0 3.038-2.463 5.5-5.5 5.5s-5.5-2.462-5.5-5.5" />
    </clipPath>
    <clipPath
       id="n">
      <path
         id="path313"
         d="m507 680.74c0-3.037 2.463-5.5 5.5-5.5s5.5 2.463 5.5 5.5c0 3.038-2.463 5.5-5.5 5.5s-5.5-2.462-5.5-5.5" />
    </clipPath>
    <clipPath
       id="l">
      <path
         id="path316"
         d="m520 680.74c0-3.037 2.463-5.5 5.5-5.5s5.5 2.463 5.5 5.5c0 3.038-2.463 5.5-5.5 5.5s-5.5-2.462-5.5-5.5" />
    </clipPath>
    <clipPath
       id="j">
      <path
         id="path319"
         d="m321 322.24c-4.97 0-9-4.029-9-9 0-4.97 4.03-9 9-9h45c4.971 0 9 4.03 9 9 0 4.971-4.029 9-9 9z" />
    </clipPath>
    <clipPath
       id="i">
      <path
         id="path322"
         d="m322 297.24c-4.971 0-9-4.029-9-9 0-4.97 4.029-9 9-9h45c4.971 0 9 4.03 9 9 0 4.971-4.029 9-9 9z" />
    </clipPath>
    <clipPath
       id="h-3">
      <path
         id="path325"
         d="m155 83.24h44v53h-44z" />
    </clipPath>
    <linearGradient
       gradientUnits="userSpaceOnUse"
       gradientTransform="matrix(2.1429 0 0 2.1429 -826.36 -1107.5)"
       y2="517.8"
       y1="545.8"
       x2="399.57"
       x1="399.57"
       id="b-6">
      <stop
         id="stop328"
         offset="0"
         stop-color="#3889e9" />
      <stop
         id="stop330"
         offset="1"
         stop-color="#5ea5fb" />
    </linearGradient>
    <linearGradient
       xlink:href="#b-6"
       gradientUnits="userSpaceOnUse"
       gradientTransform="matrix(2.1429 0 0 2.1429 -678.2 -1123.7)"
       y2="517.8"
       y1="545.8"
       x2="399.57"
       x1="399.57"
       id="linearGradient1969" />
    <linearGradient
       xlink:href="#b-6"
       gradientUnits="userSpaceOnUse"
       gradientTransform="matrix(2.1429 0 0 2.1429 -748.58 -1122)"
       y2="517.8"
       y1="545.8"
       x2="399.57"
       x1="399.57"
       id="linearGradient2121" />
    <linearGradient
       xlink:href="#b-6"
       gradientUnits="userSpaceOnUse"
       gradientTransform="matrix(2.1429 0 0 2.1429 -725.07 -1132.1)"
       y2="517.8"
       y1="545.8"
       x2="399.57"
       x1="399.57"
       id="linearGradient2204" />
    <linearGradient
       xlink:href="#b-6"
       gradientUnits="userSpaceOnUse"
       gradientTransform="matrix(.56696 0 0 .56696 -192.04 -314.62)"
       y2="517.8"
       y1="545.8"
       x2="399.57"
       x1="399.57"
       id="linearGradient1969-7" />
    <linearGradient
       xlink:href="#b-6"
       gradientUnits="userSpaceOnUse"
       gradientTransform="matrix(.56696 0 0 .56696 -210.66 -314.17)"
       y2="517.8"
       y1="545.8"
       x2="399.57"
       x1="399.57"
       id="linearGradient2295" />
    <linearGradient
       xlink:href="#b-6"
       gradientUnits="userSpaceOnUse"
       gradientTransform="matrix(.56696 0 0 .56696 -181.72 -304.22)"
       y2="517.8"
       y1="545.8"
       x2="399.57"
       x1="399.57"
       id="linearGradient1969-6" />
    <linearGradient
       xlink:href="#b-6"
       gradientUnits="userSpaceOnUse"
       gradientTransform="matrix(.56696 0 0 .56696 -200.34 -303.77)"
       y2="517.8"
       y1="545.8"
       x2="399.57"
       x1="399.57"
       id="linearGradient2067" />
    <filter
       color-interpolation-filters="sRGB"
       height="1.048"
       width="1.048"
       y="-.024"
       x="-.024"
       id="filter2761">
      <feGaussianBlur
         id="feGaussianBlur340"
         stdDeviation="0.14552168" />
    </filter>
    <linearGradient
       gradientTransform="matrix(3.7796,0,0,3.7796,-0.0032124,0.53085)"
       gradientUnits="userSpaceOnUse"
       y2="1.17"
       y1="15.576"
       x2="15.65"
       x1="1.3315"
       id="linearGradient1024-6">
      <stop
         id="stop343"
         offset="0"
         stop-color="#dddfe1" />
      <stop
         id="stop345"
         offset="1"
         stop-opacity=".99608"
         stop-color="#f3f4f6" />
    </linearGradient>
    <linearGradient
       id="linearGradient1057">
      <stop
         id="stop4"
         offset="0"
         stop-color="#fff" />
      <stop
         id="stop6"
         offset="1"
         stop-opacity="0"
         stop-color="#fff" />
    </linearGradient>
    <linearGradient
       gradientUnits="userSpaceOnUse"
       gradientTransform="matrix(1.5625,0,0,1.5625,0.40633,-5.1891)"
       y2="52.847"
       y1="27.545"
       x2="34.999"
       x1="34.999"
       id="linearGradient982">
      <stop
         id="stop9"
         offset="0"
         stop-color="#32b4ff" />
      <stop
         id="stop11"
         offset="1"
         stop-color="#3287ff" />
    </linearGradient>
    <style
       id="style14"
       type="text/css" />
    <style
       id="style16"
       type="text/css" />
    <linearGradient
       gradientUnits="userSpaceOnUse"
       gradientTransform="matrix(1.5625,0,0,1.5625,-9.2253,1.3231)"
       y2="43.681"
       y1="18.052"
       x2="21.314"
       x1="21.314"
       id="linearGradient1047">
      <stop
         id="stop18"
         offset="0"
         stop-color="#14dc78" />
      <stop
         id="stop20"
         offset="1"
         stop-color="#14a03c" />
    </linearGradient>
    <linearGradient
       gradientUnits="userSpaceOnUse"
       gradientTransform="matrix(1.5625,0,0,1.5625,-8.1072,-10.908)"
       y2="37.368"
       y1="12.316"
       x2="41.729"
       x1="41.729"
       id="linearGradient1049">
      <stop
         id="stop23"
         offset="0"
         stop-color="#ff3c64" />
      <stop
         id="stop25"
         offset="1"
         stop-color="#ff4628" />
    </linearGradient>
    <linearGradient
       xlink:href="#linearGradient1057"
       gradientUnits="userSpaceOnUse"
       gradientTransform="matrix(1,0,0,1.2271,0.20646,-10.975)"
       y2="39.768"
       y1="32.234"
       x2="34.427"
       x1="34.427"
       id="linearGradient1059" />
    <linearGradient
       xlink:href="#linearGradient1057"
       gradientUnits="userSpaceOnUse"
       gradientTransform="matrix(1,0,0,1.2271,-12.55,-19.793)"
       y2="39.768"
       y1="32.234"
       x2="34.427"
       x1="34.427"
       id="linearGradient1063" />
    <linearGradient
       xlink:href="#linearGradient1057"
       gradientUnits="userSpaceOnUse"
       gradientTransform="matrix(1,0,0,1.2271,5.7554,-25.761)"
       y2="39.768"
       y1="32.234"
       x2="34.427"
       x1="34.427"
       id="linearGradient1067" />
    <filter
       color-interpolation-filters="sRGB"
       height="1.048"
       width="1.048"
       y="-.024"
       x="-.024"
       id="filter2761-6">
      <feGaussianBlur
         id="feGaussianBlur31"
         stdDeviation="0.14552168" />
    </filter>
    <linearGradient
       gradientUnits="userSpaceOnUse"
       gradientTransform="matrix(3.7796,0,0,3.7796,72.4059,0.53085)"
       y2="1.17"
       y1="15.576"
       x2="15.65"
       x1="1.3315"
       id="linearGradient1024">
      <stop
         id="stop34"
         offset="0"
         stop-color="#dddfe1" />
      <stop
         id="stop36"
         offset="1"
         stop-opacity=".99608"
         stop-color="#f3f4f6" />
    </linearGradient>
    <filter
       color-interpolation-filters="sRGB"
       height="1.048"
       width="1.048"
       y="-.024"
       x="-.024"
       id="filter2761-3">
      <feGaussianBlur
         id="feGaussianBlur2"
         stdDeviation="0.14552168" />
    </filter>
    <linearGradient
       gradientUnits="userSpaceOnUse"
       gradientTransform="translate(0 -.07421)"
       y2="1.17"
       y1="15.576"
       x2="15.65"
       x1="1.3315"
       id="linearGradient1024-6-7">
      <stop
         id="stop5"
         offset="0"
         stop-color="#dddfe1" />
      <stop
         id="stop7"
         offset="1"
         stop-opacity=".99608"
         stop-color="#f3f4f6" />
    </linearGradient>
    <filter
       inkscape:collect="always"
       style="color-interpolation-filters:sRGB"
       id="filter1057"
       x="-0.027000001"
       width="1.054"
       y="-0.027000001"
       height="1.054">
      <feGaussianBlur
         inkscape:collect="always"
         stdDeviation="0.61875"
         id="feGaussianBlur1059" />
    </filter>
    <linearGradient
       inkscape:collect="always"
       xlink:href="#linearGradient1051"
       id="linearGradient1053"
       x1="-127"
       y1="60"
       x2="-72"
       y2="5"
       gradientUnits="userSpaceOnUse"
       gradientTransform="translate(131.5,-0.50999904)" />
    <linearGradient
       inkscape:collect="always"
       id="linearGradient1051">
      <stop
         style="stop-color:#dee0e2;stop-opacity:1"
         offset="0"
         id="stop1047" />
      <stop
         style="stop-color:#f1f3f5;stop-opacity:0.99607843"
         offset="1"
         id="stop1049" />
    </linearGradient>
  </defs>
  <mask
     id="mask353">
    <g
       id="g">
      <path
         id="path350"
         fill="#fff"
         d="m969.75 392.05c-1.1-4.35-2.35-9-3.65-13.6-1-3.4-2-6.85-3.15-10.5-1.6-5.15-3.4-10.5-5.3-15.85-6.45-18.25-14.15-36.05-23.15-53.65-3.8-7.4-7.95-14.95-12.3-22.4-20.3-34.5-45.8-67.2-76.35-97.75-72.6-72.6-157.15-116.65-253.65-132.05-16.25-2.6-32.8-4.4-50.05-5.35-9.7-0.55-19.85-0.85-30.1-0.85-9.35 0-18.6 0.25-27.9 0.75-118.35 6.1-220.3 51.95-305.85 137.5q-138.25 138.25-138.25 333.75c0 130.35 46.1 241.65 138.25 333.8 56.7 56.65 120.55 95.9 191.1 117.55 36.75 11.25 74.8 17.85 114.75 19.95h0.4c8.5 0.45 16.6 0.7 24.5 0.7h3c10.3 0 20.5-0.3 30.1-0.8 2.5-0.15 4.75-0.3 6.95-0.45 20.2-1.45 39.9-4.05 58.7-7.7 7.95-1.55 15.8-3.3 23.4-5.15 80.8-20.3 152.15-61.6 214.65-124.1 48.6-48.6 84.4-102.5 107.35-161.8 18.45-47.65 28.65-98.8 30.55-153.5 0.2-6.05 0.3-12.25 0.3-18.5v-3c-0.2-40.65-4.95-79.5-14.3-117z" />
    </g>
  </mask>
  <rect
     ry="15"
     y="4.4999995"
     x="4.4999995"
     height="55"
     width="55"
     id="rect1055"
     style="opacity:0.3;fill:#141414;fill-opacity:1;stroke-width:2.74436;stroke-linecap:round;filter:url(#filter1057)" />
  <rect
     style="fill:url(#linearGradient1053);fill-opacity:1;stroke-width:2.74436;stroke-linecap:round"
     id="rect1045"
     width="54.999996"
     height="54.999996"
     x="4.5000019"
     y="4.5000019"
     ry="14.999999" />
  <circle
     id="circle355"
     fill="#5e4aa6"
     r="0"
     cy="-1241.6"
     cx="-1248.7" />
  <g
     id="g363"
     transform="matrix(1.3334 0 0 -1.3334 356 999.52)">
    <g
       id="g361"
       clip-path="url(#dk)">
      <g
         id="g359"
         transform="translate(506.13,1122.7)">
        <path
           id="path357"
           fill-rule="evenodd"
           fill="#fff"
           d="m0 0h39.223c6.628 0 12-5.372 12-12v-42.595c0-6.627-5.372-12-12-12h-39.223c-6.628 0-12 5.373-12 12v42.595c0 6.628 5.372 12 12 12" />
      </g>
    </g>
  </g>
  <g
     id="g371"
     transform="matrix(1.3334 0 0 -1.3334 356 999.52)">
    <g
       id="g369"
       clip-path="url(#dj)">
      <g
         id="g367"
         transform="translate(583.19,1131.6)">
        <path
           id="path365"
           fill-rule="evenodd"
           fill="#fff"
           d="m0 0c0 4.421 3.585 8.004 8.004 8.004h85.992c4.421 0 8.004-3.585 8.004-8.004v-85.992c0-4.421-3.585-8.004-8.004-8.004h-85.992c-4.421 0-8.004 3.585-8.004 8.004z" />
      </g>
    </g>
  </g>
  <g
     id="g379"
     transform="matrix(1.3334 0 0 -1.3334 356 999.52)">
    <g
       id="g377"
       clip-path="url(#di)">
      <g
         id="g375"
         transform="translate(689.19,1066.7)">
        <path
           id="path373"
           fill-rule="evenodd"
           fill="#fff"
           d="m0 0v-21.139c0-4.421-3.585-8.004-8.004-8.004h-85.992c-4.421 0-8.004 3.585-8.004 8.004v21.139z" />
      </g>
    </g>
  </g>
  <g
     id="g387"
     transform="matrix(1.3334 0 0 -1.3334 356 999.52)">
    <g
       id="g385"
       clip-path="url(#dh)">
      <g
         id="g383"
         clip-path="url(#dg)">
        <path
           id="path381"
           fill-rule="evenodd"
           fill="#fff"
           d="m590.19 1067.7h104v-31.143h-104zm103-1v-21.14c0-4.42-3.585-8.003-8.004-8.003h-85.993c-4.42 0-8.003 3.585-8.003 8.003v21.14z" />
      </g>
    </g>
  </g>
  <g
     id="g395"
     transform="matrix(1.3334 0 0 -1.3334 356 999.52)">
    <g
       id="g393"
       clip-path="url(#df)">
      <g
         id="g391"
         transform="translate(791.69,1121.7)">
        <path
           id="path389"
           fill-rule="evenodd"
           fill="#fff"
           d="m0 0c-1.878 0-3.4 1.522-3.4 3.4s1.522 3.4 3.4 3.4 3.4-1.522 3.4-3.4-1.522-3.4-3.4-3.4m0 1.7c0.938 0 1.7 0.761 1.7 1.7s-0.762 1.7-1.7 1.7-1.7-0.761-1.7-1.7 0.762-1.7 1.7-1.7" />
      </g>
    </g>
  </g>
  <g
     id="g403"
     transform="matrix(1.3334 0 0 -1.3334 356 999.52)">
    <g
       id="g401"
       clip-path="url(#de)">
      <g
         id="g399"
         transform="translate(849.49,1121.7)">
        <path
           id="path397"
           fill-rule="evenodd"
           fill="#fff"
           d="m0 0c-1.878 0-3.399 1.522-3.399 3.4s1.521 3.4 3.399 3.4 3.4-1.522 3.4-3.4-1.522-3.4-3.4-3.4m0 1.7c0.939 0 1.7 0.761 1.7 1.7s-0.761 1.7-1.7 1.7c-0.938 0-1.7-0.761-1.7-1.7s0.762-1.7 1.7-1.7" />
      </g>
    </g>
  </g>
  <g
     id="g411"
     transform="matrix(1.3334 0 0 -1.3334 356 999.52)">
    <g
       id="g409"
       clip-path="url(#dd)">
      <g
         id="g407"
         transform="translate(681.27,1125.1)">
        <path
           id="path405"
           fill-rule="evenodd"
           fill="#fff"
           d="m0 0h3.401c0.45-14.629 12.45-26.35 27.188-26.35 14.737 0 26.737 11.721 27.186 26.35h3.402c-0.45-16.507-13.973-29.75-30.588-29.75-16.616 0-30.139 13.243-30.589 29.75" />
      </g>
    </g>
  </g>
  <g
     id="g419"
     transform="matrix(1.3334 0 0 -1.3334 356 999.52)">
    <g
       id="g417"
       clip-path="url(#dc)">
      <g
         id="g415"
         transform="translate(78.186,943.59)">
        <path
           id="path413"
           fill-rule="evenodd"
           fill="#fff"
           d="m0 0c0 4.414 3.585 7.992 8.004 7.992h85.992c4.421 0 8.004-3.575 8.004-7.992v-86.137c0-4.414-3.585-7.992-8.004-7.992h-85.992c-4.421 0-8.004 3.574-8.004 7.992z" />
      </g>
    </g>
  </g>
  <g
     id="g427"
     transform="matrix(1.3334 0 0 -1.3334 356 999.52)">
    <g
       id="g425"
       clip-path="url(#db)">
      <g
         id="g423"
         transform="translate(632.23,888.04)">
        <path
           id="path421"
           fill-rule="evenodd"
           fill="#fff"
           d="m0 0c3.232 0 5.853 2.62 5.853 5.853 0 3.232-2.621 5.852-5.853 5.852-3.231 0-5.853-2.62-5.853-5.852 0-3.233 2.622-5.853 5.853-5.853" />
      </g>
    </g>
  </g>
  <g
     id="g435"
     transform="matrix(1.3334 0 0 -1.3334 356 999.52)">
    <g
       id="g433"
       clip-path="url(#da)">
      <g
         id="g431"
         transform="translate(652.3,888.04)">
        <path
           id="path429"
           fill-rule="evenodd"
           fill="#fff"
           d="m0 0c3.231 0 5.852 2.62 5.852 5.853 0 3.232-2.621 5.852-5.852 5.852-3.232 0-5.853-2.62-5.853-5.852 0-3.233 2.621-5.853 5.853-5.853" />
      </g>
    </g>
  </g>
  <g
     id="g443"
     transform="matrix(1.3334 0 0 -1.3334 356 999.52)">
    <g
       id="g441"
       clip-path="url(#cz)">
      <g
         id="g439"
         transform="translate(672.37,888.04)">
        <path
           id="path437"
           fill-rule="evenodd"
           fill="#fff"
           d="m0 0c3.231 0 5.853 2.62 5.853 5.853 0 3.232-2.622 5.852-5.853 5.852-3.232 0-5.853-2.62-5.853-5.852 0-3.233 2.621-5.853 5.853-5.853" />
      </g>
    </g>
  </g>
  <g
     id="g451"
     transform="matrix(1.3334 0 0 -1.3334 356 999.52)">
    <g
       id="g449"
       clip-path="url(#cy)">
      <g
         id="g447"
         transform="translate(583.19,900.58)">
        <path
           id="path445"
           fill-rule="evenodd"
           fill="#fff"
           d="m0 0c0 28.167 22.827 51 51 51 28.166 0 51-22.827 51-51 0-28.167-22.827-51-51-51-28.166 0-51 22.827-51 51" />
      </g>
    </g>
  </g>
  <g
     id="g459"
     transform="matrix(1.3334 0 0 -1.3334 356 999.52)">
    <g
       id="g457"
       clip-path="url(#cx)">
      <g
         id="g455"
         transform="translate(612.94,900.58)">
        <path
           id="path453"
           fill-rule="evenodd"
           fill="#fff"
           d="m0 0c0 24.88 20.164 45.05 45.05 45.05 24.881 0 45.05-20.164 45.05-45.05 0-24.88-20.164-45.05-45.05-45.05-24.88 0-45.05 20.164-45.05 45.05" />
      </g>
    </g>
  </g>
  <g
     id="g467"
     transform="matrix(1.3334 0 0 -1.3334 356 999.52)">
    <g
       id="g465"
       clip-path="url(#cw)">
      <g
         id="g463"
         transform="translate(642.69,900.58)">
        <path
           id="path461"
           fill-rule="evenodd"
           fill="#fff"
           d="m0 0c0 21.594 17.501 39.1 39.1 39.1 21.594 0 39.1-17.501 39.1-39.1 0-21.594-17.501-39.1-39.1-39.1-21.594 0-39.1 17.501-39.1 39.1" />
      </g>
    </g>
  </g>
  <g
     id="g475"
     transform="matrix(1.3334 0 0 -1.3334 356 999.52)">
    <g
       id="g473"
       clip-path="url(#cv)">
      <g
         id="g471"
         transform="translate(719.17,880.17)">
        <path
           id="path469"
           fill-rule="evenodd"
           fill="#fff"
           d="m0 0c3.16 6.546 9.861 11.062 17.616 11.062 8.78 0 16.209-5.788 18.678-13.756 6.748-1.015 11.923-6.838 11.923-13.869 0-7.604-6.051-13.794-13.601-14.019v-6e-3h-35.699v0.093c-7.65 0.846-13.601 7.332-13.601 15.207 0 8.244 6.52 14.965 14.684 15.288" />
      </g>
    </g>
  </g>
  <g
     id="g483"
     transform="matrix(1.3334 0 0 -1.3334 356 999.52)">
    <g
       id="g481"
       clip-path="url(#cu)">
      <g
         id="g479"
         transform="translate(12.186,693.43)">
        <path
           id="path477"
           fill-rule="evenodd"
           fill="#fff"
           d="m0 0v-26.846c0-4.421-3.585-8.004-8.004-8.004h-85.992c-4.421 0-8.004 3.585-8.004 8.004v26.846h5.1v11.9h-5.1v47.246c0 4.42 3.585 8.004 8.004 8.004h85.992c4.421 0 8.004-3.586 8.004-8.004v-47.246h-5.1v-11.9z" />
      </g>
    </g>
  </g>
  <g
     id="g491"
     transform="matrix(1.3334 0 0 -1.3334 356 999.52)">
    <g
       id="g489"
       clip-path="url(#ct)">
      <g
         id="g487"
         transform="translate(464.19,659.58)">
        <path
           id="path485"
           fill-rule="evenodd"
           fill="#fff"
           d="m0 0c28.166 0 51 22.833 51 51 0 28.166-22.834 51-51 51s-51-22.834-51-51c0-28.167 22.834-51 51-51" />
      </g>
    </g>
  </g>
  <g
     id="g499"
     transform="matrix(1.3334 0 0 -1.3334 356 999.52)">
    <g
       id="g497"
       clip-path="url(#cs)">
      <g
         id="g495"
         transform="translate(477.79,662.98)">
        <path
           id="path493"
           fill-rule="evenodd"
           fill="#fff"
           d="m0 0c26.289 0 47.601 21.311 47.601 47.6s-21.312 47.6-47.601 47.6c-26.288 0-47.6-21.311-47.6-47.6s21.312-47.6 47.6-47.6" />
      </g>
    </g>
  </g>
  <g
     id="g507"
     transform="matrix(1.3334 0 0 -1.3334 356 999.52)">
    <g
       id="g505"
       clip-path="url(#co)">
      <g
         id="g503"
         transform="translate(451.38,563.66)">
        <path
           id="path501"
           fill-rule="evenodd"
           fill="#fff"
           d="m0 0c1.018 0.434 2.133 1.633 2.489 2.668l2.192 6.371c0.357 1.039 1.538 1.883 2.648 1.883h10.947c1.106 0 2.295-0.854 2.65-1.885l2.149-6.25c0.359-1.041 1.474-2.228 2.488-2.652l6.613-2.764c1.016-0.426 2.639-0.379 3.639 0.108l5.966 2.912c0.993 0.486 2.429 0.25 3.213-0.536l7.742-7.742c0.782-0.781 1.025-2.213 0.536-3.213l-3.001-6.15c-0.485-0.992-0.539-2.633-0.124-3.654l2.553-6.283c0.416-1.026 1.601-2.149 2.653-2.51l6.551-2.254c1.049-0.362 1.899-1.543 1.899-2.653v-10.949c0-1.103-0.855-2.295-1.892-2.65l-6.662-2.293c-1.045-0.359-2.237-1.484-2.653-2.49l-2.528-6.106c-0.42-1.015-0.365-2.652 0.116-3.637l3.089-6.33c0.485-0.992 0.248-2.425-0.537-3.211l-7.742-7.742c-0.781-0.781-2.222-1.019-3.213-0.537l-6.272 3.063c-0.994 0.484-2.623 0.537-3.655 0.109l-6.151-2.553c-1.024-0.424-2.147-1.617-2.506-2.66l-2.269-6.598c-0.36-1.042-1.541-1.89-2.652-1.89h-10.947c-1.105 0-2.29 0.842-2.65 1.889l-2.313 6.72c-0.358 1.043-1.469 2.237-2.491 2.67l-5.926 2.514c-1.017 0.43-2.649 0.385-3.644-0.1l-6.477-3.162c-0.996-0.484-2.432-0.25-3.217 0.535l-7.742 7.742c-0.781 0.782-1.019 2.223-0.539 3.207l3.274 6.709c0.484 0.991 0.539 2.616 0.116 3.645l-2.281 5.563c-0.419 1.023-1.613 2.146-2.655 2.503l-7.087 2.438c-1.046 0.361-1.894 1.543-1.894 2.652v10.949c0 1.104 0.845 2.291 1.889 2.651l6.999 2.406c1.043 0.36 2.221 1.475 2.634 2.5l2.325 5.776c0.412 1.021 0.349 2.662-0.132 3.648l-3.186 6.523c-0.484 0.995-0.247 2.428 0.537 3.213l7.742 7.742c0.782 0.782 2.214 1.024 3.207 0.54l6.192-3.022c0.99-0.484 2.614-0.525 3.634-0.09z" />
      </g>
    </g>
  </g>
  <g
     id="g515"
     transform="matrix(1.3334 0 0 -1.3334 356 999.52)">
    <g
       id="g513"
       clip-path="url(#ck)">
      <g
         id="g511"
         transform="translate(-39.814,280.58)">
        <path
           id="path509"
           fill-rule="evenodd"
           fill="#fff"
           d="m0 0c28.167 0 51 22.834 51 51s-22.833 51-51 51-51-22.834-51-51 22.833-51 51-51" />
      </g>
    </g>
  </g>
  <g
     id="g523"
     transform="matrix(1.3334 0 0 -1.3334 356 999.52)">
    <g
       id="g521"
       clip-path="url(#ch)">
      <g
         id="g519"
         transform="translate(184.95,368.74)">
        <path
           id="path517"
           fill-rule="evenodd"
           fill="#fff"
           d="m0 0c3.018 0 5.464 2.447 5.464 5.465 0 3.017-2.446 5.465-5.464 5.465-3.019 0-5.465-2.448-5.465-5.465 0-3.018 2.446-5.465 5.465-5.465" />
      </g>
    </g>
  </g>
  <g
     id="g531"
     transform="matrix(1.3334 0 0 -1.3334 356 999.52)">
    <g
       id="g529"
       clip-path="url(#cg)">
      <g
         id="g527"
         transform="translate(78.214,283.5)">
        <path
           id="path525"
           fill-rule="evenodd"
           fill="#fff"
           d="m0 0c6.84 0 12.385 5.545 12.385 12.385 0 6.842-5.545 12.386-12.385 12.386-6.841 0-12.386-5.544-12.386-12.386 0-6.84 5.545-12.385 12.386-12.385" />
      </g>
    </g>
  </g>
  <g
     id="g539"
     transform="matrix(1.3334 0 0 -1.3334 356 999.52)">
    <g
       id="g537"
       clip-path="url(#ce)">
      <g
         id="g535"
         transform="translate(438.39,330.58)">
        <path
           id="path533"
           fill-rule="evenodd"
           fill="#fff"
           d="m0 0c7.98 0 14.45 6.469 14.45 14.449 0 7.981-6.47 14.451-14.45 14.451s-14.45-6.47-14.45-14.451c0-7.98 6.47-14.449 14.45-14.449" />
      </g>
    </g>
  </g>
  <g
     id="g547"
     transform="matrix(1.3334 0 0 -1.3334 356 999.52)">
    <g
       id="g545"
       clip-path="url(#cb)">
      <g
         id="g543"
         transform="translate(-16.614,97.381)">
        <path
           id="path541"
           fill-rule="evenodd"
           fill="#fff"
           d="m0 0c24.411 0 44.2 19.789 44.2 44.201 0 24.41-19.789 44.199-44.2 44.199s-44.2-19.789-44.2-44.199c0-24.412 19.789-44.201 44.2-44.201" />
      </g>
    </g>
  </g>
  <g
     id="g555"
     transform="matrix(1.3334 0 0 -1.3334 356 999.52)">
    <g
       id="g553"
       clip-path="url(#by)">
      <g
         id="g551"
         clip-path="url(#bx)">
        <path
           id="path549"
           fill-rule="evenodd"
           fill="#fff"
           d="m242.19 195.58h108v-108h-108zm54-105c28.166 0 51 22.834 51 51s-22.834 51-51 51-51-22.834-51-51 22.834-51 51-51" />
      </g>
    </g>
  </g>
  <g
     id="g563"
     transform="matrix(1.3334 0 0 -1.3334 356 999.52)">
    <g
       id="g561"
       clip-path="url(#bw)">
      <g
         id="g559"
         transform="translate(407.78,167.81)">
        <path
           id="path557"
           fill-rule="evenodd"
           fill="#fff"
           d="m0 0 23.029-13.297v-26.592l-23.029-13.297-23.03 13.297v26.592z" />
      </g>
    </g>
  </g>
  <g
     id="g571"
     transform="matrix(1.3334 0 0 -1.3334 356 999.52)">
    <g
       id="g569"
       clip-path="url(#bt)">
      <g
         id="g567"
         transform="translate(751.51,132.06)">
        <path
           id="path565"
           fill="#fff"
           d="m0 0h5.475v16.178c0 14.568-11.854 26.496-26.35 26.496-14.488 0-26.351-11.92-26.351-26.496v-18.555h5.484v18.01c0 13.008 7.929 21.517 20.875 21.517 12.937 0 20.875-8.509 20.875-21.517v-15.633z" />
      </g>
    </g>
  </g>
  <g
     id="g579"
     transform="matrix(1.3334 0 0 -1.3334 356 999.52)">
    <g
       id="g577"
       clip-path="url(#bs)">
      <g
         id="g575"
         transform="translate(691.13,139.02)">
        <path
           id="path573"
           fill="#fff"
           d="m0 0c-6.089 0-14.043-4.908-14.043-10.916v-6.209c0-6 7.954-10.916 14.043-10.916h2.34c0.45 0 0.81 0.355 0.81 0.799v26.451c0 0.443-0.36 0.799-0.81 0.799zm0.72-26.564c-0.45 0-0.81 0.355-0.81 0.798v23.553c0 0.445 0.36 0.801 0.81 0.801s0.81-0.356 0.81-0.801v-23.553c0-0.443-0.36-0.798-0.81-0.798m34.944 26.564h-2.341c-0.45 0-0.81-0.355-0.81-0.799v-26.443c0-0.444 0.36-0.799 0.81-0.799h2.341c6.08 0 14.043 4.908 14.043 10.916v6.209c0 6.008-7.955 10.916-14.043 10.916m-0.859-26.564c-0.451 0-0.811 0.355-0.811 0.798v23.553c0 0.445 0.36 0.801 0.811 0.801 0.45 0 0.809-0.356 0.809-0.801v-23.553c0-0.443-0.359-0.798-0.809-0.798" />
      </g>
    </g>
  </g>
  <g
     id="g587"
     transform="matrix(1.3334 0 0 -1.3334 359.91 955.53)">
    <g
       id="g585"
       clip-path="url(#bo)">
      <g
         id="g583"
         transform="translate(506.13,1122.7)">
        <path
           id="path581"
           fill-rule="evenodd"
           fill="#fff"
           d="m0 0h39.223c6.628 0 12-5.372 12-12v-42.595c0-6.627-5.372-12-12-12h-39.223c-6.628 0-12 5.373-12 12v42.595c0 6.628 5.372 12 12 12" />
      </g>
    </g>
  </g>
  <g
     id="g595"
     transform="matrix(1.3334 0 0 -1.3334 359.91 955.53)">
    <g
       id="g593"
       clip-path="url(#bn)">
      <g
         id="g591"
         transform="translate(583.19,1131.6)">
        <path
           id="path589"
           fill-rule="evenodd"
           fill="#fff"
           d="m0 0c0 4.421 3.585 8.004 8.004 8.004h85.992c4.421 0 8.004-3.585 8.004-8.004v-85.992c0-4.421-3.585-8.004-8.004-8.004h-85.992c-4.421 0-8.004 3.585-8.004 8.004z" />
      </g>
    </g>
  </g>
  <g
     id="g603"
     transform="matrix(1.3334 0 0 -1.3334 359.91 955.53)">
    <g
       id="g601"
       clip-path="url(#bm)">
      <g
         id="g599"
         transform="translate(689.19,1066.7)">
        <path
           id="path597"
           fill-rule="evenodd"
           fill="#fff"
           d="m0 0v-21.139c0-4.421-3.585-8.004-8.004-8.004h-85.992c-4.421 0-8.004 3.585-8.004 8.004v21.139z" />
      </g>
    </g>
  </g>
  <g
     id="g611"
     transform="matrix(1.3334 0 0 -1.3334 359.91 955.53)">
    <g
       id="g609"
       clip-path="url(#bl)">
      <g
         id="g607"
         clip-path="url(#bk)">
        <path
           id="path605"
           fill-rule="evenodd"
           fill="#fff"
           d="m590.19 1067.7h104v-31.143h-104zm103-1v-21.14c0-4.42-3.585-8.003-8.004-8.003h-85.993c-4.42 0-8.003 3.585-8.003 8.003v21.14z" />
      </g>
    </g>
  </g>
  <g
     id="g619"
     transform="matrix(1.3334 0 0 -1.3334 359.91 955.53)">
    <g
       id="g617"
       clip-path="url(#bj)">
      <g
         id="g615"
         transform="translate(791.69,1121.7)">
        <path
           id="path613"
           fill-rule="evenodd"
           fill="#fff"
           d="m0 0c-1.878 0-3.4 1.522-3.4 3.4s1.522 3.4 3.4 3.4 3.4-1.522 3.4-3.4-1.522-3.4-3.4-3.4m0 1.7c0.938 0 1.7 0.761 1.7 1.7s-0.762 1.7-1.7 1.7-1.7-0.761-1.7-1.7 0.762-1.7 1.7-1.7" />
      </g>
    </g>
  </g>
  <g
     id="g627"
     transform="matrix(1.3334 0 0 -1.3334 359.91 955.53)">
    <g
       id="g625"
       clip-path="url(#bi)">
      <g
         id="g623"
         transform="translate(849.49,1121.7)">
        <path
           id="path621"
           fill-rule="evenodd"
           fill="#fff"
           d="m0 0c-1.878 0-3.399 1.522-3.399 3.4s1.521 3.4 3.399 3.4 3.4-1.522 3.4-3.4-1.522-3.4-3.4-3.4m0 1.7c0.939 0 1.7 0.761 1.7 1.7s-0.761 1.7-1.7 1.7c-0.938 0-1.7-0.761-1.7-1.7s0.762-1.7 1.7-1.7" />
      </g>
    </g>
  </g>
  <g
     id="g635"
     transform="matrix(1.3334 0 0 -1.3334 359.91 955.53)">
    <g
       id="g633"
       clip-path="url(#bh)">
      <g
         id="g631"
         transform="translate(681.27,1125.1)">
        <path
           id="path629"
           fill-rule="evenodd"
           fill="#fff"
           d="m0 0h3.401c0.45-14.629 12.45-26.35 27.188-26.35 14.737 0 26.737 11.721 27.186 26.35h3.402c-0.45-16.507-13.973-29.75-30.588-29.75-16.616 0-30.139 13.243-30.589 29.75" />
      </g>
    </g>
  </g>
  <g
     id="g643"
     transform="matrix(1.3334 0 0 -1.3334 359.91 955.53)">
    <g
       id="g641"
       clip-path="url(#bf)">
      <g
         id="g639"
         transform="translate(78.186,943.59)">
        <path
           id="path637"
           fill-rule="evenodd"
           fill="#fff"
           d="m0 0c0 4.414 3.585 7.992 8.004 7.992h85.992c4.421 0 8.004-3.575 8.004-7.992v-86.137c0-4.414-3.585-7.992-8.004-7.992h-85.992c-4.421 0-8.004 3.574-8.004 7.992z" />
      </g>
    </g>
  </g>
  <g
     id="g651"
     transform="matrix(1.3334 0 0 -1.3334 359.91 955.53)">
    <g
       id="g649"
       clip-path="url(#ay)">
      <g
         id="g647"
         transform="translate(632.23,888.04)">
        <path
           id="path645"
           fill-rule="evenodd"
           fill="#fff"
           d="m0 0c3.232 0 5.853 2.62 5.853 5.853 0 3.232-2.621 5.852-5.853 5.852-3.231 0-5.853-2.62-5.853-5.852 0-3.233 2.622-5.853 5.853-5.853" />
      </g>
    </g>
  </g>
  <g
     id="g659"
     transform="matrix(1.3334 0 0 -1.3334 359.91 955.53)">
    <g
       id="g657"
       clip-path="url(#ax)">
      <g
         id="g655"
         transform="translate(652.3,888.04)">
        <path
           id="path653"
           fill-rule="evenodd"
           fill="#fff"
           d="m0 0c3.231 0 5.852 2.62 5.852 5.853 0 3.232-2.621 5.852-5.852 5.852-3.232 0-5.853-2.62-5.853-5.852 0-3.233 2.621-5.853 5.853-5.853" />
      </g>
    </g>
  </g>
  <g
     id="g667"
     transform="matrix(1.3334 0 0 -1.3334 359.91 955.53)">
    <g
       id="g665"
       clip-path="url(#av)">
      <g
         id="g663"
         transform="translate(672.37,888.04)">
        <path
           id="path661"
           fill-rule="evenodd"
           fill="#fff"
           d="m0 0c3.231 0 5.853 2.62 5.853 5.853 0 3.232-2.622 5.852-5.853 5.852-3.232 0-5.853-2.62-5.853-5.852 0-3.233 2.621-5.853 5.853-5.853" />
      </g>
    </g>
  </g>
  <g
     id="g675"
     transform="matrix(1.3334 0 0 -1.3334 359.91 955.53)">
    <g
       id="g673"
       clip-path="url(#at)">
      <g
         id="g671"
         transform="translate(583.19,900.58)">
        <path
           id="path669"
           fill-rule="evenodd"
           fill="#fff"
           d="m0 0c0 28.167 22.827 51 51 51 28.166 0 51-22.827 51-51 0-28.167-22.827-51-51-51-28.166 0-51 22.827-51 51" />
      </g>
    </g>
  </g>
  <g
     id="g683"
     transform="matrix(1.3334 0 0 -1.3334 359.91 955.53)">
    <g
       id="g681"
       clip-path="url(#as)">
      <g
         id="g679"
         transform="translate(612.94,900.58)">
        <path
           id="path677"
           fill-rule="evenodd"
           fill="#fff"
           d="m0 0c0 24.88 20.164 45.05 45.05 45.05 24.881 0 45.05-20.164 45.05-45.05 0-24.88-20.164-45.05-45.05-45.05-24.88 0-45.05 20.164-45.05 45.05" />
      </g>
    </g>
  </g>
  <g
     id="g691"
     transform="matrix(1.3334 0 0 -1.3334 359.91 955.53)">
    <g
       id="g689"
       clip-path="url(#ar)">
      <g
         id="g687"
         transform="translate(642.69,900.58)">
        <path
           id="path685"
           fill-rule="evenodd"
           fill="#fff"
           d="m0 0c0 21.594 17.501 39.1 39.1 39.1 21.594 0 39.1-17.501 39.1-39.1 0-21.594-17.501-39.1-39.1-39.1-21.594 0-39.1 17.501-39.1 39.1" />
      </g>
    </g>
  </g>
  <g
     id="g699"
     transform="matrix(1.3334 0 0 -1.3334 359.91 955.53)">
    <g
       id="g697"
       clip-path="url(#aq)">
      <g
         id="g695"
         transform="translate(719.17,880.17)">
        <path
           id="path693"
           fill-rule="evenodd"
           fill="#fff"
           d="m0 0c3.16 6.546 9.861 11.062 17.616 11.062 8.78 0 16.209-5.788 18.678-13.756 6.748-1.015 11.923-6.838 11.923-13.869 0-7.604-6.051-13.794-13.601-14.019v-6e-3h-35.699v0.093c-7.65 0.846-13.601 7.332-13.601 15.207 0 8.244 6.52 14.965 14.684 15.288" />
      </g>
    </g>
  </g>
  <g
     id="g707"
     transform="matrix(1.3334 0 0 -1.3334 359.91 955.53)">
    <g
       id="g705"
       clip-path="url(#ap)">
      <g
         id="g703"
         transform="translate(12.186,693.43)">
        <path
           id="path701"
           fill-rule="evenodd"
           fill="#fff"
           d="m0 0v-26.846c0-4.421-3.585-8.004-8.004-8.004h-85.992c-4.421 0-8.004 3.585-8.004 8.004v26.846h5.1v11.9h-5.1v47.246c0 4.42 3.585 8.004 8.004 8.004h85.992c4.421 0 8.004-3.586 8.004-8.004v-47.246h-5.1v-11.9z" />
      </g>
    </g>
  </g>
  <g
     id="g715"
     transform="matrix(1.3334 0 0 -1.3334 359.91 955.53)">
    <g
       id="g713"
       clip-path="url(#al)">
      <g
         id="g711"
         transform="translate(464.19,659.58)">
        <path
           id="path709"
           fill-rule="evenodd"
           fill="#fff"
           d="m0 0c28.166 0 51 22.833 51 51 0 28.166-22.834 51-51 51s-51-22.834-51-51c0-28.167 22.834-51 51-51" />
      </g>
    </g>
  </g>
  <g
     id="g723"
     transform="matrix(1.3334 0 0 -1.3334 359.91 955.53)">
    <g
       id="g721"
       clip-path="url(#ak)">
      <g
         id="g719"
         transform="translate(477.79,662.98)">
        <path
           id="path717"
           fill-rule="evenodd"
           fill="#fff"
           d="m0 0c26.289 0 47.601 21.311 47.601 47.6s-21.312 47.6-47.601 47.6c-26.288 0-47.6-21.311-47.6-47.6s21.312-47.6 47.6-47.6" />
      </g>
    </g>
  </g>
  <g
     id="g731"
     transform="matrix(1.3334 0 0 -1.3334 359.91 955.53)">
    <g
       id="g729"
       clip-path="url(#ai)">
      <g
         id="g727"
         transform="translate(451.38,563.66)">
        <path
           id="path725"
           fill-rule="evenodd"
           fill="#fff"
           d="m0 0c1.018 0.434 2.133 1.633 2.489 2.668l2.192 6.371c0.357 1.039 1.538 1.883 2.648 1.883h10.947c1.106 0 2.295-0.854 2.65-1.885l2.149-6.25c0.359-1.041 1.474-2.228 2.488-2.652l6.613-2.764c1.016-0.426 2.639-0.379 3.639 0.108l5.966 2.912c0.993 0.486 2.429 0.25 3.213-0.536l7.742-7.742c0.782-0.781 1.025-2.213 0.536-3.213l-3.001-6.15c-0.485-0.992-0.539-2.633-0.124-3.654l2.553-6.283c0.416-1.026 1.601-2.149 2.653-2.51l6.551-2.254c1.049-0.362 1.899-1.543 1.899-2.653v-10.949c0-1.103-0.855-2.295-1.892-2.65l-6.662-2.293c-1.045-0.359-2.237-1.484-2.653-2.49l-2.528-6.106c-0.42-1.015-0.365-2.652 0.116-3.637l3.089-6.33c0.485-0.992 0.248-2.425-0.537-3.211l-7.742-7.742c-0.781-0.781-2.222-1.019-3.213-0.537l-6.272 3.063c-0.994 0.484-2.623 0.537-3.655 0.109l-6.151-2.553c-1.024-0.424-2.147-1.617-2.506-2.66l-2.269-6.598c-0.36-1.042-1.541-1.89-2.652-1.89h-10.947c-1.105 0-2.29 0.842-2.65 1.889l-2.313 6.72c-0.358 1.043-1.469 2.237-2.491 2.67l-5.926 2.514c-1.017 0.43-2.649 0.385-3.644-0.1l-6.477-3.162c-0.996-0.484-2.432-0.25-3.217 0.535l-7.742 7.742c-0.781 0.782-1.019 2.223-0.539 3.207l3.274 6.709c0.484 0.991 0.539 2.616 0.116 3.645l-2.281 5.563c-0.419 1.023-1.613 2.146-2.655 2.503l-7.087 2.438c-1.046 0.361-1.894 1.543-1.894 2.652v10.949c0 1.104 0.845 2.291 1.889 2.651l6.999 2.406c1.043 0.36 2.221 1.475 2.634 2.5l2.325 5.776c0.412 1.021 0.349 2.662-0.132 3.648l-3.186 6.523c-0.484 0.995-0.247 2.428 0.537 3.213l7.742 7.742c0.782 0.782 2.214 1.024 3.207 0.54l6.192-3.022c0.99-0.484 2.614-0.525 3.634-0.09z" />
      </g>
    </g>
  </g>
  <g
     id="g739"
     transform="matrix(1.3334 0 0 -1.3334 359.91 955.53)">
    <g
       id="g737"
       clip-path="url(#ag)">
      <g
         id="g735"
         transform="translate(-39.814,280.58)">
        <path
           id="path733"
           fill-rule="evenodd"
           fill="#fff"
           d="m0 0c28.167 0 51 22.834 51 51s-22.833 51-51 51-51-22.834-51-51 22.833-51 51-51" />
      </g>
    </g>
  </g>
  <g
     id="g747"
     transform="matrix(1.3334 0 0 -1.3334 359.91 955.53)">
    <g
       id="g745"
       clip-path="url(#af)">
      <g
         id="g743"
         transform="translate(184.95,368.74)">
        <path
           id="path741"
           fill-rule="evenodd"
           fill="#fff"
           d="m0 0c3.018 0 5.464 2.447 5.464 5.465 0 3.017-2.446 5.465-5.464 5.465-3.019 0-5.465-2.448-5.465-5.465 0-3.018 2.446-5.465 5.465-5.465" />
      </g>
    </g>
  </g>
  <g
     id="g755"
     transform="matrix(1.3334 0 0 -1.3334 359.91 955.53)">
    <g
       id="g753"
       clip-path="url(#ae)">
      <g
         id="g751"
         transform="translate(78.214,283.5)">
        <path
           id="path749"
           fill-rule="evenodd"
           fill="#fff"
           d="m0 0c6.84 0 12.385 5.545 12.385 12.385 0 6.842-5.545 12.386-12.385 12.386-6.841 0-12.386-5.544-12.386-12.386 0-6.84 5.545-12.385 12.386-12.385" />
      </g>
    </g>
  </g>
  <g
     id="g763"
     transform="matrix(1.3334 0 0 -1.3334 359.91 955.53)">
    <g
       id="g761"
       clip-path="url(#ab)">
      <g
         id="g759"
         transform="translate(438.39,330.58)">
        <path
           id="path757"
           fill-rule="evenodd"
           fill="#fff"
           d="m0 0c7.98 0 14.45 6.469 14.45 14.449 0 7.981-6.47 14.451-14.45 14.451s-14.45-6.47-14.45-14.451c0-7.98 6.47-14.449 14.45-14.449" />
      </g>
    </g>
  </g>
  <g
     id="g771"
     transform="matrix(1.3334 0 0 -1.3334 359.91 955.53)">
    <g
       id="g769"
       clip-path="url(#y)">
      <g
         id="g767"
         transform="translate(-16.614,97.381)">
        <path
           id="path765"
           fill-rule="evenodd"
           fill="#fff"
           d="m0 0c24.411 0 44.2 19.789 44.2 44.201 0 24.41-19.789 44.199-44.2 44.199s-44.2-19.789-44.2-44.199c0-24.412 19.789-44.201 44.2-44.201" />
      </g>
    </g>
  </g>
  <g
     id="g779"
     transform="matrix(1.3334 0 0 -1.3334 359.91 955.53)">
    <g
       id="g777"
       clip-path="url(#v)">
      <g
         id="g775"
         clip-path="url(#u)">
        <path
           id="path773"
           fill-rule="evenodd"
           fill="#fff"
           d="m242.19 195.58h108v-108h-108zm54-105c28.166 0 51 22.834 51 51s-22.834 51-51 51-51-22.834-51-51 22.834-51 51-51" />
      </g>
    </g>
  </g>
  <g
     id="g787"
     transform="matrix(1.3334 0 0 -1.3334 359.91 955.53)">
    <g
       id="g785"
       clip-path="url(#t)">
      <g
         id="g783"
         transform="translate(407.78,167.81)">
        <path
           id="path781"
           fill-rule="evenodd"
           fill="#fff"
           d="m0 0 23.029-13.297v-26.592l-23.029-13.297-23.03 13.297v26.592z" />
      </g>
    </g>
  </g>
  <g
     id="g795"
     transform="matrix(1.3334 0 0 -1.3334 359.91 955.53)">
    <g
       id="g793"
       clip-path="url(#m)">
      <g
         id="g791"
         transform="translate(751.51,132.06)">
        <path
           id="path789"
           fill="#fff"
           d="m0 0h5.475v16.178c0 14.568-11.854 26.496-26.35 26.496-14.488 0-26.351-11.92-26.351-26.496v-18.555h5.484v18.01c0 13.008 7.929 21.517 20.875 21.517 12.937 0 20.875-8.509 20.875-21.517v-15.633z" />
      </g>
    </g>
  </g>
  <g
     id="g803"
     transform="matrix(1.3334 0 0 -1.3334 359.91 955.53)">
    <g
       id="g801"
       clip-path="url(#k)">
      <g
         id="g799"
         transform="translate(691.13,139.02)">
        <path
           id="path797"
           fill="#fff"
           d="m0 0c-6.089 0-14.043-4.908-14.043-10.916v-6.209c0-6 7.954-10.916 14.043-10.916h2.34c0.45 0 0.81 0.355 0.81 0.799v26.451c0 0.443-0.36 0.799-0.81 0.799zm0.72-26.564c-0.45 0-0.81 0.355-0.81 0.798v23.553c0 0.445 0.36 0.801 0.81 0.801s0.81-0.356 0.81-0.801v-23.553c0-0.443-0.36-0.798-0.81-0.798m34.944 26.564h-2.341c-0.45 0-0.81-0.355-0.81-0.799v-26.443c0-0.444 0.36-0.799 0.81-0.799h2.341c6.08 0 14.043 4.908 14.043 10.916v6.209c0 6.008-7.955 10.916-14.043 10.916m-0.859-26.564c-0.451 0-0.811 0.355-0.811 0.798v23.553c0 0.445 0.36 0.801 0.811 0.801 0.45 0 0.809-0.356 0.809-0.801v-23.553c0-0.443-0.359-0.798-0.809-0.798" />
      </g>
    </g>
  </g>
  <g
     id="g811"
     transform="matrix(1.3334 0 0 -1.3334 206.44 888.97)">
    <g
       id="g809"
       clip-path="url(#cr)">
      <g
         id="g807"
         transform="translate(448,326)">
        <path
           id="path805"
           fill-rule="evenodd"
           fill="#fff"
           d="m0 0c3.866 0 7 3.134 7 7s-3.134 7-7 7-7-3.134-7-7 3.134-7 7-7" />
      </g>
    </g>
  </g>
  <g
     id="g819"
     transform="matrix(1.3334 0 0 -1.3334 206.44 888.97)">
    <g
       id="g817"
       clip-path="url(#cq)">
      <g
         id="g815"
         transform="translate(474,326)">
        <path
           id="path813"
           fill-rule="evenodd"
           fill="#fff"
           d="m0 0c3.866 0 7 3.134 7 7s-3.134 7-7 7-7-3.134-7-7 3.134-7 7-7" />
      </g>
    </g>
  </g>
  <g
     id="g827"
     transform="matrix(1.3334 0 0 -1.3334 206.44 888.97)">
    <g
       id="g825"
       clip-path="url(#cp)">
      <g
         id="g823"
         transform="translate(497,326)">
        <path
           id="path821"
           fill-rule="evenodd"
           fill="#fff"
           d="m0 0c3.866 0 7 3.134 7 7s-3.134 7-7 7-7-3.134-7-7 3.134-7 7-7" />
      </g>
    </g>
  </g>
  <g
     id="g833"
     transform="matrix(1.3334 0 0 -1.3334 206.44 888.97)">
    <g
       id="g831"
       clip-path="url(#cn)">
      <path
         id="path829"
         fill-rule="evenodd"
         fill="#fff"
         d="m593 1073h36v-18h-36zm18-11c6.075 0 11 0.895 11 2s-4.925 2-11 2-11-0.895-11-2 4.925-2 11-2" />
    </g>
  </g>
  <g
     id="g841"
     transform="matrix(1.3334 0 0 -1.3334 206.44 888.97)">
    <g
       id="g839"
       clip-path="url(#cm)">
      <g
         id="g837"
         transform="translate(583.42,1063)">
        <path
           id="path835"
           fill="#fff"
           d="m0 0s21.582 23.182 21.582 35.147c0 12.048-9.684 21.853-21.582 21.853-11.816 0-21.418-9.805-21.418-21.853 0-8.06 9.766-21.188 16.002-28.832zm0 42.542c3.938 0 7.14-3.323 7.14-7.395 0-3.822-3.202-7.146-7.14-7.146-3.856 0-7.222 3.324-7.222 7.146 0 4.072 3.366 7.395 7.222 7.395" />
      </g>
    </g>
  </g>
  <g
     id="g849"
     transform="matrix(1.3334 0 0 -1.3334 206.44 888.97)">
    <g
       id="g847"
       clip-path="url(#cl)">
      <g
         id="g845"
         transform="translate(562,535)">
        <path
           id="path843"
           fill-rule="evenodd"
           fill="#fff"
           d="m0 0h35c2.762 0 5-2.238 5-5s-2.238-5-5-5h-35c-2.762 0-5 2.238-5 5s2.238 5 5 5" />
      </g>
    </g>
  </g>
  <g
     id="g857"
     transform="matrix(1.3334 0 0 -1.3334 206.44 888.97)">
    <g
       id="g855"
       clip-path="url(#cj)">
      <g
         id="g853"
         transform="translate(562,518)">
        <path
           id="path851"
           fill-rule="evenodd"
           fill="#fff"
           d="m0 0h35c2.762 0 5-2.238 5-5s-2.238-5-5-5h-35c-2.762 0-5 2.238-5 5s2.238 5 5 5" />
      </g>
    </g>
  </g>
  <g
     id="g865"
     transform="matrix(1.3334 0 0 -1.3334 206.44 888.97)">
    <g
       id="g863"
       clip-path="url(#ci)">
      <g
         id="g861"
         transform="translate(536.43,133.83)">
        <path
           id="path859"
           fill="#fff"
           d="m0 0c-10.01-12.916-22.288-9.047-24.23-8.072-4.847 1.293-6.464 10.015-0.326 12.918 10.018 3.226 19.06-0.325 25.524-3.553-0.644-0.967-0.968-1.293-0.968-1.293m10.667 3.553c4.521 8.072 6.139 15.826 6.139 15.826h-15.189v5.812h17.767v2.26h-17.767v8.723h-8.074v-8.723h-16.156v-2.584h16.156v-5.812h-13.57v-2.585h27.783c0-0.325 0-0.325-0.324-0.968 0-2.909-1.936-6.779-3.554-10.014-20.677 8.079-26.491 3.235-28.108 2.584-13.564-9.689-0.968-21.963 1.293-21.638 14.538-3.227 23.905 2.91 30.369 10.657 0.324-0.325 0.967-0.325 1.292-0.325 4.528-2.578 25.848-12.592 25.848-12.592v12.274c-3.878 0.325-15.506 4.195-23.905 7.105" />
      </g>
    </g>
  </g>
  <g
     id="g873"
     transform="matrix(1.3334 0 0 -1.3334 206.44 888.97)">
    <g
       id="g871"
       clip-path="url(#cf)">
      <g
         id="g869"
         transform="translate(720.03,1091.5)">
        <path
           id="path867"
           fill="#fff"
           d="m0 0c-0.149 0.354-0.224 0.837-0.224 1.451 0 0.372 0.103 0.828 0.306 1.368 0.205 0.539 0.428 0.958 0.671 1.256-0.019 0.409 0.051 0.902 0.209 1.478 0.159 0.576 0.368 0.976 0.629 1.2 0 2.586 0.86 5.269 2.581 8.05 1.722 2.782 3.744 4.73 6.07 5.846 2.585 1.228 5.6 1.842 9.041 1.842 2.475 0 4.949-0.511 7.423-1.534 0.912-0.391 1.749-0.837 2.512-1.34 0.762-0.502 1.423-1.022 1.981-1.562 0.559-0.54 1.07-1.172 1.534-1.897 0.465-0.725 0.856-1.413 1.172-2.064 0.318-0.651 0.619-1.437 0.908-2.358 0.287-0.921 0.524-1.753 0.71-2.497s0.391-1.655 0.614-2.734l0.028-0.14c1.023-1.543 1.535-2.939 1.535-4.186 0-0.26-0.084-0.632-0.252-1.115-0.168-0.484-0.252-0.837-0.252-1.061 0-0.019 0.015-0.052 0.043-0.099s0.061-0.093 0.098-0.139c0.038-0.046 0.057-0.077 0.057-0.098 1.432-2.121 2.553-4.116 3.363-5.985 0.809-1.869 1.214-3.808 1.214-5.817 0-0.8-0.182-1.73-0.544-2.791-0.363-1.06-0.879-1.59-1.549-1.59-0.167 0-0.349 0.069-0.544 0.209-0.194 0.14-0.371 0.303-0.529 0.489-0.159 0.186-0.335 0.428-0.53 0.725s-0.344 0.543-0.447 0.739-0.228 0.438-0.377 0.725c-0.147 0.288-0.231 0.451-0.251 0.489-0.019 0.019-0.047 0.028-0.085 0.028l-0.138-0.111c-1.099-2.864-2.327-4.938-3.684-6.222 0.372-0.372 0.944-0.73 1.716-1.075s1.414-0.73 1.925-1.158c0.511-0.426 0.841-1.031 0.991-1.814-0.037-0.074-0.074-0.223-0.112-0.447-0.036-0.224-0.101-0.391-0.195-0.501-1.19-1.804-4-2.706-8.427-2.706-0.986 0-2.013 0.084-3.084 0.251-1.069 0.168-1.981 0.354-2.734 0.558s-1.726 0.483-2.916 0.837c-0.279 0.093-0.493 0.158-0.643 0.196-0.259 0.075-0.687 0.115-1.282 0.125-0.595 9e-3 -0.967 0.023-1.116 0.042-0.763-0.838-1.949-1.442-3.559-1.814-1.609-0.372-3.176-0.558-4.702-0.558-0.65 0-1.293 0.014-1.925 0.042s-1.498 0.113-2.595 0.252c-1.098 0.139-2.038 0.33-2.82 0.572-0.781 0.241-1.473 0.613-2.078 1.115-0.604 0.502-0.906 1.098-0.906 1.786 0 0.744 0.093 1.298 0.279 1.661 0.187 0.364 0.569 0.815 1.144 1.353 0.205 0.038 0.581 0.159 1.131 0.363 0.549 0.204 1.009 0.316 1.381 0.334 0.074 0 0.204 0.019 0.39 0.057 0.038 0.037 0.057 0.074 0.057 0.111l-0.057 0.084c-0.892 0.204-1.897 1.185-3.014 2.944-1.117 1.758-1.796 3.214-2.038 4.367l-0.139 0.084c-0.074 0-0.186-0.185-0.334-0.557-0.335-0.763-0.842-1.455-1.521-2.079-0.679-0.622-1.4-0.971-2.163-1.046h-0.028c-0.073 0-0.129 0.041-0.167 0.125-0.037 0.083-0.084 0.134-0.139 0.153-0.428 1.004-0.642 1.934-0.642 2.79 0 5.116 2.343 9.45 7.032 13.002z" />
      </g>
    </g>
  </g>
  <g
     id="g881"
     transform="matrix(1.3334 0 0 -1.3334 206.44 888.97)">
    <g
       id="g879"
       clip-path="url(#cd)">
      <g
         id="g877"
         transform="translate(655,300)">
        <path
           id="path875"
           stroke-width="8"
           stroke-miterlimit="10"
           stroke="#fff"
           fill="none"
           d="m0 0c16.568 0 30 13.432 30 30s-13.432 30-30 30-30-13.432-30-30 13.432-30 30-30z" />
      </g>
    </g>
  </g>
  <g
     id="g889"
     transform="matrix(1.3334 0 0 -1.3334 206.44 888.97)">
    <g
       id="g887"
       clip-path="url(#cc)">
      <g
         id="g885"
         transform="translate(66.849,1083.1)">
        <path
           id="path883"
           fill="#fff"
           d="m0 0c0 5.302-3.661 9.749-8.591 10.948-0.209 8.314-7.006 14.991-15.366 14.991-4.897 0-9.254-2.293-12.07-5.861-1.579 2.041-4.05 3.358-6.828 3.358-4.769 0-8.633-3.868-8.633-8.639 0-0.416 0.031-0.825 0.089-1.224-0.726 0.13-1.47 0.203-2.232 0.203-6.913 0-12.515-5.607-12.515-12.524 0-6.916 5.602-12.523 12.515-12.523h42.394c6.21 0.013 11.241 5.053 11.241 11.269z" />
      </g>
    </g>
  </g>
  <g
     id="g897"
     transform="matrix(1.3334 0 0 -1.3334 206.44 888.97)">
    <g
       id="g895"
       clip-path="url(#ca)">
      <g
         id="g893"
         transform="translate(65.5,681)">
        <path
           id="path891"
           stroke-width="4"
           stroke-miterlimit="10"
           stroke="#fff"
           fill="none"
           d="m0 0c9.113 0 16.5 7.387 16.5 16.5s-7.387 16.5-16.5 16.5-16.5-7.387-16.5-16.5 7.387-16.5 16.5-16.5z" />
      </g>
    </g>
  </g>
  <g
     id="g905"
     transform="matrix(1.3334 0 0 -1.3334 206.44 888.97)">
    <g
       id="g903"
       clip-path="url(#bz)">
      <g
         id="g901"
         transform="translate(77.5,711)">
        <path
           id="path899"
           stroke-width="4"
           stroke-miterlimit="10"
           stroke="#fff"
           fill="none"
           d="m0 0c7.456 0 13.5 6.044 13.5 13.5s-6.044 13.5-13.5 13.5-13.5-6.044-13.5-13.5 6.044-13.5 13.5-13.5z" />
      </g>
    </g>
  </g>
  <g
     id="g913"
     transform="matrix(1.3334 0 0 -1.3334 206.44 888.97)">
    <g
       id="g911"
       clip-path="url(#bv)">
      <g
         id="g909"
         transform="translate(455.91,931.53)">
        <path
           id="path907"
           fill="#fff"
           d="m0 0c-0.742-1.039-4.75-2.821-8.165-3.563-4.305-0.891-6.531-1.633-8.758-2.82-2.969-1.782-4.601-4.009-4.305-6.087 0.149-0.445 3.711-5.64 7.868-11.578 4.304-5.938 7.868-10.985 8.016-11.134 0.149-0.297-0.445-0.297-2.524-0.148-6.531 0.445-12.469-2.969-15.142-8.314-0.742-1.632-0.89-2.523-0.89-4.453 0-4.453 2.376-8.016 6.829-10.094 1.781-0.742 2.375-0.891 6.086-0.891 4.007 0 4.156 0 6.829 1.336 7.125 3.414 10.093 10.095 7.125 16.181-0.594 1.336-4.305 7.719-8.313 14.251l-7.274 12.024h1.187c4.75 0.297 8.017 1.781 10.244 4.305 1.929 2.227 2.523 4.453 2.374 8.016-0.148 3.266-0.445 4.008-1.187 2.969" />
      </g>
    </g>
  </g>
  <g
     id="g921"
     transform="matrix(1.3334 0 0 -1.3334 206.44 888.97)">
    <g
       id="g919"
       clip-path="url(#bu)">
      <g
         id="g917"
         transform="translate(784,902.31)">
        <path
           id="path915"
           fill="#fff"
           d="m0 0c0-1.565-0.904-2.931-2.251-3.674l-27.781-18.472c-0.012-8e-3 -0.026-0.014-0.037-0.02l-0.017-0.011c-0.684-0.376-1.48-0.592-2.331-0.592-2.53 0-4.583 1.913-4.583 4.269v37c0 2.356 2.053 4.27 4.583 4.27 0.851 0 1.647-0.217 2.331-0.596l0.017-8e-3c0.011-9e-3 0.022-0.014 0.037-0.02l27.781-18.471c1.347-0.743 2.251-2.11 2.251-3.675" />
      </g>
    </g>
  </g>
  <g
     id="g929"
     transform="matrix(1.3334 0 0 -1.3334 206.44 888.97)">
    <g
       id="g927"
       clip-path="url(#br)">
      <g
         id="g925"
         transform="translate(223.75,708.35)">
        <path
           id="path923"
           fill-rule="evenodd"
           fill="#fff"
           d="m0 0c-15.123 0-27.418 12.329-27.418 27.486 0 1.382 1.111 2.505 2.487 2.505 1.379 0 2.499-1.123 2.499-2.505 0-12.4 10.06-22.487 22.432-22.487 12.375 0 22.443 10.087 22.443 22.487 0 1.382 1.112 2.505 2.488 2.505 1.378 0 2.499-1.123 2.499-2.505 0-15.157-12.304-27.486-27.43-27.486" />
      </g>
    </g>
  </g>
  <g
     id="g937"
     transform="matrix(1.3334 0 0 -1.3334 206.44 888.97)">
    <g
       id="g935"
       clip-path="url(#bq)">
      <g
         id="g933"
         transform="translate(390.75,139.35)">
        <path
           id="path931"
           fill-rule="evenodd"
           fill="#fff"
           d="m0 0c-15.123 0-27.418 12.329-27.418 27.485 0 1.383 1.111 2.506 2.487 2.506 1.379 0 2.499-1.123 2.499-2.506 0-12.398 10.06-22.486 22.432-22.486 12.375 0 22.443 10.088 22.443 22.486 0 1.383 1.112 2.506 2.488 2.506 1.378 0 2.499-1.123 2.499-2.506 0-15.156-12.304-27.485-27.43-27.485" />
      </g>
    </g>
  </g>
  <g
     id="g945"
     transform="matrix(1.3334 0 0 -1.3334 206.44 888.97)">
    <g
       id="g943"
       clip-path="url(#bp)">
      <g
         id="g941"
         transform="translate(423.93,686.39)">
        <path
           id="path939"
           fill="#fff"
           d="m0 0c0.245-0.286 0.605-0.456 0.986-0.456 0.382 0 0.743 0.17 0.988 0.456l17.516 20.497c0.333 0.388 0.408 0.933 0.191 1.388-0.211 0.463-0.674 0.756-1.184 0.756h-9.93c-2.118 4.172-3.109 8.382-2.973 12.63 0.135 4.248 1.954 12.361 5.455 24.34-10.956-6.59-17.656-18.44-17.656-31.225v-5.745h-9.93c-0.51 0-0.966-0.293-1.184-0.756-0.211-0.462-0.135-1 0.191-1.388z" />
      </g>
    </g>
  </g>
  <g
     id="g953"
     transform="matrix(1.3334 0 0 -1.3334 325.14 892.6)">
    <g
       id="g951"
       clip-path="url(#bg)">
      <g
         id="g949"
         transform="translate(9.1685,1040.9)">
        <path
           id="path947"
           fill-rule="evenodd"
           fill="#fff"
           d="m0 0 25.314 21.067-26.077 18.651c5.846 7.671 15.079 12.622 25.468 12.622 17.673 0 32-14.327 32-32s-14.327-32-32-32c-9.948 0-18.836 4.539-24.705 11.66m27.349 31.812c2.835 0 5.132 2.297 5.132 5.132 0 2.834-2.297 5.132-5.132 5.132-2.834 0-5.132-2.298-5.132-5.132 0-2.835 2.298-5.132 5.132-5.132" />
      </g>
    </g>
  </g>
  <g
     id="g961"
     transform="matrix(1.3334 0 0 -1.3334 325.14 892.6)">
    <g
       id="g959"
       clip-path="url(#be)">
      <g
         id="g957"
         transform="translate(194.25,1130.3)">
        <path
           id="path955"
           fill-rule="evenodd"
           fill="#fff"
           d="m0 0c20.173-11.579 43.841 2 51.309 14.862 7.467 12.861 5.032 31.138-10.468 37.638s-45.487 6.611-54.5-9-6.515-31.922 13.659-43.5" />
      </g>
    </g>
  </g>
  <g
     id="g969"
     transform="matrix(1.3334 0 0 -1.3334 325.14 892.6)">
    <g
       id="g967"
       clip-path="url(#bd)">
      <g
         id="g965"
         transform="translate(473.86,1057.5)">
        <path
           id="path963"
           fill-rule="evenodd"
           fill="#fff"
           d="m0 0c1.657 0 3 1.501 3 3.353s-1.343 3.353-3 3.353c-1.656 0-3-1.501-3-3.353s1.344-3.353 3-3.353" />
      </g>
    </g>
  </g>
  <g
     id="g977"
     transform="matrix(1.3334 0 0 -1.3334 325.14 892.6)">
    <g
       id="g975"
       clip-path="url(#bc)">
      <g
         id="g973"
         transform="translate(493,1069.8)">
        <path
           id="path971"
           fill-rule="evenodd"
           fill="#fff"
           d="m0 0c1.657 0 3 1.501 3 3.353s-1.343 3.353-3 3.353-3-1.501-3-3.353 1.343-3.353 3-3.353" />
      </g>
    </g>
  </g>
  <g
     id="g985"
     transform="matrix(1.3334 0 0 -1.3334 325.14 892.6)">
    <g
       id="g983"
       clip-path="url(#bb)">
      <g
         id="g981"
         transform="translate(510,1048.8)">
        <path
           id="path979"
           fill-rule="evenodd"
           fill="#fff"
           d="m0 0c1.657 0 3 1.501 3 3.353s-1.343 3.353-3 3.353-3-1.501-3-3.353 1.343-3.353 3-3.353" />
      </g>
    </g>
  </g>
  <g
     id="g993"
     transform="matrix(1.3334 0 0 -1.3334 325.14 892.6)">
    <g
       id="g991"
       clip-path="url(#ba)">
      <g
         id="g989"
         transform="translate(806.5,1072.2)">
        <path
           id="path987"
           stroke-miterlimit="10"
           stroke-linecap="round"
           stroke="#fff"
           fill="none"
           d="m0 0c-3.667-14-9.5-21.833-17.5-23.5" />
      </g>
    </g>
  </g>
  <g
     id="g1001"
     transform="matrix(1.3334 0 0 -1.3334 325.14 892.6)">
    <g
       id="g999"
       clip-path="url(#az)">
      <g
         id="g997"
         transform="translate(802,1066.2)">
        <path
           id="path995"
           fill-rule="evenodd"
           fill="#fff"
           d="m0 0c-4.971 0-9 4.029-9 9s4.029 9 9 9 9-4.029 9-9-4.029-9-9-9m0 6c1.657 0 3 1.343 3 3s-1.343 3-3 3-3-1.343-3-3 1.343-3 3-3" />
      </g>
    </g>
  </g>
  <g
     id="g1009"
     transform="matrix(1.3334 0 0 -1.3334 325.14 892.6)">
    <g
       id="g1007"
       clip-path="url(#aw)">
      <g
         id="g1005"
         transform="translate(122,495.24)">
        <path
           id="path1003"
           fill-rule="evenodd"
           fill="#fff"
           d="m0 0h3c0.553 0 1-0.447 1-1v-2c0-0.553-0.447-1-1-1h-3c-0.553 0-1 0.447-1 1v2c0 0.553 0.447 1 1 1" />
      </g>
    </g>
  </g>
  <g
     id="g1017"
     transform="matrix(1.3334 0 0 -1.3334 325.14 892.6)">
    <g
       id="g1015"
       clip-path="url(#au)">
      <g
         id="g1013"
         transform="translate(204,495.24)">
        <path
           id="path1011"
           fill-rule="evenodd"
           fill="#fff"
           d="m0 0h3c0.553 0 1-0.447 1-1v-2c0-0.553-0.447-1-1-1h-3c-0.553 0-1 0.447-1 1v2c0 0.553 0.447 1 1 1" />
      </g>
    </g>
  </g>
  <g
     id="g1025"
     transform="matrix(1.3334 0 0 -1.3334 325.14 892.6)">
    <g
       id="g1023"
       clip-path="url(#ao)">
      <g
         id="g1021"
         transform="translate(805,482.24)">
        <path
           id="path1019"
           fill-rule="evenodd"
           fill="#fff"
           d="m0 0c4.418 0 8 3.582 8 8s-3.582 8-8 8-8-3.582-8-8 3.582-8 8-8" />
      </g>
    </g>
  </g>
  <g
     id="g1033"
     transform="matrix(1.3334 0 0 -1.3334 325.14 892.6)">
    <g
       id="g1031"
       clip-path="url(#an)">
      <g
         id="g1029"
         transform="translate(658,1075.7)">
        <path
           id="path1027"
           fill="#fff"
           d="m0 0c0-4.694 3.806-8.5 8.5-8.5s8.5 3.806 8.5 8.5-3.806 8.5-8.5 8.5-8.5-3.806-8.5-8.5" />
      </g>
    </g>
  </g>
  <g
     id="g1039"
     transform="matrix(1.3334 0 0 -1.3334 325.14 892.6)">
    <g
       id="g1037"
       clip-path="url(#am)">
      <path
         id="path1035"
         fill-rule="evenodd"
         fill="#fff"
         d="m465.44 1082.2h85.864v-75.319h-85.864zm64.45-25.106c-0.483 0.765-1.453 0.947-2.178 0.431l-15.504-11.01c-0.359-0.255-0.847-0.153-1.071 0.238l-18.271 31.869c-0.438 0.771-1.139 0.776-1.549-0.016l-1.807-3.514-21.07-47.452c13.336-18.44 48.336-26.94 73.836-3.44 0.841 0 6.477 6.246 6 7z" />
    </g>
  </g>
  <g
     id="g1047"
     transform="matrix(1.3334 0 0 -1.3334 325.14 892.6)">
    <g
       id="g1045"
       clip-path="url(#aj)">
      <g
         id="g1043"
         transform="translate(-23,837.24)">
        <path
           id="path1041"
           stroke-width="8"
           stroke-miterlimit="10"
           stroke="#fff"
           fill="none"
           d="m0 0c18.778 0 34 15.222 34 34s-15.222 34-34 34-34-15.222-34-34 15.222-34 34-34z" />
      </g>
    </g>
  </g>
  <g
     id="g1053"
     transform="matrix(1.3334 0 0 -1.3334 325.14 892.6)">
    <g
       id="g1051"
       clip-path="url(#ah)">
      <path
         id="path1049"
         fill-rule="evenodd"
         fill="#fff"
         d="m644 721.24h82v-82h-82zm41-81c22.092 0 40 17.908 40 40s-17.908 40-40 40-40-17.908-40-40 17.908-40 40-40" />
    </g>
  </g>
  <g
     id="g1061"
     transform="matrix(1.3334 0 0 -1.3334 325.14 892.6)">
    <g
       id="g1059"
       clip-path="url(#ad)">
      <g
         id="g1057"
         transform="translate(613.88,476.03)">
        <path
           id="path1055"
           fill="#fff"
           d="m0 0c0.187-0.771 0.148-1.502-0.116-2.193-0.266-0.692-0.678-1.303-1.239-1.833-0.561-0.531-1.247-0.949-2.057-1.255-0.81-0.305-1.683-0.457-2.617-0.457-5.889-0.033-11.156-0.049-15.798-0.049h-15.891c-1.122 0-2.111 0.209-2.968 0.627s-1.543 0.932-2.056 1.543c-0.515 0.611-0.858 1.279-1.029 2.002s-0.148 1.375 0.071 1.953c0.186 0.451 0.373 0.917 0.56 1.398 0.157 0.418 0.343 0.893 0.561 1.424 0.219 0.53 0.452 1.069 0.701 1.615l1.776 4.438h5.329l-2.01-6.077h30.099l-2.009 6.077h5.094c0.655-1.64 1.246-3.119 1.777-4.438 0.218-0.578 0.435-1.14 0.654-1.687 0.218-0.547 0.412-1.037 0.584-1.472 0.171-0.433 0.312-0.804 0.421-1.109 0.108-0.306 0.163-0.474 0.163-0.507m-22.922 9.236c-0.601 0.698-1.289 1.571-2.064 2.618-0.776 1.046-1.575 2.125-2.398 3.235-0.822 1.11-1.637 2.204-2.443 3.283-0.808 1.079-1.527 2.015-2.16 2.808-0.728 0.856-1.013 1.562-0.855 2.117s0.696 0.832 1.614 0.832c0.506-0.031 1.187-0.024 2.041 0.024 0.855 0.048 1.567 0.072 2.136 0.072 0.633 0 1.029 0.19 1.187 0.57 0.158 0.381 0.237 0.889 0.237 1.523 0 0.698-8e-3 1.467-0.024 2.308s-0.024 1.705-0.024 2.593-8e-3 1.76-0.023 2.617c-0.016 0.856-0.024 1.65-0.024 2.379 0 0.318 0.024 0.65 0.071 1 0.047 0.348 0.158 0.666 0.333 0.951 0.173 0.285 0.426 0.523 0.758 0.714 0.332 0.19 0.784 0.285 1.353 0.285 0.665 0 1.274 9e-3 1.827 0.024 0.555 0.016 1.195 0.024 1.923 0.024 1.044 0 1.748-0.246 2.112-0.737 0.364-0.492 0.562-1.277 0.593-2.356v-1.855c0-0.73 8e-3 -1.507 0.023-2.331 0.017-0.826 0.025-1.651 0.025-2.475v-2.236c0-0.92 0.095-1.659 0.284-2.213 0.191-0.555 0.617-0.817 1.282-0.785 0.475 0 1.052-0.016 1.732-0.047 0.68-0.032 1.274-0.049 1.78-0.049 0.855 0 1.4-0.23 1.638-0.69 0.237-0.46 0.071-1.054-0.498-1.784-0.602-0.76-1.298-1.68-2.089-2.759-0.791-1.08-1.606-2.197-2.445-3.355-0.838-1.158-1.661-2.284-2.467-3.379-0.807-1.094-1.528-2.037-2.16-2.83-0.57-0.73-1.116-1.103-1.637-1.119-0.523-0.016-1.069 0.326-1.638 1.023" />
      </g>
    </g>
  </g>
  <g
     id="g1069"
     transform="matrix(1.3334 0 0 -1.3334 325.14 892.6)">
    <g
       id="g1067"
       clip-path="url(#ac)">
      <g
         id="g1065"
         transform="translate(588.67,331.24)">
        <path
           id="path1063"
           fill="#fff"
           d="m0 0h-49.301c-2.41 0-4.367-1.941-4.367-4.299v-49.402c0-2.393 1.957-4.299 4.367-4.299h49.301c2.41 0 4.332 1.941 4.332 4.299v49.367c0 2.393-1.957 4.334-4.332 4.334m-33.403-53.008h-8.839v6.795h8.839zm-8.91 24.58h8.84v-6.795h-8.84zm8.945-15.566h-8.84v6.795h8.84zm12.998-9.014h-8.84v6.795h8.84zm-8.91 24.58h8.84v-6.795h-8.84zm8.944-15.566h-8.839v6.795h8.839zm13.277-9.014h-8.84v6.795h8.84zm-8.909 24.58h8.84v-6.795h-8.84zm8.945-15.566h-8.84v6.795h8.84zm5.276 24.441c0-2.392-1.957-4.299-4.368-4.299h-37.77c-2.411-0.035-4.367 1.907-4.367 4.299v10.054c0 2.392 1.956 4.333 4.332 4.333h37.805c2.411 0 4.368-1.941 4.368-4.333z" />
      </g>
    </g>
  </g>
  <g
     id="g1077"
     transform="matrix(1.3334 0 0 -1.3334 325.14 892.6)">
    <g
       id="g1075"
       clip-path="url(#aa)">
      <g
         id="g1073"
         transform="translate(609.3,312.46)">
        <path
           id="path1071"
           fill="#fff"
           d="m0 0h-0.72c-0.206 0-0.377 0-0.514-0.212-0.103-0.142-0.103-0.283-0.103-0.46v-0.566c0-0.178 0-0.319 0.103-0.461 0.137-0.212 0.308-0.212 0.514-0.212h0.72c0.205 0 0.376 0 0.514 0.212 0.102 0.142 0.102 0.283 0.102 0.461v0.566c0 0.213 0 0.318-0.102 0.46-0.138 0.212-0.275 0.212-0.514 0.212m-5.003 4.779h-2.947c-0.548 0-0.993-0.46-0.993-1.026v-2.407h0.993v2.407h2.947v-2.407h0.993v2.407c0 0.566-0.445 1.026-0.993 1.026m0-6.973h-2.947v2.407h-0.993v-2.407c0-0.567 0.411-1.027 0.993-1.027h2.947c0.582 0 0.993 0.46 0.993 1.027v2.407h-0.993zm-14.357 0h-2.947v2.584h-0.994v-2.584c0-0.567 0.411-1.027 0.994-1.027h2.947c0.583 0 0.994 0.46 0.994 1.027v2.584h-0.994zm0 6.973h-2.947c-0.548 0-0.994-0.46-0.994-1.026v-2.231h0.994v2.231h2.947v-2.231h0.994v2.231c0 0.566-0.446 1.026-0.994 1.026m7.195 0h-2.946c-0.549 0-0.994-0.46-0.994-1.026v-2.231h0.994v2.231h2.946v-2.231h0.994v2.231c0 0.566-0.445 1.026-0.994 1.026m0-6.973h-2.946v2.584h-0.994v-2.584c0-0.567 0.445-1.027 0.994-1.027h2.946c0.583 0 0.994 0.46 0.994 1.027v2.584h-0.994zm18.675 6.973h-2.947c-0.548 0-0.994-0.46-0.994-1.026v-2.584h0.994v2.584h2.947v-2.584h0.994v2.584c0 0.566-0.445 1.026-0.994 1.026m0-6.973h-2.947v2.23h-0.994v-2.23c0-0.567 0.446-1.027 0.994-1.027h2.947c0.583 0 0.994 0.46 0.994 1.027v2.23h-0.994zm7.195 0h-2.946v2.053h-0.994v-2.053c0-0.567 0.411-1.027 0.994-1.027h2.946c0.583 0 0.994 0.46 0.994 1.027v2.053h-0.994zm0 6.973h-2.946c-0.548 0-0.994-0.46-0.994-1.026v-2.761h0.994v2.761h2.946v-2.761h0.994v2.761c0 0.566-0.479 1.026-0.994 1.026" />
      </g>
    </g>
  </g>
  <g
     id="g1085"
     transform="matrix(1.3334 0 0 -1.3334 325.14 892.6)">
    <g
       id="g1083"
       clip-path="url(#z)">
      <g
         id="g1081"
         transform="translate(766.75,130.24)">
        <path
           id="path1079"
           fill="#fff"
           d="m0 0h-15.75v6.693c0 1.239-1.013 2.307-2.307 2.307h-13.386c-1.239 0-2.307-1.013-2.307-2.307v-6.693h-15.75c-1.237 0-2.25-1.013-2.25-2.25v-11.25l27-4.5 27 4.5v11.25c0 1.237-1.013 2.25-2.25 2.25m-29.25 4.5h9v-4.5h-9zm9-16.875c0-0.619-0.506-1.125-1.125-1.125h-6.75c-0.619 0-1.125 0.506-1.125 1.125v2.25c0 0.619 0.506 1.125 1.125 1.125h6.75c0.619 0 1.125-0.506 1.125-1.125zm-4.5-7.875 27 4.5v-27c0-1.237-1.013-2.25-2.25-2.25h-49.5c-1.237 0-2.25 1.013-2.25 2.25v27z" />
      </g>
    </g>
  </g>
  <g
     id="g1093"
     transform="matrix(1.3334 0 0 -1.3334 325.14 892.6)">
    <g
       id="g1091"
       clip-path="url(#x)">
      <g
         id="g1089"
         transform="translate(392,82.24)">
        <path
           id="path1087"
           fill="#fff"
           d="M 0,0 -4.35,3.941 C -19.8,17.953 -30,27.2 -30,38.516 -30,47.762 -22.755,55 -13.5,55 -8.28,55 -3.27,52.572 0,48.75 3.27,52.572 8.28,55 13.5,55 22.755,55 30,47.762 30,38.516 30,27.2 19.8,17.953 4.35,3.941 Z" />
      </g>
    </g>
  </g>
  <g
     id="g1101"
     transform="matrix(1.3334 0 0 -1.3334 325.14 892.6)">
    <g
       id="g1099"
       clip-path="url(#w)">
      <g
         id="g1097"
         transform="translate(542.77,113.24)">
        <path
           id="path1095"
           fill="#fff"
           d="m0 0c0 2.621 0.885 4.8 2.689 6.604s3.983 2.689 6.604 2.689c2.622 0 4.801-0.885 6.604-2.689 1.805-1.804 2.69-3.983 2.69-6.604s-0.885-4.834-2.69-6.639c-1.803-1.803-3.982-2.689-6.604-2.689-2.621 0-4.809 0.877-6.604 2.689-1.813 1.83-2.689 4.051-2.689 6.639m-13.141-6.06c0.545-1.94 1.363-3.846 2.35-5.617l-6.128-7.523 6.944-6.945 7.524 6.127c1.769-0.986 3.71-1.803 5.65-2.382l1.022-9.6h10.008l1.022 9.6c1.94 0.579 3.778 1.396 5.651 2.382l7.49-6.127 7.012 6.945-6.162 7.523c0.953 1.771 1.805 3.677 2.383 5.617l9.601 1.056v10.008l-9.601 1.021c-0.578 1.941-1.43 3.745-2.383 5.618l6.162 7.523-7.012 7.013-7.49-6.161c-1.907 0.953-3.711 1.803-5.651 2.382l-1.022 9.6h-10.008l-1.022-9.6c-2.008-0.579-3.88-1.429-5.65-2.382l-7.524 6.161-6.944-7.013 6.128-7.523c-0.953-1.873-1.771-3.677-2.35-5.618l-9.633-1.021v-10.008z" />
      </g>
    </g>
  </g>
  <g
     id="g1107"
     transform="matrix(1.3334 0 0 -1.3334 325.14 892.6)">
    <g
       id="g1105"
       clip-path="url(#s)">
      <path
         id="path1103"
         fill-rule="evenodd"
         fill="#fff"
         d="m473 698.24h13v-13h-13zm6.5-12c3.037 0 5.5 2.463 5.5 5.5 0 3.038-2.463 5.5-5.5 5.5s-5.5-2.462-5.5-5.5c0-3.037 2.463-5.5 5.5-5.5" />
    </g>
  </g>
  <g
     id="g1113"
     transform="matrix(1.3334 0 0 -1.3334 325.14 892.6)">
    <g
       id="g1111"
       clip-path="url(#r)">
      <path
         id="path1109"
         fill-rule="evenodd"
         fill="#fff"
         d="m473 676.24h13v-13h-13zm6.5-12c3.037 0 5.5 2.463 5.5 5.5 0 3.038-2.463 5.5-5.5 5.5s-5.5-2.462-5.5-5.5c0-3.037 2.463-5.5 5.5-5.5" />
    </g>
  </g>
  <g
     id="g1119"
     transform="matrix(1.3334 0 0 -1.3334 325.14 892.6)">
    <g
       id="g1117"
       clip-path="url(#q)">
      <path
         id="path1115"
         fill-rule="evenodd"
         fill="#fff"
         d="m467 687.24h13v-13h-13zm6.5-12c3.037 0 5.5 2.463 5.5 5.5 0 3.038-2.463 5.5-5.5 5.5s-5.5-2.462-5.5-5.5c0-3.037 2.463-5.5 5.5-5.5" />
    </g>
  </g>
  <g
     id="g1125"
     transform="matrix(1.3334 0 0 -1.3334 325.14 892.6)">
    <g
       id="g1123"
       clip-path="url(#p)">
      <path
         id="path1121"
         fill-rule="evenodd"
         fill="#fff"
         d="m486 698.24h13v-13h-13zm6.5-12c3.037 0 5.5 2.463 5.5 5.5 0 3.038-2.463 5.5-5.5 5.5s-5.5-2.462-5.5-5.5c0-3.037 2.463-5.5 5.5-5.5" />
    </g>
  </g>
  <g
     id="g1131"
     transform="matrix(1.3334 0 0 -1.3334 325.14 892.6)">
    <g
       id="g1129"
       clip-path="url(#o)">
      <path
         id="path1127"
         fill-rule="evenodd"
         fill="#fff"
         d="m486 676.24h13v-13h-13zm6.5-12c3.037 0 5.5 2.463 5.5 5.5 0 3.038-2.463 5.5-5.5 5.5s-5.5-2.462-5.5-5.5c0-3.037 2.463-5.5 5.5-5.5" />
    </g>
  </g>
  <g
     id="g1137"
     transform="matrix(1.3334 0 0 -1.3334 325.14 892.6)">
    <g
       id="g1135"
       clip-path="url(#n)">
      <path
         id="path1133"
         fill-rule="evenodd"
         fill="#fff"
         d="m480 687.24h13v-13h-13zm6.5-12c3.037 0 5.5 2.463 5.5 5.5 0 3.038-2.463 5.5-5.5 5.5s-5.5-2.462-5.5-5.5c0-3.037 2.463-5.5 5.5-5.5" />
    </g>
  </g>
  <g
     id="g1143"
     transform="matrix(1.3334 0 0 -1.3334 325.14 892.6)">
    <g
       id="g1141"
       clip-path="url(#l)">
      <path
         id="path1139"
         fill-rule="evenodd"
         fill="#fff"
         d="m493 687.24h13v-13h-13zm6.5-12c3.037 0 5.5 2.463 5.5 5.5 0 3.038-2.463 5.5-5.5 5.5s-5.5-2.462-5.5-5.5c0-3.037 2.463-5.5 5.5-5.5" />
    </g>
  </g>
  <g
     id="g1149"
     transform="matrix(1.3334 0 0 -1.3334 325.14 892.6)">
    <g
       id="g1147"
       clip-path="url(#j)">
      <path
         id="path1145"
         fill-rule="evenodd"
         fill="#fff"
         d="m161 327.24h73v-28h-73zm14-5h45c4.971 0 9-4.029 9-9 0-4.97-4.029-9-9-9h-45c-4.971 0-9 4.03-9 9 0 4.971 4.029 9 9 9" />
    </g>
  </g>
  <g
     id="g1155"
     transform="matrix(1.3334 0 0 -1.3334 325.14 892.6)">
    <g
       id="g1153"
       clip-path="url(#i)">
      <path
         id="path1151"
         fill-rule="evenodd"
         fill="#fff"
         d="m162 302.24h73v-28h-73zm14-5h45c4.971 0 9-4.029 9-9 0-4.97-4.029-9-9-9h-45c-4.971 0-9 4.03-9 9 0 4.971 4.029 9 9 9" />
    </g>
  </g>
  <g
     id="g1163"
     transform="matrix(1.3334 0 0 -1.3334 325.14 892.6)">
    <g
       id="g1161"
       clip-path="url(#h-3)">
      <g
         id="g1159"
         transform="translate(104.49,129.57)">
        <path
           id="path1157"
           fill="#fff"
           d="m0 0c-4.298-0.338-8.165-0.637-11.604-0.898-1.458-0.113-2.906-0.225-4.344-0.336-1.44-0.114-2.747-0.207-3.924-0.282-1.178-0.074-2.168-0.149-2.972-0.224-0.803-0.074-1.28-0.113-1.428-0.113-0.188-0.037-0.403-0.065-0.645-0.084-0.244-0.018-0.459-0.065-0.645-0.139l-0.673-0.225-2.467 1.121c0.187 0.263 0.412 0.506 0.674 0.731 0.185 0.186 0.42 0.364 0.7 0.533 0.28 0.168 0.569 0.27 0.868 0.309 0.225 0.037 0.822 0.093 1.795 0.168 0.971 0.074 2.167 0.168 3.588 0.28 0 0.486 0.047 1.15 0.14 1.992 0.092 0.841 0.317 1.674 0.672 2.497 0.356 0.822 0.869 1.553 1.541 2.188 0.673 0.636 1.589 1.009 2.747 1.123 1.346 0.111 2.439-0.094 3.281-0.618 0.84-0.523 1.494-1.169 1.961-1.935 0.467-0.768 0.795-1.553 0.981-2.358 0.187-0.804 0.299-1.43 0.337-1.878 1.606 0.111 2.942 0.205 4.008 0.279 1.064 0.076 1.653 0.131 1.765 0.169 0.412 0.038 0.87-0.038 1.373-0.225 0.505-0.186 0.907-0.43 1.206-0.729 0.075-0.075 0.177-0.188 0.308-0.336 0.131-0.151 0.252-0.3 0.365-0.449 0.149-0.151 0.28-0.337 0.392-0.561m-15.528 6.676c-0.709-0.074-1.28-0.326-1.709-0.757-0.43-0.431-0.758-0.944-0.982-1.543-0.223-0.599-0.374-1.206-0.448-1.823-0.075-0.617-0.112-1.114-0.112-1.488 1.159 0.076 2.344 0.169 3.559 0.281s2.402 0.206 3.56 0.281c-0.037 0.336-0.121 0.804-0.252 1.402-0.131 0.599-0.346 1.178-0.645 1.74-0.299 0.561-0.691 1.028-1.176 1.403-0.487 0.373-1.084 0.542-1.795 0.504m21.919-41.24c0.186-1.047 0.159-1.917-0.084-2.61-0.244-0.691-0.925-1.168-2.046-1.43-0.374-0.113-1.187-0.299-2.439-0.562-1.252-0.262-2.747-0.579-4.485-0.953-1.737-0.374-3.597-0.777-5.577-1.207-1.982-0.43-3.878-0.832-5.691-1.205-1.812-0.375-3.437-0.711-4.877-1.011-1.438-0.3-2.457-0.505-3.054-0.617-1.383-0.3-2.402-0.206-3.055 0.28-0.654 0.486-0.982 1.217-0.982 2.189v34.452c0 0.934 0.197 1.691 0.589 2.271 0.393 0.58 0.962 0.889 1.709 0.926 0.299 0 0.664 0.02 1.094 0.057s0.85 0.074 1.261 0.112c0.485 0.037 0.991 0.075 1.514 0.112l0.504-8.023c-0.037-0.038-0.112-0.057-0.224-0.057-0.074 0-0.187-0.01-0.336-0.027-0.15-0.02-0.318-0.029-0.505-0.029-0.784-0.075-1.159-0.542-1.121-1.403 0.038-0.336 0.075-0.805 0.112-1.402 0.037-0.599 0.066-1.225 0.084-1.88 0.019-0.655 0.047-1.29 0.084-1.907s0.074-1.114 0.113-1.488c0.037-0.711 0.149-1.112 0.336-1.206 0.186-0.093 0.598-0.14 1.233-0.14h0.785c0.225 0 0.439 0.01 0.645 0.027 0.205 0.02 0.439 0.038 0.701 0.057 0.261 0.018 0.597 0.047 1.008 0.084 0.785 0.075 1.29 0.243 1.513 0.506 0.225 0.261 0.319 0.654 0.281 1.177 0 0.262-0.028 0.721-0.084 1.375-0.056 0.655-0.113 1.337-0.168 2.048-0.056 0.71-0.103 1.384-0.14 2.02-0.037 0.635-0.074 1.085-0.112 1.346-0.076 0.45-0.168 0.768-0.281 0.954-0.112 0.187-0.318 0.262-0.617 0.224-0.148 0-0.299-9e-3 -0.447-0.027-0.151-0.019-0.3-0.028-0.449-0.028h-0.449l-0.505 7.967c2.542 0.225 4.877 0.412 7.008 0.561 0.897 0.076 1.803 0.15 2.719 0.224 0.916 0.076 1.766 0.141 2.551 0.198 0.785 0.055 1.476 0.111 2.074 0.168 0.598 0.056 1.046 0.103 1.346 0.14 1.083 0.074 1.942-0.113 2.578-0.561 0.635-0.449 1.027-1.122 1.178-2.021 0.037-0.299 0.168-1.196 0.391-2.693 0.224-1.496 0.505-3.291 0.841-5.386s0.691-4.349 1.065-6.761c0.374-2.413 0.729-4.667 1.066-6.761 0.336-2.095 0.625-3.891 0.869-5.387 0.242-1.496 0.4-2.395 0.476-2.693m-35.261-4.881c0-0.525 0.028-0.983 0.084-1.375 0.057-0.393 0.122-0.701 0.197-0.926 0.074-0.299 0.168-0.524 0.279-0.674-0.933 0.486-1.831 0.973-2.69 1.459-0.747 0.412-1.495 0.832-2.242 1.263-0.747 0.43-1.383 0.795-1.906 1.094-0.972 0.561-1.635 1.235-1.99 2.02s-0.439 1.608-0.253 2.469c0.076 0.224 0.244 1.047 0.505 2.469 0.262 1.421 0.588 3.142 0.981 5.162 0.392 2.019 0.803 4.189 1.233 6.508 0.43 2.32 0.831 4.49 1.205 6.509 0.374 2.02 0.701 3.76 0.982 5.218 0.28 1.459 0.439 2.319 0.476 2.581 0.15 0.823 0.42 1.459 0.813 1.908 0.392 0.449 0.849 0.561 1.373 0.336 0.299-0.149 0.543-0.317 0.728-0.504 0.114-0.113 0.188-0.207 0.225-0.281z" />
      </g>
    </g>
  </g>
  <circle
     id="circle1165"
     fill="#5e4aa6"
     r="0"
     cy="-1241.6"
     cx="-1248.7" />
  <circle
     id="circle1167"
     fill-rule="evenodd"
     fill="#5e4aa6"
     r="0"
     cy="23.854"
     cx="-149.15" />
  <g
     id="g1175"
     stroke-width="1.5715">
    <circle
       id="circle1169"
       fill="url(#linearGradient2121)"
       r="0"
       cy="17.5"
       cx="109.8" />
    <circle
       id="circle1171"
       fill="url(#linearGradient1969)"
       r="0"
       cy="15.826"
       cx="180.19" />
    <circle
       id="circle1173"
       fill="url(#linearGradient2204)"
       r="0"
       cy="7.4641"
       cx="133.33" />
  </g>
  <g
     id="g1185"
     stroke-width=".41578"
     transform="matrix(3.7796 0 0 3.7796 -.10175 -.48664)">
    <circle
       id="circle1177"
       fill="url(#linearGradient2295)"
       r="0"
       cy="-12.676"
       cx="16.449" />
    <circle
       id="circle1179"
       fill="url(#linearGradient1969-7)"
       r="0"
       cy="-13.119"
       cx="35.073" />
    <circle
       id="circle1181"
       fill="url(#linearGradient2067)"
       r="0"
       cy="-2.2732"
       cx="26.765" />
    <circle
       id="circle1183"
       fill="url(#linearGradient1969-6)"
       r="0"
       cy="-2.7161"
       cx="45.389" />
  </g>
  <g
     transform="matrix(3.7796,0,0,3.7796,-29.542676,-9.5482093)"
     id="g1193">
    <path
       d="m 11.553,7.0153 -0.18198,0.54747 1.8474,0.74102 -1.8474,0.74102 0.18198,0.54747 2.3768,-1.0065 V 8.02172 Z m 2.3734,3.3291 v 0.56712 H 16.762 V 10.3444 Z"
       enable-background="new"
       fill="#333333"
       id="path1191" />
  </g>
  <circle
     cx="-1326.9476"
     cy="-1275.7346"
     r="0"
     fill="#5e4aa6"
     id="circle41" />
  <circle
     cx="-227.39771"
     cy="-10.279697"
     r="0"
     fill="#5e4aa6"
     fill-rule="evenodd"
     id="circle43" />
</svg>
