<?xml version="1.0" encoding="UTF-8" standalone="no"?>
<svg
   xmlns:dc="http://purl.org/dc/elements/1.1/"
   xmlns:cc="http://creativecommons.org/ns#"
   xmlns:rdf="http://www.w3.org/1999/02/22-rdf-syntax-ns#"
   xmlns:svg="http://www.w3.org/2000/svg"
   xmlns="http://www.w3.org/2000/svg"
   xmlns:xlink="http://www.w3.org/1999/xlink"
   xmlns:sodipodi="http://sodipodi.sourceforge.net/DTD/sodipodi-0.dtd"
   xmlns:inkscape="http://www.inkscape.org/namespaces/inkscape"
   inkscape:version="1.0 (4035a4fb49, 2020-05-01)"
   sodipodi:docname="amarok.svg"
   id="svg81"
   viewBox="0 0 16.933 16.933"
   version="1.1"
   height="64"
   width="64">
  <sodipodi:namedview
     inkscape:current-layer="svg81"
     inkscape:window-maximized="1"
     inkscape:window-y="36"
     inkscape:window-x="0"
     inkscape:cy="30.504204"
     inkscape:cx="55.777102"
     inkscape:zoom="4"
     showgrid="false"
     id="namedview83"
     inkscape:window-height="964"
     inkscape:window-width="1920"
     inkscape:pageshadow="2"
     inkscape:pageopacity="0"
     guidetolerance="10"
     gridtolerance="10"
     objecttolerance="10"
     borderopacity="1"
     bordercolor="#666666"
     pagecolor="#ffffff" />
  <defs
     id="defs29">
    <filter
       color-interpolation-filters="sRGB"
       height="1.048"
       width="1.048"
       y="-.024"
       x="-.024"
       id="filter2761">
      <feGaussianBlur
         id="feGaussianBlur2"
         stdDeviation="0.14552168" />
    </filter>
    <linearGradient
       xlink:href="#g"
       gradientUnits="userSpaceOnUse"
       gradientTransform="rotate(180,21.87266,8.326)"
       y2="1.17"
       y1="15.576"
       x2="15.65"
       x1="1.3315"
       id="linearGradient1024">
      <stop
         id="stop5"
         offset="0"
         stop-color="#2878b9" />
      <stop
         id="stop7"
         offset="1"
         stop-color="#32507d" />
    </linearGradient>
    <linearGradient
       gradientUnits="userSpaceOnUse"
       y2="22.495"
       y1="23.644"
       x2="19.574"
       x1="3.783"
       id="g">
      <stop
         id="stop10"
         offset="0"
         stop-color="#2980b9" />
      <stop
         id="stop12"
         offset="1"
         stop-color="#34495e" />
    </linearGradient>
    <linearGradient
       gradientUnits="userSpaceOnUse"
       gradientTransform="matrix(3.7796269,0,0,3.7796269,-0.21220749,0.53215991)"
       y2="4.3843"
       y1="16.329"
       x2="13.323"
       x1="4.1298"
       id="linearGradient910">
      <stop
         id="stop15"
         offset="0"
         stop-color="#2878b4" />
      <stop
         id="stop17"
         offset="1"
         stop-color="#14a5ff" />
    </linearGradient>
    <linearGradient
       gradientTransform="matrix(0.34469,0,0,0.34469,-1.08,2.0734979)"
       gradientUnits="userSpaceOnUse"
       y2="17.991"
       y1="16.621"
       x2="24.839"
       x1="27.04"
       id="linearGradient914">
      <stop
         id="stop20"
         offset="0"
         stop-color="#fcfcfc" />
      <stop
         id="stop22"
         offset="1"
         stop-color="#c7c7c7" />
    </linearGradient>
    <linearGradient
       gradientTransform="matrix(0.34469,0,0,0.34469,-1.08,2.0734979)"
       xlink:href="#g"
       gradientUnits="userSpaceOnUse"
       y2="22.495"
       y1="23.644"
       x2="19.574"
       x1="3.783"
       id="linearGradient916" />
    <filter
       color-interpolation-filters="sRGB"
       height="1.1884"
       width="1.1527"
       y="-.094212"
       x="-.076364"
       id="filter1461">
      <feGaussianBlur
         id="feGaussianBlur26"
         stdDeviation="0.39452985" />
    </filter>
    <linearGradient
       id="linearGradient1057">
      <stop
         id="stop4"
         offset="0"
         stop-color="#fff" />
      <stop
         id="stop6"
         offset="1"
         stop-opacity="0"
         stop-color="#fff" />
    </linearGradient>
    <linearGradient
       gradientUnits="userSpaceOnUse"
       gradientTransform="matrix(1.5625,0,0,1.5625,0.40633,-5.1891)"
       y2="52.847"
       y1="27.545"
       x2="34.999"
       x1="34.999"
       id="linearGradient982">
      <stop
         id="stop9"
         offset="0"
         stop-color="#32b4ff" />
      <stop
         id="stop11"
         offset="1"
         stop-color="#3287ff" />
    </linearGradient>
    <style
       id="style14"
       type="text/css" />
    <style
       id="style16"
       type="text/css" />
    <linearGradient
       gradientUnits="userSpaceOnUse"
       gradientTransform="matrix(1.5625,0,0,1.5625,-9.2253,1.3231)"
       y2="43.681"
       y1="18.052"
       x2="21.314"
       x1="21.314"
       id="linearGradient1047">
      <stop
         id="stop18"
         offset="0"
         stop-color="#14dc78" />
      <stop
         id="stop20-3"
         offset="1"
         stop-color="#14a03c" />
    </linearGradient>
    <linearGradient
       gradientUnits="userSpaceOnUse"
       gradientTransform="matrix(1.5625,0,0,1.5625,-8.1072,-10.908)"
       y2="37.368"
       y1="12.316"
       x2="41.729"
       x1="41.729"
       id="linearGradient1049">
      <stop
         id="stop23"
         offset="0"
         stop-color="#ff3c64" />
      <stop
         id="stop25"
         offset="1"
         stop-color="#ff4628" />
    </linearGradient>
    <linearGradient
       xlink:href="#linearGradient1057"
       gradientUnits="userSpaceOnUse"
       gradientTransform="matrix(1,0,0,1.2271,0.20646,-10.975)"
       y2="39.768"
       y1="32.234"
       x2="34.427"
       x1="34.427"
       id="linearGradient1059" />
    <linearGradient
       xlink:href="#linearGradient1057"
       gradientUnits="userSpaceOnUse"
       gradientTransform="matrix(1,0,0,1.2271,-12.55,-19.793)"
       y2="39.768"
       y1="32.234"
       x2="34.427"
       x1="34.427"
       id="linearGradient1063" />
    <linearGradient
       xlink:href="#linearGradient1057"
       gradientUnits="userSpaceOnUse"
       gradientTransform="matrix(1,0,0,1.2271,5.7554,-25.761)"
       y2="39.768"
       y1="32.234"
       x2="34.427"
       x1="34.427"
       id="linearGradient1067" />
    <filter
       color-interpolation-filters="sRGB"
       height="1.048"
       width="1.048"
       y="-.024"
       x="-.024"
       id="filter2761-6">
      <feGaussianBlur
         id="feGaussianBlur31"
         stdDeviation="0.14552168" />
    </filter>
    <linearGradient
       gradientUnits="userSpaceOnUse"
       gradientTransform="matrix(3.7796,0,0,3.7796,72.4059,0.53085)"
       y2="1.17"
       y1="15.576"
       x2="15.65"
       x1="1.3315"
       id="linearGradient1024-7">
      <stop
         id="stop34"
         offset="0"
         stop-color="#dddfe1" />
      <stop
         id="stop36"
         offset="1"
         stop-opacity=".99608"
         stop-color="#f3f4f6" />
    </linearGradient>
    <filter
       color-interpolation-filters="sRGB"
       height="1.048"
       width="1.048"
       y="-.024"
       x="-.024"
       id="filter2761-3">
      <feGaussianBlur
         id="feGaussianBlur2-5"
         stdDeviation="0.14552168" />
    </filter>
    <linearGradient
       gradientUnits="userSpaceOnUse"
       gradientTransform="translate(0 -.07421)"
       y2="1.17"
       y1="15.576"
       x2="15.65"
       x1="1.3315"
       id="linearGradient1024-6">
      <stop
         id="stop5-3"
         offset="0"
         stop-color="#dddfe1" />
      <stop
         id="stop7-5"
         offset="1"
         stop-opacity=".99608"
         stop-color="#f3f4f6" />
    </linearGradient>
    <filter
       inkscape:collect="always"
       style="color-interpolation-filters:sRGB"
       id="filter1057"
       x="-0.027000001"
       width="1.054"
       y="-0.027000001"
       height="1.054">
      <feGaussianBlur
         inkscape:collect="always"
         stdDeviation="0.61875"
         id="feGaussianBlur1059" />
    </filter>
    <linearGradient
       inkscape:collect="always"
       xlink:href="#linearGradient1051"
       id="linearGradient1053"
       x1="-127"
       y1="60"
       x2="-72"
       y2="5"
       gradientUnits="userSpaceOnUse"
       gradientTransform="matrix(0.26457812,0,0,0.26457812,34.792022,-0.13493458)" />
    <linearGradient
       inkscape:collect="always"
       id="linearGradient1051">
      <stop
         style="stop-color:#32507d;stop-opacity:1"
         offset="0"
         id="stop1047" />
      <stop
         style="stop-color:#2878b9;stop-opacity:0.99607843"
         offset="1"
         id="stop1049" />
    </linearGradient>
  </defs>
  <metadata
     id="metadata31">
    <rdf:RDF>
      <cc:Work
         rdf:about="">
        <dc:format>image/svg+xml</dc:format>
        <dc:type
           rdf:resource="http://purl.org/dc/dcmitype/StillImage" />
        <dc:title></dc:title>
      </cc:Work>
    </rdf:RDF>
  </metadata>
  <rect
     transform="scale(0.26457812)"
     ry="15"
     y="4.5"
     x="4.5"
     height="55"
     width="55"
     id="rect1055"
     style="opacity:0.3;fill:#141414;fill-opacity:1;stroke-width:2.74436;stroke-linecap:round;filter:url(#filter1057)" />
  <rect
     style="fill:url(#linearGradient1053);fill-opacity:1;stroke-width:0.726098;stroke-linecap:round"
     id="rect1045"
     width="14.551796"
     height="14.551796"
     x="1.1906021"
     y="1.1906021"
     ry="3.9686716" />
  <g
     id="g57"
     filter="url(#filter1461)"
     transform="matrix(0.95883,0,0,0.8948,-19.969,1.6499979)">
    <path
       id="path37"
       stroke-width="3.7796"
       fill="#0078c8"
       enable-background="new"
       d="m 129.58,21.963 c -0.12751,3.25e-4 -0.26165,0.0078 -0.40235,0.0293 -2.246,0.34524 -7.3539,2.2459 -8.9668,2.6484 -1.6116,0.40256 -2.3664,0.76446 -4.9512,0.51953 -2.9469,-0.2788 -4.2717,-0.29754 -5.0469,-0.27539 -1.1608,-0.10292 -1.7461,-0.35742 -1.7461,-0.35742 l 0.10156,1.1426 c -0.77126,0.58886 -2.3251,1.4461 -5.5156,2.3125 -2.0727,0.2306 -3.7989,-0.40396 -4.8359,0.17188 -1.0357,0.57584 -4.3181,2.0154 -5.9883,2.418 -1.6702,0.40256 -2.9064,1.158 -3.9082,1.4863 -1.5907,0.51851 3.1525,8.1199 5.2109,9.1191 0,0 -0.71261,0.74053 -1.3027,1.3594 -1.4318,0.9784 -2.5605,1.043 -2.5605,1.043 l 0.07227,0.78516 c -1.2494,0.66385 -2.4897,1.0604 -3.2617,1.25 0.83663,11.481 4.6693,13.355 18.814,13.355 h 11.26 c 0.0237,-0.18202 0.0669,-0.44464 0.0801,-0.58203 0.56541,-0.83118 1.3262,-0.8418 1.3262,-0.8418 0,0 -0.97726,-2.7697 -0.88086,-6.1035 0.12116,-0.7908 0.32734,-1.5354 0.5879,-2.2441 h 0.98437 c 0,0 -0.12465,-1.3599 0.43164,-2.7422 1.8304,-2.7828 4.3295,-4.6428 5.3965,-5.4609 1.0058,-0.77256 5.6407,-1.9569 6.6191,-2.1875 0.97838,-0.2306 1.8997,-1.7869 1.957,-2.248 0.0573,-0.4611 -0.28712,-1.3242 -0.28712,-1.3242 l -2.5898,-0.57422 -3.1348,-0.35352 c 0,0 4.303,-6.3746 5.0781,-7.1133 0.82206,-0.78298 1.2227,-1.7469 1.2227,-2.668 0,-0.9211 -0.67773,-2.1602 -0.67773,-2.1602 0,0 -0.77864,-0.39391 -2.0488,-0.3457 -0.21236,0.0078 -0.43021,-0.02146 -0.66602,-0.04102 h -0.004 c -0.1179,-0.0098 -0.23968,-0.0179 -0.36719,-0.01758 z"
       transform="scale(0.26458)" />
    <g
       id="g55"
       fill-rule="evenodd"
       fill="#006ec8"
       transform="matrix(0.34469,0,0,0.34469,20.609,1.9327)">
      <g
         id="g53"
         stroke-width="0.76758"
         fill="#006ec8">
        <path
           id="path39"
           d="m 42.25,12 c 0,0 -0.313,-0.281 -0.656,-0.313 -0.344,-0.031 -1.063,0.094 -1.281,0.063 -0.219,-0.031 -0.969,-0.469 -0.969,-0.469 0,0 1,-0.563 1.344,-0.625 0.344,-0.063 0.938,-0.156 0.938,-0.156 0,0 0.25,0.313 0.438,0.75 0.188,0.438 0.188,0.75 0.188,0.75" />
        <path
           id="path41"
           d="m 40.987,21.23 c -0.675,0.09 -0.805,0.015 -0.805,0.015 0,0 0.156,-0.707 0.325,-0.767 0.169,-0.06 0.662,0.707 0.48,0.752" />
        <path
           id="path43"
           d="m 41.906,14.969 c 0,0 -2.219,1.063 -3.281,2.719 -1.063,1.656 -1.813,3.344 -1.813,3.344 0,0 0.75,0.156 1.438,0.406 0.688,0.25 1.938,0.313 2.469,0.219 0.531,-0.094 0.688,-0.344 0.156,-0.563 -0.531,-0.219 -1.313,-0.375 -1.344,-0.844 -0.031,-0.469 0.969,-3.188 1.25,-3.625 0.281,-0.438 1.125,-1.656 1.125,-1.656" />
        <path
           id="path45"
           d="m 22.438,20.375 c 0,0 2.749,-0.414 3.796,-1.04 3.414,-2.04 3.298,-3.179 3.298,-3.179 0,0 -3.611,-1.445 -6.108,1.534 -1.045,1.247 -0.986,2.685 -0.986,2.685" />
        <path
           id="path47"
           d="m 23.467,19.14 c 0,0 2.74,-0.552 3.757,-1.304 1.016,-0.751 1.436,-1.149 1.304,-1.414 -0.133,-0.265 -1.127,-0.663 -2.364,-0.354 -1.237,0.309 -2.121,1.193 -2.364,1.746 -0.243,0.552 -0.486,1.149 -0.331,1.326" />
        <path
           id="path49"
           d="m 38.956,21.676 c 1.01,0.116 1.2,0.019 1.2,0.019 0,0 -0.232,-0.91 -0.484,-0.987 -0.252,-0.077 -0.987,0.91 -0.716,0.968" />
        <path
           id="path51"
           d="m 12.298,24.795 c 1.01,0.774 3.56,1.23 4.811,1.048 C 20.06,25.412 20.212,25.633 19.5,23.75 18.986,22.391 16,21 14,23 l -1,-1 c 0.593,-0.854 -0.5,-2.844 -1,-3 -0.5,-0.156 -2.859,0.486 -3.078,0.705 -0.219,0.219 2.369,4.317 3.376,5.091" />
      </g>
    </g>
  </g>
  <path
     transform="scale(0.26457812)"
     d="M 47.605469 22.494141 L 47.605469 22.496094 C 47.477945 22.496419 47.343813 22.503885 47.203125 22.525391 C 44.957108 22.870635 39.849239 24.771325 38.236328 25.173828 C 36.624716 25.576399 35.869975 25.938291 33.285156 25.693359 C 30.338235 25.414557 29.013487 25.395819 28.238281 25.417969 C 27.077473 25.315048 26.492187 25.060547 26.492188 25.060547 L 26.59375 26.203125 C 25.822484 26.791989 24.268647 27.649219 21.078125 28.515625 C 19.00541 28.746227 17.279195 28.111656 16.242188 28.6875 C 15.20648 29.263344 11.924118 30.702866 10.253906 31.105469 C 8.5836945 31.508032 7.3475101 32.263495 6.3457031 32.591797 C 4.7549919 33.110311 9.4982259 40.711732 11.556641 41.710938 C 11.556641 41.710938 10.844 42.45144 10.253906 43.070312 C 8.8220963 44.048719 7.6933594 44.113281 7.6933594 44.113281 L 7.765625 44.898438 C 6.5540826 45.542171 5.3675218 45.925019 4.5917969 46.121094 C 5.3161775 52.912034 10.536835 58.303902 17.236328 59.3125 C 18.914994 59.436651 20.797109 59.494372 22.927734 59.5 L 34.578125 59.5 C 34.60192 59.318128 34.645088 59.058362 34.658203 58.921875 C 35.223617 58.090691 35.984375 58.078125 35.984375 58.078125 C 35.984375 58.078125 35.007115 55.308434 35.103516 51.974609 C 35.224678 51.183803 35.430846 50.439174 35.691406 49.730469 L 36.675781 49.730469 C 36.675781 49.730469 36.551128 48.370591 37.107422 46.988281 C 38.937835 44.205462 41.436898 42.345446 42.503906 41.527344 C 43.509711 40.754778 48.14464 39.570445 49.123047 39.339844 C 50.101442 39.10925 51.022779 37.5529 51.080078 37.091797 C 51.137377 36.630693 50.792969 35.767578 50.792969 35.767578 L 48.203125 35.193359 L 45.068359 34.839844 C 45.068359 34.839844 49.371379 28.465268 50.146484 27.726562 C 50.968548 26.943577 51.369141 25.979701 51.369141 25.058594 C 51.369141 24.137487 50.691406 22.898438 50.691406 22.898438 C 50.691406 22.898438 49.912747 22.504523 48.642578 22.552734 C 48.430202 22.56052 48.212372 22.531271 47.976562 22.511719 L 47.972656 22.511719 C 47.85477 22.50193 47.732993 22.4938 47.605469 22.494141 z "
     style="fill:url(#linearGradient910)"
     id="path59" />
  <path
     d="m 13.483152,6.2097779 c 0,0 -0.107887,-0.096858 -0.226116,-0.107888 -0.118574,-0.010685 -0.366406,0.032401 -0.441548,0.021715 -0.07549,-0.010685 -0.334005,-0.1616596 -0.334005,-0.1616596 0,0 0.34469,-0.1940605 0.463264,-0.2154313 0.118573,-0.021715 0.323319,-0.053772 0.323319,-0.053772 0,0 0.08617,0.107888 0.150974,0.2585175 0.0648,0.1509742 0.0648,0.2585175 0.0648,0.2585175"
     fill="#2c3e50"
     id="path61"
     style="fill-rule:evenodd;stroke-width:0.264577" />
  <path
     d="m 13.047809,9.3912666 c -0.232666,0.031022 -0.277475,0.00517 -0.277475,0.00517 0,0 0.05377,-0.2436959 0.112024,-0.2643773 0.05825,-0.020681 0.228185,0.2436959 0.165451,0.2592069"
     fill="#fcfcfc"
     id="path63"
     style="fill-rule:evenodd;stroke-width:0.264577" />
  <path
     d="m 13.364579,7.2331625 c 0,0 -0.764867,0.3664055 -1.130928,0.9372121 -0.366405,0.5708067 -0.624923,1.1526434 -0.624923,1.1526434 0,0 0.258518,0.053772 0.495664,0.1399441 0.237147,0.086172 0.66801,0.107888 0.85104,0.075487 0.18303,-0.032401 0.237147,-0.1185733 0.05377,-0.1940604 C 12.826173,9.2689017 12.556626,9.21513 12.54594,9.0534704 12.535255,8.8918108 12.879945,7.9545987 12.976803,7.8039692 13.073661,7.6529949 13.364579,7.2331625 13.364579,7.2331625"
     fill="#2c3e50"
     id="path65"
     style="fill-rule:evenodd;stroke-width:0.264577" />
  <path
     d="m 6.6541542,9.0965567 c 0,0 0.9475528,-0.1427017 1.3084433,-0.3584776 1.1767716,-0.7031676 1.1367876,-1.0957696 1.1367876,-1.0957696 0,0 -1.2446756,-0.498077 -2.1053665,0.5287545 C 6.6338175,8.6008924 6.6541542,9.0965567 6.6541542,9.0965567"
     fill="#34495e"
     id="path67"
     style="fill-rule:evenodd;stroke-width:0.264577" />
  <path
     d="m 7.0088402,8.6708645 c 0,0 0.9444506,-0.1902689 1.2950004,-0.4494758 C 8.6540456,7.9625265 8.7988154,7.8253399 8.7533163,7.7339971 8.7074726,7.6426542 8.3648507,7.5054676 7.9384692,7.6119768 7.5120876,7.718486 7.2073817,8.023192 7.123622,8.2138056 7.0398623,8.4040744 6.9561027,8.6098544 7.0095296,8.6708645"
     fill="url(#linearGradient914)"
     id="path69"
     style="fill:url(#linearGradient914);fill-rule:evenodd;stroke-width:0.264577" />
  <path
     d="m 12.347744,9.5449983 c 0.348137,0.039984 0.413628,0.00655 0.413628,0.00655 0,0 -0.07997,-0.3136679 -0.16683,-0.340209 -0.08686,-0.026541 -0.340209,0.3136679 -0.246798,0.3336599"
     fill="#fcfcfc"
     id="path71"
     style="fill-rule:evenodd;stroke-width:0.264577" />
  <path
     d="M 3.1589976,10.620086 C 3.5071345,10.886877 4.386094,11.044055 4.8173012,10.981322 5.8344814,10.83276 5.8868743,10.908937 5.641455,10.259885 5.4642843,9.7914517 4.43504,9.3119879 3.74566,10.001368 L 3.40097,9.6566779 C 3.6053712,9.3623126 3.228625,8.6763795 3.05628,8.6226079 2.883935,8.5688363 2.0708113,8.7901272 1.9953242,8.8656144 1.9198371,8.9411015 2.8118948,10.353641 3.1589976,10.620431"
     fill="url(#linearGradient916)"
     id="path73"
     style="fill:url(#linearGradient916);fill-rule:evenodd;stroke-width:0.264577" />
  <circle
     style="stroke-width:0.264578"
     cx="-355.89673"
     cy="-335.64661"
     r="0"
     fill="#5e4aa6"
     id="circle41" />
  <circle
     style="stroke-width:0.264578"
     cx="-64.979858"
     cy="-0.83490866"
     r="0"
     fill="#5e4aa6"
     fill-rule="evenodd"
     id="circle43" />
</svg>
