<?xml version="1.0" encoding="UTF-8" standalone="no"?>
<svg
   width="64"
   height="64"
   version="1.1"
   id="svg6"
   sodipodi:docname="among-us.svg"
   inkscape:version="1.4 (e7c3feb100, 2024-10-09)"
   xmlns:inkscape="http://www.inkscape.org/namespaces/inkscape"
   xmlns:sodipodi="http://sodipodi.sourceforge.net/DTD/sodipodi-0.dtd"
   xmlns="http://www.w3.org/2000/svg"
   xmlns:svg="http://www.w3.org/2000/svg">
  <defs
     id="defs6">
    <filter
       id="filter1057"
       x="-0.026999999"
       y="-0.026999999"
       width="1.054"
       height="1.054"
       color-interpolation-filters="sRGB">
      <feGaussianBlur
         stdDeviation="0.61875"
         id="feGaussianBlur269" />
    </filter>
    <linearGradient
       id="linearGradient1053"
       x1="-127"
       x2="-72"
       y1="60"
       y2="5"
       gradientTransform="translate(131.5,-0.510001)"
       gradientUnits="userSpaceOnUse">
      <stop
         stop-color="#fad21e"
         offset="0"
         id="stop272-3" />
      <stop
         stop-color="#faeb1e"
         stop-opacity=".99608"
         offset="1"
         id="stop274" />
    </linearGradient>
  </defs>
  <sodipodi:namedview
     id="namedview6"
     pagecolor="#505050"
     bordercolor="#eeeeee"
     borderopacity="1"
     inkscape:showpageshadow="0"
     inkscape:pageopacity="0"
     inkscape:pagecheckerboard="0"
     inkscape:deskcolor="#505050"
     inkscape:zoom="6.4523494"
     inkscape:cx="-19.837735"
     inkscape:cy="28.981692"
     inkscape:window-width="2560"
     inkscape:window-height="1411"
     inkscape:window-x="0"
     inkscape:window-y="0"
     inkscape:window-maximized="1"
     inkscape:current-layer="svg6" />
  <rect
     x="4.5000005"
     y="4.499999"
     width="55"
     height="55"
     ry="15"
     fill="#141414"
     filter="url(#filter1057)"
     opacity="0.3"
     stroke-linecap="round"
     stroke-width="2.7444"
     id="rect279" />
  <rect
     x="4.5000005"
     y="4.4999981"
     width="55"
     height="55"
     ry="15"
     fill="url(#linearGradient1053)"
     stroke-linecap="round"
     stroke-width="2.7444"
     id="rect281-6"
     style="fill:url(#linearGradient1053)" />
  <path
     fill="#f2fbfc"
     d="m 13.777,28.760998 c -1.627,-2.84 3.236,-3.531 5.16,-3.928 1.956,-0.228 5.49,-0.868 5.764,1.93 -0.806,3.914 -5.438,2.372 -9.215,2.444 -0.4,-0.07 -1.472,0.004 -1.709,-0.446"
     id="path1" />
  <path
     fill="#72d7f0"
     d="m 19.493,32.665998 c -3.565,-0.244 -7.912,1.16 -9.115,-2.81 0.75,-4.202 4.849,-5.978 8.492,-5.783 3.226,-0.107 6.798,-0.447 9.924,0.568 2.416,1.629 1.496,5.595 -0.642,6.877 -2.035,1.506 -3.634,1.27 -6.255,1.195 l -1.442,-0.086 z m -1.853,-3.818 c 2.243,-0.594 6.169,0.683 7.063,-2.085 -0.276,-2.798 -3.81,-2.157 -5.765,-1.93 -2.04,0.31 -6.991,1.429 -4.682,4.164 q 1.693,-0.058 3.384,-0.149"
     id="path2" />
  <path
     id="path3"
     d="M 51.242188 32.144531 C 51.762188 32.554531 52.279359 33.341359 52.693359 34.193359 C 52.653359 33.973359 52.614313 33.75625 52.570312 33.53125 C 52.407313 32.93725 51.896188 32.478531 51.242188 32.144531 z " />
  <path
     id="path38"
     d="M 51.119141 32.083984 L 51.242188 32.144531 C 51.218187 32.125531 51.196828 32.099984 51.173828 32.083984 C 51.158828 32.084984 51.133141 32.080984 51.119141 32.083984 z " />
  <path
     id="path37"
     d="M 53.248047 37.556641 L 53.25 37.556641 C 53.818371 37.371982 53.420159 35.691417 52.693359 34.197266 C 52.911037 35.345908 53.092221 36.460862 53.248047 37.556641 z " />
  <path
     id="path35"
     d="M 47.044922 59.269531 C 49.580699 58.838696 51.894633 57.784288 53.822266 56.255859 C 54.255208 53.146671 54.022971 49.423082 54.019531 46.521484 C 53.886531 43.346484 53.664047 40.503641 53.248047 37.556641 C 53.146302 37.587969 53.017604 37.575509 52.853516 37.503906 L 51.666016 36.986328 C 50.800016 36.609328 50.649547 36.465734 49.560547 36.427734 C 47.238547 37.026734 47.011703 35.442016 47.095703 33.541016 A 3 3 0 0 1 46.966797 33.115234 C 47.526797 39.565234 47.439859 46.553406 47.130859 52.941406 C 47.371348 54.822544 45.699071 58.822671 47.044922 59.269531 z "
     style="fill:#880832;fill-opacity:1" />
  <path
     id="path34"
     d="M 33.714844 25.443359 L 34.708984 24.449219 C 32.499248 22.469455 28.74879 20.974187 23.128906 20.5 C 28.835714 21.256171 32.192018 23.134624 33.714844 25.443359 z " />
  <path
     id="path33"
     d="M 19.228516 39.912109 C 30.064516 39.436109 37.471844 31.138359 33.714844 25.443359 L 19.228516 39.912109 z " />
  <path
     id="path32"
     d="M 13.712891 39.476562 C 15.362891 40.035562 16.968625 40.411047 18.515625 40.623047 L 19.228516 39.912109 A 23 23 0 0 1 13.712891 39.476562 z " />
  <path
     id="path30"
     d="M 13.634766 58.316406 C 15.434848 59.077748 17.416267 59.5 19.5 59.5 L 41.236328 59.5 C 41.545328 59.472 41.886562 59.485 42.226562 59.5 L 43.244141 59.5 C 43.439141 59.482 43.624156 59.446812 43.785156 59.382812 C 44.231156 56.820813 44.808312 53.782594 44.945312 51.183594 C 45.065312 44.242594 44.409109 37.234875 44.412109 30.296875 C 43.837109 27.863875 43.230547 25.553266 42.810547 23.072266 C 41.977547 20.129266 40.337781 17.043516 37.300781 15.728516 C 34.620781 14.054516 31.382812 14.655953 28.382812 14.501953 C 25.532812 14.889953 22.886734 16.218391 20.427734 17.650391 C 20.034734 18.326391 16.487578 20.718797 18.517578 20.341797 C 20.177848 20.321806 21.708479 20.380107 23.126953 20.5 A 42 42 0 0 0 19.363281 20.183594 C 16.391281 20.871594 19.858141 18.568969 20.619141 17.667969 C 22.701141 16.396969 24.998328 15.374625 27.361328 14.765625 C 29.615328 14.492625 31.931219 14.633281 34.199219 14.738281 C 36.663219 15.168281 39.163453 16.507562 40.439453 18.726562 L 34.708984 24.449219 C 41.925984 30.920219 32.698625 42.559047 18.515625 40.623047 L 13.388672 45.744141 C 12.737672 43.679141 13.042078 41.500344 13.330078 39.402344 C 13.458078 39.429344 13.585891 39.450563 13.712891 39.476562 C 13.554891 39.422562 13.397281 39.375359 13.238281 39.318359 C 12.805281 42.551359 12.701109 45.838516 12.662109 49.103516 C 12.549071 52.256536 12.763341 55.02736 13.634766 58.316406 z M 48.074219 31.484375 C 47.534219 31.507375 47.091609 31.610922 46.849609 31.794922 C 46.880609 32.098922 46.901688 32.410797 46.929688 32.716797 C 47.031687 31.271797 50.017141 32.209984 51.119141 32.083984 C 50.185141 31.641984 48.994172 31.444375 48.076172 31.484375 L 48.074219 31.484375 z "
     style="fill:#880832;fill-opacity:1" />
  <path
     fill="#ef1615"
     d="m 22.734,55.483998 c -3.345,-0.293 -6.77,-2.068 -8.007,-5.338 -1.145,-3.02 -2.638,-6.703 -2.05,-9.958 -0.114,-2.501 3.628,-0.253 5.229,-0.508 2.89,0.659 5.618,0.761 8.507,0.232 2.677,-0.877 5.497,-1.169 7.016,-3.828 1.451,-2.039 2.385,-4.536 2.07,-7.081 0.427,-2.933 -1.352,-4.6 -3.527,-6.338 -2.54,-1.61 -5.3,-1.682 -8.212,-1.86 -1.852,-0.117 -5.635,0.41 -6.974,0.28 1.583,-1.708 4.264,-5.011 6.506,-5.775 1.926,-0.894 4.586,-1.683 6.745,-1.484 2.668,-0.018 5.782,0.138 8.1,1.708 2.295,1.073 4.084,3.573 4.225,6.03 0.58,3.23 0.09,6.696 0.335,9.963 -0.04,5.667 -1.81,11.44 -3.75,16.743 -1.07,2.151 -1.823,4.782 -4.146,5.953 -2.402,0.814 -4.897,1.224 -7.434,1.29 -1.542,0.035 -3.096,0.138 -4.633,-0.029 z m 29.569,-17.953 c -1.67,-1.692 -5.52,0.902 -5.237,-3.127 -0.397,-1.66 0.094,-3.524 2.117,-2.72 2.695,-0.624 4.188,3.293 3.568,5.69 0.19,0.247 -0.2,0.85 -0.448,0.157"
     id="path4" />
  <path
     fill="#225584"
     d="m 21.09,38.094998 c -2.823,-0.012 -5.6,-1.01 -8.179,-2.169 -2.177,-1.324 -3.532,-4.254 -2.537,-6.833 1.5,-3.591 5.62,-5.491 9.361,-5.353 3.412,-0.122 6.984,-0.382 10.29,0.625 2.863,0.55 3.305,4.188 2.829,6.52 -0.223,2.853 -2.449,5.425 -4.98,6.497 -1.917,0.742 -3.514,0.727 -5.545,0.718 z m 2.42,-5.574 c 2.51,0.044 5.113,-0.877 6.093,-3.399 1.298,-2.504 -1.283,-5.28 -4.105,-4.969 -3.321,-0.204 -6.042,-0.264 -9.316,0.367 -2.435,0.756 -4.67,2.422 -5.6,4.854 0.188,3.103 3.913,2.6 6.11,2.914 2.268,0.15 4.545,0.364 6.819,0.233"
     id="path5" />
  <path
     id="path7"
     d="M 10.087891 56.1875 C 11.222654 57.101251 12.493418 57.850017 13.867188 58.404297 C 13.759508 57.109135 12.847448 55.173514 12.943359 54.017578 C 12.373359 49.213578 12.778828 44.331391 13.173828 39.525391 C 14.638828 39.425391 16.851125 40.725344 18.703125 40.777344 C 22.537125 41.282344 26.542281 40.849594 30.113281 39.308594 C 33.069281 38.578594 34.604609 35.713625 35.724609 33.140625 C 36.232609 30.933625 36.411828 28.407187 35.673828 26.242188 C 34.540828 24.065188 32.979125 22.055469 30.578125 21.230469 C 26.646125 20.250469 22.538578 20.315797 18.517578 20.341797 C 16.485578 20.718797 20.033734 18.326391 20.427734 17.650391 C 22.887734 16.218391 25.531813 14.889953 28.382812 14.501953 C 31.208813 14.657953 34.213453 14.099891 36.814453 15.462891 C 39.937453 16.639891 41.362328 19.889141 42.236328 22.869141 C 42.756328 25.509141 43.252391 28.144188 43.900391 30.742188 C 43.888391 37.451188 44.14725 44.163953 44.03125 50.876953 C 43.89225 53.720953 44.228438 56.626594 43.773438 59.433594 C 44.337801 59.452508 44.902689 59.455035 45.466797 59.464844 C 46.161799 59.420956 46.846117 59.335772 47.511719 59.201172 A 11 11 0 0 1 47.115234 59.166016 C 47.532234 52.375016 47.839859 45.542563 47.630859 38.726562 C 47.724859 36.569563 46.909375 34.019516 47.359375 32.103516 C 50.099375 31.598516 52.953109 32.890047 52.662109 35.998047 C 53.202109 41.468047 53.626203 46.986422 53.283203 52.482422 C 52.996889 53.865307 53.155476 55.586497 52.775391 57.019531 C 54.293273 56.016791 55.608345 54.741447 56.669922 53.267578 C 57.006412 50.443159 56.953831 47.561368 56.722656 44.732422 C 56.335656 40.263422 56.335141 35.641625 54.744141 31.390625 C 53.720141 29.046625 50.667297 29.286359 48.529297 28.818359 C 46.559297 28.372359 46.370625 27.062109 46.140625 25.412109 C 45.805625 22.484109 44.649406 19.775953 43.441406 17.126953 C 42.236406 14.150953 39.509687 12.157094 36.554688 11.121094 C 33.570323 10.471232 30.444777 10.754792 27.400391 10.667969 L 27.398438 10.667969 C 23.203287 10.678746 19.625835 13.178285 16.570312 15.796875 C 14.481312 17.458875 12.953656 19.690156 12.347656 22.285156 C 8.8746563 24.595156 6.5709844 28.922094 7.2089844 33.121094 C 7.3189844 35.083094 8.8125781 36.748125 9.7675781 38.078125 C 9.6409185 44.097694 9.2319278 50.212747 10.087891 56.1875 z M 24.675781 23.869141 C 27.073781 24.062141 29.925062 24.119953 31.789062 25.751953 C 33.289062 27.754953 32.890875 30.638984 32.171875 32.833984 C 30.898875 35.763984 27.806844 37.554344 24.714844 37.902344 C 22.321844 38.113344 19.848937 38.022578 17.585938 37.142578 C 15.055938 36.697578 12.532141 35.68525 10.994141 33.53125 C 9.2711406 31.09625 10.567172 27.742531 12.826172 26.144531 C 16.112172 23.311531 20.677781 23.990141 24.675781 23.869141 z " />
</svg>
