<?xml version="1.0" encoding="UTF-8" standalone="no"?>
<svg
   width="64"
   height="64"
   version="1.1"
   id="svg10"
   sodipodi:docname="aperture-desk-job.svg"
   inkscape:version="1.4 (e7c3feb100, 2024-10-09)"
   xmlns:inkscape="http://www.inkscape.org/namespaces/inkscape"
   xmlns:sodipodi="http://sodipodi.sourceforge.net/DTD/sodipodi-0.dtd"
   xmlns:xlink="http://www.w3.org/1999/xlink"
   xmlns="http://www.w3.org/2000/svg"
   xmlns:svg="http://www.w3.org/2000/svg">
  <sodipodi:namedview
     id="namedview10"
     pagecolor="#505050"
     bordercolor="#eeeeee"
     borderopacity="1"
     inkscape:showpageshadow="0"
     inkscape:pageopacity="0"
     inkscape:pagecheckerboard="0"
     inkscape:deskcolor="#505050"
     inkscape:zoom="9.125"
     inkscape:cx="22.136986"
     inkscape:cy="39.452055"
     inkscape:window-width="2560"
     inkscape:window-height="1411"
     inkscape:window-x="0"
     inkscape:window-y="0"
     inkscape:window-maximized="1"
     inkscape:current-layer="svg10" />
  <defs
     id="defs7">
    <linearGradient
       id="b">
      <stop
         offset="0"
         style="stop-color:#0d0d0d;stop-opacity:1"
         id="stop1" />
      <stop
         offset="1"
         style="stop-color:#262626;stop-opacity:1"
         id="stop2" />
    </linearGradient>
    <linearGradient
       id="a">
      <stop
         offset="0"
         style="stop-color:#d9d9d9;stop-opacity:1"
         id="stop3" />
      <stop
         offset="1"
         style="stop-color:#fff;stop-opacity:1"
         id="stop4" />
    </linearGradient>
    <linearGradient
       id="c"
       x1="7.937"
       x2="7.937"
       y1="15.081"
       y2="1.852"
       gradientTransform="matrix(3.7796,0,0,3.7796,80.125853,0)"
       gradientUnits="userSpaceOnUse">
      <stop
         offset=".01"
         stop-color="#f54800"
         style="stop-color:#ec2f16;stop-opacity:1"
         id="stop5" />
      <stop
         offset="1"
         stop-color="#ffb200"
         style="stop-color:#e88732;stop-opacity:1"
         id="stop6" />
    </linearGradient>
    <linearGradient
       xlink:href="#a"
       id="g"
       x1="15.44"
       x2="15.622"
       y1="48.721"
       y2="15.287"
       gradientUnits="userSpaceOnUse" />
    <linearGradient
       xlink:href="#b"
       id="e"
       x1="9.458"
       x2="9.136"
       y1="54.415"
       y2="9.556"
       gradientUnits="userSpaceOnUse" />
    <filter
       id="f"
       width="1.2164875"
       height="1.2156116"
       x="-0.10824373"
       y="-0.10780581"
       style="color-interpolation-filters:sRGB">
      <feGaussianBlur
         stdDeviation="1.51"
         id="feGaussianBlur6" />
    </filter>
    <filter
       id="d"
       width="1.0959966"
       height="1.0959966"
       x="-0.047998287"
       y="-0.047998287"
       style="color-interpolation-filters:sRGB">
      <feGaussianBlur
         stdDeviation="1.12"
         id="feGaussianBlur7" />
    </filter>
    <filter
       inkscape:collect="always"
       style="color-interpolation-filters:sRGB"
       id="filter1057"
       x="-0.026999999"
       width="1.054"
       y="-0.026999999"
       height="1.054">
      <feGaussianBlur
         inkscape:collect="always"
         stdDeviation="0.61875"
         id="feGaussianBlur1059" />
    </filter>
    <linearGradient
       inkscape:collect="always"
       xlink:href="#linearGradient1051"
       id="linearGradient1053"
       x1="-127"
       y1="60"
       x2="-72"
       y2="5"
       gradientUnits="userSpaceOnUse"
       gradientTransform="translate(131.5,-0.5099987)" />
    <linearGradient
       inkscape:collect="always"
       id="linearGradient1051">
      <stop
         style="stop-color:#ff8228;stop-opacity:1"
         offset="0"
         id="stop1047" />
      <stop
         id="stop963"
         offset="0.50054371"
         style="stop-color:#ff5a1e;stop-opacity:0.99607843" />
      <stop
         style="stop-color:#ff8c55;stop-opacity:0.99607843"
         offset="1"
         id="stop1049" />
    </linearGradient>
  </defs>
  <rect
     ry="15"
     y="4.4999995"
     x="4.4999995"
     height="55"
     width="55"
     id="rect1055"
     style="opacity:0.3;fill:#141414;fill-opacity:1;stroke-width:2.74436;stroke-linecap:round;filter:url(#filter1057)" />
  <rect
     style="fill:url(#linearGradient1053);fill-opacity:1;stroke-width:2.74436;stroke-linecap:round"
     id="rect1045"
     width="54.999996"
     height="54.999996"
     x="4.5000019"
     y="4.5000019"
     ry="14.999999" />
  <g
     id="g10">
    <ellipse
       cx="32"
       cy="32"
       rx="22.5"
       ry="23.116"
       style="opacity:1;fill:url(#e);fill-opacity:1;stroke-width:.61175;stroke-linecap:round;stroke-linejoin:round"
       id="ellipse9" />
    <path
       fill="#fff"
       fill-opacity=".9"
       d="M31.981 15.192a16.8 16.8 0 0 0-10.333 3.602h20.72a16.8 16.8 0 0 0-10.387-3.602m-11.703 4.802a16.8 16.8 0 0 0-2.81 3.602h9.912a9.6 9.6 0 0 1 4.601-1.2 9.6 9.6 0 0 1 4.643 1.2h9.907a16.8 16.8 0 0 0-2.79-3.602Zm-3.726 5.403A16.8 16.8 0 0 0 15.26 30.8h7.203a9.6 9.6 0 0 1 2.572-5.403zm22.4 0a9.6 9.6 0 0 1 2.556 5.403h7.232a16.8 16.8 0 0 0-1.306-5.403zM15.26 33.2a16.8 16.8 0 0 0 1.066 4.803h8.182a9.6 9.6 0 0 1-2.045-4.803zm26.239 0a9.6 9.6 0 0 1-2.044 4.803h8.181a16.8 16.8 0 0 0 1.066-4.803zm-23.27 8.404a16.82 16.82 0 0 0 13.752 7.204 16.82 16.82 0 0 0 13.752-7.204z"
       style="fill:#000;fill-opacity:1;stroke-width:1.10815;filter:url(#f);opacity:.7"
       id="path9" />
    <path
       fill="#fff"
       fill-opacity=".9"
       d="M31.981 15.192a16.8 16.8 0 0 0-10.333 3.602h20.72a16.8 16.8 0 0 0-10.387-3.602m-11.703 4.802a16.8 16.8 0 0 0-2.81 3.602h9.912a9.6 9.6 0 0 1 4.601-1.2 9.6 9.6 0 0 1 4.643 1.2h9.907a16.8 16.8 0 0 0-2.79-3.602Zm-3.726 5.403A16.8 16.8 0 0 0 15.26 30.8h7.203a9.6 9.6 0 0 1 2.572-5.403zm22.4 0a9.6 9.6 0 0 1 2.556 5.403h7.232a16.8 16.8 0 0 0-1.306-5.403zM15.26 33.2a16.8 16.8 0 0 0 1.066 4.803h8.182a9.6 9.6 0 0 1-2.045-4.803zm26.239 0a9.6 9.6 0 0 1-2.044 4.803h8.181a16.8 16.8 0 0 0 1.066-4.803zm-23.27 8.404a16.82 16.82 0 0 0 13.752 7.204 16.82 16.82 0 0 0 13.752-7.204z"
       style="stroke-width:1.10815;fill:url(#g);fill-opacity:1"
       id="path10" />
  </g>
</svg>
