<?xml version="1.0" encoding="UTF-8" standalone="no"?>
<svg
   width="64"
   height="64"
   version="1.1"
   viewBox="0 0 16.933 16.933"
   id="svg23"
   sodipodi:docname="apk-editor-estudio.svg"
   inkscape:version="1.3.2 (091e20ef0f, 2023-11-25, custom)"
   xmlns:inkscape="http://www.inkscape.org/namespaces/inkscape"
   xmlns:sodipodi="http://sodipodi.sourceforge.net/DTD/sodipodi-0.dtd"
   xmlns:xlink="http://www.w3.org/1999/xlink"
   xmlns="http://www.w3.org/2000/svg"
   xmlns:svg="http://www.w3.org/2000/svg"
   xmlns:rdf="http://www.w3.org/1999/02/22-rdf-syntax-ns#"
   xmlns:cc="http://creativecommons.org/ns#"
   xmlns:dc="http://purl.org/dc/elements/1.1/">
  <sodipodi:namedview
     id="namedview23"
     pagecolor="#ffffff"
     bordercolor="#000000"
     borderopacity="0.25"
     inkscape:showpageshadow="2"
     inkscape:pageopacity="0.0"
     inkscape:pagecheckerboard="0"
     inkscape:deskcolor="#d1d1d1"
     inkscape:zoom="4.1321553"
     inkscape:cx="29.161537"
     inkscape:cy="33.154611"
     inkscape:window-width="1920"
     inkscape:window-height="955"
     inkscape:window-x="0"
     inkscape:window-y="34"
     inkscape:window-maximized="1"
     inkscape:current-layer="svg23" />
  <defs
     id="defs16">
    <radialGradient
       id="radialGradient3160"
       cx="24.249"
       cy="24.25"
       r="9.6332"
       gradientTransform="matrix(0.68663764,0,0,0.68663764,-8.1837018,-8.1846081)"
       gradientUnits="userSpaceOnUse">
      <stop
         offset="0"
         id="stop1" />
      <stop
         stop-opacity=".78764"
         offset=".71616"
         id="stop2" />
      <stop
         stop-opacity=".67451"
         offset=".74621"
         id="stop3" />
      <stop
         stop-opacity=".61961"
         offset=".76305"
         id="stop4" />
      <stop
         stop-opacity=".5451"
         offset=".78595"
         id="stop5" />
      <stop
         stop-opacity=".48627"
         offset=".80683"
         id="stop6" />
      <stop
         stop-opacity=".29804"
         offset=".86207"
         id="stop7" />
      <stop
         stop-opacity=".18824"
         offset=".89036"
         id="stop8" />
      <stop
         stop-opacity=".082353"
         offset=".92404"
         id="stop9" />
      <stop
         stop-opacity=".043137"
         offset=".9429"
         id="stop10" />
      <stop
         stop-opacity=".031373"
         offset=".95596"
         id="stop11" />
      <stop
         stop-opacity=".027451"
         offset=".96081"
         id="stop12" />
      <stop
         stop-opacity="0"
         offset=".99197"
         id="stop13" />
      <stop
         stop-opacity="0"
         offset="1"
         id="stop14" />
    </radialGradient>
    <linearGradient
       id="linearGradient4763"
       x1="-42.682"
       x2="-42.682"
       y1="11.292"
       y2="52.863"
       gradientTransform="matrix(0.26458,0,0,0.26458,19.3505,0.00852)"
       gradientUnits="userSpaceOnUse">
      <stop
         stop-color="#89d754"
         offset="0"
         id="stop15" />
      <stop
         stop-color="#4ab203"
         offset="1"
         id="stop16" />
    </linearGradient>
    <filter
       inkscape:collect="always"
       style="color-interpolation-filters:sRGB"
       id="filter1057"
       x="-0.026999999"
       width="1.054"
       y="-0.026999999"
       height="1.054">
      <feGaussianBlur
         inkscape:collect="always"
         stdDeviation="0.61875"
         id="feGaussianBlur1059" />
    </filter>
    <linearGradient
       inkscape:collect="always"
       xlink:href="#linearGradient1051"
       id="linearGradient1053"
       x1="-127"
       y1="60"
       x2="-72"
       y2="5"
       gradientUnits="userSpaceOnUse"
       gradientTransform="matrix(0.26457812,0,0,0.26457812,34.792022,-0.13493457)" />
    <linearGradient
       inkscape:collect="always"
       id="linearGradient1051">
      <stop
         style="stop-color:#02db96;stop-opacity:1"
         offset="0"
         id="stop1047" />
      <stop
         style="stop-color:#13d39b;stop-opacity:1"
         offset="1"
         id="stop1049" />
    </linearGradient>
  </defs>
  <metadata
     id="metadata16">
    <rdf:RDF>
      <cc:Work
         rdf:about="">
        <dc:format>image/svg+xml</dc:format>
        <dc:type
           rdf:resource="http://purl.org/dc/dcmitype/StillImage" />
        <dc:title />
      </cc:Work>
    </rdf:RDF>
  </metadata>
  <rect
     ry="15"
     y="4.5"
     x="4.5"
     height="55"
     width="55"
     id="rect1055"
     style="opacity:0.3;fill:#141414;fill-opacity:1;stroke-width:2.74436;stroke-linecap:round;filter:url(#filter1057)"
     transform="scale(0.26457812)" />
  <rect
     style="fill:url(#linearGradient1053);fill-opacity:1;stroke-width:0.726098;stroke-linecap:round"
     id="rect1045"
     width="14.551796"
     height="14.551796"
     x="1.1906021"
     y="1.1906021"
     ry="3.9686716" />
  <circle
     cx="8.4665003"
     cy="8.4482784"
     r="4.9796562"
     fill="#090427"
     id="circle17"
     style="stroke-width:0.341634" />
  <path
     d="m 5.6767173,5.2363043 a 0.13558767,0.13558767 0 0 0 -0.049257,0.01942 0.13558767,0.13558767 0 0 0 -0.040607,0.1874887 L 6.0440967,6.1539822 C 5.6549074,6.5067192 5.40958,7.0151047 5.40958,7.5841643 v 0.030364 h 3.8614883 v -0.030364 c 0,-0.5690596 -0.2453034,-1.0774451 -0.6345167,-1.4301821 L 9.0937945,5.4432128 a 0.13558767,0.13558767 0 0 0 -0.040607,-0.1874887 0.13558767,0.13558767 0 0 0 -0.049257,-0.019243 0.13558767,0.13558767 0 0 0 -0.052786,8.848e-4 0.13558767,0.13558767 0 0 0 -0.085272,0.059144 L 8.4234575,5.9841498 C 8.1149484,5.775391 7.7424786,5.6534823 7.3403754,5.6534823 c -0.4020348,0 -0.7746207,0.121813 -1.083082,0.3304899 l -0.4422451,-0.68747 a 0.13558767,0.13558767 0 0 0 -0.085272,-0.059144 0.13558767,0.13558767 0 0 0 -0.052964,-0.00106 z m 0.7423705,1.259126 A 0.28235361,0.28235361 0 0 1 6.7013833,6.7779 0.28235361,0.28235361 0 0 1 6.4190878,7.0601956 0.28235361,0.28235361 0 0 1 6.136618,6.7779 0.28235361,0.28235361 0 0 1 6.4190878,6.4954303 Z m 1.8426026,0 A 0.28235361,0.28235361 0 0 1 8.5439859,6.7779 0.28235361,0.28235361 0 0 1 8.2616904,7.0601956 0.28235361,0.28235361 0 0 1 7.9793949,6.7779 0.28235361,0.28235361 0 0 1 8.2616904,6.4954303 Z M 5.4096279,7.9955107 v 2.5807373 c 0,0.601788 0.484471,1.086259 1.0862934,1.086293 h 1.6886623 c 0.6003533,-2e-6 1.0839703,-0.48225 1.0862934,-1.082023 H 8.804615 c -0.024181,-0.168549 0.099234,-0.265371 0.100806,-0.43958 1.807e-4,-7.52e-4 3.416e-4,-0.0015 5.466e-4,-0.0023 -8.61e-5,-6.49e-4 -1.175e-4,-0.0013 -1.811e-4,-0.0019 C 8.9047274,9.9733354 8.7720334,9.841434 8.6086641,9.8413417 8.4453631,9.8415314 8.3127818,9.9734038 8.3117159,10.136701 v 1.81e-4 c -9.06e-5,5.81e-4 -2.624e-4,0.0012 -3.417e-4,0.0018 2.713e-4,0.0012 4.441e-4,0.0025 7.175e-4,0.0037 0.00208,0.173294 0.1109866,0.270096 0.084917,0.43818 H 7.8767339 c -0.1793476,0 -0.3237836,-0.144436 -0.3237836,-0.323784 V 9.8155754 c -0.1458469,-0.00236 -0.2402575,0.1037713 -0.4009416,0.1052198 -7.516e-4,1.807e-4 -0.00157,3.416e-4 -0.00229,5.466e-4 -6.491e-4,-9.05e-5 -0.0013,-1.175e-4 -0.00195,-1.807e-4 C 6.9844065,9.920102 6.8525051,9.787408 6.8524129,9.6240352 6.8526025,9.4607342 6.9844749,9.3281529 7.1477725,9.327087 h 1.81e-4 c 5.808e-4,-9.05e-5 0.00113,-2.623e-4 0.00178,-3.416e-4 0.00123,2.709e-4 0.00249,4.441e-4 0.00371,7.174e-4 0.1597685,0.00191 0.2541141,0.095576 0.3995067,0.08986 V 8.9911003 c 0,-0.1793476 0.144436,-0.3236059 0.3237835,-0.3236059 h 0.520616 c 0.024929,0.166895 -0.083205,0.2636082 -0.085272,0.4362324 -2.713e-4,0.00123 -4.442e-4,0.00246 -7.175e-4,0.00371 9.06e-5,5.808e-4 2.621e-4,0.00116 3.417e-4,0.00178 v 1.811e-4 c 0.00106,0.1632976 0.1336472,0.2951683 0.2969482,0.2953596 0.1633693,-9.06e-5 0.2960565,-0.1319937 0.2971258,-0.2953596 5.4e-5,-6.492e-4 8.61e-5,-0.0013 1.808e-4,-0.00195 C 8.9057759,9.1066963 8.905615,9.1059079 8.90541,9.1051579 8.903832,8.9315945 8.7812914,8.834854 8.8042423,8.6674876 H 9.2710168 V 7.995562 Z"
     fill="#ffffff"
     id="path18"
     style="stroke-width:0.341634" />
  <g
     transform="matrix(0.09038951,0,0,0.09038951,2.583222,2.6374266)"
     fill="none"
     stroke-linecap="round"
     stroke-width="3"
     id="g20">
    <path
       d="M 74.241,38.898 81.3096,27.909"
       color="#000000"
       id="path19" />
    <path
       d="M 52.103,38.898 45.0344,27.909"
       color="#000000"
       id="path20" />
  </g>
  <path
     d="m 10.190726,8.5975722 c -0.179347,0 -0.3237798,0.1442583 -0.3237798,0.3236059 v 0.4261883 c -0.1454062,0.00571 -0.2397484,-0.08795 -0.3995067,-0.08986 -0.00123,-2.712e-4 -0.00246,-4.441e-4 -0.00371,-7.174e-4 -6.491e-4,9.02e-5 -0.00116,2.62e-4 -0.00178,3.416e-4 H 9.4617756 C 9.298478,9.2581897 9.1666073,9.3907778 9.166416,9.5540789 c 9.02e-5,0.1633693 0.1319937,0.2960565 0.2953596,0.2971224 6.491e-4,6.05e-5 0.0013,8.61e-5 0.00195,1.807e-4 7.174e-4,-1.807e-4 0.00154,-3.416e-4 0.00229,-5.466e-4 C 9.6266895,9.8494054 9.7211,9.7432549 9.8669572,9.7456156 v 0.4411864 c 0,0.179347 0.1444358,0.323783 0.3237808,0.323783 h 0.520274 c 0.02607,-0.168087 -0.08284,-0.264889 -0.08492,-0.438179 -2.71e-4,-0.0012 -4.51e-4,-0.0025 -7.24e-4,-0.0037 9e-5,-5.81e-4 2.71e-4,-0.0012 3.62e-4,-0.0018 v -1.81e-4 c 0.0011,-0.1632974 0.133647,-0.2951681 0.296948,-0.2953594 0.16337,9.02e-5 0.296057,0.1319937 0.297126,0.2953594 6.1e-5,6.49e-4 8.6e-5,0.0013 1.81e-4,0.0019 -1.81e-4,7.51e-4 -3.62e-4,0.0015 -5.43e-4,0.0023 -0.0016,0.174227 -0.124987,0.271046 -0.100806,0.439581 h 0.53616 c 0.179348,0 0.323784,-0.144436 0.323784,-0.323784 V 8.9211231 c 0,-0.1793476 -0.144436,-0.3236059 -0.323784,-0.3236059 h -0.536502 c -0.02295,0.1673528 0.09959,0.2640933 0.101162,0.4376672 1.8e-4,7.516e-4 3.62e-4,0.00154 5.43e-4,0.00229 -9.1e-5,6.491e-4 -9.1e-5,0.0013 -1.81e-4,0.00195 -0.0011,0.1633659 -0.133753,0.2952673 -0.297126,0.2953596 -0.163301,-1.9e-4 -0.295882,-0.132062 -0.296948,-0.2953596 v -1.808e-4 c -9.1e-5,-5.807e-4 -2.71e-4,-0.00116 -3.62e-4,-0.00178 2.71e-4,-0.00123 4.51e-4,-0.00246 7.24e-4,-0.00371 0.0021,-0.172631 0.110201,-0.2693442 0.08527,-0.4362323 z"
     fill="#ffffff"
     id="path21"
     style="stroke-width:0.341634" />
</svg>
