<?xml version="1.0" encoding="UTF-8" standalone="no"?>
<svg
   width="64"
   height="64"
   version="1.1"
   viewBox="0 0 16.933 16.933"
   id="svg17"
   sodipodi:docname="app.briar.gtk.svg"
   inkscape:version="1.3.2 (091e20ef0f, 2023-11-25, custom)"
   xmlns:inkscape="http://www.inkscape.org/namespaces/inkscape"
   xmlns:sodipodi="http://sodipodi.sourceforge.net/DTD/sodipodi-0.dtd"
   xmlns:xlink="http://www.w3.org/1999/xlink"
   xmlns="http://www.w3.org/2000/svg"
   xmlns:svg="http://www.w3.org/2000/svg"
   xmlns:rdf="http://www.w3.org/1999/02/22-rdf-syntax-ns#"
   xmlns:cc="http://creativecommons.org/ns#"
   xmlns:dc="http://purl.org/dc/elements/1.1/">
  <sodipodi:namedview
     id="namedview17"
     pagecolor="#ffffff"
     bordercolor="#000000"
     borderopacity="0.25"
     inkscape:showpageshadow="2"
     inkscape:pageopacity="0.0"
     inkscape:pagecheckerboard="0"
     inkscape:deskcolor="#d1d1d1"
     inkscape:zoom="8.2643105"
     inkscape:cx="14.217762"
     inkscape:cy="32.428598"
     inkscape:window-width="1920"
     inkscape:window-height="955"
     inkscape:window-x="0"
     inkscape:window-y="34"
     inkscape:window-maximized="1"
     inkscape:current-layer="svg17" />
  <defs
     id="defs8">
    <linearGradient
       id="linearGradient862-0"
       x1="7.9373"
       x2="7.9373"
       y1="15.081"
       y2="1.852"
       gradientTransform="matrix(0.98215,0,0,0.98215,0.151,0.1594)"
       gradientUnits="userSpaceOnUse">
      <stop
         stop-color="#30e461"
         offset="0"
         id="stop1" />
      <stop
         stop-color="#acf246"
         offset="1"
         id="stop2" />
    </linearGradient>
    <linearGradient
       id="linearGradient1020"
       x1="13.737"
       x2="13.737"
       y1="9.6617"
       y2="10.965"
       gradientTransform="matrix(0.59349,0,0,0.59349,-1.7157,-1.8376)"
       gradientUnits="userSpaceOnUse"
       xlink:href="#linearGradient941" />
    <linearGradient
       id="linearGradient941">
      <stop
         stop-color="#fff"
         offset="0"
         id="stop3" />
      <stop
         stop-color="#e0efd9"
         offset="1"
         id="stop4" />
    </linearGradient>
    <linearGradient
       id="linearGradient1022"
       x1="12.996"
       x2="12.996"
       y1="15.319"
       y2="23.881"
       gradientTransform="matrix(0.59349,0,0,0.59349,-1.7157,-1.8376)"
       gradientUnits="userSpaceOnUse"
       xlink:href="#linearGradient893-2" />
    <linearGradient
       id="linearGradient893-2">
      <stop
         stop-color="#fff"
         offset="0"
         id="stop5" />
      <stop
         stop-color="#ddedd5"
         offset="1"
         id="stop6" />
    </linearGradient>
    <linearGradient
       id="linearGradient1024"
       x1="11.512"
       x2="11.512"
       y1="20.093"
       y2="22.56"
       gradientTransform="matrix(0.59349,0,0,0.59349,-1.7157,-1.8376)"
       gradientUnits="userSpaceOnUse">
      <stop
         stop-color="#fff"
         offset="0"
         id="stop7" />
      <stop
         stop-color="#e4f1de"
         offset="1"
         id="stop8" />
    </linearGradient>
    <linearGradient
       id="linearGradient1026"
       x1="15.889"
       x2="15.889"
       y1="12.466"
       y2="14.481"
       gradientTransform="matrix(0.59349,0,0,0.59349,-1.7157,-1.8376)"
       gradientUnits="userSpaceOnUse"
       xlink:href="#linearGradient893-2" />
    <linearGradient
       id="linearGradient1028"
       x1="19.757"
       x2="19.757"
       y1="20.366"
       y2="22.862"
       gradientTransform="matrix(0.59349,0,0,0.59349,-1.7157,-1.8376)"
       gradientUnits="userSpaceOnUse"
       xlink:href="#linearGradient893-2" />
    <linearGradient
       id="linearGradient1030"
       x1="20.53"
       x2="20.53"
       y1="10.207"
       y2="18.858"
       gradientTransform="matrix(0.59349,0,0,0.59349,-1.7157,-1.8376)"
       gradientUnits="userSpaceOnUse"
       xlink:href="#linearGradient893-2" />
    <linearGradient
       id="linearGradient1032"
       x1="21.425"
       x2="21.425"
       y1="23.27"
       y2="25.279"
       gradientTransform="matrix(0.59349,0,0,0.59349,-1.7157,-1.8376)"
       gradientUnits="userSpaceOnUse"
       xlink:href="#linearGradient893-2" />
    <linearGradient
       id="linearGradient1034"
       x1="24.092"
       x2="24.092"
       y1="12.087"
       y2="14.161"
       gradientTransform="matrix(0.59349,0,0,0.59349,-1.7157,-1.8376)"
       gradientUnits="userSpaceOnUse"
       xlink:href="#linearGradient941" />
    <filter
       inkscape:collect="always"
       style="color-interpolation-filters:sRGB"
       id="filter1057"
       x="-0.026999999"
       width="1.054"
       y="-0.026999999"
       height="1.054">
      <feGaussianBlur
         inkscape:collect="always"
         stdDeviation="0.61875"
         id="feGaussianBlur1059" />
    </filter>
    <linearGradient
       inkscape:collect="always"
       xlink:href="#linearGradient1051"
       id="linearGradient1053"
       x1="-127"
       y1="60"
       x2="-72"
       y2="5"
       gradientUnits="userSpaceOnUse"
       gradientTransform="matrix(0.26457812,0,0,0.26457812,34.792023,-0.1349347)" />
    <linearGradient
       inkscape:collect="always"
       id="linearGradient1051">
      <stop
         style="stop-color:#8cd750;stop-opacity:1"
         offset="0"
         id="stop1047" />
      <stop
         id="stop989"
         offset="0.4958486"
         style="stop-color:#7dcd32;stop-opacity:0.99607843" />
      <stop
         style="stop-color:#87d241;stop-opacity:0.99607843"
         offset="1"
         id="stop1049" />
    </linearGradient>
  </defs>
  <metadata
     id="metadata8">
    <rdf:RDF>
      <cc:Work
         rdf:about="">
        <dc:format>image/svg+xml</dc:format>
        <dc:type
           rdf:resource="http://purl.org/dc/dcmitype/StillImage" />
        <dc:title />
      </cc:Work>
    </rdf:RDF>
  </metadata>
  <rect
     transform="scale(0.26457812)"
     style="opacity:0.3;fill:#141414;fill-opacity:1;stroke-width:2.74436;stroke-linecap:round;filter:url(#filter1057)"
     id="rect1055"
     width="55"
     height="55"
     x="4.4999995"
     y="4.4999995"
     ry="15" />
  <rect
     ry="3.9686716"
     y="1.1906021"
     x="1.1906021"
     height="14.551796"
     width="14.551796"
     id="rect1045"
     style="fill:url(#linearGradient1053);fill-opacity:1;stroke-width:0.726098;stroke-linecap:round" />
  <path
     d="m 6.264,3.53096 c 0.3573,0 0.64726,0.29448 0.64726,0.65735 V 4.96525 H 5.27436 C 5.29732,4.51595 5.31212,4.2352 5.31805,4.12303 5.33508,3.79108 5.6052,3.53093 5.93237,3.53093 h 0.33166 z"
     fill="url(#linearGradient1020)"
     id="path9"
     style="fill:#ffffff;stroke-width:0.028397;fill-opacity:1" />
  <path
     d="m 6.195,13.1655 c 0.39563,0 0.71628,-0.32565 0.71628,-0.72714 v -5.4333 h -1.6369 c 0.03517,2.9359 0.0575,4.7708 0.06649,5.5046 0.0041,0.36371 0.29559,0.65593 0.65373,0.65593 h 0.20037 z"
     fill="url(#linearGradient1022)"
     id="path10"
     style="fill:#ffffff;stroke-width:0.028397;fill-opacity:1" />
  <path
     d="m 3.704,10.5467 c 0,-0.36286 0.28966,-0.65735 0.64702,-0.65735 h 0.76507 l 2.77e-4,1.6624 c -0.44213,-0.02369 -0.7186,-0.03836 -0.82928,-0.04435 -0.32688,-0.0174 -0.58303,-0.29159 -0.58303,-0.62388 v -0.33683 z"
     fill="url(#linearGradient1024)"
     id="path11"
     style="fill:#ffffff;stroke-width:0.028397;fill-opacity:1" />
  <path
     d="m 3.704,6.0392 c 5.67e-4,0.4015 0.32154,0.72661 0.71717,0.72602 0.7132,-8.309e-4 2.4967,-0.00344 5.3501,-0.00741 l -0.0023,-1.6624 c -2.8909,0.040061 -4.6978,0.065272 -5.4202,0.075266 -0.35816,0.00481 -0.6456,0.30107 -0.645,0.66477 2.78e-4,0.18601 0,0.031841 2.78e-4,0.20377 z"
     fill="url(#linearGradient1026)"
     id="path12"
     style="fill:#ffffff;stroke-width:0.028397;fill-opacity:1" />
  <path
     d="m 13.268,10.8328 c -5.29e-4,0.4015 -0.3215,0.72691 -0.71717,0.72631 -0.7132,-0.0011 -2.4967,-0.0034 -5.3501,-0.0074 l 0.0023,-1.6624 c 2.8909,0.040061 4.6975,0.064975 5.4202,0.07497 0.35786,0.00481 0.6456,0.30133 0.645,0.66477 -3.19e-4,0.1863 0,0.03184 -3.19e-4,0.20378 z"
     fill="url(#linearGradient1028)"
     id="path13"
     style="fill:#ffffff;stroke-width:0.028397;fill-opacity:1" />
  <path
     d="m 10.93,3.53096 c 0.39563,0 0.71628,0.32565 0.71628,0.7272 v 5.4336 h -1.6372 c 0.03554,-2.9359 0.05776,-4.7708 0.06649,-5.5049 0.0045,-0.36345 0.29589,-0.65593 0.65403,-0.65593 h 0.20036 z"
     fill="url(#linearGradient1030)"
     id="path14"
     style="fill:#ffffff;stroke-width:0.028397;fill-opacity:1" />
  <path
     d="m 11,13.1655 c 0.3573,0 0.64726,-0.29418 0.64726,-0.65735 v -0.77694 h -1.6372 c 0.02332,0.4493 0.03806,0.73005 0.04395,0.84222 0.01703,0.33194 0.28715,0.5921 0.61432,0.5921 h 0.33166 z"
     fill="url(#linearGradient1032)"
     id="path15"
     style="fill:#ffffff;stroke-width:0.028397;fill-opacity:1" />
  <path
     d="m 13.268,6.1074 c 0,0.36286 -0.28966,0.65735 -0.64726,0.65735 h -0.76507 v -1.6624 c 0.44213,0.023693 0.71854,0.038357 0.82928,0.044352 0.32658,0.017401 0.58303,0.29163 0.58303,0.62388 v 0.33683 z"
     fill="url(#linearGradient1034)"
     id="path16"
     style="fill:#ffffff;stroke-width:0.028397;fill-opacity:1" />
</svg>
