<?xml version="1.0" encoding="UTF-8" standalone="no"?>
<svg
   width="64"
   height="64"
   version="1.1"
   id="svg45"
   sodipodi:docname="app.drey.Elastic.svg"
   inkscape:version="1.3.2 (091e20ef0f, 2023-11-25, custom)"
   xmlns:inkscape="http://www.inkscape.org/namespaces/inkscape"
   xmlns:sodipodi="http://sodipodi.sourceforge.net/DTD/sodipodi-0.dtd"
   xmlns:xlink="http://www.w3.org/1999/xlink"
   xmlns="http://www.w3.org/2000/svg"
   xmlns:svg="http://www.w3.org/2000/svg">
  <sodipodi:namedview
     id="namedview45"
     pagecolor="#ffffff"
     bordercolor="#000000"
     borderopacity="0.25"
     inkscape:showpageshadow="2"
     inkscape:pageopacity="0.0"
     inkscape:pagecheckerboard="0"
     inkscape:deskcolor="#d1d1d1"
     inkscape:zoom="3.109375"
     inkscape:cx="1.9296482"
     inkscape:cy="20.261307"
     inkscape:window-width="1920"
     inkscape:window-height="1003"
     inkscape:window-x="0"
     inkscape:window-y="0"
     inkscape:window-maximized="1"
     inkscape:current-layer="svg45" />
  <defs
     id="defs27">
    <linearGradient
       id="d"
       x1="7.937"
       x2="7.937"
       y1="15.081"
       y2="1.852"
       gradientTransform="matrix(3.7796,0,0,3.7796,-89.146201,-19.569)"
       gradientUnits="userSpaceOnUse">
      <stop
         offset="0"
         stop-color="#175eb5"
         id="stop1" />
      <stop
         offset="1"
         stop-color="#4a91e8"
         id="stop2" />
    </linearGradient>
    <linearGradient
       id="g"
       x1="40.371"
       x2="45.675"
       y1="275.23"
       y2="275.23"
       gradientTransform="matrix(.60479 0 0 .91279 .187 -194.52)"
       gradientUnits="userSpaceOnUse">
      <stop
         offset="0"
         stop-color="#777773"
         id="stop3" />
      <stop
         offset="1"
         stop-color="#deddda"
         id="stop4" />
    </linearGradient>
    <linearGradient
       xlink:href="#a"
       id="i"
       x1="59.635"
       x2="86.208"
       y1="236"
       y2="236"
       gradientTransform="matrix(.78046 0 0 .7342 -30.767 -118.63)" />
    <linearGradient
       id="a"
       gradientUnits="userSpaceOnUse">
      <stop
         offset="0"
         stop-color="#e3e2e0"
         id="stop5" />
      <stop
         offset=".216"
         stop-color="#929290"
         id="stop6" />
      <stop
         offset=".519"
         stop-color="#9b9a99"
         id="stop7" />
      <stop
         offset=".783"
         stop-color="#777773"
         id="stop8" />
      <stop
         offset="1"
         stop-color="#deddda"
         id="stop9" />
    </linearGradient>
    <linearGradient
       xlink:href="#b"
       id="j"
       x1="19.635"
       x2="46.208"
       y1="236"
       y2="236"
       gradientTransform="matrix(.78046 0 0 .7342 .452 -127.44)" />
    <linearGradient
       id="b"
       gradientUnits="userSpaceOnUse">
      <stop
         offset="0"
         stop-color="#f2f1ee"
         id="stop10" />
      <stop
         offset=".344"
         stop-color="#a4a49c"
         id="stop11" />
      <stop
         offset=".687"
         stop-color="#b7b6b4"
         id="stop12" />
      <stop
         offset="1"
         stop-color="#e3e2e0"
         id="stop13" />
    </linearGradient>
    <linearGradient
       xlink:href="#b"
       id="k"
       x1="19.635"
       x2="46.208"
       y1="236"
       y2="236"
       gradientTransform="matrix(.78046 0 0 .7342 .452 -136.98)" />
    <linearGradient
       xlink:href="#a"
       id="l"
       x1="60.28"
       x2="86.208"
       y1="236"
       y2="236"
       gradientTransform="matrix(.78046 0 0 .7342 -30.767 -137.31)" />
    <linearGradient
       xlink:href="#a"
       id="m"
       x1="59.635"
       x2="86.208"
       y1="236"
       y2="236"
       gradientTransform="matrix(.78046 0 0 .7342 -30.767 -137.31)" />
    <linearGradient
       xlink:href="#b"
       id="n"
       x1="19.635"
       x2="46.208"
       y1="236"
       y2="236"
       gradientTransform="matrix(.78046 0 0 .7342 .452 -146.12)" />
    <linearGradient
       xlink:href="#b"
       id="o"
       x1="19.635"
       x2="46.208"
       y1="236"
       y2="236"
       gradientTransform="matrix(.78046 0 0 .7342 .452 -155.67)" />
    <linearGradient
       id="p"
       x1="37.785"
       x2="59.486"
       y1="210.6"
       y2="210.6"
       gradientTransform="matrix(.60479 0 0 .91279 .187 -185.85)"
       gradientUnits="userSpaceOnUse">
      <stop
         offset="0"
         stop-color="#bebdbb"
         id="stop14" />
      <stop
         offset=".147"
         stop-color="#b7b6b4"
         id="stop15" />
      <stop
         offset=".361"
         stop-color="#777773"
         id="stop16" />
      <stop
         offset="1"
         stop-color="#deddda"
         id="stop17" />
    </linearGradient>
    <linearGradient
       id="q"
       x1="19.635"
       x2="46.208"
       y1="236"
       y2="236"
       gradientTransform="matrix(.78046 0 0 .7342 .452 -164.8)"
       gradientUnits="userSpaceOnUse">
      <stop
         offset="0"
         stop-color="#f2f1ee"
         id="stop18" />
      <stop
         offset=".344"
         stop-color="#787872"
         id="stop19" />
      <stop
         offset=".687"
         stop-color="#b7b6b4"
         id="stop20" />
      <stop
         offset="1"
         stop-color="#e3e2e0"
         id="stop21" />
    </linearGradient>
    <linearGradient
       id="s"
       x1="19.635"
       x2="46.208"
       y1="255.91"
       y2="255.91"
       gradientTransform="matrix(.78046 0 0 .7342 .452 -136.85)"
       gradientUnits="userSpaceOnUse">
      <stop
         offset="0"
         stop-color="#f2f1ee"
         id="stop22" />
      <stop
         offset=".295"
         stop-color="#a4a49c"
         id="stop23" />
      <stop
         offset=".577"
         stop-color="#888884"
         id="stop24" />
      <stop
         offset="1"
         stop-color="#e3e2e0"
         id="stop25" />
    </linearGradient>
    <linearGradient
       id="c"
       gradientUnits="userSpaceOnUse">
      <stop
         offset="0"
         id="stop26" />
      <stop
         offset="1"
         stop-opacity="0"
         id="stop27" />
    </linearGradient>
    <radialGradient
       xlink:href="#c"
       id="t"
       cx="27.661"
       cy="227.62"
       r="18.889"
       gradientTransform="matrix(1.7022 .23479 -.0285 .20668 -33.151 -35.081)" />
    <radialGradient
       xlink:href="#c"
       id="u"
       cx="27.661"
       cy="227.62"
       r="18.889"
       gradientTransform="matrix(1.7022 .23479 -.0285 .20668 -33.151 -25.536)" />
    <radialGradient
       xlink:href="#c"
       id="v"
       cx="27.661"
       cy="227.62"
       r="18.889"
       gradientTransform="matrix(1.7022 .23479 -.0285 .20668 -33.151 -16.395)" />
    <radialGradient
       xlink:href="#c"
       id="w"
       cx="27.661"
       cy="227.62"
       r="18.889"
       gradientTransform="matrix(1.7022 .23479 -.0285 .20668 -33.151 -6.85)" />
    <radialGradient
       xlink:href="#c"
       id="x"
       cx="27.661"
       cy="227.62"
       r="18.889"
       gradientTransform="matrix(1.7022 .23479 -.0285 .20668 -33.151 1.96)" />
    <filter
       id="e"
       width="1.5783837"
       height="1.1970918"
       x="-0.28919184"
       y="-0.098545915"
       color-interpolation-filters="sRGB">
      <feGaussianBlur
         stdDeviation="4.552"
         id="feGaussianBlur27" />
    </filter>
    <filter
       id="filter1057"
       x="-0.026999999"
       y="-0.026999999"
       width="1.054"
       height="1.054"
       color-interpolation-filters="sRGB">
      <feGaussianBlur
         stdDeviation="0.61875"
         id="feGaussianBlur1" />
    </filter>
    <linearGradient
       id="linearGradient1053"
       x1="-127"
       x2="-72"
       y1="60"
       y2="5"
       gradientTransform="matrix(1.0000071,0,0,1.0000071,119.36282,-12.389623)"
       gradientUnits="userSpaceOnUse">
      <stop
         stop-color="#32d7ff"
         offset="0"
         id="stop1-3" />
      <stop
         stop-color="#329bff"
         offset="1"
         id="stop2-6" />
    </linearGradient>
    <filter
       id="filter1057-9"
       x="-0.026999999"
       y="-0.026999999"
       width="1.054"
       height="1.054"
       color-interpolation-filters="sRGB">
      <feGaussianBlur
         stdDeviation="0.61875"
         id="feGaussianBlur1-1" />
    </filter>
    <linearGradient
       id="linearGradient1053-2"
       x1="-127"
       x2="-72"
       y1="60"
       y2="5"
       gradientTransform="translate(131.4999,-0.50845961)"
       gradientUnits="userSpaceOnUse">
      <stop
         stop-color="#2e55e7"
         offset="0"
         id="stop1-3-7" />
      <stop
         stop-color="#0d7eef"
         offset="1"
         id="stop2-6-0" />
    </linearGradient>
  </defs>
  <rect
     x="4.4999995"
     y="4.4999995"
     width="55"
     height="55"
     ry="15"
     fill="#141414"
     filter="url(#filter1057)"
     opacity="0.3"
     stroke-linecap="round"
     stroke-width="2.7444"
     id="rect3-9"
     style="filter:url(#filter1057-9)" />
  <rect
     x="4.4995003"
     y="4.4995003"
     width="55.000999"
     height="55.000999"
     ry="15"
     fill="url(#linearGradient1053)"
     stroke-linecap="round"
     stroke-width="2.7444"
     id="rect4-7"
     style="fill:url(#linearGradient1053-2)" />
  <path
     d="M52.215 17c-1.66 0-3 1.344-3 3 0 3.492-.031 5.121.238 6.656s.95 2.574 1.57 3.652c1.54 2.66 4.024 3.012 6.079 3.415 1.289.254 2.554.414 3.59.546-2.274.426-4.844.852-7.446 1.282-3.21.527-6.433 1.058-9.195 1.61-2.235.448-4.11.886-5.64 1.456-.669.25-1.266.504-1.915.973a5 5 0 0 0-.383.312 3 3 0 0 0-1.214 2.086q-.013.061-.02.121v.004a2 2 0 0 0-.035.235q.002.068.004.136v.004l-.004.133q.012.119.035.238c.004.04.012.074.02.114q0 .009.003.019a3 3 0 0 0 1.063 1.938q.069.068.148.136c.133.117.262.223.383.309.649.473 1.246.723 1.918.976 1.528.57 3.403 1.004 5.637 1.454 2.762.554 5.984 1.082 9.195 1.613 2.059.336 4.09.676 5.98 1.012-1.89.335-3.921.675-5.98 1.015-3.207.527-6.433 1.055-9.195 1.61-2.234.449-4.11.882-5.637 1.457-.672.25-1.27.503-1.918.972-.652.473-1.652 1.422-1.652 3.027q.018.27.082.528-.064.257-.082.527 0 .146.012.293.007.14.03.277c.2 1.262 1.04 2.043 1.61 2.457.649.47 1.246.723 1.918.973 1.528.57 3.403 1.008 5.637 1.457 2.762.55 5.984 1.082 9.195 1.613 2.668.438 5.297.875 7.61 1.309-2.313.434-4.942.871-7.61 1.313-3.21.527-6.433 1.058-9.195 1.613-2.234.445-4.11.883-5.637 1.453-.672.25-1.27.504-1.918.976-.12.083-.25.192-.383.31a3 3 0 0 0-1.214 2.085c-.008.039-.012.082-.02.125a2 2 0 0 0-.035.234l.004.137v.004q-.002.064-.004.133.012.117.035.234l.008.063v.004l.012.058c.093.832.535 1.59 1.214 2.086.133.117.262.223.383.309.485.351.942.586 1.426.785q.24.099.492.191c1.528.57 3.403 1.004 5.637 1.453 2.762.555 5.988 1.082 9.195 1.614 2.059.336 4.094.675 5.985 1.011-1.89.336-3.926.676-5.985 1.016-3.207.527-6.433 1.055-9.195 1.61-2.234.449-4.11.882-5.637 1.456-.672.25-1.27.504-1.918.973-.652.473-1.652 1.422-1.652 3.027q.018.27.082.528-.064.257-.082.527 0 .146.012.293c.004.094.015.183.03.277.2 1.266 1.04 2.043 1.61 2.457.485.352.942.582 1.426.781q.24.1.492.192c1.528.57 3.403 1.008 5.637 1.457 2.762.55 5.988 1.082 9.195 1.61 2.059.34 4.094.675 5.989 1.015-1.895.336-3.93.672-5.989 1.012-3.207.527-6.433 1.058-9.195 1.613-2.234.445-4.11.883-5.637 1.453-.672.25-1.27.504-1.918.977a4 4 0 0 0-.336.27q-.087.055-.164.124a2.6 2.6 0 0 0-.453.445c-.035.04-.062.078-.094.118q-.159.21-.277.449a3 3 0 0 0-.086.203l-.004.015a3 3 0 0 0-.152.43 3 3 0 0 0-.063.469 2 2 0 0 0-.023.203v.028q.002.068.004.136v.004l-.004.133q.012.117.035.234l.008.063v.004l.012.059c.093.832.535 1.59 1.214 2.085q.2.178.383.31a6.5 6.5 0 0 0 1.426.784q.24.1.492.192c1.473.55 3.387 1.039 5.688 1.464h.015c1.7.34 2.239.38 3.114.48.191.024.386.048.566.067.395.051.895.125 1.547.23 1.473.325 2.203 1.016 1.902.5.582 1.005.692 1.24.832 2.364.141 1.121.172 3.11.172 6.586a3 3 0 0 0 6 0c0-3.492.004-5.563-.219-7.336-.222-1.777-.816-3.281-1.59-4.621-1.542-2.66-4.023-3.012-6.077-3.414-.325-.063-.649-.117-.97-.172l-.07-.012-.59-.093c1.75-.305 3.606-.614 5.485-.922 3.207-.528 6.434-1.059 9.195-1.614 2.23-.449 4.11-.882 5.637-1.457.672-.25 1.27-.503 1.918-.972a6 6 0 0 0 .379-.309 3 3 0 0 0 1.219-2.094c.008-.039.012-.074.02-.113q.023-.119.034-.238l-.003-.137v-.004l.003-.133c0-.988-.484-1.91-1.296-2.469a6 6 0 0 0-.356-.289 6.8 6.8 0 0 0-1.426-.78q-.24-.1-.492-.192a19 19 0 0 0-1.21-.406q-.641-.193-1.345-.368a72 72 0 0 0-3.085-.683c-2.758-.555-5.985-1.082-9.192-1.614-3.207-.527-6.39-1.05-8.984-1.574a14 14 0 0 1-.473-.097c.16-.036.305-.067.473-.102 2.594-.52 5.777-1.047 8.984-1.574s6.434-1.059 9.192-1.613c2.234-.45 4.113-.883 5.64-1.457.672-.25 1.27-.504 1.918-.973q.177-.13.379-.313a3 3 0 0 0 1.215-2.086q.012-.06.02-.125.024-.111.038-.234 0-.064-.007-.133c0-.004.004-.004 0-.008q.007-.064.007-.128c0-.985-.484-1.907-1.296-2.47a6 6 0 0 0-.356-.284 6.8 6.8 0 0 0-1.426-.786c-.16-.066-.324-.125-.492-.191q-.573-.211-1.21-.406-.641-.19-1.345-.367a66 66 0 0 0-3.086-.684c-2.757-.55-5.984-1.082-9.19-1.61-2.06-.34-4.095-.675-5.985-1.011a520 520 0 0 1 5.984-1.016c3.207-.527 6.434-1.058 9.191-1.613 2.235-.445 4.114-.883 5.641-1.453.672-.25 1.27-.504 1.918-.977.649-.468 1.652-1.422 1.652-3.027q0-.123-.011-.246l.011-.078a4 4 0 0 0-.043-.57c-.203-1.262-1.043-2.044-1.609-2.458a6.8 6.8 0 0 0-1.426-.781q-.24-.098-.492-.191a19 19 0 0 0-1.21-.407q-.641-.192-1.345-.367a67 67 0 0 0-3.082-.683c-2.761-.551-5.988-1.082-9.195-1.614-3.207-.527-6.39-1.05-8.984-1.574a14 14 0 0 1-.473-.098c.16-.035.305-.07.473-.101 2.593-.524 5.777-1.047 8.984-1.574s6.434-1.059 9.195-1.614c2.23-.445 4.11-.882 5.637-1.457.672-.25 1.27-.504 1.918-.972.117-.086.246-.192.379-.309a3 3 0 0 0 1.219-2.094c.008-.035.011-.074.02-.113.011-.078.027-.156.034-.238q0-.068-.007-.137c.004 0 0-.004 0-.004q.007-.063.007-.133c0-.98-.48-1.898-1.285-2.457q-.005.001-.004-.004a6 6 0 0 0-.363-.293 6.8 6.8 0 0 0-1.426-.785q-.24-.098-.492-.191-.573-.211-1.21-.406a43 43 0 0 0-1.345-.368 68 68 0 0 0-3.086-.68c-2.757-.554-5.984-1.085-9.191-1.613-2.059-.34-4.094-.675-5.984-1.011a520 520 0 0 1 5.984-1.016c3.207-.527 6.434-1.055 9.191-1.61 2.235-.448 4.114-.886 5.641-1.456.672-.25 1.27-.504 1.918-.977.648-.469 1.652-1.422 1.652-3.027a2 2 0 0 0-.011-.207l.011-.094q0-.147-.011-.293c-.106-1.441-1.028-2.312-1.641-2.758-.648-.468-1.246-.722-1.918-.972-1.527-.57-3.406-1.008-5.64-1.457a29 29 0 0 0-1.153-.2c-1.644-.308-2.617-.445-4.828-.804-.996-.336-1.46-.738-1.215-.313-.73-1.265-.758-1.144-.851-1.683-.094-.54-.153-2.14-.153-5.618 0-1.656-1.34-3-3-3zm14.422 17.188.012.05a.3.3 0 0 0-.012.075c-.004-.02-.004-.035-.004-.055q.002-.035.004-.07m.004 33.672.012.05v.005a1 1 0 0 0-.016.105q-.005-.03-.004-.055c0-.039.004-.07.008-.105"
     filter="url(#e)"
     opacity=".15"
     transform="translate(-3.642 -7.043)scale(.55437)"
     id="path27" />
  <path
     fill="none"
     stroke="#99c1f1"
     stroke-width="1.109"
     d="M15.206 15.686h-8.87m8.87 18.849h-8.87m2.772-2.772V18.458m28.273 31.599h19.957M37.381 38.97h8.87m-2.772-2.772V22.893m-6.098-2.772h19.957m-2.771 27.164V22.893"
     id="path28" />
  <path
     fill="#99c1f1"
     stroke-width=".554"
     d="m11.88 19.567-2.772-3.326-2.772 3.326zm0 11.087L9.108 33.98l-2.772-3.326zm39.915 15.522 2.772 3.326 2.772-3.326zM40.707 24.002l2.772-3.326 2.772 3.326zm0 11.087 2.772 3.326 2.772-3.326zm11.088-11.087 2.772-3.326 2.772 3.326z"
     id="path29" />
  <g
     fill="none"
     stroke-linecap="round"
     stroke-linejoin="round"
     stroke-width="3.326"
     id="g45">
    <path
       stroke="url(#g)"
       d="M17.337 52.348c0 .225.312.442.899.663.667.249 1.667.491 2.869.732 1.485.298 4.42.348 5.102 1.528.751 1.3.78 1.932.78 5.793"
       id="path30" />
    <path
       stroke="url(#i)"
       d="M17.337 52.517c0-.225.312-.442.899-.663.667-.249 1.667-.491 2.869-.734 1.485-.296 3.261-.589 5.04-.881 1.777-.295 3.555-.587 5.038-.884 1.202-.242 2.205-.485 2.872-.734.584-.218.898-.437.898-.66M17.337 34.16c0-.223.312-.442.899-.66.667-.25 1.667-.492 2.869-.735 1.485-.296 3.261-.589 5.04-.88 1.777-.295 3.555-.588 5.038-.884 1.202-.243 2.205-.486 2.872-.735.584-.218.898-.437.898-.66M17.337 42.972c0-.223.312-.442.899-.66.667-.25 1.667-.494 2.869-.735 1.485-.298 3.261-.59 5.04-.883 1.777-.292 3.555-.585 5.038-.884 1.202-.24 2.205-.483 2.872-.734.584-.218.898-.437.898-.66"
       id="path31" />
    <path
       stroke="url(#j)"
       d="M34.954 48.11c0-.223-.314-.442-.899-.66-.667-.25-1.67-.492-2.871-.735-1.484-.296-3.261-.589-5.04-.883-1.777-.292-3.553-.585-5.038-.884-1.202-.24-2.203-.483-2.87-.732-.587-.22-.898-.437-.898-.662"
       id="path32" />
    <path
       stroke="url(#k)"
       d="M34.954 38.567c0-.223-.314-.442-.899-.66-.667-.252-1.67-.494-2.871-.735-1.484-.298-3.261-.59-5.04-.883-1.777-.292-3.553-.585-5.038-.884-1.202-.24-2.203-.485-2.87-.734-.587-.218-.898-.437-.898-.66"
       id="path33" />
    <path
       stroke="url(#l)"
       d="M17.337 15.476c0-.225.312-.442.899-.663.667-.249 1.667-.491 2.869-.732 1.485-.298 3.261-.59 5.04-.883 1.777-.295 3.555-.587 5.038-.884 1.202-.242 2.205-.485 2.872-.734.584-.218.898-.437.898-.66"
       id="path34" />
    <path
       stroke="url(#m)"
       d="M17.337 24.285c0-.223.312-.442.899-.66.667-.25 1.667-.494 2.869-.735 1.485-.298 3.261-.59 5.04-.883 1.777-.292 3.555-.585 5.038-.884 1.202-.24 2.205-.483 2.872-.734.584-.218.898-.437.898-.66"
       id="path35" />
    <path
       stroke="url(#n)"
       d="M34.954 29.424c0-.223-.314-.442-.899-.66-.667-.25-1.67-.492-2.871-.735-1.484-.296-3.261-.589-5.04-.883-1.777-.292-3.553-.585-5.038-.881-1.202-.243-2.203-.486-2.87-.735-.587-.218-.898-.437-.898-.66"
       id="path36" />
    <path
       stroke="url(#o)"
       d="M34.954 19.881c0-.223-.314-.442-.899-.66-.667-.252-1.67-.494-2.871-.735-1.484-.298-3.261-.59-5.04-.883-1.777-.292-3.553-.585-5.038-.884-1.202-.24-2.203-.485-2.87-.734-.587-.218-.898-.437-.898-.66"
       id="path37" />
    <path
       stroke="url(#p)"
       d="M34.954 10.738c0-.223-.314-.44-.899-.66-.667-.25-1.667-.492-2.869-.735-1.485-.296-4.42-.346-5.102-1.526-.751-1.3-.782-1.018-.782-4.881"
       id="path38" />
    <path
       stroke="url(#q)"
       d="M34.954 10.753c0-.223-.314-.442-.899-.66-.667-.252-1.67-.494-2.871-.735-1.484-.298-1.752-.311-3.53-.604"
       id="path39" />
    <path
       stroke="url(#s)"
       d="M17.337 52.365c0 .223.312.442.899.66.667.25 1.663.514 2.869.735a24 24 0 0 0 2.345.327"
       id="path40" />
    <path
       stroke="url(#t)"
       d="M34.954 19.881c0-.223-.314-.442-.899-.66-.667-.252-1.67-.494-2.871-.735-1.484-.298-3.261-.59-5.04-.883-1.777-.292-3.553-.585-5.038-.884-1.202-.24-2.203-.485-2.87-.734-.587-.218-.898-.437-.898-.66"
       id="path41" />
    <path
       stroke="url(#u)"
       d="M34.954 29.424c0-.223-.314-.442-.899-.66-.667-.25-1.67-.492-2.871-.735-1.484-.296-3.261-.589-5.04-.883-1.777-.292-3.553-.585-5.038-.881-1.202-.243-2.203-.486-2.87-.735-.587-.218-.898-.437-.898-.66"
       id="path42" />
    <path
       stroke="url(#v)"
       d="M34.954 38.567c0-.223-.314-.442-.899-.66-.667-.252-1.67-.494-2.871-.735-1.484-.298-3.261-.59-5.04-.883-1.777-.292-3.553-.585-5.038-.884-1.202-.24-2.203-.485-2.87-.734-.587-.218-.898-.437-.898-.66"
       id="path43" />
    <path
       stroke="url(#w)"
       d="M34.954 48.11c0-.223-.314-.442-.899-.66-.667-.25-1.67-.492-2.871-.735-1.484-.296-3.261-.589-5.04-.883-1.777-.292-3.553-.585-5.038-.884-1.202-.24-2.203-.483-2.87-.732-.587-.22-.898-.437-.898-.662"
       id="path44" />
    <path
       stroke="url(#x)"
       d="M23.451 54.087c-1.778-.292-.86-.028-2.345-.327-1.202-.24-2.202-.485-2.87-.734-.586-.219-.898-.438-.898-.66"
       id="path45" />
  </g>
</svg>
