<?xml version="1.0" encoding="UTF-8" standalone="no"?>
<svg
   width="64"
   height="64"
   version="1.1"
   viewBox="0 0 16.933 16.933"
   id="svg5"
   sodipodi:docname="appimagekit-diffuse.svg"
   inkscape:version="1.3 (0e150ed6c4, 2023-07-21)"
   xmlns:inkscape="http://www.inkscape.org/namespaces/inkscape"
   xmlns:sodipodi="http://sodipodi.sourceforge.net/DTD/sodipodi-0.dtd"
   xmlns:xlink="http://www.w3.org/1999/xlink"
   xmlns="http://www.w3.org/2000/svg"
   xmlns:svg="http://www.w3.org/2000/svg"
   xmlns:rdf="http://www.w3.org/1999/02/22-rdf-syntax-ns#"
   xmlns:cc="http://creativecommons.org/ns#"
   xmlns:dc="http://purl.org/dc/elements/1.1/">
  <sodipodi:namedview
     id="namedview5"
     pagecolor="#ffffff"
     bordercolor="#000000"
     borderopacity="0.25"
     inkscape:showpageshadow="2"
     inkscape:pageopacity="0.0"
     inkscape:pagecheckerboard="0"
     inkscape:deskcolor="#d1d1d1"
     inkscape:zoom="4.3531261"
     inkscape:cx="-1.4931798"
     inkscape:cy="16.539838"
     inkscape:window-width="1920"
     inkscape:window-height="995"
     inkscape:window-x="0"
     inkscape:window-y="0"
     inkscape:window-maximized="1"
     inkscape:current-layer="svg5" />
  <defs
     id="defs4">
    <linearGradient
       id="linearGradient862-3"
       x1="7.9373"
       x2="7.9373"
       y1="15.081"
       y2="1.852"
       gradientTransform="translate(0,0.0081)"
       gradientUnits="userSpaceOnUse">
      <stop
         stop-color="#343434"
         offset="0"
         id="stop1" />
      <stop
         stop-color="#767676"
         offset="1"
         id="stop2" />
    </linearGradient>
    <linearGradient
       id="linearGradient1006"
       x1="14.73"
       x2="14.73"
       y1="12.351"
       y2="24.178"
       gradientTransform="matrix(0.48078,0,0,0.48078,0.834,0.0706)"
       gradientUnits="userSpaceOnUse">
      <stop
         stop-color="#fff"
         offset="0"
         id="stop3" />
      <stop
         stop-color="#d5dce4"
         offset="1"
         id="stop4" />
    </linearGradient>
    <filter
       inkscape:collect="always"
       style="color-interpolation-filters:sRGB"
       id="filter1057"
       x="-0.026999999"
       width="1.054"
       y="-0.026999999"
       height="1.054">
      <feGaussianBlur
         inkscape:collect="always"
         stdDeviation="0.61875"
         id="feGaussianBlur1059" />
    </filter>
    <linearGradient
       inkscape:collect="always"
       xlink:href="#linearGradient1051"
       id="linearGradient1053"
       x1="-127"
       y1="60"
       x2="-72"
       y2="5"
       gradientUnits="userSpaceOnUse"
       gradientTransform="matrix(0.26457812,0,0,0.26457812,34.792024,-0.13493421)" />
    <linearGradient
       inkscape:collect="always"
       id="linearGradient1051">
      <stop
         style="stop-color:#a0b9cd;stop-opacity:1"
         offset="0"
         id="stop1047" />
      <stop
         id="stop934"
         offset="0.48566937"
         style="stop-color:#96b4c8;stop-opacity:1" />
      <stop
         style="stop-color:#a0b9cd;stop-opacity:1"
         offset="1"
         id="stop1049" />
    </linearGradient>
    <filter
       color-interpolation-filters="sRGB"
       height="1.1680116"
       width="1.1679884"
       y="-0.084005792"
       x="-0.083994189"
       id="filter917">
      <feGaussianBlur
         id="feGaussianBlur14"
         stdDeviation="0.22223482" />
    </filter>
  </defs>
  <metadata
     id="metadata4">
    <rdf:RDF>
      <cc:Work
         rdf:about="">
        <dc:format>image/svg+xml</dc:format>
        <dc:type
           rdf:resource="http://purl.org/dc/dcmitype/StillImage" />
        <dc:title />
      </cc:Work>
    </rdf:RDF>
  </metadata>
  <rect
     transform="scale(0.26457812)"
     ry="15"
     y="4.5"
     x="4.5"
     height="55"
     width="55"
     id="rect1055"
     style="opacity:0.3;fill:#141414;fill-opacity:1;stroke-width:2.74436;stroke-linecap:round;filter:url(#filter1057)" />
  <rect
     style="fill:url(#linearGradient1053);fill-opacity:1;stroke-width:0.726098;stroke-linecap:round"
     id="rect1045"
     width="14.551796"
     height="14.551796"
     x="1.1906021"
     y="1.1906021"
     ry="3.9686716" />
  <path
     d="m 5.0324807,5.031265 c -0.66367,-0.00939 -0.66367,0.99089 0,0.98151 h 0.98819 c 0.66367,-0.00938 0.66367,0.99089 0,0.98151 h -1.4722 c -0.66367,-0.00938 -0.66367,0.99089 0,0.98151 h 0.98151 c 0.66367,-0.00938 0.66367,0.99089 0,0.98151 h -0.49746 c -0.66367,-0.00938 -0.66367,0.99089 0,0.98151 h 0.913 c 0.04604,0.019827 0.0786,0.065439 0.0786,0.11885 v 1.5796 c 0.0022,0.14556 0.1209,0.26232 0.26646,0.26454 h 3.3619 c 0.9820903,0 1.7251003,-0.22942 2.3269003,-0.68723 0.60179,-0.45783 0.90257,-1.1326 0.9029,-2.0244 v -1.4598 c 6.71e-4,-0.85026 -0.30813,-1.5122 -0.9269,-1.987 -0.61838,-0.47444 -1.3555,-0.71218 -2.3106003,-0.71218 h -4.1877 z m 3.6807,1.963 h 0.68343 c 0.52511,0 0.7884803,0.25375 0.7888603,0.76011 v 1.4138 c 0,0.25368 -0.07188,0.44559 -0.2156603,0.57511 -0.15308,0.13325 -0.3608,0.2035 -0.57318,0.19458 h -0.68343 z"
     stroke-width="0.24538"
     id="path5"
     style="fill:#fafafa;fill-opacity:1" />
</svg>
