<?xml version="1.0" encoding="UTF-8" standalone="no"?>
<svg
   xmlns:dc="http://purl.org/dc/elements/1.1/"
   xmlns:cc="http://creativecommons.org/ns#"
   xmlns:rdf="http://www.w3.org/1999/02/22-rdf-syntax-ns#"
   xmlns:svg="http://www.w3.org/2000/svg"
   xmlns="http://www.w3.org/2000/svg"
   xmlns:xlink="http://www.w3.org/1999/xlink"
   xmlns:sodipodi="http://sodipodi.sourceforge.net/DTD/sodipodi-0.dtd"
   xmlns:inkscape="http://www.inkscape.org/namespaces/inkscape"
   height="64"
   viewBox="0 0 64 64"
   width="64"
   version="1.1"
   id="svg47"
   sodipodi:docname="applications-development-web.svg"
   inkscape:version="1.0.1 (3bc2e813f5, 2020-09-07)">
  <metadata
     id="metadata53">
    <rdf:RDF>
      <cc:Work
         rdf:about="">
        <dc:format>image/svg+xml</dc:format>
        <dc:type
           rdf:resource="http://purl.org/dc/dcmitype/StillImage" />
        <dc:title></dc:title>
      </cc:Work>
    </rdf:RDF>
  </metadata>
  <defs
     id="defs51">
    <style
       id="style4"
       type="text/css" />
    <filter
       color-interpolation-filters="sRGB"
       height="1.048"
       width="1.048"
       y="-0.024"
       x="-0.024"
       id="filter2761">
      <feGaussianBlur
         id="feGaussianBlur6"
         stdDeviation="0.14552168" />
    </filter>
    <linearGradient
       gradientUnits="userSpaceOnUse"
       gradientTransform="translate(-0.82550312,-6.9047234)"
       y2="1.17"
       y1="15.576"
       x2="15.65"
       x1="1.3315001"
       id="linearGradient1024">
      <stop
         id="stop9-36"
         offset="0"
         stop-color="#00c8ff" />
      <stop
         id="stop11"
         offset="1"
         stop-color="#14a0ff" />
    </linearGradient>
    <style
       id="style4-7"
       type="text/css" />
    <filter
       color-interpolation-filters="sRGB"
       height="1.048"
       width="1.048"
       y="-0.024"
       x="-0.024"
       id="filter2761-5">
      <feGaussianBlur
         id="feGaussianBlur6-3"
         stdDeviation="0.14552168" />
    </filter>
    <linearGradient
       gradientUnits="userSpaceOnUse"
       gradientTransform="matrix(3.7796,0,0,3.7796,110.07575,0.53066)"
       y2="1.1082"
       y1="15.429"
       x2="15.644"
       x1="1.2573"
       id="linearGradient4673">
      <stop
         id="stop9-5"
         offset="0"
         stop-color="#32dcff" />
      <stop
         id="stop11-62"
         offset="1"
         stop-color="#3296ff" />
    </linearGradient>
    <linearGradient
       gradientUnits="userSpaceOnUse"
       gradientTransform="matrix(1.0000066,0,0,1.0000066,19.187825,0)"
       y2="1.0583"
       y1="6.8790002"
       x2="7.9373002"
       x1="7.9373002"
       id="linearGradient865">
      <stop
         id="stop2-7"
         offset="0"
         stop-color="#fff" />
      <stop
         id="stop4-53"
         offset="1"
         stop-color="#fcc" />
    </linearGradient>
    <linearGradient
       gradientTransform="translate(19.187825)"
       gradientUnits="userSpaceOnUse"
       y2="3.9326999"
       y1="14.579"
       x2="12.314"
       x1="2.6278"
       id="linearGradient855">
      <stop
         id="stop7-5"
         offset="0"
         stop-color="#d462aa" />
      <stop
         id="stop9-3"
         offset=".15178"
         stop-color="#56c7d9" />
      <stop
         id="stop11-6"
         offset=".33294"
         stop-color="#2da8b8" />
      <stop
         id="stop13"
         offset=".53353"
         stop-color="#72cb6b" />
      <stop
         id="stop15"
         offset=".71019"
         stop-color="#c4dc2b" />
      <stop
         id="stop17-6"
         offset=".8623"
         stop-color="#f9da3e" />
      <stop
         id="stop19-2"
         offset="1"
         stop-color="#f69429" />
    </linearGradient>
    <linearGradient
       gradientUnits="userSpaceOnUse"
       gradientTransform="matrix(0.26458,0,0,0.26458,19.187825,0)"
       y2="6.9914999"
       y1="19"
       x2="57.007999"
       x1="45"
       id="linearGradient910">
      <stop
         id="stop22-9"
         offset="0"
         stop-color="#fff" />
      <stop
         id="stop24-1"
         offset="1"
         stop-color="#ffe3cc" />
    </linearGradient>
    <filter
       inkscape:collect="always"
       style="color-interpolation-filters:sRGB"
       id="filter1057"
       x="-0.027000001"
       width="1.054"
       y="-0.027000001"
       height="1.054">
      <feGaussianBlur
         inkscape:collect="always"
         stdDeviation="0.61875"
         id="feGaussianBlur1059" />
    </filter>
    <linearGradient
       inkscape:collect="always"
       xlink:href="#linearGradient1051"
       id="linearGradient1053"
       x1="-127"
       y1="60"
       x2="-72"
       y2="5"
       gradientUnits="userSpaceOnUse"
       gradientTransform="translate(131.5,-0.50999844)" />
    <linearGradient
       inkscape:collect="always"
       id="linearGradient1051">
      <stop
         style="stop-color:#32d7ff;stop-opacity:1"
         offset="0"
         id="stop1047" />
      <stop
         style="stop-color:#329bff;stop-opacity:1"
         offset="1"
         id="stop1049" />
    </linearGradient>
    <style
       type="text/css"
       id="style872" />
    <filter
       id="filter2761-7"
       x="-0.024"
       y="-0.024"
       width="1.048"
       height="1.048"
       color-interpolation-filters="sRGB">
      <feGaussianBlur
         stdDeviation="0.14552168"
         id="feGaussianBlur874" />
    </filter>
    <style
       id="style4-5"
       type="text/css" />
    <style
       id="style6"
       type="text/css" />
    <style
       id="style8"
       type="text/css" />
    <filter
       color-interpolation-filters="sRGB"
       height="1.048"
       width="1.048"
       y="-0.024"
       x="-0.024"
       id="filter2761-36">
      <feGaussianBlur
         id="feGaussianBlur10"
         stdDeviation="0.14552168" />
    </filter>
    <linearGradient
       gradientUnits="userSpaceOnUse"
       gradientTransform="matrix(3.7796,0,0,3.7796,111.78704,0.53107)"
       y2="1.17"
       y1="15.576"
       x2="15.65"
       x1="1.3315001"
       id="linearGradient1024-6">
      <stop
         id="stop13-7"
         offset="0"
         stop-color="#00dc96" />
      <stop
         id="stop15-5"
         offset="1"
         stop-color="#14d29b" />
    </linearGradient>
    <linearGradient
       gradientUnits="userSpaceOnUse"
       gradientTransform="matrix(0.27476,0,0,0.27476,-24.952118,-0.32515)"
       y2="12.461"
       y1="57.955002"
       x2="45.627998"
       x1="45.627998"
       id="b-2">
      <stop
         id="stop2-3"
         offset="0" />
      <stop
         id="stop4-5"
         offset="1"
         stop-opacity="0" />
    </linearGradient>
    <style
       type="text/css"
       id="style872-0" />
    <style
       type="text/css"
       id="style874" />
    <style
       type="text/css"
       id="style876" />
    <filter
       id="filter2761-3"
       x="-0.024"
       y="-0.024"
       width="1.048"
       height="1.048"
       color-interpolation-filters="sRGB">
      <feGaussianBlur
         stdDeviation="0.14552168"
         id="feGaussianBlur878" />
    </filter>
    <linearGradient
       id="linearGradient1024-6-6"
       x1="1.3315001"
       x2="15.65"
       y1="15.576"
       y2="1.17"
       gradientTransform="matrix(3.7796,0,0,3.7796,-0.0020773,0.53047)"
       gradientUnits="userSpaceOnUse">
      <stop
         stop-color="#00dc96"
         offset="0"
         id="stop881" />
      <stop
         stop-color="#14d29b"
         offset="1"
         id="stop883" />
    </linearGradient>
    <linearGradient
       inkscape:collect="always"
       xlink:href="#a"
       id="linearGradient1043"
       gradientUnits="userSpaceOnUse"
       x1="399.57144"
       y1="545.79797"
       x2="399.57144"
       y2="517.79797"
       gradientTransform="matrix(1.9173617,0,0,1.9173617,-659.89875,-987.78427)" />
    <linearGradient
       inkscape:collect="always"
       xlink:href="#a"
       id="linearGradient1045"
       gradientUnits="userSpaceOnUse"
       x1="399.57144"
       y1="545.79797"
       x2="399.57144"
       y2="517.79797"
       gradientTransform="matrix(1.935937,0,0,1.935937,-667.27269,-997.70916)" />
    <style
       type="text/css"
       id="style1102" />
    <style
       type="text/css"
       id="style1104" />
    <style
       type="text/css"
       id="style1106" />
    <filter
       id="filter951"
       x="-.10129"
       y="-.07175"
       width="1.2026"
       height="1.1435"
       color-interpolation-filters="sRGB">
      <feGaussianBlur
         stdDeviation="15.306655"
         id="feGaussianBlur1108" />
    </filter>
    <style
       type="text/css"
       id="style1111" />
    <filter
       id="filter1057-7"
       x="-.027"
       y="-.027"
       width="1.054"
       height="1.054"
       color-interpolation-filters="sRGB">
      <feGaussianBlur
         stdDeviation="0.61875"
         id="feGaussianBlur1113" />
    </filter>
    <linearGradient
       id="linearGradient1053-0"
       x1="-127"
       x2="-72"
       y1="60"
       y2="5"
       gradientTransform="translate(131.5,-0.51)"
       gradientUnits="userSpaceOnUse">
      <stop
         stop-color="#32d7ff"
         offset="0"
         id="stop1116" />
      <stop
         stop-color="#329bff"
         offset="1"
         id="stop1118" />
    </linearGradient>
    <style
       type="text/css"
       id="style1121" />
    <style
       type="text/css"
       id="style1123" />
    <style
       type="text/css"
       id="style1125" />
    <style
       type="text/css"
       id="style1127" />
    <style
       type="text/css"
       id="style1129" />
    <style
       type="text/css"
       id="style1131" />
    <style
       type="text/css"
       id="style1133" />
  </defs>
  <sodipodi:namedview
     pagecolor="#ffffff"
     bordercolor="#666666"
     borderopacity="1"
     objecttolerance="10"
     gridtolerance="10"
     guidetolerance="10"
     inkscape:pageopacity="0"
     inkscape:pageshadow="2"
     inkscape:window-width="1920"
     inkscape:window-height="932"
     id="namedview49"
     showgrid="false"
     inkscape:zoom="5.9765625"
     inkscape:cx="44.432287"
     inkscape:cy="30.009621"
     inkscape:window-x="0"
     inkscape:window-y="36"
     inkscape:window-maximized="1"
     inkscape:current-layer="svg47" />
  <linearGradient
     id="a"
     gradientUnits="userSpaceOnUse"
     x1="399.57144"
     x2="399.57144"
     y1="545.79797"
     y2="517.79797">
    <stop
       offset="0"
       stop-color="#3889e9"
       id="stop2" />
    <stop
       offset="1"
       stop-color="#5ea5fb"
       id="stop4" />
  </linearGradient>
  <linearGradient
     id="b"
     gradientUnits="userSpaceOnUse"
     x1="397.57144"
     x2="397.57144"
     y1="544.79797"
     y2="517.79797"
     gradientTransform="matrix(2.1427219,0,0,2.1427219,-750.04407,-1107.543)">
    <stop
       offset="0"
       stop-color="#2971c3"
       id="stop7" />
    <stop
       offset="1"
       stop-color="#83bbff"
       id="stop9" />
  </linearGradient>
  <linearGradient
     id="c"
     gradientUnits="userSpaceOnUse"
     x1="412.03708"
     x2="412.03708"
     y1="542.20105"
     y2="526.20105">
    <stop
       offset="0"
       stop-color="#d0d0d0"
       id="stop12" />
    <stop
       offset="1"
       stop-color="#f1eeee"
       id="stop14" />
  </linearGradient>
  <linearGradient
     id="d"
     gradientUnits="userSpaceOnUse"
     x1="412.03708"
     x2="412.03708"
     y1="542.20105"
     y2="526.20105"
     gradientTransform="matrix(2.1427219,0,0,2.1427219,-774.61175,-1113.7624)">
    <stop
       offset="0"
       stop-color="#373a3d"
       id="stop17" />
    <stop
       offset="1"
       stop-color="#727273"
       id="stop19" />
  </linearGradient>
  <linearGradient
     id="e"
     gradientTransform="matrix(2.252741,0,0,2.2527546,72.076568,-4.0422061)"
     gradientUnits="userSpaceOnUse"
     x1="16.038231"
     x2="16.038231"
     y1="29.505291"
     y2="2.3195641">
    <stop
       offset="0"
       stop-color="#7cbaf8"
       id="stop22" />
    <stop
       offset="1"
       stop-color="#f4fcff"
       id="stop24" />
  </linearGradient>
  <circle
     cx="108.14147"
     cy="31.864679"
     fill="url(#a)"
     id="ellipse27"
     r="0"
     style="fill:url(#linearGradient1043);stroke-width:1.91736" />
  <circle
     cx="108.20827"
     cy="31.818096"
     fill="url(#a)"
     r="0"
     id="circle33"
     style="fill:url(#linearGradient1045);stroke-width:1.93594" />
  <rect
     style="opacity:0.3;fill:#141414;fill-opacity:1;stroke-width:2.74436;stroke-linecap:round;filter:url(#filter1057)"
     id="rect1055"
     width="55"
     height="55"
     x="4.4999995"
     y="4.4999995"
     ry="15" />
  <rect
     ry="14.999999"
     y="4.5000019"
     x="4.5000019"
     height="54.999996"
     width="54.999996"
     id="rect1045"
     style="fill:url(#linearGradient1053);fill-opacity:1;stroke-width:2.74436;stroke-linecap:round" />
  <g
     id="g30"
     stroke-width="0.26458"
     fill="#5e4aa6"
     transform="matrix(3.779602,0,0,3.779602,0.00113509,-3.7672805e-4)">
    <circle
       id="circle16"
       r="0"
       cy="-328.38"
       cx="-347.64001" />
    <circle
       id="circle18"
       fill-rule="evenodd"
       r="0"
       cy="6.4400001"
       cx="-56.726002" />
    <g
       id="g28"
       transform="translate(-0.0272,0.0065001)">
      <circle
         id="circle20"
         r="0"
         cy="-328.38"
         cx="-330.35001" />
      <circle
         id="circle22"
         r="0"
         cy="-326.25"
         cx="-312.10999" />
      <circle
         id="circle24"
         r="0"
         cy="-333.07001"
         cx="-306.01999" />
      <circle
         id="circle26"
         r="0"
         cy="-326.01001"
         cx="-308.84" />
    </g>
  </g>
  <circle
     style="stroke-width:1"
     cx="-1194.6376"
     cy="-1279.3"
     r="0"
     fill="#5e4aa6"
     id="circle16-9" />
  <g
     transform="matrix(3.779602,0,0,3.779602,53.992544,-38.184)"
     fill="#5e4aa6"
     stroke-width="0.26458"
     id="g26">
    <circle
       cx="-299.01999"
       cy="-338.76999"
       r="0"
       id="circle18-1" />
    <circle
       cx="-8.1062002"
       cy="-3.9487"
       r="0"
       fill-rule="evenodd"
       id="circle20-2" />
    <circle
       cx="-278.25"
       cy="-357.69"
       r="0"
       id="circle22-7" />
    <circle
       cx="12.663"
       cy="-22.858999"
       r="0"
       fill-rule="evenodd"
       id="circle24-0" />
  </g>
  <path
     id="path1090"
     style="fill:#ffffff;stroke-width:2.03438;fill-opacity:1;opacity:0.4"
     d="M 19.5 4.5 C 17.715424 4.5 16.012677 4.8237818 14.427734 5.390625 C 16.016935 6.8577409 15.861783 7.4533958 15.478516 7.6171875 C 15.429542 7.6368671 13.417112 6.803342 12.246094 6.3613281 C 7.621645 8.9107905 4.5 13.825616 4.5 19.5 L 4.5 19.65625 C 4.5711592 19.65574 4.6451399 19.653 4.6601562 19.652344 C 4.9871023 19.646244 5.4574364 19.741461 5.7714844 19.808594 C 6.0612404 19.868204 6.296076 20.06124 6.546875 20.080078 C 7.258603 20.134598 7.4291536 19.581503 8.0097656 19.271484 C 8.6097856 19.355304 9.0070921 19.167893 9.5488281 19.228516 C 9.9181291 19.270426 10.184893 19.665366 10.472656 19.6875 C 10.714727 19.7111 10.927911 19.460268 11.162109 19.496094 C 11.389715 19.531894 11.783267 20.026506 11.820312 20.304688 C 11.868322 20.650899 11.566107 20.963443 11.666016 21.34375 C 12.028725 21.713071 12.686962 21.787225 13.205078 22 C 13.542582 21.721901 13.250448 21.20721 13.205078 20.804688 C 13.198978 20.626883 13.228678 20.468007 13.205078 20.304688 C 13.175178 20.027462 13.056518 19.774399 13.054688 19.537109 C 13.048588 18.44133 13.936914 17.928726 14.671875 17.496094 C 14.990011 17.307507 15.241553 16.975924 15.517578 16.837891 C 15.907508 16.642591 16.19873 16.597381 16.521484 16.416016 C 17.104924 16.088338 17.604337 15.826393 18.060547 15.455078 C 18.271085 14.95818 18.080689 14.29186 18.099609 13.800781 C 18.310248 13.671598 18.491144 13.855181 18.714844 13.837891 C 19.066792 13.765261 19.097384 13.268603 19.296875 13.070312 C 19.412632 12.956183 19.729074 12.875054 19.873047 12.761719 C 20.223855 12.48659 20.338052 12.07175 20.644531 11.953125 C 20.754591 11.907965 21.008312 11.92281 21.181641 11.875 C 21.409614 11.81438 21.734134 11.54526 22.105469 11.417969 C 22.347459 11.334149 22.901781 11.316156 22.994141 11.224609 C 23.10827 11.108446 22.992343 10.781321 23.033203 10.607422 C 23.219959 9.7381519 24.530687 9.5544456 25.304688 9.2617188 C 25.847198 9.0571618 26.40389 8.6793488 27 8.7949219 C 26.88302 9.2080639 26.327765 9.0627139 26.421875 9.5644531 C 26.551665 10.260638 27.482566 9.3650652 27.728516 9.2617188 C 28.198236 9.0641804 29.004664 8.9424098 29.621094 8.71875 C 30.161634 8.5212117 31.130514 8.21977 30.621094 7.6015625 C 30.196104 7.5779635 29.991494 8.0994767 29.621094 8.2578125 C 29.365294 8.2999245 29.414162 8.0438627 29.195312 8.0234375 C 28.988512 7.9998385 28.871373 8.2149635 28.658203 8.1777344 C 28.446383 8.1427434 28.150347 7.8102672 28.117188 7.5625 C 28.033387 6.9196969 28.659521 6.655305 28.925781 6.1757812 C 28.748991 5.5943961 27.945064 6.055528 27.458984 5.828125 C 27.506784 5.4819142 27.865101 5.2438721 28.269531 5.1777344 C 28.601021 5.1219924 29.343586 5.151419 29.541016 5.3261719 C 29.655556 5.4248389 29.549105 5.6666562 29.734375 5.828125 C 29.930485 6.0059298 30.173114 5.9860001 30.427734 5.9453125 C 30.518234 5.506517 29.857697 5.6163356 29.929688 5.3261719 C 30.449858 4.9859015 31.294771 5.2654563 31.931641 5.171875 C 32.298191 5.117354 32.682902 4.85855 33.007812 4.6757812 C 33.108008 4.618717 33.225871 4.5596613 33.339844 4.5 L 19.5 4.5 z M 34.044922 4.5 C 34.110538 4.798631 33.757083 4.9037043 33.585938 5.0566406 C 32.996817 5.5807783 32.389581 6.1822883 31.931641 6.7910156 C 32.212521 7.0650873 32.723719 6.9270055 33.199219 6.984375 C 33.385159 7.007974 33.617913 7.0631935 33.814453 7.0996094 C 34.044563 7.1417214 34.28905 7.1281763 34.46875 7.1757812 C 34.79232 7.2543083 34.878909 7.5996094 35.199219 7.5996094 C 35.726069 7.5986735 35.732194 7.0298243 35.433594 6.6738281 C 35.527794 6.3104065 35.675718 6.1217698 35.548828 5.8671875 C 35.311518 5.3925666 34.441204 5.8442424 34.396484 5.2519531 C 34.369184 4.8679842 34.718252 4.8848295 34.857422 4.5976562 C 34.85433 4.5614209 34.861085 4.5331036 34.861328 4.5 L 34.044922 4.5 z M 16.441406 8.0390625 L 16.445312 8.0390625 C 16.624948 8.0626615 16.841485 8.2567556 17.058594 8.2734375 C 17.263151 8.2795375 17.432055 8.1599147 17.558594 8.1953125 C 17.880596 8.2793325 18.016461 8.7675521 17.712891 9.0058594 C 17.461145 9.0361724 17.363574 8.8951032 17.173828 8.9296875 C 16.650829 9.0173695 16.4495 10.041747 16.058594 10.007812 C 15.690025 9.9783145 15.49219 9.0779052 15.867188 8.8105469 C 15.890788 8.5770204 15.695964 8.5412456 15.708984 8.3105469 C 15.820265 8.1689541 16.135089 8.0162979 16.441406 8.0410156 L 16.441406 8.0390625 z M 14.707031 8.1601562 C 14.814242 8.1642263 14.894168 8.1891301 14.935547 8.2363281 C 14.884077 8.6467847 14.563132 8.6192541 14.246094 8.8105469 C 13.698561 9.1409709 13.383188 9.6437812 13.208984 10.349609 C 13.158124 10.554146 12.618006 11.099403 12.357422 11.044922 C 11.746762 10.916349 12.527759 9.790232 12.666016 9.6191406 C 12.820832 9.4295363 13.027436 9.2638822 13.208984 9.0449219 C 13.384958 8.8329801 13.500235 8.5473154 13.669922 8.4296875 C 13.855865 8.3011147 14.385355 8.1477059 14.707031 8.1601562 z M 19.265625 9.5449219 C 19.460925 9.5489919 19.63654 9.5808153 19.716797 9.6601562 C 19.591275 10.16871 18.496334 10.03366 18.095703 9.8496094 C 18.119303 9.6579708 18.419816 9.6050807 18.671875 9.5800781 C 18.84968 9.5739781 19.070406 9.5384119 19.265625 9.5449219 z M 16.771484 10.482422 C 16.901278 10.478322 17.035104 10.505339 17.171875 10.542969 C 16.817507 10.839398 16.432803 11.008557 15.824219 11.201172 C 15.531593 11.292512 15.026201 11.407084 14.976562 11.080078 C 14.915933 10.67957 15.4047 10.772153 15.671875 10.736328 C 16.008301 10.689128 16.377323 10.495178 16.771484 10.482422 z M 55.017578 12.765625 C 54.971612 12.875614 54.938487 12.983052 54.943359 13.087891 C 54.966959 13.273834 55.171427 13.451757 55.216797 13.703125 C 55.240397 13.836581 55.154297 14.12454 55.216797 14.246094 C 55.402337 14.60561 55.887245 14.348879 56.234375 14.367188 C 55.840075 13.824231 55.446668 13.280018 55.017578 12.765625 z M 56.986328 15.414062 C 56.930445 15.679198 56.748976 16.024929 56.603516 16.246094 C 56.267866 16.756602 55.813311 16.780514 55.332031 17.052734 C 54.930671 17.2803 54.756824 17.65896 54.521484 18.054688 C 54.266474 18.482212 54.107811 18.7419 54.212891 19.361328 C 53.868751 20.043883 53.349469 20.46049 52.636719 20.785156 C 52.426209 20.880366 52.136789 20.91753 51.943359 21.056641 C 51.789969 21.167921 51.701362 21.463129 51.482422 21.708984 C 51.212422 22.009543 50.931022 22.137567 50.789062 22.367188 C 50.679003 22.544992 50.640248 22.896703 50.517578 23.134766 C 50.352388 23.458192 50.003039 23.617654 49.787109 23.945312 C 49.688609 24.096263 49.623325 24.403128 49.515625 24.601562 C 49.271555 25.044853 48.853698 25.363976 48.898438 25.753906 C 48.943638 26.130795 49.371261 26.196879 49.400391 26.525391 C 49.406391 26.71113 49.277626 26.825025 49.285156 27.027344 C 49.291156 27.322858 49.490422 27.53041 49.513672 27.757812 C 49.571272 28.329514 49.320871 28.556421 49.212891 28.947266 C 49.161391 29.134022 49.184366 29.34443 49.134766 29.490234 C 49.038566 29.776349 48.640803 30.034709 48.632812 30.373047 C 48.628813 30.613592 48.880211 30.806966 48.900391 31.144531 C 48.906391 31.377549 48.783832 31.625847 48.826172 31.839844 C 48.907372 32.258763 49.656682 32.746827 49.982422 33.072266 C 50.418022 33.50799 50.988011 33.845609 51.175781 34.304688 C 51.333241 34.694516 51.332269 35.200234 51.636719 35.494141 C 51.861309 35.711006 52.233784 35.846714 52.521484 36.072266 C 52.789884 36.282539 53.082331 36.464125 53.369141 36.6875 C 53.837841 37.054258 54.548262 37.784869 55.294922 37.728516 C 55.684872 37.701866 56.083061 37.383315 56.525391 37.304688 C 56.980401 37.223928 57.57223 37.180302 58.03125 37.228516 C 58.38287 37.263506 58.743855 37.473855 59.109375 37.457031 C 59.234019 37.449409 59.365574 37.409774 59.5 37.359375 L 59.5 20.091797 C 58.792362 18.454452 57.960308 16.884414 56.986328 15.414062 z M 7.3164062 25.5 L 7.3144531 25.505859 C 6.6747221 25.541459 6.254311 25.569689 5.890625 25.734375 C 5.1011081 26.093661 5.195358 27.115584 4.5 27.449219 L 4.5 31.044922 C 4.5395454 31.051669 4.5775767 31.055803 4.6171875 31.064453 C 4.8157425 31.109613 4.9683142 31.194666 5.1601562 31.259766 C 5.5675403 31.397494 6.0667521 31.380034 6.3925781 31.525391 C 6.8833731 31.743232 7.2419495 32.66713 7.6640625 32.914062 C 7.6876625 33.162908 7.6165881 33.496268 7.7050781 33.681641 C 7.9038371 33.952234 8.1851599 33.891713 8.5136719 34.068359 C 8.9067749 34.2803 9.0260035 34.828786 9.3984375 34.996094 C 9.5268065 35.053464 9.8495404 35.044965 10.052734 35.107422 C 10.563139 35.261221 10.730415 35.85369 11.167969 35.724609 C 11.454878 35.640789 11.43197 35.344629 11.478516 35.070312 C 11.66812 34.865735 11.876279 34.539021 12.171875 34.533203 C 12.650341 34.509603 12.691254 35.027576 12.865234 35.492188 C 12.964104 35.754866 13.221949 35.982765 13.289062 36.259766 C 13.40848 36.738273 13.348214 38.171058 13.246094 38.457031 C 13.125455 38.807921 12.650312 38.956668 12.357422 39.345703 C 12.219695 39.52839 12.153558 39.795642 12.048828 39.923828 C 11.860241 40.153611 11.580537 40.213921 11.439453 40.425781 C 11.360313 40.545199 11.282832 40.801605 11.205078 40.962891 C 10.97385 41.452932 10.664888 41.798458 10.859375 42.386719 C 10.940135 42.62875 11.317362 42.791277 11.318359 43.076172 C 11.319459 43.411458 10.606055 43.712527 10.550781 44.080078 C 10.508671 44.353621 10.772385 44.841392 10.859375 45.197266 C 10.923055 45.466191 11.431264 45.633658 11.589844 45.8125 C 11.860091 46.115989 12.075373 46.546573 12.322266 46.927734 C 12.810517 47.677424 13.192575 48.592004 13.667969 49.318359 C 13.919113 49.698809 14.272084 50.040633 14.439453 50.435547 C 14.524283 50.634306 14.513476 50.871694 14.591797 51.050781 C 14.866906 51.671898 16.081846 52.320575 16.708984 52.628906 C 17.002525 52.771109 17.328263 52.822824 17.597656 52.972656 C 18.005752 53.200242 18.813469 53.812033 19.019531 54.169922 C 19.203439 54.491537 19.317002 55.273733 19.40625 55.785156 C 19.525872 56.461099 19.409406 56.98088 19.447266 57.712891 C 19.470866 58.108802 19.59668 58.505436 19.601562 58.902344 C 19.603063 59.040885 19.528927 59.145252 19.523438 59.287109 C 19.523215 59.309079 19.53125 59.336585 19.53125 59.359375 C 19.640491 59.40881 19.753362 59.4518 19.863281 59.5 L 34.757812 59.5 C 34.763818 59.434171 34.755046 59.371173 34.773438 59.302734 C 34.957547 58.61135 35.913904 58.188945 36.583984 57.876953 C 36.814214 57.769741 37.048738 57.596492 37.236328 57.53125 C 37.700048 57.36972 38.279285 57.45843 38.703125 57.302734 C 39.424625 57.038692 39.499699 56.264792 39.855469 55.607422 C 40.024119 55.296325 40.246397 54.983365 40.279297 54.761719 C 40.307397 54.56296 40.205428 54.375698 40.236328 54.140625 C 40.270528 53.908095 40.480452 53.706772 40.544922 53.451172 C 40.628722 53.117676 40.666016 52.629291 40.666016 52.257812 C 40.666016 51.952818 40.522909 51.685306 40.511719 51.410156 C 40.461319 50.411357 40.872597 50.299486 41.242188 49.755859 C 41.427717 49.485897 41.497523 49.177926 41.626953 48.984375 C 42.247373 48.058834 43.323924 47.612056 43.246094 46.212891 C 43.222494 45.749886 42.928531 44.702404 42.587891 44.554688 C 42.393201 44.470667 41.946012 44.548499 41.664062 44.439453 C 40.753903 44.100057 40.220454 42.972551 39.277344 42.900391 C 39.076544 42.876791 38.890732 42.982186 38.664062 42.978516 C 38.290813 42.954916 37.727593 42.71651 37.314453 42.669922 C 37.051793 42.643072 36.700629 42.747432 36.542969 42.669922 C 36.302729 42.552742 36.279604 42.110649 36.083984 41.978516 C 35.929984 41.870693 35.625945 41.836217 35.390625 41.744141 C 35.011435 41.599903 34.710927 41.428892 34.273438 41.398438 C 34.138757 41.392337 33.96973 41.461423 33.8125 41.439453 C 33.57045 41.397343 33.37954 41.11252 33.15625 40.976562 C 32.87633 40.805472 32.617593 40.723313 32.501953 40.480469 C 32.754763 39.651113 32.056779 39.420645 31.886719 38.941406 C 31.805919 38.71681 31.842024 38.446378 31.771484 38.246094 C 31.669964 37.959083 31.387222 37.794073 31.076172 37.554688 C 30.518992 37.125821 30.024836 36.72322 29.228516 36.625 C 28.878446 36.57984 28.530452 36.730592 28.107422 36.703125 C 27.659262 36.676475 27.096939 36.281613 26.761719 35.898438 C 26.435749 35.524315 26.278121 35.188588 25.994141 35.009766 C 25.725201 34.836641 25.367174 34.84205 25.183594 34.667969 C 25.101994 34.591879 25.117417 34.45995 25.029297 34.279297 C 24.894417 33.999326 24.666677 33.843322 24.835938 33.507812 C 24.529048 33.349944 24.519344 33.800493 24.183594 33.742188 C 23.884194 33.317428 23.632811 33.117683 22.953125 33.242188 C 22.641926 33.299757 22.468077 33.691367 22.105469 33.701172 C 21.808023 33.724772 21.574418 33.370276 21.181641 33.314453 C 20.885109 33.272343 20.546984 33.393509 20.335938 33.355469 C 20.007324 33.289959 19.905743 33.01779 19.605469 32.820312 C 19.385329 32.676279 18.95743 32.427653 18.833984 32.431641 C 18.446923 32.455241 18.172392 33.255394 17.638672 32.972656 C 17.379207 32.643799 18.06126 32.469728 17.753906 32.162109 C 17.520685 31.928868 17.323292 32.268501 17.136719 32.396484 C 16.922845 32.543366 16.722662 32.691819 16.486328 32.779297 C 15.957369 32.976835 15.626216 32.872752 15.212891 33.085938 C 14.830143 33.283679 14.814481 33.61589 14.597656 34.009766 C 14.419852 34.33248 14.016483 34.802777 13.75 34.822266 C 13.427306 34.845866 13.118858 34.3707 12.826172 34.244141 C 11.944329 33.862105 11.51735 34.583944 10.785156 34.59375 C 10.105571 34.61735 9.1338517 33.49636 9.1679688 32.857422 C 9.1740687 32.467634 9.3938831 31.876903 9.4394531 31.394531 C 9.4815631 31.010969 9.7416177 30.779906 9.7460938 30.429688 C 9.7521937 29.962024 9.1258566 29.602414 8.8222656 29.546875 C 8.1028886 29.414844 7.1038109 29.835509 6.2792969 29.503906 C 6.1222429 29.242976 6.4647674 29.062383 6.5527344 28.808594 C 6.6033944 28.664967 6.57231 28.471283 6.625 28.3125 C 6.71553 28.067235 6.9749417 27.878911 7.0898438 27.619141 C 7.1744737 27.4214 7.19601 27.134648 7.28125 26.888672 C 7.38358 26.608598 7.5680558 26.426889 7.5898438 26.230469 C 7.6164938 25.971086 7.5198873 25.670969 7.3164062 25.5 z M 17.609375 33.658203 C 17.867737 33.685538 17.901233 34.2204 17.634766 34.263672 C 17.346799 34.309042 17.200152 33.810906 17.480469 33.681641 C 17.528079 33.658041 17.572349 33.658526 17.609375 33.660156 L 17.609375 33.658203 z " />
  <path
     id="path36"
     p-id="4564"
     stroke-width="0.0354727"
     fill="#ffffff"
     d="m 49.100614,49.09703 a 3.6354858,3.6354858 0 0 1 -5.133456,0 L 33.848786,38.975256 c -2.422423,0.639206 -5.09377,0.03803 -6.99113,-1.859451 -1.901291,-1.899477 -2.502323,-4.572562 -1.863155,-6.99302 l 4.425536,4.425536 5.133455,-5.133455 -4.423646,-4.425536 c 2.420646,-0.637392 5.09377,-0.03643 6.99113,1.861303 1.897587,1.897625 2.498733,4.570672 1.859564,6.99113 l 10.109302,10.123664 c 1.4237,1.414591 1.4237,3.718977 0.01096,5.133455 z M 35.009123,50.152106 H 28.985572 L 27.060696,45.64871 C 26.594029,45.454367 26.303453,45.340015 25.8386,45.145721 l -4.550641,1.819538 -4.26188,-4.25999 1.821315,-4.543459 a 146.59564,146.59564 0 0 1 -0.502989,-1.220282 l -4.503396,-1.937576 v -6.025441 l 4.503396,-1.92669 c 0.168865,-0.406761 0.337771,-0.813522 0.502989,-1.220245 l -1.821352,-4.543459 4.261879,-4.261879 4.54157,1.821352 c 0.473962,-0.203376 0.755429,-0.319592 1.229353,-0.513875 l 1.92669,-4.494324 h 6.025063 l 1.924876,4.494324 c 0.475776,0.203377 0.757243,0.319592 1.231206,0.513875 l 4.541569,-1.821352 4.26188,4.261879 -1.821391,4.543459 c 0.203381,0.472148 0.319603,0.75543 0.513875,1.229354 l 4.492435,1.928542 v 6.023551 l -3.408483,1.463651 -3.9134,-3.9134 A 10.910199,10.910199 0 0 0 39.68623,24.281033 10.72651,10.72651 0 0 0 32.026488,21.114028 c -0.9497,0 -1.897624,0.127146 -2.818298,0.36861 a 10.841032,10.841032 0 0 0 -7.717569,7.717569 c -0.987837,3.749857 0.07814,7.770484 2.798342,10.492553 a 10.72651,10.72651 0 0 0 8.28073,3.146973 l 3.902439,3.904328 -1.461837,3.408483 z" />
</svg>
