<?xml version="1.0" encoding="UTF-8"?>
<svg width="64" height="64" version="1.1" xmlns="http://www.w3.org/2000/svg" xmlns:cc="http://creativecommons.org/ns#" xmlns:dc="http://purl.org/dc/elements/1.1/" xmlns:rdf="http://www.w3.org/1999/02/22-rdf-syntax-ns#" xmlns:xlink="http://www.w3.org/1999/xlink">
 <metadata>
  <rdf:RDF>
   <cc:Work rdf:about="">
    <dc:format>image/svg+xml</dc:format>
    <dc:type rdf:resource="http://purl.org/dc/dcmitype/StillImage"/>
    <dc:title/>
   </cc:Work>
  </rdf:RDF>
 </metadata>
 <defs>
  <style type="text/css"/>
  <style type="text/css"/>
  <filter id="filter2761" x="-.024" y="-.024" width="1.048" height="1.048" color-interpolation-filters="sRGB">
   <feGaussianBlur stdDeviation="0.14552168"/>
  </filter>
  <linearGradient id="linearGradient1024" x1="1.3315" x2="14.217" y1="15.576" y2="2.6243" gradientTransform="matrix(3.7796 0 0 3.7796 -.0031954 .53086)" gradientUnits="userSpaceOnUse">
   <stop stop-color="#ff7d1e" offset="0"/>
   <stop stop-color="#ffa53c" offset="1"/>
  </linearGradient>
 </defs>
 <circle cx="-1248.7" cy="-1241.6" r="0" fill="#5e4aa6" image-rendering="optimizeSpeed"/>
 <g transform="translate(96.721 -4.4322)">
  <g transform="translate(1,1)">
   <g opacity=".1">
    <!-- color: #e57e29 --></g>
  </g>
 </g>
 <path transform="matrix(3.7796 0 0 3.7796 -.0031954 .53086)" d="m10.709 1.05c4.405 0 5.0345 0.67282 5.0345 5.388v3.7761c0 4.7152-0.62954 5.388-5.0345 5.388h-4.4832c-4.405 0-5.0346-0.6728-5.0346-5.388v-3.7761c0-4.7152 0.62954-5.388 5.0346-5.388z" enable-background="new" fill="#141414" filter="url(#filter2761)" opacity=".3"/>
 <path d="m40.473 4.4994c16.649 0 19.028 2.543 19.028 20.364v14.272c0 17.822-2.3794 20.364-19.028 20.364h-16.945c-16.649 0-19.029-2.5429-19.029-20.364v-14.272c0-17.822 2.3794-20.364 19.029-20.364z" enable-background="new" fill="url(#linearGradient1024)" stroke-width="3.7796"/>
 <g transform="matrix(1.3043 0 0 1.3043 -77.562 2.9169)">
  <!-- color: #e57e29 -->
  <path d="m17.438 7.625c-4.723 0-9.102 1.43-12.75 3.844-1.453 2.238-2.488 4.746-3.094 7.438 2.094-2.492 3.926-4.27 5.781-5.5 3.625 9.879 3.813 9.918 1.125-0.656 2.656-1.465 5.406-1.945 8.938-1.969 0.309-4e-3 0.598 0.02 0.906 0.031-0.043 5.508-0.902 16.859-3.969 21-4.434-11.41-3.895-9.379-0.906 0.344-0.211 0.105-0.41 0.262-0.625 0.438l-1.375-1.031 0.688 1.969c-2.93 0.445-5.84-0.289-8.75 0.781 0.387 0.773 0.785 1.5 1.25 2.219 2.758-0.625 4.766-2.961 7.531-1.398 0.043 0.215 0.156 0.406 0.25 0.594l-6.438 2.594c0.152 0.191 0.281 0.379 0.438 0.563 2.176-1.027 4.402-1.434 6.438-2.531 0.203 0.18 0.469 0.309 0.75 0.406l-3.906 5.281c0.223 0.176 0.461 0.363 0.688 0.531 1.406-1.75 2.066-3.746 3.875-5.688 0.238 0.02 0.508 0.059 0.781 0.023-0.348 2.84-0.102 5.773 0.594 8.531 0.902 0.352 1.855 0.641 2.816 0.875-0.711-3.223-2.645-6.207-2.469-9.594 0.887 0.34 1.352 0.781 2.344 1.469-0.445-0.668-0.992-1.102-1.375-1.938 0.086-0.141 0.168-0.281 0.219-0.438 4.555 1.734 8.816 2.223 13.441 5l2.527 1.875c-1.031 1.508-2.352 2.805-4.03 3.75 2.719-0.617 5.246-1.707 7.5-3.188 2.434-3.645 3.875-8.02 3.875-12.688 0-12.594-10.281-22.938-23.06-22.938m3.781 3.531c7.625 1.5 14.277 7.484 15.719 14.5l-0.344 0.438c-0.641 1.109-6.66 3.03-8.844 3.719-4.168 0.891-7.152 3.01-11.156 3.156-0.246-0.324-0.531-0.617-0.875-0.813 2.434-4.328 1.633-15.895 5.5-21m15.13 16.438 0.906 0.875c0 0.699-0.074 1.387-0.191 2.094-0.594 3.742-1.344 7.441-2.902 10.469l-3.316-1.094c-3.777-1.84-9.441-3.035-13.469-5.688 5.773-3.316 12.633-4.652 18.969-6.656m-14.719 16.16c0.457 1.328 1.582 2.215 2.402 3.25 0.375 0 0.758-0.012 1.125-0.031-1.32-1.07-2.43-2-3.527-3.219" fill="#f9f9f9"/>
 </g>
 <path d="m21.385 12.861-0.0098 2e-3c-6.1604 0-11.873 1.865-16.631 5.0137-0.012884 0.01985-0.024276 0.04067-0.037109 0.06055-0.11664 1.6358-0.17632 3.4722-0.19336 5.5195 1.2699-1.2214 2.4984-2.2332 3.7344-3.0527 4.7283 12.886 4.9748 12.937 1.4688-0.85547 3.4644-1.9109 7.0513-2.5371 11.658-2.5684 0.40304-0.0052 0.7799 0.02668 1.1816 0.04102-0.05609 7.1843-1.1773 21.989-5.1777 27.391-5.7835-14.883-5.0803-12.233-1.1816 0.44922-0.27522 0.13696-0.53402 0.34075-0.81445 0.57031l-1.7949-1.3438 0.89844 2.5684c-3.2438 0.49266-6.4692-0.1092-9.6914 0.54688 0.11109 1.1739 0.26553 2.2321 0.46094 3.1973 3.3144-0.97629 5.8557-3.5852 9.2715-1.6543 0.05609 0.28043 0.20356 0.52822 0.32617 0.77344l-8.8183 3.661c0.069355 0.15929 0.26592 0.64672 0.4043 0.88672 2.8383-1.3396 6.3286-2.3004 8.9843-3.7313 0.26478 0.23478 0.612 0.40278 0.97852 0.5293l-5.3848 7.248c0.49009 0.18269 0.81719 0.29454 1.1719 0.39648 1.8339-2.2826 2.7108-4.9494 5.0703-7.4824 0.31043 0.02609 0.66149 0.07821 1.0176 0.03125-0.33764 2.7555-0.24517 5.5764 0.19726 8.3223 0.9502 0.05102 1.9741 0.08106 3.0547 0.09766-1.0337-2.8216-2.1818-5.6191-2.0234-8.666 1.157 0.44348 1.7627 1.0186 3.0566 1.916-0.58043-0.8713-1.2934-1.4369-1.793-2.5273 0.11217-0.18391 0.21864-0.36748 0.28516-0.57227 5.9413 2.2617 11.499 2.8993 17.531 6.5215l3.2969 2.4473c-0.2118 0.30978-0.45074 0.59912-0.68164 0.89453 1.9241-0.0097 3.6618-0.05791 5.209-0.16602 3.1733-4.7536 5.0527-10.458 5.0527-16.545 0-16.427-13.41-29.92-30.078-29.92zm4.9316 4.6055c9.9456 1.9565 18.623 9.7628 20.504 18.914l-0.44922 0.57031c-0.83609 1.4465-8.6865 3.9529-11.535 4.8516-5.4365 1.1622-9.3301 3.9248-14.553 4.1152-0.32087-0.42261-0.69193-0.8049-1.1406-1.0605 3.1748-5.6452 2.1299-20.732 7.1738-27.391zm19.73 21.441h0.0039l1.1816 1.1406c0 0.91174-0.09544 1.8102-0.24805 2.7324-0.77478 4.8809-1.753 9.7047-3.7852 13.654l-4.3262-1.4277c-4.9265-2.4-12.314-3.9575-17.568-7.418 7.53-4.3252 16.478-6.0677 24.742-8.6816z" enable-background="new" fill="#f9f9f9" stroke-width="3.7796"/>
</svg>
