<?xml version="1.0" encoding="UTF-8" standalone="no"?>
<svg
   xmlns:dc="http://purl.org/dc/elements/1.1/"
   xmlns:cc="http://creativecommons.org/ns#"
   xmlns:rdf="http://www.w3.org/1999/02/22-rdf-syntax-ns#"
   xmlns:svg="http://www.w3.org/2000/svg"
   xmlns="http://www.w3.org/2000/svg"
   xmlns:sodipodi="http://sodipodi.sourceforge.net/DTD/sodipodi-0.dtd"
   xmlns:inkscape="http://www.inkscape.org/namespaces/inkscape"
   height="64"
   viewBox="0 0 64 64"
   width="64"
   version="1.1"
   id="svg217"
   sodipodi:docname="applications-development-translation.svg"
   inkscape:version="1.0.1 (3bc2e813f5, 2020-09-07)">
  <metadata
     id="metadata223">
    <rdf:RDF>
      <cc:Work
         rdf:about="">
        <dc:format>image/svg+xml</dc:format>
        <dc:type
           rdf:resource="http://purl.org/dc/dcmitype/StillImage" />
        <dc:title></dc:title>
      </cc:Work>
    </rdf:RDF>
  </metadata>
  <defs
     id="defs221">
    <linearGradient
       id="linearGradient11422"
       x1="-6.1472001"
       x2="-6.1472001"
       y1="-137.82001"
       y2="-100.78"
       gradientTransform="matrix(2.0044,0,0,2.0044,151.4312,271.61)"
       gradientUnits="userSpaceOnUse">
      <stop
         stop-color="#32b4ff"
         offset="0"
         id="stop4-3" />
      <stop
         stop-color="#3287ff"
         offset="1"
         id="stop6" />
    </linearGradient>
    <filter
       color-interpolation-filters="sRGB"
       height="1.048"
       width="1.048"
       y="-0.024"
       x="-0.024"
       id="filter2761">
      <feGaussianBlur
         id="feGaussianBlur840"
         stdDeviation="0.14552168" />
    </filter>
    <linearGradient
       gradientUnits="userSpaceOnUse"
       gradientTransform="matrix(3.7796,0,0,3.7796,52.70136,-30.294572)"
       y2="1.17"
       y1="15.576"
       x2="15.65"
       x1="1.3315001"
       id="linearGradient1024">
      <stop
         id="stop843"
         offset="0"
         stop-color="#00c8ff" />
      <stop
         id="stop845"
         offset="1"
         stop-color="#14a0ff" />
    </linearGradient>
    <style
       type="text/css"
       id="style854" />
    <filter
       id="filter1057"
       x="-0.027000001"
       y="-0.027000001"
       width="1.054"
       height="1.054"
       color-interpolation-filters="sRGB">
      <feGaussianBlur
         stdDeviation="0.61875"
         id="feGaussianBlur856" />
    </filter>
    <linearGradient
       id="linearGradient1053"
       x1="-127"
       x2="-72"
       y1="60"
       y2="5"
       gradientTransform="translate(131.5,-0.5099988)"
       gradientUnits="userSpaceOnUse">
      <stop
         stop-color="#32d7ff"
         offset="0"
         id="stop859" />
      <stop
         stop-color="#329bff"
         offset="1"
         id="stop861" />
    </linearGradient>
    <style
       type="text/css"
       id="style864" />
    <style
       type="text/css"
       id="style866" />
    <style
       type="text/css"
       id="style868" />
    <style
       type="text/css"
       id="style870" />
    <style
       type="text/css"
       id="style872" />
    <style
       type="text/css"
       id="style874" />
    <style
       type="text/css"
       id="style876" />
  </defs>
  <sodipodi:namedview
     pagecolor="#ffffff"
     bordercolor="#666666"
     borderopacity="1"
     objecttolerance="10"
     gridtolerance="10"
     guidetolerance="10"
     inkscape:pageopacity="0"
     inkscape:pageshadow="2"
     inkscape:window-width="1920"
     inkscape:window-height="932"
     id="namedview219"
     showgrid="false"
     inkscape:zoom="5.9765625"
     inkscape:cx="14.84311"
     inkscape:cy="18.480492"
     inkscape:window-x="0"
     inkscape:window-y="36"
     inkscape:window-maximized="1"
     inkscape:current-layer="svg217" />
  <linearGradient
     id="a"
     gradientUnits="userSpaceOnUse"
     x1="399.57144"
     x2="399.57144"
     y1="545.79797"
     y2="517.79797"
     gradientTransform="matrix(1.7576939,0,0,1.7576939,-600.84223,-902.81805)">
    <stop
       offset="0"
       stop-color="#3889e9"
       id="stop2" />
    <stop
       offset="1"
       stop-color="#5ea5fb"
       id="stop4" />
  </linearGradient>
  <linearGradient
     id="b"
     gradientUnits="userSpaceOnUse"
     x1="400.5119"
     x2="400.69922"
     y1="546.07446"
     y2="517.77289"
     gradientTransform="matrix(1.9642873,0,0,1.9642873,-683.48072,-1012.6039)">
    <stop
       offset="0"
       stop-color="#4c93dd"
       id="stop7" />
    <stop
       offset="1"
       stop-color="#56c5fd"
       id="stop9" />
  </linearGradient>
  <circle
     cx="103.23964"
     cy="31.919897"
     fill="url(#a)"
     id="ellipse12"
     r="0"
     style="fill:url(#a);stroke-width:1.75769" />
  <rect
     x="4.4999995"
     y="4.4999995"
     width="55"
     height="55"
     ry="15"
     fill="#141414"
     filter="url(#filter1057)"
     opacity="0.3"
     stroke-linecap="round"
     stroke-width="2.7444"
     id="rect892" />
  <rect
     x="4.5"
     y="4.5"
     width="55"
     height="55"
     ry="15"
     fill="url(#linearGradient1053)"
     stroke-linecap="round"
     stroke-width="2.7444"
     id="rect894"
     style="fill:url(#linearGradient1053)" />
  <circle
     cx="-1061.668"
     cy="-1378.5312"
     r="0"
     id="circle882"
     style="fill:#5e4aa6;stroke-width:1.00001" />
  <circle
     cx="37.86977"
     cy="-113.04071"
     r="0"
     fill-rule="evenodd"
     id="circle884"
     style="fill:#5e4aa6;stroke-width:1.00001" />
  <circle
     cx="-983.16571"
     cy="-1450.0414"
     r="0"
     id="circle886"
     style="fill:#5e4aa6;stroke-width:1.00001" />
  <circle
     cx="116.36904"
     cy="-184.51408"
     r="0"
     fill-rule="evenodd"
     id="circle888"
     style="fill:#5e4aa6;stroke-width:1.00001" />
  <circle
     cx="-1248.7"
     cy="-1241.6"
     r="0"
     fill="#5e4aa6"
     id="circle11" />
  <circle
     cx="-149.14999"
     cy="23.855"
     r="0"
     fill="#5e4aa6"
     fill-rule="evenodd"
     id="circle13" />
  <circle
     cx="-1170.2"
     cy="-1313.1"
     r="0"
     fill="#5e4aa6"
     id="circle19" />
  <circle
     style="fill:#5e4aa6;fill-rule:evenodd"
     id="circle21"
     r="0"
     cy="-47.617001"
     cx="37.284199" />
  <g
     style="fill:#5e4aa6;stroke-width:0.26458;image-rendering:optimizeSpeed"
     transform="matrix(3.7796,0,0,3.7796,-117.68998,-42.304983)"
     id="g872">
    <circle
       cx="-347.64001"
       cy="-328.38"
       r="0"
       id="circle858" />
    <circle
       style="fill-rule:evenodd"
       cx="-56.726002"
       cy="6.4400001"
       r="0"
       id="circle860" />
    <g
       transform="translate(-0.0272,0.0065001)"
       id="g870">
      <circle
         cx="-330.35001"
         cy="-328.38"
         r="0"
         id="circle862" />
      <circle
         cx="-312.10999"
         cy="-326.25"
         r="0"
         id="circle864" />
      <circle
         cx="-306.01999"
         cy="-333.07001"
         r="0"
         id="circle866" />
      <circle
         cx="-308.84"
         cy="-326.01001"
         r="0"
         id="circle868" />
    </g>
  </g>
  <circle
     cx="-1180.1221"
     cy="-1339.2323"
     r="0"
     fill="#5e4aa6"
     id="circle880" />
  <g
     id="g1941">
    <path
       d="m 37.433633,45.167841 c -0.23325,0.266507 -0.535081,0.515666 -0.819655,0.745321 -1.838472,-1.899998 -3.996859,-4.005748 -6.048444,-4.005748 -1.27194,0 -2.188052,0.968264 -3.256837,1.651407 -1.483199,0.948027 -3.517714,1.481923 -5.261202,0.786128 -0.937764,-0.356032 -1.846315,-0.880507 -2.525301,-1.732521 1.372264,0.946393 3.427219,1.073592 4.976358,0.430906 1.712334,-0.71039 3.455186,-1.653692 5.406625,-1.653692 2.876609,0 5.610565,1.945833 7.528456,3.778199 z M 16.172742,39.192057 c 1.90456,2.168011 5.010888,1.470504 7.553344,2.011972 0.353891,0.07537 0.686357,0.192892 1.066209,0.134557 -0.302281,-0.191633 -0.702929,-0.213255 -1.052097,-0.344796 -1.972718,-0.743172 -2.280277,-2.854458 -3.359879,-4.30753 1.378917,0.916731 2.521333,2.171796 3.810829,3.35125 0.897457,0.820871 2.015567,1.172092 3.175166,1.408038 -0.278642,0.10184 -0.643156,0.07782 -0.943248,0.152265 -2.08295,0.516731 -4.392361,1.332387 -6.608748,0.600967 -1.430344,-0.472022 -2.918815,-1.589875 -3.641576,-3.006723 z m -3.052923,-5.017795 c 1.188002,2.6897 4.172772,2.900345 6.15735,4.550396 0.37737,0.31376 0.751433,0.602496 1.16598,0.795837 l 0.02139,-0.02166 c -0.45796,-0.414367 -0.953548,-0.908192 -1.308267,-1.423589 -1.134298,-1.648107 -0.756826,-3.900892 -1.631401,-5.648244 0.794578,0.951425 1.539872,1.931132 1.997411,3.020475 0.736285,1.753002 0.98639,3.752852 2.637747,5.084938 -1.787261,-0.589642 -3.849,-0.472284 -5.45841,-1.526416 -1.691713,-1.108041 -3.259566,-2.856975 -3.581802,-4.831735 z m -1.272583,-5.441691 c 0.171769,2.369712 2.694678,3.635589 3.897656,5.583529 0.256933,0.416042 0.52133,0.845542 0.89444,1.18153 -0.05815,-0.252306 -0.265758,-0.475852 -0.380031,-0.723389 -0.385841,-0.835804 -0.560468,-1.803064 -0.464163,-2.797652 0.117172,-1.210103 0.62164,-2.333758 0.428029,-3.60679 1.036906,2.238121 0.702426,5.036076 1.301706,7.456089 0.132574,0.535362 0.45859,1.003828 0.659481,1.510866 -1.018787,-0.775014 -2.353913,-1.462948 -3.472198,-2.344409 -1.081485,-0.852453 -2.020217,-1.85159 -2.508168,-3.151662 -0.351605,-0.936796 -0.443041,-2.054216 -0.356752,-3.108112 z m 0.07047,-4.366223 c 0.121704,-0.528879 0.214824,-1.076275 0.444929,-1.561471 -0.43567,2.235425 1.051478,3.850208 1.559224,5.784239 0.19134,0.728826 0.256799,1.503227 0.551531,2.183292 0.0275,0.01474 0.05132,-0.01384 0.06831,-0.03586 -0.733726,-2.058262 0.341846,-3.960489 1.389613,-5.582898 0.27541,-0.426456 0.407985,-0.923023 0.536609,-1.425027 0.113255,0.931741 -0.08506,2.010337 -0.257429,2.971847 -0.221911,1.237876 -0.645009,2.398025 -0.981268,3.592319 -0.221384,0.74613 -0.163049,1.588167 -0.04944,2.369892 l -0.106782,-0.08521 C 14.2929,31.137339 12.753825,30.012307 12.289018,28.440537 11.917534,27.184339 11.660547,25.733041 11.917706,24.366348 Z m 0.822802,-2.404677 c 0,-1.691621 0.658673,-3.071618 1.646682,-4.331438 0.02867,-0.01429 0.04908,-0.04305 0.08611,-0.03631 -1.087692,1.654502 -0.0977,3.743018 -0.237475,5.619661 l -0.143456,1.926043 c 0.0213,0.01402 0.0213,0.07182 0.07182,0.04971 0.06427,-0.214734 0.08377,-0.443141 0.121164,-0.664875 0.261847,-1.55275 1.625328,-2.633519 2.781652,-3.729752 0.27352,-0.259307 0.473781,-0.565912 0.602764,-0.895428 -0.09618,0.773455 -0.311934,1.566341 -0.659122,2.269221 -0.890049,1.801895 -2.609074,3.256421 -2.918276,5.304167 -0.149927,-1.962536 -1.351861,-3.421462 -1.351861,-5.510992 z m 2.867043,-5.706399 c 0.546945,-0.606404 1.159957,-1.078792 1.889728,-1.265662 -1.417116,0.974437 -1.340173,2.715953 -1.774047,4.172073 -0.158645,0.532426 -0.391807,1.031244 -0.515757,1.581516 l 0.03586,0.02867 c 0.235767,-0.62209 0.640288,-1.220077 1.167328,-1.71733 0.996748,-0.940416 2.495281,-1.509609 2.988476,-2.885199 -0.02256,1.91157 -1.651966,3.364666 -3.140201,4.488825 -0.66749,0.504198 -1.234741,1.181171 -1.580886,1.890809 0.05784,-0.528184 0.0841,-0.967547 0.03694,-1.483093 -0.152759,-1.669844 -0.251821,-3.541833 0.892552,-4.810612 z m 5.75188,-3.213816 c -1.051737,0.922843 -1.753499,2.110668 -2.561435,3.178491 -0.671973,0.888126 -1.594009,1.43842 -2.38697,2.183652 0.42803,-0.888058 0.50706,-1.905635 1.050659,-2.764754 0.92954,-1.469074 2.465798,-2.039297 3.897746,-2.597389 z"
       fill="#ffffff"
       id="path1358"
       style="opacity:1;fill:#ffffff;fill-opacity:1;stroke-width:0.0865877" />
    <path
       d="m 26.566366,45.167841 c 0.23325,0.266507 0.535081,0.515666 0.819655,0.745321 1.838472,-1.899998 3.996859,-4.005748 6.048444,-4.005748 1.27194,0 2.188052,0.968264 3.256837,1.651407 1.483199,0.948027 3.517714,1.481923 5.261202,0.786128 0.937764,-0.356032 1.846315,-0.880507 2.525301,-1.732521 -1.372264,0.946393 -3.427219,1.073592 -4.976358,0.430906 -1.712334,-0.71039 -3.455186,-1.653692 -5.406625,-1.653692 -2.876609,0 -5.610565,1.945833 -7.528456,3.778199 z m 21.260891,-5.975784 c -1.90456,2.168011 -5.010888,1.470504 -7.553344,2.011972 -0.353891,0.07537 -0.686357,0.192892 -1.066209,0.134557 0.302281,-0.191633 0.702929,-0.213255 1.052097,-0.344796 1.972718,-0.743172 2.280277,-2.854458 3.359879,-4.30753 -1.378917,0.916731 -2.521333,2.171796 -3.810829,3.35125 -0.897457,0.820871 -2.015567,1.172092 -3.175166,1.408038 0.278642,0.10184 0.643156,0.07782 0.943248,0.152265 2.08295,0.516731 4.392361,1.332387 6.608748,0.600967 1.430344,-0.472022 2.918815,-1.589875 3.641576,-3.006723 z m 3.052923,-5.017795 c -1.188002,2.6897 -4.172772,2.900345 -6.15735,4.550396 -0.37737,0.31376 -0.751433,0.602496 -1.16598,0.795837 l -0.02139,-0.02166 c 0.45796,-0.414367 0.953548,-0.908192 1.308267,-1.423589 1.134298,-1.648107 0.756826,-3.900892 1.631401,-5.648244 -0.794578,0.951425 -1.539872,1.931132 -1.997411,3.020475 -0.736285,1.753002 -0.98639,3.752852 -2.637747,5.084938 1.787261,-0.589642 3.849,-0.472284 5.45841,-1.526416 1.691713,-1.108041 3.259566,-2.856975 3.581802,-4.831735 z m 1.272583,-5.441691 c -0.171769,2.369712 -2.694678,3.635589 -3.897656,5.583529 -0.256933,0.416042 -0.52133,0.845542 -0.89444,1.18153 0.05815,-0.252306 0.265758,-0.475852 0.380031,-0.723389 0.385841,-0.835804 0.560468,-1.803064 0.464163,-2.797652 -0.117172,-1.210103 -0.62164,-2.333758 -0.428029,-3.60679 -1.036906,2.238121 -0.702426,5.036076 -1.301706,7.456089 -0.132574,0.535362 -0.45859,1.003828 -0.659481,1.510866 1.018787,-0.775014 2.353913,-1.462948 3.472198,-2.344409 1.081485,-0.852453 2.020217,-1.85159 2.508168,-3.151662 0.351605,-0.936796 0.443041,-2.054216 0.356752,-3.108112 z m -0.07047,-4.366223 c -0.121704,-0.528879 -0.214824,-1.076275 -0.444929,-1.561471 0.43567,2.235425 -1.051478,3.850208 -1.559224,5.784239 -0.19134,0.728826 -0.256799,1.503227 -0.551531,2.183292 -0.0275,0.01474 -0.05132,-0.01384 -0.06831,-0.03586 0.733726,-2.058262 -0.341846,-3.960489 -1.389613,-5.582898 -0.27541,-0.426456 -0.407985,-0.923023 -0.536609,-1.425027 -0.113255,0.931741 0.08506,2.010337 0.257429,2.971847 0.221911,1.237876 0.645009,2.398025 0.981268,3.592319 0.221384,0.74613 0.163049,1.588167 0.04944,2.369892 l 0.106782,-0.08521 c 0.780107,-1.440127 2.319182,-2.565159 2.783989,-4.136929 0.371484,-1.256198 0.628471,-2.707496 0.371313,-4.074189 z m -0.822802,-2.404677 c 0,-1.691621 -0.658673,-3.071618 -1.646682,-4.331438 -0.02867,-0.01429 -0.04908,-0.04305 -0.08611,-0.03631 1.087692,1.654502 0.0977,3.743018 0.237475,5.619661 l 0.143456,1.926043 c -0.0213,0.01402 -0.0213,0.07182 -0.07182,0.04971 -0.06427,-0.214734 -0.08377,-0.443141 -0.121164,-0.664875 -0.261847,-1.55275 -1.625328,-2.633519 -2.781652,-3.729752 -0.27352,-0.259307 -0.473781,-0.565912 -0.602764,-0.895428 0.09618,0.773455 0.311934,1.566341 0.659122,2.269221 0.890049,1.801895 2.609074,3.256421 2.918276,5.304167 0.149927,-1.962536 1.351861,-3.421462 1.351861,-5.510992 z M 48.392448,16.255272 C 47.845503,15.648868 47.232491,15.17648 46.50272,14.98961 c 1.417116,0.974437 1.340173,2.715953 1.774047,4.172073 0.158645,0.532426 0.391807,1.031244 0.515757,1.581516 l -0.03586,0.02867 c -0.235767,-0.62209 -0.640288,-1.220077 -1.167328,-1.71733 -0.996748,-0.940416 -2.495281,-1.509609 -2.988476,-2.885199 0.02256,1.91157 1.651966,3.364666 3.140201,4.488825 0.66749,0.504198 1.234741,1.181171 1.580886,1.890809 -0.05784,-0.528184 -0.08411,-0.967547 -0.03694,-1.483093 0.152759,-1.669844 0.251821,-3.541833 -0.892552,-4.810612 z m -5.75188,-3.213816 c 1.051737,0.922843 1.753499,2.110668 2.561435,3.178491 0.671973,0.888126 1.594009,1.43842 2.38697,2.183652 -0.42803,-0.888058 -0.50706,-1.905635 -1.050659,-2.764754 -0.92954,-1.469074 -2.465798,-2.039297 -3.897746,-2.597389 z"
       fill="#ffffff"
       id="path1558"
       style="opacity:1;fill-opacity:1;stroke-width:0.0865877" />
    <path
       d="m 44.843985,32.149329 -0.310642,-0.169496 c -0.658612,1.358215 -1.530697,2.594254 -2.573905,3.663352 l -1.814792,-1.814791 c 0.889083,-0.916184 1.605942,-1.956103 2.13404,-3.080011 l -0.309222,-0.169028 c -0.522054,1.11447 -1.224436,2.128499 -2.071524,3.002169 L 38.253987,31.93757 c 0.705733,-0.733675 1.265738,-1.570787 1.66993,-2.475456 l -0.306798,-0.167408 c -0.395827,0.891593 -0.941901,1.7024 -1.609145,2.397353 l -1.816783,-1.816783 c 0.505248,-0.535423 0.895316,-1.151443 1.160794,-1.818082 l -0.306866,-0.167408 c -0.253668,0.65004 -0.628644,1.240195 -1.098365,1.740759 l -1.648976,-1.648716 c 0.469747,-0.52422 0.742177,-1.181922 0.780726,-1.884582 h 2.334058 c -0.01985,0.630671 -0.149043,1.233962 -0.367409,1.792625 l 0.306867,0.167409 c 0.245641,-0.617639 0.384354,-1.278294 0.4042,-1.960086 h 2.572953 c -0.02315,1.135944 -0.276422,2.216126 -0.71214,3.197597 l 0.306797,0.167409 c 0.467851,-1.047798 0.726384,-2.186426 0.749269,-3.365144 h 2.329642 c -0.0245,1.599708 -0.393532,3.116551 -1.033424,4.482298 l 0.309222,0.169028 c 0.676432,-1.439434 1.044074,-3.017148 1.068319,-4.651317 h 2.57278 c -0.02565,2.105726 -0.521717,4.099494 -1.386442,5.882767 l 0.310781,0.169426 c 0.930211,-1.915925 1.424021,-4.031696 1.424021,-6.224183 0,-1.864492 -0.357218,-3.673309 -1.035935,-5.351379 l -0.318808,0.137025 c 0.639243,1.583516 0.985715,3.286436 1.007015,5.042348 h -2.573126 c -0.02086,-1.400816 -0.29613,-2.759203 -0.799689,-4.025462 l -0.316444,0.135614 c 0.48574,1.224177 0.751633,2.5365 0.772155,3.889865 h -2.329902 c -0.01985,-1.031605 -0.221067,-2.032559 -0.584155,-2.969092 l -0.316444,0.135952 c 0.345338,0.893758 0.536844,1.848907 0.556958,2.833149 H 37.75641 c -0.01823,-0.628982 -0.137362,-1.240628 -0.348645,-1.816783 l -0.316383,0.135744 c 0.194069,0.533666 0.303152,1.09923 0.321379,1.681013 h -2.334058 c -0.03854,-0.702763 -0.310979,-1.360379 -0.780726,-1.884581 l 1.650621,-1.650361 c 0.509707,0.542108 0.89523,1.171618 1.142871,1.854015 L 37.407852,23.9364 c -0.265011,-0.721795 -0.675151,-1.387741 -1.216384,-1.961385 l 1.819467,-1.819294 c 0.776406,0.808132 1.369038,1.746387 1.7618,2.764226 l 0.316443,-0.135952 C 39.679107,21.72676 39.061815,20.751956 38.254125,19.912574 l 1.647418,-1.647677 c 1.020262,1.052214 1.804141,2.273187 2.329468,3.598412 l 0.316444,-0.135614 C 42.004671,20.3629 41.196254,19.105387 40.144733,18.022088 l 1.819207,-1.819554 c 1.286607,1.318038 2.279075,2.847437 2.949263,4.508275 l 0.318808,-0.137025 c -0.708158,-1.752448 -1.766822,-3.362027 -3.143653,-4.738771 -1.381853,-1.382026 -2.998532,-2.443072 -4.7586,-3.151359 l -0.126764,0.32273 c 1.664475,0.670431 3.19725,1.664042 4.517713,2.953073 l -1.819208,1.819467 c -1.065028,-1.032125 -2.298903,-1.832196 -3.638415,-2.374235 l -0.125552,0.319959 c 1.295266,0.525501 2.489223,1.299335 3.520916,2.300116 l -1.647331,1.647417 C 37.210276,18.901784 36.28681,18.303489 35.285769,17.89393 l -0.12576,0.319959 c 0.957833,0.392519 1.841201,0.965019 2.608021,1.701534 l -1.819207,1.819208 C 35.43709,21.252259 34.85193,20.873715 34.219667,20.609683 l -0.125821,0.320228 c 0.589221,0.246922 1.134126,0.599212 1.61183,1.04797 l -1.650361,1.650362 c -0.524557,-0.469816 -1.182009,-0.742187 -1.884928,-0.780528 v -2.333971 c 0.670761,0.02066 1.320203,0.163149 1.923459,0.416219 l 0.125821,-0.320228 c -0.642818,-0.268586 -1.335009,-0.41898 -2.049271,-0.439978 v -2.57304 c 1.041823,0.02093 2.051262,0.232679 2.9897,0.617241 l 0.12576,-0.319959 c -0.977922,-0.400148 -2.030135,-0.620003 -3.115512,-0.640931 v -2.33094 c 1.381593,0.02106 2.721191,0.296606 3.967102,0.801715 l 0.125552,-0.319959 C 34.97743,14.883111 33.595837,14.599467 32.170258,14.57834 v -2.5733 c 1.752534,0.0212 3.452337,0.366604 5.032909,1.003032 l 0.126764,-0.32273 C 35.657577,12.012011 33.855514,11.6572 31.998554,11.6572 c -2.294141,0 -4.461777,0.547373 -6.384024,1.513293 l 0.156811,0.300113 c 1.860076,-0.93203 3.918006,-1.43978 6.055337,-1.465583 v 2.573386 c -1.743097,0.02592 -3.390168,0.448888 -4.859042,1.178285 l 0.156265,0.299299 c 1.44714,-0.7164 3.044596,-1.108842 4.702751,-1.134125 v 2.329988 c -1.296132,0.02552 -2.52256,0.337242 -3.620232,0.872977 l 0.157209,0.30065 c 1.068579,-0.518686 2.243574,-0.805361 3.463075,-0.829934 v 2.573299 c -0.808669,0.0239 -1.575637,0.215465 -2.268165,0.54042 l 0.158023,0.301801 c 0.655105,-0.304503 1.369817,-0.475687 2.110142,-0.498572 v 2.334318 c -0.362076,0.02012 -0.707422,0.102736 -1.025718,0.236999 l 0.157754,0.301663 c 0.325561,-0.133319 0.677315,-0.203516 1.039831,-0.203516 0.733138,0 1.42229,0.285462 1.940777,0.803811 0.518418,0.518418 0.80388,1.207812 0.80388,1.941036 0,1.51338 -1.231017,2.745003 -2.744657,2.745003 -0.733337,0 -1.422635,-0.285601 -1.941036,-0.804018 -0.518409,-0.518687 -0.803949,-1.207812 -0.803949,-1.941037 0,-0.733207 0.285531,-1.422635 0.803949,-1.941036 0.26224,-0.26211 0.568093,-0.463937 0.901118,-0.600295 l -0.157754,-0.301663 c -0.316313,0.133588 -0.605759,0.318201 -0.858084,0.544204 l -1.651314,-1.651314 c 0.426609,-0.400893 0.907006,-0.725034 1.424887,-0.965713 l -0.158022,-0.301801 c -0.556958,0.261434 -1.065635,0.608867 -1.508358,1.026237 l -1.821112,-1.821199 c 0.638636,-0.613456 1.358907,-1.111959 2.134646,-1.488788 l -0.157208,-0.30065 c -0.819267,0.399749 -1.567151,0.923717 -2.217598,1.549054 l -1.650361,-1.650189 c 0.832974,-0.8082 1.77297,-1.466708 2.785353,-1.967705 l -0.156265,-0.299299 c -1.059747,0.526384 -2.027624,1.211449 -2.86865,2.027624 l -1.823017,-1.823104 c 1.045113,-1.020262 2.224351,-1.853496 3.495371,-2.490521 l -0.15681,-0.300113 c -2.778339,1.396226 -5.040269,3.671577 -6.41762,6.460913 l 0.298962,0.16133 c 0.642342,-1.306435 1.491906,-2.51771 2.537019,-3.588626 l 1.82319,1.82319 c -0.848091,0.873756 -1.556673,1.883196 -2.090313,2.992124 l 0.297818,0.160794 c 0.508287,-1.061825 1.189802,-2.045288 2.031694,-2.913503 l 1.650448,1.650275 c -0.665227,0.692026 -1.215605,1.49433 -1.623606,2.37562 l 0.298494,0.161061 c 0.384285,-0.837761 0.90943,-1.613561 1.565419,-2.296392 l 1.821112,1.821199 c -0.465495,0.493844 -0.844646,1.069791 -1.113777,1.70344 l 0.300918,0.16275 c 0.247329,-0.594355 0.601845,-1.143997 1.054032,-1.624991 l 1.651314,1.651141 c -0.453339,0.506737 -0.741165,1.161833 -0.781125,1.883801 h -2.334578 c 0.02072,-0.665634 0.161062,-1.310591 0.410339,-1.910038 l -0.300918,-0.16275 c -0.271894,0.640117 -0.431336,1.339425 -0.453139,2.072736 h -2.572953 c 0.02315,-1.157937 0.28283,-2.276044 0.753252,-3.301069 l -0.298494,-0.161062 c -0.489593,1.057063 -0.774111,2.228075 -0.798139,3.462209 h -2.330335 c 0.02444,-1.609145 0.393602,-3.161489 1.070051,-4.574601 l -0.297818,-0.160793 c -0.692165,1.437356 -1.090226,3.041739 -1.11551,4.735394 h -2.573472 c 0.02531,-2.10157 0.516391,-4.126596 1.418912,-5.961995 l -0.298961,-0.16133 c -0.938178,1.900253 -1.467835,4.036631 -1.467835,6.295271 0,1.381593 0.197308,2.731928 0.574233,4.021825 l 0.337034,-0.08478 c -0.354387,-1.208764 -0.54778,-2.472339 -0.563366,-3.765006 h 2.57304 c 0.01586,1.077843 0.181921,2.131009 0.486753,3.136466 l 0.333657,-0.08411 c -0.298425,-0.978181 -0.46063,-2.003293 -0.476761,-3.052389 h 2.329902 c 0.01681,0.854507 0.157754,1.688286 0.41149,2.481776 l 0.334203,-0.08431 c -0.247399,-0.766006 -0.38503,-1.571739 -0.401767,-2.39744 h 2.572953 c 0.01796,0.611093 0.130955,1.205734 0.331094,1.767428 l 0.334402,-0.08444 c -0.193931,-0.534142 -0.303689,-1.100616 -0.321847,-1.682919 h 2.334318 c 0.03854,0.702694 0.31078,1.36038 0.780519,1.884581 L 28.048147,29.6338 c -0.509162,-0.5419 -0.894624,-1.170579 -1.142611,-1.852197 l -0.334402,0.08444 c 0.264136,0.740628 0.680415,1.424108 1.233874,2.01074 l -1.819207,1.81938 C 25.100875,30.774871 24.453199,29.683 24.069615,28.496749 l -0.334202,0.08431 c 0.398329,1.24565 1.077497,2.391552 2.008055,3.358736 l -1.647677,1.647764 C 22.863648,32.316971 21.9737,30.801254 21.470885,29.151498 l -0.333657,0.08411 c 0.518141,1.708981 1.438828,3.279682 2.71539,4.594949 l -1.819294,1.819381 C 20.423139,34.000094 19.273082,32.01992 18.640818,29.864233 l -0.337033,0.08478 c 0.663201,2.26955 1.886745,4.349906 3.605338,6.068152 1.163825,1.164085 2.494072,2.10105 3.93619,2.791501 l 0.170776,-0.302884 C 24.651208,37.855337 23.388673,36.97881 22.276454,35.892827 l 1.819207,-1.819121 c 0.945538,0.917743 2.023728,1.649582 3.189544,2.182703 l 0.169764,-0.301126 c -1.139234,-0.516998 -2.192833,-1.229719 -3.115945,-2.124602 l 1.647504,-1.647591 c 0.772155,0.742853 1.658761,1.325225 2.618845,1.733139 l 0.169634,-0.300589 c -0.932549,-0.391376 -1.794963,-0.954196 -2.544812,-1.674606 l 1.819467,-1.81938 c 0.584631,0.551555 1.265219,0.966924 2.003033,1.23119 l 0.171928,-0.304503 C 29.512483,30.801757 28.855672,30.40741 28.292852,29.878628 L 29.9433,28.228007 c 0.524219,0.470154 1.181576,0.742316 1.884581,0.780865 v 2.334317 c -0.55365,-0.01714 -1.092736,-0.118261 -1.603258,-0.294709 l -0.171928,0.304503 c 0.56398,0.202303 1.160968,0.315776 1.775221,0.333864 v 2.57278 c -1.064682,-0.02126 -2.096288,-0.241726 -3.05213,-0.642688 l -0.169634,0.300589 c 1.007968,0.428436 2.096721,0.664284 3.221755,0.686017 v 2.329988 c -1.533121,-0.02362 -3.013771,-0.360594 -4.372159,-0.976969 l -0.169763,0.301126 c 1.41008,0.644308 2.94883,0.995845 4.541957,1.019657 v 2.572693 c -2.043643,-0.02457 -4.015937,-0.487835 -5.810987,-1.342975 l -0.170777,0.302884 c 1.89705,0.908045 3.988229,1.388087 6.153701,1.388087 2.271541,0 4.460132,-0.530765 6.429915,-1.527407 L 38.267113,38.35513 c -1.836958,0.930298 -3.904931,1.468008 -6.095513,1.494936 v -2.57278 c 1.736862,-0.02565 3.408784,-0.442004 4.919393,-1.201837 l -0.160586,-0.311317 c -1.435884,0.723146 -3.049791,1.142611 -4.758773,1.169193 v -2.329988 c 1.303145,-0.02511 2.557368,-0.337778 3.693571,-0.904495 l -0.159641,-0.309837 c -1.068925,0.53313 -2.266433,0.844585 -3.533904,0.870467 v -2.57278 c 0.829935,-0.0243 1.628888,-0.224037 2.356051,-0.579973 l -0.158559,-0.30801 c -0.66786,0.325968 -1.411466,0.519292 -2.197596,0.544134 v -2.333971 c 0.702893,-0.03854 1.36038,-0.310711 1.884928,-0.780865 l 1.648716,1.648889 c -0.394753,0.370518 -0.844784,0.681974 -1.336048,0.921899 l 0.158559,0.30801 c 0.515102,-0.252256 0.99472,-0.5818 1.42229,-0.985108 l 1.816436,1.816523 c -0.606434,0.582605 -1.301326,1.072215 -2.06096,1.450863 l 0.159642,0.309837 c 0.779107,-0.388406 1.503335,-0.89523 2.147288,-1.514592 l 1.643954,1.643781 c -0.800841,0.776674 -1.720065,1.430255 -2.725954,1.936187 l 0.160586,0.311318 c 1.021475,-0.513621 1.969696,-1.182788 2.812022,-2.000695 l 1.814791,1.814791 c -1.01247,0.988225 -2.176555,1.82042 -3.450606,2.465411 l 0.162681,0.3155 c 1.335095,-0.675557 2.571048,-1.563081 3.660061,-2.652181 1.144863,-1.144603 2.068667,-2.450865 2.755654,-3.865708 z"
       id="path1366"
       style="opacity:1;fill:#ffffff;fill-opacity:1;stroke-width:0.0865877" />
    <path
       d="m 32.819976,22.725229 -0.0047,-0.102582 -0.08615,0.0034 0.0041,0.10327 z"
       id="path1368"
       style="opacity:1;fill:#ffffff;fill-opacity:1;stroke-width:0.0683396" />
    <path
       d="m 32.602748,22.485277 h 0.11498 v 0.08764 h -0.11498 z"
       id="path1370"
       style="opacity:1;fill:#ffffff;fill-opacity:1;stroke-width:0.0865877" />
    <path
       d="m 32.407532,22.368602 -0.01221,0.08606 0.101076,0.01515 0.01221,-0.08675 z"
       id="path1372"
       style="opacity:1;fill:#ffffff;fill-opacity:1;stroke-width:0.0683396" />
    <path
       d="m 32.310119,22.425248 -0.10047,-0.01452 0.01219,-0.08691 0.100471,0.01452 z"
       id="path1374"
       style="opacity:1;fill:#ffffff;fill-opacity:1;stroke-width:0.0865873" />
    <path
       d="m 31.480575,22.309504 h 0.11498 v 0.08771 h -0.11498 z"
       id="path1376"
       style="opacity:1;fill:#ffffff;fill-opacity:1;stroke-width:0.0865877" />
    <path
       d="m 31.242105,22.397518 -0.01221,0.08675 0.100398,0.01446 0.01221,-0.08675 z"
       id="path1378"
       style="opacity:1;fill:#ffffff;fill-opacity:1;stroke-width:0.0683396" />
    <path
       d="m 31.240221,22.616583 -0.115348,-0.02931 0.02098,-0.08502 0.115348,0.02932 z"
       id="path1380"
       style="opacity:1;fill:#ffffff;fill-opacity:1;stroke-width:0.0865864" />
    <path
       d="m 31.034148,22.724503 -0.01431,-0.08769 0.08527,-0.01433 0.01431,0.08769 z"
       id="path1382"
       style="opacity:1;fill:#ffffff;fill-opacity:1;stroke-width:0.0865876" />
    <path
       d="m 19.806946,31.658782 -0.115321,-0.04406 v -0.07298 h -0.07191 v 0.145955 h 0.115322 v 0.190017 h 0.08683 z"
       id="path1384"
       style="opacity:1;fill:#ffffff;fill-opacity:1;stroke-width:0.0683396" />
    <path
       d="m 20.771578,32.914546 -0.158059,-0.145955 -0.115321,-0.160413 -0.05766,-0.131497 -0.101076,-0.262995 0.215719,0.101893 0.07259,0.204475 0.100398,0.07367 0.101076,0.218933 z"
       id="path1386"
       style="opacity:1;fill:#ffffff;fill-opacity:1;stroke-width:0.0683396" />
    <path
       d="m 23.894759,36.873922 -0.143813,-0.04406 -0.01424,-0.131497 -0.115322,-0.175559 0.172983,0.0296 0.186549,0.160413 0.07259,0.190017 -0.101076,0.05852 z"
       id="path1388"
       style="opacity:1;fill:#ffffff;fill-opacity:1;stroke-width:0.0683396" />
    <path
       d="m 31.552441,23.565891 h -0.158265 l -0.02883,-0.32131 0.08636,-0.05866 v -0.16062 h -0.503819 l -0.01438,-0.160551 0.07218,-0.04386 -0.115317,-0.04385 -0.08642,0.116763 -0.02856,0.131501 -0.144012,0.02933 v 0.07291 h -0.100667 v 0.189879 L 30.127559,23.6534 29.3216,23.62435 c -0.05779,0.131363 -0.20181,-0.0148 -0.20181,-0.0148 -0.02856,-0.08757 -0.229959,0 -0.229959,0 0,0.160898 -0.273513,-0.07291 -0.273513,-0.07291 l -0.503901,-0.36531 c -0.287826,-0.262924 -0.719604,0.07318 -0.733917,0.146091 0.01431,0.204546 -0.331042,0.04386 -0.331042,0.04386 0,0 -0.287826,-0.08757 -0.331111,0.02933 -0.04308,0.116764 -0.230505,0.08771 -0.230505,0.08771 l -0.02883,0.05838 -0.144012,0.02919 -0.02856,0.08757 -0.172846,0.02933 0.431709,-0.01467 c 0.115257,-0.01459 -0.04328,0.248403 -0.115049,0.233804 l -0.201334,0.01459 -0.07218,0.07291 h -0.18709 l -0.08629,0.11711 -0.273314,-0.01466 c 0,0 -0.158533,0.131432 -0.143943,0.175219 0.01438,0.04386 -0.02883,0.175357 -0.07211,0.175357 -0.04321,0 -0.12957,0.131432 -0.100737,0.175219 0.02897,0.04386 -0.08629,0.189948 -0.08629,0.189948 l -0.02869,0.146229 -0.08629,0.02905 v 0.394493 l -0.172847,0.116902 v 0.175219 l -0.259269,0.277592 0.02896,0.233596 -0.215785,0.233804 0.02856,0.233735 -0.1295,0.04386 -0.02863,0.102234 -0.05752,0.306641 0.143883,0.0148 c 0.07177,-0.02933 0.05753,0.189878 0,0.218928 -0.0578,0.02933 -0.216123,0.08764 -0.12957,0.146021 0.08642,0.05866 -0.230375,0.04392 -0.230375,-0.04379 0,-0.08744 -0.172777,-0.16062 -0.215785,-0.131293 -0.04328,0.02905 -0.115318,-0.131501 -0.115318,-0.131501 -0.158265,-0.16062 -0.647693,0.01453 -0.647693,0.01453 l -0.07218,0.233735 c -0.158126,0.02933 -0.258862,0.292251 -0.258862,0.292251 -0.12957,0.04386 -0.230306,0.204407 -0.18709,0.248264 0.04307,0.04386 -0.07218,0.05838 -0.07218,0.05838 v 0.321517 l -0.07184,0.102234 0.01424,0.350498 c 0.08649,0 0.07218,0.160828 0.07218,0.160828 -0.144013,0.01453 -0.115387,0.204546 -0.115387,0.204546 l -0.302139,0.102174 -0.05752,0.08757 -0.37418,-0.01466 -0.100736,0.102373 -0.101004,-0.102373 h -0.719665 l -0.02856,-0.07298 -0.144013,-0.0294 -0.01452,-0.160551 -0.215786,0.01453 -0.04314,0.08764 -0.230436,0.01453 c 0.01438,0.14616 -0.230306,0.365374 -0.258862,0.307057 -0.02917,-0.05852 -0.187359,-0.219413 -0.115257,-0.248333 0.07204,-0.0294 0.259269,-0.05873 0.259269,-0.05873 v -0.102165 l -0.532782,-0.01453 -0.05739,0.08771 -0.216192,0.01446 v 0.233804 l -0.100597,0.02926 c -0.07211,0.04365 0.01425,0.204546 0.01425,0.204546 0.100736,0.102104 -0.01425,0.262716 -0.01425,0.262716 -0.08649,0.08771 0.07177,0.248611 0.07177,0.248611 0.115318,0.02898 -0.07177,0.116694 -0.07177,0.116694 0.02856,0.146021 0.115049,0.189878 0.115049,0.189878 -0.08649,0.146021 0.0578,0.218937 0.0578,0.218937 l 0.01424,0.248602 0.100737,0.05852 v 0.160343 l 0.05753,0.102373 h 0.230306 l -0.01438,-0.365166 c -0.20161,-0.233805 0.172578,-0.292251 0.187229,-0.204754 0.01452,0.08771 0.172777,0.13157 0.172777,0.13157 0.02883,0.219205 0.273583,0.350498 0.345355,0.13163 0.07204,-0.219413 0.12957,-0.08771 0.172777,0.01439 0.04321,0.102373 0.316383,0.350776 0.316383,0.350776 h 0.216054 l 0.02896,0.204546 c 0.244619,-0.01467 0.316391,0.01487 0.417127,0.350498 0.101005,0.335839 0.374319,0.423544 0.374319,0.423544 l 0.201611,-0.01459 c 0,-0.175011 0.201541,0.02953 0.201541,0.117248 0,0.0873 0.388562,0.423336 0.388562,0.423336 l 0.388493,0.08751 0.360275,0.292528 0.273244,-0.02926 h 0.115318 c 0.07177,-0.248602 0.417396,0.01439 0.445952,0.102104 0.02903,0.08771 0.25927,0.233804 0.287827,0.16062 0.02896,-0.07291 0.187228,-0.02898 0.216122,0.189878 0.0287,0.219413 0.129293,0.175488 0.129293,0.175488 l 0.820609,-0.0146 0.287826,-0.24861 0.734186,-0.01439 c 0.37418,-0.0146 0.143883,-0.525986 0.07211,-0.525986 -0.12957,-0.102104 0.04301,-0.525786 0.04301,-0.525786 l -1.05073,-0.978682 c -0.244619,0 -0.02883,-0.350775 -0.02883,-0.350775 0.18709,-0.116972 -0.04328,-0.306573 -0.04328,-0.306573 0.02897,-0.175556 -0.100736,-0.380033 -0.100736,-0.380033 -0.258862,-0.175288 -0.18709,-0.511396 -0.18709,-0.511396 v -0.233804 c -0.215785,-0.204269 0.08642,-0.233804 0.08642,-0.233804 0.100598,-0.174942 -0.07211,-0.306503 -0.07211,-0.306503 l -0.01431,-0.189947 -0.230375,-0.02933 -0.02856,-0.686606 -0.518132,-0.744853 c -0.101005,-0.02947 -0.02897,-0.204547 -0.02897,-0.204547 0.12957,-0.07312 -0.02897,-0.248195 -0.02897,-0.248195 l -0.01431,-0.321448 0.302139,-0.0294 0.07211,-0.116694 h 0.143883 l -0.01431,-0.379895 c 0.07184,-0.189878 0.244549,-0.08771 0.244549,-0.08771 l 0.201542,0.01466 0.115257,-0.219136 0.02856,-0.175357 -0.158127,-0.01446 c -0.172777,-0.102373 -0.08642,-0.482068 -0.08642,-0.482068 0.273513,-0.409162 0.589965,-0.175418 0.589965,-0.175418 l 0.201741,-0.01446 c 0.302139,0.204408 0.02856,0.584233 0.02856,0.584233 -0.05752,0.08771 -0.02856,0.365236 -0.02856,0.365236 l 0.07184,0.467262 -0.18709,0.160897 c -0.158265,0.08771 -0.158265,0.292112 0.01452,0.335969 0.115049,0.01446 0.07184,0.292121 -0.100944,0.102173 -0.258863,0 0.14422,0.233735 0.02897,0.175081 0.2592,0.13157 0.201334,-0.116764 0.201334,-0.116764 l 0.345762,-0.277591 c 0.12957,-0.102174 0.359936,0.219274 0.359936,0.263131 0,0.04379 0.575652,0.01446 0.575652,0.01446 0.158265,0.102234 0.215786,0.365304 0.215786,0.365304 0.158533,-0.204684 0.489437,-0.0148 0.244818,0.102174 0.230098,0.146091 0.230098,0.277522 0.230098,0.277522 0.187358,-0.05838 0.187358,0.08764 0.187358,0.131501 0,0.04386 0.05752,-0.219067 0.05752,-0.219067 -0.215924,-0.160759 0.287826,-0.219136 0.144012,0.07305 l -0.08649,0.13157 0.144012,0.116764 0.01425,0.336107 c 0.316789,-0.02933 0.230375,-0.423821 0.230375,-0.423821 l 0.143943,-0.02905 c 0,-0.13157 0.100598,-0.05852 0.100598,-0.05852 -0.100598,-0.496797 0.230436,-0.584233 0.230436,-0.584233 0.18709,-0.04386 0.201403,-0.438489 0.201403,-0.438489 -0.129293,-0.05838 -0.05759,-0.262785 0.08642,-0.08737 0.143813,0.175011 -0.08642,-0.350844 -0.08642,-0.350844 l -0.115049,-0.102174 -0.158265,-0.01459 -0.01452,-0.160689 h -0.258862 l -0.04328,0.204615 -0.100736,0.02919 -0.02897,-0.05852 -0.04307,0.160689 h -0.259001 l -0.01431,-0.175288 0.158265,-0.04379 0.05759,-0.08764 0.04307,-0.233804 h 0.187229 l 0.244619,-0.07291 c 0.01424,-0.248403 0.143943,-0.189878 0.143943,-0.189878 l 0.08629,0.07298 0.12957,0.102234 0.01445,0.08751 -0.08649,0.04379 -0.01424,0.11704 0.04321,0.160621 h 0.11505 c 0.04314,-0.233735 0.345623,-0.233735 0.431908,-0.08764 l 0.08642,-0.204477 c -0.201472,-0.102234 -0.0037,-0.263062 0.05379,-0.189948 0.05753,0.07312 0.190822,-0.189878 0.190822,-0.189878 0,0 0.100736,0.131501 0,-0.04386 -0.100736,-0.175356 0.07184,-0.262923 0.07184,-0.262923 -0.02863,-0.175219 0.187228,-0.146091 0.187228,-0.146091 l 0.01452,-0.233596 -0.20174,-0.0148 c -0.04287,0.204546 -0.215716,0.02933 -0.129362,-0.01446 0.08649,-0.04392 0.172578,-0.13157 0.172578,-0.13157 v -0.146091 l 0.08642,-0.02919 0.01431,-0.146091 h 0.216053 l 0.18709,-0.08757 0.04328,-0.07312 0.201334,-0.01453 0.287826,-0.263062 -0.02856,-0.116763 c -0.172777,0 0,-0.131501 0,-0.131501 l 0.02842,-0.21866 z"
       id="path1390"
       style="opacity:1;fill:#ffffff;fill-opacity:1;stroke-width:0.0865877" />
    <path
       d="m 25.751932,26.45792 -0.259131,-0.02919 0.01452,0.102174 h 0.07184 c 0.115049,0.204615 0.01445,0.701204 0.01445,0.701204 0,0 -0.172578,0.01446 -0.201542,-0.07298 -0.02856,-0.08764 -0.100736,0.189947 -0.04321,0.233804 0.05752,0.04358 0.259201,0 0.273514,0.160758 0.01424,0.160551 0.12957,-0.102372 0.12957,-0.102372 v -0.993421 z"
       id="path1392"
       style="opacity:1;fill:#ffffff;fill-opacity:1;stroke-width:0.0865877" />
    <path
       d="m 25.492303,27.992004 0.230644,0.306368 0.08615,-0.204475 0.02917,-0.131497 -0.101076,-0.04337 0.01425,-0.218933 0.08683,-0.01515 0.01425,-0.102582 -0.216398,0.146644 -0.143813,-0.08744 z"
       id="path1394"
       style="opacity:1;fill:#ffffff;fill-opacity:1;stroke-width:0.0683396" />
    <path
       d="m 25.751438,28.605429 0.115321,0.01446 v -0.145955 l -0.100397,0.01446 z"
       id="path1396"
       style="opacity:1;fill:#ffffff;fill-opacity:1;stroke-width:0.0683396" />
    <path
       d="m 25.615087,29.335893 0.122105,-0.01446 v -0.102582 l -0.122105,0.01446 z"
       id="path1398"
       style="opacity:1;fill:#ffffff;fill-opacity:1;stroke-width:0.0683396" />
    <path
       d="m 25.906924,28.871985 c 0.03372,0 0.06085,-0.02761 0.06085,-0.06176 0,-0.03442 -0.02713,-0.0621 -0.06085,-0.0621 -0.03372,0 -0.06105,0.02761 -0.06105,0.0621 0,0.03415 0.02734,0.06176 0.06105,0.06176 z"
       id="path1400"
       style="opacity:1;fill:#ffffff;fill-opacity:1;stroke-width:0.0865877" />
    <ellipse
       cx="26.007179"
       cy="29.116961"
       id="circle1402"
       style="opacity:1;fill:#ffffff;fill-opacity:1;stroke-width:0.0683396"
       rx="0.061052632"
       ry="0.061962064" />
    <ellipse
       cx="26.010572"
       cy="27.448116"
       id="circle1404"
       style="opacity:1;fill:#ffffff;fill-opacity:1;stroke-width:0.0683396"
       rx="0.061052632"
       ry="0.061962064" />
    <path
       d="M 30.645824,25.347601 30.6309,25.46464 h 0.08683 l 0.01425,0.08744 -0.05766,0.05852 -0.02849,0.07298 -0.115322,0.0296 -0.259134,0.248537 -0.01425,0.116351 -0.07191,0.102581 -0.08615,0.218933 -0.30255,0.01446 -0.05766,0.262994 0.04274,0.218933 0.259134,0.102582 0.02917,-0.145955 0.08615,-0.04406 0.01492,-0.145955 0.05698,-0.102582 0.08683,-0.101893 0.02849,-0.11704 0.143813,-0.08744 0.172983,-0.0296 0.07191,-0.08743 0.02917,-0.174871 0.01018,-0.131497 0.06173,-0.08812 0.172304,-0.07298 v -0.277452 h -0.08615 l -0.01425,-0.102582 -0.158736,-0.01446 -0.02849,0.07298 z"
       id="path1406"
       style="opacity:1;fill:#ffffff;fill-opacity:1;stroke-width:0.0683396" />
    <path
       d="m 31.307398,26.283013 v -0.204546 l -0.02897,-0.189948 -0.215655,-0.102165 -0.158265,0.146091 -0.02897,0.204546 v 0.131362 l -0.143883,0.02933 -0.02896,0.394355 -0.11498,0.04393 0.01438,0.14609 -0.158265,0.04379 -0.158265,0.04386 -0.02883,0.189878 -0.11498,0.07298 -0.05793,0.175348 -0.07184,0.423613 c 0,0 0.1297,0.248334 0.201542,0.131432 0.07204,-0.116764 0.18709,-0.131432 0.18709,-0.131432 l 0.04321,-0.102303 0.388632,0.01459 c 0.02883,-0.160828 0.215924,-0.102165 0.215924,-0.02919 0,0.07305 0.144012,0.01453 0.144012,0.01453 l 0.100667,-0.160621 h 0.158196 l 0.01438,-0.175218 0.07211,-0.04386 v -0.263062 c 0.230375,-0.07298 0.201333,-0.292112 0.201333,-0.292112 l 0.05793,-0.07291 -0.0289,-0.102165 c -0.115318,-0.04399 -0.05786,-0.146368 0.01425,-0.11711 0.07218,0.02919 -0.100736,-0.1315 -0.100736,-0.1315 -0.08629,0.07319 -0.158126,-0.08758 -0.158126,-0.08758 h -0.216123 z"
       id="path1408"
       style="opacity:1;fill:#ffffff;fill-opacity:1;stroke-width:0.0865877" />
    <path
       d="m 31.537721,28.050267 c -0.01431,0.175219 -0.230366,0.233735 -0.230366,0.233735 l -0.158265,-0.04379 -0.08629,-0.07305 -0.01445,-0.204615 0.129431,-0.01446 0.02883,0.08771 0.331112,0.01446 z"
       id="path1410"
       style="opacity:1;fill:#ffffff;fill-opacity:1;stroke-width:0.0865877" />
    <path
       d="m 32.315279,27.115986 c 0.03114,0.127371 0.02856,-0.204754 0.08615,-0.189947 0.05752,0.01453 0.01452,-0.204408 0.01452,-0.204408 l -0.259131,0.189601 c 0.1295,0.0148 0.143813,0.146368 0.158464,0.204754 z"
       id="path1412"
       style="opacity:1;fill:#ffffff;fill-opacity:1;stroke-width:0.0865877" />
    <path
       d="m 33.078116,26.355746 c 0.05752,0.13157 0.04328,0.321518 0.258863,0.467608 0.07292,0.04923 -0.04314,0.146091 -0.115257,0.102174 -0.07184,-0.04379 -0.273175,-0.365305 -0.273175,-0.365305 v -0.189878 c 0.04314,-0.116763 0.104598,-0.07119 0.129569,-0.01459 z"
       id="path1414"
       style="opacity:1;fill:#ffffff;fill-opacity:1;stroke-width:0.0865877" />
    <path
       d="m 33.121169,30.840194 0.04274,0.07298 0.101076,-0.160413 -0.08615,-0.0296 -0.100398,0.07367 z"
       id="path1416"
       style="opacity:1;fill:#ffffff;fill-opacity:1;stroke-width:0.0683396" />
    <path
       d="m 32.717912,30.563041 v 0.175775"
       id="path1418"
       style="opacity:1;fill:#ffffff;fill-opacity:1;stroke-width:0.0865877" />
    <path
       d="m 34.753988,30.277028 0.04545,0.07435 0.115322,-0.07298 -0.04613,-0.07367 z"
       id="path1420"
       style="opacity:1;fill:#ffffff;fill-opacity:1;stroke-width:0.0683396" />
    <path
       d="m 38.965214,33.397057 0.129699,0.05825 0.01425,0.248334 c 0.172846,0.175288 0.734185,0.02926 0.734185,-0.0146 0,-0.04392 -0.02896,-0.540445 -0.02896,-0.540445 l -0.07211,-0.07312 -0.01425,-0.365435 c 0.05753,-0.189878 -0.273582,-0.467469 -0.302277,-0.408745 -0.02883,0.05824 -0.215924,0.01432 -0.215924,0.07291 0,0.05824 -0.11498,0.350498 -0.05753,0.452871 0.05753,0.102303 -0.04328,0.102303 -0.05752,0.204477 -0.01431,0.102234 -0.158395,0.277799 -0.12957,0.365504 z"
       id="path1422"
       style="opacity:1;fill:#ffffff;fill-opacity:1;stroke-width:0.0865877" />
    <path
       d="m 38.648303,32.81259 c -0.02727,0.110703 -0.129293,0.175288 -0.186822,0.131363 -0.05793,-0.04393 0.07157,0.07291 0.100598,0.13163 0.02869,0.05824 0.114979,0.05824 0.143943,0 0.02856,-0.0588 0.01431,-0.189878 0.04328,-0.248333 0.02856,-0.05852 -0.08649,-0.07312 -0.101004,-0.01467 z"
       id="path1424"
       style="opacity:1;fill:#ffffff;fill-opacity:1;stroke-width:0.0865877" />
    <path
       d="m 37.978981,30.132702 h 0.100597 v 0.277661 h -0.100597 z"
       id="path1426"
       style="opacity:1;fill:#ffffff;fill-opacity:1;stroke-width:0.0865877" />
    <path
       d="m 39.469154,27.320333 c -0.06282,-0.0851 0.287826,-0.233735 0.345355,-0.05838 0.05752,0.17508 0,0.14609 -0.05752,0.1315 -0.05773,-0.01473 -0.201403,0.04365 -0.287826,-0.07311 z"
       id="path1428"
       style="opacity:1;fill:#ffffff;fill-opacity:1;stroke-width:0.0865877" />
    <path
       d="m 39.937356,25.392351 -0.158736,-0.02892 -0.01492,0.08606 0.158058,0.02892 z"
       id="path1430"
       style="opacity:1;fill:#ffffff;fill-opacity:1;stroke-width:0.0683396" />
    <path
       d="m 39.288163,25.663607 0.08683,-0.04888 0.01085,0.02685 0.08005,-0.03236 -0.02917,-0.07298 -0.01832,-0.04613 -0.04274,0.0241 -0.107181,0.06059 -0.09361,-0.05921 -0.04545,0.07367 0.115321,0.07298 0.02171,0.01377 z"
       id="path1432"
       style="opacity:1;fill:#ffffff;fill-opacity:1;stroke-width:0.0683396" />
    <path
       d="m 39.91508,22.060997 h -0.216053 c 0,0 0.07204,0.02919 -0.129293,-0.160759 -0.20181,-0.189878 -0.331111,0.04386 -0.331111,0.04386 l -0.230306,0.02919 v 0.233735 l -0.115318,0.04379 0.01458,0.14616 0.158265,-0.01453 c 0,0 0,0.175219 0.04321,0.102234 0.04328,-0.07312 0.403152,0.01446 0.374249,0.189878 -0.01174,0.07201 0.360006,0.262785 0.31679,0.49652 0.18709,0.02933 0.143943,0.219275 0.143943,0.219275 l 0.24455,0.02919 0.07211,-0.146091 0.07184,0.01467 v -0.08771 l -0.158534,-0.04379 -0.02856,-0.467539 -0.100736,-0.07305 0.02869,-0.116902 -0.115049,-0.04386 0.05759,-0.189878 -0.100874,-0.204408 z"
       id="path1434"
       style="opacity:1;fill:#ffffff;fill-opacity:1;stroke-width:0.0865877" />
    <path
       d="m 40.548037,23.551171 -0.11505,-0.01446 -0.259468,0.04379 -0.143606,0.277522 c 0,0 0.07184,0.04386 0.129293,0.146091 0.05753,0.102373 0.08642,0.701135 -0.08629,0.803517 -0.172578,0.102303 0.01452,0.04365 0.01452,0.04365 l -0.02897,0.321449 c 0.04328,0.14609 0.115049,0.07318 0.158265,0 0.04355,-0.07284 0.08676,-0.08751 0.144289,-0.160551 0.05752,-0.07318 0.143814,-0.204546 0.158265,-0.306919 0.01425,-0.102174 0.08629,-0.262785 0.04308,-0.306642 -0.04308,-0.04385 0.04328,-0.248264 0.04328,-0.248264 0,0 0.05752,-0.117041 0,-0.233804 -0.05753,-0.116971 0.01431,-0.248403 0.05752,-0.306919 l -0.115119,-0.05845 z"
       id="path1436"
       style="opacity:1;fill:#ffffff;fill-opacity:1;stroke-width:0.0865877" />
    <path
       d="m 40.722088,24.147142 0.01471,-0.116915 0.08586,0.01113 -0.01471,0.116915 z"
       id="path1438"
       style="opacity:1;fill:#ffffff;fill-opacity:1;stroke-width:0.0865872" />
    <path
       d="m 40.716834,24.55079 -0.07703,-0.03915 0.04323,-0.08759 0.07703,0.03915 z"
       id="path1440"
       style="opacity:1;fill:#ffffff;fill-opacity:1;stroke-width:0.0865845" />
    <path
       d="m 40.59133,23.390984 -0.0578,-0.13157 c 0,0 0,-0.116694 0.02883,-0.175358 0.02897,-0.05838 -0.05752,-0.116694 -0.100597,-0.131362 -0.04321,-0.01466 -0.0287,-0.131431 -0.04321,-0.189947 -0.01431,-0.05838 -0.11498,-0.102174 -0.11498,-0.102174 0,0 -0.02903,-0.219136 -0.02903,-0.262923 0,-0.04385 -0.1295,-0.102234 -0.08629,-0.14616 0.04328,-0.04379 0.07211,-0.102165 0.115318,-0.131501 0.04321,-0.02919 -0.04328,-0.233735 0.02856,-0.189947 0.07211,0.04392 0.07211,0.116902 0.100944,0.175357 0.02869,0.05838 -0.01452,0.262993 0.05759,0.30685 0.07177,0.04372 -0.01458,0.189739 0.100667,0.189739 0.115049,0 0.04328,0.277661 0.04328,0.277661 0,0 -0.02897,0.204407 0.04287,0.219136 0.07211,0.01459 0.02897,0.365166 0.02897,0.365166 l -0.115118,-0.07298 z"
       id="path1442"
       style="opacity:1;fill:#ffffff;fill-opacity:1;stroke-width:0.0865877" />
    <path
       d="m 39.656183,21.023676 c 0.04301,0.05838 0.129432,0.102165 0.129432,0.160759 0,0.05852 -0.02869,0.102174 0.0578,0.116833 0.08615,0.01453 0.143883,-0.01467 0.172578,0.05838 0.02883,0.07298 0.02883,0.189878 0.01452,0.248333 -0.01452,0.05852 0.01431,0.146091 0.08615,0.146091 0.07211,0 0.08642,0.01466 0.08642,0.05852 0,0.04372 0.08642,-0.160828 0.08642,-0.160828 -0.07218,-0.05838 -0.1297,-0.189947 -0.1297,-0.189947 0,0 -0.07184,-0.204477 -0.07184,-0.233666 0,-0.02919 -0.100667,-0.05852 -0.143814,-0.07305 -0.04328,-0.01467 -0.115386,-0.146022 -0.115386,-0.146022 l -0.172578,0.0146 z"
       id="path1444"
       style="opacity:1;fill:#ffffff;fill-opacity:1;stroke-width:0.0865877" />
    <path
       d="m 39.799919,20.892929 c -0.04328,-0.05859 -0.08649,-0.102373 -0.144013,-0.131431 -0.05739,-0.02933 -0.100597,-0.05852 -0.158395,-0.05852 -0.05752,0 -0.114979,-0.05852 -0.08642,-0.131431 0.02897,-0.07312 -0.04328,-0.102304 -0.04328,-0.160828 0,-0.05838 0.04328,-0.05838 0.115318,-0.01453 0.07211,0.04385 0.05752,0.05838 0.115386,0.13157 0.05739,0.07298 0.08608,0.146021 0.143545,0.131362 0.05786,-0.01466 0.101005,0.131432 0.158534,0.08764 0.05752,-0.04379 0.04328,0.102234 0.04328,0.102234 l -0.143943,0.04392 z"
       id="path1446"
       style="opacity:1;fill:#ffffff;fill-opacity:1;stroke-width:0.0865877" />
    <path
       d="m 38.115788,22.54329 c 0.07937,0.08069 -0.431709,0.05831 -0.431709,0 0,-0.05838 0.04328,-0.262785 0.172578,-0.219274 0.12957,0.04399 0.143814,-0.262785 0.143814,-0.262785 0,0 -0.11498,0.01446 -0.01425,-0.04386 0.100737,-0.05838 0,-0.146091 -0.04328,-0.189878 -0.04308,-0.04392 -0.08629,-0.116902 -0.08629,-0.116902 h 0.20168 c 0.08642,-0.05852 0.11498,-0.335969 0.11498,-0.335969 0.172578,0.05838 0.259001,-0.05852 0.259001,-0.05852 0,0 0.02924,0.08764 0.08669,0.160828 0.05752,0.07291 -0.144221,0.102165 -0.07218,0.146091 0.07218,0.04386 0.100736,0.175219 0.07218,0.218937 -0.02897,0.04386 -0.187497,0.01466 -0.187497,-0.04372 0,-0.05852 -0.05753,0.07305 0,0.146091 0.05752,0.07305 -0.07184,0.175218 -0.100736,0.175218 -0.02883,0 -0.215647,0.02933 -0.05752,0.116902 0.158265,0.08758 0.331311,0.04399 0.331311,0.04399 0,0 0.129431,-0.0148 0.172577,0.05838 0.04328,0.07298 -0.01431,0.08764 -0.08629,0.08764 -0.07184,0 -0.417526,-0.02933 -0.417526,-0.02933 0,0 -0.100666,0.102303 -0.05752,0.14616 z"
       id="path1448"
       style="opacity:1;fill:#ffffff;fill-opacity:1;stroke-width:0.0865877" />
    <path
       d="m 37.194495,22.674904 c 0.07218,-0.0146 0.24455,-0.02933 0.273513,0.01453 0.02897,0.04379 -0.100736,0.102173 -0.100736,0.102173 l -0.172777,0.02933 c -0.05752,-0.07311 -0.07184,-0.131431 0,-0.146021 z"
       id="path1450"
       style="opacity:1;fill:#ffffff;fill-opacity:1;stroke-width:0.0865877" />
    <path
       d="m 39.051801,21.447956 c 0.115049,-0.05838 0.359668,-0.05838 0.345355,-0.146091 -0.01425,-0.08764 0.143883,-0.116832 0.143883,-0.116832 l 0.04321,0.175218 0.129569,0.08764 0.01445,0.16069 c 0,0 0.04308,-0.02919 -0.115049,0.01466 -0.158533,0.04385 -0.05752,0.116764 -0.05752,0.116764 l -0.345624,0.01459 -0.04321,-0.146091 -0.115049,-0.160551 z"
       id="path1452"
       style="opacity:1;fill:#ffffff;fill-opacity:1;stroke-width:0.0865877" />
    <path
       d="m 38.489847,20.659142 c 0.08751,0 -0.02856,0.335969 0.201403,0.30678 0.230375,-0.02933 0.01465,0.102234 0.187229,0.116764 0.172777,0.0148 0.129569,-0.131432 0.18709,-0.233596 0.0578,-0.102234 0.02897,-0.160759 -0.07184,-0.189948 -0.101004,-0.02919 -0.101004,-0.02919 -0.129569,-0.146229 -0.0287,-0.116764 -0.143944,-0.146091 -0.143944,-0.146091 l -0.04328,-0.175149 -0.18709,0.116763 -0.18709,0.248334 c 0,0.190086 0.100667,0.102372 0.187091,0.102372 z"
       id="path1454"
       style="opacity:1;fill:#ffffff;fill-opacity:1;stroke-width:0.0865877" />
    <path
       d="m 38.870862,21.893538 0.04326,-0.08767 0.0774,0.03934 -0.04326,0.08767 z"
       id="path1456"
       style="opacity:1;fill:#ffffff;fill-opacity:1;stroke-width:0.0865845" />
    <path
       d="m 38.72017,21.754476 h 0.08642 v 0.102235 h -0.08642 z"
       id="path1458"
       style="opacity:1;fill:#ffffff;fill-opacity:1;stroke-width:0.0865877" />
    <path
       d="m 38.792792,19.808051 0.01451,0.131369 -0.08582,0.0098 -0.01451,-0.131369 z"
       id="path1460"
       style="opacity:1;fill:#ffffff;fill-opacity:1;stroke-width:0.0865876" />
    <path
       d="m 38.547862,21.17001 h 0.08642 v 0.07318 h -0.08642 z"
       id="path1462"
       style="opacity:1;fill:#ffffff;fill-opacity:1;stroke-width:0.0865877" />
    <path
       d="m 38.321187,21.168511 -0.0085,-0.08729 0.143934,-0.0144 0.0085,0.08729 z"
       id="path1464"
       style="opacity:1;fill:#ffffff;fill-opacity:1;stroke-width:0.0865875" />
    <path
       d="m 37.133667,22.573393 -0.07909,-0.03449 0.04328,-0.102221 0.07909,0.03449 z"
       id="path1466"
       style="opacity:1;fill:#ffffff;fill-opacity:1;stroke-width:0.0865854" />
    <path
       d="m 36.681963,22.307523 -0.0085,-0.08709 0.144139,-0.01445 0.0085,0.08709 z"
       id="path1468"
       style="opacity:1;fill:#ffffff;fill-opacity:1;stroke-width:0.0865875" />
    <path
       d="m 34.188233,22.367914 -0.0041,-0.08743 -0.316117,0.01446 0.0041,0.08744 z"
       id="path1470"
       style="opacity:1;fill:#ffffff;fill-opacity:1;stroke-width:0.0683396" />
    <path
       d="m 33.656058,22.407323 -0.02867,-0.131335 0.08444,-0.01899 0.02867,0.131334 z"
       id="path1472"
       style="opacity:1;fill:#ffffff;fill-opacity:1;stroke-width:0.0865868" />
    <path
       d="m 33.595553,22.497873 -0.0273,-0.08315 0.04312,-0.01458 0.0273,0.08315 z"
       id="path1474"
       style="opacity:1;fill:#ffffff;fill-opacity:1;stroke-width:0.0865859" />
    <path
       d="m 34.315455,22.25149 -0.01431,0.102234 0.158126,0.01466 c 0,0 0.07184,0.05852 0.07184,0.102174 0,0.04386 0.101004,0.08764 0.158533,0.08764 0.05752,0 0.215785,-0.116902 0.215785,-0.116902 0,0 0.07211,-0.204546 0.01459,-0.189948 -0.0578,0.01453 -0.172846,0.102235 -0.18709,0.01453 -0.01459,-0.08764 -0.18709,-0.04386 -0.18709,-0.04386 l -0.230375,0.02947 z"
       id="path1476"
       style="opacity:1;fill:#ffffff;fill-opacity:1;stroke-width:0.0865877" />
    <path
       d="m 35.034998,22.090437 c 0,0.04372 -0.02856,0.102173 0.05752,0.116902 0.08676,0.01446 0.245026,-0.05838 0.259269,0.02919 0.01458,0.08758 0.01458,0.146229 0.12957,0.190086 0.11498,0.04372 0.187229,0.05838 0.273513,0.05838 0.08615,0 0.273583,-0.0294 0.273583,-0.0294 0,0 0.203645,0.03188 0.244549,0.07318 0.158265,0.16062 0.259002,0.204408 0.30214,0.131432 0.04321,-0.07312 -0.01431,-0.233666 -0.02863,-0.292113 -0.01452,-0.05859 -0.216054,-0.336107 -0.288034,-0.27766 -0.07184,0.05852 -0.08622,0 -0.215855,0.04372 -0.129569,0.04386 -0.403083,0.0148 -0.417326,-0.04372 -0.01431,-0.05852 -0.215855,-0.08751 -0.215855,-0.146091 0,-0.05852 -0.143813,-0.131432 -0.12957,-0.04386 0.01431,0.08757 -0.100666,0.131432 -0.129907,0.102373 -0.02856,-0.02926 -0.11498,0.08757 -0.11498,0.08757 z"
       id="path1478"
       style="opacity:1;fill:#ffffff;fill-opacity:1;stroke-width:0.0865877" />
    <path
       d="m 38.346112,20.220143 0.100943,-0.321171 c -0.143813,-0.02933 -0.115248,-0.189879 -0.115248,-0.189879 -0.01431,-0.131561 -0.215785,-0.277591 -0.287826,-0.233734 -0.07184,0.04365 -0.04328,-0.306919 -0.04328,-0.306919 0,0 0.1297,-0.08751 0.187229,-0.04372 0.05759,0.04372 -0.489299,-0.730393 -0.604556,-0.657348 -0.115049,0.07305 -0.37398,-0.07305 -0.359668,-0.204615 0.01431,-0.131363 -0.518201,-0.569713 -0.518201,-0.569713 0,0 -0.172777,-0.116694 -0.201472,-0.02905 -0.02883,0.08757 -0.08635,0.146091 0,0.18974 0.08622,0.04392 0.07184,-0.07298 0.172509,0.02919 0.100736,0.102234 0.288094,0.233804 0.216053,0.321449 -0.07204,0.08778 -0.158464,0.116971 -0.158464,0.116971 l 0.100944,0.116902 h 0.158265 l 0.02883,0.248195 c 0,0 0.172578,0.08771 0.215855,0.189947 0.04321,0.102174 0.04321,0.16069 0,0.219206 -0.04328,0.05838 -0.129293,0.16062 -0.115049,0.262785 0.01431,0.102234 0.129569,0.14609 0.129569,0.14609 l 0.11498,0.01467 0.08649,0.04392 v 0.190017 c 0.11498,-0.02933 0.30207,0.131223 0.287826,0.233596 -0.01431,0.102234 0.02856,0.04379 0.172509,0.146091 0.144151,0.102234 0.101004,0.116902 0.20168,0.189947 0.100805,0.07284 0.187228,0.02905 0.230098,-0.10258 z"
       id="path1480"
       style="opacity:1;fill:#ffffff;fill-opacity:1;stroke-width:0.0865877" />
    <path
       d="m 35.971011,18.233821 c -0.01431,-0.05852 -0.04328,-0.263131 0.04321,-0.248541 0.08629,0.0148 0.02883,0 0.12957,0.04393 0.100736,0.04392 0.115049,-0.07298 0.115049,-0.07298 h 0.158464 l 0.201403,0.160551 -0.02883,0.131561 -0.143944,0.01446 c -0.07184,-0.116695 -0.215854,-0.07291 -0.18709,0.0294 0.02883,0.102173 -0.07184,0.292121 -0.129293,0.306642 -0.05759,0.01466 -0.245025,0.01466 -0.230375,-0.07291 0.01431,-0.08764 0.07184,-0.292112 0.07184,-0.292112 z"
       id="path1482"
       style="opacity:1;fill:#ffffff;fill-opacity:1;stroke-width:0.0865877" />
    <path
       d="m 35.85585,17.838981 v -0.116763 c 0,0 -0.01465,-0.116833 -0.08642,-0.116833 -0.07177,0 -0.201403,-0.08757 -0.172846,-0.146091 0.02903,-0.05852 -0.24455,-0.116902 -0.24455,-0.116902 0,0 -0.244549,-0.233735 -0.158265,-0.204407 0.08642,0.02919 0.04328,-0.102373 0.04328,-0.102373 0,0 -0.172846,0.02919 -0.216053,0.01466 -0.04328,-0.01466 -0.02896,-0.146091 -0.02896,-0.146091 0,0 -0.17244,-0.04386 -0.17244,0 0,0.04386 0.05753,0.04386 0.08608,0.131362 0.02897,0.08757 0.01459,0.233804 0.14429,0.262923 0.129569,0.02933 0.158126,0.05838 0.172777,0.116903 0.01431,0.05852 0.172578,0.07305 0.172578,0.07305 l 0.115248,0.05838 0.345286,0.292182 z"
       id="path1484"
       style="opacity:1;fill:#ffffff;fill-opacity:1;stroke-width:0.0865877" />
    <path
       d="m 34.143461,16.334874 0.158059,0.01446 -0.04274,-0.117039 -0.115322,-0.02892 z"
       id="path1486"
       style="opacity:1;fill:#ffffff;fill-opacity:1;stroke-width:0.0683396" />
    <path
       d="m 34.258307,15.735766 c -0.150464,-0.114218 0.201333,0.08771 0.201333,0.08771 0.115049,0 0.18709,0.08764 0.18709,0.13157 0,0.04379 0.158326,0.02919 0.158326,0.02919 l 0.01465,-0.102373 -0.115386,-0.146091 -0.100598,-0.07284 c 0,0 -0.158265,-0.01466 -0.158265,-0.05852 -6.8e-5,-0.04372 -0.129639,0.175288 -0.187159,0.131362 z"
       id="path1488"
       style="opacity:1;fill:#ffffff;fill-opacity:1;stroke-width:0.0865877" />
    <path
       d="m 36.906158,15.82322 c -0.04206,0.127846 -0.05752,0.306849 -0.12957,0.306849 -0.07184,0 -0.04321,0.190086 -0.04321,0.190086 0,0 0.187428,0 0.244956,0.01446 0.05739,0.01446 0.05739,0.16055 0.05739,0.16055 0.216054,-0.01446 0.302477,0.277661 0.273513,0.350707 -0.02883,0.07298 0.08642,0.07298 0.08642,0.07298 0,0 0,0.233804 -0.02897,0.292121 -0.02856,0.05852 0.187229,0.102373 0.244749,0.189948 0.05752,0.08771 -0.02897,0.379825 -0.07197,0.394424 -0.04314,0.01466 0.114979,0.05838 0.100736,0.131431 -0.01458,0.07318 0.04321,0 0.05752,0.116972 0.01431,0.116763 0.04328,0.365097 0.04328,0.365097 l 0.201334,0.01473 c 0.02896,-0.189879 0.400027,-0.197178 0.460673,-0.175358 0.244688,0.08764 0.432046,0.46747 0.432046,0.555045 0,0.08757 -0.158533,0.102372 -0.158533,0.102372 l 0.02896,0.423475 c 0.24455,0.07311 0.446091,0.42382 0.417396,0.482207 -0.02883,0.05838 0.172509,0.04392 0.172509,0.04392 0.02896,-0.263132 0.273582,-0.175418 0.287826,-0.08771 0.01472,0.08771 0.05759,0.277592 0.05759,0.277592 l 0.07204,0.131293 0.100736,0.102303 0.158265,-0.01459 0.04328,0.08771 0.18709,0.02933 c 0,0 0.158533,0.175081 0.172777,0.219067 0.01458,0.04372 0.230375,0.02919 0.287826,0.04372 0.05753,0.01466 0.144013,0.05852 0.158265,0.131501 0.01459,0.07312 0.101005,0.189947 0.101005,0.189947 0,0 0.172577,0.04393 0.18709,0.102234 0.01431,0.05831 0.08642,0.189879 0.08642,0.189879 l 0.143605,0.116902 0.01452,0.131561 0.158265,0.0146 0.04328,0.17508 0.258862,-0.01446 0.144221,-0.102234 c 0.18709,-0.102165 0.31666,-0.233735 0.331111,-0.292251 0.01425,-0.05838 0.04308,-0.277384 0.18709,-0.233596 0.143814,0.04386 0.04321,-0.321448 0.04321,-0.321448 0,0 -0.201472,-0.146091 -0.187229,-0.219275 0.01445,-0.07291 -0.201334,-0.218937 -0.18709,-0.277453 0.01431,-0.05852 -0.18709,-0.175219 -0.172777,-0.233666 0.01424,-0.05852 -0.100736,-0.219274 -0.100736,-0.219274 l -0.216054,-0.204408 -0.02883,-0.13157 -0.172578,-0.01446 -0.345355,-0.423683 0.01431,-0.116971 -0.100736,-0.01453 v -0.16062 l -0.100598,-0.05852 -0.158533,-0.0146 -0.316521,-0.350498 -0.02883,-0.160759 h -0.158265 l 0.02869,-0.306849 c 0.100874,-0.131501 0.04314,-0.379826 0.04314,-0.379826 0,0 -0.20168,0.102235 -0.302139,0.05838 -0.100944,-0.04365 0.04301,-0.146091 0.04301,-0.146091 V 17.24023 l -0.08622,-0.08764 c 0,0 -0.244887,0.02933 -0.259131,-0.01446 -0.01445,-0.04386 -0.05752,-0.233804 -0.05752,-0.233804 l -0.01445,-0.248403 -0.100598,-0.04365 -0.01465,-0.08778 -0.158127,0.01453 v -0.175219 l -0.08649,-0.02919 -0.08629,-0.04385 -0.01438,-0.175358 -0.31666,-0.01446 -0.100736,-0.146091 -0.115049,-0.175349 -0.359867,-0.02919 -0.08642,-0.08751 -0.143883,-0.02933 -0.100736,-0.04386 -0.04321,0.07318 -0.273582,0.01446 -0.01425,0.08764 c -0.143882,0.07305 -0.719604,0.01453 -0.734254,0.05831 z"
       id="path1490"
       style="opacity:1;fill:#ffffff;fill-opacity:1;stroke-width:0.0865877" />
    <path
       d="m 38.417979,15.443966 c -0.02279,-0.115318 0.288095,-0.219136 0.359937,-0.13157 0.07211,0.08764 0.273513,0.102511 0.302347,0.540722 0.01017,0.156906 -0.259131,-0.160689 -0.259131,-0.160689 l -0.216054,-0.07305 c -0.115049,-0.02933 -0.172777,-0.102174 -0.18709,-0.175427 z"
       id="path1492"
       style="opacity:1;fill:#ffffff;fill-opacity:1;stroke-width:0.0865877" />
    <path
       d="m 34.19623,15.622434 -0.07869,-0.0356 0.05775,-0.131493 0.07869,0.0356 z"
       id="path1494"
       style="opacity:1;fill:#ffffff;fill-opacity:1;stroke-width:0.086585" />
    <path
       d="m 33.452175,14.187578 -0.187497,-0.189947 v -0.16069 l -0.05752,-0.05859 -0.05753,-0.204408 -0.18709,-0.05838 -0.18709,0.07291 -0.201541,0.131501 -0.215785,0.0294 -0.115318,0.131362 0.460673,0.04365 0.08622,0.146299 0.33138,0.02919 0.215647,0.219067 c 0.187497,0.05852 0.230505,-0.02919 0.115456,-0.131362 z"
       id="path1496"
       style="opacity:1;fill:#ffffff;fill-opacity:1;stroke-width:0.0865877" />
    <path
       d="m 33.423601,13.471498 c -0.03168,-0.128401 -0.216053,0.16062 -0.02856,0.218928 0.18709,0.05873 0.373912,0 0.373912,0 l 0.04328,-0.08757 0.719466,0.01466 c 0.05793,-0.05852 0.08642,-0.146091 0.08642,-0.146091 0,0 0.172846,-0.05852 0.244619,-0.02933 0.07211,0.02933 0.01465,-0.204407 -0.05752,-0.175219 -0.07184,0.02919 -0.215716,0.0146 -0.215716,0.0146 h -0.2592 c -0.01431,-0.102165 -0.244619,-0.05852 -0.259001,0 -0.01459,0.05838 -0.100598,0.07298 -0.100598,0.07298 l -0.331111,0.02933 c -0.0289,0.08771 -0.201403,0.14609 -0.215993,0.08771 z"
       id="path1498"
       style="opacity:1;fill:#ffffff;fill-opacity:1;stroke-width:0.0865877" />
    <path
       d="m 31.998368,15.93665 c 0.221353,0.07022 0.302139,0.01824 0.31679,-0.04014 0.01431,-0.05852 0.02856,-0.07318 0.115049,-0.08764 0.08629,-0.01467 -0.01445,-0.189948 -0.100736,-0.175358 -0.08649,0.0146 -0.172847,-0.02919 -0.18709,-0.102234 -0.01472,-0.07298 -0.158534,-0.262923 -0.172847,-0.116763 -0.01438,0.146091 -0.100736,0.146091 -0.08642,0.248333 0.01452,0.102035 0.05773,0.255356 0.115257,0.273808 z"
       id="path1500"
       style="opacity:1;fill:#ffffff;fill-opacity:1;stroke-width:0.0865877" />
    <path
       d="m 30.343677,16.101166 c -0.01038,-0.0517 0.287826,-0.05838 0.331112,-0.01473 0.04328,0.04393 0.01431,0.116902 0.143882,0.116902 0.129362,0 0.07191,0.08771 0.05753,0.13157 -0.01431,0.04379 -0.158127,0.02919 -0.172847,-0.01446 -0.01424,-0.04392 -0.230306,-0.05873 -0.230306,-0.05873 0,0 -0.115049,-0.08771 -0.129362,-0.160551 z"
       id="path1502"
       style="opacity:1;fill:#ffffff;fill-opacity:1;stroke-width:0.0865877" />
    <path
       d="m 35.293286,13.038148 -0.05427,-0.06837 -0.113965,0.09225 -0.07326,-0.07442 -0.06105,0.06189 0.100398,0.102237 0.02781,0.02788 0.02985,-0.02451 z"
       id="path1504"
       style="opacity:1;fill:#ffffff;fill-opacity:1;stroke-width:0.0683396" />
    <path
       d="m 34.581005,12.616462 -0.135672,0.08737 -0.09226,-0.05831 -0.04545,0.07436 0.115322,0.07284 0.02239,0.0148 0.02306,-0.0148 0.158737,-0.102375 z"
       id="path1506"
       style="opacity:1;fill:#ffffff;fill-opacity:1;stroke-width:0.0683396" />
    <path
       d="m 33.992865,15.726957 -0.01153,-0.0179 -0.02103,-0.0021 -0.143813,-0.01515 -0.0088,0.08743 0.123462,0.01239 0.08954,0.142513 0.07259,-0.04682 z"
       id="path1508"
       style="opacity:1;fill:#ffffff;fill-opacity:1;stroke-width:0.0683396" />
    <path
       d="m 29.220635,19.782009 0.01472,0.160759 h 0.215655 c 0.08642,0 -0.07184,-0.102234 -0.07184,-0.102234 0,0 -0.172777,0.01466 -0.158534,-0.05852 z"
       id="path1510"
       style="opacity:1;fill:#ffffff;fill-opacity:1;stroke-width:0.0865877" />
    <path
       d="m 29.495084,19.786754 0.05518,-0.0675 0.0864,0.07275 -0.05518,0.0675 z"
       id="path1512"
       style="opacity:1;fill:#ffffff;fill-opacity:1;stroke-width:0.0865836" />
    <path
       d="m 26.872595,17.05374 0.06116,-0.06197 0.08627,0.0877 -0.06116,0.06197 z"
       id="path1514"
       style="opacity:1;fill:#ffffff;fill-opacity:1;stroke-width:0.0865827" />
    <path
       d="m 31.10711,35.883218 -0.05359,-0.02754 -0.143813,-0.07298 -0.03867,0.07849 0.09022,0.04544 -0.02985,0.03029 0.06173,0.06196 0.07191,-0.07298 z"
       id="path1516"
       style="opacity:1;fill:#ffffff;fill-opacity:1;stroke-width:0.0683396" />
    <path
       d="m 29.895555,34.840189 0.04341,-0.03649 -0.05495,-0.06747 -0.08683,0.07298 -0.04274,0.03649 0.04545,0.03305 0.101076,0.07298 0.0502,-0.07091 z"
       id="path1518"
       style="opacity:1;fill:#ffffff;fill-opacity:1;stroke-width:0.0683396" />
    <path
       d="m 40.642417,32.032435 c -0.01906,-0.07442 -0.102979,-0.104987 -0.112469,-0.108087 l -0.02747,0.0833 v -5.19e-4 c 0.0068,0.0026 0.01682,0.0078 0.02679,0.01439 l 0.01764,0.07573 c -0.0064,0.0097 -0.0135,0.0188 -0.01906,0.02534 l 0.06336,0.05928 c 0.0462,-0.05143 0.06329,-0.101273 0.05122,-0.149399 z"
       id="path1520"
       style="opacity:1;fill:#ffffff;fill-opacity:1;stroke-width:0.0865877" />
    <path
       d="m 40.785988,31.636751 -0.01085,0.119793 -0.140421,-0.01033 0.01085,-0.131497 z"
       id="path1522"
       style="opacity:1;fill:#ffffff;fill-opacity:1;stroke-width:0.0683396" />
    <path
       d="m 44.11112,30.617592 c 0.06153,-0.0389 0.14022,-0.109741 0.12957,0.05487 -0.01092,0.164266 -0.07564,0.109672 -0.12957,0.164266 -0.05393,0.05487 -0.08636,-0.164266 0,-0.219136 z"
       id="path1524"
       style="opacity:1;fill:#ffffff;fill-opacity:1;stroke-width:0.0865877" />
    <path
       d="m 44.843652,29.997625 c -0.0012,-0.0029 -0.002,-0.01301 -0.0026,-0.02038 -0.0019,-0.0241 -0.005,-0.05694 -0.02211,-0.09143 l -0.07713,0.03917 c 0.0096,0.01955 0.01146,0.04021 0.01309,0.06003 0.0022,0.02561 0.005,0.05487 0.02951,0.07339 0.01547,0.01177 0.035,0.01515 0.05827,0.01067 l -0.01648,-0.08482 c 0.0067,10e-4 0.0154,0.0071 0.01743,0.01336 z"
       id="path1526"
       style="opacity:1;fill:#ffffff;fill-opacity:1;stroke-width:0.0865877" />
    <path
       d="m 44.651427,30.069492 c 0.02191,0.08881 0.05393,0.176319 0.05535,0.179964 l 0.081,-0.03084 c -6.06e-4,-7.79e-4 -0.03202,-0.08647 -0.05271,-0.170604 z"
       id="path1528"
       style="opacity:1;fill:#ffffff;fill-opacity:1;stroke-width:0.0865877" />
    <path
       d="m 44.337114,30.414111 -0.08602,-0.0086 c -0.0067,0.06892 0.0097,0.154082 0.07774,0.167919 l 0.01689,-0.08592 c 6.06e-4,0 0.0014,5.2e-4 0.0016,5.2e-4 -0.007,-0.0062 -0.01336,-0.04145 -0.01024,-0.07387 z"
       id="path1530"
       style="opacity:1;fill:#ffffff;fill-opacity:1;stroke-width:0.0865877" />
    <path
       d="m 43.958726,28.671101 c -0.0045,-0.02809 -0.0213,-0.04991 -0.04721,-0.06141 -0.0639,-0.02809 -0.171626,0.01838 -0.224401,0.05418 l 0.04776,0.07298 c 0.05468,-0.03704 0.126444,-0.05487 0.142454,-0.04668 -0.0014,-5.19e-4 -0.0034,-0.0031 -0.0039,-0.0048 l 0.08534,-0.01425 z"
       id="path1532"
       style="opacity:1;fill:#ffffff;fill-opacity:1;stroke-width:0.0865877" />
    <path
       d="m 39.972228,24.004025 c -0.05752,0.05852 -0.18709,0.08771 -0.18709,0.08771 l -0.04328,0.160689 -0.07177,0.05838 c 0,0 0.01425,0.04379 0,0.146091 -0.01445,0.102173 -0.144012,0.160689 -0.144012,0.160689 l -0.05753,0.07305 c 0,0 -0.346982,0.01879 -0.388631,0 -0.12957,-0.05838 -0.04308,-0.233735 0.04328,-0.219137 0.08622,0.01466 -0.01459,-0.248402 -0.01459,-0.248402 l 0.115318,-0.01453 c 0,0 0.01425,-0.263062 0.05752,-0.263062 0.04321,0 -0.01431,-0.08758 -0.07211,-0.131432 -0.05752,-0.04365 -0.129431,-0.189739 -0.187229,-0.175218 -0.05752,0.01453 -0.287826,0 -0.287826,0 l -0.04321,0.08771 -0.158395,0.02912 c 0,0 0.01364,0.11298 -0.01404,0.14616 -0.08669,0.102173 -0.417526,0.32131 -0.273791,-0.04386 l 0.04308,-0.08751 v -0.13157 l -0.258793,-0.01446 c 0,0 -0.12957,-0.04392 -0.12957,-0.102373 0,-0.05845 -0.01445,-0.131362 -0.01445,-0.131362 l -0.302347,-0.335969 -0.359668,-0.04379 -0.02896,-0.07318 -0.215655,-0.02919 c -0.25927,-0.131363 -0.489636,-0.0146 -0.44636,0.204546 0.04314,0.219274 0.11498,0.306849 -0.02869,0.306849 -0.144151,0 -0.172847,-0.116833 -0.172847,-0.116833 0,0 -0.114979,-0.04392 -0.114979,0.01446 0,0.05852 -0.04328,0.175357 0,0.233735 0.04301,0.05838 -0.0578,0.146091 -0.101005,0.102234 -0.04287,-0.04386 -0.158126,-0.17508 -0.129293,-0.218928 0.0287,-0.04386 -0.20174,-0.321518 0.0287,-0.365305 0.230375,-0.04386 -0.01438,-0.175358 0.07211,-0.204408 l 0.11498,-0.05852 h 0.115049 l 0.07204,-0.05852 -0.18709,-0.02905 -0.11498,-0.01467 -0.216054,-0.01459 c -0.215785,0.146091 -0.258862,0.321448 -0.258862,0.321448 -0.115387,0.219067 -0.388632,-0.08771 -0.287827,-0.204546 0.100598,-0.116902 -0.316789,-0.01466 -0.38883,0.04379 -0.07211,0.05838 -0.287965,0.02919 -0.287965,0.02919 -0.04308,0.13157 -0.24455,-0.01446 -0.18709,-0.102165 0.05759,-0.08764 0.05759,-0.146091 0.05759,-0.146091 l -0.07184,-0.01466 -0.08629,0.160689 c -0.201541,0 -0.259269,0.116764 -0.216122,0.189878 0.04314,0.07291 -0.05752,-0.0146 -0.08642,0.08764 -0.02856,0.102235 0.01458,0.102235 0.101005,0.146091 0.08642,0.04386 -0.04328,0.04386 0.01431,0.116764 0.05752,0.07318 0.230306,0 0.12963,0.102372 -0.100736,0.102174 -0.302477,0.05852 -0.302477,0.05852 -0.01431,0.131223 -0.287826,0.102173 -0.316382,0.05838 -0.02897,-0.04386 -0.244689,-0.306849 -0.244689,-0.306849 l -0.273851,-0.0146 c -0.02856,-0.204408 0.1297,-0.102234 0.187229,-0.262924 0.05786,-0.160758 0.08662,-0.423543 0.08662,-0.423543 0,0 -0.230574,-0.0146 -0.244887,0.05838 -0.01425,0.07312 -0.158265,0.116902 -0.158265,0.116902 0,0 -0.115257,0.04372 -0.07204,0.102234 0.04321,0.05852 -0.08642,0.08751 -0.08642,0.08751 0,0 0.02245,0.09439 -0.01431,0.131501 -0.11498,0.11704 -0.403083,0.01453 -0.446091,-0.02919 l -0.172846,-0.07305 -0.172777,-0.116833 -0.201403,0.08751 -0.05752,0.05852 h -0.216054 l -0.01424,0.175081 0.388632,0.04379 0.02883,0.361582 -0.158534,-0.0546 h -0.100736 l -0.04308,-0.08771 -0.08642,-0.01466 v 0.321309 l 0.08642,0.07318 0.07211,0.07284 0.143943,0.01467 0.02883,0.175219 0.359668,0.0148 0.04321,0.07291 0.216054,0.01466 0.417396,0.423474 -0.02883,0.13157 -0.07211,0.04386 c 0.02897,0.102234 -0.186891,0.04386 -0.186891,0.04386 v 0.08751 l 0.100468,0.01459 0.101005,0.05838 0.143813,-0.248264 c 0.158265,-0.102234 0.230098,0.04386 0.244749,0.131501 0.01425,0.08764 -0.07218,0.07298 -0.07218,0.07298 v 0.204685 l 0.08642,0.02905 c 0.144151,0.175349 -0.05752,0.277661 -0.05752,0.277661 l -0.04328,0.146021 c -0.04321,0.131501 -0.201473,0.102174 -0.201473,0.102174 l -0.05739,0.08771 -0.172985,0.04386 0.341762,0.04379 c 0.03249,-0.116902 0.118642,-0.146091 0.161858,-0.08764 0.04328,0.05852 0.04328,0.160758 0.04328,0.160758 l 0.08669,0.0146 -0.01465,0.160621 0.08642,0.02933 v 0.4674 l 0.100736,0.116833 c 0.172777,-0.07284 0.172777,0.04392 0.08629,0.102234 -0.08629,0.05831 -0.02883,0.321448 -0.02883,0.321448 l -0.07197,0.07291 v 0.116971 l -0.08629,0.05838 v 0.160621 c -0.144013,-0.07298 -0.31679,-0.04393 -0.360075,0 -0.129293,-0.08771 -0.402806,-0.05838 -0.402806,0.01473 0.08622,0.116833 -0.100597,0.146091 -0.100597,0.146091 l -0.101005,0.116833 c 0.07211,0.14616 -0.07177,0.16062 -0.07177,0.16062 v 0.277661 l -0.172846,0.160689 0.01458,0.379826 c 0,0.102234 0.215785,0.116763 0.258793,0.05838 0.04328,-0.05838 0.216123,0.116972 0.216123,0.116972 h 0.129293 l 0.02896,-0.263062 -0.08649,-0.04386 v -0.423682 l 0.144013,-0.160759 c 0.172777,-0.05838 0.115257,0.380033 0.115257,0.423821 0.01431,0.16062 0.08608,0.14609 0.158265,0.116763 0.143882,-0.05838 0.02856,0.160897 -0.08642,0.146091 -0.115049,-0.01446 -0.04328,0.146091 -0.04328,0.146091 l 0.07218,0.02933 -0.1297,0.102234 -0.11485,0.13157 -0.144289,-0.04393 -0.172509,-0.01446 -0.05759,-0.102511 -0.100944,-0.01453 -0.01431,0.204408 -0.07184,0.08764 -0.172777,0.175556 c 0.230375,0 -0.02897,0.160343 -0.08642,0.160343 0.1295,0.04386 -0.01431,0.175488 -0.345355,0.07332 v 0.102104 l -0.115318,0.01466 0.101005,0.116694 0.114979,0.01466 -0.04321,0.248334 c 0,0.189878 -0.474916,0.05825 -0.518202,0.0146 l -0.01431,0.262993 -0.08642,0.01439 0.01431,0.175487 -0.01431,0.248403 0.158265,-0.02926 v 0.102304 l 0.38884,0.01466 0.561339,-0.599109 0.330973,-0.07291 c 0.02869,-0.146299 0.172508,0.02926 0.172508,0.02926 0.144013,-0.01494 0.172847,0.08751 0.172847,0.08751 l 0.187228,0.02926 c 0.158127,0.04392 0.06255,0.05928 0.07184,0.11704 0.01425,0.08751 0.08629,0.05824 0.08629,0.05824 l 0.02897,-0.189878 0.08642,0.01459 -0.08642,-0.102303 -0.158533,-0.07319 -0.172578,-0.07291 c -0.115257,-0.160621 0.02876,-0.131363 0.144012,-0.116695 h 0.18709 c 0,0 0.216054,0.291983 0.216054,0.365097 0,0.07318 0.100736,0.08778 0.100736,0.08778 l 0.129293,-0.01467 0.04328,0.102105 h 0.129501 l 0.04328,0.08751 h 0.259131 l 0.01438,-0.131362 -0.244957,-0.04358 -0.01425,-0.146298 -0.172578,-0.04386 c -0.0578,-0.248126 0.04301,-0.32131 0.11498,-0.204269 l 0.08635,0.01432 -0.02883,-0.219136 0.100667,-0.02926 -0.02869,-0.306849 -0.08629,-0.02899 v -0.102372 l 0.359668,0.01487 c -0.02856,-0.190155 0.01452,-0.27773 0.01452,-0.27773 h 0.100736 l 0.01431,0.07325 0.440394,0.04152 0.311369,-0.357174 c -0.01567,-0.02726 0.03127,-0.04392 -0.0029,-0.07897 -0.04328,-0.04379 -0.101004,0 -0.173253,-0.04379 -0.07177,-0.04358 0,-0.292121 -0.01425,-0.350498 -0.01431,-0.05838 0.244956,-0.146299 0.20174,-0.0146 -0.04321,0.13157 0,0.189947 0,0.189947 0.18709,-0.175357 0.345425,0.01446 0.331112,0.05838 -0.01472,0.04379 0.100597,0.08764 0.172439,0.04379 0.07211,-0.04379 0.158464,0.13157 0.129639,0.218998 -0.02897,0.08764 -0.287757,0.07318 -0.30207,-0.01453 -0.01472,-0.08771 -0.05793,-0.05838 -0.08642,-0.01453 -0.02897,0.04386 -0.158265,0.07291 -0.230375,0.02905 -0.01459,-0.0089 -0.02157,-0.01625 -0.02564,-0.02327 l -0.31137,0.357175 0.02022,0.0021 c 0.172578,0.102373 0.08642,0.233805 0.02897,0.262993 -0.0578,0.02926 -0.158533,0.02926 -0.158533,0.02926 l -0.02856,0.05852 -0.374319,0.02905 -0.02897,0.146229 c -0.18709,-0.02954 -0.258863,0.175219 -0.215716,0.277315 0.04328,0.102104 0,0.189878 0,0.189878 l 0.158326,0.07318 0.201333,-0.05824 c 0.02897,-0.146299 0.158265,-0.175557 0.273583,-0.262993 0.11498,-0.08771 0.302347,0.160343 0.244549,0.277384 -0.05752,0.116694 -0.05752,0.16062 -0.05752,0.16062 l 0.01424,0.131561 -0.143813,0.05831 -0.115049,0.05852 -0.01465,0.07311 h -0.388493 l -0.07184,0.07291 -0.187228,0.01494 -0.0578,0.08751 -0.129293,0.01467 c 0,0 -0.216053,0.102303 -0.129569,0.219136 0.08635,0.116971 -0.359738,0.102303 -0.460742,-0.05852 -0.02883,0.145953 -0.18709,0.0146 -0.18709,0.0146 l -0.158265,-0.04393 -0.01431,-0.218867 c -0.02883,-0.14623 -0.302347,-0.14623 -0.287826,-0.04386 0.01431,0.102303 -0.518401,0.04386 -0.518401,0.04386 l -0.172578,0.08385 -0.158533,0.09143 -0.01425,0.07291 -0.259269,0.02926 -0.11498,0.05852 -0.04314,-0.08771 h -0.115049 l -0.115257,0.160828 c -0.302208,0.01466 -0.590034,0.189947 -0.561339,0.262992 0.02883,0.07291 -0.11498,0.146299 -0.11498,0.146299 l -0.1297,0.0433 -0.08615,0.13164 -0.172777,0.05852 -0.02897,0.306919 -0.08615,0.05824 v 0.13163 l -0.100944,0.02898 v 0.07318 l -0.143883,0.0146 0.08615,0.219205 0.115526,0.05852 c 0.201472,0.02898 0.114979,0.277591 0.114979,0.277591 l 0.115049,0.01439 0.0578,0.16062 0.11498,0.233735 c 0.04328,0.175557 0.172846,0.131639 0.230375,0.117041 0.05752,-0.01439 0.11498,0.175219 0.11498,0.175219 l 0.575652,0.01466 c 0,0 -0.02856,0.05852 0.07218,0.08771 0.100597,0.02898 0.762751,0.05852 0.791714,0.01467 -0.02897,-0.131631 0.359599,-0.160897 0.518132,-0.04392 0.158127,0.116694 0.37418,0.04392 0.37418,0.04392 l 0.215855,0.262655 0.14422,0.321517 0.24455,0.07291 0.172578,0.04392 0.0578,0.248334 0.129293,0.01466 0.04328,0.160828 c 0.158464,0.116764 -0.04328,0.365166 -0.04328,0.365166 v 0.321241 l 0.115257,0.05852 -0.01452,0.117041 0.187358,0.189601 0.215785,0.01487 0.547096,0.584233 0.431639,0.131363 0.07184,0.233804 0.115387,-0.01466 0.08629,-0.07291 0.345355,-0.0146 0.172846,-0.160897 0.18709,-0.02898 1.597716,-1.358648 -0.144151,-0.08771 v -0.32124 c 0.259131,-0.189878 0.273513,-0.526055 0.02883,-0.555252 -0.1856,-0.02217 -0.100597,-0.219137 0.07218,-0.248334 l 0.100598,-0.04365 v -0.13163 l 0.331042,-0.306573 V 33.543367 L 37.72667,32.944258 c -0.31679,-0.116694 0,-0.818037 0.215655,-0.803378 0.216054,0.01439 -0.01424,-1.08096 -0.01424,-1.08096 l -0.115317,-0.05831 0.02897,-0.350775 h -0.158265 l -0.2592,0.336176 -0.07184,0.233527 c -0.02883,0.307127 -0.921293,0.248334 -0.964587,0.204477 -0.04321,-0.04386 -0.345355,-0.175219 -0.345355,-0.175219 0,0 -0.230306,-0.189878 -0.273513,-0.131362 -0.04321,0.05852 -0.24455,-0.07318 -0.24455,-0.02926 0,0.04385 -0.18709,-0.102105 -0.18709,-0.102105 l -0.287826,-0.102372 0.216054,-0.04393 -0.04328,-0.175218 0.373911,0.189878 c 0.04328,0.05825 0.230375,0.04393 0.230375,0.04393 l 0.05752,0.07311 c 0,0 0.115318,-0.01487 0.187497,0.07291 0.07184,0.08771 0.445953,0.01466 0.445953,0.01466 l 0.100736,0.08751 0.158265,0.05852 0.446359,0.01466 0.01431,-0.277384 0.08642,-0.08771 -0.01445,-0.175487 0.100737,-0.08751 V 30.44669 l 0.08642,-0.02926 0.01431,-0.32124 0.07184,-0.01467 v -0.701273 l -0.215854,-0.204616 c -0.01425,0.07318 -0.24455,0.07318 -0.24455,0.07318 0,0 -0.05752,0.102104 -0.100736,0.102104 -0.04308,0 0.05759,0.131363 0.02869,0.219137 -0.02869,0.08751 -0.143943,0.08751 -0.143943,0.08751 l -0.216054,0.05859 -0.05752,0.07311 h -0.230375 l -0.02856,-0.189878 0.258863,-0.07318 0.143943,-0.07284 0.07211,-0.146298 c 0.01425,-0.145883 0.18709,-0.131432 0.18709,-0.131432 0,0 0.331042,-0.277591 0.345355,-0.408815 0.01465,-0.131561 0.129699,-0.496797 0.331111,-0.496797 h 0.374318 c 0.143814,-0.05859 0.100667,-0.248403 0.100667,-0.248403 l 0.18716,-0.02905 0.02883,0.102234 c 0,0 0.2592,0.02919 0.287826,-0.01466 0.02896,-0.04365 0.08642,-0.146091 0.158533,-0.102243 0.07191,0.04379 0.302209,-0.102303 0.302209,-0.102303 0.01431,-0.102234 0.37418,-0.05838 0.37418,-0.05838 l 0.04328,-0.131431 c 0,0 -0.244619,-0.335978 -0.287826,-0.335978 -0.04328,0 -0.273514,-0.204684 -0.302417,-0.131561 -0.230028,-0.05838 -0.215785,-0.379826 -0.215785,-0.379826 l -0.08642,-0.204407 c 0,-0.117041 -0.215647,-0.365305 -0.259131,-0.335969 -0.216053,-0.160689 -0.05752,-0.350637 0,-0.365236 0.05752,-0.01453 0.20168,-0.219136 0.20168,-0.219136 l 0.07184,-0.204546 0.244688,-0.07284 0.02883,-0.189947 -0.129293,-0.01466 c 0,0 0.143675,-0.262993 0.215785,-0.262993 0.07211,0 0.547096,0 0.589966,-0.02933 0.04321,-0.02905 0.1295,-0.262785 0.1295,-0.306641 0,-0.04386 0.115456,-0.05852 0.158326,-0.07318 0.04321,-0.01446 0.143943,-0.131362 0.172777,-0.189878 0.02883,-0.05879 -0.0717,-0.424098 -0.129431,-0.365643 z"
       id="path1534"
       style="opacity:1;fill:#ffffff;fill-opacity:1;stroke-width:0.0865877" />
    <path
       d="m 31.998368,29.270288 c 0.02157,-0.02162 0.04328,0.06582 0.08642,0.05487 0.04287,-0.01095 0.06472,0.07677 0.02164,0.07677 -0.04328,0 -0.04328,0.05487 -0.04328,0.07676 0,0.02196 0,0.07656 -0.03249,0.109464 -0.03236,0.03291 -0.06485,0.01095 -0.10813,-0.01095 -0.04308,-0.02189 -0.06444,-0.02189 -0.118643,-0.02189 -0.05386,0 -0.01092,0.08771 -0.01092,0.08771 0,0 -0.226704,-0.01095 -0.183427,-0.04393 0.04321,-0.03263 0.08642,-0.04386 0.05413,-0.06582 -0.03249,-0.02189 0,-0.04365 0,-0.08751 0,-0.04392 0.107993,-0.02189 0.07537,-0.05487 -0.03215,-0.03291 6.93e-4,-0.159996 0.05393,-0.08771 l 0.03256,-0.07683 c -0.03256,-0.03277 -0.01072,-0.04385 -0.0755,-0.0654 -0.06472,-0.02196 -0.01099,-0.153528 -0.01099,-0.153528 l 0.01099,-0.08764 c 0.02157,-0.109326 0.237354,-0.120478 0.248282,-0.02196 0.01065,0.09866 0,0.164404 0,0.164404 l 0.06485,0.02182 c 0,0 -0.01092,0.06609 -0.06485,0.06609 -0.0542,0 0,0.03243 -0.03249,0.06547 l 0.03256,0.05466 z"
       id="path1536"
       style="opacity:1;fill:#ffffff;fill-opacity:1;stroke-width:0.0865877" />
    <path
       d="m 31.285751,29.380254 c 0.03249,-0.06582 0.107923,-0.350637 0.194416,-0.262923 0.08608,0.08764 0.14022,0 0.14022,0 0,0 0.04321,0.04392 0.02157,0.13157 -0.02157,0.08751 -0.04328,0.175288 -0.09741,0.186233 -0.05379,0.01095 -0.09707,0.04385 -0.161521,0.0548 -0.06471,0.01102 -0.09727,-0.109672 -0.09727,-0.109672 z"
       id="path1538"
       style="opacity:1;fill:#ffffff;fill-opacity:1;stroke-width:0.0865877" />
    <path
       d="m 35.558671,47.142724 c -0.02432,-0.03185 -0.05606,-0.05082 -0.09545,-0.05685 l -0.831713,-0.127248 c -0.04547,-0.145434 -0.107611,-0.29388 -0.18638,-0.445395 0.0545,-0.07576 0.136285,-0.182531 0.245346,-0.320434 0.109062,-0.137903 0.186325,-0.238596 0.231791,-0.302248 0.02427,-0.03336 0.03632,-0.06817 0.03632,-0.104543 0,-0.0424 -0.01054,-0.0757 -0.0318,-0.09997 -0.109061,-0.154583 -0.359038,-0.412091 -0.74993,-0.772691 -0.03626,-0.03029 -0.07419,-0.04541 -0.113524,-0.04541 -0.04547,0 -0.08184,0.01361 -0.109117,0.04084 l -0.645332,0.486341 C 33.18459,45.331468 33.04825,45.275403 32.899803,45.226925 l -0.127247,-0.836231 c -0.003,-0.03939 -0.02047,-0.07196 -0.05227,-0.09774 -0.03185,-0.02577 -0.06889,-0.0386 -0.111404,-0.0386 h -1.008944 c -0.08786,0 -0.142422,0.0424 -0.16362,0.127248 -0.03939,0.151459 -0.08334,0.433233 -0.131822,0.845324 -0.142422,0.04552 -0.280269,0.103092 -0.413597,0.172769 l -0.627201,-0.486342 c -0.03938,-0.03029 -0.07877,-0.04541 -0.118155,-0.04541 -0.06666,0 -0.20981,0.108281 -0.429495,0.324953 -0.219685,0.216673 -0.368857,0.379512 -0.447682,0.488573 -0.02728,0.03938 -0.04089,0.07425 -0.04089,0.104543 0,0.03637 0.01512,0.07274 0.04541,0.109062 0.203005,0.245458 0.365119,0.454487 0.486342,0.627256 -0.07576,0.139354 -0.134835,0.278763 -0.177232,0.418116 l -0.84538,0.127247 c -0.0333,0.0061 -0.06209,0.02577 -0.08636,0.05913 -0.02427,0.03331 -0.03637,0.06817 -0.03637,0.104487 v 1.009 c 0,0.03944 0.01211,0.07498 0.03637,0.106774 0.02427,0.03185 0.05607,0.05088 0.09545,0.0569 l 0.831768,0.122729 c 0.0424,0.148446 0.104487,0.298399 0.186325,0.449858 -0.0545,0.07576 -0.13634,0.182531 -0.245402,0.320434 -0.109061,0.137903 -0.186381,0.238596 -0.23179,0.302248 -0.02427,0.03342 -0.03637,0.06817 -0.03637,0.104543 0,0.03938 0.0106,0.07419 0.0318,0.104487 0.118155,0.163676 0.368131,0.418227 0.74993,0.763597 0.03336,0.03336 0.07124,0.04998 0.113636,0.04998 0.04547,0 0.08334,-0.01361 0.113636,-0.04084 l 0.640869,-0.486397 c 0.124291,0.06365 0.260631,0.119716 0.409078,0.16825 l 0.127247,0.836231 c 0.0031,0.03939 0.02047,0.07196 0.05227,0.09774 0.0318,0.02583 0.06895,0.0386 0.111348,0.0386 h 1.009 c 0.08797,0 0.142477,-0.0424 0.163732,-0.127248 0.03933,-0.151514 0.08323,-0.433233 0.13171,-0.845324 0.142422,-0.04547 0.280324,-0.103092 0.413597,-0.172769 l 0.627257,0.490916 c 0.0424,0.02722 0.08184,0.04084 0.118154,0.04084 0.06661,0 0.20903,-0.107499 0.427153,-0.322665 0.218235,-0.215111 0.368187,-0.378787 0.449913,-0.490916 0.02728,-0.03029 0.04095,-0.0651 0.04095,-0.104487 0,-0.03939 -0.01512,-0.07738 -0.04547,-0.113636 -0.218123,-0.266657 -0.380237,-0.475687 -0.486342,-0.627201 0.06058,-0.11213 0.119717,-0.249977 0.177288,-0.413597 l 0.840805,-0.127192 c 0.03632,-0.0061 0.06672,-0.02583 0.09093,-0.05919 0.02421,-0.03336 0.03626,-0.06823 0.03626,-0.104542 v -1.008944 c 5.6e-5,-0.03939 -0.01199,-0.07492 -0.03632,-0.106775 z m -2.631477,1.424828 c -0.227216,0.227272 -0.501459,0.340908 -0.822675,0.340908 -0.321215,0 -0.595403,-0.113636 -0.822674,-0.340908 -0.227216,-0.227216 -0.340852,-0.501403 -0.340852,-0.822619 0,-0.321215 0.11358,-0.595403 0.340852,-0.822674 0.227271,-0.227216 0.501515,-0.340852 0.822674,-0.340852 0.321216,0 0.595459,0.113636 0.822675,0.340852 0.227216,0.227271 0.340852,0.501459 0.340852,0.822674 0,0.321216 -0.113636,0.595403 -0.340852,0.822619 z"
       opacity="0.9"
       id="path1544"
       style="fill:#ffffff;fill-opacity:1;stroke-width:0.0557859;opacity:1" />
    <path
       d="m 41.725095,48.985266 c -0.01995,-0.02613 -0.04599,-0.04169 -0.0783,-0.04663 l -0.682307,-0.10439 c -0.0373,-0.119309 -0.08828,-0.241089 -0.1529,-0.365386 0.04471,-0.06215 0.111803,-0.149742 0.201274,-0.262873 0.08947,-0.113131 0.152854,-0.195736 0.190152,-0.247954 0.01991,-0.02737 0.02979,-0.05592 0.02979,-0.08576 0,-0.03478 -0.0086,-0.0621 -0.02609,-0.08201 -0.08947,-0.126815 -0.294542,-0.338065 -0.615216,-0.633888 -0.02975,-0.02485 -0.06087,-0.03725 -0.09313,-0.03725 -0.0373,0 -0.06714,0.01117 -0.08952,0.0335 l -0.529407,0.398977 c -0.101964,-0.05222 -0.213813,-0.09821 -0.335593,-0.137981 l -0.10439,-0.686014 c -0.0025,-0.03231 -0.0168,-0.05904 -0.04288,-0.08018 -0.02613,-0.02114 -0.05652,-0.03167 -0.09139,-0.03167 h -0.827702 c -0.07208,0 -0.116837,0.03478 -0.134228,0.10439 -0.03231,0.124251 -0.06837,0.355409 -0.108142,0.693473 -0.116838,0.03734 -0.229922,0.08457 -0.3393,0.141734 l -0.514534,-0.398977 c -0.03231,-0.02485 -0.06462,-0.03725 -0.09693,-0.03725 -0.05469,0 -0.172121,0.08883 -0.352343,0.26658 -0.180221,0.17775 -0.302597,0.311338 -0.367262,0.400808 -0.02238,0.03231 -0.03355,0.06091 -0.03355,0.08576 0,0.02984 0.0124,0.05968 0.03725,0.08947 0.166538,0.201365 0.29953,0.372846 0.398977,0.51458 -0.06215,0.11432 -0.110613,0.228686 -0.145395,0.343007 l -0.693519,0.104389 c -0.02732,0.005 -0.05094,0.02114 -0.07084,0.04851 -0.01991,0.02732 -0.02984,0.05592 -0.02984,0.08572 v 0.827748 c 0,0.03236 0.0099,0.06151 0.02984,0.08759 0.01991,0.02613 0.04599,0.04174 0.0783,0.04668 l 0.682353,0.100683 c 0.03478,0.12178 0.08572,0.244795 0.152854,0.369047 -0.04471,0.06215 -0.111849,0.149742 -0.201319,0.262873 -0.08947,0.11313 -0.152901,0.195736 -0.190153,0.247953 -0.01991,0.02741 -0.02984,0.05593 -0.02984,0.08576 0,0.03231 0.0087,0.06087 0.02609,0.08572 0.09693,0.134274 0.302002,0.343099 0.615216,0.626429 0.02737,0.02737 0.05844,0.041 0.09322,0.041 0.0373,0 0.06837,-0.01117 0.09322,-0.0335 l 0.525746,-0.399023 c 0.101964,0.05222 0.213813,0.09821 0.335593,0.138026 l 0.10439,0.686015 c 0.0025,0.03231 0.01679,0.05904 0.04288,0.08018 0.02609,0.02119 0.05657,0.03167 0.09135,0.03167 h 0.827748 c 0.07217,0 0.116883,-0.03478 0.134319,-0.10439 0.03226,-0.124297 0.06828,-0.355409 0.108051,-0.693474 0.116837,-0.0373 0.229968,-0.08457 0.3393,-0.141733 l 0.514579,0.40273 c 0.03478,0.02233 0.06714,0.0335 0.09693,0.0335 0.05464,0 0.171481,-0.08819 0.350421,-0.264704 0.179032,-0.176469 0.302048,-0.310743 0.369093,-0.40273 0.02238,-0.02485 0.03359,-0.05341 0.03359,-0.08572 0,-0.03231 -0.0124,-0.06348 -0.0373,-0.09322 -0.17894,-0.218756 -0.311933,-0.390237 -0.398977,-0.514534 0.0497,-0.09199 0.09821,-0.205072 0.14544,-0.3393 l 0.689767,-0.104344 c 0.02979,-0.005 0.05474,-0.02119 0.0746,-0.04856 0.01986,-0.02737 0.02975,-0.05597 0.02975,-0.08576 V 49.07286 c 4.6e-5,-0.03231 -0.0098,-0.06146 -0.02979,-0.08759 z m -2.158771,1.168878 c -0.1864,0.186446 -0.41138,0.279669 -0.674893,0.279669 -0.263514,0 -0.488448,-0.09322 -0.674894,-0.279669 -0.1864,-0.1864 -0.279622,-0.411334 -0.279622,-0.674847 0,-0.263514 0.09318,-0.488448 0.279622,-0.674894 0.186446,-0.1864 0.411426,-0.279622 0.674894,-0.279622 0.263513,0 0.488493,0.09322 0.674893,0.279622 0.1864,0.186446 0.279623,0.41138 0.279623,0.674894 0,0.263513 -0.09322,0.488447 -0.279623,0.674847 z"
       opacity="0.9"
       id="path1546"
       style="fill:#ffffff;fill-opacity:1;stroke-width:0.0457648;opacity:1" />
    <path
       d="m 28.182064,48.985266 c -0.01995,-0.02613 -0.04599,-0.04169 -0.0783,-0.04663 l -0.682307,-0.10439 c -0.0373,-0.119309 -0.08828,-0.241089 -0.1529,-0.365386 0.04471,-0.06215 0.111803,-0.149742 0.201274,-0.262873 0.08947,-0.113131 0.152854,-0.195736 0.190152,-0.247954 0.01991,-0.02737 0.02979,-0.05592 0.02979,-0.08576 0,-0.03478 -0.0086,-0.0621 -0.02609,-0.08201 -0.08947,-0.126815 -0.294542,-0.338065 -0.615216,-0.633888 -0.02975,-0.02485 -0.06087,-0.03725 -0.09313,-0.03725 -0.0373,0 -0.06714,0.01117 -0.08952,0.0335 l -0.529407,0.398977 c -0.101964,-0.05222 -0.213813,-0.09821 -0.335593,-0.137981 l -0.10439,-0.686014 c -0.0025,-0.03231 -0.0168,-0.05904 -0.04288,-0.08018 -0.02613,-0.02114 -0.05652,-0.03167 -0.09139,-0.03167 h -0.827702 c -0.07208,0 -0.116837,0.03478 -0.134228,0.10439 -0.03231,0.124251 -0.06837,0.355409 -0.108142,0.693473 -0.116838,0.03734 -0.229922,0.08457 -0.3393,0.141734 l -0.514534,-0.398977 c -0.03231,-0.02485 -0.06462,-0.03725 -0.09693,-0.03725 -0.05469,0 -0.172121,0.08883 -0.352343,0.26658 -0.180221,0.17775 -0.302597,0.311338 -0.367262,0.400808 -0.02238,0.03231 -0.03355,0.06091 -0.03355,0.08576 0,0.02984 0.0124,0.05968 0.03725,0.08947 0.166538,0.201365 0.29953,0.372846 0.398977,0.51458 -0.06215,0.11432 -0.110613,0.228686 -0.145395,0.343007 l -0.693519,0.104389 c -0.02732,0.005 -0.05094,0.02114 -0.07084,0.04851 -0.01991,0.02732 -0.02984,0.05592 -0.02984,0.08572 v 0.827748 c 0,0.03236 0.0099,0.06151 0.02984,0.08759 0.01991,0.02613 0.04599,0.04174 0.0783,0.04668 l 0.682353,0.100683 c 0.03478,0.12178 0.08572,0.244795 0.152854,0.369047 -0.04471,0.06215 -0.111849,0.149742 -0.201319,0.262873 -0.08947,0.11313 -0.152901,0.195736 -0.190153,0.247953 -0.01991,0.02741 -0.02984,0.05593 -0.02984,0.08576 0,0.03231 0.0087,0.06087 0.02609,0.08572 0.09693,0.134274 0.302002,0.343099 0.615216,0.626429 0.02737,0.02737 0.05844,0.041 0.09322,0.041 0.0373,0 0.06837,-0.01117 0.09322,-0.0335 l 0.525746,-0.399023 c 0.101964,0.05222 0.213813,0.09821 0.335593,0.138026 l 0.10439,0.686015 c 0.0025,0.03231 0.01679,0.05904 0.04288,0.08018 0.02609,0.02119 0.05657,0.03167 0.09135,0.03167 h 0.827748 c 0.07217,0 0.116883,-0.03478 0.134319,-0.10439 0.03226,-0.124297 0.06828,-0.355409 0.108051,-0.693474 0.116837,-0.0373 0.229968,-0.08457 0.3393,-0.141733 l 0.514579,0.40273 c 0.03478,0.02233 0.06714,0.0335 0.09693,0.0335 0.05464,0 0.171481,-0.08819 0.350421,-0.264704 0.179032,-0.176469 0.302048,-0.310743 0.369093,-0.40273 0.02238,-0.02485 0.03359,-0.05341 0.03359,-0.08572 0,-0.03231 -0.0124,-0.06348 -0.0373,-0.09322 -0.17894,-0.218756 -0.311933,-0.390237 -0.398977,-0.514534 0.0497,-0.09199 0.09821,-0.205072 0.14544,-0.3393 L 28.1075,50.034883 c 0.02979,-0.005 0.05474,-0.02119 0.0746,-0.04856 0.01986,-0.02737 0.02975,-0.05597 0.02975,-0.08576 V 49.07286 c 4.6e-5,-0.03231 -0.0098,-0.06146 -0.02979,-0.08759 z m -2.158771,1.168878 c -0.1864,0.186446 -0.41138,0.279669 -0.674893,0.279669 -0.263514,0 -0.488448,-0.09322 -0.674894,-0.279669 -0.1864,-0.1864 -0.279622,-0.411334 -0.279622,-0.674847 0,-0.263514 0.09318,-0.488448 0.279622,-0.674894 0.186446,-0.1864 0.411426,-0.279622 0.674894,-0.279622 0.263513,0 0.488493,0.09322 0.674893,0.279622 0.1864,0.186446 0.279623,0.41138 0.279623,0.674894 0,0.263513 -0.09322,0.488447 -0.279623,0.674847 z"
       opacity="0.9"
       id="path1548"
       style="fill:#ffffff;fill-opacity:1;stroke-width:0.0457648;opacity:1" />
  </g>
</svg>
