<?xml version="1.0" encoding="UTF-8"?>
<!-- Created with Inkscape (http://www.inkscape.org/) -->
<svg width="64" height="64" version="1.1" viewBox="0 0 64 64" xmlns="http://www.w3.org/2000/svg" xmlns:cc="http://creativecommons.org/ns#" xmlns:dc="http://purl.org/dc/elements/1.1/" xmlns:rdf="http://www.w3.org/1999/02/22-rdf-syntax-ns#">
 <defs>
  <filter id="filter2761-3" x="-.024" y="-.024" width="1.048" height="1.048" color-interpolation-filters="sRGB">
   <feGaussianBlur stdDeviation="0.14552168"/>
  </filter>
  <linearGradient id="linearGradient1024" x1="1.3315" x2="15.65" y1="15.576" y2="1.17" gradientTransform="matrix(3.7796 0 0 3.7796 -.0026448 .53066)" gradientUnits="userSpaceOnUse">
   <stop stop-color="#dddfe1" offset="0"/>
   <stop stop-color="#f3f4f6" stop-opacity=".99608" offset="1"/>
  </linearGradient>
 </defs>
 <metadata>
  <rdf:RDF>
   <cc:Work rdf:about="">
    <dc:format>image/svg+xml</dc:format>
    <dc:type rdf:resource="http://purl.org/dc/dcmitype/StillImage"/>
    <dc:title/>
   </cc:Work>
  </rdf:RDF>
 </metadata>
 <path transform="matrix(3.7796 0 0 3.7796 .00056722 -.0001887)" d="m10.708 1.1905c4.405 0 5.0345 0.67282 5.0345 5.388v3.7761c0 4.7152-0.62954 5.388-5.0345 5.388h-4.4832c-4.405 0-5.0346-0.6728-5.0346-5.388v-3.7761c0-4.7152 0.62954-5.388 5.0346-5.388z" enable-background="new" fill="#141414" filter="url(#filter2761-3)" opacity=".3"/>
 <path d="m40.473 4.4994c16.649 0 19.028 2.543 19.028 20.364v14.272c0 17.822-2.3794 20.364-19.028 20.364h-16.945c-16.649 0-19.029-2.5429-19.029-20.364v-14.272c0-17.822 2.3794-20.364 19.029-20.364z" enable-background="new" fill="url(#linearGradient1024)" stroke-width="3.7796"/>
 <g transform="matrix(1.6666 0 0 1.6666 4.818 -22.519)">
  <g transform="translate(-46.755 .40346)">
   <g transform="translate(-400.92,-509.18)">
    <g transform="translate(-47.017,-3.1738)">
     <g transform="translate(.41988 .034845)"></g>
    </g>
   </g>
  </g>
  <g transform="translate(-47.291)">
   <g transform="translate(0 .2655)">
    <g transform="matrix(.80911 0 0 .80911 36.38 9.7382)">
     <g transform="translate(-46.755 .40346)">
      <g transform="translate(-400.92,-509.18)">
       <g transform="translate(-47.017,-3.1738)">
        <g transform="translate(.41988 .034845)"></g>
       </g>
      </g>
     </g>
     <g transform="matrix(1.9988,0,0,1.9988,18.097,-2059.5)" fill="#3d434a">
      <g transform="translate(-401.01,510.63)" fill="#3d434a">
       <g transform="translate(5.0558,-5.2511)" fill="#3d434a">
        <g transform="translate(-11.317,5.8825)" fill="#3d434a" stroke="#000" stroke-opacity=".8">
         <g transform="matrix(.78637 0 0 .78395 93.326 112.35)" fill="#3d434a" stroke="none">
          <path id="Documents" d="m409 531-5.244 6.7328c-0.98326 1.2624-0.708 3.5111 0.5505 4.4974 1.2585 0.98629 3.5003 0.71019 4.4835-0.55221l5.8995-7.5744c0.65551-0.8416 0.47201-2.3407-0.36699-2.9983-0.83901-0.65753-2.3335-0.47347-2.989 0.36814l-5.244 6.7328c-0.32776 0.4208-0.236 1.1704 0.1835 1.4991 0.4195 0.32875 1.1668 0.23673 1.4945-0.18407l4.5885-5.8912 0.83901 0.65753-4.5885 5.8912c-0.65551 0.84161-2.15 1.0257-2.989 0.36814-0.83901-0.65753-1.0225-2.1567-0.36702-2.9983l5.244-6.7328c0.98325-1.2624 3.225-1.5385 4.4835-0.55221s1.5338 3.235 0.55051 4.4974l-0.6555 0.84161-5.244 6.7328c-1.311 1.6832-4.3 2.0514-5.978 0.73629-1.678-1.3151-2.045-4.3133-0.73401-5.9965l5.244-6.7328z" fill="#333"/>
         </g>
        </g>
       </g>
      </g>
     </g>
    </g>
   </g>
  </g>
 </g>
</svg>
