<?xml version="1.0" encoding="UTF-8" standalone="no"?>
<svg
   width="64"
   height="64"
   version="1.1"
   id="svg15"
   sodipodi:docname="apps-org.kde.marknote.svg"
   inkscape:version="1.4 (e7c3feb100, 2024-10-09)"
   xmlns:inkscape="http://www.inkscape.org/namespaces/inkscape"
   xmlns:sodipodi="http://sodipodi.sourceforge.net/DTD/sodipodi-0.dtd"
   xmlns="http://www.w3.org/2000/svg"
   xmlns:svg="http://www.w3.org/2000/svg">
  <sodipodi:namedview
     id="namedview15"
     pagecolor="#505050"
     bordercolor="#eeeeee"
     borderopacity="1"
     inkscape:showpageshadow="0"
     inkscape:pageopacity="0"
     inkscape:pagecheckerboard="0"
     inkscape:deskcolor="#505050"
     inkscape:zoom="5.96875"
     inkscape:cx="47.748691"
     inkscape:cy="40.544503"
     inkscape:window-width="1920"
     inkscape:window-height="1007"
     inkscape:window-x="0"
     inkscape:window-y="0"
     inkscape:window-maximized="1"
     inkscape:current-layer="svg15" />
  <defs
     id="defs2">
    <linearGradient
       id="a"
       x1="3.2"
       x2="18"
       y2="24"
       gradientTransform="matrix(2.5184,0,0,2.4554,-70.675513,4.014)"
       gradientUnits="userSpaceOnUse">
      <stop
         offset="0"
         stop-color="#1abc9c"
         id="stop1" />
      <stop
         offset="1"
         stop-color="#16a085"
         id="stop2" />
    </linearGradient>
    <linearGradient
       id="a-3"
       x1="7.9369998"
       x2="7.9369998"
       y1="15.081"
       y2="1.852"
       gradientTransform="matrix(3.7796,0,0,3.7796,-4.902832e-6,-4.4870758e-7)"
       gradientUnits="userSpaceOnUse">
      <stop
         offset="0"
         stop-color="#0ca1a6"
         id="stop1-6" />
      <stop
         offset="1"
         stop-color="#0ed5dc"
         id="stop2-7" />
    </linearGradient>
    <filter
       id="b"
       width="1.110688"
       height="1.2328509"
       x="-0.055343998"
       y="-0.11642545"
       color-interpolation-filters="sRGB">
      <feGaussianBlur
         stdDeviation="1.153"
         id="feGaussianBlur2" />
    </filter>
    <filter
       id="filter1057"
       x="-0.026999999"
       y="-0.026999999"
       width="1.054"
       height="1.054"
       color-interpolation-filters="sRGB">
      <feGaussianBlur
         stdDeviation="0.61875"
         id="feGaussianBlur884" />
    </filter>
    <linearGradient
       id="linearGradient1053"
       x1="-127"
       x2="-72"
       y1="60"
       y2="5"
       gradientTransform="translate(131.49999,-0.50999962)"
       gradientUnits="userSpaceOnUse">
      <stop
         stop-color="#02db96"
         offset="0"
         id="stop887" />
      <stop
         stop-color="#13d39b"
         offset="1"
         id="stop889" />
    </linearGradient>
  </defs>
  <rect
     x="4.4999995"
     y="4.4999995"
     width="55"
     height="55"
     ry="15"
     fill="#141414"
     filter="url(#filter1057)"
     opacity="0.3"
     stroke-linecap="round"
     stroke-width="2.7444"
     id="rect900" />
  <rect
     x="4.5"
     y="4.5"
     width="55"
     height="55"
     ry="15"
     fill="url(#linearGradient1053)"
     stroke-linecap="round"
     stroke-width="2.7444"
     id="rect902"
     style="fill:url(#linearGradient1053)" />
  <path
     fill="#ffffff"
     d="m 19.801173,48.741 v 2.8 h 19.942 l 1.025,-2.8 z"
     style="-inkscape-stroke:none"
     id="path21" />
  <path
     id="rect17"
     style="fill:#28aa78;fill-opacity:1"
     d="M 5.1289062 15.197266 C 4.7240625 16.559905 4.5 18.002471 4.5 19.5 L 4.5 44.5 C 4.5 51.48797 9.2369744 57.314025 15.683594 58.996094 L 15.683594 15.197266 L 5.1289062 15.197266 z " />
  <path
     id="rect23"
     style="fill:#c8ffe6;fill-opacity:1"
     d="M 5.1289062 15.197266 C 4.9927637 15.6555 4.8757901 16.121941 4.7832031 16.597656 L 59.216797 16.597656 C 59.12421 16.121941 59.007236 15.6555 58.871094 15.197266 L 5.1289062 15.197266 z " />
  <path
     id="rect16"
     style="fill:#00ffb2;fill-opacity:1"
     d="m 19.5,4.4999995 c -6.98797,0 -12.8140253,4.7369742 -14.4960938,11.1835935 H 58.996094 C 57.314025,9.2369737 51.48797,4.4999995 44.5,4.4999995 Z" />
  <path
     fill="none"
     stroke="#ffffff"
     stroke-width="2.794"
     d="m 19.801173,41.753 h 11.179 c 2.8,0 4.193,-1.395 6.989,-1.395 2.8,0 4.616,1.395 6.988,1.395 h 11.184 m -36.34,-16.772 h 4.194 c 2.796,0 4.19,-1.4 6.985,-1.4 2.8,0 4.616,1.4 6.988,1.4 h 18.173 m -36.34,8.389 h 18.173 c 2.796,0 4.19,-1.4 6.983,-1.4 2.801,0 4.613,1.4 6.989,1.4 h 4.196"
     id="path19" />
  <path
     fill="#bdc3c7"
     d="m53.69 1.599-2.028.11-21.656 50.092-.261 9.797 6.943-6.91 21.657-50.09-1.313-1.554Z"
     id="path8" />
  <path
     fill-opacity=".2"
     d="M51.656 1.709 30.02 51.801l1.306 1.56L52.976 3.27Z"
     id="path9" />
  <path
     fill="#fff"
     fill-opacity=".2"
     d="m58.338 4.597-2.028.11-21.65 50.098 2.028-.116Z"
     id="path10" />
  <path
     fill-opacity=".2"
     d="m31.319 53.355 3.341 1.444-4.915 6.799z"
     id="path11" />
  <path
     fill-opacity=".4"
     d="m30.013 51.801 1.306 1.56-1.581 8.237z"
     id="path12" />
  <path
     fill-opacity=".2"
     d="m53.69 1.599-2.028.11 1.307 1.56 3.341 1.444 2.028-.116-1.306-1.554z"
     id="path13" />
  <path
     fill="#fff"
     fill-opacity=".4"
     d="m31.456 48.467-.721 1.67 1.306 1.554 3.341 1.444 2.028-.117.722-1.664-2.028.11-3.341-1.444Zm19.12-44.255-.722 1.67 1.307 1.56 3.34 1.445 2.036-.117.722-1.67-2.035.116-3.335-1.444zm-1.444 3.34-.722 1.671 1.307 1.561 3.341 1.444 2.035-.117.722-1.67-2.035.116-3.334-1.444z"
     id="path14" />
  <path
     fill-opacity=".266"
     d="m33.91 57.452-1.326.227-1.925-.832-.756-1.107-.158 5.858Z"
     id="path15" />
</svg>
