<?xml version="1.0" encoding="UTF-8" standalone="no"?>
<svg
   xmlns:dc="http://purl.org/dc/elements/1.1/"
   xmlns:cc="http://creativecommons.org/ns#"
   xmlns:rdf="http://www.w3.org/1999/02/22-rdf-syntax-ns#"
   xmlns:svg="http://www.w3.org/2000/svg"
   xmlns="http://www.w3.org/2000/svg"
   xmlns:xlink="http://www.w3.org/1999/xlink"
   xmlns:sodipodi="http://sodipodi.sourceforge.net/DTD/sodipodi-0.dtd"
   xmlns:inkscape="http://www.inkscape.org/namespaces/inkscape"
   width="64"
   height="64"
   version="1.1"
   id="svg56"
   sodipodi:docname="artikulate.svg"
   inkscape:version="1.0.1 (3bc2e813f5, 2020-09-07)">
  <sodipodi:namedview
     pagecolor="#ffffff"
     bordercolor="#666666"
     borderopacity="1"
     objecttolerance="10"
     gridtolerance="10"
     guidetolerance="10"
     inkscape:pageopacity="0"
     inkscape:pageshadow="2"
     inkscape:window-width="1920"
     inkscape:window-height="1004"
     id="namedview58"
     showgrid="false"
     inkscape:zoom="3.2460938"
     inkscape:cx="5.7483314"
     inkscape:cy="11.419354"
     inkscape:window-x="0"
     inkscape:window-y="0"
     inkscape:window-maximized="1"
     inkscape:current-layer="svg56" />
  <metadata
     id="metadata2">
    <rdf:RDF>
      <cc:Work
         rdf:about="">
        <dc:format>image/svg+xml</dc:format>
        <dc:type
           rdf:resource="http://purl.org/dc/dcmitype/StillImage" />
        <dc:title></dc:title>
      </cc:Work>
    </rdf:RDF>
  </metadata>
  <defs
     id="defs28">
    <filter
       id="filter2761"
       x="-.024"
       y="-.024"
       width="1.048"
       height="1.048"
       color-interpolation-filters="sRGB">
      <feGaussianBlur
         stdDeviation="0.14552168"
         id="feGaussianBlur4" />
    </filter>
    <linearGradient
       id="linearGradient1024"
       x1="1.3315"
       x2="15.65"
       y1="15.576"
       y2="1.17"
       gradientTransform="matrix(3.7796,0,0,3.7796,4.0615614,-18.643937)"
       gradientUnits="userSpaceOnUse">
      <stop
         stop-color="#00c8ff"
         offset="0"
         id="stop7" />
      <stop
         stop-color="#14a0ff"
         offset="1"
         id="stop9" />
    </linearGradient>
    <filter
       id="filter985"
       x="-.059096"
       y="-.060921"
       width="1.1182"
       height="1.1218"
       color-interpolation-filters="sRGB">
      <feGaussianBlur
         stdDeviation="0.21619832"
         id="feGaussianBlur12" />
    </filter>
    <filter
       id="filter1015"
       x="-.084"
       y="-.084"
       width="1.168"
       height="1.168"
       color-interpolation-filters="sRGB">
      <feGaussianBlur
         stdDeviation="0.3089756"
         id="feGaussianBlur15" />
    </filter>
    <linearGradient
       id="linearGradient1025"
       x1="7.9876"
       x2="12.91"
       y1="7.7203"
       y2="12.495"
       gradientUnits="userSpaceOnUse">
      <stop
         stop-color="#fafaff"
         offset="0"
         id="stop18" />
      <stop
         stop-color="#a1d8ff"
         offset="1"
         id="stop20" />
    </linearGradient>
    <linearGradient
       id="linearGradient942"
       x1="7.9876"
       x2="12.91"
       y1="7.7203"
       y2="12.495"
       gradientUnits="userSpaceOnUse"
       xlink:href="#linearGradient1025" />
    <linearGradient
       id="linearGradient868"
       x1="80.51"
       x2="76.003"
       y1="10.784"
       y2="36.576"
       gradientTransform="matrix(1.1238 0 0 1.1238 -38.794 6.6035)"
       gradientUnits="userSpaceOnUse"
       xlink:href="#linearGradient1025" />
    <filter
       id="filter878"
       x="-.20005"
       y="-.053161"
       width="1.4001"
       height="1.1063"
       color-interpolation-filters="sRGB">
      <feGaussianBlur
         stdDeviation="0.57393035"
         id="feGaussianBlur25" />
    </filter>
    <style
       id="style4"
       type="text/css" />
    <filter
       color-interpolation-filters="sRGB"
       height="1.048"
       width="1.048"
       y="-.024"
       x="-.024"
       id="filter2761-6">
      <feGaussianBlur
         id="feGaussianBlur6"
         stdDeviation="0.14552168" />
    </filter>
    <linearGradient
       gradientUnits="userSpaceOnUse"
       gradientTransform="matrix(3.7796,0,0,3.7796,110.07575,0.53066)"
       y2="1.1082"
       y1="15.429"
       x2="15.644"
       x1="1.2573"
       id="linearGradient4673">
      <stop
         id="stop9-7"
         offset="0"
         stop-color="#32dcff" />
      <stop
         id="stop11"
         offset="1"
         stop-color="#3296ff" />
    </linearGradient>
    <linearGradient
       gradientUnits="userSpaceOnUse"
       gradientTransform="matrix(1.0000066,0,0,1.0000066,19.187825,0)"
       y2="1.0583"
       y1="6.879"
       x2="7.9373"
       x1="7.9373"
       id="linearGradient865">
      <stop
         id="stop2"
         offset="0"
         stop-color="#fff" />
      <stop
         id="stop4"
         offset="1"
         stop-color="#fcc" />
    </linearGradient>
    <linearGradient
       gradientTransform="translate(19.187825)"
       gradientUnits="userSpaceOnUse"
       y2="3.9327"
       y1="14.579"
       x2="12.314"
       x1="2.6278"
       id="linearGradient855">
      <stop
         id="stop7-5"
         offset="0"
         stop-color="#d462aa" />
      <stop
         id="stop9-3"
         offset=".15178"
         stop-color="#56c7d9" />
      <stop
         id="stop11-6"
         offset=".33294"
         stop-color="#2da8b8" />
      <stop
         id="stop13"
         offset=".53353"
         stop-color="#72cb6b" />
      <stop
         id="stop15"
         offset=".71019"
         stop-color="#c4dc2b" />
      <stop
         id="stop17"
         offset=".8623"
         stop-color="#f9da3e" />
      <stop
         id="stop19"
         offset="1"
         stop-color="#f69429" />
    </linearGradient>
    <linearGradient
       gradientUnits="userSpaceOnUse"
       gradientTransform="matrix(0.26458,0,0,0.26458,19.187825,0)"
       y2="6.9915"
       y1="19"
       x2="57.008"
       x1="45"
       id="linearGradient910">
      <stop
         id="stop22"
         offset="0"
         stop-color="#fff" />
      <stop
         id="stop24"
         offset="1"
         stop-color="#ffe3cc" />
    </linearGradient>
    <filter
       inkscape:collect="always"
       style="color-interpolation-filters:sRGB"
       id="filter1057"
       x="-0.027000001"
       width="1.054"
       y="-0.027000001"
       height="1.054">
      <feGaussianBlur
         inkscape:collect="always"
         stdDeviation="0.61875"
         id="feGaussianBlur1059" />
    </filter>
    <linearGradient
       inkscape:collect="always"
       xlink:href="#linearGradient1051"
       id="linearGradient1053"
       x1="-127"
       y1="60"
       x2="-72"
       y2="5"
       gradientUnits="userSpaceOnUse"
       gradientTransform="translate(131.5,-0.50999782)" />
    <linearGradient
       inkscape:collect="always"
       id="linearGradient1051">
      <stop
         style="stop-color:#32d7ff;stop-opacity:1"
         offset="0"
         id="stop1047" />
      <stop
         style="stop-color:#329bff;stop-opacity:1"
         offset="1"
         id="stop1049" />
    </linearGradient>
    <style
       type="text/css"
       id="style872" />
    <filter
       id="filter2761-7"
       x="-.024"
       y="-.024"
       width="1.048"
       height="1.048"
       color-interpolation-filters="sRGB">
      <feGaussianBlur
         stdDeviation="0.14552168"
         id="feGaussianBlur874" />
    </filter>
    <style
       id="style4-5"
       type="text/css" />
    <style
       id="style6"
       type="text/css" />
    <style
       id="style8"
       type="text/css" />
    <filter
       color-interpolation-filters="sRGB"
       height="1.048"
       width="1.048"
       y="-.024"
       x="-.024"
       id="filter2761-36">
      <feGaussianBlur
         id="feGaussianBlur10"
         stdDeviation="0.14552168" />
    </filter>
    <linearGradient
       gradientUnits="userSpaceOnUse"
       gradientTransform="matrix(3.7796,0,0,3.7796,111.78704,0.53107)"
       y2="1.17"
       y1="15.576"
       x2="15.65"
       x1="1.3315"
       id="linearGradient1024-6">
      <stop
         id="stop13-7"
         offset="0"
         stop-color="#00dc96" />
      <stop
         id="stop15-5"
         offset="1"
         stop-color="#14d29b" />
    </linearGradient>
    <linearGradient
       gradientUnits="userSpaceOnUse"
       gradientTransform="matrix(0.27476,0,0,0.27476,-24.952118,-0.32515)"
       y2="12.461"
       y1="57.955"
       x2="45.628"
       x1="45.628"
       id="b">
      <stop
         id="stop2-3"
         offset="0" />
      <stop
         id="stop4-5"
         offset="1"
         stop-opacity="0" />
    </linearGradient>
    <style
       type="text/css"
       id="style872-0" />
    <style
       type="text/css"
       id="style874" />
    <style
       type="text/css"
       id="style876" />
    <filter
       id="filter2761-3"
       x="-.024"
       y="-.024"
       width="1.048"
       height="1.048"
       color-interpolation-filters="sRGB">
      <feGaussianBlur
         stdDeviation="0.14552168"
         id="feGaussianBlur878" />
    </filter>
    <linearGradient
       id="linearGradient1024-6-6"
       x1="1.3315"
       x2="15.65"
       y1="15.576"
       y2="1.17"
       gradientTransform="matrix(3.7796,0,0,3.7796,-0.0020773,0.53047)"
       gradientUnits="userSpaceOnUse">
      <stop
         stop-color="#00dc96"
         offset="0"
         id="stop881" />
      <stop
         stop-color="#14d29b"
         offset="1"
         id="stop883" />
    </linearGradient>
  </defs>
  <rect
     ry="15"
     y="4.4999995"
     x="4.4999995"
     height="55"
     width="55"
     id="rect1055"
     style="opacity:0.3;fill:#141414;fill-opacity:1;stroke-width:2.74436;stroke-linecap:round;filter:url(#filter1057)" />
  <rect
     style="fill:url(#linearGradient1053);fill-opacity:1;stroke-width:2.74436;stroke-linecap:round"
     id="rect1045"
     width="54.999996"
     height="54.999996"
     x="4.5000019"
     y="4.5000019"
     ry="14.999999" />
  <circle
     transform="matrix(3.2799 0 0 3.2799 .084028 6.251)"
     cx="8.4674"
     cy="8.326"
     r="4.4139"
     fill="#1496ff"
     filter="url(#filter1015)"
     id="circle34" />
  <g
     transform="matrix(3.2799 0 0 3.2799 -.70455 5.292)"
     id="g46">
    <path
       d="m13.048 7.8742a2.6848 5.7985 52.956 0 1-0.18913 0.32349 2.6848 5.7985 52.956 0 1-0.27698 0.40824 2.6848 5.7985 52.956 0 1-0.31625 0.40927 2.6848 5.7985 52.956 0 1-0.35191 0.4072 2.6848 5.7985 52.956 0 1-0.38395 0.39997 2.6848 5.7985 52.956 0 1-0.41289 0.38912 2.6848 5.7985 52.956 0 1-0.43666 0.37465 2.6848 5.7985 52.956 0 1-0.32194 0.25424 2.6848 5.7985 52.956 0 1-0.46818 0.34106 2.6848 5.7985 52.956 0 1-0.48058 0.31677 2.6848 5.7985 52.956 0 1-0.48782 0.28887 2.6848 5.7985 52.956 0 1-0.48988 0.25838 2.6848 5.7985 52.956 0 1-0.4873 0.22582 2.6848 5.7985 52.956 0 1-0.48058 0.19068 2.6848 5.7985 52.956 0 1-0.3979 0.13022 4.4139 4.4139 0 0 0 1.6159 0.31057 4.4139 4.4139 0 0 0 4.4136-4.4141 4.4139 4.4139 0 0 0-0.04754-0.61442z"
       fill="#fff"
       opacity=".55"
       id="path36" />
    <path
       transform="matrix(.93108 0 0 .94458 .98435 .77737)"
       d="m8.6817 4.075a4.4139 4.4139 0 0 0-4.4141 4.4136 4.4139 4.4139 0 0 0 0.11989 0.99889 4.4139 4.4139 0 0 0 2.6783 3.1047 2.6848 5.7985 52.956 0 0 0.3979-0.13022 2.6848 5.7985 52.956 0 0 0.48058-0.19068 2.6848 5.7985 52.956 0 0 0.4873-0.22582 2.6848 5.7985 52.956 0 0 0.48988-0.25838 2.6848 5.7985 52.956 0 0 0.48782-0.28887 2.6848 5.7985 52.956 0 0 0.48058-0.31677 2.6848 5.7985 52.956 0 0 0.46818-0.34106 2.6848 5.7985 52.956 0 0 0.32194-0.25424 2.6848 5.7985 52.956 0 0 0.43666-0.37465 2.6848 5.7985 52.956 0 0 0.41289-0.38912 2.6848 5.7985 52.956 0 0 0.38395-0.39997 2.6848 5.7985 52.956 0 0 0.35191-0.4072 2.6848 5.7985 52.956 0 0 0.31625-0.40927 2.6848 5.7985 52.956 0 0 0.27698-0.40824 2.6848 5.7985 52.956 0 0 0.18913-0.32349 4.4139 4.4139 0 0 0-2.0665-3.147 4.4139 4.4139 0 0 0-2.2996-0.65214z"
       fill="#0096ff"
       filter="url(#filter985)"
       opacity=".25"
       id="path38" />
    <path
       d="m8.6817 4.075a4.4139 4.4139 0 0 0-4.4141 4.4136 4.4139 4.4139 0 0 0 0.11989 0.99889 4.4139 4.4139 0 0 0 2.6783 3.1047 2.6848 5.7985 52.956 0 0 0.3979-0.13022 2.6848 5.7985 52.956 0 0 0.48058-0.19068 2.6848 5.7985 52.956 0 0 0.4873-0.22582 2.6848 5.7985 52.956 0 0 0.48988-0.25838 2.6848 5.7985 52.956 0 0 0.48782-0.28887 2.6848 5.7985 52.956 0 0 0.48058-0.31677 2.6848 5.7985 52.956 0 0 0.46818-0.34106 2.6848 5.7985 52.956 0 0 0.32194-0.25424 2.6848 5.7985 52.956 0 0 0.43666-0.37465 2.6848 5.7985 52.956 0 0 0.41289-0.38912 2.6848 5.7985 52.956 0 0 0.38395-0.39997 2.6848 5.7985 52.956 0 0 0.35191-0.4072 2.6848 5.7985 52.956 0 0 0.31625-0.40927 2.6848 5.7985 52.956 0 0 0.27698-0.40824 2.6848 5.7985 52.956 0 0 0.18913-0.32349 4.4139 4.4139 0 0 0-2.0665-3.147 4.4139 4.4139 0 0 0-2.2996-0.65214z"
       fill="url(#linearGradient942)"
       id="path40" />
    <path
       d="m13.039 7.8737a2.6848 5.7985 52.956 0 0 0.2408-2.6515 2.6848 5.7985 52.956 0 0-2.3083-0.49505 4.4139 4.4139 0 0 1 0.19327 0.11885 4.4139 4.4139 0 0 1 0.35139 0.26665 4.4139 4.4139 0 0 1 0.32297 0.30075 4.4139 4.4139 0 0 1 0.29093 0.33176 4.4139 4.4139 0 0 1 0.25683 0.35863 4.4139 4.4139 0 0 1 0.21962 0.38292 4.4139 4.4139 0 0 1 0.18035 0.40255 4.4139 4.4139 0 0 1 0.13901 0.41857 4.4139 4.4139 0 0 1 0.09663 0.43046 4.4139 4.4139 0 0 1 0.01654 0.13539z"
       fill="#fff"
       opacity=".55"
       id="path42" />
    <path
       d="m4.4055 9.4875a2.6848 5.7985 52.956 0 0-0.31315 2.7755 2.6848 5.7985 52.956 0 0 2.9915 0.32917 4.4139 4.4139 0 0 1-0.10335-0.03772 4.4139 4.4139 0 0 1-0.39739-0.19223 4.4139 4.4139 0 0 1-0.37568-0.23047 4.4139 4.4139 0 0 1-0.35139-0.26716 4.4139 4.4139 0 0 1-0.32297-0.30075 4.4139 4.4139 0 0 1-0.29093-0.33124 4.4139 4.4139 0 0 1-0.25683-0.35914 4.4139 4.4139 0 0 1-0.21962-0.3824 4.4139 4.4139 0 0 1-0.18035-0.40307 4.4139 4.4139 0 0 1-0.13901-0.41857 4.4139 4.4139 0 0 1-0.04082-0.1819z"
       fill="#fff"
       opacity=".55"
       id="path44" />
  </g>
  <g
     transform="matrix(1.1238 0 0 1.1238 -5.5009 -6.0026)"
     fill="#1496ff"
     filter="url(#filter878)"
     style="font-feature-settings:normal;font-variant-caps:normal;font-variant-ligatures:normal;font-variant-numeric:normal"
     aria-label="!"
     id="g50">
    <path
       d="m51.938 23.583-2.8657 17.274q-0.199 1.1144-1.6716 1.2736-0.99502 0-1.1542-1.5124l2.9055-17.353q0.0796-1.2736 1.592-1.2736 1.194 0 1.194 1.592zm-3.3831 22.488q0 0.87562-0.43781 1.3532-0.55721 0.47761-1.3134 0.47761t-1.2736-0.55721q-0.47761-0.51741-0.47761-1.2736 0-1.8706 1.7512-1.8706 0.71642 0 1.2338 0.47761 0.51741 0.47761 0.51741 1.393z"
       fill="#1496ff"
       id="path48" />
  </g>
  <g
     fill="url(#linearGradient868)"
     style="font-feature-settings:normal;font-variant-caps:normal;font-variant-ligatures:normal;font-variant-numeric:normal"
     aria-label="!"
     id="g54">
    <path
       d="m52.864 20.498-3.2203 19.411q-0.22363 1.2523-1.8785 1.4313-1.1182 0-1.2971-1.6996l3.265-19.501q0.08945-1.4313 1.7891-1.4313 1.3418 0 1.3418 1.7891zm-3.8018 25.271q0 0.98399-0.49199 1.5207-0.62617 0.53672-1.476 0.53672t-1.4313-0.62617q-0.53672-0.58145-0.53672-1.4313 0-2.1022 1.968-2.1022 0.80508 0 1.3865 0.53672 0.58145 0.53672 0.58145 1.5654z"
       fill="url(#linearGradient868)"
       stroke-width="1.1238"
       id="path52" />
  </g>
  <circle
     id="circle16"
     fill="#5e4aa6"
     r="0"
     cy="-1315.4388"
     cx="-1228.0315" />
  <g
     id="g26"
     stroke-width="0.26458"
     fill="#5e4aa6"
     transform="matrix(3.7796,0,0,3.7796,20.59856,-74.32283)">
    <circle
       id="circle18"
       r="0"
       cy="-338.76999"
       cx="-299.01999" />
    <circle
       id="circle20"
       fill-rule="evenodd"
       r="0"
       cy="-3.9487"
       cx="-8.1062002" />
    <circle
       id="circle22"
       r="0"
       cy="-357.69"
       cx="-278.25" />
    <circle
       id="circle24"
       fill-rule="evenodd"
       r="0"
       cy="-22.858999"
       cx="12.663" />
  </g>
</svg>
