<?xml version="1.0" encoding="UTF-8" standalone="no"?>
<svg
   xmlns:dc="http://purl.org/dc/elements/1.1/"
   xmlns:cc="http://creativecommons.org/ns#"
   xmlns:rdf="http://www.w3.org/1999/02/22-rdf-syntax-ns#"
   xmlns:svg="http://www.w3.org/2000/svg"
   xmlns="http://www.w3.org/2000/svg"
   xmlns:xlink="http://www.w3.org/1999/xlink"
   xmlns:sodipodi="http://sodipodi.sourceforge.net/DTD/sodipodi-0.dtd"
   xmlns:inkscape="http://www.inkscape.org/namespaces/inkscape"
   width="64"
   height="64"
   version="1.1"
   id="svg58"
   sodipodi:docname="asc-de.svg"
   inkscape:version="1.0.1 (3bc2e813f5, 2020-09-07)">
  <sodipodi:namedview
     pagecolor="#ffffff"
     bordercolor="#666666"
     borderopacity="1"
     objecttolerance="10"
     gridtolerance="10"
     guidetolerance="10"
     inkscape:pageopacity="0"
     inkscape:pageshadow="2"
     inkscape:window-width="1920"
     inkscape:window-height="1004"
     id="namedview60"
     showgrid="false"
     inkscape:zoom="3.2460938"
     inkscape:cx="0.94433425"
     inkscape:cy="48.456528"
     inkscape:window-x="0"
     inkscape:window-y="0"
     inkscape:window-maximized="1"
     inkscape:current-layer="svg58" />
  <metadata
     id="metadata2">
    <rdf:RDF>
      <cc:Work
         rdf:about="">
        <dc:format>image/svg+xml</dc:format>
        <dc:type
           rdf:resource="http://purl.org/dc/dcmitype/StillImage" />
        <dc:title></dc:title>
      </cc:Work>
    </rdf:RDF>
  </metadata>
  <defs
     id="defs30">
    <filter
       id="filter2761"
       x="-.024"
       y="-.024"
       width="1.048"
       height="1.048"
       color-interpolation-filters="sRGB">
      <feGaussianBlur
         stdDeviation="0.14552168"
         id="feGaussianBlur4" />
    </filter>
    <linearGradient
       id="linearGradient1024"
       x1="1.3315"
       x2="15.65"
       y1="15.576"
       y2="1.17"
       gradientTransform="matrix(3.7796 0 0 3.7796 -.0031954 .53086)"
       gradientUnits="userSpaceOnUse">
      <stop
         stop-color="#00c8ff"
         offset="0"
         id="stop7" />
      <stop
         stop-color="#14a0ff"
         offset="1"
         id="stop9" />
    </linearGradient>
    <linearGradient
       id="linearGradient1025"
       x1="7.9876"
       x2="12.91"
       y1="7.7203"
       y2="12.495"
       gradientUnits="userSpaceOnUse">
      <stop
         stop-color="#fafaff"
         offset="0"
         id="stop12" />
      <stop
         stop-color="#a1d8ff"
         offset="1"
         id="stop14" />
    </linearGradient>
    <linearGradient
       id="linearGradient965"
       x1="32"
       x2="32"
       y1="17.792"
       y2="30.42"
       gradientUnits="userSpaceOnUse"
       xlink:href="#linearGradient1025" />
    <linearGradient
       id="linearGradient973"
       x1="32"
       x2="32"
       y1="29.34"
       y2="40.61"
       gradientUnits="userSpaceOnUse"
       xlink:href="#linearGradient1025" />
    <linearGradient
       id="linearGradient981"
       x1="32.001"
       x2="32.001"
       y1="41.088"
       y2="50.8"
       gradientUnits="userSpaceOnUse"
       xlink:href="#linearGradient1025" />
    <linearGradient
       id="linearGradient989"
       x1="32.024"
       x2="32.024"
       y1="23.21"
       y2="30.736"
       gradientUnits="userSpaceOnUse">
      <stop
         stop-color="#fafaff"
         stop-opacity=".78431"
         offset="0"
         id="stop20" />
      <stop
         stop-color="#a1d8ff"
         offset="1"
         id="stop22" />
    </linearGradient>
    <linearGradient
       id="linearGradient999"
       x1="32"
       x2="32"
       y1="33.359"
       y2="40.723"
       gradientUnits="userSpaceOnUse">
      <stop
         stop-color="#fafaff"
         stop-opacity=".78431"
         offset="0"
         id="stop25" />
      <stop
         stop-color="#a1d8ff"
         offset="1"
         id="stop27" />
    </linearGradient>
    <style
       id="style4"
       type="text/css" />
    <filter
       color-interpolation-filters="sRGB"
       height="1.048"
       width="1.048"
       y="-.024"
       x="-.024"
       id="filter2761-6">
      <feGaussianBlur
         id="feGaussianBlur6"
         stdDeviation="0.14552168" />
    </filter>
    <linearGradient
       gradientUnits="userSpaceOnUse"
       gradientTransform="matrix(3.7796,0,0,3.7796,110.07575,0.53066)"
       y2="1.1082"
       y1="15.429"
       x2="15.644"
       x1="1.2573"
       id="linearGradient4673">
      <stop
         id="stop9-7"
         offset="0"
         stop-color="#32dcff" />
      <stop
         id="stop11"
         offset="1"
         stop-color="#3296ff" />
    </linearGradient>
    <linearGradient
       gradientUnits="userSpaceOnUse"
       gradientTransform="matrix(1.0000066,0,0,1.0000066,19.187825,0)"
       y2="1.0583"
       y1="6.879"
       x2="7.9373"
       x1="7.9373"
       id="linearGradient865">
      <stop
         id="stop2"
         offset="0"
         stop-color="#fff" />
      <stop
         id="stop4"
         offset="1"
         stop-color="#fcc" />
    </linearGradient>
    <linearGradient
       gradientTransform="translate(19.187825)"
       gradientUnits="userSpaceOnUse"
       y2="3.9327"
       y1="14.579"
       x2="12.314"
       x1="2.6278"
       id="linearGradient855">
      <stop
         id="stop7-5"
         offset="0"
         stop-color="#d462aa" />
      <stop
         id="stop9-3"
         offset=".15178"
         stop-color="#56c7d9" />
      <stop
         id="stop11-6"
         offset=".33294"
         stop-color="#2da8b8" />
      <stop
         id="stop13"
         offset=".53353"
         stop-color="#72cb6b" />
      <stop
         id="stop15"
         offset=".71019"
         stop-color="#c4dc2b" />
      <stop
         id="stop17"
         offset=".8623"
         stop-color="#f9da3e" />
      <stop
         id="stop19"
         offset="1"
         stop-color="#f69429" />
    </linearGradient>
    <linearGradient
       gradientUnits="userSpaceOnUse"
       gradientTransform="matrix(0.26458,0,0,0.26458,19.187825,0)"
       y2="6.9915"
       y1="19"
       x2="57.008"
       x1="45"
       id="linearGradient910">
      <stop
         id="stop22-3"
         offset="0"
         stop-color="#fff" />
      <stop
         id="stop24"
         offset="1"
         stop-color="#ffe3cc" />
    </linearGradient>
    <filter
       inkscape:collect="always"
       style="color-interpolation-filters:sRGB"
       id="filter1057"
       x="-0.027000001"
       width="1.054"
       y="-0.027000001"
       height="1.054">
      <feGaussianBlur
         inkscape:collect="always"
         stdDeviation="0.61875"
         id="feGaussianBlur1059" />
    </filter>
    <linearGradient
       inkscape:collect="always"
       xlink:href="#linearGradient1051"
       id="linearGradient1053"
       x1="-127"
       y1="60"
       x2="-72"
       y2="5"
       gradientUnits="userSpaceOnUse"
       gradientTransform="translate(131.5,-0.50999645)" />
    <linearGradient
       inkscape:collect="always"
       id="linearGradient1051">
      <stop
         style="stop-color:#32d7ff;stop-opacity:1"
         offset="0"
         id="stop1047" />
      <stop
         style="stop-color:#329bff;stop-opacity:1"
         offset="1"
         id="stop1049" />
    </linearGradient>
    <style
       type="text/css"
       id="style872" />
    <filter
       id="filter2761-7"
       x="-.024"
       y="-.024"
       width="1.048"
       height="1.048"
       color-interpolation-filters="sRGB">
      <feGaussianBlur
         stdDeviation="0.14552168"
         id="feGaussianBlur874" />
    </filter>
    <style
       id="style4-5"
       type="text/css" />
    <style
       id="style6"
       type="text/css" />
    <style
       id="style8"
       type="text/css" />
    <filter
       color-interpolation-filters="sRGB"
       height="1.048"
       width="1.048"
       y="-.024"
       x="-.024"
       id="filter2761-36">
      <feGaussianBlur
         id="feGaussianBlur10"
         stdDeviation="0.14552168" />
    </filter>
    <linearGradient
       gradientUnits="userSpaceOnUse"
       gradientTransform="matrix(3.7796,0,0,3.7796,111.78704,0.53107)"
       y2="1.17"
       y1="15.576"
       x2="15.65"
       x1="1.3315"
       id="linearGradient1024-6">
      <stop
         id="stop13-7"
         offset="0"
         stop-color="#00dc96" />
      <stop
         id="stop15-5"
         offset="1"
         stop-color="#14d29b" />
    </linearGradient>
    <linearGradient
       gradientUnits="userSpaceOnUse"
       gradientTransform="matrix(0.27476,0,0,0.27476,-24.952118,-0.32515)"
       y2="12.461"
       y1="57.955"
       x2="45.628"
       x1="45.628"
       id="b">
      <stop
         id="stop2-3"
         offset="0" />
      <stop
         id="stop4-5"
         offset="1"
         stop-opacity="0" />
    </linearGradient>
    <style
       type="text/css"
       id="style872-0" />
    <style
       type="text/css"
       id="style874" />
    <style
       type="text/css"
       id="style876" />
    <filter
       id="filter2761-3"
       x="-.024"
       y="-.024"
       width="1.048"
       height="1.048"
       color-interpolation-filters="sRGB">
      <feGaussianBlur
         stdDeviation="0.14552168"
         id="feGaussianBlur878" />
    </filter>
    <linearGradient
       id="linearGradient1024-6-6"
       x1="1.3315"
       x2="15.65"
       y1="15.576"
       y2="1.17"
       gradientTransform="matrix(3.7796,0,0,3.7796,-0.0020773,0.53047)"
       gradientUnits="userSpaceOnUse">
      <stop
         stop-color="#00dc96"
         offset="0"
         id="stop881" />
      <stop
         stop-color="#14d29b"
         offset="1"
         id="stop883" />
    </linearGradient>
  </defs>
  <rect
     ry="15"
     y="4.4999995"
     x="4.4999995"
     height="55"
     width="55"
     id="rect1055"
     style="opacity:0.3;fill:#141414;fill-opacity:1;stroke-width:2.74436;stroke-linecap:round;filter:url(#filter1057)" />
  <rect
     style="fill:url(#linearGradient1053);fill-opacity:1;stroke-width:2.74436;stroke-linecap:round"
     id="rect1045"
     width="54.999996"
     height="54.999996"
     x="4.5000019"
     y="4.5000019"
     ry="14.999999" />
  <path
     d="m32 33.359c0.49599 0 1.0449 0.17597 2.2067 0.56295l17.091 6.9906c0.68053 0.3426 0.94682 0.79654 0.94682 1.2069 0 0.40878-0.26629 0.86273-0.9476 1.2053l-17.122 7.0046-0.01246 0.0078c-1.4638 0.73192-2.8607 0.73192-4.3245 0l-0.01246-0.0078-17.122-7.0046c-0.6813-0.3426-0.9476-0.79654-0.9476-1.2061s0.26629-0.86351 0.9476-1.2061l17.084-6.989h0.0062c1.1618-0.38698 1.7107-0.56295 2.2067-0.56295z"
     fill="url(#linearGradient981)"
     overflow="visible"
     stroke-width=".77863"
     style="font-feature-settings:normal;font-variant-alternates:normal;font-variant-caps:normal;font-variant-ligatures:normal;font-variant-numeric:normal;font-variant-position:normal;isolation:auto;mix-blend-mode:normal;shape-padding:0;text-decoration-color:#000000;text-decoration-line:none;text-decoration-style:solid;text-indent:0;text-orientation:mixed;text-transform:none;white-space:normal"
     id="path36" />
  <path
     d="m32 33.359v0.0023c-0.49599 0-1.0449 0.17519-2.2066 0.56218h-0.0062l-12.496 5.1133 12.226 5.0019c1.6328 0.80744 3.3326 0.80744 4.9661 0l12.226-5.0019-12.503-5.1149c-1.1617-0.38698-1.7107-0.56217-2.2066-0.56217z"
     fill-opacity=".078"
     opacity=".5"
     overflow="visible"
     stroke-width=".77863"
     style="font-feature-settings:normal;font-variant-alternates:normal;font-variant-caps:normal;font-variant-ligatures:normal;font-variant-numeric:normal;font-variant-position:normal;isolation:auto;mix-blend-mode:normal;shape-padding:0;text-decoration-color:#000000;text-decoration-line:none;text-decoration-style:solid;text-indent:0;text-orientation:mixed;text-transform:none;white-space:normal"
     id="path38" />
  <g
     stroke-width=".77863"
     id="g46">
    <path
       d="m32 23.236c0.49599 0 1.0449 0.17597 2.2067 0.56295l17.091 6.9914c0.68053 0.3426 0.94682 0.79576 0.94682 1.2053 0 0.41034-0.26629 0.86428-0.9476 1.2069l-17.122 7.0038-0.01246 0.0078c-1.4638 0.73192-2.8607 0.73192-4.3245 0l-0.01246-0.0078-17.122-7.0046c-0.6813-0.34182-0.9476-0.79576-0.9476-1.2061 0-0.40956 0.26629-0.86351 0.9476-1.2053l17.084-6.9898h0.0062c1.1618-0.38698 1.7107-0.56295 2.2067-0.56295z"
       fill="url(#linearGradient973)"
       overflow="visible"
       style="font-feature-settings:normal;font-variant-alternates:normal;font-variant-caps:normal;font-variant-ligatures:normal;font-variant-numeric:normal;font-variant-position:normal;isolation:auto;mix-blend-mode:normal;shape-padding:0;text-decoration-color:#000000;text-decoration-line:none;text-decoration-style:solid;text-indent:0;text-orientation:mixed;text-transform:none;white-space:normal"
       id="path40" />
    <path
       d="m32 32.575v0.0078c-0.6704 0-1.291 0.21412-2.4589 0.60344l-0.01246 0.0078-0.01168 0.0078-8.41 3.4416 8.7184 3.5661 0.01246 0.0078c1.4638 0.73192 2.8607 0.73192 4.3245 0l0.01246-0.0078 8.7277-3.5708-8.4311-3.4494-0.01246-0.0086c-1.168-0.38932-1.7885-0.60423-2.4589-0.60423z"
       fill="#0aa8f0"
       overflow="visible"
       style="font-feature-settings:normal;font-variant-alternates:normal;font-variant-caps:normal;font-variant-ligatures:normal;font-variant-numeric:normal;font-variant-position:normal;isolation:auto;mix-blend-mode:normal;shape-padding:0;text-decoration-color:#000000;text-decoration-line:none;text-decoration-style:solid;text-indent:0;text-orientation:mixed;text-transform:none;white-space:normal"
       id="path42" />
    <path
       d="m32 33.359v0.0023c-0.49599 0-1.0449 0.17519-2.2066 0.56218h-0.0062l-7.6618 3.1348 7.6999 3.1496 0.01246 0.0078c1.4638 0.73192 2.8607 0.73192 4.3245 0l0.01246-0.0078 7.6984-3.1504-7.6664-3.1363c-1.1618-0.38695-1.7107-0.56214-2.2067-0.56214z"
       fill="url(#linearGradient999)"
       overflow="visible"
       style="font-feature-settings:normal;font-variant-alternates:normal;font-variant-caps:normal;font-variant-ligatures:normal;font-variant-numeric:normal;font-variant-position:normal;isolation:auto;mix-blend-mode:normal;shape-padding:0;text-decoration-color:#000000;text-decoration-line:none;text-decoration-style:solid;text-indent:0;text-orientation:mixed;text-transform:none;white-space:normal"
       id="path44" />
  </g>
  <g
     stroke-width=".77863"
     id="g56">
    <path
       d="m32 23.236v0.0023c-0.49599 0-1.0449 0.17519-2.2066 0.56218h-0.0062l-12.496 5.1133 12.226 5.0019c1.6328 0.80744 3.3326 0.80744 4.9661 0l12.226-5.0019-12.503-5.1149c-1.1617-0.38698-1.7107-0.56217-2.2066-0.56217z"
       fill-opacity=".078"
       opacity=".5"
       overflow="visible"
       style="font-feature-settings:normal;font-variant-alternates:normal;font-variant-caps:normal;font-variant-ligatures:normal;font-variant-numeric:normal;font-variant-position:normal;isolation:auto;mix-blend-mode:normal;shape-padding:0;text-decoration-color:#000000;text-decoration-line:none;text-decoration-style:solid;text-indent:0;text-orientation:mixed;text-transform:none;white-space:normal"
       id="path48" />
    <path
       d="m32 13.114c0.49599 0 1.0449 0.17597 2.2067 0.56295l17.091 6.9914c0.68053 0.3426 0.94682 0.79576 0.94682 1.2053 0 0.41034-0.26629 0.86428-0.9476 1.2069l-17.122 7.0038-0.01246 0.0078c-1.4638 0.73192-2.8607 0.73192-4.3245 0l-0.01246-0.0078-17.122-7.0046c-0.6813-0.34182-0.9476-0.79576-0.9476-1.2061 0-0.40956 0.26629-0.86351 0.9476-1.2053l17.084-6.9898h0.0062c1.1618-0.38698 1.7107-0.56295 2.2067-0.56295z"
       fill="url(#linearGradient965)"
       overflow="visible"
       style="font-feature-settings:normal;font-variant-alternates:normal;font-variant-caps:normal;font-variant-ligatures:normal;font-variant-numeric:normal;font-variant-position:normal;isolation:auto;mix-blend-mode:normal;shape-padding:0;text-decoration-color:#000000;text-decoration-line:none;text-decoration-style:solid;text-indent:0;text-orientation:mixed;text-transform:none;white-space:normal"
       id="path50" />
    <path
       d="m32 22.454v0.0047c-0.6704 0-1.291 0.21412-2.4589 0.60344l-0.01246 0.0078-0.01168 0.0078-8.41 3.4416 8.7184 3.5661 0.01246 0.0078c1.4638 0.73192 2.8607 0.73192 4.3245 0l0.01246-0.0078 8.7277-3.5708-8.4311-3.4494-0.01246-0.0078c-1.168-0.38936-1.7885-0.60348-2.4589-0.60348z"
       fill="#0aa8f0"
       overflow="visible"
       style="font-feature-settings:normal;font-variant-alternates:normal;font-variant-caps:normal;font-variant-ligatures:normal;font-variant-numeric:normal;font-variant-position:normal;isolation:auto;mix-blend-mode:normal;shape-padding:0;text-decoration-color:#000000;text-decoration-line:none;text-decoration-style:solid;text-indent:0;text-orientation:mixed;text-transform:none;white-space:normal"
       id="path52" />
    <path
       d="m32 23.236v0.0023c-0.49599 0-1.0449 0.17519-2.2066 0.56218h-0.0062l-7.6618 3.1348 7.6999 3.1496 0.01246 0.0078c1.4638 0.73192 2.8607 0.73192 4.3245 0l0.01246-0.0078 7.6984-3.1504-7.6664-3.1363c-1.1618-0.38695-1.7107-0.56214-2.2067-0.56214z"
       fill="url(#linearGradient989)"
       overflow="visible"
       style="font-feature-settings:normal;font-variant-alternates:normal;font-variant-caps:normal;font-variant-ligatures:normal;font-variant-numeric:normal;font-variant-position:normal;isolation:auto;mix-blend-mode:normal;shape-padding:0;text-decoration-color:#000000;text-decoration-line:none;text-decoration-style:solid;text-indent:0;text-orientation:mixed;text-transform:none;white-space:normal"
       id="path54" />
  </g>
  <circle
     id="circle16"
     fill="#5e4aa6"
     r="0"
     cy="-1323.9307"
     cx="-1224.2657" />
  <g
     id="g26"
     stroke-width="0.26458"
     fill="#5e4aa6"
     transform="matrix(3.7796,0,0,3.7796,24.364296,-82.814566)">
    <circle
       id="circle18"
       r="0"
       cy="-338.76999"
       cx="-299.01999" />
    <circle
       id="circle20"
       fill-rule="evenodd"
       r="0"
       cy="-3.9487"
       cx="-8.1062002" />
    <circle
       id="circle22"
       r="0"
       cy="-357.69"
       cx="-278.25" />
    <circle
       id="circle24"
       fill-rule="evenodd"
       r="0"
       cy="-22.858999"
       cx="12.663" />
  </g>
</svg>
