<?xml version="1.0" encoding="UTF-8" standalone="no"?>
<svg
   width="64"
   height="64"
   version="1.1"
   id="svg10"
   sodipodi:docname="atlauncher.svg"
   inkscape:version="1.3 (0e150ed6c4, 2023-07-21)"
   xmlns:inkscape="http://www.inkscape.org/namespaces/inkscape"
   xmlns:sodipodi="http://sodipodi.sourceforge.net/DTD/sodipodi-0.dtd"
   xmlns:xlink="http://www.w3.org/1999/xlink"
   xmlns="http://www.w3.org/2000/svg"
   xmlns:svg="http://www.w3.org/2000/svg">
  <sodipodi:namedview
     id="namedview10"
     pagecolor="#ffffff"
     bordercolor="#000000"
     borderopacity="0.25"
     inkscape:showpageshadow="2"
     inkscape:pageopacity="0.0"
     inkscape:pagecheckerboard="0"
     inkscape:deskcolor="#d1d1d1"
     inkscape:zoom="6.15625"
     inkscape:cx="23.390863"
     inkscape:cy="42.233503"
     inkscape:window-width="1920"
     inkscape:window-height="995"
     inkscape:window-x="0"
     inkscape:window-y="0"
     inkscape:window-maximized="1"
     inkscape:current-layer="svg10" />
  <defs
     id="defs3">
    <linearGradient
       id="linearGradient862-3"
       x1="7.9373"
       x2="7.9373"
       y1="15.081"
       y2="1.852"
       gradientTransform="scale(3.7796)"
       gradientUnits="userSpaceOnUse">
      <stop
         stop-color="#f1efeb"
         offset="0"
         id="stop1" />
      <stop
         stop-color="#fdfcfc"
         offset="1"
         id="stop2" />
    </linearGradient>
    <filter
       id="filter3932"
       x="-0.08125"
       y="-0.069641436"
       width="1.1625"
       height="1.1392829"
       color-interpolation-filters="sRGB">
      <feGaussianBlur
         stdDeviation="1.421875"
         id="feGaussianBlur2" />
    </filter>
    <filter
       id="filter3936"
       x="-0.12184576"
       y="-0.1384724"
       width="1.2436915"
       height="1.2769448"
       color-interpolation-filters="sRGB">
      <feGaussianBlur
         stdDeviation="1.421875"
         id="feGaussianBlur3" />
    </filter>
    <filter
       inkscape:collect="always"
       style="color-interpolation-filters:sRGB"
       id="filter1057"
       x="-0.026999999"
       width="1.054"
       y="-0.026999999"
       height="1.054">
      <feGaussianBlur
         inkscape:collect="always"
         stdDeviation="0.61875"
         id="feGaussianBlur1059" />
    </filter>
    <linearGradient
       inkscape:collect="always"
       xlink:href="#linearGradient1051"
       id="linearGradient1053"
       x1="-127"
       y1="60"
       x2="-72"
       y2="5"
       gradientUnits="userSpaceOnUse"
       gradientTransform="translate(131.5,-0.50999954)" />
    <linearGradient
       inkscape:collect="always"
       id="linearGradient1051">
      <stop
         style="stop-color:#dee0e2;stop-opacity:1"
         offset="0"
         id="stop1047" />
      <stop
         style="stop-color:#f1f3f5;stop-opacity:0.99607843"
         offset="1"
         id="stop1049" />
    </linearGradient>
  </defs>
  <rect
     ry="15"
     y="4.4999995"
     x="4.4999995"
     height="55"
     width="55"
     id="rect1055"
     style="opacity:0.3;fill:#141414;fill-opacity:1;stroke-width:2.74436;stroke-linecap:round;filter:url(#filter1057)" />
  <rect
     style="fill:url(#linearGradient1053);fill-opacity:1;stroke-width:2.74436;stroke-linecap:round"
     id="rect1045"
     width="54.999996"
     height="54.999996"
     x="4.5000019"
     y="4.5000019"
     ry="14.999999" />
  <g
     id="g10"
     transform="matrix(0.87755998,0,0,0.87755998,3.9180806,4.3022325)">
    <path
       d="m 32,7.4166 -20.691,12.061 v 24.17 L 32,55.7066 52.691,43.5406 v -23.954 l -11.489,-6.7542 -6.3912,4.0554 11.072,6.5174 0.02895,16.195 -13.912,8.2424 -13.878,-8.1467 -0.0386,-16.411 20.247,-12.159 z"
       fill="#4f4f4f"
       stroke-width="0.875"
       id="path5" />
    <path
       d="m 17.98,23.455 0.04038,16.31 3.4529,2.2992 v -5.0718 l 7.0404,4.082 v 5.0853 l 3.5,1.8148 v -16.608 z m 10.507,14.13 -6.9596,-4.055 v -3.8275 l 6.9596,3.9468 z"
       fill="#7baf31"
       stroke-width="0.875"
       id="path6" />
    <path
       d="m 32,7.0625 6.9327,4.0572 -20.953,12.336 -6.9798,-4.1531 z m 2.221,9.8343 6.9731,-4.4244 11.806,6.9382 -7.0134,4.1674 z"
       fill="#4f4f4f"
       stroke-width="0.875"
       id="path7" />
    <path
       d="M 45.987,23.333 32,31.3668 v 4.2197 l 5.25,-3.0143 v 12.224 l 3.5,-2.0693 v -12.321 l 5.2365,-3.0019 z"
       fill="#89c236"
       stroke-width="0.875"
       id="path8" />
    <path
       d="m 11,19.302 v 24.52 l 21,12.24 V 47.8353 L 18.02,39.5197 17.97962,23.4547 Z"
       fill="#3f3f3f"
       stroke-width="0.875"
       id="path9" />
    <path
       d="M 53,43.714 32,56.062 v -8.2267 l 14.013,-8.4109 -0.02692,-16.092 7.0134,-3.9221 z"
       fill="#5b5b5b"
       stroke-width="0.875"
       id="path10" />
  </g>
</svg>
