<?xml version="1.0" encoding="UTF-8" standalone="no"?>
<svg
   width="64"
   height="64"
   version="1.1"
   id="svg1"
   sodipodi:docname="auryo.svg"
   inkscape:version="1.3 (0e150ed6c4, 2023-07-21)"
   xmlns:inkscape="http://www.inkscape.org/namespaces/inkscape"
   xmlns:sodipodi="http://sodipodi.sourceforge.net/DTD/sodipodi-0.dtd"
   xmlns:xlink="http://www.w3.org/1999/xlink"
   xmlns="http://www.w3.org/2000/svg"
   xmlns:svg="http://www.w3.org/2000/svg">
  <defs
     id="defs1">
    <filter
       id="filter1057"
       x="-0.026999999"
       y="-0.026999999"
       width="1.054"
       height="1.054"
       color-interpolation-filters="sRGB">
      <feGaussianBlur
         stdDeviation="0.61875"
         id="feGaussianBlur2" />
    </filter>
    <linearGradient
       id="linearGradient1053"
       x1="-127"
       x2="-72"
       y1="60"
       y2="5"
       gradientTransform="matrix(1.0000071,0,0,1.0000071,131.49954,-0.51035929)"
       gradientUnits="userSpaceOnUse">
      <stop
         stop-color="#32d7ff"
         offset="0"
         id="stop3" />
      <stop
         stop-color="#329bff"
         offset="1"
         id="stop4" />
    </linearGradient>
    <linearGradient
       id="linearGradient1050"
       x1="31.802999"
       x2="31.802999"
       y1="8.0243998"
       y2="8.2410002"
       gradientTransform="matrix(0.82927,0,0,0.8636,-17.745,1.0542)"
       gradientUnits="userSpaceOnUse"
       xlink:href="#linearGradient64681" />
    <linearGradient
       id="linearGradient64681">
      <stop
         stop-color="#99c2e6"
         offset="0"
         id="stop1" />
      <stop
         stop-color="#6493bd"
         offset="1"
         id="stop2" />
    </linearGradient>
    <linearGradient
       id="linearGradient1052"
       x1="31.802999"
       x2="31.802999"
       y1="8.0243998"
       y2="8.2410002"
       gradientTransform="matrix(0.8636,0,0,0.8636,-18.831,0.94954)"
       gradientUnits="userSpaceOnUse"
       xlink:href="#linearGradient64681" />
  </defs>
  <sodipodi:namedview
     id="namedview1"
     pagecolor="#ffffff"
     bordercolor="#000000"
     borderopacity="0.25"
     inkscape:showpageshadow="2"
     inkscape:pageopacity="0.0"
     inkscape:pagecheckerboard="0"
     inkscape:deskcolor="#d1d1d1"
     inkscape:zoom="5.734375"
     inkscape:cx="-6.626703"
     inkscape:cy="24.239782"
     inkscape:window-width="1920"
     inkscape:window-height="941"
     inkscape:window-x="0"
     inkscape:window-y="34"
     inkscape:window-maximized="1"
     inkscape:current-layer="svg1" />
  <rect
     transform="matrix(1.0000071,0,0,1.0000071,-2.2781468e-4,-2.2781468e-4)"
     x="4.5"
     y="4.5"
     width="55"
     height="55"
     ry="15"
     fill="#141414"
     filter="url(#filter1057)"
     opacity="0.3"
     stroke-width="2.7444"
     id="rect4"
     style="stroke-linecap:round" />
  <rect
     x="4.4996166"
     y="4.4996166"
     width="55.000767"
     height="55.000767"
     ry="15.000106"
     fill="url(#linearGradient1053)"
     stroke-width="2.74441"
     id="rect5"
     style="fill:url(#linearGradient1053);stroke-linecap:round" />
  <path
     d="m 31.9995,15.043 c -7.203,0 -13.043,5.84 -13.043,13.043 v 6.865 a 5.87,5.87 0 0 0 -3.913,5.526 5.87,5.87 0 0 0 9.186,4.843 c 0.13,0.583 0.624,1.026 1.249,1.026 0.722,0 1.304,-0.582 1.304,-1.304 v -9.13 c 0,-0.723 -0.582,-1.304 -1.304,-1.304 -0.626,0 -1.123,0.445 -1.251,1.031 a 5.87,5.87 0 0 0 -1.358,-0.688 v -6.865 a 9.13,9.13 0 0 1 18.26,0 v 6.865 a 5.867,5.867 0 0 0 -3.913,5.526 c -0.002,3.241 2.628,5.87 5.87,5.87 3.242,0 5.871,-2.629 5.87,-5.87 a 5.867,5.867 0 0 0 -3.914,-5.526 v -6.865 c 0,-7.203 -5.84,-13.043 -13.043,-13.043 z m -11.087,22.173 a 3.261,3.261 0 1 1 0,6.522 3.261,3.261 0 0 1 0,-6.522 z m 22.173,0 a 3.261,3.261 0 1 1 0,6.522 3.261,3.261 0 0 1 0,-6.522 z"
     style="paint-order:normal;fill:#ffffff;fill-opacity:1"
     id="path2" />
</svg>
