<?xml version="1.0" encoding="UTF-8" standalone="no"?>
<svg
   width="64"
   height="64"
   viewBox="0 0 16.933 16.933"
   version="1.1"
   id="svg2"
   sodipodi:docname="autofirma.svg"
   inkscape:version="1.3 (0e150ed6c4, 2023-07-21)"
   xmlns:inkscape="http://www.inkscape.org/namespaces/inkscape"
   xmlns:sodipodi="http://sodipodi.sourceforge.net/DTD/sodipodi-0.dtd"
   xmlns:xlink="http://www.w3.org/1999/xlink"
   xmlns="http://www.w3.org/2000/svg"
   xmlns:svg="http://www.w3.org/2000/svg">
  <defs
     id="defs2">
    <filter
       inkscape:collect="always"
       style="color-interpolation-filters:sRGB"
       id="filter1057"
       x="-0.026999999"
       width="1.054"
       y="-0.026999999"
       height="1.054">
      <feGaussianBlur
         inkscape:collect="always"
         stdDeviation="0.61875"
         id="feGaussianBlur1059" />
    </filter>
    <linearGradient
       inkscape:collect="always"
       xlink:href="#linearGradient1051"
       id="linearGradient1053"
       x1="-127"
       y1="60"
       x2="-72"
       y2="5"
       gradientUnits="userSpaceOnUse"
       gradientTransform="matrix(0.26457812,0,0,0.26457812,34.792022,-0.13493417)" />
    <linearGradient
       inkscape:collect="always"
       id="linearGradient1051">
      <stop
         style="stop-color:#df2a2a;stop-opacity:1"
         offset="0"
         id="stop1047" />
      <stop
         style="stop-color:#f83f3f;stop-opacity:1"
         offset="1"
         id="stop1049" />
    </linearGradient>
    <linearGradient
       gradientUnits="userSpaceOnUse"
       y2="9.6700001"
       y1="54.591999"
       x2="34.133999"
       x1="34.133999"
       id="linearGradient915"
       gradientTransform="scale(0.26457812)">
      <stop
         id="stop17"
         offset="0"
         stop-color="#ffb900" />
      <stop
         id="stop19"
         offset="1"
         stop-color="#ff0" />
    </linearGradient>
    <linearGradient
       gradientUnits="userSpaceOnUse"
       gradientTransform="matrix(0.32664815,0,0,0.32664815,0.63054335,0.95372472)"
       y2="4"
       y1="44"
       x2="0"
       id="linearGradient890">
      <stop
         id="stop4"
         offset="0"
         stop-color="#FFB900" />
      <stop
         id="stop6"
         offset="1"
         stop-color="#ff0" />
    </linearGradient>
  </defs>
  <sodipodi:namedview
     id="namedview2"
     pagecolor="#ffffff"
     bordercolor="#000000"
     borderopacity="0.25"
     inkscape:showpageshadow="2"
     inkscape:pageopacity="0.0"
     inkscape:pagecheckerboard="0"
     inkscape:deskcolor="#d1d1d1"
     inkscape:zoom="4.0548155"
     inkscape:cx="42.4187"
     inkscape:cy="27.374859"
     inkscape:window-width="1920"
     inkscape:window-height="941"
     inkscape:window-x="0"
     inkscape:window-y="34"
     inkscape:window-maximized="1"
     inkscape:current-layer="svg2" />
  <rect
     style="opacity:0.3;fill:#141414;fill-opacity:1;stroke-width:2.74436;stroke-linecap:round;filter:url(#filter1057)"
     id="rect1055"
     width="55"
     height="55"
     x="4.5"
     y="4.5"
     ry="15"
     transform="scale(0.26457812)" />
  <rect
     ry="3.9686716"
     y="1.1906021"
     x="1.1906021"
     height="14.551796"
     width="14.551796"
     id="rect1045"
     style="fill:url(#linearGradient1053);fill-opacity:1;stroke-width:0.726098;stroke-linecap:round" />
  <rect
     ry="2.7823617"
     y="2.3504465"
     x="2.3504465"
     height="12.232107"
     width="12.232107"
     id="rect3"
     style="opacity:0.2;fill:#ffffff;fill-opacity:1" />
  <path
     fill="#ffffff"
     d="m 8.466,4.6845 c 1.89,0 3.109,0.238 3.663,0.7 0.555,0.47 0.835,1.506 0.835,3.097 v 0.347 H 8.467 v -1.018 h 3.29 c -0.054,-0.877 -0.225,-1.432 -0.511,-1.67 -0.342,-0.292 -1.274,-0.438 -2.78,-0.438 z m 0,6.552 c 1.384,0 2.286,-0.08 2.694,-0.244 0.415,-0.165 0.616,-0.512 0.616,-1.055 h 1.188 c 0,0.97 -0.28,1.597 -0.835,1.884 -0.554,0.286 -1.773,0.426 -3.663,0.426 z m -0.006,1.011 c -1.889,0 -3.108,-0.231 -3.663,-0.695 -0.554,-0.463 -0.828,-1.493 -0.828,-3.077 0,-1.591 0.274,-2.621 0.828,-3.09 0.555,-0.464 1.774,-0.701 3.663,-0.701 h 0.006 v 1.018 H 8.46 c -1.505,0 -2.437,0.146 -2.79,0.438 -0.275,0.238 -0.446,0.793 -0.5,1.67 h 3.297 v 1.019 H 5.15 c 0.037,1.042 0.207,1.7 0.53,1.975 0.348,0.286 1.274,0.432 2.78,0.432 h 0.005 v 1.012 z"
     id="path3" />
</svg>
