<?xml version="1.0" encoding="UTF-8" standalone="no"?>
<svg
   width="64"
   height="64"
   viewBox="0 0 16.9335 16.9335"
   version="1.1"
   id="svg32"
   sodipodi:docname="badland.svg"
   inkscape:version="1.4 (e7c3feb100, 2024-10-09)"
   xmlns:inkscape="http://www.inkscape.org/namespaces/inkscape"
   xmlns:sodipodi="http://sodipodi.sourceforge.net/DTD/sodipodi-0.dtd"
   xmlns:xlink="http://www.w3.org/1999/xlink"
   xmlns="http://www.w3.org/2000/svg"
   xmlns:svg="http://www.w3.org/2000/svg">
  <sodipodi:namedview
     id="namedview32"
     pagecolor="#505050"
     bordercolor="#eeeeee"
     borderopacity="1"
     inkscape:showpageshadow="0"
     inkscape:pageopacity="0"
     inkscape:pagecheckerboard="0"
     inkscape:deskcolor="#505050"
     inkscape:zoom="3.0282007"
     inkscape:cx="67.696966"
     inkscape:cy="65.715591"
     inkscape:window-width="1920"
     inkscape:window-height="1004"
     inkscape:window-x="0"
     inkscape:window-y="0"
     inkscape:window-maximized="1"
     inkscape:current-layer="svg32" />
  <defs
     id="defs4">
    <linearGradient
       id="a">
      <stop
         offset="0"
         style="stop-color:#fff;stop-opacity:1"
         id="stop1" />
      <stop
         offset="1"
         style="stop-color:#fff;stop-opacity:0"
         id="stop2" />
    </linearGradient>
    <linearGradient
       id="b"
       x1="32.228001"
       x2="32.228001"
       y1="4.6100001"
       y2="59.592999"
       gradientTransform="matrix(0.52884,0,0,0.52884,-43.173912,-0.04)"
       gradientUnits="userSpaceOnUse">
      <stop
         offset="0"
         stop-color="#525252"
         id="stop3" />
      <stop
         offset="1"
         id="stop4" />
    </linearGradient>
    <linearGradient
       xlink:href="#a"
       id="c"
       x1="15.105"
       x2="5.5349998"
       y1="10.038"
       y2="45.754002"
       gradientUnits="userSpaceOnUse"
       gradientTransform="translate(-43.247912)" />
    <filter
       id="filter1057-2"
       x="-0.026999999"
       y="-0.026999999"
       width="1.054"
       height="1.054"
       color-interpolation-filters="sRGB">
      <feGaussianBlur
         stdDeviation="0.61875"
         id="feGaussianBlur1" />
    </filter>
    <linearGradient
       id="linearGradient1053"
       x1="-127"
       x2="-72"
       y1="60"
       y2="5"
       gradientTransform="matrix(0.26458594,0,0,0.26458594,34.793051,-0.13493908)"
       gradientUnits="userSpaceOnUse">
      <stop
         stop-color="#1d2123"
         offset="0"
         id="stop1-3" />
      <stop
         stop-color="#33393e"
         stop-opacity=".99608"
         offset="1"
         id="stop2-6" />
    </linearGradient>
    <linearGradient
       id="linearGradient1948"
       x1="404.23001"
       x2="404.23001"
       y1="537.38"
       y2="507.84"
       gradientTransform="matrix(0.32131317,0,0,0.32131317,-123.38172,-159.90013)"
       gradientUnits="userSpaceOnUse">
      <stop
         stop-color="#d8d8d8"
         offset="0"
         id="stop3-7" />
      <stop
         stop-color="#fff"
         offset="1"
         id="stop4-5" />
    </linearGradient>
    <linearGradient
       inkscape:collect="always"
       xlink:href="#a"
       id="linearGradient39"
       gradientUnits="userSpaceOnUse"
       gradientTransform="translate(-43.247912)"
       x1="15.105"
       y1="10.038"
       x2="5.5349998"
       y2="45.754002" />
  </defs>
  <rect
     x="-40.639999"
     y="17.811001"
     width="55"
     height="55"
     ry="15"
     fill="#141414"
     filter="url(#filter1057-2)"
     opacity="0.3"
     stroke-linecap="round"
     stroke-width="2.7444"
     id="rect4-3"
     transform="matrix(0.26458594,0,0,0.26458594,11.943409,-3.5219037)" />
  <rect
     x="1.1906365"
     y="1.1906368"
     width="14.552227"
     height="14.552227"
     ry="3.9687891"
     fill="url(#linearGradient1053)"
     stroke-linecap="round"
     stroke-width="0.72613"
     id="rect5-5"
     style="fill:url(#linearGradient1053)" />
  <circle
     cx="8.4667492"
     cy="8.4667501"
     r="7.9378428"
     fill-opacity="0"
     stroke-width="0.415797"
     id="circle5" />
  <g
     id="g39"
     transform="matrix(0.45340244,0,0,0.45340244,20.38487,1.1019786)">
    <path
       d="m -27.039912,28.046 c -0.075,-0.074 -0.138,-0.183 -0.138,-0.242 0,-0.078 -0.033,-0.094 -0.12,-0.056 -0.067,0.03 -0.39,0.066 -0.72,0.081 l -0.598,0.028 -0.11,-0.205 c -0.097,-0.184 -0.129,-0.199 -0.285,-0.141 -0.43,0.159 -0.858,0.035 -0.858,-0.248 0,-0.175 0,-0.175 -0.44,-0.131 -0.253,0.025 -0.52,0.015 -0.626,-0.024 -0.156,-0.058 -0.181,-0.102 -0.163,-0.286 l 0.022,-0.218 -0.42,-0.033 c -0.494,-0.04 -0.666,-0.147 -0.607,-0.378 0.037,-0.144 0.019,-0.16 -0.19,-0.161 q -0.432,-0.006 -0.535,-0.377 c -0.043,-0.157 -0.085,-0.187 -0.233,-0.17 -0.28,0.032 -0.431,-0.247 -0.416,-0.772 0.012,-0.42 -0.021,-0.49 -0.165,-0.35 -0.041,0.04 -0.148,0.062 -0.238,0.05 -0.208,-0.03 -0.254,-0.358 -0.103,-0.726 0.122,-0.295 0.096,-0.343 -0.158,-0.294 q -0.501,0.098 -0.242,-0.708 c 0.045,-0.14 0.035,-0.155 -0.08,-0.11 -0.276,0.11 -0.338,0.079 -0.36,-0.176 a 1,1 0 0 1 0.122,-0.52 c 0.148,-0.282 0.142,-0.296 -0.118,-0.275 -0.252,0.02 -0.261,-0.174 -0.026,-0.542 0.119,-0.185 0.216,-0.36 0.216,-0.388 0,-0.028 -0.078,-0.087 -0.173,-0.129 -0.22,-0.097 -0.218,-0.243 0.007,-0.558 0.19,-0.267 0.175,-0.393 -0.048,-0.393 -0.288,0 -0.255,-0.368 0.071,-0.766 0.164,-0.2 0.198,-0.295 0.167,-0.464 a 0.65,0.65 0 0 0 -0.17,-0.324 c -0.072,-0.061 -0.13,-0.169 -0.13,-0.239 0,-0.136 0.277,-0.42 0.534,-0.55 0.184,-0.091 0.197,-0.217 0.044,-0.443 -0.103,-0.153 -0.102,-0.179 0.004,-0.336 a 1,1 0 0 1 0.342,-0.276 0.94,0.94 0 0 0 0.349,-0.304 c 0.114,-0.189 0.114,-0.204 -0.005,-0.332 -0.198,-0.212 -0.018,-0.45 0.455,-0.607 0.493,-0.162 0.616,-0.277 0.497,-0.463 -0.173,-0.27 0.002,-0.442 0.574,-0.565 0.301,-0.064 0.38,-0.151 0.334,-0.372 -0.034,-0.163 -0.01,-0.206 0.147,-0.276 0.167,-0.074 0.183,-0.11 0.147,-0.321 -0.102,-0.588 -0.123,-0.927 -0.06,-0.965 0.037,-0.022 0.164,-0.005 0.282,0.038 0.118,0.044 0.231,0.062 0.252,0.042 0.021,-0.02 0.004,-0.267 -0.04,-0.548 -0.043,-0.282 -0.058,-0.618 -0.033,-0.748 0.042,-0.217 0.066,-0.237 0.285,-0.237 0.276,0 0.268,0.034 0.136,-0.57 -0.132,-0.608 -0.13,-0.68 0.025,-0.83 0.252,-0.246 0.291,-0.858 0.114,-1.757 -0.145,-0.736 -0.11,-1.137 0.1,-1.137 0.07,0 0.19,0.076 0.265,0.168 0.156,0.193 0.256,0.213 0.315,0.062 0.079,-0.198 0.043,-0.367 -0.156,-0.752 -0.222,-0.426 -0.422,-1.03 -0.422,-1.268 0,-0.238 0.158,-0.19 0.57,0.176 0.388,0.346 0.71,0.863 0.91,1.463 q 0.286,0.85 0.35,-0.288 c 0.03,-0.517 0.061,-0.634 0.173,-0.634 0.13,0 0.274,0.411 0.417,1.184 0.128,0.692 0.141,0.93 0.1,1.846 -0.027,0.578 -0.027,1.12 0,1.204 l 0.051,0.153 0.159,-0.194 0.159,-0.193 0.049,0.19 c 0.027,0.104 0.033,0.66 0.013,1.236 -0.019,0.576 -0.02,1.085 -0.004,1.131 0.078,0.211 0.459,0.005 0.513,-0.278 q 0.074,-0.383 0.546,-0.08 c 0.16,0.104 0.388,0.215 0.506,0.248 0.181,0.05 0.231,0.037 0.33,-0.09 0.109,-0.14 0.133,-0.145 0.346,-0.06 0.43,0.17 0.506,0.144 0.487,-0.168 -0.012,-0.181 0.018,-0.305 0.086,-0.36 0.06,-0.048 0.106,-0.201 0.109,-0.36 0.002,-0.153 0.028,-0.336 0.057,-0.407 0.033,-0.084 -0.029,-0.356 -0.178,-0.771 -0.377,-1.055 -0.278,-1.725 0.185,-1.246 q 0.343,0.354 0.345,-0.061 c 0,-0.148 -0.147,-0.507 -0.414,-1.013 -0.561,-1.062 -0.557,-1.33 0.014,-0.978 0.393,0.242 0.772,0.678 1.124,1.292 0.385,0.67 0.48,0.68 0.431,0.045 -0.064,-0.826 0.164,-0.974 0.5,-0.325 0.33,0.633 0.416,1.07 0.49,2.481 0.038,0.72 0.096,1.335 0.13,1.369 0.038,0.036 0.112,-0.039 0.184,-0.185 0.232,-0.474 0.348,-0.2 0.41,0.964 0.05,0.975 0.046,0.959 0.276,0.857 0.162,-0.072 0.198,-0.063 0.313,0.075 0.071,0.086 0.13,0.24 0.13,0.342 0,0.285 0.17,0.386 0.413,0.246 0.177,-0.101 0.207,-0.102 0.303,-0.01 0.058,0.057 0.125,0.216 0.148,0.353 0.064,0.383 0.155,0.552 0.299,0.552 0.18,0 0.272,0.126 0.324,0.447 0.067,0.405 0.13,0.479 0.292,0.337 0.301,-0.265 0.502,0.071 0.328,0.549 a 3,3 0 0 0 -0.106,0.323 c 0,0.016 0.14,0.009 0.31,-0.016 0.291,-0.043 0.31,-0.036 0.31,0.108 a 0.45,0.45 0 0 1 -0.103,0.265 c -0.162,0.173 -0.064,0.536 0.144,0.536 0.092,0 0.194,0.059 0.237,0.137 0.061,0.11 0.042,0.197 -0.1,0.445 -0.22,0.38 -0.22,0.397 0.007,0.504 0.253,0.12 0.264,0.205 0.06,0.441 -0.212,0.245 -0.22,0.324 -0.038,0.37 0.156,0.04 0.19,0.306 0.057,0.436 -0.062,0.06 -0.051,0.11 0.046,0.215 0.105,0.113 0.113,0.164 0.047,0.304 a 0.6,0.6 0 0 1 -0.252,0.245 c -0.198,0.088 -0.222,0.202 -0.067,0.326 0.08,0.066 0.095,0.158 0.06,0.394 -0.053,0.355 -0.132,0.476 -0.309,0.476 -0.192,0 -0.215,0.101 -0.064,0.288 0.237,0.292 0.117,0.549 -0.185,0.397 -0.158,-0.08 -0.299,-0.034 -0.299,0.097 0,0.055 0.08,0.233 0.178,0.395 0.217,0.36 0.203,0.592 -0.04,0.623 -0.27,0.035 -0.305,0.118 -0.146,0.335 0.188,0.258 0.192,0.525 0.008,0.582 -0.176,0.055 -0.175,0.197 0.005,0.443 0.174,0.237 0.15,0.422 -0.057,0.45 -0.193,0.027 -0.195,0.09 -0.01,0.253 0.27,0.238 0.303,0.371 0.125,0.502 -0.142,0.104 -0.15,0.137 -0.077,0.294 0.182,0.387 0.055,0.77 -0.21,0.632 -0.157,-0.082 -0.144,-0.096 -0.247,0.254 -0.063,0.213 -0.13,0.295 -0.283,0.347 -0.127,0.043 -0.21,0.123 -0.223,0.217 -0.035,0.229 -0.228,0.317 -0.387,0.177 -0.183,-0.161 -0.205,-0.148 -0.257,0.155 -0.045,0.258 -0.185,0.469 -0.31,0.469 -0.033,0 -0.124,-0.08 -0.202,-0.176 -0.16,-0.198 -0.328,-0.177 -0.363,0.047 a 0.36,0.36 0 0 1 -0.144,0.223 c -0.1,0.06 -0.15,0.038 -0.287,-0.128 l -0.166,-0.201 -0.2,0.184 c -0.22,0.204 -0.416,0.239 -0.477,0.084 -0.056,-0.141 -0.146,-0.126 -0.382,0.067 -0.112,0.092 -0.25,0.167 -0.305,0.167 -0.055,0 -0.13,-0.075 -0.165,-0.167 -0.037,-0.092 -0.078,-0.168 -0.094,-0.168 a 5,5 0 0 0 -0.425,0.171 c -0.467,0.201 -0.73,0.194 -0.826,-0.021 q -0.07,-0.15 -0.173,-0.108 c -0.524,0.221 -0.694,0.257 -0.83,0.174 -0.114,-0.07 -0.214,-0.066 -0.545,0.017 -0.532,0.134 -0.668,0.13 -0.833,-0.032 z"
       style="fill:url(#linearGradient39);fill-opacity:1;stroke-width:0.397874"
       id="path33" />
    <path
       d="m -24.327912,21.43 q -0.136,-0.002 -0.273,0.025 c -0.765,0.15 -1.674,0.705 -2.16,1.317 -0.359,0.452 -0.556,0.98 -0.604,1.616 l -0.035,0.473 0.362,0.385 c 0.611,0.65 1.252,0.857 2.552,0.824 0.58,-0.015 0.781,-0.047 1.01,-0.162 0.385,-0.193 0.553,-0.417 0.65,-0.869 0.101,-0.477 0.048,-2.006 -0.086,-2.47 -0.197,-0.68 -0.782,-1.133 -1.416,-1.14 m 0.7,1.58 c 0.151,0 0.177,0.03 0.177,0.207 0,0.148 -0.039,0.218 -0.132,0.242 -0.122,0.03 -0.125,0.05 -0.035,0.26 0.12,0.276 0.128,0.965 0.015,1.205 -0.153,0.326 -0.716,0.488 -1.193,0.345 -0.332,-0.1 -0.447,-0.291 -0.448,-0.745 -0.002,-0.812 0.746,-1.514 1.616,-1.514"
       style="opacity:0.2;stroke-width:0.397874"
       id="path34" />
    <path
       d="m -24.327912,21.031 q -0.136,0 -0.273,0.026 c -0.765,0.15 -1.674,0.705 -2.16,1.317 -0.359,0.453 -0.556,0.98 -0.604,1.616 l -0.035,0.473 0.362,0.385 c 0.611,0.65 1.252,0.857 2.552,0.824 0.58,-0.015 0.781,-0.047 1.01,-0.162 0.385,-0.193 0.553,-0.417 0.65,-0.869 0.101,-0.477 0.048,-2.006 -0.086,-2.47 -0.197,-0.68 -0.782,-1.133 -1.416,-1.14 m 0.7,1.581 c 0.151,0 0.177,0.03 0.177,0.207 0,0.148 -0.039,0.218 -0.132,0.242 -0.122,0.03 -0.125,0.05 -0.035,0.26 0.12,0.276 0.128,0.965 0.015,1.205 -0.153,0.326 -0.716,0.489 -1.193,0.345 -0.332,-0.1 -0.447,-0.29 -0.448,-0.745 -0.002,-0.812 0.746,-1.514 1.616,-1.514"
       style="fill:#131313;fill-opacity:1;stroke-width:0.397874"
       id="path35" />
    <path
       d="m -24.117912,24.483 c 0.479,-0.212 0.398,-1.133 -0.1,-1.133 -0.237,0 -0.613,0.418 -0.612,0.681 0.001,0.257 0.046,0.34 0.24,0.447 0.176,0.097 0.264,0.098 0.472,0.005"
       style="fill:#ffffff;stroke-width:0.397874"
       id="path36" />
    <path
       d="m -19.569912,25.533 c 0.196,-0.145 0.277,-0.78 0.239,-1.885 -0.036,-1.05 -0.128,-1.474 -0.348,-1.604 -0.104,-0.06 -0.153,-0.04 -0.286,0.12 -0.241,0.291 -0.648,1.385 -0.656,1.764 -10e-4,0.043 0.089,-0.01 0.2,-0.118 0.142,-0.138 0.269,-0.196 0.431,-0.196 0.21,0 0.244,0.03 0.393,0.345 0.187,0.396 0.178,0.928 -0.017,1.118 -0.235,0.228 -0.952,0.063 -1.03,-0.237 -0.017,-0.065 -0.02,-0.018 -0.008,0.105 0.028,0.284 0.131,0.404 0.477,0.557 0.328,0.145 0.442,0.15 0.605,0.031"
       style="opacity:0.2;stroke-width:0.397874"
       id="path37" />
    <path
       d="m -19.569912,25.135 c 0.196,-0.145 0.277,-0.78 0.239,-1.885 -0.036,-1.05 -0.128,-1.474 -0.348,-1.603 -0.104,-0.061 -0.153,-0.04 -0.286,0.12 -0.241,0.29 -0.648,1.384 -0.656,1.763 -10e-4,0.043 0.089,-0.01 0.2,-0.117 0.142,-0.139 0.269,-0.197 0.431,-0.197 0.21,0 0.244,0.03 0.393,0.345 0.187,0.396 0.178,0.928 -0.017,1.118 -0.235,0.228 -0.952,0.063 -1.03,-0.237 -0.017,-0.065 -0.02,-0.018 -0.008,0.105 0.028,0.284 0.131,0.404 0.477,0.557 0.328,0.145 0.442,0.15 0.605,0.031"
       style="fill:#131313;fill-opacity:1;stroke-width:0.397874"
       id="path38" />
    <path
       d="m -19.833912,24.385 c 0.154,-0.15 0.134,-0.394 -0.051,-0.603 -0.207,-0.234 -0.436,-0.178 -0.519,0.126 -0.09,0.329 0.026,0.583 0.266,0.583 a 0.5,0.5 0 0 0 0.304,-0.105"
       style="fill:#ffffff;stroke-width:0.397874"
       id="path39" />
  </g>
</svg>
