<?xml version="1.0" encoding="UTF-8" standalone="no"?>
<svg
   xmlns:dc="http://purl.org/dc/elements/1.1/"
   xmlns:cc="http://creativecommons.org/ns#"
   xmlns:rdf="http://www.w3.org/1999/02/22-rdf-syntax-ns#"
   xmlns:svg="http://www.w3.org/2000/svg"
   xmlns="http://www.w3.org/2000/svg"
   xmlns:xlink="http://www.w3.org/1999/xlink"
   xmlns:sodipodi="http://sodipodi.sourceforge.net/DTD/sodipodi-0.dtd"
   xmlns:inkscape="http://www.inkscape.org/namespaces/inkscape"
   viewBox="0 0 64 64"
   version="1.1"
   id="svg24"
   sodipodi:docname="Battle.net.svg"
   width="64"
   height="64"
   inkscape:version="1.0.1 (3bc2e813f5, 2020-09-07)">
  <metadata
     id="metadata30">
    <rdf:RDF>
      <cc:Work
         rdf:about="">
        <dc:format>image/svg+xml</dc:format>
        <dc:type
           rdf:resource="http://purl.org/dc/dcmitype/StillImage" />
        <dc:title></dc:title>
      </cc:Work>
    </rdf:RDF>
  </metadata>
  <defs
     id="defs28">
    <filter
       id="filter904"
       x="-0.061616"
       y="-0.058467001"
       width="1.1232001"
       height="1.1169"
       color-interpolation-filters="sRGB">
      <feGaussianBlur
         stdDeviation="0.97558723"
         id="feGaussianBlur855" />
    </filter>
    <linearGradient
       id="linearGradient862-3"
       x1="7.9373002"
       x2="7.9373002"
       y1="15.081"
       y2="1.852"
       gradientTransform="matrix(3.7795,0,0,3.7795,1.4324e-4,0.031541)"
       gradientUnits="userSpaceOnUse">
      <stop
         stop-color="#1a1a1a"
         offset="0"
         id="stop858" />
      <stop
         stop-color="#4d4d4d"
         offset="1"
         id="stop860" />
    </linearGradient>
    <linearGradient
       id="linearGradient905">
      <stop
         stop-color="#ffb22a"
         offset="0"
         id="stop905" />
      <stop
         stop-color="#ffec4a"
         offset="1"
         id="stop907" />
    </linearGradient>
    <linearGradient
       id="linearGradient889">
      <stop
         stop-color="#373737"
         offset="0"
         id="stop910" />
      <stop
         stop-color="#646464"
         offset="1"
         id="stop912" />
    </linearGradient>
    <linearGradient
       id="linearGradient873">
      <stop
         stop-color="#f9f9f9"
         offset="0"
         id="stop915" />
      <stop
         stop-color="#dedede"
         offset="1"
         id="stop917" />
    </linearGradient>
    <linearGradient
       id="linearGradient875"
       x1="22.169"
       x2="34.169"
       y1="31.424"
       y2="31.424"
       gradientUnits="userSpaceOnUse"
       xlink:href="#linearGradient873" />
    <linearGradient
       id="linearGradient883"
       x1="34.169"
       x2="46.169"
       y1="43.424"
       y2="43.424"
       gradientUnits="userSpaceOnUse"
       xlink:href="#linearGradient873" />
    <linearGradient
       id="linearGradient891"
       x1="22.169"
       x2="34.169"
       y1="43.424"
       y2="43.424"
       gradientUnits="userSpaceOnUse"
       xlink:href="#linearGradient889" />
    <linearGradient
       id="linearGradient899"
       x1="34.169"
       x2="46.169"
       y1="31.424"
       y2="31.424"
       gradientUnits="userSpaceOnUse"
       xlink:href="#linearGradient889" />
    <linearGradient
       id="linearGradient907"
       x1="23.978"
       x2="32.368"
       y1="43.424"
       y2="43.424"
       gradientUnits="userSpaceOnUse"
       xlink:href="#linearGradient905" />
    <linearGradient
       id="linearGradient915"
       x1="35.978"
       x2="44.368"
       y1="31.424"
       y2="31.424"
       gradientUnits="userSpaceOnUse"
       xlink:href="#linearGradient905" />
    <filter
       id="filter989"
       x="-.12"
       y="-.12"
       width="1.24"
       height="1.24"
       color-interpolation-filters="sRGB">
      <feGaussianBlur
         stdDeviation="0.6"
         id="feGaussianBlur926" />
    </filter>
    <filter
       id="filter993"
       x="-.12"
       y="-.12"
       width="1.24"
       height="1.24"
       color-interpolation-filters="sRGB">
      <feGaussianBlur
         stdDeviation="0.6"
         id="feGaussianBlur929" />
    </filter>
    <filter
       id="filter997"
       x="-.12"
       y="-.12"
       width="1.24"
       height="1.24"
       color-interpolation-filters="sRGB">
      <feGaussianBlur
         stdDeviation="0.6"
         id="feGaussianBlur932" />
    </filter>
    <filter
       id="filter1001"
       x="-.12"
       y="-.12"
       width="1.24"
       height="1.24"
       color-interpolation-filters="sRGB">
      <feGaussianBlur
         stdDeviation="0.6"
         id="feGaussianBlur935" />
    </filter>
    <filter
       id="filter1049"
       x="-.14442"
       y="-.15146"
       width="1.2888"
       height="1.3029"
       color-interpolation-filters="sRGB">
      <feGaussianBlur
         stdDeviation="0.504875"
         id="feGaussianBlur938" />
    </filter>
    <filter
       id="filter1053"
       x="-.14442"
       y="-.15146"
       width="1.2888"
       height="1.3029"
       color-interpolation-filters="sRGB">
      <feGaussianBlur
         stdDeviation="0.504875"
         id="feGaussianBlur941" />
    </filter>
    <linearGradient
       id="e"
       x1="100.01"
       x2="100.01"
       y1="15.314"
       y2="30.966"
       gradientUnits="userSpaceOnUse">
      <stop
         stop-color="#268bcf"
         offset="0"
         id="stop1046" />
      <stop
         stop-color="#18bfe8"
         offset="1"
         id="stop1048" />
    </linearGradient>
    <linearGradient
       id="d"
       x1="107.85"
       x2="107.85"
       y1="16.618"
       y2="45.309"
       gradientUnits="userSpaceOnUse">
      <stop
         stop-color="#40a800"
         offset="0"
         id="stop1051" />
      <stop
         stop-color="#7cd000"
         offset="1"
         id="stop1053" />
    </linearGradient>
    <linearGradient
       id="c"
       x1="92.191"
       x2="92.191"
       y1="16.618"
       y2="45.309"
       gradientUnits="userSpaceOnUse">
      <stop
         stop-color="#ec1f4b"
         offset="0"
         id="stop1056" />
      <stop
         stop-color="#e94545"
         offset="1"
         id="stop1058" />
    </linearGradient>
    <linearGradient
       id="a-3"
       x1="100.01"
       x2="100.01"
       y1="30.971"
       y2="46.618"
       gradientUnits="userSpaceOnUse">
      <stop
         stop-color="#6534d2"
         offset="0"
         id="stop1061" />
      <stop
         stop-color="#a553e5"
         offset="1"
         id="stop1063" />
    </linearGradient>
    <filter
       id="f"
       x="-.06"
       y="-.06"
       width="1.12"
       height="1.12"
       color-interpolation-filters="sRGB">
      <feGaussianBlur
         stdDeviation="0.78260866"
         id="feGaussianBlur1066" />
    </filter>
    <linearGradient
       id="linearGradient951">
      <stop
         stop-color="#ec4520"
         offset="0"
         id="stop1149" />
      <stop
         stop-color="#f58517"
         offset="1"
         id="stop1151" />
    </linearGradient>
    <linearGradient
       id="linearGradient935">
      <stop
         stop-color="#548fed"
         offset="0"
         id="stop1154" />
      <stop
         stop-color="#5ebae3"
         offset="1"
         id="stop1156" />
    </linearGradient>
    <linearGradient
       id="linearGradient913">
      <stop
         stop-color="#8ae234"
         offset="0"
         id="stop1159" />
      <stop
         stop-color="#47e767"
         offset="1"
         id="stop1161" />
    </linearGradient>
    <linearGradient
       id="linearGradient903"
       x1="4.9328"
       x2="7.0494"
       y1="4.305"
       y2="4.305"
       gradientUnits="userSpaceOnUse"
       xlink:href="#linearGradient913" />
    <linearGradient
       id="linearGradient905-6"
       x1="7.0494"
       x2="9.1661"
       y1="6.4216"
       y2="6.4216"
       gradientUnits="userSpaceOnUse"
       xlink:href="#linearGradient913" />
    <linearGradient
       id="linearGradient907-7"
       x1="11.283"
       x2="13.399"
       y1="10.655"
       y2="10.655"
       gradientUnits="userSpaceOnUse"
       xlink:href="#linearGradient913" />
    <linearGradient
       id="linearGradient921"
       x1="11.283"
       x2="13.399"
       y1="4.305"
       y2="4.305"
       gradientUnits="userSpaceOnUse"
       xlink:href="#linearGradient935" />
    <linearGradient
       id="linearGradient923"
       x1="4.9328"
       x2="7.0494"
       y1="10.655"
       y2="10.655"
       gradientUnits="userSpaceOnUse"
       xlink:href="#linearGradient935" />
    <linearGradient
       id="linearGradient925"
       x1="7.0494"
       x2="9.1661"
       y1="8.5382"
       y2="8.5382"
       gradientUnits="userSpaceOnUse"
       xlink:href="#linearGradient935" />
    <linearGradient
       id="linearGradient927"
       x1="9.1661"
       x2="11.283"
       y1="10.655"
       y2="10.655"
       gradientUnits="userSpaceOnUse"
       xlink:href="#linearGradient935" />
    <linearGradient
       id="linearGradient929"
       x1="9.1661"
       x2="11.283"
       y1="6.4216"
       y2="6.4216"
       gradientUnits="userSpaceOnUse"
       xlink:href="#linearGradient935" />
    <linearGradient
       id="linearGradient943"
       x1="11.283"
       x2="13.399"
       y1="8.5382"
       y2="8.5382"
       gradientUnits="userSpaceOnUse"
       xlink:href="#linearGradient951" />
    <linearGradient
       id="linearGradient945"
       x1="7.0494"
       x2="9.1661"
       y1="4.305"
       y2="4.305"
       gradientUnits="userSpaceOnUse"
       xlink:href="#linearGradient951" />
    <filter
       id="filter999"
       x="-.06"
       y="-.06"
       width="1.12"
       height="1.12"
       color-interpolation-filters="sRGB">
      <feGaussianBlur
         stdDeviation="0.21166249"
         id="feGaussianBlur1174" />
    </filter>
    <linearGradient
       id="linearGradient862-3-5"
       x1="7.9373"
       x2="7.9373"
       y1="15.081"
       y2="1.852"
       gradientTransform="matrix(.99997 0 0 .99997 3.7636e-5 .0083364)"
       gradientUnits="userSpaceOnUse">
      <stop
         stop-color="#1a1a1a"
         offset="0"
         id="stop1177" />
      <stop
         stop-color="#4d4d4d"
         offset="1"
         id="stop1179" />
    </linearGradient>
    <linearGradient
       id="linearGradient938"
       x1="99.523"
       x2="103.24"
       y1="38.494"
       y2="41.915"
       gradientTransform="matrix(1.3333,0,0,1.3333,-103.146,-21.795)"
       gradientUnits="userSpaceOnUse">
      <stop
         stop-color="#6eb92e"
         offset="0"
         id="stop1305" />
      <stop
         stop-color="#4592d6"
         offset="1"
         id="stop1307" />
    </linearGradient>
    <linearGradient
       id="b-3"
       x1="399.57"
       x2="399.57"
       y1="545.8"
       y2="517.8"
       gradientTransform="matrix(2.1429,0,0,2.1429,-753.926,-1107.5)"
       gradientUnits="userSpaceOnUse">
      <stop
         stop-color="#3889e9"
         offset="0"
         id="stop1310" />
      <stop
         stop-color="#5ea5fb"
         offset="1"
         id="stop1312" />
    </linearGradient>
    <style
       type="text/css"
       id="style1315" />
    <style
       type="text/css"
       id="style1317" />
    <filter
       id="filter1057"
       x="-.027"
       y="-.027"
       width="1.054"
       height="1.054"
       color-interpolation-filters="sRGB">
      <feGaussianBlur
         stdDeviation="0.61875"
         id="feGaussianBlur1319" />
    </filter>
    <linearGradient
       id="linearGradient1053"
       x1="-127"
       x2="-72"
       y1="60"
       y2="5"
       gradientTransform="translate(203.93,-0.054156)"
       gradientUnits="userSpaceOnUse">
      <stop
         stop-color="#1d2123"
         offset="0"
         id="stop1322" />
      <stop
         stop-color="#33393e"
         stop-opacity=".99608"
         offset="1"
         id="stop1324" />
    </linearGradient>
  </defs>
  <sodipodi:namedview
     pagecolor="#ffffff"
     bordercolor="#666666"
     borderopacity="1"
     objecttolerance="10"
     gridtolerance="10"
     guidetolerance="10"
     inkscape:pageopacity="0"
     inkscape:pageshadow="2"
     inkscape:window-width="1920"
     inkscape:window-height="935"
     id="namedview26"
     showgrid="false"
     inkscape:zoom="8.0729167"
     inkscape:cx="13.540613"
     inkscape:cy="29.415123"
     inkscape:window-x="0"
     inkscape:window-y="38"
     inkscape:window-maximized="1"
     inkscape:current-layer="svg24" />
  <linearGradient
     id="a"
     gradientUnits="userSpaceOnUse"
     x1="399.57144"
     x2="399.57144"
     y1="545.79797"
     y2="517.79797">
    <stop
       offset="0"
       stop-color="#3889e9"
       id="stop2" />
    <stop
       offset="1"
       stop-color="#5ea5fb"
       id="stop4" />
  </linearGradient>
  <linearGradient
     id="b"
     gradientUnits="userSpaceOnUse"
     x1="399.9939"
     x2="399.9939"
     y1="545.13873"
     y2="518.13873">
    <stop
       offset="0"
       stop-color="#4c93dd"
       id="stop7" />
    <stop
       offset="1"
       stop-color="#56c5fd"
       id="stop9" />
  </linearGradient>
  <g
     transform="translate(-72.440002)"
     id="g1335">
    <rect
       x="76.934998"
       y="4.9558001"
       width="55"
       height="55"
       ry="15"
       fill="#141414"
       filter="url(#filter1057)"
       opacity="0.3"
       stroke-linecap="round"
       stroke-width="2.7444"
       id="rect1329" />
    <rect
       x="76.934998"
       y="4.9558001"
       width="55"
       height="55"
       ry="15"
       fill="url(#linearGradient1053)"
       stroke-linecap="round"
       stroke-width="2.7444"
       id="rect1331"
       style="fill:url(#linearGradient1053)" />
    <circle
       cx="104.44"
       cy="32"
       r="30.000999"
       fill-opacity="0"
       stroke-width="1.5715"
       id="circle1333" />
  </g>
  <g
     transform="matrix(3.7796,0,0,3.7796,72.438998,0.45588)"
     fill="#5e4aa6"
     stroke-width="0.26458"
     id="g1363">
    <circle
       cx="-330.35001"
       cy="-328.37"
       r="0"
       image-rendering="optimizeSpeed"
       id="circle1341" />
    <circle
       cx="-330.35001"
       cy="-328.38"
       r="0"
       image-rendering="optimizeSpeed"
       id="circle1343" />
    <circle
       cx="-330.35001"
       cy="-328.38"
       r="0"
       image-rendering="optimizeSpeed"
       id="circle1345" />
    <circle
       cx="-352.63"
       cy="-336.84"
       r="0"
       image-rendering="optimizeSpeed"
       id="circle1347" />
    <circle
       cx="-330.35001"
       cy="-328.37"
       r="0"
       image-rendering="optimizeSpeed"
       id="circle1349" />
    <circle
       cx="-305.84"
       cy="-328.26999"
       r="0"
       image-rendering="optimizeSpeed"
       id="circle1351" />
    <circle
       cx="-305.84"
       cy="-328.28"
       r="0"
       image-rendering="optimizeSpeed"
       id="circle1353" />
    <circle
       cx="-305.84"
       cy="-328.28"
       r="0"
       image-rendering="optimizeSpeed"
       id="circle1355" />
    <circle
       cx="-328.12"
       cy="-336.73999"
       r="0"
       image-rendering="optimizeSpeed"
       id="circle1357" />
    <circle
       cx="-305.84"
       cy="-328.26999"
       r="0"
       image-rendering="optimizeSpeed"
       id="circle1359" />
    <circle
       cx="-305.03"
       cy="-328.69"
       r="0"
       id="circle1361" />
  </g>
  <circle
     cx="104.444"
     cy="32"
     r="0"
     fill="url(#b-3)"
     stroke-width="1.5715"
     id="circle1365"
     style="fill:url(#b-3)" />
  <circle
     cx="-1250.0959"
     cy="-1241.1"
     r="0"
     fill="#5e4aa6"
     id="circle1367" />
  <circle
     cx="-150.576"
     cy="24.311001"
     r="0"
     fill="#5e4aa6"
     fill-rule="evenodd"
     id="circle1369" />
  <path
     id="rect1439"
     style="fill:#ffffff;fill-opacity:1;stroke:none;stroke-width:0.903514;stroke-linecap:round;stroke-linejoin:round;paint-order:stroke fill markers"
     d="m 28.966029,16.418515 c -1.746261,0.264172 -2.630143,2.607444 -2.722895,5.975193 -0.562953,-0.837715 -1.250309,-1.439825 -2.069965,-1.33233 -1.470812,0.271021 -2.099046,2.401656 -2.004672,5.117561 -2.525731,0.163723 -4.957319,0.622036 -7.134586,1.47174 2.19926,-0.400155 4.663374,-0.505512 7.196349,-0.393523 0.191038,1.886772 0.699082,3.956126 1.519387,5.876371 -1.878113,2.497875 -4.451764,7.154055 -2.786424,9.575132 1.137529,1.454017 3.793193,0.965899 6.949295,-0.795868 -0.616137,1.077604 -0.952579,2.190571 -0.345877,2.959362 0.962171,1.099459 3.032042,0.602268 5.249911,-0.785281 1.36649,2.049476 2.930211,3.88137 4.697568,5.316969 -1.396446,-1.671094 -2.676913,-3.699822 -3.8117,-5.892254 1.581082,-1.14455 3.171711,-2.704612 4.446984,-4.461101 3.087469,0.345737 8.513176,0.19191 9.746305,-2.511134 0.634268,-1.646744 -0.960861,-3.574182 -3.836406,-5.320499 1.092996,-0.03165 2.047124,-0.315492 2.391137,-1.131157 0.509815,-1.396638 -0.980624,-3.005272 -3.337003,-4.296986 1.12053,-2.211234 1.951076,-4.490139 2.332902,-6.75165 -0.773013,2.051586 -1.916062,4.18013 -3.275238,6.259305 -1.832139,-0.852162 -4.038152,-1.499989 -6.252248,-1.741735 -1.250327,-2.867993 -4.033657,-7.398149 -6.952824,-7.138115 z m 16.48031,2.620545 c 0.0014,-0.0038 0.0038,-0.0067 0.0053,-0.01059 h -0.0035 c -6.42e-4,0.0038 -10e-4,0.0067 -0.0018,0.01059 z m -14.560343,1.13998 c 1.205584,0.01339 2.426971,1.810551 3.693468,3.275238 -2.209187,-0.06987 -4.327031,0.323178 -5.978723,1.360566 0.08712,-2.41197 0.689655,-4.128916 1.923496,-4.582864 0.120495,-0.03695 0.241059,-0.05429 0.361759,-0.05294 z m -5.699904,2.950539 c 0.357219,0.03732 0.713045,0.339248 1.065865,0.73234 0.02621,0.734538 0.08434,1.506155 0.174703,2.304667 -0.833843,-0.04824 -1.663511,-0.05988 -2.489958,-0.05118 0.05039,-1.523039 0.353521,-2.659933 0.887632,-2.927597 0.120837,-0.05312 0.2414,-0.07081 0.361758,-0.05823 z m 8.885145,1.579384 c 0.732777,0.03695 1.466178,0.149674 2.191728,0.292937 0.08732,0.04981 0.17327,0.101578 0.261172,0.139409 -0.0067,-0.0244 -0.02436,-0.06452 -0.03177,-0.09 1.733389,0.366905 3.369201,0.979318 4.702862,1.676442 -0.454552,0.640382 -0.941765,1.259885 -1.429387,1.881145 -0.672986,-1.050664 -1.697551,-2.020083 -3.169358,-2.846423 v 0.0035 c 1.219066,0.998949 2.037549,2.05095 2.539368,3.123478 -2.881258,-1.080622 -6.213639,-1.945519 -9.647484,-2.394666 0,0 -0.150703,1.611517 -0.09706,1.519386 3.941734,0.780357 7.679109,2.030039 10.365707,3.46053 0.158244,4.247742 -3.646619,8.383026 -6.827531,10.471587 -0.320187,-0.681869 -0.60467,-1.380726 -0.894691,-2.080552 1.202158,-0.06616 2.502643,-0.445154 3.903463,-1.251156 -1.496574,0.540642 -2.830458,0.698262 -4.016402,0.571755 2.435829,-1.933258 4.92132,-4.382494 7.095762,-7.139879 0,0 -1.30302,-0.95389 -1.24939,-0.857633 -2.730043,3.023873 -5.763377,5.618753 -8.3928,7.185761 -2.24744,-1.257571 -3.703728,-3.742557 -4.545806,-6.352834 -0.0023,-0.06251 0.0013,-0.12854 -0.0053,-0.18882 -0.01199,0.01199 -0.02832,0.03516 -0.04059,0.04765 -0.487518,-1.555089 -0.754885,-3.124431 -0.831163,-4.515805 0.731484,0.06032 1.460181,0.160498 2.191728,0.254113 -0.468809,1.021091 -0.750354,2.242932 -0.764105,3.72523 0.257042,-1.380679 0.708146,-2.492058 1.295273,-3.397001 0.492367,3.010005 1.385042,6.293483 2.677013,9.462193 0,0 1.473115,-0.670576 1.365859,-0.670576 v -0.0053 c -1.276241,-3.825267 -2.039856,-7.704447 -2.122905,-10.75217 1.564585,-1.035862 3.500923,-1.371942 5.47579,-1.272333 z m 8.198685,2.638191 c 1.25916,0.807707 2.061794,1.634964 2.020554,2.225257 -0.06725,0.569389 -0.724247,0.786558 -1.508798,0.92469 -0.597632,-0.313024 -1.239273,-0.612375 -1.911144,-0.905279 0.497853,-0.734115 0.960975,-1.485182 1.399388,-2.244668 z m -1.484093,4.718744 c 2.054363,1.269752 3.248738,2.645945 3.033478,3.947581 -0.312596,1.379665 -2.828819,1.522892 -4.944622,1.960555 1.175922,-1.892827 1.936139,-3.943112 1.911144,-5.908136 z M 24.321401,34.34586 c 1.007047,1.943079 2.347486,3.620461 4.00758,4.605804 -2.087488,1.061663 -3.831973,1.360285 -4.817566,0.525874 -1.005169,-0.955054 0.09506,-3.122403 0.809986,-5.131678 z m 6.255777,5.858724 c 0.401939,0.813282 0.837737,1.602922 1.293508,2.375254 -1.265057,0.67482 -2.329895,0.959405 -2.814659,0.649401 -0.512799,-0.365114 -0.307878,-1.154369 0,-1.997613 0.499792,-0.31547 1.006686,-0.656887 1.521151,-1.027042 z" />
</svg>
