<?xml version="1.0" encoding="UTF-8" standalone="no"?>
<svg
   xml:space="preserve"
   width="64"
   height="64"
   version="1.1"
   id="svg4"
   sodipodi:docname="beamng-drive.svg"
   inkscape:version="1.4 (e7c3feb100, 2024-10-09)"
   xmlns:inkscape="http://www.inkscape.org/namespaces/inkscape"
   xmlns:sodipodi="http://sodipodi.sourceforge.net/DTD/sodipodi-0.dtd"
   xmlns:xlink="http://www.w3.org/1999/xlink"
   xmlns="http://www.w3.org/2000/svg"
   xmlns:svg="http://www.w3.org/2000/svg"><sodipodi:namedview
     id="namedview4"
     pagecolor="#505050"
     bordercolor="#eeeeee"
     borderopacity="1"
     inkscape:showpageshadow="0"
     inkscape:pageopacity="0"
     inkscape:pagecheckerboard="0"
     inkscape:deskcolor="#505050"
     inkscape:zoom="8.5515726"
     inkscape:cx="41.746707"
     inkscape:cy="51.335587"
     inkscape:window-width="2560"
     inkscape:window-height="1408"
     inkscape:window-x="0"
     inkscape:window-y="0"
     inkscape:window-maximized="1"
     inkscape:current-layer="svg4" /><defs
     id="defs2"><linearGradient
       id="a"
       x1="7.937"
       x2="7.937"
       y1="15.081"
       y2="1.852"
       gradientTransform="scale(3.7796)"
       gradientUnits="userSpaceOnUse"><stop
         offset="0"
         stop-color="#363636"
         id="stop1" /><stop
         offset="1"
         stop-color="#6c6c6c"
         id="stop2" /></linearGradient><filter
       id="b"
       width="1.2824188"
       height="1.3065223"
       x="-0.14120942"
       y="-0.15326116"
       style="color-interpolation-filters:sRGB"><feGaussianBlur
         stdDeviation="2.657"
         id="feGaussianBlur2" /></filter><filter
       inkscape:collect="always"
       style="color-interpolation-filters:sRGB"
       id="filter1057"
       x="-0.026999999"
       width="1.054"
       y="-0.026999999"
       height="1.054"><feGaussianBlur
         inkscape:collect="always"
         stdDeviation="0.61875"
         id="feGaussianBlur1059" /></filter><linearGradient
       inkscape:collect="always"
       xlink:href="#linearGradient1051"
       id="linearGradient1053"
       x1="-127"
       y1="60"
       x2="-72"
       y2="5"
       gradientUnits="userSpaceOnUse"
       gradientTransform="translate(131.5,-0.50999761)" /><linearGradient
       inkscape:collect="always"
       id="linearGradient1051"><stop
         style="stop-color:#dee0e2;stop-opacity:1"
         offset="0"
         id="stop1047" /><stop
         style="stop-color:#f1f3f5;stop-opacity:0.99607843"
         offset="1"
         id="stop1049" /></linearGradient></defs><rect
     ry="15"
     y="4.4999995"
     x="4.4999995"
     height="55"
     width="55"
     id="rect1055"
     style="opacity:0.3;fill:#141414;fill-opacity:1;stroke-width:2.74436;stroke-linecap:round;filter:url(#filter1057)" /><rect
     style="fill:url(#linearGradient1053);fill-opacity:1;stroke-width:2.74436;stroke-linecap:round"
     id="rect1045"
     width="54.999996"
     height="54.999996"
     x="4.5000019"
     y="4.5000019"
     ry="14.999999" /><path
     d="M44.362 52.49c-2.46-.62-4.59-2.398-5.62-4.69-.515-1.15-.676-1.964-.674-3.4.002-1.054.041-1.432.208-2.026.66-2.343 2.082-4.136 4.177-5.267 3.047-1.645 6.966-1.12 9.516 1.275 2.3 2.16 3.163 5.357 2.276 8.422-.296 1.021-.747 1.875-1.483 2.806a8.3 8.3 0 0 1-3.92 2.715c-.815.27-.999.295-2.319.321-1.19.023-1.558-.003-2.16-.155M19.235 42.212c-3.772-.258-7.114-2.558-8.784-6.045-.696-1.451-1.022-2.919-1.022-4.597 0-5.042 3.488-9.3 8.557-10.445.87-.196 3.429-.17 4.347.045 3.98.93 7.021 3.838 8.073 7.717.224.826.244 1.042.244 2.701 0 1.671-.019 1.872-.25 2.73-.496 1.83-1.763 3.936-3.086 5.127-2.233 2.01-5.05 2.975-8.08 2.767m26.253-7.634c.067-.027.147-.024.177.007.031.03-.023.053-.121.049-.108-.005-.13-.027-.056-.056m-2.658-.73c.005-.109.027-.13.056-.057.027.067.024.147-.007.177-.031.031-.053-.023-.049-.12m5.18-.463c.005-.108.027-.13.056-.056.027.066.024.146-.007.177-.03.03-.053-.024-.049-.121m-.185-1.48c.005-.108.027-.13.056-.056.027.066.024.146-.007.177-.03.03-.053-.024-.049-.122m-5.365-.926c.005-.107.027-.13.056-.055.027.066.023.146-.007.177-.031.03-.053-.024-.049-.122m5.18-.555c.005-.107.027-.13.056-.055.027.066.024.146-.007.177-.03.03-.053-.024-.049-.122m-.185-1.387c.005-.108.027-.13.056-.056.027.067.024.147-.007.177-.03.031-.053-.024-.049-.121m-.37-2.96c.005-.108.027-.13.056-.056.027.067.024.146-.007.177-.03.03-.053-.024-.049-.121m-4.933-2.135a.36.36 0 0 1 .231 0c.064.026.012.047-.115.047s-.18-.021-.116-.047m-.578-1.572c-2.258-.356-4.015-1.78-4.738-3.842-.31-.884-.351-2.491-.087-3.359.506-1.656 1.513-2.86 2.975-3.558.96-.457 1.432-.563 2.525-.564 1.645-.002 2.787.466 3.96 1.624 1.164 1.15 1.698 2.391 1.7 3.95.002 1.063-.123 1.624-.574 2.572-.303.64-.514.925-1.125 1.526-.808.796-1.533 1.225-2.492 1.473-.593.154-1.71.246-2.144.178"
     style="fill:#fd6500"
     id="path3" /><path
     d="M33.153 41.247c-1.83-.894-3.363-1.661-3.408-1.705-.046-.044.06-.252.244-.478.54-.663 1.182-1.799 1.608-2.84.22-.54.402-1.035.402-1.098s.04-.116.086-.116c.047 0 1.452.67 3.122 1.488a192 192 0 0 0 3.25 1.572c.213.084.212.086-.197.663-.741 1.044-1.468 2.736-1.605 3.736-.03.222-.082.404-.115.404s-1.557-.732-3.387-1.626m9.852-6.3c-.002-.093-.043-.46-.09-.816a480 480 0 0 1-.364-2.821c-.151-1.196-.422-3.319-.602-4.718s-.327-2.58-.328-2.623c0-.044.135-.06.3-.033.455.071 1.8-.098 2.465-.311a8.8 8.8 0 0 0 1.925-.921l.298-.196.046.215c.07.319.203 1.313.558 4.147.175 1.399.468 3.724.652 5.167s.321 2.634.306 2.648-.3-.014-.63-.063c-1.142-.17-3.018.02-4.371.443-.113.035-.163-.001-.165-.118M30.933 25.55c-.616-1.062-1.068-1.658-1.927-2.544-.637-.656-.723-.782-.609-.888.074-.068 1.3-.908 2.724-1.867a587 587 0 0 0 3.23-2.184l.641-.442.205.812a8.6 8.6 0 0 0 .534 1.465c.342.679 1.317 1.981 1.606 2.145.148.084.151.11.028.227-.116.11-5.567 3.794-5.885 3.978-.063.036-.279-.24-.547-.702"
     style="fill:#020202"
     id="path4" /></svg>
