<?xml version="1.0" encoding="UTF-8" standalone="no"?>
<svg
   width="64"
   height="64"
   version="1.1"
   id="svg8"
   sodipodi:docname="beaver-notes.svg"
   xml:space="preserve"
   inkscape:version="1.4 (e7c3feb100, 2024-10-09)"
   xmlns:inkscape="http://www.inkscape.org/namespaces/inkscape"
   xmlns:sodipodi="http://sodipodi.sourceforge.net/DTD/sodipodi-0.dtd"
   xmlns:xlink="http://www.w3.org/1999/xlink"
   xmlns="http://www.w3.org/2000/svg"
   xmlns:svg="http://www.w3.org/2000/svg"><sodipodi:namedview
     id="namedview8"
     pagecolor="#505050"
     bordercolor="#eeeeee"
     borderopacity="1"
     inkscape:showpageshadow="0"
     inkscape:pageopacity="0"
     inkscape:pagecheckerboard="0"
     inkscape:deskcolor="#505050"
     inkscape:zoom="9.203125"
     inkscape:cx="21.62309"
     inkscape:cy="20.427844"
     inkscape:window-width="2560"
     inkscape:window-height="1408"
     inkscape:window-x="0"
     inkscape:window-y="0"
     inkscape:window-maximized="1"
     inkscape:current-layer="svg8" /><defs
     id="defs4"><linearGradient
       id="a"><stop
         offset="0"
         style="stop-color:#d98b00;stop-opacity:1"
         id="stop1" /><stop
         offset="1"
         style="stop-color:#ffa510;stop-opacity:1"
         id="stop2" /></linearGradient><linearGradient
       id="b"
       x1="7.937"
       x2="7.937"
       y1="15.081"
       y2="1.852"
       gradientTransform="matrix(3.7796,0,0,3.7796,-81.928693,0)"
       gradientUnits="userSpaceOnUse"><stop
         offset="0"
         stop-color="#f1efeb"
         style="stop-color:#f7c56f;stop-opacity:1"
         id="stop3" /><stop
         offset="1"
         stop-color="#fdfcfc"
         style="stop-color:#fff4e4;stop-opacity:1"
         id="stop4" /></linearGradient><linearGradient
       xlink:href="#a"
       id="c"
       x1="7"
       x2="504"
       y1="316.116"
       y2="316.116"
       gradientUnits="userSpaceOnUse"
       gradientTransform="matrix(0.10937,0,0,0.10937,4.001,3.978)" /><filter
       inkscape:collect="always"
       style="color-interpolation-filters:sRGB"
       id="filter1057"
       x="-0.026999999"
       width="1.054"
       y="-0.026999999"
       height="1.054"><feGaussianBlur
         inkscape:collect="always"
         stdDeviation="0.61875"
         id="feGaussianBlur1059" /></filter><linearGradient
       inkscape:collect="always"
       xlink:href="#linearGradient1051"
       id="linearGradient1053"
       x1="-103.76003"
       y1="19.587631"
       x2="-103.76003"
       y2="0.5099957"
       gradientUnits="userSpaceOnUse"
       gradientTransform="translate(131.5,-0.5099957)" /><linearGradient
       inkscape:collect="always"
       id="linearGradient1051"><stop
         style="stop-color:#fae6b8;stop-opacity:1"
         offset="0"
         id="stop1047" /><stop
         style="stop-color:#f1f3f5;stop-opacity:0.99607843"
         offset="1"
         id="stop1049" /></linearGradient></defs><rect
     ry="15"
     y="4.4999995"
     x="4.4999995"
     height="55"
     width="55"
     id="rect1055"
     style="opacity:0.3;fill:#141414;fill-opacity:1;stroke-width:2.74436;stroke-linecap:round;filter:url(#filter1057)" /><rect
     style="fill:url(#linearGradient1053);fill-opacity:1;stroke-width:2.74436;stroke-linecap:round"
     id="rect1045"
     width="54.999996"
     height="54.999996"
     x="4.5000019"
     y="4.5000019"
     ry="14.999999" /><rect
     width="35.079"
     height="15.861"
     x="16.32"
     y="30.363"
     rx="0"
     ry="15.861"
     style="fill:#fa9e00;fill-opacity:1;stroke-width:3.3455;stroke-linecap:round;stroke-linejoin:round"
     id="rect5" /><rect
     width="23.131165"
     height="4.6930332"
     x="24.316652"
     y="52.250927"
     rx="0"
     ry="4.6930332"
     style="fill:#ffffff;fill-opacity:1;stroke-width:1.47765;stroke-linecap:round;stroke-linejoin:round"
     id="rect6" /><path
     id="path6"
     style="fill:url(#c);stroke-width:0.10937"
     d="M 31.212891 17.146484 C 27.716118 17.238742 24.227453 18.002837 20.943359 19.447266 C 19.739086 19.977055 17.999782 20.904927 18 21.017578 C 18 21.059576 18.292548 21.451208 18.648438 21.886719 C 19.004328 22.322231 19.355224 22.8584 19.427734 23.078125 C 19.603164 23.609772 19.494893 24.559585 19.207031 25.025391 C 19.074912 25.23921 17.239877 26.792523 14.892578 28.677734 C 10.823685 31.9456 10.456042 32.193712 9.6738281 32.195312 C 9.2610657 32.196188 8.4768309 31.897268 8.1953125 31.632812 L 7.953125 31.40625 L 7.6855469 31.9375 C 6.7486835 33.786619 5.7273255 36.671183 5.328125 38.601562 C 4.8390222 40.965924 4.765625 42.032812 4.765625 46.8125 L 4.765625 47.285156 C 6.0652801 54.253885 12.1432 59.5 19.5 59.5 L 44.5 59.5 C 51.666944 59.5 57.618492 54.520159 59.123047 47.820312 L 59.123047 47.146484 C 59.123047 42.404638 59.033432 41.035227 58.578125 38.8125 C 56.938122 30.805522 51.636494 23.851845 44.322266 20.117188 C 40.218409 18.021795 35.708741 17.027868 31.212891 17.146484 z M 23.775391 34.273438 L 25.089844 34.273438 C 26.343005 34.273438 26.42142 34.286403 26.740234 34.554688 C 27.447752 35.149988 27.403716 36.252085 26.652344 36.757812 C 26.32314 36.979395 26.148187 37.008141 25.121094 37.007812 C 24.151091 37.007593 23.902564 36.971835 23.599609 36.787109 C 22.836206 36.321631 22.74703 35.301798 23.412109 34.636719 L 23.775391 34.273438 z M 43.572266 34.273438 C 44.617296 34.273438 44.802466 34.302025 45.056641 34.501953 C 45.412422 34.781831 45.671875 35.260892 45.671875 35.640625 C 45.671875 36.020357 45.412422 36.499419 45.056641 36.779297 C 44.800825 36.980537 44.62195 37.007706 43.550781 37.003906 C 42.68982 37.000843 42.247115 36.950995 42.035156 36.835938 C 41.19049 36.377568 41.205508 34.880542 42.058594 34.439453 C 42.287943 34.320899 42.71918 34.273438 43.572266 34.273438 z M 43.648438 38.539062 C 44.280814 38.539062 44.668836 38.737839 45.164062 39.316406 C 46.208432 40.536647 46.200045 42.863085 45.146484 44.029297 C 44.932884 44.265646 44.631431 44.524446 44.476562 44.603516 C 43.498795 45.10279 42.328676 44.614792 41.736328 43.460938 C 41.075077 42.172778 41.248899 40.346781 42.130859 39.316406 C 42.626086 38.737839 43.016061 38.539062 43.648438 38.539062 z M 25.320312 38.542969 C 26.403957 38.59763 27.343303 39.705408 27.482422 41.365234 C 27.589058 42.637316 27.020758 44.016961 26.177734 44.535156 C 24.046769 45.844861 22.047607 42.555066 23.357422 39.894531 C 23.632925 39.334994 23.822659 39.104926 24.212891 38.857422 C 24.582343 38.623124 24.959098 38.524748 25.320312 38.542969 z M 35.111328 45.673828 C 35.466071 45.663737 35.919511 45.665763 36.494141 45.673828 L 38.613281 45.703125 L 38.833984 46.046875 L 39.054688 46.390625 L 41.132812 46.429688 C 43.199468 46.468405 43.21437 46.470328 43.796875 46.792969 C 44.493562 47.178936 44.947198 47.698703 45.175781 48.369141 C 45.641916 49.737469 45.06138 51.181516 43.773438 51.857422 C 43.240477 52.13708 43.115377 52.155316 41.433594 52.191406 L 39.65625 52.228516 L 39.65625 52.847656 C 39.656141 53.602747 39.406336 54.13861 38.900391 54.476562 C 38.167393 54.966321 37.01072 54.6942 36.683594 53.955078 C 36.53507 53.61964 36.375 53.527012 36.375 53.775391 C 36.375 53.85381 36.202069 54.083681 35.992188 54.287109 C 35.664516 54.604613 35.521304 54.661732 34.980469 54.695312 C 33.88491 54.763231 33.332636 54.196112 33.228516 52.898438 L 33.171875 52.210938 L 31.621094 52.210938 C 29.79363 52.210938 29.196624 52.069974 28.507812 51.480469 C 27.184368 50.347615 27.185295 48.276308 28.509766 47.142578 C 29.246483 46.512063 29.803819 46.397597 31.990234 46.435547 L 33.859375 46.46875 L 33.859375 46.224609 C 33.859129 45.839408 34.047098 45.704102 35.111328 45.673828 z " /><path
     d="m 35.882355,49.268336 c -1.264317,-0.323517 -2.016345,-1.291769 -2.020939,-2.602459 -0.0036,-1.009923 0.01662,-1.017907 2.584194,-1.017907 h 2.100451 l 0.238318,0.300767 c 0.432777,0.546194 0.167992,1.821558 -0.535695,2.580258 -0.561833,0.605691 -1.609489,0.932926 -2.366329,0.739341 M 25.082067,44.809977 c 0.07525,-0.03041 0.198288,-0.03041 0.273425,0 0.07525,0.0303 0.01367,0.05512 -0.136712,0.05512 -0.150384,0 -0.21185,-0.02483 -0.136713,-0.05512 m 18.490421,-0.0023 c 0.07886,-0.03161 0.173242,-0.02767 0.209553,0.0086 0.03631,0.03631 -0.02822,0.06212 -0.143494,0.05742 -0.127416,-0.0052 -0.153336,-0.03117 -0.06606,-0.06606 m -19.78383,-0.663548 -0.265113,-0.300767 0.300767,0.265113 c 0.281081,0.247832 0.350969,0.336422 0.265113,0.336422 -0.01958,0 -0.154868,-0.135291 -0.300767,-0.300768 m 2.687877,0.08203 c 0.108823,-0.120307 0.222568,-0.21874 0.252645,-0.21874 0.03008,0 -0.03445,0.09843 -0.143275,0.21874 -0.108823,0.120307 -0.222568,0.21874 -0.252645,0.21874 -0.03008,0 0.03445,-0.09843 0.143275,-0.21874 m 0.55385,-0.797635 c 0.04112,-0.107839 0.102261,-0.16854 0.135947,-0.134854 0.03369,0.03369 0,0.121839 -0.0747,0.196101 -0.108058,0.107182 -0.120526,0.09461 -0.06125,-0.06125 m -4.072502,-1.77256 c 4.38e-4,-0.421075 0.02023,-0.57988 0.04397,-0.353046 0.02362,0.226942 0.0233,0.571458 -8.75e-4,0.76559 -0.02417,0.194131 -0.04353,0.0085 -0.04309,-0.412544 m 4.483295,0.05468 c 0,-0.390998 0.01991,-0.550897 0.04408,-0.355452 0.02428,0.195553 0.02428,0.51546 0,0.710904 -0.02417,0.195554 -0.04408,0.03555 -0.04408,-0.355452 m 13.886272,-0.05468 c 8.75e-4,-0.300767 0.02209,-0.410794 0.04725,-0.244551 0.02515,0.166242 0.02439,0.412325 -0.0015,0.54685 -0.02592,0.134525 -0.04648,-0.0015 -0.04572,-0.302299 m 4.592009,0.05468 c 0,-0.270691 0.02133,-0.381373 0.04747,-0.246083 0.02603,0.135401 0.02603,0.356875 0,0.492165 -0.02614,0.135401 -0.04747,0.02461 -0.04747,-0.246082 M 23.6876,39.263168 c 0,-0.02264 0.08618,-0.108823 0.191397,-0.191397 0.173461,-0.135947 0.177289,-0.132119 0.04134,0.04134 -0.142946,0.182211 -0.232739,0.240068 -0.232739,0.150056 m -0.08859,-2.477012 c -0.763621,-0.465478 -0.852211,-1.484369 -0.187132,-2.149448 l 0.363218,-0.363218 h 1.314956 c 1.253161,0 1.330704,0.01323 1.649518,0.281518 0.707514,0.595301 0.663548,1.696985 -0.08782,2.202712 -0.329204,0.221474 -0.504087,0.25002 -1.53118,0.249583 -0.970112,-3.29e-4 -1.21871,-0.03642 -1.521556,-0.221147 m 18.436829,0.05031 c -0.844664,-0.458261 -0.830665,-1.955974 0.02231,-2.397063 0.229349,-0.118557 0.66147,-0.165914 1.514556,-0.165914 1.31408,0 1.596364,0.112214 1.936395,0.769855 0.307221,0.593989 0.128729,1.278973 -0.452245,1.73603 -0.255816,0.201241 -0.434855,0.227818 -1.506024,0.22399 -0.860961,-0.0031 -1.303035,-0.05173 -1.514994,-0.166789 M 8.8420443,32.014234 C 7.9645688,31.703623 6.590116,29.894971 6.0708273,28.367619 5.7389987,27.391601 5.663424,25.64015 5.9081941,24.597417 c 0.8901624,-3.792296 4.6762239,-6.170218 8.5376409,-5.362302 0.940035,0.196757 2.324878,0.870585 3.080406,1.498916 0.743716,0.618597 1.734499,1.839931 1.900413,2.342705 0.175867,0.532742 0.06901,1.482182 -0.219068,1.948427 -0.340906,0.551553 -8.288277,6.903215 -8.823425,7.051849 -0.5559274,0.154431 -0.9771113,0.13726 -1.5421167,-0.06278 M 55.025933,29.929314 C 52.99351,26.629621 49.693052,23.314507 46.443669,21.30877 46.078811,21.083577 45.78034,20.863962 45.78034,20.820761 c 0,-0.143931 1.246818,-0.742075 2.07803,-0.996798 0.968909,-0.296939 2.645442,-0.346812 3.60921,-0.107401 1.452652,0.360811 3.021237,1.324252 3.895431,2.392578 1.208867,1.47726 1.833807,3.565024 1.597021,5.335068 -0.06529,0.488009 -0.218412,1.170916 -0.340141,1.517509 -0.251441,0.715061 -0.797307,1.727499 -0.960815,1.781966 -0.06004,0.02001 -0.344953,-0.346485 -0.633252,-0.814369"
     style="fill:#be580e;stroke-width:0.10937"
     id="path7" /><path
     d="m 24.500875,44.61847 c -0.184288,-0.08017 -0.510211,-0.350531 -0.724357,-0.60066 -1.097528,-1.282254 -0.969237,-3.953179 0.238755,-4.969554 1.036827,-0.872444 2.259474,-0.539194 3.013143,0.821369 0.302955,0.54685 0.323079,0.658407 0.323079,1.78634 0,1.092059 -0.0268,1.25349 -0.290596,1.74992 -0.631174,1.187977 -1.582147,1.638472 -2.560024,1.212585 z m 18.297164,-0.07262 c -1.880836,-0.992861 -1.835776,-4.858872 0.06737,-5.780205 0.592676,-0.286768 0.973174,-0.286112 1.570115,0.0028 0.849587,0.411231 1.454184,1.605114 1.454184,2.8714 0,2.231476 -1.571319,3.708408 -3.091671,2.905961 z"
     style="fill:#5c1a00;stroke:#340f00;stroke-width:0.309002;stroke-dasharray:none;stroke-opacity:1"
     id="path8" /></svg>
