<?xml version="1.0" encoding="UTF-8" standalone="no"?>
<svg
   width="64"
   height="64"
   version="1.1"
   id="svg48"
   sodipodi:docname="beeref.svg"
   inkscape:version="1.4 (e7c3feb100, 2024-10-09)"
   xmlns:inkscape="http://www.inkscape.org/namespaces/inkscape"
   xmlns:sodipodi="http://sodipodi.sourceforge.net/DTD/sodipodi-0.dtd"
   xmlns:xlink="http://www.w3.org/1999/xlink"
   xmlns="http://www.w3.org/2000/svg"
   xmlns:svg="http://www.w3.org/2000/svg">
  <sodipodi:namedview
     id="namedview48"
     pagecolor="#505050"
     bordercolor="#eeeeee"
     borderopacity="1"
     inkscape:showpageshadow="0"
     inkscape:pageopacity="0"
     inkscape:pagecheckerboard="0"
     inkscape:deskcolor="#505050"
     inkscape:zoom="4.6015625"
     inkscape:cx="53.460102"
     inkscape:cy="25.426146"
     inkscape:window-width="2560"
     inkscape:window-height="1408"
     inkscape:window-x="0"
     inkscape:window-y="0"
     inkscape:window-maximized="1"
     inkscape:current-layer="svg48" />
  <defs
     id="defs15">
    <filter
       id="j"
       width="1.7831578"
       height="2.1206198"
       x="-0.39157891"
       y="-0.56030989"
       color-interpolation-filters="sRGB">
      <feGaussianBlur
         stdDeviation="1.331"
         id="feGaussianBlur1" />
    </filter>
    <filter
       id="i"
       width="1.5129401"
       height="1.538988"
       x="-0.25647006"
       y="-0.26949399"
       color-interpolation-filters="sRGB">
      <feGaussianBlur
         stdDeviation="1.343"
         id="feGaussianBlur2" />
    </filter>
    <filter
       id="l"
       width="1.4279671"
       height="1.6693511"
       x="-0.21398355"
       y="-0.33467556"
       color-interpolation-filters="sRGB">
      <feGaussianBlur
         stdDeviation="1.343"
         id="feGaussianBlur3" />
    </filter>
    <filter
       id="m"
       width="1.7168637"
       height="1.5435511"
       x="-0.35843183"
       y="-0.27177557"
       color-interpolation-filters="sRGB">
      <feGaussianBlur
         stdDeviation="1.331"
         id="feGaussianBlur4" />
    </filter>
    <filter
       id="o"
       width="1.3693819"
       height="1.2408804"
       x="-0.18469095"
       y="-0.12044021"
       color-interpolation-filters="sRGB">
      <feGaussianBlur
         stdDeviation="1.343"
         id="feGaussianBlur5" />
    </filter>
    <filter
       id="p"
       width="1.3884716"
       height="1.3964686"
       x="-0.19423581"
       y="-0.19823429"
       color-interpolation-filters="sRGB">
      <feGaussianBlur
         stdDeviation="1.331"
         id="feGaussianBlur6" />
    </filter>
    <filter
       id="g"
       width="1.3489561"
       height="1.2538819"
       x="-0.17447804"
       y="-0.12694097"
       color-interpolation-filters="sRGB">
      <feGaussianBlur
         stdDeviation="1.759"
         id="feGaussianBlur7" />
    </filter>
    <filter
       id="r"
       width="1.3612261"
       height="1.1877077"
       x="-0.18061306"
       y="-0.093853857"
       color-interpolation-filters="sRGB">
      <feGaussianBlur
         stdDeviation=".189"
         id="feGaussianBlur8" />
    </filter>
    <linearGradient
       id="a">
      <stop
         offset="0"
         stop-color="#fffff6"
         stop-opacity="0"
         id="stop8" />
      <stop
         offset="1"
         stop-color="#fffff6"
         id="stop9" />
    </linearGradient>
    <linearGradient
       xlink:href="#a"
       id="b"
       x1="49.119"
       x2="66.475"
       y1="177.92"
       y2="168.14"
       gradientTransform="translate(-36.753 -142.3)"
       gradientUnits="userSpaceOnUse" />
    <linearGradient
       xlink:href="#a"
       id="d"
       x1="49.119"
       x2="66.475"
       y1="177.92"
       y2="168.14"
       gradientTransform="translate(-29.978 -153.98)"
       gradientUnits="userSpaceOnUse" />
    <linearGradient
       xlink:href="#a"
       id="e"
       x1="49.119"
       x2="66.475"
       y1="177.92"
       y2="168.14"
       gradientTransform="translate(-9.681 -142.27)"
       gradientUnits="userSpaceOnUse" />
    <linearGradient
       xlink:href="#a"
       id="f"
       x1="49.119"
       x2="66.475"
       y1="177.92"
       y2="168.14"
       gradientTransform="translate(-29.998 -130.64)"
       gradientUnits="userSpaceOnUse" />
    <linearGradient
       xlink:href="#a"
       id="c"
       x1="49.119"
       x2="66.475"
       y1="177.92"
       y2="168.14"
       gradientTransform="translate(-16.575 -154.01)"
       gradientUnits="userSpaceOnUse" />
    <linearGradient
       id="q"
       x1="7.248"
       x2="39.627"
       y1="40.091"
       y2="21.015"
       gradientTransform="translate(11.726 10.541)"
       gradientUnits="userSpaceOnUse">
      <stop
         offset="0"
         stop-color="#e0d1a2"
         id="stop10" />
      <stop
         offset=".424"
         stop-color="#fefdfb"
         stop-opacity=".992"
         id="stop11" />
      <stop
         offset=".519"
         stop-color="#d4c391"
         stop-opacity=".992"
         id="stop12" />
      <stop
         offset="1"
         stop-color="#fff"
         stop-opacity=".989"
         id="stop13" />
    </linearGradient>
    <clipPath
       id="h">
      <path
         fill="#ff1400"
         fill-rule="evenodd"
         d="M30.259 26.98s1.225-.284 3.285-1.408c1.222-.667 3.024-.914 1.447-3.229-1.38-2.026-5.04-2.625-8.173-.597-3.232 1.866-4.366 5.397-3.19 7.548 1.342 2.458 2.383.966 3.533.182 1.938-1.322 2.75-2.283 2.75-2.283"
         id="path13" />
    </clipPath>
    <clipPath
       id="k">
      <path
         fill="#ff1700"
         fill-rule="evenodd"
         d="M30.216 27.133c-4.944 3.024-4.458 5.434-2.635 7.73s4.222 2.84 7.336.941c3.607-2.2 4.456-3.69 2.803-7.359-.706-1.567-2.853-4.157-7.504-1.312"
         id="path14" />
    </clipPath>
    <clipPath
       id="n">
      <path
         fill="#ff1700"
         fill-rule="evenodd"
         d="M31.594 40.857c.542 3.352 1.366 4.464 3 7.516.834 1.558 2.543 2.941 4.735 4.27 2.053 1.246 4.993 1.891 6.64.986.92-.507 1.396-1.474 1.827-3.425.43-1.95.44-4.772-.78-7.54-1.219-2.77-3.019-5.268-5.04-6.9-2.022-1.634-4.12-2.305-6.876-1.19s-3.857 4.111-3.506 6.283"
         id="path15" />
    </clipPath>
    <filter
       id="filter1057"
       x="-0.026999999"
       y="-0.026999999"
       width="1.054"
       height="1.054"
       color-interpolation-filters="sRGB">
      <feGaussianBlur
         stdDeviation="0.61875"
         id="feGaussianBlur3-3" />
    </filter>
    <linearGradient
       id="linearGradient1053"
       x1="-127"
       x2="-72"
       y1="60"
       y2="5"
       gradientTransform="translate(203.93,-0.054156)"
       gradientUnits="userSpaceOnUse">
      <stop
         stop-color="#0a0a0a"
         offset="0"
         id="stop3-3" />
      <stop
         stop-color="#323232"
         stop-opacity=".99608"
         offset="1"
         id="stop4-6" />
    </linearGradient>
  </defs>
  <g
     transform="translate(-72.440002)"
     id="g9">
    <rect
       x="76.934998"
       y="4.9558001"
       width="55"
       height="55"
       ry="15"
       fill="#141414"
       filter="url(#filter1057)"
       opacity="0.3"
       stroke-linecap="round"
       stroke-width="2.7444"
       id="rect8" />
    <rect
       x="76.934998"
       y="4.9558001"
       width="55"
       height="55"
       ry="15"
       fill="url(#linearGradient1053)"
       stroke-linecap="round"
       stroke-width="2.7444"
       id="rect9"
       style="fill:url(#linearGradient1053)" />
    <circle
       cx="104.44"
       cy="32"
       r="30.000999"
       fill-opacity="0"
       stroke-width="1.5715"
       id="circle9" />
  </g>
  <path
     fill="#ff80f6"
     fill-rule="evenodd"
     d="m12.393 27.812 6.682-3.755 6.75 3.788.006 7.877-6.716 3.755-6.75-3.855z"
     id="path16" />
  <path
     fill="url(#b)"
     fill-rule="evenodd"
     d="m12.295 27.852 6.682-3.755 6.75 3.788.006 7.877-6.716 3.755-6.75-3.855z"
     id="path17" />
  <path
     fill="none"
     stroke="#7c00ae"
     stroke-linecap="round"
     stroke-linejoin="round"
     stroke-width=".465"
     d="m25.732 35.769-3.144 1.827-3.624 2.055-3.154-1.81-3.592-2.11-.01-3.637.032-4.166 3.144-1.827 3.624-2.055 3.154 1.81 3.592 2.11.01 3.637z"
     id="path18" />
  <path
     fill="#80e5ff"
     fill-rule="evenodd"
     d="m32.47 16.282 6.682-3.755 6.75 3.788.005 7.877-6.715 3.755-6.75-3.855z"
     id="path19" />
  <path
     fill="url(#c)"
     fill-rule="evenodd"
     d="m32.473 16.142 6.682-3.755 6.75 3.788.005 7.877-6.715 3.755-6.75-3.855z"
     id="path20" />
  <path
     fill="none"
     stroke="#6d82e9"
     stroke-linecap="round"
     stroke-linejoin="round"
     stroke-width=".465"
     d="m45.879 24.116-3.144 1.827-3.624 2.055-3.154-1.81-3.592-2.11-.01-3.637.032-4.166 3.144-1.827 3.624-2.055 3.154 1.81 3.592 2.11.01 3.637z"
     id="path21" />
  <path
     fill="#8c80ff"
     fill-rule="evenodd"
     d="m19.005 16.222 6.682-3.755 6.75 3.788.006 7.877-6.716 3.755-6.75-3.855z"
     id="path22" />
  <path
     fill="url(#d)"
     fill-rule="evenodd"
     d="m19.07 16.182 6.682-3.755 6.75 3.788.005 7.877-6.715 3.755-6.75-3.855z"
     id="path23" />
  <path
     fill="none"
     stroke="#5c00dc"
     stroke-linecap="round"
     stroke-linejoin="round"
     stroke-width=".465"
     d="m32.442 24.137-3.144 1.827-3.624 2.055-3.154-1.81-3.592-2.11-.01-3.637.032-4.166 3.144-1.827 3.624-2.055 3.154 1.81 3.592 2.11.01 3.637z"
     id="path24" />
  <path
     fill="#a0ff80"
     fill-rule="evenodd"
     d="m39.367 27.892 6.682-3.755 6.75 3.788.006 7.877-6.716 3.755-6.75-3.855z"
     id="path25" />
  <path
     fill="url(#e)"
     fill-rule="evenodd"
     d="m39.367 27.892 6.682-3.755 6.75 3.788.006 7.877-6.716 3.755-6.75-3.855z"
     id="path26" />
  <path
     fill="none"
     stroke="#2bb477"
     stroke-linecap="round"
     stroke-linejoin="round"
     stroke-width=".465"
     d="m52.776 35.728-3.144 1.827-3.624 2.055-3.154-1.81-3.592-2.11-.01-3.637.032-4.166 3.144-1.827 3.624-2.055 3.155 1.81 3.591 2.11.01 3.637z"
     id="path27" />
  <path
     fill="#ff9e80"
     fill-rule="evenodd"
     d="m19.05 39.522 6.682-3.755 6.75 3.788.006 7.877-6.716 3.755-6.75-3.855z"
     id="path28" />
  <path
     fill="url(#f)"
     fill-rule="evenodd"
     d="m19.05 39.522 6.682-3.755 6.75 3.788.006 7.877-6.716 3.755-6.75-3.855z"
     id="path29" />
  <path
     fill="none"
     stroke="#cf486c"
     stroke-linecap="round"
     stroke-linejoin="round"
     stroke-width=".465"
     d="m32.536 47.372-3.144 1.827-3.624 2.055-3.154-1.81-3.592-2.11-.01-3.637.032-4.166 3.144-1.827 3.624-2.055 3.154 1.81 3.592 2.11.01 3.637z"
     id="path30" />
  <path
     fill-rule="evenodd"
     d="m25.859 27.912 6.584-3.779 6.848 3.812 2.462 9.342-8.375 4.405-7.565-6.047z"
     id="path31" />
  <path
     fill="#5c386c"
     d="M13.643 12.416c-3.232 1.866-4.3 5.88-3.191 7.548 1.387 2.085 2.17.464 1.805 3.096-.587 5.416-.988 8.282-1.3 14.303s2.188 2.436 3.876 5.986c2.383 5.014 7.683-6.384 9.916-5.662 2.247.727 5.3 1.72 5.581 1.606.23-.198 3.155-.456 3.531-2.786.375-2.317 1.184-2.518-2.195-6.923-7.404-4.296-6.642-9.228-11.019-16.197-2.268-2.512-4.608-2.484-7.004-.97z"
     filter="url(#g)"
     opacity=".35"
     transform="translate(11.975 11.102)"
     id="path32" />
  <path
     fill="none"
     stroke="#4a2e3b"
     stroke-linecap="round"
     stroke-width=".465"
     d="M29.025 20.848s-.274-2.38-.177-4.702c3.354-3.647 6.842-4.332 6.842-4.332m-10.939 11.15s-1.557-1.066-3.62-2.138c-5.984-.222-8.218 1.537-8.218 1.537"
     id="path33" />
  <path
     fill="#75624f"
     fill-rule="evenodd"
     d="M30.259 26.98s1.225-.284 3.285-1.408c1.222-.667 3.024-.914 1.447-3.229-1.38-2.026-5.04-2.625-8.173-.597-3.232 1.866-4.366 5.397-3.19 7.548 1.342 2.458 2.383.966 3.533.182 1.938-1.322 2.75-2.283 2.75-2.283"
     id="path34" />
  <path
     fill="#edd57c"
     fill-rule="evenodd"
     d="M27.713 16.531c1.241-.274 7.89 2.826 9.185 3.898 1.196.991 1.294 5.974-.489 6.95-4.61 2.528-2.694.31-2.855-2.903-.058-1.18-.804-2.966-5.502-3.582-2.761-.362-4.553-3.434-.339-4.363"
     clip-path="url(#h)"
     filter="url(#i)"
     opacity=".977"
     id="path35" />
  <path
     fill="#673141"
     d="M24.525 12.049c2.499-1.897 5.598-1.915 7.194-.432 2.05 1.907.35 2.548-.693 3.47-.555.49-1.04.87-1.454 1.174q.014-.34-.003-.7c-.057-1.139-.765-2.841-5.044-3.512"
     filter="url(#j)"
     transform="scale(-1 1)rotate(75.731 -7.32 -15.136)"
     id="path36" />
  <path
     fill="none"
     stroke="#4a2e3b"
     stroke-width=".465"
     d="M30.259 26.98s1.225-.284 3.285-1.408c1.222-.667 3.024-.914 1.447-3.229-1.38-2.026-5.04-2.625-8.173-.597-3.232 1.866-4.366 5.397-3.19 7.548 1.342 2.458 2.383.966 3.533.182 1.938-1.322 2.75-2.283 2.75-2.283"
     id="path37" />
  <path
     fill="#75624f"
     fill-rule="evenodd"
     d="M30.013 27.122c-2.58 1.762-4.443 4.422-3.268 6.573 1.342 2.458 3.177 3.346 4.565 3.455 2.442.192 4.107-.802 4.28-.91.176-.105 1.819-1.135 2.76-3.396.535-1.285.58-3.323-.997-5.638-1.38-2.026-4.596-1.578-7.34-.084"
     id="path38" />
  <path
     fill="#edd57c"
     fill-rule="evenodd"
     d="M30.914 23.542c1.241-.274 8.344 1.738 9.64 2.81 1.195.991 3.17 3.56 1.388 4.537-4.61 2.527-1.646 3.253-3.33.512-1.705-2.775-2.921-4.166-7.657-4.01-4.694.155-4.255-2.92-.041-3.849"
     clip-path="url(#k)"
     filter="url(#l)"
     opacity=".977"
     id="path39" />
  <path
     fill="#6c3142"
     d="M23.608 12.047c3.863-3.544 5.985-2.475 7.696-.227 1.776 2.332 1.713 4.791-.896 7.341-1.241 1.214-2.252 2.005-3.23 2.343.219-1.226.79-2.808 1.321-4.354.384-1.116.2-6.314-4.43-5.17-.158.04-.311.059-.461.067"
     filter="url(#m)"
     transform="scale(-1 1)rotate(75.731 -12.957 -14.526)"
     id="path40" />
  <path
     fill="none"
     stroke="#4a2e3b"
     stroke-width=".465"
     d="M29.911 27.193c-2.526 1.762-4.325 4.38-3.166 6.502 1.343 2.458 3.178 3.346 4.566 3.455 2.117.167 3.65-.558 4.133-.825.46-.305 1.812-1.328 2.645-3.282.546-1.28.608-3.318-.949-5.646-1.344-2.01-4.498-1.627-7.229-.204z"
     id="path41" />
  <path
     fill="#75624f"
     fill-rule="evenodd"
     d="M34.481 34.992c-3.966 2.695-3.471 6.291-1.228 11.01 2.383 5.014 6.218 6.958 8.451 7.68 2.246.726 3.93.117 4.21.003.23-.198 1.54-1.42 1.916-3.75.374-2.317.39-6.616-2.988-11.02-3.179-4.147-6.155-6.225-10.36-3.922z"
     id="path42" />
  <path
     fill="#ffda00"
     fill-rule="evenodd"
     d="M35.575 49.346c5.576.21 8.881-.6 11.623-6.45 0 0 .7 3.376.712 5.786-2.41 3.01-4.203 3.975-9.163 3.71-2.51-1.374-3.172-3.046-3.172-3.046m-3.967-7.961c5.15-.246 8.604-2.257 10.391-5.72 0 0 1.727 1.767 3.59 4.441-2.928 4.615-5.858 6.118-12.198 6.511-1.849-3.594-1.783-5.232-1.783-5.232"
     id="path43" />
  <path
     fill="#edd57c"
     fill-rule="evenodd"
     d="M45.458 33.652c1.952 1.075 4.474 6.43 5.769 7.503 1.196.99-.296 16.08-2.098 17.02-3.081 1.61-2.76-6.05-2.795-9.41-.043-4.23-1.585-8.532-3.773-10.926-.908-.994-8.765-3.877-8.339-5.13.832-2.448 9.346-.098 11.236.943"
     clip-path="url(#n)"
     filter="url(#o)"
     opacity=".977"
     id="path44" />
  <path
     fill="#6c3142"
     d="M20.32 9.178c1.812-1.902 4.644-2.12 6.5-1.316 3.115 1.352 3.988 2.424 6.544 4.76 1.304 1.193 2.223 3.19 2.97 5.64.515 1.685.596 3.75.099 5.274-1.433-2.194-2.22-3.62-3.835-6.467-.583-1.027-2.859-3.94-6.874-6.01-.788-.408-3.384-1.116-5.404-1.881"
     filter="url(#p)"
     transform="scale(-1 1)rotate(75.731 -23.606 -13.204)"
     id="path45" />
  <path
     fill="none"
     stroke="#4a2e3b"
     stroke-width=".465"
     d="M34.481 34.992c-3.966 2.695-3.471 6.291-1.228 11.01 2.383 5.014 6.218 6.958 8.451 7.68 2.246.726 3.93.117 4.21.003.23-.198 1.54-1.42 1.916-3.75.374-2.317.39-6.616-2.988-11.02-3.179-4.147-6.155-6.225-10.36-3.922z"
     id="path46" />
  <path
     fill="url(#q)"
     fill-rule="evenodd"
     stroke="#7d7967"
     stroke-width=".465"
     d="M26.607 29.961c-1.804.847-4.064 30.319-1.724 31.371 1.16.521 5.71.007 8.33-2.013s3.31-5.546 3.482-7.058c.344-3.025-8.284-23.147-10.088-22.3zm7.358-4.348c1.612-1.173 28.52 11.061 28.313 13.618-.103 1.268-2.747 5.006-5.78 6.327s-6.455.225-7.863-.354c-2.816-1.157-16.283-18.419-14.67-19.59z"
     id="path47" />
  <path
     fill="#ffcff6"
     d="M24.211 25.546c-.246.646-.24 1.207-.201 1.912.055.424.174.908.37 1.263.305.552.506.909 1.498 1.305-.552.462-.689.334-.79.344-.728.076-1.102-.955-1.433-1.433-.31-.366-.34-1.47-.231-1.907.15-.73.384-1.007.787-1.484"
     filter="url(#r)"
     opacity=".366"
     id="path48" />
</svg>
