<?xml version="1.0" encoding="UTF-8" standalone="no"?>
<!-- Created with Inkscape (http://www.inkscape.org/) -->

<svg
   width="64"
   height="64"
   version="1.1"
   viewBox="0 0 16.933 16.933"
   id="svg67"
   sodipodi:docname="help.svg"
   inkscape:version="1.2.1 (9c6d41e410, 2022-07-14, custom)"
   xmlns:inkscape="http://www.inkscape.org/namespaces/inkscape"
   xmlns:sodipodi="http://sodipodi.sourceforge.net/DTD/sodipodi-0.dtd"
   xmlns="http://www.w3.org/2000/svg"
   xmlns:svg="http://www.w3.org/2000/svg">
  <sodipodi:namedview
     id="namedview69"
     pagecolor="#ffffff"
     bordercolor="#666666"
     borderopacity="1.0"
     inkscape:showpageshadow="2"
     inkscape:pageopacity="0.0"
     inkscape:pagecheckerboard="0"
     inkscape:deskcolor="#d1d1d1"
     showgrid="false"
     inkscape:zoom="6.3125"
     inkscape:cx="77.306931"
     inkscape:cy="55.049505"
     inkscape:window-width="1904"
     inkscape:window-height="995"
     inkscape:window-x="8"
     inkscape:window-y="40"
     inkscape:window-maximized="1"
     inkscape:current-layer="svg67" />
  <defs
     id="defs57">
    <filter
       id="filter2076"
       x="-0.048000001"
       y="-0.048000001"
       width="1.096"
       height="1.096"
       color-interpolation-filters="sRGB">
      <feGaussianBlur
         stdDeviation="1.1"
         id="feGaussianBlur49" />
    </filter>
    <linearGradient
       id="linearGradient1502"
       x1="4.5"
       x2="59.5"
       y1="59.5"
       y2="4.5"
       gradientTransform="scale(0.26458)"
       gradientUnits="userSpaceOnUse">
      <stop
         stop-color="#055096"
         offset="0"
         id="stop52"
         style="stop-color:#175ddc;stop-opacity:1;" />
      <stop
         stop-color="#0587eb"
         offset="1"
         id="stop54" />
    </linearGradient>
  </defs>
  <rect
     transform="scale(0.26458)"
     x="4.5"
     y="4.5"
     width="55"
     height="55"
     rx="13.002"
     ry="13.002"
     filter="url(#filter2076)"
     opacity="0.3"
     id="rect59" />
  <path
     d="m 4.631,1.1907 c -1.9058,0 -3.44,1.5342 -3.44,3.44 v 7.6717 c 0,1.9058 1.5342,3.44 3.44,3.44 h 7.6717 c 1.9058,0 3.44,-1.5342 3.44,-3.44 V 4.6307 c 0,-1.9058 -1.5342,-3.44 -3.44,-3.44 z"
     fill="url(#linearGradient1502)"
     stroke-linecap="round"
     stroke-linejoin="round"
     stroke-width="0.53299"
     style="fill:url(#linearGradient1502);paint-order:stroke fill markers"
     id="path61" />
  <path
     class="st0"
     d="M 12.209843,3.9508921 C 12.13476,3.8758107 12.041804,3.8364823 11.938118,3.8364823 H 4.9948798 c -0.1036787,0 -0.1966417,0.039329 -0.271723,0.1144098 -0.075084,0.075081 -0.1144092,0.1680392 -0.1144092,0.271723 v 4.6300186 c 0,0.3468046 0.067935,0.6864581 0.200217,1.0261108 0.1358609,0.3396555 0.3003257,0.6399815 0.5005416,0.9045535 0.200217,0.264573 0.4361877,0.518418 0.7114851,0.76869 0.2752995,0.250271 0.5291453,0.457639 0.7615404,0.622103 0.2323941,0.164463 0.4755155,0.321776 0.7293624,0.468365 0.2538468,0.146587 0.4326112,0.246695 0.5398705,0.296749 0.1072585,0.05363 0.1930662,0.09295 0.2574213,0.121561 0.046477,0.02502 0.1001042,0.03575 0.1573138,0.03575 0.057201,0 0.1072584,-0.01074 0.1573137,-0.03575 0.064351,-0.02861 0.1501628,-0.06793 0.2574212,-0.121561 0.1072594,-0.05362 0.2860248,-0.150162 0.5398705,-0.296749 0.2538469,-0.146589 0.4969685,-0.303902 0.7293619,-0.468365 0.232396,-0.164464 0.486241,-0.371832 0.76154,-0.622103 0.275297,-0.250272 0.511268,-0.504117 0.711484,-0.76869 0.200217,-0.264572 0.364682,-0.564898 0.500542,-0.9045535 0.135863,-0.3396527 0.200219,-0.6828822 0.200219,-1.0261108 V 4.2226152 c 0,-0.1036839 -0.03932,-0.1930664 -0.114409,-0.2717231 z m -0.893828,4.944645 c 0,1.6768169 -2.8459399,3.1176649 -2.8459399,3.1176649 V 4.8268413 h 2.8459399 z"
     id="path1508"
     sodipodi:nodetypes="cssssscssssccscsssssssscscccs"
     style="fill:#ffffff;stroke-width:0.0357529" />
</svg>
