<?xml version="1.0" encoding="UTF-8" standalone="no"?>
<svg
   xml:space="preserve"
   width="64"
   height="64"
   viewBox="0 0 16.933 16.933"
   version="1.1"
   id="svg2"
   sodipodi:docname="black-mesa.svg"
   inkscape:version="1.4 (e7c3feb100, 2024-10-09)"
   xmlns:inkscape="http://www.inkscape.org/namespaces/inkscape"
   xmlns:sodipodi="http://sodipodi.sourceforge.net/DTD/sodipodi-0.dtd"
   xmlns="http://www.w3.org/2000/svg"
   xmlns:svg="http://www.w3.org/2000/svg"><sodipodi:namedview
     id="namedview2"
     pagecolor="#505050"
     bordercolor="#eeeeee"
     borderopacity="1"
     inkscape:showpageshadow="0"
     inkscape:pageopacity="0"
     inkscape:pagecheckerboard="0"
     inkscape:deskcolor="#505050"
     inkscape:zoom="4.2757863"
     inkscape:cx="97.408984"
     inkscape:cy="25.024637"
     inkscape:window-width="1920"
     inkscape:window-height="1004"
     inkscape:window-x="0"
     inkscape:window-y="0"
     inkscape:window-maximized="1"
     inkscape:current-layer="svg2" /><defs
     id="defs2"><linearGradient
       id="a"
       x1="7.937"
       x2="7.937"
       y1="15.081"
       y2="1.852"
       gradientUnits="userSpaceOnUse"><stop
         offset="0"
         stop-color="#2858e4"
         id="stop1" /><stop
         offset="1"
         stop-color="#5ab9f4"
         id="stop2" /></linearGradient><filter
       id="filter2076"
       x="-0.048000001"
       y="-0.048000001"
       width="1.096"
       height="1.096"
       color-interpolation-filters="sRGB"><feGaussianBlur
         stdDeviation="1.1"
         id="feGaussianBlur161" /></filter><linearGradient
       id="linearGradient2070"
       x1="145"
       x2="200"
       y1="59"
       y2="4"
       gradientTransform="matrix(0.26457812,0,0,0.26457812,-37.173225,0.1322892)"
       gradientUnits="userSpaceOnUse"><stop
         stop-color="#ffc841"
         offset="0"
         id="stop154" /><stop
         stop-color="#ffbe37"
         offset=".4925"
         id="stop156" /><stop
         stop-color="#ffc841"
         offset="1"
         id="stop158" /></linearGradient></defs><rect
     x="4.5000014"
     y="4.5000014"
     width="55"
     height="55"
     rx="13.002"
     ry="13.002"
     filter="url(#filter2076)"
     opacity="0.3"
     id="rect170"
     transform="scale(0.26457812)" /><rect
     x="1.1906017"
     y="1.1906016"
     width="14.551797"
     height="14.551797"
     rx="3.4400446"
     ry="3.4400446"
     fill="url(#linearGradient2070)"
     id="rect172"
     style="fill:url(#linearGradient2070);stroke-width:0.264578" /><path
     d="m 2.2280002,2.072 0.002,-10e-4 z m 6.276,0.465 a 6.1,6.1 0 0 0 -2.822,0.81 c -0.598,0.34 -1.507,1.17 -1.93,1.765 a 6.8,6.8 0 0 0 -0.959,2.1 c -0.185,0.775 -0.186,2.077 -10e-4,2.848 0.556,2.319 2.527,4.143 4.91,4.543 0.537,0.09 1.505,0.076 2.12,-0.032 C 10.989,14.368 11.956,13.879 12.839,13.046 c 1.186,-1.119 1.81,-2.498 1.866,-4.113 V 8.406 c -0.04,-1.009 -0.2,-1.664 -0.61,-2.5 C 13.482,4.659 12.61,3.787 11.352,3.166 A 6,6 0 0 0 8.5040002,2.537 m 0.187,1.203 c 0.777,0 1.4699998,0.15 2.1209998,0.46 1.62,0.774 2.78,2.591 2.778,4.354 0,0.492 -0.104,1.183 -0.218,1.463 L 13.291,10.214 12.561,9.277 11.834,8.34 H 7.1240002 v 3.134 h -1.193 c -1.359,0 -1.202,0.068 -1.59,-0.7 a 4.78,4.78 0 0 1 -0.255,-3.781 c 0.246,-0.707 0.547,-1.161 1.205,-1.821 0.99,-0.993 2.03,-1.432 3.4,-1.432"
     style="fill:#833808;stroke-width:1.05947;fill-opacity:1"
     id="path3" /></svg>
