<?xml version="1.0" encoding="UTF-8" standalone="no"?>
<svg
   width="64"
   height="64"
   version="1.1"
   id="svg6"
   sodipodi:docname="blackmagicraw-player.svg"
   inkscape:version="1.3 (0e150ed6c4, 2023-07-21)"
   xmlns:inkscape="http://www.inkscape.org/namespaces/inkscape"
   xmlns:sodipodi="http://sodipodi.sourceforge.net/DTD/sodipodi-0.dtd"
   xmlns:xlink="http://www.w3.org/1999/xlink"
   xmlns="http://www.w3.org/2000/svg"
   xmlns:svg="http://www.w3.org/2000/svg">
  <defs
     id="defs6">
    <linearGradient
       id="linearGradient11"
       inkscape:collect="always">
      <stop
         style="stop-color:#ff6519;stop-opacity:1;"
         offset="0"
         id="stop11" />
      <stop
         style="stop-color:#ffa119;stop-opacity:1"
         offset="1"
         id="stop12" />
    </linearGradient>
    <filter
       inkscape:collect="always"
       style="color-interpolation-filters:sRGB"
       id="filter1057"
       x="-0.026999999"
       width="1.054"
       y="-0.026999999"
       height="1.054">
      <feGaussianBlur
         inkscape:collect="always"
         stdDeviation="0.61875"
         id="feGaussianBlur1059" />
    </filter>
    <radialGradient
       inkscape:collect="always"
       xlink:href="#linearGradient37376"
       id="radialGradient37378"
       cx="8.4665003"
       cy="8.4665003"
       fx="8.4665003"
       fy="8.4665003"
       r="7.276"
       gradientUnits="userSpaceOnUse"
       gradientTransform="scale(3.779602)" />
    <linearGradient
       inkscape:collect="always"
       id="linearGradient37376">
      <stop
         style="stop-color:#5e6a76;stop-opacity:1;"
         offset="0"
         id="stop37372" />
      <stop
         style="stop-color:#1d2123;stop-opacity:1;"
         offset="1"
         id="stop37374" />
    </linearGradient>
    <radialGradient
       id="radialGradient1108"
       cx="16.704"
       cy="8.3174"
       r="10.264"
       gradientTransform="matrix(0.60619,3.3498e-8,-4.0009e-8,0.72401,24.359316,0.5123)"
       gradientUnits="userSpaceOnUse">
      <stop
         stop-color="#fff"
         offset="0"
         id="stop14" />
      <stop
         stop-color="#f8f8f8"
         offset=".8"
         id="stop16" />
      <stop
         stop-color="#c4c4c4"
         offset="1"
         id="stop18" />
    </radialGradient>
    <linearGradient
       inkscape:collect="always"
       xlink:href="#linearGradient11"
       id="linearGradient12"
       x1="111.75629"
       y1="32.00024"
       x2="130.38666"
       y2="32.00024"
       gradientUnits="userSpaceOnUse" />
  </defs>
  <sodipodi:namedview
     id="namedview6"
     pagecolor="#ffffff"
     bordercolor="#000000"
     borderopacity="0.25"
     inkscape:showpageshadow="2"
     inkscape:pageopacity="0.0"
     inkscape:pagecheckerboard="0"
     inkscape:deskcolor="#d1d1d1"
     inkscape:zoom="5.734375"
     inkscape:cx="76.904632"
     inkscape:cy="31.389646"
     inkscape:window-width="1920"
     inkscape:window-height="941"
     inkscape:window-x="0"
     inkscape:window-y="34"
     inkscape:window-maximized="1"
     inkscape:current-layer="svg6" />
  <circle
     cx="122.75629"
     cy="32"
     r="27"
     fill="#3f3f3f"
     id="circle1" />
  <path
     fill="#ffffff"
     d="m 122.75629,5 a 27,27 0 0 0 -12,2.867 v 48.266 a 27,27 0 0 0 12,2.867 27,27 0 0 0 27,-27 27,27 0 0 0 -27,-27 z"
     opacity="0.1"
     id="path1" />
  <path
     fill="#ffa119"
     d="m 113.30729,16.572 a 1.516,1.523 0 0 0 -1.551,1.522 v 27.813 a 1.516,1.523 0 0 0 2.272,1.319 l 11.984,-6.952 11.986,-6.954 a 1.516,1.523 0 0 0 0,-2.639 l -11.986,-6.951 -11.984,-6.953 a 1.516,1.523 0 0 0 -0.721,-0.204 z"
     id="path2" />
  <rect
     width="5.7859998"
     height="5.7859998"
     x="115.04229"
     y="11.75"
     fill="#313131"
     rx="1.446"
     ry="1.446"
     id="rect2" />
  <rect
     width="5.7859998"
     height="5.7859998"
     x="115.04229"
     y="29.107"
     fill="#313131"
     rx="1.446"
     ry="1.446"
     id="rect3" />
  <rect
     width="5.7859998"
     height="5.7859998"
     x="115.04229"
     y="37.785999"
     fill="#313131"
     rx="1.446"
     ry="1.446"
     id="rect4" />
  <rect
     width="5.7859998"
     height="5.7859998"
     x="115.04229"
     y="46.464001"
     fill="#313131"
     rx="1.446"
     ry="1.446"
     id="rect5" />
  <rect
     width="5.7859998"
     height="5.7859998"
     x="115.04229"
     y="20.429001"
     fill="#313131"
     rx="1.446"
     ry="1.446"
     id="rect6" />
  <rect
     ry="15"
     y="4.4999995"
     x="4.4999995"
     height="55"
     width="55"
     id="rect1055"
     style="opacity:0.3;fill:#141414;fill-opacity:1;stroke-width:2.74436;stroke-linecap:round;filter:url(#filter1057)" />
  <rect
     x="4.4996133"
     y="4.4996171"
     width="55.000767"
     height="55.000767"
     ry="15.000106"
     stroke-linecap="round"
     stroke-width="2.74441"
     id="rect36685"
     style="fill:url(#radialGradient37378);fill-opacity:1" />
  <path
     id="rect12"
     style="fill:#ffffff;fill-opacity:1;opacity:0.1"
     d="M 19.5 4.5 C 19.163909 4.5 18.830456 4.5155588 18.5 4.5371094 L 18.5 59.462891 C 18.830456 59.484441 19.163909 59.5 19.5 59.5 L 44.5 59.5 C 52.81005 59.5 59.5 52.81005 59.5 44.5 L 59.5 19.5 C 59.5 11.18995 52.81005 4.5 44.5 4.5 L 19.5 4.5 z " />
  <g
     id="g11"
     transform="translate(-93.256759)">
    <path
       d="m 113.30729,16.572 a 1.516,1.523 0 0 0 -1.551,1.522 v 27.813 a 1.516,1.523 0 0 0 2.272,1.319 l 11.984,-6.952 11.986,-6.954 a 1.516,1.523 0 0 0 0,-2.639 l -11.986,-6.951 -11.984,-6.953 a 1.516,1.523 0 0 0 -0.721,-0.204 z"
       id="path6"
       style="fill:url(#linearGradient12)" />
    <path
       id="rect7"
       d="M 116.48918 11.75 C 115.6881 11.75 115.04192 12.394229 115.04192 13.195312 L 115.04192 16.089844 C 115.04192 16.890927 115.6881 17.535156 116.48918 17.535156 L 119.38176 17.535156 C 120.18284 17.535156 120.82902 16.890927 120.82902 16.089844 L 120.82902 13.195312 C 120.82902 12.394229 120.18284 11.75 119.38176 11.75 L 116.48918 11.75 z M 116.48918 20.429688 C 115.6881 20.429687 115.04192 21.073917 115.04192 21.875 L 115.04192 24.769531 C 115.04192 25.570614 115.6881 26.214844 116.48918 26.214844 L 119.38176 26.214844 C 120.18284 26.214844 120.82902 25.570614 120.82902 24.769531 L 120.82902 21.875 C 120.82902 21.073917 120.18284 20.429688 119.38176 20.429688 L 116.48918 20.429688 z M 116.48918 29.107422 C 115.6881 29.107422 115.04192 29.751651 115.04192 30.552734 L 115.04192 33.447266 C 115.04192 34.248349 115.6881 34.892578 116.48918 34.892578 L 119.38176 34.892578 C 120.18284 34.892578 120.82902 34.248349 120.82902 33.447266 L 120.82902 30.552734 C 120.82902 29.751651 120.18284 29.107422 119.38176 29.107422 L 116.48918 29.107422 z M 116.48918 37.785156 C 115.6881 37.785156 115.04192 38.431339 115.04192 39.232422 L 115.04192 42.126953 C 115.04192 42.928036 115.6881 43.572266 116.48918 43.572266 L 119.38176 43.572266 C 120.18284 43.572266 120.82902 42.928036 120.82902 42.126953 L 120.82902 39.232422 C 120.82902 38.431339 120.18284 37.785156 119.38176 37.785156 L 116.48918 37.785156 z M 116.48918 46.464844 C 115.6881 46.464844 115.04192 47.109073 115.04192 47.910156 L 115.04192 50.804688 C 115.04192 51.605771 115.6881 52.25 116.48918 52.25 L 119.38176 52.25 C 120.18284 52.25 120.82902 51.605771 120.82902 50.804688 L 120.82902 47.910156 C 120.82902 47.109073 120.18284 46.464844 119.38176 46.464844 L 116.48918 46.464844 z "
       style="fill:#141414;fill-opacity:1" />
  </g>
</svg>
