<?xml version="1.0" encoding="UTF-8" standalone="no"?>
<svg
   xmlns:dc="http://purl.org/dc/elements/1.1/"
   xmlns:cc="http://creativecommons.org/ns#"
   xmlns:rdf="http://www.w3.org/1999/02/22-rdf-syntax-ns#"
   xmlns:svg="http://www.w3.org/2000/svg"
   xmlns="http://www.w3.org/2000/svg"
   xmlns:xlink="http://www.w3.org/1999/xlink"
   xmlns:sodipodi="http://sodipodi.sourceforge.net/DTD/sodipodi-0.dtd"
   xmlns:inkscape="http://www.inkscape.org/namespaces/inkscape"
   width="64"
   height="64"
   version="1.1"
   viewBox="0 0 16.933 16.933"
   id="svg1215"
   sodipodi:docname="blender.svg"
   inkscape:version="1.0.1 (3bc2e813f5, 2020-09-07)">
  <sodipodi:namedview
     pagecolor="#ffffff"
     bordercolor="#666666"
     borderopacity="1"
     objecttolerance="10"
     gridtolerance="10"
     guidetolerance="10"
     inkscape:pageopacity="0"
     inkscape:pageshadow="2"
     inkscape:window-width="1920"
     inkscape:window-height="932"
     id="namedview1217"
     showgrid="false"
     inkscape:zoom="8.4521357"
     inkscape:cx="6.529661"
     inkscape:cy="38.866776"
     inkscape:window-x="0"
     inkscape:window-y="36"
     inkscape:window-maximized="1"
     inkscape:current-layer="svg1215" />
  <metadata
     id="metadata2">
    <rdf:RDF>
      <cc:Work
         rdf:about="">
        <dc:format>image/svg+xml</dc:format>
        <dc:type
           rdf:resource="http://purl.org/dc/dcmitype/StillImage" />
        <dc:title></dc:title>
      </cc:Work>
    </rdf:RDF>
  </metadata>
  <defs
     id="defs361">
    <linearGradient
       id="c"
       x1="196"
       x2="156.08"
       y1="124.13"
       y2="62"
       gradientTransform="matrix(0.06077,0,0,0.06077,-1.918,277.38)"
       gradientUnits="userSpaceOnUse"
       xlink:href="#b" />
    <linearGradient
       id="b">
      <stop
         stop-color="#763704"
         offset="0"
         id="stop5" />
      <stop
         stop-color="#763704"
         stop-opacity="0"
         offset="1"
         id="stop7" />
    </linearGradient>
    <linearGradient
       id="d"
       x1="196"
       x2="156.08"
       y1="124.13"
       y2="62"
       gradientTransform="matrix(0.042972,-0.042969,0.042969,0.042972,-7.3639,290.28)"
       gradientUnits="userSpaceOnUse"
       xlink:href="#b" />
    <linearGradient
       id="e"
       x1="196"
       x2="156.08"
       y1="124.13"
       y2="62"
       gradientTransform="matrix(0,-0.06077,0.06077,0,-1.912,303.13)"
       gradientUnits="userSpaceOnUse"
       xlink:href="#b" />
    <clipPath
       id="dk">
      <path
         d="m641.57 1047.1h77.223v80.595h-77.223z"
         id="path12" />
    </clipPath>
    <clipPath
       id="dj">
      <path
         d="m796.19 1032.6h108v108h-108z"
         id="path15" />
    </clipPath>
    <clipPath
       id="di">
      <path
         d="m797.19 1036.6h106v33.142h-106z"
         id="path18" />
    </clipPath>
    <clipPath
       id="dh">
      <path
         d="m799.19 1066.7v-21.138c0-4.419 3.582-8.005 8.003-8.005h85.993c4.419 0 8.003 3.583 8.003 8.005v21.138z"
         id="path21" />
    </clipPath>
    <clipPath
       id="dg">
      <path
         d="m590.19 1067.7h104v-31.14h-104z"
         id="path24" />
    </clipPath>
    <clipPath
       id="df">
      <path
         d="m813.88 1115.7h14.8v14.8h-14.8z"
         id="path27" />
    </clipPath>
    <clipPath
       id="de">
      <path
         d="m871.68 1115.7h14.8v14.8h-14.8z"
         id="path30" />
    </clipPath>
    <clipPath
       id="dd">
      <path
         d="m815.62 1089.4h69.177v37.75h-69.177z"
         id="path33" />
    </clipPath>
    <clipPath
       id="dc">
      <path
         d="m291.18 844.46h108v108.12h-108z"
         id="path36" />
    </clipPath>
    <clipPath
       id="db">
      <path
         d="m658.79 884.04h17.705v17.706h-17.705z"
         id="path39" />
    </clipPath>
    <clipPath
       id="da">
      <path
         d="m678.86 884.04h17.705v17.706h-17.705z"
         id="path42" />
    </clipPath>
    <clipPath
       id="cz">
      <path
         d="m698.92 884.04h17.705v17.706h-17.705z"
         id="path45" />
    </clipPath>
    <clipPath
       id="cy">
      <path
         d="m796.19 844.58h108v108h-108zm3 55.999c0 28.167 22.826 51.001 51 51.001 28.165 0 50.999-22.828 50.999-51.001 0-28.166-22.826-51-50.999-51-28.167 0-51 22.828-51 51"
         id="path48" />
    </clipPath>
    <clipPath
       id="cx">
      <path
         d="m802.14 850.53h96.099v96.1h-96.099zm2.999 50.05c0 24.881 20.165 45.05 45.051 45.05 24.88 0 45.049-20.164 45.049-45.05 0-24.88-20.164-45.049-45.049-45.049-24.881 0-45.051 20.163-45.051 45.049"
         id="path51" />
    </clipPath>
    <clipPath
       id="cw">
      <path
         d="m808.09 856.48h84.2v84.2h-84.2z"
         id="path54" />
    </clipPath>
    <clipPath
       id="cv">
      <path
         d="m836.28 848.58h66.9v45.65h-66.9z"
         id="path57" />
    </clipPath>
    <clipPath
       id="cu">
      <path
         d="m123.19 653.58h108v108h-108z"
         id="path60" />
    </clipPath>
    <clipPath
       id="ct">
      <path
         d="m626.19 654.58h108v108h-108z"
         id="path63" />
    </clipPath>
    <clipPath
       id="cs">
      <path
         d="m629.59 657.98h101.2v101.2h-101.2z"
         id="path66" />
    </clipPath>
    <clipPath
       id="co">
      <path
         d="m626.19 467.58h108v108h-108z"
         id="path69" />
    </clipPath>
    <clipPath
       id="ck">
      <path
         d="m122.19 275.58h108v108h-108z"
         id="path72" />
    </clipPath>
    <clipPath
       id="ch">
      <path
         d="m210.34 363.74h16.929v16.929h-16.929z"
         id="path75" />
    </clipPath>
    <clipPath
       id="cg">
      <path
         d="m124.37 278.5h30.772v30.772h-30.772z"
         id="path78" />
    </clipPath>
    <clipPath
       id="ce">
      <path
         d="m493.74 324.58h36.9v36.9h-36.9z"
         id="path81" />
    </clipPath>
    <clipPath
       id="cb">
      <path
         d="m127.98 91.381h96.4v96.401h-96.4z"
         id="path84" />
    </clipPath>
    <clipPath
       id="by">
      <path
         d="m461.18 141.58c0-28.166 22.834-51 51-51 28.167 0 51.001 22.834 51.001 51s-22.834 51-51.001 51c-28.166 0-51-22.834-51-51"
         id="path87" />
    </clipPath>
    <clipPath
       id="bx">
      <path
         d="m242.19 195.58h108v-108h-108z"
         id="path90" />
    </clipPath>
    <clipPath
       id="bw">
      <path
         d="m485.87 109.62h52.06v59.185h-52.06z"
         id="path93" />
    </clipPath>
    <clipPath
       id="bt">
      <path
         d="m821.69 123.68h60.701v53.051h-60.701z"
         id="path96" />
    </clipPath>
    <clipPath
       id="bs">
      <path
         d="m816.59 104.98h71.75v36.049h-71.75z"
         id="path99" />
    </clipPath>
    <clipPath
       id="bo">
      <path
         d="m641.57 1047.1h77.223v80.595h-77.223z"
         id="path102" />
    </clipPath>
    <clipPath
       id="bn">
      <path
         d="m796.19 1032.6h108v108h-108z"
         id="path105" />
    </clipPath>
    <clipPath
       id="bm">
      <path
         d="m797.19 1036.6h106v33.142h-106z"
         id="path108" />
    </clipPath>
    <clipPath
       id="bl">
      <path
         d="m799.19 1066.7v-21.138c0-4.419 3.582-8.005 8.003-8.005h85.993c4.419 0 8.003 3.583 8.003 8.005v21.138z"
         id="path111" />
    </clipPath>
    <clipPath
       id="bk">
      <path
         d="m590.19 1067.7h104v-31.14h-104z"
         id="path114" />
    </clipPath>
    <clipPath
       id="bj">
      <path
         d="m813.88 1115.7h14.8v14.8h-14.8z"
         id="path117" />
    </clipPath>
    <clipPath
       id="bi">
      <path
         d="m871.68 1115.7h14.8v14.8h-14.8z"
         id="path120" />
    </clipPath>
    <clipPath
       id="bh">
      <path
         d="m815.62 1089.4h69.177v37.75h-69.177z"
         id="path123" />
    </clipPath>
    <clipPath
       id="bf">
      <path
         d="m291.18 844.46h108v108.12h-108z"
         id="path126" />
    </clipPath>
    <clipPath
       id="ay">
      <path
         d="m658.79 884.04h17.705v17.706h-17.705z"
         id="path129" />
    </clipPath>
    <clipPath
       id="ax">
      <path
         d="m678.86 884.04h17.705v17.706h-17.705z"
         id="path132" />
    </clipPath>
    <clipPath
       id="av">
      <path
         d="m698.92 884.04h17.705v17.706h-17.705z"
         id="path135" />
    </clipPath>
    <clipPath
       id="at">
      <path
         d="m796.19 844.58h108v108h-108zm3 55.999c0 28.167 22.826 51.001 51 51.001 28.165 0 50.999-22.828 50.999-51.001 0-28.166-22.826-51-50.999-51-28.167 0-51 22.828-51 51"
         id="path138" />
    </clipPath>
    <clipPath
       id="as">
      <path
         d="m802.14 850.53h96.099v96.1h-96.099zm2.999 50.05c0 24.881 20.165 45.05 45.051 45.05 24.88 0 45.049-20.164 45.049-45.05 0-24.88-20.164-45.049-45.049-45.049-24.881 0-45.051 20.163-45.051 45.049"
         id="path141" />
    </clipPath>
    <clipPath
       id="ar">
      <path
         d="m808.09 856.48h84.2v84.2h-84.2z"
         id="path144" />
    </clipPath>
    <clipPath
       id="aq">
      <path
         d="m836.28 848.58h66.9v45.65h-66.9z"
         id="path147" />
    </clipPath>
    <clipPath
       id="ap">
      <path
         d="m123.19 653.58h108v108h-108z"
         id="path150" />
    </clipPath>
    <clipPath
       id="al">
      <path
         d="m626.19 654.58h108v108h-108z"
         id="path153" />
    </clipPath>
    <clipPath
       id="ak">
      <path
         d="m629.59 657.98h101.2v101.2h-101.2z"
         id="path156" />
    </clipPath>
    <clipPath
       id="ai">
      <path
         d="m626.19 467.58h108v108h-108z"
         id="path159" />
    </clipPath>
    <clipPath
       id="ag">
      <path
         d="m122.19 275.58h108v108h-108z"
         id="path162" />
    </clipPath>
    <clipPath
       id="af">
      <path
         d="m210.34 363.74h16.929v16.929h-16.929z"
         id="path165" />
    </clipPath>
    <clipPath
       id="ae">
      <path
         d="m124.37 278.5h30.772v30.772h-30.772z"
         id="path168" />
    </clipPath>
    <clipPath
       id="ab">
      <path
         d="m493.74 324.58h36.9v36.9h-36.9z"
         id="path171" />
    </clipPath>
    <clipPath
       id="y">
      <path
         d="m127.98 91.381h96.4v96.401h-96.4z"
         id="path174" />
    </clipPath>
    <clipPath
       id="v">
      <path
         d="m461.18 141.58c0-28.166 22.834-51 51-51 28.167 0 51.001 22.834 51.001 51s-22.834 51-51.001 51c-28.166 0-51-22.834-51-51"
         id="path177" />
    </clipPath>
    <clipPath
       id="u">
      <path
         d="m242.19 195.58h108v-108h-108z"
         id="path180" />
    </clipPath>
    <clipPath
       id="t">
      <path
         d="m485.87 109.62h52.06v59.185h-52.06z"
         id="path183" />
    </clipPath>
    <clipPath
       id="m">
      <path
         d="m821.69 123.68h60.701v53.051h-60.701z"
         id="path186" />
    </clipPath>
    <clipPath
       id="k">
      <path
         d="m816.59 104.98h71.75v36.049h-71.75z"
         id="path189" />
    </clipPath>
    <clipPath
       id="cr">
      <path
         d="m481 318h22v22h-22z"
         id="path192" />
    </clipPath>
    <clipPath
       id="cq">
      <path
         d="m507 318h22v22h-22z"
         id="path195" />
    </clipPath>
    <clipPath
       id="cp">
      <path
         d="m530 318h22v22h-22z"
         id="path198" />
    </clipPath>
    <clipPath
       id="cn">
      <path
         d="m672 1064c0-1.105 4.925-2 11-2s11 0.895 11 2-4.925 2-11 2-11-0.895-11-2"
         id="path201" />
    </clipPath>
    <clipPath
       id="cm">
      <path
         d="m660 1057h51v65.001h-51z"
         id="path204" />
    </clipPath>
    <clipPath
       id="cl">
      <path
         d="m659 517h53v18h-53z"
         id="path207" />
    </clipPath>
    <clipPath
       id="cj">
      <path
         d="m659 500h53v18h-53z"
         id="path210" />
    </clipPath>
    <clipPath
       id="ci">
      <path
         d="m648 112h73v60h-73z"
         id="path213" />
    </clipPath>
    <clipPath
       id="cf">
      <path
         d="m826 1056h59v60h-59z"
         id="path216" />
    </clipPath>
    <clipPath
       id="cd">
      <path
         d="m805 276h100v100h-100z"
         id="path219" />
    </clipPath>
    <clipPath
       id="cc">
      <path
         d="m145 1063.8h74.152v45.21h-74.152z"
         id="path222" />
    </clipPath>
    <clipPath
       id="ca">
      <path
         d="m151 667h57v57h-57z"
         id="path225" />
    </clipPath>
    <clipPath
       id="bz">
      <path
         d="m154 697h51v51h-51z"
         id="path228" />
    </clipPath>
    <clipPath
       id="bv">
      <path
         d="m500.04 864.45h36.012v67.52h-36.012z"
         id="path231" />
    </clipPath>
    <clipPath
       id="bu">
      <path
         d="m836 870.54h47v55.539h-47z"
         id="path234" />
    </clipPath>
    <clipPath
       id="br">
      <path
         d="m318.03 702.35h62.848v37.991h-62.848z"
         id="path237" />
    </clipPath>
    <clipPath
       id="bq">
      <path
         d="m485.03 133.35h62.847v37.991h-62.847z"
         id="path240" />
    </clipPath>
    <clipPath
       id="bp">
      <path
         d="m493.37 677.93h45.643v68.067h-45.643z"
         id="path243" />
    </clipPath>
    <clipPath
       id="bg">
      <path
         d="m144.34 1018.2h71.467v78h-71.467z"
         id="path246" />
    </clipPath>
    <clipPath
       id="be">
      <path
         d="m293.21 1068.6 66.323-38.292 36.047 62.435-66.323 38.292z"
         id="path249" />
    </clipPath>
    <clipPath
       id="bd">
      <path
         d="m488.86 1054.5h10v10.706h-10z"
         id="path252" />
    </clipPath>
    <clipPath
       id="bc">
      <path
         d="m508 1066.8h10.001v10.705h-10.001z"
         id="path255" />
    </clipPath>
    <clipPath
       id="bb">
      <path
         d="m525 1045.8h10v10.706h-10z"
         id="path258" />
    </clipPath>
    <clipPath
       id="ba">
      <path
         d="m836 1043.7h25.5v31.5h-25.5z"
         id="path261" />
    </clipPath>
    <clipPath
       id="az">
      <path
         d="m838 1062.2h24v24h-24z"
         id="path264" />
    </clipPath>
    <clipPath
       id="aw">
      <path
         d="m134 489.24h7v6h-7z"
         id="path267" />
    </clipPath>
    <clipPath
       id="au">
      <path
         d="m216 489.24h7v6h-7z"
         id="path270" />
    </clipPath>
    <clipPath
       id="ao">
      <path
         d="m838 477.24h22v22h-22z"
         id="path273" />
    </clipPath>
    <clipPath
       id="an">
      <path
         d="m704 1061.2h25v25h-25z"
         id="path276" />
    </clipPath>
    <clipPath
       id="am">
      <path
         d="m663.04 1078.6-1.808-3.514-21.07-47.453c13.336-18.439 48.336-26.938 73.836-3.439 0.842 0 6.476 6.246 6 7l-18.386 25.895c-0.483 0.765-1.453 0.946-2.177 0.431l-15.505-11.011c-0.359-0.255-0.847-0.153-1.07 0.238l-18.272 31.869c-0.218 0.384-0.502 0.578-0.782 0.578-0.282 0-0.561-0.197-0.766-0.594"
         id="path279" />
    </clipPath>
    <clipPath
       id="aj">
      <path
         d="m127 820.24h100v100h-100z"
         id="path282" />
    </clipPath>
    <clipPath
       id="ah">
      <path
         d="m809 680.24c0-22.092 17.908-40 40-40s40 17.908 40 40c0 22.091-17.908 40-40 40s-40-17.909-40-40"
         id="path285" />
    </clipPath>
    <clipPath
       id="ad">
      <path
         d="m658 469.24h44v45h-44z"
         id="path288" />
    </clipPath>
    <clipPath
       id="ac">
      <path
         d="m651 271.24h58v58h-58z"
         id="path291" />
    </clipPath>
    <clipPath
       id="aa">
      <path
         d="m662 307.24h38v8h-38z"
         id="path294" />
    </clipPath>
    <clipPath
       id="z">
      <path
         d="m858.98 137.24c0.013-0.101 0.021-0.203 0.021-0.307v-6.693h15.75c1.237 0 2.25-1.013 2.25-2.25v-11.25l-27-4.5-27 4.5v-2.25l27-4.5 27 4.5v-27c0-1.237-1.013-2.25-2.25-2.25h-49.5c-1.237 0-2.25 1.013-2.25 2.25v-4.25h54v54zm-35.979 0v-9.25c0 1.237 1.013 2.25 2.25 2.25h15.75v6.693c0 0.104 7e-3 0.207 0.02 0.307zm22.5-7h9v4.5h-9zm1.125-9c-0.62 0-1.125-0.506-1.125-1.125v-2.25c0-0.619 0.505-1.125 1.125-1.125h6.75c0.619 0 1.125 0.506 1.125 1.125v2.25c0 0.619-0.506 1.125-1.125 1.125z"
         id="path297" />
    </clipPath>
    <clipPath
       id="x">
      <path
         d="m531.27 136.24c6.325-2.29 10.727-8.277 10.727-15.484 0-11.316-10.2-20.563-25.65-34.575l-4.35-3.941-4.35 3.941c-15.45 14.012-25.65 23.259-25.65 34.575v-39.516h60v55zm-26.983 0c2.995-1.052 5.686-2.883 7.71-5.25 2.024 2.367 4.715 4.198 7.71 5.25zm-22.29 0v-15.484c0 7.207 4.402 13.194 10.727 15.484z"
         id="path300" />
    </clipPath>
    <clipPath
       id="w">
      <path
         d="m648 79.241h64v64h-64z"
         id="path303" />
    </clipPath>
    <clipPath
       id="s">
      <path
         d="m500 691.74c0-3.037 2.463-5.5 5.5-5.5s5.5 2.463 5.5 5.5-2.463 5.5-5.5 5.5-5.5-2.463-5.5-5.5"
         id="path306" />
    </clipPath>
    <clipPath
       id="r">
      <path
         d="m500 669.74c0-3.037 2.463-5.5 5.5-5.5s5.5 2.463 5.5 5.5c0 3.038-2.463 5.5-5.5 5.5s-5.5-2.462-5.5-5.5"
         id="path309" />
    </clipPath>
    <clipPath
       id="q">
      <path
         d="m494 680.74c0-3.037 2.462-5.5 5.5-5.5s5.5 2.463 5.5 5.5c0 3.038-2.462 5.5-5.5 5.5s-5.5-2.462-5.5-5.5"
         id="path312" />
    </clipPath>
    <clipPath
       id="p">
      <path
         d="m513 691.74c0-3.037 2.463-5.5 5.5-5.5s5.5 2.463 5.5 5.5-2.463 5.5-5.5 5.5-5.5-2.463-5.5-5.5"
         id="path315" />
    </clipPath>
    <clipPath
       id="o">
      <path
         d="m513 669.74c0-3.037 2.463-5.5 5.5-5.5s5.5 2.463 5.5 5.5c0 3.038-2.463 5.5-5.5 5.5s-5.5-2.462-5.5-5.5"
         id="path318" />
    </clipPath>
    <clipPath
       id="n">
      <path
         d="m507 680.74c0-3.037 2.463-5.5 5.5-5.5s5.5 2.463 5.5 5.5c0 3.038-2.463 5.5-5.5 5.5s-5.5-2.462-5.5-5.5"
         id="path321" />
    </clipPath>
    <clipPath
       id="l">
      <path
         d="m520 680.74c0-3.037 2.463-5.5 5.5-5.5s5.5 2.463 5.5 5.5c0 3.038-2.463 5.5-5.5 5.5s-5.5-2.462-5.5-5.5"
         id="path324" />
    </clipPath>
    <clipPath
       id="j">
      <path
         d="m321 322.24c-4.97 0-9-4.029-9-9 0-4.97 4.03-9 9-9h45c4.971 0 9 4.03 9 9 0 4.971-4.029 9-9 9z"
         id="path327" />
    </clipPath>
    <clipPath
       id="i">
      <path
         d="m322 297.24c-4.971 0-9-4.029-9-9 0-4.97 4.029-9 9-9h45c4.971 0 9 4.03 9 9 0 4.971-4.029 9-9 9z"
         id="path330" />
    </clipPath>
    <clipPath
       id="h-3">
      <path
         d="m155 83.24h44v53h-44z"
         id="path333" />
    </clipPath>
    <linearGradient
       id="b-6"
       x1="399.57"
       x2="399.57"
       y1="545.8"
       y2="517.8"
       gradientTransform="matrix(2.1429 0 0 2.1429 -826.36 -1107.5)"
       gradientUnits="userSpaceOnUse">
      <stop
         stop-color="#3889e9"
         offset="0"
         id="stop336" />
      <stop
         stop-color="#5ea5fb"
         offset="1"
         id="stop338" />
    </linearGradient>
    <linearGradient
       id="linearGradient1969"
       x1="399.57"
       x2="399.57"
       y1="545.8"
       y2="517.8"
       gradientTransform="matrix(2.1429,0,0,2.1429,-678.2,-1123.7)"
       gradientUnits="userSpaceOnUse"
       xlink:href="#b-6" />
    <linearGradient
       id="linearGradient2121"
       x1="399.57"
       x2="399.57"
       y1="545.8"
       y2="517.8"
       gradientTransform="matrix(2.1429,0,0,2.1429,-748.58,-1122)"
       gradientUnits="userSpaceOnUse"
       xlink:href="#b-6" />
    <linearGradient
       id="linearGradient2204"
       x1="399.57"
       x2="399.57"
       y1="545.8"
       y2="517.8"
       gradientTransform="matrix(2.1429,0,0,2.1429,-725.07,-1132.1)"
       gradientUnits="userSpaceOnUse"
       xlink:href="#b-6" />
    <linearGradient
       id="linearGradient1969-7"
       x1="399.57"
       x2="399.57"
       y1="545.8"
       y2="517.8"
       gradientTransform="matrix(.56696 0 0 .56696 -192.04 -314.62)"
       gradientUnits="userSpaceOnUse"
       xlink:href="#b-6" />
    <linearGradient
       id="linearGradient2295"
       x1="399.57"
       x2="399.57"
       y1="545.8"
       y2="517.8"
       gradientTransform="matrix(.56696 0 0 .56696 -210.66 -314.17)"
       gradientUnits="userSpaceOnUse"
       xlink:href="#b-6" />
    <linearGradient
       id="linearGradient1969-6"
       x1="399.57"
       x2="399.57"
       y1="545.8"
       y2="517.8"
       gradientTransform="matrix(.56696 0 0 .56696 -181.72 -304.22)"
       gradientUnits="userSpaceOnUse"
       xlink:href="#b-6" />
    <linearGradient
       id="linearGradient2067"
       x1="399.57"
       x2="399.57"
       y1="545.8"
       y2="517.8"
       gradientTransform="matrix(.56696 0 0 .56696 -200.34 -303.77)"
       gradientUnits="userSpaceOnUse"
       xlink:href="#b-6" />
    <filter
       id="filter2761"
       x="-.024"
       y="-.024"
       width="1.048"
       height="1.048"
       color-interpolation-filters="sRGB">
      <feGaussianBlur
         stdDeviation="0.14552168"
         id="feGaussianBlur348" />
    </filter>
    <linearGradient
       id="linearGradient1024-6"
       x1="1.3315"
       x2="15.65"
       y1="15.576"
       y2="1.17"
       gradientTransform="translate(23.237491,0.14045)"
       gradientUnits="userSpaceOnUse">
      <stop
         stop-color="#dddfe1"
         offset="0"
         id="stop351" />
      <stop
         stop-color="#f3f4f6"
         stop-opacity=".99608"
         offset="1"
         id="stop353" />
    </linearGradient>
    <linearGradient
       id="linearGradient3190"
       x1="16.177"
       x2="1.2609"
       y1="295.43"
       y2="280.81"
       gradientUnits="userSpaceOnUse">
      <stop
         stop-color="#ff7d1e"
         offset="0"
         id="stop356" />
      <stop
         stop-color="#ffa53c"
         offset="1"
         id="stop358" />
    </linearGradient>
    <filter
       color-interpolation-filters="sRGB"
       height="1.048"
       width="1.048"
       y="-.024"
       x="-.024"
       id="filter2761-675">
      <feGaussianBlur
         id="feGaussianBlur4"
         stdDeviation="0.14552168" />
    </filter>
    <linearGradient
       gradientTransform="matrix(3.7796,0,0,3.7796,95.420454,0.53085)"
       gradientUnits="userSpaceOnUse"
       y2="2.6243"
       y1="15.576"
       x2="14.217"
       x1="1.3315"
       id="linearGradient1024">
      <stop
         id="stop7-3"
         offset="0"
         stop-color="#ff7d1e" />
      <stop
         id="stop9"
         offset="1"
         stop-color="#ffa53c" />
    </linearGradient>
    <linearGradient
       gradientUnits="userSpaceOnUse"
       gradientTransform="matrix(1.2346,0,0,1.2346,2.3832028,3.6047)"
       y2="4"
       y1="44"
       x2="0"
       id="linearGradient890">
      <stop
         id="stop4"
         offset="0"
         stop-color="#FFB900" />
      <stop
         id="stop6"
         offset="1"
         stop-color="#ff0" />
    </linearGradient>
    <filter
       color-interpolation-filters="sRGB"
       height="1.048"
       width="1.048"
       y="-.024"
       x="-.024"
       id="filter2761-67">
      <feGaussianBlur
         id="feGaussianBlur9"
         stdDeviation="0.14552168" />
    </filter>
    <linearGradient
       gradientUnits="userSpaceOnUse"
       gradientTransform="matrix(3.7796,0,0,3.7796,66.443573,0.53068)"
       y2="1.1082"
       y1="15.601"
       x2="15.644"
       x1="1.4377"
       id="linearGradient4673">
      <stop
         id="stop12"
         offset="0"
         stop-color="#dc2828" />
      <stop
         id="stop14"
         offset="1"
         stop-color="#fa4141" />
    </linearGradient>
    <linearGradient
       gradientUnits="userSpaceOnUse"
       y2="9.67"
       y1="54.592"
       x2="34.134"
       x1="34.134"
       id="linearGradient915">
      <stop
         id="stop17"
         offset="0"
         stop-color="#ffb900" />
      <stop
         id="stop19"
         offset="1"
         stop-color="#ff0" />
    </linearGradient>
    <filter
       inkscape:collect="always"
       style="color-interpolation-filters:sRGB"
       id="filter1057"
       x="-0.027000001"
       width="1.054"
       y="-0.027000001"
       height="1.054">
      <feGaussianBlur
         inkscape:collect="always"
         stdDeviation="0.61875"
         id="feGaussianBlur1059" />
    </filter>
    <linearGradient
       inkscape:collect="always"
       xlink:href="#linearGradient1051"
       id="linearGradient1053"
       x1="-127"
       y1="60"
       x2="-80.658669"
       y2="13.658672"
       gradientUnits="userSpaceOnUse"
       gradientTransform="matrix(0.26457812,0,0,0.26457812,34.792023,-0.13493417)" />
    <linearGradient
       inkscape:collect="always"
       id="linearGradient1051">
      <stop
         style="stop-color:#ff7d1e;stop-opacity:1"
         offset="0"
         id="stop1047" />
      <stop
         style="stop-color:#ffa53c;stop-opacity:1"
         offset="1"
         id="stop1049" />
    </linearGradient>
    <linearGradient
       id="linearGradient890-3"
       x2="0"
       y1="44"
       y2="4"
       gradientTransform="matrix(1.2346,0,0,1.2346,3.1419,3.6047)"
       gradientUnits="userSpaceOnUse">
      <stop
         stop-color="#FFB900"
         offset="0"
         id="stop861" />
      <stop
         stop-color="#ff0"
         offset="1"
         id="stop863" />
    </linearGradient>
    <filter
       id="filter2761-6"
       x="-.024"
       y="-.024"
       width="1.048"
       height="1.048"
       color-interpolation-filters="sRGB">
      <feGaussianBlur
         stdDeviation="0.14552168"
         id="feGaussianBlur866" />
    </filter>
  </defs>
  <circle
     cx="-330.38"
     cy="-328.5"
     r="0"
     fill="#5e4aa6"
     image-rendering="optimizeSpeed"
     stroke-width=".26458"
     id="circle363" />
  <g
     transform="matrix(.35279 0 0 -.35279 94.19 264.45)"
     image-rendering="optimizeSpeed"
     id="g371">
    <g
       clip-path="url(#dk)"
       id="g369">
      <g
         transform="translate(506.13,1122.7)"
         id="g367">
        <path
           d="m0 0h39.223c6.628 0 12-5.372 12-12v-42.595c0-6.627-5.372-12-12-12h-39.223c-6.628 0-12 5.373-12 12v42.595c0 6.628 5.372 12 12 12"
           fill="#fff"
           fill-rule="evenodd"
           id="path365" />
      </g>
    </g>
  </g>
  <g
     transform="matrix(.35279 0 0 -.35279 94.19 264.45)"
     image-rendering="optimizeSpeed"
     id="g379">
    <g
       clip-path="url(#dj)"
       id="g377">
      <g
         transform="translate(583.19,1131.6)"
         id="g375">
        <path
           d="m0 0c0 4.421 3.585 8.004 8.004 8.004h85.992c4.421 0 8.004-3.585 8.004-8.004v-85.992c0-4.421-3.585-8.004-8.004-8.004h-85.992c-4.421 0-8.004 3.585-8.004 8.004z"
           fill="#fff"
           fill-rule="evenodd"
           id="path373" />
      </g>
    </g>
  </g>
  <g
     transform="matrix(.35279 0 0 -.35279 94.19 264.45)"
     image-rendering="optimizeSpeed"
     id="g387">
    <g
       clip-path="url(#di)"
       id="g385">
      <g
         transform="translate(689.19,1066.7)"
         id="g383">
        <path
           d="m0 0v-21.139c0-4.421-3.585-8.004-8.004-8.004h-85.992c-4.421 0-8.004 3.585-8.004 8.004v21.139z"
           fill="#fff"
           fill-rule="evenodd"
           id="path381" />
      </g>
    </g>
  </g>
  <g
     transform="matrix(.35279 0 0 -.35279 94.19 264.45)"
     image-rendering="optimizeSpeed"
     id="g395">
    <g
       clip-path="url(#dh)"
       id="g393">
      <g
         clip-path="url(#dg)"
         id="g391">
        <path
           d="m590.19 1067.7h104v-31.143h-104zm103-1v-21.14c0-4.42-3.585-8.003-8.004-8.003h-85.993c-4.42 0-8.003 3.585-8.003 8.003v21.14z"
           fill="#fff"
           fill-rule="evenodd"
           id="path389" />
      </g>
    </g>
  </g>
  <g
     transform="matrix(.35279 0 0 -.35279 94.19 264.45)"
     image-rendering="optimizeSpeed"
     id="g403">
    <g
       clip-path="url(#df)"
       id="g401">
      <g
         transform="translate(791.69,1121.7)"
         id="g399">
        <path
           d="m0 0c-1.878 0-3.4 1.522-3.4 3.4s1.522 3.4 3.4 3.4 3.4-1.522 3.4-3.4-1.522-3.4-3.4-3.4m0 1.7c0.938 0 1.7 0.761 1.7 1.7s-0.762 1.7-1.7 1.7-1.7-0.761-1.7-1.7 0.762-1.7 1.7-1.7"
           fill="#fff"
           fill-rule="evenodd"
           id="path397" />
      </g>
    </g>
  </g>
  <g
     transform="matrix(.35279 0 0 -.35279 94.19 264.45)"
     image-rendering="optimizeSpeed"
     id="g411">
    <g
       clip-path="url(#de)"
       id="g409">
      <g
         transform="translate(849.49,1121.7)"
         id="g407">
        <path
           d="m0 0c-1.878 0-3.399 1.522-3.399 3.4s1.521 3.4 3.399 3.4 3.4-1.522 3.4-3.4-1.522-3.4-3.4-3.4m0 1.7c0.939 0 1.7 0.761 1.7 1.7s-0.761 1.7-1.7 1.7c-0.938 0-1.7-0.761-1.7-1.7s0.762-1.7 1.7-1.7"
           fill="#fff"
           fill-rule="evenodd"
           id="path405" />
      </g>
    </g>
  </g>
  <g
     transform="matrix(.35279 0 0 -.35279 94.19 264.45)"
     image-rendering="optimizeSpeed"
     id="g419">
    <g
       clip-path="url(#dd)"
       id="g417">
      <g
         transform="translate(681.27,1125.1)"
         id="g415">
        <path
           d="m0 0h3.401c0.45-14.629 12.45-26.35 27.188-26.35 14.737 0 26.737 11.721 27.186 26.35h3.402c-0.45-16.507-13.973-29.75-30.588-29.75-16.616 0-30.139 13.243-30.589 29.75"
           fill="#fff"
           fill-rule="evenodd"
           id="path413" />
      </g>
    </g>
  </g>
  <g
     transform="matrix(.35279 0 0 -.35279 94.19 264.45)"
     image-rendering="optimizeSpeed"
     id="g427">
    <g
       clip-path="url(#dc)"
       id="g425">
      <g
         transform="translate(78.186,943.59)"
         id="g423">
        <path
           d="m0 0c0 4.414 3.585 7.992 8.004 7.992h85.992c4.421 0 8.004-3.575 8.004-7.992v-86.137c0-4.414-3.585-7.992-8.004-7.992h-85.992c-4.421 0-8.004 3.574-8.004 7.992z"
           fill="#fff"
           fill-rule="evenodd"
           id="path421" />
      </g>
    </g>
  </g>
  <g
     transform="matrix(.35279 0 0 -.35279 94.19 264.45)"
     image-rendering="optimizeSpeed"
     id="g435">
    <g
       clip-path="url(#db)"
       id="g433">
      <g
         transform="translate(632.23,888.04)"
         id="g431">
        <path
           d="m0 0c3.232 0 5.853 2.62 5.853 5.853 0 3.232-2.621 5.852-5.853 5.852-3.231 0-5.853-2.62-5.853-5.852 0-3.233 2.622-5.853 5.853-5.853"
           fill="#fff"
           fill-rule="evenodd"
           id="path429" />
      </g>
    </g>
  </g>
  <g
     transform="matrix(.35279 0 0 -.35279 94.19 264.45)"
     image-rendering="optimizeSpeed"
     id="g443">
    <g
       clip-path="url(#da)"
       id="g441">
      <g
         transform="translate(652.3,888.04)"
         id="g439">
        <path
           d="m0 0c3.231 0 5.852 2.62 5.852 5.853 0 3.232-2.621 5.852-5.852 5.852-3.232 0-5.853-2.62-5.853-5.852 0-3.233 2.621-5.853 5.853-5.853"
           fill="#fff"
           fill-rule="evenodd"
           id="path437" />
      </g>
    </g>
  </g>
  <g
     transform="matrix(.35279 0 0 -.35279 94.19 264.45)"
     image-rendering="optimizeSpeed"
     id="g451">
    <g
       clip-path="url(#cz)"
       id="g449">
      <g
         transform="translate(672.37,888.04)"
         id="g447">
        <path
           d="m0 0c3.231 0 5.853 2.62 5.853 5.853 0 3.232-2.622 5.852-5.853 5.852-3.232 0-5.853-2.62-5.853-5.852 0-3.233 2.621-5.853 5.853-5.853"
           fill="#fff"
           fill-rule="evenodd"
           id="path445" />
      </g>
    </g>
  </g>
  <g
     transform="matrix(.35279 0 0 -.35279 94.19 264.45)"
     image-rendering="optimizeSpeed"
     id="g459">
    <g
       clip-path="url(#cy)"
       id="g457">
      <g
         transform="translate(583.19,900.58)"
         id="g455">
        <path
           d="m0 0c0 28.167 22.827 51 51 51 28.166 0 51-22.827 51-51 0-28.167-22.827-51-51-51-28.166 0-51 22.827-51 51"
           fill="#fff"
           fill-rule="evenodd"
           id="path453" />
      </g>
    </g>
  </g>
  <g
     transform="matrix(.35279 0 0 -.35279 94.19 264.45)"
     image-rendering="optimizeSpeed"
     id="g467">
    <g
       clip-path="url(#cx)"
       id="g465">
      <g
         transform="translate(612.94,900.58)"
         id="g463">
        <path
           d="m0 0c0 24.88 20.164 45.05 45.05 45.05 24.881 0 45.05-20.164 45.05-45.05 0-24.88-20.164-45.05-45.05-45.05-24.88 0-45.05 20.164-45.05 45.05"
           fill="#fff"
           fill-rule="evenodd"
           id="path461" />
      </g>
    </g>
  </g>
  <g
     transform="matrix(.35279 0 0 -.35279 94.19 264.45)"
     image-rendering="optimizeSpeed"
     id="g475">
    <g
       clip-path="url(#cw)"
       id="g473">
      <g
         transform="translate(642.69,900.58)"
         id="g471">
        <path
           d="m0 0c0 21.594 17.501 39.1 39.1 39.1 21.594 0 39.1-17.501 39.1-39.1 0-21.594-17.501-39.1-39.1-39.1-21.594 0-39.1 17.501-39.1 39.1"
           fill="#fff"
           fill-rule="evenodd"
           id="path469" />
      </g>
    </g>
  </g>
  <g
     transform="matrix(.35279 0 0 -.35279 94.19 264.45)"
     image-rendering="optimizeSpeed"
     id="g483">
    <g
       clip-path="url(#cv)"
       id="g481">
      <g
         transform="translate(719.17,880.17)"
         id="g479">
        <path
           d="m0 0c3.16 6.546 9.861 11.062 17.616 11.062 8.78 0 16.209-5.788 18.678-13.756 6.748-1.015 11.923-6.838 11.923-13.869 0-7.604-6.051-13.794-13.601-14.019v-6e-3h-35.699v0.093c-7.65 0.846-13.601 7.332-13.601 15.207 0 8.244 6.52 14.965 14.684 15.288"
           fill="#fff"
           fill-rule="evenodd"
           id="path477" />
      </g>
    </g>
  </g>
  <g
     transform="matrix(.35279 0 0 -.35279 94.19 264.45)"
     image-rendering="optimizeSpeed"
     id="g491">
    <g
       clip-path="url(#cu)"
       id="g489">
      <g
         transform="translate(12.186,693.43)"
         id="g487">
        <path
           d="m0 0v-26.846c0-4.421-3.585-8.004-8.004-8.004h-85.992c-4.421 0-8.004 3.585-8.004 8.004v26.846h5.1v11.9h-5.1v47.246c0 4.42 3.585 8.004 8.004 8.004h85.992c4.421 0 8.004-3.586 8.004-8.004v-47.246h-5.1v-11.9z"
           fill="#fff"
           fill-rule="evenodd"
           id="path485" />
      </g>
    </g>
  </g>
  <g
     transform="matrix(.35279 0 0 -.35279 94.19 264.45)"
     image-rendering="optimizeSpeed"
     id="g499">
    <g
       clip-path="url(#ct)"
       id="g497">
      <g
         transform="translate(464.19,659.58)"
         id="g495">
        <path
           d="m0 0c28.166 0 51 22.833 51 51 0 28.166-22.834 51-51 51s-51-22.834-51-51c0-28.167 22.834-51 51-51"
           fill="#fff"
           fill-rule="evenodd"
           id="path493" />
      </g>
    </g>
  </g>
  <g
     transform="matrix(.35279 0 0 -.35279 94.19 264.45)"
     image-rendering="optimizeSpeed"
     id="g507">
    <g
       clip-path="url(#cs)"
       id="g505">
      <g
         transform="translate(477.79,662.98)"
         id="g503">
        <path
           d="m0 0c26.289 0 47.601 21.311 47.601 47.6s-21.312 47.6-47.601 47.6c-26.288 0-47.6-21.311-47.6-47.6s21.312-47.6 47.6-47.6"
           fill="#fff"
           fill-rule="evenodd"
           id="path501" />
      </g>
    </g>
  </g>
  <g
     transform="matrix(.35279 0 0 -.35279 94.19 264.45)"
     image-rendering="optimizeSpeed"
     id="g515">
    <g
       clip-path="url(#co)"
       id="g513">
      <g
         transform="translate(451.38,563.66)"
         id="g511">
        <path
           d="m0 0c1.018 0.434 2.133 1.633 2.489 2.668l2.192 6.371c0.357 1.039 1.538 1.883 2.648 1.883h10.947c1.106 0 2.295-0.854 2.65-1.885l2.149-6.25c0.359-1.041 1.474-2.228 2.488-2.652l6.613-2.764c1.016-0.426 2.639-0.379 3.639 0.108l5.966 2.912c0.993 0.486 2.429 0.25 3.213-0.536l7.742-7.742c0.782-0.781 1.025-2.213 0.536-3.213l-3.001-6.15c-0.485-0.992-0.539-2.633-0.124-3.654l2.553-6.283c0.416-1.026 1.601-2.149 2.653-2.51l6.551-2.254c1.049-0.362 1.899-1.543 1.899-2.653v-10.949c0-1.103-0.855-2.295-1.892-2.65l-6.662-2.293c-1.045-0.359-2.237-1.484-2.653-2.49l-2.528-6.106c-0.42-1.015-0.365-2.652 0.116-3.637l3.089-6.33c0.485-0.992 0.248-2.425-0.537-3.211l-7.742-7.742c-0.781-0.781-2.222-1.019-3.213-0.537l-6.272 3.063c-0.994 0.484-2.623 0.537-3.655 0.109l-6.151-2.553c-1.024-0.424-2.147-1.617-2.506-2.66l-2.269-6.598c-0.36-1.042-1.541-1.89-2.652-1.89h-10.947c-1.105 0-2.29 0.842-2.65 1.889l-2.313 6.72c-0.358 1.043-1.469 2.237-2.491 2.67l-5.926 2.514c-1.017 0.43-2.649 0.385-3.644-0.1l-6.477-3.162c-0.996-0.484-2.432-0.25-3.217 0.535l-7.742 7.742c-0.781 0.782-1.019 2.223-0.539 3.207l3.274 6.709c0.484 0.991 0.539 2.616 0.116 3.645l-2.281 5.563c-0.419 1.023-1.613 2.146-2.655 2.503l-7.087 2.438c-1.046 0.361-1.894 1.543-1.894 2.652v10.949c0 1.104 0.845 2.291 1.889 2.651l6.999 2.406c1.043 0.36 2.221 1.475 2.634 2.5l2.325 5.776c0.412 1.021 0.349 2.662-0.132 3.648l-3.186 6.523c-0.484 0.995-0.247 2.428 0.537 3.213l7.742 7.742c0.782 0.782 2.214 1.024 3.207 0.54l6.192-3.022c0.99-0.484 2.614-0.525 3.634-0.09z"
           fill="#fff"
           fill-rule="evenodd"
           id="path509" />
      </g>
    </g>
  </g>
  <g
     transform="matrix(.35279 0 0 -.35279 94.19 264.45)"
     image-rendering="optimizeSpeed"
     id="g523">
    <g
       clip-path="url(#ck)"
       id="g521">
      <g
         transform="translate(-39.814,280.58)"
         id="g519">
        <path
           d="m0 0c28.167 0 51 22.834 51 51s-22.833 51-51 51-51-22.834-51-51 22.833-51 51-51"
           fill="#fff"
           fill-rule="evenodd"
           id="path517" />
      </g>
    </g>
  </g>
  <g
     transform="matrix(.35279 0 0 -.35279 94.19 264.45)"
     image-rendering="optimizeSpeed"
     id="g531">
    <g
       clip-path="url(#ch)"
       id="g529">
      <g
         transform="translate(184.95,368.74)"
         id="g527">
        <path
           d="m0 0c3.018 0 5.464 2.447 5.464 5.465 0 3.017-2.446 5.465-5.464 5.465-3.019 0-5.465-2.448-5.465-5.465 0-3.018 2.446-5.465 5.465-5.465"
           fill="#fff"
           fill-rule="evenodd"
           id="path525" />
      </g>
    </g>
  </g>
  <g
     transform="matrix(.35279 0 0 -.35279 94.19 264.45)"
     image-rendering="optimizeSpeed"
     id="g539">
    <g
       clip-path="url(#cg)"
       id="g537">
      <g
         transform="translate(78.214,283.5)"
         id="g535">
        <path
           d="m0 0c6.84 0 12.385 5.545 12.385 12.385 0 6.842-5.545 12.386-12.385 12.386-6.841 0-12.386-5.544-12.386-12.386 0-6.84 5.545-12.385 12.386-12.385"
           fill="#fff"
           fill-rule="evenodd"
           id="path533" />
      </g>
    </g>
  </g>
  <g
     transform="matrix(.35279 0 0 -.35279 94.19 264.45)"
     image-rendering="optimizeSpeed"
     id="g547">
    <g
       clip-path="url(#ce)"
       id="g545">
      <g
         transform="translate(438.39,330.58)"
         id="g543">
        <path
           d="m0 0c7.98 0 14.45 6.469 14.45 14.449 0 7.981-6.47 14.451-14.45 14.451s-14.45-6.47-14.45-14.451c0-7.98 6.47-14.449 14.45-14.449"
           fill="#fff"
           fill-rule="evenodd"
           id="path541" />
      </g>
    </g>
  </g>
  <g
     transform="matrix(.35279 0 0 -.35279 94.19 264.45)"
     image-rendering="optimizeSpeed"
     id="g555">
    <g
       clip-path="url(#cb)"
       id="g553">
      <g
         transform="translate(-16.614,97.381)"
         id="g551">
        <path
           d="m0 0c24.411 0 44.2 19.789 44.2 44.201 0 24.41-19.789 44.199-44.2 44.199s-44.2-19.789-44.2-44.199c0-24.412 19.789-44.201 44.2-44.201"
           fill="#fff"
           fill-rule="evenodd"
           id="path549" />
      </g>
    </g>
  </g>
  <g
     transform="matrix(.35279 0 0 -.35279 94.19 264.45)"
     image-rendering="optimizeSpeed"
     id="g563">
    <g
       clip-path="url(#by)"
       id="g561">
      <g
         clip-path="url(#bx)"
         id="g559">
        <path
           d="m242.19 195.58h108v-108h-108zm54-105c28.166 0 51 22.834 51 51s-22.834 51-51 51-51-22.834-51-51 22.834-51 51-51"
           fill="#fff"
           fill-rule="evenodd"
           id="path557" />
      </g>
    </g>
  </g>
  <g
     transform="matrix(.35279 0 0 -.35279 94.19 264.45)"
     image-rendering="optimizeSpeed"
     id="g571">
    <g
       clip-path="url(#bw)"
       id="g569">
      <g
         transform="translate(407.78,167.81)"
         id="g567">
        <path
           d="m0 0 23.029-13.297v-26.592l-23.029-13.297-23.03 13.297v26.592z"
           fill="#fff"
           fill-rule="evenodd"
           id="path565" />
      </g>
    </g>
  </g>
  <g
     transform="matrix(.35279 0 0 -.35279 94.19 264.45)"
     image-rendering="optimizeSpeed"
     id="g579">
    <g
       clip-path="url(#bt)"
       id="g577">
      <g
         transform="translate(751.51,132.06)"
         id="g575">
        <path
           d="m0 0h5.475v16.178c0 14.568-11.854 26.496-26.35 26.496-14.488 0-26.351-11.92-26.351-26.496v-18.555h5.484v18.01c0 13.008 7.929 21.517 20.875 21.517 12.937 0 20.875-8.509 20.875-21.517v-15.633z"
           fill="#fff"
           id="path573" />
      </g>
    </g>
  </g>
  <g
     transform="matrix(.35279 0 0 -.35279 94.19 264.45)"
     image-rendering="optimizeSpeed"
     id="g587">
    <g
       clip-path="url(#bs)"
       id="g585">
      <g
         transform="translate(691.13,139.02)"
         id="g583">
        <path
           d="m0 0c-6.089 0-14.043-4.908-14.043-10.916v-6.209c0-6 7.954-10.916 14.043-10.916h2.34c0.45 0 0.81 0.355 0.81 0.799v26.451c0 0.443-0.36 0.799-0.81 0.799zm0.72-26.564c-0.45 0-0.81 0.355-0.81 0.798v23.553c0 0.445 0.36 0.801 0.81 0.801s0.81-0.356 0.81-0.801v-23.553c0-0.443-0.36-0.798-0.81-0.798m34.944 26.564h-2.341c-0.45 0-0.81-0.355-0.81-0.799v-26.443c0-0.444 0.36-0.799 0.81-0.799h2.341c6.08 0 14.043 4.908 14.043 10.916v6.209c0 6.008-7.955 10.916-14.043 10.916m-0.859-26.564c-0.451 0-0.811 0.355-0.811 0.798v23.553c0 0.445 0.36 0.801 0.811 0.801 0.45 0 0.809-0.356 0.809-0.801v-23.553c0-0.443-0.359-0.798-0.809-0.798"
           fill="#fff"
           id="path581" />
      </g>
    </g>
  </g>
  <g
     transform="matrix(.35279 0 0 -.35279 95.224 252.81)"
     image-rendering="optimizeSpeed"
     id="g595">
    <g
       clip-path="url(#bo)"
       id="g593">
      <g
         transform="translate(506.13,1122.7)"
         id="g591">
        <path
           d="m0 0h39.223c6.628 0 12-5.372 12-12v-42.595c0-6.627-5.372-12-12-12h-39.223c-6.628 0-12 5.373-12 12v42.595c0 6.628 5.372 12 12 12"
           fill="#fff"
           fill-rule="evenodd"
           id="path589" />
      </g>
    </g>
  </g>
  <g
     transform="matrix(.35279 0 0 -.35279 95.224 252.81)"
     image-rendering="optimizeSpeed"
     id="g603">
    <g
       clip-path="url(#bn)"
       id="g601">
      <g
         transform="translate(583.19,1131.6)"
         id="g599">
        <path
           d="m0 0c0 4.421 3.585 8.004 8.004 8.004h85.992c4.421 0 8.004-3.585 8.004-8.004v-85.992c0-4.421-3.585-8.004-8.004-8.004h-85.992c-4.421 0-8.004 3.585-8.004 8.004z"
           fill="#fff"
           fill-rule="evenodd"
           id="path597" />
      </g>
    </g>
  </g>
  <g
     transform="matrix(.35279 0 0 -.35279 95.224 252.81)"
     image-rendering="optimizeSpeed"
     id="g611">
    <g
       clip-path="url(#bm)"
       id="g609">
      <g
         transform="translate(689.19,1066.7)"
         id="g607">
        <path
           d="m0 0v-21.139c0-4.421-3.585-8.004-8.004-8.004h-85.992c-4.421 0-8.004 3.585-8.004 8.004v21.139z"
           fill="#fff"
           fill-rule="evenodd"
           id="path605" />
      </g>
    </g>
  </g>
  <g
     transform="matrix(.35279 0 0 -.35279 95.224 252.81)"
     image-rendering="optimizeSpeed"
     id="g619">
    <g
       clip-path="url(#bl)"
       id="g617">
      <g
         clip-path="url(#bk)"
         id="g615">
        <path
           d="m590.19 1067.7h104v-31.143h-104zm103-1v-21.14c0-4.42-3.585-8.003-8.004-8.003h-85.993c-4.42 0-8.003 3.585-8.003 8.003v21.14z"
           fill="#fff"
           fill-rule="evenodd"
           id="path613" />
      </g>
    </g>
  </g>
  <g
     transform="matrix(.35279 0 0 -.35279 95.224 252.81)"
     image-rendering="optimizeSpeed"
     id="g627">
    <g
       clip-path="url(#bj)"
       id="g625">
      <g
         transform="translate(791.69,1121.7)"
         id="g623">
        <path
           d="m0 0c-1.878 0-3.4 1.522-3.4 3.4s1.522 3.4 3.4 3.4 3.4-1.522 3.4-3.4-1.522-3.4-3.4-3.4m0 1.7c0.938 0 1.7 0.761 1.7 1.7s-0.762 1.7-1.7 1.7-1.7-0.761-1.7-1.7 0.762-1.7 1.7-1.7"
           fill="#fff"
           fill-rule="evenodd"
           id="path621" />
      </g>
    </g>
  </g>
  <g
     transform="matrix(.35279 0 0 -.35279 95.224 252.81)"
     image-rendering="optimizeSpeed"
     id="g635">
    <g
       clip-path="url(#bi)"
       id="g633">
      <g
         transform="translate(849.49,1121.7)"
         id="g631">
        <path
           d="m0 0c-1.878 0-3.399 1.522-3.399 3.4s1.521 3.4 3.399 3.4 3.4-1.522 3.4-3.4-1.522-3.4-3.4-3.4m0 1.7c0.939 0 1.7 0.761 1.7 1.7s-0.761 1.7-1.7 1.7c-0.938 0-1.7-0.761-1.7-1.7s0.762-1.7 1.7-1.7"
           fill="#fff"
           fill-rule="evenodd"
           id="path629" />
      </g>
    </g>
  </g>
  <g
     transform="matrix(.35279 0 0 -.35279 95.224 252.81)"
     image-rendering="optimizeSpeed"
     id="g643">
    <g
       clip-path="url(#bh)"
       id="g641">
      <g
         transform="translate(681.27,1125.1)"
         id="g639">
        <path
           d="m0 0h3.401c0.45-14.629 12.45-26.35 27.188-26.35 14.737 0 26.737 11.721 27.186 26.35h3.402c-0.45-16.507-13.973-29.75-30.588-29.75-16.616 0-30.139 13.243-30.589 29.75"
           fill="#fff"
           fill-rule="evenodd"
           id="path637" />
      </g>
    </g>
  </g>
  <g
     transform="matrix(.35279 0 0 -.35279 95.224 252.81)"
     image-rendering="optimizeSpeed"
     id="g651">
    <g
       clip-path="url(#bf)"
       id="g649">
      <g
         transform="translate(78.186,943.59)"
         id="g647">
        <path
           d="m0 0c0 4.414 3.585 7.992 8.004 7.992h85.992c4.421 0 8.004-3.575 8.004-7.992v-86.137c0-4.414-3.585-7.992-8.004-7.992h-85.992c-4.421 0-8.004 3.574-8.004 7.992z"
           fill="#fff"
           fill-rule="evenodd"
           id="path645" />
      </g>
    </g>
  </g>
  <g
     transform="matrix(.35279 0 0 -.35279 95.224 252.81)"
     image-rendering="optimizeSpeed"
     id="g659">
    <g
       clip-path="url(#ay)"
       id="g657">
      <g
         transform="translate(632.23,888.04)"
         id="g655">
        <path
           d="m0 0c3.232 0 5.853 2.62 5.853 5.853 0 3.232-2.621 5.852-5.853 5.852-3.231 0-5.853-2.62-5.853-5.852 0-3.233 2.622-5.853 5.853-5.853"
           fill="#fff"
           fill-rule="evenodd"
           id="path653" />
      </g>
    </g>
  </g>
  <g
     transform="matrix(.35279 0 0 -.35279 95.224 252.81)"
     image-rendering="optimizeSpeed"
     id="g667">
    <g
       clip-path="url(#ax)"
       id="g665">
      <g
         transform="translate(652.3,888.04)"
         id="g663">
        <path
           d="m0 0c3.231 0 5.852 2.62 5.852 5.853 0 3.232-2.621 5.852-5.852 5.852-3.232 0-5.853-2.62-5.853-5.852 0-3.233 2.621-5.853 5.853-5.853"
           fill="#fff"
           fill-rule="evenodd"
           id="path661" />
      </g>
    </g>
  </g>
  <g
     transform="matrix(.35279 0 0 -.35279 95.224 252.81)"
     image-rendering="optimizeSpeed"
     id="g675">
    <g
       clip-path="url(#av)"
       id="g673">
      <g
         transform="translate(672.37,888.04)"
         id="g671">
        <path
           d="m0 0c3.231 0 5.853 2.62 5.853 5.853 0 3.232-2.622 5.852-5.853 5.852-3.232 0-5.853-2.62-5.853-5.852 0-3.233 2.621-5.853 5.853-5.853"
           fill="#fff"
           fill-rule="evenodd"
           id="path669" />
      </g>
    </g>
  </g>
  <g
     transform="matrix(.35279 0 0 -.35279 95.224 252.81)"
     image-rendering="optimizeSpeed"
     id="g683">
    <g
       clip-path="url(#at)"
       id="g681">
      <g
         transform="translate(583.19,900.58)"
         id="g679">
        <path
           d="m0 0c0 28.167 22.827 51 51 51 28.166 0 51-22.827 51-51 0-28.167-22.827-51-51-51-28.166 0-51 22.827-51 51"
           fill="#fff"
           fill-rule="evenodd"
           id="path677" />
      </g>
    </g>
  </g>
  <g
     transform="matrix(.35279 0 0 -.35279 95.224 252.81)"
     image-rendering="optimizeSpeed"
     id="g691">
    <g
       clip-path="url(#as)"
       id="g689">
      <g
         transform="translate(612.94,900.58)"
         id="g687">
        <path
           d="m0 0c0 24.88 20.164 45.05 45.05 45.05 24.881 0 45.05-20.164 45.05-45.05 0-24.88-20.164-45.05-45.05-45.05-24.88 0-45.05 20.164-45.05 45.05"
           fill="#fff"
           fill-rule="evenodd"
           id="path685" />
      </g>
    </g>
  </g>
  <g
     transform="matrix(.35279 0 0 -.35279 95.224 252.81)"
     image-rendering="optimizeSpeed"
     id="g699">
    <g
       clip-path="url(#ar)"
       id="g697">
      <g
         transform="translate(642.69,900.58)"
         id="g695">
        <path
           d="m0 0c0 21.594 17.501 39.1 39.1 39.1 21.594 0 39.1-17.501 39.1-39.1 0-21.594-17.501-39.1-39.1-39.1-21.594 0-39.1 17.501-39.1 39.1"
           fill="#fff"
           fill-rule="evenodd"
           id="path693" />
      </g>
    </g>
  </g>
  <g
     transform="matrix(.35279 0 0 -.35279 95.224 252.81)"
     image-rendering="optimizeSpeed"
     id="g707">
    <g
       clip-path="url(#aq)"
       id="g705">
      <g
         transform="translate(719.17,880.17)"
         id="g703">
        <path
           d="m0 0c3.16 6.546 9.861 11.062 17.616 11.062 8.78 0 16.209-5.788 18.678-13.756 6.748-1.015 11.923-6.838 11.923-13.869 0-7.604-6.051-13.794-13.601-14.019v-6e-3h-35.699v0.093c-7.65 0.846-13.601 7.332-13.601 15.207 0 8.244 6.52 14.965 14.684 15.288"
           fill="#fff"
           fill-rule="evenodd"
           id="path701" />
      </g>
    </g>
  </g>
  <g
     transform="matrix(.35279 0 0 -.35279 95.224 252.81)"
     image-rendering="optimizeSpeed"
     id="g715">
    <g
       clip-path="url(#ap)"
       id="g713">
      <g
         transform="translate(12.186,693.43)"
         id="g711">
        <path
           d="m0 0v-26.846c0-4.421-3.585-8.004-8.004-8.004h-85.992c-4.421 0-8.004 3.585-8.004 8.004v26.846h5.1v11.9h-5.1v47.246c0 4.42 3.585 8.004 8.004 8.004h85.992c4.421 0 8.004-3.586 8.004-8.004v-47.246h-5.1v-11.9z"
           fill="#fff"
           fill-rule="evenodd"
           id="path709" />
      </g>
    </g>
  </g>
  <g
     transform="matrix(.35279 0 0 -.35279 95.224 252.81)"
     image-rendering="optimizeSpeed"
     id="g723">
    <g
       clip-path="url(#al)"
       id="g721">
      <g
         transform="translate(464.19,659.58)"
         id="g719">
        <path
           d="m0 0c28.166 0 51 22.833 51 51 0 28.166-22.834 51-51 51s-51-22.834-51-51c0-28.167 22.834-51 51-51"
           fill="#fff"
           fill-rule="evenodd"
           id="path717" />
      </g>
    </g>
  </g>
  <g
     transform="matrix(.35279 0 0 -.35279 95.224 252.81)"
     image-rendering="optimizeSpeed"
     id="g731">
    <g
       clip-path="url(#ak)"
       id="g729">
      <g
         transform="translate(477.79,662.98)"
         id="g727">
        <path
           d="m0 0c26.289 0 47.601 21.311 47.601 47.6s-21.312 47.6-47.601 47.6c-26.288 0-47.6-21.311-47.6-47.6s21.312-47.6 47.6-47.6"
           fill="#fff"
           fill-rule="evenodd"
           id="path725" />
      </g>
    </g>
  </g>
  <g
     transform="matrix(.35279 0 0 -.35279 95.224 252.81)"
     image-rendering="optimizeSpeed"
     id="g739">
    <g
       clip-path="url(#ai)"
       id="g737">
      <g
         transform="translate(451.38,563.66)"
         id="g735">
        <path
           d="m0 0c1.018 0.434 2.133 1.633 2.489 2.668l2.192 6.371c0.357 1.039 1.538 1.883 2.648 1.883h10.947c1.106 0 2.295-0.854 2.65-1.885l2.149-6.25c0.359-1.041 1.474-2.228 2.488-2.652l6.613-2.764c1.016-0.426 2.639-0.379 3.639 0.108l5.966 2.912c0.993 0.486 2.429 0.25 3.213-0.536l7.742-7.742c0.782-0.781 1.025-2.213 0.536-3.213l-3.001-6.15c-0.485-0.992-0.539-2.633-0.124-3.654l2.553-6.283c0.416-1.026 1.601-2.149 2.653-2.51l6.551-2.254c1.049-0.362 1.899-1.543 1.899-2.653v-10.949c0-1.103-0.855-2.295-1.892-2.65l-6.662-2.293c-1.045-0.359-2.237-1.484-2.653-2.49l-2.528-6.106c-0.42-1.015-0.365-2.652 0.116-3.637l3.089-6.33c0.485-0.992 0.248-2.425-0.537-3.211l-7.742-7.742c-0.781-0.781-2.222-1.019-3.213-0.537l-6.272 3.063c-0.994 0.484-2.623 0.537-3.655 0.109l-6.151-2.553c-1.024-0.424-2.147-1.617-2.506-2.66l-2.269-6.598c-0.36-1.042-1.541-1.89-2.652-1.89h-10.947c-1.105 0-2.29 0.842-2.65 1.889l-2.313 6.72c-0.358 1.043-1.469 2.237-2.491 2.67l-5.926 2.514c-1.017 0.43-2.649 0.385-3.644-0.1l-6.477-3.162c-0.996-0.484-2.432-0.25-3.217 0.535l-7.742 7.742c-0.781 0.782-1.019 2.223-0.539 3.207l3.274 6.709c0.484 0.991 0.539 2.616 0.116 3.645l-2.281 5.563c-0.419 1.023-1.613 2.146-2.655 2.503l-7.087 2.438c-1.046 0.361-1.894 1.543-1.894 2.652v10.949c0 1.104 0.845 2.291 1.889 2.651l6.999 2.406c1.043 0.36 2.221 1.475 2.634 2.5l2.325 5.776c0.412 1.021 0.349 2.662-0.132 3.648l-3.186 6.523c-0.484 0.995-0.247 2.428 0.537 3.213l7.742 7.742c0.782 0.782 2.214 1.024 3.207 0.54l6.192-3.022c0.99-0.484 2.614-0.525 3.634-0.09z"
           fill="#fff"
           fill-rule="evenodd"
           id="path733" />
      </g>
    </g>
  </g>
  <g
     transform="matrix(.35279 0 0 -.35279 95.224 252.81)"
     image-rendering="optimizeSpeed"
     id="g747">
    <g
       clip-path="url(#ag)"
       id="g745">
      <g
         transform="translate(-39.814,280.58)"
         id="g743">
        <path
           d="m0 0c28.167 0 51 22.834 51 51s-22.833 51-51 51-51-22.834-51-51 22.833-51 51-51"
           fill="#fff"
           fill-rule="evenodd"
           id="path741" />
      </g>
    </g>
  </g>
  <g
     transform="matrix(.35279 0 0 -.35279 95.224 252.81)"
     image-rendering="optimizeSpeed"
     id="g755">
    <g
       clip-path="url(#af)"
       id="g753">
      <g
         transform="translate(184.95,368.74)"
         id="g751">
        <path
           d="m0 0c3.018 0 5.464 2.447 5.464 5.465 0 3.017-2.446 5.465-5.464 5.465-3.019 0-5.465-2.448-5.465-5.465 0-3.018 2.446-5.465 5.465-5.465"
           fill="#fff"
           fill-rule="evenodd"
           id="path749" />
      </g>
    </g>
  </g>
  <g
     transform="matrix(.35279 0 0 -.35279 95.224 252.81)"
     image-rendering="optimizeSpeed"
     id="g763">
    <g
       clip-path="url(#ae)"
       id="g761">
      <g
         transform="translate(78.214,283.5)"
         id="g759">
        <path
           d="m0 0c6.84 0 12.385 5.545 12.385 12.385 0 6.842-5.545 12.386-12.385 12.386-6.841 0-12.386-5.544-12.386-12.386 0-6.84 5.545-12.385 12.386-12.385"
           fill="#fff"
           fill-rule="evenodd"
           id="path757" />
      </g>
    </g>
  </g>
  <g
     transform="matrix(.35279 0 0 -.35279 95.224 252.81)"
     image-rendering="optimizeSpeed"
     id="g771">
    <g
       clip-path="url(#ab)"
       id="g769">
      <g
         transform="translate(438.39,330.58)"
         id="g767">
        <path
           d="m0 0c7.98 0 14.45 6.469 14.45 14.449 0 7.981-6.47 14.451-14.45 14.451s-14.45-6.47-14.45-14.451c0-7.98 6.47-14.449 14.45-14.449"
           fill="#fff"
           fill-rule="evenodd"
           id="path765" />
      </g>
    </g>
  </g>
  <g
     transform="matrix(.35279 0 0 -.35279 95.224 252.81)"
     image-rendering="optimizeSpeed"
     id="g779">
    <g
       clip-path="url(#y)"
       id="g777">
      <g
         transform="translate(-16.614,97.381)"
         id="g775">
        <path
           d="m0 0c24.411 0 44.2 19.789 44.2 44.201 0 24.41-19.789 44.199-44.2 44.199s-44.2-19.789-44.2-44.199c0-24.412 19.789-44.201 44.2-44.201"
           fill="#fff"
           fill-rule="evenodd"
           id="path773" />
      </g>
    </g>
  </g>
  <g
     transform="matrix(.35279 0 0 -.35279 95.224 252.81)"
     image-rendering="optimizeSpeed"
     id="g787">
    <g
       clip-path="url(#v)"
       id="g785">
      <g
         clip-path="url(#u)"
         id="g783">
        <path
           d="m242.19 195.58h108v-108h-108zm54-105c28.166 0 51 22.834 51 51s-22.834 51-51 51-51-22.834-51-51 22.834-51 51-51"
           fill="#fff"
           fill-rule="evenodd"
           id="path781" />
      </g>
    </g>
  </g>
  <g
     transform="matrix(.35279 0 0 -.35279 95.224 252.81)"
     image-rendering="optimizeSpeed"
     id="g795">
    <g
       clip-path="url(#t)"
       id="g793">
      <g
         transform="translate(407.78,167.81)"
         id="g791">
        <path
           d="m0 0 23.029-13.297v-26.592l-23.029-13.297-23.03 13.297v26.592z"
           fill="#fff"
           fill-rule="evenodd"
           id="path789" />
      </g>
    </g>
  </g>
  <g
     transform="matrix(.35279 0 0 -.35279 95.224 252.81)"
     image-rendering="optimizeSpeed"
     id="g803">
    <g
       clip-path="url(#m)"
       id="g801">
      <g
         transform="translate(751.51,132.06)"
         id="g799">
        <path
           d="m0 0h5.475v16.178c0 14.568-11.854 26.496-26.35 26.496-14.488 0-26.351-11.92-26.351-26.496v-18.555h5.484v18.01c0 13.008 7.929 21.517 20.875 21.517 12.937 0 20.875-8.509 20.875-21.517v-15.633z"
           fill="#fff"
           id="path797" />
      </g>
    </g>
  </g>
  <g
     transform="matrix(.35279 0 0 -.35279 95.224 252.81)"
     image-rendering="optimizeSpeed"
     id="g811">
    <g
       clip-path="url(#k)"
       id="g809">
      <g
         transform="translate(691.13,139.02)"
         id="g807">
        <path
           d="m0 0c-6.089 0-14.043-4.908-14.043-10.916v-6.209c0-6 7.954-10.916 14.043-10.916h2.34c0.45 0 0.81 0.355 0.81 0.799v26.451c0 0.443-0.36 0.799-0.81 0.799zm0.72-26.564c-0.45 0-0.81 0.355-0.81 0.798v23.553c0 0.445 0.36 0.801 0.81 0.801s0.81-0.356 0.81-0.801v-23.553c0-0.443-0.36-0.798-0.81-0.798m34.944 26.564h-2.341c-0.45 0-0.81-0.355-0.81-0.799v-26.443c0-0.444 0.36-0.799 0.81-0.799h2.341c6.08 0 14.043 4.908 14.043 10.916v6.209c0 6.008-7.955 10.916-14.043 10.916m-0.859-26.564c-0.451 0-0.811 0.355-0.811 0.798v23.553c0 0.445 0.36 0.801 0.811 0.801 0.45 0 0.809-0.356 0.809-0.801v-23.553c0-0.443-0.359-0.798-0.809-0.798"
           fill="#fff"
           id="path805" />
      </g>
    </g>
  </g>
  <g
     transform="matrix(.35279 0 0 -.35279 54.62 235.2)"
     image-rendering="optimizeSpeed"
     id="g819">
    <g
       clip-path="url(#cr)"
       id="g817">
      <g
         transform="translate(448,326)"
         id="g815">
        <path
           d="m0 0c3.866 0 7 3.134 7 7s-3.134 7-7 7-7-3.134-7-7 3.134-7 7-7"
           fill="#fff"
           fill-rule="evenodd"
           id="path813" />
      </g>
    </g>
  </g>
  <g
     transform="matrix(.35279 0 0 -.35279 54.62 235.2)"
     image-rendering="optimizeSpeed"
     id="g827">
    <g
       clip-path="url(#cq)"
       id="g825">
      <g
         transform="translate(474,326)"
         id="g823">
        <path
           d="m0 0c3.866 0 7 3.134 7 7s-3.134 7-7 7-7-3.134-7-7 3.134-7 7-7"
           fill="#fff"
           fill-rule="evenodd"
           id="path821" />
      </g>
    </g>
  </g>
  <g
     transform="matrix(.35279 0 0 -.35279 54.62 235.2)"
     image-rendering="optimizeSpeed"
     id="g835">
    <g
       clip-path="url(#cp)"
       id="g833">
      <g
         transform="translate(497,326)"
         id="g831">
        <path
           d="m0 0c3.866 0 7 3.134 7 7s-3.134 7-7 7-7-3.134-7-7 3.134-7 7-7"
           fill="#fff"
           fill-rule="evenodd"
           id="path829" />
      </g>
    </g>
  </g>
  <g
     transform="matrix(.35279 0 0 -.35279 54.62 235.2)"
     image-rendering="optimizeSpeed"
     id="g841">
    <g
       clip-path="url(#cn)"
       id="g839">
      <path
         d="m593 1073h36v-18h-36zm18-11c6.075 0 11 0.895 11 2s-4.925 2-11 2-11-0.895-11-2 4.925-2 11-2"
         fill="#fff"
         fill-rule="evenodd"
         id="path837" />
    </g>
  </g>
  <g
     transform="matrix(.35279 0 0 -.35279 54.62 235.2)"
     image-rendering="optimizeSpeed"
     id="g849">
    <g
       clip-path="url(#cm)"
       id="g847">
      <g
         transform="translate(583.42,1063)"
         id="g845">
        <path
           d="m0 0s21.582 23.182 21.582 35.147c0 12.048-9.684 21.853-21.582 21.853-11.816 0-21.418-9.805-21.418-21.853 0-8.06 9.766-21.188 16.002-28.832zm0 42.542c3.938 0 7.14-3.323 7.14-7.395 0-3.822-3.202-7.146-7.14-7.146-3.856 0-7.222 3.324-7.222 7.146 0 4.072 3.366 7.395 7.222 7.395"
           fill="#fff"
           id="path843" />
      </g>
    </g>
  </g>
  <g
     transform="matrix(.35279 0 0 -.35279 54.62 235.2)"
     image-rendering="optimizeSpeed"
     id="g857">
    <g
       clip-path="url(#cl)"
       id="g855">
      <g
         transform="translate(562,535)"
         id="g853">
        <path
           d="m0 0h35c2.762 0 5-2.238 5-5s-2.238-5-5-5h-35c-2.762 0-5 2.238-5 5s2.238 5 5 5"
           fill="#fff"
           fill-rule="evenodd"
           id="path851" />
      </g>
    </g>
  </g>
  <g
     transform="matrix(.35279 0 0 -.35279 54.62 235.2)"
     image-rendering="optimizeSpeed"
     id="g865">
    <g
       clip-path="url(#cj)"
       id="g863">
      <g
         transform="translate(562,518)"
         id="g861">
        <path
           d="m0 0h35c2.762 0 5-2.238 5-5s-2.238-5-5-5h-35c-2.762 0-5 2.238-5 5s2.238 5 5 5"
           fill="#fff"
           fill-rule="evenodd"
           id="path859" />
      </g>
    </g>
  </g>
  <g
     transform="matrix(.35279 0 0 -.35279 54.62 235.2)"
     image-rendering="optimizeSpeed"
     id="g873">
    <g
       clip-path="url(#ci)"
       id="g871">
      <g
         transform="translate(536.43,133.83)"
         id="g869">
        <path
           d="m0 0c-10.01-12.916-22.288-9.047-24.23-8.072-4.847 1.293-6.464 10.015-0.326 12.918 10.018 3.226 19.06-0.325 25.524-3.553-0.644-0.967-0.968-1.293-0.968-1.293m10.667 3.553c4.521 8.072 6.139 15.826 6.139 15.826h-15.189v5.812h17.767v2.26h-17.767v8.723h-8.074v-8.723h-16.156v-2.584h16.156v-5.812h-13.57v-2.585h27.783c0-0.325 0-0.325-0.324-0.968 0-2.909-1.936-6.779-3.554-10.014-20.677 8.079-26.491 3.235-28.108 2.584-13.564-9.689-0.968-21.963 1.293-21.638 14.538-3.227 23.905 2.91 30.369 10.657 0.324-0.325 0.967-0.325 1.292-0.325 4.528-2.578 25.848-12.592 25.848-12.592v12.274c-3.878 0.325-15.506 4.195-23.905 7.105"
           fill="#fff"
           id="path867" />
      </g>
    </g>
  </g>
  <g
     transform="matrix(.35279 0 0 -.35279 54.62 235.2)"
     image-rendering="optimizeSpeed"
     id="g881">
    <g
       clip-path="url(#cf)"
       id="g879">
      <g
         transform="translate(720.03,1091.5)"
         id="g877">
        <path
           d="m0 0c-0.149 0.354-0.224 0.837-0.224 1.451 0 0.372 0.103 0.828 0.306 1.368 0.205 0.539 0.428 0.958 0.671 1.256-0.019 0.409 0.051 0.902 0.209 1.478 0.159 0.576 0.368 0.976 0.629 1.2 0 2.586 0.86 5.269 2.581 8.05 1.722 2.782 3.744 4.73 6.07 5.846 2.585 1.228 5.6 1.842 9.041 1.842 2.475 0 4.949-0.511 7.423-1.534 0.912-0.391 1.749-0.837 2.512-1.34 0.762-0.502 1.423-1.022 1.981-1.562 0.559-0.54 1.07-1.172 1.534-1.897 0.465-0.725 0.856-1.413 1.172-2.064 0.318-0.651 0.619-1.437 0.908-2.358 0.287-0.921 0.524-1.753 0.71-2.497s0.391-1.655 0.614-2.734l0.028-0.14c1.023-1.543 1.535-2.939 1.535-4.186 0-0.26-0.084-0.632-0.252-1.115-0.168-0.484-0.252-0.837-0.252-1.061 0-0.019 0.015-0.052 0.043-0.099s0.061-0.093 0.098-0.139c0.038-0.046 0.057-0.077 0.057-0.098 1.432-2.121 2.553-4.116 3.363-5.985 0.809-1.869 1.214-3.808 1.214-5.817 0-0.8-0.182-1.73-0.544-2.791-0.363-1.06-0.879-1.59-1.549-1.59-0.167 0-0.349 0.069-0.544 0.209-0.194 0.14-0.371 0.303-0.529 0.489-0.159 0.186-0.335 0.428-0.53 0.725s-0.344 0.543-0.447 0.739-0.228 0.438-0.377 0.725c-0.147 0.288-0.231 0.451-0.251 0.489-0.019 0.019-0.047 0.028-0.085 0.028l-0.138-0.111c-1.099-2.864-2.327-4.938-3.684-6.222 0.372-0.372 0.944-0.73 1.716-1.075s1.414-0.73 1.925-1.158c0.511-0.426 0.841-1.031 0.991-1.814-0.037-0.074-0.074-0.223-0.112-0.447-0.036-0.224-0.101-0.391-0.195-0.501-1.19-1.804-4-2.706-8.427-2.706-0.986 0-2.013 0.084-3.084 0.251-1.069 0.168-1.981 0.354-2.734 0.558s-1.726 0.483-2.916 0.837c-0.279 0.093-0.493 0.158-0.643 0.196-0.259 0.075-0.687 0.115-1.282 0.125-0.595 9e-3 -0.967 0.023-1.116 0.042-0.763-0.838-1.949-1.442-3.559-1.814-1.609-0.372-3.176-0.558-4.702-0.558-0.65 0-1.293 0.014-1.925 0.042s-1.498 0.113-2.595 0.252c-1.098 0.139-2.038 0.33-2.82 0.572-0.781 0.241-1.473 0.613-2.078 1.115-0.604 0.502-0.906 1.098-0.906 1.786 0 0.744 0.093 1.298 0.279 1.661 0.187 0.364 0.569 0.815 1.144 1.353 0.205 0.038 0.581 0.159 1.131 0.363 0.549 0.204 1.009 0.316 1.381 0.334 0.074 0 0.204 0.019 0.39 0.057 0.038 0.037 0.057 0.074 0.057 0.111l-0.057 0.084c-0.892 0.204-1.897 1.185-3.014 2.944-1.117 1.758-1.796 3.214-2.038 4.367l-0.139 0.084c-0.074 0-0.186-0.185-0.334-0.557-0.335-0.763-0.842-1.455-1.521-2.079-0.679-0.622-1.4-0.971-2.163-1.046h-0.028c-0.073 0-0.129 0.041-0.167 0.125-0.037 0.083-0.084 0.134-0.139 0.153-0.428 1.004-0.642 1.934-0.642 2.79 0 5.116 2.343 9.45 7.032 13.002z"
           fill="#fff"
           id="path875" />
      </g>
    </g>
  </g>
  <g
     transform="matrix(.35279 0 0 -.35279 54.62 235.2)"
     image-rendering="optimizeSpeed"
     id="g889">
    <g
       clip-path="url(#cd)"
       id="g887">
      <g
         transform="translate(655,300)"
         id="g885">
        <path
           d="m0 0c16.568 0 30 13.432 30 30s-13.432 30-30 30-30-13.432-30-30 13.432-30 30-30z"
           fill="none"
           stroke="#fff"
           stroke-miterlimit="10"
           stroke-width="8"
           id="path883" />
      </g>
    </g>
  </g>
  <g
     transform="matrix(.35279 0 0 -.35279 54.62 235.2)"
     image-rendering="optimizeSpeed"
     id="g897">
    <g
       clip-path="url(#cc)"
       id="g895">
      <g
         transform="translate(66.849,1083.1)"
         id="g893">
        <path
           d="m0 0c0 5.302-3.661 9.749-8.591 10.948-0.209 8.314-7.006 14.991-15.366 14.991-4.897 0-9.254-2.293-12.07-5.861-1.579 2.041-4.05 3.358-6.828 3.358-4.769 0-8.633-3.868-8.633-8.639 0-0.416 0.031-0.825 0.089-1.224-0.726 0.13-1.47 0.203-2.232 0.203-6.913 0-12.515-5.607-12.515-12.524 0-6.916 5.602-12.523 12.515-12.523h42.394c6.21 0.013 11.241 5.053 11.241 11.269z"
           fill="#fff"
           id="path891" />
      </g>
    </g>
  </g>
  <g
     transform="matrix(.35279 0 0 -.35279 54.62 235.2)"
     image-rendering="optimizeSpeed"
     id="g905">
    <g
       clip-path="url(#ca)"
       id="g903">
      <g
         transform="translate(65.5,681)"
         id="g901">
        <path
           d="m0 0c9.113 0 16.5 7.387 16.5 16.5s-7.387 16.5-16.5 16.5-16.5-7.387-16.5-16.5 7.387-16.5 16.5-16.5z"
           fill="none"
           stroke="#fff"
           stroke-miterlimit="10"
           stroke-width="4"
           id="path899" />
      </g>
    </g>
  </g>
  <g
     transform="matrix(.35279 0 0 -.35279 54.62 235.2)"
     image-rendering="optimizeSpeed"
     id="g913">
    <g
       clip-path="url(#bz)"
       id="g911">
      <g
         transform="translate(77.5,711)"
         id="g909">
        <path
           d="m0 0c7.456 0 13.5 6.044 13.5 13.5s-6.044 13.5-13.5 13.5-13.5-6.044-13.5-13.5 6.044-13.5 13.5-13.5z"
           fill="none"
           stroke="#fff"
           stroke-miterlimit="10"
           stroke-width="4"
           id="path907" />
      </g>
    </g>
  </g>
  <g
     transform="matrix(.35279 0 0 -.35279 54.62 235.2)"
     image-rendering="optimizeSpeed"
     id="g921">
    <g
       clip-path="url(#bv)"
       id="g919">
      <g
         transform="translate(455.91,931.53)"
         id="g917">
        <path
           d="m0 0c-0.742-1.039-4.75-2.821-8.165-3.563-4.305-0.891-6.531-1.633-8.758-2.82-2.969-1.782-4.601-4.009-4.305-6.087 0.149-0.445 3.711-5.64 7.868-11.578 4.304-5.938 7.868-10.985 8.016-11.134 0.149-0.297-0.445-0.297-2.524-0.148-6.531 0.445-12.469-2.969-15.142-8.314-0.742-1.632-0.89-2.523-0.89-4.453 0-4.453 2.376-8.016 6.829-10.094 1.781-0.742 2.375-0.891 6.086-0.891 4.007 0 4.156 0 6.829 1.336 7.125 3.414 10.093 10.095 7.125 16.181-0.594 1.336-4.305 7.719-8.313 14.251l-7.274 12.024h1.187c4.75 0.297 8.017 1.781 10.244 4.305 1.929 2.227 2.523 4.453 2.374 8.016-0.148 3.266-0.445 4.008-1.187 2.969"
           fill="#fff"
           id="path915" />
      </g>
    </g>
  </g>
  <g
     transform="matrix(.35279 0 0 -.35279 54.62 235.2)"
     image-rendering="optimizeSpeed"
     id="g929">
    <g
       clip-path="url(#bu)"
       id="g927">
      <g
         transform="translate(784,902.31)"
         id="g925">
        <path
           d="m0 0c0-1.565-0.904-2.931-2.251-3.674l-27.781-18.472c-0.012-8e-3 -0.026-0.014-0.037-0.02l-0.017-0.011c-0.684-0.376-1.48-0.592-2.331-0.592-2.53 0-4.583 1.913-4.583 4.269v37c0 2.356 2.053 4.27 4.583 4.27 0.851 0 1.647-0.217 2.331-0.596l0.017-8e-3c0.011-9e-3 0.022-0.014 0.037-0.02l27.781-18.471c1.347-0.743 2.251-2.11 2.251-3.675"
           fill="#fff"
           id="path923" />
      </g>
    </g>
  </g>
  <g
     transform="matrix(.35279 0 0 -.35279 54.62 235.2)"
     image-rendering="optimizeSpeed"
     id="g937">
    <g
       clip-path="url(#br)"
       id="g935">
      <g
         transform="translate(223.75,708.35)"
         id="g933">
        <path
           d="m0 0c-15.123 0-27.418 12.329-27.418 27.486 0 1.382 1.111 2.505 2.487 2.505 1.379 0 2.499-1.123 2.499-2.505 0-12.4 10.06-22.487 22.432-22.487 12.375 0 22.443 10.087 22.443 22.487 0 1.382 1.112 2.505 2.488 2.505 1.378 0 2.499-1.123 2.499-2.505 0-15.157-12.304-27.486-27.43-27.486"
           fill="#fff"
           fill-rule="evenodd"
           id="path931" />
      </g>
    </g>
  </g>
  <g
     transform="matrix(.35279 0 0 -.35279 54.62 235.2)"
     image-rendering="optimizeSpeed"
     id="g945">
    <g
       clip-path="url(#bq)"
       id="g943">
      <g
         transform="translate(390.75,139.35)"
         id="g941">
        <path
           d="m0 0c-15.123 0-27.418 12.329-27.418 27.485 0 1.383 1.111 2.506 2.487 2.506 1.379 0 2.499-1.123 2.499-2.506 0-12.398 10.06-22.486 22.432-22.486 12.375 0 22.443 10.088 22.443 22.486 0 1.383 1.112 2.506 2.488 2.506 1.378 0 2.499-1.123 2.499-2.506 0-15.156-12.304-27.485-27.43-27.485"
           fill="#fff"
           fill-rule="evenodd"
           id="path939" />
      </g>
    </g>
  </g>
  <g
     transform="matrix(.35279 0 0 -.35279 54.62 235.2)"
     image-rendering="optimizeSpeed"
     id="g953">
    <g
       clip-path="url(#bp)"
       id="g951">
      <g
         transform="translate(423.93,686.39)"
         id="g949">
        <path
           d="m0 0c0.245-0.286 0.605-0.456 0.986-0.456 0.382 0 0.743 0.17 0.988 0.456l17.516 20.497c0.333 0.388 0.408 0.933 0.191 1.388-0.211 0.463-0.674 0.756-1.184 0.756h-9.93c-2.118 4.172-3.109 8.382-2.973 12.63 0.135 4.248 1.954 12.361 5.455 24.34-10.956-6.59-17.656-18.44-17.656-31.225v-5.745h-9.93c-0.51 0-0.966-0.293-1.184-0.756-0.211-0.462-0.135-1 0.191-1.388z"
           fill="#fff"
           id="path947" />
      </g>
    </g>
  </g>
  <g
     transform="matrix(.35279 0 0 -.35279 86.025 236.16)"
     image-rendering="optimizeSpeed"
     id="g961">
    <g
       clip-path="url(#bg)"
       id="g959">
      <g
         transform="translate(9.1685,1040.9)"
         id="g957">
        <path
           d="m0 0 25.314 21.067-26.077 18.651c5.846 7.671 15.079 12.622 25.468 12.622 17.673 0 32-14.327 32-32s-14.327-32-32-32c-9.948 0-18.836 4.539-24.705 11.66m27.349 31.812c2.835 0 5.132 2.297 5.132 5.132 0 2.834-2.297 5.132-5.132 5.132-2.834 0-5.132-2.298-5.132-5.132 0-2.835 2.298-5.132 5.132-5.132"
           fill="#fff"
           fill-rule="evenodd"
           id="path955" />
      </g>
    </g>
  </g>
  <g
     transform="matrix(.35279 0 0 -.35279 86.025 236.16)"
     image-rendering="optimizeSpeed"
     id="g969">
    <g
       clip-path="url(#be)"
       id="g967">
      <g
         transform="translate(194.25,1130.3)"
         id="g965">
        <path
           d="m0 0c20.173-11.579 43.841 2 51.309 14.862 7.467 12.861 5.032 31.138-10.468 37.638s-45.487 6.611-54.5-9-6.515-31.922 13.659-43.5"
           fill="#fff"
           fill-rule="evenodd"
           id="path963" />
      </g>
    </g>
  </g>
  <g
     transform="matrix(.35279 0 0 -.35279 86.025 236.16)"
     image-rendering="optimizeSpeed"
     id="g977">
    <g
       clip-path="url(#bd)"
       id="g975">
      <g
         transform="translate(473.86,1057.5)"
         id="g973">
        <path
           d="m0 0c1.657 0 3 1.501 3 3.353s-1.343 3.353-3 3.353c-1.656 0-3-1.501-3-3.353s1.344-3.353 3-3.353"
           fill="#fff"
           fill-rule="evenodd"
           id="path971" />
      </g>
    </g>
  </g>
  <g
     transform="matrix(.35279 0 0 -.35279 86.025 236.16)"
     image-rendering="optimizeSpeed"
     id="g985">
    <g
       clip-path="url(#bc)"
       id="g983">
      <g
         transform="translate(493,1069.8)"
         id="g981">
        <path
           d="m0 0c1.657 0 3 1.501 3 3.353s-1.343 3.353-3 3.353-3-1.501-3-3.353 1.343-3.353 3-3.353"
           fill="#fff"
           fill-rule="evenodd"
           id="path979" />
      </g>
    </g>
  </g>
  <g
     transform="matrix(.35279 0 0 -.35279 86.025 236.16)"
     image-rendering="optimizeSpeed"
     id="g993">
    <g
       clip-path="url(#bb)"
       id="g991">
      <g
         transform="translate(510,1048.8)"
         id="g989">
        <path
           d="m0 0c1.657 0 3 1.501 3 3.353s-1.343 3.353-3 3.353-3-1.501-3-3.353 1.343-3.353 3-3.353"
           fill="#fff"
           fill-rule="evenodd"
           id="path987" />
      </g>
    </g>
  </g>
  <g
     transform="matrix(.35279 0 0 -.35279 86.025 236.16)"
     image-rendering="optimizeSpeed"
     id="g1001">
    <g
       clip-path="url(#ba)"
       id="g999">
      <g
         transform="translate(806.5,1072.2)"
         id="g997">
        <path
           d="m0 0c-3.667-14-9.5-21.833-17.5-23.5"
           fill="none"
           stroke="#fff"
           stroke-linecap="round"
           stroke-miterlimit="10"
           id="path995" />
      </g>
    </g>
  </g>
  <g
     transform="matrix(.35279 0 0 -.35279 86.025 236.16)"
     image-rendering="optimizeSpeed"
     id="g1009">
    <g
       clip-path="url(#az)"
       id="g1007">
      <g
         transform="translate(802,1066.2)"
         id="g1005">
        <path
           d="m0 0c-4.971 0-9 4.029-9 9s4.029 9 9 9 9-4.029 9-9-4.029-9-9-9m0 6c1.657 0 3 1.343 3 3s-1.343 3-3 3-3-1.343-3-3 1.343-3 3-3"
           fill="#fff"
           fill-rule="evenodd"
           id="path1003" />
      </g>
    </g>
  </g>
  <g
     transform="matrix(.35279 0 0 -.35279 86.025 236.16)"
     image-rendering="optimizeSpeed"
     id="g1017">
    <g
       clip-path="url(#aw)"
       id="g1015">
      <g
         transform="translate(122,495.24)"
         id="g1013">
        <path
           d="m0 0h3c0.553 0 1-0.447 1-1v-2c0-0.553-0.447-1-1-1h-3c-0.553 0-1 0.447-1 1v2c0 0.553 0.447 1 1 1"
           fill="#fff"
           fill-rule="evenodd"
           id="path1011" />
      </g>
    </g>
  </g>
  <g
     transform="matrix(.35279 0 0 -.35279 86.025 236.16)"
     image-rendering="optimizeSpeed"
     id="g1025">
    <g
       clip-path="url(#au)"
       id="g1023">
      <g
         transform="translate(204,495.24)"
         id="g1021">
        <path
           d="m0 0h3c0.553 0 1-0.447 1-1v-2c0-0.553-0.447-1-1-1h-3c-0.553 0-1 0.447-1 1v2c0 0.553 0.447 1 1 1"
           fill="#fff"
           fill-rule="evenodd"
           id="path1019" />
      </g>
    </g>
  </g>
  <g
     transform="matrix(.35279 0 0 -.35279 86.025 236.16)"
     image-rendering="optimizeSpeed"
     id="g1033">
    <g
       clip-path="url(#ao)"
       id="g1031">
      <g
         transform="translate(805,482.24)"
         id="g1029">
        <path
           d="m0 0c4.418 0 8 3.582 8 8s-3.582 8-8 8-8-3.582-8-8 3.582-8 8-8"
           fill="#fff"
           fill-rule="evenodd"
           id="path1027" />
      </g>
    </g>
  </g>
  <g
     transform="matrix(.35279 0 0 -.35279 86.025 236.16)"
     image-rendering="optimizeSpeed"
     id="g1041">
    <g
       clip-path="url(#an)"
       id="g1039">
      <g
         transform="translate(658,1075.7)"
         id="g1037">
        <path
           d="m0 0c0-4.694 3.806-8.5 8.5-8.5s8.5 3.806 8.5 8.5-3.806 8.5-8.5 8.5-8.5-3.806-8.5-8.5"
           fill="#fff"
           id="path1035" />
      </g>
    </g>
  </g>
  <g
     transform="matrix(.35279 0 0 -.35279 86.025 236.16)"
     image-rendering="optimizeSpeed"
     id="g1047">
    <g
       clip-path="url(#am)"
       id="g1045">
      <path
         d="m465.44 1082.2h85.864v-75.319h-85.864zm64.45-25.106c-0.483 0.765-1.453 0.947-2.178 0.431l-15.504-11.01c-0.359-0.255-0.847-0.153-1.071 0.238l-18.271 31.869c-0.438 0.771-1.139 0.776-1.549-0.016l-1.807-3.514-21.07-47.452c13.336-18.44 48.336-26.94 73.836-3.44 0.841 0 6.477 6.246 6 7z"
         fill="#fff"
         fill-rule="evenodd"
         id="path1043" />
    </g>
  </g>
  <g
     transform="matrix(.35279 0 0 -.35279 86.025 236.16)"
     image-rendering="optimizeSpeed"
     id="g1055">
    <g
       clip-path="url(#aj)"
       id="g1053">
      <g
         transform="translate(-23,837.24)"
         id="g1051">
        <path
           d="m0 0c18.778 0 34 15.222 34 34s-15.222 34-34 34-34-15.222-34-34 15.222-34 34-34z"
           fill="none"
           stroke="#fff"
           stroke-miterlimit="10"
           stroke-width="8"
           id="path1049" />
      </g>
    </g>
  </g>
  <g
     transform="matrix(.35279 0 0 -.35279 86.025 236.16)"
     image-rendering="optimizeSpeed"
     id="g1061">
    <g
       clip-path="url(#ah)"
       id="g1059">
      <path
         d="m644 721.24h82v-82h-82zm41-81c22.092 0 40 17.908 40 40s-17.908 40-40 40-40-17.908-40-40 17.908-40 40-40"
         fill="#fff"
         fill-rule="evenodd"
         id="path1057" />
    </g>
  </g>
  <g
     transform="matrix(.35279 0 0 -.35279 86.025 236.16)"
     image-rendering="optimizeSpeed"
     id="g1069">
    <g
       clip-path="url(#ad)"
       id="g1067">
      <g
         transform="translate(613.88,476.03)"
         id="g1065">
        <path
           d="m0 0c0.187-0.771 0.148-1.502-0.116-2.193-0.266-0.692-0.678-1.303-1.239-1.833-0.561-0.531-1.247-0.949-2.057-1.255-0.81-0.305-1.683-0.457-2.617-0.457-5.889-0.033-11.156-0.049-15.798-0.049h-15.891c-1.122 0-2.111 0.209-2.968 0.627s-1.543 0.932-2.056 1.543c-0.515 0.611-0.858 1.279-1.029 2.002s-0.148 1.375 0.071 1.953c0.186 0.451 0.373 0.917 0.56 1.398 0.157 0.418 0.343 0.893 0.561 1.424 0.219 0.53 0.452 1.069 0.701 1.615l1.776 4.438h5.329l-2.01-6.077h30.099l-2.009 6.077h5.094c0.655-1.64 1.246-3.119 1.777-4.438 0.218-0.578 0.435-1.14 0.654-1.687 0.218-0.547 0.412-1.037 0.584-1.472 0.171-0.433 0.312-0.804 0.421-1.109 0.108-0.306 0.163-0.474 0.163-0.507m-22.922 9.236c-0.601 0.698-1.289 1.571-2.064 2.618-0.776 1.046-1.575 2.125-2.398 3.235-0.822 1.11-1.637 2.204-2.443 3.283-0.808 1.079-1.527 2.015-2.16 2.808-0.728 0.856-1.013 1.562-0.855 2.117s0.696 0.832 1.614 0.832c0.506-0.031 1.187-0.024 2.041 0.024 0.855 0.048 1.567 0.072 2.136 0.072 0.633 0 1.029 0.19 1.187 0.57 0.158 0.381 0.237 0.889 0.237 1.523 0 0.698-8e-3 1.467-0.024 2.308s-0.024 1.705-0.024 2.593-8e-3 1.76-0.023 2.617c-0.016 0.856-0.024 1.65-0.024 2.379 0 0.318 0.024 0.65 0.071 1 0.047 0.348 0.158 0.666 0.333 0.951 0.173 0.285 0.426 0.523 0.758 0.714 0.332 0.19 0.784 0.285 1.353 0.285 0.665 0 1.274 9e-3 1.827 0.024 0.555 0.016 1.195 0.024 1.923 0.024 1.044 0 1.748-0.246 2.112-0.737 0.364-0.492 0.562-1.277 0.593-2.356v-1.855c0-0.73 8e-3 -1.507 0.023-2.331 0.017-0.826 0.025-1.651 0.025-2.475v-2.236c0-0.92 0.095-1.659 0.284-2.213 0.191-0.555 0.617-0.817 1.282-0.785 0.475 0 1.052-0.016 1.732-0.047 0.68-0.032 1.274-0.049 1.78-0.049 0.855 0 1.4-0.23 1.638-0.69 0.237-0.46 0.071-1.054-0.498-1.784-0.602-0.76-1.298-1.68-2.089-2.759-0.791-1.08-1.606-2.197-2.445-3.355-0.838-1.158-1.661-2.284-2.467-3.379-0.807-1.094-1.528-2.037-2.16-2.83-0.57-0.73-1.116-1.103-1.637-1.119-0.523-0.016-1.069 0.326-1.638 1.023"
           fill="#fff"
           id="path1063" />
      </g>
    </g>
  </g>
  <g
     transform="matrix(.35279 0 0 -.35279 86.025 236.16)"
     image-rendering="optimizeSpeed"
     id="g1077">
    <g
       clip-path="url(#ac)"
       id="g1075">
      <g
         transform="translate(588.67,331.24)"
         id="g1073">
        <path
           d="m0 0h-49.301c-2.41 0-4.367-1.941-4.367-4.299v-49.402c0-2.393 1.957-4.299 4.367-4.299h49.301c2.41 0 4.332 1.941 4.332 4.299v49.367c0 2.393-1.957 4.334-4.332 4.334m-33.403-53.008h-8.839v6.795h8.839zm-8.91 24.58h8.84v-6.795h-8.84zm8.945-15.566h-8.84v6.795h8.84zm12.998-9.014h-8.84v6.795h8.84zm-8.91 24.58h8.84v-6.795h-8.84zm8.944-15.566h-8.839v6.795h8.839zm13.277-9.014h-8.84v6.795h8.84zm-8.909 24.58h8.84v-6.795h-8.84zm8.945-15.566h-8.84v6.795h8.84zm5.276 24.441c0-2.392-1.957-4.299-4.368-4.299h-37.77c-2.411-0.035-4.367 1.907-4.367 4.299v10.054c0 2.392 1.956 4.333 4.332 4.333h37.805c2.411 0 4.368-1.941 4.368-4.333z"
           fill="#fff"
           id="path1071" />
      </g>
    </g>
  </g>
  <g
     transform="matrix(.35279 0 0 -.35279 86.025 236.16)"
     image-rendering="optimizeSpeed"
     id="g1085">
    <g
       clip-path="url(#aa)"
       id="g1083">
      <g
         transform="translate(609.3,312.46)"
         id="g1081">
        <path
           d="m0 0h-0.72c-0.206 0-0.377 0-0.514-0.212-0.103-0.142-0.103-0.283-0.103-0.46v-0.566c0-0.178 0-0.319 0.103-0.461 0.137-0.212 0.308-0.212 0.514-0.212h0.72c0.205 0 0.376 0 0.514 0.212 0.102 0.142 0.102 0.283 0.102 0.461v0.566c0 0.213 0 0.318-0.102 0.46-0.138 0.212-0.275 0.212-0.514 0.212m-5.003 4.779h-2.947c-0.548 0-0.993-0.46-0.993-1.026v-2.407h0.993v2.407h2.947v-2.407h0.993v2.407c0 0.566-0.445 1.026-0.993 1.026m0-6.973h-2.947v2.407h-0.993v-2.407c0-0.567 0.411-1.027 0.993-1.027h2.947c0.582 0 0.993 0.46 0.993 1.027v2.407h-0.993zm-14.357 0h-2.947v2.584h-0.994v-2.584c0-0.567 0.411-1.027 0.994-1.027h2.947c0.583 0 0.994 0.46 0.994 1.027v2.584h-0.994zm0 6.973h-2.947c-0.548 0-0.994-0.46-0.994-1.026v-2.231h0.994v2.231h2.947v-2.231h0.994v2.231c0 0.566-0.446 1.026-0.994 1.026m7.195 0h-2.946c-0.549 0-0.994-0.46-0.994-1.026v-2.231h0.994v2.231h2.946v-2.231h0.994v2.231c0 0.566-0.445 1.026-0.994 1.026m0-6.973h-2.946v2.584h-0.994v-2.584c0-0.567 0.445-1.027 0.994-1.027h2.946c0.583 0 0.994 0.46 0.994 1.027v2.584h-0.994zm18.675 6.973h-2.947c-0.548 0-0.994-0.46-0.994-1.026v-2.584h0.994v2.584h2.947v-2.584h0.994v2.584c0 0.566-0.445 1.026-0.994 1.026m0-6.973h-2.947v2.23h-0.994v-2.23c0-0.567 0.446-1.027 0.994-1.027h2.947c0.583 0 0.994 0.46 0.994 1.027v2.23h-0.994zm7.195 0h-2.946v2.053h-0.994v-2.053c0-0.567 0.411-1.027 0.994-1.027h2.946c0.583 0 0.994 0.46 0.994 1.027v2.053h-0.994zm0 6.973h-2.946c-0.548 0-0.994-0.46-0.994-1.026v-2.761h0.994v2.761h2.946v-2.761h0.994v2.761c0 0.566-0.479 1.026-0.994 1.026"
           fill="#fff"
           id="path1079" />
      </g>
    </g>
  </g>
  <g
     transform="matrix(.35279 0 0 -.35279 86.025 236.16)"
     image-rendering="optimizeSpeed"
     id="g1093">
    <g
       clip-path="url(#z)"
       id="g1091">
      <g
         transform="translate(766.75,130.24)"
         id="g1089">
        <path
           d="m0 0h-15.75v6.693c0 1.239-1.013 2.307-2.307 2.307h-13.386c-1.239 0-2.307-1.013-2.307-2.307v-6.693h-15.75c-1.237 0-2.25-1.013-2.25-2.25v-11.25l27-4.5 27 4.5v11.25c0 1.237-1.013 2.25-2.25 2.25m-29.25 4.5h9v-4.5h-9zm9-16.875c0-0.619-0.506-1.125-1.125-1.125h-6.75c-0.619 0-1.125 0.506-1.125 1.125v2.25c0 0.619 0.506 1.125 1.125 1.125h6.75c0.619 0 1.125-0.506 1.125-1.125zm-4.5-7.875 27 4.5v-27c0-1.237-1.013-2.25-2.25-2.25h-49.5c-1.237 0-2.25 1.013-2.25 2.25v27z"
           fill="#fff"
           id="path1087" />
      </g>
    </g>
  </g>
  <g
     transform="matrix(.35279 0 0 -.35279 86.025 236.16)"
     image-rendering="optimizeSpeed"
     id="g1101">
    <g
       clip-path="url(#x)"
       id="g1099">
      <g
         transform="translate(392,82.24)"
         id="g1097">
        <path
           d="M 0,0 -4.35,3.941 C -19.8,17.953 -30,27.2 -30,38.516 -30,47.762 -22.755,55 -13.5,55 -8.28,55 -3.27,52.572 0,48.75 3.27,52.572 8.28,55 13.5,55 22.755,55 30,47.762 30,38.516 30,27.2 19.8,17.953 4.35,3.941 Z"
           fill="#fff"
           id="path1095" />
      </g>
    </g>
  </g>
  <g
     transform="matrix(.35279 0 0 -.35279 86.025 236.16)"
     image-rendering="optimizeSpeed"
     id="g1109">
    <g
       clip-path="url(#w)"
       id="g1107">
      <g
         transform="translate(542.77,113.24)"
         id="g1105">
        <path
           d="m0 0c0 2.621 0.885 4.8 2.689 6.604s3.983 2.689 6.604 2.689c2.622 0 4.801-0.885 6.604-2.689 1.805-1.804 2.69-3.983 2.69-6.604s-0.885-4.834-2.69-6.639c-1.803-1.803-3.982-2.689-6.604-2.689-2.621 0-4.809 0.877-6.604 2.689-1.813 1.83-2.689 4.051-2.689 6.639m-13.141-6.06c0.545-1.94 1.363-3.846 2.35-5.617l-6.128-7.523 6.944-6.945 7.524 6.127c1.769-0.986 3.71-1.803 5.65-2.382l1.022-9.6h10.008l1.022 9.6c1.94 0.579 3.778 1.396 5.651 2.382l7.49-6.127 7.012 6.945-6.162 7.523c0.953 1.771 1.805 3.677 2.383 5.617l9.601 1.056v10.008l-9.601 1.021c-0.578 1.941-1.43 3.745-2.383 5.618l6.162 7.523-7.012 7.013-7.49-6.161c-1.907 0.953-3.711 1.803-5.651 2.382l-1.022 9.6h-10.008l-1.022-9.6c-2.008-0.579-3.88-1.429-5.65-2.382l-7.524 6.161-6.944-7.013 6.128-7.523c-0.953-1.873-1.771-3.677-2.35-5.618l-9.633-1.021v-10.008z"
           fill="#fff"
           id="path1103" />
      </g>
    </g>
  </g>
  <g
     transform="matrix(.35279 0 0 -.35279 86.025 236.16)"
     image-rendering="optimizeSpeed"
     id="g1115">
    <g
       clip-path="url(#s)"
       id="g1113">
      <path
         d="m473 698.24h13v-13h-13zm6.5-12c3.037 0 5.5 2.463 5.5 5.5 0 3.038-2.463 5.5-5.5 5.5s-5.5-2.462-5.5-5.5c0-3.037 2.463-5.5 5.5-5.5"
         fill="#fff"
         fill-rule="evenodd"
         id="path1111" />
    </g>
  </g>
  <g
     transform="matrix(.35279 0 0 -.35279 86.025 236.16)"
     image-rendering="optimizeSpeed"
     id="g1121">
    <g
       clip-path="url(#r)"
       id="g1119">
      <path
         d="m473 676.24h13v-13h-13zm6.5-12c3.037 0 5.5 2.463 5.5 5.5 0 3.038-2.463 5.5-5.5 5.5s-5.5-2.462-5.5-5.5c0-3.037 2.463-5.5 5.5-5.5"
         fill="#fff"
         fill-rule="evenodd"
         id="path1117" />
    </g>
  </g>
  <g
     transform="matrix(.35279 0 0 -.35279 86.025 236.16)"
     image-rendering="optimizeSpeed"
     id="g1127">
    <g
       clip-path="url(#q)"
       id="g1125">
      <path
         d="m467 687.24h13v-13h-13zm6.5-12c3.037 0 5.5 2.463 5.5 5.5 0 3.038-2.463 5.5-5.5 5.5s-5.5-2.462-5.5-5.5c0-3.037 2.463-5.5 5.5-5.5"
         fill="#fff"
         fill-rule="evenodd"
         id="path1123" />
    </g>
  </g>
  <g
     transform="matrix(.35279 0 0 -.35279 86.025 236.16)"
     image-rendering="optimizeSpeed"
     id="g1133">
    <g
       clip-path="url(#p)"
       id="g1131">
      <path
         d="m486 698.24h13v-13h-13zm6.5-12c3.037 0 5.5 2.463 5.5 5.5 0 3.038-2.463 5.5-5.5 5.5s-5.5-2.462-5.5-5.5c0-3.037 2.463-5.5 5.5-5.5"
         fill="#fff"
         fill-rule="evenodd"
         id="path1129" />
    </g>
  </g>
  <g
     transform="matrix(.35279 0 0 -.35279 86.025 236.16)"
     image-rendering="optimizeSpeed"
     id="g1139">
    <g
       clip-path="url(#o)"
       id="g1137">
      <path
         d="m486 676.24h13v-13h-13zm6.5-12c3.037 0 5.5 2.463 5.5 5.5 0 3.038-2.463 5.5-5.5 5.5s-5.5-2.462-5.5-5.5c0-3.037 2.463-5.5 5.5-5.5"
         fill="#fff"
         fill-rule="evenodd"
         id="path1135" />
    </g>
  </g>
  <g
     transform="matrix(.35279 0 0 -.35279 86.025 236.16)"
     image-rendering="optimizeSpeed"
     id="g1145">
    <g
       clip-path="url(#n)"
       id="g1143">
      <path
         d="m480 687.24h13v-13h-13zm6.5-12c3.037 0 5.5 2.463 5.5 5.5 0 3.038-2.463 5.5-5.5 5.5s-5.5-2.462-5.5-5.5c0-3.037 2.463-5.5 5.5-5.5"
         fill="#fff"
         fill-rule="evenodd"
         id="path1141" />
    </g>
  </g>
  <g
     transform="matrix(.35279 0 0 -.35279 86.025 236.16)"
     image-rendering="optimizeSpeed"
     id="g1151">
    <g
       clip-path="url(#l)"
       id="g1149">
      <path
         d="m493 687.24h13v-13h-13zm6.5-12c3.037 0 5.5 2.463 5.5 5.5 0 3.038-2.463 5.5-5.5 5.5s-5.5-2.462-5.5-5.5c0-3.037 2.463-5.5 5.5-5.5"
         fill="#fff"
         fill-rule="evenodd"
         id="path1147" />
    </g>
  </g>
  <g
     transform="matrix(.35279 0 0 -.35279 86.025 236.16)"
     image-rendering="optimizeSpeed"
     id="g1157">
    <g
       clip-path="url(#j)"
       id="g1155">
      <path
         d="m161 327.24h73v-28h-73zm14-5h45c4.971 0 9-4.029 9-9 0-4.97-4.029-9-9-9h-45c-4.971 0-9 4.03-9 9 0 4.971 4.029 9 9 9"
         fill="#fff"
         fill-rule="evenodd"
         id="path1153" />
    </g>
  </g>
  <g
     transform="matrix(.35279 0 0 -.35279 86.025 236.16)"
     image-rendering="optimizeSpeed"
     id="g1163">
    <g
       clip-path="url(#i)"
       id="g1161">
      <path
         d="m162 302.24h73v-28h-73zm14-5h45c4.971 0 9-4.029 9-9 0-4.97-4.029-9-9-9h-45c-4.971 0-9 4.03-9 9 0 4.971 4.029 9 9 9"
         fill="#fff"
         fill-rule="evenodd"
         id="path1159" />
    </g>
  </g>
  <g
     transform="matrix(.35279 0 0 -.35279 86.025 236.16)"
     image-rendering="optimizeSpeed"
     id="g1171">
    <g
       clip-path="url(#h-3)"
       id="g1169">
      <g
         transform="translate(104.49,129.57)"
         id="g1167">
        <path
           d="m0 0c-4.298-0.338-8.165-0.637-11.604-0.898-1.458-0.113-2.906-0.225-4.344-0.336-1.44-0.114-2.747-0.207-3.924-0.282-1.178-0.074-2.168-0.149-2.972-0.224-0.803-0.074-1.28-0.113-1.428-0.113-0.188-0.037-0.403-0.065-0.645-0.084-0.244-0.018-0.459-0.065-0.645-0.139l-0.673-0.225-2.467 1.121c0.187 0.263 0.412 0.506 0.674 0.731 0.185 0.186 0.42 0.364 0.7 0.533 0.28 0.168 0.569 0.27 0.868 0.309 0.225 0.037 0.822 0.093 1.795 0.168 0.971 0.074 2.167 0.168 3.588 0.28 0 0.486 0.047 1.15 0.14 1.992 0.092 0.841 0.317 1.674 0.672 2.497 0.356 0.822 0.869 1.553 1.541 2.188 0.673 0.636 1.589 1.009 2.747 1.123 1.346 0.111 2.439-0.094 3.281-0.618 0.84-0.523 1.494-1.169 1.961-1.935 0.467-0.768 0.795-1.553 0.981-2.358 0.187-0.804 0.299-1.43 0.337-1.878 1.606 0.111 2.942 0.205 4.008 0.279 1.064 0.076 1.653 0.131 1.765 0.169 0.412 0.038 0.87-0.038 1.373-0.225 0.505-0.186 0.907-0.43 1.206-0.729 0.075-0.075 0.177-0.188 0.308-0.336 0.131-0.151 0.252-0.3 0.365-0.449 0.149-0.151 0.28-0.337 0.392-0.561m-15.528 6.676c-0.709-0.074-1.28-0.326-1.709-0.757-0.43-0.431-0.758-0.944-0.982-1.543-0.223-0.599-0.374-1.206-0.448-1.823-0.075-0.617-0.112-1.114-0.112-1.488 1.159 0.076 2.344 0.169 3.559 0.281s2.402 0.206 3.56 0.281c-0.037 0.336-0.121 0.804-0.252 1.402-0.131 0.599-0.346 1.178-0.645 1.74-0.299 0.561-0.691 1.028-1.176 1.403-0.487 0.373-1.084 0.542-1.795 0.504m21.919-41.24c0.186-1.047 0.159-1.917-0.084-2.61-0.244-0.691-0.925-1.168-2.046-1.43-0.374-0.113-1.187-0.299-2.439-0.562-1.252-0.262-2.747-0.579-4.485-0.953-1.737-0.374-3.597-0.777-5.577-1.207-1.982-0.43-3.878-0.832-5.691-1.205-1.812-0.375-3.437-0.711-4.877-1.011-1.438-0.3-2.457-0.505-3.054-0.617-1.383-0.3-2.402-0.206-3.055 0.28-0.654 0.486-0.982 1.217-0.982 2.189v34.452c0 0.934 0.197 1.691 0.589 2.271 0.393 0.58 0.962 0.889 1.709 0.926 0.299 0 0.664 0.02 1.094 0.057s0.85 0.074 1.261 0.112c0.485 0.037 0.991 0.075 1.514 0.112l0.504-8.023c-0.037-0.038-0.112-0.057-0.224-0.057-0.074 0-0.187-0.01-0.336-0.027-0.15-0.02-0.318-0.029-0.505-0.029-0.784-0.075-1.159-0.542-1.121-1.403 0.038-0.336 0.075-0.805 0.112-1.402 0.037-0.599 0.066-1.225 0.084-1.88 0.019-0.655 0.047-1.29 0.084-1.907s0.074-1.114 0.113-1.488c0.037-0.711 0.149-1.112 0.336-1.206 0.186-0.093 0.598-0.14 1.233-0.14h0.785c0.225 0 0.439 0.01 0.645 0.027 0.205 0.02 0.439 0.038 0.701 0.057 0.261 0.018 0.597 0.047 1.008 0.084 0.785 0.075 1.29 0.243 1.513 0.506 0.225 0.261 0.319 0.654 0.281 1.177 0 0.262-0.028 0.721-0.084 1.375-0.056 0.655-0.113 1.337-0.168 2.048-0.056 0.71-0.103 1.384-0.14 2.02-0.037 0.635-0.074 1.085-0.112 1.346-0.076 0.45-0.168 0.768-0.281 0.954-0.112 0.187-0.318 0.262-0.617 0.224-0.148 0-0.299-9e-3 -0.447-0.027-0.151-0.019-0.3-0.028-0.449-0.028h-0.449l-0.505 7.967c2.542 0.225 4.877 0.412 7.008 0.561 0.897 0.076 1.803 0.15 2.719 0.224 0.916 0.076 1.766 0.141 2.551 0.198 0.785 0.055 1.476 0.111 2.074 0.168 0.598 0.056 1.046 0.103 1.346 0.14 1.083 0.074 1.942-0.113 2.578-0.561 0.635-0.449 1.027-1.122 1.178-2.021 0.037-0.299 0.168-1.196 0.391-2.693 0.224-1.496 0.505-3.291 0.841-5.386s0.691-4.349 1.065-6.761c0.374-2.413 0.729-4.667 1.066-6.761 0.336-2.095 0.625-3.891 0.869-5.387 0.242-1.496 0.4-2.395 0.476-2.693m-35.261-4.881c0-0.525 0.028-0.983 0.084-1.375 0.057-0.393 0.122-0.701 0.197-0.926 0.074-0.299 0.168-0.524 0.279-0.674-0.933 0.486-1.831 0.973-2.69 1.459-0.747 0.412-1.495 0.832-2.242 1.263-0.747 0.43-1.383 0.795-1.906 1.094-0.972 0.561-1.635 1.235-1.99 2.02s-0.439 1.608-0.253 2.469c0.076 0.224 0.244 1.047 0.505 2.469 0.262 1.421 0.588 3.142 0.981 5.162 0.392 2.019 0.803 4.189 1.233 6.508 0.43 2.32 0.831 4.49 1.205 6.509 0.374 2.02 0.701 3.76 0.982 5.218 0.28 1.459 0.439 2.319 0.476 2.581 0.15 0.823 0.42 1.459 0.813 1.908 0.392 0.449 0.849 0.561 1.373 0.336 0.299-0.149 0.543-0.317 0.728-0.504 0.114-0.113 0.188-0.207 0.225-0.281z"
           fill="#fff"
           id="path1165" />
      </g>
    </g>
  </g>
  <circle
     cx="-330.38"
     cy="-328.5"
     r="0"
     fill="#5e4aa6"
     image-rendering="optimizeSpeed"
     stroke-width=".26458"
     id="circle1173" />
  <circle
     cx="-39.462"
     cy="6.3112"
     r="0"
     fill="#5e4aa6"
     fill-rule="evenodd"
     image-rendering="optimizeSpeed"
     stroke-width=".26458"
     id="circle1175" />
  <g
     transform="matrix(.26458 0 0 .26458 4.6458e-6 3.3441e-6)"
     image-rendering="optimizeSpeed"
     stroke-width="1.5715"
     id="g1183">
    <circle
       cx="109.8"
       cy="17.5"
       r="0"
       fill="url(#linearGradient2121)"
       id="circle1177" />
    <circle
       cx="180.19"
       cy="15.826"
       r="0"
       fill="url(#linearGradient1969)"
       id="circle1179" />
    <circle
       cx="133.33"
       cy="7.4641"
       r="0"
       fill="url(#linearGradient2204)"
       id="circle1181" />
  </g>
  <g
     transform="translate(-.026916 -.12875)"
     image-rendering="optimizeSpeed"
     stroke-width=".41578"
     id="g1193">
    <circle
       cx="16.449"
       cy="-12.676"
       r="0"
       fill="url(#linearGradient2295)"
       id="circle1185" />
    <circle
       cx="35.073"
       cy="-13.119"
       r="0"
       fill="url(#linearGradient1969-7)"
       id="circle1187" />
    <circle
       cx="26.765"
       cy="-2.2732"
       r="0"
       fill="url(#linearGradient2067)"
       id="circle1189" />
    <circle
       cx="45.389"
       cy="-2.7161"
       r="0"
       fill="url(#linearGradient1969-6)"
       id="circle1191" />
  </g>
  <g
     fill="#5e4aa6"
     id="g30"
     transform="scale(0.26457812)">
    <circle
       cx="-1248.7"
       cy="-1241.6"
       r="0"
       id="circle24" />
    <circle
       cx="-1140.3"
       cy="-1301.8"
       r="0"
       id="circle26" />
    <circle
       cx="-1158.1"
       cy="-1246"
       r="0"
       id="circle28" />
  </g>
  <circle
     cx="-306.19626"
     cy="-335.40567"
     r="0"
     fill="#5e4aa6"
     id="circle36"
     style="stroke-width:0.264578" />
  <circle
     cx="-15.280974"
     cy="-0.57754755"
     r="0"
     fill="#5e4aa6"
     fill-rule="evenodd"
     id="circle38"
     style="stroke-width:0.264578" />
  <rect
     ry="15"
     y="4.5"
     x="4.5"
     height="55"
     width="55"
     id="rect1055"
     style="opacity:0.3;fill:#141414;fill-opacity:1;stroke-width:2.74436;stroke-linecap:round;filter:url(#filter1057)"
     transform="scale(0.26457812)" />
  <rect
     style="fill:url(#linearGradient1053);fill-opacity:1;stroke-width:0.726098;stroke-linecap:round"
     id="rect1045"
     width="14.551796"
     height="14.551796"
     x="1.1906021"
     y="1.1906021"
     ry="3.9686716" />
  <path
     id="rect3409"
     style="opacity:0.3;fill:#ffffff;fill-opacity:1;stroke-width:4.648;stroke-linecap:round"
     d="M 30.353516 12 L 30.353516 12.001953 A 2.7526823 2.7526823 0 0 0 28.400391 12.8125 A 2.7553705 2.7553705 0 0 0 28.400391 16.71875 L 36.072266 24.390625 L 16.072266 24.390625 A 2.7553705 2.7553705 0 0 0 13.310547 27.150391 A 2.7553705 2.7553705 0 0 0 16.072266 29.912109 C 18.948604 29.904059 23.025735 29.902344 26.931641 29.902344 L 12.78125 44.050781 A 2.7553705 2.7553705 0 0 0 12.78125 47.955078 A 2.7553705 2.7553705 0 0 0 16.685547 47.955078 C 18.763499 45.869063 21.737972 42.892885 24.560547 40.070312 A 13.806422 13.806422 0 0 0 38.222656 52 C 45.846295 52 52.029297 45.816998 52.029297 38.193359 A 13.806422 13.806422 0 0 0 47.296875 27.800781 A 6894.8776 6894.8776 0 0 1 32.306641 12.8125 A 2.7526823 2.7526823 0 0 0 30.353516 12 z M 38.373047 34.908203 A 3.2231121 3.2231121 0 0 1 38.382812 34.908203 A 3.2231121 3.2231121 0 0 1 38.382812 41.355469 A 3.2231121 3.2231121 0 0 1 38.373047 34.908203 z "
     transform="scale(0.26457812)" />
  <path
     id="rect3413"
     style="opacity:0.7;fill:#ffffff;fill-opacity:1;stroke-width:4.648;stroke-linecap:round"
     d="M 38.373047 27.513672 A 10.607504 10.607504 0 0 0 27.765625 38.121094 A 10.607504 10.607504 0 0 0 38.373047 48.728516 A 10.607504 10.607504 0 0 0 48.978516 38.121094 A 10.607504 10.607504 0 0 0 38.373047 27.513672 z M 38.363281 33.972656 A 4.1478406 4.1478406 0 0 1 38.373047 33.972656 A 4.1478406 4.1478406 0 0 1 42.521484 38.121094 A 4.1478406 4.1478406 0 0 1 38.373047 42.269531 A 4.1478406 4.1478406 0 0 1 34.222656 38.121094 A 4.1478406 4.1478406 0 0 1 38.363281 33.972656 z "
     transform="scale(0.26457812)" />
  <path
     d="m 10.152625,7.8982275 a 2.1920109,2.1920109 0 0 0 -2.1920111,2.1912995 2.1920109,2.1920109 0 0 0 2.1920111,2.192011 2.1920109,2.1920109 0 0 0 2.191299,-2.192011 2.1920109,2.1920109 0 0 0 -2.191299,-2.1912995 z m 0,1.3342675 a 0.85703215,0.85703215 0 0 1 0.857032,0.857032 0.85703215,0.85703215 0 0 1 -0.857032,0.857032 0.85703215,0.85703215 0 0 1 -0.8577436,-0.857032 0.85703215,0.85703215 0 0 1 0.8577436,-0.857032 z"
     fill="#ffffff"
     id="path2151"
     style="stroke-width:0.71123" />
  <circle
     cx="10.152625"
     cy="10.088806"
     r="1.1216097"
     color="#000000"
     display="block"
     fill="#14a0ff"
     overflow="visible"
     style="isolation:auto;mix-blend-mode:normal;stroke-width:0.71123"
     paint-order="fill markers stroke"
     id="circle2153" />
</svg>
