<?xml version="1.0" encoding="UTF-8" standalone="no"?>
<svg
   t="1744798203738"
   class="icon"
   viewBox="0 0 327.68 327.68"
   version="1.1"
   width="64"
   height="64"
   id="svg2"
   inkscape:version="1.4.2 (ebf0e940d0, 2025-05-08)"
   sodipodi:docname="blinko.svg"
   xml:space="preserve"
   xmlns:inkscape="http://www.inkscape.org/namespaces/inkscape"
   xmlns:sodipodi="http://sodipodi.sourceforge.net/DTD/sodipodi-0.dtd"
   xmlns:xlink="http://www.w3.org/1999/xlink"
   xmlns="http://www.w3.org/2000/svg"
   xmlns:svg="http://www.w3.org/2000/svg"><defs
     id="defs2"><filter
       inkscape:collect="always"
       style="color-interpolation-filters:sRGB"
       id="filter1057"
       x="-0.026999999"
       width="1.054"
       y="-0.026999999"
       height="1.054"><feGaussianBlur
         inkscape:collect="always"
         stdDeviation="0.61875"
         id="feGaussianBlur1059" /></filter><linearGradient
       inkscape:collect="always"
       xlink:href="#linearGradient1051"
       id="linearGradient1053"
       x1="-127"
       y1="60"
       x2="-72"
       y2="5"
       gradientUnits="userSpaceOnUse"
       gradientTransform="matrix(5.12,0,0,5.12,673.27997,-2.6111934)" /><linearGradient
       inkscape:collect="always"
       id="linearGradient1051"><stop
         style="stop-color:#53524f;stop-opacity:1;"
         offset="0"
         id="stop1047" /><stop
         style="stop-color:#737575;stop-opacity:1;"
         offset="1"
         id="stop1049" /></linearGradient><clipPath
       id="clippath"><path
         d="M164.93 86.68c-13.56-5.84-25.42-13.84-35.6-24.01-10.17-10.17-18.18-22.04-24.01-35.6-2.23-5.19-4.04-10.54-5.42-16.02C99.45 9.26 97.85 8 96 8s-3.45 1.26-3.9 3.05c-1.38 5.48-3.18 10.81-5.42 16.02-5.84 13.56-13.84 25.43-24.01 35.6-10.17 10.16-22.04 18.17-35.6 24.01-5.19 2.23-10.54 4.04-16.02 5.42C9.26 92.55 8 94.15 8 96s1.26 3.45 3.05 3.9c5.48 1.38 10.81 3.18 16.02 5.42 13.56 5.84 25.42 13.84 35.6 24.01 10.17 10.17 18.18 22.04 24.01 35.6 2.24 5.2 4.04 10.54 5.42 16.02A4.03 4.03 0 0 0 96 184c1.85 0 3.45-1.26 3.9-3.05 1.38-5.48 3.18-10.81 5.42-16.02 5.84-13.56 13.84-25.42 24.01-35.6 10.17-10.17 22.04-18.18 35.6-24.01 5.2-2.24 10.54-4.04 16.02-5.42A4.03 4.03 0 0 0 184 96c0-1.85-1.26-3.45-3.05-3.9-5.48-1.38-10.81-3.18-16.02-5.42"
         class="st0"
         id="path1" /></clipPath><clipPath
       id="clippath-1"><path
         d="M164.93 86.68c-13.56-5.84-25.42-13.84-35.6-24.01-10.17-10.17-18.18-22.04-24.01-35.6-2.23-5.19-4.04-10.54-5.42-16.02C99.45 9.26 97.85 8 96 8s-3.45 1.26-3.9 3.05c-1.38 5.48-3.18 10.81-5.42 16.02-5.84 13.56-13.84 25.43-24.01 35.6-10.17 10.16-22.04 18.17-35.6 24.01-5.19 2.23-10.54 4.04-16.02 5.42C9.26 92.55 8 94.15 8 96s1.26 3.45 3.05 3.9c5.48 1.38 10.81 3.18 16.02 5.42 13.56 5.84 25.42 13.84 35.6 24.01 10.17 10.17 18.18 22.04 24.01 35.6 2.24 5.2 4.04 10.54 5.42 16.02A4.03 4.03 0 0 0 96 184c1.85 0 3.45-1.26 3.9-3.05 1.38-5.48 3.18-10.81 5.42-16.02 5.84-13.56 13.84-25.42 24.01-35.6 10.17-10.17 22.04-18.18 35.6-24.01 5.2-2.24 10.54-4.04 16.02-5.42A4.03 4.03 0 0 0 184 96c0-1.85-1.26-3.45-3.05-3.9-5.48-1.38-10.81-3.18-16.02-5.42"
         class="st0"
         id="path2" /></clipPath><radialGradient
       id="radial-gradient"
       cx="-122.49"
       cy="-223.53"
       r="110.98"
       fx="-122.49"
       fy="-223.53"
       gradientTransform="matrix(1,0,0,-0.54,0,-0.93)"
       gradientUnits="userSpaceOnUse"><stop
         offset=".31"
         stop-color="#3186ff"
         id="stop2" /><stop
         offset=".42"
         stop-color="#4491ff"
         id="stop3" /><stop
         offset=".45"
         stop-color="#4c96ff"
         id="stop4" /><stop
         offset=".81"
         stop-color="#e7f1ff"
         id="stop5" /><stop
         offset=".89"
         stop-color="#fff"
         id="stop6" /></radialGradient><style
       id="style6">.st0{fill:none}</style><filter
       id="prefix__filter0_f_2001_67"
       x="-19.824"
       y="13.152"
       width="39.274"
       height="43.217"
       filterUnits="userSpaceOnUse"
       color-interpolation-filters="sRGB"><feFlood
         flood-opacity="0"
         result="BackgroundImageFix"
         id="feFlood14" /><feBlend
         in="SourceGraphic"
         in2="BackgroundImageFix"
         result="shape"
         id="feBlend14" /><feGaussianBlur
         stdDeviation="2.46"
         result="effect1_foregroundBlur_2001_67"
         id="feGaussianBlur14" /></filter><filter
       id="prefix__filter1_f_2001_67"
       x="-15.001"
       y="-40.257"
       width="84.868"
       height="85.688"
       filterUnits="userSpaceOnUse"
       color-interpolation-filters="sRGB"><feFlood
         flood-opacity="0"
         result="BackgroundImageFix"
         id="feFlood15" /><feBlend
         in="SourceGraphic"
         in2="BackgroundImageFix"
         result="shape"
         id="feBlend15" /><feGaussianBlur
         stdDeviation="11.891"
         result="effect1_foregroundBlur_2001_67"
         id="feGaussianBlur15" /></filter><filter
       id="prefix__filter2_f_2001_67"
       x="-20.776"
       y="11.927"
       width="79.454"
       height="90.916"
       filterUnits="userSpaceOnUse"
       color-interpolation-filters="sRGB"><feFlood
         flood-opacity="0"
         result="BackgroundImageFix"
         id="feFlood16" /><feBlend
         in="SourceGraphic"
         in2="BackgroundImageFix"
         result="shape"
         id="feBlend16" /><feGaussianBlur
         stdDeviation="10.109"
         result="effect1_foregroundBlur_2001_67"
         id="feGaussianBlur16" /></filter><filter
       id="prefix__filter3_f_2001_67"
       x="-20.776"
       y="11.927"
       width="79.454"
       height="90.916"
       filterUnits="userSpaceOnUse"
       color-interpolation-filters="sRGB"><feFlood
         flood-opacity="0"
         result="BackgroundImageFix"
         id="feFlood17" /><feBlend
         in="SourceGraphic"
         in2="BackgroundImageFix"
         result="shape"
         id="feBlend17" /><feGaussianBlur
         stdDeviation="10.109"
         result="effect1_foregroundBlur_2001_67"
         id="feGaussianBlur17" /></filter><filter
       id="prefix__filter4_f_2001_67"
       x="-19.845"
       y="15.459"
       width="79.731"
       height="81.505"
       filterUnits="userSpaceOnUse"
       color-interpolation-filters="sRGB"><feFlood
         flood-opacity="0"
         result="BackgroundImageFix"
         id="feFlood18" /><feBlend
         in="SourceGraphic"
         in2="BackgroundImageFix"
         result="shape"
         id="feBlend18" /><feGaussianBlur
         stdDeviation="10.109"
         result="effect1_foregroundBlur_2001_67"
         id="feGaussianBlur18" /></filter><filter
       id="prefix__filter5_f_2001_67"
       x="29.832"
       y="-11.552"
       width="75.117"
       height="73.758"
       filterUnits="userSpaceOnUse"
       color-interpolation-filters="sRGB"><feFlood
         flood-opacity="0"
         result="BackgroundImageFix"
         id="feFlood19" /><feBlend
         in="SourceGraphic"
         in2="BackgroundImageFix"
         result="shape"
         id="feBlend19" /><feGaussianBlur
         stdDeviation="9.606"
         result="effect1_foregroundBlur_2001_67"
         id="feGaussianBlur19" /></filter><filter
       id="prefix__filter6_f_2001_67"
       x="-38.583"
       y="-16.253"
       width="78.135"
       height="78.758"
       filterUnits="userSpaceOnUse"
       color-interpolation-filters="sRGB"><feFlood
         flood-opacity="0"
         result="BackgroundImageFix"
         id="feFlood20" /><feBlend
         in="SourceGraphic"
         in2="BackgroundImageFix"
         result="shape"
         id="feBlend20" /><feGaussianBlur
         stdDeviation="8.706"
         result="effect1_foregroundBlur_2001_67"
         id="feGaussianBlur20" /></filter><filter
       id="prefix__filter7_f_2001_67"
       x="8.107"
       y="-5.966"
       width="78.877"
       height="77.539"
       filterUnits="userSpaceOnUse"
       color-interpolation-filters="sRGB"><feFlood
         flood-opacity="0"
         result="BackgroundImageFix"
         id="feFlood21" /><feBlend
         in="SourceGraphic"
         in2="BackgroundImageFix"
         result="shape"
         id="feBlend21" /><feGaussianBlur
         stdDeviation="7.775"
         result="effect1_foregroundBlur_2001_67"
         id="feGaussianBlur21" /></filter><filter
       id="prefix__filter8_f_2001_67"
       x="13.587"
       y="-18.488"
       width="56.272"
       height="51.81"
       filterUnits="userSpaceOnUse"
       color-interpolation-filters="sRGB"><feFlood
         flood-opacity="0"
         result="BackgroundImageFix"
         id="feFlood22" /><feBlend
         in="SourceGraphic"
         in2="BackgroundImageFix"
         result="shape"
         id="feBlend22" /><feGaussianBlur
         stdDeviation="6.957"
         result="effect1_foregroundBlur_2001_67"
         id="feGaussianBlur22" /></filter><filter
       id="prefix__filter9_f_2001_67"
       x="-15.526"
       y="-31.297"
       width="70.856"
       height="69.306"
       filterUnits="userSpaceOnUse"
       color-interpolation-filters="sRGB"><feFlood
         flood-opacity="0"
         result="BackgroundImageFix"
         id="feFlood23" /><feBlend
         in="SourceGraphic"
         in2="BackgroundImageFix"
         result="shape"
         id="feBlend23" /><feGaussianBlur
         stdDeviation="5.876"
         result="effect1_foregroundBlur_2001_67"
         id="feGaussianBlur23" /></filter><filter
       id="prefix__filter10_f_2001_67"
       x="-14.168"
       y="20.964"
       width="55.501"
       height="51.571"
       filterUnits="userSpaceOnUse"
       color-interpolation-filters="sRGB"><feFlood
         flood-opacity="0"
         result="BackgroundImageFix"
         id="feFlood24" /><feBlend
         in="SourceGraphic"
         in2="BackgroundImageFix"
         result="shape"
         id="feBlend24" /><feGaussianBlur
         stdDeviation="7.273"
         result="effect1_foregroundBlur_2001_67"
         id="feGaussianBlur24" /></filter><linearGradient
       id="prefix__paint0_linear_2001_67"
       x1="18.447"
       y1="43.42"
       x2="52.153"
       y2="15.004"
       gradientUnits="userSpaceOnUse"><stop
         stop-color="#4893FC"
         id="stop24" /><stop
         offset=".27"
         stop-color="#4893FC"
         id="stop25" /><stop
         offset=".777"
         stop-color="#969DFF"
         id="stop26" /><stop
         offset="1"
         stop-color="#BD99FE"
         id="stop27" /></linearGradient></defs><sodipodi:namedview
     id="namedview2"
     pagecolor="#505050"
     bordercolor="#eeeeee"
     borderopacity="1"
     inkscape:showpageshadow="0"
     inkscape:pageopacity="0"
     inkscape:pagecheckerboard="0"
     inkscape:deskcolor="#505050"
     inkscape:zoom="6.8046875"
     inkscape:cx="8.0091848"
     inkscape:cy="37.694604"
     inkscape:window-width="2752"
     inkscape:window-height="1095"
     inkscape:window-x="0"
     inkscape:window-y="0"
     inkscape:window-maximized="1"
     inkscape:current-layer="svg2" /><rect
     ry="15"
     y="4.5"
     x="4.5"
     height="55"
     width="55"
     id="rect1055"
     style="opacity:0.3;fill:#141414;fill-opacity:1;stroke-width:2.74436;stroke-linecap:round;filter:url(#filter1057)"
     transform="matrix(5.12,0,0,5.12,-3.1471252e-6,-3.1471252e-6)" /><rect
     style="fill:url(#linearGradient1053);fill-opacity:1;stroke-width:14.0511;stroke-linecap:round"
     id="rect1045"
     width="281.59998"
     height="281.59998"
     x="23.040012"
     y="23.040012"
     ry="76.799995" /><mask
     id="maskme"
     style="mask-type:alpha"
     maskUnits="userSpaceOnUse"
     x="0"
     y="0"
     width="65"
     height="65"><path
       d="M32.447 0c.68 0 1.273.465 1.439 1.125a38.904 38.904 0 001.999 5.905c2.152 5 5.105 9.376 8.854 13.125 3.751 3.75 8.126 6.703 13.125 8.855a38.98 38.98 0 005.906 1.999c.66.166 1.124.758 1.124 1.438 0 .68-.464 1.273-1.125 1.439a38.902 38.902 0 00-5.905 1.999c-5 2.152-9.375 5.105-13.125 8.854-3.749 3.751-6.702 8.126-8.854 13.125a38.973 38.973 0 00-2 5.906 1.485 1.485 0 01-1.438 1.124c-.68 0-1.272-.464-1.438-1.125a38.913 38.913 0 00-2-5.905c-2.151-5-5.103-9.375-8.854-13.125-3.75-3.749-8.125-6.702-13.125-8.854a38.973 38.973 0 00-5.905-2A1.485 1.485 0 010 32.448c0-.68.465-1.272 1.125-1.438a38.903 38.903 0 005.905-2c5-2.151 9.376-5.104 13.125-8.854 3.75-3.749 6.703-8.125 8.855-13.125a38.972 38.972 0 001.999-5.905A1.485 1.485 0 0132.447 0z"
       fill="#000"
       id="path1-3" /><path
       d="M32.447 0c.68 0 1.273.465 1.439 1.125a38.904 38.904 0 001.999 5.905c2.152 5 5.105 9.376 8.854 13.125 3.751 3.75 8.126 6.703 13.125 8.855a38.98 38.98 0 005.906 1.999c.66.166 1.124.758 1.124 1.438 0 .68-.464 1.273-1.125 1.439a38.902 38.902 0 00-5.905 1.999c-5 2.152-9.375 5.105-13.125 8.854-3.749 3.751-6.702 8.126-8.854 13.125a38.973 38.973 0 00-2 5.906 1.485 1.485 0 01-1.438 1.124c-.68 0-1.272-.464-1.438-1.125a38.913 38.913 0 00-2-5.905c-2.151-5-5.103-9.375-8.854-13.125-3.75-3.749-8.125-6.702-13.125-8.854a38.973 38.973 0 00-5.905-2A1.485 1.485 0 010 32.448c0-.68.465-1.272 1.125-1.438a38.903 38.903 0 005.905-2c5-2.151 9.376-5.104 13.125-8.854 3.75-3.749 6.703-8.125 8.855-13.125a38.972 38.972 0 001.999-5.905A1.485 1.485 0 0132.447 0z"
       fill="url(#prefix__paint0_linear_2001_67)"
       id="path2-6" /></mask><g
     id="g1"
     transform="matrix(0.38502871,0,0,0.38502871,65.27265,65.27265)"><path
       d="m 252.7,186.9 c -16,0 -28.9,5.8 -38.7,17.5 -9.8,11.6 -14.7,27 -14.7,46 q 0,30.3 14.7,48.3 c 9.8,11.9 22.7,17.9 38.7,17.9 16.2,0 28.9,-6 38.3,-18.1 9.4,-12.1 14.1,-28.2 14.1,-48.1 0,-18.8 -4.7,-34 -14.1,-45.8 -9.3,-11.7 -22.1,-17.7 -38.3,-17.7 m 0,-183.6 C 113.2,3.3 0,116.4 0,256 0,395.6 113.2,508.7 252.7,508.7 392.2,508.7 505.5,395.6 505.5,256 505.5,116.4 392.3,3.3 252.7,3.3 m 111.4,314.2 c -10.6,19.1 -25.3,33.9 -44.4,44.6 Q 291.05,378 252.8,378 c -25.1,0 -47.2,-5.2 -66.4,-15.7 -19.2,-10.5 -34.2,-25.4 -44.8,-44.6 -10.7,-19.2 -16,-41.6 -16,-67.2 0,-24.7 5.3,-46.5 16,-65.1 10.7,-18.6 25.6,-33.2 44.6,-43.7 19.1,-10.5 41.3,-15.8 66.6,-15.8 25.3,0 47.4,5.3 66.5,15.8 19.1,10.6 33.9,25.1 44.6,43.7 10.7,18.6 16,40.3 16,65.1 0,25.6 -5.3,47.9 -15.8,67"
       style="fill:#ffcc00"
       id="path1-5" /><path
       d="M 501.2,73.5 461.9,59 447.4,19.7 C 445,13.2 438.8,8.9 431.8,8.9 c -6.9,0 -13.1,4.3 -15.6,10.8 L 401.7,59 362.4,73.5 c -6.5,2.4 -10.8,8.6 -10.8,15.6 0,6.9 4.3,13.2 10.8,15.6 l 39.3,14.5 14.5,39.3 c 2.4,6.5 8.6,10.8 15.6,10.8 7,0 13.2,-4.3 15.6,-10.8 l 14.5,-39.3 39.3,-14.5 c 6.5,-2.4 10.8,-8.6 10.8,-15.6 0,-7 -4.3,-13.2 -10.8,-15.6"
       style="fill:#8600ef"
       id="path2-3" /></g></svg>
