<?xml version="1.0" encoding="UTF-8" standalone="no"?>
<svg
   width="64"
   height="64"
   version="1.1"
   id="svg1"
   sodipodi:docname="blockbench.svg"
   inkscape:version="1.3 (0e150ed6c4, 2023-07-21)"
   xmlns:inkscape="http://www.inkscape.org/namespaces/inkscape"
   xmlns:sodipodi="http://sodipodi.sourceforge.net/DTD/sodipodi-0.dtd"
   xmlns:xlink="http://www.w3.org/1999/xlink"
   xmlns="http://www.w3.org/2000/svg"
   xmlns:svg="http://www.w3.org/2000/svg">
  <defs
     id="defs1">
    <filter
       inkscape:collect="always"
       style="color-interpolation-filters:sRGB"
       id="filter1057"
       x="-0.026999999"
       width="1.054"
       y="-0.026999999"
       height="1.054">
      <feGaussianBlur
         inkscape:collect="always"
         stdDeviation="0.61875"
         id="feGaussianBlur1059" />
    </filter>
    <linearGradient
       inkscape:collect="always"
       xlink:href="#linearGradient1051"
       id="linearGradient1053"
       x1="-127"
       y1="60"
       x2="-72"
       y2="5"
       gradientUnits="userSpaceOnUse"
       gradientTransform="translate(131.5,-0.50999773)" />
    <linearGradient
       inkscape:collect="always"
       id="linearGradient1051">
      <stop
         style="stop-color:#323741;stop-opacity:1"
         offset="0"
         id="stop1047" />
      <stop
         style="stop-color:#465064;stop-opacity:1"
         offset="1"
         id="stop1049" />
    </linearGradient>
  </defs>
  <sodipodi:namedview
     id="namedview1"
     pagecolor="#ffffff"
     bordercolor="#000000"
     borderopacity="0.25"
     inkscape:showpageshadow="2"
     inkscape:pageopacity="0.0"
     inkscape:pagecheckerboard="0"
     inkscape:deskcolor="#d1d1d1"
     inkscape:zoom="5.734375"
     inkscape:cx="21.798365"
     inkscape:cy="46.038147"
     inkscape:window-width="1920"
     inkscape:window-height="941"
     inkscape:window-x="0"
     inkscape:window-y="34"
     inkscape:window-maximized="1"
     inkscape:current-layer="svg1" />
  <rect
     style="opacity:0.3;fill:#141414;fill-opacity:1;stroke-width:2.74436;stroke-linecap:round;filter:url(#filter1057)"
     id="rect1055"
     width="55"
     height="55"
     x="4.5"
     y="4.5"
     ry="15" />
  <rect
     ry="14.999999"
     y="4.5000024"
     x="4.500001"
     height="54.999996"
     width="54.999996"
     id="rect1045"
     style="fill:url(#linearGradient1053);fill-opacity:1;stroke-width:2.74436;stroke-linecap:round" />
  <path
     fill="#ffffff"
     d="m 34.390755,47.027385 c -0.21539,-0.175539 -0.224,-0.221846 -0.10769,-0.659077 0.13353,-0.498615 1.47969,-4.337846 1.55076,-4.420769 0.0215,-0.02692 0.35862,0.03231 0.74847,0.132461 0.38769,0.100154 0.81953,0.180923 0.95738,0.180923 0.27246,-0.0011 1.16308,-0.46523 3.09939,-1.615384 0.68276,-0.403847 1.27292,-0.704308 1.31169,-0.665539 0.0388,0.03769 -0.11308,0.901385 -0.336,1.916923 -0.30908,1.41077 -0.45877,1.90077 -0.63323,2.067693 -0.54493,0.525538 -5.72277,3.244769 -6.18585,3.249077 -0.0948,0.0011 -0.27677,-0.08292 -0.40492,-0.186308 z M 17.586444,41.328308 c -0.09692,-0.105539 -0.174461,-0.259539 -0.173384,-0.342462 0,-0.14 1.492615,-3.40523 1.748923,-3.828461 0.107692,-0.17877 0.236923,-0.158308 2.214154,0.362923 1.154461,0.303692 2.136615,0.585846 2.182923,0.625692 0.127077,0.112 -0.333846,1.249231 -0.649385,1.600308 -0.233692,0.260615 -0.651538,0.428615 -2.597538,1.040308 -1.276154,0.401692 -2.372462,0.73123 -2.436,0.732307 -0.06354,0.0011 -0.193846,-0.084 -0.290769,-0.190615 z m 19.017381,-0.394154 c -0.60307,-0.191692 -8.06615,-2.341231 -17.007842,-4.896769 -3.815539,-1.090923 -7.053846,-2.060154 -7.197077,-2.153846 -0.331692,-0.217539 -0.342462,-0.633231 -0.02154,-0.840001 0.342462,-0.219692 9.105385,-1.462461 9.930308,-1.407538 0.735539,0.04846 25.26354,3.652923 25.38954,3.730462 0.13031,0.08077 0.0969,0.528769 -0.0485,0.649384 -0.35862,0.297231 -10.07354,5.083077 -10.30508,5.076616 -0.14646,-0.0032 -0.47923,-0.07538 -0.74092,-0.158308 z m 4.53385,-7.904616 A 7488.6648,7488.6648 0 0 0 29.222599,31.457231 C 23.144445,30.664615 23.213368,30.678615 23.213368,30.194 c 0,-0.127077 0.232615,-1.249231 0.516923,-2.492 0.284307,-1.242769 0.740923,-3.305077 1.014461,-4.581231 0.509385,-2.376769 0.653693,-2.821538 0.973539,-2.990615 0.301538,-0.160462 25.632924,-1.868462 25.833234,-1.742462 a 1.0413846,1.0413846 0 0 1 0.27354,0.271385 c 0.10338,0.164769 0.0721,0.338153 -2.00308,11.047077 -0.43077,2.229231 -0.83569,4.116 -0.89816,4.191385 -0.0625,0.07538 -0.16692,0.132461 -0.23261,0.127076 -0.0646,-0.0054 -3.46446,-0.453384 -7.55246,-0.996153 z"
     id="path2"
     style="stroke-width:1.07692" />
</svg>
