<?xml version="1.0" encoding="UTF-8" standalone="no"?>
<svg
   width="64"
   height="64"
   style=""
   version="1.1"
   id="svg9"
   sodipodi:docname="boxy_svg.svg"
   inkscape:version="1.4 (e7c3feb100, 2024-10-09)"
   xmlns:inkscape="http://www.inkscape.org/namespaces/inkscape"
   xmlns:sodipodi="http://sodipodi.sourceforge.net/DTD/sodipodi-0.dtd"
   xmlns:xlink="http://www.w3.org/1999/xlink"
   xmlns="http://www.w3.org/2000/svg"
   xmlns:svg="http://www.w3.org/2000/svg">
  <sodipodi:namedview
     id="namedview9"
     pagecolor="#505050"
     bordercolor="#eeeeee"
     borderopacity="1"
     inkscape:showpageshadow="0"
     inkscape:pageopacity="0"
     inkscape:pagecheckerboard="0"
     inkscape:deskcolor="#505050"
     inkscape:zoom="3.0234375"
     inkscape:cx="12.237726"
     inkscape:cy="69.126615"
     inkscape:window-width="1920"
     inkscape:window-height="1004"
     inkscape:window-x="0"
     inkscape:window-y="0"
     inkscape:window-maximized="1"
     inkscape:current-layer="svg9" />
  <defs
     id="defs2">
    <linearGradient
       id="linearGradient862-3"
       x1="7.9373"
       x2="7.9373"
       y1="15.081"
       y2="1.852"
       gradientTransform="scale(3.7796)"
       gradientUnits="userSpaceOnUse">
      <stop
         stop-color="#f1efeb"
         offset="0"
         id="stop1" />
      <stop
         stop-color="#fdfcfc"
         offset="1"
         id="stop2" />
    </linearGradient>
    <filter
       inkscape:collect="always"
       style="color-interpolation-filters:sRGB"
       id="filter1057"
       x="-0.026999999"
       width="1.054"
       y="-0.026999999"
       height="1.054">
      <feGaussianBlur
         inkscape:collect="always"
         stdDeviation="0.61875"
         id="feGaussianBlur1059" />
    </filter>
    <linearGradient
       inkscape:collect="always"
       xlink:href="#linearGradient1051"
       id="linearGradient1053"
       x1="-127"
       y1="60"
       x2="-72"
       y2="5"
       gradientUnits="userSpaceOnUse"
       gradientTransform="translate(232.485,-0.52499731)" />
    <linearGradient
       inkscape:collect="always"
       id="linearGradient1051">
      <stop
         style="stop-color:#dee0e2;stop-opacity:1"
         offset="0"
         id="stop1047" />
      <stop
         style="stop-color:#f1f3f5;stop-opacity:0.99607843"
         offset="1"
         id="stop1049" />
    </linearGradient>
  </defs>
  <g
     id="g10"
     transform="translate(-100.985,0.01499925)">
    <rect
       ry="15"
       y="4.4850001"
       x="105.485"
       height="55"
       width="55"
       id="rect1055"
       style="opacity:0.3;fill:#141414;fill-opacity:1;stroke-width:2.74436;stroke-linecap:round;filter:url(#filter1057)" />
    <rect
       style="fill:url(#linearGradient1053);fill-opacity:1;stroke-width:2.74436;stroke-linecap:round"
       id="rect1045"
       width="54.999996"
       height="54.999996"
       x="105.485"
       y="4.4850025"
       ry="14.999999" />
  </g>
  <g
     transform="matrix(1.1344 0 0 1.1344 -4.2999 -5.4343)"
     id="g9">
    <path
       class="s0"
       transform="matrix(1.2448 0 0 1.2448 -6.775 -8.6449)"
       d="m16.298 42.055v-17.198l7.934 4.573v8.013z"
       fill="#de6547"
       id="path2" />
    <path
       class="s1"
       transform="matrix(1.2448 0 0 1.2448 -6.775 -8.6449)"
       d="m16.278 24.892 14.892-8.599 7e-3 9.158-6.938 4.006z"
       fill="#80b7fa"
       id="path3" />
    <path
       class="s2"
       transform="matrix(1.2448 0 0 1.2448 -6.775 -8.6449)"
       d="m31.131 16.293 14.891 8.599-7.926 4.585-6.938-4.007z"
       fill="#4581e1"
       id="path4" />
    <path
       class="s3"
       transform="matrix(1.2448 0 0 1.2448 -6.775 -8.6449)"
       d="m46.002 24.857v17.198l-7.934-4.574v-8.012z"
       fill="#69b356"
       id="path5" />
    <path
       class="s4"
       transform="matrix(1.2448 0 0 1.2448 -6.775 -8.6449)"
       d="m46.022 42.019-14.891 8.599-9e-3 -9.158 6.938-4.006z"
       fill="#d1e993"
       id="path6" />
    <path
       class="s5"
       transform="matrix(1.2448 0 0 1.2448 -6.775 -8.6449)"
       d="m31.17 50.618-14.892-8.599 7.927-4.585 6.937 4.006z"
       fill="#fdbc4d"
       id="path7" />
    <path
       class="s6"
       transform="matrix(1.2448 0 0 1.2448 -6.775 -8.6449)"
       d="m38.654 36.699c0.469 0.47 0.899 1.408 0.899 2.151 0 0.703-0.43 1.641-0.899 2.11s-1.407 0.899-2.11 0.899c-0.743 0-1.681-0.43-2.15-0.899-0.078-0.078-0.195-0.195-0.274-0.352 0.039 0.157 0.039 0.313 0.039 0.469 0 0.704-0.39 1.642-0.898 2.111-0.469 0.469-1.368 0.899-2.111 0.899s-1.641-0.43-2.11-0.899c-0.508-0.469-0.9-1.407-0.9-2.111 0-0.156 0-0.312 0.04-0.429-0.117 0.117-0.196 0.234-0.274 0.312-0.469 0.469-1.407 0.899-2.15 0.899-0.742 0-1.641-0.43-2.11-0.899s-0.899-1.407-0.899-2.11c0-0.743 0.43-1.681 0.899-2.151 0.078-0.077 0.195-0.194 0.352-0.273-0.157 0.039-0.313 0.039-0.47 0.039-0.703 0-1.641-0.391-2.11-0.898-0.469-0.469-0.899-1.369-0.899-2.111 0-0.743 0.43-1.642 0.899-2.111 0.469-0.508 1.407-0.899 2.11-0.899 0.157 0 0.313 0 0.431 0.039-0.118-0.117-0.235-0.195-0.313-0.274-0.469-0.469-0.899-1.407-0.899-2.149 0-0.703 0.43-1.641 0.899-2.111 0.469-0.469 1.407-0.899 2.11-0.899 0.743 0 1.681 0.43 2.15 0.899 0.078 0.079 0.196 0.196 0.274 0.352-0.04-0.156-0.04-0.313-0.04-0.469 0-0.703 0.392-1.642 0.9-2.11 0.469-0.47 1.367-0.899 2.11-0.899s1.642 0.429 2.111 0.899c0.508 0.468 0.898 1.407 0.898 2.11 0 0.156 0 0.313-0.039 0.43 0.118-0.117 0.196-0.234 0.274-0.313 0.469-0.469 1.407-0.899 2.15-0.899 0.703 0 1.641 0.43 2.11 0.899 0.469 0.47 0.899 1.408 0.899 2.111 0 0.742-0.43 1.68-0.899 2.149-0.077 0.079-0.195 0.196-0.351 0.274 0.156-0.039 0.312-0.039 0.469-0.039 0.703 0 1.641 0.391 2.11 0.899 0.469 0.469 0.899 1.368 0.899 2.111 0 0.742-0.43 1.642-0.899 2.111-0.469 0.507-1.407 0.898-2.11 0.898-0.157 0-0.313 0-0.43-0.039 0.117 0.117 0.235 0.196 0.312 0.273z"
       fill="#2f2f2f"
       id="path8" />
    <path
       class="s7"
       transform="matrix(1.2448 0 0 1.2448 -6.775 -8.6449)"
       d="m34.003 34.628h3.518c0.313 0.352 0.742 0.547 1.251 0.547 0.938 0 1.68-0.781 1.68-1.719s-0.742-1.72-1.68-1.72c-0.509 0-0.938 0.234-1.251 0.547h-3.518l2.502-2.501h0.039c0.938 0 1.681-0.782 1.681-1.72s-0.743-1.68-1.681-1.68-1.72 0.742-1.72 1.68v0.039l-2.501 2.502v-3.518c0.352-0.313 0.547-0.743 0.547-1.251 0-0.938-0.782-1.68-1.72-1.68s-1.72 0.742-1.72 1.68c0 0.508 0.235 0.938 0.548 1.251v3.518l-2.502-2.502v-0.039c0-0.938-0.743-1.68-1.72-1.68-0.938 0-1.68 0.742-1.68 1.68s0.742 1.72 1.68 1.72h0.039l2.502 2.501h-3.517c-0.314-0.313-0.744-0.547-1.252-0.547-0.938 0-1.68 0.782-1.68 1.72s0.742 1.719 1.68 1.719c0.508 0 0.938-0.195 1.252-0.547h3.517l-2.502 2.502h-0.039c-0.938 0-1.68 0.742-1.68 1.72 0 0.937 0.742 1.68 1.68 1.68 0.939 0 1.72-0.743 1.72-1.68v-0.04l2.502-2.501v3.518c-0.352 0.312-0.548 0.742-0.548 1.25 0 0.938 0.782 1.681 1.72 1.681s1.72-0.743 1.72-1.681c0-0.508-0.235-0.938-0.547-1.25v-3.518l2.501 2.501v0.04c0 0.937 0.742 1.68 1.72 1.68 0.938 0 1.681-0.743 1.681-1.68 0-0.978-0.743-1.72-1.681-1.72h-0.039z"
       fill="#ffffff"
       id="path9" />
  </g>
</svg>
