<?xml version="1.0" encoding="UTF-8"?>
<svg width="64" height="64" version="1.1" viewBox="0 0 16.933 16.933" xmlns="http://www.w3.org/2000/svg" xmlns:cc="http://creativecommons.org/ns#" xmlns:dc="http://purl.org/dc/elements/1.1/" xmlns:rdf="http://www.w3.org/1999/02/22-rdf-syntax-ns#">
 <metadata>
  <rdf:RDF>
   <cc:Work rdf:about="">
    <dc:format>image/svg+xml</dc:format>
    <dc:type rdf:resource="http://purl.org/dc/dcmitype/StillImage"/>
    <dc:title/>
   </cc:Work>
  </rdf:RDF>
 </metadata>
 <defs>
  <style type="text/css"/>
  <style type="text/css"/>
  <filter id="filter2761" x="-.024" y="-.024" width="1.048" height="1.048" color-interpolation-filters="sRGB">
   <feGaussianBlur stdDeviation="0.14552168"/>
  </filter>
  <linearGradient id="linearGradient4673" x1="1.2573" x2="15.644" y1="15.429" y2="1.1082" gradientTransform="translate(-.00069512 .14041)" gradientUnits="userSpaceOnUse">
   <stop stop-color="#32dcff" offset="0"/>
   <stop stop-color="#3296ff" offset="1"/>
  </linearGradient>
  <style type="text/css"/>
 </defs>
 <g fill="#5e4aa6">
  <circle cx="-297.6" cy="-338.47" r="0" stroke-width=".26458"/>
  <g transform="translate(32.763,-10.103)" stroke-width=".26458">
   <circle cx="-299.02" cy="-338.77" r="0"/>
   <circle cx="-8.1062" cy="-3.9487" r="0" fill-rule="evenodd"/>
   <circle cx="-278.25" cy="-357.69" r="0"/>
   <circle cx="12.663" cy="-22.859" r="0" fill-rule="evenodd"/>
  </g>
  <circle cx="-297.6" cy="-338.47" r="0" stroke-width=".26458"/>
  <g transform="translate(32.763 -10.103)" stroke-width=".26458">
   <circle cx="-299.02" cy="-338.77" r="0"/>
   <circle cx="-8.1062" cy="-3.9487" r="0" fill-rule="evenodd"/>
   <circle cx="-278.25" cy="-357.69" r="0"/>
   <circle cx="12.663" cy="-22.859" r="0" fill-rule="evenodd"/>
  </g>
 </g>
 <path d="m10.708 1.1905c4.405 0 5.0345 0.67282 5.0345 5.388v3.7761c0 4.7152-0.62954 5.388-5.0345 5.388h-4.4832c-4.405 0-5.0346-0.6728-5.0346-5.388v-3.7761c0-4.7152 0.62954-5.388 5.0346-5.388z" enable-background="new" fill="#141414" filter="url(#filter2761)" opacity=".3"/>
 <path d="m10.708 1.1162c4.405 0 5.0344 0.67282 5.0344 5.3879v3.7761c0 4.7153-0.62954 5.3879-5.0344 5.3879h-4.4833c-4.405 0-5.0347-0.6728-5.0347-5.3879v-3.7761c0-4.7153 0.62954-5.3879 5.0347-5.3879z" enable-background="new" fill="url(#linearGradient4673)"/>
 <path d="m10.097 3.1751c3.2035 0 3.6612 0.48931 3.6612 3.9183v2.7461c0 3.4292-0.45783 3.9183-3.6612 3.9183h-3.2604c-3.2035 0-3.6614-0.48929-3.6614-3.9183v-2.7461c0-3.4292 0.45783-3.9183 3.6614-3.9183z" enable-background="new" fill="#fff" stroke-width=".72725"/>
 <g transform="matrix(.0088586 0 0 .0088586 3.9309 3.9309)">
  <path d="m960 128v768a64 64 0 0 1-64 64h-224a32 32 0 0 1-32-32v-64a32 32 0 0 1 32-32h160v-640h-160a32 32 0 0 1-32-32v-64a32 32 0 0 1 32-32h224a64 64 0 0 1 64 64z" opacity=".4" p-id="1498"/>
  <path d="m352 64h-224a64 64 0 0 0-64 64v768a64 64 0 0 0 64 64h224a32 32 0 0 0 32-32v-64a32 32 0 0 0-32-32h-160v-640h160a32 32 0 0 0 32-32v-64a32 32 0 0 0-32-32z" p-id="1499"/>
 </g>
</svg>
