<?xml version="1.0" encoding="UTF-8"?>
<svg width="64" height="64" version="1.1" xmlns="http://www.w3.org/2000/svg" xmlns:cc="http://creativecommons.org/ns#" xmlns:dc="http://purl.org/dc/elements/1.1/" xmlns:rdf="http://www.w3.org/1999/02/22-rdf-syntax-ns#">
 <metadata>
  <rdf:RDF>
   <cc:Work rdf:about="">
    <dc:format>image/svg+xml</dc:format>
    <dc:type rdf:resource="http://purl.org/dc/dcmitype/StillImage"/>
    <dc:title/>
   </cc:Work>
  </rdf:RDF>
 </metadata>
 <defs>
  <style type="text/css"/>
  <filter id="filter2761" x="-.024" y="-.024" width="1.048" height="1.048" color-interpolation-filters="sRGB">
   <feGaussianBlur stdDeviation="0.14552168"/>
  </filter>
  <linearGradient id="linearGradient4673" x1="1.4377" x2="15.644" y1="15.601" y2="1.1082" gradientTransform="matrix(3.7796 0 0 3.7796 -.0031954 .53086)" gradientUnits="userSpaceOnUse">
   <stop stop-color="#ff4637" offset="0"/>
   <stop stop-color="#fa4b5a" offset=".47728"/>
   <stop stop-color="#ff3c5f" offset="1"/>
  </linearGradient>
 </defs>
 <circle cx="-1133.4" cy="-1295.5" r="0" fill="#5e4aa6"/>
 <circle cx="-1025.1" cy="-1355.6" r="0" fill="#5e4aa6"/>
 <path transform="matrix(3.7796 0 0 3.7796 -.0031954 .53086)" d="m10.709 1.05c4.405 0 5.0345 0.67282 5.0345 5.388v3.7761c0 4.7152-0.62954 5.388-5.0345 5.388h-4.4832c-4.405 0-5.0346-0.6728-5.0346-5.388v-3.7761c0-4.7152 0.62954-5.388 5.0346-5.388z" enable-background="new" fill="#141414" filter="url(#filter2761)" opacity=".3"/>
 <path d="m40.473 4.2189c16.649 0 19.028 2.543 19.028 20.364v14.272c0 17.822-2.3794 20.364-19.028 20.364h-16.945c-16.649 0-19.029-2.5429-19.029-20.364v-14.272c0-17.822 2.3794-20.364 19.029-20.364z" enable-background="new" fill="url(#linearGradient4673)" stroke-width="3.7796"/>
 <circle cx="-1157.3" cy="-1267.7" r="0" fill="#5e4aa6"/>
 <circle cx="-57.756" cy="-2.1827" r="0" fill="#5e4aa6" fill-rule="evenodd"/>
 <path d="m32.024 14.5a12.963 12.963 0 0 0-7.8015 23.333v3.8896a2.5926 2.5926 0 0 0 2.5925 2.5925h10.37a2.5926 2.5926 0 0 0 2.5925-2.5925v-3.8896a12.963 12.963 0 0 0-7.7537-23.333zm1.2253 5.9814v7.5007h3.7512l-6.2498 9.9993v-7.5007h-3.7512zm-6.4343 26.426-0.23413 0.02051a1.2963 1.2963 0 0 0 0.23413 2.572h10.37l0.23413-0.02051a1.2963 1.2963 0 0 0-0.23413-2.572z" fill="#fff" stroke-width=".035446"/>
</svg>
