<?xml version="1.0" encoding="UTF-8" standalone="no"?>
<svg
   width="64"
   height="64"
   version="1.1"
   id="svg4"
   sodipodi:docname="bruno.svg"
   inkscape:version="1.4.2 (ebf0e940d0, 2025-05-08)"
   xmlns:inkscape="http://www.inkscape.org/namespaces/inkscape"
   xmlns:sodipodi="http://sodipodi.sourceforge.net/DTD/sodipodi-0.dtd"
   xmlns:xlink="http://www.w3.org/1999/xlink"
   xmlns="http://www.w3.org/2000/svg"
   xmlns:svg="http://www.w3.org/2000/svg">
  <defs
     id="defs4">
    <filter
       inkscape:collect="always"
       style="color-interpolation-filters:sRGB"
       id="filter1057"
       x="-0.026999999"
       width="1.054"
       y="-0.026999999"
       height="1.054">
      <feGaussianBlur
         inkscape:collect="always"
         stdDeviation="0.61875"
         id="feGaussianBlur1059" />
    </filter>
    <linearGradient
       inkscape:collect="always"
       xlink:href="#linearGradient1051"
       id="linearGradient1053"
       x1="-127"
       y1="60"
       x2="-72"
       y2="5"
       gradientUnits="userSpaceOnUse"
       gradientTransform="translate(131.5,-0.5099967)" />
    <linearGradient
       inkscape:collect="always"
       id="linearGradient1051">
      <stop
         style="stop-color:#dee0e2;stop-opacity:1"
         offset="0"
         id="stop1047" />
      <stop
         style="stop-color:#f1f3f5;stop-opacity:0.99607843"
         offset="1"
         id="stop1049" />
    </linearGradient>
  </defs>
  <sodipodi:namedview
     id="namedview4"
     pagecolor="#505050"
     bordercolor="#eeeeee"
     borderopacity="1"
     inkscape:showpageshadow="0"
     inkscape:pageopacity="0"
     inkscape:pagecheckerboard="0"
     inkscape:deskcolor="#505050"
     inkscape:zoom="4.2094951"
     inkscape:cx="6.0577337"
     inkscape:cy="23.043144"
     inkscape:window-width="1920"
     inkscape:window-height="1003"
     inkscape:window-x="0"
     inkscape:window-y="0"
     inkscape:window-maximized="1"
     inkscape:current-layer="svg4" />
  <rect
     ry="15"
     y="4.4999995"
     x="4.4999995"
     height="55"
     width="55"
     id="rect1055"
     style="opacity:0.3;fill:#141414;fill-opacity:1;stroke-width:2.74436;stroke-linecap:round;filter:url(#filter1057)" />
  <rect
     style="fill:url(#linearGradient1053);fill-opacity:1;stroke-width:2.74436;stroke-linecap:round"
     id="rect1045"
     width="54.999996"
     height="54.999996"
     x="4.5000019"
     y="4.5000019"
     ry="14.999999" />
  <path
     fill="#f4aa43"
     d="M31.326 11.984c-2.874.094-5.725.96-8.121 2.576l-.094.063-.11.017c-3.338.516-5.896 3.254-7.75 6.076l-.001.004-.002.002c-1.932 3.033-3.486 6.355-4.422 9.81-.454 4.025 1.797 7.818 4.049 11.202l.033.053.021.058c.325.925 1.25 1.73 2.106 1.945.428.108.817.078 1.142-.095.325-.174.62-.5.819-1.127l.06-.19.174-.095a.95.95 0 0 1 .73-.067c.221.075.383.206.526.35.285.287.513.655.75 1.039s.474.781.705 1.096.466.527.596.584l.14.06.082.131c.523.82 1.453 1.207 2.495 1.59 1.041.383 2.201.743 2.878 1.762l.057.082.018.097c.32 1.618 1.665 2.904 3.322 2.96h.014l.015.001c1.13.106 2.318.105 3.153-.449h.002l.002-.002c.585-.378.807-1.158 1.138-2.016.166-.428.363-.872.72-1.238.338-.347.836-.583 1.444-.627 2.246-.503 3.963-2.353 5.243-4.328.107-.3.21-.555.334-.748.14-.218.329-.416.61-.48.283-.065.544.051.708.171s.282.257.402.399c.24.283.475.59.711.783.236.192.414.272.69.215l.017-.006.02-.002c.86-.108 1.433-.655 1.984-1.44.537-.764.998-1.718 1.611-2.503 1.954-3.404 3.845-7.43 2.44-11.168l-.004-.016c-1.613-4.724-3.666-9.73-7.934-12.373-.766-.42-1.65-.596-2.58-.832-.912-.232-1.876-.54-2.709-1.283-2.484-1.462-5.37-2.135-8.234-2.041z"
     color="#000"
     style="-inkscape-stroke:none"
     id="path1" />
  <path
     fill="#3f3f3f"
     fill-opacity=".996"
     d="m30.387 37.288 3.512.026 1.836-1.556-.518-2.52-1.64-.304-3.967.068-1.118 1.802.25 1.514z"
     style="paint-order:fill markers stroke"
     id="path2" />
  <path
     fill="#ea5a47"
     fill-opacity=".996"
     d="m32.04 41.432-3.833 2.823.372 4.875 1.094 1.77 2.543.593 2.475.028s.894-1.573.978-1.708c.085-.136.497-3.61.51-3.762.012-.15-.233-2.25-.233-2.25z"
     style="paint-order:fill markers stroke"
     id="path3" />
  <path
     d="M31.586 52.421c-1.723-.06-3.29-1.228-3.67-2.931-.766-1.837-.538-3.884-.788-5.804-2.283-1.26-3.968-3.882-3.334-6.538 2.211-1.038.691 3.035 2.418 3.862 1.251 1.892 3.687 1.958 4.98.11.91-.625-.002-2.008.54-2.864 1.56-1.019 1.306 1.483 1.291 2.476 1.16 1.52 3.36 2.707 4.85.795 1.95-.965 1-3.761 2.338-4.712 1.66 1.066.339 4.065-.783 5.289-1.296 1.324-3.25 1.84-2.442 4.104-.172 1.981-.524 4.21-1.994 5.663-.973.707-2.268.613-3.406.55zm1.73-1.49c2.094-.516 2.051-3.364 2.213-5.147.572-2.106-2.25-2.29-3.35-3.473-.84 1.281-2.91 1.446-3.509 2.387.175 1.96-.071 4.475 1.617 5.837a6 6 0 0 0 3.029.396zm5.022-3.16c-.856-1.911 2.81-2.114 3.355-3.921 1.152-1.543 2.684-3.265 1.462-5.194.199-2.298.927-4.55.919-6.884.226-2.2-.36-4.368-.772-6.469 1.739-1.539 1.972 2.53 2.165 3.67.233 3.146-.235 6.286-.887 9.353.668 1.21.886 4.544 2.695 4.087 2.351-3.099 4.624-6.579 5.081-10.526.154-2.425-1.09-4.645-1.893-6.865-1.522-3.361-3.548-7.078-7.22-8.402-2.04.08-3.448-1.466-5.234-2.222-4.654-2.156-10.398-1.685-14.59 1.283-3.585.431-6.02 3.526-7.858 6.362-1.58 2.82-3.056 5.774-3.832 8.922-.209 4.378 2.494 8.187 4.96 11.56 1.832 1.083 2.07-2.625 2.868-3.72-.809-4.249-1.602-8.803-.146-13.009 1.122-1.902 1.964.743.981 1.705-.782 3.72-.076 7.53.632 11.196-1.13 1.978.355 3.717 1.64 5.218.592 1.735 4.463 1.91 3.228 3.861-2.21-.397-3.849-2.286-5.154-4.004-.541-.674-1.182-2.349-1.564-.57-1.066 2.19-3.728.9-4.42-.892-2.292-3.32-4.57-7.06-4.427-11.243.407-2.658 1.66-5.108 2.797-7.51 1.842-3.577 4.291-7.285 8.153-8.898 1.357-.28 2.506-.875 3.706-1.556 4.679-2.32 10.49-2.006 14.959.658.97.407 1.674 1.423 2.83 1.21 3.644.663 6.092 3.938 7.772 7.008 1.328 2.683 2.601 5.492 3.13 8.464.246 4.051-1.83 7.789-3.954 11.077-.782 1.792-3.288 3.861-4.747 1.496-.817-1.782-1.689 1.818-2.73 2.389-1.05 1.017-2.326 2.578-3.904 2.365zM33.9 37.313c-2.235-.378-.85-3.432.491-1.76 1.695-.76-.424-2.562-1.703-1.828-1.285-.278-3.783-.04-2.885 1.636.739.455 2.262-1.208 2.186.773-.52 2.276-5.236.661-3.932-1.43.183-2.251 2.115-3.106 4.168-2.642 2.102-.425 4.107.312 4.372 2.65.985 1.577-1.62 2.447-2.697 2.601zm-8.427-9.447c-2.89-1.437 1.657-4.954 1.796-1.497.35 1.193-.831 1.441-1.796 1.497m14.2-.012c-2.924-.135-.424-4.887 1.192-2.21.501.844-.034 2.43-1.192 2.21"
     id="path4" />
</svg>
