<?xml version="1.0" encoding="UTF-8" standalone="no"?>
<svg
   xml:space="preserve"
   width="64"
   height="64"
   version="1.1"
   id="svg8"
   sodipodi:docname="btrfs-assistant.svg"
   inkscape:version="1.4.2 (ebf0e940d0, 2025-05-08)"
   xmlns:inkscape="http://www.inkscape.org/namespaces/inkscape"
   xmlns:sodipodi="http://sodipodi.sourceforge.net/DTD/sodipodi-0.dtd"
   xmlns:xlink="http://www.w3.org/1999/xlink"
   xmlns="http://www.w3.org/2000/svg"
   xmlns:svg="http://www.w3.org/2000/svg"><sodipodi:namedview
     id="namedview8"
     pagecolor="#505050"
     bordercolor="#eeeeee"
     borderopacity="1"
     inkscape:showpageshadow="0"
     inkscape:pageopacity="0"
     inkscape:pagecheckerboard="0"
     inkscape:deskcolor="#505050"
     inkscape:zoom="8.4189901"
     inkscape:cx="31.535849"
     inkscape:cy="36.108844"
     inkscape:window-width="1920"
     inkscape:window-height="1003"
     inkscape:window-x="0"
     inkscape:window-y="0"
     inkscape:window-maximized="1"
     inkscape:current-layer="svg8" /><defs
     id="defs5"><linearGradient
       id="b"
       x1="7.937"
       x2="7.937"
       y1="15.081"
       y2="1.852"
       gradientTransform="matrix(3.7796,0,0,3.7796,-70.317222,-6.8891873)"
       gradientUnits="userSpaceOnUse"><stop
         offset="0"
         stop-color="#f1efeb"
         style="stop-color:#fafafa"
         id="stop1" /><stop
         offset="1"
         stop-color="#fdfcfc"
         id="stop2" /></linearGradient><linearGradient
       xlink:href="#a"
       id="f"
       x1="135.03"
       x2="626.78"
       y1="925.37"
       y2="925.37"
       gradientTransform="translate(158.7 -200.52)scale(.36906)"
       gradientUnits="userSpaceOnUse" /><linearGradient
       id="a"><stop
         offset="0"
         style="stop-color:#fca326"
         id="stop3" /><stop
         offset="1"
         style="stop-color:#e24329"
         id="stop4" /></linearGradient><linearGradient
       xlink:href="#a"
       id="d"
       x1="101.77"
       x2="199.3"
       y1="58.614"
       y2="102.65"
       gradientTransform="rotate(20.567 232.002 -332.831)scale(1.14872)"
       gradientUnits="userSpaceOnUse" /><filter
       id="e"
       width="1.0789112"
       height="1.041151"
       x="-0.039455602"
       y="-0.020575476"
       style="color-interpolation-filters:sRGB"><feGaussianBlur
         stdDeviation="1.249"
         id="feGaussianBlur4" /></filter><filter
       id="c"
       width="1.0252316"
       height="1.0252314"
       x="-0.012615806"
       y="-0.012615708"
       style="color-interpolation-filters:sRGB"><feGaussianBlur
         stdDeviation="2.029"
         id="feGaussianBlur5" /></filter><filter
       id="filter1057"
       x="-0.026999999"
       y="-0.026999999"
       width="1.054"
       height="1.054"
       color-interpolation-filters="sRGB"><feGaussianBlur
         stdDeviation="0.61875"
         id="feGaussianBlur866" /></filter><linearGradient
       inkscape:collect="always"
       xlink:href="#linearGradient6174"
       id="linearGradient6186"
       x1="24.320965"
       y1="19.426384"
       x2="46.448174"
       y2="61.050648"
       gradientUnits="userSpaceOnUse"
       gradientTransform="translate(-1.3037243e-6)" /><linearGradient
       inkscape:collect="always"
       id="linearGradient6174"><stop
         style="stop-color:#fd7e14;stop-opacity:1;"
         offset="0"
         id="stop6170" /><stop
         style="stop-color:#dc3545;stop-opacity:1"
         offset="1"
         id="stop6172" /></linearGradient><filter
       id="filter1152"
       x="-0.055255152"
       y="-0.065640703"
       width="1.1105103"
       height="1.1312814"
       color-interpolation-filters="sRGB"><feGaussianBlur
         stdDeviation="2.9934784"
         id="feGaussianBlur922" /></filter></defs><rect
     x="4.4999995"
     y="4.4999995"
     width="55"
     height="55"
     ry="15"
     fill="#141414"
     filter="url(#filter1057)"
     opacity="0.3"
     stroke-linecap="round"
     stroke-width="2.7444"
     id="rect902" /><rect
     x="4.4999986"
     y="4.4999986"
     width="55"
     height="55"
     ry="15"
     fill="url(#linearGradient1053)"
     stroke-linecap="round"
     stroke-width="2.7444"
     id="rect904"
     style="mix-blend-mode:normal;fill:url(#linearGradient6186);fill-opacity:1;stroke-width:2.744;stroke-miterlimit:4;stroke-dasharray:none" /><g
     style="fill:#0064c8;fill-opacity:1"
     transform="matrix(0.23968387,0,0,0.23950657,31.880158,31.880247)"
     fill="#000096"
     filter="url(#filter1152)"
     image-rendering="optimizeSpeed"
     opacity="0.3"
     stroke-width="15.683"
     id="g947" /><path
     d="M44.125 2.975a45 45 0 0 0-5.208-1.704l-6.57 7.361a36.8 36.8 0 0 0-11.115.062l-6.685-7.32A45.4 45.4 0 0 0 4.505 5.647l.56 9.864a36.8 36.8 0 0 0-7.806 7.895l-9.885-.447a45 45 0 0 0-2.4 4.916 45 45 0 0 0-1.704 5.208l7.362 6.57a36.8 36.8 0 0 0 .061 11.115l-7.319 6.684a45.4 45.4 0 0 0 4.272 10.042l9.865-.56a36.8 36.8 0 0 0 7.895 7.806l-.448 9.885a45 45 0 0 0 4.916 2.4 45 45 0 0 0 5.208 1.704l6.57-7.362a36.8 36.8 0 0 0 11.115-.061l6.685 7.32a45.4 45.4 0 0 0 10.042-4.273l-.56-9.864a36.8 36.8 0 0 0 7.805-7.896l9.885.448a45 45 0 0 0 2.4-4.916 45 45 0 0 0 1.704-5.209l-7.361-6.569a36.8 36.8 0 0 0-.062-11.115l7.32-6.685a45.4 45.4 0 0 0-4.273-10.042l-9.864.56a36.8 36.8 0 0 0-7.895-7.805l.448-9.886a45 45 0 0 0-4.917-2.4zM38.7 16.289a31.003 31.003 0 0 1 17.011 40.41 31.003 31.003 0 0 1-40.41 17.012A31.003 31.003 0 0 1-1.71 33.3 31.003 31.003 0 0 1 38.7 16.289"
     style="fill:#ffffff;fill-opacity:1"
     id="path6"
     transform="translate(19.242 10.705)scale(.47255)" /><path
     d="M326.22 83.136c-3.378 0-6.146 2.768-6.146 6.146v13.967c0 1.603.633 3.064 1.648 4.162a6.1 6.1 0 0 0-1.648 4.164v13.956a6.1 6.1 0 0 0 .519 2.469h-31.728c-3.378 0-6.149 2.78-6.149 6.158v13.956c0 1.605.63 3.072 1.65 4.173a6.1 6.1 0 0 0-1.65 4.164v13.956c0 3.379 2.77 6.159 6.15 6.159h31.609a6 6 0 0 0-.402 2.167V192.7c0 3.379 2.768 6.147 6.146 6.147h10.68c3.378 0 6.158-2.768 6.158-6.147v-13.967c0-1.6-.632-3.052-1.65-4.15a6.14 6.14 0 0 0 1.65-4.176v-13.956c0-3.378-2.78-6.158-6.159-6.158H326.22c-3.378 0-6.146 2.78-6.146 6.158v13.956a6.1 6.1 0 0 0 .52 2.469H305.17a6.1 6.1 0 0 0 .52-2.469v-13.956c0-1.605-.63-3.063-1.65-4.164a6.14 6.14 0 0 0 1.65-4.173v-13.956a6.1 6.1 0 0 0-.532-2.469h31.74c3.378 0 6.157-2.78 6.157-6.158v-13.956a6.1 6.1 0 0 0-1.648-4.164 6.12 6.12 0 0 0 1.648-4.162V89.282c0-3.378-2.78-6.146-6.158-6.146zm0 3.69h10.679c1.398 0 2.468 1.059 2.468 2.456v13.967c0 1.049-.596 1.908-1.486 2.271H325.25c-.888-.363-1.487-1.222-1.487-2.27V89.281c0-1.397 1.059-2.456 2.457-2.456zm-.98 22.49h12.65c.886.366 1.478 1.216 1.478 2.26v13.956c0 1.398-1.07 2.469-2.468 2.469h-10.68c-1.397 0-2.456-1.071-2.456-2.469v-13.956c0-1.044.595-1.894 1.477-2.26zm-36.375 22.374h10.679c1.397 0 2.456 1.07 2.456 2.468v13.956c0 1.039-.59 1.9-1.465 2.271H287.87c-.875-.372-1.463-1.232-1.463-2.27v-13.957c0-1.397 1.059-2.468 2.456-2.468zm37.355 22.293h10.679c1.397 0 2.468 1.07 2.468 2.468v13.956c0 1.039-.588 1.899-1.466 2.271h-12.673c-.874-.372-1.465-1.232-1.465-2.27V156.45c0-1.397 1.059-2.468 2.457-2.468zm-38.337.209h12.64c.88.37 1.477 1.216 1.477 2.26v13.955c0 1.398-1.06 2.469-2.457 2.469h-10.679c-1.397 0-2.456-1.071-2.456-2.469v-13.956c0-1.043.595-1.89 1.475-2.26m50.007 22.293c.882.366 1.477 1.205 1.477 2.247V192.7c0 1.398-1.07 2.457-2.468 2.457h-10.68c-1.397 0-2.456-1.059-2.456-2.457v-13.967c0-.96.501-1.76 1.268-2.167 1.764 0 8.705-.08 12.859-.08z"
     style="color:#000;fill:#ffffff;text-decoration-line:none;text-indent:0;text-transform:none;fill-opacity:1"
     id="path8"
     transform="translate(-30.744 3.658)scale(.2008)" /></svg>
