<?xml version="1.0" encoding="UTF-8" standalone="no"?>
<svg
   width="64"
   height="64"
   version="1.1"
   id="svg3"
   sodipodi:docname="c&amp;c-red-alert-2.svg"
   inkscape:version="1.4.2 (ebf0e940d0, 2025-05-08)"
   xmlns:inkscape="http://www.inkscape.org/namespaces/inkscape"
   xmlns:sodipodi="http://sodipodi.sourceforge.net/DTD/sodipodi-0.dtd"
   xmlns="http://www.w3.org/2000/svg"
   xmlns:svg="http://www.w3.org/2000/svg">
  <sodipodi:namedview
     id="namedview3"
     pagecolor="#505050"
     bordercolor="#eeeeee"
     borderopacity="1"
     inkscape:showpageshadow="0"
     inkscape:pageopacity="0"
     inkscape:pagecheckerboard="0"
     inkscape:deskcolor="#505050"
     inkscape:zoom="5.953125"
     inkscape:cx="58.120735"
     inkscape:cy="23.349081"
     inkscape:window-width="1920"
     inkscape:window-height="1003"
     inkscape:window-x="0"
     inkscape:window-y="0"
     inkscape:window-maximized="1"
     inkscape:current-layer="svg3" />
  <defs
     id="defs2">
    <linearGradient
       id="a"
       x1="7.937"
       x2="7.937"
       y1="15.081"
       y2="1.852"
       gradientTransform="matrix(3.7796,0,0,3.7796,-81.007341,0)"
       gradientUnits="userSpaceOnUse">
      <stop
         offset="0"
         stop-color="#1a1a1a"
         id="stop1" />
      <stop
         offset="1"
         stop-color="#333"
         id="stop2" />
    </linearGradient>
    <radialGradient
       id="radialGradient1108"
       cx="16.704"
       cy="8.3174"
       r="10.264"
       gradientTransform="matrix(0.60619,3.3498e-8,-4.0009e-8,0.72401,24.359316,0.5123)"
       gradientUnits="userSpaceOnUse">
      <stop
         stop-color="#fff"
         offset="0"
         id="stop14" />
      <stop
         stop-color="#f8f8f8"
         offset=".8"
         id="stop16" />
      <stop
         stop-color="#c4c4c4"
         offset="1"
         id="stop18" />
    </radialGradient>
    <filter
       id="filter1057-2"
       x="-0.026999999"
       y="-0.026999999"
       width="1.054"
       height="1.054"
       color-interpolation-filters="sRGB">
      <feGaussianBlur
         stdDeviation="0.61875"
         id="feGaussianBlur1" />
    </filter>
    <linearGradient
       id="linearGradient1053"
       x1="-127"
       x2="-72"
       y1="60"
       y2="5"
       gradientTransform="translate(247.57349,4.4749962)"
       gradientUnits="userSpaceOnUse">
      <stop
         stop-color="#1d2123"
         offset="0"
         id="stop1-3" />
      <stop
         stop-color="#33393e"
         stop-opacity=".99608"
         offset="1"
         id="stop2-6" />
    </linearGradient>
    <filter
       id="filter1057-2-3"
       x="-0.026999999"
       y="-0.026999999"
       width="1.054"
       height="1.054"
       color-interpolation-filters="sRGB">
      <feGaussianBlur
         stdDeviation="0.61875"
         id="feGaussianBlur1-6" />
    </filter>
    <linearGradient
       id="linearGradient1053-7"
       x1="-127"
       x2="-72"
       y1="60"
       y2="5"
       gradientTransform="translate(214.485,4.4750006)"
       gradientUnits="userSpaceOnUse">
      <stop
         stop-color="#1d2123"
         offset="0"
         id="stop1-3-5" />
      <stop
         stop-color="#33393e"
         stop-opacity=".99608"
         offset="1"
         id="stop2-6-3" />
    </linearGradient>
  </defs>
  <g
     id="g3"
     transform="translate(-82.985001,-4.9850003)">
    <rect
       x="87.485001"
       y="9.4849997"
       width="55"
       height="55"
       ry="15"
       fill="#141414"
       filter="url(#filter1057-2)"
       opacity="0.3"
       stroke-linecap="round"
       stroke-width="2.7444"
       id="rect4-5"
       style="filter:url(#filter1057-2-3)" />
    <rect
       x="87.485001"
       y="9.4850006"
       width="55"
       height="55"
       ry="15"
       fill="url(#linearGradient1053)"
       stroke-linecap="round"
       stroke-width="2.7444"
       id="rect5-6"
       style="fill:url(#linearGradient1053-7)" />
  </g>
  <path
     fill="#005200"
     d="M18.751 51.733c.444-.364 1.209-1.768 1.7-3.12 1.967-5.403 3.487-8.944 3.968-9.24.347-.215 2.977 3.191 5.159 6.68 2.56 4.095 3.868 5.772 4.46 5.723.341-.029.527.099.413.283-.33.536 9.434.42 9.971-.118 1.046-1.045.331-2.942-2.18-5.786-4.324-4.896-4.412-6.995-.295-6.995 3.022 0 4.747-.791 5.547-2.543.95-2.083 1.591-4.345 1.384-4.886-.116-.303-.07-.464.104-.356.348.215 1.656-2.516 2.34-4.883a29 29 0 0 1 1.107-3.025c.369-.832.893-2.278 1.165-3.214.271-.936.889-2.505 1.371-3.485 1.132-2.303 1.106-2.773-.228-4.107l-1.105-1.105H38.15c-15.142 0-15.504.017-16.49.792-1.677 1.319-2.619 3.557-2.126 5.05.322.976.294 1.537-.126 2.527-.296.7-.917 2.21-1.378 3.353a143 143 0 0 1-1.581 3.751c-1.225 2.758-1.891 4.983-1.667 5.568.117.304.063.46-.118.348-.326-.202-.68.632-2.314 5.459-.458 1.352-1.054 2.968-1.325 3.592a35 35 0 0 0-.877 2.269c-.212.624-.737 2.068-1.168 3.209-.887 2.347-.994 3.803-.33 4.467.78.78 9.105.609 10.101-.208m6.84-17.467c0-.196.182-.468.404-.605s.31-.497.193-.799c-.134-.35-.052-.45.228-.278.295.183.357.06.189-.378-.164-.427-.104-.56.176-.386.29.18.37-.105.253-.906-.094-.642-.051-1.094.096-1.003.38.235 1.574-3.59 1.324-4.241-.114-.298-.044-.44.155-.317.2.123.477-.25.617-.831.954-3.966 1.685-4.368 7.627-4.2 4.035.115 5.323-.22 2.162-.56-1.235-.133-1.165-.155.378-.12 1.86.042 1.89.062 1.89 1.236 0 .656-.118 1.12-.262 1.03s-.434.395-.643 1.076c-2.298 7.491-2.286 7.478-6.859 7.478-4.064 0-3.826-.123-6.15 3.19-.66.944-1.778 1.33-1.778.614"
     color="#000"
     style="-inkscape-stroke:none"
     id="path2" />
  <path
     fill="#a3701b"
     d="M38.15 11.555c-5.091.076-10.203-.183-15.279.266-2.165.578-3.675 3.093-3.412 5.29.944 2.336-1.02 4.45-1.614 6.619-.947 2.421-2.169 4.741-2.869 7.255 1.648.44-.669-.325-.216 1.037-.053 1.424-1.607 2.897-1.855 4.754C11.534 41.155 9.5 45.31 8.31 49.743c-.92 2.873 2.584 2.774 4.45 2.701 2.14-.304 5.18.52 6.592-1.502 1.912-3.63 2.787-7.736 4.837-11.308 1.62-.023 2.722 2.917 3.92 4.178 1.798 2.54 3.188 5.396 5.342 7.666 1.61 1.246 3.992.87 6.122.917 1.68-.368 5.522.774 5.28-1.994-.98-3.75-5.161-5.735-5.925-9.579.555-2.638 4.056-1.137 5.89-2.005 2.33-.402 4.105-4.148 3.39-5.592-.567-.082 1.14.233.684-.904.16-1.796 2.239-3.576 2.43-5.829.942-2.751 2.068-5.436 2.972-8.202.8-1.806 2.533-4.316.264-5.807-.516-.62-1.066-1.156-1.932-.928zm0 2h14.652c1.789 1.06-.108 2.781-.466 4.233-1.055 3.3-2.458 6.473-3.49 9.781-.766 2.09-2.446 3.44-2.24 5.783-.286 2.65-2.454 4.316-5.102 3.814-2.904-.388-5.593 2.6-4.253 5.397 1.116 3.013 4.035 4.829 5.414 7.68-2.337.098-4.895.406-7.117-.053-2.136-.887-2.913-3.447-4.275-5.198-1.728-2.549-3.294-5.343-5.695-7.322-2.457-1.3-3.712 1.816-4.424 3.62-1.332 2.875-2.111 5.991-3.608 8.785-2.392.425-4.858.464-7.273.242.865-3.701 2.576-7.148 3.79-10.743.881-1.884.947-4.31 2.537-5.751.262-2.015.653-4.085 1.677-5.98 1.136-2.765 2.442-5.486 3.324-8.338.236-1.948-.786-4.281 1.295-5.584 2.05-.507 4.304-.244 6.432-.35 2.94-.017 5.881-.015 8.822-.016zm-.049 4.047c-1.928 1.29-4.361.285-6.559.981-2.402.504-3.757 2.835-4.138 5.095-1.887 1.17-.296 3.9-2.09 5.248-.345 1.746-1.095 3.154-1.685 4.86-.482 2.486 2.819 3.813 4.45 2.032 1.522-1.52 2.391-4.159 5.071-3.354 2.348.088 5.212.039 6.625-2.195 1.406-2.08 1.775-4.624 2.61-6.946 1.46-1.343 1.266-4.503-.675-5.406-1.116-.585-2.421-.124-3.609-.315m.06 2.037c1.61-.31 4.214.12 2.858 2.27-1.062.748-.997 2.504.463 1.923-2.446-.607-1.743 3.237-3.03 4.693-.976 2.407-3.898 1.884-5.968 1.938-2.4-.505-4.059 1.297-5.115 3.19-.984 1.572-2.434.843-1.132-.557-.488-1.036 1.066.011.29-1.307 1.196.07-.077-2.06 1.122-2.616.676-.906.122-1.381-.876-1.134 2.445.759.897-2.608 2.326-3.125.37-2.058 1.358-4.591 3.856-4.532 2.594-.328 5.284.285 7.83-.263-.804-.389-1.769-.27-2.623-.48m4.034 3.818c-.006.01-.041.021 0 0m-15.902 4.676c.06-.002-.22.102 0 0m1.127 6.75c-.153.487-.728.818 0 0m7.27 15.01.076.078zm1.398 1.13c.166-.024.102.415 0 0"
     color="#000"
     style="-inkscape-stroke:none"
     id="path3" />
</svg>
