<?xml version="1.0" encoding="UTF-8" standalone="no"?>
<svg
   width="64"
   height="64"
   version="1.1"
   id="svg5"
   sodipodi:docname="cachyos-pi.svg"
   inkscape:version="1.4.2 (ebf0e940d0, 2025-05-08)"
   xmlns:inkscape="http://www.inkscape.org/namespaces/inkscape"
   xmlns:sodipodi="http://sodipodi.sourceforge.net/DTD/sodipodi-0.dtd"
   xmlns="http://www.w3.org/2000/svg"
   xmlns:svg="http://www.w3.org/2000/svg">
  <sodipodi:namedview
     id="namedview5"
     pagecolor="#505050"
     bordercolor="#eeeeee"
     borderopacity="1"
     inkscape:showpageshadow="0"
     inkscape:pageopacity="0"
     inkscape:pagecheckerboard="0"
     inkscape:deskcolor="#505050"
     inkscape:zoom="6.5628348"
     inkscape:cx="20.951312"
     inkscape:cy="40.836012"
     inkscape:window-width="2560"
     inkscape:window-height="1411"
     inkscape:window-x="0"
     inkscape:window-y="0"
     inkscape:window-maximized="1"
     inkscape:current-layer="svg5" />
  <defs
     id="defs5">
    <linearGradient
       id="a"
       x1="7.937"
       x2="7.937"
       y1="15.081"
       y2="1.852"
       gradientTransform="translate(0 .032)scale(3.7795)"
       gradientUnits="userSpaceOnUse">
      <stop
         offset="0"
         stop-color="#292929"
         id="stop1" />
      <stop
         offset="1"
         stop-color="#4d4d4d"
         id="stop2" />
    </linearGradient>
    <linearGradient
       id="b"
       x1="-45.294"
       x2="-6.484"
       y1="32"
       y2="32"
       gradientTransform="translate(57.889)"
       gradientUnits="userSpaceOnUse">
      <stop
         offset="0"
         stop-color="#065142"
         id="stop3" />
      <stop
         offset=".5"
         stop-color="#038550"
         id="stop4" />
      <stop
         offset="1"
         stop-color="#065543"
         id="stop5" />
    </linearGradient>
    <filter
       id="filter1057-2"
       x="-0.026999999"
       y="-0.026999999"
       width="1.054"
       height="1.054"
       color-interpolation-filters="sRGB">
      <feGaussianBlur
         stdDeviation="0.61875"
         id="feGaussianBlur1" />
    </filter>
    <linearGradient
       id="linearGradient1053"
       x1="-127"
       x2="-72"
       y1="60"
       y2="5"
       gradientTransform="translate(131.5,-0.51000061)"
       gradientUnits="userSpaceOnUse">
      <stop
         stop-color="#1d2123"
         offset="0"
         id="stop1-3" />
      <stop
         stop-color="#33393e"
         stop-opacity=".99608"
         offset="1"
         id="stop2-6" />
    </linearGradient>
  </defs>
  <rect
     x="4.4999995"
     y="4.4999995"
     width="55"
     height="55"
     ry="15"
     fill="#141414"
     filter="url(#filter1057-2)"
     opacity="0.3"
     stroke-linecap="round"
     stroke-width="2.7444"
     id="rect4" />
  <rect
     x="4.5"
     y="4.5"
     width="55"
     height="55"
     ry="15"
     fill="url(#linearGradient1053)"
     stroke-linecap="round"
     stroke-width="2.7444"
     id="rect5"
     style="fill:url(#linearGradient1053)" />
  <path
     fill="url(#b)"
     d="m16.91 44.891-4.315-6.531 12.786.017 3.953 6.025c2.175 3.314 4.097 6.25 4.271 6.523l.318.497H21.224zm15.743-.157c-2.334-3.475-4.267-6.389-4.294-6.475s2.317-2.497 5.21-5.356l5.26-5.2 4.256.006 3.553 5.368c1.955 2.953 3.579 5.461 3.61 5.574.041.151-9.459 8.987-13.023 12.113-.316.277-.48.06-4.572-6.03M18.125 31.316l-3.648-5.489 6.713-6.13c5.604-5.118 6.75-6.092 6.935-5.894.122.13 2.095 3.021 4.385 6.424l4.163 6.188L26.07 36.809l-4.297-.005zm-4.362 4.68c.09-.165.737-.864 1.436-1.554l1.27-1.254.976 1.467c.537.807.976 1.507.976 1.555s-1.085.088-2.412.088c-2.246 0-2.4-.021-2.246-.301M45.75 29.08l-1.04-1.547h5.243l-1.54 1.547c-.846.85-1.558 1.547-1.581 1.547s-.51-.696-1.082-1.547m-11.234-9.754a1435 1435 0 0 1-4.3-6.531c-.1-.17 1.188-.215 6.219-.215h6.346l8.624 13.062h-12.72z"
     id="path5" />
</svg>
