<?xml version="1.0" encoding="UTF-8"?>
<svg width="64" height="64" version="1.1" viewBox="0 0 16.933 16.933" xmlns="http://www.w3.org/2000/svg" xmlns:cc="http://creativecommons.org/ns#" xmlns:dc="http://purl.org/dc/elements/1.1/" xmlns:rdf="http://www.w3.org/1999/02/22-rdf-syntax-ns#">
 <metadata>
  <rdf:RDF>
   <cc:Work rdf:about="">
    <dc:format>image/svg+xml</dc:format>
    <dc:type rdf:resource="http://purl.org/dc/dcmitype/StillImage"/>
   </cc:Work>
  </rdf:RDF>
 </metadata>
 <defs>
  <filter id="filter1057" x="-.027" y="-.027" width="1.054" height="1.054" color-interpolation-filters="sRGB">
   <feGaussianBlur stdDeviation="0.61875"/>
  </filter>
  <linearGradient id="linearGradient1053-3" x1="-127" x2="-72" y1="60" y2="5" gradientTransform="matrix(.26458 0 0 .26458 34.792 -.13493)" gradientUnits="userSpaceOnUse">
   <stop stop-color="#32d7ff" offset="0"/>
   <stop stop-color="#329bff" offset="1"/>
  </linearGradient>
 </defs>
 <g fill="#5e4aa6" stroke-width=".26458">
  <circle cx="-330.38" cy="-328.37" r="0"/>
  <circle cx="-312.55" cy="-328.38" r="0"/>
  <circle cx="-295.13" cy="-341.25" r="0"/>
 </g>
 <rect transform="matrix(.26458 0 0 .26458 -6e-5 -6.016e-5)" x="4.5" y="4.5" width="55" height="55" ry="15" fill="#141414" filter="url(#filter1057)" opacity=".3" stroke-linecap="round" stroke-width="2.7444"/>
 <rect x="1.1906" y="1.1906" width="14.552" height="14.552" ry="3.9687" fill="url(#linearGradient1053-3)" stroke-linecap="round" stroke-width=".72611"/>
 <rect x="2.6458" y="9.7894" width="11.641" height="4.2333" rx="1.3229" ry="1.3229" fill="#fff" opacity=".6"/>
 <g fill="#008bff">
  <rect x="3.4395" y="10.848" width="2.6458" height="2.6458" rx=".52916" ry=".52916" opacity=".15"/>
  <rect x="7.1436" y="10.848" width="2.6458" height="2.6458" rx=".52916" ry=".52916" opacity=".15"/>
  <rect x="10.848" y="10.848" width="2.6458" height="2.6458" rx=".52916" ry=".52916" opacity=".15"/>
 </g>
 <g fill="#f9f9f9">
  <rect x="3.4395" y="10.583" width="2.6458" height="2.6458" rx=".52916" ry=".52916"/>
  <rect x="7.1436" y="10.583" width="2.6458" height="2.6458" rx=".52916" ry=".52916"/>
  <rect x="10.848" y="10.583" width="2.6458" height="2.6458" rx=".52916" ry=".52916"/>
 </g>
</svg>
