<?xml version="1.0" encoding="UTF-8" standalone="no"?>
<svg
   width="64"
   height="64"
   enable-background="new 0 0 1024 1024"
   image-rendering="optimizeSpeed"
   version="1.1"
   id="svg22"
   sodipodi:docname="carla.svg"
   inkscape:version="1.4.2 (ebf0e940d0, 2025-05-08)"
   xmlns:inkscape="http://www.inkscape.org/namespaces/inkscape"
   xmlns:sodipodi="http://sodipodi.sourceforge.net/DTD/sodipodi-0.dtd"
   xmlns:xlink="http://www.w3.org/1999/xlink"
   xmlns="http://www.w3.org/2000/svg"
   xmlns:svg="http://www.w3.org/2000/svg">
  <sodipodi:namedview
     id="namedview22"
     pagecolor="#505050"
     bordercolor="#eeeeee"
     borderopacity="1"
     inkscape:showpageshadow="0"
     inkscape:pageopacity="0"
     inkscape:pagecheckerboard="0"
     inkscape:deskcolor="#505050"
     inkscape:zoom="5.953125"
     inkscape:cx="36.367454"
     inkscape:cy="36.787402"
     inkscape:window-width="1920"
     inkscape:window-height="1003"
     inkscape:window-x="0"
     inkscape:window-y="0"
     inkscape:window-maximized="1"
     inkscape:current-layer="svg22" />
  <defs
     id="defs13">
    <linearGradient
       id="b">
      <stop
         offset="0"
         stop-color="#3af63a"
         id="stop1" />
      <stop
         offset="1"
         stop-color="#3af68b"
         id="stop2" />
    </linearGradient>
    <linearGradient
       id="a">
      <stop
         offset="0"
         stop-color="#a2a2a2"
         id="stop3" />
      <stop
         offset="1"
         stop-color="#d0d0d0"
         id="stop4" />
    </linearGradient>
    <linearGradient
       id="e"
       x1="32"
       x2="32"
       y1="16"
       y2="48"
       gradientUnits="userSpaceOnUse">
      <stop
         offset="0"
         stop-color="#333"
         id="stop5" />
      <stop
         offset="1"
         stop-color="#484848"
         id="stop6" />
    </linearGradient>
    <linearGradient
       xlink:href="#a"
       id="m"
       x1="32"
       x2="32"
       y1="40"
       y2="45.333"
       gradientTransform="translate(-78 -25.592)scale(1.125)"
       gradientUnits="userSpaceOnUse" />
    <linearGradient
       xlink:href="#a"
       id="l"
       x1="32"
       x2="32"
       y1="40"
       y2="45.333"
       gradientTransform="translate(-78 -15.999)scale(1.125)"
       gradientUnits="userSpaceOnUse" />
    <linearGradient
       xlink:href="#a"
       id="n"
       x1="32"
       x2="32"
       y1="40"
       y2="45.333"
       gradientTransform="translate(-78 -7)scale(1.125)"
       gradientUnits="userSpaceOnUse" />
    <linearGradient
       xlink:href="#b"
       id="i"
       x1="23.5"
       x2="23.5"
       y1="20"
       y2="36"
       gradientUnits="userSpaceOnUse" />
    <linearGradient
       xlink:href="#b"
       id="j"
       x1="32"
       x2="32"
       y1="30"
       y2="36"
       gradientUnits="userSpaceOnUse" />
    <linearGradient
       id="k"
       x1="40.5"
       x2="40.5"
       y1="26"
       y2="36"
       gradientUnits="userSpaceOnUse">
      <stop
         offset="0"
         stop-color="#0ef1c9"
         id="stop7" />
      <stop
         offset="1"
         stop-color="#0e95f1"
         id="stop8" />
    </linearGradient>
    <linearGradient
       id="c"
       x1="7.937"
       x2="7.937"
       y1="15.081"
       y2="1.852"
       gradientTransform="scale(3.7796)"
       gradientUnits="userSpaceOnUse">
      <stop
         offset="0"
         stop-color="#b81e31"
         id="stop9" />
      <stop
         offset="1"
         stop-color="#ff5c5c"
         id="stop10" />
    </linearGradient>
    <filter
       id="d"
       width="1.12"
       height="1.12"
       x="-0.060000001"
       y="-0.060000001"
       color-interpolation-filters="sRGB">
      <feGaussianBlur
         stdDeviation=".8"
         id="feGaussianBlur10" />
    </filter>
    <filter
       id="h"
       width="1.12"
       height="1.12"
       x="-0.060000002"
       y="-0.060000002"
       color-interpolation-filters="sRGB">
      <feGaussianBlur
         stdDeviation=".15"
         id="feGaussianBlur11" />
    </filter>
    <filter
       id="g"
       width="1.12"
       height="1.12"
       x="-0.060000002"
       y="-0.060000002"
       color-interpolation-filters="sRGB">
      <feGaussianBlur
         stdDeviation=".15"
         id="feGaussianBlur12" />
    </filter>
    <filter
       id="f"
       width="1.12"
       height="1.12"
       x="-0.060000002"
       y="-0.060000002"
       color-interpolation-filters="sRGB">
      <feGaussianBlur
         stdDeviation=".15"
         id="feGaussianBlur13" />
    </filter>
    <filter
       id="filter1057"
       x="-0.026999999"
       y="-0.026999999"
       width="1.054"
       height="1.054"
       color-interpolation-filters="sRGB">
      <feGaussianBlur
         stdDeviation="0.61875"
         id="feGaussianBlur1" />
    </filter>
    <linearGradient
       id="linearGradient1053"
       x1="-127"
       x2="-72"
       y1="60"
       y2="5"
       gradientTransform="translate(131.5,-0.51000023)"
       gradientUnits="userSpaceOnUse">
      <stop
         stop-color="#df2a2a"
         offset="0"
         id="stop1-3" />
      <stop
         stop-color="#f83f3f"
         offset="1"
         id="stop2-6" />
    </linearGradient>
  </defs>
  <rect
     x="4.4999995"
     y="4.4999995"
     width="55"
     height="55"
     ry="15"
     fill="#141414"
     filter="url(#filter1057)"
     opacity="0.3"
     stroke-linecap="round"
     stroke-width="2.7444"
     id="rect2" />
  <rect
     x="4.5"
     y="4.5"
     width="55"
     height="55"
     ry="15"
     fill="url(#linearGradient1053)"
     stroke-linecap="round"
     stroke-width="2.7444"
     id="rect3"
     style="fill:url(#linearGradient1053)" />
  <rect
     width="32"
     height="32"
     x="16"
     y="16"
     filter="url(#d)"
     opacity=".15"
     rx="2.667"
     style="paint-order:normal"
     id="rect14" />
  <rect
     width="32"
     height="32"
     x="16"
     y="16"
     fill="url(#e)"
     rx="2.667"
     style="paint-order:normal"
     id="rect15" />
  <g
     stroke-width="1.5"
     transform="rotate(-90)"
     id="g17">
    <circle
       cx="-42"
       cy="41"
       r="3"
       filter="url(#f)"
       opacity=".15"
       style="paint-order:normal"
       id="circle15" />
    <circle
       cx="-42"
       cy="32"
       r="3"
       filter="url(#g)"
       opacity=".15"
       style="paint-order:normal"
       id="circle16" />
    <circle
       cx="-42"
       cy="22.407"
       r="3"
       filter="url(#h)"
       opacity=".15"
       style="paint-order:normal"
       id="circle17" />
  </g>
  <rect
     width="26"
     height="18"
     x="19"
     y="19"
     fill="#202020"
     ry="1"
     style="paint-order:normal"
     id="rect17" />
  <path
     fill="url(#i)"
     d="M21 20h5v16h-5z"
     style="paint-order:normal"
     id="path17" />
  <path
     fill="url(#j)"
     d="M29 30h6v6h-6z"
     style="paint-order:normal"
     id="path18" />
  <path
     fill="url(#k)"
     d="M38 26h5v10h-5z"
     style="paint-order:normal"
     id="path19" />
  <g
     stroke-width="1.5"
     id="g22">
    <circle
       cx="-42"
       cy="32"
       r="3"
       fill="url(#l)"
       style="paint-order:normal"
       transform="rotate(-90)"
       id="circle19" />
    <path
       d="M35 42a3 3 0 0 0-.407-1.5H32a1.5 1.5 0 0 0-1.5 1.5 1.5 1.5 0 0 0 1.5 1.5h2.596A3 3 0 0 0 35 42"
       opacity=".25"
       style="paint-order:normal"
       id="path20" />
    <circle
       cx="-42"
       cy="22.407"
       r="3"
       fill="url(#m)"
       style="paint-order:normal"
       transform="rotate(-90)"
       id="circle20" />
    <path
       d="M22.407 39a3 3 0 0 0-1.5.407V42a1.5 1.5 0 0 0 1.5 1.5 1.5 1.5 0 0 0 1.5-1.5v-2.596a3 3 0 0 0-1.5-.404"
       opacity=".25"
       style="paint-order:normal"
       id="path21" />
    <circle
       cx="-42"
       cy="41"
       r="3"
       fill="url(#n)"
       style="paint-order:normal"
       transform="rotate(-90)"
       id="circle21" />
    <path
       d="M41 45a3 3 0 0 0 1.5-.407V42a1.5 1.5 0 0 0-1.5-1.5 1.5 1.5 0 0 0-1.5 1.5v2.596A3 3 0 0 0 41 45"
       opacity=".25"
       style="paint-order:normal"
       id="path22" />
  </g>
</svg>
