<?xml version="1.0" encoding="UTF-8" standalone="no"?>
<svg
   width="64"
   height="64"
   version="1.1"
   viewBox="0 0 16.933 16.933"
   id="svg62"
   sodipodi:docname="charles-proxy.svg"
   inkscape:version="1.2.2 (b0a8486541, 2022-12-01)"
   xmlns:inkscape="http://www.inkscape.org/namespaces/inkscape"
   xmlns:sodipodi="http://sodipodi.sourceforge.net/DTD/sodipodi-0.dtd"
   xmlns:xlink="http://www.w3.org/1999/xlink"
   xmlns="http://www.w3.org/2000/svg"
   xmlns:svg="http://www.w3.org/2000/svg"
   xmlns:rdf="http://www.w3.org/1999/02/22-rdf-syntax-ns#"
   xmlns:cc="http://creativecommons.org/ns#"
   xmlns:dc="http://purl.org/dc/elements/1.1/">
  <sodipodi:namedview
     pagecolor="#ffffff"
     bordercolor="#666666"
     borderopacity="1"
     objecttolerance="10"
     gridtolerance="10"
     guidetolerance="10"
     inkscape:pageopacity="0"
     inkscape:pageshadow="2"
     inkscape:window-width="1920"
     inkscape:window-height="1002"
     id="namedview64"
     showgrid="false"
     inkscape:zoom="12.109375"
     inkscape:cx="34.51871"
     inkscape:cy="40.629677"
     inkscape:window-x="0"
     inkscape:window-y="0"
     inkscape:window-maximized="1"
     inkscape:current-layer="svg62"
     inkscape:showpageshadow="0"
     inkscape:pagecheckerboard="0"
     inkscape:deskcolor="#d1d1d1" />
  <defs
     id="defs15">
    <linearGradient
       inkscape:collect="always"
       id="linearGradient24179">
      <stop
         style="stop-color:#f7ee09;stop-opacity:1"
         offset="0"
         id="stop24175" />
      <stop
         style="stop-color:#ffbb24;stop-opacity:1"
         offset="1"
         id="stop24177" />
    </linearGradient>
    <linearGradient
       inkscape:collect="always"
       id="linearGradient15696">
      <stop
         style="stop-color:#feac5e;stop-opacity:1"
         offset="0"
         id="stop15692" />
      <stop
         style="stop-color:#bf7dd0;stop-opacity:1"
         offset="1"
         id="stop15694" />
    </linearGradient>
    <filter
       id="filter2761"
       x="-.024"
       y="-.024"
       width="1.048"
       height="1.048"
       color-interpolation-filters="sRGB">
      <feGaussianBlur
         stdDeviation="0.14552168"
         id="feGaussianBlur2" />
    </filter>
    <linearGradient
       id="linearGradient1024"
       x1="1.3315"
       x2="15.65"
       y1="15.576"
       y2="1.17"
       gradientUnits="userSpaceOnUse"
       gradientTransform="translate(1.1902151,-4.762997)">
      <stop
         stop-color="#00c8ff"
         offset="0"
         id="stop5" />
      <stop
         stop-color="#14a0ff"
         offset="1"
         id="stop7" />
    </linearGradient>
    <linearGradient
       id="linearGradient968"
       x1=".22195"
       x2="25.798"
       y1="31.117"
       y2="-.031267"
       gradientUnits="userSpaceOnUse">
      <stop
         stop-color="#fafaff"
         offset="0"
         id="stop10" />
      <stop
         stop-color="#7dd7ff"
         offset="1"
         id="stop12" />
    </linearGradient>
    <style
       type="text/css"
       id="style841" />
    <filter
       id="filter1057"
       x="-0.026999999"
       y="-0.026999999"
       width="1.054"
       height="1.054"
       color-interpolation-filters="sRGB">
      <feGaussianBlur
         stdDeviation="0.61875"
         id="feGaussianBlur843" />
    </filter>
    <linearGradient
       id="linearGradient1053"
       x1="-127"
       x2="-72"
       y1="60"
       y2="5"
       gradientTransform="matrix(0.26457812,0,0,0.26457812,34.792022,-0.1349349)"
       gradientUnits="userSpaceOnUse">
      <stop
         stop-color="#32d7ff"
         offset="0"
         id="stop846" />
      <stop
         stop-color="#329bff"
         offset="1"
         id="stop848" />
    </linearGradient>
    <style
       type="text/css"
       id="style851" />
    <style
       type="text/css"
       id="style853" />
    <style
       type="text/css"
       id="style855" />
    <style
       type="text/css"
       id="style857" />
    <style
       type="text/css"
       id="style859" />
    <style
       type="text/css"
       id="style861" />
    <style
       type="text/css"
       id="style863" />
    <filter
       id="filter1057-7"
       x="-0.026999999"
       y="-0.026999999"
       width="1.054"
       height="1.054"
       color-interpolation-filters="sRGB">
      <feGaussianBlur
         stdDeviation="0.61875"
         id="feGaussianBlur843-0" />
    </filter>
    <linearGradient
       id="linearGradient1053-9"
       x1="-127"
       x2="-72"
       y1="60"
       y2="5"
       gradientTransform="matrix(0.26457811,0,0,0.26457811,34.792023,-0.1349345)"
       gradientUnits="userSpaceOnUse">
      <stop
         stop-color="#32d7ff"
         offset="0"
         id="stop846-3" />
      <stop
         stop-color="#329bff"
         offset="1"
         id="stop848-6" />
    </linearGradient>
    <linearGradient
       inkscape:collect="always"
       xlink:href="#linearGradient3441"
       id="linearGradient3443"
       x1="88.237793"
       y1="17.145996"
       x2="116.12842"
       y2="59.604492"
       gradientUnits="userSpaceOnUse"
       gradientTransform="matrix(0.2077151,0,0,0.2077151,-13.413281,0.4953826)" />
    <linearGradient
       inkscape:collect="always"
       id="linearGradient3441">
      <stop
         style="stop-color:#99dfff;stop-opacity:1"
         offset="0"
         id="stop3437" />
      <stop
         style="stop-color:#f1f3f4;stop-opacity:1"
         offset="0.55435801"
         id="stop7511" />
      <stop
         style="stop-color:#ffffff;stop-opacity:1"
         offset="1"
         id="stop3439" />
    </linearGradient>
    <linearGradient
       id="linearGradient2898"
       x1="0.15503654"
       y1="0.21244895"
       x2="0.79775023"
       y2="0.85516262"
       gradientTransform="matrix(17.928,0,0,17.928,-42.718209,20.786)"
       gradientUnits="userSpaceOnUse">
      <stop
         offset="1.3043478260869565%"
         stop-opacity="1"
         style="stop-color:rgb(254,172,94)"
         id="stop2892" />
      <stop
         offset="0.58424103"
         stop-opacity="1"
         style="stop-color:rgb(199,121,208)"
         id="stop2894" />
      <stop
         offset="99.56521739130434%"
         stop-opacity="1"
         style="stop-color:rgb(75,192,200)"
         id="stop2896" />
    </linearGradient>
    <linearGradient
       id="_lgradient_6"
       x1="0"
       y1="0.5"
       x2="0.90748805"
       y2="0.92007786"
       gradientTransform="matrix(6.601,3.811,-3.811,6.601,-35.149209,24.913)"
       gradientUnits="userSpaceOnUse">
      <stop
         offset="0%"
         stop-opacity="1"
         style="stop-color:rgb(247,241,7)"
         id="stop1821" />
      <stop
         offset="83.88839793817618%"
         stop-opacity="1"
         style="stop-color:rgb(255,187,36)"
         id="stop1823" />
    </linearGradient>
    <linearGradient
       inkscape:collect="always"
       xlink:href="#linearGradient15696"
       id="linearGradient15698"
       x1="6.4858222"
       y1="8.699934"
       x2="9.8146629"
       y2="10.621916"
       gradientUnits="userSpaceOnUse" />
    <linearGradient
       inkscape:collect="always"
       xlink:href="#linearGradient24179"
       id="linearGradient24181"
       x1="7.3584625"
       y1="9.7375748"
       x2="8.9418151"
       y2="9.7375748"
       gradientUnits="userSpaceOnUse" />
  </defs>
  <metadata
     id="metadata17">
    <rdf:RDF>
      <cc:Work
         rdf:about="">
        <dc:format>image/svg+xml</dc:format>
        <dc:type
           rdf:resource="http://purl.org/dc/dcmitype/StillImage" />
        <dc:title />
      </cc:Work>
    </rdf:RDF>
  </metadata>
  <circle
     cx="-338.24399"
     cy="-338.47479"
     r="0"
     fill="#5e4aa6"
     id="circle867"
     style="stroke-width:0.264578" />
  <circle
     cx="-306.90378"
     cy="-348.87265"
     r="0"
     id="circle869"
     style="fill:#5e4aa6;stroke-width:0.26458" />
  <circle
     cx="-15.989992"
     cy="-14.051351"
     r="0"
     fill-rule="evenodd"
     id="circle871"
     style="fill:#5e4aa6;stroke-width:0.26458" />
  <circle
     cx="-286.13379"
     cy="-367.79266"
     r="0"
     id="circle873"
     style="fill:#5e4aa6;stroke-width:0.26458" />
  <circle
     cx="4.7792087"
     cy="-32.961651"
     r="0"
     fill-rule="evenodd"
     id="circle875"
     style="fill:#5e4aa6;stroke-width:0.26458" />
  <rect
     x="4.5"
     y="4.5"
     width="55"
     height="55"
     ry="15"
     fill="#141414"
     filter="url(#filter1057)"
     opacity="0.3"
     stroke-linecap="round"
     stroke-width="2.7444"
     id="rect879-0"
     transform="scale(0.26457811)"
     style="isolation:isolate;filter:url(#filter1057-7)" />
  <rect
     x="1.1906021"
     y="1.1906022"
     width="14.551796"
     height="14.551796"
     ry="3.9686718"
     fill="url(#linearGradient1053)"
     stroke-linecap="round"
     stroke-width="0.726108"
     id="rect881-6"
     style="isolation:isolate;fill:url(#linearGradient1053-9)" />
  <path
     id="path3373"
     style="isolation:isolate;fill:url(#linearGradient3443);fill-opacity:1;fill-rule:evenodd;stroke:none;stroke-width:0.0155786;stroke-linecap:round;stroke-linejoin:round;paint-order:stroke fill markers"
     d="m 4.915041,4.0568649 v 0.5708108 l 0.1378343,0.203861 c 0.026653,0.039349 0.052513,0.079122 0.077589,0.1192739 0.025076,0.040152 0.049538,0.080487 0.073025,0.1214039 0.023487,0.040916 0.04627,0.082196 0.068157,0.1238379 0.021886,0.041642 0.04271,0.08364 0.062984,0.1259678 0.020273,0.042328 0.03977,0.085122 0.05842,0.1280979 0.018649,0.042976 0.036538,0.086339 0.053552,0.1299233 0.017014,0.043584 0.033317,0.087291 0.048683,0.1314446 0.015367,0.044154 0.029805,0.088586 0.043511,0.1332704 0.013705,0.044685 0.026608,0.089615 0.038642,0.1347917 0.012035,0.045176 0.023119,0.090684 0.03347,0.1363131 0.010351,0.045629 0.019947,0.091487 0.028601,0.13753 0.00866,0.046043 0.01648,0.092329 0.023429,0.1387472 0.00695,0.046418 0.013028,0.092906 0.018256,0.13966 0.00523,0.046754 0.00959,0.093826 0.013084,0.1408771 0.0035,0.047051 0.00616,0.094177 0.00791,0.1414856 0.00174,0.047309 0.00274,0.094566 0.00274,0.1420942 0,0.064314 -0.00236,0.1286936 -0.00669,0.192603 -0.00433,0.06391 -0.010868,0.127483 -0.019473,0.1907773 -0.00861,0.063295 -0.019128,0.1261793 -0.031948,0.1886475 -0.01282,0.062469 -0.027754,0.1244775 -0.044728,0.1859092 -0.016974,0.061432 -0.036133,0.1223785 -0.057203,0.182562 -0.02107,0.060184 -0.043963,0.1195775 -0.069069,0.1783025 -0.025106,0.058725 -0.052462,0.1166833 -0.081544,0.1737381 -0.029083,0.057055 -0.060106,0.1133914 -0.093107,0.1685658 -0.034585,0.05781 -0.067129,0.1164467 -0.097975,0.1758682 C 5.1723383,8.6526499 5.143259,8.712809 5.1161632,8.773661 5.0890674,8.834513 5.0637332,8.8959475 5.0404,8.9580487 5.0170663,9.0201501 4.995758,9.0829181 4.976199,9.1460878 4.95664,9.2092568 4.939029,9.2728083 4.923256,9.3368651 4.907482,9.4009221 4.893546,9.4653141 4.881571,9.5300765 4.869596,9.5948395 4.859613,9.6601305 4.851448,9.7254181 c -0.00817,0.065288 -0.014521,0.130623 -0.018865,0.1962542 -0.00434,0.065631 -0.00679,0.1313727 -0.0073,0.1971667 -4.985e-4,0.06579 9.14e-4,0.131696 0.00426,0.197472 0.00334,0.06577 0.00863,0.131591 0.015822,0.197167 0.0072,0.06558 0.016318,0.130755 0.027384,0.19595 0.011065,0.06519 0.023999,0.130404 0.038946,0.195037 0.014947,0.06463 0.031972,0.128713 0.050813,0.192603 0.018842,0.06389 0.039628,0.127508 0.062375,0.190473 0.022747,0.06297 0.047272,0.125266 0.073938,0.187126 l 0.6045847,1.401469 h 5.0049413 l 0.604584,-1.401469 c 0.01882,-0.04367 0.03669,-0.08751 0.05355,-0.131749 0.01687,-0.04424 0.03256,-0.08884 0.04747,-0.133574 0.01491,-0.04474 0.02903,-0.08962 0.04199,-0.134792 0.01296,-0.04517 0.02489,-0.09047 0.0359,-0.136009 0.01101,-0.04554 0.02104,-0.09138 0.03012,-0.137226 0.0091,-0.04585 0.01718,-0.09175 0.02434,-0.137834 0.0071,-0.04609 0.01332,-0.09218 0.01855,-0.138443 0.0052,-0.04626 0.0095,-0.09268 0.01277,-0.139051 L 13.0582,8.8177801 c 0.0404,-0.042789 0.07872,-0.087345 0.114405,-0.1332702 0.03568,-0.045925 0.06896,-0.093356 0.0998,-0.1420941 0.03084,-0.048739 0.05902,-0.098777 0.08489,-0.1500052 0.02587,-0.051229 0.0492,-0.1036077 0.06998,-0.1570036 0.02078,-0.053395 0.03921,-0.1078488 0.05477,-0.1630887 0.01556,-0.05524 0.02843,-0.1111957 0.03864,-0.1679572 0.01022,-0.056761 0.01778,-0.1142572 0.02252,-0.1722168 0.0047,-0.05796 0.0066,-0.1164247 0.0058,-0.1752596 -8.3e-4,-0.058861 -0.0045,-0.1171362 -0.01095,-0.1749553 -0.0064,-0.05782 -0.01554,-0.1151492 -0.02738,-0.1716084 -0.01184,-0.05646 -0.02637,-0.112263 -0.04351,-0.1670443 -0.01714,-0.054782 -0.03703,-0.1084778 -0.05933,-0.1612634 -0.0223,-0.052785 -0.04721,-0.1047063 -0.07455,-0.1551777 -0.02733,-0.050471 -0.05692,-0.099732 -0.08915,-0.147571 -0.03223,-0.047839 -0.06707,-0.094162 -0.104059,-0.1390515 -0.03699,-0.044889 -0.07613,-0.088302 -0.117756,-0.1299233 -0.04307,-0.043075 -0.08802,-0.083616 -0.134485,-0.1217082 -0.04646,-0.038092 -0.09441,-0.073523 -0.14392,-0.1064945 -0.04952,-0.032971 -0.100505,-0.063568 -0.152743,-0.091281 -0.05224,-0.027713 -0.10602,-0.052534 -0.160655,-0.074851 -0.05464,-0.022316 -0.110345,-0.041942 -0.167045,-0.058724 -0.0567,-0.016781 -0.114391,-0.03088 -0.172825,-0.041989 -0.05843,-0.011109 -0.11755,-0.019347 -0.177389,-0.024646 -0.05984,-0.0053 -0.120128,-0.00765 -0.18104,-0.007 -0.04671,4.778e-4 -0.09333,0.00274 -0.139356,0.00669 -0.04603,0.00395 -0.09172,0.00966 -0.136922,0.017039 -0.0452,0.00738 -0.08996,0.016347 -0.134184,0.02708 -0.04422,0.010733 -0.08773,0.023094 -0.130835,0.037121 -0.0431,0.014027 -0.08566,0.029905 -0.12749,0.047162 -0.04183,0.017257 -0.08311,0.035867 -0.123534,0.05629 -0.04042,0.020423 -0.08011,0.042503 -0.118969,0.066027 -0.03886,0.023524 -0.07664,0.048593 -0.113796,0.075155 V 4.7563829 h -0.694953 c -0.088306,0 -0.1764104,-0.00164 -0.264411,-0.00517 C 9.6597455,4.7476796 9.5718717,4.7424389 9.4842491,4.7353891 9.3966287,4.7283372 9.3091349,4.719476 9.2219694,4.7089175 9.1348017,4.6983593 9.0478439,4.686154 8.96121,4.6721008 8.8745721,4.6580468 8.7883059,4.6421705 8.7022745,4.6246348 8.6162451,4.6070995 8.5305169,4.5878302 8.4451668,4.5668233 8.3598167,4.5458167 8.2747823,4.5231321 8.1901882,4.4986668 8.1055962,4.4742015 8.0214052,4.4477726 7.937644,4.4198609 7.847288,4.3897422 7.7565788,4.3616731 7.6653233,4.3352737 7.5740658,4.3088746 7.4823367,4.2843073 7.3902628,4.2616404 7.298186,4.2389735 7.2058818,4.2181866 7.113071,4.199265 7.0202603,4.1803442 6.9269117,4.1633108 6.8334468,4.1481476 6.7399816,4.1329844 6.6463387,4.11968 6.5523011,4.1082883 6.4582637,4.0968972 6.3638578,4.0872943 6.2693299,4.0796867 6.1748017,4.0720781 6.0800782,4.0664574 5.9851414,4.0626479 5.890205,4.0588384 5.7949994,4.0568672 5.6997361,4.0568672 Z m 6.822346,2.2436882 c 0.04339,-4.985e-4 0.08638,0.0011 0.12901,0.00487 0.04263,0.00376 0.08494,0.00943 0.126577,0.017344 0.04164,0.00791 0.08251,0.017853 0.122926,0.029818 0.04041,0.011964 0.08033,0.026073 0.119272,0.041989 0.03895,0.015915 0.07686,0.033784 0.114102,0.053551 0.03724,0.019766 0.07362,0.041292 0.108928,0.06481 0.0353,0.023517 0.06972,0.048901 0.102844,0.076068 0.03313,0.027167 0.06513,0.056305 0.09585,0.087021 0.02965,0.029651 0.05762,0.060514 0.08398,0.092498 0.02636,0.031984 0.05097,0.065103 0.07394,0.099192 0.02297,0.034089 0.04441,0.069006 0.0639,0.1049732 0.01948,0.035967 0.03704,0.072834 0.05294,0.11045 0.01591,0.037616 0.03007,0.075977 0.04229,0.1150141 0.01223,0.039037 0.02258,0.078739 0.03104,0.1189697 0.0085,0.04023 0.01489,0.081121 0.01946,0.1223166 0.0046,0.041195 0.0073,0.082818 0.0079,0.1247507 6.23e-4,0.041959 -8.31e-4,0.083725 -0.0043,0.1250551 -0.0034,0.04133 -0.0085,0.082149 -0.01583,0.1226209 -0.0073,0.040472 -0.0166,0.080499 -0.02769,0.1198824 -0.01109,0.039383 -0.02413,0.078168 -0.03895,0.1162313 -0.01481,0.038063 -0.03146,0.075457 -0.0499,0.1119713 -0.01844,0.036514 -0.03857,0.072065 -0.06055,0.1067988 -0.02198,0.034734 -0.04577,0.068599 -0.0712,0.101322 -0.02543,0.032723 -0.05275,0.06445 -0.08154,0.094932 L 11.551467,9.660914 c -0.0079,-0.054291 -0.01691,-0.1085791 -0.02739,-0.1624802 -0.01049,-0.053901 -0.02217,-0.1075536 -0.03529,-0.160959 -0.01313,-0.053405 -0.02775,-0.1066333 -0.04351,-0.1594375 -0.01577,-0.052804 -0.03273,-0.1052102 -0.05112,-0.1573077 -0.01838,-0.052097 -0.03802,-0.1038926 -0.05903,-0.1551777 -0.02101,-0.051285 -0.04362,-0.1020718 -0.06724,-0.1524394 -0.02363,-0.050368 -0.04831,-0.1000524 -0.07455,-0.1493966 -0.02624,-0.049345 -0.05391,-0.098138 -0.08276,-0.146354 -0.033,-0.055174 -0.06402,-0.1115106 -0.09311,-0.1685658 -0.02908,-0.057055 -0.05614,-0.1150135 -0.08124,-0.1737381 -0.02511,-0.058725 -0.0483,-0.1181186 -0.06938,-0.1783024 -0.02107,-0.060184 -0.04023,-0.1211303 -0.0572,-0.1825621 -0.01697,-0.061432 -0.0316,-0.1234405 -0.04442,-0.1859091 -0.01282,-0.062468 -0.02365,-0.1253528 -0.03225,-0.1886475 -0.0086,-0.063294 -0.01514,-0.1268676 -0.01946,-0.1907774 -0.0043,-0.063909 -0.0064,-0.1282892 -0.0064,-0.192603 V 6.8172052 l 0.118057,-0.1232295 c 0.03009,-0.031287 0.06145,-0.060754 0.09402,-0.088543 0.03257,-0.027789 0.0665,-0.053706 0.101323,-0.077893 0.03482,-0.024187 0.07057,-0.046761 0.107408,-0.067244 0.03684,-0.020483 0.07456,-0.039006 0.113188,-0.055682 0.03862,-0.016675 0.07819,-0.031354 0.11836,-0.044119 0.04017,-0.012764 0.08113,-0.023501 0.122623,-0.032253 0.04149,-0.00875 0.08338,-0.015448 0.125966,-0.020082 0.04258,-0.00463 0.08588,-0.00719 0.129315,-0.00761 z M 6.2215771,6.9562553 c 0,0.075972 -0.00249,0.151782 -0.00761,0.2272897 -0.00512,0.075508 -0.012957,0.1509767 -0.023125,0.2257687 -0.010168,0.074791 -0.022582,0.1489022 -0.037729,0.2227256 -0.015149,0.073824 -0.032885,0.1470804 -0.052943,0.219683 -0.020057,0.072603 -0.04265,0.1445978 -0.067548,0.2157277 -0.024897,0.07113 -0.052181,0.1414551 -0.081849,0.2108591 -0.029667,0.069405 -0.061781,0.1379559 -0.096149,0.2053825 -0.034368,0.067426 -0.070843,0.1337961 -0.1098414,0.1989927 0.038998,-0.065197 0.075474,-0.1315663 0.1098414,-0.1989927 0.034368,-0.067427 0.066482,-0.135978 0.096149,-0.2053825 0.029668,-0.069404 0.056951,-0.1397295 0.081849,-0.2108591 0.024897,-0.07113 0.047491,-0.1431248 0.067548,-0.2157277 0.020057,-0.072603 0.037795,-0.1458594 0.052943,-0.219683 0.015149,-0.073823 0.027561,-0.1479341 0.037729,-0.2227256 0.010168,-0.074792 0.018005,-0.1502605 0.023125,-0.2257687 0.00512,-0.075508 0.00761,-0.1513179 0.00761,-0.2272897 z m 3.9685959,0 c 0,0.075972 0.0025,0.151782 0.0076,0.2272897 0.0051,0.075508 0.01296,0.1509767 0.02313,0.2257687 0.01018,0.074791 0.02288,0.1489022 0.03803,0.2227256 0.01516,0.073824 0.03258,0.1470804 0.05264,0.219683 0.02007,0.072603 0.04264,0.1445978 0.06755,0.2157277 0.02491,0.07113 0.05217,0.1414551 0.08185,0.2108591 0.02968,0.069405 0.06176,0.1379559 0.09615,0.2053825 0.03439,0.067426 0.07112,0.1337961 0.110145,0.1989927 -0.03902,-0.065197 -0.07576,-0.1315663 -0.110145,-0.1989927 -0.03439,-0.067427 -0.06647,-0.135978 -0.09615,-0.2053825 -0.02968,-0.069404 -0.05694,-0.1397295 -0.08185,-0.2108591 -0.02491,-0.07113 -0.04748,-0.1431248 -0.06755,-0.2157277 -0.02007,-0.072603 -0.03749,-0.1458594 -0.05264,-0.219683 -0.01514,-0.073823 -0.02786,-0.1479341 -0.03803,-0.2227256 -0.01018,-0.074792 -0.01801,-0.1502605 -0.02313,-0.2257687 -0.0051,-0.075508 -0.0076,-0.1513179 -0.0076,-0.2272897 z" />
  <path
     d="M 7.4080765,8.6937026 C 7.3619637,8.6585987 7.3166824,8.6249489 7.2807477,8.6041773 6.974368,8.4272041 6.5657924,8.5611803 6.485822,8.699934 c -0.080178,0.1387537 0.0081,0.5595845 0.3144807,0.73635 0.035935,0.020771 0.087864,0.043205 0.1412463,0.065638 -0.057745,0.00769 -0.1134125,0.015786 -0.1532938,0.026587 -0.341899,0.091395 -0.5359049,0.475044 -0.4945696,0.629793 0.041543,0.154747 0.4015133,0.389881 0.7432046,0.298279 v 0 c 0.040089,-0.01059 0.092433,-0.03157 0.1462314,-0.05359 -0.035311,0.04632 -0.068961,0.09139 -0.089733,0.127329 -0.1769732,0.30638 -0.042789,0.714956 0.095757,0.795134 0.1387537,0.07997 0.5595838,-0.0083 0.7365571,-0.314689 0.020564,-0.03593 0.042789,-0.08745 0.065222,-0.141246 0.00789,0.05754 0.015994,0.113205 0.026795,0.153294 v 0 c 0.091602,0.341899 0.4752521,0.535905 0.6297922,0.49457 0.1547477,-0.04154 0.3898812,-0.401514 0.2984866,-0.743205 -0.011424,-0.04217 -0.034065,-0.09825 -0.056914,-0.154332 0.052552,0.0457 0.095757,0.07789 0.1304451,0.09783 0.3063798,0.176974 0.7149554,0.043 0.7951334,-0.09576 0.07997,-0.138754 -0.0081,-0.559585 -0.3146884,-0.7365584 -0.035935,-0.020564 -0.087656,-0.042997 -0.1414539,-0.06543 0.057745,-0.00769 0.1136201,-0.015786 0.1537091,-0.026587 v 0 C 9.8539218,9.7017439 10.048135,9.3180941 10.006592,9.1635541 9.9652571,9.0088064 9.6052868,8.7736729 9.2633877,8.8650675 c -0.038635,0.010386 -0.088694,0.030326 -0.1510088,0.060653 0.036558,-0.048398 0.0727,-0.09638 0.09451,-0.1341839 C 9.3838625,8.4851566 9.2498863,8.076581 9.1111326,7.996403 8.9723789,7.9164326 8.5515481,8.0045039 8.3747825,8.3110913 8.354011,8.3470261 8.3315778,8.3987471 8.3091446,8.4523376 8.3014591,8.3945928 8.2933582,8.3389252 8.2827648,8.2988361 8.1911624,7.9571448 7.8075126,7.7629312 7.6527649,7.8044742 7.4980171,7.8458095 7.2628842,8.2057798 7.3544866,8.5476788 v 0 c 0.010593,0.039881 0.031572,0.092225 0.05359,0.1460238 z"
     id="path2886"
     style="fill:url(#linearGradient15698);fill-opacity:1" />
  <path
     d="M 7.464575,9.3417737 C 7.6830913,8.9633168 8.1676906,8.8334948 8.5459398,9.0520111 8.9243967,9.2705274 9.0542186,9.754919 8.8357024,10.133376 8.6173938,10.511833 8.1327945,10.641655 7.7543375,10.423138 7.3758806,10.204622 7.2460593,9.7202306 7.464575,9.3417737 Z"
     id="path2888"
     style="fill:url(#linearGradient24181);fill-opacity:1" />
</svg>
