<?xml version="1.0" encoding="UTF-8" standalone="no"?>
<svg
   width="64"
   height="64"
   version="1.1"
   id="svg19"
   sodipodi:docname="civilization-v.svg"
   xml:space="preserve"
   inkscape:version="1.4.2 (ebf0e940d0, 2025-05-08)"
   xmlns:inkscape="http://www.inkscape.org/namespaces/inkscape"
   xmlns:sodipodi="http://sodipodi.sourceforge.net/DTD/sodipodi-0.dtd"
   xmlns="http://www.w3.org/2000/svg"
   xmlns:svg="http://www.w3.org/2000/svg"><sodipodi:namedview
     id="namedview19"
     pagecolor="#505050"
     bordercolor="#eeeeee"
     borderopacity="1"
     inkscape:showpageshadow="0"
     inkscape:pageopacity="0"
     inkscape:pagecheckerboard="0"
     inkscape:deskcolor="#505050"
     inkscape:zoom="8.4189901"
     inkscape:cx="8.8490423"
     inkscape:cy="32.901808"
     inkscape:window-width="1920"
     inkscape:window-height="1003"
     inkscape:window-x="0"
     inkscape:window-y="0"
     inkscape:window-maximized="1"
     inkscape:current-layer="svg19" /><defs
     id="defs11"><linearGradient
       id="a"
       x1="7.937"
       x2="7.937"
       y1="15.081"
       y2="1.852"
       gradientTransform="matrix(3.7796,0,0,3.7796,4.2760473,-20.90512)"
       gradientUnits="userSpaceOnUse"><stop
         offset="0"
         stop-color="#1a1a1a"
         id="stop1" /><stop
         offset="1"
         stop-color="#333"
         id="stop2" /></linearGradient><linearGradient
       id="c"
       x1="29.807"
       x2="29.807"
       y1="9.073"
       y2="54.985"
       gradientUnits="userSpaceOnUse"><stop
         offset="0"
         stop-color="#ebc237"
         id="stop3" /><stop
         offset=".386"
         stop-color="#f6e279"
         id="stop4" /><stop
         offset="1"
         stop-color="#f1d24a"
         id="stop5" /></linearGradient><linearGradient
       id="d"
       x1="29.509"
       x2="29.509"
       y1="14.963"
       y2="43.977"
       gradientUnits="userSpaceOnUse"><stop
         offset="0"
         stop-color="#ebc237"
         id="stop6" /><stop
         offset=".424"
         stop-color="#f6e279"
         id="stop7" /><stop
         offset="1"
         stop-color="#f1d24a"
         id="stop8" /></linearGradient><linearGradient
       id="e"
       x1="28.764"
       x2="28.764"
       y1="13.302"
       y2="47.296"
       gradientUnits="userSpaceOnUse"><stop
         offset="0"
         stop-color="#ecc334"
         id="stop9" /><stop
         offset=".51"
         stop-color="#fbf3c6"
         id="stop10" /><stop
         offset="1"
         stop-color="#f8e684"
         id="stop11" /></linearGradient><filter
       id="filter1057-4"
       x="-0.026999999"
       y="-0.026999999"
       width="1.054"
       height="1.054"
       color-interpolation-filters="sRGB"><feGaussianBlur
         stdDeviation="0.61875"
         id="feGaussianBlur1" /></filter><linearGradient
       id="linearGradient1053-0"
       x1="-127"
       x2="-67.502449"
       y1="60"
       y2="0.51054436"
       gradientTransform="matrix(1.0000071,0,0,1.0000071,131.50293,-0.51054801)"
       gradientUnits="userSpaceOnUse"><stop
         stop-color="#02db96"
         offset="0"
         id="stop1-3"
         style="stop-color:#395d56;stop-opacity:1" /><stop
         stop-color="#13d39b"
         offset="1"
         id="stop2-6" /></linearGradient></defs><rect
     transform="matrix(1.0000071,0,0,1.0000071,-2.2781468e-4,-2.2781468e-4)"
     x="4.5"
     y="4.5"
     width="55"
     height="55"
     ry="15"
     fill="#141414"
     filter="url(#filter1057-4)"
     opacity="0.3"
     stroke-linecap="round"
     stroke-width="2.7444"
     id="rect2" /><rect
     x="4.4996166"
     y="4.4996166"
     width="55.000767"
     height="55.000767"
     ry="15.000106"
     fill="url(#linearGradient1053-0)"
     stroke-linecap="round"
     stroke-width="2.74441"
     id="rect3"
     style="fill:url(#linearGradient1053-0)" /><g
     id="g19"
     transform="matrix(0.97826087,0,0,0.97826087,0.69614129,2.6900131)"><path
       fill="url(#c)"
       d="M 11.572,9 32.144,55 52.427,9.059 H 44.366 L 31.779,37.01 19.16,9.002 Z"
       style="fill:url(#c);paint-order:stroke fill markers"
       id="path11" /><path
       fill="url(#d)"
       d="M 13.5,10.25 32.137,51.922 50.51,10.309 H 45.174 L 32.92,37.524 a 1.25,1.25 0 0 1 -2.28,0 L 18.355,10.253 13.501,10.251 Z"
       color="#000000"
       style="fill:url(#d);-inkscape-stroke:none;paint-order:fill markers stroke"
       id="path12" /><path
       fill="url(#e)"
       d="M 15.432,11.502 32.129,48.844 48.592,11.559 h -2.61 L 32.937,40.34 c -0.886,1.964 -1.573,1.845 -2.458,-0.118 L 17.546,11.502 Z"
       color="#000000"
       style="fill:url(#e);-inkscape-stroke:none;paint-order:fill markers stroke"
       id="path13" /><path
       d="M 18.705,9.002 31.558,37.526 31.787,37.018 19.162,9.002 Z M 51.971,9.059 31.914,54.487 32.144,55 52.427,9.06 Z"
       opacity="0.35"
       style="paint-order:stroke fill markers"
       id="path14" /><path
       fill="#ffffff"
       d="M 11.572,9 31.914,54.486 31.963,54.375 11.9,9.515 18.937,9.518 18.705,9.002 Z M 44.367,9.059 31.828,36.9 32.037,37.362 44.502,9.677 51.695,9.683 51.971,9.058 Z"
       opacity="0.5"
       style="paint-order:stroke fill markers"
       id="path15" /><path
       d="m 17.729,10.252 12.287,27.271 a 1.25,1.25 0 0 0 1.453,0.645 1.25,1.25 0 0 1 -0.828,-0.645 L 18.354,10.252 Z m 32.156,0.057 -18.062,40.91 0.314,0.703 18.373,-41.613 z"
       color="#000000"
       opacity="0.35"
       style="-inkscape-stroke:none;paint-order:fill markers stroke"
       id="path16" /><path
       fill="#ffffff"
       d="m 13.5,10.25 0.332,0.74 4.23,0.002 -0.333,-0.74 z M 45.174,10.309 32.92,37.524 c -0.296,0.656 -1.016,0.87 -1.594,0.65 a 1.3,1.3 0 0 1 -0.478,-0.006 l 0.043,0.096 c 0.442,0.982 1.836,0.982 2.279,0 L 45.424,11.049 h 4.129 l 0.326,-0.74 z"
       color="#000000"
       opacity="0.5"
       style="-inkscape-stroke:none;paint-order:fill markers stroke"
       id="path17" /><path
       d="m 16.998,11.502 12.934,28.719 c 0.559,1.24 1.038,1.742 1.54,1.451 -0.317,-0.179 -0.638,-0.664 -0.993,-1.451 L 17.545,11.502 Z m 31.047,0.057 -16.191,36.67 0.275,0.615 16.463,-37.285 z"
       color="#000000"
       opacity="0.35"
       style="-inkscape-stroke:none;paint-order:fill markers stroke"
       id="path18" /><path
       fill="#ffffff"
       d="m 15.432,11.502 0.227,0.506 h 1.568 l -0.229,-0.506 z m 30.551,0.057 -13.047,28.78 c -0.533,1.184 -0.995,1.606 -1.47,1.329 l 0.005,0.004 a 0.6,0.6 0 0 1 -0.205,0.072 c 0.635,0.88 1.204,0.629 1.893,-0.899 l 13.047,-28.78 h 1.617 l 0.223,-0.506 z M 30.852,40.945"
       color="#000000"
       opacity="0.5"
       style="-inkscape-stroke:none;paint-order:fill markers stroke"
       id="path19" /></g></svg>
