<?xml version="1.0" encoding="UTF-8" standalone="no"?>
<svg
   xml:space="preserve"
   width="64"
   height="64"
   version="1.1"
   id="svg4"
   sodipodi:docname="civilization-vi.svg"
   inkscape:version="1.4.2 (ebf0e940d0, 2025-05-08)"
   xmlns:inkscape="http://www.inkscape.org/namespaces/inkscape"
   xmlns:sodipodi="http://sodipodi.sourceforge.net/DTD/sodipodi-0.dtd"
   xmlns:xlink="http://www.w3.org/1999/xlink"
   xmlns="http://www.w3.org/2000/svg"
   xmlns:svg="http://www.w3.org/2000/svg"><sodipodi:namedview
     id="namedview4"
     pagecolor="#505050"
     bordercolor="#eeeeee"
     borderopacity="1"
     inkscape:showpageshadow="0"
     inkscape:pageopacity="0"
     inkscape:pagecheckerboard="0"
     inkscape:deskcolor="#505050"
     inkscape:zoom="4.2094951"
     inkscape:cx="75.187165"
     inkscape:cy="6.6516291"
     inkscape:window-width="1920"
     inkscape:window-height="1003"
     inkscape:window-x="0"
     inkscape:window-y="0"
     inkscape:window-maximized="1"
     inkscape:current-layer="svg4" /><defs
     id="defs4"><linearGradient
       id="b"><stop
         offset="0"
         style="stop-color:#7d3808;stop-opacity:1"
         id="stop1" /><stop
         offset="1"
         style="stop-color:#a4440d;stop-opacity:1"
         id="stop2" /></linearGradient><linearGradient
       id="a"
       x1="7.937"
       x2="7.937"
       y1="15.081"
       y2="1.852"
       gradientTransform="scale(3.7796)"
       gradientUnits="userSpaceOnUse"><stop
         offset="0"
         stop-color="#363636"
         style="stop-color:#1a1a1a;stop-opacity:1"
         id="stop3" /><stop
         offset="1"
         stop-color="#6c6c6c"
         style="stop-color:#333;stop-opacity:1"
         id="stop4" /></linearGradient><linearGradient
       xlink:href="#a"
       id="c"
       x1="7.937"
       x2="7.937"
       y1="15.081"
       y2="1.852"
       gradientTransform="matrix(3.7796,0,0,3.7796,-5.4109989,-13.808)"
       gradientUnits="userSpaceOnUse" /><linearGradient
       xlink:href="#b"
       id="d"
       x1="24.408"
       x2="24.408"
       y1="47.712"
       y2="18.001"
       gradientUnits="userSpaceOnUse" /><filter
       id="filter2076"
       x="-0.048000001"
       y="-0.048000001"
       width="1.096"
       height="1.096"
       color-interpolation-filters="sRGB"><feGaussianBlur
         stdDeviation="1.1"
         id="feGaussianBlur1" /></filter><linearGradient
       id="linearGradient2070"
       x1="145"
       x2="200"
       y1="59"
       y2="4"
       gradientTransform="translate(-140.5,0.50000024)"
       gradientUnits="userSpaceOnUse"><stop
         stop-color="#ffc841"
         offset="0"
         id="stop1-3" /><stop
         stop-color="#ffbe37"
         offset=".4925"
         id="stop2-6" /><stop
         stop-color="#ffc841"
         offset="1"
         id="stop3-7" /></linearGradient></defs><rect
     x="4.5000014"
     y="4.5000014"
     width="55"
     height="55"
     rx="13.002"
     ry="13.002"
     filter="url(#filter2076)"
     opacity="0.3"
     id="rect3" /><rect
     x="4.5"
     y="4.5"
     width="55"
     height="55"
     rx="13.002"
     ry="13.002"
     fill="url(#linearGradient2070)"
     id="rect4-5"
     style="fill:url(#linearGradient2070)" /><path
     d="M23.66 47.65a6 6 0 0 1-.162-.364c0-.01-.051-.131-.114-.27l-.229-.506a3 3 0 0 1-.114-.27c0-.01-.072-.174-.16-.365l-.32-.694a5 5 0 0 1-.16-.366c0-.011-.083-.197-.183-.412-.1-.216-.183-.4-.183-.41s-.05-.125-.11-.258l-.21-.47-.216-.48c-.063-.138-.274-.612-.47-1.052a221 221 0 0 0-.686-1.532l-.21-.47a3 3 0 0 1-.11-.258c0-.01-.084-.199-.186-.422l-.247-.541a79 79 0 0 0-.378-.846 57 57 0 0 1-.274-.618l-.274-.617c-.063-.138-.398-.89-.744-1.669-.347-.78-.686-1.54-.755-1.692a89 89 0 0 1-.518-1.166c-.15-.34-.323-.73-.386-.868-.137-.303-.22-.488-.55-1.235a124 124 0 0 0-.58-1.303 141 141 0 0 1-.516-1.166c-.263-.6-.399-.902-.655-1.456a6 6 0 0 1-.156-.353c0-.017-.421-.976-.652-1.483-.18-.394-.274-.608-.64-1.44-1.184-2.695-1.574-3.332-2.366-3.862a3.5 3.5 0 0 0-.48-.265c-.216-.09-.23-.106-.242-.283l-.014-.186h7.64v.162c0 .135-.023.176-.143.24-.302.164-.515.362-.652.604-.131.233-.141.283-.14.686.002.557.11.928.714 2.469l.618 1.577c.088.227.189.474.224.55.087.188.435 1.027.712 1.714.22.546.26.641.419 1.006.038.088.26.623.49 1.189.232.566.458 1.11.503 1.211s.27.646.502 1.212.46 1.111.504 1.212c.045.1.207.491.359.869.32.793.667 1.63.758 1.829.035.075.19.456.346.845.155.39.32.791.365.892.076.168.255.601.81 1.966.194.476.347.833.49 1.143l.063.138.102-.23.21-.47c.06-.132.109-.25.109-.26 0-.012.061-.156.137-.32.075-.165.137-.31.137-.32 0-.012.049-.13.109-.262.06-.133.216-.499.347-.813.131-.315.288-.68.349-.813.06-.133.11-.25.11-.262 0-.011.049-.129.11-.261.152-.337.53-1.225.53-1.249 0-.01.061-.154.137-.319.075-.165.137-.309.137-.32 0-.01.049-.129.109-.262.144-.317.33-.754.623-1.453.239-.571.326-.77.53-1.224.06-.133.11-.25.11-.259 0-.017.631-1.507.776-1.832.045-.1.436-1.016.87-2.034.433-1.019.824-1.935.868-2.035.214-.483.382-.885.662-1.578.168-.415.345-.841.393-.948s.089-.221.089-.255a.15.15 0 0 1 .03-.092q.041-.04.266-.694c.231-.671.3-1.296.188-1.684-.099-.34-.308-.569-.713-.782-.302-.158-.32-.177-.32-.326v-.158l3.898.012 3.898.012.014.14c.015.16-.02.195-.311.318a3.3 3.3 0 0 0-.953.667c-.515.516-.826 1.09-1.881 3.468-.196.441-.408.916-.471 1.054-.188.414-.29.64-.49 1.097-.201.457-.302.684-.49 1.098-.063.138-.275.611-.47 1.051-.196.44-.41.919-.476 1.063l-.238.526c-.066.145-.28.623-.475 1.063-.196.44-.422.945-.503 1.12-.081.177-.349.773-.595 1.327s-.513 1.15-.594 1.326-.267.587-.412.914a149 149 0 0 1-.594 1.326l-.216.48-.287.64-.287.64-.216.48c-.056.126-.153.343-.216.48l-.287.641a94 94 0 0 1-.52 1.155 479 479 0 0 0-1.205 2.686c-.063.138-.233.519-.378.846a84 84 0 0 1-.64 1.417c-.132.282-.192.418-.47 1.052-.088.201-.212.479-.275.617-.13.285-.262.579-.45.995l-.128.286h-.456Zm22.438-.963c-.09-.036-.071-.288.022-.32.044-.015.248-.106.452-.202.7-.332 1.103-.939 1.32-1.989.241-1.17.23-.573.217-11.61-.008-6.439-.03-10.374-.059-10.677-.089-.922-.171-1.37-.352-1.92-.144-.44-.293-.7-.556-.975-.256-.269-.436-.385-.825-.537-.288-.112-.3-.122-.3-.274v-.158l4.287-.012 4.287-.011v.16c0 .134-.022.17-.126.213-.069.027-.273.12-.453.205-.736.348-1.178 1.15-1.382 2.508-.13.865-.14 1.703-.148 11.477-.008 9.03 0 10.167.065 10.678.151 1.188.347 1.819.711 2.297.278.364.46.505.901.697.348.151.363.164.363.308v.15l-4.183.007c-2.302.005-4.21-.002-4.241-.015"
     style="fill:url(#d);stroke-width:.586299"
     id="path4" /></svg>
