<?xml version="1.0" encoding="UTF-8" standalone="no"?>
<svg
   width="64"
   height="64"
   version="1.1"
   id="svg11"
   sodipodi:docname="com.github.dynobo.normcap.svg"
   xml:space="preserve"
   inkscape:version="1.4.2 (ebf0e940d0, 2025-05-08)"
   xmlns:inkscape="http://www.inkscape.org/namespaces/inkscape"
   xmlns:sodipodi="http://sodipodi.sourceforge.net/DTD/sodipodi-0.dtd"
   xmlns="http://www.w3.org/2000/svg"
   xmlns:svg="http://www.w3.org/2000/svg"><sodipodi:namedview
     id="namedview11"
     pagecolor="#505050"
     bordercolor="#eeeeee"
     borderopacity="1"
     inkscape:showpageshadow="0"
     inkscape:pageopacity="0"
     inkscape:pagecheckerboard="0"
     inkscape:deskcolor="#505050"
     inkscape:zoom="3.0898438"
     inkscape:cx="63.595449"
     inkscape:cy="-13.754741"
     inkscape:window-width="1920"
     inkscape:window-height="1018"
     inkscape:window-x="0"
     inkscape:window-y="0"
     inkscape:window-maximized="1"
     inkscape:current-layer="svg11" /><defs
     id="defs2"><linearGradient
       id="a"
       x1="7.937"
       x2="7.937"
       y1="15.081"
       y2="1.852"
       gradientTransform="matrix(3.7796,0,0,3.7796,7.707722,-15.471215)"
       gradientUnits="userSpaceOnUse"><stop
         offset="0"
         stop-color="#363636"
         id="stop1" /><stop
         offset="1"
         stop-color="#6c6c6c"
         id="stop2" /></linearGradient><filter
       id="filter1057-2"
       x="-0.026999999"
       y="-0.026999999"
       width="1.054"
       height="1.054"
       color-interpolation-filters="sRGB"><feGaussianBlur
         stdDeviation="0.61875"
         id="feGaussianBlur51" /></filter><linearGradient
       id="linearGradient1053-0"
       x1="-127"
       x2="-72"
       y1="60"
       y2="5"
       gradientTransform="translate(131.5,-0.51000061)"
       gradientUnits="userSpaceOnUse"><stop
         stop-color="#1d2123"
         offset="0"
         id="stop51" /><stop
         stop-color="#33393e"
         stop-opacity=".99608"
         offset="1"
         id="stop52" /></linearGradient></defs><rect
     x="4.4999995"
     y="4.4999995"
     width="55"
     height="55"
     ry="15"
     fill="#141414"
     filter="url(#filter1057-2)"
     opacity="0.3"
     stroke-linecap="round"
     stroke-width="2.7444"
     id="rect52" /><rect
     x="4.5"
     y="4.5"
     width="55"
     height="55"
     ry="15"
     fill="url(#linearGradient1053-0)"
     stroke-linecap="round"
     stroke-width="2.7444"
     id="rect53"
     style="fill:url(#linearGradient1053-0)" /><g
     transform="translate(-.09 .682)scale(.27028)"
     id="g11"><path
       d="M43.65 47.97h139.29v113.97H43.65z"
       style="fill:#ff2e88;fill-opacity:.114921;stroke-width:4.22095"
       id="path2" /><path
       d="M54.2 52.19h-8.43a2.12 2.12 0 0 1-2.12-2.11c0-1.16.95-2.11 2.12-2.11h8.44a2.11 2.11 0 0 1 0 4.22zm25.33 0H71.1a2.12 2.12 0 0 1-2.11-2.11c0-1.16.95-2.11 2.11-2.11h8.44a2.11 2.11 0 0 1 .01 4.22zM54.2 161.93h-8.43a2.12 2.12 0 0 1-2.12-2.1c0-1.17.95-2.12 2.12-2.12h8.44a2.11 2.11 0 0 1 0 4.22zm25.33 0H71.1a2.12 2.12 0 0 1-2.11-2.1c0-1.17.95-2.12 2.11-2.12h8.44a2.11 2.11 0 0 1 .01 4.22zm25.33-109.74h-8.44a2.12 2.12 0 0 1-2.11-2.11c0-1.16.95-2.11 2.1-2.11h8.45a2.11 2.11 0 0 1 0 4.22m25.32 0h-8.44a2.12 2.12 0 0 1-2.1-2.11 2.1 2.1 0 0 1 2.1-2.11h8.44a2.11 2.11 0 0 1 .01 4.22zm25.33 0h-8.44a2.12 2.12 0 0 1-2.11-2.11c0-1.16.95-2.11 2.1-2.11h8.45a2.11 2.11 0 0 1 0 4.22m25.33 0h-8.45a2.12 2.12 0 0 1-2.1-2.11 2.1 2.1 0 0 1 2.1-2.11h8.45a2.11 2.11 0 0 1 0 4.22M45.77 85.95a2.12 2.12 0 0 1-2.12-2.1V75.4a2.12 2.12 0 0 1 4.22 0v8.44a2.1 2.1 0 0 1-2.1 2.11"
       style="fill:#ff2e88;fill-opacity:1;stroke-width:4.22095"
       id="path3" /><path
       d="M45.77 60.63a2.12 2.12 0 0 1-2.12-2.11v-8.44a2.12 2.12 0 0 1 4.22 0v8.44a2.1 2.1 0 0 1-2.1 2.1zm0 75.97a2.12 2.12 0 0 1-2.12-2.1v-8.45a2.12 2.12 0 0 1 4.22 0v8.45a2.1 2.1 0 0 1-2.1 2.1m0 25.33a2.12 2.12 0 0 1-2.12-2.1v-8.45a2.12 2.12 0 0 1 4.22 0v8.44a2.1 2.1 0 0 1-2.1 2.11m0-50.65a2.12 2.12 0 0 1-2.12-2.11v-8.44a2.12 2.12 0 0 1 4.22 0v8.44a2.1 2.1 0 0 1-2.1 2.11m135.07-25.33a2.12 2.12 0 0 1-2.11-2.1V75.4a2.11 2.11 0 0 1 4.22 0v8.44c0 1.17-.95 2.11-2.11 2.11m0-25.32a2.12 2.12 0 0 1-2.11-2.11v-8.44a2.11 2.11 0 0 1 4.22-.01v8.45a2.1 2.1 0 0 1-2.11 2.1zm0 50.65a2.12 2.12 0 0 1-2.11-2.11v-8.44a2.11 2.11 0 0 1 4.22-.01v8.45c0 1.16-.95 2.11-2.11 2.11"
       style="fill:#ff2e88;fill-opacity:1;stroke-width:4.22095"
       id="path4" /><path
       d="M43.65 47.97h4.22v4.22h-4.22zm135.08 0h4.22v4.22h-4.22zM43.65 157.71h4.22v4.22h-4.22zm135.09 2.1v-8.44a2.11 2.11 0 0 1 4.22 0v8.44c0 1.16-.95 2.11-2.11 2.11a2.12 2.12 0 0 1-2.11-2.1z"
       style="fill:#ff2e88;fill-opacity:1;stroke-width:4.22095"
       id="path5" /><path
       d="M170.18 159.81c0-1.16.95-2.1 2.11-2.1h8.45a2.105 2.105 0 0 1 0 4.21h-8.45a2.12 2.12 0 0 1-2.1-2.1z"
       style="fill:#ff2e88;fill-opacity:1;stroke-width:4.22095"
       id="path6" /><path
       d="M157.71-182.95h4.22v4.22h-4.22z"
       style="fill:#ff2e88;fill-opacity:1;stroke-width:4.22095"
       transform="rotate(90)"
       id="path7" /><path
       d="M180.77 136.56a2.12 2.12 0 0 1-2.11-2.11V126a2.11 2.11 0 0 1 4.22 0v8.45a2.1 2.1 0 0 1-2.11 2.1zm-75.95 25.33h-8.44a2.12 2.12 0 0 1-2.11-2.11c0-1.16.95-2.11 2.1-2.11h8.45c1.16 0 2.11.95 2.11 2.11s-.95 2.11-2.11 2.11m25.33 0h-8.45a2.12 2.12 0 0 1-2.1-2.11 2.1 2.1 0 0 1 2.1-2.11h8.45a2.11 2.11 0 0 1 0 4.22m25.32 0h-8.44a2.12 2.12 0 0 1-2.11-2.11c0-1.16.95-2.11 2.1-2.11h8.45a2.11 2.11 0 0 1 .01 4.22z"
       style="fill:#ff2e88;fill-opacity:1;stroke-width:4.22095"
       id="path8" /><rect
       width="2.33"
       height="24.77"
       x="17.67"
       y="4.07"
       rx=".63"
       ry=".63"
       style="fill:#3b3b3d;fill-opacity:1;stroke:#fff;stroke-width:.303647;stroke-linejoin:round;stroke-miterlimit:4;stroke-dasharray:none;stroke-opacity:1"
       transform="matrix(4.64088 -4.64088 4.53007 4.53007 -16.32 158.04)"
       id="rect8" /><g
       style="opacity:1"
       id="g10"><path
         d="m86.97 91.62 5.15-5.15a4 4 0 0 1 5.67 0l21.35 21.35-10.81 10.82-21.36-21.36a4 4 0 0 1 0-5.66"
         style="color:#000;font-style:normal;font-variant:normal;font-weight:400;font-stretch:normal;font-size:medium;line-height:normal;font-family:sans-serif;font-variant-ligatures:normal;font-variant-position:normal;font-variant-caps:normal;font-variant-numeric:normal;font-variant-alternates:normal;font-variant-east-asian:normal;font-feature-settings:normal;font-variation-settings:normal;text-indent:0;text-align:start;text-decoration:none;text-decoration-line:none;text-decoration-style:solid;text-decoration-color:#000;letter-spacing:normal;word-spacing:normal;text-transform:none;writing-mode:lr-tb;direction:ltr;text-orientation:mixed;dominant-baseline:auto;baseline-shift:baseline;text-anchor:start;white-space:normal;shape-padding:0;shape-margin:0;inline-size:0;clip-rule:nonzero;display:inline;overflow:visible;visibility:visible;isolation:auto;mix-blend-mode:normal;color-interpolation:sRGB;color-interpolation-filters:linearRGB;solid-color:#000;solid-opacity:1;vector-effect:none;fill:#fff;fill-opacity:1;fill-rule:nonzero;stroke:none;stroke-width:1.96896;stroke-linecap:butt;stroke-linejoin:round;stroke-miterlimit:4;stroke-dasharray:none;stroke-dashoffset:0;stroke-opacity:1;color-rendering:auto;image-rendering:auto;shape-rendering:auto;text-rendering:auto;stop-color:#000;stop-opacity:1"
         id="path9" /><path
         d="M86.29 90.93a5 5 0 0 0-.03 7.06l33.04 33.3 12.22-12.23-33.03-33.3a5 5 0 0 0-7.05.02zm1.37 1.37 5.15-5.15a3 3 0 0 1 4.28.02c-6.82 5.18-4.2 2.91-9.41 9.41a3 3 0 0 1-.02-4.28"
         style="color:#000;font-style:normal;font-variant:normal;font-weight:400;font-stretch:normal;font-size:medium;line-height:normal;font-family:sans-serif;font-variant-ligatures:normal;font-variant-position:normal;font-variant-caps:normal;font-variant-numeric:normal;font-variant-alternates:normal;font-variant-east-asian:normal;font-feature-settings:normal;font-variation-settings:normal;text-indent:0;text-align:start;text-decoration:none;text-decoration-line:none;text-decoration-style:solid;text-decoration-color:#000;letter-spacing:normal;word-spacing:normal;text-transform:none;writing-mode:lr-tb;direction:ltr;text-orientation:mixed;dominant-baseline:auto;baseline-shift:baseline;text-anchor:start;white-space:normal;shape-padding:0;shape-margin:0;inline-size:0;clip-rule:nonzero;display:inline;overflow:visible;visibility:visible;isolation:auto;mix-blend-mode:normal;color-interpolation:sRGB;color-interpolation-filters:linearRGB;solid-color:#000;solid-opacity:1;vector-effect:none;fill:#fff;fill-opacity:1;fill-rule:nonzero;stroke:none;stroke-linecap:butt;stroke-linejoin:round;stroke-miterlimit:4;stroke-dasharray:none;stroke-dashoffset:0;stroke-opacity:1;color-rendering:auto;image-rendering:auto;shape-rendering:auto;text-rendering:auto;stop-color:#000;stop-opacity:1"
         id="path10" /></g><path
       d="m114.88 73.25 14.63 5.46.67 15.6 9.72-12.22 15.05 4.18-8.63-13.02 8.63-13.02-15.05 4.18-9.72-12.22-.67 15.6zm-83.84 33.9 11.46 4.28.53 12.23 7.61-9.58 11.8 3.27-6.76-10.2 6.76-10.2-11.8 3.27-7.6-9.58-.54 12.23zM46.7 52.08l18.43 6.88.85 19.65 12.24-15.4 18.95 5.26-10.86-16.4 10.86-16.4-18.95 5.28-12.24-15.4-.85 19.65Z"
       style="fill:#fff;fill-opacity:1;stroke:none;stroke-width:1.82387;stroke-linejoin:round;stroke-miterlimit:4;stroke-dasharray:none;stroke-opacity:1"
       id="path11" /></g></svg>
