<?xml version="1.0" encoding="UTF-8" standalone="no"?>
<svg
   width="64"
   height="64"
   version="1.1"
   id="svg31"
   sodipodi:docname="com.rafaelmardojai.WebfontKitGenerator.svg"
   inkscape:version="1.4.2 (ebf0e940d0, 2025-05-08)"
   xml:space="preserve"
   xmlns:inkscape="http://www.inkscape.org/namespaces/inkscape"
   xmlns:sodipodi="http://sodipodi.sourceforge.net/DTD/sodipodi-0.dtd"
   xmlns:xlink="http://www.w3.org/1999/xlink"
   xmlns="http://www.w3.org/2000/svg"
   xmlns:svg="http://www.w3.org/2000/svg"><sodipodi:namedview
     id="namedview31"
     pagecolor="#505050"
     bordercolor="#eeeeee"
     borderopacity="1"
     inkscape:showpageshadow="0"
     inkscape:pageopacity="0"
     inkscape:pagecheckerboard="0"
     inkscape:deskcolor="#505050"
     inkscape:zoom="4"
     inkscape:cx="-14.75"
     inkscape:cy="40.375"
     inkscape:window-width="1920"
     inkscape:window-height="996"
     inkscape:window-x="0"
     inkscape:window-y="0"
     inkscape:window-maximized="1"
     inkscape:current-layer="svg31" /><defs
     id="defs18"><linearGradient
       id="linearGradient24"
       x1="7.937"
       x2="7.937"
       y1="15.081"
       y2="1.852"
       gradientTransform="scale(3.7796)"
       gradientUnits="userSpaceOnUse"><stop
         offset="0"
         stop-color="#ffc30d"
         id="stop21"
         style="stop-color:#e7ad0f;stop-opacity:1" /><stop
         offset="0.04973053"
         stop-color="#fff63f"
         id="stop22"
         style="stop-color:#ffd62b;stop-opacity:1;" /><stop
         offset="0.11184956"
         stop-color="#fff63f"
         id="stop26"
         style="stop-color:#e5a50a;stop-opacity:1" /><stop
         offset="0.87496203"
         stop-color="#fff63f"
         id="stop25"
         style="stop-color:#e5a50a;stop-opacity:1" /><stop
         offset="0.95081443"
         stop-color="#fff63f"
         style="stop-color:#ffd72b;stop-opacity:1;"
         id="stop23" /><stop
         offset="1"
         stop-color="#fff63f"
         style="stop-color:#e7ab0e;stop-opacity:1"
         id="stop24" /></linearGradient><linearGradient
       id="linearGradient20"
       x1="7.937"
       x2="7.937"
       y1="15.081"
       y2="1.852"
       gradientTransform="scale(3.7796)"
       gradientUnits="userSpaceOnUse"><stop
         offset="0"
         stop-color="#ffc30d"
         id="stop19"
         style="stop-color:#f6d32d;stop-opacity:1" /><stop
         offset="1"
         stop-color="#fff63f"
         id="stop20"
         style="stop-color:#f6d32d;stop-opacity:1" /></linearGradient><linearGradient
       id="d"
       x1="7.937"
       x2="7.937"
       y1="15.081"
       y2="1.852"
       gradientTransform="scale(3.7796)"
       gradientUnits="userSpaceOnUse"><stop
         offset="0"
         stop-color="#ffc30d"
         id="stop1" /><stop
         offset=".196"
         stop-color="#fff63f"
         id="stop2" /><stop
         offset=".804"
         stop-color="#fff63f"
         style="stop-color:#fff63f;stop-opacity:1"
         id="stop3" /><stop
         offset="1"
         stop-color="#fff63f"
         style="stop-color:#ffc30d;stop-opacity:1"
         id="stop4" /></linearGradient><linearGradient
       id="c"
       x1="7.937"
       x2="7.937"
       y1="15.081"
       y2="1.852"
       gradientTransform="scale(3.7796)"
       gradientUnits="userSpaceOnUse"><stop
         offset="0"
         stop-color="#ffc30d"
         id="stop5" /><stop
         offset="1"
         stop-color="#fff63f"
         id="stop6" /></linearGradient><linearGradient
       xlink:href="#a"
       id="g"
       x1="24"
       x2="60"
       y1="29"
       y2="29" /><linearGradient
       id="a"
       gradientUnits="userSpaceOnUse"><stop
         offset="0"
         stop-color="#a51d2d"
         id="stop7" /><stop
         offset=".2"
         stop-color="#e01b24"
         id="stop8" /><stop
         offset="1"
         stop-color="#a51d2d"
         id="stop9" /></linearGradient><linearGradient
       xlink:href="#b"
       id="h"
       x1="24"
       x2="60"
       y1="22"
       y2="22" /><linearGradient
       id="b"
       gradientUnits="userSpaceOnUse"><stop
         offset="0"
         stop-color="#c01c28"
         id="stop10" /><stop
         offset=".156"
         stop-color="#e01b24"
         id="stop11" /><stop
         offset=".333"
         stop-color="#f66151"
         id="stop12" /><stop
         offset=".575"
         stop-color="#e01b24"
         id="stop13" /><stop
         offset=".73"
         stop-color="#e01b24"
         id="stop14" /><stop
         offset="1"
         stop-color="#a51d2d"
         id="stop15" /></linearGradient><linearGradient
       xlink:href="#a"
       id="j"
       x1="-68"
       x2="-32"
       y1="125"
       y2="125"
       gradientTransform="matrix(-1 0 0 1 36 -96)" /><linearGradient
       xlink:href="#b"
       id="l"
       x1="-68"
       x2="-32"
       y1="118"
       y2="118"
       gradientTransform="matrix(-1 0 0 1 36 -96)" /><linearGradient
       id="m"
       x1="60"
       x2="68"
       y1="221"
       y2="221"
       gradientTransform="matrix(2 0 0 .94444 -64 -175.222)"
       gradientUnits="userSpaceOnUse"><stop
         offset="0"
         stop-color="#a51d2d"
         id="stop16" /><stop
         offset=".5"
         stop-color="#ed333b"
         id="stop17" /><stop
         offset="1"
         stop-color="#c01c28"
         id="stop18" /></linearGradient><linearGradient
       xlink:href="#c"
       id="f"
       x1="7.937"
       x2="7.937"
       y1="15.081"
       y2="1.852"
       gradientTransform="matrix(3.7796,0,0,3.7796,-89.197934,-28.001)"
       gradientUnits="userSpaceOnUse" /><linearGradient
       xlink:href="#d"
       id="e"
       x1="15.875"
       x2="1.058"
       y1="12.427"
       y2="12.427"
       gradientTransform="matrix(3.7796,0,0,3.7796,-89.197934,0)"
       gradientUnits="userSpaceOnUse" /><filter
       id="filter1057"
       x="-0.026999999"
       y="-0.026999999"
       width="1.054"
       height="1.054"
       color-interpolation-filters="sRGB"><feGaussianBlur
         stdDeviation="0.61875"
         id="feGaussianBlur2" /></filter><linearGradient
       id="linearGradient1053"
       x1="-127"
       x2="-72"
       y1="60"
       y2="5"
       gradientTransform="translate(131.5,-0.50999857)"
       gradientUnits="userSpaceOnUse"><stop
         stop-color="#fad21e"
         offset="0"
         id="stop2-3" /><stop
         stop-color="#faeb1e"
         stop-opacity=".99608"
         offset="1"
         id="stop3-6" /></linearGradient><linearGradient
       inkscape:collect="always"
       xlink:href="#linearGradient20"
       id="linearGradient33"
       gradientUnits="userSpaceOnUse"
       gradientTransform="matrix(3.7796,0,0,3.7796,-1.2e-4,-28.471703)"
       x1="7.937"
       y1="15.081"
       x2="7.9369998"
       y2="8.7235956" /><linearGradient
       inkscape:collect="always"
       xlink:href="#linearGradient24"
       id="linearGradient34"
       gradientUnits="userSpaceOnUse"
       gradientTransform="matrix(3.7796,0,0,3.7796,-1.2e-4,-0.47070305)"
       x1="15.875"
       y1="12.427"
       x2="1.058"
       y2="12.427" /></defs><rect
     x="4.4999995"
     y="4.4999995"
     width="55"
     height="55"
     ry="15"
     fill="#141414"
     filter="url(#filter1057)"
     opacity="0.3"
     stroke-linecap="round"
     stroke-width="2.7444"
     id="rect3" /><rect
     x="4.5"
     y="4.5"
     width="55"
     height="55"
     ry="15"
     fill="url(#linearGradient1053)"
     stroke-linecap="round"
     stroke-width="2.7444"
     id="rect4"
     style="fill:url(#linearGradient1053)" /><path
     id="path32"
     style="fill:url(#linearGradient34);stroke-width:3.7796"
     d="M 4.5,22.095703 V 44.5 c 0,8.307951 6.68699,14.996701 14.99414,15 H 44.50781 C 52.81496,59.4967 59.5,52.807951 59.5,44.5 V 22.095703 A 12.973,12.973 0 0 1 47,31.498047 H 17.00195 A 12.973,12.973 0 0 1 4.5,22.095703 Z" /><path
     id="path33"
     style="fill:url(#linearGradient33);stroke-width:3.7796"
     d="m 19.5,4.5 c -8.31,0 -15,6.69 -15,15 v 2.595703 a 12.973,12.973 0 0 0 12.50195,9.402344 H 47 A 12.973,12.973 0 0 0 59.5,22.095703 V 19.5 c 0,-8.31 -6.69,-15 -15,-15 z" /><g
     fill="#241f31"
     id="g22"><path
       d="m22.657 42.62-4.852 13.099h-4.672l7.187-19.406h4.672l7.187 19.406h-4.67z"
       id="path20" /><path
       d="M17.445 48.532h10.421v3.592h-10.42Zm27.493-6.469h4.312V55.72h-4.312zm0 0"
       id="path21" /><path
       d="M40.75 42.063c-3.652.032-6.594 3.16-6.594 7.008 0 3.87 2.978 7.008 6.648 7.008 3.672 0 6.65-3.138 6.65-7.008s-2.978-7.008-6.65-7.008zm.953 3.953c1.588 0 2.874 1.366 2.874 3.055 0 1.687-1.286 3.053-2.874 3.053s-2.874-1.366-2.874-3.053c0-1.689 1.286-3.055 2.874-3.055m0 0"
       id="path22" /></g><path
     id="path23"
     style="stroke-width:0.585719;fill:#ed333b;fill-opacity:1"
     d="M 5.2617188 14.75 C 4.7672992 16.241542 4.5 17.838386 4.5 19.5 L 4.5 21.21875 L 59.5 21.21875 L 59.5 19.5 C 59.5 17.838386 59.232701 16.241542 58.738281 14.75 L 5.2617188 14.75 z " /><path
     fill="#a51d2d"
     d="M 35.234,31.498047 V 59.5 H 28.766 V 31.498047 Z m 0,0"
     style="stroke-width:0.519187"
     id="path24" /><path
     fill="#ed333b"
     d="M 35.234,4.4999995 V 31.498047 H 28.766 V 4.4999995 Z m 0,0"
     id="path25"
     style="stroke-width:0.981402" /><path
     fill="url(#g)"
     d="M24 18v10c0 6.629 5.371 12 12 12h24V28H36a12 12 0 0 1-11.824-10Zm0 0"
     style="fill:url(#g)"
     transform="translate(-2.5 -.344)scale(.53907)"
     id="path26" /><path
     fill="url(#h)"
     d="M36 4c-6.629 0-12 5.371-12 12v12c0-6.629 5.371-12 12-12s12 5.371 12 12c0 2.105.555 4.176 1.605 6 2.145 3.71 6.11 6 10.395 6V28c-4.285 0-8.25-2.29-10.395-6A12 12 0 0 1 48 16c0-6.629-5.371-12-12-12m0 0"
     style="fill:url(#h)"
     transform="translate(-2.5 -.344)scale(.53907)"
     id="path27" /><path
     fill="url(#j)"
     d="M104 18v10c0 6.629-5.371 12-12 12H68V28h24a12 12 0 0 0 11.824-10zm0 0"
     style="fill:url(#j)"
     transform="translate(-2.5 -.344)scale(.53907)"
     id="path28" /><path
     fill="url(#l)"
     d="M92 4c6.629 0 12 5.371 12 12v12c0-6.629-5.371-12-12-12s-12 5.371-12 12c0 2.105-.555 4.176-1.605 6-2.145 3.71-6.11 6-10.395 6V28c4.285 0 8.25-2.29 10.395-6A12 12 0 0 0 80 16c0-6.629 5.371-12 12-12m0 0"
     style="fill:url(#l)"
     transform="translate(-2.5 -.344)scale(.53907)"
     id="path29" /><path
     fill="url(#m)"
     d="M61 25h6a5 5 0 0 1 5 5v7a5 5 0 0 1-5 5h-6a5 5 0 0 1-5-5v-7a5 5 0 0 1 5-5m0 0"
     style="fill:url(#m)"
     transform="translate(-2.5 -.344)scale(.53907)"
     id="path30" /><path
     fill="#a51d2d"
     d="M27.687 17.445v2.156a2.69 2.69 0 0 0 2.696 2.696h3.234a2.69 2.69 0 0 0 2.696-2.696v-2.156a2.69 2.69 0 0 1-2.696 2.696h-3.234a2.69 2.69 0 0 1-2.696-2.696m0 0"
     id="path31" /></svg>
