<?xml version="1.0" encoding="UTF-8" standalone="no"?>
<svg
   xml:space="preserve"
   width="64"
   height="64"
   version="1.1"
   id="svg3"
   sodipodi:docname="com.ticktick.TickTick.svg"
   inkscape:version="1.4.2 (ebf0e940d0, 2025-05-08)"
   xmlns:inkscape="http://www.inkscape.org/namespaces/inkscape"
   xmlns:sodipodi="http://sodipodi.sourceforge.net/DTD/sodipodi-0.dtd"
   xmlns:xlink="http://www.w3.org/1999/xlink"
   xmlns="http://www.w3.org/2000/svg"
   xmlns:svg="http://www.w3.org/2000/svg"><sodipodi:namedview
     id="namedview3"
     pagecolor="#505050"
     bordercolor="#eeeeee"
     borderopacity="1"
     inkscape:showpageshadow="0"
     inkscape:pageopacity="0"
     inkscape:pagecheckerboard="0"
     inkscape:deskcolor="#505050"
     inkscape:zoom="4.1929222"
     inkscape:cx="35.774572"
     inkscape:cy="8.4666488"
     inkscape:window-width="1920"
     inkscape:window-height="996"
     inkscape:window-x="0"
     inkscape:window-y="0"
     inkscape:window-maximized="1"
     inkscape:current-layer="svg3" /><defs
     id="defs2"><linearGradient
       id="a"
       x1="7.937"
       x2="7.937"
       y1="15.081"
       y2="1.852"
       gradientTransform="matrix(3.7796,0,0,3.7796,-32,-21.703241)"
       gradientUnits="userSpaceOnUse"><stop
         offset="0"
         stop-color="#f1efeb"
         id="stop1" /><stop
         offset="1"
         stop-color="#fdfcfc"
         id="stop2" /></linearGradient><filter
       inkscape:collect="always"
       style="color-interpolation-filters:sRGB"
       id="filter1057"
       x="-0.026999999"
       width="1.054"
       y="-0.026999999"
       height="1.054"><feGaussianBlur
         inkscape:collect="always"
         stdDeviation="0.61875"
         id="feGaussianBlur1059" /></filter><linearGradient
       inkscape:collect="always"
       xlink:href="#linearGradient1051"
       id="linearGradient1053"
       x1="-127"
       y1="60"
       x2="-72"
       y2="5"
       gradientUnits="userSpaceOnUse"
       gradientTransform="translate(131.5,-0.50999693)" /><linearGradient
       inkscape:collect="always"
       id="linearGradient1051"><stop
         style="stop-color:#dee0e2;stop-opacity:1"
         offset="0"
         id="stop1047" /><stop
         style="stop-color:#f1f3f5;stop-opacity:0.99607843"
         offset="1"
         id="stop1049" /></linearGradient></defs><rect
     ry="15"
     y="4.4999995"
     x="4.4999995"
     height="55"
     width="55"
     id="rect1055"
     style="opacity:0.3;fill:#141414;fill-opacity:1;stroke-width:2.74436;stroke-linecap:round;filter:url(#filter1057)" /><rect
     style="fill:url(#linearGradient1053);fill-opacity:1;stroke-width:2.74436;stroke-linecap:round"
     id="rect1045"
     width="54.999996"
     height="54.999996"
     x="4.5000019"
     y="4.5000019"
     ry="14.999999" /><path
     d="M31.638 36.942a2.6 2.6 0 0 1-.449-.183c-.332-.176-6.712-5.411-6.666-5.47l2.62-3.197c.014-.016 1.077.832 2.361 1.884s2.35 1.903 2.37 1.891c.019-.011 2.278-2.823 5.02-6.247s5.001-6.22 5.02-6.214c.05.017 3.265 2.582 3.267 2.607.005.052-11.424 14.29-11.604 14.457-.23.213-.65.428-.958.491-.282.059-.725.05-.98-.019"
     style="fill:#ffb000;fill-opacity:1"
     id="path2" /><path
     d="m30.854 47.991-.566-.058c-2.887-.287-5.854-1.491-8.16-3.313a18 18 0 0 1-2.222-2.11c-2.743-3.16-4.136-7.166-3.929-11.305.046-.918.12-1.538.279-2.341a16.07 16.07 0 0 1 6.903-10.266c.76-.5 1.16-.727 1.965-1.113 1.98-.95 4.225-1.497 6.296-1.534l.586-.01v3.591l-.527.027c-3.798.194-7.183 1.985-9.434 4.99-1.295 1.73-2.085 3.694-2.384 5.927-.093.696-.092 2.337.003 3.014.41 2.94 1.629 5.384 3.68 7.382 3.017 2.937 7.219 4.133 11.354 3.232 4.28-.932 7.816-4.174 9.151-8.39.339-1.069.487-1.938.576-3.366l.024-.38h3.596l-.024.751c-.115 3.551-1.55 7.096-3.993 9.868-2.313 2.624-5.511 4.47-8.899 5.135-1.064.21-1.594.259-2.908.272a32 32 0 0 1-1.367-.003"
     style="fill:#617fde;fill-opacity:1"
     id="path3" /></svg>
