<?xml version="1.0" encoding="UTF-8" standalone="no"?>
<svg
   width="64"
   height="64"
   version="1.1"
   id="svg11"
   sodipodi:docname="com.github.tenderowl.frog.svg"
   inkscape:version="1.4.2 (ebf0e940d0, 2025-05-08)"
   xmlns:inkscape="http://www.inkscape.org/namespaces/inkscape"
   xmlns:sodipodi="http://sodipodi.sourceforge.net/DTD/sodipodi-0.dtd"
   xmlns="http://www.w3.org/2000/svg"
   xmlns:svg="http://www.w3.org/2000/svg">
  <sodipodi:namedview
     id="namedview11"
     pagecolor="#505050"
     bordercolor="#eeeeee"
     borderopacity="1"
     inkscape:showpageshadow="0"
     inkscape:pageopacity="0"
     inkscape:pagecheckerboard="0"
     inkscape:deskcolor="#505050"
     inkscape:zoom="4.2315921"
     inkscape:cx="45.018516"
     inkscape:cy="44.191404"
     inkscape:window-width="1920"
     inkscape:window-height="1003"
     inkscape:window-x="0"
     inkscape:window-y="0"
     inkscape:window-maximized="1"
     inkscape:current-layer="svg11" />
  <defs
     id="defs2">
    <linearGradient
       id="a"
       x1="7.937"
       x2="7.937"
       y1="15.081"
       y2="1.852"
       gradientTransform="matrix(3.7796,0,0,3.7796,-18.906999,-16.97)"
       gradientUnits="userSpaceOnUse">
      <stop
         offset="0"
         stop-color="#f1efeb"
         id="stop1" />
      <stop
         offset="1"
         stop-color="#fdfcfc"
         id="stop2" />
    </linearGradient>
    <filter
       id="filter1057-2"
       x="-0.026999999"
       y="-0.026999999"
       width="1.054"
       height="1.054"
       color-interpolation-filters="sRGB">
      <feGaussianBlur
         stdDeviation="0.61875"
         id="feGaussianBlur1" />
    </filter>
    <linearGradient
       id="linearGradient1053"
       x1="-127"
       x2="-72"
       y1="60"
       y2="5"
       gradientTransform="translate(131.5,-0.51000053)"
       gradientUnits="userSpaceOnUse">
      <stop
         stop-color="#1d2123"
         offset="0"
         id="stop1-3" />
      <stop
         stop-color="#33393e"
         stop-opacity=".99608"
         offset="1"
         id="stop2-6" />
    </linearGradient>
  </defs>
  <rect
     x="4.4999995"
     y="4.4999995"
     width="55"
     height="55"
     ry="15"
     fill="#141414"
     filter="url(#filter1057-2)"
     opacity="0.3"
     stroke-linecap="round"
     stroke-width="2.7444"
     id="rect4" />
  <rect
     x="4.5"
     y="4.5"
     width="55"
     height="55"
     ry="15"
     fill="url(#linearGradient1053)"
     stroke-linecap="round"
     stroke-width="2.7444"
     id="rect5"
     style="fill:url(#linearGradient1053)" />
  <path
     fill="#84d993"
     d="M35.555 18.835 15.738 36.617a3.3 3.3 0 0 0-.91 3.565c.885.333 3.613 1.243 9.152 2.896 6.449 0 12.03-.247 12.07-.248l4.3-14.964z"
     id="path2" />
  <path
     fill="#50bf94"
     d="m37.126 23.733-1.57 1.374v16.814c1.415-.038 2.49-.394 3.935-.827 8.548-2.563 6.895-16.535 6.895-16.535l1.322-1.291v-4.961h-3.307c-1.984-.692-3.72-1.52-5.534-2.444l-3.312 2.971v3.793z"
     id="path3" />
  <path
     fill="#fdf3d3"
     d="m44.402 31.638-2.811 6.728 4.164-.067a12.3 12.3 0 0 0 1.954-6.66v-8.372h-3.307zm-9.095 9.094h-7.44c0 1.437 2.562 3.304 7.688 3.304h.008a12.3 12.3 0 0 0 3.928-.728l2.844-2.297-2.844-1.3a9 9 0 0 1-4.184 1.021"
     id="path4" />
  <path
     fill="#b9f291"
     d="M48.535 46.52h-1.11l-1.67-8.22-1.354-6.661a2.48 2.48 0 0 0-4.91.494V46.52s2.182 1.024 5.863 2.48h5.661a2.48 2.48 0 0 0-2.48-2.48"
     id="path5" />
  <path
     fill="#50bf94"
     d="M42.874 46.52h-14.18c.413.858 1.048 1.628 1.9 2.48h14.76a2.48 2.48 0 0 0-2.48-2.48"
     id="path6" />
  <path
     fill="#b9f291"
     d="M35.555 44.04a4.94 4.94 0 0 0-1.264-3.307 4.95 4.95 0 0 0-3.696-1.654h-12.65a4.94 4.94 0 0 0-3.508 1.453 4.95 4.95 0 0 0-1.452 3.508l10.913 3.751z"
     id="path7" />
  <path
     fill="#84d993"
     d="M34.89 46.52c.422-.73.665-1.576.665-2.48h-22.57a4.96 4.96 0 0 0 4.96 4.96h12.65a4.96 4.96 0 0 0 4.295-2.48"
     id="path8" />
  <path
     fill="#b9f291"
     d="M35.555 22.626h2.48v2.48h-2.48zm-10.593 8.185h2.48v2.48h-2.48zm3.308 3.308h2.48v2.48h-2.48z"
     id="path9" />
  <path
     fill="#aa3e51"
     d="M41.095 21.614a3.307 3.307 0 0 0 0-6.614l-2.15 3.607z"
     id="path10" />
  <path
     fill="#f72349"
     d="M37.787 18.307a3.307 3.307 0 0 0 3.307 3.307V15c-.848 0-1.622.32-2.207.845l-.009.008-.011.01a3.3 3.3 0 0 0-1.08 2.444"
     id="path11" />
  <circle
     cx="102.001"
     cy="40.000999"
     r="30.000999"
     fill-opacity="0"
     stroke-width="1.5715"
     id="circle5" />
</svg>
