<?xml version="1.0" encoding="UTF-8" standalone="no"?>
<svg
   xml:space="preserve"
   width="64"
   height="64"
   version="1.1"
   id="svg58"
   sodipodi:docname="com.belmoussaoui.ReadItLater.svg"
   inkscape:version="1.4.2 (ebf0e940d0, 2025-05-08)"
   xmlns:inkscape="http://www.inkscape.org/namespaces/inkscape"
   xmlns:sodipodi="http://sodipodi.sourceforge.net/DTD/sodipodi-0.dtd"
   xmlns:xlink="http://www.w3.org/1999/xlink"
   xmlns="http://www.w3.org/2000/svg"
   xmlns:svg="http://www.w3.org/2000/svg"><sodipodi:namedview
     id="namedview58"
     pagecolor="#505050"
     bordercolor="#eeeeee"
     borderopacity="1"
     inkscape:showpageshadow="0"
     inkscape:pageopacity="0"
     inkscape:pagecheckerboard="0"
     inkscape:deskcolor="#505050"
     inkscape:zoom="8.7393979"
     inkscape:cx="35.757612"
     inkscape:cy="33.011428"
     inkscape:window-width="1920"
     inkscape:window-height="1018"
     inkscape:window-x="0"
     inkscape:window-y="0"
     inkscape:window-maximized="1"
     inkscape:current-layer="svg58" /><defs
     id="defs16"><linearGradient
       id="h"><stop
         offset="0"
         style="stop-color:#000;stop-opacity:1"
         id="stop1" /><stop
         offset="1"
         style="stop-color:#000;stop-opacity:0"
         id="stop2" /></linearGradient><linearGradient
       id="g"><stop
         offset="0"
         style="stop-color:#b38259;stop-opacity:1"
         id="stop3" /><stop
         offset="1"
         style="stop-color:#604521;stop-opacity:1"
         id="stop4" /></linearGradient><linearGradient
       id="c"
       x1="7.937"
       x2="7.937"
       y1="15.081"
       y2="1.852"
       gradientTransform="scale(3.7796)"
       gradientUnits="userSpaceOnUse"
       spreadMethod="pad"><stop
         offset="0"
         stop-color="#ffc30d"
         style="stop-color:#805533;stop-opacity:1"
         id="stop5" /><stop
         offset=".204"
         stop-color="#ffc30d"
         style="stop-color:#b38259;stop-opacity:1"
         id="stop6" /><stop
         offset=".804"
         stop-color="#ffc30d"
         style="stop-color:#b38259;stop-opacity:1"
         id="stop7" /><stop
         offset="1"
         stop-color="#fff63f"
         style="stop-color:#7f5432;stop-opacity:1"
         id="stop8" /></linearGradient><linearGradient
       id="f"><stop
         offset="0"
         style="stop-color:#ccab8f;stop-opacity:1"
         id="stop9" /><stop
         offset="1"
         style="stop-color:#bb906b;stop-opacity:1"
         id="stop10" /></linearGradient><linearGradient
       id="e"><stop
         offset="0"
         style="stop-color:#68462b;stop-opacity:1"
         id="stop11" /><stop
         offset="1"
         style="stop-color:#49331f;stop-opacity:1"
         id="stop12" /></linearGradient><linearGradient
       xlink:href="#a"
       id="i"
       x1="7.937"
       x2="7.937"
       y1="15.081"
       y2="1.852"
       gradientTransform="matrix(3.7078421,0,0,3.7078421,-63.394432,-63.332031)"
       gradientUnits="userSpaceOnUse" /><linearGradient
       xlink:href="#b"
       id="a"
       x1="7.937"
       x2="7.937"
       y1="15.081"
       y2="1.852"
       gradientTransform="scale(3.7796)"
       gradientUnits="userSpaceOnUse"><stop
         offset="0"
         stop-color="#ffc30d"
         id="stop13" /><stop
         offset="1"
         stop-color="#fff63f"
         id="stop14" /></linearGradient><linearGradient
       id="b"
       x1="7.937"
       x2="7.937"
       y1="15.081"
       y2="1.852"
       gradientTransform="scale(3.7796)"
       gradientUnits="userSpaceOnUse"
       spreadMethod="pad"><stop
         offset="0"
         stop-color="#ffc30d"
         style="stop-color:#d9a300;stop-opacity:1"
         id="stop15" /><stop
         offset="1"
         stop-color="#fff63f"
         id="stop16" /></linearGradient><linearGradient
       xlink:href="#c"
       id="s"
       x1="1.058"
       x2="15.875"
       y1="12.427"
       y2="12.427"
       gradientTransform="matrix(-3.711848,0,0,-3.711848,63.428353,63.367798)"
       gradientUnits="userSpaceOnUse" /><linearGradient
       xlink:href="#c"
       id="j"
       x1="156.441"
       x2="212.443"
       y1="18.47"
       y2="18.47"
       gradientUnits="userSpaceOnUse"
       gradientTransform="matrix(0.96594971,0,0,0.96594971,-210.16171,-56.089733)" /><linearGradient
       xlink:href="#e"
       id="k"
       x1="184.441"
       x2="184.441"
       y1="12.173"
       y2="48.547"
       gradientUnits="userSpaceOnUse"
       gradientTransform="matrix(0.98101442,0,0,0.98101442,-212.94027,-56.465911)" /><linearGradient
       xlink:href="#f"
       id="r"
       x1="-184.442"
       x2="-184.442"
       y1="-39.97"
       y2="3.03"
       gradientUnits="userSpaceOnUse"
       gradientTransform="matrix(0.98208615,0,0,0.98208615,213.13794,56.265002)" /><linearGradient
       xlink:href="#g"
       id="l"
       x1="-159.753"
       x2="-159.753"
       y1="-19.117"
       y2="-22.725"
       gradientUnits="userSpaceOnUse"
       gradientTransform="matrix(0.98101442,0,0,0.98101442,212.94027,56.465911)" /><linearGradient
       xlink:href="#g"
       id="m"
       x1="-159.753"
       x2="-159.753"
       y1="-19.117"
       y2="-22.725"
       gradientTransform="matrix(0.8626717,0,0,0.98101442,190.87662,75.338666)"
       gradientUnits="userSpaceOnUse" /><linearGradient
       xlink:href="#h"
       id="n"
       x1="-185.128"
       x2="-185.318"
       y1="-36.461"
       y2="-25.66"
       gradientUnits="userSpaceOnUse"
       gradientTransform="matrix(0.98101442,0,0,0.98101442,212.94027,56.465911)" /><linearGradient
       xlink:href="#h"
       id="q"
       x1="-185.128"
       x2="-185.318"
       y1="-36.461"
       y2="-25.66"
       gradientTransform="matrix(0.98101442,0,0,0.98101442,213.15511,76.069522)"
       gradientUnits="userSpaceOnUse" /><filter
       id="filter1057"
       x="-0.026999999"
       y="-0.026999999"
       width="1.054"
       height="1.054"
       color-interpolation-filters="sRGB"><feGaussianBlur
         stdDeviation="0.61875"
         id="feGaussianBlur1" /></filter><filter
       id="filter1057-3"
       x="-0.026999999"
       y="-0.026999999"
       width="1.054"
       height="1.054"
       color-interpolation-filters="sRGB"><feGaussianBlur
         stdDeviation="0.61875"
         id="feGaussianBlur1-6" /></filter><linearGradient
       id="linearGradient1053"
       x1="-127"
       x2="-72"
       y1="60"
       y2="5"
       gradientTransform="matrix(1.0000071,0,0,1.0000071,131.53356,-0.51043605)"
       gradientUnits="userSpaceOnUse"><stop
         stop-color="#dee0e2"
         offset="0"
         id="stop1-7" /><stop
         stop-color="#f1f3f5"
         stop-opacity=".99608"
         offset="1"
         id="stop2-5" /></linearGradient></defs><rect
     transform="matrix(1.0000071,0,0,1.0000071,-2.2781468e-4,-2.2781468e-4)"
     x="4.5"
     y="4.5"
     width="55"
     height="55"
     ry="15"
     fill="#141414"
     filter="url(#filter1057)"
     opacity="0.3"
     stroke-linecap="round"
     stroke-width="2.7444"
     id="rect2-3"
     style="filter:url(#filter1057-3)" /><rect
     width="54.095116"
     height="41.535839"
     x="-59.047581"
     y="-59.01656"
     fill="url(#a)"
     rx="12.559278"
     ry="12.559278"
     style="display:inline;fill:url(#j);fill-opacity:1;stroke-width:0.965949"
     id="rect17"
     transform="scale(-1)" /><rect
     width="48.437588"
     height="35.684399"
     x="-56.220268"
     y="-44.524021"
     fill="url(#a)"
     rx="9.9749546"
     ry="9.570776"
     style="fill:url(#k);fill-opacity:1;stroke-width:0.981014"
     id="rect18"
     transform="scale(-1)" /><rect
     width="48.439548"
     height="11.664262"
     x="7.7807198"
     y="26.136869"
     ry="0"
     style="fill:url(#l);fill-opacity:1;stroke-width:9.21486;stroke-linecap:round;stroke-linejoin:round;paint-order:markers stroke fill"
     id="rect19" /><rect
     width="42.596146"
     height="11.664262"
     x="10.466239"
     y="45.010605"
     ry="0"
     style="display:inline;fill:url(#m);fill-opacity:1;stroke-width:8.6412;stroke-linecap:round;stroke-linejoin:round;paint-order:markers stroke fill"
     id="rect20" /><g
     style="display:inline"
     id="g56"
     transform="matrix(-0.98101442,0,0,-0.98101442,212.94027,56.465911)"><path
       d="m 28,32 h 72 V 52 H 28 Z m 0,44 h 72 V 96 H 28 Z m 0,0"
       style="fill:#bd8f6b;fill-opacity:1;fill-rule:nonzero;stroke:none"
       transform="matrix(0.6817,0,0,0.44676,140.636,-6.289)"
       id="path20" /><path
       d="m 92,18 h -8 v 34 h 8 z m 0,0"
       style="fill:#3382e3;fill-opacity:1;fill-rule:nonzero;stroke:none"
       transform="matrix(0.6817,0,0,0.44676,140.636,-6.289)"
       id="path21" /><path
       d="M 81.938,21 C 80.855,21.016 80,21.46 80,22 v 30 h 4 V 22 c 0,-0.55 -0.895,-1 -2,-1 z m 0,0"
       style="fill:#ff7800;fill-opacity:1;fill-rule:nonzero;stroke:none"
       transform="matrix(0.6817,0,0,0.44676,140.636,-6.289)"
       id="path22" /><path
       d="M 77.938,21 C 76.855,21.016 76,21.46 76,22 v 30 h 4 V 22 c 0,-0.55 -0.895,-1 -2,-1 z m 0,0"
       style="fill:#f8f068;fill-opacity:1;fill-rule:nonzero;stroke:none"
       transform="matrix(0.6817,0,0,0.44676,140.636,-6.289)"
       id="path23" /><path
       d="m 76,18 h -4 v 34 h 4 z m 0,0"
       style="fill:#195eb3;fill-opacity:1;fill-rule:nonzero;stroke:none"
       transform="matrix(0.6817,0,0,0.44676,140.636,-6.289)"
       id="path24" /><path
       d="m 100,22 h -8 v 30 h 8 z m 0,0"
       style="fill:#ffffff;fill-opacity:1;fill-rule:nonzero;stroke:none"
       transform="matrix(0.6817,0,0,0.44676,140.636,-6.289)"
       id="path25" /><path
       d="m 100,41 h -8 v 11 h 8 z m 0,0"
       style="fill:#ff7800;fill-opacity:1;fill-rule:nonzero;stroke:none"
       transform="matrix(0.6817,0,0,0.44676,140.636,-6.289)"
       id="path26" /><path
       d="m 84,22 h 8 v 6 h -8 z m 0,25 h 8 v 2.984 h -8 z m 0,-3 h 8 v 1 h -8 z m 0,0"
       style="fill:#195eb3;fill-opacity:1;fill-rule:nonzero;stroke:none"
       transform="matrix(0.6817,0,0,0.44676,140.636,-6.289)"
       id="path27" /><path
       d="m 100,37 h -8 v 2 h 8 z m 0,0"
       style="fill:#ff7800;fill-opacity:1;fill-rule:nonzero;stroke:none"
       transform="matrix(0.6817,0,0,0.44676,140.636,-6.289)"
       id="path28" /><path
       d="m 65,19 a 45,45 0 0 0 -3.5,0.133 C 59.336,19.313 58.004,19.645 58,20 V 52 H 72 V 20 c 0,-0.355 -1.336,-0.687 -3.5,-0.867 A 45,45 0 0 0 65,19 m 0,0"
       style="fill:#eb333a;fill-opacity:1;fill-rule:nonzero;stroke:none"
       transform="matrix(0.6817,0,0,0.44676,140.636,-6.289)"
       id="path29" /><path
       d="m 62.5,40.5 a 2.5,2.5 0 1 0 5,0 2.5,2.5 0 0 0 -5,0 M 65,25 a 45,45 0 0 0 -3.5,0.133 C 59.336,25.313 58.004,25.645 58,26 v 8 c 0.004,-0.355 1.336,-0.687 3.5,-0.867 A 45,45 0 0 1 65,33 c 1.21,0 2.418,0.047 3.5,0.133 2.164,0.18 3.5,0.512 3.5,0.867 v -8 c 0,-0.355 -1.336,-0.687 -3.5,-0.867 A 45,45 0 0 0 65,25 m 0,22 a 45,45 0 0 0 -3.5,0.133 C 59.336,47.313 58.004,47.645 58,48 v 2 c 0.004,-0.355 1.336,-0.687 3.5,-0.867 A 45,45 0 0 1 65,49 c 1.21,0 2.418,0.047 3.5,0.133 2.164,0.18 3.5,0.512 3.5,0.867 v -2 c 0,-0.355 -1.336,-0.687 -3.5,-0.867 A 45,45 0 0 0 65,47 m 0,0"
       style="fill:#bf1926;fill-opacity:1;fill-rule:nonzero;stroke:none"
       transform="matrix(0.6817,0,0,0.44676,140.636,-6.289)"
       id="path30" /><path
       d="m 32,20 h 6 v 32 h -6 z m 0,0"
       style="fill:#ff7800;fill-opacity:1;fill-rule:nonzero;stroke:none"
       transform="matrix(0.6817,0,0,0.44676,140.636,-6.289)"
       id="path31" /><path
       d="m 44,24 h 4 v 28 h -4 z m 0,0"
       style="fill:#de1923;fill-opacity:1;fill-rule:nonzero;stroke:none"
       transform="matrix(0.6817,0,0,0.44676,140.636,-6.289)"
       id="path32" /><path
       d="m 28,22 h 4 v 30 h -4 z m 0,0"
       style="fill:#195eb3;fill-opacity:1;fill-rule:nonzero;stroke:none"
       transform="matrix(0.6817,0,0,0.44676,140.636,-6.289)"
       id="path33" /><path
       d="m 37,48 a 2,2 0 1 1 -4,0 2,2 0 1 1 4,0 m 0,0"
       style="fill:#c54500;fill-opacity:1;fill-rule:nonzero;stroke:none"
       transform="matrix(0.6817,0,0,0.44676,140.636,-6.289)"
       id="path34" /><path
       d="m 41,17 c 0.52,0 1.035,0.043 1.5,0.133 0.93,0.18 1.5,0.512 1.5,0.867 V 52 H 38 V 18 c 0,-0.355 0.574,-0.687 1.5,-0.867 A 8.4,8.4 0 0 1 41,17 m 0,0"
       style="fill:#2ec27d;fill-opacity:1;fill-rule:nonzero;stroke:none"
       transform="matrix(0.6817,0,0,0.44676,140.636,-6.289)"
       id="path35" /><path
       d="m 53,21 c -2.762,0 -5,0.45 -5,1 V 52 H 58 V 22 c 0,-0.55 -2.238,-1 -5,-1 m 0,0"
       style="fill:#dedcd9;fill-opacity:1;fill-rule:nonzero;stroke:none"
       transform="matrix(0.6817,0,0,0.44676,140.636,-6.289)"
       id="path36" /><path
       d="m 53,24 c -2.762,0 -5,0.45 -5,1 v 2 c 0,-0.55 2.238,-1 5,-1 2.762,0 5,0.45 5,1 v -2 c 0,-0.55 -2.238,-1 -5,-1 m 0,20 c -2.762,0 -5,0.45 -5,1 v 4 c 0,-0.55 2.238,-1 5,-1 2.762,0 5,0.45 5,1 v -4 c 0,-0.55 -2.238,-1 -5,-1 m 0,0"
       style="fill:#5c5c63;fill-opacity:1;fill-rule:nonzero;stroke:none"
       transform="matrix(0.6817,0,0,0.44676,140.636,-6.289)"
       id="path37" /><path
       d="m 41,25 c -0.516,0 -1.035,0.043 -1.5,0.133 C 38.574,25.313 38,25.645 38,26 v 16 c 0,-0.355 0.574,-0.687 1.5,-0.867 A 8.4,8.4 0 0 1 41,41 c 0.52,0 1.035,0.043 1.5,0.133 0.93,0.18 1.5,0.512 1.5,0.867 V 26 c 0,-0.355 -0.57,-0.687 -1.5,-0.867 A 8.4,8.4 0 0 0 41,25 m 0,0"
       style="fill:#23a168;fill-opacity:1;fill-rule:nonzero;stroke:none"
       transform="matrix(0.6817,0,0,0.44676,140.636,-6.289)"
       id="path38" /><path
       d="m 52,30 h 2 v 10 h -2 z m 0,0"
       style="fill:#5c5c63;fill-opacity:1;fill-rule:nonzero;stroke:none"
       transform="matrix(0.6817,0,0,0.44676,140.636,-6.289)"
       id="path39" /><path
       d="m 52,30 h 2 v 10 h -2 z m 0,0"
       style="fill:#999994;fill-opacity:1;fill-rule:nonzero;stroke:none"
       transform="matrix(0.6817,0,0,0.44676,140.636,-6.289)"
       id="path40" /><path
       d="m 59,63 c -0.516,0 -1.035,0.043 -1.5,0.133 C 56.574,63.313 56,63.645 56,64 v 32 h 6 V 64 c 0,-0.355 -0.57,-0.687 -1.5,-0.867 A 8.4,8.4 0 0 0 59,63 m 0,0"
       style="fill:#3a3545;fill-opacity:1;fill-rule:nonzero;stroke:none"
       transform="matrix(0.6817,0,0,0.44676,140.636,-6.289)"
       id="path41" /><path
       d="M 72,66 H 62 v 30 h 10 z m 0,0"
       style="fill:#f5d12b;fill-opacity:1;fill-rule:nonzero;stroke:none"
       transform="matrix(0.6817,0,0,0.44676,140.636,-6.289)"
       id="path42" /><path
       d="M 56,62 H 44 v 34 h 12 z m 0,0"
       style="fill:#3382e3;fill-opacity:1;fill-rule:nonzero;stroke:none"
       transform="matrix(0.6817,0,0,0.44676,140.636,-6.289)"
       id="path43" /><path
       d="M 72,90 H 62 v 2 h 10 z m 0,3 H 62 v 1 h 10 z m 0,0"
       style="fill:#75757a;fill-opacity:1;fill-rule:nonzero;stroke:none"
       transform="matrix(0.6817,0,0,0.44676,140.636,-6.289)"
       id="path44" /><path
       d="m 54,66 h -8 v 4 h 8 z m 0,0"
       style="fill:#195eb3;fill-opacity:1;fill-rule:nonzero;stroke:none"
       transform="matrix(0.6817,0,0,0.44676,140.636,-6.289)"
       id="path45" /><path
       d="m 28,62 h 8 v 34 h -8 z m 44,4 h 8 v 30 h -8 z m 0,0"
       style="fill:#eb333a;fill-opacity:1;fill-rule:nonzero;stroke:none"
       transform="matrix(0.6817,0,0,0.44676,140.636,-6.289)"
       id="path46" /><path
       d="m 36,66 h 8 v 30 h -8 z m 0,0"
       style="fill:#ffffff;fill-opacity:1;fill-rule:nonzero;stroke:none"
       transform="matrix(0.6817,0,0,0.44676,140.636,-6.289)"
       id="path47" /><path
       d="m 36,85 h 8 v 11 h -8 z m 0,0"
       style="fill:#bf61ca;fill-opacity:1;fill-rule:nonzero;stroke:none"
       transform="matrix(0.6817,0,0,0.44676,140.636,-6.289)"
       id="path48" /><path
       d="m 36,66 h -8 v 6 h 8 z m 0,25 h -8 v 2.984 h 8 z m 0,-3 h -8 v 1 h 8 z m 0,0"
       style="fill:#5c5c63;fill-opacity:1;fill-rule:nonzero;stroke:none"
       transform="matrix(0.6817,0,0,0.44676,140.636,-6.289)"
       id="path49" /><path
       d="m 36,81 h 8 v 2 h -8 z m 0,0"
       style="fill:#bf61ca;fill-opacity:1;fill-rule:nonzero;stroke:none"
       transform="matrix(0.6817,0,0,0.44676,140.636,-6.289)"
       id="path50" /><path
       d="m 80,62 h 4 v 34 h -4 z m 0,0"
       style="fill:#3382e3;fill-opacity:1;fill-rule:nonzero;stroke:none"
       transform="matrix(0.6817,0,0,0.44676,140.636,-6.289)"
       id="path51" /><path
       d="m 80,64 h 4 v 6 h -4 z m 0,8 h 4 v 2 h -4 z m 0,0"
       style="fill:#195eb3;fill-opacity:1;fill-rule:nonzero;stroke:none"
       transform="matrix(0.6817,0,0,0.44676,140.636,-6.289)"
       id="path52" /><path
       d="m 97,63 c -0.516,0 -1.035,0.043 -1.5,0.133 C 94.574,63.313 94,63.645 94,64 v 32 h 6 V 64 c 0,-0.355 -0.57,-0.687 -1.5,-0.867 A 8.4,8.4 0 0 0 97,63 m 0,0"
       style="fill:#8f3fab;fill-opacity:1;fill-rule:nonzero;stroke:none"
       transform="matrix(0.6817,0,0,0.44676,140.636,-6.289)"
       id="path53" /><path
       d="m 89,66 c -0.863,0 -1.727,0.043 -2.5,0.133 C 84.953,66.313 84.004,66.645 84,67 V 96 H 94 V 67 c 0,-0.355 -0.953,-0.687 -2.5,-0.867 A 23,23 0 0 0 89,66 m 0,0"
       style="fill:#57e387;fill-opacity:1;fill-rule:nonzero;stroke:none"
       transform="matrix(0.6817,0,0,0.44676,140.636,-6.289)"
       id="path54" /><path
       d="m 96,68 h 2 v 24 h -2 z m 0,0"
       style="fill:#613382;fill-opacity:1;fill-rule:nonzero;stroke:none"
       transform="matrix(0.6817,0,0,0.44676,140.636,-6.289)"
       id="path55" /><path
       d="m 75,78 h 2 v 10 h -2 z m -3,-8 h 8 v 3 h -8 z m 0,0"
       style="fill:#a31c2b;fill-opacity:1;fill-rule:nonzero;stroke:none"
       transform="matrix(0.6817,0,0,0.44676,140.636,-6.289)"
       id="path56" /></g><rect
     width="48.840782"
     height="11.744705"
     x="7.495244"
     y="20.14287"
     ry="3.7935829"
     style="display:inline;opacity:0.338168;fill:url(#n);fill-opacity:1;stroke-width:5.19643;stroke-linecap:round;stroke-linejoin:round;paint-order:markers stroke fill"
     id="rect56" /><rect
     width="48.840782"
     height="11.744705"
     x="7.7100954"
     y="39.746483"
     ry="0"
     style="display:inline;opacity:0.338168;fill:url(#q);fill-opacity:1;stroke-width:5.19643;stroke-linecap:round;stroke-linejoin:round;paint-order:markers stroke fill"
     id="rect57" /><path
     d="M 17.27068,17.011018 A 12.740603,12.740603 0 0 0 4.5006143,29.780102 V 46.473601 A 12.740603,12.740603 0 0 0 17.27068,59.240723 H 46.7313 A 12.740603,12.740603 0 0 0 59.500383,46.47262 V 29.780102 A 12.740603,12.740603 0 0 0 46.7313,17.012 Z m 0.471401,3.253652 h 28.516836 c 5.532091,0 9.987815,4.273056 9.987815,9.581231 v 6.422844 H 7.7542656 v -6.422844 c 0,-5.308175 4.4547424,-9.581231 9.9878154,-9.581231 M 7.7542656,39.982995 H 56.246732 v 6.423825 c 0,5.308176 -4.455724,9.581233 -9.987815,9.581233 H 17.742081 c -5.533073,0 -9.9878154,-4.273057 -9.9878154,-9.581233 z"
     style="fill:url(#r);fill-opacity:1;stroke-width:5.54012;stroke-linecap:round;stroke-linejoin:round;paint-order:markers stroke fill"
     id="path57" /><path
     id="path60"
     style="display:inline;fill:url(#s);stroke-width:0.982073"
     d="M 19.343766,4.4722051 C 11.163588,4.564312 4.5935429,11.134182 4.5015762,19.314394 V 29.952828 A 12.74045,12.74045 0 0 1 17.271216,17.23989 h 29.459527 a 12.74045,12.74045 0 0 1 12.76964,12.712938 V 18.11779 C 58.817755,10.502411 52.496217,4.5597768 44.718806,4.4722051 Z" /></svg>
