<?xml version="1.0" encoding="UTF-8" standalone="no"?>
<svg
   xmlns:dc="http://purl.org/dc/elements/1.1/"
   xmlns:cc="http://creativecommons.org/ns#"
   xmlns:rdf="http://www.w3.org/1999/02/22-rdf-syntax-ns#"
   xmlns:svg="http://www.w3.org/2000/svg"
   xmlns="http://www.w3.org/2000/svg"
   xmlns:xlink="http://www.w3.org/1999/xlink"
   xmlns:sodipodi="http://sodipodi.sourceforge.net/DTD/sodipodi-0.dtd"
   xmlns:inkscape="http://www.inkscape.org/namespaces/inkscape"
   width="64"
   height="64"
   version="1.1"
   id="svg69"
   sodipodi:docname="com.github.maoschanz.drawing.svg"
   inkscape:version="1.0.1 (3bc2e813f5, 2020-09-07)">
  <sodipodi:namedview
     pagecolor="#ffffff"
     bordercolor="#666666"
     borderopacity="1"
     objecttolerance="10"
     gridtolerance="10"
     guidetolerance="10"
     inkscape:pageopacity="0"
     inkscape:pageshadow="2"
     inkscape:window-width="1920"
     inkscape:window-height="932"
     id="namedview71"
     showgrid="false"
     inkscape:zoom="8.4521357"
     inkscape:cx="38.950573"
     inkscape:cy="33.2071"
     inkscape:window-x="0"
     inkscape:window-y="36"
     inkscape:window-maximized="1"
     inkscape:current-layer="svg69"
     inkscape:snap-bbox="true"
     inkscape:bbox-nodes="true"
     inkscape:snap-bbox-edge-midpoints="true"
     inkscape:snap-smooth-nodes="true" />
  <metadata
     id="metadata2">
    <rdf:RDF>
      <cc:Work
         rdf:about="">
        <dc:format>image/svg+xml</dc:format>
        <dc:type
           rdf:resource="http://purl.org/dc/dcmitype/StillImage" />
        <dc:title></dc:title>
      </cc:Work>
    </rdf:RDF>
  </metadata>
  <defs
     id="defs25">
    <linearGradient
       inkscape:collect="always"
       id="linearGradient1127">
      <stop
         style="stop-color:#e2e4e6;stop-opacity:1"
         offset="0"
         id="stop1123" />
      <stop
         style="stop-color:#ffffff;stop-opacity:0.99704713"
         offset="1"
         id="stop1125" />
    </linearGradient>
    <linearGradient
       id="linearGradient1063"
       x1="8.5858"
       x2="16.465"
       y1="-5.5948"
       y2="-13.703"
       gradientUnits="userSpaceOnUse"
       gradientTransform="matrix(3.7796,0,0,3.7796,-16.898,66.534)">
      <stop
         stop-color="#f5f5f5"
         offset="0"
         id="stop4" />
      <stop
         stop-color="#fff"
         offset="1"
         id="stop6" />
    </linearGradient>
    <linearGradient
       id="linearGradient1071"
       x1="8.9222"
       x2="15.926"
       y1="-5.3552"
       y2="-11.992"
       gradientUnits="userSpaceOnUse"
       gradientTransform="matrix(3.7796,0,0,3.7796,16.224815,66.534)">
      <stop
         stop-color="#ffdc96"
         offset="0"
         id="stop9"
         style="stop-color:#e2e4e6;stop-opacity:1" />
      <stop
         stop-color="#fff"
         offset="1"
         id="stop11" />
    </linearGradient>
    <filter
       id="filter1091"
       x="-.084016"
       y="-.084016"
       width="1.168"
       height="1.168"
       color-interpolation-filters="sRGB">
      <feGaussianBlur
         stdDeviation="0.30215974"
         id="feGaussianBlur14" />
    </filter>
    <filter
       id="filter2761-3"
       x="-.024"
       y="-.024"
       width="1.048"
       height="1.048"
       color-interpolation-filters="sRGB">
      <feGaussianBlur
         stdDeviation="0.14552168"
         id="feGaussianBlur17" />
    </filter>
    <linearGradient
       id="linearGradient1024-3"
       x1="1.3315"
       x2="15.65"
       y1="15.576"
       y2="1.17"
       gradientTransform="matrix(3.7796,0,0,3.7796,7.4298223,-16.574053)"
       gradientUnits="userSpaceOnUse">
      <stop
         stop-color="#dddfe1"
         offset="0"
         id="stop20" />
      <stop
         stop-color="#f3f4f6"
         stop-opacity=".99608"
         offset="1"
         id="stop22" />
    </linearGradient>
    <filter
       id="filter2761-3-6"
       x="-.024"
       y="-.024"
       width="1.048"
       height="1.048"
       color-interpolation-filters="sRGB">
      <feGaussianBlur
         stdDeviation="0.14552168"
         id="feGaussianBlur4" />
    </filter>
    <linearGradient
       id="linearGradient1024"
       x1="1.3315"
       x2="15.65"
       y1="15.576"
       y2="1.17"
       gradientTransform="translate(-.00084984 .14045)"
       gradientUnits="userSpaceOnUse">
      <stop
         stop-color="#dddfe1"
         offset="0"
         id="stop7" />
      <stop
         stop-color="#f3f4f6"
         stop-opacity=".99608"
         offset="1"
         id="stop9-7" />
    </linearGradient>
    <filter
       color-interpolation-filters="sRGB"
       height="1.048"
       width="1.048"
       y="-.024"
       x="-.024"
       id="filter2761-3-3">
      <feGaussianBlur
         id="feGaussianBlur2"
         stdDeviation="0.14552168" />
    </filter>
    <linearGradient
       gradientUnits="userSpaceOnUse"
       gradientTransform="matrix(3.7796 0 0 3.7796 -.0026448 .53066)"
       y2="1.17"
       y1="15.576"
       x2="15.65"
       x1="1.3315"
       id="linearGradient1024-6">
      <stop
         id="stop5"
         offset="0"
         stop-color="#dddfe1" />
      <stop
         id="stop7-7"
         offset="1"
         stop-opacity=".99608"
         stop-color="#f3f4f6" />
    </linearGradient>
    <filter
       inkscape:collect="always"
       style="color-interpolation-filters:sRGB"
       id="filter1057"
       x="-0.027000001"
       width="1.054"
       y="-0.027000001"
       height="1.054">
      <feGaussianBlur
         inkscape:collect="always"
         stdDeviation="0.61875"
         id="feGaussianBlur1059" />
    </filter>
    <linearGradient
       inkscape:collect="always"
       xlink:href="#linearGradient1051"
       id="linearGradient1053"
       x1="-127"
       y1="60"
       x2="-72"
       y2="5"
       gradientUnits="userSpaceOnUse"
       gradientTransform="translate(131.5,-0.5099971)" />
    <linearGradient
       inkscape:collect="always"
       id="linearGradient1051">
      <stop
         style="stop-color:#dee0e2;stop-opacity:1"
         offset="0"
         id="stop1047" />
      <stop
         style="stop-color:#f1f3f5;stop-opacity:0.99607843"
         offset="1"
         id="stop1049" />
    </linearGradient>
    <linearGradient
       inkscape:collect="always"
       xlink:href="#linearGradient1127"
       id="linearGradient1129"
       x1="31.99684"
       y1="46.315933"
       x2="55.194225"
       y2="23.118547"
       gradientUnits="userSpaceOnUse"
       gradientTransform="translate(-14.912692,8.86e-4)" />
  </defs>
  <rect
     ry="15"
     y="4.4999995"
     x="4.4999995"
     height="55"
     width="55"
     id="rect1055"
     style="opacity:0.3;fill:#141414;fill-opacity:1;stroke-width:2.74436;stroke-linecap:round;filter:url(#filter1057)" />
  <rect
     style="fill:url(#linearGradient1053);fill-opacity:1;stroke-width:2.74436;stroke-linecap:round"
     id="rect1045"
     width="54.999996"
     height="54.999996"
     x="4.5000019"
     y="4.5000019"
     ry="14.999999" />
  <g
     fill="#5e4aa6"
     id="g43">
    <circle
       cx="-1325.3"
       cy="-1259.1"
       r="0"
       id="circle31" />
    <circle
       cx="-1239.1"
       cy="-1274.8"
       r="0"
       id="circle33" />
    <circle
       cx="-1325.3"
       cy="-1259.1"
       r="0"
       id="circle35" />
    <circle
       cx="-1325.4"
       cy="-1259.5"
       r="0"
       id="circle37" />
    <circle
       cx="-1239.2"
       cy="-1275.3"
       r="0"
       id="circle39" />
    <circle
       cx="-1248.7"
       cy="-1241.6"
       r="0"
       id="circle41" />
  </g>
  <circle
     cx="-149.15"
     cy="23.855"
     r="0"
     fill="#5e4aa6"
     fill-rule="evenodd"
     id="circle45" />
  <g
     transform="matrix(4.9158 0 0 5.0647 -9.6223 -8.64)"
     fill="#c8c8c8"
     id="g55">
    <path
       d="m3.9856 6.9374c-0.00585 0.029589-0.00947 0.060448-0.015081 0.09077h8.9931c-0.0053-0.030317-0.0092-0.061202-0.01567-0.09077z"
       stroke-width=".60512"
       style="paint-order:normal"
       id="path47" />
    <path
       d="m4.1332 4.9655c0.00521 0.030317 0.010173 0.060579 0.015962 0.09077h8.6371c0.0054-0.032616 0.01-0.058576 0.01482-0.09077z"
       stroke-width=".59404"
       style="paint-order:normal"
       id="path49" />
    <path
       d="m3.9856 8.9093c-0.00585 0.029589-0.00947 0.060448-0.015081 0.09077h8.9931c-0.0053-0.030317-0.0092-0.061202-0.01567-0.09077z"
       stroke-width=".60512"
       style="paint-order:normal"
       id="path51" />
    <path
       d="m3.9856 10.881c-0.00585 0.02959-0.00947 0.06045-0.015081 0.09077h8.9931c-0.0053-0.03032-0.0092-0.0612-0.01567-0.09077z"
       stroke-width=".60512"
       style="paint-order:normal"
       id="path53" />
  </g>
  <g
     transform="matrix(3.7363 0 0 3.5947 -16.067 65.631)"
     fill="#f08705"
     filter="url(#filter1091)"
     opacity=".5"
     id="g61"
     style="fill:#6a737c;fill-opacity:1">
    <path
       d="m8.8145-5.537s-0.19283-0.13005-0.19283-0.19731c0-0.067264 0.5286-1.9107 0.58567-2.0122 0.057077-0.10147 6.1025-6.1025 6.1025-6.1025s0.27603-0.21726 0.44643-0.08272c0.17041 0.13453 0.74406 0.74406 0.74406 0.74406z"
       id="path57"
       style="fill:#6a737c;fill-opacity:1" />
    <path
       d="m8.8145-5.537s0.13005 0.19283 0.19731 0.19283c0.067264 0 1.9107-0.5286 2.0122-0.58567 0.10147-0.057077 6.1025-6.1025 6.1025-6.1025s0.21725-0.27603 0.08272-0.44643c-0.13453-0.17041-0.74406-0.74406-0.74406-0.74406z"
       id="path59"
       style="fill:#6a737c;fill-opacity:1" />
  </g>
  <path
     d="m 16.417284,45.606355 c 0,0 -0.72882,-0.491537 -0.72882,-0.745753 0,-0.254231 1.997896,-7.221682 2.213598,-7.605311 0.215728,-0.383516 23.065009,-23.065009 23.065009,-23.065009 0,0 1.043283,-0.821156 1.687327,-0.312649 0.644082,0.50847 2.812249,2.812249 2.812249,2.812249 z"
     fill="url(#linearGradient1063)"
     id="path63"
     style="fill:url(#linearGradient1063);stroke-width:3.7796" />
  <path
     id="rect1119"
     style="opacity:1;fill:url(#linearGradient1129);fill-opacity:1;stroke-width:2"
     d="M 45.333298,16.557527 16.417284,45.606355 c 0,0 0.489925,0.730468 0.744141,0.730469 0.254231,0 7.22184,-1.999142 7.605469,-2.214844 0.383516,-0.215728 23.066404,-23.064453 23.066404,-23.064453 0,0 0.82097,-1.043456 0.3125,-1.6875 -0.50847,-0.644082 -2.8125,-2.8125 -2.8125,-2.8125 z" />
</svg>
