<?xml version="1.0" encoding="UTF-8" standalone="no"?>
<svg
   width="64"
   height="64"
   viewBox="0 0 16.933 16.933"
   version="1.1"
   id="svg53"
   sodipodi:docname="com.github.xournalpp.xournalpp.svg"
   xml:space="preserve"
   inkscape:version="1.4.2 (ebf0e940d0, 2025-05-08)"
   xmlns:inkscape="http://www.inkscape.org/namespaces/inkscape"
   xmlns:sodipodi="http://sodipodi.sourceforge.net/DTD/sodipodi-0.dtd"
   xmlns="http://www.w3.org/2000/svg"
   xmlns:svg="http://www.w3.org/2000/svg"><sodipodi:namedview
     id="namedview53"
     pagecolor="#505050"
     bordercolor="#eeeeee"
     borderopacity="1"
     inkscape:showpageshadow="0"
     inkscape:pageopacity="0"
     inkscape:pagecheckerboard="0"
     inkscape:deskcolor="#505050"
     inkscape:zoom="2.1157961"
     inkscape:cx="-12.052201"
     inkscape:cy="60.497324"
     inkscape:window-width="1920"
     inkscape:window-height="1003"
     inkscape:window-x="0"
     inkscape:window-y="0"
     inkscape:window-maximized="1"
     inkscape:current-layer="svg53" /><defs
     id="defs31"><linearGradient
       id="b"
       x1="17.367"
       x2="17.367"
       y1="10.635"
       y2="10.254"
       gradientTransform="matrix(1 0 0 .66667 -.434 3.49)"
       gradientUnits="userSpaceOnUse"><stop
         offset="0"
         stop-color="#212020"
         id="stop1" /><stop
         offset=".633"
         stop-color="#1c2328"
         id="stop2" /><stop
         offset="1"
         stop-color="#212020"
         id="stop3" /></linearGradient><linearGradient
       id="c"
       x1="17.367"
       x2="17.367"
       y1="10.635"
       y2="10.254"
       gradientUnits="userSpaceOnUse"><stop
         offset="0"
         stop-color="#212020"
         id="stop4" /><stop
         offset=".284"
         stop-color="#212020"
         id="stop5" /><stop
         offset=".635"
         stop-color="#374550"
         id="stop6" /><stop
         offset=".793"
         stop-color="#374550"
         id="stop7" /><stop
         offset="1"
         stop-color="#212020"
         id="stop8" /></linearGradient><linearGradient
       id="d"
       x1="30.946"
       x2="30.946"
       y1="11.199"
       y2="9.364"
       gradientTransform="matrix(1 0 0 .54079 3.25 4.869)"
       gradientUnits="userSpaceOnUse"><stop
         offset="0"
         stop-color="#212020"
         id="stop9" /><stop
         offset=".284"
         stop-color="#212020"
         id="stop10" /><stop
         offset=".635"
         stop-color="#374550"
         id="stop11" /><stop
         offset=".679"
         stop-color="#fefefe"
         id="stop12" /><stop
         offset=".767"
         stop-color="#fff"
         id="stop13" /><stop
         offset=".793"
         stop-color="#374550"
         id="stop14" /><stop
         offset="1"
         stop-color="#212020"
         id="stop15" /></linearGradient><linearGradient
       id="e"
       x1="25.135"
       x2="25.135"
       y1="11.222"
       y2="9.39"
       gradientTransform="translate(2.182 .144)"
       gradientUnits="userSpaceOnUse"><stop
         offset="0"
         stop-color="#212020"
         id="stop16" /><stop
         offset=".284"
         stop-color="#212020"
         id="stop17" /><stop
         offset=".635"
         stop-color="#5d7788"
         id="stop18" /><stop
         offset=".679"
         stop-color="#fff"
         id="stop19" /><stop
         offset=".767"
         stop-color="#fff"
         id="stop20" /><stop
         offset=".793"
         stop-color="#374550"
         id="stop21" /><stop
         offset="1"
         stop-color="#212020"
         id="stop22" /></linearGradient><linearGradient
       id="f"
       x1="81.162"
       x2="81.162"
       y1="42.393"
       y2="35.405"
       gradientTransform="translate(2.182 .144)scale(.26458)"
       gradientUnits="userSpaceOnUse"><stop
         offset="0"
         stop-color="#212020"
         id="stop23" /><stop
         offset=".51"
         stop-color="#688297"
         id="stop24" /><stop
         offset="1"
         stop-color="#212020"
         id="stop25" /></linearGradient><linearGradient
       id="g"
       x1="25.135"
       x2="25.135"
       y1="11.222"
       y2="9.39"
       gradientTransform="translate(-10.229 .144)"
       gradientUnits="userSpaceOnUse"><stop
         offset="0"
         stop-color="#212020"
         id="stop26" /><stop
         offset=".284"
         stop-color="#212020"
         id="stop27" /><stop
         offset=".635"
         stop-color="#374550"
         id="stop28" /><stop
         offset="1"
         stop-color="#212020"
         id="stop29" /></linearGradient><linearGradient
       id="a"
       x1="7.937"
       x2="7.937"
       y1="15.081"
       y2="1.852"
       gradientUnits="userSpaceOnUse"><stop
         offset="0"
         stop-color="#f1efeb"
         id="stop30" /><stop
         offset="1"
         stop-color="#fdfcfc"
         id="stop31" /></linearGradient><filter
       id="filter2076"
       x="-0.048000001"
       y="-0.048000001"
       width="1.096"
       height="1.096"
       color-interpolation-filters="sRGB"><feGaussianBlur
         stdDeviation="1.1"
         id="feGaussianBlur104" /></filter><linearGradient
       id="linearGradient2070"
       x1="145"
       x2="200"
       y1="59"
       y2="4"
       gradientTransform="matrix(0.26458,0,0,0.26458,-37.17306,0.13223)"
       gradientUnits="userSpaceOnUse"><stop
         stop-color="#ffc841"
         offset="0"
         id="stop102" /><stop
         stop-color="#ffbe37"
         offset=".4925"
         id="stop103" /><stop
         stop-color="#ffc841"
         offset="1"
         id="stop104" /></linearGradient><filter
       id="filter1091"
       x="-0.092043995"
       y="-0.092043995"
       width="1.184088"
       height="1.184088"
       color-interpolation-filters="sRGB"><feGaussianBlur
         stdDeviation="0.30215974"
         id="feGaussianBlur54" /></filter><linearGradient
       id="linearGradient984"
       x1="8.5858002"
       x2="16.465"
       y1="-5.5948"
       y2="-13.703"
       gradientUnits="userSpaceOnUse"
       gradientTransform="rotate(-15,73.692796,1.9986935)"><stop
         stop-color="#f5f5f5"
         offset="0"
         id="stop1-3" /><stop
         stop-color="#fff"
         offset="1"
         id="stop2-6" /></linearGradient><linearGradient
       id="linearGradient986"
       x1="8.9222002"
       x2="15.926"
       y1="-5.3551998"
       y2="-11.992"
       gradientUnits="userSpaceOnUse"
       gradientTransform="rotate(-15,73.692796,1.9986935)"><stop
         stop-color="#ffdc96"
         offset="0"
         id="stop3-7" /><stop
         stop-color="#fff"
         offset="1"
         id="stop4-5" /></linearGradient><linearGradient
       id="linearGradient2017"
       x1="43.383999"
       x2="43.383999"
       y1="4.1487999"
       y2="28.070999"
       gradientTransform="matrix(-0.26458,0,0,0.26458,37.758853,17.241285)"
       gradientUnits="userSpaceOnUse"><stop
         stop-color="#fff"
         offset="0"
         id="stop51" /><stop
         stop-color="#f5f5f5"
         offset="1"
         id="stop52" /></linearGradient><linearGradient
       id="linearGradient2025"
       x1="47.528"
       x2="47.528"
       y1="4.3116999"
       y2="28.186001"
       gradientTransform="matrix(-0.26458,0,0,0.26458,37.758853,17.241285)"
       gradientUnits="userSpaceOnUse"><stop
         stop-color="#fff"
         offset="0"
         id="stop53" /><stop
         stop-color="#fd9"
         offset="1"
         id="stop54" /></linearGradient></defs><rect
     transform="matrix(0.26458,0,0,0.26458,-6e-5,-6e-5)"
     x="4.5"
     y="4.5"
     width="55"
     height="55"
     rx="13.002"
     ry="13.002"
     filter="url(#filter2076)"
     opacity="0.3"
     id="rect104" /><rect
     x="1.1905397"
     y="1.1905407"
     width="14.552"
     height="14.552"
     rx="3.4400001"
     ry="3.4400001"
     fill="url(#linearGradient2070)"
     stroke-width="0.26458"
     id="rect105"
     style="fill:url(#linearGradient2070)" /><g
     transform="matrix(1.3006,0,0,1.34,-2.54506,-2.42646)"
     fill="#f08705"
     id="g108"
     style="opacity:1"><path
       d="M 3.9856,6.9374 C 3.97975,6.966989 3.97613,6.997848 3.970519,7.02817 h 8.9931 c -0.0053,-0.030317 -0.0092,-0.061202 -0.01567,-0.09077 z"
       opacity="0.6"
       stroke-width="0.60512"
       style="paint-order:normal"
       id="path105" /><path
       d="m 4.1332,4.9655 c 0.00521,0.030317 0.010173,0.060579 0.015962,0.09077 h 8.6371 c 0.0054,-0.032616 0.01,-0.058576 0.01482,-0.09077 z"
       opacity="0.6"
       stroke-width="0.59404"
       style="paint-order:normal"
       id="path106" /><path
       d="M 3.9856,8.9093 C 3.97975,8.938889 3.97613,8.969748 3.970519,9.00007 h 8.9931 c -0.0053,-0.030317 -0.0092,-0.061202 -0.01567,-0.09077 z"
       opacity="0.6"
       stroke-width="0.60512"
       style="paint-order:normal"
       id="path107" /><path
       d="m 3.9856,10.881 c -0.00585,0.02959 -0.00947,0.06045 -0.015081,0.09077 h 8.9931 c -0.0053,-0.03032 -0.0092,-0.0612 -0.01567,-0.09077 z"
       opacity="0.6"
       stroke-width="0.60512"
       style="paint-order:normal"
       id="path108" /></g><path
     fill="#3d3846"
     d="m 8.641555,6.5922247 c -0.42,0 -0.608,0.158 -1.172,1.042 l -0.796,1.258 -0.376,-1.288 c -0.232,-0.81 -0.55,-1.014 -0.926,-1.014 -0.42,0 -0.927,0.362 -1.578,1.1 -0.073,0.058 0.058,0.189 0.116,0.116 0.39,-0.405 0.723,-0.593 0.97,-0.593 0.202,0 0.492,0.1 0.723,0.868 l 0.492,1.65 -1.013,1.5050003 c -0.231,0.333 -0.449,0.434 -0.637,0.434 -0.29,0 -0.318,-0.29 -0.651,-0.29 -0.231,0 -0.39,0.145 -0.42,0.348 -0.057,0.39 0.347,0.723 0.724,0.723 0.434,0 0.622,-0.173 1.172,-1.056 l 0.897,-1.4180003 0.464,1.5650003 c 0.217,0.753 0.492,0.911 0.868,0.911 0.42,0 0.926,-0.375 1.577,-1.1 0.073,-0.072 -0.043,-0.187 -0.115,-0.13 -0.391,0.406 -0.71,0.594 -0.956,0.594 -0.217,0 -0.477,-0.058 -0.68,-0.738 l -0.579,-1.9540003 0.912,-1.331 c 0.232,-0.319 0.449,-0.434 0.637,-0.434 0.29,0 0.318,0.289 0.651,0.289 0.232,0 0.39,-0.145 0.42,-0.347 0.058,-0.377 -0.347,-0.71 -0.724,-0.71 m 0,0"
     id="path36" /><g
     id="g53"
     transform="translate(-0.41555739,0.2363881)"><path
       d="m 8.8145,-5.537 c 0,0 -0.19283,-0.13005 -0.19283,-0.19731 0,-0.067264 0.5286,-1.9107 0.58567,-2.0122 0.057077,-0.10147 6.1025,-6.1025 6.1025,-6.1025 0,0 0.27603,-0.21726 0.44643,-0.08272 0.17041,0.13453 0.74406,0.74406 0.74406,0.74406 z"
       id="path109"
       transform="matrix(0.95486598,-0.25585557,0.24615762,0.91867273,1.8143766,19.733655)"
       style="opacity:0.5;fill:#f08705;filter:url(#filter1091)" /><path
       d="m 8.8145,-5.537 c 0,0 0.13005,0.19283 0.19731,0.19283 0.067264,0 1.9107,-0.5286 2.0122,-0.58567 0.10147,-0.057077 6.1025,-6.1025 6.1025,-6.1025 0,0 0.21725,-0.27603 0.08272,-0.44643 -0.13453,-0.17041 -0.74406,-0.74406 -0.74406,-0.74406 z"
       id="path110"
       transform="matrix(0.95486598,-0.25585557,0.24615762,0.91867273,1.8143766,19.733655)"
       style="opacity:0.5;fill:#f08705;filter:url(#filter1091)" /><path
       d="m 9.0747933,11.511511 c 0,0 -0.2199188,-0.07571 -0.237327,-0.140679 -0.017408,-0.06497 0.016063,-1.9824058 0.044918,-2.0952181 0.02887,-0.1127851 4.3151197,-7.4740056 4.3151197,-7.4740056 0,0 0.210393,-0.2812988 0.409808,-0.1954459 0.199423,0.085841 0.911284,0.5261298 0.911284,0.5261298 z"
       fill="url(#linearGradient984)"
       id="path111"
       style="fill:url(#linearGradient984)" /><path
       d="m 9.0747933,11.511511 c 0,0 0.1755268,0.1526 0.2404949,0.135192 0.064972,-0.01741 1.7087828,-1.005114 1.7920538,-1.086509 0.08324,-0.0814 4.315119,-7.474006 4.315119,-7.474006 0,0 0.138405,-0.3228529 -0.03564,-0.4526278 C 15.212766,2.5037757 14.475534,2.1074304 14.475534,2.1074304 Z"
       fill="url(#linearGradient986)"
       id="path112"
       style="fill:url(#linearGradient986)" /></g></svg>
