<?xml version="1.0" encoding="UTF-8" standalone="no"?>
<svg
   width="64"
   height="64"
   version="1.1"
   id="svg6"
   sodipodi:docname="com.leinardi.gst.svg"
   inkscape:version="1.4.2 (ebf0e940d0, 2025-05-08)"
   xmlns:inkscape="http://www.inkscape.org/namespaces/inkscape"
   xmlns:sodipodi="http://sodipodi.sourceforge.net/DTD/sodipodi-0.dtd"
   xmlns:xlink="http://www.w3.org/1999/xlink"
   xmlns="http://www.w3.org/2000/svg"
   xmlns:svg="http://www.w3.org/2000/svg">
  <sodipodi:namedview
     id="namedview6"
     pagecolor="#505050"
     bordercolor="#eeeeee"
     borderopacity="1"
     inkscape:showpageshadow="0"
     inkscape:pageopacity="0"
     inkscape:pagecheckerboard="0"
     inkscape:deskcolor="#505050"
     inkscape:zoom="4.2315921"
     inkscape:cx="52.344364"
     inkscape:cy="12.288519"
     inkscape:window-width="1920"
     inkscape:window-height="1003"
     inkscape:window-x="0"
     inkscape:window-y="0"
     inkscape:window-maximized="1"
     inkscape:current-layer="svg6" />
  <defs
     id="defs2">
    <linearGradient
       id="a"
       x1="7.937"
       x2="7.937"
       y1="15.081"
       y2="1.852"
       gradientTransform="matrix(3.7796,0,0,3.7796,13.23379,-84.601726)"
       gradientUnits="userSpaceOnUse">
      <stop
         offset="0"
         stop-color="#0e71de"
         style="stop-color:#f8291a;stop-opacity:1"
         id="stop1" />
      <stop
         offset="1"
         stop-color="#25c9ff"
         style="stop-color:#fc9e5f;stop-opacity:1"
         id="stop2" />
    </linearGradient>
    <filter
       inkscape:collect="always"
       style="color-interpolation-filters:sRGB"
       id="filter1057"
       x="-0.026999999"
       width="1.054"
       y="-0.026999999"
       height="1.054">
      <feGaussianBlur
         inkscape:collect="always"
         stdDeviation="0.61875"
         id="feGaussianBlur1059" />
    </filter>
    <linearGradient
       inkscape:collect="always"
       xlink:href="#linearGradient1051"
       id="linearGradient1053"
       x1="-127"
       y1="60"
       x2="-72"
       y2="5"
       gradientUnits="userSpaceOnUse"
       gradientTransform="translate(131.5,-0.509997)" />
    <linearGradient
       inkscape:collect="always"
       id="linearGradient1051">
      <stop
         style="stop-color:#df2a2a;stop-opacity:1"
         offset="0"
         id="stop1047" />
      <stop
         style="stop-color:#f83f3f;stop-opacity:1"
         offset="1"
         id="stop1049" />
    </linearGradient>
  </defs>
  <rect
     style="opacity:0.3;fill:#141414;fill-opacity:1;stroke-width:2.74436;stroke-linecap:round;filter:url(#filter1057)"
     id="rect1055"
     width="55"
     height="55"
     x="4.5000005"
     y="4.4999995"
     ry="15" />
  <rect
     ry="14.999999"
     y="4.5000019"
     x="4.5000005"
     height="54.999996"
     width="54.999996"
     id="rect1045"
     style="fill:url(#linearGradient1053);fill-opacity:1;stroke-width:2.74436;stroke-linecap:round" />
  <g
     id="g78"
     style="opacity:0.2">
    <path
       id="path77"
       d="M 26.027344 4.5 L 23.027344 4.5 L 23.027344 16.1875 L 26.527344 19.6875 L 27.199219 19.015625 L 26.027344 19.015625 L 26.027344 4.5 z " />
    <path
       id="path75"
       d="M 31.027344 4.5 L 28.027344 4.5 L 28.027344 18.1875 L 31.199219 15.015625 L 31.027344 15.015625 L 31.027344 4.5 z " />
    <path
       id="path73"
       d="M 36.027344 4.5 L 33.027344 4.5 L 33.027344 13.1875 L 36.027344 10.1875 L 36.027344 4.5 z " />
    <path
       id="path71"
       d="M 41.027344 4.5 L 38.027344 4.5 L 38.027344 11.015625 L 27.941406 21.099609 L 29.027344 22.185547 L 41.027344 10.185547 L 41.027344 4.5 z " />
    <path
       id="path64"
       d="M 50.027344 58.457031 C 51.093146 58.0368 52.098475 57.498126 53.027344 56.857422 L 53.027344 55.712891 L 41.027344 43.714844 L 39.941406 44.800781 L 50.027344 54.884766 L 50.027344 58.457031 z " />
    <path
       id="path62"
       d="M 45.027344 59.490234 C 46.057667 59.454999 47.060972 59.317139 48.027344 59.085938 L 48.027344 55.714844 L 45.027344 52.714844 L 45.027344 59.490234 z " />
    <path
       id="path60"
       d="M 40.027344 59.5 L 43.027344 59.5 L 43.027344 50.884766 L 43.197266 50.884766 L 40.027344 47.714844 L 40.027344 59.5 z " />
    <path
       id="path58"
       d="M 35.027344 59.5 L 38.027344 59.5 L 38.027344 46.884766 L 39.197266 46.884766 L 38.527344 46.214844 L 35.027344 49.714844 L 35.027344 59.5 z " />
    <path
       id="path56"
       d="M 29.027344 59.5 L 33.027344 59.5 L 33.027344 51.714844 L 29.027344 55.714844 L 29.027344 59.5 z " />
    <path
       id="path54"
       d="M 24.027344 59.5 L 27.027344 59.5 L 27.027344 54.886719 L 33.027344 48.886719 L 33.027344 46.886719 L 35.027344 46.886719 L 37.111328 44.800781 L 36.027344 43.714844 L 24.027344 55.714844 L 24.027344 59.5 z " />
    <path
       id="path49"
       d="M 4.5390625 45.603516 C 4.612453 46.621741 4.7876897 47.611717 5.0527344 48.5625 L 10.486328 44.9375 L 10.486328 47.089844 L 5.6582031 50.310547 C 5.8133403 50.681561 5.9826774 51.04343 6.1660156 51.398438 L 8.3359375 51.398438 L 8.3359375 54.539062 C 10.062846 56.459603 12.281627 57.92921 14.796875 58.753906 L 14.796875 48.169922 L 21.255859 42.783203 L 24.486328 42.783203 L 18.027344 48.169922 L 18.027344 59.429688 C 18.511821 59.476492 19.00284 59.5 19.5 59.5 L 22.027344 59.5 L 22.027344 54.884766 L 35.462891 41.449219 L 36.027344 42.013672 L 36.591797 41.449219 L 38.527344 43.384766 L 40.462891 41.449219 L 41.027344 42.013672 L 41.591797 41.449219 L 55.027344 54.884766 L 55.027344 55.205078 C 55.446856 54.792532 55.842307 54.355985 56.210938 53.896484 L 45.177734 42.863281 L 46.591797 41.449219 L 57.371094 52.228516 C 58.152905 50.925304 58.741436 49.492868 59.099609 47.96875 L 52.486328 39.552734 L 50.335938 39.552734 L 48.181641 37.398438 L 35.226562 37.398438 L 35.462891 37.634766 L 22.998047 50.097656 A 1.5 1.5 0 0 1 23.025391 50.384766 A 1.5 1.5 0 0 1 21.525391 51.884766 A 1.5 1.5 0 0 1 20.025391 50.384766 A 1.5 1.5 0 0 1 21.376953 48.892578 L 32.869141 37.396484 L 14.796875 37.398438 L 4.5390625 45.603516 z " />
    <path
       id="path46"
       d="M 10.027344 7.8515625 C 8.4439063 9.1392336 7.1304478 10.74455 6.1816406 12.572266 L 6.1816406 16.9375 L 4.5273438 18.589844 C 4.5095236 18.890619 4.5 19.194597 4.5 19.5 L 4.5 21.716797 L 7.2578125 24.474609 L 16.845703 24.474609 L 9.3769531 17.005859 A 1.5 1.5 0 0 1 8.0273438 15.513672 A 1.5 1.5 0 0 1 9.5273438 14.013672 A 1.5 1.5 0 0 1 11.027344 15.513672 A 1.5 1.5 0 0 1 11 15.800781 L 19.673828 24.474609 L 48.181641 24.474609 L 55.71875 15.859375 L 59.058594 15.859375 C 58.968379 15.494854 58.864246 15.136503 58.748047 14.783203 L 55.71875 14.783203 L 55.71875 10.474609 L 47.103516 20.167969 L 43.873047 20.167969 L 52.488281 10.474609 L 52.488281 6.7890625 C 51.133232 5.9382096 49.631185 5.2977771 48.027344 4.9140625 L 48.027344 11.013672 L 34.589844 24.449219 L 33.175781 23.035156 L 46.027344 10.185547 L 46.027344 4.5761719 C 45.525388 4.5258661 45.015642 4.5 44.5 4.5 L 43.027344 4.5 L 43.027344 11.015625 L 29.591797 24.449219 L 29.027344 23.884766 L 28.462891 24.449219 L 26.527344 22.513672 L 24.591797 24.449219 L 24.027344 23.884766 L 23.462891 24.449219 L 10.027344 11.013672 L 10.027344 7.8515625 z " />
    <path
       id="path44"
       d="M 15.027344 5.1738281 C 13.972098 5.5009082 12.967434 5.9396363 12.027344 6.4785156 L 12.027344 10.185547 L 24.027344 22.185547 L 25.113281 21.099609 L 23.027344 19.013672 L 21.027344 19.013672 L 21.027344 17.013672 L 15.027344 11.013672 L 15.027344 5.1738281 z " />
    <path
       id="path43"
       d="M 21.027344 4.5 L 19.5 4.5 C 18.657242 4.5 17.83149 4.5688471 17.027344 4.7011719 L 17.027344 10.1875 L 21.027344 14.1875 L 21.027344 4.5 z " />
  </g>
  <g
     id="g77">
    <path
       fill="#fff"
       d="m18.441 10.957-.5 2h-.5v3.967h-4v.533l-2 .5 2 .5v.467h4v2h-4v.533l-2 .5 2 .5v.467h4v2h-4v.533l-2 .5 2 .5v.467h4v2h-4v.533l-2 .5 2 .5v.467h4v2h-4v.533l-2 .5 2 .5v.467h4v2h-4v.533l-2 .5 2 .5v.467h4v2h-4v.533l-2 .5 2 .5v.467h4v4.033h.5l.5 2 .5-2h.5v-4.033h2v4.033h.5l.5 2 .5-2h.5v-4.033h2v4.033h.5l.5 2 .5-2h.5v-4.033h2v4.033h.5l.5 2 .5-2h.5v-4.033h2v4.033h.5l.5 2 .5-2h.5v-4.033h2v4.033h.5l.5 2 .5-2h.5v-4.033h2v4.033h.5l.5 2 .5-2h.5v-4.033h4v-.467l2-.5-2-.5v-.533h-4v-2h4v-.467l2-.5-2-.5v-.533h-4v-2h4v-.467l2-.5-2-.5v-.533h-4v-2h4v-.467l2-.5-2-.5v-.533h-4v-2h4v-.467l2-.5-2-.5v-.533h-4v-2h4v-.467l2-.5-2-.5v-.533h-4v-2h4v-.467l2-.5-2-.5v-.533h-4v-3.967h-.5l-.5-2-.5 2h-.5v3.967h-2v-3.967h-.5l-.5-2-.5 2h-.5v3.967h-2v-3.967h-.5l-.5-2-.5 2h-.5v3.967h-2v-3.967h-.5l-.5-2-.5 2h-.5v3.967h-2v-3.967h-.5l-.5-2-.5 2h-.5v3.967h-2v-3.967h-.5l-.5-2-.5 2h-.5v3.967h-2v-3.967h-.5zm1 7.967h2v2h-2zm4 0h2v2h-2zm4 0h2v2h-2zm4 0h2v2h-2zm4 0h2v2h-2zm4 0h2v2h-2zm-20 4h2v2h-2zm4 0h2v2h-2zm4 0h2v2h-2zm4 0h2v2h-2zm4 0h2v2h-2zm4 0h2v2h-2zm-20 4h2v2h-2zm4 0h2v2h-2zm4 0h2v2h-2zm4 0h2v2h-2zm4 0h2v2h-2zm4 0h2v2h-2zm-20 4h2v2h-2zm4 0h2v2h-2zm4 0h2v2h-2zm4 0h2v2h-2zm4 0h2v2h-2zm4 0h2v2h-2zm-20 4h2v2h-2zm4 0h2v2h-2zm4 0h2v2h-2zm4 0h2v2h-2zm4 0h2v2h-2zm4 0h2v2h-2zm-20 4h2v2h-2zm4 0h2v2h-2zm4 0h2v2h-2zm4 0h2v2h-2zm4 0h2v2h-2zm4 0h2v2h-2z"
       style="fill:#edb913;fill-opacity:1"
       id="path3"
       transform="translate(1.559 2.043)" />
    <path
       fill="#4d4d4d"
       fill-rule="evenodd"
       d="M20 17.953h24c1.108 0 2 .892 2 2v24c0 1.108-.892 2-2 2H20c-1.108 0-2-.892-2-2v-24c0-1.108.892-2 2-2"
       id="path4" />
    <path
       fill-rule="evenodd"
       d="M19.442 18.438a.5.5 0 0 1-.5.5.5.5 0 0 1-.5-.5.5.5 0 0 1 .5-.5.5.5 0 0 1 .5.5m22.997 0a.5.5 0 0 1-.5.5.5.5 0 0 1-.5-.5.5.5 0 0 1 .5-.5.5.5 0 0 1 .5.5M19.442 41.456a.5.5 0 0 1-.5.5.5.5 0 0 1-.5-.5.5.5 0 0 1 .5-.5.5.5 0 0 1 .5.5m22.997 0a.5.5 0 0 1-.5.5.5.5 0 0 1-.5-.5.5.5 0 0 1 .5-.5.5.5 0 0 1 .5.5"
       opacity=".35"
       style="paint-order:stroke fill markers"
       id="path5"
       transform="translate(1.559 2.043)" />
    <path
       fill="#fff"
       d="M34.699 25.799c-2.722.035-5.762.791-8.211 2.23v.366c5.591-2.777 13.524-2.759 14.246 1.219.207 1.12-.32 2.273-1.324 3.08v-4.2H38.3v4.666c0 .392.153.74.538.938v.023l.019-.01c.15.074.327.128.553.149v-.398c1.443-.774 2.714-2.482 2.281-4.53-.518-2.428-3.492-3.578-6.992-3.533m-9.623 2.836v.994h1.11v-.994zm6.482.443v4.047c0 .582.38 1.174 1.28 1.174h.65v-.867h-.447c-.263 0-.385-.131-.385-.37v-2.023h.832v-.84h-.832v-1.12zm-7.199.29c-1.62 1.372-2.5 3.108-1.992 5.158.648 2.63 4.102 4.118 9.377 3.623 2.088-.194 4.822-.845 6.719-1.852v-1.43c-1.724.993-4.576 1.814-6.952 2.026-3.863.344-7.89-.198-8.453-3.114-.28-1.435.402-2.96 1.301-3.906zm11.447.761c-1.159 0-2.04.764-2.04 2.115 0 1.58 1.01 2.123 2.063 2.123.808 0 1.264-.246 1.7-.65l-.678-.613c-.283.262-.525.39-1.014.39-.622 0-.976-.39-.976-.922h2.793v-.375c0-1.174-.673-2.068-1.848-2.068m-10.73.07v3.047c0 .548.278 1.026 1.11 1.102v-4.149zm2.09 0v4.104h1.1v-3.266l.912.002c.322 0 .455.149.455.393v2.87h1.103v-2.874c0-.584-.332-1.229-1.297-1.229zm8.592.79c.565 0 .778.428.802.876h-1.699a1.1 1.1 0 0 1 .11-.447c.12-.248.411-.43.787-.43z"
       opacity=".5"
       id="path6" />
  </g>
</svg>
