<?xml version="1.0" encoding="UTF-8" standalone="no"?>
<svg
   xml:space="preserve"
   width="64"
   height="64"
   version="1.1"
   id="svg3"
   sodipodi:docname="com.theappgineer.community_remote.svg"
   inkscape:version="1.4.2 (ebf0e940d0, 2025-05-08)"
   xmlns:inkscape="http://www.inkscape.org/namespaces/inkscape"
   xmlns:sodipodi="http://sodipodi.sourceforge.net/DTD/sodipodi-0.dtd"
   xmlns="http://www.w3.org/2000/svg"
   xmlns:svg="http://www.w3.org/2000/svg"><sodipodi:namedview
     id="namedview3"
     pagecolor="#505050"
     bordercolor="#eeeeee"
     borderopacity="1"
     inkscape:showpageshadow="0"
     inkscape:pageopacity="0"
     inkscape:pagecheckerboard="0"
     inkscape:deskcolor="#505050"
     inkscape:zoom="2.9648437"
     inkscape:cx="-21.249012"
     inkscape:cy="9.9499342"
     inkscape:window-width="1920"
     inkscape:window-height="996"
     inkscape:window-x="0"
     inkscape:window-y="0"
     inkscape:window-maximized="1"
     inkscape:current-layer="svg3" /><defs
     id="defs2"><linearGradient
       id="a"
       x1="7.937"
       x2="7.937"
       y1="15.081"
       y2="1.852"
       gradientTransform="matrix(3.7796,0,0,3.7796,-9.3013889,-75.603597)"
       gradientUnits="userSpaceOnUse"><stop
         offset="0"
         stop-color="#363636"
         style="stop-color:#ead438;stop-opacity:1"
         id="stop1" /><stop
         offset="1"
         stop-color="#6c6c6c"
         style="stop-color:#f5e997;stop-opacity:1"
         id="stop2" /></linearGradient><filter
       id="b"
       width="1.2942312"
       height="1.2937507"
       x="-0.14711562"
       y="-0.14687534"
       style="color-interpolation-filters:sRGB"><feGaussianBlur
         stdDeviation="3.498"
         id="feGaussianBlur2" /></filter><filter
       id="filter2076-3-7"
       x="-0.048000001"
       y="-0.048000001"
       width="1.096"
       height="1.096"
       color-interpolation-filters="sRGB"><feGaussianBlur
         stdDeviation="1.1"
         id="feGaussianBlur1" /></filter><linearGradient
       id="linearGradient2070-3"
       x1="145"
       x2="199.99985"
       y1="59"
       y2="4.0001516"
       gradientTransform="matrix(1.0000071,0,0,1.0000071,-140.50444,0.49943657)"
       gradientUnits="userSpaceOnUse"><stop
         stop-color="#ffc841"
         offset="0"
         id="stop1-3" /><stop
         stop-color="#ffbe37"
         offset=".4925"
         id="stop2-6" /><stop
         stop-color="#ffc841"
         offset="1"
         id="stop3"
         style="stop-color:#ffca4e;stop-opacity:1;" /></linearGradient><filter
       id="filter1091-9"
       x="-0.092043995"
       y="-0.092043995"
       width="1.184088"
       height="1.184088"
       color-interpolation-filters="sRGB"><feGaussianBlur
         stdDeviation="0.30215974"
         id="feGaussianBlur3" /></filter><filter
       id="filter2"
       x="-0.092043996"
       y="-0.092043996"
       width="1.184088"
       height="1.184088"
       color-interpolation-filters="sRGB"><feGaussianBlur
         stdDeviation="0.30215974"
         id="feGaussianBlur2-7" /></filter><linearGradient
       id="linearGradient1063-1"
       x1="8.5858002"
       x2="16.465"
       y1="-5.5948"
       y2="-13.703"
       gradientTransform="matrix(3.779602,0,0,3.779602,77.830694,41.353594)"
       gradientUnits="userSpaceOnUse"><stop
         stop-color="#f5f5f5"
         offset="0"
         id="stop4" /><stop
         stop-color="#fff"
         offset="1"
         id="stop5" /></linearGradient><linearGradient
       id="linearGradient1071-7"
       x1="8.9222002"
       x2="15.926"
       y1="-5.3551998"
       y2="-11.992"
       gradientTransform="matrix(3.779602,0,0,3.779602,77.830694,41.353594)"
       gradientUnits="userSpaceOnUse"><stop
         stop-color="#ffdc96"
         offset="0"
         id="stop6" /><stop
         stop-color="#fff"
         offset="1"
         id="stop7" /></linearGradient></defs><rect
     transform="matrix(1.0000071,0,0,1.0000071,-2.2597065e-4,-2.2597065e-4)"
     x="4.5"
     y="4.5"
     width="55"
     height="55"
     rx="13.002"
     ry="13.002"
     filter="url(#filter2076-3-7)"
     opacity="0.3"
     id="rect7" /><rect
     x="4.4996166"
     y="4.4996166"
     width="55.000767"
     height="55.000767"
     rx="13.002209"
     ry="13.002209"
     fill="url(#linearGradient2070-3)"
     stroke-width="1.00001"
     id="rect8"
     style="fill:url(#linearGradient2070-3)" /><path
     d="M15.55 59.84c-4.368-.507-8.386-3.356-10.315-7.315-.784-1.61-1.134-2.846-1.325-4.68-.325-3.111.574-6.43 2.447-9.034.724-1.007 17.95-18.215 18.498-18.48a4.8 4.8 0 0 1 2.454-.46c1.595.145 1.624.17 9.025 7.57 7.401 7.402 7.426 7.43 7.57 9.026a4.8 4.8 0 0 1-.46 2.454c-.264.548-17.473 17.774-18.48 18.498a13.2 13.2 0 0 1-5.987 2.375c-1.529.208-1.975.214-3.426.046m4.018-3.089c1.18-.278 2.647-.957 3.68-1.703.448-.324 4.618-4.397 9.267-9.052l8.454-8.463v-1.32l-6.704-6.703-6.703-6.703h-1.32L17.78 31.26c-4.655 4.65-8.728 8.82-9.051 9.267-1.337 1.85-1.97 3.857-1.952 6.187.053 6.692 6.274 11.574 12.792 10.037m-6.28-6.263c-.754-.754-.425-2.048.607-2.389.387-.127.54-.113.955.09 1.45.708 1.016 2.685-.59 2.685-.472 0-.662-.075-.972-.386m8.624.18c-1.02-.715-.793-2.103.42-2.563 1.106-.42 2.207.927 1.649 2.018-.367.717-1.426.996-2.07.545m-4.398-4.407c-.316-.316-.386-.497-.386-1 0-.51.07-.684.402-1.017.367-.367.462-.397 1.068-.339.872.084 1.188.4 1.272 1.272.059.607.029.702-.338 1.068-.333.333-.508.402-1.017.402-.503 0-.685-.07-1-.386m8.59.217c-.782-.616-.866-1.495-.206-2.155.368-.368.55-.45 1.004-.45.455 0 .636.082 1.004.45.648.648.596 1.504-.128 2.09-.33.268-1.366.308-1.675.065m-12.5-4.176c-.533-.333-.703-.651-.703-1.315 0-1.114 1.313-1.74 2.249-1.073 1.429 1.017-.061 3.318-1.547 2.388m8.453.038c-.41-.202-.834-.864-.834-1.3 0-.334.361-.957.689-1.187.161-.113.524-.206.806-.206.406 0 .605.093.961.45.738.737.578 1.781-.345 2.259-.48.248-.748.245-1.277-.016m-4.271-4.24c-.524-.36-.648-.596-.65-1.228-.003-1.342 1.38-1.94 2.318-1.003.368.368.449.549.449 1.003 0 .455-.081.636-.45 1.004-.514.515-1.126.597-1.667.224m14.249-.234c-.035-.035-.758-.243-1.607-.463-5.947-1.536-5.631-1.422-5.636-2.05-.003-.362 5.515-5.878 5.876-5.875.575.004.58.013 1.26 2.607.215.817.577 2.184.805 3.037.55 2.065.582 2.32.314 2.588-.202.202-.864.304-1.012.156m7.647-13.905c-5.213-5.212-9.477-9.538-9.477-9.613s.358-.49.795-.922l.795-.787 9.572 9.574c5.265 5.266 9.573 9.636 9.574 9.71.001.21-1.368 1.515-1.589 1.515-.107 0-4.458-4.264-9.67-9.477m6.14-6.143L32.446 4.443l.83-.821.828-.822 13.402 13.402L60.91 29.605l-.787.795c-.432.436-.817.794-.856.794s-6.09-6.019-13.445-13.375m-9.18 9.179-1.948-1.951.86-.853.861-.853 1.914 1.91c1.053 1.051 1.914 1.973 1.914 2.049 0 .134-1.461 1.649-1.59 1.649-.035 0-.94-.878-2.012-1.951m6.143-6.008c-3.141-3.142-5.712-5.774-5.712-5.849 0-.074.358-.489.795-.921l.794-.786 5.808 5.807 5.808 5.807-.82.828c-.45.455-.852.827-.89.827-.04 0-2.641-2.57-5.783-5.713"
     style="fill:#000;stroke-width:.123826;filter:url(#b);opacity:.25"
     id="path2" /><g
     id="g1"
     transform="matrix(1.0015044,0,0,1.0015044,-0.06010723,0.00476685)"><path
       id="path3"
       style="fill:#000000;stroke-width:0.12143"
       d="m 32.916916,4.4996166 -0.469255,0.465424 13.116142,13.1161424 h 0.0019 c 7.212653,7.213634 13.146849,13.116143 13.185094,13.116143 0.03463,0 0.346833,-0.287045 0.720162,-0.658872 V 28.749541 L 47.216729,16.495295 35.219136,4.4996166 Z m -1.107057,8.5021264 -0.781453,0.771875 c -0.428542,0.423639 -0.779537,0.830485 -0.779537,0.904033 0,0.07355 4.182962,4.316101 9.295071,9.427228 5.111128,5.112109 9.377843,9.293155 9.48277,9.293155 0.216725,0 1.559121,-1.278441 1.55716,-1.484377 -9.81e-4,-0.07257 -4.22582,-4.358911 -9.388921,-9.522994 z m 6.732365,0.779537 -0.777621,0.771876 c -0.428543,0.423639 -0.779537,0.829549 -0.779537,0.902117 0,0.07355 2.520199,2.655207 5.600409,5.736397 3.08119,3.082171 5.63205,5.602325 5.671276,5.602325 0.03726,0 0.432097,-0.363989 0.873387,-0.810183 L 49.934575,25.171715 44.2384,19.475539 Z M 26.791708,20.086528 A 4.7071017,4.7071017 0 0 0 25.004711,20.54429 C 24.467317,20.804162 7.5746591,37.679581 6.8646712,38.667092 5.6610758,40.34043 4.8672067,42.315644 4.5528744,44.336453 v 2.33095 c 0,1.956897 0.4368897,3.808612 1.2181464,5.462505 1.8942216,3.875339 5.8305982,6.662873 10.1090822,7.159484 1.422919,0.164748 1.860073,0.159922 3.35948,-0.04406 A 12.944529,12.944529 0 0 0 25.111969,56.9163 c 0.98751,-0.709983 17.861994,-17.60264 18.120885,-18.140034 a 4.7071017,4.7071017 0 0 0 0.452017,-2.407564 C 43.543658,34.803591 43.518835,34.77673 36.261072,27.517987 29.00331,20.261205 28.974489,20.236383 27.410359,20.09419 a 4.7071017,4.7071017 0 0 0 -0.618651,-0.0076 z m -0.427116,2.886395 h 1.294758 l 6.573394,6.573394 6.57531,6.573394 v 1.294758 l -8.29144,8.299102 c -4.559025,4.564908 -8.648886,8.559799 -9.088216,8.877529 -1.013007,0.731562 -2.451309,1.397543 -3.608472,1.670163 C 13.428075,57.768516 7.3284401,52.980895 7.276466,46.41841 7.2588147,44.133505 7.8787512,42.164858 9.1898752,40.350663 9.5066239,39.912314 13.500582,35.822452 18.06549,31.262447 Z m 9.975009,0.524798 -0.842742,0.835081 -0.844659,0.836997 1.909579,1.913409 h 0.0019 c 1.050564,1.051517 1.936564,1.913411 1.97087,1.913411 0.125514,0 1.537028,-1.463416 1.559074,-1.61462 v -0.0019 c 0,-0.07453 -0.844398,-0.978516 -1.877018,-2.009175 z m -5.644461,6.01795 c -0.429015,0.08035 -5.756555,5.409076 -5.753635,5.761297 0.005,0.615845 -0.304277,0.502902 5.527626,2.009175 0.832568,0.215742 1.540075,0.419609 1.574397,0.453931 0.145135,0.145136 0.795963,0.04678 0.994054,-0.15131 0.262813,-0.262813 0.230053,-0.514686 -0.310282,-2.539721 -0.222607,-0.83649 -0.576361,-2.175225 -0.787199,-2.976413 -0.66684,-2.543796 -0.671513,-2.553036 -1.235385,-2.556959 -0.0028,-2.3e-5 -0.0062,-6.33e-4 -0.0096,0 z m -11.922895,5.822587 c -0.699354,-0.037 -1.340836,0.522148 -1.338812,1.426917 0.002,0.619768 0.123944,0.851705 0.637802,1.204738 0.53053,0.365781 1.129721,0.286686 1.633772,-0.218347 0.361858,-0.360877 0.44244,-0.540197 0.44244,-0.986391 0,-0.445213 -0.07965,-0.621684 -0.440524,-0.982562 -0.287452,-0.287146 -0.616792,-0.427539 -0.934678,-0.444355 z m -4.204138,4.144762 c -0.678634,0.04214 -1.287098,0.566691 -1.287098,1.317743 0,0.651149 0.166833,0.964374 0.689517,1.290928 1.45724,0.912002 2.918281,-1.345123 1.516937,-2.342442 -0.286839,-0.204402 -0.610886,-0.285386 -0.919356,-0.266229 z m 8.339323,0.0039 c -0.276542,0 -0.633145,0.09221 -0.79103,0.203025 -0.321652,0.225549 -0.674194,0.835066 -0.674194,1.162602 0,0.427561 0.41578,1.077516 0.817845,1.275606 0.518761,0.255949 0.779996,0.258523 1.250706,0.01533 0.905137,-0.468749 1.062729,-1.491378 0.339012,-2.214115 -0.34911,-0.350091 -0.544197,-0.44244 -0.942339,-0.44244 z m 4.10454,4.144763 c -0.445213,0 -0.623599,0.07965 -0.984476,0.440524 -0.646899,0.646899 -0.564676,1.510485 0.201109,2.114519 h 0.0019 c 0.304503,0.237246 1.318248,0.197343 1.641433,-0.06512 0.709987,-0.574659 0.759954,-1.413939 0.124496,-2.049398 -0.360878,-0.360877 -0.538283,-0.440524 -0.984477,-0.440524 z m -8.507872,0.0096 c -0.293779,0.0012 -0.413848,0.08441 -0.68377,0.354335 -0.325575,0.326556 -0.392642,0.497755 -0.392642,0.997885 0,0.493265 0.06743,0.670762 0.377319,0.980646 h 0.0019 c 0.308903,0.309883 0.487381,0.377318 0.980646,0.377318 0.499149,0 0.669413,-0.06801 0.995969,-0.394556 0.359897,-0.358917 0.38921,-0.450516 0.331351,-1.045768 -0.08237,-0.855124 -0.391753,-1.166417 -1.246876,-1.248791 -0.148569,-0.01422 -0.265985,-0.02145 -0.363913,-0.02107 z m -3.890023,4.054684 c -0.103428,0.0053 -0.213935,0.03374 -0.356252,0.08044 -1.012026,0.334401 -1.335071,1.603035 -0.595665,2.342442 0.304001,0.304981 0.490967,0.37732 0.953832,0.37732 1.574917,0 2.000365,-1.937359 0.578427,-2.631657 -0.254354,-0.124419 -0.407964,-0.177435 -0.580342,-0.168548 z m 8.32017,0.0096 c -0.132254,0.0012 -0.26856,0.02513 -0.404135,0.07661 -1.189524,0.451098 -1.412053,1.811744 -0.411794,2.512906 0.631536,0.442272 1.670347,0.168748 2.030244,-0.534375 0.478801,-0.93615 -0.288543,-2.063603 -1.214315,-2.055144 z" /><g
       id="g18"
       transform="matrix(0.98064619,0,0,0.98064619,86.46556,0.60767708)"><path
         id="path12"
         style="fill:#4e4dca;fill-opacity:1"
         d="m -56.871094,29.478516 c -0.437482,0.08194 -5.870164,5.515828 -5.867187,5.875 0.005,0.628 -0.310281,0.512828 5.636719,2.048828 0.848999,0.22 1.570468,0.42789 1.605468,0.46289 0.148,0.148 0.811672,0.0477 1.013672,-0.154296 0.268,-0.268001 0.234594,-0.524844 -0.316406,-2.589844 -0.227,-0.853 -0.587734,-2.218156 -0.802734,-3.035156 -0.68,-2.594001 -0.684766,-2.603422 -1.259766,-2.607422 -0.0014,-1.2e-5 -0.0042,7.7e-5 -0.0059,0 -8.64e-4,3.2e-5 -0.003,-1.62e-4 -0.0039,0 z" /><path
         id="path11"
         style="fill:#4e4dca;fill-opacity:1"
         d="m -51.115234,23.341797 -0.859375,0.851562 -0.861329,0.853516 1.947266,1.951172 h 0.002 c 1.071297,1.072268 1.974783,1.951172 2.009766,1.951172 0.127992,0 1.567363,-1.492297 1.589844,-1.646485 v -0.002 c 0,-0.076 -0.861063,-0.997828 -1.914063,-2.048828 z" /><path
         id="path9"
         style="fill:#4e4dca;fill-opacity:1"
         d="m -48.869141,13.433594 -0.792968,0.787109 c -0.437001,0.432 -0.794922,0.845922 -0.794922,0.919922 0,0.075 2.569937,2.707609 5.710937,5.849609 3.142,3.143 5.743203,5.712891 5.783203,5.712891 0.038,0 0.440625,-0.371172 0.890625,-0.826172 l 0.820313,-0.828125 -5.808594,-5.808594 z" /><path
         id="path8"
         style="fill:#4e4dca;fill-opacity:1"
         d="m -55.734375,12.638672 -0.796875,0.787109 c -0.437,0.432 -0.794922,0.846875 -0.794922,0.921875 0,0.075 4.265516,4.401282 9.478516,9.613282 5.212,5.213 9.562923,9.476562 9.669922,9.476562 0.221001,0 1.58989,-1.303672 1.58789,-1.513672 -10e-4,-0.074 -4.309218,-4.444937 -9.574218,-9.710937 z" /><path
         id="path5"
         style="fill:#4e4dca;fill-opacity:1"
         d="m -54.605469,3.96875 -0.478515,0.4746094 13.375,13.3749996 h 0.002 c 7.355,7.356 13.406312,13.375 13.445312,13.375 0.03531,0 0.353678,-0.292709 0.734375,-0.671875 V 28.697266 L -40.023438,16.201172 -52.257812,3.96875 Z" /></g></g></svg>
