<?xml version="1.0" encoding="UTF-8" standalone="no"?>
<svg
   width="64"
   height="64"
   fill="none"
   version="1.1"
   id="svg6"
   sodipodi:docname="com.orama_interactive.Pixelorama.svg"
   xml:space="preserve"
   inkscape:version="1.4.2 (ebf0e940d0, 2025-05-08)"
   xmlns:inkscape="http://www.inkscape.org/namespaces/inkscape"
   xmlns:sodipodi="http://sodipodi.sourceforge.net/DTD/sodipodi-0.dtd"
   xmlns="http://www.w3.org/2000/svg"
   xmlns:svg="http://www.w3.org/2000/svg"><sodipodi:namedview
     id="namedview6"
     pagecolor="#505050"
     bordercolor="#eeeeee"
     borderopacity="1"
     inkscape:showpageshadow="0"
     inkscape:pageopacity="0"
     inkscape:pagecheckerboard="0"
     inkscape:deskcolor="#505050"
     inkscape:zoom="2.9921875"
     inkscape:cx="100.09399"
     inkscape:cy="50.464752"
     inkscape:window-width="1920"
     inkscape:window-height="1003"
     inkscape:window-x="0"
     inkscape:window-y="0"
     inkscape:window-maximized="1"
     inkscape:current-layer="svg6" /><defs
     id="defs2"><linearGradient
       id="a"
       x1="7.937"
       x2="7.937"
       y1="15.081"
       y2="1.852"
       gradientTransform="scale(3.7796)"
       gradientUnits="userSpaceOnUse"><stop
         offset="0"
         stop-color="#23192d"
         id="stop1" /><stop
         offset="1"
         stop-color="#3b274f"
         id="stop2" /></linearGradient><filter
       id="filter1057"
       x="-0.026999999"
       y="-0.026999999"
       width="1.054"
       height="1.054"
       color-interpolation-filters="sRGB"><feGaussianBlur
         stdDeviation="0.61875"
         id="feGaussianBlur3" /></filter><linearGradient
       id="linearGradient1053"
       x1="-127"
       x2="-72"
       y1="60"
       y2="5"
       gradientTransform="translate(131.5,-0.51000061)"
       gradientUnits="userSpaceOnUse"><stop
         stop-color="#4a3030"
         offset="0"
         id="stop3" /><stop
         stop-color="#5c4444"
         offset="1"
         id="stop4" /></linearGradient></defs><rect
     x="4.4999995"
     y="4.4999995"
     width="55"
     height="55"
     ry="15"
     fill="#141414"
     filter="url(#filter1057)"
     opacity="0.3"
     stroke-linecap="round"
     stroke-width="2.7444"
     id="rect25" /><rect
     x="4.5"
     y="4.5"
     width="55"
     height="55"
     ry="15"
     fill="url(#linearGradient1053)"
     stroke-linecap="round"
     stroke-width="2.7444"
     id="rect26"
     style="fill:url(#linearGradient1053)" /><path
     d="M8.2 5A4.19 4.19 0 0 0 4 9.2v47.6A4.19 4.19 0 0 0 8.2 61h47.6a4.19 4.19 0 0 0 4.2-4.2V9.2A4.19 4.19 0 0 0 55.8 5H32z"
     opacity=".2"
     id="path2" /><path
     fill="#5491df"
     d="M18 46v-4h-7V21h7v-7h7v7h-7v14h7v14h-7z"
     id="path3" /><path
     fill="#df605d"
     d="M39 46v-4h7v-7h-7V14h7v7h7v21h-7v7h-7z"
     id="path4" /><path
     fill="#37955a"
     d="M25 46v-4h14v7H25v-2.8zm0-28.5V14h14v7H25z"
     id="path5" /><path
     fill="#f7e4d7"
     d="M18 21h7v7h-7zm7 0h7v7h-7zm-7 7h7v7h-7zm21 7h7v7h-7z"
     id="path6" /></svg>
