<?xml version="1.0" encoding="UTF-8" standalone="no"?>
<svg
   width="64"
   height="64"
   version="1.1"
   id="svg4"
   sodipodi:docname="com.github.paolostivanin.OTPClient.svg"
   inkscape:version="1.3.2 (091e20ef0f, 2023-11-25, custom)"
   xmlns:inkscape="http://www.inkscape.org/namespaces/inkscape"
   xmlns:sodipodi="http://sodipodi.sourceforge.net/DTD/sodipodi-0.dtd"
   xmlns:xlink="http://www.w3.org/1999/xlink"
   xmlns="http://www.w3.org/2000/svg"
   xmlns:svg="http://www.w3.org/2000/svg">
  <defs
     id="defs4">
    <filter
       inkscape:collect="always"
       style="color-interpolation-filters:sRGB"
       id="filter1057"
       x="-0.026999999"
       width="1.054"
       y="-0.026999999"
       height="1.054">
      <feGaussianBlur
         inkscape:collect="always"
         stdDeviation="0.61875"
         id="feGaussianBlur1059" />
    </filter>
    <linearGradient
       inkscape:collect="always"
       xlink:href="#linearGradient1051"
       id="linearGradient1053"
       x1="-127"
       y1="60"
       x2="-72"
       y2="5"
       gradientUnits="userSpaceOnUse"
       gradientTransform="translate(131.5,-0.50999751)" />
    <linearGradient
       inkscape:collect="always"
       id="linearGradient1051">
      <stop
         style="stop-color:#df2a2a;stop-opacity:1"
         offset="0"
         id="stop1047" />
      <stop
         style="stop-color:#f83f3f;stop-opacity:1"
         offset="1"
         id="stop1049" />
    </linearGradient>
  </defs>
  <sodipodi:namedview
     id="namedview4"
     pagecolor="#ffffff"
     bordercolor="#000000"
     borderopacity="0.25"
     inkscape:showpageshadow="2"
     inkscape:pageopacity="0.0"
     inkscape:pagecheckerboard="0"
     inkscape:deskcolor="#d1d1d1"
     inkscape:zoom="4.3531261"
     inkscape:cx="-25.039477"
     inkscape:cy="21.593677"
     inkscape:window-width="1920"
     inkscape:window-height="995"
     inkscape:window-x="0"
     inkscape:window-y="0"
     inkscape:window-maximized="1"
     inkscape:current-layer="svg4" />
  <rect
     style="opacity:0.3;fill:#141414;fill-opacity:1;stroke-width:2.74436;stroke-linecap:round;filter:url(#filter1057)"
     id="rect1055"
     width="55"
     height="55"
     x="4.4999995"
     y="4.4999995"
     ry="15" />
  <rect
     ry="14.999999"
     y="4.5000019"
     x="4.5000019"
     height="54.999996"
     width="54.999996"
     id="rect1045"
     style="fill:url(#linearGradient1053);fill-opacity:1;stroke-width:2.74436;stroke-linecap:round" />
  <circle
     cx="32"
     cy="32"
     r="22"
     fill="#ffffff"
     id="circle4" />
  <path
     d="m 32.006,14.391 c -0.352,0 -3.245,-0.133 -6.069,1.243 -2.161,1.052 -0.564,4.251 1.573,3.15 1.873,-0.966 3.674,-0.871 4.496,-0.871 7.865,0 14.087,6.222 14.087,14.087 0,7.865 -6.222,14.087 -14.087,14.087 -7.865,0 -14.086,-6.221 -14.087,-14.087 0,-0.82 -0.095,-2.622 0.871,-4.496 1.101,-2.137 -2.098,-3.734 -3.15,-1.573 -1.375,2.824 -1.242,5.716 -1.242,6.07 0.002,9.742 7.865,17.608 17.609,17.608 9.743,0 17.609,-7.865 17.609,-17.609 0,-9.743 -7.866,-17.609 -17.61,-17.609 z"
     id="path4"
     style="fill:#f13939;fill-opacity:1" />
  <rect
     width="4.6960001"
     height="18.783001"
     x="29.651997"
     y="22.608999"
     fill="#65b5f7"
     ry="2.348"
     style="paint-order:stroke fill markers"
     id="rect5" />
  <rect
     width="4.6960001"
     height="18.783001"
     x="-46.061001"
     y="2.3210013"
     fill="#65b5f7"
     ry="2.348"
     style="paint-order:stroke fill markers"
     transform="rotate(-120)"
     id="rect6" />
  <rect
     width="4.6960001"
     height="18.783001"
     x="9.3649988"
     y="-53.105"
     fill="#65b5f7"
     ry="2.348"
     style="paint-order:stroke fill markers"
     transform="rotate(120)"
     id="rect7" />
</svg>
