<?xml version="1.0" encoding="UTF-8" standalone="no"?>
<svg
   xml:space="preserve"
   width="64"
   height="64"
   version="1.1"
   id="svg5"
   sodipodi:docname="com.github.mtkennerly.ludusavi.svg"
   inkscape:version="1.4.2 (ebf0e940d0, 2025-05-08)"
   xmlns:inkscape="http://www.inkscape.org/namespaces/inkscape"
   xmlns:sodipodi="http://sodipodi.sourceforge.net/DTD/sodipodi-0.dtd"
   xmlns="http://www.w3.org/2000/svg"
   xmlns:svg="http://www.w3.org/2000/svg"><sodipodi:namedview
     id="namedview5"
     pagecolor="#505050"
     bordercolor="#eeeeee"
     borderopacity="1"
     inkscape:showpageshadow="0"
     inkscape:pageopacity="0"
     inkscape:pagecheckerboard="0"
     inkscape:deskcolor="#505050"
     inkscape:zoom="2.9921875"
     inkscape:cx="86.391645"
     inkscape:cy="10.694517"
     inkscape:window-width="1920"
     inkscape:window-height="1003"
     inkscape:window-x="0"
     inkscape:window-y="0"
     inkscape:window-maximized="1"
     inkscape:current-layer="svg5" /><defs
     id="defs2"><linearGradient
       id="a"
       x1="7.937"
       x2="7.937"
       y1="15.081"
       y2="1.852"
       gradientTransform="matrix(3.7796,0,0,3.7796,131.67624,0)"
       gradientUnits="userSpaceOnUse"><stop
         offset="0"
         stop-color="#0e71de"
         style="stop-color:#ff5c8f;stop-opacity:1"
         id="stop1" /><stop
         offset="1"
         stop-color="#25c9ff"
         style="stop-color:#ff8585;stop-opacity:1"
         id="stop2" /></linearGradient><filter
       id="b"
       width="1.2892766"
       height="1.2990177"
       x="-0.14463832"
       y="-0.14950886"
       style="color-interpolation-filters:sRGB"><feGaussianBlur
         stdDeviation="2.207"
         id="feGaussianBlur2" /></filter><filter
       id="filter1057"
       x="-0.026999999"
       y="-0.026999999"
       width="1.054"
       height="1.054"
       color-interpolation-filters="sRGB"><feGaussianBlur
         stdDeviation="0.61875"
         id="feGaussianBlur3" /></filter><linearGradient
       id="linearGradient1053"
       x1="-127"
       x2="-72"
       y1="60"
       y2="5"
       gradientTransform="translate(131.5,-0.51)"
       gradientUnits="userSpaceOnUse"><stop
         stop-color="#eb3f78"
         offset="0"
         id="stop3" /><stop
         stop-color="#ec497e"
         offset="1"
         id="stop4" /></linearGradient></defs><rect
     x="4.4999995"
     y="4.4999995"
     width="55"
     height="55"
     ry="15"
     fill="#141414"
     filter="url(#filter1057)"
     opacity="0.3"
     stroke-linecap="round"
     stroke-width="2.7444"
     id="rect25" /><rect
     x="4.5"
     y="4.5"
     width="55"
     height="55"
     ry="15"
     fill="url(#linearGradient1053)"
     stroke-linecap="round"
     stroke-width="2.7444"
     id="rect26"
     style="fill:url(#linearGradient1053)" /><g
     style="fill:#ffffff;fill-opacity:1"
     id="g7"
     transform="translate(-5e-4)"><path
       d="m 15.768,18.724 c -0.606,-0.129 -1.252,-0.755 -1.447,-1.404 -0.207,-0.692 0.032,-1.39 0.665,-1.946 0.39,-0.342 0.615,-0.428 1.121,-0.428 1.245,0 2.021,0.768 2.022,2.001 0,0.56 -0.074,0.75 -0.455,1.165 -0.506,0.551 -1.176,0.766 -1.906,0.612 m -0.543,7.593 c -0.58,-0.354 -0.884,-0.955 -0.884,-1.748 0,-1.178 1.237,-2.095 2.383,-1.767 2.165,0.621 1.818,3.79 -0.414,3.789 -0.383,0 -0.815,-0.11 -1.085,-0.274 m 8.521,16.609 C 23.105,42.647 22.786,42.347 22.464,41.716 22.21,41.218 22.199,40.713 22.199,30.272 V 19.35 l 0.405,-0.638 q 0.405,-0.639 1.026,-0.94 c 0.619,-0.3 0.665,-0.3 11.346,-0.297 10.17,0.003 10.754,0.016 11.302,0.265 0.714,0.324 1.255,1.013 1.445,1.839 0.092,0.4 0.146,4.322 0.148,10.81 0.004,11.128 0,11.184 -0.8,11.95 -0.874,0.838 -0.444,0.81 -12.135,0.803 -9.212,-0.004 -10.77,-0.035 -11.19,-0.216 M 43.806,30.31 V 21.4 H 26.127 v 17.82 h 17.679 z m -13.975,6.043 c -0.535,-0.233 -0.985,-0.84 -1.102,-1.488 -0.066,-0.36 -0.005,-0.648 0.233,-1.108 0.965,-1.862 3.62,-1.236 3.619,0.854 -0.001,1.457 -1.387,2.335 -2.75,1.742 m 8.508,-0.045 c -1.364,-0.688 -1.349,-2.711 0.024,-3.416 0.672,-0.345 1.14,-0.338 1.789,0.027 0.69,0.388 0.988,0.923 0.988,1.778 0,1.462 -1.446,2.294 -2.801,1.61 m -8.566,-8.575 c -1.733,-0.926 -1.05,-3.667 0.914,-3.667 0.593,0 1.355,0.44 1.66,0.96 1.004,1.71 -0.83,3.64 -2.574,2.707 m 8.485,0 c -0.602,-0.367 -0.93,-0.934 -0.94,-1.624 -0.013,-0.796 0.382,-1.422 1.123,-1.78 0.82,-0.397 1.464,-0.268 2.166,0.434 0.488,0.487 0.533,0.598 0.533,1.302 0,0.568 -0.077,0.867 -0.293,1.142 -0.62,0.788 -1.775,1.022 -2.59,0.526"
       style="fill:#ffffff;fill-opacity:1;stroke-width:0.140308"
       transform="translate(-0.511,-0.66)"
       id="path6" /><path
       d="m 15.44,50.128 c -0.221,-0.135 -0.59,-0.542 -0.82,-0.904 l -0.419,-0.66 v -16.21 l 0.414,-0.472 a 3.4,3.4 0 0 1 0.98,-0.726 c 0.533,-0.24 0.6,-0.242 1.175,-0.022 0.336,0.128 0.795,0.425 1.02,0.66 l 0.41,0.428 0.039,6.922 0.039,6.921 1.995,0.095 c 1.098,0.052 8.131,0.138 15.63,0.19 l 13.633,0.095 0.376,0.35 c 0.446,0.417 0.91,1.275 0.91,1.684 0,0.456 -0.526,1.374 -0.943,1.647 -0.356,0.233 -1.363,0.248 -17.207,0.248 -15.771,0 -16.853,-0.016 -17.231,-0.246"
       style="fill:#ffffff;fill-opacity:1;stroke-width:0.140308"
       transform="translate(-0.511,-0.66)"
       id="path7" /></g></svg>
