<?xml version="1.0" encoding="UTF-8" standalone="no"?>
<svg
   width="64"
   height="64"
   version="1.1"
   id="svg14"
   sodipodi:docname="com.belmoussaoui.Obfuscate.svg"
   xml:space="preserve"
   inkscape:version="1.4.2 (ebf0e940d0, 2025-05-08)"
   xmlns:inkscape="http://www.inkscape.org/namespaces/inkscape"
   xmlns:sodipodi="http://sodipodi.sourceforge.net/DTD/sodipodi-0.dtd"
   xmlns:xlink="http://www.w3.org/1999/xlink"
   xmlns="http://www.w3.org/2000/svg"
   xmlns:svg="http://www.w3.org/2000/svg"><sodipodi:namedview
     id="namedview14"
     pagecolor="#505050"
     bordercolor="#eeeeee"
     borderopacity="1"
     inkscape:showpageshadow="0"
     inkscape:pageopacity="0"
     inkscape:pagecheckerboard="0"
     inkscape:deskcolor="#505050"
     inkscape:zoom="6.1796875"
     inkscape:cx="36.97598"
     inkscape:cy="35.195954"
     inkscape:window-width="1920"
     inkscape:window-height="1018"
     inkscape:window-x="0"
     inkscape:window-y="0"
     inkscape:window-maximized="1"
     inkscape:current-layer="svg14" /><defs
     id="defs4"><linearGradient
       id="linearGradient23"
       inkscape:collect="always"><stop
         style="stop-color:#fcffff;stop-opacity:1;"
         offset="0"
         id="stop23" /><stop
         style="stop-color:#fcffff;stop-opacity:0;"
         offset="1"
         id="stop24" /></linearGradient><linearGradient
       id="linearGradient21"
       inkscape:collect="always"><stop
         style="stop-color:#d7e6fa;stop-opacity:1;"
         offset="0"
         id="stop21" /><stop
         style="stop-color:#d7e6fa;stop-opacity:0;"
         offset="1"
         id="stop22" /></linearGradient><linearGradient
       id="linearGradient19"
       inkscape:collect="always"><stop
         style="stop-color:#f7f8ff;stop-opacity:0.5"
         offset="0"
         id="stop19" /><stop
         style="stop-color:#fefeff;stop-opacity:1"
         offset="1"
         id="stop20" /></linearGradient><linearGradient
       id="a"
       x1="7.937"
       x2="7.937"
       y1="15.081"
       y2="1.852"
       gradientTransform="scale(3.7796)"
       gradientUnits="userSpaceOnUse"><stop
         offset="0"
         stop-color="#f1efeb"
         id="stop1" /><stop
         offset="1"
         stop-color="#fdfcfc"
         id="stop2" /></linearGradient><linearGradient
       id="c"
       x1="60.002"
       x2="102"
       y1="32"
       y2="32"
       gradientTransform="matrix(1 0 0 .99994 -49.002 .003)"
       gradientUnits="userSpaceOnUse"><stop
         offset="0"
         stop-color="#1e88e5"
         id="stop3" /><stop
         offset="1"
         stop-color="#1f9dff"
         id="stop4" /></linearGradient><filter
       id="b"
       width="1.1357713"
       height="1.1677127"
       x="-0.06788566"
       y="-0.083856355"
       color-interpolation-filters="sRGB"><feGaussianBlur
         stdDeviation="1.188"
         id="feGaussianBlur4" /></filter><linearGradient
       inkscape:collect="always"
       xlink:href="#linearGradient19"
       id="linearGradient20"
       x1="34.172"
       y1="34.5335"
       x2="40.689"
       y2="34.5335"
       gradientUnits="userSpaceOnUse" /><linearGradient
       inkscape:collect="always"
       xlink:href="#linearGradient21"
       id="linearGradient22"
       x1="44.010544"
       y1="34.470455"
       x2="34.172001"
       y2="44.308998"
       gradientUnits="userSpaceOnUse" /><linearGradient
       inkscape:collect="always"
       xlink:href="#linearGradient23"
       id="linearGradient24"
       x1="26.537451"
       y1="32"
       x2="42.223767"
       y2="32.000001"
       gradientUnits="userSpaceOnUse" /><filter
       id="filter1057"
       x="-0.026999999"
       y="-0.026999999"
       width="1.054"
       height="1.054"
       color-interpolation-filters="sRGB"><feGaussianBlur
         stdDeviation="0.61875"
         id="feGaussianBlur1" /></filter><linearGradient
       id="linearGradient1053"
       x1="-127"
       x2="-72"
       y1="60"
       y2="5"
       gradientTransform="matrix(1.0000071,0,0,1.0000071,131.50256,-0.51043503)"
       gradientUnits="userSpaceOnUse"><stop
         stop-color="#dee0e2"
         offset="0"
         id="stop1-3" /><stop
         stop-color="#f1f3f5"
         stop-opacity=".99608"
         offset="1"
         id="stop2-6" /></linearGradient></defs><rect
     transform="matrix(1.0000071,0,0,1.0000071,-2.2781468e-4,-2.2781468e-4)"
     x="4.5"
     y="4.5"
     width="55"
     height="55"
     ry="15"
     fill="#141414"
     filter="url(#filter1057)"
     opacity="0.3"
     stroke-linecap="round"
     stroke-width="2.7444"
     id="rect2" /><rect
     x="4.4996166"
     y="4.4996166"
     width="55.000767"
     height="55.000767"
     ry="15.000106"
     fill="url(#linearGradient1053)"
     stroke-linecap="round"
     stroke-width="2.74441"
     id="rect3"
     style="fill:url(#linearGradient1053)" /><path
     d="M32.66 15.998 14.014 16A3.013 3.013 0 0 0 11 19.027V46.97a3.013 3.013 0 0 0 3.014 3.027H32v.002h15.207v-4.345H53v-25.31h-5.793V16H32.66z"
     filter="url(#b)"
     opacity=".15"
     id="path4" /><path
     fill="url(#c)"
     d="m32.66 15-18.646.002A3.013 3.013 0 0 0 11 18.029v27.942a3.013 3.013 0 0 0 3.014 3.027H32V49h15.207v-4.345H53v-25.31h-5.793v-4.343H32.66z"
     id="path5" /><path
     fill="#9a9996"
     d="M15.345 41.414H28.38v2.897H15.345z"
     id="path9"
     style="fill:#99c1f1;fill-opacity:1" /><path
     fill="#deddda"
     d="M15.345 37.069h7.241v2.172h-7.241z"
     id="path10"
     style="fill:#99c1f1;fill-opacity:1" /><path
     d="M34.172 31.275h6.517v6.517h-6.517z"
     opacity=".15"
     id="path11"
     style="fill:url(#linearGradient20);fill-opacity:1;opacity:1" /><path
     fill="#fff"
     d="M40.69 31.275h6.517v6.517h-6.518zm-6.518 6.517h6.517v6.517h-6.517z"
     opacity=".2"
     id="path12"
     style="fill:url(#linearGradient22);fill-opacity:1;opacity:1" /><path
     d="M40.69 37.792h6.517v6.517h-6.518z"
     opacity=".15"
     id="path13"
     style="fill:#99c1f1;fill-opacity:1;opacity:1" /><g
     id="g18"
     transform="matrix(0.60138544,0,0,0.60138544,8.308611,19.67155)"><rect
       style="opacity:1;fill:#ff3737;fill-opacity:1;stroke-width:10"
       id="rect15"
       width="9.9549189"
       height="9.9549189"
       x="12.0946"
       y="-13.230303"
       rx="2.0172606"
       ry="2.0172606"
       transform="rotate(45)" /><rect
       style="opacity:1;fill:#ffc025;fill-opacity:1;stroke-width:10"
       id="rect16"
       width="9.9549189"
       height="9.9549189"
       x="17.07206"
       y="-18.207762"
       rx="2.0172606"
       ry="2.0172606"
       transform="rotate(45)" /><path
       id="rect17"
       style="opacity:1;fill:#ff872b;fill-opacity:1;stroke-width:10"
       d="m 17.071381,-13.22925 0.0014,2.959629 c 0,1.1175622 0.898797,2.016359 2.016359,2.016359 l 2.959629,0.00138 v -2.96101 c 0,-1.117562 -0.898797,-2.016359 -2.01636,-2.016359 z"
       transform="rotate(45)" /></g><rect
     style="opacity:1;fill:url(#linearGradient24);fill-opacity:1;stroke:none;stroke-width:1.34457;stroke-dasharray:none;stroke-opacity:1"
     id="rect22"
     width="11.223767"
     height="33.996002"
     x="31"
     y="15.002"
     rx="0"
     ry="0" /><rect
     style="opacity:1;fill:#fcffff;fill-opacity:1;stroke:none;stroke-width:0.567581;stroke-dasharray:none;stroke-opacity:1"
     id="rect23"
     width="2"
     height="33.996002"
     x="31"
     y="15.002"
     rx="0"
     ry="0" /><rect
     style="opacity:1;fill:#85edec;fill-opacity:1;stroke:none;stroke-width:0.28379;stroke-dasharray:none;stroke-opacity:1"
     id="rect24"
     width="0.5"
     height="33.996002"
     x="33"
     y="15.002"
     rx="0"
     ry="0" /><rect
     style="opacity:1;fill:#85edec;fill-opacity:1;stroke:none;stroke-width:0.28379;stroke-dasharray:none;stroke-opacity:1"
     id="rect25"
     width="0.5"
     height="33.996002"
     x="30.5"
     y="15.002"
     rx="0"
     ry="0" /></svg>
