<?xml version="1.0" encoding="UTF-8" standalone="no"?>
<svg
   xml:space="preserve"
   width="64"
   height="64"
   version="1.1"
   id="svg3"
   sodipodi:docname="com.revolutionarygamesstudio.ThriveLauncher.svg"
   inkscape:version="1.4.2 (ebf0e940d0, 2025-05-08)"
   xmlns:inkscape="http://www.inkscape.org/namespaces/inkscape"
   xmlns:sodipodi="http://sodipodi.sourceforge.net/DTD/sodipodi-0.dtd"
   xmlns:xlink="http://www.w3.org/1999/xlink"
   xmlns="http://www.w3.org/2000/svg"
   xmlns:svg="http://www.w3.org/2000/svg"><sodipodi:namedview
     id="namedview3"
     pagecolor="#505050"
     bordercolor="#eeeeee"
     borderopacity="1"
     inkscape:showpageshadow="0"
     inkscape:pageopacity="0"
     inkscape:pagecheckerboard="0"
     inkscape:deskcolor="#505050"
     inkscape:zoom="4.1929222"
     inkscape:cx="15.502315"
     inkscape:cy="21.583992"
     inkscape:window-width="1920"
     inkscape:window-height="996"
     inkscape:window-x="0"
     inkscape:window-y="0"
     inkscape:window-maximized="1"
     inkscape:current-layer="svg3" /><defs
     id="defs2"><linearGradient
       id="a"
       x1="2.048"
       x2="14.886"
       y1="14.864"
       y2="2.053"
       gradientTransform="matrix(3.7796,0,0,3.7796,-86.574465,-48.414921)"
       gradientUnits="userSpaceOnUse"><stop
         offset="0"
         stop-color="#363636"
         style="stop-color:#2e2e2e;stop-opacity:1"
         id="stop1" /><stop
         offset="1"
         stop-color="#6c6c6c"
         style="stop-color:#181818;stop-opacity:1"
         id="stop2" /></linearGradient><filter
       id="b"
       width="1.2936999"
       height="1.2943004"
       x="-0.14684995"
       y="-0.14715018"
       style="color-interpolation-filters:sRGB"><feGaussianBlur
         stdDeviation="2.969"
         id="feGaussianBlur2" /></filter><filter
       inkscape:collect="always"
       style="color-interpolation-filters:sRGB"
       id="filter1057"
       x="-0.026999999"
       width="1.054"
       y="-0.026999999"
       height="1.054"><feGaussianBlur
         inkscape:collect="always"
         stdDeviation="0.61875"
         id="feGaussianBlur1059" /></filter><radialGradient
       inkscape:collect="always"
       xlink:href="#linearGradient37376"
       id="radialGradient37378"
       cx="8.4665003"
       cy="8.4665003"
       fx="8.4665003"
       fy="8.4665003"
       r="7.276"
       gradientUnits="userSpaceOnUse"
       gradientTransform="translate(12.832135,-4.0151978)" /><linearGradient
       inkscape:collect="always"
       id="linearGradient37376"><stop
         style="stop-color:#5e6a76;stop-opacity:1;"
         offset="0"
         id="stop37372" /><stop
         style="stop-color:#1d2123;stop-opacity:1;"
         offset="1"
         id="stop37374" /></linearGradient></defs><g
     id="g536"
     transform="matrix(3.779602,0,0,3.779602,-48.500363,15.17585)"><rect
       ry="15"
       y="4.4999995"
       x="4.4999995"
       height="55"
       width="55"
       id="rect1055"
       style="opacity:0.3;fill:#141414;fill-opacity:1;stroke-width:2.74436;stroke-linecap:round;filter:url(#filter1057)"
       transform="matrix(0.26457812,0,0,0.26457812,12.832135,-4.0151978)" /><rect
       x="14.022635"
       y="-2.8246975"
       width="14.552"
       height="14.552"
       ry="3.9686999"
       stroke-linecap="round"
       stroke-width="0.72611"
       id="rect36685"
       style="fill:url(#radialGradient37378);fill-opacity:1" /></g><path
     d="m29.33 7.758-.743.062c-1.55.129-4.252.813-6.14 1.555-3.16 1.242-5.814 2.966-8.061 5.234-3.81 3.847-5.888 8.755-6.576 15.528l-.07.681h2.36l.19-1.338c1.114-7.835 4.933-14.104 11.064-18.164 1.92-1.271 4.652-2.537 7.101-3.289zm-8.903 13.01-1.149.57-1.148.572v2.352l5.764.027 5.763.03-.039 2.894c-.021 1.592-.002 6.254.043 10.36l.082 7.462 1.049.535 1.05.533 1.175.006 1.175.006V24.264h11.58V21.91l-1.148-.572-1.148-.57H31.952Zm33.355 10.269-.066 1.121c-.197 3.322-1.337 7.107-3.055 10.156-3.538 6.28-10.69 10.719-18.191 11.291l-1.01.078v2.499l.3-.036c.288-.033.302-.062.333-.705l.033-.672 1.277-.134a42 42 0 0 1 1.389-.131c.06 0 .2.271.31.603.222.664.442.803 1.01.633.69-.207.682-.193.664-.957l-.017-.713 1.39-.414c1.523-.451 1.438-.465 1.823.299.128.255.307.465.398.465.208 0 .805-.256 1.068-.457.193-.148.192-.174-.025-.746-.124-.326-.189-.624-.144-.662.044-.039.627-.358 1.296-.71l1.22-.638.31.369c.171.203.365.439.43.525.1.137.168.133.492-.03a3.4 3.4 0 0 0 .613-.409l.24-.219-.336-.595c-.185-.328-.293-.631-.24-.676l1.162-.987 1.065-.904.503.445c.572.504.666.492 1.233-.154l.346-.394-.217-.303a3 3 0 0 0-.385-.443c-.093-.078-.168-.216-.168-.305 0-.183 1.727-2.43 1.926-2.506.07-.027.378.077.685.232l.559.284.326-.516c.18-.283.328-.573.328-.645 0-.07-.22-.295-.488-.498-.269-.202-.49-.41-.492-.464-.004-.105 1.185-2.362 1.244-2.362.02 0 .244.074.5.164.692.244.82.213 1.016-.246.368-.866.367-.868-.3-1.195-.333-.164-.607-.336-.607-.383s.148-.626.328-1.289.329-1.238.329-1.275c0-.038.315-.038.7-.002l.702.064.117-.338a2.5 2.5 0 0 0 .12-.687c0-.333-.03-.358-.663-.534l-.662-.183.059-.463c.031-.254.086-.886.123-1.404l.066-.944.402-.066c.22-.037.56-.068.756-.068.333-.002.356-.025.356-.383v-.383h-1.24z"
     style="fill:#000;fill-opacity:1;filter:url(#b)"
     id="path2" /><path
     d="m29.33 7.758-.743.062c-1.55.129-4.252.813-6.14 1.555-3.16 1.242-5.814 2.966-8.061 5.234-3.81 3.847-5.888 8.755-6.576 15.528l-.07.681h2.36l.19-1.338c1.114-7.835 4.933-14.104 11.064-18.164 1.92-1.271 4.652-2.537 7.101-3.289zm-8.903 13.01-1.149.57-1.148.572v2.352l5.764.027 5.763.03-.039 2.894c-.021 1.592-.002 6.254.043 10.36l.082 7.462 1.049.535 1.05.533 1.175.006 1.175.006V24.264h11.58V21.91l-1.148-.572-1.148-.57H31.952Zm33.355 10.269-.066 1.121c-.197 3.322-1.337 7.107-3.055 10.156-3.538 6.28-10.69 10.719-18.191 11.291l-1.01.078v2.498l.3-.035c.288-.033.302-.063.333-.705l.033-.672 1.277-.134a42 42 0 0 1 1.389-.131c.06 0 .2.271.31.603.222.664.442.803 1.01.633.69-.207.682-.193.664-.957l-.017-.713 1.39-.414c1.523-.452 1.438-.465 1.823.299.128.255.307.465.398.465.208 0 .805-.256 1.068-.457.193-.148.192-.175-.025-.746-.124-.326-.189-.624-.144-.663.044-.038.627-.357 1.296-.708l1.22-.64.31.37c.171.203.365.439.43.525.1.137.168.133.492-.03a3.4 3.4 0 0 0 .613-.409l.24-.219-.336-.595c-.185-.328-.293-.631-.24-.676l1.162-.987 1.065-.904.503.445c.572.504.666.492 1.233-.154l.346-.394-.217-.303A3 3 0 0 0 49 47.43c-.093-.077-.168-.215-.168-.304 0-.183 1.727-2.43 1.926-2.506.07-.027.378.077.685.232l.559.284.326-.516c.18-.284.328-.573.328-.645 0-.071-.22-.295-.488-.498-.269-.202-.49-.41-.492-.464-.004-.105 1.185-2.362 1.244-2.362.02 0 .244.074.5.164.692.244.82.213 1.016-.246.368-.866.367-.868-.3-1.195-.333-.164-.607-.336-.607-.383s.148-.626.328-1.289.329-1.238.329-1.275c0-.038.315-.038.7-.002l.702.064.117-.338a2.5 2.5 0 0 0 .12-.687c0-.333-.03-.358-.663-.534l-.662-.183.059-.463c.031-.254.086-.886.123-1.404l.066-.944.402-.066c.22-.037.56-.068.756-.069.333 0 .356-.024.356-.382v-.383h-1.24z"
     style="fill:#fff;fill-opacity:1"
     id="path3" /></svg>
