<?xml version="1.0" encoding="UTF-8" standalone="no"?>
<svg
   width="64"
   height="64"
   version="1.1"
   id="svg5"
   sodipodi:docname="coolero.svg"
   inkscape:version="1.4.2 (ebf0e940d0, 2025-05-08)"
   xmlns:inkscape="http://www.inkscape.org/namespaces/inkscape"
   xmlns:sodipodi="http://sodipodi.sourceforge.net/DTD/sodipodi-0.dtd"
   xmlns:xlink="http://www.w3.org/1999/xlink"
   xmlns="http://www.w3.org/2000/svg"
   xmlns:svg="http://www.w3.org/2000/svg">
  <sodipodi:namedview
     id="namedview5"
     pagecolor="#505050"
     bordercolor="#eeeeee"
     borderopacity="1"
     inkscape:showpageshadow="0"
     inkscape:pageopacity="0"
     inkscape:pagecheckerboard="0"
     inkscape:deskcolor="#505050"
     inkscape:zoom="5.9296875"
     inkscape:cx="46.714097"
     inkscape:cy="35.499341"
     inkscape:window-width="1920"
     inkscape:window-height="996"
     inkscape:window-x="0"
     inkscape:window-y="0"
     inkscape:window-maximized="1"
     inkscape:current-layer="svg5" />
  <defs
     id="defs4">
    <linearGradient
       id="a"
       x1="7.937"
       x2="7.937"
       y1="15.081"
       y2="1.852"
       gradientTransform="matrix(3.7796,0,0,3.7796,-4.6729995,-11.705001)"
       gradientUnits="userSpaceOnUse">
      <stop
         offset="0"
         stop-color="#f1efeb"
         id="stop1" />
      <stop
         offset="1"
         stop-color="#fdfcfc"
         id="stop2" />
    </linearGradient>
    <linearGradient
       id="b"
       x1="32"
       x2="32"
       y1="52"
       y2="12"
       gradientUnits="userSpaceOnUse">
      <stop
         offset="0"
         stop-color="#07f"
         id="stop3" />
      <stop
         offset="1"
         stop-color="#00eaff"
         id="stop4" />
    </linearGradient>
    <filter
       inkscape:collect="always"
       style="color-interpolation-filters:sRGB"
       id="filter1057"
       x="-0.026999999"
       width="1.054"
       y="-0.026999999"
       height="1.054">
      <feGaussianBlur
         inkscape:collect="always"
         stdDeviation="0.61875"
         id="feGaussianBlur1059" />
    </filter>
    <linearGradient
       inkscape:collect="always"
       xlink:href="#linearGradient1051"
       id="linearGradient1053"
       x1="-127"
       y1="60"
       x2="-72"
       y2="5"
       gradientUnits="userSpaceOnUse"
       gradientTransform="translate(131.5,-0.50999707)" />
    <linearGradient
       inkscape:collect="always"
       id="linearGradient1051">
      <stop
         style="stop-color:#dee0e2;stop-opacity:1"
         offset="0"
         id="stop1047" />
      <stop
         style="stop-color:#f1f3f5;stop-opacity:0.99607843"
         offset="1"
         id="stop1049" />
    </linearGradient>
  </defs>
  <rect
     ry="15"
     y="4.4999995"
     x="4.4999995"
     height="55"
     width="55"
     id="rect1055"
     style="opacity:0.3;fill:#141414;fill-opacity:1;stroke-width:2.74436;stroke-linecap:round;filter:url(#filter1057)" />
  <rect
     style="fill:url(#linearGradient1053);fill-opacity:1;stroke-width:2.74436;stroke-linecap:round"
     id="rect1045"
     width="54.999996"
     height="54.999996"
     x="4.5000019"
     y="4.5000019"
     ry="14.999999" />
  <rect
     width="64"
     height="64"
     fill="none"
     rx="0"
     ry="0"
     style="paint-order:stroke fill markers"
     id="rect5" />
  <path
     fill="url(#b)"
     d="M32.707 12c-.25 0-.5.065-.723.195-.439.253-.699.7-.699 1.205v2.204c-7.187.305-13.275 5.17-15.135 12.119A4.293 4.293 0 0 0 12 32.002a4.286 4.286 0 0 0 4.15 4.277 16.42 16.42 0 0 0 6.399 9.16l.826-1.17a14.94 14.94 0 0 1-5.795-8.183 4.29 4.29 0 0 0 2.99-4.084 4.29 4.29 0 0 0-2.99-4.086c1.748-6.227 7.232-10.58 13.705-10.885v2.143c0 .505.26.954.699 1.207.223.126.47.193.723.193.245 0 .497-.067.72-.193l3.96-2.307a2.04 2.04 0 0 0 1.04-1.787c0-.744-.386-1.413-1.04-1.785l-3.96-2.307a1.43 1.43 0 0 0-.72-.195m0 1.43 3.965 2.306c.297.171.328.44.328.551s-.03.38-.328.55l-3.96 2.3zm8.742 5.135-.826 1.168a14.94 14.94 0 0 1 5.797 8.183c-1.734.55-2.992 2.172-2.992 4.084s1.259 3.536 3 4.086c-1.756 6.227-7.24 10.58-13.713 10.885v-2.143c0-.506-.262-.952-.701-1.205a1.43 1.43 0 0 0-1.444 0l-3.957 2.307a2.03 2.03 0 0 0-1.043 1.785c0 .744.388 1.413 1.043 1.785l3.957 2.307c.223.126.477.193.723.193.253 0 .497-.067.72-.193.44-.253.702-.7.702-1.205v-2.203c7.187-.305 13.273-5.17 15.133-12.12A4.294 4.294 0 0 0 52 32a4.29 4.29 0 0 0-4.152-4.277 16.4 16.4 0 0 0-6.399-9.158M32 24.145c-4.33 0-7.857 3.527-7.857 7.857S27.67 39.858 32 39.858s7.857-3.526 7.857-7.856S36.33 24.145 32 24.145m0 1.427c3.542 0 6.428 2.889 6.428 6.43S35.542 38.43 32 38.43s-6.428-2.886-6.428-6.428 2.886-6.43 6.428-6.43m-15.715 3.573a2.857 2.857 0 1 1 .001 5.712 2.857 2.857 0 0 1-.001-5.712m15.715 0a2.857 2.857 0 1 0-.001 5.712A2.857 2.857 0 0 0 32 29.145m15.715 0a2.857 2.857 0 1 1 .001 5.712 2.857 2.857 0 0 1-.001-5.712m-16.43 15.684v5.736l-3.957-2.299a.62.62 0 0 1-.328-.55c0-.11.03-.38.328-.551z"
     id="path5" />
</svg>
