<?xml version="1.0" encoding="UTF-8" standalone="no"?>
<svg
   width="64"
   height="64"
   viewBox="0 0 16.933 16.933"
   version="1.1"
   id="svg2"
   sodipodi:docname="counter-strike-2.svg"
   inkscape:version="1.4.2 (ebf0e940d0, 2025-05-08)"
   xmlns:inkscape="http://www.inkscape.org/namespaces/inkscape"
   xmlns:sodipodi="http://sodipodi.sourceforge.net/DTD/sodipodi-0.dtd"
   xmlns:xlink="http://www.w3.org/1999/xlink"
   xmlns="http://www.w3.org/2000/svg"
   xmlns:svg="http://www.w3.org/2000/svg">
  <defs
     id="defs2">
    <filter
       inkscape:collect="always"
       style="color-interpolation-filters:sRGB"
       id="filter1057"
       x="-0.026999999"
       width="1.054"
       y="-0.026999999"
       height="1.054">
      <feGaussianBlur
         inkscape:collect="always"
         stdDeviation="0.61875"
         id="feGaussianBlur1059" />
    </filter>
    <linearGradient
       inkscape:collect="always"
       xlink:href="#linearGradient1051"
       id="linearGradient1053"
       x1="-127"
       y1="60"
       x2="-72"
       y2="5"
       gradientUnits="userSpaceOnUse"
       gradientTransform="matrix(0.26457812,0,0,0.26457812,34.792022,-0.13493516)" />
    <linearGradient
       inkscape:collect="always"
       id="linearGradient1051">
      <stop
         style="stop-color:#dee0e2;stop-opacity:1"
         offset="0"
         id="stop1047" />
      <stop
         style="stop-color:#f1f3f5;stop-opacity:0.99607843"
         offset="1"
         id="stop1049" />
    </linearGradient>
    <linearGradient
       gradientUnits="userSpaceOnUse"
       y2="14.5"
       y1="48.099998"
       x2="38.776001"
       x1="15.2"
       id="linearGradient1030">
      <stop
         id="stop22"
         offset="0"
         stop-color="#32dcff" />
      <stop
         id="stop24"
         offset="1"
         stop-color="#3296ff" />
    </linearGradient>
    <linearGradient
       gradientUnits="userSpaceOnUse"
       y2="14.595"
       y1="48.27"
       x2="48.712002"
       x1="26.625999"
       id="linearGradient1038">
      <stop
         id="stop27"
         offset="0"
         stop-color="#ff8228" />
      <stop
         id="stop29"
         offset=".48986"
         stop-color="#ff5a1e" />
      <stop
         id="stop31"
         offset="1"
         stop-color="#ff8c55" />
    </linearGradient>
  </defs>
  <sodipodi:namedview
     id="namedview2"
     pagecolor="#505050"
     bordercolor="#eeeeee"
     borderopacity="1"
     inkscape:showpageshadow="0"
     inkscape:pageopacity="0"
     inkscape:pagecheckerboard="0"
     inkscape:deskcolor="#505050"
     inkscape:zoom="4.1929222"
     inkscape:cx="56.04683"
     inkscape:cy="42.810238"
     inkscape:window-width="1920"
     inkscape:window-height="996"
     inkscape:window-x="0"
     inkscape:window-y="0"
     inkscape:window-maximized="1"
     inkscape:current-layer="svg2" />
  <rect
     ry="15"
     y="4.5"
     x="4.5"
     height="55"
     width="55"
     id="rect1055"
     style="opacity:0.3;fill:#141414;fill-opacity:1;stroke-width:2.74436;stroke-linecap:round;filter:url(#filter1057)"
     transform="scale(0.26457812)" />
  <rect
     style="fill:url(#linearGradient1053);fill-opacity:1;stroke-width:0.726098;stroke-linecap:round"
     id="rect1045"
     width="14.551796"
     height="14.551796"
     x="1.1906021"
     y="1.1906021"
     ry="3.9686716" />
  <path
     id="path3"
     d="M 5.1592734 1.1906016 C 2.9606294 1.1906016 1.1906016 2.9606294 1.1906016 5.1592734 L 1.1906016 11.773727 C 1.1906016 12.57596 1.4262682 13.321151 1.8324102 13.944094 C 1.9180721 13.736215 2.0246157 13.484652 2.1564151 13.177748 C 2.7964151 11.675748 2.7895653 11.692988 3.2405653 11.349988 A 0.7 0.7 0 0 0 3.457602 11.135018 A 12 12 0 0 0 3.6214131 9.8038597 A 9 9 0 0 1 3.7071943 9.0028908 C 3.7191943 8.9818908 3.7962064 8.9602154 3.8772064 8.9512154 L 4.0255148 8.9367463 L 4.2125798 8.4468633 C 4.3755798 8.0008633 4.4056517 7.9441887 4.5386517 7.8091887 C 4.6676517 7.6811887 4.7001769 7.6231629 4.7861769 7.3611629 C 4.8421769 7.1951629 4.8895278 7.0411721 4.8895278 7.0221721 C 4.8895278 7.0031721 4.8054628 6.9357632 4.7024628 6.8707632 A 2 2 0 0 1 4.5024789 6.728139 A 9 9 0 0 1 4.7675738 5.8641261 L 5.0523053 5.0300849 L 5.2703756 5.0197498 L 5.4874123 5.0140655 L 5.6693098 4.603246 C 6.0713098 3.706246 6.2203227 3.4527841 6.5333227 3.1547841 C 6.7733227 2.9247841 6.9535246 2.8452484 7.2335246 2.8452484 A 1 1 0 0 0 7.4815666 2.8230279 C 7.5284416 2.7930279 7.608375 2.6235463 7.5968028 2.5951393 L 7.596286 2.5946226 L 7.5957693 2.5941058 L 7.5952525 2.5935891 L 7.5952525 2.5930723 L 7.5947357 2.5925556 L 7.594219 2.5920388 C 7.5940297 2.5919466 7.5933886 2.5921091 7.5931855 2.5920388 L 7.4774326 2.5289948 C 7.3874326 2.4749948 7.3874309 2.475013 7.3694309 2.144013 A 1.4 1.4 0 0 1 7.3921681 1.6691159 A 1.1 1.1 0 0 1 7.7347761 1.1906016 L 5.1592734 1.1906016 z M 6.1126848 9.6028424 C 6.0954348 9.6043424 6.0768922 9.6104288 6.0573922 9.6209288 C 5.9913922 9.6539288 5.9004688 9.8430487 5.4274688 10.920049 C 5.1234688 11.613049 4.8401963 12.225112 4.8021963 12.279112 C 4.7621963 12.335112 4.2702948 12.97477 3.7102948 13.70277 C 3.2997788 14.235055 2.9386352 14.711787 2.7677352 14.945564 C 3.43189 15.446199 4.2598021 15.742398 5.1592734 15.742398 L 6.3075012 15.742398 C 6.3182318 15.568912 6.3937849 15.253058 6.5632945 14.670134 A 16 16 0 0 0 6.8692129 13.378765 L 7.0025355 12.687865 L 7.3203393 12.114784 C 7.4953393 11.797784 7.6376263 11.527115 7.6376263 11.508115 C 7.6376263 11.507865 7.6371411 11.506831 7.6371096 11.506565 C 7.6332223 11.489102 7.5699832 11.44164 7.4934519 11.398046 C 7.2924519 11.289046 6.9951834 10.901075 6.4981834 10.088075 C 6.2712543 9.7218028 6.1989143 9.6117525 6.129221 9.6028424 C 6.123721 9.6023424 6.1184348 9.6023424 6.1126848 9.6028424 z "
     style="fill:#faab17;fill-opacity:1" />
  <path
     id="path4"
     d="M 9.1935731 1.1906016 A 1.4 1.4 0 0 1 9.7816393 1.8680663 A 0.28 0.28 0 0 0 9.9035933 2.019992 C 9.9945933 2.068992 9.996632 2.0920445 9.935632 2.3300445 C 9.825632 2.7670445 9.8492267 2.7269117 9.7072267 2.7269117 C 9.5802267 2.7269117 9.5764879 2.7302431 9.5764879 2.8142431 L 9.5764879 2.9000243 L 13.62629 2.9000243 L 13.676415 2.8250949 C 13.816415 2.6270949 13.821232 2.6249682 13.871232 2.6669682 C 13.901898 2.6903015 13.91759 2.754751 13.918256 2.860751 L 13.918256 3.0147437 L 14.845313 3.0147437 L 14.845313 3.2477998 L 13.920323 3.2477998 L 13.913605 3.4720711 L 13.90327 3.6968592 L 11.533436 3.7247639 L 11.482277 3.9748729 A 1.4 1.4 0 0 1 11.377376 4.3148972 L 11.320533 4.4068794 L 11.4182 4.8311346 A 3 3 0 0 1 11.505531 5.2869117 L 11.505014 5.2874285 L 11.504498 5.2879452 L 11.504498 5.288462 C 11.472407 5.320893 10.750069 5.5039485 10.657538 5.5039485 C 10.637538 5.5039485 10.606259 5.4268358 10.587259 5.3308358 C 10.568853 5.2378358 10.539506 5.163822 10.523182 5.1592734 C 10.522925 5.1592365 10.522398 5.1587567 10.522148 5.1587567 A 1.2 1.2 0 0 0 10.361437 5.4760437 A 1.6 1.6 0 0 1 10.169205 5.8522408 A 1.4 1.4 0 0 1 9.620412 6.0532581 C 9.564412 6.0552581 9.4172433 5.9868439 9.2142433 5.8708439 L 8.8964395 5.6837789 L 8.773452 5.8010821 C 8.707452 5.8690821 8.651498 5.9408596 8.651498 5.9638596 A 0.5 0.5 0 0 0 8.7284944 6.1090676 L 8.8085912 6.2088011 L 8.441179 6.9219218 L 8.0742836 7.631942 L 7.9574972 7.6412436 C 7.8904972 7.6462436 7.8311746 7.6641007 7.8241746 7.6831007 A 2.3 2.3 0 0 0 7.8365767 8.0732501 C 7.8565767 8.3952501 7.8661762 8.4378403 7.9321762 8.5078403 C 8.0091762 8.5888403 9.0724302 10.502119 9.2354302 10.845119 C 9.3224302 11.032119 9.3284459 11.069002 9.3284459 11.335002 L 9.3284459 11.624901 L 8.7284944 13.069746 L 8.1306098 14.518208 L 7.9275254 14.723876 A 1.4 1.4 0 0 0 7.7275416 14.952798 A 1.2 1.2 0 0 0 7.8432945 15.163117 L 7.9631815 15.345014 L 8.3316272 15.461801 C 8.5376272 15.524801 8.7171451 15.579104 8.7331451 15.579104 C 8.7856989 15.579104 8.8193647 15.665207 8.802907 15.742398 L 11.773727 15.742398 C 13.972224 15.742398 15.742162 13.972684 15.742398 11.774243 L 15.742398 11.773727 L 15.742398 5.1592734 L 15.742398 5.1587567 C 15.742162 2.9603164 13.972224 1.1906016 11.773727 1.1906016 L 9.1935731 1.1906016 z "
     style="fill:#27387e;fill-opacity:1" />
</svg>
