<?xml version="1.0" encoding="UTF-8" standalone="no"?>
<svg
   xml:space="preserve"
   width="64"
   height="64"
   viewBox="0 0 16.933 16.933"
   version="1.1"
   id="svg6"
   sodipodi:docname="counter-strike.svg"
   inkscape:version="1.3.2 (091e20ef0f, 2023-11-25, custom)"
   xmlns:inkscape="http://www.inkscape.org/namespaces/inkscape"
   xmlns:sodipodi="http://sodipodi.sourceforge.net/DTD/sodipodi-0.dtd"
   xmlns:xlink="http://www.w3.org/1999/xlink"
   xmlns="http://www.w3.org/2000/svg"
   xmlns:svg="http://www.w3.org/2000/svg"><sodipodi:namedview
     id="namedview6"
     pagecolor="#ffffff"
     bordercolor="#000000"
     borderopacity="0.25"
     inkscape:showpageshadow="2"
     inkscape:pageopacity="0.0"
     inkscape:pagecheckerboard="0"
     inkscape:deskcolor="#d1d1d1"
     inkscape:zoom="4.3973203"
     inkscape:cx="7.049748"
     inkscape:cy="25.242646"
     inkscape:window-width="1920"
     inkscape:window-height="1003"
     inkscape:window-x="0"
     inkscape:window-y="0"
     inkscape:window-maximized="1"
     inkscape:current-layer="svg6" /><defs
     id="defs5"><linearGradient
       id="a"><stop
         offset="0"
         style="stop-color:#f6f95c;stop-opacity:1"
         id="stop1" /><stop
         offset=".475"
         style="stop-color:#fff;stop-opacity:1"
         id="stop2" /><stop
         offset="1"
         style="stop-color:#3e7ef5;stop-opacity:1"
         id="stop3" /></linearGradient><linearGradient
       id="b"
       x1="7.937"
       x2="7.937"
       y1="15.081"
       y2="1.852"
       gradientUnits="userSpaceOnUse"><stop
         offset="0"
         stop-color="#2858e4"
         id="stop4" /><stop
         offset="1"
         stop-color="#5ab9f4"
         id="stop5" /></linearGradient><linearGradient
       xlink:href="#a"
       id="c"
       x1="8.467"
       x2="8.467"
       y1="1.05"
       y2="15.867"
       gradientUnits="userSpaceOnUse" /><filter
       id="d"
       width="1.3433884"
       height="1.2567303"
       x="-0.17169421"
       y="-0.12836515"
       style="color-interpolation-filters:sRGB"><feGaussianBlur
         stdDeviation=".637"
         id="feGaussianBlur5" /></filter><filter
       id="filter1057"
       x="-0.026999999"
       y="-0.026999999"
       width="1.054"
       height="1.054"
       color-interpolation-filters="sRGB"><feGaussianBlur
         stdDeviation="0.61875"
         id="feGaussianBlur1" /></filter><linearGradient
       id="linearGradient1053"
       x1="-127"
       x2="-72"
       y1="60"
       y2="5"
       gradientTransform="matrix(0.26457812,0,0,0.26457812,34.791995,-0.13452687)"
       gradientUnits="userSpaceOnUse"><stop
         stop-color="#2e55e7"
         offset="0"
         id="stop1-3" /><stop
         stop-color="#0d7eef"
         offset="1"
         id="stop2-6" /></linearGradient></defs><rect
     transform="scale(0.26457812)"
     x="4.5"
     y="4.5"
     width="55"
     height="55"
     ry="15"
     fill="#141414"
     filter="url(#filter1057)"
     opacity="0.3"
     stroke-linecap="round"
     stroke-width="2.7444"
     id="rect3" /><rect
     x="1.1904695"
     y="1.1904695"
     width="14.552061"
     height="14.552061"
     ry="3.9686718"
     fill="url(#linearGradient1053)"
     stroke-linecap="round"
     stroke-width="0.726108"
     id="rect4-7"
     style="fill:url(#linearGradient1053)" /><path
     d="M5.103 14.511c-.133-.054-.125-.39.025-.976.069-.267.105-.547.08-.623-.05-.162.255-1.103.54-1.657.228-.445.377-1.435.312-2.08-.027-.267-.008-.458.054-.533.068-.081.08-.273.04-.64-.049-.46-.037-.54.093-.638.142-.107.14-.113-.04-.115-.187-.003-.19-.012-.142-.58.027-.317.05-.6.05-.63.002-.03.097-.066.212-.08.2-.024.21-.049.226-.542.03-.868.519-1.529 1.035-1.4.17.043.181.023.176-.342-.007-.467.161-.758.546-.941.263-.126.291-.124.634.043.374.181.514.401.514.806a.4.4 0 0 1-.172.338c-.101.067-.149.154-.115.209.088.142.348.112.52-.06.12-.12.162-.129.195-.043.032.085.325.115 1.315.133l1.273.024.026-.199c.023-.17.042-.15.136.14l.109.337h.584c.466 0 .584.024.584.12 0 .133.051.129-1.41.124-1.045-.003-1.053-.002-1.258.215-.169.179-.198.27-.161.507.032.214.013.302-.075.336-.066.025-.119.14-.119.255 0 .233-.409.671-.625.67-.072 0-.322-.09-.556-.2-.234-.108-.458-.197-.497-.197-.115 0-.083.21.047.318.081.067.12.247.12.555 0 .595-.122.94-.344.972-.24.034-.198.31.101.685.13.161.313.473.408.691.095.219.243.555.329.747.14.311.15.45.1 1.273a26 26 0 0 1-.115 1.346c-.048.357-.032.455.103.626.088.112.282.254.43.316.183.077.262.157.244.25-.027.14-.409.164-1.336.086l-.358-.03.02-.319c.047-.801.037-1.392-.03-1.869-.045-.317-.045-.615 0-.772.088-.303-.033-.5-.306-.5-.13 0-.215-.087-.324-.327-.081-.18-.239-.385-.35-.456a1 1 0 0 1-.271-.238c-.054-.086-.091-.069-.174.078-.2.352-.365.744-.413.98-.026.129-.167.39-.313.582-.147.193-.265.442-.265.56 0 .27-.327 1.076-.525 1.295-.12.133-.15.286-.148.736.002.312-.034.594-.08.626-.091.065-.505.07-.659.008m5.31-9.296a.15.15 0 0 1 .093-.134c.094-.031.025-.223-.078-.218-.03.001-.118.088-.194.193-.163.224-.109.5.069.353.06-.05.11-.137.11-.194"
     style="fill:#000;stroke-width:1.20253;filter:url(#d);opacity:.25"
     id="path5" /><path
     d="M5.103 14.511c-.133-.054-.125-.39.025-.976.069-.267.105-.547.08-.623-.05-.162.255-1.103.54-1.657.228-.445.377-1.435.312-2.08-.027-.267-.008-.458.054-.533.068-.081.08-.273.04-.64-.049-.46-.037-.54.093-.638.142-.107.14-.113-.04-.115-.187-.003-.19-.012-.142-.58.027-.317.05-.6.05-.63.002-.03.097-.066.212-.08.2-.024.21-.049.226-.542.03-.868.519-1.529 1.035-1.4.17.043.181.023.176-.342-.007-.467.161-.758.546-.941.263-.126.291-.124.634.043.374.181.514.401.514.806a.4.4 0 0 1-.172.338c-.101.067-.149.154-.115.209.088.142.348.112.52-.06.12-.12.162-.129.195-.043.032.085.325.115 1.315.133l1.273.024.026-.199c.023-.17.042-.15.136.14l.109.337h.584c.466 0 .584.024.584.12 0 .133.051.129-1.41.124-1.045-.003-1.053-.002-1.258.215-.169.179-.198.27-.161.507.032.214.013.302-.075.336-.066.025-.119.14-.119.255 0 .233-.409.671-.625.67-.072 0-.322-.09-.556-.2-.234-.108-.458-.197-.497-.197-.115 0-.083.21.047.318.081.067.12.247.12.555 0 .595-.122.94-.344.972-.24.034-.198.31.101.685.13.161.313.473.408.691.095.219.243.555.329.747.14.311.15.45.1 1.273a26 26 0 0 1-.115 1.346c-.048.357-.032.455.103.626.088.112.282.254.43.316.183.077.262.157.244.25-.027.14-.409.164-1.336.086l-.358-.03.02-.319c.047-.801.037-1.392-.03-1.869-.045-.317-.045-.615 0-.772.088-.303-.033-.5-.306-.5-.13 0-.215-.087-.324-.327-.081-.18-.239-.385-.35-.456a1 1 0 0 1-.271-.238c-.054-.086-.091-.069-.174.078-.2.352-.365.744-.413.98-.026.129-.167.39-.313.582-.147.193-.265.442-.265.56 0 .27-.327 1.076-.525 1.295-.12.133-.15.286-.148.736.002.312-.034.594-.08.626-.091.065-.505.07-.659.008m5.31-9.296a.15.15 0 0 1 .093-.134c.094-.031.025-.223-.078-.218-.03.001-.118.088-.194.193-.163.224-.109.5.069.353.06-.05.11-.137.11-.194"
     style="fill:#000;stroke-width:1.20253"
     id="path6" /></svg>
