<?xml version="1.0" encoding="UTF-8" standalone="no"?>
<svg
   width="64"
   height="64"
   version="1.1"
   id="svg2"
   sodipodi:docname="cozy.svg"
   inkscape:version="1.3.2 (091e20ef0f, 2023-11-25, custom)"
   xmlns:inkscape="http://www.inkscape.org/namespaces/inkscape"
   xmlns:sodipodi="http://sodipodi.sourceforge.net/DTD/sodipodi-0.dtd"
   xmlns:xlink="http://www.w3.org/1999/xlink"
   xmlns="http://www.w3.org/2000/svg"
   xmlns:svg="http://www.w3.org/2000/svg">
  <defs
     id="defs2">
    <filter
       inkscape:collect="always"
       style="color-interpolation-filters:sRGB"
       id="filter1057"
       x="-0.026999999"
       width="1.054"
       y="-0.026999999"
       height="1.054">
      <feGaussianBlur
         inkscape:collect="always"
         stdDeviation="0.61875"
         id="feGaussianBlur1059" />
    </filter>
    <linearGradient
       inkscape:collect="always"
       xlink:href="#linearGradient1051"
       id="linearGradient1053"
       x1="-127"
       y1="60"
       x2="-72"
       y2="5"
       gradientUnits="userSpaceOnUse"
       gradientTransform="translate(131.5,-0.50999716)" />
    <linearGradient
       inkscape:collect="always"
       id="linearGradient1051">
      <stop
         style="stop-color:#df2a2a;stop-opacity:1"
         offset="0"
         id="stop1047" />
      <stop
         style="stop-color:#f83f3f;stop-opacity:1"
         offset="1"
         id="stop1049" />
    </linearGradient>
  </defs>
  <sodipodi:namedview
     id="namedview2"
     pagecolor="#ffffff"
     bordercolor="#000000"
     borderopacity="0.25"
     inkscape:showpageshadow="2"
     inkscape:pageopacity="0.0"
     inkscape:pagecheckerboard="0"
     inkscape:deskcolor="#d1d1d1"
     inkscape:zoom="4.3531261"
     inkscape:cx="25.269197"
     inkscape:cy="21.823397"
     inkscape:window-width="1920"
     inkscape:window-height="995"
     inkscape:window-x="0"
     inkscape:window-y="0"
     inkscape:window-maximized="1"
     inkscape:current-layer="svg2" />
  <rect
     style="opacity:0.3;fill:#141414;fill-opacity:1;stroke-width:2.74436;stroke-linecap:round;filter:url(#filter1057)"
     id="rect1055"
     width="55"
     height="55"
     x="4.4999995"
     y="4.4999995"
     ry="15" />
  <rect
     ry="14.999999"
     y="4.5000019"
     x="4.5000019"
     height="54.999996"
     width="54.999996"
     id="rect1045"
     style="fill:url(#linearGradient1053);fill-opacity:1;stroke-width:2.74436;stroke-linecap:round" />
  <rect
     ry="10.51622"
     y="8.8837509"
     x="8.8837509"
     height="46.232498"
     width="46.232498"
     id="rect3"
     style="opacity:0.2;fill:#ffffff;fill-opacity:1;stroke-width:3.7796" />
  <path
     fill="#ffffff"
     d="m 32.0005,16.152 c -8.429,0 -15.261,8.41 -15.261,18.782 v 2.348 a 7.043,7.043 0 0 0 7.043,7.044 V 30.239 a 7.044,7.044 0 0 0 -2.88,0.626 c 1.606,-6.673 6.07,-11.191 11.098,-11.191 5.029,0 9.492,4.518 11.097,11.191 a 6.986,6.986 0 0 0 -2.88,-0.626 v 14.087 a 7.043,7.043 0 0 0 7.043,-7.043 v -2.348 c 0,-10.374 -6.832,-18.782 -15.26,-18.782 z m -5.87,10.565 v 2.348 h 11.74 v -2.348 z m 0,4.696 v 2.348 h 11.74 v -2.348 z m 0,4.695 v 2.348 h 11.74 v -2.348 z m 0,4.696 v 2.348 h 11.74 v -2.348 z m 0,4.696 v 2.347 h 11.74 V 45.5 Z"
     id="path3" />
</svg>
