<?xml version="1.0" encoding="UTF-8" standalone="no"?>
<svg
   xmlns:dc="http://purl.org/dc/elements/1.1/"
   xmlns:cc="http://creativecommons.org/ns#"
   xmlns:rdf="http://www.w3.org/1999/02/22-rdf-syntax-ns#"
   xmlns:svg="http://www.w3.org/2000/svg"
   xmlns="http://www.w3.org/2000/svg"
   xmlns:sodipodi="http://sodipodi.sourceforge.net/DTD/sodipodi-0.dtd"
   xmlns:inkscape="http://www.inkscape.org/namespaces/inkscape"
   width="64"
   height="64"
   version="1.1"
   viewBox="0 0 16.933 16.933"
   id="svg14"
   sodipodi:docname="csd-clipboard.svg"
   inkscape:version="0.92.5 (6c0c36ef5a, 2020-05-15, custom)">
  <metadata
     id="metadata20">
    <rdf:RDF>
      <cc:Work
         rdf:about="">
        <dc:format>image/svg+xml</dc:format>
        <dc:type
           rdf:resource="http://purl.org/dc/dcmitype/StillImage" />
        <dc:title></dc:title>
      </cc:Work>
    </rdf:RDF>
  </metadata>
  <defs
     id="defs18">
    <filter
       color-interpolation-filters="sRGB"
       height="1.048"
       width="1.048"
       y="-.024"
       x="-.024"
       id="filter2761">
      <feGaussianBlur
         id="feGaussianBlur827"
         stdDeviation="0.14552168" />
    </filter>
    <linearGradient
       gradientUnits="userSpaceOnUse"
       gradientTransform="translate(-8.4983737e-4,0.06624016)"
       y2="1.17"
       y1="15.576"
       x2="15.65"
       x1="1.3315"
       id="linearGradient1024">
      <stop
         id="stop830"
         offset="0"
         stop-color="#ffc841" />
      <stop
         id="stop832"
         offset=".5167"
         stop-color="#ffbe37" />
      <stop
         id="stop834"
         offset="1"
         stop-color="#ffc841" />
    </linearGradient>
    <linearGradient
       gradientUnits="userSpaceOnUse"
       y2="-13.703"
       y1="-5.5948"
       x2="16.465"
       x1="8.5858"
       id="linearGradient1063">
      <stop
         id="stop837"
         offset="0"
         stop-color="#f5f5f5" />
      <stop
         id="stop839"
         offset="1"
         stop-color="#fff" />
    </linearGradient>
    <linearGradient
       gradientUnits="userSpaceOnUse"
       y2="-11.992"
       y1="-5.3552"
       x2="15.926"
       x1="8.9222"
       id="linearGradient1071">
      <stop
         id="stop842"
         offset="0"
         stop-color="#ffdc96" />
      <stop
         id="stop844"
         offset="1"
         stop-color="#fff" />
    </linearGradient>
    <filter
       color-interpolation-filters="sRGB"
       height="1.168"
       width="1.168"
       y="-.084016"
       x="-.084016"
       id="filter1091">
      <feGaussianBlur
         id="feGaussianBlur847"
         stdDeviation="0.30215974" />
    </filter>
  </defs>
  <sodipodi:namedview
     pagecolor="#ffffff"
     bordercolor="#666666"
     borderopacity="1"
     objecttolerance="10"
     gridtolerance="10"
     guidetolerance="10"
     inkscape:pageopacity="0"
     inkscape:pageshadow="2"
     inkscape:window-width="1920"
     inkscape:window-height="1000"
     id="namedview16"
     showgrid="false"
     inkscape:zoom="3.6875"
     inkscape:cx="32"
     inkscape:cy="32"
     inkscape:window-x="0"
     inkscape:window-y="0"
     inkscape:window-maximized="1"
     inkscape:current-layer="svg14" />
  <path
     style="opacity:0.3;fill:#141414;filter:url(#filter2761);enable-background:new"
     inkscape:connector-curvature="0"
     d="m 10.70815,1.1904502 c 4.405,0 5.0345,0.67282 5.0345,5.388 V 10.35455 c 0,4.7152 -0.62954,5.388 -5.0345,5.388 H 6.2249502 c -4.405,0 -5.0346,-0.6728 -5.0346,-5.388 V 6.5784502 c 0,-4.7152 0.62954,-5.388 5.0346,-5.388 z"
     id="path854" />
  <path
     style="fill:url(#linearGradient1024);enable-background:new"
     inkscape:connector-curvature="0"
     d="m 10.70815,1.1162402 c 4.405,0 5.0345,0.67282 5.0345,5.388 V 10.28034 c 0,4.7152 -0.62954,5.388 -5.0345,5.388 H 6.2249502 c -4.405,0 -5.0346,-0.6728 -5.0346,-5.388 V 6.5042402 c 0,-4.7152 0.62954,-5.388 5.0346,-5.388 z"
     id="path856" />
  <g
     style="fill:#f08705"
     transform="matrix(1.3006,0,0,1.34,-2.5458498,-2.2859498)"
     id="g866">
    <path
       inkscape:connector-curvature="0"
       d="M 3.9856,6.9374 C 3.97975,6.966989 3.97613,6.997848 3.970519,7.02817 h 8.9931 c -0.0053,-0.030317 -0.0092,-0.061202 -0.01567,-0.09077 z"
       style="opacity:0.6;stroke-width:0.60512;paint-order:normal"
       id="path858" />
    <path
       inkscape:connector-curvature="0"
       d="m 4.1332,4.9655 c 0.00521,0.030317 0.010173,0.060579 0.015962,0.09077 h 8.6371 c 0.0054,-0.032616 0.01,-0.058576 0.01482,-0.09077 z"
       style="opacity:0.6;stroke-width:0.59403998;paint-order:normal"
       id="path860" />
    <path
       inkscape:connector-curvature="0"
       d="M 3.9856,8.9093 C 3.97975,8.938889 3.97613,8.969748 3.970519,9.00007 h 8.9931 c -0.0053,-0.030317 -0.0092,-0.061202 -0.01567,-0.09077 z"
       style="opacity:0.6;stroke-width:0.60512;paint-order:normal"
       id="path862" />
    <path
       inkscape:connector-curvature="0"
       d="m 3.9856,10.881 c -0.00585,0.02959 -0.00947,0.06045 -0.015081,0.09077 h 8.9931 c -0.0053,-0.03032 -0.0092,-0.0612 -0.01567,-0.09077 z"
       style="opacity:0.6;stroke-width:0.60512;paint-order:normal"
       id="path864" />
  </g>
</svg>
