<?xml version="1.0" encoding="UTF-8" standalone="no"?>
<svg
   width="64"
   height="64"
   version="1"
   id="svg6"
   sodipodi:docname="css.svg"
   inkscape:version="1.3.2 (091e20ef0f, 2023-11-25, custom)"
   xmlns:inkscape="http://www.inkscape.org/namespaces/inkscape"
   xmlns:sodipodi="http://sodipodi.sourceforge.net/DTD/sodipodi-0.dtd"
   xmlns:xlink="http://www.w3.org/1999/xlink"
   xmlns="http://www.w3.org/2000/svg"
   xmlns:svg="http://www.w3.org/2000/svg">
  <sodipodi:namedview
     id="namedview6"
     pagecolor="#ffffff"
     bordercolor="#000000"
     borderopacity="0.25"
     inkscape:showpageshadow="2"
     inkscape:pageopacity="0.0"
     inkscape:pagecheckerboard="0"
     inkscape:deskcolor="#d1d1d1"
     inkscape:zoom="4.3973203"
     inkscape:cx="-1.7055842"
     inkscape:cy="36.613207"
     inkscape:window-width="1920"
     inkscape:window-height="1003"
     inkscape:window-x="0"
     inkscape:window-y="0"
     inkscape:window-maximized="1"
     inkscape:current-layer="svg6" />
  <defs
     id="defs4">
    <linearGradient
       id="b"
       x1="22.873"
       x2="22.873"
       y1="5.525"
       y2="58.921"
       gradientUnits="userSpaceOnUse">
      <stop
         offset="0"
         stop-color="#3ea6ea"
         id="stop1" />
      <stop
         offset="1"
         stop-color="#22e2a0"
         id="stop2" />
    </linearGradient>
    <linearGradient
       id="a"
       x1="7.937"
       x2="7.937"
       y1="15.081"
       y2="1.852"
       gradientTransform="scale(3.7796)"
       gradientUnits="userSpaceOnUse">
      <stop
         offset="0"
         stop-color="#f1efeb"
         id="stop3" />
      <stop
         offset="1"
         stop-color="#fdfcfc"
         id="stop4" />
    </linearGradient>
    <filter
       inkscape:collect="always"
       style="color-interpolation-filters:sRGB"
       id="filter1057"
       x="-0.026999999"
       width="1.054"
       y="-0.026999999"
       height="1.054">
      <feGaussianBlur
         inkscape:collect="always"
         stdDeviation="0.61875"
         id="feGaussianBlur1059" />
    </filter>
    <linearGradient
       inkscape:collect="always"
       xlink:href="#linearGradient1051"
       id="linearGradient1053"
       x1="-127"
       y1="60"
       x2="-72"
       y2="5"
       gradientUnits="userSpaceOnUse"
       gradientTransform="translate(131.5,-0.50999909)" />
    <linearGradient
       inkscape:collect="always"
       id="linearGradient1051">
      <stop
         style="stop-color:#02db96;stop-opacity:1"
         offset="0"
         id="stop1047" />
      <stop
         style="stop-color:#13d39b;stop-opacity:1"
         offset="1"
         id="stop1049" />
    </linearGradient>
    <filter
       id="h"
       x="-0.060000002"
       y="-0.060000002"
       width="1.12"
       height="1.12"
       color-interpolation-filters="sRGB">
      <feGaussianBlur
         stdDeviation="0.85"
         id="feGaussianBlur2" />
    </filter>
    <linearGradient
       id="g"
       x1="32"
       x2="32"
       y1="15"
       y2="49"
       gradientTransform="matrix(0.26458,0,0,0.26458,18.368043,-5.28e-5)"
       gradientUnits="userSpaceOnUse">
      <stop
         stop-color="#303030"
         offset="0"
         id="stop5" />
      <stop
         stop-color="#424242"
         offset="1"
         id="stop7" />
    </linearGradient>
  </defs>
  <rect
     style="opacity:0.3;fill:#141414;fill-opacity:1;stroke-width:2.74436;stroke-linecap:round;filter:url(#filter1057)"
     id="rect1055"
     width="55"
     height="55"
     x="4.4999995"
     y="4.4999995"
     ry="15" />
  <rect
     ry="14.999999"
     y="4.5000019"
     x="4.5000019"
     height="54.999996"
     width="54.999996"
     id="rect1045"
     style="fill:url(#linearGradient1053);fill-opacity:1;stroke-width:2.74436;stroke-linecap:round" />
  <path
     fill="#333333"
     d="m 32,11.998667 a 20,20 0 0 0 -20,20 20,20 0 0 0 20,20.002666 20,20 0 0 0 20,-20.002666 20,20 0 0 0 -20,-20 m -0.92,6.008 c 1.056,-0.05733 1.764,0.537333 1.974667,1.382667 0.03067,0.170666 0.09467,0.442666 0.218666,0.614666 0.344,0.444 0.784,0.786667 -0.408,0.82 0,0.445334 -0.032,0.788 0.03067,1.164 0.693333,0.412 0.753333,-1.401333 1.792,-0.512 h 0.06267 C 34.812,21.442667 34.876,21.372 34.94,21.337334 V 21.168 h 0.597333 v 0.306667 h 1.096 v 0.174667 l 1.476,0.102666 v -0.48 h 0.377333 v 0.513334 l 1.005334,0.104 v -0.344 h 0.376 V 21.924 l 0.973333,0.06667 v -0.58 H 41.216 v 0.613333 h 0.157333 v 0.546664 L 42,22.64 v 0.48 l -0.846667,0.204 H 38.8 c -0.06267,0.24 -0.126667,0.546667 -0.156,0.614667 -0.253334,-0.03333 -0.377334,0.482667 -0.597334,0.482667 A 0.79999999,0.79999999 0 0 1 37.92,24.214667 c 0.064,1.026667 0.44,1.914667 1.036,2.701333 l -0.625334,0.478667 a 6.2666666,6.2666666 0 0 1 -1.098666,-2.636 c -0.16,0.206667 -0.16,0.445333 -0.190667,0.753333 0,0.205334 -0.157333,0.172 -0.346667,0.172 -0.468,-0.170666 -0.782666,0 -0.782666,0 -0.596,0.06667 -0.848,0.786667 -1.570667,1.197334 -0.092,0.03467 -0.122666,0.238666 -0.249333,0.204 l -0.09333,-0.068 c -0.410667,0.136 -1.353334,0.170666 -1.821334,0 0,0.445333 -0.06667,0.72 -0.189333,0.992 -0.128,0.581333 -0.06133,0.238666 -0.22,0.82 -0.06267,0.684 -0.282667,0.513333 -0.282667,0.82 C 31.392,30.06 31.298667,30.368 31.328,30.742667 c 0.533333,0 0.532,0.03733 0.532,0.03733 0.536,0.342667 1.257333,1.4 1.573333,1.948 0.373334,0.54667 0.658667,0.78667 0.658667,1.53867 a 1.2,1.2 0 0 0 -0.378667,0.310666 C 34.436,35.364 35.282667,36.457333 35.66,37.244 c 0.126666,0.273333 0.189333,0.616 0.252,0.956 0.157333,1.506667 -0.124,3.456 -0.533333,3.9 -0.06133,0.342667 0.375999,0.856 0.626666,1.06 0.753333,0.582667 1.822667,1.709333 1.32,2.6 -1.097333,0.684 -2.2,-0.24 -3.014666,-0.821333 -0.284,-0.237334 -0.345334,-0.236 -0.374667,-0.546667 v -0.205333 c 0,-0.170667 -0.03467,-0.376 0.03067,-0.546667 0.09333,-0.24 0.03067,-0.48 0.03067,-0.685333 -0.126666,-0.137334 0.03067,-0.786667 -0.126666,-0.853334 -0.658667,-0.377333 -1.036,-1.506666 -1.224,-3.592 -0.752007,-1.606666 -2.293341,-2.702666 -3.141341,-4.242666 -0.22,0.104 -0.188,0.377333 -0.312,0.48 C 28.470667,36.252 27.998667,37.789333 27.654667,39.364 26.9,41.517333 26.305333,42.1 24.42,42.510667 24.294667,43.844 25.676,43.4 25.362667,44.392 c -0.564,0.170667 -0.565334,0.170667 -1.948,0 -0.313334,-0.205333 -0.594667,-1.061333 -0.721334,-1.470667 0,-0.104 -0.313333,0.06667 -0.344,0 a 2.5333333,2.5333333 0 0 1 -0.346666,-0.72 C 21.969337,42.030667 22.412,41.929333 22.349333,41.828 22.6,41.348 23.04,41.108 23.322667,40.662667 c 0.156,-0.237334 0,-0.616 0.092,-0.786667 0.346666,-0.238667 1.226666,-1.333333 1.476,-1.845333 0.346666,-2.257334 0.817333,-3.661334 1.477333,-5.781334 0.06267,-0.752 -0.22,-1.710666 -0.156,-2.531999 0.03067,-0.922667 0.341333,-1.674667 0.5,-2.632 0.157333,-0.957334 0.284,-2.052 0.221333,-3.044 0.252,-1.094667 0.784,-2.461334 1.978667,-2.529334 0.09333,0 0.218667,0.03467 0.28,-0.06667 -0.092,-1.096 -0.374667,-2.705334 0.725333,-3.149334 a 3.4666666,3.4666666 0 0 1 1.164,-0.289333 z m 2.116,5.266667 c -0.150667,0 -0.36,0.05067 -0.613333,0.257333 -0.122667,0.136 -0.376,0.270667 -0.314667,1.022667 0.346667,0 0.598667,0 0.818667,0.03467 0.813333,-0.616 1.568,-0.134666 1.664,-1.264 C 34.152,23.358667 33.808,23.254667 33.432,23.324 c 0,0 -0.08667,-0.052 -0.236,-0.052 z"
     id="path6"
     style="stroke-width:1.33333" />
</svg>
