<?xml version="1.0" encoding="UTF-8" standalone="no"?>
<svg
   width="64"
   height="64"
   fill="none"
   style="-webkit-print-color-adjust:exact"
   version="1.1"
   id="svg4"
   sodipodi:docname="curseforge.svg"
   xml:space="preserve"
   inkscape:version="1.4.2 (ebf0e940d0, 2025-05-08)"
   xmlns:inkscape="http://www.inkscape.org/namespaces/inkscape"
   xmlns:sodipodi="http://sodipodi.sourceforge.net/DTD/sodipodi-0.dtd"
   xmlns:xlink="http://www.w3.org/1999/xlink"
   xmlns="http://www.w3.org/2000/svg"
   xmlns:svg="http://www.w3.org/2000/svg"><sodipodi:namedview
     id="namedview4"
     pagecolor="#505050"
     bordercolor="#eeeeee"
     borderopacity="1"
     inkscape:showpageshadow="0"
     inkscape:pageopacity="0"
     inkscape:pagecheckerboard="0"
     inkscape:deskcolor="#505050"
     inkscape:zoom="4.640625"
     inkscape:cx="3.1245791"
     inkscape:cy="37.925926"
     inkscape:window-width="2560"
     inkscape:window-height="1411"
     inkscape:window-x="0"
     inkscape:window-y="0"
     inkscape:window-maximized="1"
     inkscape:current-layer="svg4" /><defs
     id="defs4"><linearGradient
       id="a"
       x1="7.937"
       x2="7.937"
       y1="15.081"
       y2="1.852"
       gradientTransform="scale(3.7796)"
       gradientUnits="userSpaceOnUse"><stop
         offset="0"
         stop-color="#242424"
         id="stop1" /><stop
         offset="1"
         stop-color="#424242"
         id="stop2" /></linearGradient><linearGradient
       id="b"
       x1="25.75"
       x2="25.75"
       y1="52"
       y2="12"
       gradientUnits="userSpaceOnUse"><stop
         offset="0"
         stop-color="#cc9010"
         id="stop3" /><stop
         offset="1"
         stop-color="#ffc852"
         id="stop4" /></linearGradient><linearGradient
       id="linearGradient984"
       x1="7.9373002"
       x2="7.9373002"
       y1="15.417"
       y2="1.5149"
       gradientTransform="matrix(3.779602,0,0,3.779602,138.44053,-268.27789)"
       gradientUnits="userSpaceOnUse"><stop
         stop-color="#f55b00"
         offset="0"
         id="stop2-6" /><stop
         stop-color="#ffa627"
         offset="1"
         id="stop4-7" /></linearGradient><filter
       inkscape:collect="always"
       style="color-interpolation-filters:sRGB"
       id="filter1057"
       x="-0.026999999"
       width="1.054"
       y="-0.026999999"
       height="1.054"><feGaussianBlur
         inkscape:collect="always"
         stdDeviation="0.61875"
         id="feGaussianBlur1059" /></filter><linearGradient
       inkscape:collect="always"
       xlink:href="#linearGradient1051"
       id="linearGradient1053"
       x1="-127"
       y1="60"
       x2="-72"
       y2="5"
       gradientUnits="userSpaceOnUse"
       gradientTransform="translate(131.5,-0.51000061)" /><linearGradient
       inkscape:collect="always"
       id="linearGradient1051"><stop
         style="stop-color:#ff8228;stop-opacity:1"
         offset="0"
         id="stop1047" /><stop
         id="stop963"
         offset="0.50054371"
         style="stop-color:#ff5a1e;stop-opacity:0.99607843" /><stop
         style="stop-color:#ff8c55;stop-opacity:0.99607843"
         offset="1"
         id="stop1049" /></linearGradient></defs><rect
     ry="15"
     y="4.4999995"
     x="4.4999995"
     height="55"
     width="55"
     id="rect1055"
     style="opacity:0.3;fill:#141414;fill-opacity:1;stroke-width:2.74436;stroke-linecap:round;filter:url(#filter1057)" /><rect
     style="fill:url(#linearGradient1053);fill-opacity:1;stroke-width:2.74436;stroke-linecap:round"
     id="rect1045"
     width="54.999996"
     height="54.999996"
     x="4.5000019"
     y="4.5000019"
     ry="14.999999" /><path
     id="rect8"
     style="opacity:1;fill:#fafafa;fill-opacity:1;stroke-width:0.161106"
     d="m 24.929073,17.580956 c -12.925904,0 -15.5330207,0.03622 -15.425962,0.214915 0.070862,0.118243 0.889929,1.102107 1.820319,2.186266 l 1.691617,1.971041 0.08056,2.365307 0.08055,2.364996 3.302688,0.103835 c 7.724805,0.243261 11.358014,1.856437 11.358014,5.04245 0,1.569396 -0.723219,2.85492 -2.725913,4.845156 -0.893153,0.887596 -2.203948,2.005253 -2.912821,2.483938 -0.708866,0.478679 -1.314989,0.890256 -1.346748,0.914403 -0.09597,0.07298 -1.920619,6.184669 -1.846432,6.184669 0.03784,0 0.554189,-0.389928 1.147565,-0.866579 4.044881,-3.249153 8.691962,-4.831767 15.175804,-5.16831 l 1.852726,-0.09628 -1.288854,0.488351 c -1.995753,0.755914 -4.792369,2.196963 -6.13967,3.163604 -1.432463,1.027749 -2.96285,2.324219 -2.96285,2.510057 0,0.0717 4.647696,0.130269 10.328128,0.130269 9.048536,0 10.316661,-0.02947 10.236563,-0.238197 -0.0503,-0.13104 -0.49143,-1.526625 -0.980485,-3.101307 -0.734969,-2.36647 -0.964597,-2.918986 -1.323149,-3.185314 -0.238586,-0.177218 -1.00389,-0.746375 -1.700746,-1.264939 -3.209024,-2.38798 -4.966546,-4.810484 -4.957173,-6.832555 0.0108,-2.335138 2.550912,-4.291588 6.92412,-5.333513 C 49.862242,25.38029 52.837771,23.844514 54.02864,21.96671 54.287932,21.557844 54.5,21.165095 54.5,21.09384 c 0,-0.07126 -3.153661,-0.129645 -7.00814,-0.129645 h -7.008133 v -1.691616 -1.691623 z" /></svg>
