<?xml version="1.0" encoding="UTF-8" standalone="no"?>
<svg
   width="64"
   height="64"
   viewBox="0 0 16.933 16.933"
   version="1.1"
   id="svg3"
   sodipodi:docname="datespell.svg"
   xml:space="preserve"
   inkscape:version="1.3.2 (091e20ef0f, 2023-11-25, custom)"
   xmlns:inkscape="http://www.inkscape.org/namespaces/inkscape"
   xmlns:sodipodi="http://sodipodi.sourceforge.net/DTD/sodipodi-0.dtd"
   xmlns:xlink="http://www.w3.org/1999/xlink"
   xmlns="http://www.w3.org/2000/svg"
   xmlns:svg="http://www.w3.org/2000/svg"><defs
     id="defs3"><linearGradient
       id="linearGradient5"
       inkscape:collect="always"><stop
         style="stop-color:#f5f74b;stop-opacity:1"
         offset="0"
         id="stop6" /><stop
         style="stop-color:#13c1a6;stop-opacity:1"
         offset="0.5"
         id="stop9" /><stop
         style="stop-color:#017dfa;stop-opacity:1"
         offset="1"
         id="stop8" /></linearGradient><linearGradient
       id="linearGradient893"
       x1="-106.56"
       x2="-60.509998"
       y1="15.282"
       y2="45.549"
       gradientUnits="userSpaceOnUse"><stop
         stop-color="#00e2f4"
         offset="0"
         id="stop1" /><stop
         stop-color="#2a94ec"
         stop-opacity=".99608"
         offset="1"
         id="stop2" /></linearGradient><linearGradient
       id="linearGradient901"
       x1="-64.713997"
       x2="-95.380997"
       y1="43.986"
       y2="22.948999"
       gradientUnits="userSpaceOnUse"><stop
         stop-color="#0ee3aa"
         offset="0"
         id="stop3" /><stop
         stop-color="#249aed"
         offset="1"
         id="stop4" /></linearGradient><filter
       inkscape:collect="always"
       style="color-interpolation-filters:sRGB"
       id="filter1057"
       x="-0.026999999"
       width="1.054"
       y="-0.026999999"
       height="1.054"><feGaussianBlur
         inkscape:collect="always"
         stdDeviation="0.61875"
         id="feGaussianBlur1059" /></filter><filter
       id="h"
       x="-0.060000002"
       y="-0.060000002"
       width="1.12"
       height="1.12"
       color-interpolation-filters="sRGB"><feGaussianBlur
         stdDeviation="0.85"
         id="feGaussianBlur2" /></filter><linearGradient
       id="g"
       x1="32"
       x2="32"
       y1="15"
       y2="49"
       gradientTransform="scale(0.26458)"
       gradientUnits="userSpaceOnUse"><stop
         stop-color="#303030"
         offset="0"
         id="stop5" /><stop
         stop-color="#424242"
         offset="1"
         id="stop7" /></linearGradient><linearGradient
       inkscape:collect="always"
       xlink:href="#linearGradient5"
       id="linearGradient8"
       x1="15.742398"
       y1="1.1906016"
       x2="1.1906016"
       y2="15.742398"
       gradientUnits="userSpaceOnUse" /></defs><sodipodi:namedview
     id="namedview3"
     pagecolor="#ffffff"
     bordercolor="#000000"
     borderopacity="0.25"
     inkscape:showpageshadow="2"
     inkscape:pageopacity="0.0"
     inkscape:pagecheckerboard="0"
     inkscape:deskcolor="#d1d1d1"
     inkscape:zoom="6.1562501"
     inkscape:cx="-3.2487309"
     inkscape:cy="38.659898"
     inkscape:window-width="1920"
     inkscape:window-height="995"
     inkscape:window-x="0"
     inkscape:window-y="0"
     inkscape:window-maximized="1"
     inkscape:current-layer="svg3" /><rect
     transform="scale(0.26457812)"
     ry="15"
     y="4.5"
     x="4.5"
     height="55"
     width="55"
     id="rect1055"
     style="opacity:0.3;fill:#141414;fill-opacity:1;stroke-width:2.74436;stroke-linecap:round;filter:url(#filter1057)" /><rect
     id="rect1045"
     width="14.551796"
     height="14.551796"
     x="1.1906016"
     y="1.1906021"
     ry="3.9686716"
     style="fill:url(#linearGradient8);fill-opacity:1" /><rect
     transform="matrix(0.26458,0,0,0.26458,-0.042436,-0.04234)"
     x="15.16"
     y="15.16"
     width="34"
     height="34"
     ry="5"
     fill="#303030"
     fill-rule="evenodd"
     filter="url(#h)"
     opacity="0.5"
     style="paint-order:stroke fill markers"
     id="rect31" /><path
     d="m 5.2916,3.9687 h 6.3499 c 0.73289,0 1.3229,0.59001 1.3229,1.3228999 V 11.6415 c 0,0.73289 -0.59001,1.3229 -1.3229,1.3229 H 5.2916 c -0.73289,0 -1.3229,-0.59001 -1.3229,-1.3229 V 5.2915999 c 0,-0.73289 0.59001,-1.3228998 1.3229,-1.3228999 z"
     fill="url(#g)"
     fill-rule="evenodd"
     stroke-width="0.26458"
     style="fill:url(#g);paint-order:stroke fill markers"
     id="path33" /><path
     d="m 5.2916,11.02 h 3.1059 v 0.62118 H 5.2916 Z"
     fill="#f9f9f9"
     stroke-width="0.26457"
     id="path35" /><g
     fill="#ffffff"
     stroke-width="0.105"
     aria-label="DS"
     id="g4"
     transform="matrix(1.069004,0,0,1.069004,-0.58422483,-0.75113611)"><path
       d="m 6.348,6.429 v 1.867 h 0.283 q 0.484,0 0.738,-0.24 Q 7.625,7.816 7.625,7.359 7.625,6.904 7.371,6.666 7.117,6.428 6.631,6.429 Z M 5.559,5.832 h 0.832 q 0.697,0 1.037,0.1 0.343,0.1 0.587,0.337 0.215,0.207 0.32,0.477 0.104,0.271 0.104,0.613 0,0.347 -0.105,0.62 Q 8.23,8.249 8.014,8.456 7.769,8.694 7.424,8.794 7.08,8.892 6.391,8.892 H 5.56 Z m 5.614,0.096 V 6.576 Q 10.921,6.463 10.681,6.406 10.441,6.349 10.228,6.349 9.945,6.349 9.81,6.427 9.675,6.505 9.675,6.668 q 0,0.123 0.09,0.193 0.092,0.068 0.332,0.117 l 0.336,0.068 q 0.51,0.102 0.726,0.311 0.216,0.209 0.215,0.595 0,0.506 -0.302,0.754 -0.299,0.246 -0.916,0.246 -0.29,0 -0.584,-0.056 Q 9.279,8.841 8.986,8.732 V 8.066 q 0.293,0.156 0.566,0.236 0.274,0.078 0.528,0.078 0.259,0 0.396,-0.086 0.137,-0.086 0.137,-0.246 0,-0.144 -0.094,-0.221 -0.092,-0.078 -0.37,-0.14 L 9.843,7.619 Q 9.383,7.521 9.17,7.306 8.96,7.091 8.96,6.726 8.96,6.269 9.254,6.023 9.55,5.777 10.103,5.777 q 0.252,0 0.519,0.039 0.266,0.037 0.55,0.112 z"
       id="path4" /></g></svg>
