<?xml version="1.0" encoding="UTF-8" standalone="no"?>
<svg
   sodipodi:docname="dbgate.svg"
   inkscape:version="1.4.2 (ebf0e940d0, 2025-05-08)"
   id="svg6"
   version="1.1"
   viewBox="0 0 16.933333 16.933333"
   height="64"
   width="64"
   inkscape:export-filename="/home/eleme/.icons/Mkos-Big-Sur/128x128/apps/sombra.png"
   inkscape:export-xdpi="96"
   inkscape:export-ydpi="96"
   xml:space="preserve"
   xmlns:inkscape="http://www.inkscape.org/namespaces/inkscape"
   xmlns:sodipodi="http://sodipodi.sourceforge.net/DTD/sodipodi-0.dtd"
   xmlns="http://www.w3.org/2000/svg"
   xmlns:svg="http://www.w3.org/2000/svg"
   xmlns:rdf="http://www.w3.org/1999/02/22-rdf-syntax-ns#"
   xmlns:cc="http://creativecommons.org/ns#"
   xmlns:dc="http://purl.org/dc/elements/1.1/"><metadata
     id="metadata43"><rdf:RDF><cc:Work
         rdf:about=""><dc:format>image/svg+xml</dc:format><dc:type
           rdf:resource="http://purl.org/dc/dcmitype/StillImage" /></cc:Work></rdf:RDF></metadata><defs
     id="defs2"><linearGradient
       id="lgrad"
       x1="32"
       y1="32"
       x2="32"
       y2="992"
       gradientUnits="userSpaceOnUse"
       gradientTransform="translate(0,-896)"><stop
         offset="0%"
         stop-color="#f8f8f8"
         id="stop2" /><stop
         offset="100%"
         stop-color="#ccc"
         id="stop4" /></linearGradient><radialGradient
       id="rgrad"
       x1="0%"
       y1="0%"
       x2="0%"
       y2="100%"
       fx="512"
       fy="494.39999"
       cx="512"
       cy="512"
       r="440"
       gradientUnits="userSpaceOnUse"
       gradientTransform="translate(0,-896)"><stop
         offset="0%"
         stop-color="#00f0ff"
         id="stop7" /><stop
         offset="100%"
         stop-color="#0070e0"
         id="stop9" /></radialGradient><radialGradient
       gradientTransform="matrix(0.03024122,0,0,0.02958968,1.132043,2.8247994)"
       gradientUnits="userSpaceOnUse"
       r="440"
       cy="306.1813"
       cx="523.57568"
       fy="306.1813"
       fx="523.57568"
       y2="100%"
       x2="0%"
       y1="0%"
       x1="0%"
       id="rgrad-3"><stop
         style="stop-color:#03d7e4;stop-opacity:1"
         id="stop7-6"
         stop-color="#00f0ff"
         offset="0%" /><stop
         id="stop9-7"
         stop-color="#0070e0"
         offset="100%" /></radialGradient><clipPath
       clipPathUnits="userSpaceOnUse"
       id="clipPath971"><path
         style="opacity:1;fill:#917c6f;fill-opacity:1;stroke:none;stroke-width:0.3;stroke-linecap:round;stroke-linejoin:round;stroke-miterlimit:4;stroke-dasharray:none;stroke-opacity:1"
         d="m -0.55397135,-0.27595216 c -0.027071,2e-8 -0.0485759,0.0220216 -0.0485759,0.0490926 V 33.951415 c 2e-8,0.02707 0.0215048,0.04909 0.0485759,0.04909 H 33.76073 c 0.02707,0 0.04909,-0.02201 0.04909,-0.04909 V -0.22685954 c 0,-0.027071 -0.02201,-0.0490926 -0.04909,-0.0490926 z M 8.8459717,2.5187093 H 25.034131 c 3.572997,0 6.449735,2.8762216 6.449735,6.4492187 v 16.188676 c 0,3.572997 -2.876738,6.449219 -6.449735,6.449219 H 8.8459717 c -3.5729971,0 -6.4497356,-2.876222 -6.4497356,-6.449219 V 8.967928 c 0,-3.5729971 2.8767385,-6.4492187 6.4497356,-6.4492187 z"
         id="path973"
         inkscape:connector-curvature="0" /></clipPath><linearGradient
       id="linearGradient862"
       x1="7.9373002"
       x2="7.9373002"
       y1="15.081"
       y2="1.852"
       gradientTransform="matrix(1.0000192,0,0,1.0000192,19.599644,-2.64e-4)"
       gradientUnits="userSpaceOnUse"><stop
         stop-color="#0e71de"
         offset="0"
         id="stop313" /><stop
         stop-color="#25c9ff"
         offset="1"
         id="stop315" /></linearGradient><linearGradient
       id="linearGradient991"
       x1="32.068001"
       x2="32.068001"
       y1="18.941"
       y2="46.602001"
       gradientUnits="userSpaceOnUse"
       gradientTransform="matrix(0.26458333,0,0,0.26458333,-23.119074,-2.64e-4)"><stop
         stop-color="#edfbff"
         offset="0"
         id="stop323" /><stop
         stop-color="#c6e4fa"
         offset="1"
         id="stop325" /></linearGradient><filter
       id="filter1057"
       x="-0.026999999"
       y="-0.026999999"
       width="1.054"
       height="1.054"
       color-interpolation-filters="sRGB"><feGaussianBlur
         stdDeviation="0.61875"
         id="feGaussianBlur860" /></filter><linearGradient
       id="linearGradient1053"
       x1="-127"
       x2="-72"
       y1="60"
       y2="5"
       gradientTransform="matrix(0.26458333,0,0,0.26458333,34.792708,-0.1349375)"
       gradientUnits="userSpaceOnUse"><stop
         stop-color="#32d7ff"
         offset="0"
         id="stop863" /><stop
         stop-color="#329bff"
         offset="1"
         id="stop865" /></linearGradient><filter
       id="filter2174"
       x="-0.15989216"
       y="-0.094877244"
       width="1.3197843"
       height="1.1897545"
       color-interpolation-filters="sRGB"><feGaussianBlur
         stdDeviation="0.25608494"
         id="feGaussianBlur4" /></filter></defs><sodipodi:namedview
     inkscape:window-maximized="1"
     inkscape:window-y="0"
     inkscape:window-x="0"
     inkscape:window-height="1012"
     inkscape:window-width="1920"
     units="px"
     showgrid="false"
     inkscape:current-layer="layer1"
     inkscape:document-units="mm"
     inkscape:cy="37.501913"
     inkscape:cx="41.163716"
     inkscape:zoom="3.959798"
     inkscape:pageshadow="2"
     inkscape:pageopacity="0.0"
     borderopacity="1.0"
     bordercolor="#666666"
     pagecolor="#ffffff"
     id="base"
     inkscape:showpageshadow="0"
     inkscape:pagecheckerboard="0"
     inkscape:deskcolor="#d1d1d1" /><g
     id="layer1"
     inkscape:groupmode="layer"
     inkscape:label="Layer 1"><rect
       x="4.4999995"
       y="4.4999995"
       width="55"
       height="55"
       ry="15"
       fill="#141414"
       filter="url(#filter1057)"
       opacity="0.3"
       stroke-linecap="round"
       stroke-width="2.7444"
       id="rect896"
       transform="scale(0.26458333)" /><rect
       x="1.190625"
       y="1.190625"
       width="14.552083"
       height="14.552083"
       ry="3.96875"
       fill="url(#linearGradient1053)"
       stroke-linecap="round"
       stroke-width="0.726122"
       id="rect898"
       style="fill:url(#linearGradient1053)" /><circle
       cx="-275.43643"
       cy="-338.48148"
       r="0"
       fill="#5e4aa6"
       id="circle884"
       style="stroke-width:0.264583" /><circle
       cx="-244.09544"
       cy="-348.8793"
       r="0"
       id="circle886"
       style="fill:#5e4aa6;stroke-width:0.264586" /><circle
       cx="46.823906"
       cy="-14.051625"
       r="0"
       fill-rule="evenodd"
       id="circle888"
       style="fill:#5e4aa6;stroke-width:0.264586" /><circle
       cx="-223.32506"
       cy="-367.79971"
       r="0"
       id="circle890"
       style="fill:#5e4aa6;stroke-width:0.264586" /><circle
       cx="67.593506"
       cy="-32.962288"
       r="0"
       fill-rule="evenodd"
       id="circle892"
       style="fill:#5e4aa6;stroke-width:0.264586" /><g
       id="g262166"
       transform="matrix(0.90580234,0,0,0.90580234,16.171527,0.80944119)"><path
         id="path262149"
         style="opacity:1;fill:#ffffff;fill-opacity:1"
         d="m -8.3488444,3.6318197 c -2.7997276,-0.013856 -5.5761866,1.0748606 -4.7666346,2.7207641 0.877095,1.7832284 5.9884748,2.3936379 8.3684819,0.9994222 L -4.6064372,7.26984 v 0.180868 c 0,0.4660072 -0.149193,1.0400864 -0.33538,1.2913941 -1.135675,1.5328869 -4.7480606,1.7286849 -7.6651648,0.4149617 -0.135557,-0.06105 -0.21057,-0.082163 -0.229961,-0.072864 h -5.16e-4 l -5.17e-4,5.168e-4 -5.17e-4,5.168e-4 -5.17e-4,5.167e-4 -5.16e-4,5.168e-4 v 5.168e-4 l -5.17e-4,5.167e-4 -5.17e-4,5.168e-4 -5.17e-4,5.167e-4 v 5.168e-4 5.168e-4 c 8e-6,3.142e-4 10e-6,8.832e-4 0,0.00103 7.97e-4,0.039675 0.200805,0.1917647 0.545187,0.396875 2.252378,1.3414925 5.8877116,1.3362005 7.6481117,-0.011369 0.27332,-0.2092246 0.2604895,-0.2283297 0.1917195,0.280603 -0.115243,0.8528445 -0.2554163,1.1889505 -0.6242513,1.4991335 -1.5711021,1.32127 -4.658698,1.429024 -7.4041989,0.258382 -0.176426,-0.07522 -0.328978,-0.136943 -0.338998,-0.136943 -0.0089,0 -0.0153,0.0022 -0.0186,0.0052 l -5.17e-4,5.17e-4 c -1.29e-4,2e-4 -8.91e-4,0.0013 -10e-4,0.0015 l -5.17e-4,5.17e-4 v 5.17e-4 5.16e-4 5.17e-4 c -0.01351,0.06239 0.533122,0.420135 1.011308,0.652673 2.4420305,1.187541 5.8949522,0.953245 7.4822302,-0.507462 l 0.1503784,-0.137976 -0.01912,0.496094 c -0.03405,0.881947 -0.1463374,1.205172 -0.5472534,1.575097 -1.294004,1.193982 -4.1054234,1.498398 -6.6693602,0.72192 -0.291042,-0.08814 -0.727067,-0.241518 -0.968934,-0.340548 -0.251104,-0.102806 -0.385103,-0.14838 -0.406176,-0.134875 l -5.17e-4,5.17e-4 -5.17e-4,5.16e-4 h -5.17e-4 v 5.17e-4 l -5.16e-4,5.17e-4 v 5.17e-4 5.16e-4 5.17e-4 c -0.0032,0.02111 0.08857,0.09343 0.271301,0.219625 1.306632,0.902406 3.2859586,1.328178 5.1738446,1.112594 1.5588101,-0.178006 2.8638615,-0.814798 3.4018595,-1.659331 l 0.1204061,-0.188619 V 9.1854858 5.1717773 L -4.0534993,4.9655884 C -4.9804773,4.0455957 -6.6690064,3.6401297 -8.3488444,3.6318197 Z m -1.7068726,0.5198649 0.8371582,0.069763 -0.1658813,0.6976318 -0.8366419,-0.052193 z m 2.8153321,0.5849772 1.1337809,0.094568 -0.2242757,0.9446451 -1.1342977,-0.070797 z m 2.1047811,0.9503296 0.4960937,0.041341 -0.098185,0.4134115 -0.4960938,-0.031006 z m -4.3149821,0.1669148 0.517281,0.042891 -0.1023193,0.4314982 -0.5172811,-0.032556 z m -1.9011761,0.6692098 0.517798,0.043408 -0.102319,0.4309814 -0.517798,-0.032039 z m 4.0783042,0.2330608 0.3126424,0.025838 -0.062012,0.2604492 -0.3126425,-0.01912 z m -2.1543905,0.5885945 0.4128947,0.034107 -0.081649,0.344165 -0.4128947,-0.025838 z" /><path
         style="opacity:1;fill:#ffffff;fill-opacity:1;stroke-width:0.195294"
         d="m -10.339569,2.1055798 -0.165651,0.7149154 0.8369738,0.052311 0.1656512,-0.6974785 z"
         id="path262157" /><path
         style="opacity:1;fill:#ffffff;fill-opacity:1;stroke-width:0.180652"
         d="m -12.78247,3.2707079 -0.153232,0.6613162 0.774224,0.048389 0.153231,-0.6451866 z"
         id="path262158" /><path
         style="opacity:1;fill:#ffffff;fill-opacity:1;stroke-width:0.0963059"
         d="m -11.222623,3.2533456 -0.08169,0.3525469 0.412737,0.025797 0.08169,-0.3439482 z"
         id="path262159" /><path
         style="opacity:1;fill:#ffffff;fill-opacity:1;stroke-width:0.0963059"
         d="m -7.4140323,2.9902521 -0.08169,0.3525469 0.412737,0.025797 0.08169,-0.3439482 z"
         id="path262160" /><path
         style="opacity:1;fill:#ffffff;fill-opacity:1;stroke-width:0.123963"
         d="m -8.551525,1.8543566 -0.1051493,0.4537895 0.5312646,0.033205 0.1051493,-0.4427214 z"
         id="path262161" /><path
         style="opacity:1;fill:#ffffff;fill-opacity:1;stroke-width:0.195294"
         d="m -5.8121847,2.6078104 -0.165651,0.7149154 0.8369738,0.052311 0.1656512,-0.6974785 z"
         id="path262162" /><path
         style="opacity:1;fill:#ffffff;fill-opacity:1;stroke-width:0.0963059"
         d="m -4.1668126,3.8494598 -0.08169,0.3525469 0.412737,0.025797 0.08169,-0.3439482 z"
         id="path262163" /><path
         style="opacity:1;fill:#ffffff;fill-opacity:1;stroke-width:0.225252"
         d="m -7.5535703,8.3898063 -0.1910622,0.824584 0.9653666,0.060335 0.191062,-0.8044722 z"
         id="path262164" /><path
         style="opacity:1;fill:#ffffff;fill-opacity:1;stroke-width:0.0963059"
         d="m -9.1738799,9.2640779 -0.081688,0.3525469 0.4127375,0.025797 0.081688,-0.3439482 z"
         id="path262165" /><path
         style="opacity:1;fill:#ffffff;fill-opacity:1;stroke-width:0.116642"
         d="m -10.938006,8.4969073 -0.09894,0.4269898 0.499891,0.031244 0.09894,-0.4165754 z"
         id="path262166" /></g></g></svg>
