<?xml version="1.0" encoding="UTF-8" standalone="no"?>
<svg
   width="64"
   height="64"
   version="1.1"
   id="svg5"
   sodipodi:docname="ddnet.svg"
   inkscape:version="1.3.2 (091e20ef0f, 2023-11-25, custom)"
   xmlns:inkscape="http://www.inkscape.org/namespaces/inkscape"
   xmlns:sodipodi="http://sodipodi.sourceforge.net/DTD/sodipodi-0.dtd"
   xmlns:xlink="http://www.w3.org/1999/xlink"
   xmlns="http://www.w3.org/2000/svg"
   xmlns:svg="http://www.w3.org/2000/svg">
  <defs
     id="defs5">
    <filter
       inkscape:collect="always"
       style="color-interpolation-filters:sRGB"
       id="filter1057"
       x="-0.026999999"
       width="1.054"
       y="-0.026999999"
       height="1.054">
      <feGaussianBlur
         inkscape:collect="always"
         stdDeviation="0.61875"
         id="feGaussianBlur1059" />
    </filter>
    <linearGradient
       inkscape:collect="always"
       xlink:href="#linearGradient1051"
       id="linearGradient1053"
       x1="-127"
       y1="60"
       x2="-72"
       y2="5"
       gradientUnits="userSpaceOnUse"
       gradientTransform="translate(131.5,-0.50999761)" />
    <linearGradient
       inkscape:collect="always"
       id="linearGradient1051">
      <stop
         style="stop-color:#dee0e2;stop-opacity:1"
         offset="0"
         id="stop1047" />
      <stop
         style="stop-color:#f1f3f5;stop-opacity:0.99607843"
         offset="1"
         id="stop1049" />
    </linearGradient>
  </defs>
  <sodipodi:namedview
     id="namedview5"
     pagecolor="#ffffff"
     bordercolor="#000000"
     borderopacity="0.25"
     inkscape:showpageshadow="2"
     inkscape:pageopacity="0.0"
     inkscape:pagecheckerboard="0"
     inkscape:deskcolor="#d1d1d1"
     inkscape:zoom="6.15625"
     inkscape:cx="12.507614"
     inkscape:cy="19.654822"
     inkscape:window-width="1920"
     inkscape:window-height="995"
     inkscape:window-x="0"
     inkscape:window-y="0"
     inkscape:window-maximized="1"
     inkscape:current-layer="svg5" />
  <rect
     ry="15"
     y="4.4999995"
     x="4.4999995"
     height="55"
     width="55"
     id="rect1055"
     style="opacity:0.3;fill:#141414;fill-opacity:1;stroke-width:2.74436;stroke-linecap:round;filter:url(#filter1057)" />
  <rect
     style="fill:url(#linearGradient1053);fill-opacity:1;stroke-width:2.74436;stroke-linecap:round"
     id="rect1045"
     width="54.999996"
     height="54.999996"
     x="4.5000019"
     y="4.5000019"
     ry="14.999999" />
  <g
     transform="translate(13.714 13.714) scale(.57143)"
     id="g5">
    <path
       fill="#9d7730"
       d="M7 54.491c.005 4.109.982 5.48 13.405 5.48 3.532 0 7.83.322 10.094-1.154 2.137-1.394 1.366-3.44 1.366-5.521 0-4.287-4.038-7.296-10.904-7.296s-13.965 4.2-13.96 8.491z"
       id="path1" />
    <path
       fill="orange"
       d="M32 4c12.81 0 23.611 8.603 26.941 20.346.69 2.433-.848 5.545-.848 8.199 0 15.464-9.54 23.096-25.003 23.096-9.896 0-19.683-.776-24.663-8.526A27.87 27.87 0 0 1 4 32C4 16.535 16.536 4 32 4z"
       id="path2" />
    <ellipse
       cx="-37"
       cy="28"
       fill="#3f3f3f"
       rx="4"
       ry="7"
       transform="scale(-1 1)"
       id="ellipse2" />
    <path
       fill="#f27300"
       d="M58.803 23.976C58.102 40.62 44.415 52.98 27.756 53c-7.068-.01-13.921-1.649-19.432-6.073A28 28 0 0 0 32.001 60c15.464 0 28-12.536 28-28a28.003 28.003 0 0 0-1.197-8.024z"
       id="path3" />
    <ellipse
       cx="-25"
       cy="28"
       fill="#3f3f3f"
       rx="4"
       ry="7"
       transform="scale(-1 1)"
       id="ellipse3" />
    <path
       fill="#9d7730"
       d="M57 54.491c-.005 4.109-.982 5.48-13.405 5.48-3.532 0-7.83.322-10.094-1.154-2.137-1.394-1.366-3.44-1.366-5.521 0-4.287 4.038-7.296 10.904-7.296s13.965 4.2 13.96 8.491z"
       id="path4" />
    <path
       d="M55.644 51.19a30.864 31.111 0 0 1-13.162 8.791c.37-.004.755-.01 1.112-.01 12.423 0 13.401-1.372 13.406-5.48.002-1.134-.502-2.256-1.356-3.301z"
       opacity=".2"
       id="path5" />
  </g>
</svg>
