<?xml version="1.0" encoding="UTF-8" standalone="no"?>
<svg
   xmlns:dc="http://purl.org/dc/elements/1.1/"
   xmlns:cc="http://creativecommons.org/ns#"
   xmlns:rdf="http://www.w3.org/1999/02/22-rdf-syntax-ns#"
   xmlns:svg="http://www.w3.org/2000/svg"
   xmlns="http://www.w3.org/2000/svg"
   xmlns:sodipodi="http://sodipodi.sourceforge.net/DTD/sodipodi-0.dtd"
   xmlns:inkscape="http://www.inkscape.org/namespaces/inkscape"
   width="64"
   height="64"
   version="1.0"
   id="svg42"
   sodipodi:docname="de.haeckerfelix.Fragments.svg"
   inkscape:version="1.0.1 (3bc2e813f5, 2020-09-07)">
  <metadata
     id="metadata48">
    <rdf:RDF>
      <cc:Work
         rdf:about="">
        <dc:format>image/svg+xml</dc:format>
        <dc:type
           rdf:resource="http://purl.org/dc/dcmitype/StillImage" />
        <dc:title></dc:title>
      </cc:Work>
    </rdf:RDF>
  </metadata>
  <defs
     id="defs46">
    <linearGradient
       id="a"
       gradientUnits="userSpaceOnUse"
       x1="408.64954"
       x2="408.64954"
       y1="549.92224"
       y2="500.92224">
      <stop
         offset="0"
         stop-color="#197cf1"
         id="stop2" />
      <stop
         offset="1"
         stop-color="#59d0ff"
         id="stop4" />
    </linearGradient>
    <linearGradient
       id="b"
       gradientUnits="userSpaceOnUse"
       x1="405.57144"
       x2="406.57144"
       y1="543.79797"
       y2="501.798">
      <stop
         offset="0"
         stop-color="#1673db"
         id="stop7" />
      <stop
         offset="1"
         stop-color="#42d6fc"
         id="stop9" />
    </linearGradient>
    <style
       id="style927"
       type="text/css" />
    <filter
       color-interpolation-filters="sRGB"
       height="1.048"
       width="1.048"
       y="-.024"
       x="-.024"
       id="filter2761">
      <feGaussianBlur
         id="feGaussianBlur929"
         stdDeviation="0.14552168" />
    </filter>
    <linearGradient
       gradientUnits="userSpaceOnUse"
       gradientTransform="matrix(3.7796,0,0,3.7796,16.978258,-18.878729)"
       y2="1.1082"
       y1="15.429"
       x2="15.644"
       x1="1.2573"
       id="linearGradient4673">
      <stop
         id="stop932"
         offset="0"
         stop-color="#32dcff" />
      <stop
         id="stop934"
         offset="1"
         stop-color="#3296ff" />
    </linearGradient>
    <linearGradient
       id="linearGradient11422"
       x1="-6.1472"
       x2="-6.1472"
       y1="-137.82"
       y2="-100.78"
       gradientTransform="matrix(2.0044,0,0,2.0044,151.4312,271.61)"
       gradientUnits="userSpaceOnUse">
      <stop
         stop-color="#32b4ff"
         offset="0"
         id="stop4-3" />
      <stop
         stop-color="#3287ff"
         offset="1"
         id="stop6" />
    </linearGradient>
    <filter
       color-interpolation-filters="sRGB"
       height="1.048"
       width="1.048"
       y="-.024"
       x="-.024"
       id="filter2761-6">
      <feGaussianBlur
         id="feGaussianBlur840"
         stdDeviation="0.14552168" />
    </filter>
    <linearGradient
       gradientUnits="userSpaceOnUse"
       gradientTransform="matrix(3.7796,0,0,3.7796,52.70136,-30.294572)"
       y2="1.17"
       y1="15.576"
       x2="15.65"
       x1="1.3315"
       id="linearGradient1024">
      <stop
         id="stop843"
         offset="0"
         stop-color="#00c8ff" />
      <stop
         id="stop845"
         offset="1"
         stop-color="#14a0ff" />
    </linearGradient>
    <style
       type="text/css"
       id="style854" />
    <filter
       id="filter1057"
       x="-.027"
       y="-.027"
       width="1.054"
       height="1.054"
       color-interpolation-filters="sRGB">
      <feGaussianBlur
         stdDeviation="0.61875"
         id="feGaussianBlur856" />
    </filter>
    <linearGradient
       id="linearGradient1053"
       x1="-127"
       x2="-72"
       y1="60"
       y2="5"
       gradientTransform="translate(131.5,-0.5099988)"
       gradientUnits="userSpaceOnUse">
      <stop
         stop-color="#32d7ff"
         offset="0"
         id="stop859" />
      <stop
         stop-color="#329bff"
         offset="1"
         id="stop861" />
    </linearGradient>
    <style
       type="text/css"
       id="style864" />
    <style
       type="text/css"
       id="style866" />
    <style
       type="text/css"
       id="style868" />
    <style
       type="text/css"
       id="style870" />
    <style
       type="text/css"
       id="style872" />
    <style
       type="text/css"
       id="style874" />
    <style
       type="text/css"
       id="style876" />
  </defs>
  <sodipodi:namedview
     pagecolor="#ffffff"
     bordercolor="#666666"
     borderopacity="1"
     objecttolerance="10"
     gridtolerance="10"
     guidetolerance="10"
     inkscape:pageopacity="0"
     inkscape:pageshadow="2"
     inkscape:window-width="1920"
     inkscape:window-height="932"
     id="namedview44"
     showgrid="false"
     inkscape:zoom="5.2149124"
     inkscape:cx="20.812622"
     inkscape:cy="25.029785"
     inkscape:window-x="0"
     inkscape:window-y="36"
     inkscape:window-maximized="1"
     inkscape:current-layer="svg42"
     inkscape:document-rotation="0" />
  <rect
     x="4.4999995"
     y="4.4999995"
     width="55"
     height="55"
     ry="15"
     fill="#141414"
     filter="url(#filter1057)"
     opacity="0.3"
     stroke-linecap="round"
     stroke-width="2.7444"
     id="rect892" />
  <rect
     x="4.5"
     y="4.5"
     width="55"
     height="55"
     ry="15"
     fill="url(#linearGradient1053)"
     stroke-linecap="round"
     stroke-width="2.7444"
     id="rect894"
     style="fill:url(#linearGradient1053)" />
  <circle
     style="fill:#5e4aa6"
     cx="-1124.8"
     cy="-1279.3"
     r="0"
     id="circle939" />
  <g
     style="fill:#5e4aa6;stroke-width:0.26458001"
     transform="matrix(3.7796,0,0,3.7796,123.83002,-38.183983)"
     id="g949">
    <circle
       cx="-299.01999"
       cy="-338.76999"
       r="0"
       id="circle941" />
    <circle
       style="fill-rule:evenodd"
       cx="-8.1062002"
       cy="-3.9487"
       r="0"
       id="circle943" />
    <circle
       cx="-278.25"
       cy="-357.69"
       r="0"
       id="circle945" />
    <circle
       style="fill-rule:evenodd"
       cx="12.663"
       cy="-22.858999"
       r="0"
       id="circle947" />
  </g>
  <path
     inkscape:connector-curvature="0"
     style="fill:#ffffff;fill-opacity:1;stroke-width:0.07926133"
     d="m 34.769345,15.263692 c -1.736274,0.649634 -3.266914,1.870034 -5.084034,2.400204 -1.491714,0.403065 -4.090515,0.955658 -2.630529,2.995103 0.640928,1.495757 2.321645,1.878928 3.528138,2.724946 0.680407,1.412486 -1.145202,2.686156 -2.219625,3.332028 -1.316435,0.867899 -3.788265,0.684652 -3.112871,-1.450965 0.314075,-1.669642 -0.280996,-3.555954 -1.920312,-4.287014 -1.82211,0.59517 -3.274063,2.107797 -5.060817,2.877166 -1.208454,0.7733 -2.72132,1.129053 -3.769295,2.09057 0.269888,1.53507 2.03698,2.484834 2.866755,3.826341 1.375694,1.87079 3.252838,3.680912 3.457319,6.116709 0.0474,2.230399 -2.5249,2.347331 -4.144571,2.054169 -1.702905,0.251737 -1.769951,2.390781 -1.152162,3.629886 0.49335,1.439194 1.859365,3.091966 3.548415,2.684598 1.689012,-0.692723 1.763475,-3.428643 3.802499,-3.496644 1.866316,0.157122 2.78646,2.187926 3.564141,3.653466 0.775285,1.395058 1.312416,2.91925 2.156854,4.271834 1.420908,0.359674 2.619885,-1.313206 3.943071,-1.800993 1.484549,-1.046976 3.411714,-1.328637 4.887571,-2.274824 0.195837,-2.044619 -1.962705,-3.100811 -3.545802,-3.81726 -2.174339,-1.03073 0.172422,-3.441233 1.588673,-3.944103 1.584449,-1.04853 3.95413,-0.229779 3.267725,1.919529 -0.148425,1.676081 0.936351,4.289729 2.79799,4.178033 1.521453,-1.773159 3.183106,-3.478065 5.223025,-4.670891 1.432709,-0.489715 1.639773,-1.808148 0.321089,-2.637346 -1.50987,-1.882548 -3.281236,-3.862763 -3.582812,-6.350739 0.02992,-1.653043 1.820395,-2.99118 3.437963,-2.655187 1.872529,0.532442 3.05819,-1.436309 2.35962,-3.05464 -0.484095,-1.399378 -1.418491,-2.851237 -2.846971,-3.396993 -2.180153,-0.608919 -2.018012,2.345055 -3.543341,3.041624 -1.731092,1.175516 -3.60833,-0.290863 -4.592648,-1.718386 -1.40864,-1.829291 -2.107316,-4.060858 -3.202515,-6.064898 l -0.159186,-0.126062 -0.183448,-0.04928 z"
     id="path18-6" />
  <circle
     cx="-1144.248"
     cy="-1378.5312"
     r="0"
     id="circle882"
     style="fill:#5e4aa6;stroke-width:1.00001" />
  <circle
     cx="-44.710342"
     cy="-113.04071"
     r="0"
     fill-rule="evenodd"
     id="circle884"
     style="fill:#5e4aa6;stroke-width:1.00001" />
  <circle
     cx="-1065.7458"
     cy="-1450.0414"
     r="0"
     id="circle886"
     style="fill:#5e4aa6;stroke-width:1.00001" />
  <circle
     cx="33.788929"
     cy="-184.51408"
     r="0"
     fill-rule="evenodd"
     id="circle888"
     style="fill:#5e4aa6;stroke-width:1.00001" />
  <circle
     cx="-1331.28"
     cy="-1241.6"
     r="0"
     fill="#5e4aa6"
     id="circle11" />
  <circle
     cx="-231.7301"
     cy="23.855"
     r="0"
     fill="#5e4aa6"
     fill-rule="evenodd"
     id="circle13" />
  <circle
     cx="-1252.78"
     cy="-1313.1"
     r="0"
     fill="#5e4aa6"
     id="circle19" />
  <circle
     style="fill:#5e4aa6;fill-rule:evenodd"
     id="circle21"
     r="0"
     cy="-47.617001"
     cx="-45.295914" />
  <g
     style="fill:#5e4aa6;stroke-width:0.26458;image-rendering:optimizeSpeed"
     transform="matrix(3.7796,0,0,3.7796,-200.27009,-42.304983)"
     id="g872">
    <circle
       cx="-347.64001"
       cy="-328.38"
       r="0"
       id="circle858" />
    <circle
       style="fill-rule:evenodd"
       cx="-56.726002"
       cy="6.4400001"
       r="0"
       id="circle860" />
    <g
       transform="translate(-0.0272,0.0065001)"
       id="g870">
      <circle
         cx="-330.35001"
         cy="-328.38"
         r="0"
         id="circle862" />
      <circle
         cx="-312.10999"
         cy="-326.25"
         r="0"
         id="circle864" />
      <circle
         cx="-306.01999"
         cy="-333.07001"
         r="0"
         id="circle866" />
      <circle
         cx="-308.84"
         cy="-326.01001"
         r="0"
         id="circle868" />
    </g>
  </g>
  <circle
     cx="-1262.7021"
     cy="-1339.2323"
     r="0"
     fill="#5e4aa6"
     id="circle880" />
</svg>
