<?xml version="1.0" encoding="UTF-8" standalone="no"?>
<svg
   width="64"
   height="64"
   version="1.1"
   id="svg4"
   sodipodi:docname="de.schmidhuberj.Flare.svg"
   xml:space="preserve"
   inkscape:version="1.4.2 (ebf0e940d0, 2025-05-08)"
   xmlns:inkscape="http://www.inkscape.org/namespaces/inkscape"
   xmlns:sodipodi="http://sodipodi.sourceforge.net/DTD/sodipodi-0.dtd"
   xmlns:xlink="http://www.w3.org/1999/xlink"
   xmlns="http://www.w3.org/2000/svg"
   xmlns:svg="http://www.w3.org/2000/svg"><sodipodi:namedview
     id="namedview4"
     pagecolor="#505050"
     bordercolor="#eeeeee"
     borderopacity="1"
     inkscape:showpageshadow="0"
     inkscape:pageopacity="0"
     inkscape:pagecheckerboard="0"
     inkscape:deskcolor="#505050"
     inkscape:zoom="1.4824219"
     inkscape:cx="118.72464"
     inkscape:cy="31.367589"
     inkscape:window-width="1920"
     inkscape:window-height="996"
     inkscape:window-x="0"
     inkscape:window-y="0"
     inkscape:window-maximized="1"
     inkscape:current-layer="svg4" /><defs
     id="defs4"><linearGradient
       id="a"
       x1="2.068"
       x2="14.836"
       y1="2.05"
       y2="14.895"
       gradientTransform="scale(3.7796)"
       gradientUnits="userSpaceOnUse"><stop
         offset="0"
         stop-color="#ff7800"
         id="stop1" /><stop
         offset="1"
         stop-color="#f9dc55"
         id="stop2" /></linearGradient><linearGradient
       id="b"
       x1="48"
       x2="80"
       y1="100"
       y2="32"
       gradientTransform="translate(7.598 6.304)scale(.38011)"
       gradientUnits="userSpaceOnUse"><stop
         offset="0"
         stop-color="#3584e4"
         id="stop3" /><stop
         offset="1"
         stop-color="#62a0ea"
         id="stop4" /></linearGradient><linearGradient
       id="b-9"
       x1="48"
       x2="80"
       y1="100"
       y2="32"
       gradientTransform="matrix(0.50892046,0,0,0.50892046,-0.5715239,-5.6595384)"
       gradientUnits="userSpaceOnUse"><stop
         offset="0"
         stop-color="#3584e4"
         id="stop3-4" /><stop
         offset="1"
         stop-color="#62a0ea"
         id="stop4-7" /></linearGradient><linearGradient
       inkscape:collect="always"
       xlink:href="#b-9"
       id="linearGradient8"
       gradientUnits="userSpaceOnUse"
       gradientTransform="matrix(0.50892046,0,0,0.50892046,-127.07152,-186.21563)"
       x1="48"
       y1="100"
       x2="80"
       y2="32" /><linearGradient
       inkscape:collect="always"
       xlink:href="#a"
       id="linearGradient6"
       gradientUnits="userSpaceOnUse"
       gradientTransform="matrix(5.0604188,0,0,5.0604188,-137.32813,-194.64644)"
       x1="2.0680001"
       y1="2.05"
       x2="14.836"
       y2="14.895" /><linearGradient
       inkscape:collect="always"
       xlink:href="#b-9"
       id="linearGradient7"
       gradientUnits="userSpaceOnUse"
       gradientTransform="matrix(0.50892046,0,0,0.50892046,-127.07152,-184.43493)"
       x1="48"
       y1="100"
       x2="80"
       y2="32" /><filter
       id="filter1057"
       x="-0.026999999"
       y="-0.026999999"
       width="1.054"
       height="1.054"
       color-interpolation-filters="sRGB"><feGaussianBlur
         stdDeviation="0.61875"
         id="feGaussianBlur2" /></filter><linearGradient
       id="linearGradient1053"
       x1="-127"
       x2="-72"
       y1="60"
       y2="5"
       gradientTransform="translate(267.485,-50.525)"
       gradientUnits="userSpaceOnUse"><stop
         stop-color="#dee0e2"
         offset="0"
         id="stop2-3" /><stop
         stop-color="#f1f3f5"
         stop-opacity=".99608"
         offset="1"
         id="stop3-6" /></linearGradient></defs><g
     id="g5"
     transform="translate(-135.985,50.014999)"><rect
       x="140.485"
       y="-45.514999"
       width="55"
       height="55"
       ry="15"
       fill="#141414"
       filter="url(#filter1057)"
       opacity="0.3"
       stroke-linecap="round"
       stroke-width="2.7444"
       id="rect4" /><rect
       x="140.485"
       y="-45.514999"
       width="55"
       height="55"
       ry="15"
       fill="url(#linearGradient1053)"
       stroke-linecap="round"
       stroke-width="2.7444"
       id="rect5-1"
       style="fill:url(#linearGradient1053)" /></g><g
     id="g4"
     transform="matrix(0.70175439,0,0,0.70175439,98.31579,138.60639)"><path
       fill="url(#b)"
       d="M -114.85695,-172.21902 A 8.1403707,8.1403707 0 0 0 -123,-164.07865 v 26.46424 a 8.1443873,8.1443873 0 0 0 8.14305,8.14305 h 2.03777 c 1.12465,0 2.03375,0.91178 2.03375,2.03777 v 3.56141 a 2.5438658,2.5438658 0 0 0 4.28307,1.85301 l 6.881826,-6.46678 a 3.6149672,3.6149672 0 0 1 2.484955,-0.98541 h 22.992531 A 8.1443873,8.1443873 0 0 0 -66,-137.61441 v -26.46424 a 8.1403707,8.1403707 0 0 0 -8.143048,-8.14037 z m 20.316114,10.36291 c 0.757805,-0.012 1.33486,0.38158 1.662885,0.72299 0.328025,0.33338 0.523501,0.67212 0.709605,1.02424 0.362835,0.70291 0.642661,1.48482 0.911775,2.23593 0.27447,0.74575 0.543584,1.46205 0.76316,1.88514 0.03079,0.0656 0.03079,0.0536 0.06025,0.10175 h 5.49475 c 0.661405,0.007 1.245156,0.40434 1.467409,1.00684 0.247692,0.68952 0.156649,1.34289 -0.05757,1.91191 a 4.4182933,4.4182933 0 0 1 -0.421747,0.82609 c -0.45254,0.69755 -1.025579,1.27461 -1.59728,1.81686 -0.573039,0.54893 -1.146078,1.05101 -1.563808,1.45669 -0.302586,0.2892 -0.492706,0.57572 -0.546261,0.62526 0,0.0669 -0.01205,0.31463 0.112465,0.7404 0.07096,0.24367 0.170038,0.5235 0.28652,0.82608 0.120499,0.30795 0.257064,0.64133 0.392291,0.98006 0.267775,0.6748 0.548939,1.37905 0.674794,2.16095 0.07364,0.46727 0.07632,1.03361 -0.0964,1.58389 a 2.5438658,2.5438658 0 0 1 -0.806004,1.21168 c -0.54894,0.39899 -1.202312,0.45388 -1.668241,0.39899 a 4.0166303,4.0166303 0 0 1 -1.186244,-0.34945 c -0.7163,-0.31597 -1.379044,-0.75245 -2.040449,-1.18223 -0.661405,-0.43513 -1.29871,-0.87562 -1.807483,-1.17419 -0.247692,-0.14728 -0.492707,-0.23297 -0.63195,-0.28518 -0.147277,0.0522 -0.398985,0.14192 -0.661405,0.29053 -0.519484,0.29857 -1.18089,0.72835 -1.854345,1.15813 -0.680149,0.42844 -1.365654,0.85956 -2.099358,1.16884 a 4.1505179,4.1505179 0 0 1 -1.200973,0.34543 c -0.45923,0.0536 -1.09118,0.0121 -1.63878,-0.35882 a 2.1422028,2.1422028 0 0 1 -0.79797,-1.04834 2.6777535,2.6777535 0 0 1 -0.10176,-0.38158 3.3471919,3.3471919 0 0 1 0.009,-1.19963 c 0.1205,-0.74575 0.36551,-1.46607 0.61053,-2.18237 0.13389,-0.38292 0.26777,-0.75914 0.38827,-1.11127 0.10711,-0.30124 0.20083,-0.5891 0.27313,-0.83278 0.087,-0.30258 0.0937,-0.56902 0.10711,-0.67747 -0.0964,-0.14326 -0.27447,-0.41773 -0.52216,-0.71228 -0.40166,-0.46459 -0.92784,-1.02558 -1.45268,-1.61067 -0.52484,-0.58911 -1.04165,-1.1916 -1.45402,-1.83025 -0.15129,-0.2343 -0.3133,-0.48333 -0.44451,-0.7578 a 2.302868,2.302868 0 0 1 -0.12317,-1.76062 1.553097,1.553097 0 0 1 1.49954,-1.06173 l 5.181451,0.0134 c 0.07766,-0.11381 0.0482,-0.0723 0.174054,-0.35882 0.231626,-0.51815 0.480657,-1.22775 0.755127,-1.93736 0.274469,-0.71496 0.555633,-1.43795 0.949263,-2.094 0.196815,-0.32802 0.41773,-0.64266 0.757804,-0.94659 0.346769,-0.30526 0.876965,-0.61588 1.533014,-0.63328 z"
       id="path4-0"
       style="fill:url(#linearGradient7);stroke-width:1.33888" /><path
       fill="url(#b)"
       d="M -114.85695,-172.21902 A 8.1403707,8.1403707 0 0 0 -123,-164.07865 v 26.46424 a 8.1443873,8.1443873 0 0 0 8.14305,8.14305 h 2.03777 c 1.12465,0 2.03375,0.91178 2.03375,2.03777 v 3.56141 a 2.5438658,2.5438658 0 0 0 4.28307,1.85301 l 6.881826,-6.46678 a 3.6149672,3.6149672 0 0 1 2.484955,-0.98541 h 22.992531 A 8.1443873,8.1443873 0 0 0 -66,-137.61441 v -26.46424 a 8.1403707,8.1403707 0 0 0 -8.143048,-8.14037 z m 20.316114,10.36291 c 0.757805,-0.012 1.33486,0.38158 1.662885,0.72299 0.328025,0.33338 0.523501,0.67212 0.709605,1.02424 0.362835,0.70291 0.642661,1.48482 0.911775,2.23593 0.27447,0.74575 0.543584,1.46205 0.76316,1.88514 0.03079,0.0656 0.03079,0.0536 0.06025,0.10175 h 5.49475 c 0.661405,0.007 1.245156,0.40434 1.467409,1.00684 0.247692,0.68952 0.156649,1.34289 -0.05757,1.91191 a 4.4182933,4.4182933 0 0 1 -0.421747,0.82609 c -0.45254,0.69755 -1.025579,1.27461 -1.59728,1.81686 -0.573039,0.54893 -1.146078,1.05101 -1.563808,1.45669 -0.302586,0.2892 -0.492706,0.57572 -0.546261,0.62526 0,0.0669 -0.01205,0.31463 0.112465,0.7404 0.07096,0.24367 0.170038,0.5235 0.28652,0.82608 0.120499,0.30795 0.257064,0.64133 0.392291,0.98006 0.267775,0.6748 0.548939,1.37905 0.674794,2.16095 0.07364,0.46727 0.07632,1.03361 -0.0964,1.58389 a 2.5438658,2.5438658 0 0 1 -0.806004,1.21168 c -0.54894,0.39899 -1.202312,0.45388 -1.668241,0.39899 a 4.0166303,4.0166303 0 0 1 -1.186244,-0.34945 c -0.7163,-0.31597 -1.379044,-0.75245 -2.040449,-1.18223 -0.661405,-0.43513 -1.29871,-0.87562 -1.807483,-1.17419 -0.247692,-0.14728 -0.492707,-0.23297 -0.63195,-0.28518 -0.147277,0.0522 -0.398985,0.14192 -0.661405,0.29053 -0.519484,0.29857 -1.18089,0.72835 -1.854345,1.15813 -0.680149,0.42844 -1.365654,0.85956 -2.099358,1.16884 a 4.1505179,4.1505179 0 0 1 -1.200973,0.34543 c -0.45923,0.0536 -1.09118,0.0121 -1.63878,-0.35882 a 2.1422028,2.1422028 0 0 1 -0.79797,-1.04834 2.6777535,2.6777535 0 0 1 -0.10176,-0.38158 3.3471919,3.3471919 0 0 1 0.009,-1.19963 c 0.1205,-0.74575 0.36551,-1.46607 0.61053,-2.18237 0.13389,-0.38292 0.26777,-0.75914 0.38827,-1.11127 0.10711,-0.30124 0.20083,-0.5891 0.27313,-0.83278 0.087,-0.30258 0.0937,-0.56902 0.10711,-0.67747 -0.0964,-0.14326 -0.27447,-0.41773 -0.52216,-0.71228 -0.40166,-0.46459 -0.92784,-1.02558 -1.45268,-1.61067 -0.52484,-0.58911 -1.04165,-1.1916 -1.45402,-1.83025 -0.15129,-0.2343 -0.3133,-0.48333 -0.44451,-0.7578 a 2.302868,2.302868 0 0 1 -0.12317,-1.76062 1.553097,1.553097 0 0 1 1.49954,-1.06173 l 5.181451,0.0134 c 0.07766,-0.11381 0.0482,-0.0723 0.174054,-0.35882 0.231626,-0.51815 0.480657,-1.22775 0.755127,-1.93736 0.274469,-0.71496 0.555633,-1.43795 0.949263,-2.094 0.196815,-0.32802 0.41773,-0.64266 0.757804,-0.94659 0.346769,-0.30526 0.876965,-0.61588 1.533014,-0.63328 z"
       id="path7"
       style="fill:#1c71d8;fill-opacity:1;stroke-width:1.33888" /><path
       id="path8"
       style="fill:url(#linearGradient8);stroke-width:1.33888"
       d="M -114.85742,-174 A 8.1403707,8.1403707 0 0 0 -123,-165.85937 v 26.46484 a 8.1443873,8.1443873 0 0 0 8.14258,8.14258 h 2.03906 c 1.12466,0 2.0332,0.91111 2.0332,2.03711 v 3.5625 a 2.5438658,2.5438658 0 0 0 4.28321,1.85156 l 6.880856,-6.4668 a 3.6149672,3.6149672 0 0 1 2.486328,-0.98437 h 22.992188 A 8.1443873,8.1443873 0 0 0 -66,-139.39453 v -26.46484 A 8.1403707,8.1403707 0 0 0 -74.142578,-174 Z m 20.316404,10.36328 c 0.757805,-0.0121 1.334085,0.38124 1.66211,0.72266 0.328025,0.33338 0.524833,0.67327 0.710937,1.02539 0.362835,0.70291 0.642996,1.48326 0.91211,2.23437 0.27447,0.74576 0.542142,1.46364 0.761718,1.88672 0.03079,0.0656 0.03109,0.0534 0.06055,0.10157 h 5.496091 c 0.661405,0.007 1.244544,0.40336 1.466797,1.00585 0.0023,0.006 0.0036,0.0132 0.0059,0.0195 h -21.916057 a 1.553097,1.553097 0 0 1 1.49023,-1.0332 l 5.179692,0.0117 c 0.07766,-0.1138 0.04993,-0.0709 0.175782,-0.35742 0.231626,-0.51815 0.479436,-1.2279 0.753906,-1.9375 0.274469,-0.71496 0.555589,-1.4377 0.949219,-2.09375 0.196815,-0.32803 0.417738,-0.64334 0.757812,-0.94727 0.346769,-0.30526 0.877154,-0.6154 1.533203,-0.63281 z" /><path
       id="path10"
       style="fill:#1c71d8;fill-opacity:1;stroke-width:1.41937"
       d="m -94.633418,-166.03004 v 0.006 c -0.69549,0.0185 -1.256892,0.34726 -1.624508,0.67088 -0.360519,0.32219 -0.59529,0.65579 -0.803937,1.00353 -0.417294,0.69549 -0.715337,1.46259 -1.006307,2.22053 -0.29097,0.75227 -0.552843,1.50491 -0.798393,2.0542 -0.133421,0.30374 -0.103416,0.25914 -0.185738,0.37979 l -5.491719,-0.0139 c -0.71936,-0.0128 -1.36371,0.44297 -1.59124,1.12551 -0.20595,0.61454 -0.15907,1.28575 0.13029,1.86569 0.1391,0.29097 0.31089,0.55555 0.47128,0.80394 0.43716,0.67704 0.98495,1.31601 1.54134,1.94053 0.55639,0.62027 1.96474,1.21516 2.39055,1.70768 0.26258,0.31226 0.45225,0.60216 0.55444,0.75404 -0.0142,0.11496 -0.0214,0.39722 -0.11366,0.718 -0.0767,0.25832 -0.17753,0.56497 -0.29108,0.88433 -0.12775,0.37329 -0.26835,0.77224 -0.41029,1.17818 -0.25974,0.75936 -0.52095,1.52143 -0.64869,2.31201 -0.0794,0.42018 -0.0823,0.85125 -0.008,1.27244 0.0251,0.13732 0.0603,0.2726 0.10534,0.40474 0.1588,0.45055 0.45565,0.83955 0.84829,1.11165 0.58052,0.39317 1.24856,0.43657 1.7354,0.37979 0.441121,-0.0568 0.871077,-0.1802 1.275209,-0.36593 0.777812,-0.32787 1.502266,-0.78497 2.223303,-1.23917 0.71394,-0.45562 0.568335,-0.91156 1.119048,-1.22808 0.278196,-0.15755 0.542465,-0.25236 0.698595,-0.30772 0.147614,0.0554 0.408288,0.14604 0.670871,0.30217 0.539359,0.31652 0.139876,0.78343 0.841041,1.24472 0.701165,0.45562 1.405725,0.91806 2.165086,1.25303 0.396942,0.18784 0.820552,0.31315 1.255805,0.37148 0.493939,0.0582 1.186723,-0.001 1.768662,-0.42415 0.403439,-0.33565 0.700177,-0.78172 0.853836,-1.28353 0.183099,-0.58336 0.180637,-1.18459 0.102576,-1.67995 -0.13342,-0.82891 -0.431356,-1.57447 -0.715228,-2.28983 -0.143356,-0.3591 -0.288085,-0.71312 -0.415828,-1.03958 -0.123485,-0.32077 -0.226945,-0.61769 -0.302171,-0.87601 -0.132001,-0.45136 -0.119198,-0.71356 -0.119198,-0.78453 0.05677,-0.0525 0.258612,-0.35597 0.579389,-0.66256 0.442841,-0.43006 2.124834,-0.96217 2.732321,-1.54411 0.60607,-0.57484 1.211296,-1.18719 1.69104,-1.92668 0.180054,-0.27542 0.330584,-0.56904 0.449097,-0.87601 0.227097,-0.60323 0.32357,-1.29551 0.06098,-2.02648 -0.235613,-0.63871 -0.854035,-1.0602 -1.555201,-1.06729 h -5.827158 c -0.03123,-0.0511 -0.03112,-0.0386 -0.06376,-0.10812 -0.232776,-0.44852 -0.518514,-1.20816 -0.809482,-1.99875 -0.285294,-0.79626 -0.580076,-1.62506 -0.964724,-2.37023 -0.197292,-0.37329 -0.406294,-0.73328 -0.754038,-1.0867 -0.347744,-0.36194 -0.959756,-0.7779 -1.763117,-0.76513 z"
       sodipodi:nodetypes="cccscccccccccccccccccccccccccccccccccccccccccccccc" /><path
       id="rect5"
       style="fill:url(#linearGradient6);stroke-width:1.33888"
       d="m -94.625853,-163.62739 v 0.005 c -0.656051,0.0174 -1.185618,0.32757 -1.532387,0.63283 -0.340075,0.30393 -0.561533,0.6186 -0.758348,0.94663 -0.39363,0.65605 -0.674772,1.37965 -0.949242,2.09461 -0.27447,0.7096 -0.521493,1.41956 -0.753118,1.93771 -0.125855,0.28652 -0.09755,0.24445 -0.175206,0.35825 l -5.180306,-0.0131 a 1.553097,1.553097 0 0 0 -1.501,1.06169 2.302868,2.302868 0 0 0 0.12291,1.75989 c 0.13121,0.27447 0.29325,0.52405 0.44454,0.75835 0.41238,0.63864 0.9291,1.24139 1.45394,1.83049 0.52484,0.58509 1.05227,1.14625 1.45394,1.61084 0.24769,0.29455 0.4266,0.56802 0.523,0.71128 -0.0134,0.10845 -0.0202,0.3747 -0.10722,0.67728 -0.0723,0.24368 -0.16746,0.53294 -0.27457,0.83419 -0.1205,0.35212 -0.25314,0.72845 -0.38702,1.11137 -0.24502,0.7163 -0.49141,1.43515 -0.61191,2.1809 a 3.3471919,3.3471919 0 0 0 -0.008,1.20028 2.6777535,2.6777535 0 0 0 0.0994,0.38179 2.1422028,2.1422028 0 0 0 0.80019,1.04862 c 0.5476,0.37086 1.17775,0.41181 1.63698,0.35825 a 4.1505179,4.1505179 0 0 0 1.202899,-0.34518 c 0.733704,-0.30928 1.417077,-0.74046 2.097226,-1.1689 0.673455,-0.42978 1.33716,-0.85987 1.856644,-1.15844 0.26242,-0.14862 0.511703,-0.23805 0.65898,-0.29027 0.139243,0.0522 0.385135,0.13776 0.632828,0.28504 0.508773,0.29857 1.145556,0.73899 1.806961,1.17413 0.661404,0.42978 1.32601,0.866 2.042309,1.18197 a 4.0166303,4.0166303 0 0 0 1.184593,0.35041 c 0.465929,0.0549 1.119427,-0.001 1.668366,-0.40009 a 2.5438658,2.5438658 0 0 0 0.805418,-1.21074 c 0.172715,-0.55028 0.170393,-1.11742 0.09676,-1.58469 -0.125854,-0.7819 -0.406894,-1.48519 -0.674669,-2.15998 -0.135227,-0.33874 -0.271749,-0.67268 -0.392248,-0.98063 -0.116482,-0.30258 -0.214075,-0.58266 -0.285035,-0.82633 -0.124516,-0.42577 -0.112439,-0.6731 -0.112439,-0.74005 0.05355,-0.0495 0.243947,-0.33578 0.546534,-0.62498 0.417729,-0.40568 0.990727,-0.90761 1.563766,-1.45655 0.571701,-0.54225 1.142606,-1.11987 1.595146,-1.81742 a 4.4182933,4.4182933 0 0 0 0.423629,-0.82634 c 0.21422,-0.56902 0.305222,-1.22204 0.05753,-1.91156 -0.222253,-0.60249 -0.805606,-1.00008 -1.467011,-1.00677 h -5.496717 c -0.02946,-0.0482 -0.02935,-0.0364 -0.06014,-0.10198 -0.219576,-0.42309 -0.48911,-1.13966 -0.763579,-1.88542 -0.269115,-0.75111 -0.547182,-1.5329 -0.910017,-2.23581 -0.186104,-0.35213 -0.383254,-0.6917 -0.711279,-1.02508 -0.328024,-0.34142 -0.905331,-0.73379 -1.663135,-0.72174 z" /></g></svg>
