<?xml version="1.0" encoding="UTF-8" standalone="no"?>
<svg
   width="64"
   height="64"
   version="1.1"
   id="svg36"
   sodipodi:docname="de.schmidhuberj.DieBahn.svg"
   inkscape:version="1.4.2 (ebf0e940d0, 2025-05-08)"
   xmlns:inkscape="http://www.inkscape.org/namespaces/inkscape"
   xmlns:sodipodi="http://sodipodi.sourceforge.net/DTD/sodipodi-0.dtd"
   xmlns:xlink="http://www.w3.org/1999/xlink"
   xmlns="http://www.w3.org/2000/svg"
   xmlns:svg="http://www.w3.org/2000/svg">
  <sodipodi:namedview
     id="namedview36"
     pagecolor="#505050"
     bordercolor="#eeeeee"
     borderopacity="1"
     inkscape:showpageshadow="0"
     inkscape:pageopacity="0"
     inkscape:pagecheckerboard="0"
     inkscape:deskcolor="#505050"
     inkscape:zoom="4.1929222"
     inkscape:cx="40.544515"
     inkscape:cy="25.638443"
     inkscape:window-width="1920"
     inkscape:window-height="996"
     inkscape:window-x="0"
     inkscape:window-y="0"
     inkscape:window-maximized="1"
     inkscape:current-layer="svg36" />
  <defs
     id="defs20">
    <linearGradient
       id="a"
       gradientUnits="userSpaceOnUse">
      <stop
         offset="0"
         stop-color="#deddda"
         style="stop-color:#000;stop-opacity:1"
         id="stop1" />
      <stop
         offset=".5"
         stop-color="#f6f5f4"
         id="stop2" />
      <stop
         offset="1"
         stop-color="#c0bfbc"
         id="stop3" />
    </linearGradient>
    <linearGradient
       id="c"
       x1="7.937"
       x2="7.937"
       y1="15.081"
       y2="1.852"
       gradientTransform="matrix(3.7796,0,0,3.7796,-15.644999,-30.268001)"
       gradientUnits="userSpaceOnUse">
      <stop
         offset="0"
         stop-color="#b81e31"
         id="stop4" />
      <stop
         offset="1"
         stop-color="#ff5c5c"
         id="stop5" />
    </linearGradient>
    <linearGradient
       id="d"
       x1="8"
       x2="120.384"
       y1="116"
       y2="116"
       gradientTransform="translate(5.579 1.845)scale(.41164)"
       gradientUnits="userSpaceOnUse">
      <stop
         offset="0"
         stop-color="#9a9996"
         id="stop6" />
      <stop
         offset=".036"
         stop-color="#deddda"
         id="stop7" />
      <stop
         offset=".071"
         stop-color="#77767b"
         id="stop8" />
      <stop
         offset=".929"
         stop-color="#c0bfbc"
         id="stop9" />
      <stop
         offset=".964"
         stop-color="#deddda"
         id="stop10" />
      <stop
         offset="1"
         stop-color="#9a9996"
         id="stop11" />
    </linearGradient>
    <linearGradient
       xlink:href="#a"
       id="e"
       x1="64"
       x2="64"
       y1="28"
       y2="112"
       gradientTransform="translate(5.579 1.845)scale(.41164)" />
    <linearGradient
       id="b"
       gradientUnits="userSpaceOnUse">
      <stop
         offset="0"
         stop-color="#deddda"
         id="stop12" />
      <stop
         offset=".5"
         stop-color="#f6f5f4"
         id="stop13" />
      <stop
         offset="1"
         stop-color="#c0bfbc"
         id="stop14" />
    </linearGradient>
    <linearGradient
       id="h"
       x1="48"
       x2="48"
       y1="40"
       y2="72"
       gradientTransform="translate(5.579 1.845)scale(.41164)"
       gradientUnits="userSpaceOnUse">
      <stop
         offset="0"
         stop-color="#3d3846"
         id="stop15" />
      <stop
         offset=".5"
         stop-color="#5e5c64"
         id="stop16" />
      <stop
         offset=".75"
         stop-color="#3d3846"
         id="stop17" />
      <stop
         offset="1"
         stop-color="#241f31"
         id="stop18" />
    </linearGradient>
    <linearGradient
       xlink:href="#b"
       id="i"
       x1="64"
       x2="64"
       y1="28"
       y2="112"
       gradientTransform="translate(5.579 1.845)scale(.41164)" />
    <linearGradient
       id="j"
       x1="64"
       x2="64"
       y1="96"
       y2="84"
       gradientTransform="translate(5.579 1.845)scale(.41164)"
       gradientUnits="userSpaceOnUse">
      <stop
         offset="0"
         stop-color="#ed333b"
         id="stop19"
         style="stop-color:#e73131;stop-opacity:1" />
      <stop
         offset="1"
         stop-color="#f66151"
         id="stop20"
         style="stop-color:#f33b3b;stop-opacity:1" />
    </linearGradient>
    <linearGradient
       xlink:href="#b"
       id="g"
       x1="64"
       x2="64"
       y1="28"
       y2="112"
       gradientTransform="translate(5.579 1.845)scale(.41164)" />
    <filter
       id="f"
       width="1.2569035"
       height="1.3437097"
       x="-0.12845173"
       y="-0.17185484"
       style="color-interpolation-filters:sRGB">
      <feGaussianBlur
         stdDeviation="2.476"
         id="feGaussianBlur20" />
    </filter>
    <filter
       color-interpolation-filters="sRGB"
       height="1.1680116"
       width="1.1679884"
       y="-0.08400579"
       x="-0.083994185"
       id="filter917">
      <feGaussianBlur
         id="feGaussianBlur14"
         stdDeviation="0.22223482" />
    </filter>
    <filter
       inkscape:collect="always"
       style="color-interpolation-filters:sRGB"
       id="filter1057"
       x="-0.026999999"
       width="1.054"
       y="-0.026999999"
       height="1.054">
      <feGaussianBlur
         inkscape:collect="always"
         stdDeviation="0.61875"
         id="feGaussianBlur1059" />
    </filter>
    <linearGradient
       inkscape:collect="always"
       xlink:href="#linearGradient1051"
       id="linearGradient1053"
       x1="-127"
       y1="60"
       x2="-72"
       y2="5"
       gradientUnits="userSpaceOnUse"
       gradientTransform="translate(131.5,-0.5099957)" />
    <linearGradient
       inkscape:collect="always"
       id="linearGradient1051">
      <stop
         style="stop-color:#df2a2a;stop-opacity:1"
         offset="0"
         id="stop1047" />
      <stop
         style="stop-color:#f83f3f;stop-opacity:1"
         offset="1"
         id="stop1049" />
    </linearGradient>
  </defs>
  <rect
     style="opacity:0.3;fill:#141414;fill-opacity:1;stroke-width:2.74436;stroke-linecap:round;filter:url(#filter1057)"
     id="rect1055"
     width="55"
     height="55"
     x="4.4999995"
     y="4.4999995"
     ry="15" />
  <rect
     ry="14.999999"
     y="4.5000019"
     x="4.5000019"
     height="54.999996"
     width="54.999996"
     id="rect1045"
     style="fill:url(#linearGradient1053);fill-opacity:1;stroke-width:2.74436;stroke-linecap:round" />
  <path
     fill="url(#d)"
     d="M54.976 44.656v1.646a3.285 3.285 0 0 1-3.294 3.293H12.165a3.285 3.285 0 0 1-3.293-3.293v-1.646zm0 0"
     style="fill:url(#d);stroke-width:.411638"
     transform="translate(-.003 -.307)"
     id="path20" />
  <path
     fill="url(#e)"
     d="M12.165 13.371H38.51c1.825 0 2.516 1.642 3.293 3.293l13.173 27.992c.776 1.651-1.469 3.293-3.294 3.293H12.165a3.285 3.285 0 0 1-3.293-3.293V16.664a3.285 3.285 0 0 1 3.293-3.293m0 0"
     style="opacity:.25;fill:#000;fill-opacity:1;stroke-width:.411638;filter:url(#f)"
     transform="matrix(1 0 0 1.07088 -.003 -.833)"
     id="path21" />
  <path
     fill="url(#e)"
     d="M12.165 13.371H38.51c1.825 0 2.516 1.642 3.293 3.293l13.173 27.992c.776 1.651-1.469 3.293-3.294 3.293H12.165a3.285 3.285 0 0 1-3.293-3.293V16.664a3.285 3.285 0 0 1 3.293-3.293m0 0"
     style="fill:url(#g);stroke-width:.411638"
     transform="translate(-.003 -.307)"
     id="path22" />
  <path
     fill="#fff"
     fill-opacity=".2"
     d="M12.165 13.371a3.285 3.285 0 0 0-3.293 3.293v.824a3.285 3.285 0 0 1 3.293-3.293H38.51c1.825 0 2.516 1.641 3.293 3.293l13.173 27.991c.043.092.072.182.098.272a1.57 1.57 0 0 0-.098-1.095L41.803 16.664c-.777-1.65-1.468-3.293-3.293-3.293zm0 0"
     style="stroke-width:.411638"
     transform="translate(-.003 -.307)"
     id="path23" />
  <path
     fill-opacity=".2"
     d="M8.872 43.833v.823a3.285 3.285 0 0 0 3.293 3.293h39.517c1.724 0 3.82-1.467 3.392-3.021-.319 1.21-1.978 2.198-3.392 2.198H12.165a3.285 3.285 0 0 1-3.293-3.293m0 0"
     style="stroke-width:.411638"
     transform="translate(-.003 -.307)"
     id="path24" />
  <path
     fill="#5e5c64"
     d="m25.338 46.302.823 3.293H12.165a3.285 3.285 0 0 1-3.293-3.293zm0 0"
     style="stroke-width:.411638"
     transform="translate(-.003 -.307)"
     id="path25" />
  <path
     fill="#77767b"
     d="M11.342 45.48h11.526c.455 0 .823.367.823.822v1.647a.823.823 0 0 1-.823.823H11.342a.823.823 0 0 1-.823-.823v-1.647c0-.455.368-.823.823-.823m0 0"
     style="stroke-width:.411638"
     transform="translate(-.003 -.307)"
     id="path26" />
  <path
     fill="#9a9996"
     d="M11.342 44.656h11.526c.455 0 .823.368.823.823v1.647a.823.823 0 0 1-.823.823H11.342a.823.823 0 0 1-.823-.823v-1.647c0-.455.368-.823.823-.823m0 0"
     style="stroke-width:.411638"
     transform="translate(-.003 -.307)"
     id="path27" />
  <path
     fill="#241f31"
     d="M22.045 46.302c0 2.73-2.211 4.94-4.94 4.94a4.94 4.94 0 0 1-4.94-4.94 4.94 4.94 0 1 1 9.88 0m0 0"
     style="stroke-width:.411638"
     transform="translate(-.003 -.307)"
     id="path28" />
  <path
     fill="#3d3846"
     d="M22.045 45.48a4.94 4.94 0 0 1-4.94 4.939 4.94 4.94 0 0 1-4.94-4.94c0-2.729 2.211-4.94 4.94-4.94s4.94 2.211 4.94 4.94m0 0"
     style="stroke-width:.411638"
     transform="translate(-.003 -.307)"
     id="path29" />
  <path
     fill="#5e5c64"
     d="M20.81 45.48a3.706 3.706 0 0 1-7.41 0 3.706 3.706 0 0 1 7.41 0m0 0"
     style="stroke-width:.411638"
     transform="translate(-.003 -.307)"
     id="path30" />
  <path
     fill="#fff"
     fill-opacity=".102"
     d="M22.02 45.407a4.94 4.94 0 0 1-4.915 4.6 4.94 4.94 0 0 1-4.91-4.528 5 5 0 0 0-.03.412 4.94 4.94 0 0 0 4.94 4.94 4.94 4.94 0 0 0 4.915-5.424m0 0"
     style="stroke-width:.411638"
     transform="translate(-.003 -.307)"
     id="path31" />
  <path
     fill-opacity=".2"
     d="M8.872 45.48v.822c0 .285.04.56.106.824h16.565l-.205-.824zm0 0"
     style="stroke-width:.411638"
     transform="translate(-.003 -.307)"
     id="path32" />
  <path
     fill="url(#h)"
     d="M8.872 18.311h27.991c1.01 0 1.932.57 2.383 1.473L44.36 30.01a1.018 1.018 0 0 1-.91 1.473H8.872Zm0 0"
     style="fill:url(#h);stroke-width:.411638"
     transform="translate(-.003 -.307)"
     id="path33" />
  <path
     fill="url(#i)"
     d="M8.872 39.716h16.466v6.586H8.872Zm0 0"
     style="fill:url(#i);stroke-width:.411638"
     transform="translate(-.003 -.307)"
     id="path34" />
  <path
     fill="url(#j)"
     d="M8.872 36.423v4.94h44.553l-2.325-4.94Zm0 0"
     style="fill:url(#j);stroke-width:.411638"
     transform="translate(-.003 -.307)"
     id="path35" />
  <path
     fill="#241f31"
     d="M8.872 18.311v.823h27.991c1.01 0 1.932.571 2.383 1.473l5.114 10.227.014.04a1 1 0 0 0-.014-.864l-5.114-10.226a2.67 2.67 0 0 0-2.383-1.473zm0 0"
     style="stroke-width:.411638"
     transform="translate(-.003 -.307)"
     id="path36" />
</svg>
