<?xml version="1.0" encoding="UTF-8" standalone="no"?>
<svg
   width="64"
   height="64"
   viewBox="0 0 16.933 16.933"
   version="1.1"
   id="svg23"
   sodipodi:docname="design.svg"
   xml:space="preserve"
   inkscape:version="1.4.2 (ebf0e940d0, 2025-05-08)"
   xmlns:inkscape="http://www.inkscape.org/namespaces/inkscape"
   xmlns:sodipodi="http://sodipodi.sourceforge.net/DTD/sodipodi-0.dtd"
   xmlns="http://www.w3.org/2000/svg"
   xmlns:svg="http://www.w3.org/2000/svg"><sodipodi:namedview
     id="namedview23"
     pagecolor="#505050"
     bordercolor="#eeeeee"
     borderopacity="1"
     inkscape:showpageshadow="0"
     inkscape:pageopacity="0"
     inkscape:pagecheckerboard="0"
     inkscape:deskcolor="#505050"
     inkscape:zoom="2.0964611"
     inkscape:cx="-3.3389601"
     inkscape:cy="-16.456303"
     inkscape:window-width="1920"
     inkscape:window-height="996"
     inkscape:window-x="0"
     inkscape:window-y="0"
     inkscape:window-maximized="1"
     inkscape:current-layer="svg23" /><defs
     id="defs12"><clipPath
       id="p" /><clipPath
       id="d" /><clipPath
       id="f" /><clipPath
       id="h" /><clipPath
       id="j" /><clipPath
       id="m" /><mask
       id="q"
       maskUnits="userSpaceOnUse"><g
         filter="url(#a)"
         id="g1"><path
           fill-opacity=".528"
           d="M0 0h128v128H0z"
           id="path1" /></g></mask><mask
       id="e"
       maskUnits="userSpaceOnUse"><g
         filter="url(#a)"
         id="g2"><path
           fill-opacity=".528"
           d="M0 0h128v128H0z"
           id="path2" /></g></mask><mask
       id="g"
       maskUnits="userSpaceOnUse"><g
         filter="url(#a)"
         id="g3"><path
           fill-opacity=".528"
           d="M0 0h128v128H0z"
           id="path3" /></g></mask><mask
       id="i"
       maskUnits="userSpaceOnUse"><g
         filter="url(#a)"
         id="g4"><path
           fill-opacity=".528"
           d="M0 0h128v128H0z"
           id="path4" /></g></mask><mask
       id="k"
       maskUnits="userSpaceOnUse"><g
         filter="url(#a)"
         id="g5"><path
           fill-opacity=".528"
           d="M0 0h128v128H0z"
           id="path5" /></g></mask><mask
       id="o"
       maskUnits="userSpaceOnUse"><g
         filter="url(#a)"
         id="g6"><path
           fill-opacity=".528"
           d="M0 0h128v128H0z"
           id="path6" /></g></mask><radialGradient
       id="r"
       cx="140.51"
       cy="332.56"
       r="60"
       gradientTransform="matrix(.26626 0 0 .15056 -21.342 -37.055)"
       gradientUnits="userSpaceOnUse"><stop
         offset="0"
         stop-color="#5e5c64"
         stop-opacity=".596"
         id="stop6" /><stop
         offset="1"
         stop-color="#fff"
         stop-opacity="0"
         id="stop7" /></radialGradient><radialGradient
       id="s"
       cx="44.28"
       cy="234.82"
       r="60"
       gradientTransform="matrix(.16441 0 0 .1469 -2.43 -27.938)"
       gradientUnits="userSpaceOnUse"><stop
         offset="0"
         stop-color="#fff"
         stop-opacity=".58"
         id="stop8" /><stop
         offset=".592"
         stop-color="#d2d2d2"
         stop-opacity=".286"
         id="stop9" /><stop
         offset="1"
         stop-color="#fff"
         stop-opacity="0"
         id="stop10" /></radialGradient><filter
       id="a"
       width="1"
       height="1"
       x="0"
       y="0"><feColorMatrix
         in="SourceGraphic"
         values="0 0 0 0 1 0 0 0 0 1 0 0 0 0 1 0 0 0 1 0"
         id="feColorMatrix10" /></filter><filter
       id="c"
       width="1.2351703"
       height="1.3919763"
       x="-0.11758516"
       y="-0.19598816"
       color-interpolation-filters="sRGB"><feGaussianBlur
         stdDeviation=".745"
         id="feGaussianBlur10" /></filter><linearGradient
       id="b"
       x1="1.058"
       x2="15.875"
       y1="8.459"
       y2="8.459"
       gradientTransform="translate(-13.138932,-24.790743)"
       gradientUnits="userSpaceOnUse"><stop
         offset="0"
         stop-color="#203e5e"
         id="stop11" /><stop
         offset="1"
         stop-color="#9ebbdf"
         id="stop12" /></linearGradient><linearGradient
       id="linearGradient1053-2"
       x1="-127"
       x2="-72"
       y1="60"
       y2="5"
       gradientTransform="matrix(0.26457812,0,0,0.26457812,34.791996,-0.13452566)"
       gradientUnits="userSpaceOnUse"><stop
         stop-color="#2e55e7"
         offset="0"
         id="stop1-3-7" /><stop
         stop-color="#0d7eef"
         offset="1"
         id="stop2-6-0" /></linearGradient><filter
       id="filter1057-9"
       x="-0.026999999"
       y="-0.026999999"
       width="1.054"
       height="1.054"
       color-interpolation-filters="sRGB"><feGaussianBlur
         stdDeviation="0.61875"
         id="feGaussianBlur1-1" /></filter></defs><rect
     x="4.4999995"
     y="4.4999995"
     width="55"
     height="55"
     ry="15"
     fill="#141414"
     filter="url(#filter1057)"
     opacity="0.3"
     stroke-linecap="round"
     stroke-width="2.7444"
     id="rect3-9"
     style="filter:url(#filter1057-9)"
     transform="scale(0.26457812)" /><rect
     x="1.1904695"
     y="1.1904695"
     width="14.552061"
     height="14.552061"
     ry="3.9686718"
     fill="url(#linearGradient1053)"
     stroke-linecap="round"
     stroke-width="0.726108"
     id="rect4-7"
     style="fill:url(#linearGradient1053-2)" /><path
     id="rect23"
     style="opacity:0.15;fill:#000000;fill-opacity:1"
     d="M 8.184094,1.1906 V 4.413079 H 4.934744 V 1.196285 c -0.192383,0.01061 -0.380842,0.035 -0.564812,0.07183 V 4.413081 H 1.260105 C 1.225964,4.593961 1.203864,4.779248 1.194994,4.968075 H 4.369932 V 8.160066 H 1.190343 v 0.588066 h 3.179589 v 3.589891 H 1.229617 c 0.028364,0.200983 0.072086,0.397067 0.129188,0.587033 h 3.011127 v 2.739313 c 0.18397,0.03683 0.372429,0.06122 0.564812,0.07183 V 12.925057 H 8.1851275 V 15.7424 H 8.7489063 V 12.925054 H 12.00084 v 2.811142 c 0.19239,-0.01075 0.381366,-0.03537 0.565329,-0.07234 v -2.738797 h 3.008026 c 0.0571,-0.189966 0.100308,-0.38605 0.128672,-0.587033 H 12.566169 V 8.748135 h 3.176488 V 8.160069 H 12.566169 V 4.968078 h 3.171837 c -0.0089,-0.188827 -0.03097,-0.374114 -0.06511,-0.554994 H 12.565137 V 1.268635 C 12.381489,1.231765 12.192883,1.207545 12.000841,1.196805 V 4.413083 H 8.7489063 V 1.190604 Z M 4.934744,4.968073 H 8.1851275 V 8.160064 H 4.934744 Z m 3.8141623,0 H 12.00084 V 8.160064 H 8.7489063 Z M 4.934744,8.74813 h 3.2503835 v 3.589891 H 4.934744 Z m 3.8141623,0 H 12.00084 v 3.589891 H 8.7489063 Z" /><path
     d="M8.467 4.155a7.603 7.603 0 0 0-7.603 7.602v1.52h3.041v-1.52h9.123v1.52h3.042v-1.52a7.603 7.603 0 0 0-7.603-7.603zm0 3.547a4.06 4.06 0 0 1 3.757 2.534H4.721a4.06 4.06 0 0 1 3.746-2.534"
     filter="url(#c)"
     opacity=".15"
     id="path12" /><path
     fill="#77767b"
     d="M.897 11.495a8 8 0 0 0-.033.507v1.014h3.041v-1.014h9.123v1.014h3.042v-1.014a8 8 0 0 0-.034-.507zm7.57-4.561a4.56 4.56 0 0 0-4.29 3.041h.544A4.06 4.06 0 0 1 8.467 7.44a4.06 4.06 0 0 1 3.757 2.534h.543a4.56 4.56 0 0 0-4.3-3.041z"
     id="path14" /><path
     fill="#c0bfbc"
     d="M8.467 3.892a7.603 7.603 0 0 0-7.603 7.603v1.014h3.041v-1.014h9.123v1.014h3.042v-1.014a7.603 7.603 0 0 0-7.603-7.603m0 3.041a4.56 4.56 0 0 1 4.3 3.042H4.175a4.56 4.56 0 0 1 4.292-3.042"
     id="path15" /><path
     fill="#3d3846"
     d="m54.54 46.563 3.862-1.036 2.59 9.66-3.863 1.036z"
     clip-path="url(#d)"
     mask="url(#e)"
     transform="translate(-.656 -1.684)scale(.12671)"
     id="path16" /><path
     fill="#3d3846"
     d="m85.598 45.527 3.863 1.035-2.59 9.66-3.863-1.035z"
     clip-path="url(#f)"
     mask="url(#g)"
     transform="translate(-.656 -1.684)scale(.12671)"
     id="path17" /><path
     fill="#3d3846"
     d="m113.01 60.16 2.828 2.828-7.07 7.07-2.829-2.828z"
     clip-path="url(#h)"
     mask="url(#i)"
     transform="translate(-.656 -1.684)scale(.12671)"
     id="path18" /><path
     fill="#3d3846"
     d="m28.16 62.988 2.828-2.828 7.07 7.07-2.828 2.829z"
     clip-path="url(#j)"
     mask="url(#k)"
     transform="translate(-.656 -1.684)scale(.12671)"
     id="path19" /><path
     fill="#3d3846"
     d="m13.527 90.402 1.036-3.863 9.66 2.59-1.035 3.863z"
     clip-path="url(#m)"
     mask="url(#o)"
     transform="translate(-.656 -1.684)scale(.12671)"
     id="path20" /><path
     fill="#3d3846"
     d="m129.44 86.54 1.035 3.862-9.66 2.59-1.036-3.863z"
     clip-path="url(#p)"
     mask="url(#q)"
     transform="translate(-.656 -1.684)scale(.12671)"
     id="path21" /><path
     fill="url(#r)"
     d="M8.467 3.892a7.603 7.603 0 0 0-7.603 7.603v1.52h3.041v-1.52h9.123v1.52h3.042v-1.52a7.603 7.603 0 0 0-7.603-7.603m0 3.548a4.06 4.06 0 0 1 3.757 2.534H4.721A4.06 4.06 0 0 1 8.467 7.44"
     id="path22" /><path
     fill="url(#s)"
     d="M8.467 3.892a7.603 7.603 0 0 0-7.603 7.603v1.52h3.041v-1.52h9.123v1.52h3.042v-1.52a7.603 7.603 0 0 0-7.603-7.603m0 3.548a4.06 4.06 0 0 1 3.757 2.534H4.721A4.06 4.06 0 0 1 8.467 7.44"
     id="path23" /></svg>
