<?xml version="1.0" encoding="UTF-8"?>
<svg width="64" height="64" version="1.1" xmlns="http://www.w3.org/2000/svg" xmlns:cc="http://creativecommons.org/ns#" xmlns:dc="http://purl.org/dc/elements/1.1/" xmlns:rdf="http://www.w3.org/1999/02/22-rdf-syntax-ns#" xmlns:xlink="http://www.w3.org/1999/xlink">
 <metadata>
  <rdf:RDF>
   <cc:Work rdf:about="">
    <dc:format>image/svg+xml</dc:format>
    <dc:type rdf:resource="http://purl.org/dc/dcmitype/StillImage"/>
    <dc:title/>
   </cc:Work>
  </rdf:RDF>
 </metadata>
 <defs>
  <linearGradient id="b" x1="399.57" x2="399.57" y1="545.8" y2="517.8" gradientTransform="matrix(2.1429 0 0 2.1429 -826.36 -1107.5)" gradientUnits="userSpaceOnUse">
   <stop stop-color="#3889e9" offset="0"/>
   <stop stop-color="#5ea5fb" offset="1"/>
  </linearGradient>
  <filter id="d" x="-.12" y="-.12" width="1.24" height="1.24" color-interpolation-filters="sRGB">
   <feGaussianBlur stdDeviation="0.47489162"/>
  </filter>
  <filter id="filter2761" x="-.024" y="-.024" width="1.048" height="1.048" color-interpolation-filters="sRGB">
   <feGaussianBlur stdDeviation="0.14552168"/>
  </filter>
  <linearGradient id="linearGradient1024" x1="1.3315" x2="15.65" y1="15.576" y2="1.17" gradientTransform="matrix(3.7796 0 0 3.7796 -.0015097 .53028)" gradientUnits="userSpaceOnUse">
   <stop stop-color="#9b32af" offset="0"/>
   <stop stop-color="#fa7d37" offset="1"/>
  </linearGradient>
 </defs>
 <circle cx="-78.353" cy="32.044" r="30.001" fill-opacity="0" stroke-width="1.5715"/>
 <circle cx="32.02" cy="32.044" r="0" fill="url(#b)" stroke-width="1.5715"/>
 <g transform="matrix(3.7796 0 0 3.7796 .00056722 -.0001887)" fill="#5e4aa6" stroke-width=".26458">
  <circle cx="-330.35" cy="-328.38" r="0"/>
  <circle cx="-39.434" cy="6.44" r="0" fill-rule="evenodd"/>
  <g transform="translate(3.0032e-4,-9.9674e-5)">
   <circle cx="-347.64" cy="-328.38" r="0"/>
   <circle cx="-56.726" cy="6.44" r="0" fill-rule="evenodd"/>
   <g transform="translate(-.0272 .0065001)">
    <circle cx="-330.35" cy="-328.38" r="0"/>
    <circle cx="-312.11" cy="-326.25" r="0"/>
    <circle cx="-306.02" cy="-333.07" r="0"/>
    <circle cx="-308.84" cy="-326.01" r="0"/>
   </g>
  </g>
 </g>
 <path transform="matrix(3.7796 0 0 3.7796 .00056722 -.0001887)" d="m10.708 1.1905c4.405 0 5.0345 0.67282 5.0345 5.388v3.7761c0 4.7152-0.62954 5.388-5.0345 5.388h-4.4832c-4.405 0-5.0346-0.6728-5.0346-5.388v-3.7761c0-4.7152 0.62954-5.388 5.0346-5.388z" enable-background="new" fill="#141414" filter="url(#filter2761)" opacity=".3"/>
 <path d="m40.473 4.4994c16.649 0 19.028 2.543 19.028 20.364v14.272c0 17.822-2.3794 20.364-19.028 20.364h-16.945c-16.649 0-19.029-2.5429-19.029-20.364v-14.272c0-17.822 2.3794-20.364 19.029-20.364z" enable-background="new" fill="url(#linearGradient1024)" stroke-width="3.7796"/>
 <path d="m41.395 4.5098 18.084 18.084c-0.22197-15.417-3.0217-17.987-18.084-18.084z" color="#000000" fill="#5d5d5d" stroke-width="1.3753"/>
 <path transform="matrix(1.3753 0 0 1.3753 -14.906 -12.265)" d="m50.43 25.361-9.4975-9.4975v3.6413c0 5.2381 0.53814 5.8818 5.7872 5.8562z" color="#000000" filter="url(#d)" opacity=".35"/>
 <path d="m59.501 22.614-18.114-18.114v6.9449c0 9.9904 1.0264 11.218 11.038 11.169z" color="#000000" fill="#faf8f6" stroke-width="1.3753"/>
 <path d="m19.1 4.5938c-12.624 0.5556-14.6 4.1822-14.6 20.27v14.273c0 16.087 1.9758 19.714 14.6 20.27v-54.812z" enable-background="new" opacity=".3" stroke-width="1.4188"/>
</svg>
