<?xml version="1.0" encoding="UTF-8"?>
<svg width="64" height="64" version="1.1" viewBox="0 0 64 64" xmlns="http://www.w3.org/2000/svg" xmlns:cc="http://creativecommons.org/ns#" xmlns:dc="http://purl.org/dc/elements/1.1/" xmlns:rdf="http://www.w3.org/1999/02/22-rdf-syntax-ns#">
 <metadata>
  <rdf:RDF>
   <cc:Work rdf:about="">
    <dc:format>image/svg+xml</dc:format>
    <dc:type rdf:resource="http://purl.org/dc/dcmitype/StillImage"/>
    <dc:title/>
   </cc:Work>
  </rdf:RDF>
 </metadata>
 <defs>
  <style type="text/css"/>
  <filter id="filter2761" x="-.024" y="-.024" width="1.048" height="1.048" color-interpolation-filters="sRGB">
   <feGaussianBlur stdDeviation="0.14552168"/>
  </filter>
  <linearGradient id="linearGradient4673" x1="1.2573" x2="15.644" y1="15.429" y2="1.1082" gradientTransform="matrix(3.7796 0 0 3.7796 -.0026279 .53068)" gradientUnits="userSpaceOnUse">
   <stop stop-color="#32dcff" offset="0"/>
   <stop stop-color="#3296ff" offset="1"/>
  </linearGradient>
 </defs>
 <g fill="#5e4aa6">
  <circle cx="-1248.7" cy="-1241.6" r="0"/>
  <circle cx="-149.15" cy="23.855" r="0" fill-rule="evenodd"/>
  <circle cx="-1248.7" cy="-1241.6" r="0"/>
  <circle cx="-149.15" cy="23.855" r="0" fill-rule="evenodd"/>
  <circle cx="-1124.8" cy="-1279.3" r="0"/>
  <g transform="matrix(3.7796 0 0 3.7796 123.83 -38.184)" stroke-width=".26458">
   <circle cx="-299.02" cy="-338.77" r="0"/>
   <circle cx="-8.1062" cy="-3.9487" r="0" fill-rule="evenodd"/>
   <circle cx="-278.25" cy="-357.69" r="0"/>
   <circle cx="12.663" cy="-22.859" r="0" fill-rule="evenodd"/>
  </g>
 </g>
 <path transform="matrix(3.7796 0 0 3.7796 .00058415 -.00017177)" d="m10.708 1.1905c4.405 0 5.0345 0.67282 5.0345 5.388v3.7761c0 4.7152-0.62954 5.388-5.0345 5.388h-4.4832c-4.405 0-5.0346-0.6728-5.0346-5.388v-3.7761c0-4.7152 0.62954-5.388 5.0346-5.388z" enable-background="new" fill="#141414" filter="url(#filter2761)" opacity=".3"/>
 <path d="m40.473 4.2186c16.649 0 19.028 2.543 19.028 20.364v14.272c0 17.822-2.3794 20.364-19.028 20.364h-16.945c-16.649 0-19.029-2.5429-19.029-20.364v-14.272c0-17.822 2.3794-20.364 19.029-20.364z" enable-background="new" fill="url(#linearGradient4673)" stroke-width="3.7796"/>
 <g transform="matrix(1.3043 0 0 1.3043 64.916 -20.103)">
  <path d="m-25.736 34.945-5 9h10m-3.2-2h-3.6l1.8-3.4" fill="#ff9409"/>
  <path d="m-35.736 25.945v3h1v1h-2v3h2v14h-2v3h2v0.877h-1l2 3.123 2-3.123h-1v-0.877h9c5.54 0 10-4.46 10-10s-4.46-10-10-10h-9v-1h1v-3zm3 7h9c3.878 0 7 3.122 7 7s-3.122 7-7 7h-9z" fill="#f9f9f9"/>
 </g>
</svg>
