<?xml version="1.0" encoding="UTF-8" standalone="no"?>
<svg
   width="64"
   height="64"
   viewBox="0 0 16.933 16.933"
   version="1.1"
   id="svg1"
   sodipodi:docname="discord-development.svg"
   inkscape:version="1.3.2 (091e20ef0f, 2023-11-25, custom)"
   xmlns:inkscape="http://www.inkscape.org/namespaces/inkscape"
   xmlns:sodipodi="http://sodipodi.sourceforge.net/DTD/sodipodi-0.dtd"
   xmlns:xlink="http://www.w3.org/1999/xlink"
   xmlns="http://www.w3.org/2000/svg"
   xmlns:svg="http://www.w3.org/2000/svg">
  <defs
     id="defs1">
    <filter
       inkscape:collect="always"
       style="color-interpolation-filters:sRGB"
       id="filter1057"
       x="-0.026999999"
       width="1.054"
       y="-0.026999999"
       height="1.054">
      <feGaussianBlur
         inkscape:collect="always"
         stdDeviation="0.61875"
         id="feGaussianBlur1059" />
    </filter>
    <linearGradient
       inkscape:collect="always"
       xlink:href="#linearGradient1051"
       id="linearGradient1053"
       x1="-127"
       y1="60"
       x2="-72"
       y2="5"
       gradientUnits="userSpaceOnUse"
       gradientTransform="matrix(0.26457812,0,0,0.26457812,34.792024,-0.13493468)" />
    <linearGradient
       inkscape:collect="always"
       id="linearGradient1051">
      <stop
         style="stop-color:#1d2123;stop-opacity:1"
         offset="0"
         id="stop1047" />
      <stop
         style="stop-color:#33393e;stop-opacity:0.99607843"
         offset="1"
         id="stop1049" />
    </linearGradient>
  </defs>
  <sodipodi:namedview
     id="namedview1"
     pagecolor="#ffffff"
     bordercolor="#000000"
     borderopacity="0.25"
     inkscape:showpageshadow="2"
     inkscape:pageopacity="0.0"
     inkscape:pagecheckerboard="0"
     inkscape:deskcolor="#d1d1d1"
     inkscape:zoom="4.3531261"
     inkscape:cx="37.674075"
     inkscape:cy="43.187354"
     inkscape:window-width="1920"
     inkscape:window-height="995"
     inkscape:window-x="0"
     inkscape:window-y="0"
     inkscape:window-maximized="1"
     inkscape:current-layer="svg1" />
  <rect
     transform="scale(0.26457812)"
     ry="15"
     y="4.5"
     x="4.5"
     height="55"
     width="55"
     id="rect1055"
     style="opacity:0.3;fill:#141414;fill-opacity:1;stroke-width:2.74436;stroke-linecap:round;filter:url(#filter1057)" />
  <rect
     style="fill:url(#linearGradient1053);fill-opacity:1;stroke-width:0.726098;stroke-linecap:round"
     id="rect1045"
     width="14.551796"
     height="14.551796"
     x="1.1906021"
     y="1.1906021"
     ry="3.9686716" />
  <path
     fill="#fff"
     d="M11.956 5.227a8.188 8.188 0 0 0-2.074-.652c-.09.162-.194.379-.266.552a7.616 7.616 0 0 0-2.299 0 5.896 5.896 0 0 0-.269-.552 8.161 8.161 0 0 0-2.075.654C3.66 7.212 3.304 9.147 3.482 11.053a8.294 8.294 0 0 0 2.544 1.304c.205-.282.387-.582.545-.897a5.358 5.358 0 0 1-.858-.418c.072-.053.142-.109.21-.166 1.654.773 3.452.773 5.086 0 .07.057.14.113.21.166-.271.164-.56.305-.859.418.158.315.34.616.545.898a8.275 8.275 0 0 0 2.546-1.305c.208-2.21-.357-4.127-1.495-5.826zM6.796 9.88c-.496 0-.904-.464-.904-1.028 0-.565.399-1.03.904-1.03.506 0 .913.464.904 1.03 0 .564-.398 1.028-.904 1.028zm3.34 0c-.496 0-.903-.464-.903-1.028 0-.565.398-1.03.903-1.03.506 0 .913.464.904 1.03 0 .564-.398 1.028-.904 1.028z"
     id="path1" />
</svg>
