<?xml version="1.0" encoding="UTF-8" standalone="no"?>
<svg
   xmlns:dc="http://purl.org/dc/elements/1.1/"
   xmlns:cc="http://creativecommons.org/ns#"
   xmlns:rdf="http://www.w3.org/1999/02/22-rdf-syntax-ns#"
   xmlns:svg="http://www.w3.org/2000/svg"
   xmlns="http://www.w3.org/2000/svg"
   xmlns:sodipodi="http://sodipodi.sourceforge.net/DTD/sodipodi-0.dtd"
   xmlns:inkscape="http://www.inkscape.org/namespaces/inkscape"
   viewBox="0 0 64 64"
   version="1.1"
   id="svg45"
   sodipodi:docname="distributor-logo-archlinux.svg"
   width="64"
   height="64"
   inkscape:version="1.0.1 (3bc2e813f5, 2020-09-07)">
  <metadata
     id="metadata49">
    <rdf:RDF>
      <cc:Work
         rdf:about="">
        <dc:format>image/svg+xml</dc:format>
        <dc:type
           rdf:resource="http://purl.org/dc/dcmitype/StillImage" />
        <dc:title></dc:title>
      </cc:Work>
    </rdf:RDF>
  </metadata>
  <sodipodi:namedview
     pagecolor="#ffffff"
     bordercolor="#666666"
     borderopacity="1"
     objecttolerance="10"
     gridtolerance="10"
     guidetolerance="10"
     inkscape:pageopacity="0"
     inkscape:pageshadow="2"
     inkscape:window-width="1920"
     inkscape:window-height="932"
     id="namedview47"
     showgrid="false"
     inkscape:pagecheckerboard="true"
     inkscape:zoom="3.984375"
     inkscape:cx="-11.811314"
     inkscape:cy="27.717908"
     inkscape:window-x="0"
     inkscape:window-y="36"
     inkscape:window-maximized="1"
     inkscape:current-layer="svg45"
     inkscape:document-rotation="0" />
  <defs
     id="defs7">
    <linearGradient
       id="linearGradient3764"
       x1="1"
       x2="47"
       gradientUnits="userSpaceOnUse"
       gradientTransform="rotate(-90,23.999998,24)">
      <stop
         style="stop-color:#1791d1;stop-opacity:1"
         id="stop2" />
      <stop
         offset="1"
         style="stop-color:#19a0e3;stop-opacity:1"
         id="stop4" />
    </linearGradient>
    <linearGradient
       id="linearGradient1159-3"
       x1="-184.75"
       x2="-170.2"
       y1="-1.2655"
       y2="-15.817"
       gradientTransform="matrix(3.7796 0 0 3.7796 702.82 64.287)"
       gradientUnits="userSpaceOnUse">
      <stop
         stop-color="#323232"
         offset="0"
         id="stop4-3" />
      <stop
         stop-color="#505050"
         offset="1"
         id="stop6" />
    </linearGradient>
    <clipPath
       id="clipPath13429">
      <path
         d="m481 318h22v22h-22z"
         id="path9-6" />
    </clipPath>
    <clipPath
       id="clipPath13465">
      <path
         d="m507 318h22v22h-22z"
         id="path12" />
    </clipPath>
    <clipPath
       id="clipPath13501">
      <path
         d="m530 318h22v22h-22z"
         id="path15" />
    </clipPath>
    <clipPath
       id="clipPath13753">
      <path
         d="m672 1064c0-1.105 4.925-2 11-2s11 0.895 11 2-4.925 2-11 2-11-0.895-11-2"
         id="path18" />
    </clipPath>
    <clipPath
       id="clipPath13771">
      <path
         d="m660 1057h51v65.001h-51z"
         id="path21-7" />
    </clipPath>
    <clipPath
       id="clipPath14035">
      <path
         d="m659 517h53v18h-53z"
         id="path24" />
    </clipPath>
    <clipPath
       id="clipPath14127">
      <path
         d="m659 500h53v18h-53z"
         id="path27" />
    </clipPath>
    <clipPath
       id="clipPath14445">
      <path
         d="m648 112h73v60h-73z"
         id="path30" />
    </clipPath>
    <clipPath
       id="clipPath14609">
      <path
         d="m826 1056h59v60h-59z"
         id="path33-5" />
    </clipPath>
    <clipPath
       id="clipPath15305">
      <path
         d="m805 276h100v100h-100z"
         id="path36" />
    </clipPath>
    <clipPath
       id="clipPath15341">
      <path
         d="m145 1063.8h74.152v45.21h-74.152z"
         id="path39" />
    </clipPath>
    <clipPath
       id="clipPath15715">
      <path
         d="m151 667h57v57h-57z"
         id="path42" />
    </clipPath>
    <clipPath
       id="clipPath15807">
      <path
         d="m154 697h51v51h-51z"
         id="path45" />
    </clipPath>
    <clipPath
       id="clipPath16001">
      <path
         d="m500.04 864.45h36.012v67.52h-36.012z"
         id="path48" />
    </clipPath>
    <clipPath
       id="clipPath16093">
      <path
         d="m836 870.54h47v55.539h-47z"
         id="path51" />
    </clipPath>
    <clipPath
       id="clipPath16477">
      <path
         d="m318.03 702.35h62.848v37.991h-62.848z"
         id="path54" />
    </clipPath>
    <clipPath
       id="clipPath16579">
      <path
         d="m485.03 133.35h62.847v37.991h-62.847z"
         id="path57" />
    </clipPath>
    <clipPath
       id="clipPath16709">
      <path
         d="m493.37 677.93h45.643v68.067h-45.643z"
         id="path60" />
    </clipPath>
    <clipPath
       id="clipPath24218">
      <path
         d="m144.34 1018.2h71.467v78h-71.467z"
         id="path63" />
    </clipPath>
    <clipPath
       id="clipPath24382">
      <path
         d="m293.21 1068.6 66.323-38.292 36.047 62.435-66.323 38.292z"
         id="path66" />
    </clipPath>
    <clipPath
       id="clipPath24650">
      <path
         d="m488.86 1054.5h10v10.706h-10z"
         id="path69" />
    </clipPath>
    <clipPath
       id="clipPath24700">
      <path
         d="m508 1066.8h10.001v10.705h-10.001z"
         id="path72" />
    </clipPath>
    <clipPath
       id="clipPath24750">
      <path
         d="m525 1045.8h10v10.706h-10z"
         id="path75" />
    </clipPath>
    <clipPath
       id="clipPath24864">
      <path
         d="m836 1043.7h25.5v31.5h-25.5z"
         id="path78" />
    </clipPath>
    <clipPath
       id="clipPath24896">
      <path
         d="m838 1062.2h24v24h-24z"
         id="path81" />
    </clipPath>
    <clipPath
       id="clipPath25070">
      <path
         d="m134 489.24h7v6h-7z"
         id="path84" />
    </clipPath>
    <clipPath
       id="clipPath25100">
      <path
         d="m216 489.24h7v6h-7z"
         id="path87" />
    </clipPath>
    <clipPath
       id="clipPath25502">
      <path
         d="m838 477.24h22v22h-22z"
         id="path90" />
    </clipPath>
    <clipPath
       id="clipPath25686">
      <path
         d="m704 1061.2h25v25h-25z"
         id="path93" />
    </clipPath>
    <clipPath
       id="clipPath25788">
      <path
         d="m663.04 1078.6-1.808-3.514-21.07-47.453c13.336-18.439 48.336-26.938 73.836-3.439 0.842 0 6.476 6.246 6 7l-18.386 25.895c-0.483 0.765-1.453 0.946-2.177 0.431l-15.505-11.011c-0.359-0.255-0.847-0.153-1.07 0.238l-18.272 31.869c-0.218 0.384-0.502 0.578-0.782 0.578-0.282 0-0.561-0.197-0.766-0.594"
         id="path96" />
    </clipPath>
    <clipPath
       id="clipPath26420">
      <path
         d="m127 820.24h100v100h-100z"
         id="path99" />
    </clipPath>
    <clipPath
       id="clipPath26860">
      <path
         d="m809 680.24c0-22.092 17.908-40 40-40s40 17.908 40 40c0 22.091-17.908 40-40 40s-40-17.909-40-40"
         id="path102" />
    </clipPath>
    <clipPath
       id="clipPath27506">
      <path
         d="m658 469.24h44v45h-44z"
         id="path105" />
    </clipPath>
    <clipPath
       id="clipPath27772">
      <path
         d="m651 271.24h58v58h-58z"
         id="path108" />
    </clipPath>
    <clipPath
       id="clipPath27864">
      <path
         d="m662 307.24h38v8h-38z"
         id="path111" />
    </clipPath>
    <clipPath
       id="clipPath28028">
      <path
         d="m858.98 137.24c0.013-0.101 0.021-0.203 0.021-0.307v-6.693h15.75c1.237 0 2.25-1.013 2.25-2.25v-11.25l-27-4.5-27 4.5v-2.25l27-4.5 27 4.5v-27c0-1.237-1.013-2.25-2.25-2.25h-49.5c-1.237 0-2.25 1.013-2.25 2.25v-4.25h54v54zm-35.979 0v-9.25c0 1.237 1.013 2.25 2.25 2.25h15.75v6.693c0 0.104 7e-3 0.207 0.02 0.307zm22.5-7h9v4.5h-9zm1.125-9c-0.62 0-1.125-0.506-1.125-1.125v-2.25c0-0.619 0.505-1.125 1.125-1.125h6.75c0.619 0 1.125 0.506 1.125 1.125v2.25c0 0.619-0.506 1.125-1.125 1.125z"
         id="path114" />
    </clipPath>
    <clipPath
       id="clipPath28200">
      <path
         d="m531.27 136.24c6.325-2.29 10.727-8.277 10.727-15.484 0-11.316-10.2-20.563-25.65-34.575l-4.35-3.941-4.35 3.941c-15.45 14.012-25.65 23.259-25.65 34.575v-39.516h60v55zm-26.983 0c2.995-1.052 5.686-2.883 7.71-5.25 2.024 2.367 4.715 4.198 7.71 5.25zm-22.29 0v-15.484c0 7.207 4.402 13.194 10.727 15.484z"
         id="path117" />
    </clipPath>
    <clipPath
       id="clipPath28364">
      <path
         d="m648 79.241h64v64h-64z"
         id="path120" />
    </clipPath>
    <clipPath
       id="clipPath28984">
      <path
         d="m500 691.74c0-3.037 2.463-5.5 5.5-5.5s5.5 2.463 5.5 5.5-2.463 5.5-5.5 5.5-5.5-2.463-5.5-5.5"
         id="path123" />
    </clipPath>
    <clipPath
       id="clipPath29012">
      <path
         d="m500 669.74c0-3.037 2.463-5.5 5.5-5.5s5.5 2.463 5.5 5.5c0 3.038-2.463 5.5-5.5 5.5s-5.5-2.462-5.5-5.5"
         id="path126" />
    </clipPath>
    <clipPath
       id="clipPath29040">
      <path
         d="m494 680.74c0-3.037 2.462-5.5 5.5-5.5s5.5 2.463 5.5 5.5c0 3.038-2.462 5.5-5.5 5.5s-5.5-2.462-5.5-5.5"
         id="path129" />
    </clipPath>
    <clipPath
       id="clipPath29068">
      <path
         d="m513 691.74c0-3.037 2.463-5.5 5.5-5.5s5.5 2.463 5.5 5.5-2.463 5.5-5.5 5.5-5.5-2.463-5.5-5.5"
         id="path132" />
    </clipPath>
    <clipPath
       id="clipPath29096">
      <path
         d="m513 669.74c0-3.037 2.463-5.5 5.5-5.5s5.5 2.463 5.5 5.5c0 3.038-2.463 5.5-5.5 5.5s-5.5-2.462-5.5-5.5"
         id="path135" />
    </clipPath>
    <clipPath
       id="clipPath29124">
      <path
         d="m507 680.74c0-3.037 2.463-5.5 5.5-5.5s5.5 2.463 5.5 5.5c0 3.038-2.463 5.5-5.5 5.5s-5.5-2.462-5.5-5.5"
         id="path138" />
    </clipPath>
    <clipPath
       id="clipPath29152">
      <path
         d="m520 680.74c0-3.037 2.463-5.5 5.5-5.5s5.5 2.463 5.5 5.5c0 3.038-2.463 5.5-5.5 5.5s-5.5-2.462-5.5-5.5"
         id="path141" />
    </clipPath>
    <clipPath
       id="clipPath29252">
      <path
         d="m321 322.24c-4.97 0-9-4.029-9-9 0-4.97 4.03-9 9-9h45c4.971 0 9 4.03 9 9 0 4.971-4.029 9-9 9z"
         id="path144" />
    </clipPath>
    <clipPath
       id="clipPath29280">
      <path
         d="m322 297.24c-4.971 0-9-4.029-9-9 0-4.97 4.029-9 9-9h45c4.971 0 9 4.03 9 9 0 4.971-4.029 9-9 9z"
         id="path147" />
    </clipPath>
    <clipPath
       id="clipPath29400">
      <path
         d="m155 83.24h44v53h-44z"
         id="path150" />
    </clipPath>
    <clipPath
       id="clipPath13429-6">
      <path
         d="m481 318h22v22h-22z"
         id="path153" />
    </clipPath>
    <clipPath
       id="clipPath13465-0">
      <path
         d="m507 318h22v22h-22z"
         id="path156" />
    </clipPath>
    <clipPath
       id="clipPath13501-6">
      <path
         d="m530 318h22v22h-22z"
         id="path159" />
    </clipPath>
    <clipPath
       id="clipPath13753-2">
      <path
         d="m672 1064c0-1.105 4.925-2 11-2s11 0.895 11 2-4.925 2-11 2-11-0.895-11-2"
         id="path162" />
    </clipPath>
    <clipPath
       id="clipPath13771-6">
      <path
         d="m660 1057h51v65.001h-51z"
         id="path165" />
    </clipPath>
    <clipPath
       id="clipPath14035-1">
      <path
         d="m659 517h53v18h-53z"
         id="path168" />
    </clipPath>
    <clipPath
       id="clipPath14127-8">
      <path
         d="m659 500h53v18h-53z"
         id="path171" />
    </clipPath>
    <clipPath
       id="clipPath14445-7">
      <path
         d="m648 112h73v60h-73z"
         id="path174" />
    </clipPath>
    <clipPath
       id="clipPath14609-9">
      <path
         d="m826 1056h59v60h-59z"
         id="path177" />
    </clipPath>
    <clipPath
       id="clipPath15305-2">
      <path
         d="m805 276h100v100h-100z"
         id="path180" />
    </clipPath>
    <clipPath
       id="clipPath15341-0">
      <path
         d="m145 1063.8h74.152v45.21h-74.152z"
         id="path183" />
    </clipPath>
    <clipPath
       id="clipPath15715-2">
      <path
         d="m151 667h57v57h-57z"
         id="path186" />
    </clipPath>
    <clipPath
       id="clipPath15807-3">
      <path
         d="m154 697h51v51h-51z"
         id="path189" />
    </clipPath>
    <clipPath
       id="clipPath16001-7">
      <path
         d="m500.04 864.45h36.012v67.52h-36.012z"
         id="path192" />
    </clipPath>
    <clipPath
       id="clipPath16093-5">
      <path
         d="m836 870.54h47v55.539h-47z"
         id="path195" />
    </clipPath>
    <clipPath
       id="clipPath16477-9">
      <path
         d="m318.03 702.35h62.848v37.991h-62.848z"
         id="path198" />
    </clipPath>
    <clipPath
       id="clipPath16579-2">
      <path
         d="m485.03 133.35h62.847v37.991h-62.847z"
         id="path201" />
    </clipPath>
    <clipPath
       id="clipPath16709-2">
      <path
         d="m493.37 677.93h45.643v68.067h-45.643z"
         id="path204" />
    </clipPath>
    <clipPath
       id="clipPath24218-8">
      <path
         d="m144.34 1018.2h71.467v78h-71.467z"
         id="path207" />
    </clipPath>
    <clipPath
       id="clipPath24382-9">
      <path
         d="m293.21 1068.6 66.323-38.292 36.047 62.435-66.323 38.292z"
         id="path210" />
    </clipPath>
    <clipPath
       id="clipPath24650-7">
      <path
         d="m488.86 1054.5h10v10.706h-10z"
         id="path213" />
    </clipPath>
    <clipPath
       id="clipPath24700-3">
      <path
         d="m508 1066.8h10.001v10.705h-10.001z"
         id="path216" />
    </clipPath>
    <clipPath
       id="clipPath24750-6">
      <path
         d="m525 1045.8h10v10.706h-10z"
         id="path219" />
    </clipPath>
    <clipPath
       id="clipPath24864-1">
      <path
         d="m836 1043.7h25.5v31.5h-25.5z"
         id="path222" />
    </clipPath>
    <clipPath
       id="clipPath24896-2">
      <path
         d="m838 1062.2h24v24h-24z"
         id="path225" />
    </clipPath>
    <clipPath
       id="clipPath25070-9">
      <path
         d="m134 489.24h7v6h-7z"
         id="path228" />
    </clipPath>
    <clipPath
       id="clipPath25100-3">
      <path
         d="m216 489.24h7v6h-7z"
         id="path231" />
    </clipPath>
    <clipPath
       id="clipPath25502-1">
      <path
         d="m838 477.24h22v22h-22z"
         id="path234" />
    </clipPath>
    <clipPath
       id="clipPath25686-9">
      <path
         d="m704 1061.2h25v25h-25z"
         id="path237" />
    </clipPath>
    <clipPath
       id="clipPath25788-4">
      <path
         d="m663.04 1078.6-1.808-3.514-21.07-47.453c13.336-18.439 48.336-26.938 73.836-3.439 0.842 0 6.476 6.246 6 7l-18.386 25.895c-0.483 0.765-1.453 0.946-2.177 0.431l-15.505-11.011c-0.359-0.255-0.847-0.153-1.07 0.238l-18.272 31.869c-0.218 0.384-0.502 0.578-0.782 0.578-0.282 0-0.561-0.197-0.766-0.594"
         id="path240" />
    </clipPath>
    <clipPath
       id="clipPath26420-7">
      <path
         d="m127 820.24h100v100h-100z"
         id="path243" />
    </clipPath>
    <clipPath
       id="clipPath26860-8">
      <path
         d="m809 680.24c0-22.092 17.908-40 40-40s40 17.908 40 40c0 22.091-17.908 40-40 40s-40-17.909-40-40"
         id="path246" />
    </clipPath>
    <clipPath
       id="clipPath27506-4">
      <path
         d="m658 469.24h44v45h-44z"
         id="path249" />
    </clipPath>
    <clipPath
       id="clipPath27772-5">
      <path
         d="m651 271.24h58v58h-58z"
         id="path252" />
    </clipPath>
    <clipPath
       id="clipPath27864-0">
      <path
         d="m662 307.24h38v8h-38z"
         id="path255" />
    </clipPath>
    <clipPath
       id="clipPath28028-3">
      <path
         d="m858.98 137.24c0.013-0.101 0.021-0.203 0.021-0.307v-6.693h15.75c1.237 0 2.25-1.013 2.25-2.25v-11.25l-27-4.5-27 4.5v-2.25l27-4.5 27 4.5v-27c0-1.237-1.013-2.25-2.25-2.25h-49.5c-1.237 0-2.25 1.013-2.25 2.25v-4.25h54v54zm-35.979 0v-9.25c0 1.237 1.013 2.25 2.25 2.25h15.75v6.693c0 0.104 7e-3 0.207 0.02 0.307zm22.5-7h9v4.5h-9zm1.125-9c-0.62 0-1.125-0.506-1.125-1.125v-2.25c0-0.619 0.505-1.125 1.125-1.125h6.75c0.619 0 1.125 0.506 1.125 1.125v2.25c0 0.619-0.506 1.125-1.125 1.125z"
         id="path258" />
    </clipPath>
    <clipPath
       id="clipPath28200-6">
      <path
         d="m531.27 136.24c6.325-2.29 10.727-8.277 10.727-15.484 0-11.316-10.2-20.563-25.65-34.575l-4.35-3.941-4.35 3.941c-15.45 14.012-25.65 23.259-25.65 34.575v-39.516h60v55zm-26.983 0c2.995-1.052 5.686-2.883 7.71-5.25 2.024 2.367 4.715 4.198 7.71 5.25zm-22.29 0v-15.484c0 7.207 4.402 13.194 10.727 15.484z"
         id="path261" />
    </clipPath>
    <clipPath
       id="clipPath28364-1">
      <path
         d="m648 79.241h64v64h-64z"
         id="path264" />
    </clipPath>
    <clipPath
       id="clipPath28984-0">
      <path
         d="m500 691.74c0-3.037 2.463-5.5 5.5-5.5s5.5 2.463 5.5 5.5-2.463 5.5-5.5 5.5-5.5-2.463-5.5-5.5"
         id="path267" />
    </clipPath>
    <clipPath
       id="clipPath29012-6">
      <path
         d="m500 669.74c0-3.037 2.463-5.5 5.5-5.5s5.5 2.463 5.5 5.5c0 3.038-2.463 5.5-5.5 5.5s-5.5-2.462-5.5-5.5"
         id="path270" />
    </clipPath>
    <clipPath
       id="clipPath29040-3">
      <path
         d="m494 680.74c0-3.037 2.462-5.5 5.5-5.5s5.5 2.463 5.5 5.5c0 3.038-2.462 5.5-5.5 5.5s-5.5-2.462-5.5-5.5"
         id="path273" />
    </clipPath>
    <clipPath
       id="clipPath29068-2">
      <path
         d="m513 691.74c0-3.037 2.463-5.5 5.5-5.5s5.5 2.463 5.5 5.5-2.463 5.5-5.5 5.5-5.5-2.463-5.5-5.5"
         id="path276" />
    </clipPath>
    <clipPath
       id="clipPath29096-0">
      <path
         d="m513 669.74c0-3.037 2.463-5.5 5.5-5.5s5.5 2.463 5.5 5.5c0 3.038-2.463 5.5-5.5 5.5s-5.5-2.462-5.5-5.5"
         id="path279" />
    </clipPath>
    <clipPath
       id="clipPath29124-6">
      <path
         d="m507 680.74c0-3.037 2.463-5.5 5.5-5.5s5.5 2.463 5.5 5.5c0 3.038-2.463 5.5-5.5 5.5s-5.5-2.462-5.5-5.5"
         id="path282" />
    </clipPath>
    <clipPath
       id="clipPath29152-1">
      <path
         d="m520 680.74c0-3.037 2.463-5.5 5.5-5.5s5.5 2.463 5.5 5.5c0 3.038-2.463 5.5-5.5 5.5s-5.5-2.462-5.5-5.5"
         id="path285" />
    </clipPath>
    <clipPath
       id="clipPath29252-5">
      <path
         d="m321 322.24c-4.97 0-9-4.029-9-9 0-4.97 4.03-9 9-9h45c4.971 0 9 4.03 9 9 0 4.971-4.029 9-9 9z"
         id="path288" />
    </clipPath>
    <clipPath
       id="clipPath29280-5">
      <path
         d="m322 297.24c-4.971 0-9-4.029-9-9 0-4.97 4.029-9 9-9h45c4.971 0 9 4.03 9 9 0 4.971-4.029 9-9 9z"
         id="path291" />
    </clipPath>
    <clipPath
       id="clipPath29400-4">
      <path
         d="m155 83.24h44v53h-44z"
         id="path294" />
    </clipPath>
    <style
       type="text/css"
       id="style1429" />
    <filter
       id="filter1057"
       x="-.027"
       y="-.027"
       width="1.054"
       height="1.054"
       color-interpolation-filters="sRGB">
      <feGaussianBlur
         stdDeviation="0.61875"
         id="feGaussianBlur1431" />
    </filter>
    <linearGradient
       id="linearGradient1053"
       x1="-127"
       x2="-72"
       y1="60"
       y2="5"
       gradientTransform="translate(131.5,-0.51)"
       gradientUnits="userSpaceOnUse">
      <stop
         stop-color="#32d7ff"
         offset="0"
         id="stop1434" />
      <stop
         stop-color="#329bff"
         offset="1"
         id="stop1436" />
    </linearGradient>
    <style
       type="text/css"
       id="style1439" />
    <style
       type="text/css"
       id="style1441" />
    <style
       type="text/css"
       id="style1443" />
    <style
       type="text/css"
       id="style1445" />
    <style
       type="text/css"
       id="style1447" />
    <style
       type="text/css"
       id="style1449" />
    <style
       type="text/css"
       id="style1451" />
  </defs>
  <rect
     x="4.4999995"
     y="4.4999995"
     width="55"
     height="55"
     ry="15"
     fill="#141414"
     filter="url(#filter1057)"
     opacity="0.3"
     stroke-linecap="round"
     stroke-width="2.7444"
     id="rect1467" />
  <rect
     x="4.5"
     y="4.5"
     width="55"
     height="55"
     ry="15"
     fill="url(#linearGradient1053)"
     stroke-linecap="round"
     stroke-width="2.7444"
     id="rect1469"
     style="fill:url(#linearGradient1053)" />
  <g
     fill="#5e4aa6"
     id="g343"
     transform="translate(-67.493987)">
    <circle
       cx="-1350.4"
       cy="-1244"
       r="0"
       id="circle301" />
    <circle
       cx="-250.84"
       cy="21.497999"
       r="0"
       fill-rule="evenodd"
       id="circle303" />
    <g
       transform="matrix(3.7796,0,0,3.7796,-101.49,-3.0368)"
       stroke-width="0.26458"
       id="g341">
      <g
         transform="translate(-21.834,0.89695)"
         id="g313">
        <circle
           cx="-330.35001"
           cy="-328.38"
           r="0"
           id="circle305" />
        <circle
           cx="-312.10999"
           cy="-326.25"
           r="0"
           id="circle307" />
        <circle
           cx="-306.01999"
           cy="-333.07001"
           r="0"
           id="circle309" />
        <circle
           cx="-308.84"
           cy="-326.01001"
           r="0"
           id="circle311" />
      </g>
      <g
         transform="translate(-22.381,0.45407)"
         id="g323">
        <circle
           cx="-330.35001"
           cy="-328.38"
           r="0"
           id="circle315" />
        <circle
           cx="-312.10999"
           cy="-326.25"
           r="0"
           id="circle317" />
        <circle
           cx="-306.01999"
           cy="-333.07001"
           r="0"
           id="circle319" />
        <circle
           cx="-308.84"
           cy="-326.01001"
           r="0"
           id="circle321" />
      </g>
      <g
         transform="translate(53.379,8.9588)"
         id="g339">
        <g
           transform="translate(-21.833,0.89722)"
           id="g333">
          <circle
             cx="-330.35001"
             cy="-328.38"
             r="0"
             id="circle325" />
          <circle
             cx="-312.10999"
             cy="-326.25"
             r="0"
             id="circle327" />
          <circle
             cx="-306.01999"
             cy="-333.07001"
             r="0"
             id="circle329" />
          <circle
             cx="-308.84"
             cy="-326.01001"
             r="0"
             id="circle331" />
        </g>
        <circle
           cx="-284.23001"
           cy="-330.42001"
           r="0"
           id="circle335" />
        <circle
           cx="6.6785998"
           cy="4.3997998"
           r="0"
           fill-rule="evenodd"
           id="circle337" />
      </g>
    </g>
  </g>
  <g
     transform="matrix(1.3333,0,0,-1.3333,783.92601,948.85)"
     id="g351">
    <g
       clip-path="url(#clipPath13429)"
       id="g349">
      <g
         transform="translate(448,326)"
         id="g347">
        <path
           d="M 0,0 C 3.866,0 7,3.134 7,7 7,10.866 3.866,14 0,14 -3.866,14 -7,10.866 -7,7 -7,3.134 -3.866,0 0,0"
           fill="#ffffff"
           fill-rule="evenodd"
           id="path345" />
      </g>
    </g>
  </g>
  <g
     transform="matrix(1.3333,0,0,-1.3333,783.92601,948.85)"
     id="g359">
    <g
       clip-path="url(#clipPath13465)"
       id="g357">
      <g
         transform="translate(474,326)"
         id="g355">
        <path
           d="M 0,0 C 3.866,0 7,3.134 7,7 7,10.866 3.866,14 0,14 -3.866,14 -7,10.866 -7,7 -7,3.134 -3.866,0 0,0"
           fill="#ffffff"
           fill-rule="evenodd"
           id="path353" />
      </g>
    </g>
  </g>
  <g
     transform="matrix(1.3333,0,0,-1.3333,783.92601,948.85)"
     id="g367">
    <g
       clip-path="url(#clipPath13501)"
       id="g365">
      <g
         transform="translate(497,326)"
         id="g363">
        <path
           d="M 0,0 C 3.866,0 7,3.134 7,7 7,10.866 3.866,14 0,14 -3.866,14 -7,10.866 -7,7 -7,3.134 -3.866,0 0,0"
           fill="#ffffff"
           fill-rule="evenodd"
           id="path361" />
      </g>
    </g>
  </g>
  <g
     transform="matrix(1.3333,0,0,-1.3333,783.92601,948.85)"
     id="g373">
    <g
       clip-path="url(#clipPath13753)"
       id="g371">
      <path
         d="m 593,1073 h 36 v -18 h -36 z m 18,-11 c 6.075,0 11,0.895 11,2 0,1.105 -4.925,2 -11,2 -6.075,0 -11,-0.895 -11,-2 0,-1.105 4.925,-2 11,-2"
         fill="#ffffff"
         fill-rule="evenodd"
         id="path369" />
    </g>
  </g>
  <g
     transform="matrix(1.3333,0,0,-1.3333,783.92601,948.85)"
     id="g381">
    <g
       clip-path="url(#clipPath13771)"
       id="g379">
      <g
         transform="translate(583.42,1063)"
         id="g377">
        <path
           d="M 0,0 C 0,0 21.582,23.182 21.582,35.147 21.582,47.195 11.898,57 0,57 c -11.816,0 -21.418,-9.805 -21.418,-21.853 0,-8.06 9.766,-21.188 16.002,-28.832 z m 0,42.542 c 3.938,0 7.14,-3.323 7.14,-7.395 0,-3.822 -3.202,-7.146 -7.14,-7.146 -3.856,0 -7.222,3.324 -7.222,7.146 0,4.072 3.366,7.395 7.222,7.395"
           fill="#ffffff"
           id="path375" />
      </g>
    </g>
  </g>
  <g
     transform="matrix(1.3333,0,0,-1.3333,783.92601,948.85)"
     id="g389">
    <g
       clip-path="url(#clipPath14035)"
       id="g387">
      <g
         transform="translate(562,535)"
         id="g385">
        <path
           d="m 0,0 h 35 c 2.762,0 5,-2.238 5,-5 0,-2.762 -2.238,-5 -5,-5 H 0 c -2.762,0 -5,2.238 -5,5 0,2.762 2.238,5 5,5"
           fill="#ffffff"
           fill-rule="evenodd"
           id="path383" />
      </g>
    </g>
  </g>
  <g
     transform="matrix(1.3333,0,0,-1.3333,783.92601,948.85)"
     id="g397">
    <g
       clip-path="url(#clipPath14127)"
       id="g395">
      <g
         transform="translate(562,518)"
         id="g393">
        <path
           d="m 0,0 h 35 c 2.762,0 5,-2.238 5,-5 0,-2.762 -2.238,-5 -5,-5 H 0 c -2.762,0 -5,2.238 -5,5 0,2.762 2.238,5 5,5"
           fill="#ffffff"
           fill-rule="evenodd"
           id="path391" />
      </g>
    </g>
  </g>
  <g
     transform="matrix(1.3333,0,0,-1.3333,783.92601,948.85)"
     id="g405">
    <g
       clip-path="url(#clipPath14445)"
       id="g403">
      <g
         transform="translate(536.43,133.83)"
         id="g401">
        <path
           d="M 0,0 C -10.01,-12.916 -22.288,-9.047 -24.23,-8.072 -29.077,-6.779 -30.694,1.943 -24.556,4.846 -14.538,8.072 -5.496,4.521 0.968,1.293 0.324,0.326 0,0 0,0 m 10.667,3.553 c 4.521,8.072 6.139,15.826 6.139,15.826 H 1.617 v 5.812 h 17.767 v 2.26 H 1.617 v 8.723 h -8.074 v -8.723 h -16.156 v -2.584 h 16.156 v -5.812 h -13.57 V 16.47 H 7.756 c 0,-0.325 0,-0.325 -0.324,-0.968 0,-2.909 -1.936,-6.779 -3.554,-10.014 -20.677,8.079 -26.491,3.235 -28.108,2.584 -13.564,-9.689 -0.968,-21.963 1.293,-21.638 14.538,-3.227 23.905,2.91 30.369,10.657 0.324,-0.325 0.967,-0.325 1.292,-0.325 4.528,-2.578 25.848,-12.592 25.848,-12.592 V -3.552 C 30.694,-3.227 19.066,0.643 10.667,3.553"
           fill="#ffffff"
           id="path399" />
      </g>
    </g>
  </g>
  <g
     transform="matrix(1.3333,0,0,-1.3333,783.92601,948.85)"
     id="g413">
    <g
       clip-path="url(#clipPath14609)"
       id="g411">
      <g
         transform="translate(720.03,1091.5)"
         id="g409">
        <path
           d="m 0,0 c -0.149,0.354 -0.224,0.837 -0.224,1.451 0,0.372 0.103,0.828 0.306,1.368 0.205,0.539 0.428,0.958 0.671,1.256 -0.019,0.409 0.051,0.902 0.209,1.478 0.159,0.576 0.368,0.976 0.629,1.2 0,2.586 0.86,5.269 2.581,8.05 1.722,2.782 3.744,4.73 6.07,5.846 2.585,1.228 5.6,1.842 9.041,1.842 2.475,0 4.949,-0.511 7.423,-1.534 0.912,-0.391 1.749,-0.837 2.512,-1.34 0.762,-0.502 1.423,-1.022 1.981,-1.562 0.559,-0.54 1.07,-1.172 1.534,-1.897 0.465,-0.725 0.856,-1.413 1.172,-2.064 0.318,-0.651 0.619,-1.437 0.908,-2.358 0.287,-0.921 0.524,-1.753 0.71,-2.497 0.186,-0.744 0.391,-1.655 0.614,-2.734 l 0.028,-0.14 C 37.188,4.822 37.7,3.426 37.7,2.179 37.7,1.919 37.616,1.547 37.448,1.064 37.28,0.58 37.196,0.227 37.196,0.003 c 0,-0.019 0.015,-0.052 0.043,-0.099 0.028,-0.047 0.061,-0.093 0.098,-0.139 0.038,-0.046 0.057,-0.077 0.057,-0.098 1.432,-2.121 2.553,-4.116 3.363,-5.985 0.809,-1.869 1.214,-3.808 1.214,-5.817 0,-0.8 -0.182,-1.73 -0.544,-2.791 -0.363,-1.06 -0.879,-1.59 -1.549,-1.59 -0.167,0 -0.349,0.069 -0.544,0.209 -0.194,0.14 -0.371,0.303 -0.529,0.489 -0.159,0.186 -0.335,0.428 -0.53,0.725 -0.195,0.297 -0.344,0.543 -0.447,0.739 -0.103,0.196 -0.228,0.438 -0.377,0.725 -0.147,0.288 -0.231,0.451 -0.251,0.489 -0.019,0.019 -0.047,0.028 -0.085,0.028 l -0.138,-0.111 c -1.099,-2.864 -2.327,-4.938 -3.684,-6.222 0.372,-0.372 0.944,-0.73 1.716,-1.075 0.772,-0.345 1.414,-0.73 1.925,-1.158 0.511,-0.426 0.841,-1.031 0.991,-1.814 -0.037,-0.074 -0.074,-0.223 -0.112,-0.447 -0.036,-0.224 -0.101,-0.391 -0.195,-0.501 -1.19,-1.804 -4,-2.706 -8.427,-2.706 -0.986,0 -2.013,0.084 -3.084,0.251 -1.069,0.168 -1.981,0.354 -2.734,0.558 -0.753,0.204 -1.726,0.483 -2.916,0.837 -0.279,0.093 -0.493,0.158 -0.643,0.196 -0.259,0.075 -0.687,0.115 -1.282,0.125 -0.595,0.009 -0.967,0.023 -1.116,0.042 -0.763,-0.838 -1.949,-1.442 -3.559,-1.814 -1.609,-0.372 -3.176,-0.558 -4.702,-0.558 -0.65,0 -1.293,0.014 -1.925,0.042 -0.632,0.028 -1.498,0.113 -2.595,0.252 -1.098,0.139 -2.038,0.33 -2.82,0.572 -0.781,0.241 -1.473,0.613 -2.078,1.115 -0.604,0.502 -0.906,1.098 -0.906,1.786 0,0.744 0.093,1.298 0.279,1.661 0.187,0.364 0.569,0.815 1.144,1.353 0.205,0.038 0.581,0.159 1.131,0.363 0.549,0.204 1.009,0.316 1.381,0.334 0.074,0 0.204,0.019 0.39,0.057 0.038,0.037 0.057,0.074 0.057,0.111 l -0.057,0.084 c -0.892,0.204 -1.897,1.185 -3.014,2.944 -1.117,1.758 -1.796,3.214 -2.038,4.367 l -0.139,0.084 c -0.074,0 -0.186,-0.185 -0.334,-0.557 -0.335,-0.763 -0.842,-1.455 -1.521,-2.079 -0.679,-0.622 -1.4,-0.971 -2.163,-1.046 h -0.028 c -0.073,0 -0.129,0.041 -0.167,0.125 -0.037,0.083 -0.084,0.134 -0.139,0.153 -0.428,1.004 -0.642,1.934 -0.642,2.79 0,5.116 2.343,9.45 7.032,13.002 z"
           fill="#ffffff"
           id="path407" />
      </g>
    </g>
  </g>
  <g
     transform="matrix(1.3333,0,0,-1.3333,783.92601,948.85)"
     id="g421">
    <g
       clip-path="url(#clipPath15305)"
       id="g419">
      <g
         transform="translate(655,300)"
         id="g417">
        <path
           d="M 0,0 C 16.568,0 30,13.432 30,30 30,46.568 16.568,60 0,60 -16.568,60 -30,46.568 -30,30 -30,13.432 -16.568,0 0,0 Z"
           fill="none"
           stroke="#ffffff"
           stroke-miterlimit="10"
           stroke-width="8"
           id="path415" />
      </g>
    </g>
  </g>
  <g
     transform="matrix(1.3333,0,0,-1.3333,783.92601,948.85)"
     id="g429">
    <g
       clip-path="url(#clipPath15341)"
       id="g427">
      <g
         transform="translate(66.849,1083.1)"
         id="g425">
        <path
           d="m 0,0 c 0,5.302 -3.661,9.749 -8.591,10.948 -0.209,8.314 -7.006,14.991 -15.366,14.991 -4.897,0 -9.254,-2.293 -12.07,-5.861 -1.579,2.041 -4.05,3.358 -6.828,3.358 -4.769,0 -8.633,-3.868 -8.633,-8.639 0,-0.416 0.031,-0.825 0.089,-1.224 -0.726,0.13 -1.47,0.203 -2.232,0.203 -6.913,0 -12.515,-5.607 -12.515,-12.524 0,-6.916 5.602,-12.523 12.515,-12.523 h 42.394 c 6.21,0.013 11.241,5.053 11.241,11.269 z"
           fill="#ffffff"
           id="path423" />
      </g>
    </g>
  </g>
  <g
     transform="matrix(1.3333,0,0,-1.3333,783.92601,948.85)"
     id="g437">
    <g
       clip-path="url(#clipPath15715)"
       id="g435">
      <g
         transform="translate(65.5,681)"
         id="g433">
        <path
           d="M 0,0 C 9.113,0 16.5,7.387 16.5,16.5 16.5,25.613 9.113,33 0,33 -9.113,33 -16.5,25.613 -16.5,16.5 -16.5,7.387 -9.113,0 0,0 Z"
           fill="none"
           stroke="#ffffff"
           stroke-miterlimit="10"
           stroke-width="4"
           id="path431" />
      </g>
    </g>
  </g>
  <g
     transform="matrix(1.3333,0,0,-1.3333,783.92601,948.85)"
     id="g445">
    <g
       clip-path="url(#clipPath15807)"
       id="g443">
      <g
         transform="translate(77.5,711)"
         id="g441">
        <path
           d="M 0,0 C 7.456,0 13.5,6.044 13.5,13.5 13.5,20.956 7.456,27 0,27 -7.456,27 -13.5,20.956 -13.5,13.5 -13.5,6.044 -7.456,0 0,0 Z"
           fill="none"
           stroke="#ffffff"
           stroke-miterlimit="10"
           stroke-width="4"
           id="path439" />
      </g>
    </g>
  </g>
  <g
     transform="matrix(1.3333,0,0,-1.3333,783.92601,948.85)"
     id="g453">
    <g
       clip-path="url(#clipPath16001)"
       id="g451">
      <g
         transform="translate(455.91,931.53)"
         id="g449">
        <path
           d="m 0,0 c -0.742,-1.039 -4.75,-2.821 -8.165,-3.563 -4.305,-0.891 -6.531,-1.633 -8.758,-2.82 -2.969,-1.782 -4.601,-4.009 -4.305,-6.087 0.149,-0.445 3.711,-5.64 7.868,-11.578 4.304,-5.938 7.868,-10.985 8.016,-11.134 0.149,-0.297 -0.445,-0.297 -2.524,-0.148 -6.531,0.445 -12.469,-2.969 -15.142,-8.314 -0.742,-1.632 -0.89,-2.523 -0.89,-4.453 0,-4.453 2.376,-8.016 6.829,-10.094 1.781,-0.742 2.375,-0.891 6.086,-0.891 4.007,0 4.156,0 6.829,1.336 7.125,3.414 10.093,10.095 7.125,16.181 -0.594,1.336 -4.305,7.719 -8.313,14.251 l -7.274,12.024 h 1.187 c 4.75,0.297 8.017,1.781 10.244,4.305 1.929,2.227 2.523,4.453 2.374,8.016 C 1.039,0.297 0.742,1.039 0,0"
           fill="#ffffff"
           id="path447" />
      </g>
    </g>
  </g>
  <g
     transform="matrix(1.3333,0,0,-1.3333,783.92601,948.85)"
     id="g461">
    <g
       clip-path="url(#clipPath16093)"
       id="g459">
      <g
         transform="translate(784,902.31)"
         id="g457">
        <path
           d="m 0,0 c 0,-1.565 -0.904,-2.931 -2.251,-3.674 l -27.781,-18.472 c -0.012,-0.008 -0.026,-0.014 -0.037,-0.02 l -0.017,-0.011 c -0.684,-0.376 -1.48,-0.592 -2.331,-0.592 -2.53,0 -4.583,1.913 -4.583,4.269 v 37 c 0,2.356 2.053,4.27 4.583,4.27 0.851,0 1.647,-0.217 2.331,-0.596 l 0.017,-0.008 c 0.011,-0.009 0.022,-0.014 0.037,-0.02 L -2.251,3.675 C -0.904,2.932 0,1.565 0,0"
           fill="#ffffff"
           id="path455" />
      </g>
    </g>
  </g>
  <g
     transform="matrix(1.3333,0,0,-1.3333,783.92601,948.85)"
     id="g469">
    <g
       clip-path="url(#clipPath16477)"
       id="g467">
      <g
         transform="translate(223.75,708.35)"
         id="g465">
        <path
           d="m 0,0 c -15.123,0 -27.418,12.329 -27.418,27.486 0,1.382 1.111,2.505 2.487,2.505 1.379,0 2.499,-1.123 2.499,-2.505 0,-12.4 10.06,-22.487 22.432,-22.487 12.375,0 22.443,10.087 22.443,22.487 0,1.382 1.112,2.505 2.488,2.505 1.378,0 2.499,-1.123 2.499,-2.505 C 27.43,12.329 15.126,0 0,0"
           fill="#ffffff"
           fill-rule="evenodd"
           id="path463" />
      </g>
    </g>
  </g>
  <g
     transform="matrix(1.3333,0,0,-1.3333,783.92601,948.85)"
     id="g477">
    <g
       clip-path="url(#clipPath16579)"
       id="g475">
      <g
         transform="translate(390.75,139.35)"
         id="g473">
        <path
           d="m 0,0 c -15.123,0 -27.418,12.329 -27.418,27.485 0,1.383 1.111,2.506 2.487,2.506 1.379,0 2.499,-1.123 2.499,-2.506 0,-12.398 10.06,-22.486 22.432,-22.486 12.375,0 22.443,10.088 22.443,22.486 0,1.383 1.112,2.506 2.488,2.506 1.378,0 2.499,-1.123 2.499,-2.506 C 27.43,12.329 15.126,0 0,0"
           fill="#ffffff"
           fill-rule="evenodd"
           id="path471" />
      </g>
    </g>
  </g>
  <g
     transform="matrix(1.3333,0,0,-1.3333,783.92601,948.85)"
     id="g485">
    <g
       clip-path="url(#clipPath16709)"
       id="g483">
      <g
         transform="translate(423.93,686.39)"
         id="g481">
        <path
           d="m 0,0 c 0.245,-0.286 0.605,-0.456 0.986,-0.456 0.382,0 0.743,0.17 0.988,0.456 L 19.49,20.497 c 0.333,0.388 0.408,0.933 0.191,1.388 -0.211,0.463 -0.674,0.756 -1.184,0.756 h -9.93 c -2.118,4.172 -3.109,8.382 -2.973,12.63 0.135,4.248 1.954,12.361 5.455,24.34 C 0.093,53.021 -6.607,41.171 -6.607,28.386 v -5.745 h -9.93 c -0.51,0 -0.966,-0.293 -1.184,-0.756 -0.211,-0.462 -0.135,-1 0.191,-1.388 z"
           fill="#ffffff"
           id="path479" />
      </g>
    </g>
  </g>
  <g
     transform="matrix(1.3333,0,0,-1.3333,650.99601,1104.5)"
     id="g493">
    <g
       clip-path="url(#clipPath24218)"
       id="g491">
      <g
         transform="translate(9.1685,1040.9)"
         id="g489">
        <path
           d="M 0,0 25.314,21.067 -0.763,39.718 c 5.846,7.671 15.079,12.622 25.468,12.622 17.673,0 32,-14.327 32,-32 0,-17.673 -14.327,-32 -32,-32 C 14.757,-11.66 5.869,-7.121 0,0 m 27.349,31.812 c 2.835,0 5.132,2.297 5.132,5.132 0,2.834 -2.297,5.132 -5.132,5.132 -2.834,0 -5.132,-2.298 -5.132,-5.132 0,-2.835 2.298,-5.132 5.132,-5.132"
           fill="#ffffff"
           fill-rule="evenodd"
           id="path487" />
      </g>
    </g>
  </g>
  <g
     transform="matrix(1.3333,0,0,-1.3333,650.99601,1104.5)"
     id="g501">
    <g
       clip-path="url(#clipPath24382)"
       id="g499">
      <g
         transform="translate(194.25,1130.3)"
         id="g497">
        <path
           d="M 0,0 C 20.173,-11.579 43.841,2 51.309,14.862 58.776,27.723 56.341,46 40.841,52.5 25.341,59 -4.646,59.111 -13.659,43.5 -22.672,27.889 -20.174,11.578 0,0"
           fill="#ffffff"
           fill-rule="evenodd"
           id="path495" />
      </g>
    </g>
  </g>
  <g
     transform="matrix(1.3333,0,0,-1.3333,650.99601,1104.5)"
     id="g509">
    <g
       clip-path="url(#clipPath24650)"
       id="g507">
      <g
         transform="translate(473.86,1057.5)"
         id="g505">
        <path
           d="M 0,0 C 1.657,0 3,1.501 3,3.353 3,5.205 1.657,6.706 0,6.706 -1.656,6.706 -3,5.205 -3,3.353 -3,1.501 -1.656,0 0,0"
           fill="#ffffff"
           fill-rule="evenodd"
           id="path503" />
      </g>
    </g>
  </g>
  <g
     transform="matrix(1.3333,0,0,-1.3333,650.99601,1104.5)"
     id="g517">
    <g
       clip-path="url(#clipPath24700)"
       id="g515">
      <g
         transform="translate(493,1069.8)"
         id="g513">
        <path
           d="M 0,0 C 1.657,0 3,1.501 3,3.353 3,5.205 1.657,6.706 0,6.706 -1.657,6.706 -3,5.205 -3,3.353 -3,1.501 -1.657,0 0,0"
           fill="#ffffff"
           fill-rule="evenodd"
           id="path511" />
      </g>
    </g>
  </g>
  <g
     transform="matrix(1.3333,0,0,-1.3333,650.99601,1104.5)"
     id="g525">
    <g
       clip-path="url(#clipPath24750)"
       id="g523">
      <g
         transform="translate(510,1048.8)"
         id="g521">
        <path
           d="M 0,0 C 1.657,0 3,1.501 3,3.353 3,5.205 1.657,6.706 0,6.706 -1.657,6.706 -3,5.205 -3,3.353 -3,1.501 -1.657,0 0,0"
           fill="#ffffff"
           fill-rule="evenodd"
           id="path519" />
      </g>
    </g>
  </g>
  <g
     transform="matrix(1.3333,0,0,-1.3333,650.99601,1104.5)"
     id="g533">
    <g
       clip-path="url(#clipPath24864)"
       id="g531">
      <g
         transform="translate(806.5,1072.2)"
         id="g529">
        <path
           d="M 0,0 C -3.667,-14 -9.5,-21.833 -17.5,-23.5"
           fill="none"
           stroke="#ffffff"
           stroke-linecap="round"
           stroke-miterlimit="10"
           id="path527" />
      </g>
    </g>
  </g>
  <g
     transform="matrix(1.3333,0,0,-1.3333,650.99601,1104.5)"
     id="g541">
    <g
       clip-path="url(#clipPath24896)"
       id="g539">
      <g
         transform="translate(802,1066.2)"
         id="g537">
        <path
           d="m 0,0 c -4.971,0 -9,4.029 -9,9 0,4.971 4.029,9 9,9 C 4.971,18 9,13.971 9,9 9,4.029 4.971,0 0,0 m 0,6 c 1.657,0 3,1.343 3,3 0,1.657 -1.343,3 -3,3 -1.657,0 -3,-1.343 -3,-3 0,-1.657 1.343,-3 3,-3"
           fill="#ffffff"
           fill-rule="evenodd"
           id="path535" />
      </g>
    </g>
  </g>
  <g
     transform="matrix(1.3333,0,0,-1.3333,650.99601,1104.5)"
     id="g549">
    <g
       clip-path="url(#clipPath25070)"
       id="g547">
      <g
         transform="translate(122,495.24)"
         id="g545">
        <path
           d="M 0,0 H 3 C 3.553,0 4,-0.447 4,-1 V -3 C 4,-3.553 3.553,-4 3,-4 H 0 c -0.553,0 -1,0.447 -1,1 v 2 c 0,0.553 0.447,1 1,1"
           fill="#ffffff"
           fill-rule="evenodd"
           id="path543" />
      </g>
    </g>
  </g>
  <g
     transform="matrix(1.3333,0,0,-1.3333,650.99601,1104.5)"
     id="g557">
    <g
       clip-path="url(#clipPath25100)"
       id="g555">
      <g
         transform="translate(204,495.24)"
         id="g553">
        <path
           d="M 0,0 H 3 C 3.553,0 4,-0.447 4,-1 V -3 C 4,-3.553 3.553,-4 3,-4 H 0 c -0.553,0 -1,0.447 -1,1 v 2 c 0,0.553 0.447,1 1,1"
           fill="#ffffff"
           fill-rule="evenodd"
           id="path551" />
      </g>
    </g>
  </g>
  <g
     transform="matrix(1.3333,0,0,-1.3333,650.99601,1104.5)"
     id="g565">
    <g
       clip-path="url(#clipPath25502)"
       id="g563">
      <g
         transform="translate(805,482.24)"
         id="g561">
        <path
           d="M 0,0 C 4.418,0 8,3.582 8,8 8,12.418 4.418,16 0,16 -4.418,16 -8,12.418 -8,8 -8,3.582 -4.418,0 0,0"
           fill="#ffffff"
           fill-rule="evenodd"
           id="path559" />
      </g>
    </g>
  </g>
  <g
     transform="matrix(1.3333,0,0,-1.3333,650.99601,1104.5)"
     id="g573">
    <g
       clip-path="url(#clipPath25686)"
       id="g571">
      <g
         transform="translate(658,1075.7)"
         id="g569">
        <path
           d="M 0,0 C 0,-4.694 3.806,-8.5 8.5,-8.5 13.194,-8.5 17,-4.694 17,0 17,4.694 13.194,8.5 8.5,8.5 3.806,8.5 0,4.694 0,0"
           fill="#ffffff"
           id="path567" />
      </g>
    </g>
  </g>
  <g
     transform="matrix(1.3333,0,0,-1.3333,650.99601,1104.5)"
     id="g579">
    <g
       clip-path="url(#clipPath25788)"
       id="g577">
      <path
         d="m 465.44,1082.2 h 85.864 v -75.319 H 465.44 Z m 64.45,-25.106 c -0.483,0.765 -1.453,0.947 -2.178,0.431 l -15.504,-11.01 c -0.359,-0.255 -0.847,-0.153 -1.071,0.238 l -18.271,31.869 c -0.438,0.771 -1.139,0.776 -1.549,-0.016 l -1.807,-3.514 -21.07,-47.452 c 13.336,-18.44 48.336,-26.94 73.836,-3.44 0.841,0 6.477,6.246 6,7 z"
         fill="#ffffff"
         fill-rule="evenodd"
         id="path575" />
    </g>
  </g>
  <g
     transform="matrix(1.3333,0,0,-1.3333,650.99601,1104.5)"
     id="g587">
    <g
       clip-path="url(#clipPath26420)"
       id="g585">
      <g
         transform="translate(-23,837.24)"
         id="g583">
        <path
           d="M 0,0 C 18.778,0 34,15.222 34,34 34,52.778 18.778,68 0,68 -18.778,68 -34,52.778 -34,34 -34,15.222 -18.778,0 0,0 Z"
           fill="none"
           stroke="#ffffff"
           stroke-miterlimit="10"
           stroke-width="8"
           id="path581" />
      </g>
    </g>
  </g>
  <g
     transform="matrix(1.3333,0,0,-1.3333,650.99601,1104.5)"
     id="g593">
    <g
       clip-path="url(#clipPath26860)"
       id="g591">
      <path
         d="m 644,721.24 h 82 v -82 h -82 z m 41,-81 c 22.092,0 40,17.908 40,40 0,22.092 -17.908,40 -40,40 -22.092,0 -40,-17.908 -40,-40 0,-22.092 17.908,-40 40,-40"
         fill="#ffffff"
         fill-rule="evenodd"
         id="path589" />
    </g>
  </g>
  <g
     transform="matrix(1.3333,0,0,-1.3333,650.99601,1104.5)"
     id="g601">
    <g
       clip-path="url(#clipPath27506)"
       id="g599">
      <g
         transform="translate(613.88,476.03)"
         id="g597">
        <path
           d="m 0,0 c 0.187,-0.771 0.148,-1.502 -0.116,-2.193 -0.266,-0.692 -0.678,-1.303 -1.239,-1.833 -0.561,-0.531 -1.247,-0.949 -2.057,-1.255 -0.81,-0.305 -1.683,-0.457 -2.617,-0.457 -5.889,-0.033 -11.156,-0.049 -15.798,-0.049 h -15.891 c -1.122,0 -2.111,0.209 -2.968,0.627 -0.857,0.418 -1.543,0.932 -2.056,1.543 -0.515,0.611 -0.858,1.279 -1.029,2.002 -0.171,0.723 -0.148,1.375 0.071,1.953 0.186,0.451 0.373,0.917 0.56,1.398 0.157,0.418 0.343,0.893 0.561,1.424 0.219,0.53 0.452,1.069 0.701,1.615 l 1.776,4.438 h 5.329 l -2.01,-6.077 h 30.099 l -2.009,6.077 h 5.094 C -2.944,7.573 -2.353,6.094 -1.822,4.775 -1.604,4.197 -1.387,3.635 -1.168,3.088 -0.95,2.541 -0.756,2.051 -0.584,1.616 -0.413,1.183 -0.272,0.812 -0.163,0.507 -0.055,0.201 0,0.033 0,0 m -22.922,9.236 c -0.601,0.698 -1.289,1.571 -2.064,2.618 -0.776,1.046 -1.575,2.125 -2.398,3.235 -0.822,1.11 -1.637,2.204 -2.443,3.283 -0.808,1.079 -1.527,2.015 -2.16,2.808 -0.728,0.856 -1.013,1.562 -0.855,2.117 0.158,0.555 0.696,0.832 1.614,0.832 0.506,-0.031 1.187,-0.024 2.041,0.024 0.855,0.048 1.567,0.072 2.136,0.072 0.633,0 1.029,0.19 1.187,0.57 0.158,0.381 0.237,0.889 0.237,1.523 0,0.698 -0.008,1.467 -0.024,2.308 -0.016,0.841 -0.024,1.705 -0.024,2.593 0,0.888 -0.008,1.76 -0.023,2.617 -0.016,0.856 -0.024,1.65 -0.024,2.379 0,0.318 0.024,0.65 0.071,1 0.047,0.348 0.158,0.666 0.333,0.951 0.173,0.285 0.426,0.523 0.758,0.714 0.332,0.19 0.784,0.285 1.353,0.285 0.665,0 1.274,0.009 1.827,0.024 0.555,0.016 1.195,0.024 1.923,0.024 1.044,0 1.748,-0.246 2.112,-0.737 0.364,-0.492 0.562,-1.277 0.593,-2.356 v -1.855 c 0,-0.73 0.008,-1.507 0.023,-2.331 0.017,-0.826 0.025,-1.651 0.025,-2.475 v -2.236 c 0,-0.92 0.095,-1.659 0.284,-2.213 0.191,-0.555 0.617,-0.817 1.282,-0.785 0.475,0 1.052,-0.016 1.732,-0.047 0.68,-0.032 1.274,-0.049 1.78,-0.049 0.855,0 1.4,-0.23 1.638,-0.69 0.237,-0.46 0.071,-1.054 -0.498,-1.784 -0.602,-0.76 -1.298,-1.68 -2.089,-2.759 -0.791,-1.08 -1.606,-2.197 -2.445,-3.355 -0.838,-1.158 -1.661,-2.284 -2.467,-3.379 -0.807,-1.094 -1.528,-2.037 -2.16,-2.83 -0.57,-0.73 -1.116,-1.103 -1.637,-1.119 -0.523,-0.016 -1.069,0.326 -1.638,1.023"
           fill="#ffffff"
           id="path595" />
      </g>
    </g>
  </g>
  <g
     transform="matrix(1.3333,0,0,-1.3333,650.99601,1104.5)"
     id="g609">
    <g
       clip-path="url(#clipPath27772)"
       id="g607">
      <g
         transform="translate(588.67,331.24)"
         id="g605">
        <path
           d="m 0,0 h -49.301 c -2.41,0 -4.367,-1.941 -4.367,-4.299 v -49.402 c 0,-2.393 1.957,-4.299 4.367,-4.299 H 0 c 2.41,0 4.332,1.941 4.332,4.299 V -4.334 C 4.332,-1.941 2.375,0 0,0 m -33.403,-53.008 h -8.839 v 6.795 h 8.839 z m -8.91,24.58 h 8.84 v -6.795 h -8.84 z m 8.945,-15.566 h -8.84 v 6.795 h 8.84 z m 12.998,-9.014 h -8.84 v 6.795 h 8.84 z m -8.91,24.58 h 8.84 v -6.795 h -8.84 z m 8.944,-15.566 h -8.839 v 6.795 h 8.839 z m 13.277,-9.014 h -8.84 v 6.795 h 8.84 z m -8.909,24.58 h 8.84 v -6.795 h -8.84 z m 8.945,-15.566 h -8.84 v 6.795 h 8.84 z m 5.276,24.441 c 0,-2.392 -1.957,-4.299 -4.368,-4.299 h -37.77 c -2.411,-0.035 -4.367,1.907 -4.367,4.299 v 10.054 c 0,2.392 1.956,4.333 4.332,4.333 h 37.805 c 2.411,0 4.368,-1.941 4.368,-4.333 z"
           fill="#ffffff"
           id="path603" />
      </g>
    </g>
  </g>
  <g
     transform="matrix(1.3333,0,0,-1.3333,650.99601,1104.5)"
     id="g617">
    <g
       clip-path="url(#clipPath27864)"
       id="g615">
      <g
         transform="translate(609.3,312.46)"
         id="g613">
        <path
           d="m 0,0 h -0.72 c -0.206,0 -0.377,0 -0.514,-0.212 -0.103,-0.142 -0.103,-0.283 -0.103,-0.46 v -0.566 c 0,-0.178 0,-0.319 0.103,-0.461 0.137,-0.212 0.308,-0.212 0.514,-0.212 H 0 c 0.205,0 0.376,0 0.514,0.212 0.102,0.142 0.102,0.283 0.102,0.461 v 0.566 c 0,0.213 0,0.318 -0.102,0.46 C 0.376,0 0.239,0 0,0 M -5.003,4.779 H -7.95 c -0.548,0 -0.993,-0.46 -0.993,-1.026 V 1.346 h 0.993 v 2.407 h 2.947 V 1.346 h 0.993 v 2.407 c 0,0.566 -0.445,1.026 -0.993,1.026 m 0,-6.973 H -7.95 v 2.407 h -0.993 v -2.407 c 0,-0.567 0.411,-1.027 0.993,-1.027 h 2.947 c 0.582,0 0.993,0.46 0.993,1.027 v 2.407 h -0.993 z m -14.357,0 h -2.947 V 0.39 h -0.994 v -2.584 c 0,-0.567 0.411,-1.027 0.994,-1.027 h 2.947 c 0.583,0 0.994,0.46 0.994,1.027 V 0.39 h -0.994 z m 0,6.973 h -2.947 c -0.548,0 -0.994,-0.46 -0.994,-1.026 V 1.522 h 0.994 v 2.231 h 2.947 V 1.522 h 0.994 v 2.231 c 0,0.566 -0.446,1.026 -0.994,1.026 m 7.195,0 h -2.946 c -0.549,0 -0.994,-0.46 -0.994,-1.026 V 1.522 h 0.994 v 2.231 h 2.946 V 1.522 h 0.994 v 2.231 c 0,0.566 -0.445,1.026 -0.994,1.026 m 0,-6.973 h -2.946 V 0.39 h -0.994 v -2.584 c 0,-0.567 0.445,-1.027 0.994,-1.027 h 2.946 c 0.583,0 0.994,0.46 0.994,1.027 V 0.39 h -0.994 z M 6.51,4.779 H 3.563 C 3.015,4.779 2.569,4.319 2.569,3.753 V 1.169 H 3.563 V 3.753 H 6.51 V 1.169 h 0.994 v 2.584 c 0,0.566 -0.445,1.026 -0.994,1.026 m 0,-6.973 H 3.563 v 2.23 H 2.569 v -2.23 c 0,-0.567 0.446,-1.027 0.994,-1.027 H 6.51 c 0.583,0 0.994,0.46 0.994,1.027 v 2.23 H 6.51 Z m 7.195,0 h -2.946 v 2.053 H 9.765 v -2.053 c 0,-0.567 0.411,-1.027 0.994,-1.027 h 2.946 c 0.583,0 0.994,0.46 0.994,1.027 v 2.053 h -0.994 z m 0,6.973 h -2.946 c -0.548,0 -0.994,-0.46 -0.994,-1.026 V 0.992 h 0.994 v 2.761 h 2.946 V 0.992 h 0.994 v 2.761 c 0,0.566 -0.479,1.026 -0.994,1.026"
           fill="#ffffff"
           id="path611" />
      </g>
    </g>
  </g>
  <g
     transform="matrix(1.3333,0,0,-1.3333,650.99601,1104.5)"
     id="g625">
    <g
       clip-path="url(#clipPath28028)"
       id="g623">
      <g
         transform="translate(766.75,130.24)"
         id="g621">
        <path
           d="M 0,0 H -15.75 V 6.693 C -15.75,7.932 -16.763,9 -18.057,9 H -31.443 C -32.682,9 -33.75,7.987 -33.75,6.693 V 0 H -49.5 c -1.237,0 -2.25,-1.013 -2.25,-2.25 V -13.5 l 27,-4.5 27,4.5 V -2.25 C 2.25,-1.013 1.237,0 0,0 m -29.25,4.5 h 9 V 0 h -9 z m 9,-16.875 c 0,-0.619 -0.506,-1.125 -1.125,-1.125 h -6.75 c -0.619,0 -1.125,0.506 -1.125,1.125 v 2.25 c 0,0.619 0.506,1.125 1.125,1.125 h 6.75 c 0.619,0 1.125,-0.506 1.125,-1.125 z m -4.5,-7.875 27,4.5 v -27 C 2.25,-43.987 1.237,-45 0,-45 h -49.5 c -1.237,0 -2.25,1.013 -2.25,2.25 v 27 z"
           fill="#ffffff"
           id="path619" />
      </g>
    </g>
  </g>
  <g
     transform="matrix(1.3333,0,0,-1.3333,650.99601,1104.5)"
     id="g633">
    <g
       clip-path="url(#clipPath28200)"
       id="g631">
      <g
         transform="translate(392,82.24)"
         id="g629">
        <path
           d="M 0,0 -4.35,3.941 C -19.8,17.953 -30,27.2 -30,38.516 -30,47.762 -22.755,55 -13.5,55 -8.28,55 -3.27,52.572 0,48.75 3.27,52.572 8.28,55 13.5,55 22.755,55 30,47.762 30,38.516 30,27.2 19.8,17.953 4.35,3.941 Z"
           fill="#ffffff"
           id="path627" />
      </g>
    </g>
  </g>
  <g
     transform="matrix(1.3333,0,0,-1.3333,650.99601,1104.5)"
     id="g641">
    <g
       clip-path="url(#clipPath28364)"
       id="g639">
      <g
         transform="translate(542.77,113.24)"
         id="g637">
        <path
           d="m 0,0 c 0,2.621 0.885,4.8 2.689,6.604 1.804,1.804 3.983,2.689 6.604,2.689 2.622,0 4.801,-0.885 6.604,-2.689 1.805,-1.804 2.69,-3.983 2.69,-6.604 0,-2.621 -0.885,-4.834 -2.69,-6.639 -1.803,-1.803 -3.982,-2.689 -6.604,-2.689 -2.621,0 -4.809,0.877 -6.604,2.689 C 0.876,-4.809 0,-2.588 0,0 m -13.141,-6.06 c 0.545,-1.94 1.363,-3.846 2.35,-5.617 l -6.128,-7.523 6.944,-6.945 7.524,6.127 c 1.769,-0.986 3.71,-1.803 5.65,-2.382 L 4.221,-32 h 10.008 l 1.022,9.6 c 1.94,0.579 3.778,1.396 5.651,2.382 l 7.49,-6.127 7.012,6.945 -6.162,7.523 c 0.953,1.771 1.805,3.677 2.383,5.617 l 9.601,1.056 V 5.004 l -9.601,1.021 c -0.578,1.941 -1.43,3.745 -2.383,5.618 l 6.162,7.523 -7.012,7.013 -7.49,-6.161 c -1.907,0.953 -3.711,1.803 -5.651,2.382 L 14.229,32 H 4.221 L 3.199,22.4 c -2.008,-0.579 -3.88,-1.429 -5.65,-2.382 l -7.524,6.161 -6.944,-7.013 6.128,-7.523 C -11.744,9.77 -12.562,7.966 -13.141,6.025 L -22.774,5.004 V -5.004 Z"
           fill="#ffffff"
           id="path635" />
      </g>
    </g>
  </g>
  <g
     transform="matrix(1.3333,0,0,-1.3333,650.99601,1104.5)"
     id="g647">
    <g
       clip-path="url(#clipPath28984)"
       id="g645">
      <path
         d="m 473,698.24 h 13 v -13 h -13 z m 6.5,-12 c 3.037,0 5.5,2.463 5.5,5.5 0,3.038 -2.463,5.5 -5.5,5.5 -3.037,0 -5.5,-2.462 -5.5,-5.5 0,-3.037 2.463,-5.5 5.5,-5.5"
         fill="#ffffff"
         fill-rule="evenodd"
         id="path643" />
    </g>
  </g>
  <g
     transform="matrix(1.3333,0,0,-1.3333,650.99601,1104.5)"
     id="g653">
    <g
       clip-path="url(#clipPath29012)"
       id="g651">
      <path
         d="m 473,676.24 h 13 v -13 h -13 z m 6.5,-12 c 3.037,0 5.5,2.463 5.5,5.5 0,3.038 -2.463,5.5 -5.5,5.5 -3.037,0 -5.5,-2.462 -5.5,-5.5 0,-3.037 2.463,-5.5 5.5,-5.5"
         fill="#ffffff"
         fill-rule="evenodd"
         id="path649" />
    </g>
  </g>
  <g
     transform="matrix(1.3333,0,0,-1.3333,650.99601,1104.5)"
     id="g659">
    <g
       clip-path="url(#clipPath29040)"
       id="g657">
      <path
         d="m 467,687.24 h 13 v -13 h -13 z m 6.5,-12 c 3.037,0 5.5,2.463 5.5,5.5 0,3.038 -2.463,5.5 -5.5,5.5 -3.037,0 -5.5,-2.462 -5.5,-5.5 0,-3.037 2.463,-5.5 5.5,-5.5"
         fill="#ffffff"
         fill-rule="evenodd"
         id="path655" />
    </g>
  </g>
  <g
     transform="matrix(1.3333,0,0,-1.3333,650.99601,1104.5)"
     id="g665">
    <g
       clip-path="url(#clipPath29068)"
       id="g663">
      <path
         d="m 486,698.24 h 13 v -13 h -13 z m 6.5,-12 c 3.037,0 5.5,2.463 5.5,5.5 0,3.038 -2.463,5.5 -5.5,5.5 -3.037,0 -5.5,-2.462 -5.5,-5.5 0,-3.037 2.463,-5.5 5.5,-5.5"
         fill="#ffffff"
         fill-rule="evenodd"
         id="path661" />
    </g>
  </g>
  <g
     transform="matrix(1.3333,0,0,-1.3333,650.99601,1104.5)"
     id="g671">
    <g
       clip-path="url(#clipPath29096)"
       id="g669">
      <path
         d="m 486,676.24 h 13 v -13 h -13 z m 6.5,-12 c 3.037,0 5.5,2.463 5.5,5.5 0,3.038 -2.463,5.5 -5.5,5.5 -3.037,0 -5.5,-2.462 -5.5,-5.5 0,-3.037 2.463,-5.5 5.5,-5.5"
         fill="#ffffff"
         fill-rule="evenodd"
         id="path667" />
    </g>
  </g>
  <g
     transform="matrix(1.3333,0,0,-1.3333,650.99601,1104.5)"
     id="g677">
    <g
       clip-path="url(#clipPath29124)"
       id="g675">
      <path
         d="m 480,687.24 h 13 v -13 h -13 z m 6.5,-12 c 3.037,0 5.5,2.463 5.5,5.5 0,3.038 -2.463,5.5 -5.5,5.5 -3.037,0 -5.5,-2.462 -5.5,-5.5 0,-3.037 2.463,-5.5 5.5,-5.5"
         fill="#ffffff"
         fill-rule="evenodd"
         id="path673" />
    </g>
  </g>
  <g
     transform="matrix(1.3333,0,0,-1.3333,650.99601,1104.5)"
     id="g683">
    <g
       clip-path="url(#clipPath29152)"
       id="g681">
      <path
         d="m 493,687.24 h 13 v -13 h -13 z m 6.5,-12 c 3.037,0 5.5,2.463 5.5,5.5 0,3.038 -2.463,5.5 -5.5,5.5 -3.037,0 -5.5,-2.462 -5.5,-5.5 0,-3.037 2.463,-5.5 5.5,-5.5"
         fill="#ffffff"
         fill-rule="evenodd"
         id="path679" />
    </g>
  </g>
  <g
     transform="matrix(1.3333,0,0,-1.3333,650.99601,1104.5)"
     id="g689">
    <g
       clip-path="url(#clipPath29252)"
       id="g687">
      <path
         d="m 161,327.24 h 73 v -28 h -73 z m 14,-5 h 45 c 4.971,0 9,-4.029 9,-9 0,-4.97 -4.029,-9 -9,-9 h -45 c -4.971,0 -9,4.03 -9,9 0,4.971 4.029,9 9,9"
         fill="#ffffff"
         fill-rule="evenodd"
         id="path685" />
    </g>
  </g>
  <g
     transform="matrix(1.3333,0,0,-1.3333,650.99601,1104.5)"
     id="g695">
    <g
       clip-path="url(#clipPath29280)"
       id="g693">
      <path
         d="m 162,302.24 h 73 v -28 h -73 z m 14,-5 h 45 c 4.971,0 9,-4.029 9,-9 0,-4.97 -4.029,-9 -9,-9 h -45 c -4.971,0 -9,4.03 -9,9 0,4.971 4.029,9 9,9"
         fill="#ffffff"
         fill-rule="evenodd"
         id="path691" />
    </g>
  </g>
  <g
     transform="matrix(1.3333,0,0,-1.3333,650.99601,1104.5)"
     id="g703">
    <g
       clip-path="url(#clipPath29400)"
       id="g701">
      <g
         transform="translate(104.49,129.57)"
         id="g699">
        <path
           d="m 0,0 c -4.298,-0.338 -8.165,-0.637 -11.604,-0.898 -1.458,-0.113 -2.906,-0.225 -4.344,-0.336 -1.44,-0.114 -2.747,-0.207 -3.924,-0.282 -1.178,-0.074 -2.168,-0.149 -2.972,-0.224 -0.803,-0.074 -1.28,-0.113 -1.428,-0.113 -0.188,-0.037 -0.403,-0.065 -0.645,-0.084 -0.244,-0.018 -0.459,-0.065 -0.645,-0.139 l -0.673,-0.225 -2.467,1.121 c 0.187,0.263 0.412,0.506 0.674,0.731 0.185,0.186 0.42,0.364 0.7,0.533 0.28,0.168 0.569,0.27 0.868,0.309 0.225,0.037 0.822,0.093 1.795,0.168 0.971,0.074 2.167,0.168 3.588,0.28 0,0.486 0.047,1.15 0.14,1.992 0.092,0.841 0.317,1.674 0.672,2.497 0.356,0.822 0.869,1.553 1.541,2.188 0.673,0.636 1.589,1.009 2.747,1.123 1.346,0.111 2.439,-0.094 3.281,-0.618 0.84,-0.523 1.494,-1.169 1.961,-1.935 0.467,-0.768 0.795,-1.553 0.981,-2.358 0.187,-0.804 0.299,-1.43 0.337,-1.878 1.606,0.111 2.942,0.205 4.008,0.279 1.064,0.076 1.653,0.131 1.765,0.169 0.412,0.038 0.87,-0.038 1.373,-0.225 0.505,-0.186 0.907,-0.43 1.206,-0.729 C -0.99,1.271 -0.888,1.158 -0.757,1.01 -0.626,0.859 -0.505,0.71 -0.392,0.561 -0.243,0.41 -0.112,0.224 0,0 m -15.528,6.676 c -0.709,-0.074 -1.28,-0.326 -1.709,-0.757 -0.43,-0.431 -0.758,-0.944 -0.982,-1.543 -0.223,-0.599 -0.374,-1.206 -0.448,-1.823 -0.075,-0.617 -0.112,-1.114 -0.112,-1.488 1.159,0.076 2.344,0.169 3.559,0.281 1.215,0.112 2.402,0.206 3.56,0.281 -0.037,0.336 -0.121,0.804 -0.252,1.402 -0.131,0.599 -0.346,1.178 -0.645,1.74 -0.299,0.561 -0.691,1.028 -1.176,1.403 -0.487,0.373 -1.084,0.542 -1.795,0.504 m 21.919,-41.24 c 0.186,-1.047 0.159,-1.917 -0.084,-2.61 -0.244,-0.691 -0.925,-1.168 -2.046,-1.43 -0.374,-0.113 -1.187,-0.299 -2.439,-0.562 -1.252,-0.262 -2.747,-0.579 -4.485,-0.953 -1.737,-0.374 -3.597,-0.777 -5.577,-1.207 -1.982,-0.43 -3.878,-0.832 -5.691,-1.205 -1.812,-0.375 -3.437,-0.711 -4.877,-1.011 -1.438,-0.3 -2.457,-0.505 -3.054,-0.617 -1.383,-0.3 -2.402,-0.206 -3.055,0.28 -0.654,0.486 -0.982,1.217 -0.982,2.189 v 34.452 c 0,0.934 0.197,1.691 0.589,2.271 0.393,0.58 0.962,0.889 1.709,0.926 0.299,0 0.664,0.02 1.094,0.057 0.43,0.037 0.85,0.074 1.261,0.112 0.485,0.037 0.991,0.075 1.514,0.112 l 0.504,-8.023 c -0.037,-0.038 -0.112,-0.057 -0.224,-0.057 -0.074,0 -0.187,-0.01 -0.336,-0.027 -0.15,-0.02 -0.318,-0.029 -0.505,-0.029 -0.784,-0.075 -1.159,-0.542 -1.121,-1.403 0.038,-0.336 0.075,-0.805 0.112,-1.402 0.037,-0.599 0.066,-1.225 0.084,-1.88 0.019,-0.655 0.047,-1.29 0.084,-1.907 0.037,-0.617 0.074,-1.114 0.113,-1.488 0.037,-0.711 0.149,-1.112 0.336,-1.206 0.186,-0.093 0.598,-0.14 1.233,-0.14 h 0.785 c 0.225,0 0.439,0.01 0.645,0.027 0.205,0.02 0.439,0.038 0.701,0.057 0.261,0.018 0.597,0.047 1.008,0.084 0.785,0.075 1.29,0.243 1.513,0.506 0.225,0.261 0.319,0.654 0.281,1.177 0,0.262 -0.028,0.721 -0.084,1.375 -0.056,0.655 -0.113,1.337 -0.168,2.048 -0.056,0.71 -0.103,1.384 -0.14,2.02 -0.037,0.635 -0.074,1.085 -0.112,1.346 -0.076,0.45 -0.168,0.768 -0.281,0.954 -0.112,0.187 -0.318,0.262 -0.617,0.224 -0.148,0 -0.299,-0.009 -0.447,-0.027 -0.151,-0.019 -0.3,-0.028 -0.449,-0.028 h -0.449 l -0.505,7.967 c 2.542,0.225 4.877,0.412 7.008,0.561 0.897,0.076 1.803,0.15 2.719,0.224 0.916,0.076 1.766,0.141 2.551,0.198 0.785,0.055 1.476,0.111 2.074,0.168 0.598,0.056 1.046,0.103 1.346,0.14 1.083,0.074 1.942,-0.113 2.578,-0.561 0.635,-0.449 1.027,-1.122 1.178,-2.021 0.037,-0.299 0.168,-1.196 0.391,-2.693 0.224,-1.496 0.505,-3.291 0.841,-5.386 0.336,-2.095 0.691,-4.349 1.065,-6.761 0.374,-2.413 0.729,-4.667 1.066,-6.761 0.336,-2.095 0.625,-3.891 0.869,-5.387 0.242,-1.496 0.4,-2.395 0.476,-2.693 m -35.261,-4.881 c 0,-0.525 0.028,-0.983 0.084,-1.375 0.057,-0.393 0.122,-0.701 0.197,-0.926 0.074,-0.299 0.168,-0.524 0.279,-0.674 -0.933,0.486 -1.831,0.973 -2.69,1.459 -0.747,0.412 -1.495,0.832 -2.242,1.263 -0.747,0.43 -1.383,0.795 -1.906,1.094 -0.972,0.561 -1.635,1.235 -1.99,2.02 -0.355,0.785 -0.439,1.608 -0.253,2.469 0.076,0.224 0.244,1.047 0.505,2.469 0.262,1.421 0.588,3.142 0.981,5.162 0.392,2.019 0.803,4.189 1.233,6.508 0.43,2.32 0.831,4.49 1.205,6.509 0.374,2.02 0.701,3.76 0.982,5.218 0.28,1.459 0.439,2.319 0.476,2.581 0.15,0.823 0.42,1.459 0.813,1.908 0.392,0.449 0.849,0.561 1.373,0.336 0.299,-0.149 0.543,-0.317 0.728,-0.504 0.114,-0.113 0.188,-0.207 0.225,-0.281 z"
           fill="#ffffff"
           id="path697" />
      </g>
    </g>
  </g>
  <g
     transform="matrix(3.7796,0,0,3.7796,-167.34599,-1.5061)"
     fill="#5e4aa6"
     stroke-width="0.26458"
     id="g713">
    <circle
       cx="-330.35001"
       cy="-328.38"
       r="0"
       id="circle705" />
    <circle
       cx="-312.10999"
       cy="-326.25"
       r="0"
       id="circle707" />
    <circle
       cx="-306.01999"
       cy="-333.07001"
       r="0"
       id="circle709" />
    <circle
       cx="-308.84"
       cy="-326.01001"
       r="0"
       id="circle711" />
  </g>
  <g
     transform="matrix(3.7796,0,0,3.7796,-112.58199,78.72)"
     fill="#5e4aa6"
     stroke-width="0.26458"
     id="g729">
    <g
       transform="translate(-21.833,0.89722)"
       id="g723">
      <circle
         cx="-330.35001"
         cy="-328.38"
         r="0"
         id="circle715" />
      <circle
         cx="-312.10999"
         cy="-326.25"
         r="0"
         id="circle717" />
      <circle
         cx="-306.01999"
         cy="-333.07001"
         r="0"
         id="circle719" />
      <circle
         cx="-308.84"
         cy="-326.01001"
         r="0"
         id="circle721" />
    </g>
    <circle
       cx="-284.23001"
       cy="-330.42001"
       r="0"
       id="circle725" />
    <circle
       cx="6.6785998"
       cy="4.3997998"
       r="0"
       fill-rule="evenodd"
       id="circle727" />
  </g>
  <g
     transform="matrix(1.3333,0,0,-1.3333,638.59601,996.74)"
     id="g737">
    <g
       clip-path="url(#clipPath13429-6)"
       id="g735">
      <g
         transform="translate(448,326)"
         id="g733">
        <path
           d="M 0,0 C 3.866,0 7,3.134 7,7 7,10.866 3.866,14 0,14 -3.866,14 -7,10.866 -7,7 -7,3.134 -3.866,0 0,0"
           fill="#ffffff"
           fill-rule="evenodd"
           id="path731" />
      </g>
    </g>
  </g>
  <g
     transform="matrix(1.3333,0,0,-1.3333,638.59601,996.74)"
     id="g745">
    <g
       clip-path="url(#clipPath13465-0)"
       id="g743">
      <g
         transform="translate(474,326)"
         id="g741">
        <path
           d="M 0,0 C 3.866,0 7,3.134 7,7 7,10.866 3.866,14 0,14 -3.866,14 -7,10.866 -7,7 -7,3.134 -3.866,0 0,0"
           fill="#ffffff"
           fill-rule="evenodd"
           id="path739" />
      </g>
    </g>
  </g>
  <g
     transform="matrix(1.3333,0,0,-1.3333,638.59601,996.74)"
     id="g753">
    <g
       clip-path="url(#clipPath13501-6)"
       id="g751">
      <g
         transform="translate(497,326)"
         id="g749">
        <path
           d="M 0,0 C 3.866,0 7,3.134 7,7 7,10.866 3.866,14 0,14 -3.866,14 -7,10.866 -7,7 -7,3.134 -3.866,0 0,0"
           fill="#ffffff"
           fill-rule="evenodd"
           id="path747" />
      </g>
    </g>
  </g>
  <g
     transform="matrix(1.3333,0,0,-1.3333,638.59601,996.74)"
     id="g759">
    <g
       clip-path="url(#clipPath13753-2)"
       id="g757">
      <path
         d="m 593,1073 h 36 v -18 h -36 z m 18,-11 c 6.075,0 11,0.895 11,2 0,1.105 -4.925,2 -11,2 -6.075,0 -11,-0.895 -11,-2 0,-1.105 4.925,-2 11,-2"
         fill="#ffffff"
         fill-rule="evenodd"
         id="path755" />
    </g>
  </g>
  <g
     transform="matrix(1.3333,0,0,-1.3333,638.59601,996.74)"
     id="g767">
    <g
       clip-path="url(#clipPath13771-6)"
       id="g765">
      <g
         transform="translate(583.42,1063)"
         id="g763">
        <path
           d="M 0,0 C 0,0 21.582,23.182 21.582,35.147 21.582,47.195 11.898,57 0,57 c -11.816,0 -21.418,-9.805 -21.418,-21.853 0,-8.06 9.766,-21.188 16.002,-28.832 z m 0,42.542 c 3.938,0 7.14,-3.323 7.14,-7.395 0,-3.822 -3.202,-7.146 -7.14,-7.146 -3.856,0 -7.222,3.324 -7.222,7.146 0,4.072 3.366,7.395 7.222,7.395"
           fill="#ffffff"
           id="path761" />
      </g>
    </g>
  </g>
  <g
     transform="matrix(1.3333,0,0,-1.3333,638.59601,996.74)"
     id="g775">
    <g
       clip-path="url(#clipPath14035-1)"
       id="g773">
      <g
         transform="translate(562,535)"
         id="g771">
        <path
           d="m 0,0 h 35 c 2.762,0 5,-2.238 5,-5 0,-2.762 -2.238,-5 -5,-5 H 0 c -2.762,0 -5,2.238 -5,5 0,2.762 2.238,5 5,5"
           fill="#ffffff"
           fill-rule="evenodd"
           id="path769" />
      </g>
    </g>
  </g>
  <g
     transform="matrix(1.3333,0,0,-1.3333,638.59601,996.74)"
     id="g783">
    <g
       clip-path="url(#clipPath14127-8)"
       id="g781">
      <g
         transform="translate(562,518)"
         id="g779">
        <path
           d="m 0,0 h 35 c 2.762,0 5,-2.238 5,-5 0,-2.762 -2.238,-5 -5,-5 H 0 c -2.762,0 -5,2.238 -5,5 0,2.762 2.238,5 5,5"
           fill="#ffffff"
           fill-rule="evenodd"
           id="path777" />
      </g>
    </g>
  </g>
  <g
     transform="matrix(1.3333,0,0,-1.3333,638.59601,996.74)"
     id="g791">
    <g
       clip-path="url(#clipPath14445-7)"
       id="g789">
      <g
         transform="translate(536.43,133.83)"
         id="g787">
        <path
           d="M 0,0 C -10.01,-12.916 -22.288,-9.047 -24.23,-8.072 -29.077,-6.779 -30.694,1.943 -24.556,4.846 -14.538,8.072 -5.496,4.521 0.968,1.293 0.324,0.326 0,0 0,0 m 10.667,3.553 c 4.521,8.072 6.139,15.826 6.139,15.826 H 1.617 v 5.812 h 17.767 v 2.26 H 1.617 v 8.723 h -8.074 v -8.723 h -16.156 v -2.584 h 16.156 v -5.812 h -13.57 V 16.47 H 7.756 c 0,-0.325 0,-0.325 -0.324,-0.968 0,-2.909 -1.936,-6.779 -3.554,-10.014 -20.677,8.079 -26.491,3.235 -28.108,2.584 -13.564,-9.689 -0.968,-21.963 1.293,-21.638 14.538,-3.227 23.905,2.91 30.369,10.657 0.324,-0.325 0.967,-0.325 1.292,-0.325 4.528,-2.578 25.848,-12.592 25.848,-12.592 V -3.552 C 30.694,-3.227 19.066,0.643 10.667,3.553"
           fill="#ffffff"
           id="path785" />
      </g>
    </g>
  </g>
  <g
     transform="matrix(1.3333,0,0,-1.3333,638.59601,996.74)"
     id="g799">
    <g
       clip-path="url(#clipPath14609-9)"
       id="g797">
      <g
         transform="translate(720.03,1091.5)"
         id="g795">
        <path
           d="m 0,0 c -0.149,0.354 -0.224,0.837 -0.224,1.451 0,0.372 0.103,0.828 0.306,1.368 0.205,0.539 0.428,0.958 0.671,1.256 -0.019,0.409 0.051,0.902 0.209,1.478 0.159,0.576 0.368,0.976 0.629,1.2 0,2.586 0.86,5.269 2.581,8.05 1.722,2.782 3.744,4.73 6.07,5.846 2.585,1.228 5.6,1.842 9.041,1.842 2.475,0 4.949,-0.511 7.423,-1.534 0.912,-0.391 1.749,-0.837 2.512,-1.34 0.762,-0.502 1.423,-1.022 1.981,-1.562 0.559,-0.54 1.07,-1.172 1.534,-1.897 0.465,-0.725 0.856,-1.413 1.172,-2.064 0.318,-0.651 0.619,-1.437 0.908,-2.358 0.287,-0.921 0.524,-1.753 0.71,-2.497 0.186,-0.744 0.391,-1.655 0.614,-2.734 l 0.028,-0.14 C 37.188,4.822 37.7,3.426 37.7,2.179 37.7,1.919 37.616,1.547 37.448,1.064 37.28,0.58 37.196,0.227 37.196,0.003 c 0,-0.019 0.015,-0.052 0.043,-0.099 0.028,-0.047 0.061,-0.093 0.098,-0.139 0.038,-0.046 0.057,-0.077 0.057,-0.098 1.432,-2.121 2.553,-4.116 3.363,-5.985 0.809,-1.869 1.214,-3.808 1.214,-5.817 0,-0.8 -0.182,-1.73 -0.544,-2.791 -0.363,-1.06 -0.879,-1.59 -1.549,-1.59 -0.167,0 -0.349,0.069 -0.544,0.209 -0.194,0.14 -0.371,0.303 -0.529,0.489 -0.159,0.186 -0.335,0.428 -0.53,0.725 -0.195,0.297 -0.344,0.543 -0.447,0.739 -0.103,0.196 -0.228,0.438 -0.377,0.725 -0.147,0.288 -0.231,0.451 -0.251,0.489 -0.019,0.019 -0.047,0.028 -0.085,0.028 l -0.138,-0.111 c -1.099,-2.864 -2.327,-4.938 -3.684,-6.222 0.372,-0.372 0.944,-0.73 1.716,-1.075 0.772,-0.345 1.414,-0.73 1.925,-1.158 0.511,-0.426 0.841,-1.031 0.991,-1.814 -0.037,-0.074 -0.074,-0.223 -0.112,-0.447 -0.036,-0.224 -0.101,-0.391 -0.195,-0.501 -1.19,-1.804 -4,-2.706 -8.427,-2.706 -0.986,0 -2.013,0.084 -3.084,0.251 -1.069,0.168 -1.981,0.354 -2.734,0.558 -0.753,0.204 -1.726,0.483 -2.916,0.837 -0.279,0.093 -0.493,0.158 -0.643,0.196 -0.259,0.075 -0.687,0.115 -1.282,0.125 -0.595,0.009 -0.967,0.023 -1.116,0.042 -0.763,-0.838 -1.949,-1.442 -3.559,-1.814 -1.609,-0.372 -3.176,-0.558 -4.702,-0.558 -0.65,0 -1.293,0.014 -1.925,0.042 -0.632,0.028 -1.498,0.113 -2.595,0.252 -1.098,0.139 -2.038,0.33 -2.82,0.572 -0.781,0.241 -1.473,0.613 -2.078,1.115 -0.604,0.502 -0.906,1.098 -0.906,1.786 0,0.744 0.093,1.298 0.279,1.661 0.187,0.364 0.569,0.815 1.144,1.353 0.205,0.038 0.581,0.159 1.131,0.363 0.549,0.204 1.009,0.316 1.381,0.334 0.074,0 0.204,0.019 0.39,0.057 0.038,0.037 0.057,0.074 0.057,0.111 l -0.057,0.084 c -0.892,0.204 -1.897,1.185 -3.014,2.944 -1.117,1.758 -1.796,3.214 -2.038,4.367 l -0.139,0.084 c -0.074,0 -0.186,-0.185 -0.334,-0.557 -0.335,-0.763 -0.842,-1.455 -1.521,-2.079 -0.679,-0.622 -1.4,-0.971 -2.163,-1.046 h -0.028 c -0.073,0 -0.129,0.041 -0.167,0.125 -0.037,0.083 -0.084,0.134 -0.139,0.153 -0.428,1.004 -0.642,1.934 -0.642,2.79 0,5.116 2.343,9.45 7.032,13.002 z"
           fill="#ffffff"
           id="path793" />
      </g>
    </g>
  </g>
  <g
     transform="matrix(1.3333,0,0,-1.3333,638.59601,996.74)"
     id="g807">
    <g
       clip-path="url(#clipPath15305-2)"
       id="g805">
      <g
         transform="translate(655,300)"
         id="g803">
        <path
           d="M 0,0 C 16.568,0 30,13.432 30,30 30,46.568 16.568,60 0,60 -16.568,60 -30,46.568 -30,30 -30,13.432 -16.568,0 0,0 Z"
           fill="none"
           stroke="#ffffff"
           stroke-miterlimit="10"
           stroke-width="8"
           id="path801" />
      </g>
    </g>
  </g>
  <g
     transform="matrix(1.3333,0,0,-1.3333,638.59601,996.74)"
     id="g815">
    <g
       clip-path="url(#clipPath15341-0)"
       id="g813">
      <g
         transform="translate(66.849,1083.1)"
         id="g811">
        <path
           d="m 0,0 c 0,5.302 -3.661,9.749 -8.591,10.948 -0.209,8.314 -7.006,14.991 -15.366,14.991 -4.897,0 -9.254,-2.293 -12.07,-5.861 -1.579,2.041 -4.05,3.358 -6.828,3.358 -4.769,0 -8.633,-3.868 -8.633,-8.639 0,-0.416 0.031,-0.825 0.089,-1.224 -0.726,0.13 -1.47,0.203 -2.232,0.203 -6.913,0 -12.515,-5.607 -12.515,-12.524 0,-6.916 5.602,-12.523 12.515,-12.523 h 42.394 c 6.21,0.013 11.241,5.053 11.241,11.269 z"
           fill="#ffffff"
           id="path809" />
      </g>
    </g>
  </g>
  <g
     transform="matrix(1.3333,0,0,-1.3333,638.59601,996.74)"
     id="g823">
    <g
       clip-path="url(#clipPath15715-2)"
       id="g821">
      <g
         transform="translate(65.5,681)"
         id="g819">
        <path
           d="M 0,0 C 9.113,0 16.5,7.387 16.5,16.5 16.5,25.613 9.113,33 0,33 -9.113,33 -16.5,25.613 -16.5,16.5 -16.5,7.387 -9.113,0 0,0 Z"
           fill="none"
           stroke="#ffffff"
           stroke-miterlimit="10"
           stroke-width="4"
           id="path817" />
      </g>
    </g>
  </g>
  <g
     transform="matrix(1.3333,0,0,-1.3333,638.59601,996.74)"
     id="g831">
    <g
       clip-path="url(#clipPath15807-3)"
       id="g829">
      <g
         transform="translate(77.5,711)"
         id="g827">
        <path
           d="M 0,0 C 7.456,0 13.5,6.044 13.5,13.5 13.5,20.956 7.456,27 0,27 -7.456,27 -13.5,20.956 -13.5,13.5 -13.5,6.044 -7.456,0 0,0 Z"
           fill="none"
           stroke="#ffffff"
           stroke-miterlimit="10"
           stroke-width="4"
           id="path825" />
      </g>
    </g>
  </g>
  <g
     transform="matrix(1.3333,0,0,-1.3333,638.59601,996.74)"
     id="g839">
    <g
       clip-path="url(#clipPath16001-7)"
       id="g837">
      <g
         transform="translate(455.91,931.53)"
         id="g835">
        <path
           d="m 0,0 c -0.742,-1.039 -4.75,-2.821 -8.165,-3.563 -4.305,-0.891 -6.531,-1.633 -8.758,-2.82 -2.969,-1.782 -4.601,-4.009 -4.305,-6.087 0.149,-0.445 3.711,-5.64 7.868,-11.578 4.304,-5.938 7.868,-10.985 8.016,-11.134 0.149,-0.297 -0.445,-0.297 -2.524,-0.148 -6.531,0.445 -12.469,-2.969 -15.142,-8.314 -0.742,-1.632 -0.89,-2.523 -0.89,-4.453 0,-4.453 2.376,-8.016 6.829,-10.094 1.781,-0.742 2.375,-0.891 6.086,-0.891 4.007,0 4.156,0 6.829,1.336 7.125,3.414 10.093,10.095 7.125,16.181 -0.594,1.336 -4.305,7.719 -8.313,14.251 l -7.274,12.024 h 1.187 c 4.75,0.297 8.017,1.781 10.244,4.305 1.929,2.227 2.523,4.453 2.374,8.016 C 1.039,0.297 0.742,1.039 0,0"
           fill="#ffffff"
           id="path833" />
      </g>
    </g>
  </g>
  <g
     transform="matrix(1.3333,0,0,-1.3333,638.59601,996.74)"
     id="g847">
    <g
       clip-path="url(#clipPath16093-5)"
       id="g845">
      <g
         transform="translate(784,902.31)"
         id="g843">
        <path
           d="m 0,0 c 0,-1.565 -0.904,-2.931 -2.251,-3.674 l -27.781,-18.472 c -0.012,-0.008 -0.026,-0.014 -0.037,-0.02 l -0.017,-0.011 c -0.684,-0.376 -1.48,-0.592 -2.331,-0.592 -2.53,0 -4.583,1.913 -4.583,4.269 v 37 c 0,2.356 2.053,4.27 4.583,4.27 0.851,0 1.647,-0.217 2.331,-0.596 l 0.017,-0.008 c 0.011,-0.009 0.022,-0.014 0.037,-0.02 L -2.251,3.675 C -0.904,2.932 0,1.565 0,0"
           fill="#ffffff"
           id="path841" />
      </g>
    </g>
  </g>
  <g
     transform="matrix(1.3333,0,0,-1.3333,638.59601,996.74)"
     id="g855">
    <g
       clip-path="url(#clipPath16477-9)"
       id="g853">
      <g
         transform="translate(223.75,708.35)"
         id="g851">
        <path
           d="m 0,0 c -15.123,0 -27.418,12.329 -27.418,27.486 0,1.382 1.111,2.505 2.487,2.505 1.379,0 2.499,-1.123 2.499,-2.505 0,-12.4 10.06,-22.487 22.432,-22.487 12.375,0 22.443,10.087 22.443,22.487 0,1.382 1.112,2.505 2.488,2.505 1.378,0 2.499,-1.123 2.499,-2.505 C 27.43,12.329 15.126,0 0,0"
           fill="#ffffff"
           fill-rule="evenodd"
           id="path849" />
      </g>
    </g>
  </g>
  <g
     transform="matrix(1.3333,0,0,-1.3333,638.59601,996.74)"
     id="g863">
    <g
       clip-path="url(#clipPath16579-2)"
       id="g861">
      <g
         transform="translate(390.75,139.35)"
         id="g859">
        <path
           d="m 0,0 c -15.123,0 -27.418,12.329 -27.418,27.485 0,1.383 1.111,2.506 2.487,2.506 1.379,0 2.499,-1.123 2.499,-2.506 0,-12.398 10.06,-22.486 22.432,-22.486 12.375,0 22.443,10.088 22.443,22.486 0,1.383 1.112,2.506 2.488,2.506 1.378,0 2.499,-1.123 2.499,-2.506 C 27.43,12.329 15.126,0 0,0"
           fill="#ffffff"
           fill-rule="evenodd"
           id="path857" />
      </g>
    </g>
  </g>
  <g
     transform="matrix(1.3333,0,0,-1.3333,638.59601,996.74)"
     id="g871">
    <g
       clip-path="url(#clipPath16709-2)"
       id="g869">
      <g
         transform="translate(423.93,686.39)"
         id="g867">
        <path
           d="m 0,0 c 0.245,-0.286 0.605,-0.456 0.986,-0.456 0.382,0 0.743,0.17 0.988,0.456 L 19.49,20.497 c 0.333,0.388 0.408,0.933 0.191,1.388 -0.211,0.463 -0.674,0.756 -1.184,0.756 h -9.93 c -2.118,4.172 -3.109,8.382 -2.973,12.63 0.135,4.248 1.954,12.361 5.455,24.34 C 0.093,53.021 -6.607,41.171 -6.607,28.386 v -5.745 h -9.93 c -0.51,0 -0.966,-0.293 -1.184,-0.756 -0.211,-0.462 -0.135,-1 0.191,-1.388 z"
           fill="#ffffff"
           id="path865" />
      </g>
    </g>
  </g>
  <g
     transform="matrix(1.3333,0,0,-1.3333,505.66601,1152.4)"
     id="g879">
    <g
       clip-path="url(#clipPath24218-8)"
       id="g877">
      <g
         transform="translate(9.1685,1040.9)"
         id="g875">
        <path
           d="M 0,0 25.314,21.067 -0.763,39.718 c 5.846,7.671 15.079,12.622 25.468,12.622 17.673,0 32,-14.327 32,-32 0,-17.673 -14.327,-32 -32,-32 C 14.757,-11.66 5.869,-7.121 0,0 m 27.349,31.812 c 2.835,0 5.132,2.297 5.132,5.132 0,2.834 -2.297,5.132 -5.132,5.132 -2.834,0 -5.132,-2.298 -5.132,-5.132 0,-2.835 2.298,-5.132 5.132,-5.132"
           fill="#ffffff"
           fill-rule="evenodd"
           id="path873" />
      </g>
    </g>
  </g>
  <g
     transform="matrix(1.3333,0,0,-1.3333,505.66601,1152.4)"
     id="g887">
    <g
       clip-path="url(#clipPath24382-9)"
       id="g885">
      <g
         transform="translate(194.25,1130.3)"
         id="g883">
        <path
           d="M 0,0 C 20.173,-11.579 43.841,2 51.309,14.862 58.776,27.723 56.341,46 40.841,52.5 25.341,59 -4.646,59.111 -13.659,43.5 -22.672,27.889 -20.174,11.578 0,0"
           fill="#ffffff"
           fill-rule="evenodd"
           id="path881" />
      </g>
    </g>
  </g>
  <g
     transform="matrix(1.3333,0,0,-1.3333,505.66601,1152.4)"
     id="g895">
    <g
       clip-path="url(#clipPath24650-7)"
       id="g893">
      <g
         transform="translate(473.86,1057.5)"
         id="g891">
        <path
           d="M 0,0 C 1.657,0 3,1.501 3,3.353 3,5.205 1.657,6.706 0,6.706 -1.656,6.706 -3,5.205 -3,3.353 -3,1.501 -1.656,0 0,0"
           fill="#ffffff"
           fill-rule="evenodd"
           id="path889" />
      </g>
    </g>
  </g>
  <g
     transform="matrix(1.3333,0,0,-1.3333,505.66601,1152.4)"
     id="g903">
    <g
       clip-path="url(#clipPath24700-3)"
       id="g901">
      <g
         transform="translate(493,1069.8)"
         id="g899">
        <path
           d="M 0,0 C 1.657,0 3,1.501 3,3.353 3,5.205 1.657,6.706 0,6.706 -1.657,6.706 -3,5.205 -3,3.353 -3,1.501 -1.657,0 0,0"
           fill="#ffffff"
           fill-rule="evenodd"
           id="path897" />
      </g>
    </g>
  </g>
  <g
     transform="matrix(1.3333,0,0,-1.3333,505.66601,1152.4)"
     id="g911">
    <g
       clip-path="url(#clipPath24750-6)"
       id="g909">
      <g
         transform="translate(510,1048.8)"
         id="g907">
        <path
           d="M 0,0 C 1.657,0 3,1.501 3,3.353 3,5.205 1.657,6.706 0,6.706 -1.657,6.706 -3,5.205 -3,3.353 -3,1.501 -1.657,0 0,0"
           fill="#ffffff"
           fill-rule="evenodd"
           id="path905" />
      </g>
    </g>
  </g>
  <g
     transform="matrix(1.3333,0,0,-1.3333,505.66601,1152.4)"
     id="g919">
    <g
       clip-path="url(#clipPath24864-1)"
       id="g917">
      <g
         transform="translate(806.5,1072.2)"
         id="g915">
        <path
           d="M 0,0 C -3.667,-14 -9.5,-21.833 -17.5,-23.5"
           fill="none"
           stroke="#ffffff"
           stroke-linecap="round"
           stroke-miterlimit="10"
           id="path913" />
      </g>
    </g>
  </g>
  <g
     transform="matrix(1.3333,0,0,-1.3333,505.66601,1152.4)"
     id="g927">
    <g
       clip-path="url(#clipPath24896-2)"
       id="g925">
      <g
         transform="translate(802,1066.2)"
         id="g923">
        <path
           d="m 0,0 c -4.971,0 -9,4.029 -9,9 0,4.971 4.029,9 9,9 C 4.971,18 9,13.971 9,9 9,4.029 4.971,0 0,0 m 0,6 c 1.657,0 3,1.343 3,3 0,1.657 -1.343,3 -3,3 -1.657,0 -3,-1.343 -3,-3 0,-1.657 1.343,-3 3,-3"
           fill="#ffffff"
           fill-rule="evenodd"
           id="path921" />
      </g>
    </g>
  </g>
  <g
     transform="matrix(1.3333,0,0,-1.3333,505.66601,1152.4)"
     id="g935">
    <g
       clip-path="url(#clipPath25070-9)"
       id="g933">
      <g
         transform="translate(122,495.24)"
         id="g931">
        <path
           d="M 0,0 H 3 C 3.553,0 4,-0.447 4,-1 V -3 C 4,-3.553 3.553,-4 3,-4 H 0 c -0.553,0 -1,0.447 -1,1 v 2 c 0,0.553 0.447,1 1,1"
           fill="#ffffff"
           fill-rule="evenodd"
           id="path929" />
      </g>
    </g>
  </g>
  <g
     transform="matrix(1.3333,0,0,-1.3333,505.66601,1152.4)"
     id="g943">
    <g
       clip-path="url(#clipPath25100-3)"
       id="g941">
      <g
         transform="translate(204,495.24)"
         id="g939">
        <path
           d="M 0,0 H 3 C 3.553,0 4,-0.447 4,-1 V -3 C 4,-3.553 3.553,-4 3,-4 H 0 c -0.553,0 -1,0.447 -1,1 v 2 c 0,0.553 0.447,1 1,1"
           fill="#ffffff"
           fill-rule="evenodd"
           id="path937" />
      </g>
    </g>
  </g>
  <g
     transform="matrix(1.3333,0,0,-1.3333,505.66601,1152.4)"
     id="g951">
    <g
       clip-path="url(#clipPath25502-1)"
       id="g949">
      <g
         transform="translate(805,482.24)"
         id="g947">
        <path
           d="M 0,0 C 4.418,0 8,3.582 8,8 8,12.418 4.418,16 0,16 -4.418,16 -8,12.418 -8,8 -8,3.582 -4.418,0 0,0"
           fill="#ffffff"
           fill-rule="evenodd"
           id="path945" />
      </g>
    </g>
  </g>
  <g
     transform="matrix(1.3333,0,0,-1.3333,505.66601,1152.4)"
     id="g959">
    <g
       clip-path="url(#clipPath25686-9)"
       id="g957">
      <g
         transform="translate(658,1075.7)"
         id="g955">
        <path
           d="M 0,0 C 0,-4.694 3.806,-8.5 8.5,-8.5 13.194,-8.5 17,-4.694 17,0 17,4.694 13.194,8.5 8.5,8.5 3.806,8.5 0,4.694 0,0"
           fill="#ffffff"
           id="path953" />
      </g>
    </g>
  </g>
  <g
     transform="matrix(1.3333,0,0,-1.3333,505.66601,1152.4)"
     id="g965">
    <g
       clip-path="url(#clipPath25788-4)"
       id="g963">
      <path
         d="m 465.44,1082.2 h 85.864 v -75.319 H 465.44 Z m 64.45,-25.106 c -0.483,0.765 -1.453,0.947 -2.178,0.431 l -15.504,-11.01 c -0.359,-0.255 -0.847,-0.153 -1.071,0.238 l -18.271,31.869 c -0.438,0.771 -1.139,0.776 -1.549,-0.016 l -1.807,-3.514 -21.07,-47.452 c 13.336,-18.44 48.336,-26.94 73.836,-3.44 0.841,0 6.477,6.246 6,7 z"
         fill="#ffffff"
         fill-rule="evenodd"
         id="path961" />
    </g>
  </g>
  <g
     transform="matrix(1.3333,0,0,-1.3333,505.66601,1152.4)"
     id="g973">
    <g
       clip-path="url(#clipPath26420-7)"
       id="g971">
      <g
         transform="translate(-23,837.24)"
         id="g969">
        <path
           d="M 0,0 C 18.778,0 34,15.222 34,34 34,52.778 18.778,68 0,68 -18.778,68 -34,52.778 -34,34 -34,15.222 -18.778,0 0,0 Z"
           fill="none"
           stroke="#ffffff"
           stroke-miterlimit="10"
           stroke-width="8"
           id="path967" />
      </g>
    </g>
  </g>
  <g
     transform="matrix(1.3333,0,0,-1.3333,505.66601,1152.4)"
     id="g979">
    <g
       clip-path="url(#clipPath26860-8)"
       id="g977">
      <path
         d="m 644,721.24 h 82 v -82 h -82 z m 41,-81 c 22.092,0 40,17.908 40,40 0,22.092 -17.908,40 -40,40 -22.092,0 -40,-17.908 -40,-40 0,-22.092 17.908,-40 40,-40"
         fill="#ffffff"
         fill-rule="evenodd"
         id="path975" />
    </g>
  </g>
  <g
     transform="matrix(1.3333,0,0,-1.3333,505.66601,1152.4)"
     id="g987">
    <g
       clip-path="url(#clipPath27506-4)"
       id="g985">
      <g
         transform="translate(613.88,476.03)"
         id="g983">
        <path
           d="m 0,0 c 0.187,-0.771 0.148,-1.502 -0.116,-2.193 -0.266,-0.692 -0.678,-1.303 -1.239,-1.833 -0.561,-0.531 -1.247,-0.949 -2.057,-1.255 -0.81,-0.305 -1.683,-0.457 -2.617,-0.457 -5.889,-0.033 -11.156,-0.049 -15.798,-0.049 h -15.891 c -1.122,0 -2.111,0.209 -2.968,0.627 -0.857,0.418 -1.543,0.932 -2.056,1.543 -0.515,0.611 -0.858,1.279 -1.029,2.002 -0.171,0.723 -0.148,1.375 0.071,1.953 0.186,0.451 0.373,0.917 0.56,1.398 0.157,0.418 0.343,0.893 0.561,1.424 0.219,0.53 0.452,1.069 0.701,1.615 l 1.776,4.438 h 5.329 l -2.01,-6.077 h 30.099 l -2.009,6.077 h 5.094 C -2.944,7.573 -2.353,6.094 -1.822,4.775 -1.604,4.197 -1.387,3.635 -1.168,3.088 -0.95,2.541 -0.756,2.051 -0.584,1.616 -0.413,1.183 -0.272,0.812 -0.163,0.507 -0.055,0.201 0,0.033 0,0 m -22.922,9.236 c -0.601,0.698 -1.289,1.571 -2.064,2.618 -0.776,1.046 -1.575,2.125 -2.398,3.235 -0.822,1.11 -1.637,2.204 -2.443,3.283 -0.808,1.079 -1.527,2.015 -2.16,2.808 -0.728,0.856 -1.013,1.562 -0.855,2.117 0.158,0.555 0.696,0.832 1.614,0.832 0.506,-0.031 1.187,-0.024 2.041,0.024 0.855,0.048 1.567,0.072 2.136,0.072 0.633,0 1.029,0.19 1.187,0.57 0.158,0.381 0.237,0.889 0.237,1.523 0,0.698 -0.008,1.467 -0.024,2.308 -0.016,0.841 -0.024,1.705 -0.024,2.593 0,0.888 -0.008,1.76 -0.023,2.617 -0.016,0.856 -0.024,1.65 -0.024,2.379 0,0.318 0.024,0.65 0.071,1 0.047,0.348 0.158,0.666 0.333,0.951 0.173,0.285 0.426,0.523 0.758,0.714 0.332,0.19 0.784,0.285 1.353,0.285 0.665,0 1.274,0.009 1.827,0.024 0.555,0.016 1.195,0.024 1.923,0.024 1.044,0 1.748,-0.246 2.112,-0.737 0.364,-0.492 0.562,-1.277 0.593,-2.356 v -1.855 c 0,-0.73 0.008,-1.507 0.023,-2.331 0.017,-0.826 0.025,-1.651 0.025,-2.475 v -2.236 c 0,-0.92 0.095,-1.659 0.284,-2.213 0.191,-0.555 0.617,-0.817 1.282,-0.785 0.475,0 1.052,-0.016 1.732,-0.047 0.68,-0.032 1.274,-0.049 1.78,-0.049 0.855,0 1.4,-0.23 1.638,-0.69 0.237,-0.46 0.071,-1.054 -0.498,-1.784 -0.602,-0.76 -1.298,-1.68 -2.089,-2.759 -0.791,-1.08 -1.606,-2.197 -2.445,-3.355 -0.838,-1.158 -1.661,-2.284 -2.467,-3.379 -0.807,-1.094 -1.528,-2.037 -2.16,-2.83 -0.57,-0.73 -1.116,-1.103 -1.637,-1.119 -0.523,-0.016 -1.069,0.326 -1.638,1.023"
           fill="#ffffff"
           id="path981" />
      </g>
    </g>
  </g>
  <g
     transform="matrix(1.3333,0,0,-1.3333,505.66601,1152.4)"
     id="g995">
    <g
       clip-path="url(#clipPath27772-5)"
       id="g993">
      <g
         transform="translate(588.67,331.24)"
         id="g991">
        <path
           d="m 0,0 h -49.301 c -2.41,0 -4.367,-1.941 -4.367,-4.299 v -49.402 c 0,-2.393 1.957,-4.299 4.367,-4.299 H 0 c 2.41,0 4.332,1.941 4.332,4.299 V -4.334 C 4.332,-1.941 2.375,0 0,0 m -33.403,-53.008 h -8.839 v 6.795 h 8.839 z m -8.91,24.58 h 8.84 v -6.795 h -8.84 z m 8.945,-15.566 h -8.84 v 6.795 h 8.84 z m 12.998,-9.014 h -8.84 v 6.795 h 8.84 z m -8.91,24.58 h 8.84 v -6.795 h -8.84 z m 8.944,-15.566 h -8.839 v 6.795 h 8.839 z m 13.277,-9.014 h -8.84 v 6.795 h 8.84 z m -8.909,24.58 h 8.84 v -6.795 h -8.84 z m 8.945,-15.566 h -8.84 v 6.795 h 8.84 z m 5.276,24.441 c 0,-2.392 -1.957,-4.299 -4.368,-4.299 h -37.77 c -2.411,-0.035 -4.367,1.907 -4.367,4.299 v 10.054 c 0,2.392 1.956,4.333 4.332,4.333 h 37.805 c 2.411,0 4.368,-1.941 4.368,-4.333 z"
           fill="#ffffff"
           id="path989" />
      </g>
    </g>
  </g>
  <g
     transform="matrix(1.3333,0,0,-1.3333,505.66601,1152.4)"
     id="g1003">
    <g
       clip-path="url(#clipPath27864-0)"
       id="g1001">
      <g
         transform="translate(609.3,312.46)"
         id="g999">
        <path
           d="m 0,0 h -0.72 c -0.206,0 -0.377,0 -0.514,-0.212 -0.103,-0.142 -0.103,-0.283 -0.103,-0.46 v -0.566 c 0,-0.178 0,-0.319 0.103,-0.461 0.137,-0.212 0.308,-0.212 0.514,-0.212 H 0 c 0.205,0 0.376,0 0.514,0.212 0.102,0.142 0.102,0.283 0.102,0.461 v 0.566 c 0,0.213 0,0.318 -0.102,0.46 C 0.376,0 0.239,0 0,0 M -5.003,4.779 H -7.95 c -0.548,0 -0.993,-0.46 -0.993,-1.026 V 1.346 h 0.993 v 2.407 h 2.947 V 1.346 h 0.993 v 2.407 c 0,0.566 -0.445,1.026 -0.993,1.026 m 0,-6.973 H -7.95 v 2.407 h -0.993 v -2.407 c 0,-0.567 0.411,-1.027 0.993,-1.027 h 2.947 c 0.582,0 0.993,0.46 0.993,1.027 v 2.407 h -0.993 z m -14.357,0 h -2.947 V 0.39 h -0.994 v -2.584 c 0,-0.567 0.411,-1.027 0.994,-1.027 h 2.947 c 0.583,0 0.994,0.46 0.994,1.027 V 0.39 h -0.994 z m 0,6.973 h -2.947 c -0.548,0 -0.994,-0.46 -0.994,-1.026 V 1.522 h 0.994 v 2.231 h 2.947 V 1.522 h 0.994 v 2.231 c 0,0.566 -0.446,1.026 -0.994,1.026 m 7.195,0 h -2.946 c -0.549,0 -0.994,-0.46 -0.994,-1.026 V 1.522 h 0.994 v 2.231 h 2.946 V 1.522 h 0.994 v 2.231 c 0,0.566 -0.445,1.026 -0.994,1.026 m 0,-6.973 h -2.946 V 0.39 h -0.994 v -2.584 c 0,-0.567 0.445,-1.027 0.994,-1.027 h 2.946 c 0.583,0 0.994,0.46 0.994,1.027 V 0.39 h -0.994 z M 6.51,4.779 H 3.563 C 3.015,4.779 2.569,4.319 2.569,3.753 V 1.169 H 3.563 V 3.753 H 6.51 V 1.169 h 0.994 v 2.584 c 0,0.566 -0.445,1.026 -0.994,1.026 m 0,-6.973 H 3.563 v 2.23 H 2.569 v -2.23 c 0,-0.567 0.446,-1.027 0.994,-1.027 H 6.51 c 0.583,0 0.994,0.46 0.994,1.027 v 2.23 H 6.51 Z m 7.195,0 h -2.946 v 2.053 H 9.765 v -2.053 c 0,-0.567 0.411,-1.027 0.994,-1.027 h 2.946 c 0.583,0 0.994,0.46 0.994,1.027 v 2.053 h -0.994 z m 0,6.973 h -2.946 c -0.548,0 -0.994,-0.46 -0.994,-1.026 V 0.992 h 0.994 v 2.761 h 2.946 V 0.992 h 0.994 v 2.761 c 0,0.566 -0.479,1.026 -0.994,1.026"
           fill="#ffffff"
           id="path997" />
      </g>
    </g>
  </g>
  <g
     transform="matrix(1.3333,0,0,-1.3333,505.66601,1152.4)"
     id="g1011">
    <g
       clip-path="url(#clipPath28028-3)"
       id="g1009">
      <g
         transform="translate(766.75,130.24)"
         id="g1007">
        <path
           d="M 0,0 H -15.75 V 6.693 C -15.75,7.932 -16.763,9 -18.057,9 H -31.443 C -32.682,9 -33.75,7.987 -33.75,6.693 V 0 H -49.5 c -1.237,0 -2.25,-1.013 -2.25,-2.25 V -13.5 l 27,-4.5 27,4.5 V -2.25 C 2.25,-1.013 1.237,0 0,0 m -29.25,4.5 h 9 V 0 h -9 z m 9,-16.875 c 0,-0.619 -0.506,-1.125 -1.125,-1.125 h -6.75 c -0.619,0 -1.125,0.506 -1.125,1.125 v 2.25 c 0,0.619 0.506,1.125 1.125,1.125 h 6.75 c 0.619,0 1.125,-0.506 1.125,-1.125 z m -4.5,-7.875 27,4.5 v -27 C 2.25,-43.987 1.237,-45 0,-45 h -49.5 c -1.237,0 -2.25,1.013 -2.25,2.25 v 27 z"
           fill="#ffffff"
           id="path1005" />
      </g>
    </g>
  </g>
  <g
     transform="matrix(1.3333,0,0,-1.3333,505.66601,1152.4)"
     id="g1019">
    <g
       clip-path="url(#clipPath28200-6)"
       id="g1017">
      <g
         transform="translate(392,82.24)"
         id="g1015">
        <path
           d="M 0,0 -4.35,3.941 C -19.8,17.953 -30,27.2 -30,38.516 -30,47.762 -22.755,55 -13.5,55 -8.28,55 -3.27,52.572 0,48.75 3.27,52.572 8.28,55 13.5,55 22.755,55 30,47.762 30,38.516 30,27.2 19.8,17.953 4.35,3.941 Z"
           fill="#ffffff"
           id="path1013" />
      </g>
    </g>
  </g>
  <g
     transform="matrix(1.3333,0,0,-1.3333,505.66601,1152.4)"
     id="g1027">
    <g
       clip-path="url(#clipPath28364-1)"
       id="g1025">
      <g
         transform="translate(542.77,113.24)"
         id="g1023">
        <path
           d="m 0,0 c 0,2.621 0.885,4.8 2.689,6.604 1.804,1.804 3.983,2.689 6.604,2.689 2.622,0 4.801,-0.885 6.604,-2.689 1.805,-1.804 2.69,-3.983 2.69,-6.604 0,-2.621 -0.885,-4.834 -2.69,-6.639 -1.803,-1.803 -3.982,-2.689 -6.604,-2.689 -2.621,0 -4.809,0.877 -6.604,2.689 C 0.876,-4.809 0,-2.588 0,0 m -13.141,-6.06 c 0.545,-1.94 1.363,-3.846 2.35,-5.617 l -6.128,-7.523 6.944,-6.945 7.524,6.127 c 1.769,-0.986 3.71,-1.803 5.65,-2.382 L 4.221,-32 h 10.008 l 1.022,9.6 c 1.94,0.579 3.778,1.396 5.651,2.382 l 7.49,-6.127 7.012,6.945 -6.162,7.523 c 0.953,1.771 1.805,3.677 2.383,5.617 l 9.601,1.056 V 5.004 l -9.601,1.021 c -0.578,1.941 -1.43,3.745 -2.383,5.618 l 6.162,7.523 -7.012,7.013 -7.49,-6.161 c -1.907,0.953 -3.711,1.803 -5.651,2.382 L 14.229,32 H 4.221 L 3.199,22.4 c -2.008,-0.579 -3.88,-1.429 -5.65,-2.382 l -7.524,6.161 -6.944,-7.013 6.128,-7.523 C -11.744,9.77 -12.562,7.966 -13.141,6.025 L -22.774,5.004 V -5.004 Z"
           fill="#ffffff"
           id="path1021" />
      </g>
    </g>
  </g>
  <g
     transform="matrix(1.3333,0,0,-1.3333,505.66601,1152.4)"
     id="g1033">
    <g
       clip-path="url(#clipPath28984-0)"
       id="g1031">
      <path
         d="m 473,698.24 h 13 v -13 h -13 z m 6.5,-12 c 3.037,0 5.5,2.463 5.5,5.5 0,3.038 -2.463,5.5 -5.5,5.5 -3.037,0 -5.5,-2.462 -5.5,-5.5 0,-3.037 2.463,-5.5 5.5,-5.5"
         fill="#ffffff"
         fill-rule="evenodd"
         id="path1029" />
    </g>
  </g>
  <g
     transform="matrix(1.3333,0,0,-1.3333,505.66601,1152.4)"
     id="g1039">
    <g
       clip-path="url(#clipPath29012-6)"
       id="g1037">
      <path
         d="m 473,676.24 h 13 v -13 h -13 z m 6.5,-12 c 3.037,0 5.5,2.463 5.5,5.5 0,3.038 -2.463,5.5 -5.5,5.5 -3.037,0 -5.5,-2.462 -5.5,-5.5 0,-3.037 2.463,-5.5 5.5,-5.5"
         fill="#ffffff"
         fill-rule="evenodd"
         id="path1035" />
    </g>
  </g>
  <g
     transform="matrix(1.3333,0,0,-1.3333,505.66601,1152.4)"
     id="g1045">
    <g
       clip-path="url(#clipPath29040-3)"
       id="g1043">
      <path
         d="m 467,687.24 h 13 v -13 h -13 z m 6.5,-12 c 3.037,0 5.5,2.463 5.5,5.5 0,3.038 -2.463,5.5 -5.5,5.5 -3.037,0 -5.5,-2.462 -5.5,-5.5 0,-3.037 2.463,-5.5 5.5,-5.5"
         fill="#ffffff"
         fill-rule="evenodd"
         id="path1041" />
    </g>
  </g>
  <g
     transform="matrix(1.3333,0,0,-1.3333,505.66601,1152.4)"
     id="g1051">
    <g
       clip-path="url(#clipPath29068-2)"
       id="g1049">
      <path
         d="m 486,698.24 h 13 v -13 h -13 z m 6.5,-12 c 3.037,0 5.5,2.463 5.5,5.5 0,3.038 -2.463,5.5 -5.5,5.5 -3.037,0 -5.5,-2.462 -5.5,-5.5 0,-3.037 2.463,-5.5 5.5,-5.5"
         fill="#ffffff"
         fill-rule="evenodd"
         id="path1047" />
    </g>
  </g>
  <g
     transform="matrix(1.3333,0,0,-1.3333,505.66601,1152.4)"
     id="g1057">
    <g
       clip-path="url(#clipPath29096-0)"
       id="g1055">
      <path
         d="m 486,676.24 h 13 v -13 h -13 z m 6.5,-12 c 3.037,0 5.5,2.463 5.5,5.5 0,3.038 -2.463,5.5 -5.5,5.5 -3.037,0 -5.5,-2.462 -5.5,-5.5 0,-3.037 2.463,-5.5 5.5,-5.5"
         fill="#ffffff"
         fill-rule="evenodd"
         id="path1053" />
    </g>
  </g>
  <g
     transform="matrix(1.3333,0,0,-1.3333,505.66601,1152.4)"
     id="g1063">
    <g
       clip-path="url(#clipPath29124-6)"
       id="g1061">
      <path
         d="m 480,687.24 h 13 v -13 h -13 z m 6.5,-12 c 3.037,0 5.5,2.463 5.5,5.5 0,3.038 -2.463,5.5 -5.5,5.5 -3.037,0 -5.5,-2.462 -5.5,-5.5 0,-3.037 2.463,-5.5 5.5,-5.5"
         fill="#ffffff"
         fill-rule="evenodd"
         id="path1059" />
    </g>
  </g>
  <g
     transform="matrix(1.3333,0,0,-1.3333,505.66601,1152.4)"
     id="g1069">
    <g
       clip-path="url(#clipPath29152-1)"
       id="g1067">
      <path
         d="m 493,687.24 h 13 v -13 h -13 z m 6.5,-12 c 3.037,0 5.5,2.463 5.5,5.5 0,3.038 -2.463,5.5 -5.5,5.5 -3.037,0 -5.5,-2.462 -5.5,-5.5 0,-3.037 2.463,-5.5 5.5,-5.5"
         fill="#ffffff"
         fill-rule="evenodd"
         id="path1065" />
    </g>
  </g>
  <g
     transform="matrix(1.3333,0,0,-1.3333,505.66601,1152.4)"
     id="g1075">
    <g
       clip-path="url(#clipPath29252-5)"
       id="g1073">
      <path
         d="m 161,327.24 h 73 v -28 h -73 z m 14,-5 h 45 c 4.971,0 9,-4.029 9,-9 0,-4.97 -4.029,-9 -9,-9 h -45 c -4.971,0 -9,4.03 -9,9 0,4.971 4.029,9 9,9"
         fill="#ffffff"
         fill-rule="evenodd"
         id="path1071" />
    </g>
  </g>
  <g
     transform="matrix(1.3333,0,0,-1.3333,505.66601,1152.4)"
     id="g1081">
    <g
       clip-path="url(#clipPath29280-5)"
       id="g1079">
      <path
         d="m 162,302.24 h 73 v -28 h -73 z m 14,-5 h 45 c 4.971,0 9,-4.029 9,-9 0,-4.97 -4.029,-9 -9,-9 h -45 c -4.971,0 -9,4.03 -9,9 0,4.971 4.029,9 9,9"
         fill="#ffffff"
         fill-rule="evenodd"
         id="path1077" />
    </g>
  </g>
  <g
     transform="matrix(1.3333,0,0,-1.3333,505.66601,1152.4)"
     id="g1089">
    <g
       clip-path="url(#clipPath29400-4)"
       id="g1087">
      <g
         transform="translate(104.49,129.57)"
         id="g1085">
        <path
           d="m 0,0 c -4.298,-0.338 -8.165,-0.637 -11.604,-0.898 -1.458,-0.113 -2.906,-0.225 -4.344,-0.336 -1.44,-0.114 -2.747,-0.207 -3.924,-0.282 -1.178,-0.074 -2.168,-0.149 -2.972,-0.224 -0.803,-0.074 -1.28,-0.113 -1.428,-0.113 -0.188,-0.037 -0.403,-0.065 -0.645,-0.084 -0.244,-0.018 -0.459,-0.065 -0.645,-0.139 l -0.673,-0.225 -2.467,1.121 c 0.187,0.263 0.412,0.506 0.674,0.731 0.185,0.186 0.42,0.364 0.7,0.533 0.28,0.168 0.569,0.27 0.868,0.309 0.225,0.037 0.822,0.093 1.795,0.168 0.971,0.074 2.167,0.168 3.588,0.28 0,0.486 0.047,1.15 0.14,1.992 0.092,0.841 0.317,1.674 0.672,2.497 0.356,0.822 0.869,1.553 1.541,2.188 0.673,0.636 1.589,1.009 2.747,1.123 1.346,0.111 2.439,-0.094 3.281,-0.618 0.84,-0.523 1.494,-1.169 1.961,-1.935 0.467,-0.768 0.795,-1.553 0.981,-2.358 0.187,-0.804 0.299,-1.43 0.337,-1.878 1.606,0.111 2.942,0.205 4.008,0.279 1.064,0.076 1.653,0.131 1.765,0.169 0.412,0.038 0.87,-0.038 1.373,-0.225 0.505,-0.186 0.907,-0.43 1.206,-0.729 C -0.99,1.271 -0.888,1.158 -0.757,1.01 -0.626,0.859 -0.505,0.71 -0.392,0.561 -0.243,0.41 -0.112,0.224 0,0 m -15.528,6.676 c -0.709,-0.074 -1.28,-0.326 -1.709,-0.757 -0.43,-0.431 -0.758,-0.944 -0.982,-1.543 -0.223,-0.599 -0.374,-1.206 -0.448,-1.823 -0.075,-0.617 -0.112,-1.114 -0.112,-1.488 1.159,0.076 2.344,0.169 3.559,0.281 1.215,0.112 2.402,0.206 3.56,0.281 -0.037,0.336 -0.121,0.804 -0.252,1.402 -0.131,0.599 -0.346,1.178 -0.645,1.74 -0.299,0.561 -0.691,1.028 -1.176,1.403 -0.487,0.373 -1.084,0.542 -1.795,0.504 m 21.919,-41.24 c 0.186,-1.047 0.159,-1.917 -0.084,-2.61 -0.244,-0.691 -0.925,-1.168 -2.046,-1.43 -0.374,-0.113 -1.187,-0.299 -2.439,-0.562 -1.252,-0.262 -2.747,-0.579 -4.485,-0.953 -1.737,-0.374 -3.597,-0.777 -5.577,-1.207 -1.982,-0.43 -3.878,-0.832 -5.691,-1.205 -1.812,-0.375 -3.437,-0.711 -4.877,-1.011 -1.438,-0.3 -2.457,-0.505 -3.054,-0.617 -1.383,-0.3 -2.402,-0.206 -3.055,0.28 -0.654,0.486 -0.982,1.217 -0.982,2.189 v 34.452 c 0,0.934 0.197,1.691 0.589,2.271 0.393,0.58 0.962,0.889 1.709,0.926 0.299,0 0.664,0.02 1.094,0.057 0.43,0.037 0.85,0.074 1.261,0.112 0.485,0.037 0.991,0.075 1.514,0.112 l 0.504,-8.023 c -0.037,-0.038 -0.112,-0.057 -0.224,-0.057 -0.074,0 -0.187,-0.01 -0.336,-0.027 -0.15,-0.02 -0.318,-0.029 -0.505,-0.029 -0.784,-0.075 -1.159,-0.542 -1.121,-1.403 0.038,-0.336 0.075,-0.805 0.112,-1.402 0.037,-0.599 0.066,-1.225 0.084,-1.88 0.019,-0.655 0.047,-1.29 0.084,-1.907 0.037,-0.617 0.074,-1.114 0.113,-1.488 0.037,-0.711 0.149,-1.112 0.336,-1.206 0.186,-0.093 0.598,-0.14 1.233,-0.14 h 0.785 c 0.225,0 0.439,0.01 0.645,0.027 0.205,0.02 0.439,0.038 0.701,0.057 0.261,0.018 0.597,0.047 1.008,0.084 0.785,0.075 1.29,0.243 1.513,0.506 0.225,0.261 0.319,0.654 0.281,1.177 0,0.262 -0.028,0.721 -0.084,1.375 -0.056,0.655 -0.113,1.337 -0.168,2.048 -0.056,0.71 -0.103,1.384 -0.14,2.02 -0.037,0.635 -0.074,1.085 -0.112,1.346 -0.076,0.45 -0.168,0.768 -0.281,0.954 -0.112,0.187 -0.318,0.262 -0.617,0.224 -0.148,0 -0.299,-0.009 -0.447,-0.027 -0.151,-0.019 -0.3,-0.028 -0.449,-0.028 h -0.449 l -0.505,7.967 c 2.542,0.225 4.877,0.412 7.008,0.561 0.897,0.076 1.803,0.15 2.719,0.224 0.916,0.076 1.766,0.141 2.551,0.198 0.785,0.055 1.476,0.111 2.074,0.168 0.598,0.056 1.046,0.103 1.346,0.14 1.083,0.074 1.942,-0.113 2.578,-0.561 0.635,-0.449 1.027,-1.122 1.178,-2.021 0.037,-0.299 0.168,-1.196 0.391,-2.693 0.224,-1.496 0.505,-3.291 0.841,-5.386 0.336,-2.095 0.691,-4.349 1.065,-6.761 0.374,-2.413 0.729,-4.667 1.066,-6.761 0.336,-2.095 0.625,-3.891 0.869,-5.387 0.242,-1.496 0.4,-2.395 0.476,-2.693 m -35.261,-4.881 c 0,-0.525 0.028,-0.983 0.084,-1.375 0.057,-0.393 0.122,-0.701 0.197,-0.926 0.074,-0.299 0.168,-0.524 0.279,-0.674 -0.933,0.486 -1.831,0.973 -2.69,1.459 -0.747,0.412 -1.495,0.832 -2.242,1.263 -0.747,0.43 -1.383,0.795 -1.906,1.094 -0.972,0.561 -1.635,1.235 -1.99,2.02 -0.355,0.785 -0.439,1.608 -0.253,2.469 0.076,0.224 0.244,1.047 0.505,2.469 0.262,1.421 0.588,3.142 0.981,5.162 0.392,2.019 0.803,4.189 1.233,6.508 0.43,2.32 0.831,4.49 1.205,6.509 0.374,2.02 0.701,3.76 0.982,5.218 0.28,1.459 0.439,2.319 0.476,2.581 0.15,0.823 0.42,1.459 0.813,1.908 0.392,0.449 0.849,0.561 1.373,0.336 0.299,-0.149 0.543,-0.317 0.728,-0.504 0.114,-0.113 0.188,-0.207 0.225,-0.281 z"
           fill="#ffffff"
           id="path1083" />
      </g>
    </g>
  </g>
  <g
     id="g2481"
     transform="matrix(1.4993753,0,0,1.4993753,-3.9850072,-0.99375348)">
    <g
       id="g2479">
      <!-- color: #19a0e3 -->
      <g
         id="g2477">
        <path
           d="m 24,10 c -1.07,2.617 -1.715,4.332 -2.902,6.875 0.727,0.77 1.621,1.672 3.078,2.688 C 22.61,18.922 21.547,18.274 20.75,17.606 19.227,20.782 16.84,25.305 12,34.001 15.805,31.806 18.754,30.45 21.504,29.935 21.383,29.427 21.316,28.88 21.32,28.306 l 0.004,-0.121 c 0.063,-2.438 1.328,-4.313 2.832,-4.184 1.5,0.125 2.668,2.207 2.609,4.645 -0.012,0.457 -0.063,0.898 -0.156,1.309 2.719,0.531 5.637,1.887 9.391,4.055 -0.738,-1.363 -1.402,-2.598 -2.031,-3.766 -0.992,-0.77 -2.031,-1.77 -4.145,-2.852 1.453,0.379 2.492,0.813 3.305,1.301 C 26.715,16.752 26.195,15.17 23.996,10.009 m 0.004,0"
           style="fill:#f9f9f9;fill-opacity:1;fill-rule:evenodd;stroke:none"
           id="path2475" />
      </g>
    </g>
  </g>
  <circle
     cx="-1191.9373"
     cy="-1279.3"
     r="0"
     fill="#5e4aa6"
     id="circle1455" />
  <circle
     cx="-1073.4832"
     cy="-1318.599"
     r="0"
     id="circle1457"
     style="fill:#5e4aa6;stroke-width:1.00001" />
  <circle
     cx="26.05455"
     cy="-53.108505"
     r="0"
     fill-rule="evenodd"
     id="circle1459"
     style="fill:#5e4aa6;stroke-width:1.00001" />
  <circle
     cx="-994.98096"
     cy="-1390.1091"
     r="0"
     id="circle1461"
     style="fill:#5e4aa6;stroke-width:1.00001" />
  <circle
     cx="104.55382"
     cy="-124.58187"
     r="0"
     fill-rule="evenodd"
     id="circle1463"
     style="fill:#5e4aa6;stroke-width:1.00001" />
</svg>
