<?xml version="1.0" encoding="UTF-8" standalone="no"?>
<svg
   width="64"
   height="64"
   viewBox="0 0 16.933 16.933"
   version="1.1"
   id="svg1"
   sodipodi:docname="distributor-logo-chakra.svg"
   inkscape:version="1.3.2 (091e20ef0f, 2023-11-25, custom)"
   xmlns:inkscape="http://www.inkscape.org/namespaces/inkscape"
   xmlns:sodipodi="http://sodipodi.sourceforge.net/DTD/sodipodi-0.dtd"
   xmlns="http://www.w3.org/2000/svg"
   xmlns:svg="http://www.w3.org/2000/svg">
  <defs
     id="defs1">
    <linearGradient
       id="linearGradient1053-6"
       x1="-127"
       x2="-72"
       y1="60"
       y2="5"
       gradientTransform="matrix(0.26458,0,0,0.26458,34.792499,-0.13510002)"
       gradientUnits="userSpaceOnUse">
      <stop
         stop-color="#32507d"
         offset="0"
         id="stop1" />
      <stop
         stop-color="#2878b9"
         stop-opacity=".99608"
         offset="1"
         id="stop2" />
    </linearGradient>
    <filter
       id="filter1057-3"
       x="-0.026999999"
       y="-0.026999999"
       width="1.054"
       height="1.054"
       color-interpolation-filters="sRGB">
      <feGaussianBlur
         stdDeviation="0.61875"
         id="feGaussianBlur1" />
    </filter>
  </defs>
  <sodipodi:namedview
     id="namedview1"
     pagecolor="#ffffff"
     bordercolor="#000000"
     borderopacity="0.25"
     inkscape:showpageshadow="2"
     inkscape:pageopacity="0.0"
     inkscape:pagecheckerboard="0"
     inkscape:deskcolor="#d1d1d1"
     inkscape:zoom="4.3531261"
     inkscape:cx="10.567119"
     inkscape:cy="9.1887988"
     inkscape:window-width="1920"
     inkscape:window-height="995"
     inkscape:window-x="0"
     inkscape:window-y="0"
     inkscape:window-maximized="1"
     inkscape:current-layer="svg1" />
  <rect
     transform="matrix(0.26458,0,0,0.26458,-6.016263e-5,-6.016263e-5)"
     x="4.5"
     y="4.5"
     width="55"
     height="55"
     ry="15"
     fill="#141414"
     filter="url(#filter1057-3)"
     opacity="0.3"
     stroke-linecap="round"
     stroke-width="2.7444"
     id="rect8" />
  <rect
     x="1.1905"
     y="1.1905"
     width="14.552"
     height="14.552"
     ry="3.9686999"
     fill="url(#linearGradient1053-6)"
     stroke-linecap="round"
     stroke-width="0.72611"
     id="rect9"
     style="fill:url(#linearGradient1053-6)" />
  <path
     fill="#fff"
     fill-rule="evenodd"
     d="M8.665 4.353c-.944.03 2.513 4.66-.149 4.365 2.22.597 2.728-2.186 2.275-3.547-.45-1.348-.683-.507-2.021-.806a.421.421 0 0 0-.105-.012zm-2.646.645c-1.459-.002-.707.474-1.414 1.618-.675 1.092 5.333-.864 4.185 1.58C10.06 6.33 7.493 5 6.02 4.998zm1.027 2.09c-1.167-.001-2.342 1.286-2.67 2.264-.454 1.347.245.8 1.146 1.806.861.96.802-5.192 2.84-3.377-.403-.492-.859-.691-1.316-.692zm5.059.219c-.725-.055-3.695 3.664-4.185 1.32.1 2.234 2.983 1.844 4.176 1.005 1.182-.832.286-.787.165-2.116-.012-.139-.067-.202-.156-.21zm-4.28.74c-2.158.785-.885 3.326.306 4.168 1.18.835.86.02 2.123-.5 1.207-.499-4.837-2.346-2.43-3.667z"
     id="path1" />
</svg>
