<?xml version="1.0" encoding="UTF-8" standalone="no"?>
<svg
   width="64"
   height="64"
   viewBox="0 0 16.933 16.933"
   version="1.1"
   id="svg1"
   sodipodi:docname="distributor-logo-deepin.svg"
   inkscape:version="1.3.2 (091e20ef0f, 2023-11-25, custom)"
   xmlns:inkscape="http://www.inkscape.org/namespaces/inkscape"
   xmlns:sodipodi="http://sodipodi.sourceforge.net/DTD/sodipodi-0.dtd"
   xmlns:xlink="http://www.w3.org/1999/xlink"
   xmlns="http://www.w3.org/2000/svg"
   xmlns:svg="http://www.w3.org/2000/svg">
  <defs
     id="defs1">
    <filter
       inkscape:collect="always"
       style="color-interpolation-filters:sRGB"
       id="filter1057"
       x="-0.026999999"
       width="1.054"
       y="-0.026999999"
       height="1.054">
      <feGaussianBlur
         inkscape:collect="always"
         stdDeviation="0.61875"
         id="feGaussianBlur1059" />
    </filter>
    <linearGradient
       inkscape:collect="always"
       xlink:href="#linearGradient1051"
       id="linearGradient1053"
       x1="-127"
       y1="60"
       x2="-72"
       y2="5"
       gradientUnits="userSpaceOnUse"
       gradientTransform="matrix(0.26457812,0,0,0.26457812,34.792023,-0.13493397)" />
    <linearGradient
       inkscape:collect="always"
       id="linearGradient1051">
      <stop
         style="stop-color:#32d7ff;stop-opacity:1"
         offset="0"
         id="stop1047" />
      <stop
         style="stop-color:#329bff;stop-opacity:1"
         offset="1"
         id="stop1049" />
    </linearGradient>
  </defs>
  <sodipodi:namedview
     id="namedview1"
     pagecolor="#ffffff"
     bordercolor="#000000"
     borderopacity="0.25"
     inkscape:showpageshadow="2"
     inkscape:pageopacity="0.0"
     inkscape:pagecheckerboard="0"
     inkscape:deskcolor="#d1d1d1"
     inkscape:zoom="3.078125"
     inkscape:cx="-20.142132"
     inkscape:cy="10.720812"
     inkscape:window-width="1920"
     inkscape:window-height="995"
     inkscape:window-x="0"
     inkscape:window-y="0"
     inkscape:window-maximized="1"
     inkscape:current-layer="svg1" />
  <rect
     ry="15"
     y="4.4999995"
     x="4.4999995"
     height="55"
     width="55"
     id="rect1055"
     style="opacity:0.3;fill:#141414;fill-opacity:1;stroke-width:2.74436;stroke-linecap:round;filter:url(#filter1057)"
     transform="scale(0.26457812)" />
  <rect
     style="fill:url(#linearGradient1053);fill-opacity:1;stroke-width:0.726098;stroke-linecap:round"
     id="rect1045"
     width="14.551796"
     height="14.551796"
     x="1.1906021"
     y="1.1906021"
     ry="3.9686716" />
  <path
     fill="#fff"
     d="M8.2 4.764c-.451.01-.42.091-.611.48-.308.624-.523 1.53-.479 2.065.047.571.2.944.497 1.222.355.338.79.294 1.156-.099.329-.353.45-.72.48-1.52.017-.506.027-.567.065-.48.146.337.184 1.128.083 1.52-.084.325-.294.721-.463.877-.223.205-.463.298-.793.313-.222.01-.309.007-.48-.049-.438-.146-.979-.564-1.289-.975-.441-.583-.88-1.768-.992-2.71a1.904 1.904 0 0 0-.065-.363c-.079-.09-.383.288-.479.595-.062.197-.066.29-.066 2.033v1.835l.083.05c.117.075.627.228 1.043.313.316.065.443.083 1.19.083.747 0 .887-.02 1.174-.083.468-.103.817-.27 1.108-.562.409-.41.56-.826.562-1.47 0-.429-.06-.771-.233-1.109-.061-.123-.122-.224-.116-.231.039-.039.466.471.563.677.612 1.295.32 2.351-.943 3.404-.56.467-1.528 1.108-2.083 1.388-.194.097-.23.134-.182.182.012.012.978.022 2.148.016l2.133-.016.182-.083c.368-.176.6-.436.71-.794.064-.204.066-.297.066-2.809 0-2.639-.004-2.866-.115-2.909-.026-.009-.275.019-.547.065-.3.054-.724.097-1.09.117-.64.033-.962.095-1.34.248-.35.143-.553.258-.744.413-.17.14-.194.158-.248.381-.076.307-.123.444-.249.611-.094.122-.185.182-.184.116.005-.118.112-.488.216-.695.307-.61.707-1.047 1.488-1.636.24-.183.446-.34.446-.365 0-.036-.174-.05-.96-.05-.28 0-.494-.002-.644 0m.644 1.556c.05 0 .051.05-.016.546-.072.522-.26.94-.497 1.19-.167.177-.348.224-.478.131a.53.53 0 0 1-.165-.313c0-.042.015-.044.065-.016.1.053.142.041.265-.066.205-.181.42-.7.53-1.29.011-.068.2-.184.296-.184m0 0"
     id="path1" />
</svg>
