<?xml version="1.0" encoding="UTF-8" standalone="no"?>
<svg
   width="64"
   height="64"
   viewBox="0 0 16.933 16.933"
   version="1.1"
   id="svg3"
   sodipodi:docname="distributor-logo-rhel.svg"
   inkscape:version="1.3.2 (091e20ef0f, 2023-11-25, custom)"
   xmlns:inkscape="http://www.inkscape.org/namespaces/inkscape"
   xmlns:sodipodi="http://sodipodi.sourceforge.net/DTD/sodipodi-0.dtd"
   xmlns:xlink="http://www.w3.org/1999/xlink"
   xmlns="http://www.w3.org/2000/svg"
   xmlns:svg="http://www.w3.org/2000/svg">
  <defs
     id="defs3">
    <filter
       inkscape:collect="always"
       style="color-interpolation-filters:sRGB"
       id="filter1057"
       x="-0.026999999"
       width="1.054"
       y="-0.026999999"
       height="1.054">
      <feGaussianBlur
         inkscape:collect="always"
         stdDeviation="0.61875"
         id="feGaussianBlur1059" />
    </filter>
    <linearGradient
       inkscape:collect="always"
       xlink:href="#linearGradient1051"
       id="linearGradient1053"
       x1="-127"
       y1="60"
       x2="-72"
       y2="5"
       gradientUnits="userSpaceOnUse"
       gradientTransform="matrix(0.26457812,0,0,0.26457812,34.792022,-0.13493413)" />
    <linearGradient
       inkscape:collect="always"
       id="linearGradient1051">
      <stop
         style="stop-color:#dee0e2;stop-opacity:1"
         offset="0"
         id="stop1047" />
      <stop
         style="stop-color:#f1f3f5;stop-opacity:0.99607843"
         offset="1"
         id="stop1049" />
    </linearGradient>
  </defs>
  <sodipodi:namedview
     id="namedview3"
     pagecolor="#ffffff"
     bordercolor="#000000"
     borderopacity="0.25"
     inkscape:showpageshadow="2"
     inkscape:pageopacity="0.0"
     inkscape:pagecheckerboard="0"
     inkscape:deskcolor="#d1d1d1"
     inkscape:zoom="4.3531261"
     inkscape:cx="17.228998"
     inkscape:cy="31.012196"
     inkscape:window-width="1920"
     inkscape:window-height="995"
     inkscape:window-x="0"
     inkscape:window-y="0"
     inkscape:window-maximized="1"
     inkscape:current-layer="svg3" />
  <rect
     ry="15"
     y="4.4999995"
     x="4.4999995"
     height="55"
     width="55"
     id="rect1055"
     style="opacity:0.3;fill:#141414;fill-opacity:1;stroke-width:2.74436;stroke-linecap:round;filter:url(#filter1057)"
     transform="scale(0.26457812)" />
  <rect
     style="fill:url(#linearGradient1053);fill-opacity:1;stroke-width:0.726098;stroke-linecap:round"
     id="rect1045"
     width="14.551796"
     height="14.551796"
     x="1.1906021"
     y="1.1906021"
     ry="3.9686716" />
  <g
     stroke-width=".833"
     id="g3">
    <path
       fill="#2c2c2c"
       d="M8.467 3.699a4.76 4.76 0 0 0-4.763 4.763c0 .518.089 1.033.257 1.524.51-.007.888-.077 1.153-.206.458-.224.548.5.97.466.476-.04.017-.352-.16-.561-.23-.27-.314-.753.192-.798.384-.033.613.654.743.562.338-.238.51.269.76.46.33.253.77.314 1.124.16.359-.156.522.15.948-.03.315-.132.326.196.925-.046-.017.283-.118.557-.172.822-.065.317-.58 1.006-.84 1.314.294-.071.531-.174.57-.247.302-.563.812-.328.814-.659 0-.221.56-.221.654-.221.171 0 .524.002.815.051A4.756 4.756 0 0 0 8.467 3.7zm1.03 6.91c-.061.129-.23.243-.338.133-.12-.123-.468-.136-.45.061.014.15.075.001.247.125.258.186.743.067.54-.317zm3.574.075a.159.159 0 1 0 0 .318.159.159 0 0 0 0-.318zm0 .032a.127.127 0 1 1 0 .254.127.127 0 0 1 0-.254zm-.063.047v.16h.029v-.063h.026l.038.062h.033l-.04-.066c.024-.009.036-.023.036-.046 0-.031-.023-.047-.068-.047zm.029.026h.021c.022 0 .042.003.042.023 0 .021-.023.022-.049.022h-.014v-.045z"
       id="path2" />
    <path
       fill="#f03030"
       d="M11.083 7.191c-.017.204-.294.565-.427.44.276-.36.16-.838.012-1.229-.204-.538-.36-1.146-.796-1.534-.402-.359-.989-.173-1.469-.054-.512.128-1.096-.302-1.567.025-.39.271-.331.818-.463 1.237-.137.43.341.715.695.837.45.155.986.105 1.364.41.208.17.352.51.352.828-.952 0-1.924-.386-2.526-.973-.202-.203.054-.615-.396-.615-.38 0-.757-.02-1.037.213-.286.238-.173.695.083.943.834.812 1.888 1.338 2.97 1.694 1.124.37 2.4.493 3.509.003.507-.225.994-.762.871-1.355-.11-.535-.7-.76-1.175-.87zM8.616 5.057c.303-.203.841-.304 1.075-.025.276.33-.469.5-.7.333.13-.032.407-.287.09-.317-.163-.02-.328 0-.465.01zm-.575.895c-.383-.043-.718.401-1.076.046-.205-.203-.177-.68.158-.413.333.265.912-.198 1.16.196.092.144-.122.185-.242.171z"
       id="path3" />
  </g>
</svg>
