<?xml version="1.0" encoding="UTF-8" standalone="no"?>
<svg
   width="64"
   height="64"
   version="1.1"
   id="svg3"
   sodipodi:docname="dnieremote.svg"
   inkscape:version="1.3.2 (091e20ef0f, 2023-11-25, custom)"
   xmlns:inkscape="http://www.inkscape.org/namespaces/inkscape"
   xmlns:sodipodi="http://sodipodi.sourceforge.net/DTD/sodipodi-0.dtd"
   xmlns="http://www.w3.org/2000/svg"
   xmlns:svg="http://www.w3.org/2000/svg">
  <defs
     id="defs3">
    <filter
       id="filter1057"
       x="-0.026999999"
       y="-0.026999999"
       width="1.054"
       height="1.054"
       color-interpolation-filters="sRGB">
      <feGaussianBlur
         stdDeviation="0.61875"
         id="feGaussianBlur1" />
    </filter>
    <linearGradient
       id="linearGradient1053"
       x1="-127"
       x2="-72"
       y1="60"
       y2="5"
       gradientTransform="matrix(1.0000071,0,0,1.0000071,131.50029,-0.51001925)"
       gradientUnits="userSpaceOnUse">
      <stop
         stop-color="#738db8"
         offset="0"
         id="stop1" />
      <stop
         stop-color="#a7b9d9"
         offset="1"
         id="stop2" />
    </linearGradient>
  </defs>
  <sodipodi:namedview
     id="namedview3"
     pagecolor="#ffffff"
     bordercolor="#000000"
     borderopacity="0.25"
     inkscape:showpageshadow="2"
     inkscape:pageopacity="0.0"
     inkscape:pagecheckerboard="0"
     inkscape:deskcolor="#d1d1d1"
     inkscape:zoom="4.3531261"
     inkscape:cx="-38.822675"
     inkscape:cy="22.282837"
     inkscape:window-width="1920"
     inkscape:window-height="995"
     inkscape:window-x="0"
     inkscape:window-y="0"
     inkscape:window-maximized="1"
     inkscape:current-layer="svg3" />
  <rect
     transform="matrix(1.0000071,0,0,1.0000071,-2.2781468e-4,-2.2781468e-4)"
     x="4.5"
     y="4.5"
     width="55"
     height="55"
     ry="15"
     fill="#141414"
     filter="url(#filter1057)"
     opacity="0.3"
     stroke-linecap="round"
     stroke-width="2.7444"
     id="rect2" />
  <rect
     x="4.4996166"
     y="4.4996166"
     width="55.000767"
     height="55.000767"
     ry="15.000106"
     stroke-linecap="round"
     stroke-width="2.74437"
     id="rect3"
     style="fill:#5a6e7a;fill-opacity:1" />
  <path
     fill="#fff"
     d="M35.359 40.048q-.384 0-.61.286-.226.286-.226.78 0 .492.225.778.227.286.611.286t.607-.286q.225-.286.225-.778 0-.494-.225-.78-.223-.286-.607-.286zm0-.286q.548 0 .876.368.328.366.328.984 0 .616-.328.984-.328.367-.876.367-.55 0-.88-.367-.327-.366-.327-.984t.328-.984q.33-.368.879-.368zm-1.602.248v.371q-.178-.165-.38-.247-.2-.083-.428-.083-.446 0-.684.274-.237.273-.237.79 0 .514.237.788.238.272.684.272.227 0 .428-.082.202-.082.38-.248v.368q-.185.126-.392.189-.206.063-.437.063-.591 0-.931-.362-.34-.363-.34-.989 0-.628.34-.99t.931-.362q.234 0 .44.063.208.06.39.185zm-3.004-.201h.352v2.605h-.352zm-2.673 0h.474l1.155 2.18v-2.18h.342v2.605h-.474l-1.156-2.18v2.18h-.341zm-1.756.239q-.384 0-.61.286-.226.286-.226.78 0 .492.226.778.226.286.61.286t.607-.286q.225-.286.225-.778 0-.494-.225-.78-.223-.286-.607-.286zm0-.286q.548 0 .876.368.328.366.328.984 0 .616-.328.984-.328.367-.876.367-.55 0-.88-.367-.327-.366-.327-.984t.328-.984q.33-.368.88-.368zm.096-.661h.323l-.398.46h-.267zm-2.4 2.092q.113.038.22.164.107.125.215.345l.358.712h-.378l-.334-.668q-.129-.262-.251-.348-.12-.085-.33-.085h-.384v1.1h-.352V39.81h.796q.446 0 .666.187.22.186.22.563 0 .246-.115.409-.114.162-.332.225zm-.884-1.094v.924h.444q.254 0 .383-.117.131-.118.131-.347t-.13-.344q-.13-.116-.384-.116zm-2.896-.29h2.204v.297h-.925v2.308h-.354v-2.308h-.925zm-.183.2v.372q-.178-.166-.38-.248-.201-.082-.428-.082-.447 0-.684.274-.237.273-.237.79 0 .514.237.788.237.272.684.272.227 0 .427-.082.203-.082.38-.248v.368q-.184.126-.392.189-.206.063-.436.063-.592 0-.932-.362-.34-.363-.34-.989 0-.628.34-.99t.932-.362q.234 0 .44.063.207.06.389.185zm-4.209-.2h1.647v.297h-1.294v.77h1.24v.297h-1.24v.944h1.326v.297h-1.679zm-1.99 0h.352v2.308h1.268v.297h-1.62zm-2.258 0h1.647v.297h-1.295v.77h1.24v.297h-1.24v.944h1.326v.297H11.6zM33.905 30.219h2.658v8.191h-2.658zm-2.465 3.203v4.988h-2.673v-3.817q0-1.06-.052-1.463-.045-.402-.163-.593-.156-.256-.424-.395-.267-.146-.609-.146-.831 0-1.306.636-.476.63-.476 1.748v4.03H23.08V30.22h2.658v1.2q.602-.717 1.278-1.054.675-.343 1.492-.343 1.44 0 2.183.87.75.87.75 2.53zm-13.588-2.004V27.03h2.673v11.38h-2.673v-1.184q-.55.724-1.21 1.06-.661.336-1.53.336-1.537 0-2.525-1.2-.987-1.206-.987-3.1t.988-3.094q.987-1.206 2.524-1.206.861 0 1.522.343.668.337 1.218 1.054zM16.1 36.721q.853 0 1.299-.615.453-.614.453-1.784t-.453-1.785q-.446-.614-1.3-.614-.846 0-1.299.614-.445.615-.445 1.785t.445 1.784q.453.615 1.3.615z"
     id="path1" />
  <path
     fill="#f69728"
     d="M35.241 26.385a1.337 1.337 0 1 0 0 2.674 1.337 1.337 0 0 0 0-2.674zm3.267-1.617c-.806-.892-1.971-1.45-3.267-1.45s-2.461.56-3.267 1.45l.005.004a.958.958 0 0 0 .685 1.627c.32 0 .604-.159.778-.402a2.478 2.478 0 0 1 1.8-.774c.706 0 1.344.294 1.796.767a.957.957 0 1 0 1.468-1.216zm4.25-4.262.004-.003c-1.887-2.027-4.558-3.293-7.521-3.293s-5.636 1.266-7.521 3.293l.008.008a.958.958 0 0 0 .672 1.638.953.953 0 0 0 .678-.283l.002.001c1.536-1.686 3.728-2.741 6.161-2.741s4.625 1.055 6.161 2.741l.006-.006a.955.955 0 0 0 1.639-.672.95.95 0 0 0-.288-.683zm-2.21 2.106c-1.329-1.449-3.215-2.355-5.307-2.355-2.092 0-3.977.904-5.305 2.353a.917.917 0 0 0 .56 1.642.91.91 0 0 0 .668-.293l.006.006a5.507 5.507 0 0 1 8.142 0l.004-.005a.91.91 0 0 0 .669.293c.505 0 .914-.41.914-.917a.922.922 0 0 0-.352-.724z"
     id="path2" />
  <path
     fill="#fdfdfd"
     d="M42.415 42.092a.372.372 0 0 1-.372.372.372.372 0 0 1-.372-.372.372.372 0 0 1 .372-.372.372.372 0 0 1 .372.372zm-2.496 0a.372.372 0 0 1-.372.372.372.372 0 0 1-.373-.372.372.372 0 0 1 .373-.372.372.372 0 0 1 .372.372zm12.482 0a.372.372 0 0 1-.372.372.372.372 0 0 1-.373-.372.372.372 0 0 1 .373-.372.372.372 0 0 1 .372.372zm-2.497 0a.372.372 0 0 1-.372.372.372.372 0 0 1-.372-.372.372.372 0 0 1 .372-.372.372.372 0 0 1 .372.372zm-2.496 0a.372.372 0 0 1-.372.372.372.372 0 0 1-.372-.372.372.372 0 0 1 .372-.372.372.372 0 0 1 .372.372zm-2.496 0a.372.372 0 0 1-.372.372.372.372 0 0 1-.373-.372.372.372 0 0 1 .373-.372.372.372 0 0 1 .372.372zm-2.496-2.496a.372.372 0 0 1-.373.372.372.372 0 0 1-.372-.372.372.372 0 0 1 .372-.372.372.372 0 0 1 .373.372zm-2.497 0a.372.372 0 0 1-.372.372.372.372 0 0 1-.372-.372.372.372 0 0 1 .372-.372.372.372 0 0 1 .372.372zm12.482 0a.372.372 0 0 1-.372.372.372.372 0 0 1-.372-.372.372.372 0 0 1 .372-.372.372.372 0 0 1 .372.372zm-2.496 0a.372.372 0 0 1-.372.372.372.372 0 0 1-.372-.372.372.372 0 0 1 .372-.372.372.372 0 0 1 .372.372zm-1.752 0a1.117 1.117 0 0 1-1.117 1.116 1.117 1.117 0 0 1-1.116-1.116 1.117 1.117 0 0 1 1.116-1.117 1.117 1.117 0 0 1 1.117 1.117zm-2.496 0a1.117 1.117 0 0 1-1.117 1.116 1.117 1.117 0 0 1-1.116-1.116 1.117 1.117 0 0 1 1.116-1.117 1.117 1.117 0 0 1 1.117 1.117zm-2.497-2.497a1.117 1.117 0 0 1-1.116 1.117 1.117 1.117 0 0 1-1.117-1.117 1.117 1.117 0 0 1 1.117-1.116 1.117 1.117 0 0 1 1.116 1.116zm-3.24 0a.372.372 0 0 1-.372.373.372.372 0 0 1-.373-.373.372.372 0 0 1 .373-.372.372.372 0 0 1 .372.372zm12.482 0a.372.372 0 0 1-.372.373.372.372 0 0 1-.373-.373.372.372 0 0 1 .373-.372.372.372 0 0 1 .372.372zm-2.497 0a.372.372 0 0 1-.372.373.372.372 0 0 1-.372-.373.372.372 0 0 1 .372-.372.372.372 0 0 1 .372.372zm-2.496 0a.372.372 0 0 1-.372.373.372.372 0 0 1-.372-.373.372.372 0 0 1 .372-.372.372.372 0 0 1 .372.372zm-2.496 0a.372.372 0 0 1-.372.373.372.372 0 0 1-.373-.373.372.372 0 0 1 .373-.372.372.372 0 0 1 .372.372zm-1.752-2.496a1.117 1.117 0 0 1-1.117 1.117 1.117 1.117 0 0 1-1.116-1.117 1.117 1.117 0 0 1 1.116-1.116 1.117 1.117 0 0 1 1.117 1.116zm-3.24 0a.372.372 0 0 1-.373.372.372.372 0 0 1-.372-.372.372.372 0 0 1 .372-.372.372.372 0 0 1 .372.372zm12.481 0a.372.372 0 0 1-.372.372.372.372 0 0 1-.372-.372.372.372 0 0 1 .372-.372.372.372 0 0 1 .372.372zm-1.752 0a1.117 1.117 0 0 1-1.116 1.117 1.117 1.117 0 0 1-1.117-1.117 1.117 1.117 0 0 1 1.117-1.116 1.117 1.117 0 0 1 1.116 1.116zm-2.496 0a1.117 1.117 0 0 1-1.117 1.117 1.117 1.117 0 0 1-1.116-1.117 1.117 1.117 0 0 1 1.116-1.116 1.117 1.117 0 0 1 1.117 1.116zm-2.496 0a1.117 1.117 0 0 1-1.117 1.117 1.117 1.117 0 0 1-1.116-1.117 1.117 1.117 0 0 1 1.116-1.116 1.117 1.117 0 0 1 1.117 1.116zm-2.497-2.496a1.117 1.117 0 0 1-1.116 1.116 1.117 1.117 0 0 1-1.117-1.116 1.117 1.117 0 0 1 1.117-1.117 1.117 1.117 0 0 1 1.116 1.117zm-3.24 0a.372.372 0 0 1-.372.372.372.372 0 0 1-.373-.372.372.372 0 0 1 .373-.372.372.372 0 0 1 .372.372zm12.482 0a.372.372 0 0 1-.372.372.372.372 0 0 1-.373-.372.372.372 0 0 1 .373-.372.372.372 0 0 1 .372.372zm-1.752 0a1.117 1.117 0 0 1-1.117 1.116 1.117 1.117 0 0 1-1.116-1.116 1.117 1.117 0 0 1 1.116-1.117 1.117 1.117 0 0 1 1.117 1.117zm-3.24 0a.372.372 0 0 1-.373.372.372.372 0 0 1-.372-.372.372.372 0 0 1 .372-.372.372.372 0 0 1 .372.372zm-2.497 0a.372.372 0 0 1-.372.372.372.372 0 0 1-.373-.372.372.372 0 0 1 .373-.372.372.372 0 0 1 .372.372zm-2.496-2.496a.372.372 0 0 1-.373.372.372.372 0 0 1-.372-.372.372.372 0 0 1 .372-.373.372.372 0 0 1 .373.373zm-2.497 0a.372.372 0 0 1-.372.372.372.372 0 0 1-.372-.372.372.372 0 0 1 .372-.373.372.372 0 0 1 .372.373zm12.482 0a.372.372 0 0 1-.372.372.372.372 0 0 1-.372-.372.372.372 0 0 1 .372-.373.372.372 0 0 1 .372.373zm-2.496 0a.372.372 0 0 1-.372.372.372.372 0 0 1-.372-.372.372.372 0 0 1 .372-.373.372.372 0 0 1 .372.373zm-1.752 0a1.117 1.117 0 0 1-1.117 1.116 1.117 1.117 0 0 1-1.116-1.116 1.117 1.117 0 0 1 1.116-1.117 1.117 1.117 0 0 1 1.117 1.117zm-2.496 0a1.117 1.117 0 0 1-1.117 1.116 1.117 1.117 0 0 1-1.116-1.116 1.117 1.117 0 0 1 1.116-1.117 1.117 1.117 0 0 1 1.117 1.117zm-3.241-2.497a.372.372 0 0 1-.372.372.372.372 0 0 1-.372-.372.372.372 0 0 1 .372-.372.372.372 0 0 1 .372.372zm-2.496 0a.372.372 0 0 1-.372.372.372.372 0 0 1-.373-.372.372.372 0 0 1 .373-.372.372.372 0 0 1 .372.372zm12.482 0a.372.372 0 0 1-.372.372.372.372 0 0 1-.373-.372.372.372 0 0 1 .373-.372.372.372 0 0 1 .372.372zm-2.497 0a.372.372 0 0 1-.372.372.372.372 0 0 1-.372-.372.372.372 0 0 1 .372-.372.372.372 0 0 1 .372.372zm-2.496 0a.372.372 0 0 1-.372.372.372.372 0 0 1-.372-.372.372.372 0 0 1 .372-.372.372.372 0 0 1 .372.372zm-2.496 0a.372.372 0 0 1-.372.372.372.372 0 0 1-.373-.372.372.372 0 0 1 .373-.372.372.372 0 0 1 .372.372z"
     id="path3" />
</svg>
