<?xml version="1.0" encoding="UTF-8" standalone="no"?>
<svg
   width="64"
   height="64"
   version="1.1"
   id="svg2"
   sodipodi:docname="dolphin-emu.svg"
   inkscape:version="1.3.2 (091e20ef0f, 2023-11-25, custom)"
   xmlns:inkscape="http://www.inkscape.org/namespaces/inkscape"
   xmlns:sodipodi="http://sodipodi.sourceforge.net/DTD/sodipodi-0.dtd"
   xmlns="http://www.w3.org/2000/svg"
   xmlns:svg="http://www.w3.org/2000/svg">
  <defs
     id="defs2">
    <filter
       id="filter1057"
       x="-0.026999999"
       y="-0.026999999"
       width="1.054"
       height="1.054"
       color-interpolation-filters="sRGB">
      <feGaussianBlur
         stdDeviation="0.61875"
         id="feGaussianBlur1" />
    </filter>
    <linearGradient
       id="linearGradient1053"
       x1="-127"
       x2="-72"
       y1="60"
       y2="5"
       gradientTransform="matrix(1.0000071,0,0,1.0000071,131.50256,-0.51062333)"
       gradientUnits="userSpaceOnUse">
      <stop
         stop-color="#32d7ff"
         offset="0"
         id="stop1" />
      <stop
         stop-color="#329bff"
         offset="1"
         id="stop2" />
    </linearGradient>
    <filter
       id="filter871"
       x="-0.073931567"
       y="-0.050487007"
       width="1.1478631"
       height="1.100974"
       color-interpolation-filters="sRGB">
      <feGaussianBlur
         stdDeviation="0.12698534"
         id="feGaussianBlur2" />
    </filter>
  </defs>
  <sodipodi:namedview
     id="namedview2"
     pagecolor="#ffffff"
     bordercolor="#000000"
     borderopacity="0.25"
     inkscape:showpageshadow="2"
     inkscape:pageopacity="0.0"
     inkscape:pagecheckerboard="0"
     inkscape:deskcolor="#d1d1d1"
     inkscape:zoom="4.3531261"
     inkscape:cx="15.850678"
     inkscape:cy="30.782476"
     inkscape:window-width="1920"
     inkscape:window-height="995"
     inkscape:window-x="0"
     inkscape:window-y="0"
     inkscape:window-maximized="1"
     inkscape:current-layer="svg2" />
  <rect
     transform="matrix(1.0000071,0,0,1.0000071,-2.2781468e-4,-2.2781468e-4)"
     x="4.5"
     y="4.5"
     width="55"
     height="55"
     ry="15"
     fill="#141414"
     filter="url(#filter1057)"
     opacity="0.3"
     stroke-linecap="round"
     stroke-width="2.7444"
     id="rect2" />
  <rect
     x="4.4996166"
     y="4.4996166"
     width="55.000767"
     height="55.000767"
     ry="15.000106"
     fill="url(#linearGradient1053)"
     stroke-linecap="round"
     stroke-width="2.74441"
     id="rect3"
     style="fill:url(#linearGradient1053)" />
  <path
     fill="#fff"
     d="M27.754 20.26a.21.21 0 0 1 .206.106c.253.445-.252 1.894.128 2.646.38.757.38.945 3.412.568 3.03-.38 7.58.94 9.225 2.577 1.641 1.638 4.485 5.797 5.054 8.186.568 2.393.32 2.518-.44 2.141-.757-.376-1.39-3.71-5.882-5.916-4.489-2.206-6.576-.445-6.576-.445s3.857-.505 6.7 1.825c2.848 2.33 4.613 4.154 4.553 4.847-.064.693-.32.568-.76 0-.445-.563-3.096-4.031-6.255-5.16-3.155-1.132-4.484-1.067-5.682-.44-1.2.629-1.458 1.257.248 1.702 1.706.44 2.403.252 2.403.252s-1.453 1.316-3.533 1.316c-2.086 0-3.348-.123-3.348-.123s-5.182 5.351-6.512 6.424c-1.325 1.069-2.779.569-2.779-.064 0-.628.633-2.39.633-2.39s-1.32-2.96.193-6.3c1.518-3.333 5.686-6.795 5.686-6.795s.44-1.889 1.385-3.146c.77-1.023 1.545-1.793 1.94-1.811"
     id="path2" />
</svg>
