<?xml version="1.0" encoding="UTF-8" standalone="no"?>
<svg
   width="64"
   height="64"
   viewBox="0 0 16.934 16.934"
   version="1.1"
   id="svg1"
   sodipodi:docname="doom.svg"
   inkscape:version="1.3.2 (091e20ef0f, 2023-11-25, custom)"
   xmlns:inkscape="http://www.inkscape.org/namespaces/inkscape"
   xmlns:sodipodi="http://sodipodi.sourceforge.net/DTD/sodipodi-0.dtd"
   xmlns="http://www.w3.org/2000/svg"
   xmlns:svg="http://www.w3.org/2000/svg">
  <defs
     id="defs1">
    <filter
       id="filter1057"
       x="-0.026999999"
       y="-0.026999999"
       width="1.054"
       height="1.054"
       color-interpolation-filters="sRGB">
      <feGaussianBlur
         stdDeviation="0.61875"
         id="feGaussianBlur978" />
    </filter>
    <linearGradient
       id="linearGradient1053"
       x1="-127"
       x2="-72"
       y1="60"
       y2="5"
       gradientTransform="translate(203.93,-0.054156)"
       gradientUnits="userSpaceOnUse">
      <stop
         stop-color="#1d2123"
         offset="0"
         id="stop981" />
      <stop
         stop-color="#33393e"
         stop-opacity=".99608"
         offset="1"
         id="stop983" />
    </linearGradient>
  </defs>
  <sodipodi:namedview
     id="namedview1"
     pagecolor="#ffffff"
     bordercolor="#000000"
     borderopacity="0.25"
     inkscape:showpageshadow="2"
     inkscape:pageopacity="0.0"
     inkscape:pagecheckerboard="0"
     inkscape:deskcolor="#d1d1d1"
     inkscape:zoom="4.3531261"
     inkscape:cx="-23.201717"
     inkscape:cy="17.228998"
     inkscape:window-width="1920"
     inkscape:window-height="995"
     inkscape:window-x="0"
     inkscape:window-y="0"
     inkscape:window-maximized="1"
     inkscape:current-layer="svg1" />
  <g
     transform="matrix(0.26459375,0,0,0.26459375,-19.167172,0)"
     id="g994">
    <rect
       x="76.934998"
       y="4.9558001"
       width="55"
       height="55"
       ry="15"
       fill="#141414"
       filter="url(#filter1057)"
       opacity="0.3"
       stroke-linecap="round"
       stroke-width="2.7444"
       id="rect988" />
    <rect
       x="76.934998"
       y="4.9558001"
       width="55"
       height="55"
       ry="15"
       fill="url(#linearGradient1053)"
       stroke-linecap="round"
       stroke-width="2.7444"
       id="rect990"
       style="fill:url(#linearGradient1053)" />
    <circle
       cx="104.44"
       cy="32"
       r="30.000999"
       fill-opacity="0"
       stroke-width="1.5715"
       id="circle992" />
  </g>
  <path
     d="m3.456 10.902-.001-2.66-.002-1.783-.23-.172a10.173 10.173 0 0 1-.23-.174l.82.001 1.307.002h.486l.15.114.15.115v3.479l.038.027a.968.968 0 0 1 .04.03 9157.455 9157.455 0 0 0-2.525 1.897c-.003 0-.003-.174-.003-.876zm1.228-1.498.305-.229V7.166l-.035-.028-.035-.029-.266.002-.273.001h-.006v1.262c0 1.009 0 1.262.002 1.26.002 0 .14-.104.308-.23zm8.342 2.022-.456-.344-.001-.768-.002-.953v-.184l-.152.53-.152.53-.153-.528-.151-.528-.001.52-.002.723v.203l-.497-.373a48.454 48.454 0 0 1-.495-.374l.038-.028.036-.027-.001-.767-.002-1.856-.001-1.088h.278l.473.001.194.001.141.495c.078.272.142.494.143.493l.142-.496.141-.495.183.002a244.497 244.497 0 0 0 1.17.004l.043.001-.228.17-.227.17-.001 1.391a6414.44 6414.44 0 0 0-.003 3.919l-.457-.344zm-6.25-1.119-.79-.592c-.001-.001-.002-.32-.002-1.686V6.345l.154-.116.154-.115h1.834l.153.115.153.116v.378l.002 1.95v1.571l-.433.326-.434.326c-.002 0-.357-.264-.79-.589zm.737-1.447.001-1.231v-.462l-.036-.028-.038-.03h-.233l-.232.002-.036.028-.036.027v1.299l.002.711.302.227.304.227.002-.77zm1.438 1.712-.438-.324V8.297c-.002-1.876-.002-1.952.001-1.955l.153-.116.15-.112.92.001.92.001.153.115.153.114v1.416l-.001 1.681-.002.266-.353.267a26703.882 26703.882 0 0 1-1.213.918l-.006.004-.437-.324zM9.739 9.4l.304-.224v-2.01l-.038-.03-.038-.028h-.463l-.038.029-.037.029.001.705c.002 1.171.003 1.755.005 1.754l.304-.225z"
     style="fill:#fff;fill-opacity:1;stroke-width:.00182564"
     id="path1" />
</svg>
