<?xml version="1.0" encoding="UTF-8" standalone="no"?>
<svg
   width="64"
   height="64"
   version="1.1"
   id="svg1"
   sodipodi:docname="droidcam.svg"
   inkscape:version="1.3.2 (091e20ef0f, 2023-11-25, custom)"
   xmlns:inkscape="http://www.inkscape.org/namespaces/inkscape"
   xmlns:sodipodi="http://sodipodi.sourceforge.net/DTD/sodipodi-0.dtd"
   xmlns="http://www.w3.org/2000/svg"
   xmlns:svg="http://www.w3.org/2000/svg">
  <defs
     id="defs1">
    <filter
       id="filter1057-2"
       x="-0.026999999"
       y="-0.026999999"
       width="1.054"
       height="1.054"
       color-interpolation-filters="sRGB">
      <feGaussianBlur
         stdDeviation="0.61875"
         id="feGaussianBlur1" />
    </filter>
    <linearGradient
       id="linearGradient1053-7"
       x1="-127"
       x2="-72"
       y1="60"
       y2="5"
       gradientTransform="matrix(1.0000071,0,0,1.0000071,195.4864,31.474732)"
       gradientUnits="userSpaceOnUse">
      <stop
         stop-color="#8cd750"
         offset="0"
         id="stop1" />
      <stop
         stop-color="#7dcd32"
         stop-opacity=".99608"
         offset=".49585"
         id="stop2" />
      <stop
         stop-color="#87d241"
         stop-opacity=".99608"
         offset="1"
         id="stop3" />
    </linearGradient>
  </defs>
  <sodipodi:namedview
     id="namedview1"
     pagecolor="#ffffff"
     bordercolor="#000000"
     borderopacity="0.25"
     inkscape:showpageshadow="2"
     inkscape:pageopacity="0.0"
     inkscape:pagecheckerboard="0"
     inkscape:deskcolor="#d1d1d1"
     inkscape:zoom="4.3531261"
     inkscape:cx="-4.3646794"
     inkscape:cy="11.485998"
     inkscape:window-width="1920"
     inkscape:window-height="995"
     inkscape:window-x="0"
     inkscape:window-y="0"
     inkscape:window-maximized="1"
     inkscape:current-layer="svg1" />
  <g
     id="g1"
     transform="translate(-63.985206,-31.985206)">
    <rect
       transform="matrix(1.0000071,0,0,1.0000071,63.984978,31.984978)"
       x="4.5"
       y="4.5"
       width="55"
       height="55"
       ry="15"
       fill="#141414"
       filter="url(#filter1057-2)"
       opacity="0.3"
       stroke-linecap="round"
       stroke-width="2.7444"
       id="rect5" />
    <rect
       x="68.48497"
       y="36.482704"
       width="55.000767"
       height="55.000767"
       ry="15.000106"
       fill="url(#linearGradient1053-7)"
       stroke-linecap="round"
       stroke-width="2.74441"
       id="rect6"
       style="fill:url(#linearGradient1053-7)" />
  </g>
  <path
     fill="#fff"
     d="m24.008 14.332-.816.54 2.07 3.105c-2.803 1.777-4.793 4.788-5.535 8.023H44.27c-.741-3.235-2.729-6.245-5.532-8.023l2.07-3.106-.816-.539-2.105 3.152A12.599 12.599 0 0 0 32 16c-2.056.004-4.08.51-5.894 1.477zM26.5 20a1.5 1.5 0 1 1 0 3 1.5 1.5 0 0 1 0-3zm11 0a1.5 1.5 0 1 1 0 3 1.5 1.5 0 0 1 0-3zm-21.53 8c-1.104.019-1.985 1.004-1.97 2.203v11.594c0 2.898 4 2.898 4 0V30.203c.016-1.225-.903-2.222-2.03-2.203zM20 28v19.25c0 1.524 1.191 2.75 2.668 2.75H27v-2h4v-2.047c-.523-.091-1.301-.245-1.699-.433a8 8 0 0 1-5.3-7.52 8 8 0 1 1 16 0 8 8 0 0 1-5.165 7.477c-.453.208-1.275.382-1.836.48V48h4v2h4.332C42.81 50 44 48.774 44 47.25V28zm27.97 0c-1.104.019-1.984 1.004-1.97 2.203v11.594c0 2.898 4 2.898 4 0V30.203c.016-1.225-.903-2.222-2.03-2.203zM32 34a4 4 0 1 0 0 8 4 4 0 0 0 0-8zm0 1.332A2.667 2.667 0 0 1 34.668 38 2.667 2.667 0 0 1 32 40.668a2.667 2.667 0 0 1-2.547-3.453A1.333 1.333 0 0 0 32 36.668c0-.524-.307-1-.785-1.215.254-.08.519-.12.785-.12z"
     id="path1" />
</svg>
