<?xml version="1.0" encoding="UTF-8" standalone="no"?>
<svg
   width="64"
   height="64"
   viewBox="0 0 16.933 16.933"
   version="1.1"
   id="svg1"
   sodipodi:docname="duolingo.svg"
   inkscape:version="1.3.2 (091e20ef0f, 2023-11-25, custom)"
   xmlns:inkscape="http://www.inkscape.org/namespaces/inkscape"
   xmlns:sodipodi="http://sodipodi.sourceforge.net/DTD/sodipodi-0.dtd"
   xmlns:xlink="http://www.w3.org/1999/xlink"
   xmlns="http://www.w3.org/2000/svg"
   xmlns:svg="http://www.w3.org/2000/svg">
  <defs
     id="defs1">
    <filter
       inkscape:collect="always"
       style="color-interpolation-filters:sRGB"
       id="filter1057"
       x="-0.026999999"
       width="1.054"
       y="-0.026999999"
       height="1.054">
      <feGaussianBlur
         inkscape:collect="always"
         stdDeviation="0.61875"
         id="feGaussianBlur1059" />
    </filter>
    <linearGradient
       inkscape:collect="always"
       xlink:href="#linearGradient1051"
       id="linearGradient1053"
       x1="-127"
       y1="60"
       x2="-72"
       y2="5"
       gradientUnits="userSpaceOnUse"
       gradientTransform="matrix(0.26457812,0,0,0.26457812,34.792023,-0.13493464)" />
    <linearGradient
       inkscape:collect="always"
       id="linearGradient1051">
      <stop
         style="stop-color:#02db96;stop-opacity:1"
         offset="0"
         id="stop1047" />
      <stop
         style="stop-color:#13d39b;stop-opacity:1"
         offset="1"
         id="stop1049" />
    </linearGradient>
  </defs>
  <sodipodi:namedview
     id="namedview1"
     pagecolor="#ffffff"
     bordercolor="#000000"
     borderopacity="0.25"
     inkscape:showpageshadow="2"
     inkscape:pageopacity="0.0"
     inkscape:pagecheckerboard="0"
     inkscape:deskcolor="#d1d1d1"
     inkscape:zoom="6.15625"
     inkscape:cx="37.360406"
     inkscape:cy="27.939086"
     inkscape:window-width="1920"
     inkscape:window-height="995"
     inkscape:window-x="0"
     inkscape:window-y="0"
     inkscape:window-maximized="1"
     inkscape:current-layer="svg1" />
  <rect
     transform="matrix(0.26457812,0,0,0.26457812,0.79770303,0.79770303)"
     ry="15"
     y="1.485"
     x="1.485"
     height="55"
     width="55"
     id="rect1055"
     style="opacity:0.3;fill:#141414;fill-opacity:1;stroke-width:2.74436;stroke-linecap:round;filter:url(#filter1057)" />
  <rect
     style="fill:url(#linearGradient1053);fill-opacity:1;stroke-width:0.726098;stroke-linecap:round"
     id="rect1045"
     width="14.551796"
     height="14.551796"
     x="1.1906021"
     y="1.1906021"
     ry="3.9686716" />
  <path
     fill="#fff"
     d="M5.093 8.83c-.32.047-.656.216-.96.324-.201.072-.441.116-.626.224a.372.372 0 0 0-.164.426c.065.207.283.393.442.53.51.439 1.177.694 1.85.694.19 0 .385-.027.57-.064.08-.016.199-.073.28-.06.104.017.224.18.305.246.194.157.404.279.626.39.85.42 1.937.393 2.769-.057 1.119-.606 1.685-1.727 1.655-2.973a2.57 2.57 0 0 0-.107-.626c-.026-.09-.106-.229-.097-.32.013-.125.214-.306.281-.417.164-.272.275-.568.345-.877a2.756 2.756 0 0 0-.144-1.641c-.087-.21-.186-.469-.445-.492-.225-.02-.369.19-.503.339-.158.174-.325.34-.482.514-.127.14-.25.308-.406.418-.079-.248-.305-.49-.444-.71-.12-.19-.234-.406-.395-.564a1.073 1.073 0 0 0-1.442-.032c-.15.135-.254.32-.367.485-.258.375-.56.842-.969 1.067-.378.208-.847.287-1.266.371-.483.097-.92.21-1.12.718-.32.803.507 1.43.814 2.087m7.317.8c-.335.063-.362.46-.43.73-.03.123-.074.248-.05.376.04.208.24.361.453.328.352-.057.38-.434.45-.718.03-.119.08-.251.058-.375a.41.41 0 0 0-.48-.342m-4.09 2.657c-.322.061-.431.473-.205.7.163.162.49.153.705.193.101.019.204.046.306.024.308-.066.443-.473.208-.698-.166-.158-.467-.152-.68-.192-.11-.02-.223-.048-.335-.027z"
     id="path1" />
</svg>
