<?xml version="1.0" encoding="UTF-8" standalone="no"?>
<svg
   width="64"
   height="64"
   viewBox="0 0 16.933 16.933"
   version="1.1"
   id="svg2"
   sodipodi:docname="easystroke.svg"
   inkscape:version="1.3.2 (091e20ef0f, 2023-11-25, custom)"
   xmlns:inkscape="http://www.inkscape.org/namespaces/inkscape"
   xmlns:sodipodi="http://sodipodi.sourceforge.net/DTD/sodipodi-0.dtd"
   xmlns:xlink="http://www.w3.org/1999/xlink"
   xmlns="http://www.w3.org/2000/svg"
   xmlns:svg="http://www.w3.org/2000/svg">
  <defs
     id="defs2">
    <filter
       inkscape:collect="always"
       style="color-interpolation-filters:sRGB"
       id="filter1057"
       x="-0.026999999"
       width="1.054"
       y="-0.026999999"
       height="1.054">
      <feGaussianBlur
         inkscape:collect="always"
         stdDeviation="0.61875"
         id="feGaussianBlur1059" />
    </filter>
    <linearGradient
       inkscape:collect="always"
       xlink:href="#linearGradient1051"
       id="linearGradient1053"
       x1="-127"
       y1="60"
       x2="-72"
       y2="5"
       gradientUnits="userSpaceOnUse"
       gradientTransform="matrix(0.26457812,0,0,0.26457812,34.792023,-0.13493431)" />
    <linearGradient
       inkscape:collect="always"
       id="linearGradient1051">
      <stop
         style="stop-color:#2e55e7;stop-opacity:1"
         offset="0"
         id="stop1047" />
      <stop
         style="stop-color:#0d7eef;stop-opacity:1"
         offset="1"
         id="stop1049" />
    </linearGradient>
  </defs>
  <sodipodi:namedview
     id="namedview2"
     pagecolor="#ffffff"
     bordercolor="#000000"
     borderopacity="0.25"
     inkscape:showpageshadow="2"
     inkscape:pageopacity="0.0"
     inkscape:pagecheckerboard="0"
     inkscape:deskcolor="#d1d1d1"
     inkscape:zoom="4.3531261"
     inkscape:cx="-1.3783198"
     inkscape:cy="21.823397"
     inkscape:window-width="1920"
     inkscape:window-height="995"
     inkscape:window-x="0"
     inkscape:window-y="0"
     inkscape:window-maximized="1"
     inkscape:current-layer="svg2" />
  <rect
     ry="15"
     y="4.4999995"
     x="4.4999995"
     height="55"
     width="55"
     id="rect1055"
     style="opacity:0.3;fill:#141414;fill-opacity:1;stroke-width:2.74436;stroke-linecap:round;filter:url(#filter1057)"
     transform="scale(0.26457812)" />
  <rect
     style="fill:url(#linearGradient1053);fill-opacity:1;stroke-width:0.726098;stroke-linecap:round"
     id="rect1045"
     width="14.551796"
     height="14.551796"
     x="1.1906021"
     y="1.1906021"
     ry="3.9686716" />
  <path
     fill="#fff"
     d="M8.466 4.012c-.76 0-1.43.413-1.87 1.022-.4.552-.593 1.28-.57 2.05-.697.364-1.248.89-1.541 1.505-.323.677-.357 1.457.027 2.105.385.647 1.088 1.003 1.845 1.068.692.06 1.435-.14 2.11-.547.673.406 1.416.608 2.108.547.757-.065 1.46-.42 1.846-1.068.384-.648.35-1.428.027-2.105-.294-.616-.845-1.142-1.542-1.506.019-.746-.173-1.467-.569-2.024-.437-.615-1.104-1.047-1.87-1.047zm0 .706c.503 0 .961.28 1.296.75.254.358.382.827.422 1.316a5.478 5.478 0 0 0-3.437.001c.036-.508.165-.985.42-1.338.333-.46.791-.73 1.3-.73zm0 2.466c.58 0 1.154.125 1.702.333-.18 1.172-.775 2.143-1.7 2.853a4.49 4.49 0 0 1-1.702-2.853 4.803 4.803 0 0 1 1.7-.333zm-2.345.673a5.18 5.18 0 0 0 1.707 2.888c-.473.223-.965.353-1.41.315-.58-.051-1.048-.305-1.299-.727-.25-.421-.24-.93.002-1.44.189-.395.556-.748 1-1.036zm4.692.001c.444.288.81.64.999 1.035.243.51.252 1.019.002 1.44-.25.422-.718.676-1.3.727-.443.038-.934-.092-1.406-.314a5.08 5.08 0 0 0 1.705-2.888z"
     id="path2" />
</svg>
