<?xml version="1.0" encoding="UTF-8" standalone="no"?>
<svg
   width="64"
   height="64"
   viewBox="0 0 16.933 16.933"
   version="1.1"
   id="svg5"
   sodipodi:docname="elementary-config.svg"
   inkscape:version="1.3.2 (091e20ef0f, 2023-11-25, custom)"
   xmlns:inkscape="http://www.inkscape.org/namespaces/inkscape"
   xmlns:sodipodi="http://sodipodi.sourceforge.net/DTD/sodipodi-0.dtd"
   xmlns="http://www.w3.org/2000/svg"
   xmlns:svg="http://www.w3.org/2000/svg">
  <defs
     id="defs5">
    <filter
       id="filter1057"
       x="-0.026999999"
       y="-0.026999999"
       width="1.054"
       height="1.054"
       color-interpolation-filters="sRGB">
      <feGaussianBlur
         stdDeviation="0.61875"
         id="feGaussianBlur1" />
    </filter>
    <linearGradient
       id="linearGradient1053"
       x1="-127"
       x2="-72"
       y1="60"
       y2="5"
       gradientTransform="matrix(0.26458,0,0,0.26458,34.7929,-0.13509998)"
       gradientUnits="userSpaceOnUse">
      <stop
         stop-color="#323741"
         offset="0"
         id="stop1" />
      <stop
         stop-color="#465064"
         offset="1"
         id="stop2" />
    </linearGradient>
    <filter
       id="e"
       x="-0.34809443"
       y="-0.14399971"
       width="1.6961889"
       height="1.2879994"
       color-interpolation-filters="sRGB">
      <feGaussianBlur
         stdDeviation="0.59999875"
         id="feGaussianBlur2" />
    </filter>
    <filter
       id="filter3"
       x="-0.34809443"
       y="-0.14399971"
       width="1.6961889"
       height="1.2879994"
       color-interpolation-filters="sRGB">
      <feGaussianBlur
         stdDeviation="0.59999875"
         id="feGaussianBlur3" />
    </filter>
    <filter
       id="filter4"
       x="-0.34809443"
       y="-0.14399971"
       width="1.6961889"
       height="1.2879994"
       color-interpolation-filters="sRGB">
      <feGaussianBlur
         stdDeviation="0.59999875"
         id="feGaussianBlur4" />
    </filter>
    <linearGradient
       id="c"
       x1="31.458"
       x2="31.458"
       y1="51.726002"
       y2="62.897999"
       gradientTransform="matrix(0.32565,0,0,0.32565,0.19732,-6.3745)"
       gradientUnits="userSpaceOnUse">
      <stop
         stop-color="#1776ff"
         offset="0"
         id="stop3" />
      <stop
         stop-color="#2fceff"
         offset="1"
         id="stop4" />
    </linearGradient>
    <linearGradient
       id="linearGradient941"
       x1="31.458"
       x2="31.458"
       y1="36.897999"
       y2="59.897999"
       gradientTransform="matrix(0.32565,0,0,0.32565,0.19732,-6.3745)"
       gradientUnits="userSpaceOnUse">
      <stop
         stop-color="#ff5514"
         offset="0"
         id="stop5" />
      <stop
         stop-color="#ff9014"
         offset="1"
         id="stop6" />
    </linearGradient>
    <linearGradient
       id="a"
       x1="31.458"
       x2="31.458"
       y1="46.897999"
       y2="56.897999"
       gradientTransform="matrix(0.32565,0,0,0.32565,0.19732,-6.3745)"
       gradientUnits="userSpaceOnUse">
      <stop
         stop-color="#c0e5fb"
         offset="0"
         id="stop7" />
      <stop
         stop-color="#c3faff"
         offset="1"
         id="stop8" />
    </linearGradient>
  </defs>
  <sodipodi:namedview
     id="namedview5"
     pagecolor="#ffffff"
     bordercolor="#000000"
     borderopacity="0.25"
     inkscape:showpageshadow="2"
     inkscape:pageopacity="0.0"
     inkscape:pagecheckerboard="0"
     inkscape:deskcolor="#d1d1d1"
     inkscape:zoom="6.15625"
     inkscape:cx="20.954315"
     inkscape:cy="35.573604"
     inkscape:window-width="1920"
     inkscape:window-height="995"
     inkscape:window-x="0"
     inkscape:window-y="0"
     inkscape:window-maximized="1"
     inkscape:current-layer="svg5" />
  <rect
     transform="matrix(0.26458,0,0,0.26458,-6.016263e-5,-6.016263e-5)"
     x="4.5"
     y="4.5"
     width="55"
     height="55"
     ry="15"
     fill="#141414"
     filter="url(#filter1057)"
     opacity="0.3"
     stroke-linecap="round"
     stroke-width="2.7444"
     id="rect8" />
  <rect
     x="1.1905"
     y="1.1905"
     width="14.552"
     height="14.552"
     ry="3.9686999"
     fill="url(#linearGradient1053)"
     stroke-linecap="round"
     stroke-width="0.72611"
     id="rect9"
     style="fill:url(#linearGradient1053)" />
  <path
     fill="#ffffff"
     d="m 8.5315673,4.233 a 4.234,4.234 0 1 0 0,8.467 4.234,4.234 0 0 0 0,-8.467 z m 0,0.353 a 3.882,3.882 0 0 1 3.7349997,2.826 6.733,6.733 0 0 1 -1.645,2.145 c -0.33,0.285 -0.6889997,0.54 -1.0859997,0.719 -0.398,0.179 -0.835,0.28 -1.27,0.255 a 2.197,2.197 0 0 1 -0.936,-0.268 7.061,7.061 0 0 0 2.004,-1.616 c 0.368,-0.43 0.6899997,-0.92 0.8129997,-1.473 a 2,2 0 0 0 0.015,-0.843 1.558,1.558 0 0 0 -0.3799997,-0.748 1.526,1.526 0 0 0 -0.705,-0.418 1.854,1.854 0 0 0 -0.823,-0.03 c -0.545,0.1 -1.03,0.416 -1.42,0.809 -0.688,0.692 -1.113,1.67 -1.035,2.642 0.04,0.486 0.202,0.964 0.482,1.364 0.062,0.089 0.13,0.174 0.204,0.255 a 6.348,6.348 0 0 1 -1.255,0.3 3.88,3.88 0 0 1 3.302,-5.92 z m 0.024,0.784 c 0.273,0 0.548,0.083 0.765,0.247 0.197,0.148 0.342,0.36 0.424,0.59 0.083,0.232 0.104,0.484 0.076,0.728 -0.057,0.488 -0.303,0.936 -0.6,1.327 a 5.723,5.723 0 0 1 -2.25,1.75 2.004,2.004 0 0 1 -0.425,-0.521 c -0.231,-0.41 -0.307,-0.897 -0.262,-1.365 0.044,-0.468 0.205,-0.92 0.421,-1.338 0.25,-0.485 0.592,-0.944 1.07,-1.207 0.238,-0.132 0.509,-0.212 0.781,-0.211 z m 3.8209997,2.577 a 3.88,3.88 0 0 1 -6.8369997,2.992 c 0.44,-0.1 0.87,-0.243 1.281,-0.426 0.18,0.138 0.38,0.25 0.59,0.331 0.61,0.234 1.3,0.2 1.917,-0.014 0.616,-0.213 1.1629997,-0.596 1.6399997,-1.041 a 7.056,7.056 0 0 0 1.41,-1.842 z"
     id="path1" />
  <g
     id="g5">
    <circle
       cx="12.69975"
       cy="12.69975"
       r="4.2332501"
       stroke-linecap="round"
       stroke-width="0.604958"
       id="circle5"
       style="fill:#ff5555;fill-opacity:1" />
    <circle
       cx="12.69975"
       cy="12.69975"
       r="3.1513901"
       opacity="0.15"
       stroke-width="0.916049"
       style="paint-order:stroke markers fill"
       id="circle6" />
    <path
       d="m 12.588097,8.9956566 c -0.206659,0.00769 -0.320245,0.077069 -0.394274,0.226082 -0.0475,0.095621 -0.08632,0.2549105 -0.08636,0.354032 -1.52e-4,0.3636627 -0.367313,0.6954174 -0.770028,0.6954174 -0.197603,0 -0.306143,-0.0544 -0.706291,-0.3540322 -0.182125,-0.1363874 -0.297095,-0.1009128 -0.579664,0.1772492 -0.2684676,0.26431 -0.2752408,0.390887 -0.03753,0.706291 0.09824,0.130376 0.197767,0.304159 0.221106,0.386601 0.05772,0.203858 -0.03678,0.577019 -0.188555,0.742909 -0.1243989,0.135967 -0.4332992,0.241901 -0.7026661,0.241901 -0.2561381,0 -0.3481584,0.14582 -0.3481584,0.54937 0,0.31424 0.012062,0.357154 0.1198195,0.42867 0.065856,0.04373 0.2560931,0.09905 0.4232192,0.122989 0.167134,0.02393 0.3600643,0.08049 0.4281932,0.125704 0.1438406,0.09547 0.3105616,0.437189 0.3119906,0.639803 0.0012,0.147105 -0.112089,0.407185 -0.228797,0.525399 -0.1271982,0.128844 -0.2202451,0.363319 -0.1867415,0.470235 0.042925,0.136987 0.3336855,0.429913 0.4842575,0.487882 0.08624,0.03322 0.148899,0.02354 0.232408,-0.03572 0.244772,-0.173654 0.663535,-0.362181 0.804847,-0.362181 0.213027,0 0.566382,0.188001 0.643877,0.342734 0.03648,0.07289 0.08197,0.24278 0.10128,0.377103 0.04683,0.325749 0.120865,0.479045 0.245074,0.50553 0.05646,0.01197 0.14733,0.03228 0.201661,0.04476 0.05433,0.01282 0.176662,0.01282 0.271748,0 0.248013,-0.0333 0.380199,-0.218224 0.42187,-0.590062 0.03809,-0.339983 0.06931,-0.394698 0.31969,-0.554794 0.254241,-0.162576 0.453249,-0.19432 0.648851,-0.103548 0.162181,0.07528 0.227728,0.114282 0.493756,0.291644 0.194915,0.129982 0.316383,0.108501 0.541671,-0.09767 0.338792,-0.310006 0.345618,-0.444809 0.04205,-0.798973 -0.288946,-0.337046 -0.292227,-0.751719 -0.0081,-1.070218 0.108789,-0.121976 0.206334,-0.164404 0.528574,-0.228797 0.486533,-0.09721 0.565589,-0.176661 0.566991,-0.571542 0.0013,-0.394406 -0.06134,-0.458857 -0.518176,-0.530373 -0.434702,-0.06807 -0.57387,-0.166277 -0.726638,-0.510503 -0.126987,-0.286221 -0.09195,-0.453937 0.179061,-0.846888 0.138975,-0.201498 0.208155,-0.348556 0.192169,-0.410546 -0.03572,-0.138356 -0.48603,-0.5511959 -0.601386,-0.5511959 -0.05342,0 -0.195661,0.076929 -0.316065,0.1700126 -0.332125,0.2568343 -0.529924,0.3148483 -0.813895,0.2387293 -0.33366,-0.08938 -0.452429,-0.2303184 -0.536724,-0.6375544 -0.09678,-0.4676947 -0.159188,-0.551857 -0.434543,-0.5832889 -0.09173,-0.010543 -0.170766,-0.014771 -0.239655,-0.012208 v -8.996e-4 z m 0.111687,2.3150584 a 1.3890616,1.3890616 0 0 1 1.389061,1.389062 1.3890616,1.3890616 0 0 1 -1.389061,1.389061 1.3890616,1.3890616 0 0 1 -1.389062,-1.389061 1.3890616,1.3890616 0 0 1 1.389062,-1.389062 z"
       fill="#ffffff"
       stroke-width="0.231506"
       id="path6" />
  </g>
</svg>
