<?xml version="1.0" encoding="UTF-8" standalone="no"?>
<svg
   width="64"
   height="64"
   viewBox="0 0 16.933 16.933"
   version="1.1"
   id="svg4"
   sodipodi:docname="elisa.svg"
   inkscape:version="1.3.2 (091e20ef0f, 2023-11-25, custom)"
   xmlns:inkscape="http://www.inkscape.org/namespaces/inkscape"
   xmlns:sodipodi="http://sodipodi.sourceforge.net/DTD/sodipodi-0.dtd"
   xmlns:xlink="http://www.w3.org/1999/xlink"
   xmlns="http://www.w3.org/2000/svg"
   xmlns:svg="http://www.w3.org/2000/svg">
  <sodipodi:namedview
     id="namedview4"
     pagecolor="#ffffff"
     bordercolor="#000000"
     borderopacity="0.25"
     inkscape:showpageshadow="2"
     inkscape:pageopacity="0.0"
     inkscape:pagecheckerboard="0"
     inkscape:deskcolor="#d1d1d1"
     inkscape:zoom="8.7062522"
     inkscape:cx="31.586496"
     inkscape:cy="28.485276"
     inkscape:window-width="1920"
     inkscape:window-height="995"
     inkscape:window-x="0"
     inkscape:window-y="0"
     inkscape:window-maximized="1"
     inkscape:current-layer="svg4" />
  <defs
     id="defs1">
    <linearGradient
       id="linearGradient11"
       inkscape:collect="always">
      <stop
         style="stop-color:#ffffff;stop-opacity:1;"
         offset="0"
         id="stop11" />
      <stop
         style="stop-color:#ffffff;stop-opacity:0;"
         offset="1"
         id="stop12" />
    </linearGradient>
    <clipPath
       id="a">
      <circle
         cx="8.467"
         cy="288.53"
         r="6.879"
         fill="#d86eb0"
         stroke-opacity=".039"
         stroke-width=".491"
         style="paint-order:stroke markers fill"
         id="circle1" />
    </clipPath>
    <filter
       id="filter1057"
       x="-0.026999999"
       y="-0.026999999"
       width="1.054"
       height="1.054"
       color-interpolation-filters="sRGB">
      <feGaussianBlur
         stdDeviation="0.61875"
         id="feGaussianBlur1" />
    </filter>
    <linearGradient
       id="linearGradient1053"
       x1="-127"
       x2="-72"
       y1="60"
       y2="5"
       gradientTransform="matrix(0.26458,0,0,0.26458,34.79294,-0.1350602)"
       gradientUnits="userSpaceOnUse">
      <stop
         stop-color="#02db96"
         offset="0"
         id="stop1" />
      <stop
         stop-color="#13d39b"
         offset="1"
         id="stop2" />
    </linearGradient>
    <filter
       id="filter1057-7"
       x="-0.026999999"
       y="-0.026999999"
       width="1.054"
       height="1.054"
       color-interpolation-filters="sRGB">
      <feGaussianBlur
         stdDeviation="0.61875"
         id="feGaussianBlur1-1" />
    </filter>
    <linearGradient
       id="linearGradient1053-5"
       x1="-127"
       x2="-72"
       y1="60"
       y2="5"
       gradientTransform="matrix(0.26458,0,0,0.26458,56.219314,3.8297575)"
       gradientUnits="userSpaceOnUse">
      <stop
         stop-color="#323741"
         offset="0"
         id="stop1-2" />
      <stop
         stop-color="#465064"
         offset="1"
         id="stop2-7" />
    </linearGradient>
    <linearGradient
       inkscape:collect="always"
       xlink:href="#linearGradient11"
       id="linearGradient12"
       x1="1.04336"
       y1="8.6633665"
       x2="15.86656"
       y2="8.6633665"
       gradientUnits="userSpaceOnUse" />
  </defs>
  <rect
     transform="matrix(0.26458,0,0,0.26458,-6e-5,-6.02e-5)"
     x="4.5"
     y="4.5"
     width="55"
     height="55"
     ry="15"
     fill="#141414"
     filter="url(#filter1057)"
     opacity="0.3"
     stroke-linecap="round"
     stroke-width="2.7444"
     id="rect2" />
  <rect
     x="1.1909399"
     y="1.19054"
     width="14.552"
     height="14.552"
     ry="3.9686999"
     fill="url(#linearGradient1053)"
     stroke-linecap="round"
     stroke-width="0.72611"
     id="rect3"
     style="fill:url(#linearGradient1053)" />
  <path
     d="m 1.04336,6.4480058 c 0.75964,0.16137 1.4692,0.64928 2.0947,2.057 0.7121,1.6035002 1.7147,2.3149002 2.9287,2.3709002 1.5637,0.0727 2.8241,-1.2732002 3.6545,-2.4769002 1.6925,-2.453 4.7742,-2.218 6.1453,-1.2991"
     id="path7"
     style="stroke-width:0.13228906;stroke-dasharray:none;stroke:url(#linearGradient12);fill:none" />
  <path
     d="m 1.1192403,6.8530058 c 0.9444,-0.36336 2.2005,-0.44009 3.0346,0.85858 0.76281,1.187 1.6651,2.9774002 4.2779,2.8134002 1.5615,-0.09866 3.1230997,-0.7373502 3.9280997,-2.2328002 0.55904,-0.96893 1.3313,-1.9435 2.4225,-2.1846 0.40379,-0.084744 0.69228,-0.073007 1.0312,0.05878"
     id="path8"
     style="stroke-width:0.13228906;stroke-dasharray:none;stroke:#ffffff;stroke-opacity:1;fill:none" />
  <path
     d="m 1.2127599,9.0543058 c 1.0007,-0.46123 2.9009,-0.99009 4.4344,-0.55028 1.3703,0.3936 3.103,1.9181002 6.3983001,1.5619002 0.87057,-0.09347 1.608,-0.5846902 2.3064,-1.5204002 0.50555,-0.67763 0.79258,-1.059 1.3794,-1.2118"
     id="path9"
     style="stroke:#ffffff;stroke-opacity:1;fill:none;stroke-width:0.13228906;stroke-dasharray:none" />
  <path
     fill="#ffffff"
     d="m 11.617146,4.0799344 a 1.276,1.276 0 0 0 -0.293999,0.039 l -2.0660003,0.419 -1.836,0.362 c -0.21,0.045 -0.315,0.136 -0.362,0.27 a 0.525,0.525 0 0 0 -0.022,0.085 c -0.01,0.061 -0.012,0.128 -0.01,0.203 l 0.005,4.6449996 a 1.73,1.73 0 0 1 -0.02,0.217 0.387,0.387 0 0 1 -0.11,0.23 0.549,0.549 0 0 1 -0.296,0.119 c -0.416,0.062 -0.727,0.144 -0.957,0.247 -0.046,0.02 -0.089,0.041 -0.129,0.063 -0.08,0.044 -0.148,0.091 -0.205,0.141 a 0.801,0.801 0 0 0 -0.277,0.532 1.467,1.467 0 0 0 -0.011,0.211 1.018,1.018 0 0 0 0.325,0.736 1.014,1.014 0 0 0 0.572,0.25 c 0.074,0.007 0.153,0.007 0.234,-10e-4 0.215,-0.024 0.408,-0.063 0.58,-0.129 a 1.208,1.208 0 0 0 0.713,-0.714 c 0.032,-0.093 0.054,-0.213 0.068,-0.349 0.018,-0.18 0.02,-0.388 0.008,-0.598 l -0.006,-3.6939996 c 0,-0.097 -0.005,-0.178 0.006,-0.245 0,-0.006 0.003,-0.011 0.004,-0.017 a 0.194,0.194 0 0 1 0.045,-0.1 c 0.043,-0.049 0.117,-0.085 0.246,-0.112 l 2.063,-0.416 1.2240003,-0.247 c 0.1,-0.02 0.173,-0.013 0.222,0.027 0.048,0.04 0.073,0.113 0.074,0.225 l 0.006,2.76 c -0.008,0.164 -0.02,0.283 -0.076,0.369 a 0.275,0.275 0 0 1 -0.052,0.058 0.444,0.444 0 0 1 -0.17,0.083 c -0.037,0.01 -0.078,0.02 -0.125,0.027 a 5.273,5.273 0 0 0 -0.45,0.085 2.75,2.75 0 0 0 -0.508,0.1689996 1.467,1.467 0 0 0 -0.2400003,0.137 0.981,0.981 0 0 0 -0.173,0.156 c -0.167,0.193 -0.215,0.421 -0.212,0.677 a 0.947,0.947 0 0 0 0.495,0.835 c 0.1200003,0.066 0.2580003,0.108 0.4090003,0.121 0.075,0.007 0.154,0.007 0.236,-10e-4 a 2.42,2.42 0 0 0 0.575,-0.123 c 0.113,-0.042 0.216,-0.096 0.309999,-0.167 a 1.231,1.231 0 0 0 0.391,-0.533 c 0.07,-0.215 0.077,-0.564 0.085,-0.937 l -0.004,-5.6519996 a 1.495,1.495 0 0 0 -0.02,-0.241 c -0.002,-0.01 -0.003,-0.02 -0.006,-0.028 a 0.35,0.35 0 0 0 -0.03,-0.08 0.209,0.209 0 0 0 -0.047,-0.056 l -0.019,-0.014 a 0.219,0.219 0 0 0 -0.049,-0.024 l -0.023,-0.008 a 0.389,0.389 0 0 0 -0.091,-0.013 z"
     id="path10" />
</svg>
