<?xml version="1.0" encoding="UTF-8" standalone="no"?>
<svg
   width="64"
   height="64"
   viewBox="0 0 16.933 16.933"
   version="1.1"
   id="svg3"
   sodipodi:docname="emulationstation.svg"
   inkscape:version="1.3.2 (091e20ef0f, 2023-11-25, custom)"
   xmlns:inkscape="http://www.inkscape.org/namespaces/inkscape"
   xmlns:sodipodi="http://sodipodi.sourceforge.net/DTD/sodipodi-0.dtd"
   xmlns:xlink="http://www.w3.org/1999/xlink"
   xmlns="http://www.w3.org/2000/svg"
   xmlns:svg="http://www.w3.org/2000/svg">
  <defs
     id="defs3">
    <filter
       inkscape:collect="always"
       style="color-interpolation-filters:sRGB"
       id="filter1057"
       x="-0.026999999"
       width="1.054"
       y="-0.026999999"
       height="1.054">
      <feGaussianBlur
         inkscape:collect="always"
         stdDeviation="0.61875"
         id="feGaussianBlur1059" />
    </filter>
    <linearGradient
       inkscape:collect="always"
       xlink:href="#linearGradient1051"
       id="linearGradient1053"
       x1="-127"
       y1="60"
       x2="-72"
       y2="5"
       gradientUnits="userSpaceOnUse"
       gradientTransform="matrix(0.26457812,0,0,0.26457812,52.250211,-0.93263695)" />
    <linearGradient
       inkscape:collect="always"
       id="linearGradient1051">
      <stop
         style="stop-color:#dee0e2;stop-opacity:1"
         offset="0"
         id="stop1047" />
      <stop
         style="stop-color:#f1f3f5;stop-opacity:0.99607843"
         offset="1"
         id="stop1049" />
    </linearGradient>
  </defs>
  <sodipodi:namedview
     id="namedview3"
     pagecolor="#ffffff"
     bordercolor="#000000"
     borderopacity="0.25"
     inkscape:showpageshadow="2"
     inkscape:pageopacity="0.0"
     inkscape:pagecheckerboard="0"
     inkscape:deskcolor="#d1d1d1"
     inkscape:zoom="4.3531261"
     inkscape:cx="28.485276"
     inkscape:cy="15.850678"
     inkscape:window-width="1920"
     inkscape:window-height="995"
     inkscape:window-x="0"
     inkscape:window-y="0"
     inkscape:window-maximized="1"
     inkscape:current-layer="svg3" />
  <g
     id="g3"
     transform="translate(-17.458188,0.79770306)">
    <rect
       ry="15"
       y="4.4999995"
       x="4.4999995"
       height="55"
       width="55"
       id="rect1055"
       style="opacity:0.3;fill:#141414;fill-opacity:1;stroke-width:2.74436;stroke-linecap:round;filter:url(#filter1057)"
       transform="matrix(0.26457812,0,0,0.26457812,17.458188,-0.79770294)" />
    <rect
       style="fill:url(#linearGradient1053);fill-opacity:1;stroke-width:0.726098;stroke-linecap:round"
       id="rect1045"
       width="14.551796"
       height="14.551796"
       x="18.64879"
       y="0.39289913"
       ry="3.9686716" />
  </g>
  <path
     d="M16.828 17.898c-.377 0-.837.058-1.088.315l-3.14 3.213c-.233.237-.424.57-.424.902v22.113c0 .601.483 1.084 1.084 1.084h33.748c.377 0 .837-.058 1.088-.314l3.14-3.213c.233-.238.424-.57.424-.902V18.982c0-.6-.483-1.084-1.084-1.084H16.828z"
     style="opacity:1;fill:#004b80;fill-opacity:1;stroke-width:.99490225"
     transform="scale(.26458)"
     id="path1" />
  <path
     d="m4.755 6.338-.927.927v3.339l.927.927h3.153l-1.113-1.113h-2.04v-.927h2.04V8.378h-2.04v-.927h2.04l1.113-1.113Zm4.08 0-.927.927v1.298l.927.928h2.226v.927H7.908l1.113 1.113h2.04l.927-.927V9.305l-.927-.927H8.835v-.927h2.04l1.113-1.113z"
     style="opacity:.2;fill:#000;stroke-width:.18547361"
     id="path2" />
  <path
     d="m5.284 5.809-.927.927v3.339l.927.927h3.153L7.324 9.889h-2.04v-.927h2.04V7.849h-2.04V6.92h2.04l1.113-1.11Zm4.08 0-.927.927v1.298l.928.928h2.225v.927H8.437l1.113 1.113h2.04l.928-.927V8.776l-.928-.927H9.365V6.92h2.04l1.113-1.112Z"
     style="fill:#fff;stroke-width:.18547361"
     id="path3" />
</svg>
