<?xml version="1.0" encoding="UTF-8" standalone="no"?>
<svg
   width="64"
   height="64"
   version="1.1"
   id="svg27"
   sodipodi:docname="equaliser.svg"
   inkscape:version="1.3.2 (091e20ef0f, 2023-11-25, custom)"
   xmlns:inkscape="http://www.inkscape.org/namespaces/inkscape"
   xmlns:sodipodi="http://sodipodi.sourceforge.net/DTD/sodipodi-0.dtd"
   xmlns="http://www.w3.org/2000/svg"
   xmlns:svg="http://www.w3.org/2000/svg">
  <defs
     id="defs27">
    <filter
       id="filter1057"
       x="-0.026999999"
       y="-0.026999999"
       width="1.054"
       height="1.054"
       color-interpolation-filters="sRGB">
      <feGaussianBlur
         stdDeviation="0.61875"
         id="feGaussianBlur880" />
    </filter>
    <linearGradient
       id="linearGradient1053"
       x1="-127"
       x2="-72"
       y1="60"
       y2="5"
       gradientTransform="translate(203.93,-0.054156)"
       gradientUnits="userSpaceOnUse">
      <stop
         stop-color="#1d2123"
         offset="0"
         id="stop883" />
      <stop
         stop-color="#33393e"
         stop-opacity=".99608"
         offset="1"
         id="stop885" />
    </linearGradient>
  </defs>
  <sodipodi:namedview
     id="namedview27"
     pagecolor="#ffffff"
     bordercolor="#000000"
     borderopacity="0.25"
     inkscape:showpageshadow="2"
     inkscape:pageopacity="0.0"
     inkscape:pagecheckerboard="0"
     inkscape:deskcolor="#d1d1d1"
     inkscape:zoom="6.15625"
     inkscape:cx="23.715736"
     inkscape:cy="22.57868"
     inkscape:window-width="1920"
     inkscape:window-height="995"
     inkscape:window-x="0"
     inkscape:window-y="0"
     inkscape:window-maximized="1"
     inkscape:current-layer="svg27" />
  <g
     transform="translate(-72.440002)"
     id="g896">
    <rect
       x="76.934998"
       y="4.9558001"
       width="55"
       height="55"
       ry="15"
       fill="#141414"
       filter="url(#filter1057)"
       opacity="0.3"
       stroke-linecap="round"
       stroke-width="2.7444"
       id="rect890" />
    <rect
       x="76.934998"
       y="4.9558001"
       width="55"
       height="55"
       ry="15"
       fill="url(#linearGradient1053)"
       stroke-linecap="round"
       stroke-width="2.7444"
       id="rect892"
       style="fill:url(#linearGradient1053)" />
    <circle
       cx="104.44"
       cy="32"
       r="30.000999"
       fill-opacity="0"
       stroke-width="1.5715"
       id="circle894" />
  </g>
  <path
     fill="#e4c82f"
     d="M22.037 42.01h5.928c.018 0 .03.005.03.005V45s-.012.006-.03.006h-5.928c-.018 0-.035-.006-.035-.006v-2.985s.018-.006.035-.006"
     id="path2" />
  <path
     fill="#e4c82f"
     fill-opacity=".902"
     d="M22.037 37.99h5.928c.018 0 .03.006.03.006v2.985s-.012.006-.03.006h-5.928c-.018 0-.035-.006-.035-.006v-2.985s.018-.006.035-.006"
     id="path3" />
  <path
     fill="#e4c82f"
     fill-opacity=".8"
     d="M22.037 33.97h5.928c.018 0 .03 0 .03.006v2.945c0 .006-.012.006-.03.006h-5.928c-.018 0-.035 0-.035-.006v-2.945c0-.006.018-.006.035-.006"
     id="path4" />
  <path
     fill="#e4c82f"
     fill-opacity=".702"
     d="M22.037 30.011h5.928c.018 0 .03.006.03.006v2.927s-.012.006-.03.006h-5.928c-.018 0-.035-.006-.035-.006v-2.927s.018-.006.035-.006"
     id="path5" />
  <path
     fill="#e4c82f"
     fill-opacity=".6"
     d="M22.037 26.012h5.928c.018 0 .03 0 .03.006v2.909s-.012.006-.03.006h-5.928c-.018 0-.035-.006-.035-.006v-2.908c0-.006.018-.006.035-.006"
     id="path6" />
  <path
     fill="#3e8ded"
     d="M36.033 42.024h5.934c.018 0 .03 0 .03.006v2.963s-.012.006-.03.006h-5.934c-.018 0-.03-.006-.03-.006V42.03c0-.006.012-.006.03-.006"
     id="path7" />
  <path
     fill="#3e8ded"
     fill-opacity=".902"
     d="M36.033 38.044h5.934c.018 0 .03.006.03.006v2.945c0 .006-.012.006-.03.006h-5.934c-.018 0-.03 0-.03-.006V38.05s.012-.006.03-.006"
     id="path8" />
  <path
     fill="#3e8ded"
     fill-opacity=".8"
     d="M36.033 34.015h5.934c.018 0 .03.006.03.006v2.933s-.012.006-.03.006h-5.934c-.018 0-.03-.006-.03-.006V34.02s.012-.006.03-.006"
     id="path9" />
  <path
     fill="#3e8ded"
     fill-opacity=".702"
     d="M36.033 30.086h5.934c.018 0 .03 0 .03.006v2.909s-.012.006-.03.006h-5.934c-.018 0-.03-.006-.03-.006v-2.909c0-.006.012-.006.03-.006"
     id="path10" />
  <path
     fill="#3e8ded"
     fill-opacity=".6"
     d="M36.033 26.102h5.934c.018 0 .03.006.03.006v2.886c0 .006-.012.006-.03.006h-5.934c-.018 0-.03 0-.03-.006v-2.886s.012-.006.03-.006"
     id="path11" />
  <path
     fill="#3e8ded"
     fill-opacity=".502"
     d="M36.033 22h5.934c.018 0 .03.006.03.006v2.985c0 .006-.012.006-.03.006h-5.934c-.018 0-.03 0-.03-.006v-2.985s.012-.006.03-.006"
     id="path12" />
  <path
     fill="#db4ddb"
     d="M43.033 42.01h5.934c.018 0 .03.005.03.005V45s-.012.006-.03.006h-5.934c-.018 0-.03-.006-.03-.006v-2.985s.012-.006.03-.006"
     id="path13" />
  <path
     fill="#db4ddb"
     fill-opacity=".902"
     d="M43.033 38.014h5.934c.018 0 .03 0 .03.006v2.967s-.012.006-.03.006h-5.934c-.018 0-.03-.006-.03-.006V38.02c0-.006.012-.006.03-.006"
     id="path14" />
  <path
     fill="#db4ddb"
     fill-opacity=".8"
     d="M43.033 33.97h5.934c.018 0 .03 0 .03.006v2.945c0 .006-.012.006-.03.006h-5.934c-.018 0-.03 0-.03-.006v-2.945c0-.006.012-.006.03-.006"
     id="path15" />
  <path
     fill="#db4ddb"
     fill-opacity=".702"
     d="M43.033 30.011h5.934c.018 0 .03.006.03.006v2.927s-.012.006-.03.006h-5.934c-.018 0-.03-.006-.03-.006v-2.927s.012-.006.03-.006"
     id="path16" />
  <path
     fill="#db4ddb"
     fill-opacity=".6"
     d="M43.033 26.012h5.934c.018 0 .03 0 .03.006v2.909s-.012.006-.03.006h-5.934c-.018 0-.03-.006-.03-.006v-2.908c0-.006.012-.006.03-.006"
     id="path17" />
  <path
     fill="#7fcf5b"
     d="M29.037 42.01h5.928c.018 0 .03.005.03.005V45s-.012.006-.03.006h-5.928c-.018 0-.035-.006-.035-.006v-2.985s.018-.006.035-.006"
     id="path18" />
  <path
     fill="#7fcf5b"
     fill-opacity=".902"
     d="M29.037 38.014h5.928c.018 0 .03 0 .03.006v2.967s-.012.006-.03.006h-5.928c-.018 0-.035-.006-.035-.006V38.02c0-.006.018-.006.035-.006"
     id="path19" />
  <path
     fill="#7fcf5b"
     fill-opacity=".8"
     d="M29.037 33.97h5.928c.018 0 .03 0 .03.006v2.945c0 .006-.012.006-.03.006h-5.928c-.018 0-.035 0-.035-.006v-2.945c0-.006.018-.006.035-.006"
     id="path20" />
  <path
     fill="#c52f2f"
     d="M15.037 42.01h5.928c.018 0 .03.005.03.005V45s-.012.006-.03.006h-5.928c-.018 0-.035-.006-.035-.006v-2.985s.018-.006.035-.006"
     id="path21" />
  <path
     fill="#c52f2f"
     fill-opacity=".902"
     d="M15.037 38.044h5.928c.018 0 .03.006.03.006V41h-5.993v-2.95s.018-.006.035-.006"
     id="path22" />
  <path
     fill="#c52f2f"
     fill-opacity=".8"
     d="M15.037 34h5.958v2.933c0 .006-.012.006-.03.006h-5.928c-.018 0-.035 0-.035-.006V34h.035"
     id="path23" />
  <path
     fill="#c52f2f"
     fill-opacity=".702"
     d="M15.037 30.086h5.928c.018 0 .03 0 .03.006v2.909s-.012.006-.03.006h-5.928c-.018 0-.035-.006-.035-.006v-2.909c0-.006.018-.006.035-.006"
     id="path24" />
  <path
     fill="#c52f2f"
     fill-opacity=".6"
     d="M15.037 26.102h5.928c.018 0 .03.006.03.006V29h-5.993v-2.892s.018-.006.035-.006"
     id="path25" />
  <path
     fill="#c52f2f"
     fill-opacity=".502"
     d="M15.037 22h5.928c.018 0 .03 0 .03.006v2.98c0 .005-.012.005-.03.005h-5.928c-.018 0-.035 0-.035-.006v-2.979c0-.006.018-.006.035-.006"
     id="path26" />
  <path
     fill="#c52f2f"
     fill-opacity=".4"
     d="M15.037 18.01h5.928c.018 0 .03.005.03.005V21s-.012.006-.03.006h-5.928c-.018 0-.035-.006-.035-.006v-2.985s.018-.006.035-.006"
     id="path27" />
</svg>
