<?xml version="1.0" encoding="UTF-8" standalone="no"?>
<svg
   width="64"
   height="64"
   version="1.1"
   id="svg2"
   sodipodi:docname="exfalso.svg"
   inkscape:version="1.4.2 (ebf0e940d0, 2025-05-08)"
   xmlns:inkscape="http://www.inkscape.org/namespaces/inkscape"
   xmlns:sodipodi="http://sodipodi.sourceforge.net/DTD/sodipodi-0.dtd"
   xmlns="http://www.w3.org/2000/svg"
   xmlns:svg="http://www.w3.org/2000/svg">
  <defs
     id="defs2">
    <filter
       id="filter1057-3"
       x="-0.026999999"
       y="-0.026999999"
       width="1.054"
       height="1.054"
       color-interpolation-filters="sRGB">
      <feGaussianBlur
         stdDeviation="0.61875"
         id="feGaussianBlur860" />
    </filter>
    <linearGradient
       id="linearGradient1053-6"
       x1="-127"
       x2="-72"
       y1="60"
       y2="5"
       gradientTransform="translate(206.485,-2.5249996)"
       gradientUnits="userSpaceOnUse">
      <stop
         stop-color="#32d7ff"
         offset="0"
         id="stop863" />
      <stop
         stop-color="#329bff"
         offset="1"
         id="stop865" />
    </linearGradient>
  </defs>
  <sodipodi:namedview
     id="namedview2"
     pagecolor="#ffffff"
     bordercolor="#000000"
     borderopacity="0.25"
     inkscape:showpageshadow="2"
     inkscape:pageopacity="0.0"
     inkscape:pagecheckerboard="0"
     inkscape:deskcolor="#d1d1d1"
     inkscape:zoom="6.15625"
     inkscape:cx="35.411168"
     inkscape:cy="43.28934"
     inkscape:window-width="1920"
     inkscape:window-height="1012"
     inkscape:window-x="0"
     inkscape:window-y="0"
     inkscape:window-maximized="1"
     inkscape:current-layer="svg2" />
  <g
     id="g1"
     transform="translate(-74.985001,2.0149995)">
    <rect
       x="79.485001"
       y="2.4849999"
       width="55"
       height="55"
       ry="15"
       fill="#141414"
       filter="url(#filter1057)"
       opacity="0.3"
       stroke-linecap="round"
       stroke-width="2.7444"
       id="rect896"
       style="filter:url(#filter1057-3)" />
    <rect
       x="79.485001"
       y="2.4850004"
       width="55"
       height="55"
       ry="15"
       fill="url(#linearGradient1053)"
       stroke-linecap="round"
       stroke-width="2.7444"
       id="rect898"
       style="fill:url(#linearGradient1053-6)" />
  </g>
  <path
     fill="#f9f9f9"
     fill-rule="evenodd"
     d="m 14.517203,14.497707 c 4.296153,4.522085 2.430205,7.420211 4.770955,12.753128 2.18707,4.954454 6.951143,1.246643 10.217412,4.74343 -3.266269,3.502524 -8.046398,-0.221344 -10.234615,4.728521 -2.355659,5.33292 -0.478243,8.245953 -4.770955,12.773773 4.528967,-4.296153 7.443148,-2.419883 12.77492,-4.770955 4.954453,-2.192804 1.246641,-6.956878 4.74343,-10.218559 3.470411,3.261681 -0.215611,8.047545 4.727374,10.235762 5.332918,2.361394 8.225309,0.457599 12.753129,4.759486 -4.295006,-4.527819 -2.396946,-7.427092 -4.759486,-12.76001 -2.18707,-4.938397 -6.956878,-1.266138 -10.217413,-4.738843 3.260535,-3.474998 8.030343,0.199555 10.21856,-4.742283 C 47.101907,21.928239 45.198113,19.03126 49.5,14.502293 44.97218,18.803034 42.079789,16.904974 36.746871,19.266367 31.802739,21.44885 35.488761,26.234714 32.01835,29.496395 28.51468,26.234714 32.222492,21.47064 27.27492,19.277836 21.942001,16.92103 19.028967,18.803034 14.501147,14.506881"
     id="path2"
     style="stroke-width:1.14686" />
</svg>
