<?xml version="1.0" encoding="UTF-8" standalone="no"?>
<svg
   width="64"
   height="64"
   version="1.1"
   id="svg2"
   sodipodi:docname="exfalso.svg"
   inkscape:version="1.3.2 (091e20ef0f, 2023-11-25, custom)"
   xmlns:inkscape="http://www.inkscape.org/namespaces/inkscape"
   xmlns:sodipodi="http://sodipodi.sourceforge.net/DTD/sodipodi-0.dtd"
   xmlns:xlink="http://www.w3.org/1999/xlink"
   xmlns="http://www.w3.org/2000/svg"
   xmlns:svg="http://www.w3.org/2000/svg">
  <defs
     id="defs2">
    <filter
       inkscape:collect="always"
       style="color-interpolation-filters:sRGB"
       id="filter1057"
       x="-0.026999999"
       width="1.054"
       y="-0.026999999"
       height="1.054">
      <feGaussianBlur
         inkscape:collect="always"
         stdDeviation="0.61875"
         id="feGaussianBlur1059" />
    </filter>
    <linearGradient
       inkscape:collect="always"
       xlink:href="#linearGradient1051"
       id="linearGradient1053"
       x1="-127"
       y1="60"
       x2="-72"
       y2="5"
       gradientUnits="userSpaceOnUse"
       gradientTransform="translate(131.5,-0.50999961)" />
    <linearGradient
       inkscape:collect="always"
       id="linearGradient1051">
      <stop
         style="stop-color:#8cd750;stop-opacity:1"
         offset="0"
         id="stop1047" />
      <stop
         id="stop989"
         offset="0.4958486"
         style="stop-color:#7dcd32;stop-opacity:0.99607843" />
      <stop
         style="stop-color:#87d241;stop-opacity:0.99607843"
         offset="1"
         id="stop1049" />
    </linearGradient>
  </defs>
  <sodipodi:namedview
     id="namedview2"
     pagecolor="#ffffff"
     bordercolor="#000000"
     borderopacity="0.25"
     inkscape:showpageshadow="2"
     inkscape:pageopacity="0.0"
     inkscape:pagecheckerboard="0"
     inkscape:deskcolor="#d1d1d1"
     inkscape:zoom="6.15625"
     inkscape:cx="35.411168"
     inkscape:cy="43.370558"
     inkscape:window-width="1920"
     inkscape:window-height="995"
     inkscape:window-x="0"
     inkscape:window-y="0"
     inkscape:window-maximized="1"
     inkscape:current-layer="svg2" />
  <rect
     style="opacity:0.3;fill:#141414;fill-opacity:1;stroke-width:2.74436;stroke-linecap:round;filter:url(#filter1057)"
     id="rect1055"
     width="55"
     height="55"
     x="4.4999995"
     y="4.4999995"
     ry="15" />
  <rect
     ry="14.999999"
     y="4.5000019"
     x="4.5000019"
     height="54.999996"
     width="54.999996"
     id="rect1045"
     style="fill:url(#linearGradient1053);fill-opacity:1;stroke-width:2.74436;stroke-linecap:round" />
  <path
     fill="#f9f9f9"
     fill-rule="evenodd"
     d="m 14.517203,14.497707 c 4.296153,4.522085 2.430205,7.420211 4.770955,12.753128 2.18707,4.954454 6.951143,1.246643 10.217412,4.74343 -3.266269,3.502524 -8.046398,-0.221344 -10.234615,4.728521 -2.355659,5.33292 -0.478243,8.245953 -4.770955,12.773773 4.528967,-4.296153 7.443148,-2.419883 12.77492,-4.770955 4.954453,-2.192804 1.246641,-6.956878 4.74343,-10.218559 3.470411,3.261681 -0.215611,8.047545 4.727374,10.235762 5.332918,2.361394 8.225309,0.457599 12.753129,4.759486 -4.295006,-4.527819 -2.396946,-7.427092 -4.759486,-12.76001 -2.18707,-4.938397 -6.956878,-1.266138 -10.217413,-4.738843 3.260535,-3.474998 8.030343,0.199555 10.21856,-4.742283 C 47.101907,21.928239 45.198113,19.03126 49.5,14.502293 44.97218,18.803034 42.079789,16.904974 36.746871,19.266367 31.802739,21.44885 35.488761,26.234714 32.01835,29.496395 28.51468,26.234714 32.222492,21.47064 27.27492,19.277836 21.942001,16.92103 19.028967,18.803034 14.501147,14.506881"
     id="path2"
     style="stroke-width:1.14686" />
</svg>
