<?xml version="1.0" encoding="UTF-8" standalone="no"?>
<svg
   width="64"
   height="64"
   version="1.1"
   id="svg2"
   sodipodi:docname="extension-manager.svg"
   inkscape:version="1.3.2 (091e20ef0f, 2023-11-25, custom)"
   xmlns:inkscape="http://www.inkscape.org/namespaces/inkscape"
   xmlns:sodipodi="http://sodipodi.sourceforge.net/DTD/sodipodi-0.dtd"
   xmlns:xlink="http://www.w3.org/1999/xlink"
   xmlns="http://www.w3.org/2000/svg"
   xmlns:svg="http://www.w3.org/2000/svg">
  <defs
     id="defs2">
    <linearGradient
       id="linearGradient4"
       inkscape:collect="always">
      <stop
         style="stop-color:#ffffff;stop-opacity:1;"
         offset="0"
         id="stop5" />
      <stop
         style="stop-color:#9bddff;stop-opacity:1;"
         offset="1"
         id="stop6" />
    </linearGradient>
    <filter
       id="filter1057"
       x="-0.026999999"
       y="-0.026999999"
       width="1.054"
       height="1.054"
       color-interpolation-filters="sRGB">
      <feGaussianBlur
         stdDeviation="0.61875"
         id="feGaussianBlur2" />
    </filter>
    <linearGradient
       id="linearGradient1053"
       x1="-127"
       x2="-72"
       y1="60"
       y2="5"
       gradientTransform="matrix(1.0000071,0,0,1.0000071,131.49969,-0.51020942)"
       gradientUnits="userSpaceOnUse">
      <stop
         stop-color="#32d7ff"
         offset="0"
         id="stop3" />
      <stop
         stop-color="#329bff"
         offset="1"
         id="stop4" />
    </linearGradient>
    <linearGradient
       id="e"
       x1="32"
       x2="32"
       y1="16"
       y2="48"
       gradientUnits="userSpaceOnUse"
       gradientTransform="translate(3e-4)">
      <stop
         stop-color="#fff"
         offset="0"
         id="stop2" />
      <stop
         stop-color="#c3ffd8"
         offset="1"
         id="stop4-3"
         style="stop-color:#bffde9;stop-opacity:1" />
    </linearGradient>
    <linearGradient
       inkscape:collect="always"
       xlink:href="#linearGradient4"
       id="linearGradient6"
       x1="28.952299"
       y1="16"
       x2="28.952299"
       y2="48"
       gradientUnits="userSpaceOnUse" />
  </defs>
  <sodipodi:namedview
     id="namedview2"
     pagecolor="#ffffff"
     bordercolor="#000000"
     borderopacity="0.25"
     inkscape:showpageshadow="2"
     inkscape:pageopacity="0.0"
     inkscape:pagecheckerboard="0"
     inkscape:deskcolor="#d1d1d1"
     inkscape:zoom="4.3531261"
     inkscape:cx="16.080398"
     inkscape:cy="35.606595"
     inkscape:window-width="1920"
     inkscape:window-height="995"
     inkscape:window-x="0"
     inkscape:window-y="0"
     inkscape:window-maximized="1"
     inkscape:current-layer="svg2" />
  <rect
     transform="matrix(1.0000071,0,0,1.0000071,-2.277238e-4,-2.277238e-4)"
     x="4.5"
     y="4.5"
     width="55"
     height="55"
     ry="15"
     fill="#141414"
     filter="url(#filter1057)"
     opacity="0.3"
     stroke-width="2.7444"
     id="rect4"
     style="stroke-linecap:round" />
  <rect
     x="4.4997663"
     y="4.4997663"
     width="55.000767"
     height="55.000767"
     ry="15.000106"
     fill="url(#linearGradient1053)"
     stroke-width="2.74441"
     id="rect5"
     style="fill:url(#linearGradient1053);stroke-linecap:round" />
  <path
     d="m 44.1903,31.238 h -2.2857 v -6.0952 c 0,-1.6762 -1.3714,-3.0476 -3.0476,-3.0476 H 32.7618 V 19.8095 C 32.7618,17.6762 31.0856,16 28.9523,16 c -2.1333,0 -3.8095,1.6762 -3.8095,3.8095 v 2.2857 H 19.0476 C 17.3714,22.0952 16,23.4666 16,25.1428 v 5.7905 h 2.2857 c 2.2857,0 4.1143,1.8286 4.1143,4.1143 0,2.2857 -1.8286,4.1143 -4.1143,4.1143 H 16 v 5.7905 C 16,46.6286 17.3714,48 19.0476,48 h 5.7905 v -2.2857 c 0,-2.2857 1.8286,-4.1143 4.1143,-4.1143 2.2857,0 4.1143,1.8286 4.1143,4.1143 V 48 h 5.7905 c 1.6762,0 3.0476,-1.3714 3.0476,-3.0476 v -6.0952 h 2.2857 C 46.3238,38.8572 48,37.181 48,35.0477 48,32.9144 46.3238,31.2382 44.1905,31.2382 Z"
     id="path20"
     style="fill:url(#linearGradient6);fill-opacity:1" />
</svg>
