<?xml version="1.0" encoding="UTF-8" standalone="no"?>
<svg
   width="64"
   height="64"
   version="1.1"
   viewBox="0 0 16.933 16.933"
   id="svg29047"
   sodipodi:docname="falkon.svg"
   inkscape:version="1.2.1 (9c6d41e, 2022-07-14)"
   xml:space="preserve"
   xmlns:inkscape="http://www.inkscape.org/namespaces/inkscape"
   xmlns:sodipodi="http://sodipodi.sourceforge.net/DTD/sodipodi-0.dtd"
   xmlns:xlink="http://www.w3.org/1999/xlink"
   xmlns="http://www.w3.org/2000/svg"
   xmlns:svg="http://www.w3.org/2000/svg"
   xmlns:rdf="http://www.w3.org/1999/02/22-rdf-syntax-ns#"
   xmlns:cc="http://creativecommons.org/ns#"
   xmlns:dc="http://purl.org/dc/elements/1.1/"><sodipodi:namedview
     id="namedview29049"
     pagecolor="#505050"
     bordercolor="#ffffff"
     borderopacity="1"
     inkscape:showpageshadow="0"
     inkscape:pageopacity="0"
     inkscape:pagecheckerboard="1"
     inkscape:deskcolor="#505050"
     showgrid="false"
     inkscape:zoom="4.7912209"
     inkscape:cx="-7.4093849"
     inkscape:cy="-10.853184"
     inkscape:current-layer="svg29047" /><defs
     id="defs29023"><linearGradient
       inkscape:collect="always"
       id="linearGradient73015"><stop
         style="stop-color:#e9872a;stop-opacity:1"
         offset="0"
         id="stop73011" /><stop
         style="stop-color:#e4e92a;stop-opacity:0;"
         offset="1"
         id="stop73013" /></linearGradient><filter
       id="filter1057-4-4"
       x="-0.026999999"
       y="-0.026999999"
       width="1.054"
       height="1.054"
       color-interpolation-filters="sRGB"><feGaussianBlur
         stdDeviation="0.61875"
         id="feGaussianBlur29015" /></filter><linearGradient
       id="linearGradient1053-5-2"
       x1="-127"
       x2="-72"
       y1="60"
       y2="5"
       gradientTransform="matrix(.2646 0 0 .2646 32.942 1.0363)"
       gradientUnits="userSpaceOnUse"><stop
         stop-color="#32d7ff"
         offset="0"
         id="stop29018"
         style="stop-color:#79c4f6;stop-opacity:1;" /><stop
         stop-color="#329bff"
         offset="1"
         id="stop29020"
         style="stop-color:#b166ff;stop-opacity:1;" /></linearGradient><linearGradient
       inkscape:collect="always"
       xlink:href="#linearGradient1053-5-2"
       id="linearGradient54974"
       gradientUnits="userSpaceOnUse"
       gradientTransform="matrix(0.2646,0,0,0.2646,32.942,1.0363)"
       x1="-127"
       y1="60"
       x2="-72"
       y2="5" /><linearGradient
       inkscape:collect="always"
       xlink:href="#linearGradient73015"
       id="linearGradient54996"
       x1="20.919655"
       y1="13.756975"
       x2="30.99036"
       y2="7.4407496"
       gradientUnits="userSpaceOnUse"
       gradientTransform="translate(-16.933)" /><linearGradient
       inkscape:collect="always"
       xlink:href="#linearGradient73015"
       id="linearGradient62387"
       x1="20.350634"
       y1="8.8618183"
       x2="31.032265"
       y2="7.3881545"
       gradientUnits="userSpaceOnUse"
       gradientTransform="translate(-16.933)" /><linearGradient
       inkscape:collect="always"
       xlink:href="#linearGradient73015"
       id="linearGradient65500"
       x1="21.571705"
       y1="3.6104879"
       x2="24.159809"
       y2="3.8060186"
       gradientUnits="userSpaceOnUse"
       gradientTransform="translate(-16.933)" /><filter
       inkscape:collect="always"
       style="color-interpolation-filters:sRGB"
       id="filter68545"
       x="-0.14834202"
       y="-0.14568205"
       width="1.296684"
       height="1.2913641"><feGaussianBlur
         inkscape:collect="always"
         stdDeviation="0.66355061"
         id="feGaussianBlur68547" /></filter></defs><metadata
     id="metadata29025"><rdf:RDF><cc:Work
         rdf:about=""><dc:format>image/svg+xml</dc:format><dc:type
           rdf:resource="http://purl.org/dc/dcmitype/StillImage" /></cc:Work></rdf:RDF></metadata><g
     transform="translate(1.8521695,-1.1717)"
     stroke-linecap="round"
     id="g54956"><rect
       transform="matrix(0.2646,0,0,0.2646,-1.8525,1.1713)"
       x="4.5"
       y="4.5"
       width="55"
       height="55"
       ry="15"
       fill="#141414"
       filter="url(#filter1057-4-4)"
       opacity="0.3"
       stroke-width="2.7444"
       id="rect54952" /><rect
       x="-0.66188002"
       y="2.3619001"
       width="14.552"
       height="14.552"
       ry="3.9689"
       fill="url(#linearGradient1053-5-2)"
       stroke-width="0.72613"
       id="rect54954"
       style="fill:url(#linearGradient54974)" /></g><path
     id="path68538"
     style="mix-blend-mode:normal;fill:#4914ff;fill-opacity:1;fill-rule:evenodd;stroke-width:1.04117;filter:url(#filter68545)"
     d="m 7.3828675,3.0013081 c -0.79971,0.00562 -1.713781,0.1782344 -2.749133,0.6087364 1.455989,0.1140016 2.080007,0.3188639 2.115592,0.4743803 -2.518249,-0.4349193 -3.264272,3.1648648 -3.345983,4.7691241 0,0 4.289616,-4.7409175 10.6957765,-1.4655148 C 13.98446,6.4971088 13.226943,5.4920581 11.868809,5.2047478 11.634053,5.0925172 10.238972,2.9812455 7.3828675,3.0013081 Z m 2.553282,1.7672992 c 0.3316915,-0.00529 0.7732565,0.1275641 0.8603945,0.8433428 -1.0823535,0.10214 -1.2407255,-0.779782 -1.2407255,-0.779782 0,0 0.167708,-0.060168 0.380331,-0.063561 z m -0.167429,1.5885023 c -1.705954,-0.00883 -3.738624,0.4775199 -5.746822,2.1409124 -1.460277,3.397644 -0.03514,5.25849 -0.03514,5.25849 0.0015,-0.0053 2.061016,-7.2356844 10.0705045,-6.315769 0,0 -1.795225,-1.0707292 -4.2885425,-1.0836334 z m 2.7114085,1.1906015 c -5.7330315,0.091267 -7.8804995,5.2941459 -7.8804995,5.2941459 4.440793,2.691889 7.8877345,-0.445958 7.8877345,-0.445958 0,0 -4.3649975,-3.7816464 -0.0072,-4.8481879 z" /><path
     d="m 3.9866545,13.756975 c 0,0 2.058292,-7.2364767 10.0707055,-6.3162253 0,0 -5.0921885,-3.0371918 -10.0354505,1.057317 -1.460278,3.3976473 -0.03525,5.2585793 -0.03525,5.2585793 z"
     fill="url(#r)"
     id="path31407"
     style="opacity:0.9;fill:#fafaff;fill-opacity:1;fill-rule:evenodd;stroke-width:1.04117" /><path
     d="m 4.5994965,12.841666 c 0,0 2.147582,-5.2025665 7.8806195,-5.2938337 -4.3577675,1.0665425 0.0072,4.8480407 0.0072,4.8480407 0,0 -3.4470695,3.137684 -7.8878675,0.445793 z"
     fill="url(#q)"
     id="path31409"
     style="opacity:0.7;fill:#fafaff;fill-opacity:1;fill-rule:evenodd;stroke-width:1.04117" /><path
     id="path31411"
     style="fill:#fafaff;fill-opacity:1;fill-rule:evenodd;stroke-width:1.04117"
     d="m 7.3827935,3.0012434 c -0.79971,0.00562 -1.713786,0.1782725 -2.749139,0.6087749 1.45599,0.1140017 2.080325,0.3187614 2.11591,0.474278 -2.518251,-0.4349197 -3.264619,3.1649046 -3.34633,4.7691655 0,0 4.289863,-4.7407131 10.6960305,-1.4653071 C 13.984605,6.4972285 13.226942,5.4919843 11.868807,5.2046737 11.63405,5.092443 10.238901,2.9811808 7.3827935,3.0012434 Z m 2.553508,1.7671203 C 10.267994,4.7630737 10.709555,4.8962458 10.796694,5.6120252 9.7143385,5.7141653 9.5559785,4.8320727 9.5559785,4.8320727 c 0,0 0.1677,-0.060316 0.380323,-0.063709 z" /><path
     d="m 3.9579885,13.780039 c 0,0 1.876088,-6.1488471 8.1494805,-6.3870647 0,0 -5.0905415,-0.9331012 -8.6858815,4.7887337 -0.01976,0.809545 0.536401,1.59866 0.536401,1.59866 z"
     fill="url(#o)"
     id="path31415"
     style="opacity:0.8;fill:url(#linearGradient54996);fill-opacity:1;fill-rule:evenodd;stroke-width:1.04117" /><path
     d="m 4.6383755,3.6104876 c 0,0 1.565053,0.091597 2.12353,0.4777532 0.233276,-0.048434 0.431626,-0.2088934 0.464904,-0.4273419 -0.199998,-0.08336 -2.031933,-0.2329459 -2.588104,-0.050411 z"
     fill="url(#n)"
     id="path31417"
     style="fill:url(#linearGradient65500);fill-opacity:1;fill-rule:evenodd;stroke-width:1.04117" /><path
     d="m 3.4176335,8.8618179 c 0,0 1.959118,-2.3640541 5.913595,-2.6464227 0,0 -5.383783,0.2444779 -5.835177,1.7716404 -0.125863,0.3673756 -0.07842,0.8747823 -0.07842,0.8747823 z"
     fill="url(#m)"
     id="path31419"
     style="opacity:0.5;fill:url(#linearGradient62387);fill-opacity:1;fill-rule:evenodd;stroke-width:1.04117" /></svg>
