<?xml version="1.0" encoding="UTF-8" standalone="no"?>
<svg
   width="64"
   height="64"
   version="1.1"
   id="svg3"
   sodipodi:docname="ferdi.svg"
   inkscape:version="1.3.2 (091e20ef0f, 2023-11-25, custom)"
   xmlns:inkscape="http://www.inkscape.org/namespaces/inkscape"
   xmlns:sodipodi="http://sodipodi.sourceforge.net/DTD/sodipodi-0.dtd"
   xmlns="http://www.w3.org/2000/svg"
   xmlns:svg="http://www.w3.org/2000/svg">
  <sodipodi:namedview
     id="namedview3"
     pagecolor="#ffffff"
     bordercolor="#000000"
     borderopacity="0.25"
     inkscape:showpageshadow="2"
     inkscape:pageopacity="0.0"
     inkscape:pagecheckerboard="0"
     inkscape:deskcolor="#d1d1d1"
     inkscape:zoom="3.078125"
     inkscape:cx="-24.365482"
     inkscape:cy="46.13198"
     inkscape:window-width="1920"
     inkscape:window-height="995"
     inkscape:window-x="0"
     inkscape:window-y="0"
     inkscape:window-maximized="1"
     inkscape:current-layer="svg3" />
  <defs
     id="defs2">
    <linearGradient
       id="a"
       x2="0"
       y1="1"
       y2="47"
       gradientTransform="translate(3.826 3.826) scale(1.1739)"
       gradientUnits="userSpaceOnUse">
      <stop
         offset="0"
         stop-color="#9584f4"
         id="stop1" />
      <stop
         offset="1"
         stop-color="#8471f2"
         id="stop2" />
    </linearGradient>
    <filter
       id="filter1057"
       x="-0.026999999"
       y="-0.026999999"
       width="1.054"
       height="1.054"
       color-interpolation-filters="sRGB">
      <feGaussianBlur
         stdDeviation="0.61875"
         id="feGaussianBlur1" />
    </filter>
    <linearGradient
       id="linearGradient1053"
       x1="-127"
       x2="-72"
       y1="60"
       y2="5"
       gradientTransform="translate(131.5,-0.51000023)"
       gradientUnits="userSpaceOnUse">
      <stop
         stop-color="#a53cff"
         offset="0"
         id="stop1-3" />
      <stop
         stop-color="#b496ff"
         offset="1"
         id="stop2-6" />
    </linearGradient>
  </defs>
  <rect
     x="4.4999995"
     y="4.4999995"
     width="55"
     height="55"
     ry="15"
     fill="#141414"
     filter="url(#filter1057)"
     opacity="0.3"
     stroke-linecap="round"
     stroke-width="2.7444"
     id="rect6" />
  <rect
     x="4.5"
     y="4.5"
     width="55"
     height="55"
     ry="15"
     fill="url(#linearGradient1053)"
     stroke-linecap="round"
     stroke-width="2.7444"
     id="rect7"
     style="fill:url(#linearGradient1053)" />
  <path
     fill="#fff"
     fill-rule="evenodd"
     d="M27.5 23.327c-4.333 0-5.143 6.429-9.643 6.429-2.571 0-2.571-2.572-3.857-2.572 0 3.857 4.5 6.429 8.357 6.429 6.429 0 5.786-3.857 9.643-3.857s3.214 3.857 9.643 3.857C45.5 33.613 50 31.04 50 27.184c-1.286 0-1.286 2.572-3.857 2.572-4.5 0-5.31-6.429-9.643-6.429-1.929 0-1.929 1.286-4.5 1.286s-2.571-1.286-4.5-1.286zM32 36.184c-1.355 0-3.857 0-3.857 1.286 0 3.214 2.571 9 3.857 9s3.857-5.786 3.857-9c0-1.287-2.502-1.286-3.857-1.286z"
     id="path3" />
</svg>
