<?xml version="1.0" encoding="UTF-8" standalone="no"?>
<svg
   width="64"
   height="64"
   version="1.1"
   id="svg3"
   sodipodi:docname="fingerprint-gui.svg"
   inkscape:version="1.3 (0e150ed6c4, 2023-07-21)"
   xmlns:inkscape="http://www.inkscape.org/namespaces/inkscape"
   xmlns:sodipodi="http://sodipodi.sourceforge.net/DTD/sodipodi-0.dtd"
   xmlns:xlink="http://www.w3.org/1999/xlink"
   xmlns="http://www.w3.org/2000/svg"
   xmlns:svg="http://www.w3.org/2000/svg">
  <sodipodi:namedview
     id="namedview3"
     pagecolor="#ffffff"
     bordercolor="#000000"
     borderopacity="0.25"
     inkscape:showpageshadow="2"
     inkscape:pageopacity="0.0"
     inkscape:pagecheckerboard="0"
     inkscape:deskcolor="#d1d1d1"
     inkscape:zoom="5.734375"
     inkscape:cx="61.035422"
     inkscape:cy="33.656676"
     inkscape:window-width="1920"
     inkscape:window-height="941"
     inkscape:window-x="0"
     inkscape:window-y="34"
     inkscape:window-maximized="1"
     inkscape:current-layer="svg3" />
  <defs
     id="defs2">
    <filter
       id="c"
       x="-0.06390551"
       y="-0.056523668"
       width="1.127811"
       height="1.1130473"
       color-interpolation-filters="sRGB">
      <feGaussianBlur
         stdDeviation=".96"
         id="feGaussianBlur1" />
    </filter>
    <linearGradient
       id="linearGradient927"
       x1="7.9373"
       x2="7.9373"
       y1="15.081"
       y2="1.852"
       gradientTransform="matrix(3.7796,0,0,3.7796,77.079019,0)"
       gradientUnits="userSpaceOnUse">
      <stop
         stop-color="#792f7b"
         stop-opacity=".90196"
         offset="0"
         id="stop1" />
      <stop
         stop-color="#da6e98"
         stop-opacity=".90196"
         offset="1"
         id="stop2" />
    </linearGradient>
    <filter
       inkscape:collect="always"
       style="color-interpolation-filters:sRGB"
       id="filter1057"
       x="-0.026999999"
       width="1.054"
       y="-0.026999999"
       height="1.054">
      <feGaussianBlur
         inkscape:collect="always"
         stdDeviation="0.61875"
         id="feGaussianBlur1059" />
    </filter>
    <linearGradient
       inkscape:collect="always"
       xlink:href="#linearGradient1051"
       id="linearGradient1053"
       x1="-127"
       y1="60"
       x2="-72"
       y2="5"
       gradientUnits="userSpaceOnUse"
       gradientTransform="translate(131.50001,-0.50999966)" />
    <linearGradient
       inkscape:collect="always"
       id="linearGradient1051">
      <stop
         style="stop-color:#8811a2;stop-opacity:1"
         offset="0"
         id="stop1047" />
      <stop
         style="stop-color:#da50d5;stop-opacity:1"
         offset="1"
         id="stop1049" />
    </linearGradient>
  </defs>
  <rect
     ry="15"
     y="4.4999995"
     x="4.4999995"
     height="55"
     width="55"
     id="rect1055"
     style="opacity:0.3;fill:#141414;fill-opacity:1;stroke-width:2.74436;stroke-linecap:round;filter:url(#filter1057)" />
  <rect
     style="fill:url(#linearGradient1053);fill-opacity:1;stroke-width:2.74436;stroke-linecap:round"
     id="rect1045"
     width="54.999996"
     height="54.999996"
     x="4.5000019"
     y="4.5000019"
     ry="14.999999" />
  <path
     d="m 31.911387,11.576 c -4.035,-0.018 -7.495,0.731 -10.641001,2.307 -1.047,0.524 -1.21,0.707 -1.143,1.273 0.139,1.155 0.735,1.268 2.502,0.475 3.285001,-1.474 4.884001,-1.789 9.028001,-1.793 4.755,-0.004 6.506,0.404 10.406,2.423 0.67,0.347 2.79,1.983 3.582,1.104 0.784,-0.784 0.37,-1.432 -1.649,-2.58 -3.982,-2.264 -7.462,-3.187 -12.086,-3.21 z m -0.123,4.67 c -5.324,-0.004 -10.643001,2.1 -14.545001,6.314 -1.51,1.63 -3.27,4.303 -3.27,4.963 0,0.77 0.317,1.196 0.893,1.196 0.451,0 0.91,-0.488 2.004,-2.131 2.445,-3.675 5.614,-6.112 9.697001,-7.46 3.167,-1.033 6.876,-0.913 10.44,0 4.6,1.513 8.548,4.883 10.71,9.145 0.47,0.928 0.752,1.21 1.213,1.21 0.794,0 1.26,-0.591 1.043,-1.325 -0.35,-1.183 -2.215,-4.049 -3.627,-5.574 -3.907,-4.22 -9.235,-6.334 -14.559,-6.338 z m 0.252,4.639 a 15.464,15.464 0 0 0 -3.436,0.328 c -5.467001,1.143 -10.037001,5.569 -11.500001,11.14 -0.776,2.957 -0.419,7.787 0.862,11.649 0.382,1.154 0.568,1.395 1.117,1.459 1.261,0.146 1.384,-0.454 0.629,-3.065 -2.16,-7.47 -0.3,-13.826 5.056001,-17.29 5.297,-3.427 12.582,-2.413 16.727,2.325 2.598,2.97 4.023,7.992 2.89,10.184 -0.75,1.448 -2.574,2.32 -4.071,1.944 -1.094,-0.275 -2.39,-1.62 -2.557,-2.652 -0.586,-3.642 -1.414,-5.067 -3.508,-6.041 -1.786,-0.832 -3.274,-0.808 -5.027,0.08 -1.633,0.827 -2.883,2.495 -3.137,4.185 -0.091,0.609 -0.052,1.928 0.09,2.928 0.884,6.23 5.34,11.158 11.461,12.674 0.77,0.19 2.03,0.325 2.8,0.299 l 1.4,-0.047 c 0.79,-0.402 0.834,-1.326 0,-1.781 l -1.981,-0.303 c -2.493,-0.38 -3.525,-0.707 -5.238,-1.672 -3.726,-2.098 -6.397,-6.645 -6.397,-10.893 0,-1.872 0.709,-2.966 2.361,-3.65 1.195,-0.495 1.213,-0.495 2.407,0 1.51,0.626 2.238,1.673 2.425,3.488 0.344,3.33 2.656,5.523 5.825,5.523 2.543,0 4.684,-1.65 5.443,-4.195 0.743,-2.49 -0.254,-6.674 -2.35,-9.856 a 14.974,14.974 0 0 0 -12.29,-6.761 z m -0.164,4.824 c -1.584,0.02 -3.212,0.312 -4.547,0.832 -2.058,1.008 -4.019,3.02 -5.033001,5.162 -0.772,1.63 -0.817,1.884 -0.817,4.65 0,3.404 0.412,5.212 1.877001,8.268 1.263,2.633 3.013,4.93 4.957,6.504 1.686,1.364 1.865,1.429 2.567,0.916 0.718,-0.525 0.318,-1.426 -1.133,-2.54 -1.574,-1.206 -3.275,-3.388 -4.422,-5.677 -1.884,-3.76 -2.360001,-8.406 -1.13,-11.066 0.89,-1.93 2.25,-3.37 3.984,-4.22 2.082,-1.023 5.124,-1.023 7.207,0 2.485,1.22 4.075,3.443 4.638,6.492 0.336,1.82 0.844,2.423 1.62,1.923 0.359,-0.231 0.437,-0.618 0.404,-2.004 -0.082,-3.369 -2.441,-6.75 -5.891,-8.445 -1.158,-0.563 -2.698,-0.815 -4.281,-0.795 z m -0.012,9.209 c -0.184,-0.004 -0.39,0.055 -0.623,0.18 -0.487,0.26 -0.527,0.446 -0.408,1.853 0.376,4.452 3.726,8.284 8.074,9.232 1.929,0.42 2.445,0.411 2.908,-0.052 0.926,-0.926 0.308,-1.663 -1.613,-1.926 -3.926,-0.537 -6.844,-3.533 -7.31,-7.504 -0.14,-1.184 -0.477,-1.772 -1.028,-1.783 z"
     fill="#ffffff"
     id="path4" />
</svg>
