<?xml version="1.0" encoding="UTF-8" standalone="no"?>
<svg
   width="64"
   height="64"
   viewBox="0 0 16.933 16.933"
   version="1.1"
   id="svg2"
   sodipodi:docname="fluent-reader.svg"
   xml:space="preserve"
   inkscape:version="1.3.2 (091e20ef0f, 2023-11-25, custom)"
   xmlns:inkscape="http://www.inkscape.org/namespaces/inkscape"
   xmlns:sodipodi="http://sodipodi.sourceforge.net/DTD/sodipodi-0.dtd"
   xmlns:xlink="http://www.w3.org/1999/xlink"
   xmlns="http://www.w3.org/2000/svg"
   xmlns:svg="http://www.w3.org/2000/svg"><defs
     id="defs2"><filter
       id="filter1057"
       x="-0.026999999"
       y="-0.026999999"
       width="1.054"
       height="1.054"
       color-interpolation-filters="sRGB"><feGaussianBlur
         stdDeviation="0.61875"
         id="feGaussianBlur2" /></filter><linearGradient
       id="linearGradient1053"
       x1="-127"
       x2="-72"
       y1="60"
       y2="5"
       gradientTransform="matrix(0.26458,0,0,0.26458,34.791899,-0.13502989)"
       gradientUnits="userSpaceOnUse"><stop
         stop-color="#32d7ff"
         offset="0"
         id="stop3" /><stop
         stop-color="#329bff"
         offset="1"
         id="stop4" /></linearGradient><linearGradient
       id="linearGradient1050"
       x1="31.802999"
       x2="31.802999"
       y1="8.0243998"
       y2="8.2410002"
       gradientTransform="matrix(0.82927,0,0,0.8636,-17.745,1.0542)"
       gradientUnits="userSpaceOnUse"
       xlink:href="#linearGradient64681" /><linearGradient
       id="linearGradient64681"><stop
         stop-color="#99c2e6"
         offset="0"
         id="stop1" /><stop
         stop-color="#6493bd"
         offset="1"
         id="stop2" /></linearGradient><linearGradient
       id="linearGradient1052"
       x1="31.802999"
       x2="31.802999"
       y1="8.0243998"
       y2="8.2410002"
       gradientTransform="matrix(0.8636,0,0,0.8636,-18.831,0.94954)"
       gradientUnits="userSpaceOnUse"
       xlink:href="#linearGradient64681" /></defs><sodipodi:namedview
     id="namedview2"
     pagecolor="#ffffff"
     bordercolor="#000000"
     borderopacity="0.25"
     inkscape:showpageshadow="2"
     inkscape:pageopacity="0.0"
     inkscape:pagecheckerboard="0"
     inkscape:deskcolor="#d1d1d1"
     inkscape:zoom="8.7062522"
     inkscape:cx="37.329495"
     inkscape:cy="32.275656"
     inkscape:window-width="1920"
     inkscape:window-height="995"
     inkscape:window-x="0"
     inkscape:window-y="0"
     inkscape:window-maximized="1"
     inkscape:current-layer="svg2" /><rect
     transform="matrix(0.26458,0,0,0.26458,-6.016263e-5,-6.016263e-5)"
     x="4.5"
     y="4.5"
     width="55"
     height="55"
     ry="15"
     fill="#141414"
     filter="url(#filter1057)"
     opacity="0.3"
     stroke-width="2.7444"
     id="rect4"
     style="stroke-linecap:round" /><rect
     x="1.1905"
     y="1.1905"
     width="14.552"
     height="14.552"
     ry="3.9686999"
     fill="url(#linearGradient1053)"
     stroke-width="0.72611"
     id="rect5"
     style="fill:url(#linearGradient1053);stroke-linecap:round" /><path
     id="path8"
     style="fill:#2595e7;fill-opacity:1"
     d="M 1.3523456 4.0379169 C 1.2484274 4.3934893 1.1906016 4.7692348 1.1906016 5.1592734 L 1.1906016 11.773727 C 1.1906016 12.081543 1.2282457 12.379861 1.2939524 12.667194 C 1.5524511 13.310843 1.8751536 13.930002 2.2659669 14.490303 C 2.9889773 15.260357 4.0147587 15.742398 5.1592734 15.742398 L 11.773727 15.742398 C 12.253495 15.742398 12.710877 15.654149 13.135891 15.499524 L 13.135891 8.0065888 C 13.135891 5.8079378 11.36587 4.0379169 9.1672186 4.0379169 L 1.3523456 4.0379169 z " /><path
     id="path3"
     style="fill:#046ec5;fill-opacity:1"
     d="M 1.1906016 6.972047 L 1.1906016 11.773727 C 1.1906016 13.972381 2.9606181 15.742398 5.1592734 15.742398 L 10.583642 15.742398 L 10.583642 10.940719 C 10.583637 8.7420635 8.8136254 6.972047 6.6149699 6.972047 L 1.1906016 6.972047 z " /><path
     fill="#ffffff"
     stroke-width="0.477"
     d="m 4.5356973,9.8901574 h 2.734 v 0.9209996 h -1.623 v 0.75 h 1.386 v 0.866 h -1.386 v 1.752 h -1.11 z"
     aria-label="F"
     id="path4" /></svg>
