<?xml version="1.0" encoding="UTF-8"?>
<!-- Created with Inkscape (http://www.inkscape.org/) -->
<svg width="64" height="64" version="1.1" viewBox="0 0 16.933 16.933" xmlns="http://www.w3.org/2000/svg" xmlns:cc="http://creativecommons.org/ns#" xmlns:dc="http://purl.org/dc/elements/1.1/" xmlns:rdf="http://www.w3.org/1999/02/22-rdf-syntax-ns#">
 <defs>
  <filter id="filter2761" x="-.024" y="-.024" width="1.048" height="1.048" color-interpolation-filters="sRGB">
   <feGaussianBlur stdDeviation="0.14552168"/>
  </filter>
  <linearGradient id="linearGradient1024-6" x1="1.3315" x2="15.65" y1="15.576" y2="1.17" gradientUnits="userSpaceOnUse">
   <stop stop-color="#dddfe1" offset="0"/>
   <stop stop-color="#f3f4f6" stop-opacity=".99608" offset="1"/>
  </linearGradient>
 </defs>
 <metadata>
  <rdf:RDF>
   <cc:Work rdf:about="">
    <dc:format>image/svg+xml</dc:format>
    <dc:type rdf:resource="http://purl.org/dc/dcmitype/StillImage"/>
    <dc:title/>
   </cc:Work>
  </rdf:RDF>
 </metadata>
 <path d="m10.709 1.05c4.405 0 5.0345 0.67282 5.0345 5.388v3.7761c0 4.7152-0.62954 5.388-5.0345 5.388h-4.4832c-4.405 0-5.0346-0.6728-5.0346-5.388v-3.7761c0-4.7152 0.62954-5.388 5.0346-5.388z" enable-background="new" fill="#141414" filter="url(#filter2761)" opacity=".3"/>
 <path d="m10.709 1.05c4.405 0 5.0345 0.67282 5.0345 5.388v3.7761c0 4.7152-0.62954 5.388-5.0345 5.388h-4.4832c-4.405 0-5.0346-0.6728-5.0346-5.388v-3.7761c0-4.7152 0.62954-5.388 5.0346-5.388z" enable-background="new" fill="url(#linearGradient1024-6)"/>
 <path d="m7.7566 11.376-0.44574-1.465h-2.2464l-0.4471 1.4663h-1.4065l2.1744-6.186h1.5968l2.1825 6.186h-1.4079m-0.7583-2.5617c-0.41313-1.3291-0.64551-2.0792-0.69851-2.2559a7.083 7.083 0 0 1-0.11008-0.41177c-0.09241 0.36013-0.35877 1.2489-0.79636 2.6677h1.6049m5.8273 2.5603-0.24869-0.63872h-0.03262c-0.21744 0.27179-0.44031 0.46205-0.66997 0.56805-0.22831 0.10464-0.52592 0.15628-0.8942 0.15628-0.45118 0-0.80859-0.1291-1.0695-0.38731-0.2582-0.2582-0.38731-0.62648-0.38731-1.1048 0-0.5001 0.17395-0.86702 0.52185-1.1035 0.35061-0.23918 0.87925-0.371 1.5846-0.39546l0.81674-0.027179v-0.2052c0-0.477-0.24462-0.71618-0.73384-0.71618-0.37508 0-0.8181 0.11415-1.3264 0.3411l-0.42535-0.86838a3.8296 3.8296 0 0 1 1.8034-0.42536c0.63192 0 1.1171 0.13726 1.4541 0.41313 0.33702 0.27587 0.50554 0.69307 0.50554 1.2557v3.1392h-0.89692m-0.38051-2.1825-0.49602 0.016308c-0.37372 0.010872-0.65231 0.07882-0.83441 0.20249-0.18346 0.12367-0.27451 0.31256-0.27451 0.56533 0 0.36149 0.20792 0.54359 0.62377 0.54359 0.29762 0 0.53543-0.08697 0.7121-0.2582a0.89964 0.89964 0 0 0 0.26908-0.6822v-0.38731" font-size="24" font-weight="700" letter-spacing="0" opacity=".6" stroke-width="1.0002" word-spacing="0"/>
</svg>
