<?xml version="1.0" encoding="UTF-8" standalone="no"?>
<svg
   width="64"
   height="64"
   version="1.1"
   id="svg1"
   sodipodi:docname="foot.svg"
   inkscape:version="1.3.2 (091e20ef0f, 2023-11-25, custom)"
   xmlns:inkscape="http://www.inkscape.org/namespaces/inkscape"
   xmlns:sodipodi="http://sodipodi.sourceforge.net/DTD/sodipodi-0.dtd"
   xmlns="http://www.w3.org/2000/svg"
   xmlns:svg="http://www.w3.org/2000/svg">
  <defs
     id="defs1">
    <filter
       id="filter1057-9"
       x="-0.026999999"
       y="-0.026999999"
       width="1.054"
       height="1.054"
       color-interpolation-filters="sRGB">
      <feGaussianBlur
         stdDeviation="0.61875"
         id="feGaussianBlur1" />
    </filter>
    <linearGradient
       id="linearGradient1053-1"
       x1="-127"
       x2="-72"
       y1="60"
       y2="5"
       gradientTransform="matrix(1.0000071,0,0,1.0000071,131.49576,-0.51035921)"
       gradientUnits="userSpaceOnUse">
      <stop
         stop-color="#1d2123"
         offset="0"
         id="stop1" />
      <stop
         stop-color="#33393e"
         stop-opacity=".99608"
         offset="1"
         id="stop2" />
    </linearGradient>
  </defs>
  <sodipodi:namedview
     id="namedview1"
     pagecolor="#ffffff"
     bordercolor="#000000"
     borderopacity="0.25"
     inkscape:showpageshadow="2"
     inkscape:pageopacity="0.0"
     inkscape:pagecheckerboard="0"
     inkscape:deskcolor="#d1d1d1"
     inkscape:zoom="6.15625"
     inkscape:cx="63.025381"
     inkscape:cy="15.593909"
     inkscape:window-width="1920"
     inkscape:window-height="995"
     inkscape:window-x="0"
     inkscape:window-y="0"
     inkscape:window-maximized="1"
     inkscape:current-layer="svg1" />
  <rect
     transform="matrix(1.0000071,0,0,1.0000071,-100.82094,-0.63473235)"
     x="105.32"
     y="5.1345"
     width="55"
     height="55"
     ry="15"
     fill="#141414"
     filter="url(#filter1057-9)"
     opacity="0.3"
     stroke-linecap="round"
     stroke-width="2.7444"
     id="rect2" />
  <rect
     x="4.4996166"
     y="4.4996166"
     width="55.000767"
     height="55.000767"
     ry="15.000484"
     fill="url(#linearGradient1053-1)"
     stroke-linecap="round"
     stroke-width="2.74444"
     id="rect3"
     style="fill:url(#linearGradient1053-1)" />
  <path
     fill="#f6e390"
     d="m 22.872919,20.824 a 1.37,1.62 0 0 0 -1.371,1.623 1.37,1.62 0 0 0 1.371,1.617 1.37,1.62 0 0 0 1.371,-1.617 1.37,1.62 0 0 0 -1.371,-1.623 z m 2.59,1.084 a 0.9,1.08 0 0 0 -0.862,1.078 0.9,1.08 0 0 0 0.903,1.078 0.9,1.08 0 0 0 0.902,-1.078 0.9,1.08 0 0 0 -0.902,-1.078 0.9,1.08 0 0 0 -0.041,0 z m 1.998,1.236 a 0.72,0.819 0 0 0 -0.698,0.82 0.72,0.819 0 0 0 0.721,0.82 0.72,0.819 0 0 0 0.72,-0.82 0.72,0.819 0 0 0 -0.72,-0.82 0.72,0.819 0 0 0 -0.023,0 z m 1.558,1.277 a 0.584,0.643 0 0 0 -0.545,0.645 0.584,0.643 0 0 0 0.58,0.644 0.584,0.643 0 0 0 0.586,-0.644 0.584,0.643 0 0 0 -0.586,-0.645 0.584,0.643 0 0 0 -0.035,0 z m -6.304,0.58 c -0.877,0.014 -1.457,0.25 -2.016,0.868 -1.021,1.128 -0.813,2.733 0.528,4.107 2.907,2.978 3.256,4.972 0.474,7.224 -1.145,0.927 -1.974,3.106 -1.617,4.247 0.45,1.438 2.163,1.99 3.656,1.178 1.4,-0.76 2.984,-3.365 4.066,-6.474 0.09,-0.26 0.181,-0.52 0.264,-0.785 0.248,-0.797 0.459,-1.62 0.627,-2.443 0.507,-2.49 0.383,-4.425 -0.358,-5.59 -0.462,-0.727 -2.176,-1.664 -3.661,-2.08 a 6.101,6.101 0 0 0 -0.979,-0.199 8.28,8.28 0 0 0 -0.984,-0.053 z m 7.148,0.862 a 0.48,0.54 0 0 0 -0.463,0.539 0.48,0.54 0 0 0 0.48,0.539 0.48,0.54 0 0 0 0.48,-0.54 0.48,0.54 0 0 0 -0.48,-0.538 0.48,0.54 0 0 0 -0.017,0 z m 2.137,14.735 V 43 h 12 v -2.402 z"
     id="path2" />
</svg>
