<?xml version="1.0" encoding="UTF-8" standalone="no"?>
<svg
   width="64"
   height="64"
   viewBox="0 0 16.933 16.933"
   version="1.1"
   id="svg10"
   sodipodi:docname="four-in-a-row.svg"
   inkscape:version="1.3.2 (091e20ef0f, 2023-11-25, custom)"
   xmlns:inkscape="http://www.inkscape.org/namespaces/inkscape"
   xmlns:sodipodi="http://sodipodi.sourceforge.net/DTD/sodipodi-0.dtd"
   xmlns="http://www.w3.org/2000/svg"
   xmlns:svg="http://www.w3.org/2000/svg">
  <defs
     id="defs10">
    <filter
       id="filter1057"
       x="-0.026999999"
       y="-0.026999999"
       width="1.054"
       height="1.054"
       color-interpolation-filters="sRGB">
      <feGaussianBlur
         stdDeviation="0.61875"
         id="feGaussianBlur1" />
    </filter>
    <linearGradient
       id="linearGradient1053"
       x1="-127"
       x2="-71.940002"
       y1="60"
       y2="4.9403"
       gradientTransform="matrix(0.26457812,0,0,0.26457812,34.792023,-0.13493498)"
       gradientUnits="userSpaceOnUse">
      <stop
         stop-color="#524084"
         offset="0"
         id="stop1" />
      <stop
         stop-color="#b768e6"
         offset="1"
         id="stop2" />
    </linearGradient>
  </defs>
  <sodipodi:namedview
     id="namedview10"
     pagecolor="#ffffff"
     bordercolor="#000000"
     borderopacity="0.25"
     inkscape:showpageshadow="2"
     inkscape:pageopacity="0.0"
     inkscape:pagecheckerboard="0"
     inkscape:deskcolor="#d1d1d1"
     inkscape:zoom="6.15625"
     inkscape:cx="-8.1218274"
     inkscape:cy="25.664975"
     inkscape:window-width="1920"
     inkscape:window-height="995"
     inkscape:window-x="0"
     inkscape:window-y="0"
     inkscape:window-maximized="1"
     inkscape:current-layer="svg10" />
  <rect
     x="4.4999995"
     y="4.4999995"
     width="55"
     height="55"
     ry="15"
     fill="#141414"
     filter="url(#filter1057)"
     opacity="0.3"
     stroke-linecap="round"
     stroke-width="2.7444"
     id="rect5"
     transform="scale(0.26457812)" />
  <rect
     x="1.1906016"
     y="1.1906016"
     width="14.551797"
     height="14.551797"
     ry="3.9686718"
     fill="url(#linearGradient1053)"
     stroke-linecap="round"
     stroke-width="0.726108"
     id="rect6"
     style="fill:url(#linearGradient1053)" />
  <rect
     ry="2.2557621"
     y="3.1749375"
     x="3.1749375"
     height="10.583125"
     width="10.583125"
     id="rect3162"
     style="fill:#000000;fill-opacity:1;opacity:0.25" />
  <g
     id="g19"
     transform="translate(22.730799,0.0035)">
    <path
       fill="#ffffff"
       d="m -16.169299,11.003 a 0.635,0.635 0 0 1 -0.635,0.635 0.635,0.635 0 0 1 -0.635,-0.635 0.635,0.635 0 0 1 0.635,-0.635 0.635,0.635 0 0 1 0.635,0.635 z"
       id="path11" />
    <path
       fill="#ff5555"
       d="m -14.476299,11.003 a 0.635,0.635 0 0 1 -0.635,0.635 0.635,0.635 0 0 1 -0.635,-0.635 0.635,0.635 0 0 1 0.635,-0.635 0.635,0.635 0 0 1 0.635,0.635 z"
       id="path12" />
    <path
       fill="#ffffff"
       d="m -12.783299,11.003 a 0.635,0.635 0 0 1 -0.635,0.635 0.635,0.635 0 0 1 -0.635,-0.635 0.635,0.635 0 0 1 0.635,-0.635 0.635,0.635 0 0 1 0.635,0.635 z m 1.694,0 a 0.635,0.635 0 0 1 -0.635,0.635 0.635,0.635 0 0 1 -0.635,-0.635 0.635,0.635 0 0 1 0.635,-0.635 0.635,0.635 0 0 1 0.635,0.635 z"
       id="path13" />
    <path
       fill="#ff5555"
       d="m -16.169299,9.31 a 0.635,0.635 0 0 1 -0.635,0.635 0.635,0.635 0 0 1 -0.635,-0.635 0.635,0.635 0 0 1 0.635,-0.635 0.635,0.635 0 0 1 0.635,0.635 z"
       id="path14" />
    <path
       fill="#ffffff"
       d="m -14.476299,9.31 a 0.635,0.635 0 0 1 -0.635,0.635 0.635,0.635 0 0 1 -0.635,-0.635 0.635,0.635 0 0 1 0.635,-0.635 0.635,0.635 0 0 1 0.635,0.635 z"
       id="path15" />
    <path
       fill="#ff5555"
       d="m -12.783299,9.31 a 0.635,0.635 0 0 1 -0.635,0.635 0.635,0.635 0 0 1 -0.635,-0.635 0.635,0.635 0 0 1 0.635,-0.635 0.635,0.635 0 0 1 0.635,0.635 z m 1.694,0 a 0.635,0.635 0 0 1 -0.635,0.635 0.635,0.635 0 0 1 -0.635,-0.635 0.635,0.635 0 0 1 0.635,-0.635 0.635,0.635 0 0 1 0.635,0.635 z"
       id="path16" />
    <path
       fill="#ffffff"
       d="m -12.783299,7.617 a 0.635,0.635 0 0 1 -0.635,0.635 0.635,0.635 0 0 1 -0.635,-0.635 0.635,0.635 0 0 1 0.635,-0.635 0.635,0.635 0 0 1 0.635,0.635 z"
       id="path17" />
    <path
       fill="#ff5555"
       d="m -11.089299,7.617 a 0.635,0.635 0 0 1 -0.635,0.635 0.635,0.635 0 0 1 -0.635,-0.635 0.635,0.635 0 0 1 0.635,-0.635 0.635,0.635 0 0 1 0.635,0.635 z"
       id="path18" />
    <path
       fill="#ffffff"
       d="m -11.089299,5.923 a 0.635,0.635 0 0 1 -0.635,0.635 0.635,0.635 0 0 1 -0.635,-0.635 0.635,0.635 0 0 1 0.635,-0.635 0.635,0.635 0 0 1 0.635,0.635 z"
       id="path19" />
  </g>
</svg>
