<?xml version="1.0" encoding="UTF-8" standalone="no"?>
<svg
   width="64"
   height="64"
   version="1"
   id="svg2"
   sodipodi:docname="gdlauncher.svg"
   xml:space="preserve"
   inkscape:version="1.3.2 (091e20ef0f, 2023-11-25, custom)"
   xmlns:inkscape="http://www.inkscape.org/namespaces/inkscape"
   xmlns:sodipodi="http://sodipodi.sourceforge.net/DTD/sodipodi-0.dtd"
   xmlns="http://www.w3.org/2000/svg"
   xmlns:svg="http://www.w3.org/2000/svg"><defs
     id="defs2"><filter
       id="filter2076-1"
       x="-0.048000001"
       y="-0.048000001"
       width="1.096"
       height="1.096"
       color-interpolation-filters="sRGB"><feGaussianBlur
         stdDeviation="1.1"
         id="feGaussianBlur1" /></filter><linearGradient
       id="linearGradient1502"
       x1="4.5"
       x2="59.5"
       y1="59.5"
       y2="4.5"
       gradientTransform="matrix(1.0000071,0,0,1.0000071,-2.256138e-4,-2.25809e-4)"
       gradientUnits="userSpaceOnUse"><stop
         stop-color="#055096"
         offset="0"
         id="stop1" /><stop
         stop-color="#0587eb"
         offset="1"
         id="stop2" /></linearGradient></defs><sodipodi:namedview
     id="namedview2"
     pagecolor="#ffffff"
     bordercolor="#000000"
     borderopacity="0.25"
     inkscape:showpageshadow="2"
     inkscape:pageopacity="0.0"
     inkscape:pagecheckerboard="0"
     inkscape:deskcolor="#d1d1d1"
     inkscape:zoom="4.3531262"
     inkscape:cx="19.411337"
     inkscape:cy="23.890876"
     inkscape:window-width="1920"
     inkscape:window-height="995"
     inkscape:window-x="0"
     inkscape:window-y="0"
     inkscape:window-maximized="1"
     inkscape:current-layer="svg2" /><rect
     transform="matrix(1.0000071,0,0,1.0000071,-2.256138e-4,-2.25809e-4)"
     x="4.5"
     y="4.5"
     width="55"
     height="55"
     rx="13.002"
     ry="13.002"
     filter="url(#filter2076-1)"
     opacity="0.3"
     id="rect2" /><path
     d="m 17.502053,4.5001463 c -7.203166,0 -13.0022089,5.7990437 -13.0022089,13.0022087 v 28.996729 c 0,7.203165 5.7990429,13.002209 13.0022089,13.002209 h 28.996729 c 7.203165,0 13.002208,-5.799044 13.002208,-13.002209 V 17.502355 c 0,-7.203165 -5.799043,-13.0022087 -13.002208,-13.0022087 z"
     fill="url(#linearGradient1502)"
     stroke-linecap="round"
     stroke-linejoin="round"
     stroke-width="2.01453"
     style="fill:url(#linearGradient1502);paint-order:stroke fill markers"
     id="path2-3" /><path
     fill="#ffffff"
     d="m 20.155746,16.754813 a 11.721431,11.721431 0 0 0 -1.271271,0.08625 c -1.390021,0.203753 -2.562538,0.62501 -3.547552,1.276269 -1.840028,1.215019 -2.912544,3.112549 -3.26755,5.77509 -0.0925,0.702511 -0.0925,2.138782 0,2.812543 0.425007,3.052547 2.077532,5.708838 4.930074,7.931372 1.187518,0.925014 2.625041,1.792529 3.960061,2.387538 0.841263,0.375005 0.857513,0.381255 0.902514,0.497507 0.02499,0.06 0.04875,0.69126 0.05875,1.485022 0.0125,0.967515 0.03625,1.487523 0.07876,1.737528 0.273754,1.623774 0.742511,2.830044 1.588774,4.080063 a 10.082656,10.082656 0 0 0 6.943858,4.337567 c 0.246253,0.035 0.502507,0.065 0.568758,0.07501 0.293755,0.04 2.023782,-0.0125 2.405037,-0.07125 2.875044,-0.456257 5.313832,-1.99378 6.901356,-4.341317 0.846264,-1.250019 1.321271,-2.456288 1.595025,-4.078813 0.0425,-0.252504 0.0625,-0.771262 0.07501,-1.738777 0.0125,-0.793763 0.04,-1.425022 0.06375,-1.485023 0.04625,-0.116251 0.06375,-0.122502 0.906264,-0.497507 0.990015,-0.441257 2.216285,-1.137518 3.138799,-1.780028 2.760043,-1.92253 4.573821,-4.237565 5.376333,-6.855106 0.320005,-1.042516 0.437506,-1.875029 0.437506,-3.081297 -0.0038,-4.798824 -2.458787,-7.816371 -6.882606,-8.466381 -0.580009,-0.08501 -1.93753,-0.118752 -2.627541,-0.06125 -3.520054,0.293754 -7.115109,1.837528 -9.897653,4.242565 -0.372506,0.323755 -0.495007,0.406257 -0.590009,0.406257 -0.09501,0 -0.220003,-0.0825 -0.593758,-0.406257 -2.781293,-2.405037 -6.377599,-3.948811 -9.897654,-4.242565 a 14.347721,14.347721 0 0 0 -1.35502,-0.02501 z m 20.297812,8.731385 c 0.153752,-0.0063 0.321255,0 0.496257,0.02125 0.347507,0.04375 0.718761,0.142502 1.050017,0.278754 0.505008,0.208753 0.991265,0.58751 1.153768,0.896264 0.0975,0.185003 0.103748,0.472507 0.0175,0.63501 -0.190004,0.355006 -0.61251,0.590009 -1.675026,0.925014 -1.20752,0.380006 -1.842529,0.663761 -2.682542,1.208768 -0.500008,0.322506 -1.012515,0.747512 -1.472522,1.20502 -0.308756,0.308754 -0.353757,0.335004 -0.493758,0.335004 a 0.32875507,0.32875507 0 0 1 -0.253754,-0.09501 c -0.117502,-0.116251 -0.121253,-0.275004 -0.03375,-0.876263 0.257504,-1.778777 0.946265,-3.008796 2.125033,-3.790059 0.415008,-0.275003 1.075018,-0.605009 1.358771,-0.68501 a 1.7875275,1.7875275 0 0 1 0.410007,-0.05875 z m -17.175265,0.005 c 0.262504,-0.0125 0.510008,0.0088 0.666261,0.05375 0.285005,0.08 0.945015,0.410007 1.36002,0.685011 1.178769,0.781262 1.86753,2.011281 2.125034,3.790058 0.0875,0.60251 0.07625,0.760012 -0.0425,0.875014 a 0.32125496,0.32125496 0 0 1 -0.248755,0.1 c -0.138752,0 -0.185002,-0.03 -0.492507,-0.337505 a 9.1251409,9.1251409 0 0 0 -2.930044,-1.978781 c -0.250006,-0.105005 -0.801263,-0.302504 -1.225019,-0.437506 -0.843764,-0.263754 -1.23002,-0.438758 -1.466274,-0.662511 -0.203752,-0.195003 -0.275005,-0.342505 -0.275005,-0.562508 0,-0.542508 0.725012,-1.120018 1.775028,-1.416272 0.210004,-0.05875 0.491257,-0.09875 0.753762,-0.108754 z m 6.212597,10.018905 c 0.237504,0 0.308754,0.07501 0.440007,0.458756 0.512507,1.498774 0.351253,2.912546 -0.456257,3.997563 -0.368758,0.495006 -0.59251,0.612509 -0.832513,0.443756 -0.320006,-0.225003 -0.483758,-1.34002 -0.328756,-2.258784 a 9.2626429,9.2626429 0 0 1 0.762512,-2.282536 c 0.160002,-0.308755 0.217504,-0.358755 0.416257,-0.358755 z m 5.011326,0.005 a 0.41875646,0.41875646 0 0 1 0.218755,0.04125 c 0.150002,0.1 0.603758,1.162519 0.811261,1.890029 0.287505,1.010016 0.291255,2.037532 0.01501,2.700042 -0.143753,0.341256 -0.395007,0.428756 -0.65501,0.225003 h -0.0025 a 2.6937915,2.6937915 0 0 1 -0.366256,-0.405005 c -0.807513,-1.085017 -0.967514,-2.498789 -0.453758,-3.997563 0.08125,-0.237504 0.150002,-0.365005 0.210004,-0.402506 a 0.46250714,0.46250714 0 0 1 0.222502,-0.05125 z"
     id="path3"
     style="stroke-width:1.25002" /></svg>
