<?xml version="1.0" encoding="UTF-8" standalone="no"?>
<svg
   width="64"
   height="64"
   version="1.1"
   id="svg1"
   sodipodi:docname="gerbview-nightly.svg"
   inkscape:version="1.3.2 (091e20ef0f, 2023-11-25, custom)"
   xmlns:inkscape="http://www.inkscape.org/namespaces/inkscape"
   xmlns:sodipodi="http://sodipodi.sourceforge.net/DTD/sodipodi-0.dtd"
   xmlns:xlink="http://www.w3.org/1999/xlink"
   xmlns="http://www.w3.org/2000/svg"
   xmlns:svg="http://www.w3.org/2000/svg">
  <defs
     id="defs1">
    <linearGradient
       id="linearGradient21"
       inkscape:collect="always">
      <stop
         style="stop-color:#2974b4;stop-opacity:0.99607843"
         offset="0"
         id="stop21" />
      <stop
         style="stop-color:#315382;stop-opacity:1"
         offset="1"
         id="stop22" />
    </linearGradient>
    <filter
       id="filter1057"
       x="-0.026999999"
       y="-0.026999999"
       width="1.054"
       height="1.054"
       color-interpolation-filters="sRGB">
      <feGaussianBlur
         stdDeviation="0.61875"
         id="feGaussianBlur3" />
    </filter>
    <linearGradient
       id="linearGradient1053"
       x1="-127"
       x2="-72"
       y1="60"
       y2="5"
       gradientTransform="translate(131.5,-0.51000061)"
       gradientUnits="userSpaceOnUse">
      <stop
         stop-color="#a0b9cd"
         offset="0"
         id="stop3" />
      <stop
         stop-color="#96b4c8"
         offset=".48567"
         id="stop4" />
      <stop
         stop-color="#a0b9cd"
         offset="1"
         id="stop5" />
    </linearGradient>
    <filter
       id="filter1057-5"
       x="-0.026999999"
       y="-0.026999999"
       width="1.054"
       height="1.054"
       color-interpolation-filters="sRGB">
      <feGaussianBlur
         stdDeviation="0.61875"
         id="feGaussianBlur1" />
    </filter>
    <linearGradient
       id="linearGradient1053-6"
       x1="-127"
       x2="-72"
       y1="60"
       y2="5"
       gradientTransform="translate(131.49991,-0.50845937)"
       gradientUnits="userSpaceOnUse">
      <stop
         stop-color="#2e55e7"
         offset="0"
         id="stop1" />
      <stop
         stop-color="#0d7eef"
         offset="1"
         id="stop2-5" />
    </linearGradient>
    <linearGradient
       id="linearGradient1502"
       x1="4.5"
       x2="59.5"
       y1="59.5"
       y2="4.5"
       gradientTransform="matrix(1.0000071,0,0,1.0000071,-0.0013195,-1.885e-4)"
       gradientUnits="userSpaceOnUse">
      <stop
         stop-color="#055096"
         offset="0"
         id="stop5-2" />
      <stop
         stop-color="#0587eb"
         offset="1"
         id="stop7-3" />
    </linearGradient>
    <filter
       id="filter1057-3"
       x="-0.026999999"
       y="-0.026999999"
       width="1.054"
       height="1.054"
       color-interpolation-filters="sRGB">
      <feGaussianBlur
         stdDeviation="0.61875"
         id="feGaussianBlur1-6" />
    </filter>
    <linearGradient
       id="linearGradient1053-0"
       x1="-127"
       x2="-72"
       y1="60"
       y2="5"
       gradientTransform="translate(131.4999,-0.50845971)"
       gradientUnits="userSpaceOnUse">
      <stop
         stop-color="#2e55e7"
         offset="0"
         id="stop1-6" />
      <stop
         stop-color="#0d7eef"
         offset="1"
         id="stop2" />
    </linearGradient>
    <filter
       id="filter1057-3-8"
       x="-0.026999999"
       y="-0.026999999"
       width="1.054"
       height="1.054"
       color-interpolation-filters="sRGB">
      <feGaussianBlur
         stdDeviation="0.61875"
         id="feGaussianBlur1-7" />
    </filter>
    <linearGradient
       id="linearGradient1053-6-9"
       x1="-127"
       x2="-72"
       y1="60"
       y2="5"
       gradientTransform="matrix(1.0000071,0,0,1.0000071,131.50179,-0.51062405)"
       gradientUnits="userSpaceOnUse">
      <stop
         stop-color="#32507d"
         offset="0"
         id="stop1-2" />
      <stop
         stop-color="#2878b9"
         stop-opacity=".99608"
         offset="1"
         id="stop2-0" />
    </linearGradient>
    <linearGradient
       inkscape:collect="always"
       xlink:href="#linearGradient21"
       id="linearGradient22"
       x1="59.500195"
       y1="4.499804"
       x2="4.499804"
       y2="59.500195"
       gradientUnits="userSpaceOnUse" />
  </defs>
  <sodipodi:namedview
     id="namedview1"
     pagecolor="#ffffff"
     bordercolor="#000000"
     borderopacity="0.25"
     inkscape:showpageshadow="2"
     inkscape:pageopacity="0.0"
     inkscape:pagecheckerboard="0"
     inkscape:deskcolor="#d1d1d1"
     inkscape:zoom="6.15625"
     inkscape:cx="40.284264"
     inkscape:cy="31.187817"
     inkscape:window-width="1920"
     inkscape:window-height="995"
     inkscape:window-x="0"
     inkscape:window-y="0"
     inkscape:window-maximized="1"
     inkscape:current-layer="svg1" />
  <rect
     transform="matrix(1.0000071,0,0,1.0000071,-2.2781468e-4,-2.2781468e-4)"
     x="4.5"
     y="4.5"
     width="55"
     height="55"
     ry="15"
     fill="#141414"
     filter="url(#filter1057-3)"
     opacity="0.3"
     stroke-linecap="round"
     stroke-width="2.7444"
     id="rect8"
     style="filter:url(#filter1057-3-8)" />
  <rect
     x="4.4996166"
     y="4.4996166"
     width="55.000767"
     height="55.000767"
     ry="15.000106"
     stroke-linecap="round"
     stroke-width="2.74441"
     id="rect9"
     style="fill:url(#linearGradient22);fill-opacity:1" />
  <path
     id="path17"
     style="opacity:0.5;fill:#ffffff;fill-opacity:1;stroke-width:1.0769"
     d="M 19.5,4.5 C 13.677214,4.5 8.659686,7.7901841 6.171875,12.615234 H 23.519531 V 6.5585938 H 20.490234 V 4.5 Z m 10.078125,0 v 7.3125 a 4.2408415,4.2408415 0 0 0 0,7.664062 v 9.494141 l 6.664063,6.664063 h 1.816406 v 1.210937 H 47.75 V 35.634766 H 59.5 V 32 H 47.75 V 30.787109 H 38.058594 V 32 h -0.607422 l -4.238281,-4.242188 v -8.28125 a 4.2408415,4.2408415 0 0 0 0,-7.664062 V 4.5 Z m 8.480469,0 v 8.115234 H 47.75 v -1.210937 h 9.378906 C 54.467313,7.2496267 49.820906,4.5 44.5,4.5 Z M 13.828125,18.671875 v 1.212891 H 4.5 v 3.634765 h 9.328125 v 1.210938 h 9.691406 v -6.058594 z m 24.230469,0 v 6.058594 H 47.75 V 23.519531 H 59.5 V 19.884766 H 47.75 V 18.671875 Z M 8.142578,30.183594 a 3.6345455,3.6345455 0 1 0 3.148438,5.451172 h 3.515625 v 1.210937 h 9.691406 v -1.210937 h 0.839844 l 4.240234,4.238281 V 59.5 h 3.634766 V 38.664062 l -6.664063,-6.662109 h -2.050781 v -1.210937 h -9.693359 v 1.210937 H 11.291016 A 3.6334686,3.6334686 0 0 0 8.142578,30.183594 Z m 42.03125,9.085937 -1.21289,1.210938 H 39.875 l -1.816406,1.818359 V 59.5 H 44.5 c 8.309984,0 15,-6.690016 15,-15 V 39.269531 Z M 9.587891,41.691406 8.375,42.902344 H 4.5 V 44.5 c 0,8.309984 6.690016,15 15,15 h 5.230469 V 44.720703 l -1.816407,-1.818359 h -8.480468 l -1.212891,-1.210938 z" />
</svg>
