<?xml version="1.0" encoding="UTF-8" standalone="no"?>
<svg
   width="64"
   height="64"
   viewBox="0 0 16.933 16.933"
   version="1.1"
   id="svg3"
   sodipodi:docname="gmail-offline.svg"
   inkscape:version="1.3.2 (091e20ef0f, 2023-11-25, custom)"
   xmlns:inkscape="http://www.inkscape.org/namespaces/inkscape"
   xmlns:sodipodi="http://sodipodi.sourceforge.net/DTD/sodipodi-0.dtd"
   xmlns:xlink="http://www.w3.org/1999/xlink"
   xmlns="http://www.w3.org/2000/svg"
   xmlns:svg="http://www.w3.org/2000/svg">
  <defs
     id="defs3">
    <filter
       inkscape:collect="always"
       style="color-interpolation-filters:sRGB"
       id="filter1057"
       x="-0.026999999"
       width="1.054"
       y="-0.026999999"
       height="1.054">
      <feGaussianBlur
         inkscape:collect="always"
         stdDeviation="0.61875"
         id="feGaussianBlur1059" />
    </filter>
    <linearGradient
       inkscape:collect="always"
       xlink:href="#linearGradient1051"
       id="linearGradient1053"
       x1="-127"
       y1="60"
       x2="-72"
       y2="5"
       gradientUnits="userSpaceOnUse"
       gradientTransform="matrix(0.26457812,0,0,0.26457812,34.792022,-0.13493403)" />
    <linearGradient
       inkscape:collect="always"
       id="linearGradient1051">
      <stop
         style="stop-color:#dee0e2;stop-opacity:1"
         offset="0"
         id="stop1047" />
      <stop
         style="stop-color:#f1f3f5;stop-opacity:0.99607843"
         offset="1"
         id="stop1049" />
    </linearGradient>
  </defs>
  <sodipodi:namedview
     id="namedview3"
     pagecolor="#ffffff"
     bordercolor="#000000"
     borderopacity="0.25"
     inkscape:showpageshadow="2"
     inkscape:pageopacity="0.0"
     inkscape:pagecheckerboard="0"
     inkscape:deskcolor="#d1d1d1"
     inkscape:zoom="3.078125"
     inkscape:cx="-16.568528"
     inkscape:cy="0"
     inkscape:window-width="1920"
     inkscape:window-height="995"
     inkscape:window-x="0"
     inkscape:window-y="0"
     inkscape:window-maximized="1"
     inkscape:current-layer="svg3" />
  <rect
     ry="15"
     y="4.4999995"
     x="4.4999995"
     height="55"
     width="55"
     id="rect1055"
     style="opacity:0.3;fill:#141414;fill-opacity:1;stroke-width:2.74436;stroke-linecap:round;filter:url(#filter1057)"
     transform="scale(0.26457812)" />
  <rect
     style="fill:url(#linearGradient1053);fill-opacity:1;stroke-width:0.726098;stroke-linecap:round"
     id="rect1045"
     width="14.551796"
     height="14.551796"
     x="1.1906021"
     y="1.1906021"
     ry="3.9686716" />
  <g
     id="g1"
     transform="matrix(0.78946951,0,0,0.78946951,1.7824386,1.7824562)">
    <path
       id="rect3"
       style="fill:#6a6b6b;fill-opacity:1;stroke-width:0.709276;stroke-linecap:round;stroke-linejoin:round"
       d="M 4.3891489,8.3183499 0.92604012,5.7070362 v 2.8947079 2.2709179 2.267154 c 0,0.565013 0.45509978,1.019574 1.02011098,1.019574 h 0.7114434 0.7114434 1.020111 V 13.139816 8.6017441 Z" />
    <path
       id="path8"
       style="fill:#808080;fill-opacity:1;stroke-width:0.709276;stroke-linecap:round;stroke-linejoin:round"
       d="m 4.3891489,3.8103924 v 0.4845125 3.2867276 0.7367174 l 4.0116147,3.0248431 v 0.09948 l 0.066144,-0.04947 0.065606,0.04947 v -0.09948 L 12.544127,8.3183499 V 7.5816325 4.2949049 3.8103924 L 8.4669071,6.8916993 Z" />
    <path
       id="path12"
       style="fill:#808080;fill-opacity:1;stroke-width:0.709276;stroke-linecap:round;stroke-linejoin:round"
       d="M 2.4774479,2.7736104 A 1.551539,1.551539 0 0 0 0.9281911,4.2949049 h -0.002185 v 0.030652 1.3814795 L 4.3891145,8.3183499 V 7.5816325 4.2949049 3.8103924 L 3.4050323,3.0817412 3.4018063,3.0790564 A 1.551539,1.551539 0 0 0 3.4001413,3.0779845 1.551539,1.551539 0 0 0 2.4773626,2.773618 Z" />
    <path
       id="path13"
       style="fill:#6a6b6b;fill-opacity:1;stroke-width:0.709276;stroke-linecap:round;stroke-linejoin:round"
       d="M 12.543881,8.3183499 16.00699,5.7070362 v 2.8947079 2.2709179 2.267154 c 0,0.565013 -0.4551,1.019574 -1.020111,1.019574 H 14.275436 13.563992 12.543881 V 13.139816 8.6017441 Z" />
    <path
       id="path15"
       style="fill:#808080;fill-opacity:1;stroke-width:0.709276;stroke-linecap:round;stroke-linejoin:round"
       d="m 14.455582,2.7736104 a 1.551539,1.551539 0 0 1 1.549257,1.5212945 h 0.0022 v 0.030652 1.3814795 L 12.543881,8.3183499 V 7.5816325 4.2949049 3.8103924 l 0.984083,-0.7286512 0.0032,-0.00268 a 1.551539,1.551539 0 0 1 0.0017,-0.00107 1.551539,1.551539 0 0 1 0.922778,-0.3043665 z" />
    <path
       id="path4"
       style="fill:#6a6b6b;fill-opacity:1;stroke-width:0.709276;stroke-linecap:round;stroke-linejoin:round"
       d="M 4.3891489,8.3183499 0.92604012,5.7070362 v 2.8947079 2.2709179 2.267154 c 0,0.565013 0.45509978,1.019574 1.02011098,1.019574 h 0.7114434 0.7114434 1.020111 V 13.139816 8.6017441 Z" />
    <path
       id="path5"
       style="fill:#808080;fill-opacity:1;stroke-width:0.709276;stroke-linecap:round;stroke-linejoin:round"
       d="m 4.3891489,3.8103924 v 0.4845125 3.2867276 0.7367174 l 4.0116147,3.0248431 v 0.09948 l 0.066144,-0.04947 0.065606,0.04947 v -0.09948 L 12.544127,8.3183499 V 7.5816325 4.2949049 3.8103924 L 8.4669071,6.8916993 Z" />
    <path
       id="path6"
       style="fill:#808080;fill-opacity:1;stroke-width:0.709276;stroke-linecap:round;stroke-linejoin:round"
       d="M 2.4774479,2.7736104 A 1.551539,1.551539 0 0 0 0.9281911,4.2949049 h -0.002185 v 0.030652 1.3814795 L 4.3891145,8.3183499 V 7.5816325 4.2949049 3.8103924 L 3.4050323,3.0817412 3.4018063,3.0790564 A 1.551539,1.551539 0 0 0 3.4001413,3.0779845 1.551539,1.551539 0 0 0 2.4773626,2.773618 Z" />
    <path
       id="path7"
       style="fill:#6a6b6b;fill-opacity:1;stroke-width:0.709276;stroke-linecap:round;stroke-linejoin:round"
       d="M 12.543881,8.3183499 16.00699,5.7070362 v 2.8947079 2.2709179 2.267154 c 0,0.565013 -0.4551,1.019574 -1.020111,1.019574 H 14.275436 13.563992 12.543881 V 13.139816 8.6017441 Z" />
    <path
       id="path9"
       style="fill:#808080;fill-opacity:1;stroke-width:0.709276;stroke-linecap:round;stroke-linejoin:round"
       d="m 14.455582,2.7736104 a 1.551539,1.551539 0 0 1 1.549257,1.5212945 h 0.0022 v 0.030652 1.3814795 L 12.543881,8.3183499 V 7.5816325 4.2949049 3.8103924 l 0.984083,-0.7286512 0.0032,-0.00268 a 1.551539,1.551539 0 0 1 0.0017,-0.00107 1.551539,1.551539 0 0 1 0.922778,-0.3043665 z" />
  </g>
</svg>
