<?xml version="1.0" encoding="UTF-8" standalone="no"?>
<svg
   width="64"
   height="64"
   viewBox="0 0 16.933 16.933"
   version="1.1"
   id="svg3"
   sodipodi:docname="gmail.svg"
   xml:space="preserve"
   inkscape:version="1.3.2 (091e20ef0f, 2023-11-25, custom)"
   xmlns:inkscape="http://www.inkscape.org/namespaces/inkscape"
   xmlns:sodipodi="http://sodipodi.sourceforge.net/DTD/sodipodi-0.dtd"
   xmlns:xlink="http://www.w3.org/1999/xlink"
   xmlns="http://www.w3.org/2000/svg"
   xmlns:svg="http://www.w3.org/2000/svg"><defs
     id="defs3"><filter
       inkscape:collect="always"
       style="color-interpolation-filters:sRGB"
       id="filter1057"
       x="-0.026999999"
       width="1.054"
       y="-0.026999999"
       height="1.054"><feGaussianBlur
         inkscape:collect="always"
         stdDeviation="0.61875"
         id="feGaussianBlur1059" /></filter><linearGradient
       inkscape:collect="always"
       xlink:href="#linearGradient1051"
       id="linearGradient1053"
       x1="-127"
       y1="60"
       x2="-72"
       y2="5"
       gradientUnits="userSpaceOnUse"
       gradientTransform="matrix(0.26457812,0,0,0.26457812,34.792022,-0.13493425)" /><linearGradient
       inkscape:collect="always"
       id="linearGradient1051"><stop
         style="stop-color:#dee0e2;stop-opacity:1"
         offset="0"
         id="stop1047" /><stop
         style="stop-color:#f1f3f5;stop-opacity:0.99607843"
         offset="1"
         id="stop1049" /></linearGradient></defs><sodipodi:namedview
     id="namedview3"
     pagecolor="#ffffff"
     bordercolor="#000000"
     borderopacity="0.25"
     inkscape:showpageshadow="2"
     inkscape:pageopacity="0.0"
     inkscape:pagecheckerboard="0"
     inkscape:deskcolor="#d1d1d1"
     inkscape:zoom="4"
     inkscape:cx="-30.25"
     inkscape:cy="22.25"
     inkscape:window-width="1920"
     inkscape:window-height="995"
     inkscape:window-x="0"
     inkscape:window-y="0"
     inkscape:window-maximized="1"
     inkscape:current-layer="svg3" /><rect
     ry="15"
     y="4.4999995"
     x="4.4999995"
     height="55"
     width="55"
     id="rect1055"
     style="opacity:0.3;fill:#141414;fill-opacity:1;stroke-width:2.74436;stroke-linecap:round;filter:url(#filter1057)"
     transform="scale(0.26457812)" /><rect
     style="fill:url(#linearGradient1053);fill-opacity:1;stroke-width:0.726098;stroke-linecap:round"
     id="rect1045"
     width="14.551796"
     height="14.551796"
     x="1.1906021"
     y="1.1906021"
     ry="3.9686716" /><g
     id="g15"
     transform="matrix(0.73026507,0,0,0.73026507,15.414122,3.0076904)"><path
       id="rect3"
       style="opacity:1;fill:#4285f4;fill-opacity:1;stroke-width:0.681583;stroke-linecap:round;stroke-linejoin:round"
       d="m -13.431991,-7.3327414 -3.327896,2.5093582 v -2.7816876 -2.1822528 -2.1786354 c 0,-0.542953 0.437331,-0.979766 0.980282,-0.979766 h 0.683666 0.683666 0.980282 v 0.979766 4.3608882 z"
       transform="scale(1,-1)" /><path
       id="path8"
       style="opacity:1;fill:#ea4335;fill-opacity:1;stroke-width:0.681583;stroke-linecap:round;stroke-linejoin:round"
       d="m -13.431991,-3.0007914 v -0.4655954 -3.1584014 -0.7079532 l 3.8549863,-2.9067416 v -0.0956 l 0.063561,0.04754 0.063044,-0.04754 v 0.0956 l 3.854986,2.9067416 v 0.7079532 3.1584014 0.4655954 l -3.91803,-2.9610012 z"
       transform="scale(1,-1)" /><path
       id="path12"
       style="opacity:1;fill:#c5221f;fill-opacity:1;stroke-width:0.681583;stroke-linecap:round;stroke-linejoin:round"
       d="m -15.269052,-2.0044893 a 1.4909611,1.4909611 0 0 1 -1.488768,-1.4618975 h -0.0021 v -0.029455 -1.3275414 l 3.327896,-2.5093582 v 0.7079532 3.1584014 0.4655954 l -0.94566,0.7002019 -0.0031,0.00258 a 1.4909611,1.4909611 0 0 1 -0.0016,0.00103 1.4909611,1.4909611 0 0 1 -0.88675,0.2924829 z"
       transform="scale(1,-1)" /><path
       id="path13"
       style="opacity:1;fill:#34a853;fill-opacity:1;stroke-width:0.681583;stroke-linecap:round;stroke-linejoin:round"
       d="m -5.5956499,7.3327414 3.3278961,-2.5093582 v 2.7816876 2.1822528 2.1786354 c 0,0.542953 -0.437331,0.979766 -0.9802821,0.979766 h -0.683666 -0.683666 -0.980282 V 11.965959 7.6050708 Z" /><path
       id="path15"
       style="opacity:1;fill:#fbbc04;fill-opacity:1;stroke-width:0.681583;stroke-linecap:round;stroke-linejoin:round"
       d="m -3.7585889,2.0044893 a 1.4909611,1.4909611 0 0 1 1.4887681,1.4618975 h 0.00207 v 0.029455 1.3275414 L -5.5956499,7.3327414 V 6.6247882 3.4663868 3.0007914 l 0.94566,-0.7002019 0.0031,-0.00258 a 1.4909611,1.4909611 0 0 1 0.0016,-0.00103 1.4909611,1.4909611 0 0 1 0.88675,-0.2924829 z" /></g><g
     id="g20"
     transform="matrix(0.73026507,0,0,0.73026507,15.414122,3.0076904)"><path
       id="path16"
       style="opacity:1;fill:#4285f4;fill-opacity:1;stroke-width:0.681583;stroke-linecap:round;stroke-linejoin:round"
       d="m -13.431991,-7.3327414 -3.327896,2.5093582 v -2.7816876 -2.1822528 -2.1786354 c 0,-0.542953 0.437331,-0.979766 0.980282,-0.979766 h 0.683666 0.683666 0.980282 v 0.979766 4.3608882 z"
       transform="scale(1,-1)" /><path
       id="path17"
       style="opacity:1;fill:#ea4335;fill-opacity:1;stroke-width:0.681583;stroke-linecap:round;stroke-linejoin:round"
       d="m -13.431991,-3.0007914 v -0.4655954 -3.1584014 -0.7079532 l 3.8549863,-2.9067416 v -0.0956 l 0.063561,0.04754 0.063044,-0.04754 v 0.0956 l 3.854986,2.9067416 v 0.7079532 3.1584014 0.4655954 l -3.91803,-2.9610012 z"
       transform="scale(1,-1)" /><path
       id="path18"
       style="opacity:1;fill:#c5221f;fill-opacity:1;stroke-width:0.681583;stroke-linecap:round;stroke-linejoin:round"
       d="m -15.269052,-2.0044893 a 1.4909611,1.4909611 0 0 1 -1.488768,-1.4618975 h -0.0021 v -0.029455 -1.3275414 l 3.327896,-2.5093582 v 0.7079532 3.1584014 0.4655954 l -0.94566,0.7002019 -0.0031,0.00258 a 1.4909611,1.4909611 0 0 1 -0.0016,0.00103 1.4909611,1.4909611 0 0 1 -0.88675,0.2924829 z"
       transform="scale(1,-1)" /><path
       id="path19"
       style="opacity:1;fill:#34a853;fill-opacity:1;stroke-width:0.681583;stroke-linecap:round;stroke-linejoin:round"
       d="m -5.5956499,7.3327414 3.3278961,-2.5093582 v 2.7816876 2.1822528 2.1786354 c 0,0.542953 -0.437331,0.979766 -0.9802821,0.979766 h -0.683666 -0.683666 -0.980282 V 11.965959 7.6050708 Z" /><path
       id="path20"
       style="opacity:1;fill:#fbbc04;fill-opacity:1;stroke-width:0.681583;stroke-linecap:round;stroke-linejoin:round"
       d="m -3.7585889,2.0044893 a 1.4909611,1.4909611 0 0 1 1.4887681,1.4618975 h 0.00207 v 0.029455 1.3275414 L -5.5956499,7.3327414 V 6.6247882 3.4663868 3.0007914 l 0.94566,-0.7002019 0.0031,-0.00258 a 1.4909611,1.4909611 0 0 1 0.0016,-0.00103 1.4909611,1.4909611 0 0 1 0.88675,-0.2924829 z" /></g></svg>
