<?xml version="1.0" encoding="UTF-8"?>
<!-- Created with Inkscape (http://www.inkscape.org/) -->
<svg width="64" height="64" version="1.1" viewBox="0 0 16.933 16.933" xmlns="http://www.w3.org/2000/svg" xmlns:cc="http://creativecommons.org/ns#" xmlns:dc="http://purl.org/dc/elements/1.1/" xmlns:rdf="http://www.w3.org/1999/02/22-rdf-syntax-ns#" xmlns:xlink="http://www.w3.org/1999/xlink">
 <defs>
  <filter id="filter2761" x="-.024" y="-.024" width="1.048" height="1.048" color-interpolation-filters="sRGB">
   <feGaussianBlur stdDeviation="0.14552168"/>
  </filter>
  <linearGradient id="linearGradient1024" x1="1.3315" x2="15.65" y1="15.576" y2="1.17" gradientUnits="userSpaceOnUse">
   <stop stop-color="#96aab4" offset="0"/>
   <stop stop-color="#a0b4c3" offset="1"/>
  </linearGradient>
  <linearGradient id="linearGradient1122" x1="3.1053" x2="13.829" y1="8.326" y2="8.326" gradientUnits="userSpaceOnUse" xlink:href="#linearGradient1024"/>
  <filter id="filter1272" x="-.18" y="-.18" width="1.36" height="1.36" color-interpolation-filters="sRGB">
   <feGaussianBlur stdDeviation="0.32461313"/>
  </filter>
  <linearGradient id="linearGradient865" x1="3.6611" x2="13.274" y1="8.3261" y2="8.3261" gradientTransform="matrix(.9923 0 0 .95498 .065168 .37482)" gradientUnits="userSpaceOnUse">
   <stop stop-color="#3c505f" offset="0"/>
   <stop stop-color="#c3e6ff" offset="1"/>
  </linearGradient>
 </defs>
 <metadata>
  <rdf:RDF>
   <cc:Work rdf:about="">
    <dc:format>image/svg+xml</dc:format>
    <dc:type rdf:resource="http://purl.org/dc/dcmitype/StillImage"/>
    <dc:title/>
   </cc:Work>
  </rdf:RDF>
 </metadata>
 <path d="m10.709 1.05c4.405 0 5.0345 0.67282 5.0345 5.388v3.7761c0 4.7152-0.62954 5.388-5.0345 5.388h-4.4832c-4.405 0-5.0346-0.6728-5.0346-5.388v-3.7761c0-4.7152 0.62954-5.388 5.0346-5.388z" enable-background="new" fill="#141414" filter="url(#filter2761)" opacity=".3"/>
 <path d="m10.709 1.05c4.405 0 5.0345 0.67282 5.0345 5.388v3.7761c0 4.7152-0.62954 5.388-5.0345 5.388h-4.4832c-4.405 0-5.0346-0.6728-5.0346-5.388v-3.7761c0-4.7152 0.62954-5.388 5.0346-5.388z" enable-background="new" fill="url(#linearGradient1024)"/>
 <path d="m6.3033 5.2603h4.328c1.6862 0 3.0658 1.3796 3.0658 3.0658s-1.3796 3.0658-3.0658 3.0658h-4.328c-1.6862 0-3.0658-1.3796-3.0658-3.0658s1.3796-3.0658 3.0658-3.0658z" fill="url(#linearGradient1122)" stroke="#41555f" stroke-width=".13229"/>
 <path d="m6.4939 5.6355h3.9468c1.5377 0 2.7958 1.2108 2.7958 2.6906s-1.2581 2.6906-2.7958 2.6906h-3.9468c-1.5377 0-2.7958-1.2108-2.7958-2.6906s1.2581-2.6906 2.7958-2.6906z" fill="url(#linearGradient865)"/>
 <circle transform="matrix(1.1219 0 0 1.1219 -1.2958 -1.0149)" cx="10.631" cy="8.3261" r="2.1641" fill="#465a64" filter="url(#filter1272)" stroke-width="2.8283"/>
 <circle cx="10.631" cy="8.3261" r="2.6207" fill="#fff" stroke-width="3.4251"/>
 <circle cx="10.638" cy="8.345" r="1.9612" fill="#9fb3c2" stroke-width=".32039" style="paint-order:stroke markers fill"/>
</svg>
