<?xml version="1.0" encoding="UTF-8" standalone="no"?>
<svg
   width="64"
   height="64"
   version="1.1"
   viewBox="0 0 16.933 16.933"
   id="svg1993"
   sodipodi:docname="gnome-glines.svg"
   inkscape:version="1.2.2 (b0a8486541, 2022-12-01)"
   xmlns:inkscape="http://www.inkscape.org/namespaces/inkscape"
   xmlns:sodipodi="http://sodipodi.sourceforge.net/DTD/sodipodi-0.dtd"
   xmlns:xlink="http://www.w3.org/1999/xlink"
   xmlns="http://www.w3.org/2000/svg"
   xmlns:svg="http://www.w3.org/2000/svg">
  <sodipodi:namedview
     id="namedview1995"
     pagecolor="#ffffff"
     bordercolor="#999999"
     borderopacity="1"
     inkscape:showpageshadow="0"
     inkscape:pageopacity="0"
     inkscape:pagecheckerboard="0"
     inkscape:deskcolor="#d1d1d1"
     showgrid="false"
     inkscape:zoom="4.4746601"
     inkscape:cx="29.722928"
     inkscape:cy="34.527762"
     inkscape:window-width="1920"
     inkscape:window-height="989"
     inkscape:window-x="0"
     inkscape:window-y="0"
     inkscape:window-maximized="1"
     inkscape:current-layer="svg1993" />
  <defs
     id="defs1933">
    <linearGradient
       id="linearGradient951">
      <stop
         stop-color="#ec4520"
         offset="0"
         id="stop1900" />
      <stop
         stop-color="#f58517"
         offset="1"
         id="stop1902" />
    </linearGradient>
    <linearGradient
       id="linearGradient935">
      <stop
         stop-color="#548fed"
         offset="0"
         id="stop1905" />
      <stop
         stop-color="#5ebae3"
         offset="1"
         id="stop1907" />
    </linearGradient>
    <linearGradient
       id="linearGradient913">
      <stop
         stop-color="#8ae234"
         offset="0"
         id="stop1910" />
      <stop
         stop-color="#47e767"
         offset="1"
         id="stop1912" />
    </linearGradient>
    <linearGradient
       id="linearGradient903"
       x1="4.9328"
       x2="7.0494"
       y1="4.305"
       y2="4.305"
       gradientUnits="userSpaceOnUse"
       xlink:href="#linearGradient913" />
    <linearGradient
       id="linearGradient905"
       x1="7.0494"
       x2="9.1661"
       y1="6.4216"
       y2="6.4216"
       gradientUnits="userSpaceOnUse"
       xlink:href="#linearGradient913" />
    <linearGradient
       id="linearGradient907"
       x1="11.283"
       x2="13.399"
       y1="10.655"
       y2="10.655"
       gradientUnits="userSpaceOnUse"
       xlink:href="#linearGradient913" />
    <linearGradient
       id="linearGradient921"
       x1="11.283"
       x2="13.399"
       y1="4.305"
       y2="4.305"
       gradientUnits="userSpaceOnUse"
       xlink:href="#linearGradient935" />
    <linearGradient
       id="linearGradient923"
       x1="4.9328"
       x2="7.0494"
       y1="10.655"
       y2="10.655"
       gradientUnits="userSpaceOnUse"
       xlink:href="#linearGradient935" />
    <linearGradient
       id="linearGradient925"
       x1="7.0494"
       x2="9.1661"
       y1="8.5382"
       y2="8.5382"
       gradientUnits="userSpaceOnUse"
       xlink:href="#linearGradient935" />
    <linearGradient
       id="linearGradient927"
       x1="9.1661"
       x2="11.283"
       y1="10.655"
       y2="10.655"
       gradientUnits="userSpaceOnUse"
       xlink:href="#linearGradient935" />
    <linearGradient
       id="linearGradient929"
       x1="9.1661"
       x2="11.283"
       y1="6.4216"
       y2="6.4216"
       gradientUnits="userSpaceOnUse"
       xlink:href="#linearGradient935" />
    <linearGradient
       id="linearGradient943"
       x1="11.283"
       x2="13.399"
       y1="8.5382"
       y2="8.5382"
       gradientUnits="userSpaceOnUse"
       xlink:href="#linearGradient951" />
    <linearGradient
       id="linearGradient945"
       x1="7.0494"
       x2="9.1661"
       y1="4.305"
       y2="4.305"
       gradientUnits="userSpaceOnUse"
       xlink:href="#linearGradient951" />
    <filter
       id="filter999"
       x="-0.059999996"
       y="-0.059999996"
       width="1.12"
       height="1.12"
       color-interpolation-filters="sRGB">
      <feGaussianBlur
         stdDeviation="0.21166249"
         id="feGaussianBlur1925" />
    </filter>
    <linearGradient
       id="linearGradient862-3"
       x1="7.9373"
       x2="7.9373"
       y1="15.081"
       y2="1.852"
       gradientTransform="matrix(0.99997,0,0,0.99997,4.2334776,-5.3131921)"
       gradientUnits="userSpaceOnUse">
      <stop
         stop-color="#1a1a1a"
         offset="0"
         id="stop1928" />
      <stop
         stop-color="#4d4d4d"
         offset="1"
         id="stop1930" />
    </linearGradient>
    <filter
       id="filter1057"
       x="-0.026999999"
       y="-0.026999999"
       width="1.054"
       height="1.054"
       color-interpolation-filters="sRGB">
      <feGaussianBlur
         stdDeviation="0.61875"
         id="feGaussianBlur1443" />
    </filter>
    <linearGradient
       id="linearGradient1053"
       x1="-127"
       x2="-72"
       y1="60"
       y2="5"
       gradientTransform="translate(203.93,-0.054156)"
       gradientUnits="userSpaceOnUse">
      <stop
         stop-color="#1d2123"
         offset="0"
         id="stop1446" />
      <stop
         stop-color="#33393e"
         stop-opacity=".99608"
         offset="1"
         id="stop1448" />
    </linearGradient>
  </defs>
  <g
     transform="matrix(0.26457812,0,0,0.26457812,-19.166039,1.6e-7)"
     id="g1459">
    <rect
       x="76.934998"
       y="4.9558001"
       width="55"
       height="55"
       ry="15"
       fill="#141414"
       filter="url(#filter1057)"
       opacity="0.3"
       stroke-linecap="round"
       stroke-width="2.7444"
       id="rect1453" />
    <rect
       x="76.934998"
       y="4.9558001"
       width="55"
       height="55"
       ry="15"
       fill="url(#linearGradient1053)"
       stroke-linecap="round"
       stroke-width="2.7444"
       id="rect1455"
       style="fill:url(#linearGradient1053)" />
    <circle
       cx="104.44"
       cy="32"
       r="30.000999"
       fill-opacity="0"
       stroke-width="1.5715"
       id="circle1457" />
  </g>
  <g
     transform="translate(-.69956 .98656)"
     filter="url(#filter999)"
     opacity=".35"
     id="g1969">
    <path
       d="m5.9911 9.5966c-0.58419 0-1.0583 0.47412-1.0583 1.0583s0.47412 1.0583 1.0583 1.0583c0.58419 0 1.0583-0.47412 1.0583-1.0583s-0.47412-1.0583-1.0583-1.0583z"
       id="path1949" />
    <path
       d="m10.224 9.5966c-0.58419 0-1.0583 0.47412-1.0583 1.0583s0.47412 1.0583 1.0583 1.0583c0.58419 0 1.0583-0.47412 1.0583-1.0583s-0.47412-1.0583-1.0583-1.0583z"
       id="path1951" />
    <path
       d="m12.341 9.5966c-0.58419 0-1.0583 0.47412-1.0583 1.0583s0.47412 1.0583 1.0583 1.0583 1.0583-0.47412 1.0583-1.0583-0.47412-1.0583-1.0583-1.0583z"
       id="path1953" />
    <path
       d="m8.1078 7.4799c-0.58419 0-1.0583 0.47412-1.0583 1.0583 0 0.58419 0.47412 1.0583 1.0583 1.0583s1.0583-0.47412 1.0583-1.0583c0-0.58419-0.47412-1.0583-1.0583-1.0583z"
       id="path1955" />
    <path
       d="m12.341 7.4799c-0.58419 0-1.0583 0.47412-1.0583 1.0583 0 0.58419 0.47412 1.0583 1.0583 1.0583s1.0583-0.47412 1.0583-1.0583c0-0.58419-0.47412-1.0583-1.0583-1.0583z"
       id="path1957" />
    <path
       d="m8.1078 5.3633c-0.58419 0-1.0583 0.47412-1.0583 1.0583s0.47412 1.0583 1.0583 1.0583 1.0583-0.47412 1.0583-1.0583-0.47412-1.0583-1.0583-1.0583z"
       id="path1959" />
    <path
       d="m10.224 5.3633c-0.58419 0-1.0583 0.47412-1.0583 1.0583s0.47412 1.0583 1.0583 1.0583c0.58419 0 1.0583-0.47412 1.0583-1.0583s-0.47412-1.0583-1.0583-1.0583z"
       id="path1961" />
    <path
       d="m5.9911 3.2467c-0.58419 0-1.0583 0.47412-1.0583 1.0583 0 0.58419 0.47412 1.0583 1.0583 1.0583 0.58419 0 1.0583-0.47412 1.0583-1.0583 0-0.58419-0.47412-1.0583-1.0583-1.0583z"
       id="path1963" />
    <path
       d="m8.1078 3.2467c-0.58419 0-1.0583 0.47412-1.0583 1.0583 0 0.58419 0.47412 1.0583 1.0583 1.0583s1.0583-0.47412 1.0583-1.0583c0-0.58419-0.47412-1.0583-1.0583-1.0583z"
       id="path1965" />
    <path
       d="m12.341 3.2467c-0.58419 0-1.0583 0.47412-1.0583 1.0583 0 0.58419 0.47412 1.0583 1.0583 1.0583s1.0583-0.47412 1.0583-1.0583c0-0.58419-0.47412-1.0583-1.0583-1.0583z"
       id="path1967" />
  </g>
  <g
     transform="translate(-.69956 .98656)"
     id="g1991">
    <path
       d="m5.9911 9.5966c-0.58419 0-1.0583 0.47412-1.0583 1.0583s0.47412 1.0583 1.0583 1.0583c0.58419 0 1.0583-0.47412 1.0583-1.0583s-0.47412-1.0583-1.0583-1.0583z"
       fill="url(#linearGradient923)"
       id="path1971" />
    <path
       d="m10.224 9.5966c-0.58419 0-1.0583 0.47412-1.0583 1.0583s0.47412 1.0583 1.0583 1.0583c0.58419 0 1.0583-0.47412 1.0583-1.0583s-0.47412-1.0583-1.0583-1.0583z"
       fill="url(#linearGradient927)"
       id="path1973" />
    <path
       d="m12.341 9.5966c-0.58419 0-1.0583 0.47412-1.0583 1.0583s0.47412 1.0583 1.0583 1.0583 1.0583-0.47412 1.0583-1.0583-0.47412-1.0583-1.0583-1.0583z"
       fill="url(#linearGradient907)"
       id="path1975" />
    <path
       d="m8.1078 7.4799c-0.58419 0-1.0583 0.47412-1.0583 1.0583 0 0.58419 0.47412 1.0583 1.0583 1.0583s1.0583-0.47412 1.0583-1.0583c0-0.58419-0.47412-1.0583-1.0583-1.0583z"
       fill="url(#linearGradient925)"
       id="path1977" />
    <path
       d="m12.341 7.4799c-0.58419 0-1.0583 0.47412-1.0583 1.0583 0 0.58419 0.47412 1.0583 1.0583 1.0583s1.0583-0.47412 1.0583-1.0583c0-0.58419-0.47412-1.0583-1.0583-1.0583z"
       fill="url(#linearGradient943)"
       id="path1979" />
    <path
       d="m8.1078 5.3633c-0.58419 0-1.0583 0.47412-1.0583 1.0583s0.47412 1.0583 1.0583 1.0583 1.0583-0.47412 1.0583-1.0583-0.47412-1.0583-1.0583-1.0583z"
       fill="url(#linearGradient905)"
       id="path1981" />
    <path
       d="m10.224 5.3633c-0.58419 0-1.0583 0.47412-1.0583 1.0583s0.47412 1.0583 1.0583 1.0583c0.58419 0 1.0583-0.47412 1.0583-1.0583s-0.47412-1.0583-1.0583-1.0583z"
       fill="url(#linearGradient929)"
       id="path1983" />
    <path
       d="m5.9911 3.2467c-0.58419 0-1.0583 0.47412-1.0583 1.0583 0 0.58419 0.47412 1.0583 1.0583 1.0583 0.58419 0 1.0583-0.47412 1.0583-1.0583 0-0.58419-0.47412-1.0583-1.0583-1.0583z"
       fill="url(#linearGradient903)"
       id="path1985" />
    <path
       d="m8.1078 3.2467c-0.58419 0-1.0583 0.47412-1.0583 1.0583 0 0.58419 0.47412 1.0583 1.0583 1.0583s1.0583-0.47412 1.0583-1.0583c0-0.58419-0.47412-1.0583-1.0583-1.0583z"
       fill="url(#linearGradient945)"
       id="path1987" />
    <path
       d="m12.341 3.2467c-0.58419 0-1.0583 0.47412-1.0583 1.0583 0 0.58419 0.47412 1.0583 1.0583 1.0583s1.0583-0.47412 1.0583-1.0583c0-0.58419-0.47412-1.0583-1.0583-1.0583z"
       fill="url(#linearGradient921)"
       id="path1989" />
  </g>
</svg>
