<?xml version="1.0" encoding="UTF-8" standalone="no"?>
<svg
   xmlns:dc="http://purl.org/dc/elements/1.1/"
   xmlns:cc="http://creativecommons.org/ns#"
   xmlns:rdf="http://www.w3.org/1999/02/22-rdf-syntax-ns#"
   xmlns:svg="http://www.w3.org/2000/svg"
   xmlns="http://www.w3.org/2000/svg"
   xmlns:xlink="http://www.w3.org/1999/xlink"
   xmlns:sodipodi="http://sodipodi.sourceforge.net/DTD/sodipodi-0.dtd"
   xmlns:inkscape="http://www.inkscape.org/namespaces/inkscape"
   width="64"
   height="64"
   version="1"
   id="svg14"
   sodipodi:docname="google-chrome-unstable.svg"
   inkscape:version="1.0.1 (3bc2e813f5, 2020-09-07)">
  <metadata
     id="metadata20">
    <rdf:RDF>
      <cc:Work
         rdf:about="">
        <dc:format>image/svg+xml</dc:format>
        <dc:type
           rdf:resource="http://purl.org/dc/dcmitype/StillImage" />
        <dc:title></dc:title>
      </cc:Work>
    </rdf:RDF>
  </metadata>
  <defs
     id="defs18">
    <linearGradient
       id="e"
       x1="17.187"
       x2="17.187"
       y1="46.737"
       y2="199.98"
       gradientTransform="matrix(.3 0 0 .3 2 2.0064)"
       gradientUnits="userSpaceOnUse">
      <stop
         stop-color="#35C130"
         offset="0"
         id="stop4" />
      <stop
         stop-color="#34BD30"
         offset=".3483"
         id="stop6" />
      <stop
         stop-color="#31B231"
         offset=".6809"
         id="stop8" />
      <stop
         stop-color="#2C9F32"
         offset="1"
         id="stop10" />
    </linearGradient>
    <linearGradient
       id="d"
       x1="95.97"
       x2="95.97"
       y1="2.2922"
       y2="198.44"
       gradientTransform="matrix(1.7191,0,0,1.7191,340.09,368.45)"
       gradientUnits="userSpaceOnUse">
      <stop
         stop-color="#47B9FF"
         offset="0"
         id="stop13" />
      <stop
         stop-color="#3D8AFF"
         offset="1"
         id="stop15" />
    </linearGradient>
    <linearGradient
       id="c"
       x1="114.75"
       x2="114.75"
       y1="56.681"
       y2="188.93"
       gradientTransform="matrix(.32519 0 0 .32519 -.48672 -.54406)"
       gradientUnits="userSpaceOnUse">
      <stop
         stop-color="#ffce00"
         offset="0"
         id="stop18" />
      <stop
         stop-color="#e6bc00"
         offset="1"
         id="stop20" />
    </linearGradient>
    <linearGradient
       id="b"
       x1="103.67"
       x2="103.67"
       y1="-4.6623"
       y2="206.5"
       gradientTransform="matrix(2.1699,0,0,2.1699,295.01,323.37)"
       gradientUnits="userSpaceOnUse">
      <stop
         stop-color="#fff"
         offset="0"
         id="stop23" />
      <stop
         stop-color="#d7d7d7"
         offset="1"
         id="stop25" />
    </linearGradient>
    <filter
       id="g"
       x="-.036"
       y="-.036"
       width="1.072"
       height="1.072"
       color-interpolation-filters="sRGB">
      <feGaussianBlur
         stdDeviation="6.5097789"
         id="feGaussianBlur28" />
    </filter>
    <linearGradient
       id="a"
       x1="97.425"
       x2="97.425"
       y1="-9.0071"
       y2="209.87"
       gradientTransform="matrix(4.705,0,0,4.705,41,42)"
       gradientUnits="userSpaceOnUse">
      <stop
         stop-color="#F6503B"
         offset="0"
         id="stop31" />
      <stop
         stop-color="#F24735"
         offset=".2174"
         id="stop33" />
      <stop
         stop-color="#E62F25"
         offset=".5719"
         id="stop35" />
      <stop
         stop-color="#D4090D"
         offset="1"
         id="stop37" />
    </linearGradient>
    <filter
       id="f"
       x="-.036"
       y="-.036"
       width="1.072"
       height="1.072"
       color-interpolation-filters="sRGB">
      <feGaussianBlur
         stdDeviation="14.115"
         id="feGaussianBlur40" />
    </filter>
    <filter
       color-interpolation-filters="sRGB"
       height="1.048"
       width="1.048"
       y="-.024"
       x="-.024"
       id="filter2761">
      <feGaussianBlur
         id="feGaussianBlur2"
         stdDeviation="0.14552168" />
    </filter>
    <linearGradient
       gradientTransform="matrix(3.779602,0,0,3.779602,-0.00321238,0.53084538)"
       gradientUnits="userSpaceOnUse"
       y2="1.17"
       y1="15.576"
       x2="15.65"
       x1="1.3315"
       id="linearGradient1024">
      <stop
         id="stop5"
         offset="0"
         stop-color="#dddfe1" />
      <stop
         id="stop7"
         offset="1"
         stop-opacity=".99608"
         stop-color="#f3f4f6" />
    </linearGradient>
    <clipPath
       id="clipPath13429-36">
      <path
         id="path10-3"
         d="m481 318h22v22h-22z" />
    </clipPath>
    <clipPath
       id="clipPath13465-7">
      <path
         id="path13"
         d="m507 318h22v22h-22z" />
    </clipPath>
    <clipPath
       id="clipPath13501-5">
      <path
         id="path16"
         d="m530 318h22v22h-22z" />
    </clipPath>
    <clipPath
       id="clipPath13753-3">
      <path
         id="path19"
         d="m672 1064c0-1.105 4.925-2 11-2s11 0.895 11 2-4.925 2-11 2-11-0.895-11-2" />
    </clipPath>
    <clipPath
       id="clipPath13771-5">
      <path
         id="path22"
         d="m660 1057h51v65.001h-51z" />
    </clipPath>
    <clipPath
       id="clipPath14035-6">
      <path
         id="path25"
         d="m659 517h53v18h-53z" />
    </clipPath>
    <clipPath
       id="clipPath14127-2">
      <path
         id="path28"
         d="m659 500h53v18h-53z" />
    </clipPath>
    <clipPath
       id="clipPath14445-9">
      <path
         id="path31"
         d="m648 112h73v60h-73z" />
    </clipPath>
    <clipPath
       id="clipPath14609-1">
      <path
         id="path34"
         d="m826 1056h59v60h-59z" />
    </clipPath>
    <clipPath
       id="clipPath15305-27">
      <path
         id="path37"
         d="m805 276h100v100h-100z" />
    </clipPath>
    <clipPath
       id="clipPath15341-09">
      <path
         id="path40"
         d="m145 1063.8h74.152v45.21h-74.152z" />
    </clipPath>
    <clipPath
       id="clipPath15715-3">
      <path
         id="path43"
         d="m151 667h57v57h-57z" />
    </clipPath>
    <clipPath
       id="clipPath15807-6">
      <path
         id="path46"
         d="m154 697h51v51h-51z" />
    </clipPath>
    <clipPath
       id="clipPath16001-0">
      <path
         id="path49-3"
         d="m500.04 864.45h36.012v67.52h-36.012z" />
    </clipPath>
    <clipPath
       id="clipPath16093-6">
      <path
         id="path52"
         d="m836 870.54h47v55.539h-47z" />
    </clipPath>
    <clipPath
       id="clipPath16477-2">
      <path
         id="path55"
         d="m318.03 702.35h62.848v37.991h-62.848z" />
    </clipPath>
    <clipPath
       id="clipPath16579-6">
      <path
         id="path58"
         d="m485.03 133.35h62.847v37.991h-62.847z" />
    </clipPath>
    <clipPath
       id="clipPath16709-1">
      <path
         id="path61"
         d="m493.37 677.93h45.643v68.067h-45.643z" />
    </clipPath>
    <clipPath
       id="clipPath24218-87">
      <path
         id="path64"
         d="m144.34 1018.2h71.467v78h-71.467z" />
    </clipPath>
    <clipPath
       id="clipPath24382-92">
      <path
         id="path67"
         d="m293.21 1068.6 66.323-38.292 36.047 62.435-66.323 38.292z" />
    </clipPath>
    <clipPath
       id="clipPath24650-0">
      <path
         id="path70"
         d="m488.86 1054.5h10v10.706h-10z" />
    </clipPath>
    <clipPath
       id="clipPath24700-2">
      <path
         id="path73"
         d="m508 1066.8h10.001v10.705h-10.001z" />
    </clipPath>
    <clipPath
       id="clipPath24750-3">
      <path
         id="path76"
         d="m525 1045.8h10v10.706h-10z" />
    </clipPath>
    <clipPath
       id="clipPath24864-7">
      <path
         id="path79"
         d="m836 1043.7h25.5v31.5h-25.5z" />
    </clipPath>
    <clipPath
       id="clipPath24896-5">
      <path
         id="path82"
         d="m838 1062.2h24v24h-24z" />
    </clipPath>
    <clipPath
       id="clipPath25070-92">
      <path
         id="path85"
         d="m134 489.24h7v6h-7z" />
    </clipPath>
    <clipPath
       id="clipPath25100-28">
      <path
         id="path88"
         d="m216 489.24h7v6h-7z" />
    </clipPath>
    <clipPath
       id="clipPath25502-9">
      <path
         id="path91"
         d="m838 477.24h22v22h-22z" />
    </clipPath>
    <clipPath
       id="clipPath25686-73">
      <path
         id="path94"
         d="m704 1061.2h25v25h-25z" />
    </clipPath>
    <clipPath
       id="clipPath25788-6">
      <path
         id="path97"
         d="m663.04 1078.6-1.808-3.514-21.07-47.453c13.336-18.439 48.336-26.938 73.836-3.439 0.842 0 6.476 6.246 6 7l-18.386 25.895c-0.483 0.765-1.453 0.946-2.177 0.431l-15.505-11.011c-0.359-0.255-0.847-0.153-1.07 0.238l-18.272 31.869c-0.218 0.384-0.502 0.578-0.782 0.578-0.282 0-0.561-0.197-0.766-0.594" />
    </clipPath>
    <clipPath
       id="clipPath26420-1">
      <path
         id="path100"
         d="m127 820.24h100v100h-100z" />
    </clipPath>
    <clipPath
       id="clipPath26860-29">
      <path
         id="path103"
         d="m809 680.24c0-22.092 17.908-40 40-40s40 17.908 40 40c0 22.091-17.908 40-40 40s-40-17.909-40-40" />
    </clipPath>
    <clipPath
       id="clipPath27506-3">
      <path
         id="path106"
         d="m658 469.24h44v45h-44z" />
    </clipPath>
    <clipPath
       id="clipPath27772-1">
      <path
         id="path109"
         d="m651 271.24h58v58h-58z" />
    </clipPath>
    <clipPath
       id="clipPath27864-9">
      <path
         id="path112"
         d="m662 307.24h38v8h-38z" />
    </clipPath>
    <clipPath
       id="clipPath28028-4">
      <path
         id="path115"
         d="m858.98 137.24c0.013-0.101 0.021-0.203 0.021-0.307v-6.693h15.75c1.237 0 2.25-1.013 2.25-2.25v-11.25l-27-4.5-27 4.5v-2.25l27-4.5 27 4.5v-27c0-1.237-1.013-2.25-2.25-2.25h-49.5c-1.237 0-2.25 1.013-2.25 2.25v-4.25h54v54zm-35.979 0v-9.25c0 1.237 1.013 2.25 2.25 2.25h15.75v6.693c0 0.104 7e-3 0.207 0.02 0.307zm22.5-7h9v4.5h-9zm1.125-9c-0.62 0-1.125-0.506-1.125-1.125v-2.25c0-0.619 0.505-1.125 1.125-1.125h6.75c0.619 0 1.125 0.506 1.125 1.125v2.25c0 0.619-0.506 1.125-1.125 1.125z" />
    </clipPath>
    <clipPath
       id="clipPath28200-7">
      <path
         id="path118"
         d="m531.27 136.24c6.325-2.29 10.727-8.277 10.727-15.484 0-11.316-10.2-20.563-25.65-34.575l-4.35-3.941-4.35 3.941c-15.45 14.012-25.65 23.259-25.65 34.575v-39.516h60v55zm-26.983 0c2.995-1.052 5.686-2.883 7.71-5.25 2.024 2.367 4.715 4.198 7.71 5.25zm-22.29 0v-15.484c0 7.207 4.402 13.194 10.727 15.484z" />
    </clipPath>
    <clipPath
       id="clipPath28364-8">
      <path
         id="path121"
         d="m648 79.241h64v64h-64z" />
    </clipPath>
    <clipPath
       id="clipPath28984-4">
      <path
         id="path124"
         d="m500 691.74c0-3.037 2.463-5.5 5.5-5.5s5.5 2.463 5.5 5.5-2.463 5.5-5.5 5.5-5.5-2.463-5.5-5.5" />
    </clipPath>
    <clipPath
       id="clipPath29012-5">
      <path
         id="path127"
         d="m500 669.74c0-3.037 2.463-5.5 5.5-5.5s5.5 2.463 5.5 5.5c0 3.038-2.463 5.5-5.5 5.5s-5.5-2.462-5.5-5.5" />
    </clipPath>
    <clipPath
       id="clipPath29040-0">
      <path
         id="path130"
         d="m494 680.74c0-3.037 2.462-5.5 5.5-5.5s5.5 2.463 5.5 5.5c0 3.038-2.462 5.5-5.5 5.5s-5.5-2.462-5.5-5.5" />
    </clipPath>
    <clipPath
       id="clipPath29068-36">
      <path
         id="path133"
         d="m513 691.74c0-3.037 2.463-5.5 5.5-5.5s5.5 2.463 5.5 5.5-2.463 5.5-5.5 5.5-5.5-2.463-5.5-5.5" />
    </clipPath>
    <clipPath
       id="clipPath29096-10">
      <path
         id="path136"
         d="m513 669.74c0-3.037 2.463-5.5 5.5-5.5s5.5 2.463 5.5 5.5c0 3.038-2.463 5.5-5.5 5.5s-5.5-2.462-5.5-5.5" />
    </clipPath>
    <clipPath
       id="clipPath29124-63">
      <path
         id="path139"
         d="m507 680.74c0-3.037 2.463-5.5 5.5-5.5s5.5 2.463 5.5 5.5c0 3.038-2.463 5.5-5.5 5.5s-5.5-2.462-5.5-5.5" />
    </clipPath>
    <clipPath
       id="clipPath29152-2">
      <path
         id="path142"
         d="m520 680.74c0-3.037 2.463-5.5 5.5-5.5s5.5 2.463 5.5 5.5c0 3.038-2.463 5.5-5.5 5.5s-5.5-2.462-5.5-5.5" />
    </clipPath>
    <clipPath
       id="clipPath29252-0">
      <path
         id="path145"
         d="m321 322.24c-4.97 0-9-4.029-9-9 0-4.97 4.03-9 9-9h45c4.971 0 9 4.03 9 9 0 4.971-4.029 9-9 9z" />
    </clipPath>
    <clipPath
       id="clipPath29280-6">
      <path
         id="path148"
         d="m322 297.24c-4.971 0-9-4.029-9-9 0-4.97 4.029-9 9-9h45c4.971 0 9 4.03 9 9 0 4.971-4.029 9-9 9z" />
    </clipPath>
    <clipPath
       id="clipPath29400-1">
      <path
         id="path151"
         d="m155 83.24h44v53h-44z" />
    </clipPath>
    <clipPath
       id="clipPath13429-36-3">
      <path
         d="m481 318h22v22h-22z"
         id="path1361" />
    </clipPath>
    <clipPath
       id="clipPath13465-7-6">
      <path
         d="m507 318h22v22h-22z"
         id="path1364" />
    </clipPath>
    <clipPath
       id="clipPath13501-5-7">
      <path
         d="m530 318h22v22h-22z"
         id="path1367" />
    </clipPath>
    <clipPath
       id="clipPath13753-3-5">
      <path
         d="m672 1064c0-1.105 4.925-2 11-2s11 0.895 11 2-4.925 2-11 2-11-0.895-11-2"
         id="path1370" />
    </clipPath>
    <clipPath
       id="clipPath13771-5-3">
      <path
         d="m660 1057h51v65.001h-51z"
         id="path1373" />
    </clipPath>
    <clipPath
       id="clipPath14035-6-5">
      <path
         d="m659 517h53v18h-53z"
         id="path1376" />
    </clipPath>
    <clipPath
       id="clipPath14127-2-6">
      <path
         d="m659 500h53v18h-53z"
         id="path1379" />
    </clipPath>
    <clipPath
       id="clipPath14445-9-2">
      <path
         d="m648 112h73v60h-73z"
         id="path1382" />
    </clipPath>
    <clipPath
       id="clipPath14609-1-9">
      <path
         d="m826 1056h59v60h-59z"
         id="path1385" />
    </clipPath>
    <clipPath
       id="clipPath15305-27-1">
      <path
         d="m805 276h100v100h-100z"
         id="path1388" />
    </clipPath>
    <clipPath
       id="clipPath15341-09-2">
      <path
         d="m145 1063.8h74.152v45.21h-74.152z"
         id="path1391" />
    </clipPath>
    <clipPath
       id="clipPath15715-3-7">
      <path
         d="m151 667h57v57h-57z"
         id="path1394" />
    </clipPath>
    <clipPath
       id="clipPath15807-6-0">
      <path
         d="m154 697h51v51h-51z"
         id="path1397" />
    </clipPath>
    <clipPath
       id="clipPath16001-0-9">
      <path
         d="m500.04 864.45h36.012v67.52h-36.012z"
         id="path1400" />
    </clipPath>
    <clipPath
       id="clipPath16093-6-3">
      <path
         d="m836 870.54h47v55.539h-47z"
         id="path1403" />
    </clipPath>
    <clipPath
       id="clipPath16477-2-6">
      <path
         d="m318.03 702.35h62.848v37.991h-62.848z"
         id="path1406" />
    </clipPath>
    <clipPath
       id="clipPath16579-6-0">
      <path
         d="m485.03 133.35h62.847v37.991h-62.847z"
         id="path1409" />
    </clipPath>
    <clipPath
       id="clipPath16709-1-6">
      <path
         d="m493.37 677.93h45.643v68.067h-45.643z"
         id="path1412" />
    </clipPath>
    <clipPath
       id="clipPath24218-87-2">
      <path
         d="m144.34 1018.2h71.467v78h-71.467z"
         id="path1415" />
    </clipPath>
    <clipPath
       id="clipPath24382-92-6">
      <path
         d="m293.21 1068.6 66.323-38.292 36.047 62.435-66.323 38.292z"
         id="path1418" />
    </clipPath>
    <clipPath
       id="clipPath24650-0-1">
      <path
         d="m488.86 1054.5h10v10.706h-10z"
         id="path1421" />
    </clipPath>
    <clipPath
       id="clipPath24700-2-8">
      <path
         d="m508 1066.8h10.001v10.705h-10.001z"
         id="path1424" />
    </clipPath>
    <clipPath
       id="clipPath24750-3-7">
      <path
         d="m525 1045.8h10v10.706h-10z"
         id="path1427" />
    </clipPath>
    <clipPath
       id="clipPath24864-7-9">
      <path
         d="m836 1043.7h25.5v31.5h-25.5z"
         id="path1430" />
    </clipPath>
    <clipPath
       id="clipPath24896-5-2">
      <path
         d="m838 1062.2h24v24h-24z"
         id="path1433" />
    </clipPath>
    <clipPath
       id="clipPath25070-92-0">
      <path
         d="m134 489.24h7v6h-7z"
         id="path1436" />
    </clipPath>
    <clipPath
       id="clipPath25100-28-2">
      <path
         d="m216 489.24h7v6h-7z"
         id="path1439" />
    </clipPath>
    <clipPath
       id="clipPath25502-9-3">
      <path
         d="m838 477.24h22v22h-22z"
         id="path1442" />
    </clipPath>
    <clipPath
       id="clipPath25686-73-7">
      <path
         d="m704 1061.2h25v25h-25z"
         id="path1445" />
    </clipPath>
    <clipPath
       id="clipPath25788-6-5">
      <path
         d="m663.04 1078.6-1.808-3.514-21.07-47.453c13.336-18.439 48.336-26.938 73.836-3.439 0.842 0 6.476 6.246 6 7l-18.386 25.895c-0.483 0.765-1.453 0.946-2.177 0.431l-15.505-11.011c-0.359-0.255-0.847-0.153-1.07 0.238l-18.272 31.869c-0.218 0.384-0.502 0.578-0.782 0.578-0.282 0-0.561-0.197-0.766-0.594"
         id="path1448" />
    </clipPath>
    <clipPath
       id="clipPath26420-1-9">
      <path
         d="m127 820.24h100v100h-100z"
         id="path1451" />
    </clipPath>
    <clipPath
       id="clipPath26860-29-2">
      <path
         d="m809 680.24c0-22.092 17.908-40 40-40s40 17.908 40 40c0 22.091-17.908 40-40 40s-40-17.909-40-40"
         id="path1454" />
    </clipPath>
    <clipPath
       id="clipPath27506-3-2">
      <path
         d="m658 469.24h44v45h-44z"
         id="path1457" />
    </clipPath>
    <clipPath
       id="clipPath27772-1-8">
      <path
         d="m651 271.24h58v58h-58z"
         id="path1460" />
    </clipPath>
    <clipPath
       id="clipPath27864-9-9">
      <path
         d="m662 307.24h38v8h-38z"
         id="path1463" />
    </clipPath>
    <clipPath
       id="clipPath28028-4-7">
      <path
         d="m858.98 137.24c0.013-0.101 0.021-0.203 0.021-0.307v-6.693h15.75c1.237 0 2.25-1.013 2.25-2.25v-11.25l-27-4.5-27 4.5v-2.25l27-4.5 27 4.5v-27c0-1.237-1.013-2.25-2.25-2.25h-49.5c-1.237 0-2.25 1.013-2.25 2.25v-4.25h54v54zm-35.979 0v-9.25c0 1.237 1.013 2.25 2.25 2.25h15.75v6.693c0 0.104 7e-3 0.207 0.02 0.307zm22.5-7h9v4.5h-9zm1.125-9c-0.62 0-1.125-0.506-1.125-1.125v-2.25c0-0.619 0.505-1.125 1.125-1.125h6.75c0.619 0 1.125 0.506 1.125 1.125v2.25c0 0.619-0.506 1.125-1.125 1.125z"
         id="path1466" />
    </clipPath>
    <clipPath
       id="clipPath28200-7-3">
      <path
         d="m531.27 136.24c6.325-2.29 10.727-8.277 10.727-15.484 0-11.316-10.2-20.563-25.65-34.575l-4.35-3.941-4.35 3.941c-15.45 14.012-25.65 23.259-25.65 34.575v-39.516h60v55zm-26.983 0c2.995-1.052 5.686-2.883 7.71-5.25 2.024 2.367 4.715 4.198 7.71 5.25zm-22.29 0v-15.484c0 7.207 4.402 13.194 10.727 15.484z"
         id="path1469" />
    </clipPath>
    <clipPath
       id="clipPath28364-8-6">
      <path
         d="m648 79.241h64v64h-64z"
         id="path1472" />
    </clipPath>
    <clipPath
       id="clipPath28984-4-1">
      <path
         d="m500 691.74c0-3.037 2.463-5.5 5.5-5.5s5.5 2.463 5.5 5.5-2.463 5.5-5.5 5.5-5.5-2.463-5.5-5.5"
         id="path1475" />
    </clipPath>
    <clipPath
       id="clipPath29012-5-2">
      <path
         d="m500 669.74c0-3.037 2.463-5.5 5.5-5.5s5.5 2.463 5.5 5.5c0 3.038-2.463 5.5-5.5 5.5s-5.5-2.462-5.5-5.5"
         id="path1478" />
    </clipPath>
    <clipPath
       id="clipPath29040-0-9">
      <path
         d="m494 680.74c0-3.037 2.462-5.5 5.5-5.5s5.5 2.463 5.5 5.5c0 3.038-2.462 5.5-5.5 5.5s-5.5-2.462-5.5-5.5"
         id="path1481" />
    </clipPath>
    <clipPath
       id="clipPath29068-36-3">
      <path
         d="m513 691.74c0-3.037 2.463-5.5 5.5-5.5s5.5 2.463 5.5 5.5-2.463 5.5-5.5 5.5-5.5-2.463-5.5-5.5"
         id="path1484" />
    </clipPath>
    <clipPath
       id="clipPath29096-10-1">
      <path
         d="m513 669.74c0-3.037 2.463-5.5 5.5-5.5s5.5 2.463 5.5 5.5c0 3.038-2.463 5.5-5.5 5.5s-5.5-2.462-5.5-5.5"
         id="path1487" />
    </clipPath>
    <clipPath
       id="clipPath29124-63-9">
      <path
         d="m507 680.74c0-3.037 2.463-5.5 5.5-5.5s5.5 2.463 5.5 5.5c0 3.038-2.463 5.5-5.5 5.5s-5.5-2.462-5.5-5.5"
         id="path1490" />
    </clipPath>
    <clipPath
       id="clipPath29152-2-4">
      <path
         d="m520 680.74c0-3.037 2.463-5.5 5.5-5.5s5.5 2.463 5.5 5.5c0 3.038-2.463 5.5-5.5 5.5s-5.5-2.462-5.5-5.5"
         id="path1493" />
    </clipPath>
    <clipPath
       id="clipPath29252-0-7">
      <path
         d="m321 322.24c-4.97 0-9-4.029-9-9 0-4.97 4.03-9 9-9h45c4.971 0 9 4.03 9 9 0 4.971-4.029 9-9 9z"
         id="path1496" />
    </clipPath>
    <clipPath
       id="clipPath29280-6-8">
      <path
         d="m322 297.24c-4.971 0-9-4.029-9-9 0-4.97 4.029-9 9-9h45c4.971 0 9 4.03 9 9 0 4.971-4.029 9-9 9z"
         id="path1499" />
    </clipPath>
    <clipPath
       id="clipPath29400-1-4">
      <path
         d="m155 83.24h44v53h-44z"
         id="path1502" />
    </clipPath>
    <linearGradient
       id="e-6"
       x1="17.187"
       x2="17.187"
       y1="46.737"
       y2="199.98"
       gradientTransform="matrix(0.35000001,0,0,0.35000001,-3.000003,-2.9998672)"
       gradientUnits="userSpaceOnUse">
      <stop
         stop-color="#35C130"
         offset="0"
         id="stop1505" />
      <stop
         stop-color="#34BD30"
         offset=".3483"
         id="stop1507" />
      <stop
         stop-color="#31B231"
         offset=".6809"
         id="stop1509" />
      <stop
         stop-color="#2C9F32"
         offset="1"
         id="stop1511" />
    </linearGradient>
    <linearGradient
       id="c-7"
       x1="114.75"
       x2="114.75"
       y1="56.681"
       y2="188.93"
       gradientTransform="matrix(0.37938364,0,0,0.37938364,-5.901172,-5.9754252)"
       gradientUnits="userSpaceOnUse">
      <stop
         stop-color="#ffce00"
         offset="0"
         id="stop1519" />
      <stop
         stop-color="#e6bc00"
         offset="1"
         id="stop1521" />
    </linearGradient>
    <filter
       id="g-5"
       x="-.036"
       y="-.036"
       width="1.072"
       height="1.072"
       color-interpolation-filters="sRGB">
      <feGaussianBlur
         stdDeviation="6.5097789"
         id="feGaussianBlur1529" />
    </filter>
    <style
       type="text/css"
       id="style1359" />
    <style
       type="text/css"
       id="style1361" />
    <filter
       id="filter1057"
       x="-.027"
       y="-.027"
       width="1.054"
       height="1.054"
       color-interpolation-filters="sRGB">
      <feGaussianBlur
         stdDeviation="0.61875"
         id="feGaussianBlur1363" />
    </filter>
    <linearGradient
       id="linearGradient1053"
       x1="-127"
       x2="-72"
       y1="60"
       y2="5"
       gradientTransform="translate(131.5,-0.51)"
       gradientUnits="userSpaceOnUse">
      <stop
         stop-color="#fad21e"
         offset="0"
         id="stop1366" />
      <stop
         stop-color="#faeb1e"
         stop-opacity=".99608"
         offset="1"
         id="stop1368" />
    </linearGradient>
    <linearGradient
       inkscape:collect="always"
       xlink:href="#e-6"
       id="linearGradient2498"
       gradientUnits="userSpaceOnUse"
       gradientTransform="matrix(0.35000001,0,0,0.35000001,-81.129333,-2.9998672)"
       x1="17.187"
       y1="46.737"
       x2="17.187"
       y2="199.98" />
  </defs>
  <sodipodi:namedview
     pagecolor="#ffffff"
     bordercolor="#666666"
     borderopacity="1"
     objecttolerance="10"
     gridtolerance="10"
     guidetolerance="10"
     inkscape:pageopacity="0"
     inkscape:pageshadow="2"
     inkscape:window-width="1920"
     inkscape:window-height="942"
     id="namedview16"
     showgrid="false"
     inkscape:zoom="3.0273438"
     inkscape:cx="44.878776"
     inkscape:cy="5.6024571"
     inkscape:window-x="0"
     inkscape:window-y="38"
     inkscape:window-maximized="1"
     inkscape:current-layer="svg14" />
  <rect
     x="4.4999995"
     y="4.4999995"
     width="55"
     height="55"
     ry="15"
     fill="#141414"
     filter="url(#filter1057)"
     opacity="0.3"
     stroke-linecap="round"
     stroke-width="2.7444"
     id="rect1373" />
  <circle
     cx="-1177.1008"
     cy="-1229.1881"
     r="0"
     id="circle63"
     style="fill:#5e4aa6;stroke-width:1.00001" />
  <circle
     cx="-1108.1609"
     cy="-1221.1375"
     r="0"
     id="circle65"
     style="fill:#5e4aa6;stroke-width:1.00001" />
  <circle
     cx="-1085.1432"
     cy="-1246.9144"
     r="0"
     id="circle67"
     style="fill:#5e4aa6;stroke-width:1.00001" />
  <circle
     cx="-1095.8016"
     cy="-1220.2305"
     r="0"
     id="circle69"
     style="fill:#5e4aa6;stroke-width:1.00001" />
  <circle
     cx="-1169.6388"
     cy="-1247.267"
     r="0"
     fill="#5e4aa6"
     stroke-width="1.00001"
     id="circle164" />
  <circle
     cx="-1259.7899"
     cy="-1242.9725"
     r="0"
     id="circle176"
     style="fill:#5e4aa6;stroke-width:1.00001" />
  <circle
     cx="-1190.85"
     cy="-1234.922"
     r="0"
     id="circle178"
     style="fill:#5e4aa6;stroke-width:1.00001" />
  <circle
     cx="-1167.8322"
     cy="-1260.6989"
     r="0"
     id="circle180"
     style="fill:#5e4aa6;stroke-width:1.00001" />
  <circle
     cx="-1178.4906"
     cy="-1234.0149"
     r="0"
     id="circle182"
     style="fill:#5e4aa6;stroke-width:1.00001" />
  <circle
     cx="-1002.9547"
     cy="-1254.0741"
     r="0"
     id="circle186"
     style="fill:#5e4aa6;stroke-width:1.00001" />
  <circle
     cx="96.56411"
     cy="11.411563"
     r="0"
     fill-rule="evenodd"
     id="circle188"
     style="fill:#5e4aa6;stroke-width:1.00001" />
  <path
     d="m 1419.8079,478.18553 c 5.1547,0 9.3333,-4.17866 9.3333,-9.33331 0,-5.15466 -4.1786,-9.33331 -9.3333,-9.33331 -5.1547,0 -9.3333,4.17865 -9.3333,9.33331 0,5.15465 4.1786,9.33331 9.3333,9.33331"
     fill="#ffffff"
     fill-rule="evenodd"
     id="path192"
     style="stroke-width:1.33333" />
  <path
     d="m 1454.4745,478.18553 c 5.1547,0 9.3333,-4.17866 9.3333,-9.33331 0,-5.15466 -4.1786,-9.33331 -9.3333,-9.33331 -5.1547,0 -9.3333,4.17865 -9.3333,9.33331 0,5.15465 4.1786,9.33331 9.3333,9.33331"
     fill="#ffffff"
     fill-rule="evenodd"
     id="path200"
     style="stroke-width:1.33333" />
  <path
     d="m 1485.1411,478.18553 c 5.1547,0 9.3333,-4.17866 9.3333,-9.33331 0,-5.15466 -4.1786,-9.33331 -9.3333,-9.33331 -5.1547,0 -9.3333,4.17865 -9.3333,9.33331 0,5.15465 4.1786,9.33331 9.3333,9.33331"
     fill="#ffffff"
     fill-rule="evenodd"
     id="path208"
     style="stroke-width:1.33333" />
  <path
     d="m 1613.1408,-517.81212 h 47.9999 v 23.99994 h -47.9999 z m 23.9999,14.66663 c 8.1,0 14.6667,-1.19333 14.6667,-2.66666 0,-1.47333 -6.5667,-2.66666 -14.6667,-2.66666 -8.0999,0 -14.6666,1.19333 -14.6666,2.66666 0,1.47333 6.5667,2.66666 14.6666,2.66666"
     fill="#ffffff"
     fill-rule="evenodd"
     id="path216"
     style="stroke-width:1.33333" />
  <path
     d="m 1600.3675,-504.47882 c 0,0 28.7759,-30.90926 28.7759,-46.86256 0,-16.06396 -12.9119,-29.13726 -28.7759,-29.13726 -15.7546,0 -28.5573,13.0733 -28.5573,29.13726 0,10.74664 13.0213,28.2506 21.336,38.44258 z m 0,-56.72253 c 5.2507,0 9.52,4.43065 9.52,9.85997 0,5.09599 -4.2693,9.52798 -9.52,9.52798 -5.1413,0 -9.6293,-4.43199 -9.6293,-9.52798 0,-5.42932 4.488,-9.85997 9.6293,-9.85997"
     fill="#ffffff"
     id="path222"
     style="stroke-width:1.33333" />
  <path
     d="m 1571.8076,199.51952 h 46.6666 c 3.6826,0 6.6666,2.98399 6.6666,6.66665 0,3.68266 -2.984,6.66665 -6.6666,6.66665 h -46.6666 c -3.6827,0 -6.6667,-2.98399 -6.6667,-6.66665 0,-3.68266 2.984,-6.66665 6.6667,-6.66665"
     fill="#ffffff"
     fill-rule="evenodd"
     id="path230"
     style="stroke-width:1.33333" />
  <path
     d="m 1571.8076,222.18614 h 46.6666 c 3.6826,0 6.6666,2.98399 6.6666,6.66665 0,3.68266 -2.984,6.66665 -6.6666,6.66665 h -46.6666 c -3.6827,0 -6.6667,-2.98399 -6.6667,-6.66665 0,-3.68266 2.984,-6.66665 6.6667,-6.66665"
     fill="#ffffff"
     fill-rule="evenodd"
     id="path238"
     style="stroke-width:1.33333" />
  <path
     d="m 1537.7143,734.4116 c -13.3466,17.22129 -29.7173,12.06264 -32.3066,10.76264 -6.4626,-1.72399 -8.6186,-13.3533 -0.4347,-17.22396 13.3573,-4.30132 25.4133,0.43333 34.032,4.73732 -0.8587,1.28933 -1.2907,1.724 -1.2907,1.724 m 14.2226,-4.73732 c 6.028,-10.76264 8.1853,-21.10129 8.1853,-21.10129 h -20.2519 v -7.74931 h 23.6893 v -3.01333 h -23.6893 v -11.63064 h -10.7653 v 11.63064 h -21.5413 v 3.44533 h 21.5413 v 7.74931 h -18.0933 v 3.44666 h 37.0439 c 0,0.43333 0,0.43333 -0.432,1.29067 0,3.87865 -2.5813,9.03864 -4.7386,13.35196 -27.5693,-10.77197 -35.3213,-4.31332 -37.4773,-3.44532 -18.0853,12.91863 -1.2907,29.28393 1.724,28.8506 19.384,4.30265 31.8733,-3.87999 40.4919,-14.2093 0.432,0.43333 1.2893,0.43333 1.7227,0.43333 6.0373,3.43733 34.4639,16.78929 34.4639,16.78929 v -16.36529 c -5.1707,-0.43333 -20.6746,-5.59332 -31.8733,-9.47331"
     fill="#ffffff"
     id="path246"
     style="stroke-width:1.33333" />
  <path
     d="m 1782.5137,-542.47873 c -0.1987,-0.472 -0.2987,-1.116 -0.2987,-1.93466 0,-0.496 0.1374,-1.104 0.408,-1.824 0.2734,-0.71866 0.5707,-1.27733 0.8947,-1.67466 -0.025,-0.54533 0.068,-1.20266 0.2787,-1.97066 0.212,-0.768 0.4906,-1.30133 0.8386,-1.6 0,-3.44799 1.1467,-7.02532 3.4414,-10.73331 2.2959,-3.70932 4.9919,-6.30665 8.0933,-7.79465 3.4466,-1.63732 7.4666,-2.45599 12.0546,-2.45599 3.3,0 6.5987,0.68133 9.8973,2.04533 1.216,0.52133 2.332,1.116 3.3493,1.78666 1.016,0.66933 1.8974,1.36266 2.6414,2.08266 0.7453,0.72 1.4266,1.56267 2.0453,2.52933 0.62,0.96667 1.1413,1.884 1.5627,2.75199 0.424,0.868 0.8253,1.916 1.2106,3.144 0.3827,1.22799 0.6987,2.33732 0.9467,3.32932 0.248,0.992 0.5213,2.20666 0.8187,3.64533 l 0.037,0.18666 c 1.364,2.05733 2.0466,3.91866 2.0466,5.58132 0,0.34667 -0.112,0.84267 -0.336,1.48667 -0.224,0.64533 -0.3359,1.11599 -0.3359,1.41466 0,0.0253 0.02,0.0693 0.057,0.132 0.037,0.0627 0.081,0.124 0.1306,0.18533 0.051,0.0613 0.076,0.10267 0.076,0.13067 1.9094,2.82799 3.404,5.48799 4.484,7.97998 1.0787,2.49199 1.6187,5.07732 1.6187,7.75598 0,1.06667 -0.2427,2.30666 -0.7253,3.72133 -0.484,1.41333 -1.172,2.11999 -2.0654,2.11999 -0.2226,0 -0.4653,-0.092 -0.7253,-0.27866 -0.2587,-0.18667 -0.4947,-0.404 -0.7053,-0.652 -0.212,-0.248 -0.4467,-0.57067 -0.7067,-0.96667 -0.26,-0.396 -0.4587,-0.724 -0.596,-0.98533 -0.1373,-0.26133 -0.304,-0.584 -0.5027,-0.96666 -0.196,-0.384 -0.3079,-0.60133 -0.3346,-0.652 -0.025,-0.0253 -0.063,-0.0373 -0.1133,-0.0373 l -0.184,0.148 c -1.4654,3.81865 -3.1027,6.58398 -4.912,8.29598 0.496,0.49599 1.2586,0.97333 2.288,1.43333 1.0293,0.45999 1.8853,0.97333 2.5666,1.54399 0.6813,0.568 1.1213,1.37467 1.3213,2.41866 -0.049,0.0987 -0.099,0.29734 -0.1493,0.596 -0.048,0.29867 -0.1347,0.52133 -0.26,0.668 -1.5866,2.40533 -5.3333,3.60799 -11.236,3.60799 -1.3146,0 -2.684,-0.112 -4.1119,-0.33466 -1.4254,-0.224 -2.6414,-0.472 -3.6454,-0.744 -1.004,-0.272 -2.3013,-0.644 -3.888,-1.116 -0.372,-0.124 -0.6573,-0.21067 -0.8573,-0.26133 -0.3453,-0.1 -0.916,-0.15334 -1.7093,-0.16667 -0.7934,-0.012 -1.2894,-0.0307 -1.488,-0.056 -1.0174,1.11733 -2.5987,1.92266 -4.7453,2.41866 -2.1454,0.496 -4.2347,0.744 -6.2694,0.744 -0.8666,0 -1.724,-0.0187 -2.5666,-0.056 -0.8427,-0.0373 -1.9974,-0.15067 -3.46,-0.336 -1.464,-0.18533 -2.7173,-0.44 -3.76,-0.76266 -1.0413,-0.32134 -1.964,-0.81733 -2.7707,-1.48667 -0.8053,-0.66933 -1.208,-1.46399 -1.208,-2.38132 0,-0.992 0.124,-1.73067 0.372,-2.21467 0.2494,-0.48533 0.7587,-1.08666 1.5254,-1.80399 0.2733,-0.0507 0.7746,-0.212 1.508,-0.484 0.732,-0.272 1.3453,-0.42133 1.8413,-0.44533 0.099,0 0.272,-0.0253 0.52,-0.076 0.051,-0.0493 0.076,-0.0987 0.076,-0.148 l -0.076,-0.112 c -1.1893,-0.272 -2.5293,-1.58 -4.0187,-3.92533 -1.4893,-2.34399 -2.3946,-4.28532 -2.7173,-5.82265 l -0.1853,-0.112 c -0.099,0 -0.248,0.24667 -0.4454,0.74267 -0.4466,1.01733 -1.1226,1.93999 -2.028,2.77199 -0.9053,0.82933 -1.8666,1.29466 -2.8839,1.39466 h -0.037 c -0.097,0 -0.172,-0.0547 -0.2226,-0.16666 -0.049,-0.11067 -0.112,-0.17867 -0.1854,-0.204 -0.5706,-1.33867 -0.856,-2.57866 -0.856,-3.71999 0,-6.82132 3.124,-12.59997 9.376,-17.33596 z"
     fill="#ffffff"
     id="path254"
     style="stroke-width:1.33333" />
  <path
     d="m 1695.8073,512.85212 c 22.0906,0 39.9999,-17.90929 39.9999,-39.99991 0,-22.09061 -17.9093,-39.9999 -39.9999,-39.9999 -22.0906,0 -39.9999,17.90929 -39.9999,39.9999 0,22.09062 17.9093,39.99991 39.9999,39.99991 z"
     fill="none"
     stroke="#ffffff"
     stroke-miterlimit="10"
     stroke-width="10.6666"
     id="path262" />
  <path
     d="m 911.60777,-531.27876 c 0,-7.06932 -4.88132,-12.99864 -11.45464,-14.5973 -0.27867,-11.08531 -9.34131,-19.98795 -20.48795,-19.98795 -6.52932,0 -12.33864,3.05732 -16.0933,7.81465 -2.10533,-2.72133 -5.39998,-4.47733 -9.10398,-4.47733 -6.35865,0 -11.51064,5.15732 -11.51064,11.51864 0,0.55467 0.0413,1.1 0.11867,1.632 -0.968,-0.17333 -1.95999,-0.27067 -2.97599,-0.27067 -9.21731,0 -16.68663,7.47599 -16.68663,16.69863 0,9.22131 7.46932,16.69729 16.68663,16.69729 h 56.5252 c 8.27998,-0.0173 14.98796,-6.73731 14.98796,-15.02529 z"
     fill="#ffffff"
     id="path270"
     style="stroke-width:1.33333" />
  <path
     d="m 909.80911,4.8533138 c 12.15064,0 21.99995,-9.8493102 21.99995,-21.9999478 0,-12.150639 -9.84931,-21.999949 -21.99995,-21.999949 -12.15064,0 -21.99995,9.84931 -21.99995,21.999949 0,12.1506376 9.84931,21.9999478 21.99995,21.9999478 z"
     fill="none"
     stroke="#ffffff"
     stroke-miterlimit="10"
     stroke-width="5.33332"
     id="path278" />
  <path
     d="m 925.80907,-35.146592 c 9.94131,0 17.99996,-8.058648 17.99996,-17.999958 0,-9.94131 -8.05865,-17.999957 -17.99996,-17.999957 -9.94131,0 -17.99996,8.058647 -17.99996,17.999957 0,9.94131 8.05865,17.999958 17.99996,17.999958 z"
     fill="none"
     stroke="#ffffff"
     stroke-miterlimit="10"
     stroke-width="5.33332"
     id="path286" />
  <path
     d="m 1430.3546,-329.1859 c -0.9893,1.38533 -6.3333,3.76132 -10.8866,4.75066 -5.74,1.18799 -8.708,2.17732 -11.6773,3.75999 -3.9587,2.37599 -6.1347,5.34532 -5.74,8.11598 0.1986,0.59333 4.948,7.51998 10.4906,15.43729 5.7387,7.91732 10.4907,14.64664 10.688,14.8453 0.1986,0.396 -0.5933,0.396 -3.3653,0.19734 -8.708,-0.59334 -16.6253,3.95865 -20.1893,11.0853 -0.9894,2.176 -1.1867,3.364 -1.1867,5.93732 0,5.93732 3.168,10.68798 9.1053,13.45864 2.3747,0.98933 3.1667,1.18799 8.1147,1.18799 5.3426,0 5.5413,0 9.1053,-1.78132 9.5,-4.55199 13.4573,-13.45997 9.5,-21.57462 -0.792,-1.78133 -5.74,-10.29198 -11.084,-19.00129 l -9.6987,-16.03196 h 1.5827 c 6.3333,-0.396 10.6893,-2.37466 13.6586,-5.73999 2.572,-2.96932 3.364,-5.93732 3.1654,-10.68797 -0.1974,-4.35466 -0.5934,-5.34399 -1.5827,-3.95866"
     fill="#ffffff"
     id="path294"
     style="stroke-width:1.33333" />
  <path
     d="m 1867.8069,-290.22599 c 0,2.08666 -1.2053,3.90799 -3.0013,4.89866 l -37.0413,24.62927 c -0.016,0.0107 -0.035,0.0187 -0.049,0.0267 l -0.023,0.0147 c -0.912,0.50134 -1.9733,0.78934 -3.108,0.78934 -3.3733,0 -6.1106,-2.55067 -6.1106,-5.69199 v -49.33322 c 0,-3.14132 2.7373,-5.69332 6.1106,-5.69332 1.1347,0 2.196,0.28933 3.108,0.79467 l 0.023,0.0107 c 0.015,0.012 0.029,0.0187 0.049,0.0267 l 37.0413,24.62794 c 1.796,0.99067 3.0013,2.81333 3.0013,4.89999"
     fill="#ffffff"
     id="path302"
     style="stroke-width:1.33333" />
  <path
     d="m 1120.8086,-31.613267 c -20.164,0 -36.5572,-16.438628 -36.5572,-36.647914 0,-1.842662 1.4813,-3.339992 3.3159,-3.339992 1.8387,0 3.332,1.49733 3.332,3.339992 0,16.533295 13.4133,29.982596 29.9093,29.982596 16.5,0 29.9239,-13.449301 29.9239,-29.982596 0,-1.842662 1.4827,-3.339992 3.3174,-3.339992 1.8373,0 3.3319,1.49733 3.3319,3.339992 0,20.209286 -16.4052,36.647914 -36.5732,36.647914"
     fill="#ffffff"
     fill-rule="evenodd"
     id="path310"
     style="stroke-width:1.33333" />
  <path
     d="m 1343.4748,727.05162 c -20.164,0 -36.5572,-16.43863 -36.5572,-36.64658 0,-1.844 1.4813,-3.34133 3.3159,-3.34133 1.8387,0 3.332,1.49733 3.332,3.34133 0,16.53063 13.4133,29.98126 29.9093,29.98126 16.5,0 29.9239,-13.45063 29.9239,-29.98126 0,-1.844 1.4827,-3.34133 3.3174,-3.34133 1.8373,0 3.3319,1.49733 3.3319,3.34133 0,20.20795 -16.4052,36.64658 -36.5732,36.64658"
     fill="#ffffff"
     fill-rule="evenodd"
     id="path318"
     style="stroke-width:1.33333" />
  <path
     d="m 1387.7147,-2.333336 c 0.3267,0.3813324 0.8067,0.6079986 1.3147,0.6079986 0.5093,0 0.9906,-0.2266662 1.3173,-0.6079986 l 23.3546,-27.329269 c 0.444,-0.517332 0.544,-1.243997 0.2547,-1.850662 -0.2814,-0.617332 -0.8987,-1.007998 -1.5787,-1.007998 h -13.24 c -2.824,-5.562654 -4.1453,-11.175974 -3.964,-16.83996 0.18,-5.663987 2.6054,-16.481295 7.2734,-32.453258 -14.608,8.786646 -23.5413,24.586609 -23.5413,41.633236 v 7.659982 h -13.24 c -0.68,0 -1.288,0.390666 -1.5786,1.007998 -0.2814,0.615998 -0.18,1.33333 0.2546,1.850662 z"
     fill="#ffffff"
     id="path326"
     style="stroke-width:1.33333" />
  <path
     d="m 701.77202,-319.29261 33.75192,-28.08927 -34.76925,-24.86794 c 7.79465,-10.22797 20.10529,-16.82929 33.95725,-16.82929 23.56395,0 42.66657,19.10262 42.66657,42.66656 0,23.56395 -19.10262,42.66657 -42.66657,42.66657 -13.26397,0 -25.11461,-6.05199 -32.93992,-15.54663 m 36.46525,-42.4159 c 3.77999,0 6.84265,-3.06266 6.84265,-6.84265 0,-3.77866 -3.06266,-6.84265 -6.84265,-6.84265 -3.77866,0 -6.84265,3.06399 -6.84265,6.84265 0,3.77999 3.06399,6.84265 6.84265,6.84265"
     fill="#ffffff"
     fill-rule="evenodd"
     id="path334"
     style="stroke-width:1.33333" />
  <path
     d="m 948.54677,-438.49233 c 26.89727,15.43863 58.45453,-2.66666 68.41183,-19.81595 9.956,-17.14796 6.7093,-41.51724 -13.9573,-50.18389 -20.66661,-8.66664 -60.64918,-8.81464 -72.66649,11.99998 -12.0173,20.81461 -8.68664,42.56256 18.21196,57.99986"
     fill="#ffffff"
     fill-rule="evenodd"
     id="path342"
     style="stroke-width:1.33333" />
  <path
     d="m 1321.3592,-341.42589 c 2.2093,0 4,-2.00133 4,-4.47066 0,-2.46932 -1.7907,-4.47065 -4,-4.47065 -2.208,0 -4,2.00133 -4,4.47065 0,2.46933 1.792,4.47066 4,4.47066"
     fill="#ffffff"
     fill-rule="evenodd"
     id="path350"
     style="stroke-width:1.33333" />
  <path
     d="m 1346.8792,-357.82585 c 2.2093,0 4,-2.00133 4,-4.47066 0,-2.46932 -1.7907,-4.47065 -4,-4.47065 -2.2093,0 -4,2.00133 -4,4.47065 0,2.46933 1.7907,4.47066 4,4.47066"
     fill="#ffffff"
     fill-rule="evenodd"
     id="path358"
     style="stroke-width:1.33333" />
  <path
     d="m 1369.5458,-329.82591 c 2.2093,0 4,-2.00133 4,-4.47066 0,-2.46932 -1.7907,-4.47065 -4,-4.47065 -2.2093,0 -4,2.00133 -4,4.47065 0,2.46933 1.7907,4.47066 4,4.47066"
     fill="#ffffff"
     fill-rule="evenodd"
     id="path366"
     style="stroke-width:1.33333" />
  <path
     d="m 1764.8782,-361.02584 c -4.8893,18.66662 -12.6666,29.1106 -23.3333,31.33326"
     fill="none"
     stroke="#ffffff"
     stroke-linecap="round"
     stroke-miterlimit="10"
     id="path374"
     style="stroke-width:1.33333" />
  <path
     d="m 1758.8782,-353.02586 c -6.628,0 -12,-5.37199 -12,-11.99997 0,-6.62799 5.372,-11.99997 12,-11.99997 6.628,0 12,5.37198 12,11.99997 0,6.62798 -5.372,11.99997 -12,11.99997 m 0,-7.99998 c 2.2093,0 4,-1.79066 4,-3.99999 0,-2.20933 -1.7907,-3.99999 -4,-3.99999 -2.2093,0 -4,1.79066 -4,3.99999 0,2.20933 1.7907,3.99999 4,3.99999"
     fill="#ffffff"
     fill-rule="evenodd"
     id="path382"
     style="stroke-width:1.33333" />
  <path
     d="m 852.21366,408.25235 h 3.99999 c 0.73733,0 1.33333,0.596 1.33333,1.33333 v 2.66666 c 0,0.73733 -0.596,1.33333 -1.33333,1.33333 h -3.99999 c -0.73733,0 -1.33333,-0.596 -1.33333,-1.33333 v -2.66666 c 0,-0.73733 0.596,-1.33333 1.33333,-1.33333"
     fill="#ffffff"
     fill-rule="evenodd"
     id="path390"
     style="stroke-width:1.33333" />
  <path
     d="m 961.54674,408.25235 h 3.99999 c 0.73733,0 1.33333,0.596 1.33333,1.33333 v 2.66666 c 0,0.73733 -0.596,1.33333 -1.33333,1.33333 h -3.99999 c -0.73733,0 -1.33333,-0.596 -1.33333,-1.33333 v -2.66666 c 0,-0.73733 0.596,-1.33333 1.33333,-1.33333"
     fill="#ffffff"
     fill-rule="evenodd"
     id="path398"
     style="stroke-width:1.33333" />
  <path
     d="m 1762.8782,425.58564 c 5.8907,0 10.6666,-4.77599 10.6666,-10.66664 0,-5.89065 -4.7759,-10.66664 -10.6666,-10.66664 -5.8907,0 -10.6666,4.77599 -10.6666,10.66664 0,5.89065 4.7759,10.66664 10.6666,10.66664"
     fill="#ffffff"
     fill-rule="evenodd"
     id="path406"
     style="stroke-width:1.33333" />
  <path
     d="m 1566.8787,-365.6925 c 0,6.25865 5.0747,11.33331 11.3333,11.33331 6.2587,0 11.3333,-5.07466 11.3333,-11.33331 0,-6.25865 -5.0746,-11.33331 -11.3333,-11.33331 -6.2586,0 -11.3333,5.07466 -11.3333,11.33331"
     fill="#ffffff"
     id="path414"
     style="stroke-width:1.33333" />
  <path
     d="m 1310.1326,-374.35914 h 114.4851 v 100.42509 h -114.4851 z m 85.9331,33.47459 c -0.644,-1.02 -1.9373,-1.26267 -2.904,-0.57467 l -20.6719,14.67997 c -0.4787,0.33999 -1.1294,0.204 -1.428,-0.31734 l -24.3613,-42.4919 c -0.584,-1.02799 -1.5187,-1.03466 -2.0653,0.0213 l -2.4094,4.68532 -28.0932,63.26918 c 17.7813,24.58661 64.4478,35.91992 98.4477,4.58666 1.1214,0 8.636,-8.32798 8,-9.33331 z"
     fill="#ffffff"
     fill-rule="evenodd"
     id="path422"
     style="stroke-width:1.33333" />
  <path
     d="m 658.88079,-47.746577 c 25.03727,0 45.33323,-20.295952 45.33323,-45.333227 0,-25.037276 -20.29596,-45.333226 -45.33323,-45.333226 -25.03727,0 -45.33323,20.29595 -45.33323,45.333226 0,25.037275 20.29596,45.333227 45.33323,45.333227 z"
     fill="none"
     stroke="#ffffff"
     stroke-miterlimit="10"
     stroke-width="10.6666"
     id="path428" />
  <path
     d="m 1548.212,106.91973 h 109.3331 V 216.2528 H 1548.212 Z m 54.6666,107.99974 c 29.4559,0 53.3332,-23.87727 53.3332,-53.33321 0,-29.45593 -23.8773,-53.3332 -53.3332,-53.3332 -29.456,0 -53.3332,23.87727 -53.3332,53.3332 0,29.45594 23.8772,53.33321 53.3332,53.33321"
     fill="#ffffff"
     fill-rule="evenodd"
     id="path436"
     style="stroke-width:1.33333" />
  <path
     d="m 1508.0521,433.86562 c 0.2493,1.028 0.1973,2.00266 -0.1547,2.92399 -0.3546,0.92267 -0.904,1.73733 -1.652,2.444 -0.748,0.708 -1.6626,1.26533 -2.7426,1.67333 -1.08,0.40666 -2.244,0.60933 -3.4893,0.60933 -7.852,0.044 -14.8747,0.0653 -21.064,0.0653 h -21.1879 c -1.496,0 -2.8147,-0.27866 -3.9574,-0.836 -1.1426,-0.55733 -2.0573,-1.24266 -2.7413,-2.05732 -0.6867,-0.81467 -1.144,-1.70533 -1.372,-2.66933 -0.228,-0.964 -0.1973,-1.83333 0.095,-2.604 0.248,-0.60133 0.4973,-1.22266 0.7466,-1.86399 0.2094,-0.55733 0.4574,-1.19067 0.748,-1.89866 0.292,-0.70667 0.6027,-1.42533 0.9347,-2.15333 l 2.368,-5.91732 h 7.1053 l -2.68,8.10265 h 40.1319 l -2.6786,-8.10265 h 6.7919 c 0.8734,2.18666 1.6614,4.15866 2.3694,5.91732 0.2906,0.77066 0.58,1.51999 0.872,2.24933 0.2906,0.72933 0.5493,1.38266 0.7786,1.96266 0.228,0.57733 0.416,1.072 0.5614,1.47866 0.144,0.408 0.2173,0.632 0.2173,0.676 m -30.5626,-12.31464 c -0.8013,-0.93066 -1.7187,-2.09466 -2.752,-3.49066 -1.0347,-1.39466 -2.1,-2.83332 -3.1973,-4.31332 -1.096,-1.48 -2.1827,-2.93866 -3.2573,-4.37732 -1.0774,-1.43867 -2.036,-2.68666 -2.88,-3.74399 -0.9707,-1.14133 -1.3507,-2.08267 -1.14,-2.82266 0.2106,-0.74 0.928,-1.10933 2.152,-1.10933 0.6746,0.0413 1.5826,0.032 2.7213,-0.032 1.14,-0.064 2.0893,-0.096 2.848,-0.096 0.844,0 1.372,-0.25334 1.5826,-0.76 0.2107,-0.508 0.316,-1.18533 0.316,-2.03066 0,-0.93067 -0.011,-1.956 -0.032,-3.07733 -0.021,-1.12133 -0.032,-2.27333 -0.032,-3.45733 0,-1.18399 -0.011,-2.34666 -0.031,-3.48932 -0.021,-1.14133 -0.032,-2.2 -0.032,-3.17199 0,-0.424 0.032,-0.86667 0.095,-1.33333 0.063,-0.464 0.2107,-0.888 0.444,-1.268 0.2307,-0.38 0.568,-0.69733 1.0107,-0.952 0.4427,-0.25333 1.0453,-0.38 1.804,-0.38 0.8867,0 1.6987,-0.012 2.436,-0.032 0.74,-0.0213 1.5933,-0.032 2.564,-0.032 1.392,0 2.3307,0.328 2.816,0.98267 0.4853,0.656 0.7493,1.70266 0.7907,3.14132 v 2.47333 c 0,0.97333 0.011,2.00933 0.031,3.10799 0.023,1.10133 0.033,2.20133 0.033,3.3 v 2.98132 c 0,1.22667 0.1266,2.212 0.3786,2.95066 0.2547,0.74 0.8227,1.08933 1.7093,1.04667 0.6334,0 1.4027,0.0213 2.3094,0.0627 0.9066,0.0427 1.6986,0.0653 2.3733,0.0653 1.14,0 1.8667,0.30666 2.184,0.91999 0.316,0.61334 0.095,1.40533 -0.664,2.37866 -0.8027,1.01334 -1.7307,2.24 -2.7853,3.67866 -1.0547,1.44 -2.1414,2.92933 -3.26,4.47333 -1.1174,1.54399 -2.2147,3.04532 -3.2893,4.50532 -1.076,1.45866 -2.0374,2.71599 -2.88,3.77332 -0.76,0.97333 -1.488,1.47067 -2.1827,1.492 -0.6973,0.0213 -1.4253,-0.43467 -2.184,-1.364"
     fill="#ffffff"
     id="path442"
     style="stroke-width:1.33333" />
  <path
     d="m 1474.4389,626.9185 h -65.7345 c -3.2133,0 -5.8227,2.58799 -5.8227,5.73199 v 65.86918 c 0,3.19065 2.6094,5.73198 5.8227,5.73198 h 65.7345 c 3.2133,0 5.776,-2.58799 5.776,-5.73198 v -65.82252 c 0,-3.19066 -2.6093,-5.77865 -5.776,-5.77865 m -44.5372,70.67717 h -11.7853 v -9.05998 h 11.7853 z m -11.88,-32.77326 h 11.7866 v 9.05998 h -11.7866 z m 11.9266,20.75462 h -11.7866 v -9.05998 h 11.7866 z m 17.3307,12.01864 h -11.7867 v -9.05998 h 11.7867 z m -11.88,-32.77326 h 11.7866 v 9.05998 h -11.7866 z m 11.9253,20.75462 h -11.7853 v -9.05998 h 11.7853 z m 17.7026,12.01864 h -11.7866 v -9.05998 h 11.7866 z m -11.8786,-32.77326 h 11.7866 v 9.05998 h -11.7866 z m 11.9266,20.75462 h -11.7866 v -9.05998 h 11.7866 z m 7.0347,-32.58792 c 0,3.18932 -2.6094,5.73198 -5.824,5.73198 h -50.3599 c -3.2147,0.0467 -5.8226,-2.54266 -5.8226,-5.73198 V 639.5838 c 0,-3.18932 2.6079,-5.77732 5.7759,-5.77732 h 50.4066 c 3.2146,0 5.824,2.588 5.824,5.77732 z"
     fill="#ffffff"
     id="path450"
     style="stroke-width:1.33333" />
  <path
     d="m 1501.9455,651.95845 h -0.96 c -0.2747,0 -0.5027,0 -0.6853,0.28267 -0.1374,0.18933 -0.1374,0.37733 -0.1374,0.61333 v 0.75466 c 0,0.23734 0,0.42534 0.1374,0.61467 0.1826,0.28266 0.4106,0.28266 0.6853,0.28266 h 0.96 c 0.2733,0 0.5013,0 0.6853,-0.28266 0.136,-0.18933 0.136,-0.37733 0.136,-0.61467 v -0.75466 c 0,-0.284 0,-0.424 -0.136,-0.61333 -0.184,-0.28267 -0.3666,-0.28267 -0.6853,-0.28267 m -6.6707,-6.37199 h -3.9293 c -0.7306,0 -1.324,0.61334 -1.324,1.368 v 3.20933 h 1.324 v -3.20933 h 3.9293 v 3.20933 h 1.324 v -3.20933 c 0,-0.75466 -0.5933,-1.368 -1.324,-1.368 m 0,9.29732 h -3.9293 v -3.20933 h -1.324 v 3.20933 c 0,0.75599 0.548,1.36933 1.324,1.36933 h 3.9293 c 0.776,0 1.324,-0.61334 1.324,-1.36933 v -3.20933 h -1.324 z m -19.1426,0 h -3.9293 v -3.44533 h -1.3253 v 3.44533 c 0,0.75599 0.548,1.36933 1.3253,1.36933 h 3.9293 c 0.7774,0 1.3254,-0.61334 1.3254,-1.36933 v -3.44533 h -1.3254 z m 0,-9.29732 h -3.9293 c -0.7307,0 -1.3253,0.61334 -1.3253,1.368 v 2.97466 h 1.3253 v -2.97466 h 3.9293 v 2.97466 h 1.3254 v -2.97466 c 0,-0.75466 -0.5947,-1.368 -1.3254,-1.368 m 9.5933,0 h -3.928 c -0.732,0 -1.3253,0.61334 -1.3253,1.368 v 2.97466 h 1.3253 v -2.97466 h 3.928 v 2.97466 h 1.3254 v -2.97466 c 0,-0.75466 -0.5934,-1.368 -1.3254,-1.368 m 0,9.29732 h -3.928 v -3.44533 h -1.3253 v 3.44533 c 0,0.75599 0.5933,1.36933 1.3253,1.36933 h 3.928 c 0.7774,0 1.3254,-0.61334 1.3254,-1.36933 v -3.44533 h -1.3254 z m 24.9,-9.29732 h -3.9293 c -0.7307,0 -1.3254,0.61334 -1.3254,1.368 v 3.44533 h 1.3254 v -3.44533 h 3.9293 v 3.44533 h 1.3253 v -3.44533 c 0,-0.75466 -0.5933,-1.368 -1.3253,-1.368 m 0,9.29732 h -3.9293 v -2.97333 h -1.3254 v 2.97333 c 0,0.75599 0.5947,1.36933 1.3254,1.36933 h 3.9293 c 0.7773,0 1.3253,-0.61334 1.3253,-1.36933 v -2.97333 h -1.3253 z m 9.5933,0 h -3.928 v -2.73733 h -1.3253 v 2.73733 c 0,0.75599 0.548,1.36933 1.3253,1.36933 h 3.928 c 0.7773,0 1.3253,-0.61334 1.3253,-1.36933 v -2.73733 h -1.3253 z m 0,-9.29732 h -3.928 c -0.7307,0 -1.3253,0.61334 -1.3253,1.368 v 3.68133 h 1.3253 v -3.68133 h 3.928 v 3.68133 h 1.3253 v -3.68133 c 0,-0.75466 -0.6386,-1.368 -1.3253,-1.368"
     fill="#ffffff"
     id="path458"
     style="stroke-width:1.33333" />
  <path
     d="m 1711.8783,894.91787 h -21 v -8.92398 c 0,-1.652 -1.3506,-3.07599 -3.0759,-3.07599 h -17.848 c -1.652,0 -3.076,1.35066 -3.076,3.07599 v 8.92398 h -20.9999 c -1.6494,0 -3,1.35066 -3,2.99999 v 14.99997 l 35.9999,5.99998 35.9999,-5.99998 v -14.99997 c 0,-1.64933 -1.3507,-2.99999 -3,-2.99999 m -38.9999,-5.99999 h 12 v 5.99999 h -12 z m 12,22.49995 c 0,0.82533 -0.6747,1.5 -1.5,1.5 h -9 c -0.8253,0 -1.5,-0.67467 -1.5,-1.5 v -2.99999 c 0,-0.82533 0.6747,-1.5 1.5,-1.5 h 9 c 0.8253,0 1.5,0.67467 1.5,1.5 z m -6,10.49998 35.9999,-5.99999 v 35.99992 c 0,1.64933 -1.3507,2.99999 -3,2.99999 h -65.9998 c -1.6494,0 -3,-1.35066 -3,-2.99999 v -35.99992 z"
     fill="#ffffff"
     id="path466"
     style="stroke-width:1.33333" />
  <path
     d="m 1212.2128,958.91772 -5.8,-5.25465 c -20.5999,-18.68263 -34.1999,-31.01193 -34.1999,-46.0999 0,-12.32797 9.66,-21.97861 21.9999,-21.97861 6.96,0 13.64,3.23732 18,8.33331 4.36,-5.09599 11.04,-8.33331 18,-8.33331 12.3399,0 21.9999,9.65064 21.9999,21.97861 0,15.08797 -13.6,27.41727 -34.1999,46.0999 z"
     fill="#ffffff"
     id="path474"
     style="stroke-width:1.33333" />
  <path
     d="m 1413.239,917.58449 c 0,-3.49466 1.18,-6.39998 3.5853,-8.80531 2.4054,-2.40533 5.3107,-3.58533 8.8053,-3.58533 3.496,0 6.4014,1.18 8.8054,3.58533 2.4066,2.40533 3.5866,5.31065 3.5866,8.80531 0,3.49466 -1.18,6.44532 -3.5866,8.85198 -2.404,2.40399 -5.3094,3.58532 -8.8054,3.58532 -3.4946,0 -6.4119,-1.16933 -8.8053,-3.58532 -2.4173,-2.44 -3.5853,-5.40132 -3.5853,-8.85198 m -17.5213,8.07998 c 0.7267,2.58666 1.8173,5.12799 3.1333,7.48932 l -8.1706,10.03064 9.2586,9.25998 10.032,-8.16932 c 2.3587,1.31467 4.9467,2.404 7.5333,3.176 l 1.3627,12.79997 h 13.344 l 1.3626,-12.79997 c 2.5867,-0.772 5.0373,-1.86133 7.5347,-3.176 l 9.9866,8.16932 9.3493,-9.25998 -8.216,-10.03064 c 1.2707,-2.36133 2.4067,-4.90266 3.1774,-7.48932 l 12.8013,-1.408 v -13.34396 l -12.8013,-1.36133 c -0.7707,-2.588 -1.9067,-4.99333 -3.1774,-7.49065 l 8.216,-10.03065 -9.3493,-9.35064 -9.9866,8.21465 c -2.5427,-1.27067 -4.948,-2.404 -7.5347,-3.176 l -1.3626,-12.79997 h -13.344 l -1.3627,12.79997 c -2.6773,0.772 -5.1733,1.90533 -7.5333,3.176 l -10.032,-8.21465 -9.2586,9.35064 8.1706,10.03065 c -1.2706,2.49732 -2.3613,4.90265 -3.1333,7.49065 l -12.844,1.36133 v 13.34396 z"
     fill="#ffffff"
     id="path482"
     style="stroke-width:1.33333" />
  <path
     d="m 1320.2126,137.58632 h 17.3333 v 17.33329 h -17.3333 z m 8.6666,15.99996 c 4.0493,0 7.3333,-3.28399 7.3333,-7.33331 0,-4.05066 -3.284,-7.33332 -7.3333,-7.33332 -4.0493,0 -7.3333,3.28266 -7.3333,7.33332 0,4.04932 3.284,7.33331 7.3333,7.33331"
     fill="#ffffff"
     fill-rule="evenodd"
     id="path490"
     style="stroke-width:1.33333" />
  <path
     d="m 1320.2126,166.91959 h 17.3333 v 17.33329 h -17.3333 z m 8.6666,15.99996 c 4.0493,0 7.3333,-3.28399 7.3333,-7.33332 0,-4.05066 -3.284,-7.33331 -7.3333,-7.33331 -4.0493,0 -7.3333,3.28265 -7.3333,7.33331 0,4.04933 3.284,7.33332 7.3333,7.33332"
     fill="#ffffff"
     fill-rule="evenodd"
     id="path496"
     style="stroke-width:1.33333" />
  <path
     d="m 1312.2126,152.25295 h 17.3333 v 17.3333 h -17.3333 z m 8.6666,15.99997 c 4.0494,0 7.3333,-3.284 7.3333,-7.33332 0,-4.05066 -3.2839,-7.33332 -7.3333,-7.33332 -4.0493,0 -7.3333,3.28266 -7.3333,7.33332 0,4.04932 3.284,7.33332 7.3333,7.33332"
     fill="#ffffff"
     fill-rule="evenodd"
     id="path502"
     style="stroke-width:1.33333" />
  <path
     d="m 1337.5459,137.58632 h 17.3332 v 17.33329 h -17.3332 z m 8.6666,15.99996 c 4.0493,0 7.3333,-3.28399 7.3333,-7.33331 0,-4.05066 -3.284,-7.33332 -7.3333,-7.33332 -4.0493,0 -7.3333,3.28266 -7.3333,7.33332 0,4.04932 3.284,7.33331 7.3333,7.33331"
     fill="#ffffff"
     fill-rule="evenodd"
     id="path508"
     style="stroke-width:1.33333" />
  <path
     d="m 1337.5459,166.91959 h 17.3332 v 17.33329 h -17.3332 z m 8.6666,15.99996 c 4.0493,0 7.3333,-3.28399 7.3333,-7.33332 0,-4.05066 -3.284,-7.33331 -7.3333,-7.33331 -4.0493,0 -7.3333,3.28265 -7.3333,7.33331 0,4.04933 3.284,7.33332 7.3333,7.33332"
     fill="#ffffff"
     fill-rule="evenodd"
     id="path514"
     style="stroke-width:1.33333" />
  <path
     d="m 1329.5459,152.25295 h 17.3333 v 17.3333 h -17.3333 z m 8.6666,15.99997 c 4.0493,0 7.3333,-3.284 7.3333,-7.33332 0,-4.05066 -3.284,-7.33332 -7.3333,-7.33332 -4.0493,0 -7.3333,3.28266 -7.3333,7.33332 0,4.04932 3.284,7.33332 7.3333,7.33332"
     fill="#ffffff"
     fill-rule="evenodd"
     id="path520"
     style="stroke-width:1.33333" />
  <path
     d="m 1346.8792,152.25295 h 17.3333 v 17.3333 h -17.3333 z m 8.6666,15.99997 c 4.0493,0 7.3333,-3.284 7.3333,-7.33332 0,-4.05066 -3.284,-7.33332 -7.3333,-7.33332 -4.0493,0 -7.3333,3.28266 -7.3333,7.33332 0,4.04932 3.284,7.33332 7.3333,7.33332"
     fill="#ffffff"
     fill-rule="evenodd"
     id="path526"
     style="stroke-width:1.33333" />
  <path
     d="m 904.21354,632.25183 h 97.33306 v 37.33324 h -97.33306 z m 18.66663,6.66665 h 59.99985 c 6.62799,0 11.99998,5.37198 11.99998,11.99997 0,6.62665 -5.37199,11.99997 -11.99998,11.99997 h -59.99985 c -6.62799,0 -11.99998,-5.37332 -11.99998,-11.99997 0,-6.62799 5.37199,-11.99997 11.99998,-11.99997"
     fill="#ffffff"
     fill-rule="evenodd"
     id="path532"
     style="stroke-width:1.33333" />
  <path
     d="M 905.54687,665.58508 H 1002.88 v 37.33325 h -97.33313 z m 18.66663,6.66665 h 59.99985 c 6.62799,0 11.99998,5.37199 11.99998,11.99997 0,6.62665 -5.37199,11.99997 -11.99998,11.99997 H 924.2135 c -6.62799,0 -11.99998,-5.37332 -11.99998,-11.99997 0,-6.62798 5.37199,-11.99997 11.99998,-11.99997"
     fill="#ffffff"
     fill-rule="evenodd"
     id="path538"
     style="stroke-width:1.33333" />
  <path
     d="m 828.86705,895.81121 c -5.73065,0.45067 -10.88664,0.84933 -15.47196,1.19733 -1.944,0.15067 -3.87466,0.3 -5.79199,0.448 -1.92,0.152 -3.66266,0.276 -5.23199,0.376 -1.57066,0.0987 -2.89066,0.19866 -3.96266,0.29866 -1.07066,0.0987 -1.70666,0.15067 -1.90399,0.15067 -0.25067,0.0493 -0.53733,0.0867 -0.86,0.112 -0.32533,0.024 -0.612,0.0867 -0.86,0.18533 l -0.89733,0.3 -3.28932,-1.49466 c 0.24933,-0.35067 0.54933,-0.67467 0.89866,-0.97466 0.24667,-0.248 0.56,-0.48534 0.93333,-0.71067 0.37333,-0.224 0.75867,-0.36 1.15733,-0.412 0.3,-0.0493 1.096,-0.124 2.39333,-0.224 1.29466,-0.0987 2.88933,-0.224 4.78399,-0.37333 0,-0.648 0.0627,-1.53333 0.18667,-2.65599 0.12266,-1.12134 0.42266,-2.232 0.89599,-3.32933 0.47467,-1.096 1.15867,-2.07066 2.05467,-2.91733 0.89733,-0.84799 2.11866,-1.34533 3.66265,-1.49733 1.79467,-0.148 3.252,0.12534 4.37466,0.824 1.12,0.69733 1.992,1.55866 2.61466,2.58 0.62267,1.02399 1.06,2.07066 1.308,3.14399 0.24933,1.072 0.39866,1.90666 0.44933,2.50399 2.14133,-0.148 3.92266,-0.27333 5.34399,-0.372 1.41866,-0.10133 2.20399,-0.17466 2.35332,-0.22533 0.54934,-0.0507 1.16,0.0507 1.83067,0.3 0.67333,0.248 1.20933,0.57333 1.60799,0.972 0.1,0.1 0.236,0.25066 0.41067,0.448 0.17467,0.20133 0.336,0.4 0.48666,0.59866 0.19867,0.20133 0.37334,0.44933 0.52267,0.748 M 808.1631,886.9099 c -0.94533,0.0987 -1.70666,0.43466 -2.27866,1.00933 -0.57333,0.57466 -1.01067,1.25866 -1.30933,2.05733 -0.29734,0.79866 -0.49867,1.60799 -0.59733,2.43066 -0.1,0.82266 -0.14934,1.48533 -0.14934,1.98399 1.54533,-0.10133 3.12533,-0.22533 4.74532,-0.37466 1.62,-0.14934 3.20266,-0.27467 4.74666,-0.37467 -0.0493,-0.448 -0.16133,-1.072 -0.336,-1.86933 -0.17467,-0.79866 -0.46133,-1.57066 -0.86,-2.31999 -0.39866,-0.748 -0.92133,-1.37067 -1.56799,-1.87066 -0.64934,-0.49734 -1.44533,-0.72267 -2.39333,-0.672 m 29.22526,54.98654 c 0.248,1.39599 0.212,2.55599 -0.112,3.47999 -0.32533,0.92133 -1.23333,1.55733 -2.72799,1.90666 -0.49867,0.15067 -1.58266,0.39866 -3.25199,0.74933 -1.66933,0.34933 -3.66266,0.772 -5.97999,1.27066 -2.31599,0.49867 -4.79599,1.036 -7.43598,1.60933 -2.64266,0.57334 -5.17066,1.10933 -7.58798,1.60667 -2.416,0.5 -4.58266,0.94799 -6.50265,1.34799 -1.91733,0.4 -3.276,0.67334 -4.07199,0.82267 -1.844,0.4 -3.20266,0.27466 -4.07333,-0.37333 -0.872,-0.648 -1.30933,-1.62267 -1.30933,-2.91866 v -45.9359 c 0,-1.24533 0.26267,-2.25466 0.78533,-3.02799 0.524,-0.77333 1.28267,-1.18533 2.27866,-1.23466 0.39867,0 0.88534,-0.0267 1.45867,-0.076 0.57333,-0.0493 1.13333,-0.0987 1.68133,-0.14934 0.64666,-0.0493 1.32133,-0.1 2.01866,-0.14933 l 0.672,10.69731 c -0.0493,0.0507 -0.14934,0.076 -0.29867,0.076 -0.0987,0 -0.24933,0.0133 -0.448,0.036 -0.2,0.0267 -0.424,0.0387 -0.67333,0.0387 -1.04533,0.1 -1.54533,0.72266 -1.49466,1.87066 0.0507,0.448 0.1,1.07333 0.14933,1.86933 0.0493,0.79866 0.088,1.63333 0.112,2.50666 0.0253,0.87333 0.0627,1.71999 0.112,2.54266 0.0493,0.82266 0.0987,1.48533 0.15067,1.98399 0.0493,0.948 0.19866,1.48267 0.44799,1.608 0.248,0.124 0.79734,0.18667 1.644,0.18667 h 1.04667 c 0.29999,0 0.58533,-0.0133 0.85999,-0.036 0.27334,-0.0267 0.58534,-0.0507 0.93467,-0.076 0.348,-0.024 0.796,-0.0627 1.34399,-0.112 1.04667,-0.1 1.72,-0.324 2.01733,-0.67467 0.3,-0.348 0.42534,-0.872 0.37467,-1.56933 0,-0.34933 -0.0373,-0.96133 -0.112,-1.83333 -0.0747,-0.87333 -0.15067,-1.78266 -0.224,-2.73066 -0.0747,-0.94666 -0.13733,-1.84533 -0.18667,-2.69332 -0.0493,-0.84667 -0.0987,-1.44667 -0.14933,-1.79467 -0.10133,-0.59999 -0.224,-1.02399 -0.37467,-1.27199 -0.14933,-0.24934 -0.42399,-0.34934 -0.82266,-0.29867 -0.19733,0 -0.39867,0.012 -0.596,0.036 -0.20133,0.0253 -0.4,0.0373 -0.59866,0.0373 h -0.59867 l -0.67333,-10.62264 c 3.38932,-0.3 6.50265,-0.54933 9.34398,-0.748 1.19599,-0.10133 2.40399,-0.2 3.62532,-0.29866 1.22133,-0.10134 2.35466,-0.188 3.40133,-0.264 1.04666,-0.0733 1.96799,-0.148 2.76532,-0.224 0.79734,-0.0747 1.39467,-0.13733 1.79467,-0.18667 1.44399,-0.0987 2.58932,0.15067 3.43732,0.748 0.84667,0.59867 1.36933,1.496 1.57066,2.69466 0.0493,0.39867 0.224,1.59466 0.52134,3.59066 0.29866,1.99466 0.67333,4.38799 1.12133,7.18132 0.448,2.79332 0.92133,5.79865 1.41999,9.01464 0.49867,3.21733 0.972,6.22265 1.42133,9.01465 0.448,2.79332 0.83334,5.18798 1.15867,7.18265 0.32266,1.99466 0.53333,3.19332 0.63466,3.59066 m -47.01455,6.50798 c 0,0.7 0.0373,1.31066 0.112,1.83333 0.076,0.524 0.16266,0.93466 0.26266,1.23466 0.0987,0.39867 0.224,0.69867 0.372,0.89867 -1.244,-0.648 -2.44133,-1.29733 -3.58666,-1.94533 -0.99599,-0.54933 -1.99332,-1.10933 -2.98932,-1.684 -0.996,-0.57333 -1.844,-1.06 -2.54133,-1.45866 -1.296,-0.748 -2.17999,-1.64666 -2.65333,-2.69333 -0.47333,-1.04666 -0.58533,-2.14399 -0.33733,-3.29199 0.10133,-0.29867 0.32533,-1.396 0.67333,-3.29199 0.34933,-1.89466 0.784,-4.18933 1.308,-6.88265 0.52266,-2.692 1.07066,-5.58532 1.644,-8.67732 0.57333,-3.09332 1.10799,-5.98665 1.60666,-8.67864 0.49866,-2.69333 0.93466,-5.01332 1.30933,-6.95732 0.37333,-1.94533 0.58533,-3.09199 0.63466,-3.44132 0.2,-1.09734 0.56,-1.94533 1.084,-2.544 0.52267,-0.59866 1.132,-0.748 1.83066,-0.448 0.39867,0.19867 0.724,0.42267 0.97067,0.672 0.152,0.15067 0.25066,0.276 0.3,0.37467 z"
     fill="#ffffff"
     id="path544"
     style="stroke-width:1.33333" />
  <circle
     style="fill:#5e4aa6;stroke-width:1.16667"
     cx="-1462.0121"
     cy="-1453.334"
     r="0"
     id="circle1545" />
  <circle
     cx="-1567.1774"
     cy="-1448.3156"
     r="0"
     id="circle1549"
     style="fill:#5e4aa6;stroke-width:1.16667" />
  <circle
     cx="-1486.7479"
     cy="-1438.9232"
     r="0"
     id="circle1551"
     style="fill:#5e4aa6;stroke-width:1.16667" />
  <circle
     cx="-1459.8942"
     cy="-1468.9961"
     r="0"
     id="circle1553"
     style="fill:#5e4aa6;stroke-width:1.16667" />
  <circle
     cx="-1472.329"
     cy="-1437.865"
     r="0"
     id="circle1555"
     style="fill:#5e4aa6;stroke-width:1.16667" />
  <circle
     id="circle1559"
     r="0"
     cy="-1461.2672"
     cx="-1267.5386"
     style="fill:#5e4aa6;stroke-width:1.16667" />
  <circle
     id="circle1561"
     r="0"
     cy="15.12119"
     cx="15.223347"
     style="fill:#5e4aa6;fill-rule:evenodd;stroke-width:1.16667" />
  <circle
     cx="-1390.6278"
     cy="-1241.6"
     r="0"
     fill="#5e4aa6"
     id="circle1377" />
  <circle
     cx="-291.0477"
     cy="23.855"
     r="0"
     fill="#5e4aa6"
     fill-rule="evenodd"
     id="circle1379" />
  <g
     id="g2505"
     transform="translate(0,64.732301)">
    <path
       id="path2"
       style="fill:#f66f6f;fill-opacity:1;fill-rule:evenodd;stroke-width:1.33796"
       d="m 6.0507812,-51.86902 c -0.5400528,1.095561 -0.9583485,2.262712 -1.21875,3.492188 C 4.5854168,-46.023118 4.5,-43.216509 4.5,-39.86902 v 14.273438 c 0,3.347489 0.085405,6.154098 0.3320312,8.507812 1.2638467,5.967207 6.0551148,10.5877821 12.1054688,11.6230471 1.908623,0.160976 4.067452,0.232422 6.589844,0.232422 h 11.162109 l 8.865235,-18.1562501 -21.451172,-4.394531 z" />
    <path
       id="path4"
       style="fill:#f69696;fill-opacity:1;fill-rule:evenodd;stroke-width:1.33796"
       d="m 33.646484,-47.58777 9.900391,24.091797 -8.878906,18.2636721 h 5.804687 c 2.522369,0 4.681231,-0.07145 6.589844,-0.232422 C 53.112854,-6.4999879 57.904122,-11.120563 59.167969,-17.08777 59.414602,-19.441484 59.5,-22.248093 59.5,-25.595582 V -39.86902 c 0,-2.990841 -0.0752,-5.528684 -0.265625,-7.71875 z" />
    <path
       id="path6"
       style="fill:#db4437;fill-opacity:1;fill-rule:evenodd;stroke-width:1.33796"
       d="m 23.527344,-60.232301 c -2.522061,0 -4.681398,0.0715 -6.589844,0.232422 -4.809104,0.822877 -8.8154496,3.915586 -10.8945312,8.144531 l 16.0488282,24.074219 21.451172,4.289062 -9.900391,-24.091796 h 25.591797 c -0.0228,-0.262483 -0.04,-0.540977 -0.06641,-0.792969 -1.263847,-5.967207 -6.055115,-10.587782 -12.105469,-11.623047 -1.908624,-0.160979 -4.067452,-0.232422 -6.589844,-0.232422 z" />
    <path
       d="m 31.99343,-48.629693 c 8.803393,0 15.891281,7.086543 15.891281,15.888836 0,8.802294 -7.087155,15.888837 -15.891281,15.888837 -8.803394,0 -15.891281,-7.086543 -15.891281,-15.888837 0,-8.802293 7.087154,-15.888836 15.891281,-15.888836 z"
       fill="#ffffff"
       stroke-width="1.28846"
       id="path10" />
    <path
       d="m 31.99343,-44.961816 c 6.773289,0 12.223404,5.451215 12.223404,12.222182 0,6.771455 -5.450238,12.222182 -12.223404,12.222182 A 12.196027,12.195293 0 0 1 19.770025,-32.739634 c 0,-6.771456 5.451583,-12.222182 12.223405,-12.222182 z"
       fill="#e64646"
       stroke-width="1.28846"
       id="path12" />
  </g>
  <style
     id="style162"
     type="text/css">.st0{opacity:0.15;fill:#45413C;}
	.st1{fill:#FFE500;}
	.st2{fill:#EBCB00;}
	.st3{fill:none;stroke:#45413C;stroke-linecap:round;stroke-linejoin:round;stroke-miterlimit:10;}
	.st4{fill:#FFAA54;}
	.st5{fill:#FF8A14;}
	.st6{fill:#FFB0CA;stroke:#45413C;stroke-linecap:round;stroke-linejoin:round;stroke-miterlimit:10;}
	.st7{fill:#FF87AF;stroke:#45413C;stroke-linecap:round;stroke-linejoin:round;stroke-miterlimit:10;}
	.st8{fill:#FFCC99;}
	.st9{fill:#FFFFFF;}
	.st10{fill:#F0F0F0;}
	.st11{fill:#BF8256;}
	.st12{fill:#915E3A;}
	.st13{fill:#DEA47A;}
	.st14{fill:#F0D5A8;}
	.st15{fill:#DEBB7E;}
	.st16{fill:#F7E5C6;}
	.st17{fill:#FF8A14;stroke:#45413C;stroke-linecap:round;stroke-linejoin:round;stroke-miterlimit:10;}
	.st18{fill:#FFF5E3;}
	.st19{fill:#FFF48C;}
	.st20{fill:#FFFACF;}
	.st21{fill:#FFFCE5;}
	.st22{fill:#FF87AF;}
	.st23{fill:#FFB0CA;}
	.st24{fill:#FFE500;stroke:#45413C;stroke-linecap:round;stroke-linejoin:round;stroke-miterlimit:10;}
	.st25{fill:#9CEB60;stroke:#45413C;stroke-linecap:round;stroke-linejoin:round;stroke-miterlimit:10;}
	.st26{fill:#FFFACF;stroke:#45413C;stroke-linecap:round;stroke-linejoin:round;stroke-miterlimit:10;}
	.st27{fill:#00F5BC;stroke:#45413C;stroke-linecap:round;stroke-linejoin:round;stroke-miterlimit:10;}
	.st28{fill:#BF8256;stroke:#45413C;stroke-linecap:round;stroke-linejoin:round;stroke-miterlimit:10;}
	.st29{fill:#FFE3CF;stroke:#45413C;stroke-linecap:round;stroke-linejoin:round;stroke-miterlimit:10;}
	.st30{fill:#FF6242;}
	.st31{fill:#FF866E;}
	.st32{fill:none;stroke:#E04122;stroke-linecap:round;stroke-linejoin:round;stroke-miterlimit:10;}
	.st33{fill:#FFFEF2;stroke:#45413C;stroke-linecap:round;stroke-linejoin:round;stroke-miterlimit:10;}
	.st34{fill:#FF6242;stroke:#45413C;stroke-linecap:round;stroke-linejoin:round;stroke-miterlimit:10;}
	.st35{fill:#FFA694;}
	.st36{fill:#FFFFFF;stroke:#45413C;stroke-linecap:round;stroke-linejoin:round;stroke-miterlimit:10;}
	.st37{fill:#FFFEF2;}
	.st38{fill:#FF6196;}
	.st39{fill:#B89558;}
	.st40{fill:none;stroke:#915E3A;stroke-linecap:round;stroke-linejoin:round;stroke-miterlimit:10;}
	.st41{fill:#DEBB7E;stroke:#45413C;stroke-linecap:round;stroke-linejoin:round;stroke-miterlimit:10;}
	.st42{fill:#6DD627;stroke:#45413C;stroke-linecap:round;stroke-linejoin:round;stroke-miterlimit:10;}
	.st43{fill:#E5F8FF;}
	.st44{fill:#E8F4FA;}
	.st45{fill:#E8F4FA;stroke:#45413C;stroke-linecap:round;stroke-linejoin:round;stroke-miterlimit:10;}
	.st46{fill:#FFCCDD;}
	.st47{fill:#E5F8FF;stroke:#45413C;stroke-linecap:round;stroke-linejoin:round;stroke-miterlimit:10;}
	.st48{fill:#00B8F0;stroke:#45413C;stroke-linecap:round;stroke-linejoin:round;stroke-miterlimit:10;}
	.st49{fill:#00B8F0;}
	.st50{fill:#4ACFFF;}
	.st51{fill:#E04122;}
	.st52{fill:#E04122;stroke:#45413C;stroke-linecap:round;stroke-linejoin:round;stroke-miterlimit:10;}
	.st53{fill:#87898C;}
	.st54{fill:#BDBEC0;}
	.st55{fill:#656769;}
	.st56{fill:#525252;}
	.st57{fill:#FFF48C;stroke:#45413C;stroke-linecap:round;stroke-linejoin:round;stroke-miterlimit:10;}
	.st58{fill:#6DD627;}
	.st59{fill:#EB6D00;}
	.st60{fill:#46B000;}
	.st61{fill:#80DDFF;}
	.st62{fill:#DAEDF7;}
	.st63{fill:#BF8DF2;stroke:#45413C;stroke-linecap:round;stroke-linejoin:round;stroke-miterlimit:10;}
	.st64{fill:#9F5AE5;stroke:#45413C;stroke-linecap:round;stroke-linejoin:round;stroke-miterlimit:10;}
	.st65{fill:#C8FFA1;}
	.st66{fill:#E4FFD1;}
	.st67{fill:#9CEB60;}
	.st68{fill:#E5FEFF;}
	.st69{fill:#B8ECFF;}
	.st70{fill:#E0E0E0;stroke:#45413C;stroke-linecap:round;stroke-linejoin:round;stroke-miterlimit:10;}
	.st71{fill:#E0E0E0;}
	.st72{fill:none;stroke:#4F4B45;stroke-linejoin:round;stroke-miterlimit:10;}
	.st73{fill:none;stroke:#4F4B45;stroke-linecap:round;stroke-linejoin:round;stroke-miterlimit:10;}
	.st74{fill:#E0366F;stroke:#45413C;stroke-linecap:round;stroke-linejoin:round;stroke-miterlimit:10;}
	.st75{fill:none;stroke:#45413C;stroke-miterlimit:10;}
	.st76{fill:#FF866E;stroke:#45413C;stroke-linecap:round;stroke-linejoin:round;stroke-miterlimit:10;}
	.st77{fill:#45413C;stroke:#45413C;stroke-linecap:round;stroke-linejoin:round;stroke-miterlimit:10;}
	.st78{fill:#9F5AE5;}
	.st79{fill:#803EC2;}
	.st80{fill:#803EC2;stroke:#45413C;stroke-linecap:round;stroke-linejoin:round;stroke-miterlimit:10;}
	.st81{fill:#BF8DF2;}
	.st82{fill:#FFAA54;stroke:#45413C;stroke-linecap:round;stroke-linejoin:round;stroke-miterlimit:10;}
	.st83{fill:none;stroke:#45413C;stroke-linejoin:round;stroke-miterlimit:10;}
	.st84{fill:#FFCCDD;stroke:#45413C;stroke-linecap:round;stroke-linejoin:round;stroke-miterlimit:10;}
	.st85{fill:#FF6196;stroke:#45413C;stroke-linecap:round;stroke-linejoin:round;stroke-miterlimit:10;}
	.st86{fill:#FFE5EE;}
	.st87{fill:#F7E5C6;stroke:#45413C;stroke-linecap:round;stroke-linejoin:round;stroke-miterlimit:10;}
	.st88{fill:#E5FFF9;}
	.st89{fill:none;stroke:#45413C;stroke-width:1.0064;stroke-linecap:round;stroke-linejoin:round;stroke-miterlimit:10;}
	.st90{fill:#4AEFF7;}
	.st91{fill:#A6FBFF;}
	.st92{fill:#E5FEFF;stroke:#45413C;stroke-linecap:round;stroke-linejoin:round;stroke-miterlimit:10;}
	.st93{fill:#46B000;stroke:#45413C;stroke-linecap:round;stroke-linejoin:round;stroke-miterlimit:10;}
	.st94{fill:#FFFFFF;stroke:#45413C;stroke-linejoin:round;stroke-miterlimit:10;}
	.st95{fill:#FFFFFF;stroke:#45413C;stroke-miterlimit:10;}
	.st96{fill:#009FD9;}
	.st97{fill:#00DFEB;}
	.st98{fill:#C0DCEB;stroke:#45413C;stroke-linecap:round;stroke-linejoin:round;stroke-miterlimit:10;}
	.st99{fill:#00DFEB;stroke:#45413C;stroke-linecap:round;stroke-linejoin:round;stroke-miterlimit:10;}
	.st100{fill:#FFE5EE;stroke:#45413C;stroke-linecap:round;stroke-linejoin:round;stroke-miterlimit:10;}
	.st101{fill:#8CA4B8;}
	.st102{fill:#ADC4D9;}
	.st103{fill:#656769;stroke:#45413C;stroke-linecap:round;stroke-linejoin:round;stroke-miterlimit:10;}
	.st104{fill:#F0F0F0;stroke:#45413C;stroke-linecap:round;stroke-linejoin:round;stroke-miterlimit:10;}
	.st105{fill:#C0DCEB;}
	.st106{fill:#45413C;}
	.st107{fill:#FFCABF;}
	.st108{fill:#87898C;stroke:#45413C;stroke-linecap:round;stroke-linejoin:round;stroke-miterlimit:10;}
	.st109{fill:#EBCB00;stroke:#45413C;stroke-linecap:round;stroke-linejoin:round;stroke-miterlimit:10;}</style>
  <style
     type="text/css"
     id="style1547">.st0{opacity:0.15;fill:#45413C;}
	.st1{fill:#FFE500;}
	.st2{fill:#EBCB00;}
	.st3{fill:none;stroke:#45413C;stroke-linecap:round;stroke-linejoin:round;stroke-miterlimit:10;}
	.st4{fill:#FFAA54;}
	.st5{fill:#FF8A14;}
	.st6{fill:#FFB0CA;stroke:#45413C;stroke-linecap:round;stroke-linejoin:round;stroke-miterlimit:10;}
	.st7{fill:#FF87AF;stroke:#45413C;stroke-linecap:round;stroke-linejoin:round;stroke-miterlimit:10;}
	.st8{fill:#FFCC99;}
	.st9{fill:#FFFFFF;}
	.st10{fill:#F0F0F0;}
	.st11{fill:#BF8256;}
	.st12{fill:#915E3A;}
	.st13{fill:#DEA47A;}
	.st14{fill:#F0D5A8;}
	.st15{fill:#DEBB7E;}
	.st16{fill:#F7E5C6;}
	.st17{fill:#FF8A14;stroke:#45413C;stroke-linecap:round;stroke-linejoin:round;stroke-miterlimit:10;}
	.st18{fill:#FFF5E3;}
	.st19{fill:#FFF48C;}
	.st20{fill:#FFFACF;}
	.st21{fill:#FFFCE5;}
	.st22{fill:#FF87AF;}
	.st23{fill:#FFB0CA;}
	.st24{fill:#FFE500;stroke:#45413C;stroke-linecap:round;stroke-linejoin:round;stroke-miterlimit:10;}
	.st25{fill:#9CEB60;stroke:#45413C;stroke-linecap:round;stroke-linejoin:round;stroke-miterlimit:10;}
	.st26{fill:#FFFACF;stroke:#45413C;stroke-linecap:round;stroke-linejoin:round;stroke-miterlimit:10;}
	.st27{fill:#00F5BC;stroke:#45413C;stroke-linecap:round;stroke-linejoin:round;stroke-miterlimit:10;}
	.st28{fill:#BF8256;stroke:#45413C;stroke-linecap:round;stroke-linejoin:round;stroke-miterlimit:10;}
	.st29{fill:#FFE3CF;stroke:#45413C;stroke-linecap:round;stroke-linejoin:round;stroke-miterlimit:10;}
	.st30{fill:#FF6242;}
	.st31{fill:#FF866E;}
	.st32{fill:none;stroke:#E04122;stroke-linecap:round;stroke-linejoin:round;stroke-miterlimit:10;}
	.st33{fill:#FFFEF2;stroke:#45413C;stroke-linecap:round;stroke-linejoin:round;stroke-miterlimit:10;}
	.st34{fill:#FF6242;stroke:#45413C;stroke-linecap:round;stroke-linejoin:round;stroke-miterlimit:10;}
	.st35{fill:#FFA694;}
	.st36{fill:#FFFFFF;stroke:#45413C;stroke-linecap:round;stroke-linejoin:round;stroke-miterlimit:10;}
	.st37{fill:#FFFEF2;}
	.st38{fill:#FF6196;}
	.st39{fill:#B89558;}
	.st40{fill:none;stroke:#915E3A;stroke-linecap:round;stroke-linejoin:round;stroke-miterlimit:10;}
	.st41{fill:#DEBB7E;stroke:#45413C;stroke-linecap:round;stroke-linejoin:round;stroke-miterlimit:10;}
	.st42{fill:#6DD627;stroke:#45413C;stroke-linecap:round;stroke-linejoin:round;stroke-miterlimit:10;}
	.st43{fill:#E5F8FF;}
	.st44{fill:#E8F4FA;}
	.st45{fill:#E8F4FA;stroke:#45413C;stroke-linecap:round;stroke-linejoin:round;stroke-miterlimit:10;}
	.st46{fill:#FFCCDD;}
	.st47{fill:#E5F8FF;stroke:#45413C;stroke-linecap:round;stroke-linejoin:round;stroke-miterlimit:10;}
	.st48{fill:#00B8F0;stroke:#45413C;stroke-linecap:round;stroke-linejoin:round;stroke-miterlimit:10;}
	.st49{fill:#00B8F0;}
	.st50{fill:#4ACFFF;}
	.st51{fill:#E04122;}
	.st52{fill:#E04122;stroke:#45413C;stroke-linecap:round;stroke-linejoin:round;stroke-miterlimit:10;}
	.st53{fill:#87898C;}
	.st54{fill:#BDBEC0;}
	.st55{fill:#656769;}
	.st56{fill:#525252;}
	.st57{fill:#FFF48C;stroke:#45413C;stroke-linecap:round;stroke-linejoin:round;stroke-miterlimit:10;}
	.st58{fill:#6DD627;}
	.st59{fill:#EB6D00;}
	.st60{fill:#46B000;}
	.st61{fill:#80DDFF;}
	.st62{fill:#DAEDF7;}
	.st63{fill:#BF8DF2;stroke:#45413C;stroke-linecap:round;stroke-linejoin:round;stroke-miterlimit:10;}
	.st64{fill:#9F5AE5;stroke:#45413C;stroke-linecap:round;stroke-linejoin:round;stroke-miterlimit:10;}
	.st65{fill:#C8FFA1;}
	.st66{fill:#E4FFD1;}
	.st67{fill:#9CEB60;}
	.st68{fill:#E5FEFF;}
	.st69{fill:#B8ECFF;}
	.st70{fill:#E0E0E0;stroke:#45413C;stroke-linecap:round;stroke-linejoin:round;stroke-miterlimit:10;}
	.st71{fill:#E0E0E0;}
	.st72{fill:none;stroke:#4F4B45;stroke-linejoin:round;stroke-miterlimit:10;}
	.st73{fill:none;stroke:#4F4B45;stroke-linecap:round;stroke-linejoin:round;stroke-miterlimit:10;}
	.st74{fill:#E0366F;stroke:#45413C;stroke-linecap:round;stroke-linejoin:round;stroke-miterlimit:10;}
	.st75{fill:none;stroke:#45413C;stroke-miterlimit:10;}
	.st76{fill:#FF866E;stroke:#45413C;stroke-linecap:round;stroke-linejoin:round;stroke-miterlimit:10;}
	.st77{fill:#45413C;stroke:#45413C;stroke-linecap:round;stroke-linejoin:round;stroke-miterlimit:10;}
	.st78{fill:#9F5AE5;}
	.st79{fill:#803EC2;}
	.st80{fill:#803EC2;stroke:#45413C;stroke-linecap:round;stroke-linejoin:round;stroke-miterlimit:10;}
	.st81{fill:#BF8DF2;}
	.st82{fill:#FFAA54;stroke:#45413C;stroke-linecap:round;stroke-linejoin:round;stroke-miterlimit:10;}
	.st83{fill:none;stroke:#45413C;stroke-linejoin:round;stroke-miterlimit:10;}
	.st84{fill:#FFCCDD;stroke:#45413C;stroke-linecap:round;stroke-linejoin:round;stroke-miterlimit:10;}
	.st85{fill:#FF6196;stroke:#45413C;stroke-linecap:round;stroke-linejoin:round;stroke-miterlimit:10;}
	.st86{fill:#FFE5EE;}
	.st87{fill:#F7E5C6;stroke:#45413C;stroke-linecap:round;stroke-linejoin:round;stroke-miterlimit:10;}
	.st88{fill:#E5FFF9;}
	.st89{fill:none;stroke:#45413C;stroke-width:1.0064;stroke-linecap:round;stroke-linejoin:round;stroke-miterlimit:10;}
	.st90{fill:#4AEFF7;}
	.st91{fill:#A6FBFF;}
	.st92{fill:#E5FEFF;stroke:#45413C;stroke-linecap:round;stroke-linejoin:round;stroke-miterlimit:10;}
	.st93{fill:#46B000;stroke:#45413C;stroke-linecap:round;stroke-linejoin:round;stroke-miterlimit:10;}
	.st94{fill:#FFFFFF;stroke:#45413C;stroke-linejoin:round;stroke-miterlimit:10;}
	.st95{fill:#FFFFFF;stroke:#45413C;stroke-miterlimit:10;}
	.st96{fill:#009FD9;}
	.st97{fill:#00DFEB;}
	.st98{fill:#C0DCEB;stroke:#45413C;stroke-linecap:round;stroke-linejoin:round;stroke-miterlimit:10;}
	.st99{fill:#00DFEB;stroke:#45413C;stroke-linecap:round;stroke-linejoin:round;stroke-miterlimit:10;}
	.st100{fill:#FFE5EE;stroke:#45413C;stroke-linecap:round;stroke-linejoin:round;stroke-miterlimit:10;}
	.st101{fill:#8CA4B8;}
	.st102{fill:#ADC4D9;}
	.st103{fill:#656769;stroke:#45413C;stroke-linecap:round;stroke-linejoin:round;stroke-miterlimit:10;}
	.st104{fill:#F0F0F0;stroke:#45413C;stroke-linecap:round;stroke-linejoin:round;stroke-miterlimit:10;}
	.st105{fill:#C0DCEB;}
	.st106{fill:#45413C;}
	.st107{fill:#FFCABF;}
	.st108{fill:#87898C;stroke:#45413C;stroke-linecap:round;stroke-linejoin:round;stroke-miterlimit:10;}
	.st109{fill:#EBCB00;stroke:#45413C;stroke-linecap:round;stroke-linejoin:round;stroke-miterlimit:10;}</style>
</svg>
