<?xml version="1.0" encoding="UTF-8"?>
<!-- Created with Inkscape (http://www.inkscape.org/) -->
<svg width="64" height="64" version="1.1" viewBox="0 0 16.933 16.933" xmlns="http://www.w3.org/2000/svg" xmlns:cc="http://creativecommons.org/ns#" xmlns:dc="http://purl.org/dc/elements/1.1/" xmlns:rdf="http://www.w3.org/1999/02/22-rdf-syntax-ns#" xmlns:xlink="http://www.w3.org/1999/xlink">
 <defs>
  <filter id="filter2761" x="-.024" y="-.024" width="1.048" height="1.048" color-interpolation-filters="sRGB">
   <feGaussianBlur stdDeviation="0.14552168"/>
  </filter>
  <linearGradient id="linearGradient4673" x1="1.2573" x2="15.644" y1="15.429" y2="1.1082" gradientUnits="userSpaceOnUse">
   <stop stop-color="#32dcff" offset="0"/>
   <stop stop-color="#3296ff" offset="1"/>
  </linearGradient>
 </defs>
 <metadata>
  <rdf:RDF>
   <cc:Work rdf:about="">
    <dc:format>image/svg+xml</dc:format>
    <dc:type rdf:resource="http://purl.org/dc/dcmitype/StillImage"/>
    <dc:title/>
   </cc:Work>
  </rdf:RDF>
 </metadata>
 <path d="m10.709 1.05c4.405 0 5.0345 0.67282 5.0345 5.388v3.7761c0 4.7152-0.62954 5.388-5.0345 5.388h-4.4832c-4.405 0-5.0346-0.6728-5.0346-5.388v-3.7761c0-4.7152 0.62954-5.388 5.0346-5.388z" enable-background="new" fill="#141414" filter="url(#filter2761)" opacity=".3"/>
 <path d="m10.709 0.97579c4.405 0 5.0345 0.67282 5.0345 5.388v3.7761c0 4.7152-0.62954 5.388-5.0345 5.388h-4.4832c-4.405 0-5.0346-0.6728-5.0346-5.388v-3.7761c0-4.7152 0.62954-5.388 5.0346-5.388z" enable-background="new" fill="url(#linearGradient4673)"/>
 <g transform="translate(.0012466 -.2691)">
  <g transform="matrix(.51035 0 0 .51035 -2.994 9.6615)" fill="#fff">
   <circle cx="28.377" cy="4.0348" r="3.44" opacity=".25" style="paint-order:stroke markers fill"/>
   <g transform="translate(19.91,-284.5)" style="paint-order:stroke markers fill">
    <path transform="matrix(.2068 0 0 .2068 1.8486 282.03)" d="m29.445 11.615v5.998a14.072 14.072 0 0 0-5.4238 2.2402l-4.2324-4.2344-3.6172 3.6113 4.248 4.248a14.072 14.072 0 0 0-2.2461 5.4082h-6v5.1172h6.0039a14.072 14.072 0 0 0 2.2363 5.4141l-4.2422 4.2422 3.6172 3.6172 4.2539-4.252a14.072 14.072 0 0 0 5.4023 2.2441v6.0059h5.1172v-6.0078a14.072 14.072 0 0 0 5.4141-2.2324l4.2422 4.2422 3.6113-3.6133-4.248-4.252a14.072 14.072 0 0 0 2.25-5.4082h6.002v-5.1172h-6.002a14.072 14.072 0 0 0-2.2344-5.416l4.2383-4.2344-3.6172-3.623-4.2461 4.2461a14.072 14.072 0 0 0-5.4102-2.248v-5.9961h-5.1172zm2.5586 12.15a7.6741 7.6741 0 0 1 7.6738 7.6758 7.6741 7.6741 0 0 1-7.6738 7.6777 7.6741 7.6741 0 0 1-7.6797-7.6777 7.6741 7.6741 0 0 1 7.6797-7.6758z" fill="#fff" stroke-width="4.8356"/>
   </g>
  </g>
  <g transform="matrix(.70879 0 0 .70879 1.1378 1.1211)">
   <g transform="translate(.048526 .0064609)" fill="none" stroke="#fff" stroke-dashoffset=".42096" stroke-width="2.3812">
    <circle cx="8.4188" cy="8.3271" r="4.1537" opacity=".2"/>
    <path d="m11.198 11.399a4.1537 4.1537 0 0 1-2.7795 1.067 4.1537 4.1537 0 0 1-4.1537-4.1537 4.1537 4.1537 0 0 1 4.1537-4.1537 4.1537 4.1537 0 0 1 2.7795 1.0671"/>
   </g>
   <circle cx="8.4674" cy="8.326" r="1.9878" fill="#fff"/>
  </g>
 </g>
</svg>
