<?xml version="1.0" encoding="UTF-8" standalone="no"?>
<svg
   xmlns:dc="http://purl.org/dc/elements/1.1/"
   xmlns:cc="http://creativecommons.org/ns#"
   xmlns:rdf="http://www.w3.org/1999/02/22-rdf-syntax-ns#"
   xmlns:svg="http://www.w3.org/2000/svg"
   xmlns="http://www.w3.org/2000/svg"
   xmlns:xlink="http://www.w3.org/1999/xlink"
   xmlns:sodipodi="http://sodipodi.sourceforge.net/DTD/sodipodi-0.dtd"
   xmlns:inkscape="http://www.inkscape.org/namespaces/inkscape"
   version="1.1"
   viewBox="0 0 64 64"
   id="svg23"
   sodipodi:docname="gtk-recordmydesktop.svg"
   width="64"
   height="64"
   inkscape:version="1.0.2 (e86c870879, 2021-01-15)">
  <metadata
     id="metadata27">
    <rdf:RDF>
      <cc:Work
         rdf:about="">
        <dc:format>image/svg+xml</dc:format>
        <dc:type
           rdf:resource="http://purl.org/dc/dcmitype/StillImage" />
        <dc:title></dc:title>
      </cc:Work>
    </rdf:RDF>
  </metadata>
  <sodipodi:namedview
     pagecolor="#ffffff"
     bordercolor="#666666"
     borderopacity="1"
     objecttolerance="10"
     gridtolerance="10"
     guidetolerance="10"
     inkscape:pageopacity="0"
     inkscape:pageshadow="2"
     inkscape:window-width="1920"
     inkscape:window-height="992"
     id="namedview25"
     showgrid="false"
     inkscape:zoom="6.1208931"
     inkscape:cx="37.744369"
     inkscape:cy="24.144041"
     inkscape:window-x="0"
     inkscape:window-y="0"
     inkscape:window-maximized="1"
     inkscape:current-layer="svg23" />
  <defs
     id="defs7">
    <linearGradient
       id="bg"
       x1="1"
       x2="47"
       gradientTransform="matrix(0,-1.2766501,1.2766501,0,72.719299,61.002555)"
       gradientUnits="userSpaceOnUse">
      <stop
         style="stop-color:#6bc810"
         offset="0"
         id="stop2" />
      <stop
         style="stop-color:#74da11"
         offset="1"
         id="stop4" />
    </linearGradient>
    <style
       id="style4"
       type="text/css" />
    <style
       id="style6"
       type="text/css" />
    <style
       id="style8"
       type="text/css" />
    <filter
       color-interpolation-filters="sRGB"
       height="1.048"
       width="1.048"
       y="-0.024"
       x="-0.024"
       id="filter2761">
      <feGaussianBlur
         id="feGaussianBlur10"
         stdDeviation="0.14552168" />
    </filter>
    <linearGradient
       gradientUnits="userSpaceOnUse"
       gradientTransform="matrix(3.7796,0,0,3.7796,111.78704,0.53107)"
       y2="1.17"
       y1="15.576"
       x2="15.65"
       x1="1.3315001"
       id="linearGradient1024-6">
      <stop
         id="stop13"
         offset="0"
         stop-color="#00dc96" />
      <stop
         id="stop15"
         offset="1"
         stop-color="#14d29b" />
    </linearGradient>
    <linearGradient
       gradientUnits="userSpaceOnUse"
       gradientTransform="matrix(0.27476,0,0,0.27476,-24.952118,-0.32515)"
       y2="12.461"
       y1="57.955002"
       x2="45.627998"
       x1="45.627998"
       id="b">
      <stop
         id="stop2-3"
         offset="0" />
      <stop
         id="stop4-6"
         offset="1"
         stop-opacity="0" />
    </linearGradient>
    <filter
       inkscape:collect="always"
       style="color-interpolation-filters:sRGB"
       id="filter1057"
       x="-0.027000001"
       width="1.054"
       y="-0.027000001"
       height="1.054">
      <feGaussianBlur
         inkscape:collect="always"
         stdDeviation="0.61875"
         id="feGaussianBlur1059" />
    </filter>
    <linearGradient
       inkscape:collect="always"
       xlink:href="#linearGradient1051"
       id="linearGradient1053"
       x1="-127"
       y1="60"
       x2="-72"
       y2="5"
       gradientUnits="userSpaceOnUse"
       gradientTransform="translate(131.5,-0.50999901)" />
    <linearGradient
       inkscape:collect="always"
       id="linearGradient1051">
      <stop
         style="stop-color:#02db96;stop-opacity:1"
         offset="0"
         id="stop1047" />
      <stop
         style="stop-color:#13d39b;stop-opacity:1"
         offset="1"
         id="stop1049" />
    </linearGradient>
    <style
       type="text/css"
       id="style872" />
    <style
       type="text/css"
       id="style874" />
    <style
       type="text/css"
       id="style876" />
    <filter
       id="filter2761-3"
       x="-0.024"
       y="-0.024"
       width="1.048"
       height="1.048"
       color-interpolation-filters="sRGB">
      <feGaussianBlur
         stdDeviation="0.14552168"
         id="feGaussianBlur878" />
    </filter>
    <linearGradient
       id="linearGradient1024-6-6"
       x1="1.3315001"
       x2="15.65"
       y1="15.576"
       y2="1.17"
       gradientTransform="matrix(3.7796,0,0,3.7796,-0.0020773,0.53047)"
       gradientUnits="userSpaceOnUse">
      <stop
         stop-color="#00dc96"
         offset="0"
         id="stop881" />
      <stop
         stop-color="#14d29b"
         offset="1"
         id="stop883" />
    </linearGradient>
  </defs>
  <g
     id="g64"
     fill="#5e4aa6">
    <circle
       id="circle20"
       r="0"
       cy="-1241.6"
       cx="-1248.7" />
    <circle
       id="circle22"
       fill-rule="evenodd"
       r="0"
       cy="23.855"
       cx="-149.14999" />
    <circle
       id="circle24"
       r="0"
       cy="-1241.6"
       cx="-1248.7" />
    <circle
       id="circle26"
       fill-rule="evenodd"
       r="0"
       cy="23.855"
       cx="-149.14999" />
    <circle
       id="circle28"
       r="0"
       cy="-1256.6"
       cx="-1150.9" />
    <circle
       id="circle30"
       fill-rule="evenodd"
       r="0"
       cy="8.8744001"
       cx="-51.327" />
    <g
       id="g62"
       stroke-width="0.26458"
       transform="matrix(3.7796,0,0,3.7796,167.86,4.61)">
      <g
         id="g40"
         transform="translate(-0.0272,0.0065001)">
        <circle
           id="circle32"
           r="0"
           cy="-328.38"
           cx="-330.35001" />
        <circle
           id="circle34"
           r="0"
           cy="-326.25"
           cx="-312.10999" />
        <circle
           id="circle36"
           r="0"
           cy="-333.07001"
           cx="-306.01999" />
        <circle
           id="circle38"
           r="0"
           cy="-326.01001"
           cx="-308.84" />
      </g>
      <g
         id="g50"
         transform="translate(-0.0272,0.0065001)">
        <circle
           id="circle42"
           r="0"
           cy="-328.38"
           cx="-330.35001" />
        <circle
           id="circle44"
           r="0"
           cy="-326.25"
           cx="-312.10999" />
        <circle
           id="circle46"
           r="0"
           cy="-333.07001"
           cx="-306.01999" />
        <circle
           id="circle48"
           r="0"
           cy="-326.01001"
           cx="-308.84" />
      </g>
      <g
         id="g60"
         transform="translate(-0.02705,0.0064503)">
        <circle
           id="circle52"
           r="0"
           cy="-328.38"
           cx="-330.35001" />
        <circle
           id="circle54"
           r="0"
           cy="-326.25"
           cx="-312.10999" />
        <circle
           id="circle56"
           r="0"
           cy="-333.07001"
           cx="-306.01999" />
        <circle
           id="circle58"
           r="0"
           cy="-326.01001"
           cx="-308.84" />
      </g>
    </g>
  </g>
  <rect
     style="opacity:0.3;fill:#141414;fill-opacity:1;stroke-width:2.74436;stroke-linecap:round;filter:url(#filter1057)"
     id="rect1055"
     width="55"
     height="55"
     x="4.5"
     y="4.5"
     ry="15" />
  <rect
     ry="14.999999"
     y="4.5000019"
     x="4.5000019"
     height="54.999996"
     width="54.999996"
     id="rect1045"
     style="fill:url(#linearGradient1053);fill-opacity:1;stroke-width:2.74436;stroke-linecap:round" />
  <path
     d="M 32.000434,16.680065 A 20.426401,15.319801 0 0 0 11.608506,31.277282 14.043151,10.213201 0 0 0 11.573597,32.000389 14.043151,10.213201 0 0 0 25.616748,42.21359 14.043151,10.213201 0 0 0 39.659894,32.000389 14.043151,10.213201 0 0 0 25.616748,21.787188 14.043151,10.213201 0 0 0 11.6336,31.130224 17.234776,12.766501 0 0 1 28.808374,19.233888 17.234776,12.766501 0 0 1 46.043144,32.000389 17.234776,12.766501 0 0 1 28.808374,44.76689 17.234776,12.766501 0 0 1 11.61828,32.912939 20.426401,15.319801 0 0 0 31.999994,47.319935 20.426401,15.319801 0 0 0 52.426404,32.000134 20.426401,15.319801 0 0 0 31.999994,16.680333 Z m -8.936547,7.6599 a 10.213201,7.6599004 0 0 1 10.213197,7.659901 10.213201,7.6599004 0 0 1 -10.213197,7.6599 10.213201,7.6599004 0 0 1 -10.2132,-7.6599 10.213201,7.6599004 0 0 1 10.2132,-7.659901 z"
     style="fill:#ffffff;stroke-width:1.27665;paint-order:normal;fill-opacity:1"
     id="path986" />
</svg>
