<?xml version="1.0" encoding="UTF-8" standalone="no"?>
<svg
   width="64"
   height="64"
   version="1.1"
   viewBox="0 0 16.933 16.933"
   id="svg18"
   sodipodi:docname="guitar-pro.svg"
   xml:space="preserve"
   inkscape:version="1.2.2 (b0a8486541, 2022-12-01)"
   xmlns:inkscape="http://www.inkscape.org/namespaces/inkscape"
   xmlns:sodipodi="http://sodipodi.sourceforge.net/DTD/sodipodi-0.dtd"
   xmlns:xlink="http://www.w3.org/1999/xlink"
   xmlns="http://www.w3.org/2000/svg"
   xmlns:svg="http://www.w3.org/2000/svg"><defs
     id="defs22"><linearGradient
       inkscape:collect="always"
       id="linearGradient8679"><stop
         style="stop-color:#fefeff;stop-opacity:1"
         offset="0"
         id="stop8675" /><stop
         style="stop-color:#c1ddfd;stop-opacity:1"
         offset="1"
         id="stop8677" /></linearGradient><filter
       id="filter1057"
       x="-0.026999999"
       y="-0.026999999"
       width="1.054"
       height="1.054"
       color-interpolation-filters="sRGB"><feGaussianBlur
         stdDeviation="0.61875"
         id="feGaussianBlur318" /></filter><linearGradient
       id="linearGradient1053"
       x1="-127"
       x2="-72"
       y1="60"
       y2="5"
       gradientTransform="matrix(0.26457812,0,0,0.26457812,34.792083,-0.134441)"
       gradientUnits="userSpaceOnUse"><stop
         stop-color="#2e55e7"
         offset="0"
         id="stop321" /><stop
         stop-color="#0d7eef"
         offset="1"
         id="stop323" /></linearGradient><linearGradient
       inkscape:collect="always"
       xlink:href="#linearGradient8679"
       id="linearGradient568"
       gradientUnits="userSpaceOnUse"
       gradientTransform="matrix(1,0,0,0.93333332,1.675e-5,0.56443671)"
       x1="8.4665003"
       y1="2.5134921"
       x2="8.4665003"
       y2="14.419508" /></defs><sodipodi:namedview
     id="namedview20"
     pagecolor="#ffffff"
     bordercolor="#999999"
     borderopacity="1"
     inkscape:showpageshadow="0"
     inkscape:pageopacity="0"
     inkscape:pagecheckerboard="0"
     inkscape:deskcolor="#d1d1d1"
     showgrid="false"
     inkscape:zoom="4.695631"
     inkscape:cx="53.453945"
     inkscape:cy="26.514008"
     inkscape:window-width="1920"
     inkscape:window-height="989"
     inkscape:window-x="0"
     inkscape:window-y="0"
     inkscape:window-maximized="1"
     inkscape:current-layer="svg18" /><rect
     transform="scale(0.26457812)"
     x="4.5"
     y="4.5"
     width="55"
     height="55"
     ry="15"
     fill="#141414"
     filter="url(#filter1057)"
     opacity="0.3"
     stroke-linecap="round"
     stroke-width="2.7444"
     id="rect332" /><rect
     x="1.190556"
     y="1.190556"
     width="14.552061"
     height="14.552061"
     ry="3.9686718"
     fill="url(#linearGradient1053)"
     stroke-linecap="round"
     stroke-width="0.726108"
     id="rect334"
     style="fill:url(#linearGradient1053)" /><path
     id="path566"
     d="m 8.4665167,2.9103627 c -2.769113,0 -5.014065,1.440279 -5.014065,3.2169668 0,0.6822965 0.530914,2.0232691 1.20662,3.3939723 v -0.00145 c 1.083992,2.1987452 2.649276,4.5027882 3.807445,4.5027882 1.157826,0 2.7225233,-2.302703 3.8064103,-4.500859 a 10.027562,9.3590578 0 0 0 0.001,-4.824e-4 c 0.67573,-1.3707032 1.206621,-2.7116544 1.206621,-3.3939723 0,-1.7767942 -2.244953,-3.2169667 -5.0140653,-3.2169667 z m 1.7838343,2.4906171 c 0.273295,0 0.497736,0.1312331 0.673331,0.39356 0.175594,0.2607388 0.263545,0.5972112 0.263545,1.0089798 0,0.4117684 -0.08795,0.748582 -0.263545,1.0109089 -0.175595,0.2607386 -0.400036,0.3911484 -0.673331,0.3911484 -0.154468,0 -0.2909573,-0.036351 -0.4097853,-0.109483 C 9.7217388,8.0213712 9.6132287,7.9060841 9.5155277,7.7502821 V 9.1523393 H 8.8065408 V 5.4656086 h 0.708987 V 5.856757 c 0.0977,-0.155804 0.206211,-0.2702676 0.325038,-0.3434004 0.118828,-0.074722 0.2553172,-0.1123768 0.4097852,-0.1123768 z m -3.5687033,0.00483 c 0.154469,0 0.290728,0.036832 0.408236,0.1099653 0.117508,0.073132 0.225279,0.1884195 0.322971,0.3458118 V 5.4656086 h 0.712604 v 2.401391 c 0,0.429258 -0.112706,0.7566921 -0.338474,0.982453 -0.224449,0.2273488 -0.550451,0.3409888 -0.978215,0.3409888 -0.138626,0 -0.272649,-0.012664 -0.402035,-0.038102 -0.129386,-0.025439 -0.259445,-0.064253 -0.390149,-0.116718 V 8.3700425 c 0.124102,0.085852 0.245484,0.1496557 0.364311,0.1909924 0.118827,0.042926 0.238482,0.064146 0.358628,0.064146 0.23237,0 0.402293,-0.060861 0.510553,-0.1832755 0.10826,-0.122414 0.162777,-0.3141671 0.162777,-0.5749062 V 7.6832418 c -0.0977,0.1558042 -0.205471,0.2702675 -0.322971,0.3434003 -0.117508,0.073132 -0.253767,0.1099653 -0.408236,0.1099653 -0.270658,0 -0.49435,-0.1279491 -0.671263,-0.3839138 -0.176914,-0.257553 -0.2650949,-0.5854694 -0.2650949,-0.9829353 0,-0.3990542 0.08818,-0.7256648 0.2650949,-0.9800415 0.176913,-0.2559648 0.400605,-0.3839139 0.671263,-0.3839139 z m 0.263545,0.6154197 c -0.146547,0 -0.26075,0.064969 -0.342608,0.1953331 -0.08186,0.1303646 -0.122988,0.3151992 -0.122988,0.5536849 0,0.2448379 0.03964,0.4308372 0.118854,0.5580255 0.07922,0.1256003 0.194907,0.1880985 0.346742,0.1880985 0.147874,0 0.262825,-0.064969 0.344675,-0.1953331 0.08186,-0.1303645 0.122987,-0.3139035 0.122987,-0.5507909 0,-0.2384756 -0.04113,-0.4233104 -0.122987,-0.5536849 -0.08186,-0.1303645 -0.196807,-0.1953331 -0.344675,-0.1953331 z m 3.042132,0 c -0.151831,0 -0.269018,0.067429 -0.350877,0.2025676 -0.08054,0.1335507 -0.12092,0.3264687 -0.12092,0.5792469 0,0.2527885 0.04038,0.4470021 0.12092,0.5821409 0.08186,0.1335507 0.199044,0.2001561 0.350877,0.2001561 0.1518313,0 0.2670043,-0.066606 0.3462243,-0.2001561 0.08054,-0.1335506 0.12092,-0.3277644 0.12092,-0.5821409 0,-0.2543763 -0.04038,-0.4481078 -0.12092,-0.5816584 C 10.254329,6.0878305 10.139158,6.0212249 9.9873247,6.0212249 Z"
     style="fill:url(#linearGradient568);fill-opacity:1;stroke-width:0.966092" /></svg>
