<?xml version="1.0" encoding="UTF-8" standalone="no"?>
<svg
   xmlns:dc="http://purl.org/dc/elements/1.1/"
   xmlns:cc="http://creativecommons.org/ns#"
   xmlns:rdf="http://www.w3.org/1999/02/22-rdf-syntax-ns#"
   xmlns:svg="http://www.w3.org/2000/svg"
   xmlns="http://www.w3.org/2000/svg"
   xmlns:xlink="http://www.w3.org/1999/xlink"
   xmlns:sodipodi="http://sodipodi.sourceforge.net/DTD/sodipodi-0.dtd"
   xmlns:inkscape="http://www.inkscape.org/namespaces/inkscape"
   width="64"
   height="64"
   version="1.1"
   viewBox="0 0 16.933 16.933"
   id="svg528"
   sodipodi:docname="help-browser.svg"
   inkscape:version="1.0.1 (3bc2e813f5, 2020-09-07)">
  <sodipodi:namedview
     pagecolor="#ffffff"
     bordercolor="#666666"
     borderopacity="1"
     objecttolerance="10"
     gridtolerance="10"
     guidetolerance="10"
     inkscape:pageopacity="0"
     inkscape:pageshadow="2"
     inkscape:window-width="1920"
     inkscape:window-height="935"
     id="namedview530"
     showgrid="false"
     inkscape:zoom="6.0546875"
     inkscape:cx="34.996359"
     inkscape:cy="37.701015"
     inkscape:window-x="0"
     inkscape:window-y="38"
     inkscape:window-maximized="1"
     inkscape:current-layer="svg528" />
  <defs
     id="defs154">
    <filter
       id="filter2761"
       x="-.024"
       y="-.024"
       width="1.048"
       height="1.048"
       color-interpolation-filters="sRGB">
      <feGaussianBlur
         stdDeviation="0.14552168"
         id="feGaussianBlur2" />
    </filter>
    <linearGradient
       id="linearGradient1024"
       x1="1.3315"
       x2="15.65"
       y1="15.576"
       y2="1.17"
       gradientUnits="userSpaceOnUse"
       gradientTransform="translate(0.2124493,-1.8057964)">
      <stop
         stop-color="#32afff"
         offset="0"
         id="stop5" />
      <stop
         stop-color="#328cff"
         offset="1"
         id="stop7" />
    </linearGradient>
    <clipPath
       id="clipPath13429">
      <path
         d="m481 318h22v22h-22z"
         id="path10" />
    </clipPath>
    <clipPath
       id="clipPath13465">
      <path
         d="m507 318h22v22h-22z"
         id="path13" />
    </clipPath>
    <clipPath
       id="clipPath13501">
      <path
         d="m530 318h22v22h-22z"
         id="path16" />
    </clipPath>
    <clipPath
       id="clipPath13753">
      <path
         d="m672 1064c0-1.105 4.925-2 11-2s11 0.895 11 2-4.925 2-11 2-11-0.895-11-2"
         id="path19" />
    </clipPath>
    <clipPath
       id="clipPath13771">
      <path
         d="m660 1057h51v65.001h-51z"
         id="path22" />
    </clipPath>
    <clipPath
       id="clipPath14035">
      <path
         d="m659 517h53v18h-53z"
         id="path25" />
    </clipPath>
    <clipPath
       id="clipPath14127">
      <path
         d="m659 500h53v18h-53z"
         id="path28" />
    </clipPath>
    <clipPath
       id="clipPath14445">
      <path
         d="m648 112h73v60h-73z"
         id="path31" />
    </clipPath>
    <clipPath
       id="clipPath14609">
      <path
         d="m826 1056h59v60h-59z"
         id="path34" />
    </clipPath>
    <clipPath
       id="clipPath15305">
      <path
         d="m805 276h100v100h-100z"
         id="path37" />
    </clipPath>
    <clipPath
       id="clipPath15341">
      <path
         d="m145 1063.8h74.152v45.21h-74.152z"
         id="path40" />
    </clipPath>
    <clipPath
       id="clipPath15715">
      <path
         d="m151 667h57v57h-57z"
         id="path43" />
    </clipPath>
    <clipPath
       id="clipPath15807">
      <path
         d="m154 697h51v51h-51z"
         id="path46" />
    </clipPath>
    <clipPath
       id="clipPath16001">
      <path
         d="m500.04 864.45h36.012v67.52h-36.012z"
         id="path49" />
    </clipPath>
    <clipPath
       id="clipPath16093">
      <path
         d="m836 870.54h47v55.539h-47z"
         id="path52" />
    </clipPath>
    <clipPath
       id="clipPath16477">
      <path
         d="m318.03 702.35h62.848v37.991h-62.848z"
         id="path55" />
    </clipPath>
    <clipPath
       id="clipPath16579">
      <path
         d="m485.03 133.35h62.847v37.991h-62.847z"
         id="path58" />
    </clipPath>
    <clipPath
       id="clipPath16709">
      <path
         d="m493.37 677.93h45.643v68.067h-45.643z"
         id="path61" />
    </clipPath>
    <clipPath
       id="clipPath24218">
      <path
         d="m144.34 1018.2h71.467v78h-71.467z"
         id="path64" />
    </clipPath>
    <clipPath
       id="clipPath24382">
      <path
         d="m293.21 1068.6 66.323-38.292 36.047 62.435-66.323 38.292z"
         id="path67" />
    </clipPath>
    <clipPath
       id="clipPath24650">
      <path
         d="m488.86 1054.5h10v10.706h-10z"
         id="path70" />
    </clipPath>
    <clipPath
       id="clipPath24700">
      <path
         d="m508 1066.8h10.001v10.705h-10.001z"
         id="path73" />
    </clipPath>
    <clipPath
       id="clipPath24750">
      <path
         d="m525 1045.8h10v10.706h-10z"
         id="path76" />
    </clipPath>
    <clipPath
       id="clipPath24864">
      <path
         d="m836 1043.7h25.5v31.5h-25.5z"
         id="path79" />
    </clipPath>
    <clipPath
       id="clipPath24896">
      <path
         d="m838 1062.2h24v24h-24z"
         id="path82" />
    </clipPath>
    <clipPath
       id="clipPath25070">
      <path
         d="m134 489.24h7v6h-7z"
         id="path85" />
    </clipPath>
    <clipPath
       id="clipPath25100">
      <path
         d="m216 489.24h7v6h-7z"
         id="path88" />
    </clipPath>
    <clipPath
       id="clipPath25502">
      <path
         d="m838 477.24h22v22h-22z"
         id="path91" />
    </clipPath>
    <clipPath
       id="clipPath25686">
      <path
         d="m704 1061.2h25v25h-25z"
         id="path94" />
    </clipPath>
    <clipPath
       id="clipPath25788">
      <path
         d="m663.04 1078.6-1.808-3.514-21.07-47.453c13.336-18.439 48.336-26.938 73.836-3.439 0.842 0 6.476 6.246 6 7l-18.386 25.895c-0.483 0.765-1.453 0.946-2.177 0.431l-15.505-11.011c-0.359-0.255-0.847-0.153-1.07 0.238l-18.272 31.869c-0.218 0.384-0.502 0.578-0.782 0.578-0.282 0-0.561-0.197-0.766-0.594"
         id="path97" />
    </clipPath>
    <clipPath
       id="clipPath26420">
      <path
         d="m127 820.24h100v100h-100z"
         id="path100" />
    </clipPath>
    <clipPath
       id="clipPath26860">
      <path
         d="m809 680.24c0-22.092 17.908-40 40-40s40 17.908 40 40c0 22.091-17.908 40-40 40s-40-17.909-40-40"
         id="path103" />
    </clipPath>
    <clipPath
       id="clipPath27506">
      <path
         d="m658 469.24h44v45h-44z"
         id="path106" />
    </clipPath>
    <clipPath
       id="clipPath27772">
      <path
         d="m651 271.24h58v58h-58z"
         id="path109" />
    </clipPath>
    <clipPath
       id="clipPath27864">
      <path
         d="m662 307.24h38v8h-38z"
         id="path112" />
    </clipPath>
    <clipPath
       id="clipPath28028">
      <path
         d="m858.98 137.24c0.013-0.101 0.021-0.203 0.021-0.307v-6.693h15.75c1.237 0 2.25-1.013 2.25-2.25v-11.25l-27-4.5-27 4.5v-2.25l27-4.5 27 4.5v-27c0-1.237-1.013-2.25-2.25-2.25h-49.5c-1.237 0-2.25 1.013-2.25 2.25v-4.25h54v54zm-35.979 0v-9.25c0 1.237 1.013 2.25 2.25 2.25h15.75v6.693c0 0.104 7e-3 0.207 0.02 0.307zm22.5-7h9v4.5h-9zm1.125-9c-0.62 0-1.125-0.506-1.125-1.125v-2.25c0-0.619 0.505-1.125 1.125-1.125h6.75c0.619 0 1.125 0.506 1.125 1.125v2.25c0 0.619-0.506 1.125-1.125 1.125z"
         id="path115" />
    </clipPath>
    <clipPath
       id="clipPath28200">
      <path
         d="m531.27 136.24c6.325-2.29 10.727-8.277 10.727-15.484 0-11.316-10.2-20.563-25.65-34.575l-4.35-3.941-4.35 3.941c-15.45 14.012-25.65 23.259-25.65 34.575v-39.516h60v55zm-26.983 0c2.995-1.052 5.686-2.883 7.71-5.25 2.024 2.367 4.715 4.198 7.71 5.25zm-22.29 0v-15.484c0 7.207 4.402 13.194 10.727 15.484z"
         id="path118" />
    </clipPath>
    <clipPath
       id="clipPath28364">
      <path
         d="m648 79.241h64v64h-64z"
         id="path121" />
    </clipPath>
    <clipPath
       id="clipPath28984">
      <path
         d="m500 691.74c0-3.037 2.463-5.5 5.5-5.5s5.5 2.463 5.5 5.5-2.463 5.5-5.5 5.5-5.5-2.463-5.5-5.5"
         id="path124" />
    </clipPath>
    <clipPath
       id="clipPath29012">
      <path
         d="m500 669.74c0-3.037 2.463-5.5 5.5-5.5s5.5 2.463 5.5 5.5c0 3.038-2.463 5.5-5.5 5.5s-5.5-2.462-5.5-5.5"
         id="path127" />
    </clipPath>
    <clipPath
       id="clipPath29040">
      <path
         d="m494 680.74c0-3.037 2.462-5.5 5.5-5.5s5.5 2.463 5.5 5.5c0 3.038-2.462 5.5-5.5 5.5s-5.5-2.462-5.5-5.5"
         id="path130" />
    </clipPath>
    <clipPath
       id="clipPath29068">
      <path
         d="m513 691.74c0-3.037 2.463-5.5 5.5-5.5s5.5 2.463 5.5 5.5-2.463 5.5-5.5 5.5-5.5-2.463-5.5-5.5"
         id="path133" />
    </clipPath>
    <clipPath
       id="clipPath29096">
      <path
         d="m513 669.74c0-3.037 2.463-5.5 5.5-5.5s5.5 2.463 5.5 5.5c0 3.038-2.463 5.5-5.5 5.5s-5.5-2.462-5.5-5.5"
         id="path136" />
    </clipPath>
    <clipPath
       id="clipPath29124">
      <path
         d="m507 680.74c0-3.037 2.463-5.5 5.5-5.5s5.5 2.463 5.5 5.5c0 3.038-2.463 5.5-5.5 5.5s-5.5-2.462-5.5-5.5"
         id="path139" />
    </clipPath>
    <clipPath
       id="clipPath29152">
      <path
         d="m520 680.74c0-3.037 2.463-5.5 5.5-5.5s5.5 2.463 5.5 5.5c0 3.038-2.463 5.5-5.5 5.5s-5.5-2.462-5.5-5.5"
         id="path142" />
    </clipPath>
    <clipPath
       id="clipPath29252">
      <path
         d="m321 322.24c-4.97 0-9-4.029-9-9 0-4.97 4.03-9 9-9h45c4.971 0 9 4.03 9 9 0 4.971-4.029 9-9 9z"
         id="path145" />
    </clipPath>
    <clipPath
       id="clipPath29280">
      <path
         d="m322 297.24c-4.971 0-9-4.029-9-9 0-4.97 4.029-9 9-9h45c4.971 0 9 4.03 9 9 0 4.971-4.029 9-9 9z"
         id="path148" />
    </clipPath>
    <clipPath
       id="clipPath29400">
      <path
         d="m155 83.24h44v53h-44z"
         id="path151" />
    </clipPath>
    <style
       type="text/css"
       id="style1357" />
    <filter
       id="filter1057"
       x="-.027"
       y="-.027"
       width="1.054"
       height="1.054"
       color-interpolation-filters="sRGB">
      <feGaussianBlur
         stdDeviation="0.61875"
         id="feGaussianBlur1359" />
    </filter>
    <linearGradient
       id="linearGradient1053"
       x1="-127"
       x2="-72"
       y1="60"
       y2="5"
       gradientTransform="translate(131.5,-0.51)"
       gradientUnits="userSpaceOnUse">
      <stop
         stop-color="#32d7ff"
         offset="0"
         id="stop1362" />
      <stop
         stop-color="#329bff"
         offset="1"
         id="stop1364" />
    </linearGradient>
    <style
       type="text/css"
       id="style1367" />
    <style
       type="text/css"
       id="style1369" />
    <style
       type="text/css"
       id="style1371" />
    <style
       type="text/css"
       id="style1373" />
    <style
       type="text/css"
       id="style1375" />
    <style
       type="text/css"
       id="style1377" />
    <style
       type="text/css"
       id="style1379" />
    <linearGradient
       inkscape:collect="always"
       id="linearGradient1500">
      <stop
         style="stop-color:#055096;stop-opacity:1;"
         offset="0"
         id="stop1496" />
      <stop
         style="stop-color:#0587eb;stop-opacity:1"
         offset="1"
         id="stop1498" />
    </linearGradient>
    <linearGradient
       id="linearGradient1356"
       x1="145"
       x2="200"
       y1="59"
       y2="4"
       gradientTransform="translate(-66.617472,0.49999988)"
       gradientUnits="userSpaceOnUse">
      <stop
         stop-color="#ffc841"
         offset="0"
         id="stop1350"
         style="stop-color:#055096;stop-opacity:1" />
      <stop
         stop-color="#ffc841"
         offset="1"
         id="stop1354"
         style="stop-color:#0587eb;stop-opacity:1" />
    </linearGradient>
    <linearGradient
       id="linearGradient3764"
       x1="1"
       x2="47"
       gradientUnits="userSpaceOnUse"
       gradientTransform="rotate(-90,23.999998,24)">
      <stop
         style="stop-color:#48a1e0;stop-opacity:1"
         id="stop855" />
      <stop
         offset="1"
         style="stop-color:#5aa9e3;stop-opacity:1"
         id="stop857" />
    </linearGradient>
    <linearGradient
       gradientUnits="userSpaceOnUse"
       gradientTransform="matrix(1.0000066,0,0,1.0000066,19.187825,0)"
       y2="1.0583"
       y1="6.8790002"
       x2="7.9373002"
       x1="7.9373002"
       id="linearGradient865">
      <stop
         id="stop2-36"
         offset="0"
         stop-color="#fff" />
      <stop
         id="stop4-7"
         offset="1"
         stop-color="#fcc" />
    </linearGradient>
    <linearGradient
       gradientTransform="translate(19.187825)"
       gradientUnits="userSpaceOnUse"
       y2="3.9326999"
       y1="14.579"
       x2="12.314"
       x1="2.6278"
       id="linearGradient855">
      <stop
         id="stop7-5"
         offset="0"
         stop-color="#d462aa" />
      <stop
         id="stop9-3"
         offset=".15178"
         stop-color="#56c7d9" />
      <stop
         id="stop11"
         offset=".33294"
         stop-color="#2da8b8" />
      <stop
         id="stop13"
         offset=".53353"
         stop-color="#72cb6b" />
      <stop
         id="stop15"
         offset=".71019"
         stop-color="#c4dc2b" />
      <stop
         id="stop17"
         offset=".8623"
         stop-color="#f9da3e" />
      <stop
         id="stop19"
         offset="1"
         stop-color="#f69429" />
    </linearGradient>
    <linearGradient
       gradientUnits="userSpaceOnUse"
       gradientTransform="matrix(0.26458,0,0,0.26458,19.187825,0)"
       y2="6.9914999"
       y1="19"
       x2="57.007999"
       x1="45"
       id="linearGradient910">
      <stop
         id="stop22"
         offset="0"
         stop-color="#fff" />
      <stop
         id="stop24"
         offset="1"
         stop-color="#ffe3cc" />
    </linearGradient>
    <style
       type="text/css"
       id="style872" />
    <filter
       id="filter2761-367"
       x="-0.024"
       y="-0.024"
       width="1.048"
       height="1.048"
       color-interpolation-filters="sRGB">
      <feGaussianBlur
         stdDeviation="0.14552168"
         id="feGaussianBlur874" />
    </filter>
    <linearGradient
       id="linearGradient4673"
       x1="1.2573"
       x2="15.644"
       y1="15.429"
       y2="1.1082"
       gradientTransform="matrix(3.7796,0,0,3.7796,-0.0026448,0.53066)"
       gradientUnits="userSpaceOnUse">
      <stop
         stop-color="#32dcff"
         offset="0"
         id="stop877" />
      <stop
         stop-color="#3296ff"
         offset="1"
         id="stop879" />
    </linearGradient>
    <style
       id="style4"
       type="text/css" />
    <style
       id="style6"
       type="text/css" />
    <style
       id="style8"
       type="text/css" />
    <filter
       color-interpolation-filters="sRGB"
       height="1.048"
       width="1.048"
       y="-0.024"
       x="-0.024"
       id="filter2761-36">
      <feGaussianBlur
         id="feGaussianBlur10"
         stdDeviation="0.14552168" />
    </filter>
    <linearGradient
       gradientUnits="userSpaceOnUse"
       gradientTransform="matrix(3.7796,0,0,3.7796,111.78704,0.53107)"
       y2="1.17"
       y1="15.576"
       x2="15.65"
       x1="1.3315001"
       id="linearGradient1024-6">
      <stop
         id="stop13-7"
         offset="0"
         stop-color="#00dc96" />
      <stop
         id="stop15-5"
         offset="1"
         stop-color="#14d29b" />
    </linearGradient>
    <linearGradient
       gradientUnits="userSpaceOnUse"
       gradientTransform="matrix(0.27476,0,0,0.27476,-24.952118,-0.32515)"
       y2="12.461"
       y1="57.955002"
       x2="45.627998"
       x1="45.627998"
       id="b-5">
      <stop
         id="stop2-3"
         offset="0" />
      <stop
         id="stop4-5"
         offset="1"
         stop-opacity="0" />
    </linearGradient>
    <style
       type="text/css"
       id="style872-0" />
    <style
       type="text/css"
       id="style874" />
    <style
       type="text/css"
       id="style876" />
    <filter
       id="filter2761-3"
       x="-0.024"
       y="-0.024"
       width="1.048"
       height="1.048"
       color-interpolation-filters="sRGB">
      <feGaussianBlur
         stdDeviation="0.14552168"
         id="feGaussianBlur878" />
    </filter>
    <linearGradient
       id="linearGradient1024-6-6"
       x1="1.3315001"
       x2="15.65"
       y1="15.576"
       y2="1.17"
       gradientTransform="matrix(3.7796,0,0,3.7796,-0.0020773,0.53047)"
       gradientUnits="userSpaceOnUse">
      <stop
         stop-color="#00dc96"
         offset="0"
         id="stop881" />
      <stop
         stop-color="#14d29b"
         offset="1"
         id="stop883" />
    </linearGradient>
    <linearGradient
       id="b-6"
       x1="399.57001"
       x2="399.57001"
       y1="545.79999"
       y2="517.79999"
       gradientTransform="matrix(0.56696445,0,0,0.56696445,-198.82109,-293.03191)"
       gradientUnits="userSpaceOnUse">
      <stop
         stop-color="#3889e9"
         offset="0"
         id="stop1057" />
      <stop
         stop-color="#5ea5fb"
         offset="1"
         id="stop1059" />
    </linearGradient>
    <filter
       id="filter880"
       x="-0.1288"
       y="-0.092983998"
       width="1.2575999"
       height="1.186"
       color-interpolation-filters="sRGB">
      <feGaussianBlur
         stdDeviation="2.1697093"
         id="feGaussianBlur1062" />
    </filter>
    <style
       type="text/css"
       id="style1065" />
    <style
       type="text/css"
       id="style1067" />
    <style
       type="text/css"
       id="style1069" />
    <filter
       id="filter1057-2"
       x="-0.027000001"
       y="-0.027000001"
       width="1.054"
       height="1.054"
       color-interpolation-filters="sRGB">
      <feGaussianBlur
         stdDeviation="0.61875"
         id="feGaussianBlur1071" />
    </filter>
    <linearGradient
       id="linearGradient1053-9"
       x1="-127"
       x2="-72"
       y1="60"
       y2="5"
       gradientTransform="translate(131.49999,-0.51)"
       gradientUnits="userSpaceOnUse">
      <stop
         stop-color="#055096"
         offset="0"
         id="stop1074" />
      <stop
         stop-color="#0587f5"
         offset="1"
         id="stop1076" />
    </linearGradient>
    <style
       type="text/css"
       id="style1079" />
    <style
       type="text/css"
       id="style1081" />
    <style
       type="text/css"
       id="style1083" />
    <filter
       id="filter2076"
       x="-0.048"
       y="-0.048"
       width="1.096"
       height="1.096"
       color-interpolation-filters="sRGB">
      <feGaussianBlur
         stdDeviation="1.1"
         id="feGaussianBlur161" />
    </filter>
    <linearGradient
       id="linearGradient3764-5"
       x1="1"
       x2="47"
       gradientUnits="userSpaceOnUse"
       gradientTransform="rotate(-90,23.999998,24)">
      <stop
         style="stop-color:#48a1e0;stop-opacity:1"
         id="stop1096" />
      <stop
         offset="1"
         style="stop-color:#5aa9e3;stop-opacity:1"
         id="stop1098" />
    </linearGradient>
    <linearGradient
       id="linearGradient3764-1"
       x1="1"
       x2="47"
       gradientUnits="userSpaceOnUse"
       gradientTransform="rotate(-90,23.999998,24)">
      <stop
         style="stop-color:#ffb109;stop-opacity:1"
         id="stop855-2" />
      <stop
         offset="1"
         style="stop-color:#ffb61d;stop-opacity:1"
         id="stop857-7" />
    </linearGradient>
    <filter
       id="filter2761-0"
       x="-0.024"
       y="-0.024"
       width="1.048"
       height="1.048"
       color-interpolation-filters="sRGB">
      <feGaussianBlur
         stdDeviation="0.14552168"
         id="feGaussianBlur4" />
    </filter>
    <linearGradient
       id="linearGradient1024-5"
       x1="1.3315001"
       x2="15.65"
       y1="15.576"
       y2="1.17"
       gradientTransform="matrix(3.7796,0,0,3.7796,-1.7739835,-8.8802154)"
       gradientUnits="userSpaceOnUse">
      <stop
         stop-color="#ffc841"
         offset="0"
         id="stop7-3" />
      <stop
         stop-color="#ffbe37"
         offset=".5167"
         id="stop9" />
      <stop
         stop-color="#ffc841"
         offset="1"
         id="stop11-9" />
    </linearGradient>
    <linearGradient
       id="f-5"
       x1="-6.1472001"
       x2="-6.1472001"
       y1="-137.82001"
       y2="-100.78"
       gradientTransform="matrix(2.0044,0,0,2.0044,-42.747576,249.6374)"
       gradientUnits="userSpaceOnUse">
      <stop
         stop-color="#14dc78"
         offset="0"
         id="stop840" />
      <stop
         stop-color="#14a03c"
         offset="1"
         id="stop842" />
    </linearGradient>
    <filter
       id="filter2076-3"
       x="-0.048"
       y="-0.048"
       width="1.096"
       height="1.096"
       color-interpolation-filters="sRGB">
      <feGaussianBlur
         stdDeviation="1.1"
         id="feGaussianBlur161-6" />
    </filter>
    <linearGradient
       id="linearGradient2070"
       x1="145"
       x2="200"
       y1="59"
       y2="4"
       gradientTransform="translate(-66.617472,0.49999988)"
       gradientUnits="userSpaceOnUse">
      <stop
         stop-color="#ffc841"
         offset="0"
         id="stop154" />
      <stop
         stop-color="#ffbe37"
         offset=".4925"
         id="stop156" />
      <stop
         stop-color="#ffc841"
         offset="1"
         id="stop158" />
    </linearGradient>
    <linearGradient
       inkscape:collect="always"
       xlink:href="#a"
       id="linearGradient982"
       x1="0"
       y1="0"
       x2="1"
       y2="0"
       gradientUnits="userSpaceOnUse"
       gradientTransform="matrix(0.26457812,0,0,0.26457812,39.36867,0.03729773)" />
    <linearGradient
       inkscape:collect="always"
       xlink:href="#linearGradient1500"
       id="linearGradient1502"
       x1="4.5000014"
       y1="59.5"
       x2="59.5"
       y2="4.5000014"
       gradientUnits="userSpaceOnUse"
       gradientTransform="scale(0.26457812)" />
  </defs>
  <metadata
     id="metadata156">
    <rdf:RDF>
      <cc:Work
         rdf:about="">
        <dc:format>image/svg+xml</dc:format>
        <dc:type
           rdf:resource="http://purl.org/dc/dcmitype/StillImage" />
        <dc:title></dc:title>
      </cc:Work>
    </rdf:RDF>
  </metadata>
  <rect
     x="4.5000014"
     y="4.5000014"
     width="55"
     height="55"
     rx="13.002"
     ry="13.002"
     filter="url(#filter2076)"
     opacity="0.3"
     id="rect170"
     transform="scale(0.26457812)" />
  <path
     id="rect1491"
     style="fill:url(#linearGradient1502);fill-opacity:1;stroke-width:0.53299;stroke-linecap:round;stroke-linejoin:round;paint-order:stroke fill markers"
     d="m 4.630634,1.1906018 c -1.905785,0 -3.440032,1.5342476 -3.440032,3.4400323 v 7.6717319 c 0,1.905785 1.534247,3.440032 3.440032,3.440032 h 7.671732 c 1.905785,0 3.440032,-1.534247 3.440032,-3.440032 V 4.6306341 c 0,-1.9057847 -1.534247,-3.4400323 -3.440032,-3.4400323 z" />
  <circle
     cx="-309.34"
     cy="-332.78"
     r="0"
     fill="#5e4aa6"
     stroke-width=".26458"
     id="circle162" />
  <circle
     cx="-18.433"
     cy="2.0351"
     r="0"
     fill="#5e4aa6"
     fill-rule="evenodd"
     stroke-width=".26458"
     id="circle164" />
  <g
     transform="matrix(.35277 0 0 -.35277 173.63 240.54)"
     id="g172">
    <g
       clip-path="url(#clipPath13429)"
       id="g170">
      <g
         transform="translate(448,326)"
         id="g168">
        <path
           d="m0 0c3.866 0 7 3.134 7 7s-3.134 7-7 7-7-3.134-7-7 3.134-7 7-7"
           fill="#fff"
           fill-rule="evenodd"
           id="path166" />
      </g>
    </g>
  </g>
  <g
     transform="matrix(.35277 0 0 -.35277 173.63 240.54)"
     id="g180">
    <g
       clip-path="url(#clipPath13465)"
       id="g178">
      <g
         transform="translate(474,326)"
         id="g176">
        <path
           d="m0 0c3.866 0 7 3.134 7 7s-3.134 7-7 7-7-3.134-7-7 3.134-7 7-7"
           fill="#fff"
           fill-rule="evenodd"
           id="path174" />
      </g>
    </g>
  </g>
  <g
     transform="matrix(.35277 0 0 -.35277 173.63 240.54)"
     id="g188">
    <g
       clip-path="url(#clipPath13501)"
       id="g186">
      <g
         transform="translate(497,326)"
         id="g184">
        <path
           d="m0 0c3.866 0 7 3.134 7 7s-3.134 7-7 7-7-3.134-7-7 3.134-7 7-7"
           fill="#fff"
           fill-rule="evenodd"
           id="path182" />
      </g>
    </g>
  </g>
  <g
     transform="matrix(.35277 0 0 -.35277 173.63 240.54)"
     id="g194">
    <g
       clip-path="url(#clipPath13753)"
       id="g192">
      <path
         d="m593 1073h36v-18h-36zm18-11c6.075 0 11 0.895 11 2s-4.925 2-11 2-11-0.895-11-2 4.925-2 11-2"
         fill="#fff"
         fill-rule="evenodd"
         id="path190" />
    </g>
  </g>
  <g
     transform="matrix(.35277 0 0 -.35277 173.63 240.54)"
     id="g202">
    <g
       clip-path="url(#clipPath13771)"
       id="g200">
      <g
         transform="translate(583.42 1063)"
         id="g198">
        <path
           d="m0 0s21.582 23.182 21.582 35.147c0 12.048-9.684 21.853-21.582 21.853-11.816 0-21.418-9.805-21.418-21.853 0-8.06 9.766-21.188 16.002-28.832zm0 42.542c3.938 0 7.14-3.323 7.14-7.395 0-3.822-3.202-7.146-7.14-7.146-3.856 0-7.222 3.324-7.222 7.146 0 4.072 3.366 7.395 7.222 7.395"
           fill="#fff"
           id="path196" />
      </g>
    </g>
  </g>
  <g
     transform="matrix(.35277 0 0 -.35277 173.63 240.54)"
     id="g210">
    <g
       clip-path="url(#clipPath14035)"
       id="g208">
      <g
         transform="translate(562,535)"
         id="g206">
        <path
           d="m0 0h35c2.762 0 5-2.238 5-5s-2.238-5-5-5h-35c-2.762 0-5 2.238-5 5s2.238 5 5 5"
           fill="#fff"
           fill-rule="evenodd"
           id="path204" />
      </g>
    </g>
  </g>
  <g
     transform="matrix(.35277 0 0 -.35277 173.63 240.54)"
     id="g218">
    <g
       clip-path="url(#clipPath14127)"
       id="g216">
      <g
         transform="translate(562,518)"
         id="g214">
        <path
           d="m0 0h35c2.762 0 5-2.238 5-5s-2.238-5-5-5h-35c-2.762 0-5 2.238-5 5s2.238 5 5 5"
           fill="#fff"
           fill-rule="evenodd"
           id="path212" />
      </g>
    </g>
  </g>
  <g
     transform="matrix(.35277 0 0 -.35277 173.63 240.54)"
     id="g226">
    <g
       clip-path="url(#clipPath14445)"
       id="g224">
      <g
         transform="translate(536.43 133.83)"
         id="g222">
        <path
           d="m0 0c-10.01-12.916-22.288-9.047-24.23-8.072-4.847 1.293-6.464 10.015-0.326 12.918 10.018 3.226 19.06-0.325 25.524-3.553-0.644-0.967-0.968-1.293-0.968-1.293m10.667 3.553c4.521 8.072 6.139 15.826 6.139 15.826h-15.189v5.812h17.767v2.26h-17.767v8.723h-8.074v-8.723h-16.156v-2.584h16.156v-5.812h-13.57v-2.585h27.783c0-0.325 0-0.325-0.324-0.968 0-2.909-1.936-6.779-3.554-10.014-20.677 8.079-26.491 3.235-28.108 2.584-13.564-9.689-0.968-21.963 1.293-21.638 14.538-3.227 23.905 2.91 30.369 10.657 0.324-0.325 0.967-0.325 1.292-0.325 4.528-2.578 25.848-12.592 25.848-12.592v12.274c-3.878 0.325-15.506 4.195-23.905 7.105"
           fill="#fff"
           id="path220" />
      </g>
    </g>
  </g>
  <g
     transform="matrix(.35277 0 0 -.35277 173.63 240.54)"
     id="g234">
    <g
       clip-path="url(#clipPath14609)"
       id="g232">
      <g
         transform="translate(720.03 1091.5)"
         id="g230">
        <path
           d="m0 0c-0.149 0.354-0.224 0.837-0.224 1.451 0 0.372 0.103 0.828 0.306 1.368 0.205 0.539 0.428 0.958 0.671 1.256-0.019 0.409 0.051 0.902 0.209 1.478 0.159 0.576 0.368 0.976 0.629 1.2 0 2.586 0.86 5.269 2.581 8.05 1.722 2.782 3.744 4.73 6.07 5.846 2.585 1.228 5.6 1.842 9.041 1.842 2.475 0 4.949-0.511 7.423-1.534 0.912-0.391 1.749-0.837 2.512-1.34 0.762-0.502 1.423-1.022 1.981-1.562 0.559-0.54 1.07-1.172 1.534-1.897 0.465-0.725 0.856-1.413 1.172-2.064 0.318-0.651 0.619-1.437 0.908-2.358 0.287-0.921 0.524-1.753 0.71-2.497s0.391-1.655 0.614-2.734l0.028-0.14c1.023-1.543 1.535-2.939 1.535-4.186 0-0.26-0.084-0.632-0.252-1.115-0.168-0.484-0.252-0.837-0.252-1.061 0-0.019 0.015-0.052 0.043-0.099s0.061-0.093 0.098-0.139c0.038-0.046 0.057-0.077 0.057-0.098 1.432-2.121 2.553-4.116 3.363-5.985 0.809-1.869 1.214-3.808 1.214-5.817 0-0.8-0.182-1.73-0.544-2.791-0.363-1.06-0.879-1.59-1.549-1.59-0.167 0-0.349 0.069-0.544 0.209-0.194 0.14-0.371 0.303-0.529 0.489-0.159 0.186-0.335 0.428-0.53 0.725s-0.344 0.543-0.447 0.739-0.228 0.438-0.377 0.725c-0.147 0.288-0.231 0.451-0.251 0.489-0.019 0.019-0.047 0.028-0.085 0.028l-0.138-0.111c-1.099-2.864-2.327-4.938-3.684-6.222 0.372-0.372 0.944-0.73 1.716-1.075s1.414-0.73 1.925-1.158c0.511-0.426 0.841-1.031 0.991-1.814-0.037-0.074-0.074-0.223-0.112-0.447-0.036-0.224-0.101-0.391-0.195-0.501-1.19-1.804-4-2.706-8.427-2.706-0.986 0-2.013 0.084-3.084 0.251-1.069 0.168-1.981 0.354-2.734 0.558s-1.726 0.483-2.916 0.837c-0.279 0.093-0.493 0.158-0.643 0.196-0.259 0.075-0.687 0.115-1.282 0.125-0.595 9e-3 -0.967 0.023-1.116 0.042-0.763-0.838-1.949-1.442-3.559-1.814-1.609-0.372-3.176-0.558-4.702-0.558-0.65 0-1.293 0.014-1.925 0.042s-1.498 0.113-2.595 0.252c-1.098 0.139-2.038 0.33-2.82 0.572-0.781 0.241-1.473 0.613-2.078 1.115-0.604 0.502-0.906 1.098-0.906 1.786 0 0.744 0.093 1.298 0.279 1.661 0.187 0.364 0.569 0.815 1.144 1.353 0.205 0.038 0.581 0.159 1.131 0.363 0.549 0.204 1.009 0.316 1.381 0.334 0.074 0 0.204 0.019 0.39 0.057 0.038 0.037 0.057 0.074 0.057 0.111l-0.057 0.084c-0.892 0.204-1.897 1.185-3.014 2.944-1.117 1.758-1.796 3.214-2.038 4.367l-0.139 0.084c-0.074 0-0.186-0.185-0.334-0.557-0.335-0.763-0.842-1.455-1.521-2.079-0.679-0.622-1.4-0.971-2.163-1.046h-0.028c-0.073 0-0.129 0.041-0.167 0.125-0.037 0.083-0.084 0.134-0.139 0.153-0.428 1.004-0.642 1.934-0.642 2.79 0 5.116 2.343 9.45 7.032 13.002z"
           fill="#fff"
           id="path228" />
      </g>
    </g>
  </g>
  <g
     transform="matrix(.35277 0 0 -.35277 173.63 240.54)"
     id="g242">
    <g
       clip-path="url(#clipPath15305)"
       id="g240">
      <g
         transform="translate(655,300)"
         id="g238">
        <path
           d="m0 0c16.568 0 30 13.432 30 30s-13.432 30-30 30-30-13.432-30-30 13.432-30 30-30z"
           fill="none"
           stroke="#fff"
           stroke-miterlimit="10"
           stroke-width="8"
           id="path236" />
      </g>
    </g>
  </g>
  <g
     transform="matrix(.35277 0 0 -.35277 173.63 240.54)"
     id="g250">
    <g
       clip-path="url(#clipPath15341)"
       id="g248">
      <g
         transform="translate(66.849 1083.1)"
         id="g246">
        <path
           d="m0 0c0 5.302-3.661 9.749-8.591 10.948-0.209 8.314-7.006 14.991-15.366 14.991-4.897 0-9.254-2.293-12.07-5.861-1.579 2.041-4.05 3.358-6.828 3.358-4.769 0-8.633-3.868-8.633-8.639 0-0.416 0.031-0.825 0.089-1.224-0.726 0.13-1.47 0.203-2.232 0.203-6.913 0-12.515-5.607-12.515-12.524 0-6.916 5.602-12.523 12.515-12.523h42.394c6.21 0.013 11.241 5.053 11.241 11.269z"
           fill="#fff"
           id="path244" />
      </g>
    </g>
  </g>
  <g
     transform="matrix(.35277 0 0 -.35277 173.63 240.54)"
     id="g258">
    <g
       clip-path="url(#clipPath15715)"
       id="g256">
      <g
         transform="translate(65.5,681)"
         id="g254">
        <path
           d="m0 0c9.113 0 16.5 7.387 16.5 16.5s-7.387 16.5-16.5 16.5-16.5-7.387-16.5-16.5 7.387-16.5 16.5-16.5z"
           fill="none"
           stroke="#fff"
           stroke-miterlimit="10"
           stroke-width="4"
           id="path252" />
      </g>
    </g>
  </g>
  <g
     transform="matrix(.35277 0 0 -.35277 173.63 240.54)"
     id="g266">
    <g
       clip-path="url(#clipPath15807)"
       id="g264">
      <g
         transform="translate(77.5,711)"
         id="g262">
        <path
           d="m0 0c7.456 0 13.5 6.044 13.5 13.5s-6.044 13.5-13.5 13.5-13.5-6.044-13.5-13.5 6.044-13.5 13.5-13.5z"
           fill="none"
           stroke="#fff"
           stroke-miterlimit="10"
           stroke-width="4"
           id="path260" />
      </g>
    </g>
  </g>
  <g
     transform="matrix(.35277 0 0 -.35277 173.63 240.54)"
     id="g274">
    <g
       clip-path="url(#clipPath16001)"
       id="g272">
      <g
         transform="translate(455.91 931.53)"
         id="g270">
        <path
           d="m0 0c-0.742-1.039-4.75-2.821-8.165-3.563-4.305-0.891-6.531-1.633-8.758-2.82-2.969-1.782-4.601-4.009-4.305-6.087 0.149-0.445 3.711-5.64 7.868-11.578 4.304-5.938 7.868-10.985 8.016-11.134 0.149-0.297-0.445-0.297-2.524-0.148-6.531 0.445-12.469-2.969-15.142-8.314-0.742-1.632-0.89-2.523-0.89-4.453 0-4.453 2.376-8.016 6.829-10.094 1.781-0.742 2.375-0.891 6.086-0.891 4.007 0 4.156 0 6.829 1.336 7.125 3.414 10.093 10.095 7.125 16.181-0.594 1.336-4.305 7.719-8.313 14.251l-7.274 12.024h1.187c4.75 0.297 8.017 1.781 10.244 4.305 1.929 2.227 2.523 4.453 2.374 8.016-0.148 3.266-0.445 4.008-1.187 2.969"
           fill="#fff"
           id="path268" />
      </g>
    </g>
  </g>
  <g
     transform="matrix(.35277 0 0 -.35277 173.63 240.54)"
     id="g282">
    <g
       clip-path="url(#clipPath16093)"
       id="g280">
      <g
         transform="translate(784 902.31)"
         id="g278">
        <path
           d="m0 0c0-1.565-0.904-2.931-2.251-3.674l-27.781-18.472c-0.012-8e-3 -0.026-0.014-0.037-0.02l-0.017-0.011c-0.684-0.376-1.48-0.592-2.331-0.592-2.53 0-4.583 1.913-4.583 4.269v37c0 2.356 2.053 4.27 4.583 4.27 0.851 0 1.647-0.217 2.331-0.596l0.017-8e-3c0.011-9e-3 0.022-0.014 0.037-0.02l27.781-18.471c1.347-0.743 2.251-2.11 2.251-3.675"
           fill="#fff"
           id="path276" />
      </g>
    </g>
  </g>
  <g
     transform="matrix(.35277 0 0 -.35277 173.63 240.54)"
     id="g290">
    <g
       clip-path="url(#clipPath16477)"
       id="g288">
      <g
         transform="translate(223.75 708.35)"
         id="g286">
        <path
           d="m0 0c-15.123 0-27.418 12.329-27.418 27.486 0 1.382 1.111 2.505 2.487 2.505 1.379 0 2.499-1.123 2.499-2.505 0-12.4 10.06-22.487 22.432-22.487 12.375 0 22.443 10.087 22.443 22.487 0 1.382 1.112 2.505 2.488 2.505 1.378 0 2.499-1.123 2.499-2.505 0-15.157-12.304-27.486-27.43-27.486"
           fill="#fff"
           fill-rule="evenodd"
           id="path284" />
      </g>
    </g>
  </g>
  <g
     transform="matrix(.35277 0 0 -.35277 173.63 240.54)"
     id="g298">
    <g
       clip-path="url(#clipPath16579)"
       id="g296">
      <g
         transform="translate(390.75 139.35)"
         id="g294">
        <path
           d="m0 0c-15.123 0-27.418 12.329-27.418 27.485 0 1.383 1.111 2.506 2.487 2.506 1.379 0 2.499-1.123 2.499-2.506 0-12.398 10.06-22.486 22.432-22.486 12.375 0 22.443 10.088 22.443 22.486 0 1.383 1.112 2.506 2.488 2.506 1.378 0 2.499-1.123 2.499-2.506 0-15.156-12.304-27.485-27.43-27.485"
           fill="#fff"
           fill-rule="evenodd"
           id="path292" />
      </g>
    </g>
  </g>
  <g
     transform="matrix(.35277 0 0 -.35277 173.63 240.54)"
     id="g306">
    <g
       clip-path="url(#clipPath16709)"
       id="g304">
      <g
         transform="translate(423.93 686.39)"
         id="g302">
        <path
           d="m0 0c0.245-0.286 0.605-0.456 0.986-0.456 0.382 0 0.743 0.17 0.988 0.456l17.516 20.497c0.333 0.388 0.408 0.933 0.191 1.388-0.211 0.463-0.674 0.756-1.184 0.756h-9.93c-2.118 4.172-3.109 8.382-2.973 12.63 0.135 4.248 1.954 12.361 5.455 24.34-10.956-6.59-17.656-18.44-17.656-31.225v-5.745h-9.93c-0.51 0-0.966-0.293-1.184-0.756-0.211-0.462-0.135-1 0.191-1.388z"
           fill="#fff"
           id="path300" />
      </g>
    </g>
  </g>
  <g
     transform="matrix(.35277 0 0 -.35277 138.46 281.74)"
     id="g314">
    <g
       clip-path="url(#clipPath24218)"
       id="g312">
      <g
         transform="translate(9.1685 1040.9)"
         id="g310">
        <path
           d="m0 0 25.314 21.067-26.077 18.651c5.846 7.671 15.079 12.622 25.468 12.622 17.673 0 32-14.327 32-32s-14.327-32-32-32c-9.948 0-18.836 4.539-24.705 11.66m27.349 31.812c2.835 0 5.132 2.297 5.132 5.132 0 2.834-2.297 5.132-5.132 5.132-2.834 0-5.132-2.298-5.132-5.132 0-2.835 2.298-5.132 5.132-5.132"
           fill="#fff"
           fill-rule="evenodd"
           id="path308" />
      </g>
    </g>
  </g>
  <g
     transform="matrix(.35277 0 0 -.35277 138.46 281.74)"
     id="g322">
    <g
       clip-path="url(#clipPath24382)"
       id="g320">
      <g
         transform="translate(194.25 1130.3)"
         id="g318">
        <path
           d="m0 0c20.173-11.579 43.841 2 51.309 14.862 7.467 12.861 5.032 31.138-10.468 37.638s-45.487 6.611-54.5-9-6.515-31.922 13.659-43.5"
           fill="#fff"
           fill-rule="evenodd"
           id="path316" />
      </g>
    </g>
  </g>
  <g
     transform="matrix(.35277 0 0 -.35277 138.46 281.74)"
     id="g330">
    <g
       clip-path="url(#clipPath24650)"
       id="g328">
      <g
         transform="translate(473.86 1057.5)"
         id="g326">
        <path
           d="m0 0c1.657 0 3 1.501 3 3.353s-1.343 3.353-3 3.353c-1.656 0-3-1.501-3-3.353s1.344-3.353 3-3.353"
           fill="#fff"
           fill-rule="evenodd"
           id="path324" />
      </g>
    </g>
  </g>
  <g
     transform="matrix(.35277 0 0 -.35277 138.46 281.74)"
     id="g338">
    <g
       clip-path="url(#clipPath24700)"
       id="g336">
      <g
         transform="translate(493 1069.8)"
         id="g334">
        <path
           d="m0 0c1.657 0 3 1.501 3 3.353s-1.343 3.353-3 3.353-3-1.501-3-3.353 1.343-3.353 3-3.353"
           fill="#fff"
           fill-rule="evenodd"
           id="path332" />
      </g>
    </g>
  </g>
  <g
     transform="matrix(.35277 0 0 -.35277 138.46 281.74)"
     id="g346">
    <g
       clip-path="url(#clipPath24750)"
       id="g344">
      <g
         transform="translate(510 1048.8)"
         id="g342">
        <path
           d="m0 0c1.657 0 3 1.501 3 3.353s-1.343 3.353-3 3.353-3-1.501-3-3.353 1.343-3.353 3-3.353"
           fill="#fff"
           fill-rule="evenodd"
           id="path340" />
      </g>
    </g>
  </g>
  <g
     transform="matrix(.35277 0 0 -.35277 138.46 281.74)"
     id="g354">
    <g
       clip-path="url(#clipPath24864)"
       id="g352">
      <g
         transform="translate(806.5 1072.2)"
         id="g350">
        <path
           d="m0 0c-3.667-14-9.5-21.833-17.5-23.5"
           fill="none"
           stroke="#fff"
           stroke-linecap="round"
           stroke-miterlimit="10"
           id="path348" />
      </g>
    </g>
  </g>
  <g
     transform="matrix(.35277 0 0 -.35277 138.46 281.74)"
     id="g362">
    <g
       clip-path="url(#clipPath24896)"
       id="g360">
      <g
         transform="translate(802 1066.2)"
         id="g358">
        <path
           d="m0 0c-4.971 0-9 4.029-9 9s4.029 9 9 9 9-4.029 9-9-4.029-9-9-9m0 6c1.657 0 3 1.343 3 3s-1.343 3-3 3-3-1.343-3-3 1.343-3 3-3"
           fill="#fff"
           fill-rule="evenodd"
           id="path356" />
      </g>
    </g>
  </g>
  <g
     transform="matrix(.35277 0 0 -.35277 138.46 281.74)"
     id="g370">
    <g
       clip-path="url(#clipPath25070)"
       id="g368">
      <g
         transform="translate(122 495.24)"
         id="g366">
        <path
           d="m0 0h3c0.553 0 1-0.447 1-1v-2c0-0.553-0.447-1-1-1h-3c-0.553 0-1 0.447-1 1v2c0 0.553 0.447 1 1 1"
           fill="#fff"
           fill-rule="evenodd"
           id="path364" />
      </g>
    </g>
  </g>
  <g
     transform="matrix(.35277 0 0 -.35277 138.46 281.74)"
     id="g378">
    <g
       clip-path="url(#clipPath25100)"
       id="g376">
      <g
         transform="translate(204 495.24)"
         id="g374">
        <path
           d="m0 0h3c0.553 0 1-0.447 1-1v-2c0-0.553-0.447-1-1-1h-3c-0.553 0-1 0.447-1 1v2c0 0.553 0.447 1 1 1"
           fill="#fff"
           fill-rule="evenodd"
           id="path372" />
      </g>
    </g>
  </g>
  <g
     transform="matrix(.35277 0 0 -.35277 138.46 281.74)"
     id="g386">
    <g
       clip-path="url(#clipPath25502)"
       id="g384">
      <g
         transform="translate(805 482.24)"
         id="g382">
        <path
           d="m0 0c4.418 0 8 3.582 8 8s-3.582 8-8 8-8-3.582-8-8 3.582-8 8-8"
           fill="#fff"
           fill-rule="evenodd"
           id="path380" />
      </g>
    </g>
  </g>
  <g
     transform="matrix(.35277 0 0 -.35277 138.46 281.74)"
     id="g394">
    <g
       clip-path="url(#clipPath25686)"
       id="g392">
      <g
         transform="translate(658 1075.7)"
         id="g390">
        <path
           d="m0 0c0-4.694 3.806-8.5 8.5-8.5s8.5 3.806 8.5 8.5-3.806 8.5-8.5 8.5-8.5-3.806-8.5-8.5"
           fill="#fff"
           id="path388" />
      </g>
    </g>
  </g>
  <g
     transform="matrix(.35277 0 0 -.35277 138.46 281.74)"
     id="g400">
    <g
       clip-path="url(#clipPath25788)"
       id="g398">
      <path
         d="m465.44 1082.2h85.864v-75.319h-85.864zm64.45-25.106c-0.483 0.765-1.453 0.947-2.178 0.431l-15.504-11.01c-0.359-0.255-0.847-0.153-1.071 0.238l-18.271 31.869c-0.438 0.771-1.139 0.776-1.549-0.016l-1.807-3.514-21.07-47.452c13.336-18.44 48.336-26.94 73.836-3.44 0.841 0 6.477 6.246 6 7z"
         fill="#fff"
         fill-rule="evenodd"
         id="path396" />
    </g>
  </g>
  <g
     transform="matrix(.35277 0 0 -.35277 138.46 281.74)"
     id="g408">
    <g
       clip-path="url(#clipPath26420)"
       id="g406">
      <g
         transform="translate(-23 837.24)"
         id="g404">
        <path
           d="m0 0c18.778 0 34 15.222 34 34s-15.222 34-34 34-34-15.222-34-34 15.222-34 34-34z"
           fill="none"
           stroke="#fff"
           stroke-miterlimit="10"
           stroke-width="8"
           id="path402" />
      </g>
    </g>
  </g>
  <g
     transform="matrix(.35277 0 0 -.35277 138.46 281.74)"
     id="g414">
    <g
       clip-path="url(#clipPath26860)"
       id="g412">
      <path
         d="m644 721.24h82v-82h-82zm41-81c22.092 0 40 17.908 40 40s-17.908 40-40 40-40-17.908-40-40 17.908-40 40-40"
         fill="#fff"
         fill-rule="evenodd"
         id="path410" />
    </g>
  </g>
  <g
     transform="matrix(.35277 0 0 -.35277 138.46 281.74)"
     id="g422">
    <g
       clip-path="url(#clipPath27506)"
       id="g420">
      <g
         transform="translate(613.88 476.03)"
         id="g418">
        <path
           d="m0 0c0.187-0.771 0.148-1.502-0.116-2.193-0.266-0.692-0.678-1.303-1.239-1.833-0.561-0.531-1.247-0.949-2.057-1.255-0.81-0.305-1.683-0.457-2.617-0.457-5.889-0.033-11.156-0.049-15.798-0.049h-15.891c-1.122 0-2.111 0.209-2.968 0.627s-1.543 0.932-2.056 1.543c-0.515 0.611-0.858 1.279-1.029 2.002s-0.148 1.375 0.071 1.953c0.186 0.451 0.373 0.917 0.56 1.398 0.157 0.418 0.343 0.893 0.561 1.424 0.219 0.53 0.452 1.069 0.701 1.615l1.776 4.438h5.329l-2.01-6.077h30.099l-2.009 6.077h5.094c0.655-1.64 1.246-3.119 1.777-4.438 0.218-0.578 0.435-1.14 0.654-1.687 0.218-0.547 0.412-1.037 0.584-1.472 0.171-0.433 0.312-0.804 0.421-1.109 0.108-0.306 0.163-0.474 0.163-0.507m-22.922 9.236c-0.601 0.698-1.289 1.571-2.064 2.618-0.776 1.046-1.575 2.125-2.398 3.235-0.822 1.11-1.637 2.204-2.443 3.283-0.808 1.079-1.527 2.015-2.16 2.808-0.728 0.856-1.013 1.562-0.855 2.117s0.696 0.832 1.614 0.832c0.506-0.031 1.187-0.024 2.041 0.024 0.855 0.048 1.567 0.072 2.136 0.072 0.633 0 1.029 0.19 1.187 0.57 0.158 0.381 0.237 0.889 0.237 1.523 0 0.698-8e-3 1.467-0.024 2.308s-0.024 1.705-0.024 2.593-8e-3 1.76-0.023 2.617c-0.016 0.856-0.024 1.65-0.024 2.379 0 0.318 0.024 0.65 0.071 1 0.047 0.348 0.158 0.666 0.333 0.951 0.173 0.285 0.426 0.523 0.758 0.714 0.332 0.19 0.784 0.285 1.353 0.285 0.665 0 1.274 9e-3 1.827 0.024 0.555 0.016 1.195 0.024 1.923 0.024 1.044 0 1.748-0.246 2.112-0.737 0.364-0.492 0.562-1.277 0.593-2.356v-1.855c0-0.73 8e-3 -1.507 0.023-2.331 0.017-0.826 0.025-1.651 0.025-2.475v-2.236c0-0.92 0.095-1.659 0.284-2.213 0.191-0.555 0.617-0.817 1.282-0.785 0.475 0 1.052-0.016 1.732-0.047 0.68-0.032 1.274-0.049 1.78-0.049 0.855 0 1.4-0.23 1.638-0.69 0.237-0.46 0.071-1.054-0.498-1.784-0.602-0.76-1.298-1.68-2.089-2.759-0.791-1.08-1.606-2.197-2.445-3.355-0.838-1.158-1.661-2.284-2.467-3.379-0.807-1.094-1.528-2.037-2.16-2.83-0.57-0.73-1.116-1.103-1.637-1.119-0.523-0.016-1.069 0.326-1.638 1.023"
           fill="#fff"
           id="path416" />
      </g>
    </g>
  </g>
  <g
     transform="matrix(.35277 0 0 -.35277 138.46 281.74)"
     id="g430">
    <g
       clip-path="url(#clipPath27772)"
       id="g428">
      <g
         transform="translate(588.67 331.24)"
         id="g426">
        <path
           d="m0 0h-49.301c-2.41 0-4.367-1.941-4.367-4.299v-49.402c0-2.393 1.957-4.299 4.367-4.299h49.301c2.41 0 4.332 1.941 4.332 4.299v49.367c0 2.393-1.957 4.334-4.332 4.334m-33.403-53.008h-8.839v6.795h8.839zm-8.91 24.58h8.84v-6.795h-8.84zm8.945-15.566h-8.84v6.795h8.84zm12.998-9.014h-8.84v6.795h8.84zm-8.91 24.58h8.84v-6.795h-8.84zm8.944-15.566h-8.839v6.795h8.839zm13.277-9.014h-8.84v6.795h8.84zm-8.909 24.58h8.84v-6.795h-8.84zm8.945-15.566h-8.84v6.795h8.84zm5.276 24.441c0-2.392-1.957-4.299-4.368-4.299h-37.77c-2.411-0.035-4.367 1.907-4.367 4.299v10.054c0 2.392 1.956 4.333 4.332 4.333h37.805c2.411 0 4.368-1.941 4.368-4.333z"
           fill="#fff"
           id="path424" />
      </g>
    </g>
  </g>
  <g
     transform="matrix(.35277 0 0 -.35277 138.46 281.74)"
     id="g438">
    <g
       clip-path="url(#clipPath27864)"
       id="g436">
      <g
         transform="translate(609.3 312.46)"
         id="g434">
        <path
           d="m0 0h-0.72c-0.206 0-0.377 0-0.514-0.212-0.103-0.142-0.103-0.283-0.103-0.46v-0.566c0-0.178 0-0.319 0.103-0.461 0.137-0.212 0.308-0.212 0.514-0.212h0.72c0.205 0 0.376 0 0.514 0.212 0.102 0.142 0.102 0.283 0.102 0.461v0.566c0 0.213 0 0.318-0.102 0.46-0.138 0.212-0.275 0.212-0.514 0.212m-5.003 4.779h-2.947c-0.548 0-0.993-0.46-0.993-1.026v-2.407h0.993v2.407h2.947v-2.407h0.993v2.407c0 0.566-0.445 1.026-0.993 1.026m0-6.973h-2.947v2.407h-0.993v-2.407c0-0.567 0.411-1.027 0.993-1.027h2.947c0.582 0 0.993 0.46 0.993 1.027v2.407h-0.993zm-14.357 0h-2.947v2.584h-0.994v-2.584c0-0.567 0.411-1.027 0.994-1.027h2.947c0.583 0 0.994 0.46 0.994 1.027v2.584h-0.994zm0 6.973h-2.947c-0.548 0-0.994-0.46-0.994-1.026v-2.231h0.994v2.231h2.947v-2.231h0.994v2.231c0 0.566-0.446 1.026-0.994 1.026m7.195 0h-2.946c-0.549 0-0.994-0.46-0.994-1.026v-2.231h0.994v2.231h2.946v-2.231h0.994v2.231c0 0.566-0.445 1.026-0.994 1.026m0-6.973h-2.946v2.584h-0.994v-2.584c0-0.567 0.445-1.027 0.994-1.027h2.946c0.583 0 0.994 0.46 0.994 1.027v2.584h-0.994zm18.675 6.973h-2.947c-0.548 0-0.994-0.46-0.994-1.026v-2.584h0.994v2.584h2.947v-2.584h0.994v2.584c0 0.566-0.445 1.026-0.994 1.026m0-6.973h-2.947v2.23h-0.994v-2.23c0-0.567 0.446-1.027 0.994-1.027h2.947c0.583 0 0.994 0.46 0.994 1.027v2.23h-0.994zm7.195 0h-2.946v2.053h-0.994v-2.053c0-0.567 0.411-1.027 0.994-1.027h2.946c0.583 0 0.994 0.46 0.994 1.027v2.053h-0.994zm0 6.973h-2.946c-0.548 0-0.994-0.46-0.994-1.026v-2.761h0.994v2.761h2.946v-2.761h0.994v2.761c0 0.566-0.479 1.026-0.994 1.026"
           fill="#fff"
           id="path432" />
      </g>
    </g>
  </g>
  <g
     transform="matrix(.35277 0 0 -.35277 138.46 281.74)"
     id="g446">
    <g
       clip-path="url(#clipPath28028)"
       id="g444">
      <g
         transform="translate(766.75 130.24)"
         id="g442">
        <path
           d="m0 0h-15.75v6.693c0 1.239-1.013 2.307-2.307 2.307h-13.386c-1.239 0-2.307-1.013-2.307-2.307v-6.693h-15.75c-1.237 0-2.25-1.013-2.25-2.25v-11.25l27-4.5 27 4.5v11.25c0 1.237-1.013 2.25-2.25 2.25m-29.25 4.5h9v-4.5h-9zm9-16.875c0-0.619-0.506-1.125-1.125-1.125h-6.75c-0.619 0-1.125 0.506-1.125 1.125v2.25c0 0.619 0.506 1.125 1.125 1.125h6.75c0.619 0 1.125-0.506 1.125-1.125zm-4.5-7.875 27 4.5v-27c0-1.237-1.013-2.25-2.25-2.25h-49.5c-1.237 0-2.25 1.013-2.25 2.25v27z"
           fill="#fff"
           id="path440" />
      </g>
    </g>
  </g>
  <g
     transform="matrix(.35277 0 0 -.35277 138.46 281.74)"
     id="g454">
    <g
       clip-path="url(#clipPath28200)"
       id="g452">
      <g
         transform="translate(392 82.24)"
         id="g450">
        <path
           d="M 0,0 -4.35,3.941 C -19.8,17.953 -30,27.2 -30,38.516 -30,47.762 -22.755,55 -13.5,55 -8.28,55 -3.27,52.572 0,48.75 3.27,52.572 8.28,55 13.5,55 22.755,55 30,47.762 30,38.516 30,27.2 19.8,17.953 4.35,3.941 Z"
           fill="#fff"
           id="path448" />
      </g>
    </g>
  </g>
  <g
     transform="matrix(.35277 0 0 -.35277 138.46 281.74)"
     id="g462">
    <g
       clip-path="url(#clipPath28364)"
       id="g460">
      <g
         transform="translate(542.77 113.24)"
         id="g458">
        <path
           d="m0 0c0 2.621 0.885 4.8 2.689 6.604s3.983 2.689 6.604 2.689c2.622 0 4.801-0.885 6.604-2.689 1.805-1.804 2.69-3.983 2.69-6.604s-0.885-4.834-2.69-6.639c-1.803-1.803-3.982-2.689-6.604-2.689-2.621 0-4.809 0.877-6.604 2.689-1.813 1.83-2.689 4.051-2.689 6.639m-13.141-6.06c0.545-1.94 1.363-3.846 2.35-5.617l-6.128-7.523 6.944-6.945 7.524 6.127c1.769-0.986 3.71-1.803 5.65-2.382l1.022-9.6h10.008l1.022 9.6c1.94 0.579 3.778 1.396 5.651 2.382l7.49-6.127 7.012 6.945-6.162 7.523c0.953 1.771 1.805 3.677 2.383 5.617l9.601 1.056v10.008l-9.601 1.021c-0.578 1.941-1.43 3.745-2.383 5.618l6.162 7.523-7.012 7.013-7.49-6.161c-1.907 0.953-3.711 1.803-5.651 2.382l-1.022 9.6h-10.008l-1.022-9.6c-2.008-0.579-3.88-1.429-5.65-2.382l-7.524 6.161-6.944-7.013 6.128-7.523c-0.953-1.873-1.771-3.677-2.35-5.618l-9.633-1.021v-10.008z"
           fill="#fff"
           id="path456" />
      </g>
    </g>
  </g>
  <g
     transform="matrix(.35277 0 0 -.35277 138.46 281.74)"
     id="g468">
    <g
       clip-path="url(#clipPath28984)"
       id="g466">
      <path
         d="m473 698.24h13v-13h-13zm6.5-12c3.037 0 5.5 2.463 5.5 5.5 0 3.038-2.463 5.5-5.5 5.5s-5.5-2.462-5.5-5.5c0-3.037 2.463-5.5 5.5-5.5"
         fill="#fff"
         fill-rule="evenodd"
         id="path464" />
    </g>
  </g>
  <g
     transform="matrix(.35277 0 0 -.35277 138.46 281.74)"
     id="g474">
    <g
       clip-path="url(#clipPath29012)"
       id="g472">
      <path
         d="m473 676.24h13v-13h-13zm6.5-12c3.037 0 5.5 2.463 5.5 5.5 0 3.038-2.463 5.5-5.5 5.5s-5.5-2.462-5.5-5.5c0-3.037 2.463-5.5 5.5-5.5"
         fill="#fff"
         fill-rule="evenodd"
         id="path470" />
    </g>
  </g>
  <g
     transform="matrix(.35277 0 0 -.35277 138.46 281.74)"
     id="g480">
    <g
       clip-path="url(#clipPath29040)"
       id="g478">
      <path
         d="m467 687.24h13v-13h-13zm6.5-12c3.037 0 5.5 2.463 5.5 5.5 0 3.038-2.463 5.5-5.5 5.5s-5.5-2.462-5.5-5.5c0-3.037 2.463-5.5 5.5-5.5"
         fill="#fff"
         fill-rule="evenodd"
         id="path476" />
    </g>
  </g>
  <g
     transform="matrix(.35277 0 0 -.35277 138.46 281.74)"
     id="g486">
    <g
       clip-path="url(#clipPath29068)"
       id="g484">
      <path
         d="m486 698.24h13v-13h-13zm6.5-12c3.037 0 5.5 2.463 5.5 5.5 0 3.038-2.463 5.5-5.5 5.5s-5.5-2.462-5.5-5.5c0-3.037 2.463-5.5 5.5-5.5"
         fill="#fff"
         fill-rule="evenodd"
         id="path482" />
    </g>
  </g>
  <g
     transform="matrix(.35277 0 0 -.35277 138.46 281.74)"
     id="g492">
    <g
       clip-path="url(#clipPath29096)"
       id="g490">
      <path
         d="m486 676.24h13v-13h-13zm6.5-12c3.037 0 5.5 2.463 5.5 5.5 0 3.038-2.463 5.5-5.5 5.5s-5.5-2.462-5.5-5.5c0-3.037 2.463-5.5 5.5-5.5"
         fill="#fff"
         fill-rule="evenodd"
         id="path488" />
    </g>
  </g>
  <g
     transform="matrix(.35277 0 0 -.35277 138.46 281.74)"
     id="g498">
    <g
       clip-path="url(#clipPath29124)"
       id="g496">
      <path
         d="m480 687.24h13v-13h-13zm6.5-12c3.037 0 5.5 2.463 5.5 5.5 0 3.038-2.463 5.5-5.5 5.5s-5.5-2.462-5.5-5.5c0-3.037 2.463-5.5 5.5-5.5"
         fill="#fff"
         fill-rule="evenodd"
         id="path494" />
    </g>
  </g>
  <g
     transform="matrix(.35277 0 0 -.35277 138.46 281.74)"
     id="g504">
    <g
       clip-path="url(#clipPath29152)"
       id="g502">
      <path
         d="m493 687.24h13v-13h-13zm6.5-12c3.037 0 5.5 2.463 5.5 5.5 0 3.038-2.463 5.5-5.5 5.5s-5.5-2.462-5.5-5.5c0-3.037 2.463-5.5 5.5-5.5"
         fill="#fff"
         fill-rule="evenodd"
         id="path500" />
    </g>
  </g>
  <g
     transform="matrix(.35277 0 0 -.35277 138.46 281.74)"
     id="g510">
    <g
       clip-path="url(#clipPath29252)"
       id="g508">
      <path
         d="m161 327.24h73v-28h-73zm14-5h45c4.971 0 9-4.029 9-9 0-4.97-4.029-9-9-9h-45c-4.971 0-9 4.03-9 9 0 4.971 4.029 9 9 9"
         fill="#fff"
         fill-rule="evenodd"
         id="path506" />
    </g>
  </g>
  <g
     transform="matrix(.35277 0 0 -.35277 138.46 281.74)"
     id="g516">
    <g
       clip-path="url(#clipPath29280)"
       id="g514">
      <path
         d="m162 302.24h73v-28h-73zm14-5h45c4.971 0 9-4.029 9-9 0-4.97-4.029-9-9-9h-45c-4.971 0-9 4.03-9 9 0 4.971 4.029 9 9 9"
         fill="#fff"
         fill-rule="evenodd"
         id="path512" />
    </g>
  </g>
  <g
     transform="matrix(.35277 0 0 -.35277 138.46 281.74)"
     id="g524">
    <g
       clip-path="url(#clipPath29400)"
       id="g522">
      <g
         transform="translate(104.49 129.57)"
         id="g520">
        <path
           d="m0 0c-4.298-0.338-8.165-0.637-11.604-0.898-1.458-0.113-2.906-0.225-4.344-0.336-1.44-0.114-2.747-0.207-3.924-0.282-1.178-0.074-2.168-0.149-2.972-0.224-0.803-0.074-1.28-0.113-1.428-0.113-0.188-0.037-0.403-0.065-0.645-0.084-0.244-0.018-0.459-0.065-0.645-0.139l-0.673-0.225-2.467 1.121c0.187 0.263 0.412 0.506 0.674 0.731 0.185 0.186 0.42 0.364 0.7 0.533 0.28 0.168 0.569 0.27 0.868 0.309 0.225 0.037 0.822 0.093 1.795 0.168 0.971 0.074 2.167 0.168 3.588 0.28 0 0.486 0.047 1.15 0.14 1.992 0.092 0.841 0.317 1.674 0.672 2.497 0.356 0.822 0.869 1.553 1.541 2.188 0.673 0.636 1.589 1.009 2.747 1.123 1.346 0.111 2.439-0.094 3.281-0.618 0.84-0.523 1.494-1.169 1.961-1.935 0.467-0.768 0.795-1.553 0.981-2.358 0.187-0.804 0.299-1.43 0.337-1.878 1.606 0.111 2.942 0.205 4.008 0.279 1.064 0.076 1.653 0.131 1.765 0.169 0.412 0.038 0.87-0.038 1.373-0.225 0.505-0.186 0.907-0.43 1.206-0.729 0.075-0.075 0.177-0.188 0.308-0.336 0.131-0.151 0.252-0.3 0.365-0.449 0.149-0.151 0.28-0.337 0.392-0.561m-15.528 6.676c-0.709-0.074-1.28-0.326-1.709-0.757-0.43-0.431-0.758-0.944-0.982-1.543-0.223-0.599-0.374-1.206-0.448-1.823-0.075-0.617-0.112-1.114-0.112-1.488 1.159 0.076 2.344 0.169 3.559 0.281s2.402 0.206 3.56 0.281c-0.037 0.336-0.121 0.804-0.252 1.402-0.131 0.599-0.346 1.178-0.645 1.74-0.299 0.561-0.691 1.028-1.176 1.403-0.487 0.373-1.084 0.542-1.795 0.504m21.919-41.24c0.186-1.047 0.159-1.917-0.084-2.61-0.244-0.691-0.925-1.168-2.046-1.43-0.374-0.113-1.187-0.299-2.439-0.562-1.252-0.262-2.747-0.579-4.485-0.953-1.737-0.374-3.597-0.777-5.577-1.207-1.982-0.43-3.878-0.832-5.691-1.205-1.812-0.375-3.437-0.711-4.877-1.011-1.438-0.3-2.457-0.505-3.054-0.617-1.383-0.3-2.402-0.206-3.055 0.28-0.654 0.486-0.982 1.217-0.982 2.189v34.452c0 0.934 0.197 1.691 0.589 2.271 0.393 0.58 0.962 0.889 1.709 0.926 0.299 0 0.664 0.02 1.094 0.057s0.85 0.074 1.261 0.112c0.485 0.037 0.991 0.075 1.514 0.112l0.504-8.023c-0.037-0.038-0.112-0.057-0.224-0.057-0.074 0-0.187-0.01-0.336-0.027-0.15-0.02-0.318-0.029-0.505-0.029-0.784-0.075-1.159-0.542-1.121-1.403 0.038-0.336 0.075-0.805 0.112-1.402 0.037-0.599 0.066-1.225 0.084-1.88 0.019-0.655 0.047-1.29 0.084-1.907s0.074-1.114 0.113-1.488c0.037-0.711 0.149-1.112 0.336-1.206 0.186-0.093 0.598-0.14 1.233-0.14h0.785c0.225 0 0.439 0.01 0.645 0.027 0.205 0.02 0.439 0.038 0.701 0.057 0.261 0.018 0.597 0.047 1.008 0.084 0.785 0.075 1.29 0.243 1.513 0.506 0.225 0.261 0.319 0.654 0.281 1.177 0 0.262-0.028 0.721-0.084 1.375-0.056 0.655-0.113 1.337-0.168 2.048-0.056 0.71-0.103 1.384-0.14 2.02-0.037 0.635-0.074 1.085-0.112 1.346-0.076 0.45-0.168 0.768-0.281 0.954-0.112 0.187-0.318 0.262-0.617 0.224-0.148 0-0.299-9e-3 -0.447-0.027-0.151-0.019-0.3-0.028-0.449-0.028h-0.449l-0.505 7.967c2.542 0.225 4.877 0.412 7.008 0.561 0.897 0.076 1.803 0.15 2.719 0.224 0.916 0.076 1.766 0.141 2.551 0.198 0.785 0.055 1.476 0.111 2.074 0.168 0.598 0.056 1.046 0.103 1.346 0.14 1.083 0.074 1.942-0.113 2.578-0.561 0.635-0.449 1.027-1.122 1.178-2.021 0.037-0.299 0.168-1.196 0.391-2.693 0.224-1.496 0.505-3.291 0.841-5.386s0.691-4.349 1.065-6.761c0.374-2.413 0.729-4.667 1.066-6.761 0.336-2.095 0.625-3.891 0.869-5.387 0.242-1.496 0.4-2.395 0.476-2.693m-35.261-4.881c0-0.525 0.028-0.983 0.084-1.375 0.057-0.393 0.122-0.701 0.197-0.926 0.074-0.299 0.168-0.524 0.279-0.674-0.933 0.486-1.831 0.973-2.69 1.459-0.747 0.412-1.495 0.832-2.242 1.263-0.747 0.43-1.383 0.795-1.906 1.094-0.972 0.561-1.635 1.235-1.99 2.02s-0.439 1.608-0.253 2.469c0.076 0.224 0.244 1.047 0.505 2.469 0.262 1.421 0.588 3.142 0.981 5.162 0.392 2.019 0.803 4.189 1.233 6.508 0.43 2.32 0.831 4.49 1.205 6.509 0.374 2.02 0.701 3.76 0.982 5.218 0.28 1.459 0.439 2.319 0.476 2.581 0.15 0.823 0.42 1.459 0.813 1.908 0.392 0.449 0.849 0.561 1.373 0.336 0.299-0.149 0.543-0.317 0.728-0.504 0.114-0.113 0.188-0.207 0.225-0.281z"
           fill="#fff"
           id="path518" />
      </g>
    </g>
  </g>
  <path
     d="m8.3227 3.9737c-0.38578 0-0.75146 0.044299-1.0971 0.13267-0.33757 0.088298-0.64301 0.20499-0.91628 0.34963l0.31344 0.86819c0.50634-0.27326 1.0249-0.40989 1.5553-0.40989 0.41794 0 0.73548 0.10829 0.95248 0.32534 0.217 0.20897 0.32534 0.48225 0.32534 0.81982 0 0.20896-0.04813 0.40196-0.14457 0.57879-0.08841 0.17676-0.20499 0.34561-0.34964 0.50637-0.14467 0.1607-0.29727 0.32131-0.45801 0.48208-0.16074 0.15277-0.3136 0.32151-0.45827 0.50637-0.14467 0.17675-0.2651 0.3698-0.36155 0.57879-0.08842 0.20897-0.13266 0.44185-0.13266 0.69903 0 0.17675 0.01605 0.34565 0.04811 0.50639h0.94033c-0.0081-0.0403-0.01199-0.0841-0.01199-0.13246v-0.13266c0-0.26522 0.05223-0.50249 0.15672-0.71144 0.10448-0.217 0.23315-0.41387 0.38586-0.59069 0.15269-0.18487 0.32126-0.36163 0.50612-0.53042 0.18485-0.16883 0.35366-0.34559 0.50638-0.53043 0.15272-0.18487 0.28138-0.38171 0.38586-0.59066 0.10448-0.21704 0.15672-0.46224 0.15672-0.73551 0-0.217-0.03602-0.44192-0.10836-0.675-0.064296-0.24111-0.18497-0.4583-0.36181-0.65119-0.17681-0.193-0.41382-0.3496-0.71121-0.47016-0.28934-0.12861-0.66324-0.19301-1.1214-0.19301zm-0.193 7.0891c-0.24916 0-0.44602 0.0802-0.59069 0.24102-0.14467 0.16071-0.21698 0.34961-0.21698 0.56665 0 0.21702 0.0723 0.40586 0.21698 0.56663 0.14467 0.1607 0.34153 0.2413 0.59069 0.2413 0.24916 0 0.44626-0.0806 0.59094-0.2413 0.14467-0.1607 0.21698-0.34961 0.21698-0.56663s-0.0723-0.40589-0.21698-0.56665c-0.14467-0.1607-0.34178-0.24102-0.59094-0.24102z"
     enable-background="new"
     fill="#fff"
     stroke-width="2.0316"
     id="path526" />
  <circle
     cx="2.4051261"
     cy="6.3321395"
     fill="url(#b)"
     r="0"
     id="circle15"
     style="fill:url(#b);stroke-width:0.388948" />
  <circle
     cx="28.287472"
     cy="8.4665003"
     r="0"
     fill="url(#b)"
     stroke-width="0.415785"
     id="circle1093"
     style="fill:url(#b-6)" />
  <g
     transform="matrix(0.26457812,0,0,0.26457812,1.2235114,-1.5992685)"
     fill="#5e4aa6"
     id="g1141">
    <circle
       cx="-1248.7"
       cy="-1241.6"
       r="0"
       id="circle1099" />
    <circle
       cx="-149.14999"
       cy="23.855"
       r="0"
       fill-rule="evenodd"
       id="circle1101" />
    <circle
       cx="-1248.7"
       cy="-1241.6"
       r="0"
       id="circle1103" />
    <circle
       cx="-149.14999"
       cy="23.855"
       r="0"
       fill-rule="evenodd"
       id="circle1105" />
    <circle
       cx="-1150.9"
       cy="-1256.6"
       r="0"
       id="circle1107" />
    <circle
       cx="-51.327"
       cy="8.8744001"
       r="0"
       fill-rule="evenodd"
       id="circle1109" />
    <g
       transform="matrix(3.7796,0,0,3.7796,167.86,4.61)"
       stroke-width="0.26458"
       id="g1139">
      <g
         transform="translate(-0.0272,0.0065001)"
         id="g1127">
        <circle
           cx="-330.35001"
           cy="-328.38"
           r="0"
           id="circle1111" />
        <circle
           cx="-312.10999"
           cy="-326.25"
           r="0"
           id="circle1113" />
        <circle
           cx="-306.01999"
           cy="-333.07001"
           r="0"
           id="circle1115" />
        <circle
           cx="-308.84"
           cy="-326.01001"
           r="0"
           id="circle1117" />
        <circle
           cx="-330.35001"
           cy="-328.38"
           r="0"
           id="circle1119" />
        <circle
           cx="-312.10999"
           cy="-326.25"
           r="0"
           id="circle1121" />
        <circle
           cx="-306.01999"
           cy="-333.07001"
           r="0"
           id="circle1123" />
        <circle
           cx="-308.84"
           cy="-326.01001"
           r="0"
           id="circle1125" />
      </g>
      <g
         transform="translate(-0.02705,0.0064503)"
         id="g1137">
        <circle
           cx="-330.35001"
           cy="-328.38"
           r="0"
           id="circle1129" />
        <circle
           cx="-312.10999"
           cy="-326.25"
           r="0"
           id="circle1131" />
        <circle
           cx="-306.01999"
           cy="-333.07001"
           r="0"
           id="circle1133" />
        <circle
           cx="-308.84"
           cy="-326.01001"
           r="0"
           id="circle1135" />
      </g>
    </g>
  </g>
  <g
     id="g878"
     transform="matrix(0.33775929,0,0,0.33775929,22.162343,0.22869495)">
    <g
       transform="translate(1,1)"
       id="g876">
      <g
         style="opacity:0.1"
         id="g874">
        <!-- color: #ffb61d -->
      </g>
    </g>
  </g>
  <circle
     cx="-269.7644"
     cy="-331.05576"
     r="0"
     fill="#5e4aa6"
     id="circle16"
     style="stroke-width:0.264578" />
  <circle
     cx="21.145588"
     cy="3.7657325"
     r="0"
     fill="#5e4aa6"
     fill-rule="evenodd"
     id="circle18-3"
     style="stroke-width:0.264578" />
  <circle
     cx="18.873245"
     cy="3.1200292"
     fill="url(#a)"
     r="0"
     id="circle4299"
     style="fill:url(#linearGradient982);stroke-width:0.397134" />
  <circle
     cx="-337.60483"
     cy="-337.03952"
     r="0"
     fill="#5e4aa6"
     id="circle847"
     style="stroke-width:0.264578" />
  <circle
     cx="-46.687962"
     cy="-2.2278163"
     r="0"
     fill-rule="evenodd"
     id="circle853"
     style="fill:#5e4aa6;stroke-width:0.264578" />
  <circle
     cx="-311.7291"
     cy="-341.00818"
     r="0"
     id="circle855"
     style="fill:#5e4aa6;stroke-width:0.264578" />
  <circle
     cx="-20.806137"
     cy="-6.1913548"
     r="0"
     fill-rule="evenodd"
     id="circle857"
     style="fill:#5e4aa6;stroke-width:0.264578" />
</svg>
