<?xml version="1.0" encoding="UTF-8"?>
<svg width="64" height="64" version="1.1" viewBox="0 0 64 64" xmlns="http://www.w3.org/2000/svg" xmlns:xlink="http://www.w3.org/1999/xlink">
 <defs>
  <filter id="filter1057-5" x="-.027" y="-.027" width="1.054" height="1.054" color-interpolation-filters="sRGB">
   <feGaussianBlur stdDeviation="0.61875"/>
  </filter>
  <linearGradient id="linearGradient1053-92" x1="-127" x2="-72" y1="60" y2="5" gradientTransform="matrix(1 0 0 1 184.57 34.862)" gradientUnits="userSpaceOnUse">
   <stop stop-color="#32d7ff" offset="0"/>
   <stop stop-color="#329bff" offset="1"/>
  </linearGradient>
  <linearGradient id="linearGradient13955" x1="2.0208" x2="14.938" y1="12.86" y2="4.0527" gradientTransform="matrix(3.6508 .97823 -.97823 3.6508 62.568 28.291)" gradientUnits="userSpaceOnUse">
   <stop stop-color="#fff" offset="0"/>
   <stop stop-color="#fff" offset="1"/>
  </linearGradient>
  <linearGradient id="linearGradient1223" x1="12.902" x2="51.847" y1="30.471" y2="30.471" gradientTransform="matrix(.091859 -.012702 .012702 .091859 65.708 39.518)" gradientUnits="userSpaceOnUse" xlink:href="#linearGradient13963"/>
  <linearGradient id="linearGradient13963" x1="12.902" x2="51.847" y1="30.471" y2="30.471" gradientTransform="matrix(.88217 -.12198 .12198 .88217 32.107 -4.6962)" gradientUnits="userSpaceOnUse">
   <stop stop-color="#00c8ff" offset="0"/>
   <stop stop-color="#14b4ff" offset="1"/>
  </linearGradient>
  <linearGradient id="linearGradient1235" x1="12.902" x2="51.847" y1="30.471" y2="30.471" gradientTransform="matrix(.88216 -.12198 .12198 .88216 84.799 32.204)" gradientUnits="userSpaceOnUse" xlink:href="#linearGradient13963"/>
  <linearGradient id="linearGradient1285" x1="12.902" x2="51.847" y1="30.471" y2="30.471" gradientTransform="matrix(.88216 -.12198 .12198 .88216 84.799 31.869)" gradientUnits="userSpaceOnUse" xlink:href="#linearGradient13963"/>
 </defs>
 <g transform="translate(-53.065 -35.372)">
  <rect transform="matrix(1 0 0 1 53.065 35.372)" x="4.5" y="4.5" width="55" height="55" ry="15" fill="#141414" filter="url(#filter1057-5)" image-rendering="optimizeSpeed" opacity=".3" stroke-linecap="round" stroke-width="2.7444"/>
  <rect x="57.567" y="39.872" width="55.001" height="55.001" ry="15" fill="url(#linearGradient1053-92)" image-rendering="optimizeSpeed" stroke-linecap="round" stroke-width="2.7444"/>
  <path d="m105.75 78.754-41.379 1.36e-4c-1.1103-1.2e-5 -2.0105-1.0358-2.0105-2.3136l2.42e-4 -18.141c1.5e-5 -1.2778 0.90022-2.3136 2.0105-2.3136l41.379-1.36e-4c1.1104 1.6e-5 2.0105 1.0359 2.0105 2.3136l-2.4e-4 18.141c-2e-5 1.2778-0.90023 2.3136-2.0105 2.3136z" fill="url(#linearGradient13955)" stroke="#fafafa" stroke-width=".5"/>
  <g fill="url(#linearGradient1223)" stroke-width=".10413">
   <path d="m104.07 67.888-2.2438 8e-6c-0.25584 0-0.46315 0.20731-0.46315 0.46319l1e-5 2.7876c0 0.25584 0.20731 0.46315 0.46319 0.46315l2.2438-8e-6c0.25585 0 0.46319-0.20742 0.46316-0.46319l-1e-5 -2.7876c0-0.25573-0.20731-0.46315-0.46319-0.46315z"/>
   <path d="m104.54 66.694-1e-5 -3.152c0-0.25584-0.20743-0.46319-0.46319-0.46315l-2.2438 8e-6c-0.25584 0-0.46319 0.20742-0.46315 0.46319v3.152c1e-5 0.25584 0.20732 0.46315 0.46319 0.46315l2.2438-8e-6c0.25584 0 0.46319-0.20731 0.46319-0.46319z"/>
   <path d="m98.031 71.599 2.1453-7e-6c0.25584 0 0.46319-0.20742 0.46315-0.46319l-1e-5 -2.7876c0-0.25584-0.20742-0.46315-0.46319-0.46315l-2.1453 8e-6c-0.25584 0-0.46315 0.20731-0.46315 0.46319l8e-6 2.7876c4e-6 0.25573 0.20731 0.46315 0.46319 0.46315z"/>
   <path d="m98.031 76.407 2.1453-8e-6c0.25584 0 0.46319-0.20742 0.46319-0.46319l-1e-5 -3.152c0-0.25584-0.20743-0.46319-0.46319-0.46315l-2.1453 4e-6c-0.25584 3e-6 -0.46315 0.20731-0.46315 0.46319l8e-6 3.152c4e-6 0.25584 0.20731 0.46315 0.46319 0.46315z"/>
   <path d="m98.031 67.158 2.1453-8e-6c0.25584-4e-6 0.46319-0.20742 0.46319-0.46319l-1e-5 -3.152c0-0.25584-0.20743-0.46315-0.46319-0.46315l-2.1453 7e-6c-0.25584 0-0.46319 0.20742-0.46315 0.46319l8e-6 3.152c4e-6 0.25584 0.20731 0.46319 0.46319 0.46319z"/>
   <path d="m101.37 72.794 1e-5 3.152c0 0.25584 0.20732 0.46315 0.4632 0.46315l2.2438-8e-6c0.25584 0 0.46316-0.20742 0.46316-0.46319l-2e-5 -3.152c0-0.25584-0.20742-0.46319-0.46319-0.46315l-2.2438 7e-6c-0.25585 0-0.46316 0.20731-0.46316 0.46319z"/>
  </g>
  <g fill="url(#linearGradient1235)">
   <g stroke-width=".10413">
    <path d="m74.711 75.965-1.2e-5 -3.1885c0-0.24575-0.19922-0.44493-0.44493-0.44493l-3.223 1.1e-5c-0.24575 0-0.44494 0.19918-0.44494 0.44494l1.1e-5 3.1885c0 0.24575 0.19918 0.44494 0.44497 0.44494l3.223-1.2e-5c0.24575 0 0.44493-0.19918 0.44493-0.44494z"/>
    <path d="m76.922 67.888-3.223 1.1e-5c-0.24575 0-0.44494 0.19918-0.44494 0.44494l8e-6 2.824c0 0.24575 0.19918 0.44494 0.44494 0.44494l3.223-1.1e-5c0.24575 0 0.44494-0.19918 0.44494-0.44494l-7e-6 -2.824c1.02e-4 -0.24575-0.19918-0.44494-0.44497-0.44494z"/>
    <path d="m83.952 72.329-8.0649 2.7e-5c-0.24575 0-0.44494 0.19918-0.44494 0.44494l1.1e-5 3.1885c0 0.24575 0.19918 0.44493 0.44494 0.44493l8.0649-2.6e-5c0.24575-4e-6 0.44494-0.19918 0.44494-0.44497l-1.2e-5 -3.1885c1.06e-4 -0.24575-0.19918-0.44493-0.44493-0.44493z"/>
    <path d="m68.724 68.33 8e-6 2.824c0 0.24575 0.19918 0.44493 0.44493 0.44493l2.9106-1.1e-5c0.24575 0 0.44494-0.19918 0.44494-0.44494l-8e-6 -2.824c0-0.24575-0.19918-0.44494-0.44493-0.44494l-2.9105 8e-6c-0.24575-1.02e-4 -0.44505 0.19911-0.44505 0.44497z"/>
    <path d="m78.098 68.33 1.1e-5 2.824c0 0.24575 0.19918 0.44493 0.44494 0.44493l3.2228-1.1e-5c0.24575 0 0.44494-0.19922 0.44494-0.44494l-1.2e-5 -2.824c0-0.24575-0.19922-0.44494-0.44493-0.44494l-3.2228 1.2e-5c-0.24575-1.02e-4 -0.44494 0.19911-0.44494 0.44493z"/>
    <path d="m85.57 76.407 3.223-1.1e-5c0.24575 0 0.44494-0.19918 0.44494-0.44494l-1.2e-5 -3.1885c0-0.24575-0.19918-0.44494-0.44493-0.44494l-3.223 1.1e-5c-0.24575 0-0.44494 0.19922-0.44494 0.44494l1.1e-5 3.1885c0 0.24575 0.19918 0.44494 0.44494 0.44494z"/>
    <path d="m74.711 66.712-1.2e-5 -3.1885c0-0.24575-0.19918-0.44494-0.44493-0.44494l-3.223 1.1e-5c-0.24575 0-0.44494 0.19922-0.44494 0.44494l1.1e-5 3.1885c0 0.24575 0.19918 0.44494 0.44494 0.44494l3.223-1.2e-5c0.24575 0 0.44494-0.19918 0.44494-0.44493z"/>
    <path d="m66.037 71.603 1.5124-8e-6c0.24575 0 0.44494-0.19918 0.44494-0.44494l-1.2e-5 -2.824c0-0.24575-0.19918-0.44494-0.44494-0.44494l-1.5124 4e-6c-0.24575 0-0.44494 0.19922-0.44494 0.44494l8e-6 2.824c-1.03e-4 0.24564 0.19911 0.44494 0.44497 0.44494z"/>
    <path d="m66.037 76.407 3.3866-1.1e-5c0.24575 0 0.44494-0.19918 0.44494-0.44494l-1.2e-5 -3.1885c0-0.24575-0.19918-0.44494-0.44493-0.44494l-3.3866 1.1e-5c-0.24575 0-0.44494 0.19918-0.44494 0.44494l8e-6 3.1885c-1.03e-4 0.24575 0.19911 0.44494 0.44497 0.44494z"/>
    <path d="m66.037 67.158 3.3866-1.2e-5c0.24575-3e-6 0.44494-0.19918 0.44494-0.44497l-1.2e-5 -3.1885c0-0.24575-0.19918-0.44494-0.44493-0.44494l-3.3866 1.1e-5c-0.24575 0-0.44494 0.19918-0.44494 0.44494l8e-6 3.1885c-1.03e-4 0.24575 0.19911 0.44494 0.44497 0.44494z"/>
    <path d="m79.553 66.712-1.2e-5 -3.1885c0-0.24575-0.19918-0.44494-0.44497-0.44494l-3.223 1.1e-5c-0.24575 0-0.44494 0.19918-0.44494 0.44494l1.2e-5 3.1885c0 0.24575 0.19918 0.44494 0.44493 0.44494l3.223-1.2e-5c0.24564 0 0.44494-0.19922 0.44494-0.44493z"/>
    <path d="m86.605 67.888-3.223 1.1e-5c-0.24575 0-0.44493 0.19922-0.44493 0.44494l7e-6 2.824c4e-6 0.24575 0.19918 0.44494 0.44497 0.44494l3.223-8e-6c0.24575-3e-6 0.44493-0.19918 0.44493-0.44497l-1.1e-5 -2.824c1.02e-4 -0.24575-0.19918-0.44494-0.44494-0.44494z"/>
    <path d="m84.394 66.712-8e-6 -3.1885c-3e-6 -0.24575-0.19918-0.44494-0.44497-0.44494l-3.2228 8e-6c-0.24575 3e-6 -0.44494 0.19918-0.44494 0.44497l1.2e-5 3.1885c0 0.24575 0.19918 0.44494 0.44493 0.44494l3.2228-1.1e-5c0.24564-4e-6 0.44494-0.19919 0.44494-0.44497z"/>
   </g>
   <path d="m93.609 67.888-5.3685 1.5e-5c-0.25399 4e-6 -0.45986 0.19922-0.45986 0.44497l1.1e-5 2.824c0 0.24575 0.20588 0.44494 0.45986 0.44494l5.3685-1.9e-5c0.25399 0 0.45986-0.19922 0.45986-0.44494l-1.1e-5 -2.824c0-0.24575-0.20588-0.44494-0.45986-0.44494z" stroke-width=".10586"/>
   <g stroke-width=".10413">
    <path d="m89.236 66.712-1.1e-5 -3.1885c0-0.24575-0.19918-0.44494-0.44494-0.44494l-3.223 1.1e-5c-0.24575 0-0.44494 0.19918-0.44494 0.44494l1.2e-5 3.1885c0 0.24575 0.19918 0.44494 0.44494 0.44494l3.223-1.2e-5c0.24564 0 0.44494-0.19918 0.44494-0.44493z"/>
    <path d="m74.711 61.969-1.2e-5 -3.1885c0-0.24575-0.19918-0.44494-0.44493-0.44494l-3.223 1.2e-5c-0.24575 0-0.44494 0.19918-0.44494 0.44494l1.1e-5 3.1885c0 0.24575 0.19918 0.44493 0.44494 0.44493l3.223-1.1e-5c0.24575 0 0.44494-0.19918 0.44494-0.44494z"/>
    <path d="m66.037 62.411 3.3866-1.2e-5c0.24575 0 0.44494-0.19922 0.44494-0.44493l-1.2e-5 -3.1885c0-0.24575-0.19918-0.44494-0.44493-0.44494l-3.3866 1.1e-5c-0.24575 0-0.44494 0.19918-0.44494 0.44494l1.1e-5 3.1885c-1.02e-4 0.24575 0.19911 0.44494 0.44494 0.44494z"/>
    <path d="m79.553 61.969-8e-6 -3.1885c-4e-6 -0.24575-0.19918-0.44494-0.44497-0.44494l-3.223 1.2e-5c-0.24575 0-0.44494 0.19918-0.44494 0.44494l8e-6 3.1885c3e-6 0.24575 0.19918 0.44493 0.44497 0.44493l3.223-1.1e-5c0.24564 0 0.44494-0.19918 0.44494-0.44494z"/>
    <path d="m84.394 61.969-1.1e-5 -3.1885c0-0.24575-0.19922-0.44494-0.44494-0.44494l-3.2228 1.2e-5c-0.24575 0-0.44494 0.19918-0.44494 0.44494l1.2e-5 3.1885c0 0.24575 0.19918 0.44493 0.44493 0.44493l3.2228-1.1e-5c0.24564 0 0.44494-0.19918 0.44494-0.44494z"/>
    <path d="m89.236 61.969-1.1e-5 -3.1885c0-0.24575-0.19918-0.44494-0.44497-0.44494l-3.223 8e-6c-0.24575 4e-6 -0.44493 0.19922-0.44493 0.44497l1.1e-5 3.1885c0 0.24575 0.19918 0.44493 0.44494 0.44493l3.223-1.1e-5c0.24564-4e-6 0.44493-0.19918 0.44493-0.44494z"/>
    <path d="m94.081 61.969-1.1e-5 -3.1885c0-0.24575-0.19918-0.44494-0.44497-0.44494l-3.223 1.2e-5c-0.24575 4e-6 -0.44494 0.19918-0.44494 0.44497l8e-6 3.1885c4e-6 0.24575 0.19918 0.44494 0.44497 0.44494l3.223-7e-6c0.24564-4e-6 0.44494-0.19918 0.44494-0.44497z"/>
    <path d="m94.081 66.712-1.1e-5 -3.1885c0-0.24575-0.19918-0.44494-0.44494-0.44494l-3.223 1.1e-5c-0.24575 0-0.44494 0.19922-0.44494 0.44494l1.2e-5 3.1885c0 0.24575 0.19918 0.44494 0.44493 0.44494l3.223-1.2e-5c0.24564 0 0.44494-0.19918 0.44494-0.44493z"/>
    <path d="m94.081 75.965-1.1e-5 -3.1885c0-0.24575-0.19922-0.44493-0.44494-0.44493l-3.223 1.1e-5c-0.24575 0-0.44494 0.19918-0.44494 0.44494l1.2e-5 3.1885c0 0.24575 0.19918 0.44494 0.44493 0.44494l3.223-1.2e-5c0.24564 0 0.44494-0.19918 0.44494-0.44494z"/>
   </g>
  </g>
  <g fill="url(#linearGradient1285)">
   <path d="m98.957 60.367a0.69511 0.69511 0 0 1-0.66755 0.69458 0.69511 0.69511 0 0 1-0.7205-0.63951 0.69511 0.69511 0 0 1 0.6104-0.7453 0.69511 0.69511 0 0 1 0.76892 0.5804" style="paint-order:stroke fill markers"/>
   <path d="m101.75 60.367a0.69511 0.69511 0 0 1-0.66755 0.69458 0.69511 0.69511 0 0 1-0.72051-0.63951 0.69511 0.69511 0 0 1 0.61041-0.7453 0.69511 0.69511 0 0 1 0.76892 0.5804" style="paint-order:stroke fill markers"/>
   <path d="m104.54 60.367a0.69511 0.69511 0 0 1-0.66755 0.69458 0.69511 0.69511 0 0 1-0.72051-0.63951 0.69511 0.69511 0 0 1 0.61041-0.7453 0.69511 0.69511 0 0 1 0.76892 0.5804" style="paint-order:stroke fill markers"/>
  </g>
 </g>
</svg>
