<?xml version="1.0" encoding="UTF-8"?>
<!-- Created with Inkscape (http://www.inkscape.org/) -->
<svg width="64" height="64" version="1.1" viewBox="0 0 16.933 16.933" xmlns="http://www.w3.org/2000/svg" xmlns:cc="http://creativecommons.org/ns#" xmlns:dc="http://purl.org/dc/elements/1.1/" xmlns:rdf="http://www.w3.org/1999/02/22-rdf-syntax-ns#">
 <defs>
  <filter id="filter2761" x="-.024" y="-.024" width="1.048" height="1.048" color-interpolation-filters="sRGB">
   <feGaussianBlur stdDeviation="0.14552168"/>
  </filter>
  <linearGradient id="linearGradient1024-1" x1="1.3315" x2="15.65" y1="15.576" y2="1.17" gradientTransform="translate(0 -.07421)" gradientUnits="userSpaceOnUse">
   <stop stop-color="#00c8ff" offset="0"/>
   <stop stop-color="#14a0ff" offset="1"/>
  </linearGradient>
  <filter id="filter1655" x="-.0735" y="-.098" width="1.147" height="1.196" color-interpolation-filters="sRGB">
   <feGaussianBlur stdDeviation="0.32410824"/>
  </filter>
 </defs>
 <metadata>
  <rdf:RDF>
   <cc:Work rdf:about="">
    <dc:format>image/svg+xml</dc:format>
    <dc:type rdf:resource="http://purl.org/dc/dcmitype/StillImage"/>
    <dc:title/>
   </cc:Work>
  </rdf:RDF>
 </metadata>
 <path d="m10.709 1.05c4.405 0 5.0345 0.67282 5.0345 5.388v3.7761c0 4.7152-0.62954 5.388-5.0345 5.388h-4.4832c-4.405 0-5.0346-0.6728-5.0346-5.388v-3.7761c0-4.7152 0.62954-5.388 5.0346-5.388z" enable-background="new" fill="#141414" filter="url(#filter2761)" opacity=".3"/>
 <path d="m10.709 0.97579c4.405 0 5.0345 0.67282 5.0345 5.388v3.7761c0 4.7152-0.62954 5.388-5.0345 5.388h-4.4832c-4.405 0-5.0346-0.6728-5.0346-5.388v-3.7761c0-4.7152 0.62954-5.388 5.0346-5.388z" enable-background="new" fill="url(#linearGradient1024-1)"/>
 <g transform="translate(-.48439 -.74382)" fill="#0f9bff" filter="url(#filter1655)">
  <rect x="3.6602" y="5.027" width="10.583" height="7.9373" ry="1.1978"/>
  <path d="m4.858 5.027c-0.35542 0-0.67034 0.15618-0.88933 0.40048l4.6358 3.9051a0.4911 0.41369 0 0 0 0.025839 0.020153 0.4911 0.41369 0 0 0 0.038239 0.025321 0.4911 0.41369 0 0 0 0.04134 0.022221 0.4911 0.41369 0 0 0 0.043923 0.018603 0.4911 0.41369 0 0 0 0.046508 0.014469 0.4911 0.41369 0 0 0 0.047026 0.011369 0.4911 0.41369 0 0 0 0.048574 0.0062 0.4911 0.41369 0 0 0 0.048576 0.0031 0.4911 0.41369 0 0 0 0.04909-0.00155 0.4911 0.41369 0 0 0 0.048576-0.00568 0.4911 0.41369 0 0 0 0.048058-0.00982 0.4911 0.41369 0 0 0 0.046507-0.013436 0.4911 0.41369 0 0 0 0.044441-0.01757 0.4911 0.41369 0 0 0 0.041856-0.021187 0.4911 0.41369 0 0 0 0.03979-0.024287 0.4911 0.41369 0 0 0 0.036173-0.027905l4.6358-3.9051c-0.21899-0.24431-0.53391-0.40048-0.88933-0.40048z"/>
  <path d="m13.935 5.4275-8.9471 7.5369h8.0577c0.66358 0 1.1978-0.53426 1.1978-1.1978v-5.5417c0-0.30816-0.11863-0.58553-0.3085-0.79735z"/>
 </g>
 <g transform="translate(-.48439 -.74382)">
  <rect x="3.6602" y="5.027" width="10.583" height="7.9373" ry="1.1978" fill="#8cd2ff"/>
  <path d="m4.858 5.027c-0.35542 0-0.67034 0.15618-0.88933 0.40048l4.6358 3.9051a0.4911 0.41369 0 0 0 0.025839 0.020153 0.4911 0.41369 0 0 0 0.038239 0.025321 0.4911 0.41369 0 0 0 0.04134 0.022221 0.4911 0.41369 0 0 0 0.043923 0.018603 0.4911 0.41369 0 0 0 0.046508 0.014469 0.4911 0.41369 0 0 0 0.047026 0.011369 0.4911 0.41369 0 0 0 0.048574 0.0062 0.4911 0.41369 0 0 0 0.048576 0.0031 0.4911 0.41369 0 0 0 0.04909-0.00155 0.4911 0.41369 0 0 0 0.048576-0.00568 0.4911 0.41369 0 0 0 0.048058-0.00982 0.4911 0.41369 0 0 0 0.046507-0.013436 0.4911 0.41369 0 0 0 0.044441-0.01757 0.4911 0.41369 0 0 0 0.041856-0.021187 0.4911 0.41369 0 0 0 0.03979-0.024287 0.4911 0.41369 0 0 0 0.036173-0.027905l4.6358-3.9051c-0.21899-0.24431-0.53391-0.40048-0.88933-0.40048z" fill="#fff"/>
  <path d="m13.935 5.4275-8.9471 7.5369h8.0577c0.66358 0 1.1978-0.53426 1.1978-1.1978v-5.5417c0-0.30816-0.11863-0.58553-0.3085-0.79735z" fill="#b4e1ff"/>
 </g>
</svg>
