<?xml version="1.0" encoding="UTF-8" standalone="no"?>
<svg
   width="64"
   height="64"
   xml:space="preserve"
   version="1.1"
   id="svg17"
   sodipodi:docname="io.bassi.Amberol.svg"
   inkscape:version="1.2.2 (b0a8486541, 2022-12-01)"
   xmlns:inkscape="http://www.inkscape.org/namespaces/inkscape"
   xmlns:sodipodi="http://sodipodi.sourceforge.net/DTD/sodipodi-0.dtd"
   xmlns="http://www.w3.org/2000/svg"
   xmlns:svg="http://www.w3.org/2000/svg"><sodipodi:namedview
     id="namedview19"
     pagecolor="#ffffff"
     bordercolor="#999999"
     borderopacity="1"
     inkscape:showpageshadow="0"
     inkscape:pageopacity="0"
     inkscape:pagecheckerboard="0"
     inkscape:deskcolor="#d1d1d1"
     showgrid="false"
     inkscape:zoom="4.4746601"
     inkscape:cx="2.4582873"
     inkscape:cy="31.622514"
     inkscape:window-width="1920"
     inkscape:window-height="989"
     inkscape:window-x="0"
     inkscape:window-y="0"
     inkscape:window-maximized="1"
     inkscape:current-layer="svg17" /><defs
     id="defs7"><linearGradient
       id="a"
       x1="7.937"
       x2="7.937"
       y1="15.081"
       y2="1.852"
       gradientTransform="matrix(3.7796,0,0,3.7796,80.592593,0)"
       gradientUnits="userSpaceOnUse"><stop
         stop-color="#0e71de"
         offset="0"
         id="stop2" /><stop
         stop-color="#25c9ff"
         offset="1"
         id="stop4" /></linearGradient><filter
       id="filter1057-9"
       x="-0.026999999"
       y="-0.026999999"
       width="1.054"
       height="1.054"
       color-interpolation-filters="sRGB"><feGaussianBlur
         stdDeviation="0.61875"
         id="feGaussianBlur302" /></filter><linearGradient
       id="linearGradient1053-1"
       x1="-127"
       x2="-72"
       y1="60"
       y2="5"
       gradientTransform="translate(131.502,-0.509999)"
       gradientUnits="userSpaceOnUse"><stop
         stop-color="#32d7ff"
         offset="0"
         id="stop305" /><stop
         stop-color="#329bff"
         offset="1"
         id="stop307" /></linearGradient><linearGradient
       id="linearGradient9989"
       x1="13.5"
       x2="21.120001"
       y1="47.823002"
       y2="47.823002"
       gradientTransform="matrix(7.5592,0,0,7.5592,-1.353999,-63.520999)"
       gradientUnits="userSpaceOnUse"><stop
         stop-color="#00c8ff"
         offset="0"
         id="stop310" /><stop
         stop-color="#14a0ff"
         offset="1"
         id="stop312" /></linearGradient></defs><rect
     x="4.4999995"
     y="4.4999995"
     width="55"
     height="55"
     ry="15"
     fill="#141414"
     filter="url(#filter1057-9)"
     image-rendering="optimizeSpeed"
     opacity="0.3"
     stroke-linecap="round"
     stroke-width="2.7444"
     id="rect317" /><rect
     x="4.4999995"
     y="4.4999995"
     width="55"
     height="55"
     ry="15"
     fill="url(#linearGradient1053-1)"
     image-rendering="optimizeSpeed"
     stroke-linecap="round"
     stroke-width="2.7444"
     id="rect319"
     style="fill:url(#linearGradient1053-1)" /><circle
     style="fill:#3278ff;fill-rule:evenodd;stroke-width:3;stroke-linecap:round;stroke-linejoin:round;paint-order:stroke fill markers;fill-opacity:1"
     id="path614"
     cx="32"
     cy="32"
     r="12.8" /><path
     d="m 31.999998,12.000134 a 19.938,19.938 0 0 0 -14.141997,5.857 c -7.81,7.81 -7.81,20.476 0,28.286 7.809997,7.809 20.473997,7.809 28.283997,0 7.81,-7.81 7.81,-20.476 0,-28.286 a 19.938,19.938 0 0 0 -14.142,-5.857 z m -5.076,10.125 a 2.985,2.985 0 0 1 1.543001,0.387 l 12.5,7 c 2.043,1.146 2.043,4.087 0,5.234 l -12.5,7 c -2,1.119 -4.467,-0.327 -4.467,-2.618 v -14 c 0,-1.718 1.388999,-2.96 2.923999,-3.003 z"
     fill="#ffffff"
     id="path560" /></svg>
