<?xml version="1.0" encoding="UTF-8" standalone="no"?>
<svg
   width="64"
   height="64"
   version="1.1"
   id="svg15"
   sodipodi:docname="io.missioncenter.MissionCenter.svg"
   inkscape:version="1.4.2 (ebf0e940d0, 2025-05-08)"
   xmlns:inkscape="http://www.inkscape.org/namespaces/inkscape"
   xmlns:sodipodi="http://sodipodi.sourceforge.net/DTD/sodipodi-0.dtd"
   xmlns:xlink="http://www.w3.org/1999/xlink"
   xmlns="http://www.w3.org/2000/svg"
   xmlns:svg="http://www.w3.org/2000/svg">
  <sodipodi:namedview
     id="namedview15"
     pagecolor="#505050"
     bordercolor="#eeeeee"
     borderopacity="1"
     inkscape:showpageshadow="0"
     inkscape:pageopacity="0"
     inkscape:pagecheckerboard="0"
     inkscape:deskcolor="#505050"
     inkscape:zoom="6.5628348"
     inkscape:cx="16.684863"
     inkscape:cy="33.979219"
     inkscape:window-width="2560"
     inkscape:window-height="1411"
     inkscape:window-x="0"
     inkscape:window-y="0"
     inkscape:window-maximized="1"
     inkscape:current-layer="svg15" />
  <defs
     id="defs4">
    <linearGradient
       xlink:href="#a"
       id="g"
       x1="36.418"
       x2="21.723"
       y1="218.4"
       y2="218.4"
       gradientTransform="matrix(1.0208 0 0 .9305 -2.175 -109.41)" />
    <linearGradient
       id="a"
       gradientUnits="userSpaceOnUse">
      <stop
         offset="0"
         stop-color="#4fd2fd"
         id="stop1" />
      <stop
         offset="1"
         stop-color="#4fd2fd"
         stop-opacity="0"
         id="stop2" />
    </linearGradient>
    <linearGradient
       xlink:href="#a"
       id="c"
       x1="93.539"
       x2="58.923"
       y1="240.42"
       y2="240.42"
       gradientTransform="matrix(.975 0 0 .98939 3.05 -170.32)" />
    <linearGradient
       xlink:href="#a"
       id="d"
       x1="36.418"
       x2="21.723"
       y1="218.4"
       y2="218.4"
       gradientTransform="matrix(1.0208 0 0 .9305 -2.175 -157.41)" />
    <linearGradient
       xlink:href="#a"
       id="e"
       x1="36.418"
       x2="21.723"
       y1="218.4"
       y2="218.4"
       gradientTransform="matrix(1.0208 0 0 .9305 -2.175 -141.41)" />
    <linearGradient
       xlink:href="#a"
       id="f"
       x1="36.418"
       x2="21.723"
       y1="218.4"
       y2="218.4"
       gradientTransform="matrix(1.0208 0 0 .9305 -2.175 -125.41)" />
    <linearGradient
       id="b"
       x1="7.937"
       x2="7.937"
       y1="15.081"
       y2="1.852"
       gradientTransform="scale(3.7796)"
       gradientUnits="userSpaceOnUse">
      <stop
         offset="0"
         stop-color="#f1efeb"
         id="stop3" />
      <stop
         offset="1"
         stop-color="#fdfcfc"
         id="stop4" />
    </linearGradient>
    <filter
       id="filter1057"
       x="-0.026999999"
       y="-0.026999999"
       width="1.054"
       height="1.054"
       color-interpolation-filters="sRGB">
      <feGaussianBlur
         stdDeviation="0.61875"
         id="feGaussianBlur1" />
    </filter>
    <linearGradient
       id="linearGradient1053"
       x1="-127"
       x2="-72"
       y1="60"
       y2="5"
       gradientTransform="matrix(1.0000071,0,0,1.0000071,131.50256,-0.5104342)"
       gradientUnits="userSpaceOnUse">
      <stop
         stop-color="#dee0e2"
         offset="0"
         id="stop1-6" />
      <stop
         stop-color="#f1f3f5"
         stop-opacity=".99608"
         offset="1"
         id="stop2-7" />
    </linearGradient>
  </defs>
  <rect
     transform="matrix(1.0000071,0,0,1.0000071,-2.2781468e-4,-2.2781468e-4)"
     x="4.5"
     y="4.5"
     width="55"
     height="55"
     ry="15"
     fill="#141414"
     filter="url(#filter1057)"
     opacity="0.3"
     stroke-linecap="round"
     stroke-width="2.7444"
     id="rect2" />
  <rect
     x="4.4996166"
     y="4.4996166"
     width="55.000767"
     height="55.000767"
     ry="15.000106"
     fill="url(#linearGradient1053)"
     stroke-linecap="round"
     stroke-width="2.74441"
     id="rect3"
     style="fill:url(#linearGradient1053)" />
  <path
     fill="#241f31"
     d="M9 13a2 2 0 0 0-2 2v32a2 2 0 0 0 2 2h12a2 2 0 0 0 2-2V15a2 2 0 0 0-2-2zm19 0c-2.63.037-2.63 3.963 0 4h27c2.63-.037 2.63-3.963 0-4zm0 6a2 2 0 0 0-2 2v18a2 2 0 0 0 2 2h27a2 2 0 0 0 2-2V21a2 2 0 0 0-2-2zm-1 24c-1.315.019-1.315 1.981 0 2h29c1.315-.019 1.315-1.981 0-2zm0 4c-1.315.019-1.315 1.981 0 2h29a1 1 0 0 0 0-2z"
     color="#000"
     style="-inkscape-stroke:none"
     id="path5" />
  <path
     fill="#4fd2fd"
     d="m81.381 225.69-7.06 16.238H54.307v2.309h21.525l4.481-10.303 3.402 22.137 5.92-11.834h20.057v-2.309H88.21l-3.312 6.625z"
     color="#000"
     opacity=".35"
     style="-inkscape-stroke:none"
     transform="matrix(.4875 0 0 .4947 1.525 -89.16)"
     id="path6" />
  <path
     fill="url(#c)"
     d="m82.4 52.945-6.898 16.098H57.527a1.134 1.134 0 1 0 0 2.266h19.47L81.35 61.15l3.32 21.898 5.786-11.74h2.67a1.134 1.134 0 0 0 0-2.266h-4.08l-3.215 6.523z"
     transform="matrix(.5 0 0 .5 0 -4)"
     id="path7" />
  <path
     fill="#4fd2fd"
     d="m31.256 212.15-2.996 6.893h-8.496v.98h9.139l1.9-4.373 1.447 9.395 2.512-5.022h8.514v-.98h-9.12l-1.406 2.812z"
     color="#000"
     opacity=".35"
     style="-inkscape-stroke:none"
     transform="matrix(.5104 0 0 .46525 -1.087 -82.705)"
     id="path8" />
  <path
     fill="url(#d)"
     d="m29.719 40.061-3.02 6.332h-6.656a.477.477 0 0 0 0 .955h7.258l1.98-4.148 1.477 8.75 2.526-4.602H34.5a.477.477 0 0 0 0-.955h-1.783l-1.474 2.69z"
     transform="matrix(.5 0 0 .5 0 -4)"
     id="path9" />
  <path
     fill="#4fd2fd"
     d="m31.256 212.15-2.996 6.893h-8.496v.98h9.139l1.9-4.373 1.447 9.395 2.512-5.022h8.514v-.98h-9.12l-1.406 2.812z"
     color="#000"
     opacity=".35"
     style="-inkscape-stroke:none"
     transform="matrix(.5104 0 0 .46525 -1.087 -74.705)"
     id="path10" />
  <path
     fill="url(#e)"
     d="m29.719 56.061-3.02 6.332h-6.656a.477.477 0 0 0 0 .955h7.258l1.98-4.148 1.477 8.75 2.526-4.602H34.5a.477.477 0 0 0 0-.955h-1.783l-1.474 2.69z"
     transform="matrix(.5 0 0 .5 0 -4)"
     id="path11" />
  <path
     fill="#4fd2fd"
     d="m31.256 212.15-2.996 6.893h-8.496v.98h9.139l1.9-4.373 1.447 9.395 2.512-5.022h8.514v-.98h-9.12l-1.406 2.812z"
     color="#000"
     opacity=".35"
     style="-inkscape-stroke:none"
     transform="matrix(.5104 0 0 .46525 -1.087 -66.705)"
     id="path12" />
  <path
     fill="url(#f)"
     d="m29.719 72.061-3.02 6.332h-6.656a.477.477 0 0 0 0 .955h7.258l1.98-4.148 1.477 8.75 2.526-4.602H34.5a.477.477 0 0 0 0-.955h-1.783l-1.474 2.69z"
     transform="matrix(.5 0 0 .5 0 -4)"
     id="path13" />
  <path
     fill="#4fd2fd"
     d="m31.256 212.15-2.996 6.893h-8.496v.98h9.139l1.9-4.373 1.447 9.395 2.512-5.022h8.514v-.98h-9.12l-1.406 2.812z"
     color="#000"
     opacity=".35"
     style="-inkscape-stroke:none"
     transform="matrix(.5104 0 0 .46525 -1.087 -58.703)"
     id="path14" />
  <path
     fill="url(#g)"
     d="m29.719 88.061-3.02 6.332h-6.656a.477.477 0 0 0 0 .955h7.258l1.98-4.148 1.477 8.75 2.526-4.602H34.5a.477.477 0 0 0 0-.955h-1.783l-1.474 2.69z"
     transform="matrix(.5 0 0 .5 0 -4)"
     id="path15" />
</svg>
