<?xml version="1.0" encoding="UTF-8"?>
<svg width="64" height="64" version="1.1" viewBox="0 0 64 64" xmlns="http://www.w3.org/2000/svg" xmlns:cc="http://creativecommons.org/ns#" xmlns:dc="http://purl.org/dc/elements/1.1/" xmlns:rdf="http://www.w3.org/1999/02/22-rdf-syntax-ns#" xmlns:xlink="http://www.w3.org/1999/xlink">
 <metadata>
  <rdf:RDF>
   <cc:Work rdf:about="">
    <dc:format>image/svg+xml</dc:format>
    <dc:type rdf:resource="http://purl.org/dc/dcmitype/StillImage"/>
    <dc:title/>
   </cc:Work>
  </rdf:RDF>
 </metadata>
 <defs>
  <linearGradient id="a-9" x1="23.487" x2="23.487" y1="15.18" y2="32.913" gradientTransform="matrix(.12676 0 0 .12676 -27.515 6.7925)" gradientUnits="userSpaceOnUse">
   <stop stop-color="#141414" offset="0"/>
   <stop stop-color="#30277f" offset="1"/>
  </linearGradient>
  <linearGradient id="d-6" x1="361.36" x2="361.36" y1="616.07" y2="722.79" gradientTransform="matrix(.0040372 0 0 .0040372 -25.925 7.1257)" gradientUnits="userSpaceOnUse">
   <stop stop-color="#fff" offset="0"/>
   <stop stop-color="#fff" stop-opacity="0" offset="1"/>
  </linearGradient>
  <filter id="filter1057" x="-.027" y="-.027" width="1.054" height="1.054" color-interpolation-filters="sRGB">
   <feGaussianBlur stdDeviation="0.61875"/>
  </filter>
  <linearGradient id="linearGradient1053" x1="-127" x2="-72" y1="60" y2="5" gradientTransform="translate(131.5 -.51)" gradientUnits="userSpaceOnUse">
   <stop stop-color="#dee0e2" offset="0"/>
   <stop stop-color="#f1f3f5" stop-opacity=".99608" offset="1"/>
  </linearGradient>
  <linearGradient id="linearGradient1220" x1="-20.384" x2="-23.272" y1="6.1331" y2="15.312" gradientUnits="userSpaceOnUse">
   <stop stop-color="#232323" offset="0"/>
   <stop stop-color="#323296" offset=".95004"/>
   <stop stop-color="#232323" offset="1"/>
  </linearGradient>
  <radialGradient id="radialGradient1222" cx="-24.473" cy="9.8348" r="1.5211" gradientTransform="matrix(.93082 0 0 .93082 -11.889 .037279)" gradientUnits="userSpaceOnUse">
   <stop stop-color="#291dc0" offset="0"/>
   <stop stop-color="#1b1b23" offset="1"/>
  </radialGradient>
  <linearGradient id="linearGradient1224" x1="-36.117" x2="-33.22" y1="10.638" y2="7.7404" gradientUnits="userSpaceOnUse">
   <stop offset="0"/>
   <stop stop-opacity="0" offset="1"/>
  </linearGradient>
  <radialGradient id="radialGradient1226" cx="-24.473" cy="9.8348" r="1.1409" gradientTransform="matrix(1.4202 0 0 1.0512 .054505 -1.1471)" gradientUnits="userSpaceOnUse" xlink:href="#a-9"/>
  <linearGradient id="linearGradient1228" x1="-24.478" x2="-24.478" y1="11.104" y2="8.4912" gradientTransform="translate(-10.229 -.6431)" gradientUnits="userSpaceOnUse">
   <stop stop-color="#2d1edc" offset="0"/>
   <stop stop-color="#141414" offset="1"/>
  </linearGradient>
  <radialGradient id="radialGradient1230" cx="-24.473" cy="9.8348" r="1.1409" gradientTransform="matrix(1.1403 0 0 .84405 -6.7958 .89063)" gradientUnits="userSpaceOnUse" xlink:href="#a-9"/>
  <linearGradient id="linearGradient1232" x1="-24.478" x2="-24.478" y1="11.104" y2="8.4912" gradientTransform="matrix(.8029 0 0 .8029 -15.053 1.2953)" gradientUnits="userSpaceOnUse" xlink:href="#a-9"/>
  <radialGradient id="radialGradient1234" cx="24.047" cy="23.949" r="2.9867" gradientTransform="matrix(.2056 -3.7539e-8 2.8431e-8 .15571 -39.607 5.456)" gradientUnits="userSpaceOnUse">
   <stop stop-color="#2839e6" offset="0"/>
   <stop stop-opacity="0" offset="1"/>
  </radialGradient>
  <linearGradient id="linearGradient1236" x1="-24.485" x2="-24.485" y1="8.6962" y2="9.7506" gradientTransform="translate(-10.196 -.6431)" gradientUnits="userSpaceOnUse" xlink:href="#d-6"/>
  <linearGradient id="linearGradient1238" x1="361.36" x2="361.36" y1="616.07" y2="722.79" gradientTransform="matrix(.0040372 0 0 .0040372 -36.122 6.4826)" gradientUnits="userSpaceOnUse" xlink:href="#d-6"/>
  <linearGradient id="linearGradient1246" x1="32" x2="32" y1="16.681" y2="47.338" gradientUnits="userSpaceOnUse">
   <stop stop-color="#ebedef" stop-opacity=".99608" offset="0"/>
   <stop stop-color="#e4e6e8" offset="1"/>
  </linearGradient>
 </defs>
 <g>
  <rect x="4.5" y="4.5" width="55" height="55" ry="15" fill="#141414" filter="url(#filter1057)" opacity=".3" stroke-linecap="round" stroke-width="2.7444"/>
  <rect x="4.5" y="4.5" width="55" height="55" ry="15" fill="url(#linearGradient1053)" stroke-linecap="round" stroke-width="2.7444"/>
  <g>
   <path d="m4.5 19.873v7.6582h55v-7.6582h-55z" fill="#457efc"/>
   <path d="m4.5 27.531v7.6602h55v-7.6602h-55z" fill="#fa427e"/>
   <path d="m4.5 35.191v7.6602h55v-7.6602h-55z" fill="#457efc"/>
  </g>
  <g fill-rule="evenodd">
   <path d="m32 16.681c8.4626 0 15.319 6.8617 15.319 15.319 0 8.4626-6.8566 15.319-15.319 15.319-8.4574 0-15.319-6.8566-15.319-15.319 0-8.4574 6.8617-15.319 15.319-15.319" fill="url(#linearGradient1246)"/>
   <path d="m32.003 19.237c7.0468 0 12.761 5.7153 12.761 12.766 0 7.0468-5.7153 12.761-12.761 12.761-7.0506 0-12.766-5.7153-12.766-12.761 0-7.0506 5.7153-12.766 12.766-12.766" fill="#25252f"/>
   <path d="m15.085 12.213h5e-3c1.4068 0 2.5481 1.1426 2.5481 2.5532v0.0051c0 1.4068-1.1426 2.5481-2.5481 2.5481h-5e-3c-1.4106 0-2.5532-1.1426-2.5532-2.5481v-0.0051c0-1.4106 1.1426-2.5532 2.5532-2.5532" fill="#25252f"/>
  </g>
 </g>
 <g transform="matrix(2.65 0 0 2.65 89.686 7.5915)">
  <circle cx="-21.768" cy="9.2106" r="3.7206" fill="url(#linearGradient1220)" stroke="#131313" stroke-dashoffset=".42096" stroke-linecap="round" stroke-width=".10583"/>
  <g fill="none" stroke="#131313" stroke-linecap="round" stroke-width=".10583">
   <path d="m-21.571 11.054s-1.9854 0.90882-3.768-0.84568"/>
   <path d="m-19.926 8.4729s1.3917 1.6826 0.15838 3.8585"/>
   <path d="m-22.976 7.6132s1.265-1.7798 3.6861-1.1516"/>
  </g>
  <g transform="matrix(1.4044,0,0,1.4044,26.913,-3.7824)">
   <circle cx="-34.669" cy="9.1917" r="1.4159" fill="url(#radialGradient1222)" stroke="url(#linearGradient1224)" stroke-width=".084198"/>
   <circle cx="-34.702" cy="9.1917" r="1.1409" fill="url(#radialGradient1226)" stroke="url(#linearGradient1228)" stroke-width=".079373"/>
   <circle cx="-34.702" cy="9.1917" r=".916" fill="url(#radialGradient1230)" stroke="url(#linearGradient1232)" stroke-width=".063729"/>
   <circle cx="-34.663" cy="9.1852" r=".45681" fill-opacity=".58824" stroke-width="1.6252"/>
   <circle cx="-34.663" cy="9.1852" r=".3786" fill="url(#radialGradient1234)" stroke-width="2.0203"/>
   <ellipse cx="-34.682" cy="8.6235" rx=".71737" ry=".53163" fill="#fafafa" opacity=".3" stroke="url(#linearGradient1236)" stroke-width=".079373"/>
   <circle cx="-34.663" cy="9.1852" r=".21543" fill="url(#linearGradient1238)" opacity=".15" stroke-width="1.3734"/>
  </g>
 </g>
</svg>
