<?xml version="1.0" encoding="UTF-8" standalone="no"?>
<svg
   width="64"
   height="64"
   version="1.1"
   viewBox="0 0 16.933 16.933"
   id="svg11"
   sodipodi:docname="kdenlive.svg"
   inkscape:version="1.3 (0e150ed6c4, 2023-07-21)"
   xmlns:inkscape="http://www.inkscape.org/namespaces/inkscape"
   xmlns:sodipodi="http://sodipodi.sourceforge.net/DTD/sodipodi-0.dtd"
   xmlns="http://www.w3.org/2000/svg"
   xmlns:svg="http://www.w3.org/2000/svg">
  <sodipodi:namedview
     id="namedview11"
     pagecolor="#ffffff"
     bordercolor="#000000"
     borderopacity="0.25"
     inkscape:showpageshadow="2"
     inkscape:pageopacity="0.0"
     inkscape:pagecheckerboard="0"
     inkscape:deskcolor="#d1d1d1"
     inkscape:zoom="5.734375"
     inkscape:cx="-26.681199"
     inkscape:cy="47.084469"
     inkscape:window-width="1920"
     inkscape:window-height="941"
     inkscape:window-x="0"
     inkscape:window-y="34"
     inkscape:window-maximized="1"
     inkscape:current-layer="svg11" />
  <defs
     id="defs2">
    <filter
       id="a"
       x="-0.059999165"
       y="-0.059999165"
       width="1.1199983"
       height="1.1199983"
       color-interpolation-filters="sRGB">
      <feGaussianBlur
         stdDeviation="0.14551797"
         id="feGaussianBlur1" />
    </filter>
    <linearGradient
       id="linearGradient899"
       x1="7.767"
       x2="7.767"
       y1="14.687"
       y2="1.8818"
       gradientTransform="translate(17.09 .63416)"
       gradientUnits="userSpaceOnUse">
      <stop
         stop-color="#2e323e"
         offset="0"
         id="stop1" />
      <stop
         stop-color="#505664"
         offset="1"
         id="stop2" />
    </linearGradient>
  </defs>
  <g
     shape-rendering="auto"
     id="g6">
    <path
       d="m4.3693 0.52916c-2.1142 0-3.8402 1.7835-3.8402 3.9682v8.4675c0 2.1846 1.726 3.9682 3.8402 3.9682h8.1944c2.1142 0 3.8402-1.7835 3.8402-3.9682v-8.4675c0-2.1846-1.726-3.9682-3.8402-3.9682zm0.25704 0.52089h7.6808c1.8443 0 3.3291 1.5342 3.3291 3.44v7.9368c0 1.9058-1.4847 3.44-3.3291 3.44h-7.6808c-1.8443 0-3.3291-1.5342-3.3291-3.44v-7.9368c0-1.9058 1.4847-3.44 3.3291-3.44z"
       color="#000000"
       color-rendering="auto"
       dominant-baseline="auto"
       image-rendering="auto"
       opacity=".01"
       solid-color="#000000"
       stop-color="#000000"
       style="font-feature-settings:normal;font-variant-alternates:normal;font-variant-caps:normal;font-variant-east-asian:normal;font-variant-ligatures:normal;font-variant-numeric:normal;font-variant-position:normal;font-variation-settings:normal;inline-size:0;isolation:auto;mix-blend-mode:normal;shape-margin:0;shape-padding:0;text-decoration-color:#000000;text-decoration-line:none;text-decoration-style:solid;text-indent:0;text-orientation:mixed;text-transform:none;white-space:normal"
       id="path2" />
    <path
       d="m4.3587 0.79373c-1.9668 0-3.5639 1.6528-3.5639 3.6876v8.4996c0 2.0348 1.5971 3.6876 3.5639 3.6876h8.2162c1.9668 0 3.5644-1.6528 3.5644-3.6876v-8.4996c0-2.0348-1.5976-3.6876-3.5644-3.6876zm0.27222 0.25631h7.6718c1.8422 0 3.3251 1.5342 3.3251 3.44v7.9368c0 1.9058-1.483 3.44-3.3251 3.44h-7.6718c-1.8422 0-3.3251-1.5342-3.3251-3.44v-7.9368c0-1.9058 1.483-3.44 3.3251-3.44z"
       color="#000000"
       color-rendering="auto"
       dominant-baseline="auto"
       image-rendering="auto"
       opacity=".01"
       solid-color="#000000"
       stop-color="#000000"
       style="font-feature-settings:normal;font-variant-alternates:normal;font-variant-caps:normal;font-variant-east-asian:normal;font-variant-ligatures:normal;font-variant-numeric:normal;font-variant-position:normal;font-variation-settings:normal;inline-size:0;isolation:auto;mix-blend-mode:normal;shape-margin:0;shape-padding:0;text-decoration-color:#000000;text-decoration-line:none;text-decoration-style:solid;text-indent:0;text-orientation:mixed;text-transform:none;white-space:normal"
       id="path3" />
    <path
       d="m4.3097 1.0583c-1.8657 0-3.3751 1.5383-3.3751 3.439v8.4675c0 1.9007 1.57 3.439 3.4357 3.439h8.1996c1.8657 0 3.4274-1.5383 3.4274-3.439v-8.4675c0-1.9007-1.51-3.439-3.3756-3.439h-0.09688c1.794 0.086515 3.2138 1.5819 3.2138 3.4318v7.9368c0 1.9058-1.5059 3.44-3.3766 3.44h-7.7905c-1.8707 0-3.3766-1.5342-3.3766-3.44v-7.9368c0-1.8498 1.4199-3.3451 3.2138-3.4318z"
       color="#000000"
       color-rendering="auto"
       dominant-baseline="auto"
       image-rendering="auto"
       opacity=".03"
       solid-color="#000000"
       stop-color="#000000"
       style="font-feature-settings:normal;font-variant-alternates:normal;font-variant-caps:normal;font-variant-east-asian:normal;font-variant-ligatures:normal;font-variant-numeric:normal;font-variant-position:normal;font-variation-settings:normal;inline-size:0;isolation:auto;mix-blend-mode:normal;shape-margin:0;shape-padding:0;text-decoration-color:#000000;text-decoration-line:none;text-decoration-style:solid;text-indent:0;text-orientation:mixed;text-transform:none;white-space:normal"
       id="path4" />
    <path
       transform="scale(.26458)"
       d="m4 46.969v2.0312c0 6.6479 5.8957 12 12.544 12h30.961c6.6479 0 12.495-5.3521 12.495-12v-1.9922c-0.02117 7.1849-5.81 12.963-13 12.963h-29.998c-7.2032 0-13.002-5.7987-13.002-13.002z"
       color="#000000"
       color-rendering="auto"
       dominant-baseline="auto"
       image-rendering="auto"
       opacity=".03"
       solid-color="#000000"
       stop-color="#000000"
       style="font-feature-settings:normal;font-variant-alternates:normal;font-variant-caps:normal;font-variant-east-asian:normal;font-variant-ligatures:normal;font-variant-numeric:normal;font-variant-position:normal;font-variation-settings:normal;inline-size:0;isolation:auto;mix-blend-mode:normal;shape-margin:0;shape-padding:0;text-decoration-color:#000000;text-decoration-line:none;text-decoration-style:solid;text-indent:0;text-orientation:mixed;text-transform:none;white-space:normal"
       id="path5" />
    <path
       d="m1.0583 11.906v0.59234c0 1.9386 1.5729 3.4993 3.3318 3.4993h8.1603c1.7589 0 3.3243-1.5608 3.3243-3.4993v-0.58095c-0.0056 2.0952-1.5372 3.7801-3.4395 3.7801h-7.9368c-1.9058 0-3.44-1.691-3.44-3.7915z"
       color="#000000"
       color-rendering="auto"
       dominant-baseline="auto"
       image-rendering="auto"
       opacity=".05"
       solid-color="#000000"
       stop-color="#000000"
       style="font-feature-settings:normal;font-variant-alternates:normal;font-variant-caps:normal;font-variant-east-asian:normal;font-variant-ligatures:normal;font-variant-numeric:normal;font-variant-position:normal;font-variation-settings:normal;inline-size:0;isolation:auto;mix-blend-mode:normal;shape-margin:0;shape-padding:0;text-decoration-color:#000000;text-decoration-line:none;text-decoration-style:solid;text-indent:0;text-orientation:mixed;text-transform:none;white-space:normal"
       id="path6" />
  </g>
  <rect
     x="1.0583"
     y="1.0583"
     width="14.816"
     height="14.816"
     rx="3.44"
     ry="3.44"
     fill="url(#linearGradient899)"
     stroke-width=".99997"
     id="rect6" />
  <g
     transform="translate(.14597 .15844)"
     filter="url(#a)"
     opacity=".15"
     stroke-width=".26458"
     id="g8">
    <path
       d="m8.3205 5.3977a2.9104 2.9104 0 0 0-2.9104 2.9104 2.9104 2.9104 0 0 0 2.9104 2.9104 2.9104 2.9104 0 0 0 2.9104-2.9104 2.9104 2.9104 0 0 0-2.9104-2.9104m0.03824 0.25166a2.6458 2.6458 0 0 1 2.6458 2.6458 2.6458 2.6458 0 0 1-2.6458 2.6458 2.6458 2.6458 0 0 1-2.6458-2.6458 2.6458 2.6458 0 0 1 2.6458-2.6458"
       id="path7" />
    <path
       d="m9.908 8.1657-2.6458 1.9944v-3.7041z"
       id="path8" />
  </g>
  <g
     transform="translate(.14597 .15844)"
     stroke-width=".26458"
     id="g10">
    <path
       d="m8.3205 5.3977a2.9104 2.9104 0 0 0-2.9104 2.9104 2.9104 2.9104 0 0 0 2.9104 2.9104 2.9104 2.9104 0 0 0 2.9104-2.9104 2.9104 2.9104 0 0 0-2.9104-2.9104m0.03824 0.25166a2.6458 2.6458 0 0 1 2.6458 2.6458 2.6458 2.6458 0 0 1-2.6458 2.6458 2.6458 2.6458 0 0 1-2.6458-2.6458 2.6458 2.6458 0 0 1 2.6458-2.6458"
       fill="#ececec"
       id="path9" />
    <path
       d="m9.908 8.1657-2.6458 1.9944v-3.7041z"
       fill="#edeef8"
       id="path10" />
  </g>
  <g
     id="g16"
     transform="translate(-0.0921827)">
    <g
       id="g11">
      <rect
         style="fill:#edeef8;fill-opacity:1;stroke-width:0.0998048"
         id="rect12"
         width="1.5874687"
         height="1.5874687"
         x="2.4358978"
         y="3.2418039"
         rx="0.23859815"
         ry="0.21425557" />
      <rect
         style="fill:#edeef8;fill-opacity:1;stroke-width:0.0998048"
         id="rect1"
         width="1.5874687"
         height="1.5874687"
         x="2.4358978"
         y="6.1298656"
         rx="0.23859815"
         ry="0.21425557" />
      <rect
         style="fill:#edeef8;fill-opacity:1;stroke-width:0.0998048"
         id="rect2"
         width="1.5874687"
         height="1.5874687"
         x="2.4358978"
         y="9.0179281"
         rx="0.23859815"
         ry="0.21425557" />
      <rect
         style="fill:#edeef8;fill-opacity:1;stroke-width:0.0998048"
         id="rect3"
         width="1.5874687"
         height="1.5874687"
         x="2.4358978"
         y="11.90599"
         rx="0.23859815"
         ry="0.21425557" />
    </g>
    <g
       id="g15"
       transform="translate(10.658101)">
      <rect
         style="fill:#edeef8;fill-opacity:1;stroke-width:0.0998048"
         id="rect11"
         width="1.5874687"
         height="1.5874687"
         x="2.4358978"
         y="3.2418039"
         rx="0.23859815"
         ry="0.21425557" />
      <rect
         style="fill:#edeef8;fill-opacity:1;stroke-width:0.0998048"
         id="rect13"
         width="1.5874687"
         height="1.5874687"
         x="2.4358978"
         y="6.1298656"
         rx="0.23859815"
         ry="0.21425557" />
      <rect
         style="fill:#edeef8;fill-opacity:1;stroke-width:0.0998048"
         id="rect14"
         width="1.5874687"
         height="1.5874687"
         x="2.4358978"
         y="9.0179281"
         rx="0.23859815"
         ry="0.21425557" />
      <rect
         style="fill:#edeef8;fill-opacity:1;stroke-width:0.0998048"
         id="rect15"
         width="1.5874687"
         height="1.5874687"
         x="2.4358978"
         y="11.90599"
         rx="0.23859815"
         ry="0.21425557" />
    </g>
  </g>
</svg>
