<?xml version="1.0" encoding="UTF-8"?>
<!-- Created with Inkscape (http://www.inkscape.org/) -->
<svg width="64" height="64" version="1.1" viewBox="0 0 16.933 16.933" xmlns="http://www.w3.org/2000/svg" xmlns:cc="http://creativecommons.org/ns#" xmlns:dc="http://purl.org/dc/elements/1.1/" xmlns:rdf="http://www.w3.org/1999/02/22-rdf-syntax-ns#" xmlns:xlink="http://www.w3.org/1999/xlink">
 <defs>
  <filter id="filter2761" x="-.024" y="-.024" width="1.048" height="1.048" color-interpolation-filters="sRGB">
   <feGaussianBlur stdDeviation="0.14552168"/>
  </filter>
  <linearGradient id="linearGradient1024" x1="1.3315" x2="13.449" y1="15.576" y2="3.4588" gradientUnits="userSpaceOnUse">
   <stop stop-color="#3caaff" offset="0"/>
   <stop stop-color="#b496ff" offset="1"/>
  </linearGradient>
  <linearGradient id="linearGradient1354" x1="6.5814" x2="13.959" y1="6.7137" y2="13.123" gradientUnits="userSpaceOnUse">
   <stop stop-color="#fff" offset="0"/>
   <stop stop-color="#e6e6ff" offset="1"/>
  </linearGradient>
  <linearGradient id="linearGradient1356" x1="5.7215" x2="2.8442" y1="8.4996" y2="14.519" gradientUnits="userSpaceOnUse">
   <stop stop-color="#c3d2ff" offset="0"/>
   <stop stop-color="#82c8ff" offset="1"/>
  </linearGradient>
  <linearGradient id="linearGradient1972" x1="13.131" x2="3.7382" y1="-4.101" y2="-13.46" gradientTransform="matrix(.5989 0 0 .5989 -16.954 12.164)" gradientUnits="userSpaceOnUse" xlink:href="#linearGradient1024"/>
  <linearGradient id="linearGradient1023" x1="5.7215" x2="2.8442" y1="8.4996" y2="14.519" gradientTransform="matrix(1.5025 0 0 1.5025 80.012 25.812)" gradientUnits="userSpaceOnUse" xlink:href="#linearGradient1356"/>
  <linearGradient id="linearGradient1025" x1="6.5814" x2="13.959" y1="6.7137" y2="13.123" gradientTransform="matrix(1.5025 0 0 1.5025 80.012 25.812)" gradientUnits="userSpaceOnUse" xlink:href="#linearGradient1354"/>
  <linearGradient id="linearGradient1092" x1="6.5814" x2="13.959" y1="6.7137" y2="13.123" gradientUnits="userSpaceOnUse" xlink:href="#linearGradient1354"/>
 </defs>
 <metadata>
  <rdf:RDF>
   <cc:Work rdf:about="">
    <dc:format>image/svg+xml</dc:format>
    <dc:type rdf:resource="http://purl.org/dc/dcmitype/StillImage"/>
    <dc:title/>
   </cc:Work>
  </rdf:RDF>
 </metadata>
 <path d="m10.709 1.05c4.405 0 5.0345 0.67282 5.0345 5.388v3.7761c0 4.7152-0.62954 5.388-5.0345 5.388h-4.4832c-4.405 0-5.0346-0.6728-5.0346-5.388v-3.7761c0-4.7152 0.62954-5.388 5.0346-5.388z" enable-background="new" fill="#141414" filter="url(#filter2761)" opacity=".3"/>
 <path d="m10.709 1.05c4.405 0 5.0345 0.67282 5.0345 5.388v3.7761c0 4.7152-0.62954 5.388-5.0345 5.388h-4.4832c-4.405 0-5.0346-0.6728-5.0346-5.388v-3.7761c0-4.7152 0.62954-5.388 5.0346-5.388z" enable-background="new" fill="url(#linearGradient1024)"/>
 <path d="m14.514 14.983c-0.016115-0.01851-0.37014-0.42494-1.018-0.98028-0.33168-0.2843-0.74077-0.60857-1.2211-0.94101-0.48032-0.33244-1.032-0.67321-1.6495-0.99114-0.6175-0.31792-1.2822-0.68652-1.8877-1.0914-0.30275-0.20243-0.59054-0.41369-0.85058-0.63251s-0.4923-0.4453-0.68315-0.67695c-0.19084-0.23164-0.34045-0.4686-0.43562-0.7095-0.095174-0.2409-0.13549-0.48564-0.10852-0.73224s0.12154-0.49488 0.29714-0.74361c0.17559-0.24873 0.43219-0.49787 0.78288-0.74516-0.49325-0.051736-1.6705 0.12072-2.2908 0.45888-0.33006 0.14712-0.70029 0.33464-1.1141 0.57308-0.41383 0.23844-0.87103 0.52756-1.3746 0.87797-0.50354 0.3504-1.0534 0.76186-1.6526 1.2449-0.046129 0.037187-0.072465 0.072566-0.11627 0.10955v0.21084c0 4.7152 0.62922 5.3882 5.0342 5.3882h4.4834c1.8686 0 3.0462-0.12024 3.8049-0.61959z" enable-background="new" fill="url(#linearGradient1356)"/>
 <circle cx="12.348" cy="4.0417" r="1.0816" fill="#fff"/>
 <path d="m15.742 10.429c-0.64595-0.3066-1.3615-0.63056-2.0159-0.9994-0.47555-0.26804-1.645-0.98629-2.8592-1.6149-0.6071-0.31429-1.2251-0.60642-1.7735-0.8082-0.47288-0.15102-0.87735-0.22526-1.3544-0.26768-0.34998 0.24679-0.60577 0.49539-0.78133 0.74361-3.55e-4 5.042e-4 -0.0012 0.00105-0.0015 0.00155-1.06e-4 1.492e-4 1.03e-4 3.678e-4 0 5.167e-4 -0.16904 0.23958-0.25558 0.47858-0.28628 0.71622-0.0054 0.060055-0.020389 0.14516-0.018089 0.20877 0.0017 0.14318 0.029272 0.28561 0.072342 0.42684 0.04346 0.14032 0.11544 0.29957 0.20227 0.45333 0.05365 0.091093 0.12062 0.19142 0.18789 0.2811 0.08782 0.12272 0.2043 0.23817 0.32334 0.36848 0.1371 0.1416 0.28674 0.27079 0.44867 0.40705 0.07284 0.0613 0.15692 0.13032 0.23384 0.1904 0.15298 0.11433 0.19306 0.14962 0.47146 0.34279 0.28509 0.19781 0.62074 0.42194 0.96382 0.63003 0.34909 0.2022 0.75468 0.41133 1.0929 0.58548 0.64932 0.34221 1.2489 0.71499 1.7864 1.0904 0.36693 0.2572 0.73542 0.5391 1.0909 0.84334 0.34713 0.29712 0.68012 0.61703 0.98752 0.95393 1.3111-0.79392 1.2094-3.2543 1.2288-4.5536z" enable-background="new" fill="url(#linearGradient1092)"/>
 <g transform="matrix(1.0774 0 0 1.0774 -1.2168 -1.224)">
  <circle transform="matrix(-.96592 -.25882 -.25882 .96592 0 0)" cx="-11.923" cy="6.9352" r="2.8329" color="#000000" fill="url(#linearGradient1972)" stroke-width=".51276"/>
  <circle transform="rotate(-15)" cx="7.8005" cy="10.474" r=".49643" fill="#fff" stroke-width=".37526"/>
  <rect class="st1" transform="rotate(-44.829)" x="-.30371" y="16.592" width=".60179" height="1.5296" fill="#fafafa" stroke-width=".1475"/>
  <g transform="matrix(1.1487 0 0 1.1487 -14.577 -1.917)" clip-rule="evenodd" fill-rule="evenodd" stroke-width=".12841">
   <path class="st2" d="m23.514 13.155 0.59434-0.58998c0.08183-0.0816 0.21513-0.08023 0.29655 3.79e-4l1.9185 1.9307c0.0817 0.08168 0.08149 0.2148-3.14e-4 0.29653l-0.59434 0.58997c-0.08179 0.08172-0.21477 0.08156-0.29655-3.8e-4l-1.9185-1.9307c-0.08169-0.08168-0.08149-0.2148 3.13e-4 -0.29653z" fill="#6ea0ff"/>
   <path class="st3" d="m24.731 12.894 0.1676 0.16912-0.88804 0.88802-0.16727-0.16788zm0.29499 0.29718-0.88804 0.88801 0.1676 0.16912 0.88803-0.88802z" fill="#fafafa"/>
   <path class="st4" d="m19.087 8.1077c1.1485-1.1413 3.0044-1.136 4.1457 0.012499 1.1413 1.1485 1.136 3.0044-0.01249 4.1457-1.1485 1.1413-3.0044 1.136-4.1457-0.01247-1.1409-1.1473-1.1345-3.0035 0.01249-4.1457zm0.34915 0.35046c-0.9543 0.9483-0.95949 2.4918-0.0099 3.4457 0.94831 0.9543 2.4918 0.95948 3.4473 0.01084 0.9543-0.9483 0.95948-2.4918 0.0096-3.447-0.94954-0.95396-2.4927-0.95791-3.447-0.0096z" fill="#fafafa"/>
  </g>
  <g transform="matrix(.98522 0 0 .96906 -14.446 .031617)" stroke-width="1.5025">
   <path transform="scale(.26458)" d="m91.641 35.938c-0.74112-0.07773-2.5094 0.18136-3.4414 0.68945-0.49592 0.22105-1.0521 0.50307-1.6738 0.86133-0.62179 0.35826-1.3078 0.79186-2.0645 1.3184-0.67386 0.46892-1.4137 1.0247-2.2012 1.6504a10.707 10.707 0 0 0 0.13086 0.56445 10.707 10.707 0 0 0 13.113 7.5723 10.707 10.707 0 0 0 4.1914-2.2266c-0.37325-0.29848-0.7759-0.60832-1.2402-0.92969-0.72169-0.4995-1.5507-1.0125-2.4785-1.4902-0.9278-0.47768-1.9262-1.0303-2.8359-1.6387-0.45489-0.30414-0.88663-0.62239-1.2773-0.95117-0.39071-0.32879-0.74059-0.66756-1.0273-1.0156-0.28676-0.34803-0.5113-0.70445-0.6543-1.0664-0.14298-0.36197-0.20263-0.73104-0.16211-1.1016 0.04052-0.37051 0.18148-0.74347 0.44531-1.1172 0.26382-0.37372 0.64886-0.74758 1.1758-1.1191z" enable-background="new" fill="url(#linearGradient1023)"/>
   <path transform="scale(.26458)" d="m91.641 35.938c-0.52585 0.3708-0.91005 0.74423-1.1738 1.1172-5.33e-4 7.57e-4 -0.0035 0.0012-0.0039 2e-3 -0.25399 0.35997-0.38356 0.71912-0.42969 1.0762-0.0079 0.09022-0.03074 0.2189-0.02734 0.31445 0.0026 0.21514 0.04467 0.42842 0.10938 0.64062 0.06531 0.21083 0.17422 0.45061 0.30469 0.68164 0.08062 0.13686 0.18018 0.28715 0.28125 0.42188 0.13195 0.18441 0.30748 0.35889 0.48633 0.55469 0.20599 0.21275 0.43053 0.40659 0.67383 0.61133 0.10946 0.09211 0.23598 0.1949 0.35156 0.28516 0.22984 0.17178 0.29069 0.22539 0.70898 0.51562 0.42835 0.29723 0.93178 0.63461 1.4473 0.94727 0.52451 0.3038 1.1344 0.61724 1.6426 0.87891 0.97561 0.51418 1.876 1.0746 2.6836 1.6387 0.33381 0.23398 0.66738 0.48569 0.99805 0.74609a10.707 10.707 0 0 0 3.3281-5.1914c-0.79208-0.37287-1.6107-0.76098-2.3848-1.1973-0.71452-0.40274-2.4725-1.4832-4.2969-2.4277-0.91218-0.47222-1.8401-0.90971-2.6641-1.2129-0.71051-0.22691-1.3184-0.33861-2.0352-0.40234z" enable-background="new" fill="url(#linearGradient1025)"/>
  </g>
 </g>
</svg>
