<?xml version="1.0" encoding="UTF-8"?>
<svg width="64" height="64" version="1.1" viewBox="0 0 64 64" xmlns="http://www.w3.org/2000/svg" xmlns:xlink="http://www.w3.org/1999/xlink">
 <defs>
  <filter id="filter1057" x="-.027" y="-.027" width="1.054" height="1.054" color-interpolation-filters="sRGB">
   <feGaussianBlur stdDeviation="0.61875"/>
  </filter>
  <linearGradient id="linearGradient1053" x1="-127" x2="-72" y1="60" y2="5" gradientTransform="translate(49.445 6.3504)" gradientUnits="userSpaceOnUse">
   <stop stop-color="#1d2123" offset="0"/>
   <stop stop-color="#33393e" stop-opacity=".99608" offset="1"/>
  </linearGradient>
  <filter id="filter951" x="-.3444" y="-.21497" width="1.6888" height="1.4299" color-interpolation-filters="sRGB">
   <feGaussianBlur stdDeviation="15.306655"/>
  </filter>
 </defs>
 <g transform="translate(82.055 -6.4046)">
  <rect x="-77.565" y="11.36" width="55" height="55" ry="15" fill="#141414" filter="url(#filter1057)" opacity=".3" stroke-linecap="round" stroke-width="2.7444"/>
  <rect x="-77.555" y="11.36" width="55" height="55" ry="15" fill="url(#linearGradient1053)" stroke-linecap="round" stroke-width="2.7444"/>
  <circle cx="-50.055" cy="38.405" r="30.001" fill-opacity="0" stroke-width="1.5715"/>
  <path transform="matrix(.067942 0 0 .067942 -67.449 21.011)" d="m256 0c-76.544 0.094-138.57 62.122-138.67 138.67v85.333c0 5.891 4.776 10.667 10.667 10.667h42.667c5.891 0 10.667-4.776 10.667-10.667v-85.333c-1e-3 -41.238 33.429-74.667 74.666-74.667s74.667 33.429 74.667 74.667v85.333c0 5.891 4.776 10.667 10.667 10.667h42.666c5.891 0 10.667-4.776 10.667-10.667v-85.333c-0.094-76.545-62.123-138.57-138.67-138.67z" fill="#fff" filter="url(#filter951)"/>
  <path transform="matrix(.067942 0 0 .067942 -67.449 21.011)" d="m128 213.33h256c29.455 0 53.333 23.878 53.333 53.333v192c0 29.456-23.878 53.334-53.333 53.334h-256c-29.455 0-53.333-23.878-53.333-53.333v-192c0-29.456 23.878-53.334 53.333-53.334z" fill="#fff" filter="url(#filter951)"/>
  <path transform="matrix(.067942 0 0 .067942 -67.449 21.011)" d="m309.33 330.67c0.124-29.455-23.653-53.434-53.108-53.558s-53.434 23.653-53.558 53.108c-0.086 20.36 11.427 38.992 29.674 48.023l-8.235 57.6c-0.825 5.833 3.235 11.23 9.068 12.055 0.494 0.07 0.993 0.105 1.492 0.105h42.667c5.891 0.06 10.715-4.667 10.774-10.558 5e-3 -0.543-0.03-1.086-0.108-1.623l-8.235-57.6c18.024-9.02 29.452-27.399 29.569-47.552z" fill="#0f9bff" filter="url(#filter951)"/>
  <path d="m-50.055 21.011c-5.2006 0.0064-9.4147 4.2207-9.4215 9.4215v5.7977c0 0.40025 0.32449 0.72474 0.72474 0.72474h2.8989c0.40025 0 0.72474-0.32449 0.72474-0.72474v-5.7977c-6.8e-5 -2.8018 2.2712-5.073 5.073-5.073 2.8017 0 5.073 2.2712 5.073 5.073v5.7977c0 0.40025 0.32449 0.72474 0.72474 0.72474h2.8988c0.40025 0 0.72474-0.32449 0.72474-0.72474v-5.7977c-0.0064-5.2006-4.2208-9.4147-9.4215-9.4215z" fill="#fff" opacity=".6" stroke-width=".067942"/>
  <path d="m-58.752 35.506h17.393c2.0012 0 3.6236 1.6223 3.6236 3.6236v13.045c0 2.0013-1.6223 3.6236-3.6236 3.6236h-17.393c-2.0012 0-3.6236-1.6223-3.6236-3.6236v-13.045c0-2.0013 1.6223-3.6236 3.6236-3.6236z" fill="#fff" stroke-width=".067942"/>
  <path d="m-46.432 43.478c0.0084-2.0012-1.607-3.6304-3.6083-3.6388-2.0012-0.0084-3.6304 1.607-3.6388 3.6083-0.0058 1.3833 0.77638 2.6492 2.0161 3.2628l-0.5595 3.9135c-0.05605 0.39631 0.21979 0.76299 0.6161 0.81904 0.03356 0.0049 0.06747 0.0072 0.10137 0.0072h2.8989c0.40025 0.0042 0.728-0.31707 0.73201-0.71734 3.39e-4 -0.03704-2e-3 -0.07378-0.0073-0.11029l-0.55951-3.9135c1.2246-0.61284 2.001-1.8615 2.009-3.2308z" color="#000000" color-rendering="auto" dominant-baseline="auto" fill="#2b3034" fill-opacity=".99608" image-rendering="auto" shape-rendering="auto" solid-color="#000000" stop-color="#000000" style="font-feature-settings:normal;font-variant-alternates:normal;font-variant-caps:normal;font-variant-east-asian:normal;font-variant-ligatures:normal;font-variant-numeric:normal;font-variant-position:normal;font-variation-settings:normal;inline-size:0;isolation:auto;mix-blend-mode:normal;shape-margin:0;shape-padding:0;text-decoration-color:#000000;text-decoration-line:none;text-decoration-style:solid;text-indent:0;text-orientation:mixed;text-transform:none;white-space:normal"/>
 </g>
</svg>
