<?xml version="1.0" encoding="UTF-8" standalone="no"?>
<svg
   xmlns:dc="http://purl.org/dc/elements/1.1/"
   xmlns:cc="http://creativecommons.org/ns#"
   xmlns:rdf="http://www.w3.org/1999/02/22-rdf-syntax-ns#"
   xmlns:svg="http://www.w3.org/2000/svg"
   xmlns="http://www.w3.org/2000/svg"
   xmlns:sodipodi="http://sodipodi.sourceforge.net/DTD/sodipodi-0.dtd"
   xmlns:inkscape="http://www.inkscape.org/namespaces/inkscape"
   height="64"
   width="64"
   version="1.1"
   id="svg26"
   sodipodi:docname="multimedia-video-player.svg"
   inkscape:version="1.0.1 (3bc2e813f5, 2020-09-07, custom)">
  <metadata
     id="metadata32">
    <rdf:RDF>
      <cc:Work
         rdf:about="">
        <dc:format>image/svg+xml</dc:format>
        <dc:type
           rdf:resource="http://purl.org/dc/dcmitype/StillImage" />
        <dc:title></dc:title>
      </cc:Work>
    </rdf:RDF>
  </metadata>
  <defs
     id="defs30">
    <linearGradient
       id="linearGradient862-3"
       x1="7.9373"
       x2="7.9373"
       y1="15.081"
       y2="1.852"
       gradientTransform="matrix(3.7795,0,0,3.7795,-85.599291,-0.9685624)"
       gradientUnits="userSpaceOnUse">
      <stop
         stop-color="#f1efeb"
         offset="0"
         id="stop857" />
      <stop
         stop-color="#fdfcfc"
         offset="1"
         id="stop859" />
    </linearGradient>
    <linearGradient
       id="linearGradient898"
       x1="29.969"
       x2="29.969"
       y1="18.796"
       y2="45.449"
       gradientTransform="matrix(2.1429,0,0,2.1429,-911.94943,-1108.5001)"
       gradientUnits="userSpaceOnUse">
      <stop
         stop-color="#cf30ac"
         offset="0"
         id="stop862" />
      <stop
         stop-color="#ab31f8"
         offset="1"
         id="stop864" />
    </linearGradient>
    <filter
       id="filter1022"
       x="-.108"
       y="-.108"
       width="1.216"
       height="1.216"
       color-interpolation-filters="sRGB">
      <feGaussianBlur
         stdDeviation="1.44"
         id="feGaussianBlur867" />
    </filter>
    <filter
       id="filter2761"
       x="-.024"
       y="-.024"
       width="1.048"
       height="1.048"
       color-interpolation-filters="sRGB">
      <feGaussianBlur
         stdDeviation="0.14552168"
         id="feGaussianBlur2" />
    </filter>
    <linearGradient
       id="linearGradient4673"
       x1="1.2573"
       x2="15.644"
       y1="15.429"
       y2="1.1082"
       gradientUnits="userSpaceOnUse"
       gradientTransform="translate(0.66635014,-2.2680373)">
      <stop
         stop-color="#32dcff"
         offset="0"
         id="stop5" />
      <stop
         stop-color="#3296ff"
         offset="1"
         id="stop7-3" />
    </linearGradient>
    <style
       type="text/css"
       id="style861" />
    <filter
       id="filter1057"
       x="-.027"
       y="-.027"
       width="1.054"
       height="1.054"
       color-interpolation-filters="sRGB">
      <feGaussianBlur
         stdDeviation="0.61875"
         id="feGaussianBlur863" />
    </filter>
    <linearGradient
       id="linearGradient1053"
       x1="-127"
       x2="-72"
       y1="60"
       y2="5"
       gradientTransform="translate(131.5,-0.51000007)"
       gradientUnits="userSpaceOnUse">
      <stop
         stop-color="#32d7ff"
         offset="0"
         id="stop866" />
      <stop
         stop-color="#329bff"
         offset="1"
         id="stop868" />
    </linearGradient>
    <style
       type="text/css"
       id="style871" />
    <style
       type="text/css"
       id="style873" />
    <style
       type="text/css"
       id="style875" />
    <style
       type="text/css"
       id="style877" />
    <style
       type="text/css"
       id="style879" />
    <style
       type="text/css"
       id="style881" />
    <style
       type="text/css"
       id="style883" />
  </defs>
  <sodipodi:namedview
     pagecolor="#ffffff"
     bordercolor="#666666"
     borderopacity="1"
     objecttolerance="10"
     gridtolerance="10"
     guidetolerance="10"
     inkscape:pageopacity="0"
     inkscape:pageshadow="2"
     inkscape:window-width="1920"
     inkscape:window-height="992"
     id="namedview28"
     showgrid="false"
     inkscape:zoom="4.328125"
     inkscape:cx="-25.559325"
     inkscape:cy="21.941494"
     inkscape:window-x="0"
     inkscape:window-y="0"
     inkscape:window-maximized="1"
     inkscape:current-layer="svg26" />
  <linearGradient
     id="a"
     gradientUnits="userSpaceOnUse"
     x1="22.133511"
     x2="22.596601"
     y1="44.120548"
     y2="4.1789422">
    <stop
       offset="0"
       stop-color="#0cf"
       id="stop2" />
    <stop
       offset="1"
       stop-color="#80e5ff"
       id="stop4" />
  </linearGradient>
  <linearGradient
     id="b"
     gradientTransform="matrix(0.13328411,0,0,0.13300584,-1.879486,-222.45609)"
     gradientUnits="userSpaceOnUse"
     x1="72.850105"
     x2="72.285057"
     y1="491.14539"
     y2="462.67584">
    <stop
       offset="0"
       stop-color="#2e3436"
       id="stop7" />
    <stop
       offset="1"
       stop-color="#555753"
       id="stop9" />
  </linearGradient>
  <rect
     x="4.5"
     y="4.5"
     width="55"
     height="55"
     ry="15"
     fill="#141414"
     filter="url(#filter1057)"
     opacity="0.3"
     stroke-linecap="round"
     stroke-width="2.7444"
     id="rect899" />
  <rect
     x="4.5"
     y="4.5"
     width="55"
     height="55"
     ry="15"
     fill="url(#linearGradient1053)"
     stroke-linecap="round"
     stroke-width="2.7444"
     id="rect901"
     style="fill:url(#linearGradient1053)" />
  <circle
     cx="-1031.6833"
     cy="-1279.3"
     r="0"
     fill="#5e4aa6"
     id="circle887"
     style="stroke-width:1" />
  <circle
     cx="-913.22986"
     cy="-1318.5997"
     r="0"
     id="circle889"
     style="fill:#5e4aa6;stroke-width:1.00001" />
  <circle
     cx="186.30849"
     cy="-53.108513"
     r="0"
     fill-rule="evenodd"
     id="circle891"
     style="fill:#5e4aa6;stroke-width:1.00001" />
  <circle
     cx="-834.72754"
     cy="-1390.1099"
     r="0"
     id="circle893"
     style="fill:#5e4aa6;stroke-width:1.00001" />
  <circle
     cx="264.8078"
     cy="-124.58192"
     r="0"
     fill-rule="evenodd"
     id="circle895"
     style="fill:#5e4aa6;stroke-width:1.00001" />
  <path
     d="m 32.000001,17.130237 a 16,16 0 0 0 -16,16 16,16 0 0 0 16,16 16,16 0 0 0 16,-16 16,16 0 0 0 -16,-16 z m -4.2598,6.6602 c 0.34816,0.01806 0.67355,0.13305 0.97656,0.34375 l 11.213,7.7266 c 0.3532,0.2488 0.59792,0.57707 0.73437,0.98242 0.13645,0.4054 0.13645,0.81524 0,1.2246 -0.13642,0.40535 -0.38109,0.7337 -0.73828,0.97852 l -11.209,7.7266 c -0.40534,0.27692 -0.84641,0.38832 -1.332,0.32812 -0.48561,-0.0602 -0.88781,-0.27346 -1.2129,-0.63867 -0.32508,-0.36523 -0.49023,-0.79357 -0.49023,-1.2832 v -15.451 c 0,-0.48963 0.16515,-0.91994 0.49023,-1.2852 0.32512,-0.36522 0.72727,-0.57847 1.2129,-0.63867 0.12107,-0.01538 0.23942,-0.01969 0.35547,-0.01367 z"
     filter="url(#filter1022)"
     opacity="0.15"
     stroke-width="0"
     id="path1011"
     style="image-rendering:optimizeSpeed" />
  <path
     id="rect1073"
     style="fill:#ffffff;fill-opacity:1;stroke-width:0.5;stroke-linecap:round;paint-order:stroke fill markers"
     d="M 32 16 A 16 16 0 0 0 16 32 A 16 16 0 0 0 32 48 A 16 16 0 0 0 48 32 A 16 16 0 0 0 32 16 z M 27.740234 22.660156 C 28.088394 22.678216 28.413787 22.793206 28.716797 23.003906 L 39.929688 30.730469 C 40.282888 30.979269 40.527613 31.307541 40.664062 31.712891 C 40.800513 32.118291 40.800513 32.52814 40.664062 32.9375 C 40.527642 33.34285 40.282971 33.671196 39.925781 33.916016 L 28.716797 41.642578 C 28.311457 41.919498 27.870356 42.030903 27.384766 41.970703 C 26.899156 41.910503 26.496965 41.697241 26.171875 41.332031 C 25.846795 40.966801 25.681641 40.538458 25.681641 40.048828 L 25.681641 24.597656 C 25.681641 24.108026 25.846795 23.67776 26.171875 23.3125 C 26.496995 22.94728 26.899136 22.734028 27.384766 22.673828 C 27.505836 22.658438 27.624184 22.654136 27.740234 22.660156 z " />
</svg>
