<?xml version="1.0" encoding="UTF-8" standalone="no"?>
<svg
   width="64"
   height="64"
   version="1"
   id="svg8"
   sodipodi:docname="eclipse.svg"
   xml:space="preserve"
   inkscape:version="1.4.2 (ebf0e940d0, 2025-05-08)"
   xmlns:inkscape="http://www.inkscape.org/namespaces/inkscape"
   xmlns:sodipodi="http://sodipodi.sourceforge.net/DTD/sodipodi-0.dtd"
   xmlns:xlink="http://www.w3.org/1999/xlink"
   xmlns="http://www.w3.org/2000/svg"
   xmlns:svg="http://www.w3.org/2000/svg"><sodipodi:namedview
     id="namedview8"
     pagecolor="#505050"
     bordercolor="#eeeeee"
     borderopacity="1"
     inkscape:showpageshadow="0"
     inkscape:pageopacity="0"
     inkscape:pagecheckerboard="0"
     inkscape:deskcolor="#505050"
     inkscape:zoom="5.953125"
     inkscape:cx="41.406824"
     inkscape:cy="33.76378"
     inkscape:window-width="1920"
     inkscape:window-height="1003"
     inkscape:window-x="0"
     inkscape:window-y="0"
     inkscape:window-maximized="1"
     inkscape:current-layer="svg8" /><defs
     id="defs8"><linearGradient
       id="linearGradient65558"
       inkscape:collect="always"><stop
         style="stop-color:#eff1f3;stop-opacity:0.99607843"
         offset="0"
         id="stop65558" /><stop
         style="stop-color:#e0e2e4;stop-opacity:1"
         offset="1"
         id="stop65559" /></linearGradient><filter
       inkscape:collect="always"
       style="color-interpolation-filters:sRGB"
       id="filter1057"
       x="-0.026999999"
       width="1.054"
       y="-0.026999999"
       height="1.054"><feGaussianBlur
         inkscape:collect="always"
         stdDeviation="0.61875"
         id="feGaussianBlur1059" /></filter><linearGradient
       inkscape:collect="always"
       xlink:href="#linearGradient1051"
       id="linearGradient1053"
       x1="-127"
       y1="60"
       x2="-72"
       y2="5"
       gradientUnits="userSpaceOnUse"
       gradientTransform="translate(131.5,-0.51)" /><linearGradient
       inkscape:collect="always"
       id="linearGradient1051"><stop
         style="stop-color:#8cd750;stop-opacity:1"
         offset="0"
         id="stop1047" /><stop
         id="stop989"
         offset="0.4958486"
         style="stop-color:#7dcd32;stop-opacity:0.99607843" /><stop
         style="stop-color:#87d241;stop-opacity:0.99607843"
         offset="1"
         id="stop1049" /></linearGradient><linearGradient
       inkscape:collect="always"
       xlink:href="#linearGradient65558"
       id="linearGradient65559"
       x1="59.499996"
       y1="4.4999995"
       x2="7.0956163"
       y2="59.500008"
       gradientUnits="userSpaceOnUse" /></defs><rect
     style="opacity:0.3;fill:#141414;fill-opacity:1;stroke-width:2.74436;stroke-linecap:round;filter:url(#filter1057)"
     id="rect1055"
     width="55"
     height="55"
     x="4.4999995"
     y="4.4999995"
     ry="15" /><rect
     ry="14.999999"
     y="4.4999995"
     x="4.4999995"
     height="54.999996"
     width="54.999996"
     id="rect1045"
     style="fill:url(#linearGradient1053);fill-opacity:1;stroke-width:2.74436;stroke-linecap:round" /><path
     id="rect65557"
     style="fill:url(#linearGradient65559);fill-opacity:1;stroke-width:2.74436;stroke-linecap:round"
     d="m 19.499917,4.4999995 c -5.16738,0 -9.7087605,2.586431 -12.4043005,6.5410155 0.73927,0.20864 2.31176,0.677824 3.4941405,1.042969 1.182389,0.365145 2.253549,0.664063 2.378909,0.664063 9.8e-4,-1.49e-4 0.0049,-0.0017 0.0059,-0.0019 9.7e-4,-4.43e-4 0.0049,-0.0014 0.0059,-0.002 0.11861,-0.09041 0.21484,-1.276713 0.21484,-2.71289 0,-3.1867965 -0.43173,-2.9662415 4.246101,-2.1640635 12.53975,2.1503835 23.010452,5.0033275 29.363277,8.0000005 3.286429,1.550234 4.82084,3.123958 6.625,6.798828 1.413897,2.879946 4.24581,11.06787 4.492187,12.988282 l 0.146485,1.142578 -1.988281,1.263672 c -4.977704,3.167958 -7.952906,4.148484 -12.585938,4.146484 -2.68784,-0.0012 -3.689199,-0.123767 -5.705078,-0.701172 -5.304725,-1.519425 -11.182722,-4.252079 -16.902342,-7.855469 -1.42675,-0.898856 -2.63715,-1.591422 -2.68946,-1.539062 -0.05237,0.05237 0.4738,1.460083 1.16993,3.126953 l 1.26562,3.03125 4.36524,2.021484 c 6.805334,3.151074 12.469251,5.077442 16.119137,5.484376 3.263679,0.363876 9.291202,-1.074446 13.603515,-3.246094 3.016657,-1.519164 3.205308,-1.361512 2.212891,1.851562 -0.807044,2.612905 -1.690662,3.464359 -5.539062,5.333985 -5.420222,2.633246 -10.072846,3.927524 -17.003907,4.728515 -4.918723,0.568449 -9.733454,0.529215 -15.599604,-0.123046 -5.848251,-0.650267 -9.0265805,-0.690529 -10.7617205,-0.134766 2.7473105,3.25363 6.8594705,5.314453 11.4707005,5.314453 h 24.999999 c 8.31,0 15,-6.69 15,-15 V 19.5 c 0,-8.31 -6.69,-15.0000005 -15,-15.0000005 z M 39.962807,17.77539 c -2.250827,0 -2.947204,0.104495 -4.054688,0.615235 -6.388079,2.945999 -8.047641,10.842754 -3.357421,15.974609 1.44369,1.579627 2.774276,2.410333 4.830078,3.011719 0.711008,0.207989 2.033652,0.313353 3.160156,0.251953 3.586898,-0.195512 6.745523,-2.348075 8.404297,-5.726563 0.713685,-1.453595 0.798828,-1.902553 0.798828,-4.208984 0,-2.227514 -0.09886,-2.792365 -0.722656,-4.123047 -0.966093,-2.06086 -2.578834,-3.755855 -4.642578,-4.875 -1.609056,-0.872573 -1.842386,-0.919922 -4.416016,-0.919922 z m 0.05859,2.695313 c 1.244226,0.02153 2.489228,0.234127 3.240234,0.630859 2.200435,1.162415 3.902344,3.97642 3.902344,6.455078 0,2.94329 -2.209762,5.973 -4.951172,6.78711 -2.958629,0.87862 -5.658276,0.184731 -7.580078,-1.947266 -1.394813,-1.547369 -1.962009,-3.202635 -1.820313,-5.302734 0.186302,-2.761505 1.590398,-4.916438 3.976563,-6.103516 0.74543,-0.370838 1.988195,-0.54106 3.232422,-0.519531 z m 1.279297,3.724609 c -0.616024,-0.0077 -1.234574,0.107453 -1.751953,0.375 -1.931385,0.998758 -1.433686,2.886655 0.890624,3.378906 1.956544,0.414361 4.157047,-0.841341 3.808594,-2.173828 -0.246664,-0.943242 -1.592013,-1.563059 -2.947265,-1.580078 z" /></svg>
