<?xml version="1.0" encoding="UTF-8" standalone="no"?>
<svg
   version="1.1"
   viewBox="0 0 64 64"
   id="svg29"
   sodipodi:docname="neochat.svg"
   xml:space="preserve"
   width="64"
   height="64"
   inkscape:version="1.2.2 (b0a8486541, 2022-12-01)"
   xmlns:inkscape="http://www.inkscape.org/namespaces/inkscape"
   xmlns:sodipodi="http://sodipodi.sourceforge.net/DTD/sodipodi-0.dtd"
   xmlns:xlink="http://www.w3.org/1999/xlink"
   xmlns="http://www.w3.org/2000/svg"
   xmlns:svg="http://www.w3.org/2000/svg"><sodipodi:namedview
     id="namedview31"
     pagecolor="#ffffff"
     bordercolor="#999999"
     borderopacity="1"
     inkscape:showpageshadow="0"
     inkscape:pageopacity="0"
     inkscape:pagecheckerboard="0"
     inkscape:deskcolor="#d1d1d1"
     showgrid="false"
     inkscape:zoom="5.9662135"
     inkscape:cx="40.39413"
     inkscape:cy="6.2853936"
     inkscape:window-width="1920"
     inkscape:window-height="965"
     inkscape:window-x="0"
     inkscape:window-y="40"
     inkscape:window-maximized="1"
     inkscape:current-layer="svg29" /><defs
     id="defs7"><linearGradient
       inkscape:collect="always"
       id="linearGradient5178"><stop
         style="stop-color:#67add2;stop-opacity:1"
         offset="0"
         id="stop5174" /><stop
         style="stop-color:#2b7699;stop-opacity:1"
         offset="1"
         id="stop5176" /></linearGradient><linearGradient
       inkscape:collect="always"
       id="linearGradient657"><stop
         style="stop-color:#44ebd4;stop-opacity:1"
         offset="0"
         id="stop653" /><stop
         style="stop-color:#3eb9e5;stop-opacity:1"
         offset="1"
         id="stop655" /></linearGradient><linearGradient
       id="bg"
       x2="0"
       y1="1"
       y2="47"
       gradientUnits="userSpaceOnUse"
       gradientTransform="translate(75.849253)"><stop
         style="stop-color:#b7ebeb"
         offset="0"
         id="stop2" /><stop
         style="stop-color:#a8e6e6"
         offset="1"
         id="stop4" /></linearGradient><filter
       inkscape:collect="always"
       style="color-interpolation-filters:sRGB"
       id="filter1057"
       x="-0.026999999"
       width="1.054"
       y="-0.026999999"
       height="1.054"><feGaussianBlur
         inkscape:collect="always"
         stdDeviation="0.61875"
         id="feGaussianBlur1059" /></filter><linearGradient
       inkscape:collect="always"
       xlink:href="#linearGradient1051"
       id="linearGradient1053"
       x1="-127"
       y1="60"
       x2="-72"
       y2="5"
       gradientUnits="userSpaceOnUse"
       gradientTransform="translate(131.5,-0.5099996)" /><linearGradient
       inkscape:collect="always"
       id="linearGradient1051"><stop
         style="stop-color:#dee0e2;stop-opacity:1"
         offset="0"
         id="stop1047" /><stop
         style="stop-color:#f1f3f5;stop-opacity:0.99607843"
         offset="1"
         id="stop1049" /></linearGradient><linearGradient
       inkscape:collect="always"
       xlink:href="#linearGradient657"
       id="linearGradient659"
       x1="13"
       y1="15.675099"
       x2="44.666714"
       y2="41.008484"
       gradientUnits="userSpaceOnUse" /><linearGradient
       inkscape:collect="always"
       xlink:href="#linearGradient5178"
       id="linearGradient4482"
       x1="47.833382"
       y1="18.841766"
       x2="47.833382"
       y2="52.09177"
       gradientUnits="userSpaceOnUse" /></defs><rect
     style="opacity:0.3;fill:#141414;fill-opacity:1;stroke-width:2.74436;stroke-linecap:round;filter:url(#filter1057)"
     id="rect1055"
     width="55"
     height="55"
     x="4.4999995"
     y="4.4999995"
     ry="15" /><rect
     ry="14.999999"
     y="4.5000019"
     x="4.5000019"
     height="54.999996"
     width="54.999996"
     id="rect1045"
     style="fill:url(#linearGradient1053);fill-opacity:1;stroke-width:2.74436;stroke-linecap:round" /><path
     d="m 47.833332,18.841766 c 1.754334,0 3.166667,1.412334 3.166667,3.166667 v 19.000002 c 0,1.754334 -1.412333,3.166667 -3.166667,3.166667 h -4.75 c -0.874444,0 -1.583334,0.708891 -1.583334,1.583334 v 4.75 c 0,0.874444 -0.70889,1.583334 -1.583333,1.583334 -0.437222,0 -0.816684,-0.194592 -1.119465,-0.463869 L 30.416621,44.17515 H 19.333286 c -1.754333,0 -3.166667,-1.412334 -3.166667,-3.166667 V 22.008481 c 0,-1.754334 1.412334,-3.166667 3.166667,-3.166667 z"
     style="fill:url(#linearGradient4482);stroke-width:1.58333;fill-opacity:1"
     id="path579" /><path
     d="M 16.166667,15.675099 C 14.412333,15.675099 13,17.087433 13,18.841766 v 19.000002 c 0,1.754334 1.412333,3.166667 3.166667,3.166667 h 4.75 c 0.874444,0 1.583334,0.708891 1.583334,1.583334 v 4.75 c 0,0.874444 0.70889,1.583334 1.583333,1.583334 0.437222,0 0.816684,-0.194592 1.119465,-0.463869 l 8.380579,-7.452751 h 11.083335 c 1.754333,0 3.166667,-1.412334 3.166667,-3.166667 V 18.841814 c 0,-1.754334 -1.412334,-3.166667 -3.166667,-3.166667 z"
     style="fill:url(#linearGradient659);stroke-width:1.58333;fill-opacity:1"
     id="path581" /><path
     d="m 17.75,20.4251 c -0.877166,0 -1.583333,0.706167 -1.583333,1.583333 0,0.877167 0.706167,1.583334 1.583333,1.583334 h 25.333332 c 0.877166,0 1.583333,-0.706167 1.583333,-1.583334 0,-0.877166 -0.706167,-1.583333 -1.583333,-1.583333 z m 0,6.333334 c -0.877166,0 -1.583333,0.706167 -1.583333,1.583333 0,0.877167 0.706167,1.583334 1.583333,1.583334 h 18.999998 c 0.877166,0 1.583333,-0.706167 1.583333,-1.583334 0,-0.877166 -0.706167,-1.583333 -1.583333,-1.583333 z m 0,6.333334 c -0.877166,0 -1.583333,0.706167 -1.583333,1.583333 0,0.877167 0.706167,1.583334 1.583333,1.583334 h 12.666668 c 0.877167,0 1.583334,-0.706167 1.583334,-1.583334 0,-0.877166 -0.706167,-1.583333 -1.583334,-1.583333 z"
     style="fill:#f9f9f9;stroke-width:1.58333"
     id="path583" /></svg>
