<?xml version="1.0" encoding="UTF-8" standalone="no"?>
<svg
   xmlns:dc="http://purl.org/dc/elements/1.1/"
   xmlns:cc="http://creativecommons.org/ns#"
   xmlns:rdf="http://www.w3.org/1999/02/22-rdf-syntax-ns#"
   xmlns:svg="http://www.w3.org/2000/svg"
   xmlns="http://www.w3.org/2000/svg"
   xmlns:xlink="http://www.w3.org/1999/xlink"
   xmlns:sodipodi="http://sodipodi.sourceforge.net/DTD/sodipodi-0.dtd"
   xmlns:inkscape="http://www.inkscape.org/namespaces/inkscape"
   width="64"
   height="64"
   version="1.1"
   viewBox="0 0 16.933 16.933"
   id="svg61"
   sodipodi:docname="orca.svg"
   inkscape:version="1.0 (4035a4fb49, 2020-05-01)">
  <sodipodi:namedview
     inkscape:document-rotation="0"
     pagecolor="#ffffff"
     bordercolor="#666666"
     borderopacity="1"
     objecttolerance="10"
     gridtolerance="10"
     guidetolerance="10"
     inkscape:pageopacity="0"
     inkscape:pageshadow="2"
     inkscape:window-width="1920"
     inkscape:window-height="932"
     id="namedview63"
     showgrid="false"
     inkscape:zoom="5.9609375"
     inkscape:cx="88.044388"
     inkscape:cy="37.364765"
     inkscape:window-x="0"
     inkscape:window-y="36"
     inkscape:window-maximized="1"
     inkscape:current-layer="svg61" />
  <metadata
     id="metadata2">
    <rdf:RDF>
      <cc:Work
         rdf:about="">
        <dc:format>image/svg+xml</dc:format>
        <dc:type
           rdf:resource="http://purl.org/dc/dcmitype/StillImage" />
        <dc:title></dc:title>
      </cc:Work>
    </rdf:RDF>
  </metadata>
  <defs
     id="defs31">
    <clipPath
       id="clipPath6">
      <rect
         width="384"
         height="384"
         id="rect4" />
    </clipPath>
    <clipPath
       id="clipPath10">
      <rect
         width="384"
         height="384"
         id="rect8" />
    </clipPath>
    <clipPath
       id="clipPath14">
      <rect
         width="384"
         height="384"
         id="rect12" />
    </clipPath>
    <clipPath
       id="clipPath18">
      <rect
         width="384"
         height="384"
         id="rect16" />
    </clipPath>
    <clipPath
       id="clipPath22">
      <rect
         width="384"
         height="384"
         id="rect20" />
    </clipPath>
    <linearGradient
       id="linearGradient11422"
       x1="-6.1472"
       x2="-6.1472"
       y1="-137.82"
       y2="-100.78"
       gradientTransform="matrix(0.53033,0,0,0.53033,-21.262437,71.863)"
       gradientUnits="userSpaceOnUse">
      <stop
         stop-color="#32b4ff"
         offset="0"
         id="stop24" />
      <stop
         stop-color="#3287ff"
         offset="1"
         id="stop26" />
    </linearGradient>
    <style
       type="text/css"
       id="style29" />
    <linearGradient
       id="linearGradient11422-6"
       x1="-6.1472"
       x2="-6.1472"
       y1="-137.82"
       y2="-100.78"
       gradientTransform="matrix(2.0044,0,0,2.0044,-39.184632,271.61)"
       gradientUnits="userSpaceOnUse">
      <stop
         stop-color="#32b4ff"
         offset="0"
         id="stop4" />
      <stop
         stop-color="#3287ff"
         offset="1"
         id="stop6" />
    </linearGradient>
    <style
       type="text/css"
       id="style9" />
    <style
       type="text/css"
       id="style11" />
    <style
       id="style865"
       type="text/css" />
    <filter
       color-interpolation-filters="sRGB"
       height="1.048"
       width="1.048"
       y="-.024"
       x="-.024"
       id="filter2761">
      <feGaussianBlur
         id="feGaussianBlur867"
         stdDeviation="0.14552168" />
    </filter>
    <linearGradient
       gradientUnits="userSpaceOnUse"
       gradientTransform="translate(25.049801,0.1404055)"
       y2="1.1082"
       y1="15.429"
       x2="15.644"
       x1="1.2573"
       id="linearGradient4673">
      <stop
         id="stop870"
         offset="0"
         stop-color="#32dcff" />
      <stop
         id="stop872"
         offset="1"
         stop-color="#3296ff" />
    </linearGradient>
    <style
       id="style4"
       type="text/css" />
    <filter
       color-interpolation-filters="sRGB"
       height="1.048"
       width="1.048"
       y="-.024"
       x="-.024"
       id="filter2761-6">
      <feGaussianBlur
         id="feGaussianBlur6"
         stdDeviation="0.14552168" />
    </filter>
    <linearGradient
       gradientUnits="userSpaceOnUse"
       gradientTransform="matrix(3.7796,0,0,3.7796,110.07575,0.53066)"
       y2="1.1082"
       y1="15.429"
       x2="15.644"
       x1="1.2573"
       id="linearGradient4673-7">
      <stop
         id="stop9"
         offset="0"
         stop-color="#32dcff" />
      <stop
         id="stop11"
         offset="1"
         stop-color="#3296ff" />
    </linearGradient>
    <linearGradient
       gradientUnits="userSpaceOnUse"
       gradientTransform="matrix(1.0000066,0,0,1.0000066,19.187825,0)"
       y2="1.0583"
       y1="6.879"
       x2="7.9373"
       x1="7.9373"
       id="linearGradient865">
      <stop
         id="stop2"
         offset="0"
         stop-color="#fff" />
      <stop
         id="stop4-53"
         offset="1"
         stop-color="#fcc" />
    </linearGradient>
    <linearGradient
       gradientTransform="translate(19.187825)"
       gradientUnits="userSpaceOnUse"
       y2="3.9327"
       y1="14.579"
       x2="12.314"
       x1="2.6278"
       id="linearGradient855">
      <stop
         id="stop7"
         offset="0"
         stop-color="#d462aa" />
      <stop
         id="stop9-3"
         offset=".15178"
         stop-color="#56c7d9" />
      <stop
         id="stop11-6"
         offset=".33294"
         stop-color="#2da8b8" />
      <stop
         id="stop13"
         offset=".53353"
         stop-color="#72cb6b" />
      <stop
         id="stop15"
         offset=".71019"
         stop-color="#c4dc2b" />
      <stop
         id="stop17"
         offset=".8623"
         stop-color="#f9da3e" />
      <stop
         id="stop19"
         offset="1"
         stop-color="#f69429" />
    </linearGradient>
    <linearGradient
       gradientUnits="userSpaceOnUse"
       gradientTransform="matrix(0.26458,0,0,0.26458,19.187825,0)"
       y2="6.9915"
       y1="19"
       x2="57.008"
       x1="45"
       id="linearGradient910">
      <stop
         id="stop22"
         offset="0"
         stop-color="#fff" />
      <stop
         id="stop24-5"
         offset="1"
         stop-color="#ffe3cc" />
    </linearGradient>
    <filter
       inkscape:collect="always"
       style="color-interpolation-filters:sRGB"
       id="filter1057"
       x="-0.027000001"
       width="1.054"
       y="-0.027000001"
       height="1.054">
      <feGaussianBlur
         inkscape:collect="always"
         stdDeviation="0.61875"
         id="feGaussianBlur1059" />
    </filter>
    <linearGradient
       inkscape:collect="always"
       xlink:href="#linearGradient1051"
       id="linearGradient1053"
       x1="-127"
       y1="60"
       x2="-72"
       y2="5"
       gradientUnits="userSpaceOnUse"
       gradientTransform="matrix(0.26457812,0,0,0.26457812,34.792023,-0.13493442)" />
    <linearGradient
       inkscape:collect="always"
       id="linearGradient1051">
      <stop
         style="stop-color:#32d7ff;stop-opacity:1"
         offset="0"
         id="stop1047" />
      <stop
         style="stop-color:#329bff;stop-opacity:1"
         offset="1"
         id="stop1049" />
    </linearGradient>
    <style
       type="text/css"
       id="style872" />
    <filter
       id="filter2761-7"
       x="-.024"
       y="-.024"
       width="1.048"
       height="1.048"
       color-interpolation-filters="sRGB">
      <feGaussianBlur
         stdDeviation="0.14552168"
         id="feGaussianBlur874" />
    </filter>
    <style
       id="style4-5"
       type="text/css" />
    <style
       id="style6"
       type="text/css" />
    <style
       id="style8"
       type="text/css" />
    <filter
       color-interpolation-filters="sRGB"
       height="1.048"
       width="1.048"
       y="-.024"
       x="-.024"
       id="filter2761-36">
      <feGaussianBlur
         id="feGaussianBlur10"
         stdDeviation="0.14552168" />
    </filter>
    <linearGradient
       gradientUnits="userSpaceOnUse"
       gradientTransform="matrix(3.7796,0,0,3.7796,111.78704,0.53107)"
       y2="1.17"
       y1="15.576"
       x2="15.65"
       x1="1.3315"
       id="linearGradient1024-6">
      <stop
         id="stop13-7"
         offset="0"
         stop-color="#00dc96" />
      <stop
         id="stop15-5"
         offset="1"
         stop-color="#14d29b" />
    </linearGradient>
    <linearGradient
       gradientUnits="userSpaceOnUse"
       gradientTransform="matrix(0.27476,0,0,0.27476,-24.952118,-0.32515)"
       y2="12.461"
       y1="57.955"
       x2="45.628"
       x1="45.628"
       id="b">
      <stop
         id="stop2-3"
         offset="0" />
      <stop
         id="stop4-5"
         offset="1"
         stop-opacity="0" />
    </linearGradient>
    <style
       type="text/css"
       id="style872-0" />
    <style
       type="text/css"
       id="style874" />
    <style
       type="text/css"
       id="style876" />
    <filter
       id="filter2761-3"
       x="-.024"
       y="-.024"
       width="1.048"
       height="1.048"
       color-interpolation-filters="sRGB">
      <feGaussianBlur
         stdDeviation="0.14552168"
         id="feGaussianBlur878" />
    </filter>
    <linearGradient
       id="linearGradient1024-6-6"
       x1="1.3315"
       x2="15.65"
       y1="15.576"
       y2="1.17"
       gradientTransform="matrix(3.7796,0,0,3.7796,-0.0020773,0.53047)"
       gradientUnits="userSpaceOnUse">
      <stop
         stop-color="#00dc96"
         offset="0"
         id="stop881" />
      <stop
         stop-color="#14d29b"
         offset="1"
         id="stop883" />
    </linearGradient>
  </defs>
  <circle
     cx="-297.6"
     cy="-338.48"
     r="0"
     fill="#5e4aa6"
     stroke-width=".26458"
     id="circle33" />
  <g
     transform="matrix(1 0 0 1 32.763 -10.103)"
     fill="#5e4aa6"
     stroke-width=".26458"
     id="g47">
    <circle
       cx="-299.02"
       cy="-338.77"
       r="0"
       id="circle39" />
    <circle
       cx="-8.1062"
       cy="-3.9487"
       r="0"
       fill-rule="evenodd"
       id="circle41" />
    <circle
       cx="-278.25"
       cy="-357.69"
       r="0"
       id="circle43" />
    <circle
       cx="12.663"
       cy="-22.859"
       r="0"
       fill-rule="evenodd"
       id="circle45" />
  </g>
  <style
     id="style53"><![CDATA[.B{clip-path:url(#C)}.C{fill:#3e2723}.D{fill-opacity:.15}.E{fill-opacity:.2}]]></style>
  <style
     id="style55"><![CDATA[.B{clip-path:url(#C)}.C{fill:#3e2723}.D{fill-opacity:.15}.E{fill-opacity:.2}]]></style>
  <style
     id="style57"><![CDATA[.B{clip-path:url(#C)}.C{fill:#3e2723}.D{fill-opacity:.15}.E{fill-opacity:.2}]]></style>
  <style
     id="style59"><![CDATA[.B{clip-path:url(#C)}.C{fill:#3e2723}.D{fill-opacity:.15}.E{fill-opacity:.2}]]></style>
  <style
     type="text/css"
     id="style15">
	.st0{fill:#535555;}
	.st1{fill:url(#SVGID_1_);}
	.st2{fill:#717475;}
	.st3{fill:#E8E9E9;}
	.st4{fill:#585A5A;}
	.st5{fill:url(#SVGID_2_);}
	.st6{fill:#D2DADD;}
	.st7{fill:#7F8587;}
	.st8{fill:url(#SVGID_3_);}
	.st9{fill:url(#SVGID_4_);}
	.st10{fill:url(#SVGID_5_);}
	.st11{fill:#D8D8D8;}
	.st12{fill:#8E9698;}
	.st13{fill:#B3BBBD;}
	.st14{fill:url(#SVGID_6_);}
	.st15{fill:#CCD1D3;}
	.st16{fill:url(#SVGID_7_);}
	.st17{fill:#E5E6E6;}
	.st18{fill:#ADB2B2;}
	.st19{fill:url(#SVGID_8_);}
	.st20{fill:url(#SVGID_9_);}
	.st21{fill:#E2E5E6;}
	.st22{opacity:0.8;fill:#BABEBF;}
</style>
  <circle
     id="circle17"
     fill="#5e4aa6"
     r="0"
     cy="-338.47479"
     cx="-297.59747"
     style="stroke-width:0.264578" />
  <g
     id="g31"
     stroke-width="0.26458"
     fill="#5e4aa6"
     transform="translate(32.762709,-10.102651)">
    <circle
       id="circle23"
       r="0"
       cy="-338.76999"
       cx="-299.01999" />
    <circle
       id="circle25"
       fill-rule="evenodd"
       r="0"
       cy="-3.9487"
       cx="-8.1062002" />
    <circle
       id="circle27"
       r="0"
       cy="-357.69"
       cx="-278.25" />
    <circle
       id="circle29"
       fill-rule="evenodd"
       r="0"
       cy="-22.858999"
       cx="12.663" />
  </g>
  <circle
     id="circle877"
     fill="#5e4aa6"
     r="0"
     cy="-338.47479"
     cx="-297.59747"
     style="stroke-width:0.264578" />
  <g
     id="g887"
     stroke-width="0.26458"
     fill="#5e4aa6"
     transform="translate(32.762714,-10.102646)">
    <circle
       id="circle879"
       r="0"
       cy="-338.76999"
       cx="-299.01999" />
    <circle
       id="circle881"
       fill-rule="evenodd"
       r="0"
       cy="-3.9487"
       cx="-8.1062002" />
    <circle
       id="circle883"
       r="0"
       cy="-357.69"
       cx="-278.25" />
    <circle
       id="circle885"
       fill-rule="evenodd"
       r="0"
       cy="-22.858999"
       cx="12.663" />
  </g>
  <circle
     style="stroke-width:0.264578"
     cx="-297.59747"
     cy="-338.47479"
     r="0"
     fill="#5e4aa6"
     id="circle16" />
  <g
     transform="translate(32.762709,-10.102651)"
     fill="#5e4aa6"
     stroke-width="0.26458"
     id="g26">
    <circle
       cx="-299.01999"
       cy="-338.76999"
       r="0"
       id="circle18" />
    <circle
       cx="-8.1062002"
       cy="-3.9487"
       r="0"
       fill-rule="evenodd"
       id="circle20" />
    <circle
       cx="-278.25"
       cy="-357.69"
       r="0"
       id="circle22" />
    <circle
       cx="12.663"
       cy="-22.858999"
       r="0"
       fill-rule="evenodd"
       id="circle24" />
  </g>
  <rect
     transform="scale(0.26457812)"
     style="opacity:0.3;fill:#141414;fill-opacity:1;stroke-width:2.74436;stroke-linecap:round;filter:url(#filter1057)"
     id="rect1055"
     width="55"
     height="55"
     x="4.4999995"
     y="4.4999995"
     ry="15" />
  <rect
     ry="3.9686716"
     y="1.1906021"
     x="1.1906021"
     height="14.551796"
     width="14.551796"
     id="rect1045"
     style="fill:url(#linearGradient1053);fill-opacity:1;stroke-width:0.726098;stroke-linecap:round" />
  <g
     transform="translate(32.772302,-1e-4)"
     id="g1027">
    <path
       id="path1025"
       style="fill:#ffffff;fill-opacity:1;stroke-width:3.7796"
       d="m 35.058594,14.960938 c -8.586878,0 -15.705263,6.411877 -16.794922,14.716796 l 2.947266,-0.169922 c 0.906386,-6.910246 6.674727,-11.701171 13.847656,-11.701171 7.801476,0 14.095703,6.289942 14.095703,14.091797 0,7.801476 -6.293849,14.097656 -14.095703,14.097656 -1.726069,0 -3.373973,-0.307997 -4.898438,-0.873047 l -1.585937,2.513672 c 1.834845,0.680026 4.418066,1.205078 6.484375,1.205078 C 44.398368,48.841797 52,41.237834 52,31.898438 c 0,-9.339775 -7.60201,-16.9375 -16.941406,-16.9375 z m 0,6.078124 a 2.1235316,2.1235316 0 0 0 -2.123047,2.125 2.1235316,2.1235316 0 0 0 2.123047,2.123047 2.1235316,2.1235316 0 0 0 2.123047,-2.123047 2.1235316,2.1235316 0 0 0 -2.123047,-2.125 z m -7.78125,4.539063 c -0.436318,0.01039 -0.81981,0.327252 -0.900391,0.773437 -0.09181,0.508924 0.245361,0.996148 0.753906,1.089844 1.838701,0.333501 3.285422,0.555879 5.078125,0.671875 1.18158,0.430195 0.845334,2.021117 0.447266,6.027344 l -1.796875,7.519531 c -0.113879,0.480577 0.183486,0.962179 0.664063,1.076172 0.479555,0.114069 0.960667,-0.180978 1.076171,-0.660156 l 1.875,-7.041016 c 0.265215,-0.989802 1.036189,-0.976347 1.328125,0 l 1.873047,7.041016 c 0.115429,0.480916 0.599351,0.776379 1.080078,0.660156 0.479367,-0.115467 0.774376,-0.59654 0.660157,-1.076172 l -1.791016,-7.5 -0.01758,-0.06836 c -0.397576,-3.984834 -0.728855,-5.567548 0.46875,-5.986328 1.757326,-0.118374 3.094334,-0.338703 4.908203,-0.664063 0.509944,-0.09209 0.847515,-0.579824 0.755859,-1.089844 -0.08058,-0.446522 -0.463808,-0.763345 -0.90039,-0.773437 -0.06236,-0.0014 -0.125654,0.0041 -0.189453,0.01563 -5.502723,0.987119 -9.744369,0.986552 -15.183594,0 -0.06376,-0.01138 -0.127128,-0.01714 -0.189453,-0.01563 z m -6.814453,6.533203 A 8.4640406,8.4640406 0 0 0 12,40.576172 a 8.4640406,8.4640406 0 0 0 8.462891,8.46289 8.4640406,8.4640406 0 0 0 8.464843,-8.46289 8.4640406,8.4640406 0 0 0 -8.464843,-8.464844 z m -0.189453,4.634766 c 0.220388,0.009 0.394037,0.191573 0.390624,0.412109 l -0.06055,7.044922 c -0.0024,0.351503 -0.419387,0.535091 -0.679688,0.298828 l -2.328125,-2.085937 h -1.419922 c -0.378565,0 -0.683593,-0.303076 -0.683593,-0.681641 v -2.115234 c 0,-0.378565 0.305066,-0.683594 0.683593,-0.683594 h 1.535157 l 2.273437,-2.082031 c 0.0785,-0.07245 0.182327,-0.110837 0.289063,-0.107422 z m 3.86914,0.623047 c 0.06747,-0.01237 0.136667,-0.01267 0.205078,0.002 0.137086,0.029 0.257523,0.11304 0.333985,0.230468 0.49868,0.765257 0.801558,1.682511 0.851562,2.650391 0.0083,0.105527 0.0083,0.173869 0.01172,0.263672 0,1.230223 -0.416487,2.367479 -1.117188,3.271484 -0.17851,0.232219 -0.512791,0.275386 -0.74414,0.0957 -0.231236,-0.179493 -0.272198,-0.513622 -0.0918,-0.74414 0.562707,-0.725986 0.896484,-1.631317 0.896484,-2.623047 0,-0.865113 -0.254925,-1.665084 -0.693359,-2.337891 -0.160709,-0.245409 -0.09026,-0.57341 0.15625,-0.732422 0.0587,-0.03799 0.12394,-0.06381 0.191406,-0.07617 z m -1.615234,1.208984 a 0.52850174,0.52850174 0 0 1 0.179687,0.01953 h 0.002 a 0.52850174,0.52850174 0 0 1 0.314454,0.253906 c 0.284981,0.523438 0.449218,1.127943 0.449218,1.763672 0,0.696241 -0.197864,1.351506 -0.535156,1.908204 a 0.52850174,0.52850174 0 0 1 -0.722656,0.177734 0.52850174,0.52850174 0 0 1 -0.179688,-0.726563 c 0.240572,-0.397085 0.378906,-0.859031 0.378906,-1.359375 0,-0.456878 -0.115243,-0.882774 -0.318359,-1.255859 a 0.52850174,0.52850174 0 0 1 0.208985,-0.716797 0.52850174,0.52850174 0 0 1 0.222656,-0.06445 z"
       transform="matrix(0.26457812,0,0,0.26457812,-32.772302,1e-4)" />
  </g>
</svg>
