<?xml version="1.0" encoding="UTF-8" standalone="no"?>
<!-- Created with Inkscape (http://www.inkscape.org/) -->

<svg
   width="64"
   height="64"
   version="1.1"
   viewBox="0 0 16.933 16.933"
   id="svg19"
   sodipodi:docname="org.olivevideoeditor.Olive.svg"
   inkscape:version="1.2.2 (b0a8486541, 2022-12-01)"
   xmlns:inkscape="http://www.inkscape.org/namespaces/inkscape"
   xmlns:sodipodi="http://sodipodi.sourceforge.net/DTD/sodipodi-0.dtd"
   xmlns="http://www.w3.org/2000/svg"
   xmlns:svg="http://www.w3.org/2000/svg">
  <sodipodi:namedview
     id="namedview21"
     pagecolor="#ffffff"
     bordercolor="#999999"
     borderopacity="1"
     inkscape:showpageshadow="0"
     inkscape:pageopacity="0"
     inkscape:pagecheckerboard="0"
     inkscape:deskcolor="#d1d1d1"
     showgrid="false"
     inkscape:zoom="4.695631"
     inkscape:cx="24.490851"
     inkscape:cy="24.703815"
     inkscape:window-width="1920"
     inkscape:window-height="1002"
     inkscape:window-x="0"
     inkscape:window-y="0"
     inkscape:window-maximized="1"
     inkscape:current-layer="svg19" />
  <defs
     id="defs7">
    <linearGradient
       id="linearGradient1079"
       x1="148.24"
       x2="93.894"
       y1="4.8554"
       y2="59.434"
       gradientTransform="matrix(0.26458,0,0,0.26458,1.0929426,0)"
       gradientUnits="userSpaceOnUse">
      <stop
         stop-color="#7139d2"
         offset="0"
         id="stop2" />
      <stop
         stop-color="#a53cff"
         offset="1"
         id="stop4" />
    </linearGradient>
    <filter
       id="filter1057"
       x="-0.026999999"
       y="-0.026999999"
       width="1.054"
       height="1.054"
       color-interpolation-filters="sRGB">
      <feGaussianBlur
         stdDeviation="0.61875"
         id="feGaussianBlur263" />
    </filter>
    <linearGradient
       id="linearGradient1053"
       x1="-127"
       x2="-72"
       y1="60"
       y2="5"
       gradientTransform="matrix(0.26457812,0,0,0.26457812,34.792023,-0.134935)"
       gradientUnits="userSpaceOnUse">
      <stop
         stop-color="#a53cff"
         offset="0"
         id="stop266-3" />
      <stop
         stop-color="#b496ff"
         offset="1"
         id="stop268-6" />
    </linearGradient>
  </defs>
  <rect
     x="4.4999995"
     y="4.4999995"
     width="55"
     height="55"
     ry="15"
     fill="#141414"
     filter="url(#filter1057)"
     opacity="0.3"
     stroke-linecap="round"
     stroke-width="2.7444"
     id="rect275"
     transform="scale(0.26457812)" />
  <rect
     x="1.1906016"
     y="1.1906015"
     width="14.551797"
     height="14.551797"
     ry="3.9686718"
     fill="url(#linearGradient1053)"
     stroke-linecap="round"
     stroke-width="0.726108"
     id="rect277"
     style="fill:url(#linearGradient1053)" />
  <path
     d="m 4.2969224,4.179 0.30323,0.22763 c -0.9618,0.44341 1.5083,2.4679 1.5083,2.4679 0,0 0.48072,-0.43272 1.185,-0.47827 0.6986,-0.7159 3.6060996,-0.17103 3.4971996,0.41651 C 9.8133024,6.828035 9.5037524,6.70316 9.5037524,6.70316 c 0,0 0.04825,0.055647 0.06817,0.24661 -0.07142,0.058828 -1.0821,-0.16763 -1.2934,-0.1515 -0.6012,0.045949 -1.007,0.061133 -1.4383,0.10886 0.29672,0.097852 2.6612,0.51894 3.4171996,1.2498 -0.20167,0.077747 -0.2898696,0.045789 -0.3572096,0.070593 -0.05922,0.021784 -0.11912,0.14247 -0.24907,0.14305 -0.09311,3.156e-4 -0.06128,-0.082437 -0.25357,-0.17334 -1.1964,0.047539 -1.5843,-0.68241 -1.7024,-0.77193 -0.52818,-0.12606 -1.418,-0.4111 -1.418,-0.4111 0,0 0.75339,0.60119 1.1665,0.93487 0.03435,0.027745 0.60065,0.13301 1.3206,0.48414 0.38697,-0.31678 1.4301996,0.22075 1.2362996,0.71298 -0.1726696,0.43845 -1.3310996,-0.01335 -1.2884996,-0.60979 -0.26446,-0.082358 -0.753,-0.31854 -1.0656,-0.43122 0.29966,0.2337 1.4769,1.2146 1.7135,1.4921 1.0362996,-0.12727 2.6007996,0.13136 3.5712996,0.75334 -0.22132,0.05843 -1.2744,0.25844 -1.4854,0.20215 -0.39197,-0.14824 -0.97615,-0.62848 -1.0384,-0.6823 -0.22515,-0.038 -0.7304996,-0.11058 -0.9246096,-0.13266 0.19689,0.19978 0.8471096,0.95101 1.0512996,1.267 0.08458,-0.01789 0.51587,0.08579 0.6354,0.16702 0.44281,-0.45181 1.1608,0.34098 1.6022,0.72386 -0.11595,0.2354 -1.9371,-0.1269 -1.6937,-0.65442 -0.13014,-0.01733 -0.3906,-0.16035 -0.48664,-0.16794 0.09818,0.12858 0.31229,0.3031 0.59447,0.59909 0.27143,-0.07719 1.2945,1.03 1.322,1.2723 -0.7656,-0.18653 -1.1437,-0.34883 -1.2623,-0.48727 -0.23396,-0.27327 -0.14538,-0.66565 -0.12309,-0.73697 -0.30107,-0.26905 -0.35716,-0.34905 -0.45563,-0.40245 -0.0026,0.0032 3.16e-4,0.08288 0.0049,0.1218 0.49456,0.3646 0.2556,1.3737 -0.02874,1.4095 -0.12375,0.01558 -0.40898,-1.4237 -0.05281,-1.4773 0.0082,-0.02854 0.0129,-0.11351 0.01334,-0.11687 -0.18796,-0.20462 -1.2303996,-1.3129 -1.2981996,-1.3596 0.03377,0.08746 0.08912,0.23129 0.13992,0.40883 0.6155496,0.40229 0.7173996,1.046 0.6710096,1.802 -0.1476096,-0.2584 -1.5937996,-1.4357 -0.9612696,-1.9575 0.0045,-0.08048 -0.01952,-0.26316 0.03374,-0.36584 -0.20057,-0.20045 -0.82511,-0.81697 -0.88115,-0.81647 0.06975,0.14298 0.11306,0.22461 0.14766,0.37922 0.47605,0.23759 0.33776,0.85131 0.12093,0.86434 -0.22844,0.01375 -0.7347,-0.6906 -0.25853,-0.83997 -0.03847,-0.17733 -0.10843,-0.41835 -0.13664,-0.52306 -0.20603,-0.15757 -0.88838,-0.70294 -1.0458,-0.83007 0.19361,0.32217 0.38274,0.82363 0.47731,1.1112 0.57041,0.64621 0.41262,1.6458 0.35494,2.6768 -0.66923,-0.49685 -1.0847,-2.1925 -0.65903,-2.6146 -0.14211,-0.4903 -0.3569,-1.3199 -0.3569,-1.3199 -0.92014,-0.71418 -1.4292,-1.2495 -1.4292,-1.2495 0,0 0.61307,0.79497 0.6829,1.2211 0.53693,0.1041 0.98549,1.0394 0.55856,1.1991 -0.62403,0.23331 -1.2939,-0.75671 -0.76153,-1.1254 0,0 -0.47138,-0.86828 -0.83626,-1.6298 -1.4392,-1.5798 -1.3009,-2.0541 -0.86921,-2.1069 z"
     fill="#ffffff"
     id="path561" />
</svg>
