<?xml version="1.0" encoding="UTF-8" standalone="no"?>
<svg
   width="64"
   height="64"
   version="1.1"
   viewBox="0 0 64 64"
   id="svg743"
   sodipodi:docname="org.gtk.gtk4.NodeEditor.svg"
   inkscape:version="1.2.2 (b0a8486541, 2022-12-01)"
   xmlns:inkscape="http://www.inkscape.org/namespaces/inkscape"
   xmlns:sodipodi="http://sodipodi.sourceforge.net/DTD/sodipodi-0.dtd"
   xmlns:xlink="http://www.w3.org/1999/xlink"
   xmlns="http://www.w3.org/2000/svg"
   xmlns:svg="http://www.w3.org/2000/svg">
  <sodipodi:namedview
     id="namedview745"
     pagecolor="#ffffff"
     bordercolor="#999999"
     borderopacity="1"
     inkscape:showpageshadow="0"
     inkscape:pageopacity="0"
     inkscape:pagecheckerboard="0"
     inkscape:deskcolor="#d1d1d1"
     showgrid="false"
     inkscape:zoom="6.640625"
     inkscape:cx="-6.6258823"
     inkscape:cy="30.870588"
     inkscape:window-width="1920"
     inkscape:window-height="1002"
     inkscape:window-x="0"
     inkscape:window-y="0"
     inkscape:window-maximized="1"
     inkscape:current-layer="svg743" />
  <defs
     id="defs719">
    <linearGradient
       id="f"
       x1="72"
       x2="114"
       y1="95"
       y2="95"
       gradientUnits="userSpaceOnUse">
      <stop
         stop-color="#e66100"
         offset="0"
         id="stop662" />
      <stop
         stop-color="#ff903e"
         offset=".067848"
         id="stop664" />
      <stop
         stop-color="#e66100"
         offset=".16885"
         id="stop666" />
      <stop
         stop-color="#e66100"
         offset=".88663"
         id="stop668" />
      <stop
         stop-color="#9d4200"
         offset="1"
         id="stop670" />
    </linearGradient>
    <linearGradient
       id="e"
       x1="14"
       x2="56"
       y1="95"
       y2="95"
       gradientUnits="userSpaceOnUse">
      <stop
         stop-color="#813d9c"
         offset="0"
         id="stop673" />
      <stop
         stop-color="#b378ca"
         offset=".10912"
         id="stop675" />
      <stop
         stop-color="#813d9c"
         offset=".24158"
         id="stop677" />
      <stop
         stop-color="#813d9c"
         offset=".73184"
         id="stop679" />
      <stop
         stop-color="#4d255d"
         offset=".87216"
         id="stop681" />
      <stop
         stop-color="#813d9c"
         offset="1"
         id="stop683" />
    </linearGradient>
    <linearGradient
       id="d"
       x1="-1710.2"
       x2="-1774.5"
       y1="-1202.4"
       y2="-1202.4"
       gradientTransform="matrix(-.08119 -.046875 -.069079 .11965 -177.24 127.07)"
       xlink:href="#b" />
    <linearGradient
       id="b"
       gradientUnits="userSpaceOnUse">
      <stop
         stop-color="#c0bfbc"
         offset="0"
         id="stop687" />
      <stop
         stop-color="#ffffff"
         offset=".15475"
         id="stop689" />
      <stop
         stop-color="#bdbbb5"
         offset=".43372"
         id="stop691" />
      <stop
         stop-color="#c1c0ba"
         offset=".6505"
         id="stop693" />
      <stop
         stop-color="#ffffff"
         offset=".82525"
         id="stop695" />
      <stop
         stop-color="#c0bfbc"
         offset="1"
         id="stop697" />
    </linearGradient>
    <linearGradient
       id="c"
       x1="-1710.2"
       x2="-1774.5"
       y1="-1202.4"
       y2="-1202.4"
       gradientTransform="matrix(.08119 -.046875 .069079 .11965 307.03 127.07)"
       xlink:href="#b" />
    <linearGradient
       id="a"
       x1="43"
       x2="85"
       y1="39"
       y2="39"
       gradientUnits="userSpaceOnUse">
      <stop
         stop-color="#26a269"
         offset="0"
         id="stop701" />
      <stop
         stop-color="#84e3b7"
         offset=".093416"
         id="stop703" />
      <stop
         stop-color="#26a269"
         offset=".33083"
         id="stop705" />
      <stop
         stop-color="#26a269"
         offset=".68695"
         id="stop707" />
      <stop
         stop-color="#175e3c"
         offset=".89736"
         id="stop709" />
      <stop
         stop-color="#26a269"
         offset="1"
         id="stop711" />
    </linearGradient>
    <linearGradient
       id="linearGradient862-3"
       x1="7.9373"
       x2="7.9373"
       y1="15.081"
       y2="1.852"
       gradientTransform="matrix(3.7796,0,0,3.7796,-4,-13.634416)"
       gradientUnits="userSpaceOnUse">
      <stop
         stop-color="#f1efeb"
         offset="0"
         id="stop714" />
      <stop
         stop-color="#fdfcfc"
         offset="1"
         id="stop716" />
    </linearGradient>
    <filter
       id="filter1057-3"
       x="-0.026999999"
       y="-0.026999999"
       width="1.054"
       height="1.054"
       color-interpolation-filters="sRGB">
      <feGaussianBlur
         stdDeviation="0.61875"
         id="feGaussianBlur270" />
    </filter>
    <linearGradient
       id="linearGradient1053-94"
       x1="-127"
       x2="-72"
       y1="60"
       y2="5"
       gradientTransform="matrix(1.0000071,0,0,1.0000071,131.50181,-0.51213514)"
       gradientUnits="userSpaceOnUse">
      <stop
         stop-color="#dee0e2"
         offset="0"
         id="stop273" />
      <stop
         stop-color="#f1f3f5"
         stop-opacity=".99608"
         offset="1"
         id="stop275" />
    </linearGradient>
    <linearGradient
       id="linearGradient1993"
       x1="31.104"
       x2="31.104"
       y1="46.189999"
       y2="7.4303002"
       gradientTransform="matrix(1.0000071,0,0,1.0000071,-70.400226,-2.4849338)"
       gradientUnits="userSpaceOnUse">
      <stop
         stop-color="#c8c8c8"
         offset="0"
         id="stop278" />
      <stop
         stop-color="#c8c8c8"
         stop-opacity="0"
         offset="1"
         id="stop280" />
    </linearGradient>
    <filter
       id="filter2286"
       x="-0.17876739"
       y="-0.077369616"
       width="1.3575348"
       height="1.1547392"
       color-interpolation-filters="sRGB">
      <feGaussianBlur
         stdDeviation="1.0015722"
         id="feGaussianBlur283" />
    </filter>
  </defs>
  <rect
     transform="matrix(1.0000071,0,0,1.0000071,-2.2781468e-4,-2.2781468e-4)"
     x="4.5"
     y="4.5"
     width="55"
     height="55"
     ry="15"
     fill="#141414"
     filter="url(#filter1057-3)"
     opacity="0.3"
     stroke-width="2.7444"
     id="rect288"
     style="stroke-linecap:round" />
  <rect
     x="4.4996166"
     y="4.4996166"
     width="55.000767"
     height="55.000767"
     ry="15.000106"
     fill="url(#linearGradient1053-94)"
     stroke-width="2.74437"
     id="rect290"
     style="fill:url(#linearGradient1053-94);stroke-linecap:round" />
  <g
     transform="matrix(.38 0 0 .38 7.68 6.92)"
     id="g741">
    <path
       d="m51 18h26c4.418 0 8 3.582 8 8v26c0 4.418-3.582 8-8 8h-26c-4.418 0-8-3.582-8-8v-26c0-4.418 3.582-8 8-8z"
       fill="url(#a)"
       id="path725" />
    <path
       d="m51 12h26c4.418 0 8 3.582 8 8v26c0 4.418-3.582 8-8 8h-26c-4.418 0-8-3.582-8-8v-26c0-4.418 3.582-8 8-8z"
       fill="#57e389"
       id="path727" />
    <path
       d="m76.977 55.453c1.4805-0.85547 3.3711-0.34766 4.2266 1.1328l6.7422 11.68c0.85547 1.4805 0.34766 3.3711-1.1328 4.2266-1.4805 0.85156-3.3711 0.34766-4.2266-1.1328l-6.7422-11.68c-0.85547-1.4805-0.34766-3.3711 1.1328-4.2266z"
       fill="url(#c)"
       id="path729" />
    <path
       d="m52.812 55.453c-1.4805-0.85547-3.3711-0.34766-4.2266 1.1328l-6.7422 11.68c-0.85547 1.4805-0.34766 3.3711 1.1328 4.2266 1.4805 0.85156 3.3711 0.34766 4.2266-1.1328l6.7422-11.68c0.85547-1.4805 0.34766-3.3711-1.1328-4.2266z"
       fill="url(#d)"
       id="path731" />
    <path
       d="m22 74h26c4.418 0 8 3.582 8 8v26c0 4.418-3.582 8-8 8h-26c-4.418 0-8-3.582-8-8v-26c0-4.418 3.582-8 8-8z"
       fill="url(#e)"
       id="path733" />
    <path
       d="m22 68h26c4.418 0 8 3.582 8 8v26c0 4.418-3.582 8-8 8h-26c-4.418 0-8-3.582-8-8v-26c0-4.418 3.582-8 8-8z"
       fill="#dc8add"
       id="path735" />
    <path
       d="m80 74h26c4.418 0 8 3.582 8 8v26c0 4.418-3.582 8-8 8h-26c-4.418 0-8-3.582-8-8v-26c0-4.418 3.582-8 8-8z"
       fill="url(#f)"
       id="path737" />
    <path
       d="m80 68h26c4.418 0 8 3.582 8 8v26c0 4.418-3.582 8-8 8h-26c-4.418 0-8-3.582-8-8v-26c0-4.418 3.582-8 8-8z"
       fill="#ffa348"
       id="path739" />
  </g>
</svg>
