<?xml version="1.0" encoding="UTF-8" standalone="no"?>
<svg
   xmlns:dc="http://purl.org/dc/elements/1.1/"
   xmlns:cc="http://creativecommons.org/ns#"
   xmlns:rdf="http://www.w3.org/1999/02/22-rdf-syntax-ns#"
   xmlns:svg="http://www.w3.org/2000/svg"
   xmlns="http://www.w3.org/2000/svg"
   xmlns:sodipodi="http://sodipodi.sourceforge.net/DTD/sodipodi-0.dtd"
   xmlns:inkscape="http://www.inkscape.org/namespaces/inkscape"
   version="1.1"
   viewBox="0 0 64 64"
   id="svg31"
   sodipodi:docname="panel-searchtool.svg"
   width="64"
   height="64"
   inkscape:version="1.0.2 (e86c870879, 2021-01-15)">
  <metadata
     id="metadata35">
    <rdf:RDF>
      <cc:Work
         rdf:about="">
        <dc:format>image/svg+xml</dc:format>
        <dc:type
           rdf:resource="http://purl.org/dc/dcmitype/StillImage" />
        <dc:title></dc:title>
      </cc:Work>
    </rdf:RDF>
  </metadata>
  <sodipodi:namedview
     pagecolor="#ffffff"
     bordercolor="#666666"
     borderopacity="1"
     objecttolerance="10"
     gridtolerance="10"
     guidetolerance="10"
     inkscape:pageopacity="0"
     inkscape:pageshadow="2"
     inkscape:window-width="1920"
     inkscape:window-height="992"
     id="namedview33"
     showgrid="false"
     inkscape:zoom="4.328125"
     inkscape:cx="4.8275067"
     inkscape:cy="23.297"
     inkscape:window-x="0"
     inkscape:window-y="0"
     inkscape:window-maximized="1"
     inkscape:current-layer="svg31" />
  <defs
     id="defs7">
    <linearGradient
       id="bg"
       x2="0"
       y1="1"
       y2="47"
       gradientUnits="userSpaceOnUse"
       gradientTransform="translate(-78.614438)">
      <stop
         style="stop-color:#eee"
         offset="0"
         id="stop2" />
      <stop
         style="stop-color:#e4e4e4"
         offset="1"
         id="stop4" />
    </linearGradient>
    <style
       type="text/css"
       id="style862" />
    <filter
       id="filter1057"
       x="-0.027000001"
       y="-0.027000001"
       width="1.054"
       height="1.054"
       color-interpolation-filters="sRGB">
      <feGaussianBlur
         stdDeviation="0.61875"
         id="feGaussianBlur864" />
    </filter>
    <linearGradient
       id="linearGradient1053"
       x1="-127"
       x2="-72"
       y1="60"
       y2="5"
       gradientTransform="translate(131.5,-0.51)"
       gradientUnits="userSpaceOnUse">
      <stop
         stop-color="#32d7ff"
         offset="0"
         id="stop867" />
      <stop
         stop-color="#329bff"
         offset="1"
         id="stop869" />
    </linearGradient>
    <style
       type="text/css"
       id="style872" />
    <style
       type="text/css"
       id="style874" />
    <style
       type="text/css"
       id="style876" />
    <style
       type="text/css"
       id="style878" />
    <style
       type="text/css"
       id="style880" />
    <style
       type="text/css"
       id="style882" />
    <style
       type="text/css"
       id="style884" />
  </defs>
  <g
     transform="translate(1,1)"
     id="g21">
    <g
       style="opacity:0.1"
       id="g19" />
  </g>
  <circle
     cx="-1124.8"
     cy="-1279.3"
     r="0"
     fill="#5e4aa6"
     id="circle888" />
  <g
     transform="matrix(3.7796,0,0,3.7796,123.83,-38.184)"
     fill="#5e4aa6"
     stroke-width="0.26458"
     id="g898">
    <circle
       cx="-299.01999"
       cy="-338.76999"
       r="0"
       id="circle890" />
    <circle
       cx="-8.1062002"
       cy="-3.9487"
       r="0"
       fill-rule="evenodd"
       id="circle892" />
    <circle
       cx="-278.25"
       cy="-357.69"
       r="0"
       id="circle894" />
    <circle
       cx="12.663"
       cy="-22.858999"
       r="0"
       fill-rule="evenodd"
       id="circle896" />
  </g>
  <rect
     x="4.5"
     y="4.5"
     width="55"
     height="55"
     ry="15"
     fill="#141414"
     filter="url(#filter1057)"
     opacity="0.3"
     stroke-linecap="round"
     stroke-width="2.7444"
     id="rect900" />
  <rect
     x="4.5"
     y="4.5"
     width="55"
     height="55"
     ry="15"
     fill="url(#linearGradient1053)"
     stroke-linecap="round"
     stroke-width="2.7444"
     id="rect902"
     style="fill:url(#linearGradient1053)" />
  <g
     id="g992"
     transform="matrix(1.1428572,0,0,1.1428572,-4.5714264,-4.5714304)">
    <path
       d="m 31.999997,14.496029 c -1.208846,0 -2.1875,0.978654 -2.1875,2.1875 v 2.1875 c 0,1.208846 0.978654,2.1875 2.1875,2.1875 1.204807,0 2.1875,-0.978654 2.1875,-2.1875 v -2.1875 c 0,-1.208846 -0.982693,-2.1875 -2.1875,-2.1875 z m -15.3125,15.3125 c -1.208846,0 -2.1875,0.978654 -2.1875,2.1875 0,1.208846 0.978654,2.1875 2.1875,2.1875 h 2.1875 c 1.204808,0 2.1875,-0.978654 2.1875,-2.1875 0,-1.208846 -0.982692,-2.1875 -2.1875,-2.1875 z m 28.437499,0 c -1.208846,0 -2.1875,0.978654 -2.1875,2.1875 0,1.208846 0.978654,2.1875 2.1875,2.1875 h 2.1875 c 1.204808,0 2.1875,-0.978654 2.1875,-2.1875 0,-1.208846 -0.982692,-2.1875 -2.1875,-2.1875 z M 31.999997,42.941471 c -1.208846,0 -2.1875,0.978654 -2.1875,2.1875 v 2.1875 c 0,1.208846 0.978654,2.1875 2.1875,2.1875 1.204807,0 2.1875,-0.978654 2.1875,-2.1875 v -2.1875 c 0,-1.208846 -0.982693,-2.1875 -2.1875,-2.1875 z"
       style="fill:#98d8ff;fill-opacity:1;stroke-width:1.34615"
       id="path975" />
    <path
       d="M 31.999997,18.534491 A 13.461538,13.461538 0 0 0 18.538459,31.996029 13.461538,13.461538 0 0 0 31.999997,45.457567 13.461538,13.461538 0 0 0 45.461535,31.996029 13.461538,13.461538 0 0 0 31.999997,18.534491 Z m 0,2.692307 a 10.76923,10.76923 0 0 1 10.76923,10.769231 10.76923,10.76923 0 0 1 -10.76923,10.76923 10.76923,10.76923 0 0 1 -10.769231,-10.76923 10.76923,10.76923 0 0 1 10.769231,-10.769231 z m 0,6.730769 a 4.0384614,4.0384614 0 0 0 -4.038462,4.038462 4.0384614,4.0384614 0 0 0 4.038462,4.038461 4.0384614,4.0384614 0 0 0 4.038461,-4.038461 4.0384614,4.0384614 0 0 0 -4.038461,-4.038462 z"
       style="fill:#ffffff;fill-opacity:1;stroke-width:1.34615"
       id="path977" />
    <path
       d="m 31.999997,23.919106 a 8.0769228,8.0769228 0 0 0 -8.076923,8.076923 8.0769228,8.0769228 0 0 0 8.076923,8.076923 8.0769228,8.0769228 0 0 0 8.076923,-8.076923 8.0769228,8.0769228 0 0 0 -8.076923,-8.076923 z m 0,1.346154 a 6.730769,6.730769 0 0 1 6.730769,6.730769 6.730769,6.730769 0 0 1 -6.730769,6.730769 6.730769,6.730769 0 0 1 -6.730769,-6.730769 6.730769,6.730769 0 0 1 6.730769,-6.730769 z"
       style="fill:#bae4ff;fill-opacity:1;stroke-width:1.34615"
       id="path979" />
  </g>
</svg>
