<?xml version="1.0" encoding="UTF-8" standalone="no"?>
<svg
   t="1744798203738"
   class="icon"
   viewBox="0 0 327.68 327.68"
   version="1.1"
   width="64"
   height="64"
   id="svg2"
   inkscape:version="1.4.2 (ebf0e940d0, 2025-05-08)"
   sodipodi:docname="perplexity.svg"
   xmlns:inkscape="http://www.inkscape.org/namespaces/inkscape"
   xmlns:sodipodi="http://sodipodi.sourceforge.net/DTD/sodipodi-0.dtd"
   xmlns:xlink="http://www.w3.org/1999/xlink"
   xmlns="http://www.w3.org/2000/svg"
   xmlns:svg="http://www.w3.org/2000/svg">
  <defs
     id="defs2">
    <filter
       inkscape:collect="always"
       style="color-interpolation-filters:sRGB"
       id="filter1057"
       x="-0.026999999"
       width="1.054"
       y="-0.026999999"
       height="1.054">
      <feGaussianBlur
         inkscape:collect="always"
         stdDeviation="0.61875"
         id="feGaussianBlur1059" />
    </filter>
    <linearGradient
       inkscape:collect="always"
       xlink:href="#linearGradient1051"
       id="linearGradient1053"
       x1="-127"
       y1="60"
       x2="-72"
       y2="5"
       gradientUnits="userSpaceOnUse"
       gradientTransform="matrix(5.12,0,0,5.12,673.27997,-2.6111934)" />
    <linearGradient
       inkscape:collect="always"
       id="linearGradient1051">
      <stop
         style="stop-color:#2f3132;stop-opacity:1;"
         offset="0"
         id="stop1047" />
      <stop
         style="stop-color:#474a4b;stop-opacity:1;"
         offset="1"
         id="stop1049" />
    </linearGradient>
  </defs>
  <sodipodi:namedview
     id="namedview2"
     pagecolor="#505050"
     bordercolor="#eeeeee"
     borderopacity="1"
     inkscape:showpageshadow="0"
     inkscape:pageopacity="0"
     inkscape:pagecheckerboard="0"
     inkscape:deskcolor="#505050"
     inkscape:zoom="6.8046875"
     inkscape:cx="72.523536"
     inkscape:cy="30.7876"
     inkscape:window-width="2752"
     inkscape:window-height="1095"
     inkscape:window-x="0"
     inkscape:window-y="0"
     inkscape:window-maximized="1"
     inkscape:current-layer="svg2" />
  <rect
     ry="15"
     y="4.5"
     x="4.5"
     height="55"
     width="55"
     id="rect1055"
     style="opacity:0.3;fill:#141414;fill-opacity:1;stroke-width:2.74436;stroke-linecap:round;filter:url(#filter1057)"
     transform="matrix(5.12,0,0,5.12,-3.1471252e-6,-3.1471252e-6)" />
  <rect
     style="fill:url(#linearGradient1053);fill-opacity:1;stroke-width:14.0511;stroke-linecap:round"
     id="rect1045"
     width="281.59998"
     height="281.59998"
     x="23.040012"
     y="23.040012"
     ry="76.799995" />
  <path
     fill-rule="evenodd"
     clip-rule="evenodd"
     d="m 109.15992,76.565729 49.70325,45.794131 v -0.0105 -45.677964 h 9.6753 v 45.893394 l 49.92584,-45.999059 v 52.212099 h 20.49785 v 75.31107 h -20.43488 v 46.49233 l -49.98881,-43.91884 v 44.42318 h -9.6753 v -43.69903 l -49.64691,43.72773 V 204.0889 H 88.717841 v -75.31106 h 20.442079 z m 42.40922,61.769191 H 98.393077 v 56.1969 H 109.20411 V 176.8052 Z m -32.67816,42.71082 v 48.74268 l 39.97219,-35.20634 v -49.84245 z m 49.92585,13.07069 v -49.42374 l 39.9838,36.30831 v 23.0879 h 0.0514 v 25.20184 z m 49.71045,0.41539 h 10.7596 v -56.1969 h -52.77994 l 42.02034,38.07201 z m -9.73826,-65.75398 V 98.549071 l -32.80961,30.228769 z m -57.14478,0 H 118.83522 V 98.549071 Z"
     fill="#000000"
     id="path1"
     style="fill:#ffffff;fill-opacity:1;stroke-width:0.55237" />
</svg>
