<?xml version="1.0" encoding="UTF-8" standalone="no"?>
<svg
   width="64"
   height="64"
   version="1.1"
   viewBox="0 0 64 64"
   id="svg21"
   sodipodi:docname="podcast-amarok.svg"
   inkscape:version="1.2.2 (b0a8486541, 2022-12-01)"
   xmlns:inkscape="http://www.inkscape.org/namespaces/inkscape"
   xmlns:sodipodi="http://sodipodi.sourceforge.net/DTD/sodipodi-0.dtd"
   xmlns:xlink="http://www.w3.org/1999/xlink"
   xmlns="http://www.w3.org/2000/svg"
   xmlns:svg="http://www.w3.org/2000/svg">
  <sodipodi:namedview
     id="namedview23"
     pagecolor="#ffffff"
     bordercolor="#999999"
     borderopacity="1"
     inkscape:showpageshadow="0"
     inkscape:pageopacity="0"
     inkscape:pagecheckerboard="0"
     inkscape:deskcolor="#d1d1d1"
     showgrid="false"
     inkscape:zoom="6.328125"
     inkscape:cx="13.432099"
     inkscape:cy="32.632099"
     inkscape:window-width="1920"
     inkscape:window-height="989"
     inkscape:window-x="0"
     inkscape:window-y="0"
     inkscape:window-maximized="1"
     inkscape:current-layer="svg21" />
  <defs
     id="defs5">
    <linearGradient
       inkscape:collect="always"
       id="linearGradient1158">
      <stop
         style="stop-color:#36464e;stop-opacity:1"
         offset="0"
         id="stop1154" />
      <stop
         style="stop-color:#273339;stop-opacity:0.98823529"
         offset="1"
         id="stop1156" />
    </linearGradient>
    <clipPath
       id="a">
      <circle
         cx="8.467"
         cy="288.53"
         r="6.879"
         fill="#d86eb0"
         stroke-opacity=".039"
         stroke-width=".491"
         style="paint-order:stroke markers fill"
         id="circle2" />
    </clipPath>
    <linearGradient
       id="b"
       x1="9.2602997"
       x2="9.2602997"
       y1="-0.26249"
       y2="15.612"
       gradientTransform="matrix(3.779602,0,0,3.779602,-79.482546,2.9920828)"
       gradientUnits="userSpaceOnUse">
      <stop
         stop-color="#36474f"
         offset="0"
         id="stop257" />
      <stop
         stop-color="#273238"
         stop-opacity=".98824"
         offset="1"
         id="stop259" />
    </linearGradient>
    <filter
       id="c"
       x="-0.059737744"
       y="-0.060264565"
       width="1.1194755"
       height="1.1205291"
       color-interpolation-filters="sRGB">
      <feGaussianBlur
         stdDeviation="0.15945"
         id="feGaussianBlur262" />
    </filter>
    <clipPath
       id="a-3">
      <circle
         cx="8.467"
         cy="288.53"
         r="6.8790002"
         fill="#d86eb0"
         stroke-opacity="0.039"
         stroke-width="0.491"
         style="paint-order:stroke markers fill"
         id="circle254" />
    </clipPath>
    <filter
       id="filter1057-7"
       x="-0.026999999"
       y="-0.026999999"
       width="1.054"
       height="1.054"
       color-interpolation-filters="sRGB">
      <feGaussianBlur
         stdDeviation="0.61875"
         id="feGaussianBlur249" />
    </filter>
    <linearGradient
       id="linearGradient1053-5"
       x1="-127"
       x2="-72"
       y1="60"
       y2="5"
       gradientTransform="matrix(1.0000071,0,0,1.0000071,131.50142,-0.51024717)"
       gradientUnits="userSpaceOnUse">
      <stop
         stop-color="#323741"
         offset="0"
         id="stop252" />
      <stop
         stop-color="#465064"
         offset="1"
         id="stop254" />
    </linearGradient>
    <linearGradient
       inkscape:collect="always"
       xlink:href="#linearGradient1158"
       id="linearGradient1160"
       x1="32.000378"
       y1="4.500031"
       x2="32.000378"
       y2="59.500195"
       gradientUnits="userSpaceOnUse" />
  </defs>
  <rect
     transform="matrix(1.0000071,0,0,1.0000071,-2.2772692e-4,-2.2767494e-4)"
     x="4.5"
     y="4.5"
     width="55"
     height="55"
     ry="15"
     fill="#141414"
     filter="url(#filter1057-7)"
     opacity="0.3"
     stroke-linecap="round"
     stroke-width="2.7444"
     id="rect261" />
  <rect
     x="4.4999933"
     y="4.500031"
     width="55.000767"
     height="55.000767"
     ry="15.000106"
     stroke-linecap="round"
     stroke-width="2.74441"
     id="rect263"
     style="fill:url(#linearGradient1160);fill-opacity:1" />
  <g
     fill="none"
     stroke="#ffffff"
     stroke-opacity="0.937"
     stroke-width="0.13303"
     id="g273"
     transform="matrix(3.779602,0,0,3.779602,-0.67881747,-1.3931244)">
    <path
       d="m 1.27,7.8867 c 0.75964,0.16137 1.4692,0.64928 2.0947,2.057 0.7121,1.6035 1.7147,2.3149 2.9287,2.3709 1.5637,0.0727 2.8241,-1.2732 3.6545,-2.4769 1.6925,-2.453 4.7742,-2.218 6.1453,-1.2991"
       opacity="0.35"
       id="path267" />
    <path
       d="m 1.2777,8.2917 c 0.9444,-0.36336 2.2005,-0.44009 3.0346,0.85858 0.76281,1.187 1.6651,2.9774 4.2779,2.8134 1.5615,-0.09866 3.1231,-0.73735 3.9281,-2.2328 0.55904,-0.96893 1.3313,-1.9435 2.4225,-2.1846 0.40379,-0.084744 0.69228,-0.073007 1.0312,0.05878"
       opacity="0.35"
       id="path269" />
    <path
       d="m 1.5758,10.493 c 1.0007,-0.46123 2.9009,-0.99009 4.4344,-0.55028 1.3703,0.3936 3.103,1.9181 6.3983,1.5619 0.87057,-0.09347 1.608,-0.58469 2.3064,-1.5204 0.50555,-0.67763 0.79258,-1.059 1.3794,-1.2118"
       opacity="0.35"
       id="path271" />
  </g>
  <g
     id="g574"
     transform="matrix(1.3043479,0,0,1.3043479,-121.63144,-9.1391334)">
    <rect
       x="111.7851"
       y="20.040001"
       width="12"
       height="20"
       rx="6"
       ry="6"
       fill="#ffffff"
       style="paint-order:stroke markers fill"
       id="rect570" />
    <path
       d="m 109.2851,33.54 a 0.499,0.499 0 0 0 -0.5,0.5 0.499,0.499 0 0 0 0.006,0.062 9,9 0 0 0 8.994,8.938 9,9 0 0 0 8.996,-8.95 0.499,0.499 0 0 0 0.002,-0.036 9,9 0 0 0 0,-0.014 0.499,0.499 0 0 0 -0.5,-0.498 0.499,0.499 0 0 0 -0.498,0.498 h -0.002 a 7.998,7.998 0 0 1 -7.998,8 7.998,7.998 0 0 1 -7.996,-8 h -0.006 a 0.499,0.499 0 0 0 -0.498,-0.498 z"
       fill="#ffffff"
       style="paint-order:stroke markers fill"
       id="path572" />
  </g>
</svg>
