<?xml version="1.0" encoding="UTF-8" standalone="no"?>
<svg
   xmlns:dc="http://purl.org/dc/elements/1.1/"
   xmlns:cc="http://creativecommons.org/ns#"
   xmlns:rdf="http://www.w3.org/1999/02/22-rdf-syntax-ns#"
   xmlns:svg="http://www.w3.org/2000/svg"
   xmlns="http://www.w3.org/2000/svg"
   xmlns:xlink="http://www.w3.org/1999/xlink"
   xmlns:sodipodi="http://sodipodi.sourceforge.net/DTD/sodipodi-0.dtd"
   xmlns:inkscape="http://www.inkscape.org/namespaces/inkscape"
   width="64"
   height="64"
   version="1.1"
   id="svg14"
   sodipodi:docname="preferences-desktop-activities.svg"
   inkscape:version="1.0.1 (3bc2e813f5, 2020-09-07)">
  <metadata
     id="metadata20">
    <rdf:RDF>
      <cc:Work
         rdf:about="">
        <dc:format>image/svg+xml</dc:format>
        <dc:type
           rdf:resource="http://purl.org/dc/dcmitype/StillImage" />
        <dc:title></dc:title>
      </cc:Work>
    </rdf:RDF>
  </metadata>
  <defs
     id="defs18">
    <linearGradient
       id="i"
       x1="400.4"
       x2="400.4"
       y1="545.62"
       y2="517.62"
       gradientTransform="matrix(.41967 0 0 .41967 -173.34 -178.23)"
       gradientUnits="userSpaceOnUse">
      <stop
         stop-color="#d3d3d3"
         offset="0"
         id="stop847" />
      <stop
         stop-color="#fcf9f9"
         offset="1"
         id="stop849" />
    </linearGradient>
    <linearGradient
       id="f"
       x1="400.4"
       x2="400.4"
       y1="545.62"
       y2="517.62"
       gradientTransform="matrix(.43343 0 0 .43343 -193.09 -179.69)"
       gradientUnits="userSpaceOnUse">
      <stop
         stop-color="#8d3aff"
         offset="0"
         id="stop852" />
      <stop
         stop-color="#ff3680"
         offset="1"
         id="stop854" />
    </linearGradient>
    <linearGradient
       id="linearGradient1407"
       x1="400.4"
       x2="400.4"
       y1="545.62"
       y2="517.62"
       gradientTransform="matrix(1.5861856,0,0,1.5861856,-719.15644,-673.63869)"
       gradientUnits="userSpaceOnUse"
       xlink:href="#i" />
    <linearGradient
       id="linearGradient1409"
       x1="400.4"
       x2="400.4"
       y1="545.62"
       y2="517.62"
       gradientTransform="matrix(1.6381929,0,0,1.6381929,-793.80358,-679.15691)"
       gradientUnits="userSpaceOnUse"
       xlink:href="#f" />
    <style
       type="text/css"
       id="style859" />
    <linearGradient
       id="linearGradient1890"
       x1="8.4665"
       x2="3.1749"
       y1="9.2602"
       y2="9.2602"
       gradientTransform="matrix(0,-4.8099342,4.8099342,0,-8.6949894,72.72469)"
       gradientUnits="userSpaceOnUse">
      <stop
         offset="0"
         id="stop861" />
      <stop
         stop-opacity="0"
         offset="1"
         id="stop863" />
    </linearGradient>
    <style
       type="text/css"
       id="style866" />
    <style
       type="text/css"
       id="style868" />
    <style
       type="text/css"
       id="style870" />
    <filter
       id="filter1057"
       x="-.027"
       y="-.027"
       width="1.054"
       height="1.054"
       color-interpolation-filters="sRGB">
      <feGaussianBlur
         stdDeviation="0.61875"
         id="feGaussianBlur872" />
    </filter>
    <linearGradient
       id="linearGradient1053"
       x1="-127"
       x2="-72"
       y1="60"
       y2="5"
       gradientTransform="matrix(1.0000071,0,0,1.0000071,67.49969,-0.51020932)"
       gradientUnits="userSpaceOnUse">
      <stop
         stop-color="#eb3f78"
         offset="0"
         id="stop875" />
      <stop
         stop-color="#ec497e"
         offset="1"
         id="stop877" />
    </linearGradient>
    <style
       type="text/css"
       id="style880" />
    <style
       type="text/css"
       id="style882" />
    <style
       type="text/css"
       id="style884" />
    <linearGradient
       inkscape:collect="always"
       xlink:href="#i"
       id="linearGradient1106"
       gradientUnits="userSpaceOnUse"
       gradientTransform="matrix(1.5861856,0,0,1.5861856,-719.15644,-673.63869)"
       x1="400.4"
       y1="545.62"
       x2="400.4"
       y2="517.62" />
    <linearGradient
       inkscape:collect="always"
       xlink:href="#f"
       id="linearGradient1108"
       gradientUnits="userSpaceOnUse"
       gradientTransform="matrix(1.6381929,0,0,1.6381929,-793.80358,-679.15691)"
       x1="400.4"
       y1="545.62"
       x2="400.4"
       y2="517.62" />
    <filter
       id="filter2761"
       x="-.024"
       y="-.024"
       width="1.048"
       height="1.048"
       color-interpolation-filters="sRGB">
      <feGaussianBlur
         stdDeviation="0.14552168"
         id="feGaussianBlur1172" />
    </filter>
  </defs>
  <sodipodi:namedview
     pagecolor="#ffffff"
     bordercolor="#666666"
     borderopacity="1"
     objecttolerance="10"
     gridtolerance="10"
     guidetolerance="10"
     inkscape:pageopacity="0"
     inkscape:pageshadow="2"
     inkscape:window-width="1920"
     inkscape:window-height="985"
     id="namedview16"
     showgrid="false"
     inkscape:zoom="4.5409514"
     inkscape:cx="45.274977"
     inkscape:cy="25.776749"
     inkscape:window-x="0"
     inkscape:window-y="0"
     inkscape:window-maximized="1"
     inkscape:current-layer="svg14"
     inkscape:document-rotation="0" />
  <style
     type="text/css"
     id="style888">.st0{opacity:0.15;fill:#45413C;}
	.st1{fill:#FFE500;}
	.st2{fill:#EBCB00;}
	.st3{fill:none;stroke:#45413C;stroke-linecap:round;stroke-linejoin:round;stroke-miterlimit:10;}
	.st4{fill:#FFAA54;}
	.st5{fill:#FF8A14;}
	.st6{fill:#FFB0CA;stroke:#45413C;stroke-linecap:round;stroke-linejoin:round;stroke-miterlimit:10;}
	.st7{fill:#FF87AF;stroke:#45413C;stroke-linecap:round;stroke-linejoin:round;stroke-miterlimit:10;}
	.st8{fill:#FFCC99;}
	.st9{fill:#FFFFFF;}
	.st10{fill:#F0F0F0;}
	.st11{fill:#BF8256;}
	.st12{fill:#915E3A;}
	.st13{fill:#DEA47A;}
	.st14{fill:#F0D5A8;}
	.st15{fill:#DEBB7E;}
	.st16{fill:#F7E5C6;}
	.st17{fill:#FF8A14;stroke:#45413C;stroke-linecap:round;stroke-linejoin:round;stroke-miterlimit:10;}
	.st18{fill:#FFF5E3;}
	.st19{fill:#FFF48C;}
	.st20{fill:#FFFACF;}
	.st21{fill:#FFFCE5;}
	.st22{fill:#FF87AF;}
	.st23{fill:#FFB0CA;}
	.st24{fill:#FFE500;stroke:#45413C;stroke-linecap:round;stroke-linejoin:round;stroke-miterlimit:10;}
	.st25{fill:#9CEB60;stroke:#45413C;stroke-linecap:round;stroke-linejoin:round;stroke-miterlimit:10;}
	.st26{fill:#FFFACF;stroke:#45413C;stroke-linecap:round;stroke-linejoin:round;stroke-miterlimit:10;}
	.st27{fill:#00F5BC;stroke:#45413C;stroke-linecap:round;stroke-linejoin:round;stroke-miterlimit:10;}
	.st28{fill:#BF8256;stroke:#45413C;stroke-linecap:round;stroke-linejoin:round;stroke-miterlimit:10;}
	.st29{fill:#FFE3CF;stroke:#45413C;stroke-linecap:round;stroke-linejoin:round;stroke-miterlimit:10;}
	.st30{fill:#FF6242;}
	.st31{fill:#FF866E;}
	.st32{fill:none;stroke:#E04122;stroke-linecap:round;stroke-linejoin:round;stroke-miterlimit:10;}
	.st33{fill:#FFFEF2;stroke:#45413C;stroke-linecap:round;stroke-linejoin:round;stroke-miterlimit:10;}
	.st34{fill:#FF6242;stroke:#45413C;stroke-linecap:round;stroke-linejoin:round;stroke-miterlimit:10;}
	.st35{fill:#FFA694;}
	.st36{fill:#FFFFFF;stroke:#45413C;stroke-linecap:round;stroke-linejoin:round;stroke-miterlimit:10;}
	.st37{fill:#FFFEF2;}
	.st38{fill:#FF6196;}
	.st39{fill:#B89558;}
	.st40{fill:none;stroke:#915E3A;stroke-linecap:round;stroke-linejoin:round;stroke-miterlimit:10;}
	.st41{fill:#DEBB7E;stroke:#45413C;stroke-linecap:round;stroke-linejoin:round;stroke-miterlimit:10;}
	.st42{fill:#6DD627;stroke:#45413C;stroke-linecap:round;stroke-linejoin:round;stroke-miterlimit:10;}
	.st43{fill:#E5F8FF;}
	.st44{fill:#E8F4FA;}
	.st45{fill:#E8F4FA;stroke:#45413C;stroke-linecap:round;stroke-linejoin:round;stroke-miterlimit:10;}
	.st46{fill:#FFCCDD;}
	.st47{fill:#E5F8FF;stroke:#45413C;stroke-linecap:round;stroke-linejoin:round;stroke-miterlimit:10;}
	.st48{fill:#00B8F0;stroke:#45413C;stroke-linecap:round;stroke-linejoin:round;stroke-miterlimit:10;}
	.st49{fill:#00B8F0;}
	.st50{fill:#4ACFFF;}
	.st51{fill:#E04122;}
	.st52{fill:#E04122;stroke:#45413C;stroke-linecap:round;stroke-linejoin:round;stroke-miterlimit:10;}
	.st53{fill:#87898C;}
	.st54{fill:#BDBEC0;}
	.st55{fill:#656769;}
	.st56{fill:#525252;}
	.st57{fill:#FFF48C;stroke:#45413C;stroke-linecap:round;stroke-linejoin:round;stroke-miterlimit:10;}
	.st58{fill:#6DD627;}
	.st59{fill:#EB6D00;}
	.st60{fill:#46B000;}
	.st61{fill:#80DDFF;}
	.st62{fill:#DAEDF7;}
	.st63{fill:#BF8DF2;stroke:#45413C;stroke-linecap:round;stroke-linejoin:round;stroke-miterlimit:10;}
	.st64{fill:#9F5AE5;stroke:#45413C;stroke-linecap:round;stroke-linejoin:round;stroke-miterlimit:10;}
	.st65{fill:#C8FFA1;}
	.st66{fill:#E4FFD1;}
	.st67{fill:#9CEB60;}
	.st68{fill:#E5FEFF;}
	.st69{fill:#B8ECFF;}
	.st70{fill:#E0E0E0;stroke:#45413C;stroke-linecap:round;stroke-linejoin:round;stroke-miterlimit:10;}
	.st71{fill:#E0E0E0;}
	.st72{fill:none;stroke:#4F4B45;stroke-linejoin:round;stroke-miterlimit:10;}
	.st73{fill:none;stroke:#4F4B45;stroke-linecap:round;stroke-linejoin:round;stroke-miterlimit:10;}
	.st74{fill:#E0366F;stroke:#45413C;stroke-linecap:round;stroke-linejoin:round;stroke-miterlimit:10;}
	.st75{fill:none;stroke:#45413C;stroke-miterlimit:10;}
	.st76{fill:#FF866E;stroke:#45413C;stroke-linecap:round;stroke-linejoin:round;stroke-miterlimit:10;}
	.st77{fill:#45413C;stroke:#45413C;stroke-linecap:round;stroke-linejoin:round;stroke-miterlimit:10;}
	.st78{fill:#9F5AE5;}
	.st79{fill:#803EC2;}
	.st80{fill:#803EC2;stroke:#45413C;stroke-linecap:round;stroke-linejoin:round;stroke-miterlimit:10;}
	.st81{fill:#BF8DF2;}
	.st82{fill:#FFAA54;stroke:#45413C;stroke-linecap:round;stroke-linejoin:round;stroke-miterlimit:10;}
	.st83{fill:none;stroke:#45413C;stroke-linejoin:round;stroke-miterlimit:10;}
	.st84{fill:#FFCCDD;stroke:#45413C;stroke-linecap:round;stroke-linejoin:round;stroke-miterlimit:10;}
	.st85{fill:#FF6196;stroke:#45413C;stroke-linecap:round;stroke-linejoin:round;stroke-miterlimit:10;}
	.st86{fill:#FFE5EE;}
	.st87{fill:#F7E5C6;stroke:#45413C;stroke-linecap:round;stroke-linejoin:round;stroke-miterlimit:10;}
	.st88{fill:#E5FFF9;}
	.st89{fill:none;stroke:#45413C;stroke-width:1.0064;stroke-linecap:round;stroke-linejoin:round;stroke-miterlimit:10;}
	.st90{fill:#4AEFF7;}
	.st91{fill:#A6FBFF;}
	.st92{fill:#E5FEFF;stroke:#45413C;stroke-linecap:round;stroke-linejoin:round;stroke-miterlimit:10;}
	.st93{fill:#46B000;stroke:#45413C;stroke-linecap:round;stroke-linejoin:round;stroke-miterlimit:10;}
	.st94{fill:#FFFFFF;stroke:#45413C;stroke-linejoin:round;stroke-miterlimit:10;}
	.st95{fill:#FFFFFF;stroke:#45413C;stroke-miterlimit:10;}
	.st96{fill:#009FD9;}
	.st97{fill:#00DFEB;}
	.st98{fill:#C0DCEB;stroke:#45413C;stroke-linecap:round;stroke-linejoin:round;stroke-miterlimit:10;}
	.st99{fill:#00DFEB;stroke:#45413C;stroke-linecap:round;stroke-linejoin:round;stroke-miterlimit:10;}
	.st100{fill:#FFE5EE;stroke:#45413C;stroke-linecap:round;stroke-linejoin:round;stroke-miterlimit:10;}
	.st101{fill:#8CA4B8;}
	.st102{fill:#ADC4D9;}
	.st103{fill:#656769;stroke:#45413C;stroke-linecap:round;stroke-linejoin:round;stroke-miterlimit:10;}
	.st104{fill:#F0F0F0;stroke:#45413C;stroke-linecap:round;stroke-linejoin:round;stroke-miterlimit:10;}
	.st105{fill:#C0DCEB;}
	.st106{fill:#45413C;}
	.st107{fill:#FFCABF;}
	.st108{fill:#87898C;stroke:#45413C;stroke-linecap:round;stroke-linejoin:round;stroke-miterlimit:10;}
	.st109{fill:#EBCB00;stroke:#45413C;stroke-linecap:round;stroke-linejoin:round;stroke-miterlimit:10;}</style>
  <rect
     transform="matrix(0,-1.0000071,1.0000071,0,-2.2762135e-4,64.000228)"
     x="4.5"
     y="4.5"
     width="55"
     height="55"
     ry="15"
     fill="#141414"
     filter="url(#filter1057)"
     opacity="0.3"
     stroke-linecap="round"
     stroke-width="2.7444"
     id="rect890" />
  <path
     id="rect1267"
     style="opacity:1;fill:#2196f3;fill-opacity:1;stroke:none;stroke-width:1;stroke-linecap:round;stroke-miterlimit:4;stroke-dasharray:none;stroke-opacity:1;paint-order:stroke fill markers"
     d="M 19.5 4.5 C 11.189941 4.5 4.5 11.189941 4.5 19.5 L 4.5 44.5 C 4.5 52.810058 11.189941 59.5 19.5 59.5 L 44.5 59.5 C 52.810058 59.5 59.5 52.810058 59.5 44.5 L 59.5 19.5 C 59.5 11.189941 52.810058 4.5 44.5 4.5 L 19.5 4.5 z " />
  <g
     transform="matrix(0,-3.779602,3.779602,0,3.3898864,146.52406)"
     fill="#5e4aa6"
     stroke-width="0.26458"
     id="g902">
    <circle
       cx="-330.35001"
       cy="-328.38"
       r="0"
       id="circle894" />
    <circle
       cx="-312.10999"
       cy="-326.25"
       r="0"
       id="circle896" />
    <circle
       cx="-306.01999"
       cy="-333.07001"
       r="0"
       id="circle898" />
    <circle
       cx="-308.84"
       cy="-326.01001"
       r="0"
       id="circle900" />
  </g>
  <circle
     cx="-83.784935"
     cy="169.91556"
     r="0"
     fill="url(#linearGradient1407)"
     image-rendering="optimizeSpeed"
     stroke-width="1.00001"
     id="circle904"
     style="fill:url(#linearGradient1106)"
     transform="rotate(-90)" />
  <circle
     cx="-137.57396"
     cy="192.07159"
     r="0"
     fill="none"
     image-rendering="optimizeSpeed"
     stroke="url(#linearGradient1409)"
     stroke-width="2.12969"
     id="circle906"
     style="stroke:url(#linearGradient1108)"
     transform="rotate(-90)" />
  <g
     transform="matrix(0,-3.779602,3.779602,0,3.3898864,146.52406)"
     fill="#5e4aa6"
     stroke-width="0.26458"
     id="g916">
    <circle
       cx="-330.35001"
       cy="-328.38"
       r="0"
       id="circle908" />
    <circle
       cx="-312.10999"
       cy="-326.25"
       r="0"
       id="circle910" />
    <circle
       cx="-306.01999"
       cy="-333.07001"
       r="0"
       id="circle912" />
    <circle
       cx="-308.84"
       cy="-326.01001"
       r="0"
       id="circle914" />
  </g>
  <circle
     cx="-83.784935"
     cy="169.91556"
     r="0"
     fill="url(#linearGradient1407)"
     image-rendering="optimizeSpeed"
     stroke-width="1.00001"
     id="circle918"
     style="fill:url(#linearGradient1407)"
     transform="rotate(-90)" />
  <circle
     cx="-137.57396"
     cy="192.07159"
     r="0"
     fill="none"
     image-rendering="optimizeSpeed"
     stroke="url(#linearGradient1409)"
     stroke-width="2.12969"
     id="circle920"
     style="stroke:url(#linearGradient1409)"
     transform="rotate(-90)" />
  <g
     transform="matrix(0,-3.779602,3.779602,0,-2.2762135e-4,142.1435)"
     fill="#5e4aa6"
     id="g962">
    <g
       stroke-width="0.26458"
       id="g930">
      <circle
         cx="-330.35001"
         cy="-328.38"
         r="0"
         id="circle922" />
      <circle
         cx="-330.35001"
         cy="-328.37"
         r="0"
         id="circle924" />
      <circle
         cx="-330.35001"
         cy="-328.37"
         r="0"
         id="circle926" />
      <circle
         cx="-352.63"
         cy="-336.82999"
         r="0"
         id="circle928" />
    </g>
    <g
       transform="translate(32.665,-10.979)"
       stroke-width="0.26458"
       id="g940">
      <circle
         cx="-330.35001"
         cy="-328.38"
         r="0"
         id="circle932" />
      <circle
         cx="-312.10999"
         cy="-326.25"
         r="0"
         id="circle934" />
      <circle
         cx="-306.01999"
         cy="-333.07001"
         r="0"
         id="circle936" />
      <circle
         cx="-308.84"
         cy="-326.01001"
         r="0"
         id="circle938" />
    </g>
    <g
       transform="matrix(0.26458,0,0,0.26458,4.6401e-6,4.6401e-6)"
       id="g950">
      <circle
         cx="-1331.1"
         cy="-1237.8"
         r="0"
         id="circle942" />
      <circle
         cx="-1262.2"
         cy="-1229.7"
         r="0"
         id="circle944" />
      <circle
         cx="-1239.2"
         cy="-1255.5"
         r="0"
         id="circle946" />
      <circle
         cx="-1249.8"
         cy="-1228.8"
         r="0"
         id="circle948" />
    </g>
    <g
       transform="translate(-21.833,0.89722)"
       stroke-width="0.26458"
       id="g960">
      <circle
         cx="-330.35001"
         cy="-328.38"
         r="0"
         id="circle952" />
      <circle
         cx="-312.10999"
         cy="-326.25"
         r="0"
         id="circle954" />
      <circle
         cx="-306.01999"
         cy="-333.07001"
         r="0"
         id="circle956" />
      <circle
         cx="-308.84"
         cy="-326.01001"
         r="0"
         id="circle958" />
    </g>
  </g>
  <path
     d="m 4.4998043,44.500089 c 0,8.310059 6.6900477,15.000107 15.0001067,15.000107 h 25.000177 c 8.310059,0 15.000107,-6.690048 15.000107,-15.000107 V 32.002 H 4.4998043 Z"
     fill="url(#linearGradient1890)"
     opacity="0.3"
     id="path966"
     style="fill:url(#linearGradient1890);stroke-width:1.00001" />
  <g
     transform="matrix(0,-1.0000071,1.0000071,0,-3.9211867,136.98434)"
     fill="#5e4aa6"
     id="g1012">
    <circle
       cx="-1248.7"
       cy="-1241.6"
       r="0"
       id="circle970" />
    <circle
       cx="-149.14999"
       cy="23.855"
       r="0"
       fill-rule="evenodd"
       id="circle972" />
    <circle
       cx="-1248.7"
       cy="-1241.6"
       r="0"
       id="circle974" />
    <circle
       cx="-149.14999"
       cy="23.855"
       r="0"
       fill-rule="evenodd"
       id="circle976" />
    <circle
       cx="-1150.9"
       cy="-1256.6"
       r="0"
       id="circle978" />
    <circle
       cx="-51.327"
       cy="8.8744001"
       r="0"
       fill-rule="evenodd"
       id="circle980" />
    <g
       transform="matrix(3.7796,0,0,3.7796,167.86,4.61)"
       stroke-width="0.26458"
       id="g1010">
      <g
         transform="translate(-0.0272,0.0065001)"
         id="g998">
        <circle
           cx="-330.35001"
           cy="-328.38"
           r="0"
           id="circle982" />
        <circle
           cx="-312.10999"
           cy="-326.25"
           r="0"
           id="circle984" />
        <circle
           cx="-306.01999"
           cy="-333.07001"
           r="0"
           id="circle986" />
        <circle
           cx="-308.84"
           cy="-326.01001"
           r="0"
           id="circle988" />
        <circle
           cx="-330.35001"
           cy="-328.38"
           r="0"
           id="circle990" />
        <circle
           cx="-312.10999"
           cy="-326.25"
           r="0"
           id="circle992" />
        <circle
           cx="-306.01999"
           cy="-333.07001"
           r="0"
           id="circle994" />
        <circle
           cx="-308.84"
           cy="-326.01001"
           r="0"
           id="circle996" />
      </g>
      <g
         transform="translate(-0.02705,0.0064503)"
         id="g1008">
        <circle
           cx="-330.35001"
           cy="-328.38"
           r="0"
           id="circle1000" />
        <circle
           cx="-312.10999"
           cy="-326.25"
           r="0"
           id="circle1002" />
        <circle
           cx="-306.01999"
           cy="-333.07001"
           r="0"
           id="circle1004" />
        <circle
           cx="-308.84"
           cy="-326.01001"
           r="0"
           id="circle1006" />
      </g>
    </g>
  </g>
  <path
     d="m 25.600115,11.000569 v 15.999939 h 9.599783 0.480004 l 2.719983,-2.719984 V 23.80052 11.000508 Z m 0.639986,0.639985 H 37.7599 V 23.80046 h -2.559972 v 2.559972 H 26.23995 Z m 1.919986,1.919987 v 0.639985 h 7.680069 v -0.639985 z m 0,1.919986 v 0.639986 h 7.680069 v -0.639986 z m 0,1.919987 v 0.639985 h 7.680069 v -0.639985 z m 0,1.919987 v 0.639986 h 3.840034 v -0.639986 z"
     color="#000000"
     fill="#ffffff"
     id="path1197"
     style="stroke-width:1;stroke:#ffffff;stroke-opacity:1;stroke-miterlimit:4;stroke-dasharray:none" />
  <path
     d="m 32.0005,37 a 8,8 0 0 0 -1.536,0.1504 L 30.4101,37.16 c -0.2656,0.048 -0.5264,0.1104 -0.784,0.1904 a 7.888,7.888 0 0 0 -1.5344,0.6752 7.0848,7.0848 0 0 0 -0.736,0.4688 c -0.1552,0.112 -0.3088,0.224 -0.4544,0.3456 a 6.368,6.368 0 0 0 -0.1888,0.1664 c -0.1536,0.136 -0.3072,0.272 -0.448,0.4192 -0.3424,0.352 -0.6448,0.7376 -0.9168,1.1456 a 8.064,8.064 0 0 0 -0.0912,0.128 7.9776,7.9776 0 0 0 -0.4064,0.72 8.0128,8.0128 0 0 0 -0.344,0.7936 c -0.0512,0.1376 -0.112,0.272 -0.1552,0.4128 -0.0224,0.0704 -0.0336,0.144 -0.0544,0.2144 a 7.2464,7.2464 0 0 0 -0.152,0.672 8,8 0 0 0 -0.0944,0.6624 v 0.0064 A 8,8 0 0 0 24.0005,45 a 8,8 0 0 0 0.16,1.5904 c 0.048,0.2656 0.1104,0.5264 0.1904,0.784 a 7.8816,7.8816 0 0 0 0.6752,1.5344 7.0848,7.0848 0 0 0 0.4688,0.736 7.4048,7.4048 0 0 0 0.512,0.6432 c 0.136,0.1536 0.272,0.3072 0.4192,0.448 0.352,0.3424 0.7376,0.6448 1.1472,0.9168 0.0416,0.032 0.0848,0.0608 0.128,0.0912 0.1904,0.1216 0.3856,0.232 0.5872,0.336 l 0.1312,0.0704 a 8.0128,8.0128 0 0 0 0.7936,0.344 c 0.1376,0.0512 0.272,0.112 0.4128,0.1552 0.0704,0.0224 0.144,0.0336 0.216,0.0528 a 7.504,7.504 0 0 0 0.6704,0.1536 8,8 0 0 0 0.6448,0.0912 l 0.0176,0.0032 h 0.006 A 8,8 0 0 0 32.0001,53 8,8 0 0 0 33.5361,52.8496 L 33.5905,52.84 c 0.2656,-0.048 0.5264,-0.1104 0.784,-0.1904 a 7.952,7.952 0 0 0 1.288,-0.544 l 0.1632,-0.08 a 8,8 0 0 0 1.2,-0.8096 c 0.032,-0.0272 0.0688,-0.0512 0.1024,-0.08 a 8,8 0 0 0 0.9184,-0.9168 C 38.1105,50.144 38.1793,50.0752 38.2401,50 a 8,8 0 0 0 0.6752,-1 c 0.0624,-0.1056 0.1248,-0.2096 0.1824,-0.32 a 8,8 0 0 0 0.464,-1.096 c 0.0256,-0.072 0.0656,-0.136 0.088,-0.208 0.0224,-0.072 0.0336,-0.144 0.0528,-0.216 l 0.006,-0.0192 0.016,-0.0656 a 8,8 0 0 0 0.2224,-1.232 l 0.003,-0.0176 V 45.8192 A 8,8 0 0 0 39.9995,45 a 8,8 0 0 0 -0.16,-1.5904 c -0.048,-0.2656 -0.112,-0.528 -0.1904,-0.784 -0.0192,-0.0608 -0.0544,-0.1152 -0.0752,-0.176 a 8,8 0 0 0 -1.272,-2.3632 c -0.0464,-0.0576 -0.08,-0.128 -0.128,-0.1856 -0.0832,-0.1024 -0.1808,-0.192 -0.272,-0.2848 a 8,8 0 0 0 -1.3456,-1.1792 c -0.064,-0.0432 -0.1216,-0.088 -0.1856,-0.1312 a 8.032,8.032 0 0 0 -0.144,-0.0896 7.4496,7.4496 0 0 0 -1.1024,-0.592 c -0.072,-0.0288 -0.1504,-0.0512 -0.224,-0.08 -0.176,-0.0688 -0.3504,-0.1392 -0.5264,-0.1936 -0.0704,-0.0224 -0.144,-0.0336 -0.2144,-0.0528 l -0.0192,-0.0064 a 7.3424,7.3424 0 0 0 -1.2976,-0.2384 l -0.0176,-0.0032 h -0.006 A 8,8 0 0 0 32.0005,37 Z m 0,1.6 a 6.4,6.4 0 0 1 3.3872,0.9808 c -0.003,0.008 -0.01,0.008 -0.0128,0.0192 0.0288,0.0592 0.104,0.064 0.1728,0.0784 l 0.1056,0.072 c 0.04,0.0544 0.072,0.112 0.096,0.176 a 0.592,0.592 0 0 1 0,0.224 c -0.0448,0.1152 -0.1648,0.1024 -0.2992,0.0992 -0.0368,0 -0.0656,0.0032 -0.0992,0 -0.2256,-0.0144 -0.448,-0.0864 -0.5504,0.0752 0.006,0.1232 0.0272,0.192 0,0.3008 -0.0208,0.0784 -0.104,0.1312 -0.1008,0.2 0.002,0.0336 0.0672,0.1008 0.0752,0.1488 0.006,0.0272 -0.0112,0.0768 0,0.1008 0.0384,0.0704 0.1328,-0.0112 0.2,0 0.064,0.0096 0.1248,0.104 0.1248,0.176 a 0.432,0.432 0 0 1 -0.048,0.1984 c -0.064,0.096 -0.184,0.0736 -0.2768,0.1248 -0.0752,0.0448 -0.104,0.1504 -0.1488,0.2256 -0.048,0.08 -0.096,0.1088 -0.0752,0.224 a 0.5392,0.5392 0 0 1 -0.2752,0.2768 0.6368,0.6368 0 0 0 -0.224,0.176 c -0.0528,0.0544 -0.1232,0.08 -0.1504,0.1232 -0.0208,0.032 -0.003,0.1056 -0.0256,0.1504 -0.032,0.0608 -0.0848,0.112 -0.1248,0.176 -0.0192,0.0272 -0.0544,0.0608 -0.0752,0.0992 -0.048,0.0832 -0.1088,0.1504 -0.1008,0.224 0.006,0.072 0.096,0.088 0.1008,0.1504 0.003,0.0352 -0.0272,0.0624 -0.0256,0.1008 0.002,0.0544 0.0208,0.08 0.0256,0.1248 0.01,0.1072 -0.0544,0.1504 -0.0752,0.224 -0.01,0.0352 0.008,0.0736 0,0.1008 -0.016,0.0528 -0.0992,0.0864 -0.0992,0.1504 -0.002,0.0448 0.0704,0.0848 0.0736,0.1488 0.003,0.0432 -0.032,0.0848 -0.024,0.1248 0.016,0.08 0.1632,0.1888 0.224,0.2512 0.0832,0.0816 0.1648,0.1376 0.2,0.224 0.032,0.0752 0.0432,0.1952 0.1008,0.2512 0.0416,0.04 0.1216,0.0576 0.176,0.0992 0.0496,0.04 0.12,0.0576 0.1744,0.1008 0.088,0.0688 0.208,0.208 0.3488,0.2 0.0752,-0.0064 0.144,-0.0368 0.2256,-0.0512 0.0864,-0.0144 0.1872,-0.0576 0.2752,-0.0496 0.0672,0.008 0.1296,0.0544 0.2,0.0496 a 0.8352,0.8352 0 0 0 0.2496,-0.0752 c 0.144,-0.0624 0.3664,-0.1792 0.576,-0.1488 0.16,0.0224 0.1616,0.2032 0.2736,0.2752 0.128,0.0112 0.224,-0.0256 0.3264,0 0.0768,0.0176 0.1664,0.1632 0.1744,0.224 0.008,0.064 -0.0416,0.112 -0.0496,0.1504 -0.0208,0.0848 -0.0352,0.1968 -0.0496,0.2496 -0.0112,0.0432 -0.0272,0.0832 -0.0256,0.1248 0,0.0384 0.0608,0.1264 0.0992,0.176 0.048,0.0608 0.1168,0.1072 0.176,0.1744 0.1056,0.1216 0.1504,0.288 0.224,0.4496 0.0192,0.0416 -0.016,0.0496 0,0.1008 -0.032,0.2432 -0.1136,0.4048 -0.2736,0.6752 -0.0768,0.0864 -0.152,0.1904 -0.1504,0.2992 -0.006,0.2624 0.136,0.3968 0.1248,0.6496 v 0.0096 a 6.4,6.4 0 0 1 -7.0352,2.3344 c 0,-0.008 0.01,-0.0096 0.01,-0.0192 -0.003,-0.0416 -0.0416,-0.0608 -0.0752,-0.0992 -0.0272,-0.032 -0.006,-0.0704 -0.024,-0.1008 -0.0352,-0.0496 -0.0864,-0.0752 -0.1008,-0.1488 0.1056,-0.0208 0.2496,0.1168 0.4,0.0752 0.072,-0.0208 0.192,-0.16 0.224,-0.2256 0.0112,-0.0208 -0.01,-0.1008 0,-0.1248 0.0144,-0.0272 0.048,-0.0352 0.0512,-0.0496 0.01,-0.04 -0.008,-0.0512 0,-0.0752 0.0256,-0.0752 0.1072,-0.1216 0.1504,-0.176 0.032,-0.04 0.0688,-0.0816 0.0992,-0.1248 0.0352,-0.0448 0.0528,-0.0608 0.0752,-0.0992 0.0224,-0.1328 -0.0816,-0.2336 -0.0496,-0.3504 0.0352,-0.1312 0.224,-0.216 0.3504,-0.2752 0.0432,-0.0208 0.088,-0.0624 0.1248,-0.0752 0.0864,-0.0304 0.192,-0.0208 0.2752,-0.0496 0.136,-0.048 0.1824,-0.2 0.2496,-0.3248 0.032,-0.0576 0.0688,-0.1088 0.0752,-0.1504 0.005,-0.0368 -0.008,-0.08 0,-0.1248 0.008,-0.0432 0.0128,-0.0768 0.024,-0.1248 a 1.2672,1.2672 0 0 0 0.0256,-0.2496 c 0,-0.0592 -0.024,-0.0736 -0.0256,-0.1264 -0.01,-0.1888 0.056,-0.1968 0.1264,-0.2992 0.0336,-0.0512 0.0496,-0.1392 0.0736,-0.176 0.1184,-0.1728 0.3152,-0.2592 0.3008,-0.5248 -0.006,-0.0864 -0.0368,-0.272 -0.1008,-0.2992 -0.0352,-0.016 -0.12,-0.0048 -0.1744,-0.0256 -0.1712,-0.064 -0.296,-0.2592 -0.4752,-0.2752 h -0.0992 c -0.0704,0 -0.1472,-0.0656 -0.224,-0.0736 -0.0512,-0.0064 -0.1472,0.0144 -0.176,0 -0.0448,-0.0224 -0.0384,-0.1008 -0.0752,-0.1264 -0.0288,-0.0192 -0.08,-0.032 -0.1248,-0.048 a 0.5968,0.5968 0 0 0 -0.2,-0.0512 c -0.0272,-0.0016 -0.096,0.0048 -0.1248,0 -0.0464,-0.008 -0.0832,-0.048 -0.1248,-0.0752 -0.0528,-0.032 -0.08,-0.0544 -0.1008,-0.0992 0.048,-0.1584 -0.1184,-0.184 -0.1504,-0.2752 -0.0144,-0.0432 0.016,-0.112 0,-0.1504 -0.0176,-0.0544 -0.064,-0.08 -0.1248,-0.1248 a 0.6832,0.6832 0 0 0 -0.3504,-0.176 c -0.0656,-0.008 -0.144,0.0048 -0.224,0 A 0.3936,0.3936 0 0 1 29.3769,45.1744 C 29.3145,45.104 29.3049,45.0336 29.2505,45 c -0.0496,-0.032 -0.1392,-0.0416 -0.1744,-0.0752 -0.016,-0.0144 -0.0112,-0.0416 -0.024,-0.0752 -0.0272,-0.0528 -0.0832,-0.0608 -0.0512,-0.1248 -0.0576,-0.0288 -0.0368,0.0368 -0.0992,0.0256 -0.0576,-0.08 -0.096,-0.1248 -0.224,-0.1008 -0.0592,0.0112 -0.1088,0.0992 -0.176,0.1008 -0.0576,0 -0.1008,-0.0896 -0.176,-0.1008 -0.056,-0.008 -0.1344,0.0592 -0.1744,0.0496 -0.0624,-0.0112 -0.0688,-0.0864 -0.1248,-0.1248 -0.0416,-0.0272 -0.128,-0.1008 -0.1504,-0.0992 -0.072,0 -0.1248,0.1536 -0.224,0.0992 -0.0496,-0.0624 0.0832,-0.0656 0.024,-0.1248 -0.0432,-0.0432 -0.064,0.0016 -0.0992,0.0256 -0.0416,0.0272 -0.08,0.0592 -0.1248,0.0752 -0.1008,0.0368 -0.1728,0.0336 -0.2512,0.0752 -0.072,0.0368 -0.0816,0.1008 -0.1248,0.1744 -0.032,0.0608 -0.0992,0.1472 -0.1488,0.1504 -0.0624,0.0032 -0.12,-0.0768 -0.176,-0.1008 -0.1664,-0.072 -0.2608,0.048 -0.4,0.0496 -0.128,0.0016 -0.304,-0.2032 -0.2992,-0.3248 0.003,-0.0736 0.0416,-0.1824 0.048,-0.2752 0.01,-0.072 0.0752,-0.1328 0.0768,-0.2 0,-0.088 -0.1424,-0.1648 -0.2,-0.1744 -0.0832,-0.016 -0.1792,0 -0.2784,0.0096 a 6.4,6.4 0 0 1 0.608,-1.8432 c 0.006,0 0.016,0.008 0.0208,0.0096 0.0464,0 0.056,-0.0576 0.0992,-0.0512 0.0432,0.008 0.1184,0.0976 0.1248,0.1504 0.006,0.064 -0.0432,0.128 -0.024,0.2 0.0672,0.0704 0.2016,0.1088 0.2992,0.1504 0.064,-0.0528 0.01,-0.176 0,-0.2496 -0.002,-0.0336 0.003,-0.0704 0,-0.1008 -0.008,-0.0528 -0.0256,-0.1056 -0.0256,-0.1504 0,-0.208 0.16,-0.2928 0.3008,-0.3744 0.0592,-0.0352 0.1232,-0.0992 0.176,-0.1248 0.0736,-0.0368 0.112,-0.04 0.1744,-0.0752 0.1104,-0.064 0.2144,-0.128 0.2992,-0.2 0.04,-0.096 -0.003,-0.208 0,-0.3008 0.04,-0.024 0.0576,0.0032 0.1008,0 0.0656,-0.0144 0.0864,-0.112 0.1248,-0.1488 0.0208,-0.0224 0.0976,-0.0288 0.1248,-0.0512 0.0672,-0.0512 0.0672,-0.1264 0.1248,-0.1488 0.0208,-0.008 0.0672,-0.016 0.0992,-0.0256 0.0448,-0.0112 0.1056,-0.0512 0.176,-0.0752 0.0448,-0.016 0.1568,-0.008 0.176,-0.024 0.0208,-0.0224 -0.008,-0.1168 0,-0.1504 0.0336,-0.1648 0.2768,-0.1696 0.424,-0.224 0.1008,-0.04 0.2112,-0.1232 0.3248,-0.1008 -0.0224,0.0784 -0.1184,0.0544 -0.1008,0.1488 0.0256,0.1328 0.1792,-0.032 0.2256,-0.048 0.0896,-0.0384 0.2592,-0.0592 0.3744,-0.1008 0.1024,-0.0368 0.272,-0.1072 0.176,-0.2256 -0.08,-0.0048 -0.1056,0.0704 -0.176,0.1008 -0.048,0.008 -0.0592,-0.0224 -0.0992,-0.0256 -0.04,-0.0016 -0.0608,0.032 -0.1008,0.0256 -0.0384,-0.008 -0.0928,-0.08 -0.0992,-0.1264 -0.016,-0.1216 0.1248,-0.16 0.176,-0.2496 -0.0352,-0.1104 -0.1824,-0.0064 -0.2768,-0.0496 0.01,-0.0656 0.048,-0.1376 0.1264,-0.1504 a 0.5024,0.5024 0 0 1 0.2496,0.0496 c 0.0208,0.0192 -0.008,0.0704 0.024,0.1008 0.0384,0.032 0.1008,0.008 0.1504,0 0.0176,-0.0832 -0.1136,-0.0464 -0.0992,-0.1008 0.0976,-0.064 0.2784,-0.032 0.4,-0.048 0.0688,-0.0112 0.1376,-0.0672 0.2,-0.1008 0.0576,-0.0336 0.112,-0.08 0.1744,-0.0256 0.016,0.0592 -0.0416,0.096 -0.0752,0.1248 -0.112,0.0992 -0.2128,0.2096 -0.2992,0.3248 0.0528,0.0528 0.1344,0.016 0.224,0.0256 0.0352,0.0048 0.0896,0.0192 0.1248,0.0256 0.0448,0.008 0.0912,-0.008 0.1248,0 0.0624,0.0144 0.064,0.0992 0.1264,0.0992 0.0976,0 0.1056,-0.0832 0.048,-0.1504 0.0192,-0.0688 0.0512,-0.128 0.0256,-0.176 -0.0448,-0.088 -0.216,0.016 -0.224,-0.0992 -0.006,-0.072 0.0736,-0.0944 0.0992,-0.1488 -0.0112,-0.1408 0.1152,-0.1488 0.1008,-0.2752 -0.008,-0.0528 -0.064,-0.0512 -0.1008,-0.1008 -0.0192,-0.0256 -0.0288,-0.08 -0.0496,-0.0992 -0.0192,-0.016 -0.0448,-0.0224 -0.0688,-0.032 A 6.4,6.4 0 0 1 32.0009,38.6 Z m 4.328,1.696 a 6.4,6.4 0 0 1 0.7216,0.7792 c -0.0528,0 -0.104,0.0256 -0.1488,0.0256 -0.064,0 -0.1952,-0.032 -0.2752,-0.0256 -0.048,0.0032 -0.08,0.0224 -0.1248,0.0256 -0.128,0.0096 -0.2016,-0.008 -0.3008,0 a 1.0528,1.0528 0 0 0 -0.2752,0.0736 c -0.032,0.016 -0.056,0.0544 -0.0992,0.0752 -0.0208,0.0096 -0.048,0.0128 -0.0752,0.0256 -0.0416,0.0192 -0.112,0.064 -0.1504,0.0752 -0.056,0.0144 -0.1216,-0.0048 -0.224,0 -0.0752,0.0032 -0.2,-0.0112 -0.2016,-0.1008 0,-0.1344 0.248,-0.0768 0.376,-0.0992 0.048,-0.0096 0.0672,-0.0672 0.1248,-0.1008 0.0272,-0.016 0.048,-0.032 0.0752,-0.0496 0.0432,-0.032 0.1168,-0.0896 0.1248,-0.1248 0.005,-0.032 -0.0288,-0.0768 -0.0256,-0.1008 0.006,-0.0304 0.0608,-0.0608 0.1008,-0.0992 0.0608,-0.0608 0.0992,-0.136 0.176,-0.176 0.0496,-0.0272 0.1504,-0.0336 0.1744,-0.0736 0.006,-0.048 -0.002,-0.0592 0,-0.1008 l 0.0272,-0.0272 z m -10.704,4.1664 c 0.04,0.056 0.0816,0.112 0.1264,0.1376 0.003,0.048 -0.016,0.0896 0,0.1248 0.0368,0.0512 0.112,0.0672 0.176,0.1008 0.072,0.04 0.104,0.1424 0.1728,0.1744 0.0256,0.0096 0.064,-0.0112 0.1008,0 0.096,0.0288 0.1168,0.176 0.2,0.1504 0.0544,-0.016 0.0656,-0.0976 0.0752,-0.1504 0.0368,-0.0384 0.0672,-0.0992 0.1248,-0.0992 0.0896,-0.0016 0.1168,0.112 0.1504,0.2 0.0176,0.048 0.0608,0.096 0.0752,0.1488 a 1.3136,1.3136 0 0 1 0,0.4 c -0.024,0.0672 -0.12,0.1024 -0.176,0.176 -0.0256,0.0336 -0.0544,0.0768 -0.0752,0.0992 -0.0336,0.0432 -0.0736,0.0608 -0.0992,0.1008 -0.016,0.0208 -0.0112,0.0688 -0.0256,0.0992 -0.0432,0.0928 -0.112,0.1632 -0.0752,0.2752 0.016,0.0448 0.0752,0.096 0.0752,0.1504 0,0.064 -0.1392,0.08 -0.1488,0.1504 -0.008,0.0496 0.0576,0.1552 0.0736,0.224 0.0112,0.0512 0.096,0.0912 0.1248,0.1248 0.0512,0.0576 0.104,0.128 0.1504,0.2 0.0928,0.1408 0.136,0.312 0.224,0.4512 0.048,0.0704 0.144,0.1232 0.176,0.2 0.016,0.0368 -0.0144,0.1152 0,0.1488 0.0528,0.1184 0.3072,0.2416 0.4256,0.3008 0.0544,0.0272 0.0992,0.0464 0.1504,0.0752 0.0768,0.0432 0.2352,0.1312 0.2736,0.2 0.0352,0.0608 0.0576,0.2016 0.0752,0.2992 0.0224,0.128 -0.006,0.2368 0,0.376 0.003,0.0752 0.0256,0.1232 0.0256,0.2 V 49.6 c -0.002,0.0896 0.008,0.184 0,0.2752 v 0.112 a 6.4,6.4 0 0 1 -2.3744,-5.5248 z"
     fill="#ffffff"
     id="path1227" />
</svg>
