<?xml version="1.0" encoding="UTF-8" standalone="no"?>
<svg
   xmlns:dc="http://purl.org/dc/elements/1.1/"
   xmlns:cc="http://creativecommons.org/ns#"
   xmlns:rdf="http://www.w3.org/1999/02/22-rdf-syntax-ns#"
   xmlns:svg="http://www.w3.org/2000/svg"
   xmlns="http://www.w3.org/2000/svg"
   xmlns:xlink="http://www.w3.org/1999/xlink"
   xmlns:sodipodi="http://sodipodi.sourceforge.net/DTD/sodipodi-0.dtd"
   xmlns:inkscape="http://www.inkscape.org/namespaces/inkscape"
   width="64"
   height="64"
   version="1.1"
   viewBox="0 0 16.933 16.933"
   id="svg71"
   sodipodi:docname="preferences-desktop-user.svg"
   inkscape:version="1.0.2 (e86c870879, 2021-01-15)">
  <sodipodi:namedview
     pagecolor="#ffffff"
     bordercolor="#666666"
     borderopacity="1"
     objecttolerance="10"
     gridtolerance="10"
     guidetolerance="10"
     inkscape:pageopacity="0"
     inkscape:pageshadow="2"
     inkscape:window-width="1920"
     inkscape:window-height="940"
     id="namedview73"
     showgrid="false"
     inkscape:zoom="6.0546875"
     inkscape:cx="-18.907945"
     inkscape:cy="32.803365"
     inkscape:window-x="0"
     inkscape:window-y="38"
     inkscape:window-maximized="1"
     inkscape:current-layer="svg71" />
  <defs
     id="defs15">
    <filter
       id="filter2761-3"
       x="-.024"
       y="-.024"
       width="1.048"
       height="1.048"
       color-interpolation-filters="sRGB">
      <feGaussianBlur
         stdDeviation="0.14552168"
         id="feGaussianBlur2" />
    </filter>
    <linearGradient
       id="linearGradient4673"
       x1="1.2573"
       x2="15.644"
       y1="15.429"
       y2="1.1082"
       gradientTransform="translate(1.3396709,-2.051441)"
       gradientUnits="userSpaceOnUse">
      <stop
         stop-color="#a0b9cd"
         offset="0"
         id="stop5" />
      <stop
         stop-color="#96b4c8"
         offset=".47728"
         id="stop7" />
      <stop
         stop-color="#a0b9cd"
         offset="1"
         id="stop9" />
    </linearGradient>
    <filter
       id="filter871-6"
       x="-.07393"
       y="-.050487"
       width="1.1479"
       height="1.101"
       color-interpolation-filters="sRGB">
      <feGaussianBlur
         stdDeviation="0.12698534"
         id="feGaussianBlur12" />
    </filter>
    <style
       id="style4"
       type="text/css" />
    <style
       id="style6"
       type="text/css" />
    <style
       id="style8"
       type="text/css" />
    <filter
       color-interpolation-filters="sRGB"
       height="1.048"
       width="1.048"
       y="-0.024"
       x="-0.024"
       id="filter2761-3-3">
      <feGaussianBlur
         id="feGaussianBlur10"
         stdDeviation="0.14552168" />
    </filter>
    <linearGradient
       gradientUnits="userSpaceOnUse"
       gradientTransform="matrix(3.7796,0,0,3.7796,-0.003213,0.53084)"
       y2="1.17"
       y1="15.576"
       x2="15.65"
       x1="1.3315001"
       id="linearGradient1024">
      <stop
         id="stop13"
         offset="0"
         stop-color="#96aab4" />
      <stop
         id="stop15"
         offset="1"
         stop-color="#a0b4c3" />
    </linearGradient>
    <filter
       color-interpolation-filters="sRGB"
       height="1.048"
       width="1.048"
       y="-0.024"
       x="-0.024"
       id="filter2761">
      <feGaussianBlur
         id="feGaussianBlur4"
         stdDeviation="0.14552168" />
    </filter>
    <linearGradient
       gradientUnits="userSpaceOnUse"
       gradientTransform="translate(16.851507,0.14045)"
       y2="1.1082"
       y1="15.429"
       x2="15.644"
       x1="1.2573"
       id="linearGradient4673-6">
      <stop
         id="stop7-3"
         offset="0"
         stop-color="#a0b9cd" />
      <stop
         id="stop9-6"
         offset=".47728"
         stop-color="#96b4c8" />
      <stop
         id="stop11"
         offset="1"
         stop-color="#a0b9cd" />
    </linearGradient>
    <filter
       color-interpolation-filters="sRGB"
       height="1.168"
       width="1.168"
       y="-0.084005997"
       x="-0.083994001"
       id="filter917">
      <feGaussianBlur
         id="feGaussianBlur14"
         stdDeviation="0.22223482" />
    </filter>
    <linearGradient
       gradientUnits="userSpaceOnUse"
       gradientTransform="matrix(0.32664815,0,0,0.32664815,0.63054332,0.95372475)"
       y2="4"
       y1="44"
       x2="0"
       id="linearGradient890">
      <stop
         id="stop4-7"
         offset="0"
         stop-color="#FFB900" />
      <stop
         id="stop6"
         offset="1"
         stop-color="#ff0" />
    </linearGradient>
    <filter
       color-interpolation-filters="sRGB"
       height="1.048"
       width="1.048"
       y="-0.024"
       x="-0.024"
       id="filter2761-67">
      <feGaussianBlur
         id="feGaussianBlur9"
         stdDeviation="0.14552168" />
    </filter>
    <linearGradient
       gradientUnits="userSpaceOnUse"
       gradientTransform="matrix(3.7796,0,0,3.7796,66.443573,0.53068)"
       y2="1.1082"
       y1="15.601"
       x2="15.644"
       x1="1.4377"
       id="linearGradient4673-5">
      <stop
         id="stop12-5"
         offset="0"
         stop-color="#dc2828" />
      <stop
         id="stop14-3"
         offset="1"
         stop-color="#fa4141" />
    </linearGradient>
    <linearGradient
       gradientTransform="scale(0.26457812)"
       gradientUnits="userSpaceOnUse"
       y2="9.6700001"
       y1="54.591999"
       x2="34.133999"
       x1="34.133999"
       id="linearGradient915">
      <stop
         id="stop17"
         offset="0"
         stop-color="#ffb900" />
      <stop
         id="stop19"
         offset="1"
         stop-color="#ff0" />
    </linearGradient>
    <filter
       inkscape:collect="always"
       style="color-interpolation-filters:sRGB"
       id="filter1057"
       x="-0.027000001"
       width="1.054"
       y="-0.027000001"
       height="1.054">
      <feGaussianBlur
         inkscape:collect="always"
         stdDeviation="0.61875"
         id="feGaussianBlur1059" />
    </filter>
    <linearGradient
       inkscape:collect="always"
       xlink:href="#linearGradient1051"
       id="linearGradient1053"
       x1="-127"
       y1="60"
       x2="-72"
       y2="5"
       gradientUnits="userSpaceOnUse"
       gradientTransform="matrix(0.26457812,0,0,0.26457812,34.792023,-0.13493408)" />
    <linearGradient
       inkscape:collect="always"
       id="linearGradient1051">
      <stop
         style="stop-color:#a0b9cd;stop-opacity:1"
         offset="0"
         id="stop1047" />
      <stop
         id="stop934"
         offset="0.48566937"
         style="stop-color:#96b4c8;stop-opacity:1" />
      <stop
         style="stop-color:#a0b9cd;stop-opacity:1"
         offset="1"
         id="stop1049" />
    </linearGradient>
    <linearGradient
       id="linearGradient890-3"
       x2="0"
       y1="44"
       y2="4"
       gradientTransform="matrix(1.2346,0,0,1.2346,3.1419,3.6047)"
       gradientUnits="userSpaceOnUse">
      <stop
         stop-color="#FFB900"
         offset="0"
         id="stop861" />
      <stop
         stop-color="#ff0"
         offset="1"
         id="stop863" />
    </linearGradient>
    <filter
       id="filter2761-6"
       x="-0.024"
       y="-0.024"
       width="1.048"
       height="1.048"
       color-interpolation-filters="sRGB">
      <feGaussianBlur
         stdDeviation="0.14552168"
         id="feGaussianBlur866" />
    </filter>
  </defs>
  <metadata
     id="metadata17">
    <rdf:RDF>
      <cc:Work
         rdf:about="">
        <dc:format>image/svg+xml</dc:format>
        <dc:type
           rdf:resource="http://purl.org/dc/dcmitype/StillImage" />
        <dc:title></dc:title>
      </cc:Work>
    </rdf:RDF>
  </metadata>
  <rect
     style="opacity:0.3;fill:#141414;fill-opacity:1;stroke-width:2.74436;stroke-linecap:round;filter:url(#filter1057)"
     id="rect1055"
     width="55"
     height="55"
     x="4.4999995"
     y="4.4999995"
     ry="15"
     transform="scale(0.26457812)" />
  <rect
     ry="3.9686716"
     y="1.1906021"
     x="1.1906021"
     height="14.551796"
     width="14.551796"
     id="rect1045"
     style="fill:url(#linearGradient1053);fill-opacity:1;stroke-width:0.726098;stroke-linecap:round" />
  <g
     transform="translate(-25.328 1.0762)"
     fill="#5e4aa6"
     stroke-width=".26458"
     id="g43">
    <circle
       cx="-330.35"
       cy="-328.38"
       r="0"
       id="circle23" />
    <circle
       cx="-312.11"
       cy="-326.25"
       r="0"
       id="circle25" />
    <circle
       cx="-306.02"
       cy="-333.07"
       r="0"
       id="circle27" />
    <circle
       cx="-308.84"
       cy="-326.01"
       r="0"
       id="circle29" />
    <circle
       cx="-298.82"
       cy="-353.17"
       r="0"
       id="circle31" />
    <g
       transform="translate(10.272,-16.531)"
       id="g39">
      <circle
         cx="-330.35"
         cy="-328.38"
         r="0"
         id="circle33" />
      <circle
         cx="-39.434"
         cy="6.44"
         r="0"
         fill-rule="evenodd"
         id="circle35" />
      <circle
         cx="-306.9"
         cy="-332.28"
         r="0"
         id="circle37" />
    </g>
    <circle
       cx="-298.03"
       cy="-351.89"
       r="0"
       id="circle41" />
  </g>
  <g
     transform="translate(-.41209 .25992)"
     id="g59">
    <path
       d="m7.5371 8.8434v0.39835s0.10755 0.85578-0.50008 1.1723c-0.60764 0.31647-2.6192 1.2658-2.7272 1.4416-0.10802 0.17582-0.26993 0.68298 0.18917 0.81192h8.7592c0.45911-0.12893 0.2972-0.6361 0.18917-0.81192s-2.1196-1.1251-2.7272-1.4416c-0.60764-0.31647-0.50008-1.1723-0.50008-1.1723v-0.39835h-1.3415z"
       fill="#fafafa"
       id="path45" />
    <path
       transform="matrix(.93263 0 0 1.0034 78.969 1.3613)"
       d="m-73.274 5.839c-0.26458 1.8862-0.88842 2.8929-1.9843 2.8929-1.0959 1e-7 -1.7198-1.0067-1.9843-2.8929-0.2414-1.7209 0-3.1436 1.9843-3.1436s2.2257 1.4227 1.9843 3.1436z"
       filter="url(#filter871-6)"
       opacity=".15"
       id="path47" />
    <path
       d="m10.87 6.8892c-0.26458 1.8862-0.88842 2.8929-1.9843 2.8929-1.0959 1e-7 -1.7198-1.0067-1.9843-2.8929-0.2414-1.7209 0-3.1436 1.9843-3.1436s2.2257 1.4227 1.9843 3.1436z"
       fill="#f0f0f0"
       id="path49" />
    <g
       transform="translate(.41126 -.11945)"
       id="g57">
      <path
         d="m10.499 6.577s0.6201-0.024804 0.45474 0.5953c-0.16536 0.6201-0.47955 1.2816-0.82681 1.356-0.34726 0.074413 0.27285-1.9265 0.37206-1.9513z"
         fill="#fff"
         id="path51" />
      <path
         d="m6.4354 6.5186s-0.6201-0.024804-0.45474 0.5953c0.16536 0.6201 0.47955 1.2816 0.82681 1.356 0.34726 0.074413-0.27285-1.9265-0.37206-1.9513z"
         fill="#fff"
         id="path53" />
      <path
         d="m10.459 7.0087c-0.26458 1.8862-0.88842 2.8929-1.9843 2.8929-1.0959 1e-7 -1.7198-1.0067-1.9843-2.8929-0.2414-1.7209 0-3.1436 1.9843-3.1436s2.2257 1.4227 1.9843 3.1436z"
         fill="#fafafa"
         id="path55" />
    </g>
  </g>
  <g
     transform="translate(-44.333 -6.6304)"
     fill="#5e4aa6"
     stroke-width=".26458"
     id="g69">
    <circle
       cx="-330.35"
       cy="-328.38"
       r="0"
       id="circle61" />
    <circle
       cx="-312.11"
       cy="-326.25"
       r="0"
       id="circle63" />
    <circle
       cx="-306.02"
       cy="-333.07"
       r="0"
       id="circle65" />
    <circle
       cx="-308.84"
       cy="-326.01"
       r="0"
       id="circle67" />
  </g>
  <g
     id="g70"
     fill="#5e4aa6"
     transform="matrix(0.26457812,0,0,0.26457812,-18.830811,1.5063651e-7)">
    <g
       id="g32"
       image-rendering="optimizeSpeed"
       transform="translate(-80.134,-57.985)">
      <circle
         id="circle24"
         r="0"
         cy="-1241.6"
         cx="-1248.7" />
      <circle
         id="circle26"
         fill-rule="evenodd"
         r="0"
         cy="23.855"
         cx="-149.14999" />
      <circle
         id="circle28"
         r="0"
         cy="-1241.6"
         cx="-1248.7" />
      <circle
         id="circle30"
         fill-rule="evenodd"
         r="0"
         cy="23.855"
         cx="-149.14999" />
    </g>
    <circle
       id="circle34"
       r="0"
       cy="-1241.6"
       cx="-1248.7" />
    <circle
       id="circle36"
       fill-rule="evenodd"
       r="0"
       cy="23.855"
       cx="-149.14999" />
    <g
       id="g68"
       stroke-width="0.26458"
       transform="matrix(3.7796,0,0,3.7796,5.8415e-4,-1.7177e-4)">
      <g
         id="g46"
         transform="translate(-0.0272,0.0065001)">
        <circle
           id="circle38"
           r="0"
           cy="-328.38"
           cx="-330.35001" />
        <circle
           id="circle40"
           r="0"
           cy="-326.25"
           cx="-312.10999" />
        <circle
           id="circle42"
           r="0"
           cy="-333.07001"
           cx="-306.01999" />
        <circle
           id="circle44"
           r="0"
           cy="-326.01001"
           cx="-308.84" />
      </g>
      <g
         id="g56"
         transform="translate(-0.0272,0.0065001)">
        <circle
           id="circle48"
           r="0"
           cy="-328.38"
           cx="-330.35001" />
        <circle
           id="circle50"
           r="0"
           cy="-326.25"
           cx="-312.10999" />
        <circle
           id="circle52"
           r="0"
           cy="-333.07001"
           cx="-306.01999" />
        <circle
           id="circle54"
           r="0"
           cy="-326.01001"
           cx="-308.84" />
      </g>
      <g
         id="g66"
         transform="translate(-0.02705,0.0064503)">
        <circle
           id="circle58"
           r="0"
           cy="-328.38"
           cx="-330.35001" />
        <circle
           id="circle60"
           r="0"
           cy="-326.25"
           cx="-312.10999" />
        <circle
           id="circle62"
           r="0"
           cy="-333.07001"
           cx="-306.01999" />
        <circle
           id="circle64"
           r="0"
           cy="-326.01001"
           cx="-308.84" />
      </g>
    </g>
  </g>
  <g
     id="g30"
     fill="#5e4aa6"
     transform="matrix(0.26457812,0,0,0.26457812,-39.785097,-8.200713)">
    <circle
       id="circle24-6"
       r="0"
       cy="-1241.6"
       cx="-1248.7" />
    <circle
       id="circle26-7"
       r="0"
       cy="-1301.8"
       cx="-1140.3" />
    <circle
       id="circle28-5"
       r="0"
       cy="-1246"
       cx="-1158.1" />
  </g>
  <circle
     id="circle36-3"
     fill="#5e4aa6"
     r="0"
     cy="-343.60638"
     cx="-345.98135"
     style="stroke-width:0.264578" />
  <circle
     id="circle38-5"
     fill-rule="evenodd"
     fill="#5e4aa6"
     r="0"
     cy="-8.7782612"
     cx="-55.066071"
     style="stroke-width:0.264578" />
</svg>
