<?xml version="1.0" encoding="UTF-8" standalone="no"?>
<svg
   xmlns:dc="http://purl.org/dc/elements/1.1/"
   xmlns:cc="http://creativecommons.org/ns#"
   xmlns:rdf="http://www.w3.org/1999/02/22-rdf-syntax-ns#"
   xmlns:svg="http://www.w3.org/2000/svg"
   xmlns="http://www.w3.org/2000/svg"
   xmlns:sodipodi="http://sodipodi.sourceforge.net/DTD/sodipodi-0.dtd"
   xmlns:inkscape="http://www.inkscape.org/namespaces/inkscape"
   width="64"
   height="64"
   version="1.1"
   viewBox="0 0 16.933 16.933"
   id="svg37"
   sodipodi:docname="preferences-desktop-user-password.svg"
   inkscape:version="1.0.2 (e86c870879, 2021-01-15)">
  <sodipodi:namedview
     pagecolor="#ffffff"
     bordercolor="#666666"
     borderopacity="1"
     objecttolerance="10"
     gridtolerance="10"
     guidetolerance="10"
     inkscape:pageopacity="0"
     inkscape:pageshadow="2"
     inkscape:window-width="1920"
     inkscape:window-height="940"
     id="namedview39"
     showgrid="false"
     inkscape:zoom="4.2813106"
     inkscape:cx="-35.033861"
     inkscape:cy="24.842483"
     inkscape:window-x="0"
     inkscape:window-y="38"
     inkscape:window-maximized="1"
     inkscape:current-layer="svg37" />
  <defs
     id="defs13">
    <filter
       id="filter2761"
       x="-.024"
       y="-.024"
       width="1.048"
       height="1.048"
       color-interpolation-filters="sRGB">
      <feGaussianBlur
         stdDeviation="0.14552168"
         id="feGaussianBlur2" />
    </filter>
    <linearGradient
       id="linearGradient1024-1"
       x1="1.3315"
       x2="15.65"
       y1="15.576"
       y2="1.17"
       gradientTransform="translate(2.6246062,-2.5755306)"
       gradientUnits="userSpaceOnUse">
      <stop
         stop-color="#00c8ff"
         offset="0"
         id="stop5" />
      <stop
         stop-color="#14a0ff"
         offset="1"
         id="stop7" />
    </linearGradient>
    <filter
       id="filter951"
       x="-.10129"
       y="-.07175"
       width="1.2026"
       height="1.1435"
       color-interpolation-filters="sRGB">
      <feGaussianBlur
         stdDeviation="15.306655"
         id="feGaussianBlur10" />
    </filter>
    <filter
       id="filter2761-3"
       x="-.024"
       y="-.024"
       width="1.048"
       height="1.048"
       color-interpolation-filters="sRGB">
      <feGaussianBlur
         stdDeviation="0.14552168"
         id="feGaussianBlur2-6" />
    </filter>
    <linearGradient
       id="linearGradient4673"
       x1="1.2573"
       x2="15.644"
       y1="15.429"
       y2="1.1082"
       gradientUnits="userSpaceOnUse"
       gradientTransform="translate(-2.4530086,-3.8501958)">
      <stop
         stop-color="#32dcff"
         offset="0"
         id="stop5-7" />
      <stop
         stop-color="#3296ff"
         offset="1"
         id="stop7-5" />
    </linearGradient>
    <style
       type="text/css"
       id="style867" />
    <filter
       id="filter1057"
       x="-.027"
       y="-.027"
       width="1.054"
       height="1.054"
       color-interpolation-filters="sRGB">
      <feGaussianBlur
         stdDeviation="0.61875"
         id="feGaussianBlur869" />
    </filter>
    <linearGradient
       id="linearGradient1053"
       x1="-127"
       x2="-72"
       y1="60"
       y2="5"
       gradientTransform="matrix(0.26457812,0,0,0.26457812,34.792022,-0.1349349)"
       gradientUnits="userSpaceOnUse">
      <stop
         stop-color="#32d7ff"
         offset="0"
         id="stop872" />
      <stop
         stop-color="#329bff"
         offset="1"
         id="stop874" />
    </linearGradient>
    <style
       type="text/css"
       id="style877" />
    <style
       type="text/css"
       id="style879" />
    <style
       type="text/css"
       id="style881" />
    <style
       type="text/css"
       id="style883" />
    <style
       type="text/css"
       id="style885" />
    <style
       type="text/css"
       id="style887" />
    <style
       type="text/css"
       id="style889" />
  </defs>
  <metadata
     id="metadata15">
    <rdf:RDF>
      <cc:Work
         rdf:about="">
        <dc:format>image/svg+xml</dc:format>
        <dc:type
           rdf:resource="http://purl.org/dc/dcmitype/StillImage" />
        <dc:title></dc:title>
      </cc:Work>
    </rdf:RDF>
  </metadata>
  <rect
     x="4.5"
     y="4.5"
     width="55"
     height="55"
     ry="15"
     fill="#141414"
     filter="url(#filter1057)"
     opacity="0.3"
     stroke-linecap="round"
     stroke-width="2.7444"
     id="rect905"
     transform="scale(0.26457812)" />
  <rect
     x="1.1906016"
     y="1.1906016"
     width="14.551797"
     height="14.551797"
     ry="3.9686718"
     fill="url(#linearGradient1053)"
     stroke-linecap="round"
     stroke-width="0.726108"
     id="rect907"
     style="fill:url(#linearGradient1053)" />
  <g
     transform="matrix(.017976 0 0 .017976 3.8654 3.6499)"
     fill="#0f9bff"
     filter="url(#filter951)"
     id="g27">
    <path
       d="m256 0c-76.544 0.094-138.57 62.122-138.67 138.67v85.333c0 5.891 4.776 10.667 10.667 10.667h42.667c5.891 0 10.667-4.776 10.667-10.667v-85.333c-1e-3 -41.238 33.429-74.667 74.666-74.667s74.667 33.429 74.667 74.667v85.333c0 5.891 4.776 10.667 10.667 10.667h42.666c5.891 0 10.667-4.776 10.667-10.667v-85.333c-0.094-76.545-62.123-138.57-138.67-138.67z"
       id="path21" />
    <path
       d="m128 213.33h256c29.455 0 53.333 23.878 53.333 53.333v192c0 29.456-23.878 53.334-53.333 53.334h-256c-29.455 0-53.333-23.878-53.333-53.333v-192c0-29.456 23.878-53.334 53.333-53.334z"
       id="path23" />
    <path
       d="m309.33 330.67c0.124-29.455-23.653-53.434-53.108-53.558s-53.434 23.653-53.558 53.108c-0.086 20.36 11.427 38.992 29.674 48.023l-8.235 57.6c-0.825 5.833 3.235 11.23 9.068 12.055 0.494 0.07 0.993 0.105 1.492 0.105h42.667c5.891 0.06 10.715-4.667 10.774-10.558 5e-3 -0.543-0.03-1.086-0.108-1.623l-8.235-57.6c18.024-9.02 29.452-27.399 29.569-47.552z"
       id="path25" />
  </g>
  <g
     transform="matrix(.017976 0 0 .017976 3.8654 3.6499)"
     id="g35">
    <path
       d="m256 0c-76.544 0.094-138.57 62.122-138.67 138.67v85.333c0 5.891 4.776 10.667 10.667 10.667h42.667c5.891 0 10.667-4.776 10.667-10.667v-85.333c-1e-3 -41.238 33.429-74.667 74.666-74.667s74.667 33.429 74.667 74.667v85.333c0 5.891 4.776 10.667 10.667 10.667h42.666c5.891 0 10.667-4.776 10.667-10.667v-85.333c-0.094-76.545-62.123-138.57-138.67-138.67z"
       fill="#b4e1ff"
       id="path29" />
    <path
       d="m128 213.33h256c29.455 0 53.333 23.878 53.333 53.333v192c0 29.456-23.878 53.334-53.333 53.334h-256c-29.455 0-53.333-23.878-53.333-53.333v-192c0-29.456 23.878-53.334 53.333-53.334z"
       fill="#fff"
       id="path31" />
    <path
       d="m309.33 330.67c0.124-29.455-23.653-53.434-53.108-53.558s-53.434 23.653-53.558 53.108c-0.086 20.36 11.427 38.992 29.674 48.023l-8.235 57.6c-0.825 5.833 3.235 11.23 9.068 12.055 0.494 0.07 0.993 0.105 1.492 0.105h42.667c5.891 0.06 10.715-4.667 10.774-10.558 5e-3 -0.543-0.03-1.086-0.108-1.623l-8.235-57.6c18.024-9.02 29.452-27.399 29.569-47.552z"
       fill="#0fa0ff"
       id="path33" />
  </g>
  <circle
     cx="-301.19653"
     cy="-338.47479"
     r="0"
     fill="#5e4aa6"
     id="circle893"
     style="stroke-width:0.264578" />
  <circle
     cx="-269.85632"
     cy="-348.87265"
     r="0"
     id="circle895"
     style="fill:#5e4aa6;stroke-width:0.26458" />
  <circle
     cx="21.057465"
     cy="-14.051351"
     r="0"
     fill-rule="evenodd"
     id="circle897"
     style="fill:#5e4aa6;stroke-width:0.26458" />
  <circle
     cx="-249.08633"
     cy="-367.79266"
     r="0"
     id="circle899"
     style="fill:#5e4aa6;stroke-width:0.26458" />
  <circle
     cx="41.826664"
     cy="-32.961651"
     r="0"
     fill-rule="evenodd"
     id="circle901"
     style="fill:#5e4aa6;stroke-width:0.26458" />
</svg>
