<?xml version="1.0" encoding="UTF-8" standalone="no"?>
<svg
   width="64"
   height="64"
   version="1.1"
   viewBox="0 0 16.934 16.934"
   id="svg745"
   sodipodi:docname="preferences-system-network-ethernet.svg"
   inkscape:version="1.2.2 (b0a8486541, 2022-12-01)"
   xmlns:inkscape="http://www.inkscape.org/namespaces/inkscape"
   xmlns:sodipodi="http://sodipodi.sourceforge.net/DTD/sodipodi-0.dtd"
   xmlns:xlink="http://www.w3.org/1999/xlink"
   xmlns="http://www.w3.org/2000/svg"
   xmlns:svg="http://www.w3.org/2000/svg">
  <defs
     id="defs749">
    <linearGradient
       id="linearGradient5781"
       x1="19.332001"
       x2="33.837002"
       y1="-82.949997"
       y2="-72.093002"
       gradientTransform="translate(-16.969,87.135)"
       gradientUnits="userSpaceOnUse">
      <stop
         stop-color="#23b4ff"
         offset="0"
         id="stop5777"
         style="stop-color:#3b3b3b;stop-opacity:1" />
      <stop
         stop-color="#057ed6"
         offset="1"
         id="stop5779"
         style="stop-color:#181818;stop-opacity:1" />
    </linearGradient>
    <linearGradient
       id="linearGradient1635"
       x1="19.332001"
       x2="33.837002"
       y1="-82.949997"
       y2="-72.093002"
       gradientTransform="translate(-16.969,87.135)"
       gradientUnits="userSpaceOnUse">
      <stop
         stop-color="#23b4ff"
         offset="0"
         id="stop1631"
         style="stop-color:#3a3a3a;stop-opacity:1" />
      <stop
         stop-color="#057ed6"
         offset="1"
         id="stop1633"
         style="stop-color:#161616;stop-opacity:1" />
    </linearGradient>
    <radialGradient
       id="radialGradient4437"
       cx="8.4665003"
       cy="10.191"
       r="7.9375"
       gradientTransform="matrix(0.91670279,0,0,0.7028177,0.705736,2.8646856)"
       gradientUnits="userSpaceOnUse"
       xlink:href="#linearGradient1635" />
    <linearGradient
       id="linearGradient4461"
       x1="19.332001"
       x2="33.837002"
       y1="-82.949997"
       y2="-72.093002"
       gradientTransform="translate(-16.969,87.135)"
       gradientUnits="userSpaceOnUse">
      <stop
         stop-color="#23b4ff"
         offset="0"
         id="stop912"
         style="stop-color:#3b3b3b;stop-opacity:1" />
      <stop
         stop-color="#057ed6"
         offset="1"
         id="stop914"
         style="stop-color:#161616;stop-opacity:1" />
    </linearGradient>
    <radialGradient
       id="radialGradient4445"
       cx="8.4665003"
       cy="2.9338"
       r="6.6145"
       gradientTransform="matrix(0.91670279,0,0,0.07842942,0.705736,3.1441883)"
       gradientUnits="userSpaceOnUse"
       xlink:href="#linearGradient5781" />
    <radialGradient
       id="radialGradient4447"
       cx="8.4678001"
       cy="1.2688"
       r="4.7252002"
       gradientTransform="matrix(0.91670279,0,0,0.11003184,0.705736,1.7083567)"
       gradientUnits="userSpaceOnUse"
       xlink:href="#linearGradient4461" />
    <filter
       id="filter1057"
       x="-0.026999999"
       y="-0.026999999"
       width="1.054"
       height="1.054"
       color-interpolation-filters="sRGB">
      <feGaussianBlur
         stdDeviation="0.61875"
         id="feGaussianBlur521" />
    </filter>
    <linearGradient
       id="linearGradient1053"
       x1="-127"
       x2="-72"
       y1="60"
       y2="5"
       gradientTransform="matrix(0.26459375,0,0,0.26459375,12.460693,-4.1526955)"
       gradientUnits="userSpaceOnUse">
      <stop
         stop-color="#2e55e7"
         offset="0"
         id="stop524" />
      <stop
         stop-color="#0d7eef"
         offset="1"
         id="stop526" />
    </linearGradient>
    <filter
       id="filter1057-2"
       x="-0.026999999"
       y="-0.026999999"
       width="1.054"
       height="1.054"
       color-interpolation-filters="sRGB">
      <feGaussianBlur
         stdDeviation="0.61875"
         id="feGaussianBlur5431" />
    </filter>
    <linearGradient
       id="linearGradient1053-0"
       x1="-127"
       x2="-72"
       y1="60"
       y2="5"
       gradientTransform="matrix(0.26459375,0,0,0.26459375,34.794078,-0.13494309)"
       gradientUnits="userSpaceOnUse">
      <stop
         stop-color="#1d2123"
         offset="0"
         id="stop5434" />
      <stop
         stop-color="#33393e"
         stop-opacity=".99608"
         offset="1"
         id="stop5436" />
    </linearGradient>
  </defs>
  <sodipodi:namedview
     id="namedview747"
     pagecolor="#ffffff"
     bordercolor="#999999"
     borderopacity="1"
     inkscape:showpageshadow="0"
     inkscape:pageopacity="0"
     inkscape:pagecheckerboard="0"
     inkscape:deskcolor="#d1d1d1"
     showgrid="false"
     inkscape:zoom="3.1640625"
     inkscape:cx="-32.553086"
     inkscape:cy="72.217284"
     inkscape:window-width="1920"
     inkscape:window-height="989"
     inkscape:window-x="0"
     inkscape:window-y="0"
     inkscape:window-maximized="1"
     inkscape:current-layer="svg745" />
  <rect
     x="4.5"
     y="4.5"
     width="55"
     height="55"
     ry="15"
     fill="#141414"
     filter="url(#filter1057-2)"
     opacity="0.3"
     stroke-linecap="round"
     stroke-width="2.7444"
     id="rect5441"
     transform="scale(0.26459375)" />
  <rect
     x="1.1906719"
     y="1.1906719"
     width="14.552656"
     height="14.552656"
     ry="3.9689062"
     fill="url(#linearGradient1053-0)"
     stroke-linecap="round"
     stroke-width="0.726151"
     id="rect5443"
     style="fill:url(#linearGradient1053-0)" />
  <g
     id="g6076"
     transform="matrix(0.27631577,0,0,0.27631577,11.179272,3.5653031)"
     style="fill:#fffffc;fill-opacity:1">
    <path
       d="M 6.0597826,30.969164 H -25.691469 c -0.529188,0 -0.88198,-0.352792 -0.88198,-0.881979 V 12.447601 c 0,-0.529188 0.352792,-0.88198 0.88198,-0.88198 h 6.173854 V 8.9196835 c 0,-0.5291875 0.352792,-0.8819794 0.881979,-0.8819794 h 4.409897 V 5.3917664 c 0,-0.5291875 0.352791,-0.8819789 0.881979,-0.8819789 h 7.0558337 c 0.5291875,0 0.8819789,0.3527914 0.8819789,0.8819789 v 2.6459377 h 4.40989643 c 0.52918753,0 0.88197887,0.3527919 0.88197887,0.8819794 v 2.6459375 h 6.1738547 c 0.5291876,0 0.8819794,0.352792 0.8819794,0.88198 v 17.639584 c 0,0.529187 -0.3527918,0.881979 -0.8819794,0.881979 z M -24.80949,29.205205 H 5.1778032 V 13.329579 h -6.17385417 c -0.52918753,0 -0.88197943,-0.352791 -0.88197943,-0.881978 V 9.8016629 h -4.4098959 c -0.5291875,0 -0.8819794,-0.3527919 -0.8819794,-0.8819794 V 6.2737458 h -5.2918753 v 2.6459377 c 0,0.5291875 -0.352792,0.8819794 -0.881979,0.8819794 h -4.409896 v 2.6459381 c 0,0.529187 -0.352792,0.881978 -0.88198,0.881978 h -6.173854 z"
       fill=""
       p-id="7604"
       id="path6072"
       style="fill:#fffffc;fill-opacity:1;stroke-width:0.0516785" />
    <path
       d="m -20.399594,30.969164 c -0.529188,0 -0.881979,-0.352792 -0.881979,-0.881979 v -5.291876 c 0,-0.529187 0.352791,-0.881979 0.881979,-0.881979 0.529188,0 0.881979,0.352792 0.881979,0.881979 v 5.291876 c 0,0.529187 -0.352791,0.881979 -0.881979,0.881979 z m 5.291875,0 c -0.529187,0 -0.881979,-0.352792 -0.881979,-0.881979 v -5.291876 c 0,-0.529187 0.352792,-0.881979 0.881979,-0.881979 0.529188,0 0.88198,0.352792 0.88198,0.881979 v 5.291876 c 0,0.529187 -0.352792,0.881979 -0.88198,0.881979 z m 10.583751,0 c -0.5291876,0 -0.8819794,-0.352792 -0.8819794,-0.881979 v -5.291876 c 0,-0.529187 0.3527918,-0.881979 0.8819794,-0.881979 0.5291875,0 0.8819794,0.352792 0.8819794,0.881979 v 5.291876 c 0,0.529187 -0.3527919,0.881979 -0.8819794,0.881979 z m 5.2918753,0 c -0.52918754,0 -0.8819794,-0.352792 -0.8819794,-0.881979 v -5.291876 c 0,-0.529187 0.35279186,-0.881979 0.8819794,-0.881979 0.5291875,0 0.8819794,0.352792 0.8819794,0.881979 v 5.291876 c 0,0.529187 -0.3527919,0.881979 -0.8819794,0.881979 z m -10.5837507,0 c -0.5291876,0 -0.8819796,-0.352792 -0.8819796,-0.881979 v -5.291876 c 0,-0.529187 0.352792,-0.881979 0.8819796,-0.881979 0.5291876,0 0.8819794,0.352792 0.8819794,0.881979 v 5.291876 c 0,0.529187 -0.3527918,0.881979 -0.8819794,0.881979 z"
       fill=""
       p-id="7605"
       id="path6074"
       style="fill:#fffffc;fill-opacity:1;stroke-width:0.0516785" />
  </g>
</svg>
