<?xml version="1.0" encoding="UTF-8" standalone="no"?>
<svg
   width="64"
   height="64"
   version="1.1"
   id="svg21"
   sodipodi:docname="preferences-desktop-touchpad.svg"
   inkscape:version="1.3.2 (091e20ef0f, 2023-11-25, custom)"
   xmlns:inkscape="http://www.inkscape.org/namespaces/inkscape"
   xmlns:sodipodi="http://sodipodi.sourceforge.net/DTD/sodipodi-0.dtd"
   xmlns:xlink="http://www.w3.org/1999/xlink"
   xmlns="http://www.w3.org/2000/svg"
   xmlns:svg="http://www.w3.org/2000/svg">
  <sodipodi:namedview
     id="namedview23"
     pagecolor="#ffffff"
     bordercolor="#999999"
     borderopacity="1"
     inkscape:showpageshadow="0"
     inkscape:pageopacity="0"
     inkscape:pagecheckerboard="0"
     inkscape:deskcolor="#d1d1d1"
     showgrid="false"
     inkscape:zoom="2.2373301"
     inkscape:cx="-18.772376"
     inkscape:cy="53.635359"
     inkscape:window-width="1920"
     inkscape:window-height="995"
     inkscape:window-x="0"
     inkscape:window-y="0"
     inkscape:window-maximized="1"
     inkscape:current-layer="svg21" />
  <defs
     id="defs7">
    <linearGradient
       id="linearGradient2"
       inkscape:collect="always">
      <stop
         style="stop-color:#363f3e;stop-opacity:1"
         offset="0"
         id="stop3" />
      <stop
         style="stop-color:#262e30;stop-opacity:1"
         offset="0.46736446"
         id="stop6" />
      <stop
         style="stop-color:#233836;stop-opacity:1"
         offset="1"
         id="stop5" />
    </linearGradient>
    <linearGradient
       id="b-6"
       x1="399.57"
       x2="399.57"
       y1="545.8"
       y2="517.8"
       gradientTransform="matrix(2.1429,0,0,2.1429,-826.36,-1107.5)"
       gradientUnits="userSpaceOnUse">
      <stop
         stop-color="#3889e9"
         offset="0"
         id="stop2" />
      <stop
         stop-color="#5ea5fb"
         offset="1"
         id="stop4" />
    </linearGradient>
    <linearGradient
       id="linearGradient1159-3"
       x1="-184.75"
       x2="-170.2"
       y1="-1.2654999"
       y2="-15.817"
       gradientTransform="matrix(3.779602,0,0,3.779602,598.675,64.285361)"
       gradientUnits="userSpaceOnUse">
      <stop
         stop-color="#6d7982"
         offset="0"
         id="stop1877" />
      <stop
         stop-color="#859094"
         offset="1"
         id="stop1879" />
    </linearGradient>
    <linearGradient
       id="linearGradient7064"
       x1="-177.35001"
       x2="-177.35001"
       y1="-1.1773"
       y2="-15.837"
       gradientTransform="matrix(3.3368029,0,0,3.3390986,520.09802,60.522613)"
       gradientUnits="userSpaceOnUse">
      <stop
         stop-color="#233937"
         offset="0"
         id="stop1882" />
      <stop
         stop-color="#232b2d"
         offset=".48448"
         id="stop1884" />
      <stop
         stop-color="#384140"
         offset="1"
         id="stop1886" />
    </linearGradient>
    <linearGradient
       id="linearGradient7076"
       x1="-177.35001"
       x2="-177.35001"
       y1="-1.1773"
       y2="-15.837"
       gradientTransform="matrix(3.2836048,0,0,0.18901412,614.79082,48.739133)"
       gradientUnits="userSpaceOnUse">
      <stop
         stop-color="#3b454b"
         offset="0"
         id="stop1889"
         style="stop-color:#232b2d;stop-opacity:1" />
      <stop
         stop-color="#2c353a"
         offset="1"
         id="stop1891"
         style="stop-color:#232b2d;stop-opacity:1" />
    </linearGradient>
    <filter
       inkscape:collect="always"
       style="color-interpolation-filters:sRGB"
       id="filter1057"
       x="-0.026999999"
       width="1.054"
       y="-0.026999999"
       height="1.054">
      <feGaussianBlur
         inkscape:collect="always"
         stdDeviation="0.61875"
         id="feGaussianBlur1059" />
    </filter>
    <radialGradient
       inkscape:collect="always"
       xlink:href="#linearGradient37376"
       id="radialGradient37378"
       cx="8.4665003"
       cy="8.4665003"
       fx="8.4665003"
       fy="8.4665003"
       r="7.276"
       gradientUnits="userSpaceOnUse"
       gradientTransform="scale(3.779602)" />
    <linearGradient
       inkscape:collect="always"
       id="linearGradient37376">
      <stop
         style="stop-color:#5e6a76;stop-opacity:1;"
         offset="0"
         id="stop37372" />
      <stop
         style="stop-color:#1d2123;stop-opacity:1;"
         offset="1"
         id="stop37374" />
    </linearGradient>
    <linearGradient
       inkscape:collect="always"
       xlink:href="#linearGradient2"
       id="linearGradient5"
       x1="32"
       y1="9"
       x2="32"
       y2="55"
       gradientUnits="userSpaceOnUse" />
  </defs>
  <circle
     cx="32.02"
     cy="32.044"
     r="0"
     fill="url(#b-6)"
     stroke-width="1.5715"
     id="circle13" />
  <rect
     ry="15"
     y="4.4999995"
     x="4.4999995"
     height="55"
     width="55"
     id="rect1055"
     style="opacity:0.3;fill:#141414;fill-opacity:1;stroke-width:2.74436;stroke-linecap:round;filter:url(#filter1057)" />
  <rect
     x="4.4996166"
     y="4.4996166"
     width="55.000767"
     height="55.000767"
     ry="15.000106"
     stroke-linecap="round"
     stroke-width="2.74441"
     id="rect36685"
     style="fill:url(#radialGradient37378);fill-opacity:1" />
  <path
     id="rect16"
     d="M 17 9 C 12.568008 9 9 12.568008 9 17 L 9 45.75 L 30.625 45.75 L 33.375 45.75 L 55 45.75 L 55 17 C 55 12.568008 51.431992 9 47 9 L 17 9 z M 9.1445312 48.5 C 9.8431839 52.209703 13.081284 55 17 55 L 30.625 55 L 30.625 48.5 L 9.1445312 48.5 z M 33.375 48.5 L 33.375 55 L 47 55 C 50.918716 55 54.156816 52.209703 54.855469 48.5 L 33.375 48.5 z "
     style="fill:url(#linearGradient5);fill-opacity:1" />
  <path
     d="m 26.07675,16.693 a 4.3077,4.3077 0 0 0 -4.3077,4.3077 4.3077,4.3077 0 0 0 3.2308,4.1689 v -2.3095 a 2.1538,2.1538 0 0 1 -1.0769,-1.8594 2.1538,2.1538 0 0 1 2.1538,-2.1538 2.1538,2.1538 0 0 1 2.1539,2.1538 2.1538,2.1538 0 0 1 -0.02154,0.29027 l 1.8173,1.4135 a 4.3077,4.3077 0 0 0 0.35758,-1.7037 4.3077,4.3077 0 0 0 -4.3077,-4.3077 z m 0,4.3077 0.013,21 6.4489,-8.6154 h 9.692301 L 26.07695,21.0003 Z"
     stroke-linejoin="round"
     stroke-width="2.1538"
     id="path1"
     style="fill:#ffffff;fill-opacity:1" />
</svg>
