<?xml version="1.0" encoding="UTF-8" standalone="no"?>
<svg
   width="64"
   height="64"
   version="1.1"
   viewBox="0 0 16.934 16.934"
   id="svg12"
   sodipodi:docname="preferences-system-network-dsl.svg"
   inkscape:version="1.2.2 (b0a8486541, 2022-12-01)"
   xmlns:inkscape="http://www.inkscape.org/namespaces/inkscape"
   xmlns:sodipodi="http://sodipodi.sourceforge.net/DTD/sodipodi-0.dtd"
   xmlns:xlink="http://www.w3.org/1999/xlink"
   xmlns="http://www.w3.org/2000/svg"
   xmlns:svg="http://www.w3.org/2000/svg">
  <defs
     id="defs16">
    <radialGradient
       id="radialGradient4437"
       cx="8.4665003"
       cy="10.191"
       r="7.9375"
       gradientTransform="matrix(0.91670279,0,0,0.7028177,19.040449,2.2165947)"
       gradientUnits="userSpaceOnUse"
       xlink:href="#linearGradient4461" />
    <linearGradient
       id="linearGradient4461"
       x1="19.332001"
       x2="33.837002"
       y1="-82.949997"
       y2="-72.093002"
       gradientTransform="translate(-16.969,87.135)"
       gradientUnits="userSpaceOnUse">
      <stop
         stop-color="#23b4ff"
         offset="0"
         id="stop912" />
      <stop
         stop-color="#057ed6"
         offset="1"
         id="stop914" />
    </linearGradient>
    <linearGradient
       id="linearGradient4455"
       x1="3.3822"
       x2="13.623"
       y1="6.5138001"
       y2="14.909"
       gradientUnits="userSpaceOnUse"
       gradientTransform="matrix(0.91670279,0,0,0.91670279,19.040449,0.03676718)">
      <stop
         stop-color="#fff"
         offset="0"
         id="stop928" />
      <stop
         stop-color="#ebebeb"
         offset="1"
         id="stop930" />
    </linearGradient>
    <radialGradient
       id="radialGradient4445"
       cx="8.4665003"
       cy="2.9338"
       r="6.6145"
       gradientTransform="matrix(0.91670279,0,0,0.07842942,19.040449,2.4960974)"
       gradientUnits="userSpaceOnUse"
       xlink:href="#linearGradient4461" />
    <radialGradient
       id="radialGradient4447"
       cx="8.4678001"
       cy="1.2688"
       r="4.7252002"
       gradientTransform="matrix(0.91670279,0,0,0.11003184,19.040449,1.0602658)"
       gradientUnits="userSpaceOnUse"
       xlink:href="#linearGradient4461" />
    <filter
       id="filter1057"
       x="-0.026999999"
       y="-0.026999999"
       width="1.054"
       height="1.054"
       color-interpolation-filters="sRGB">
      <feGaussianBlur
         stdDeviation="0.61875"
         id="feGaussianBlur521" />
    </filter>
    <linearGradient
       id="linearGradient1053"
       x1="-127"
       x2="-72"
       y1="60"
       y2="5"
       gradientTransform="matrix(0.26459375,0,0,0.26459375,34.794051,-0.13453518)"
       gradientUnits="userSpaceOnUse">
      <stop
         stop-color="#2e55e7"
         offset="0"
         id="stop524" />
      <stop
         stop-color="#0d7eef"
         offset="1"
         id="stop526" />
    </linearGradient>
  </defs>
  <sodipodi:namedview
     id="namedview14"
     pagecolor="#ffffff"
     bordercolor="#999999"
     borderopacity="1"
     inkscape:showpageshadow="0"
     inkscape:pageopacity="0"
     inkscape:pagecheckerboard="0"
     inkscape:deskcolor="#d1d1d1"
     showgrid="false"
     inkscape:zoom="4.4746601"
     inkscape:cx="29.275967"
     inkscape:cy="41.008701"
     inkscape:window-width="1920"
     inkscape:window-height="989"
     inkscape:window-x="0"
     inkscape:window-y="0"
     inkscape:window-maximized="1"
     inkscape:current-layer="svg12" />
  <g
     transform="matrix(1.0000311,0,0,1.0000311,-3.4994392,0.22814722)"
     fill="#5e4aa6"
     stroke-width="0.26458"
     id="g945">
    <circle
       cx="-330.35001"
       cy="-328.38"
       r="0"
       id="circle937" />
    <circle
       cx="-312.10999"
       cy="-326.25"
       r="0"
       id="circle939" />
    <circle
       cx="-306.01999"
       cy="-333.07001"
       r="0"
       id="circle941" />
    <circle
       cx="-308.84"
       cy="-326.01001"
       r="0"
       id="circle943" />
  </g>
  <circle
     cx="-282.99478"
     cy="-301.78763"
     r="0"
     fill="#5e4aa6"
     stroke-width="0.242541"
     id="circle949" />
  <rect
     transform="scale(0.26459375)"
     x="4.5"
     y="4.5"
     width="55"
     height="55"
     ry="15"
     fill="#141414"
     filter="url(#filter1057)"
     opacity="0.3"
     stroke-linecap="round"
     stroke-width="2.7444"
     id="rect535" />
  <rect
     x="1.1905398"
     y="1.1905398"
     width="14.55292"
     height="14.55292"
     ry="3.9689062"
     fill="url(#linearGradient1053)"
     stroke-linecap="round"
     stroke-width="0.726151"
     id="rect537"
     style="fill:url(#linearGradient1053)" />
  <g
     id="g519"
     transform="matrix(0.27631577,0,0,0.27631577,11.179272,3.5653031)"
     style="fill:#fffffc;fill-opacity:1">
    <path
       d="M 6.0597826,30.969164 H -25.691469 c -0.529188,0 -0.88198,-0.352792 -0.88198,-0.881979 V 12.447601 c 0,-0.529188 0.352792,-0.88198 0.88198,-0.88198 h 6.173854 V 8.9196835 c 0,-0.5291875 0.352792,-0.8819794 0.881979,-0.8819794 h 4.409897 V 5.3917664 c 0,-0.5291875 0.352791,-0.8819789 0.881979,-0.8819789 h 7.0558337 c 0.5291875,0 0.8819789,0.3527914 0.8819789,0.8819789 v 2.6459377 h 4.40989643 c 0.52918753,0 0.88197887,0.3527919 0.88197887,0.8819794 v 2.6459375 h 6.1738547 c 0.5291876,0 0.8819794,0.352792 0.8819794,0.88198 v 17.639584 c 0,0.529187 -0.3527918,0.881979 -0.8819794,0.881979 z M -24.80949,29.205205 H 5.1778032 V 13.329579 h -6.17385417 c -0.52918753,0 -0.88197943,-0.352791 -0.88197943,-0.881978 V 9.8016629 h -4.4098959 c -0.5291875,0 -0.8819794,-0.3527919 -0.8819794,-0.8819794 V 6.2737458 h -5.2918753 v 2.6459377 c 0,0.5291875 -0.352792,0.8819794 -0.881979,0.8819794 h -4.409896 v 2.6459381 c 0,0.529187 -0.352792,0.881978 -0.88198,0.881978 h -6.173854 z"
       fill=""
       p-id="7604"
       id="path257"
       style="stroke-width:0.0516785;fill:#fffffc;fill-opacity:1" />
    <path
       d="m -20.399594,30.969164 c -0.529188,0 -0.881979,-0.352792 -0.881979,-0.881979 v -5.291876 c 0,-0.529187 0.352791,-0.881979 0.881979,-0.881979 0.529188,0 0.881979,0.352792 0.881979,0.881979 v 5.291876 c 0,0.529187 -0.352791,0.881979 -0.881979,0.881979 z m 5.291875,0 c -0.529187,0 -0.881979,-0.352792 -0.881979,-0.881979 v -5.291876 c 0,-0.529187 0.352792,-0.881979 0.881979,-0.881979 0.529188,0 0.88198,0.352792 0.88198,0.881979 v 5.291876 c 0,0.529187 -0.352792,0.881979 -0.88198,0.881979 z m 10.583751,0 c -0.5291876,0 -0.8819794,-0.352792 -0.8819794,-0.881979 v -5.291876 c 0,-0.529187 0.3527918,-0.881979 0.8819794,-0.881979 0.5291875,0 0.8819794,0.352792 0.8819794,0.881979 v 5.291876 c 0,0.529187 -0.3527919,0.881979 -0.8819794,0.881979 z m 5.2918753,0 c -0.52918754,0 -0.8819794,-0.352792 -0.8819794,-0.881979 v -5.291876 c 0,-0.529187 0.35279186,-0.881979 0.8819794,-0.881979 0.5291875,0 0.8819794,0.352792 0.8819794,0.881979 v 5.291876 c 0,0.529187 -0.3527919,0.881979 -0.8819794,0.881979 z m -10.5837507,0 c -0.5291876,0 -0.8819796,-0.352792 -0.8819796,-0.881979 v -5.291876 c 0,-0.529187 0.352792,-0.881979 0.8819796,-0.881979 0.5291876,0 0.8819794,0.352792 0.8819794,0.881979 v 5.291876 c 0,0.529187 -0.3527918,0.881979 -0.8819794,0.881979 z"
       fill=""
       p-id="7605"
       id="path259"
       style="stroke-width:0.0516785;fill:#fffffc;fill-opacity:1" />
  </g>
</svg>
