<?xml version="1.0" encoding="UTF-8" standalone="no"?>
<svg
   xmlns:dc="http://purl.org/dc/elements/1.1/"
   xmlns:cc="http://creativecommons.org/ns#"
   xmlns:rdf="http://www.w3.org/1999/02/22-rdf-syntax-ns#"
   xmlns:svg="http://www.w3.org/2000/svg"
   xmlns="http://www.w3.org/2000/svg"
   xmlns:sodipodi="http://sodipodi.sourceforge.net/DTD/sodipodi-0.dtd"
   xmlns:inkscape="http://www.inkscape.org/namespaces/inkscape"
   width="64"
   height="64"
   version="1.1"
   id="svg119"
   sodipodi:docname="remote-desktop.svg"
   inkscape:version="1.0.2 (e86c870879, 2021-01-15)">
  <metadata
     id="metadata123">
    <rdf:RDF>
      <cc:Work
         rdf:about="">
        <dc:format>image/svg+xml</dc:format>
        <dc:type
           rdf:resource="http://purl.org/dc/dcmitype/StillImage" />
        <dc:title></dc:title>
      </cc:Work>
    </rdf:RDF>
  </metadata>
  <sodipodi:namedview
     pagecolor="#ffffff"
     bordercolor="#666666"
     borderopacity="1"
     objecttolerance="10"
     gridtolerance="10"
     guidetolerance="10"
     inkscape:pageopacity="0"
     inkscape:pageshadow="2"
     inkscape:window-width="1920"
     inkscape:window-height="936"
     id="namedview121"
     showgrid="false"
     inkscape:zoom="6.0546875"
     inkscape:cx="15.482299"
     inkscape:cy="23.980696"
     inkscape:window-x="0"
     inkscape:window-y="38"
     inkscape:window-maximized="1"
     inkscape:current-layer="svg119" />
  <defs
     id="defs33">
    <linearGradient
       id="b"
       x1="399.57"
       x2="399.57"
       y1="545.8"
       y2="517.8"
       gradientTransform="matrix(2.1429 0 0 2.1429 -826.36 -1107.5)"
       gradientUnits="userSpaceOnUse">
      <stop
         stop-color="#3889e9"
         offset="0"
         id="stop2" />
      <stop
         stop-color="#5ea5fb"
         offset="1"
         id="stop4" />
    </linearGradient>
    <filter
       id="g"
       x="-.031652"
       y="-.041947"
       width="1.0633"
       height="1.0839"
       color-interpolation-filters="sRGB">
      <feGaussianBlur
         stdDeviation="0.61065842"
         id="feGaussianBlur7" />
    </filter>
    <linearGradient
       id="a"
       x1="409.57"
       x2="409.94"
       y1="542.8"
       y2="504.19"
       gradientTransform="matrix(1.0523,0,0,1.0276,-72.568,-8.6932)"
       gradientUnits="userSpaceOnUse">
      <stop
         stop-color="#86d0fb"
         offset="0"
         id="stop10" />
      <stop
         stop-color="#2794f5"
         offset="1"
         id="stop12" />
    </linearGradient>
    <linearGradient
       id="h"
       x1="386.57"
       x2="414.57"
       y1="531.8"
       y2="531.8"
       gradientUnits="userSpaceOnUse">
      <stop
         stop-color="#fff"
         offset="0"
         id="stop15" />
      <stop
         stop-color="#ebebeb"
         offset="1"
         id="stop17" />
    </linearGradient>
    <linearGradient
       id="d"
       x1="-86.388"
       x2="-94.072"
       y1="734.34"
       y2="939.73"
       gradientTransform="matrix(2.1429 0 0 2.1429 -826.36 -1107.5)"
       gradientUnits="userSpaceOnUse">
      <stop
         stop-color="#1769cc"
         offset="0"
         id="stop20" />
      <stop
         stop-color="#5ee6fb"
         offset="1"
         id="stop22" />
    </linearGradient>
    <filter
       id="i"
       x="-.059998"
       y="-.060002"
       width="1.12"
       height="1.12"
       color-interpolation-filters="sRGB">
      <feGaussianBlur
         stdDeviation="0.69999792"
         id="feGaussianBlur25" />
    </filter>
    <linearGradient
       id="linearGradient862-3"
       x1="7.9373"
       x2="7.9373"
       y1="15.081"
       y2="1.852"
       gradientTransform="matrix(3.7795,0,0,3.7795,9.0563732,-9.7260094)"
       gradientUnits="userSpaceOnUse">
      <stop
         stop-color="#1a1a1a"
         offset="0"
         id="stop28" />
      <stop
         stop-color="#4d4d4d"
         offset="1"
         id="stop30" />
    </linearGradient>
    <linearGradient
       id="linearGradient938"
       x1="99.523003"
       x2="103.24"
       y1="38.493999"
       y2="41.915001"
       gradientTransform="matrix(1.3333,0,0,1.3333,-103.146,-21.795)"
       gradientUnits="userSpaceOnUse">
      <stop
         stop-color="#6eb92e"
         offset="0"
         id="stop866" />
      <stop
         stop-color="#4592d6"
         offset="1"
         id="stop868" />
    </linearGradient>
    <linearGradient
       id="b-3"
       x1="399.57001"
       x2="399.57001"
       y1="545.79999"
       y2="517.79999"
       gradientTransform="matrix(2.1429,0,0,2.1429,-821.54478,-1107.5)"
       gradientUnits="userSpaceOnUse">
      <stop
         stop-color="#3889e9"
         offset="0"
         id="stop871" />
      <stop
         stop-color="#5ea5fb"
         offset="1"
         id="stop873" />
    </linearGradient>
    <style
       type="text/css"
       id="style876" />
    <style
       type="text/css"
       id="style878" />
    <filter
       id="filter1057"
       x="-0.027000001"
       y="-0.027000001"
       width="1.054"
       height="1.054"
       color-interpolation-filters="sRGB">
      <feGaussianBlur
         stdDeviation="0.61875"
         id="feGaussianBlur880" />
    </filter>
    <linearGradient
       id="linearGradient1053"
       x1="-127"
       x2="-72"
       y1="60"
       y2="5"
       gradientTransform="translate(203.93,-0.054156)"
       gradientUnits="userSpaceOnUse">
      <stop
         stop-color="#1d2123"
         offset="0"
         id="stop883" />
      <stop
         stop-color="#33393e"
         stop-opacity=".99608"
         offset="1"
         id="stop885" />
    </linearGradient>
  </defs>
  <g
     transform="translate(-72.440002)"
     id="g896">
    <rect
       x="76.934998"
       y="4.9558001"
       width="55"
       height="55"
       ry="15"
       fill="#141414"
       filter="url(#filter1057)"
       opacity="0.3"
       stroke-linecap="round"
       stroke-width="2.7444"
       id="rect890" />
    <rect
       x="76.934998"
       y="4.9558001"
       width="55"
       height="55"
       ry="15"
       fill="url(#linearGradient1053)"
       stroke-linecap="round"
       stroke-width="2.7444"
       id="rect892"
       style="fill:url(#linearGradient1053)" />
    <circle
       cx="104.44"
       cy="32"
       r="30.000999"
       fill-opacity="0"
       stroke-width="1.5715"
       id="circle894" />
  </g>
  <circle
     cx="32.02"
     cy="32.044"
     r="30.001"
     fill-opacity="0"
     stroke-width="1.5715"
     id="circle49" />
  <circle
     cx="32.02"
     cy="32.044"
     r="0"
     fill="url(#b)"
     stroke-width="1.5715"
     id="circle51" />
  <g
     transform="matrix(.46586 -.055566 .057258 .45209 -211.41 -156.63)"
     id="g65">
    <rect
       transform="matrix(1.735 .21325 -.21325 1.735 -46.117 -529.76)"
       x="334.23"
       y="513.13"
       width="46.303"
       height="34.939"
       ry="1.6442"
       filter="url(#g)"
       opacity=".75"
       id="rect53" />
    <rect
       transform="matrix(1.735 .21325 -.21325 1.735 -46.117 -529.76)"
       x="334.23"
       y="513.13"
       width="46.303"
       height="34.939"
       ry="1.6442"
       fill="url(#a)"
       id="rect55" />
    <g
       fill="#d5ffff"
       id="g63">
      <ellipse
         transform="rotate(7.007)"
         cx="498.35"
         cy="384.49"
         rx="3.1958"
         ry="3.2932"
         id="ellipse57" />
      <ellipse
         transform="rotate(7.007)"
         cx="489.83"
         cy="384.49"
         rx="3.1958"
         ry="3.2932"
         id="ellipse59" />
      <ellipse
         transform="rotate(7.007)"
         cx="481.31"
         cy="384.49"
         rx="3.1958"
         ry="3.2932"
         id="ellipse61" />
    </g>
  </g>
  <g
     transform="matrix(.46586 -.055566 .057258 .45209 -206.41 -149.63)"
     id="g79">
    <rect
       transform="matrix(1.735 .21325 -.21325 1.735 -46.117 -529.76)"
       x="334.23"
       y="513.13"
       width="46.303"
       height="34.939"
       ry="1.6442"
       filter="url(#g)"
       opacity=".75"
       id="rect67" />
    <rect
       transform="matrix(1.735 .21325 -.21325 1.735 -46.117 -529.76)"
       x="334.23"
       y="513.13"
       width="46.303"
       height="34.939"
       ry="1.6442"
       fill="url(#a)"
       id="rect69" />
    <g
       fill="#d5ffff"
       id="g77">
      <ellipse
         transform="rotate(7.007)"
         cx="498.35"
         cy="384.49"
         rx="3.1958"
         ry="3.2932"
         id="ellipse71" />
      <ellipse
         transform="rotate(7.007)"
         cx="489.83"
         cy="384.49"
         rx="3.1958"
         ry="3.2932"
         id="ellipse73" />
      <ellipse
         transform="rotate(7.007)"
         cx="481.31"
         cy="384.49"
         rx="3.1958"
         ry="3.2932"
         id="ellipse75" />
    </g>
  </g>
  <g
     transform="matrix(.97935 0 0 .97461 -352.62 -477.63)"
     fill-opacity=".87245"
     stroke="#000"
     stroke-opacity=".8"
     stroke-width=".6618"
     id="g117">
    <g
       transform="matrix(1.2717 0 0 1.2756 -114.26 -140.42)"
       fill-opacity=".87245"
       stroke-width=".6618"
       id="g115">
      <g
         transform="matrix(.78637 0 0 .78395 93.326 112.35)"
         fill-opacity=".87245"
         stroke-width=".6618"
         id="g113">
        <g
           transform="matrix(1.2717 0 0 1.2756 -124.34 -145.65)"
           fill-opacity=".87245"
           stroke-width=".6618"
           id="g111">
          <g
             transform="translate(2.9673 4.7351)"
             fill-opacity=".87245"
             stroke-width=".6618"
             id="g109">
            <g
               transform="translate(.031567 -1.894)"
               fill-opacity=".87245"
               stroke-width=".6618"
               id="g107">
              <g
                 transform="translate(-1.3574 -.63135)"
                 fill-opacity=".87245"
                 stroke-width=".6618"
                 id="g105">
                <g
                   transform="translate(9.3755 2.3044)"
                   fill-opacity=".87245"
                   stroke-width=".6618"
                   id="g103">
                  <g
                     transform="translate(-8.1444 -1.9572)"
                     fill-opacity=".87245"
                     stroke-width=".6618"
                     id="g101">
                    <g
                       transform="translate(-1.0417 .94702)"
                       fill-opacity=".87245"
                       stroke-width=".6618"
                       id="g99">
                      <g
                         transform="translate(402.92 -510.2)"
                         fill-opacity=".87245"
                         stroke-width=".6618"
                         id="g97">
                        <g
                           transform="translate(-405.32 508.49)"
                           fill-opacity=".87245"
                           stroke-width=".6618"
                           id="g95">
                          <g
                             transform="matrix(.70383 0 0 .70166 127.07 156.05)"
                             fill-opacity=".87245"
                             stroke-width=".6618"
                             id="g93">
                            <g
                               transform="matrix(-.012968 0 0 .013008 456 564.94)"
                               fill-opacity=".87245"
                               stroke-width=".6618"
                               id="g91">
                              <g
                                 transform="matrix(-7.0733 0 0 7.0018 2712.2 -7878.3)"
                                 fill-opacity=".87245"
                                 stroke-width=".6618"
                                 id="g89">
                                <g
                                   fill-opacity="1"
                                   stroke="none"
                                   stroke-width=".6618"
                                   id="g87">
                                <circle
                                   transform="matrix(10.622 .91339 -.90576 10.75 -3877.2 -5262.9)"
                                   cx="400.57"
                                   cy="531.8"
                                   r="14"
                                   filter="url(#i)"
                                   opacity=".25"
                                   id="circle81" />
                                <circle
                                   transform="matrix(10.622 .91339 -.90576 10.75 -3877.2 -5262.9)"
                                   cx="400.57"
                                   cy="531.8"
                                   r="14"
                                   fill="url(#h)"
                                   id="circle83" />
                                <path
                                   d="m-67.447 887.53c-3.5472 0-7.0857-1.5396-9.6591-4.5633-6.5987-7.7725-15.997-12.215-25.795-12.215-9.9634 0-19.118 4.3129-25.778 12.15-4.8338 5.7042-13.076 6.1402-18.423 0.96469-5.3381-5.1662-5.7468-13.959-0.90382-19.645 11.494-13.532 27.934-21.296 45.105-21.296 17.145 0 33.585 7.7818 45.113 21.342 4.8425 5.6949 4.4339 14.488-0.90382 19.654-2.4865 2.4207-5.625 3.608-8.7548 3.608zm28.934-34.809c-3.3298 0-6.6597-1.3542-9.1983-4.0532-14.762-15.666-34.359-24.291-55.19-24.291-20.874 0-40.479 8.6072-55.216 24.236-5.1033 5.4166-13.363 5.3888-18.44-0.0554-5.0774-5.4444-5.06-14.256 0.0549-19.672 19.648-20.85 45.792-32.333 73.604-32.333 27.769 0 53.903 11.501 73.586 32.388 5.1121 5.4167 5.1296 14.228 0.05495 19.682-2.5473 2.7177-5.9032 4.0996-9.2504 4.0996zm28.873-34.754c-3.2429 0-6.4944-1.2893-9.0243-3.8676-22.77-23.28-52.677-36.099-84.237-36.099-31.62 0-61.545 12.8-84.254 36.061-5.1903 5.3146-13.45 5.1384-18.44-0.40781-4.9904-5.5466-4.8165-14.358 0.37312-19.672 27.595-28.252 63.927-43.806 102.32-43.806 38.315 0 74.638 15.573 102.29 43.834 5.1991 5.3148 5.373 14.126 0.39194 19.672-2.5647 2.8474-5.9902 4.285-9.4156 4.285zm-94.895 103.22c8.7004 0 15.754-7.1387 15.754-15.945 0-8.8058-7.0532-15.945-15.754-15.945-8.7004 0-15.754 7.1387-15.754 15.945 0 8.8059 7.0532 15.945 15.754 15.945z"
                                   fill="url(#d)"
                                   id="path85" />
                                </g>
                              </g>
                            </g>
                          </g>
                        </g>
                      </g>
                    </g>
                  </g>
                </g>
              </g>
            </g>
          </g>
        </g>
      </g>
    </g>
  </g>
  <circle
     cx="42.695923"
     cy="31.912609"
     fill="url(#a)"
     id="ellipse17"
     r="0"
     style="fill:url(#a-3);stroke-width:1.91748" />
  <g
     transform="matrix(3.7796,0,0,3.7796,4.820223,0.45588)"
     fill="#5e4aa6"
     stroke-width="0.26458"
     id="g924">
    <circle
       cx="-330.35001"
       cy="-328.37"
       r="0"
       image-rendering="optimizeSpeed"
       id="circle902" />
    <circle
       cx="-330.35001"
       cy="-328.38"
       r="0"
       image-rendering="optimizeSpeed"
       id="circle904" />
    <circle
       cx="-330.35001"
       cy="-328.38"
       r="0"
       image-rendering="optimizeSpeed"
       id="circle906" />
    <circle
       cx="-352.63"
       cy="-336.84"
       r="0"
       image-rendering="optimizeSpeed"
       id="circle908" />
    <circle
       cx="-330.35001"
       cy="-328.37"
       r="0"
       image-rendering="optimizeSpeed"
       id="circle910" />
    <circle
       cx="-305.84"
       cy="-328.26999"
       r="0"
       image-rendering="optimizeSpeed"
       id="circle912" />
    <circle
       cx="-305.84"
       cy="-328.28"
       r="0"
       image-rendering="optimizeSpeed"
       id="circle914" />
    <circle
       cx="-305.84"
       cy="-328.28"
       r="0"
       image-rendering="optimizeSpeed"
       id="circle916" />
    <circle
       cx="-328.12"
       cy="-336.73999"
       r="0"
       image-rendering="optimizeSpeed"
       id="circle918" />
    <circle
       cx="-305.84"
       cy="-328.26999"
       r="0"
       image-rendering="optimizeSpeed"
       id="circle920" />
    <circle
       cx="-305.03"
       cy="-328.69"
       r="0"
       id="circle922" />
  </g>
  <circle
     cx="36.825226"
     cy="32"
     r="0"
     fill="url(#b-3)"
     stroke-width="1.5715"
     id="circle926"
     style="fill:url(#b-3)" />
  <circle
     cx="-1317.7147"
     cy="-1241.1"
     r="0"
     fill="#5e4aa6"
     id="circle928" />
  <circle
     cx="-218.19478"
     cy="24.311001"
     r="0"
     fill="#5e4aa6"
     fill-rule="evenodd"
     id="circle930" />
</svg>
