<?xml version="1.0" encoding="UTF-8" standalone="no"?>
<svg
   width="64"
   height="64"
   fill="none"
   version="1.1"
   id="svg15"
   sodipodi:docname="surfshark.svg"
   xml:space="preserve"
   inkscape:version="1.2.2 (b0a8486541, 2022-12-01)"
   xmlns:inkscape="http://www.inkscape.org/namespaces/inkscape"
   xmlns:sodipodi="http://sodipodi.sourceforge.net/DTD/sodipodi-0.dtd"
   xmlns:xlink="http://www.w3.org/1999/xlink"
   xmlns="http://www.w3.org/2000/svg"
   xmlns:svg="http://www.w3.org/2000/svg"><sodipodi:namedview
     id="namedview17"
     pagecolor="#ffffff"
     bordercolor="#999999"
     borderopacity="1"
     inkscape:showpageshadow="0"
     inkscape:pageopacity="0"
     inkscape:pagecheckerboard="0"
     inkscape:deskcolor="#d1d1d1"
     showgrid="false"
     inkscape:zoom="4.4746601"
     inkscape:cx="0.44696132"
     inkscape:cy="9.9448894"
     inkscape:window-width="1920"
     inkscape:window-height="965"
     inkscape:window-x="0"
     inkscape:window-y="40"
     inkscape:window-maximized="1"
     inkscape:current-layer="svg15" /><defs
     id="defs11"><linearGradient
       id="b"
       x1="4"
       x2="60"
       y1="4"
       y2="60"
       gradientUnits="userSpaceOnUse"
       gradientTransform="translate(78.165471)"><stop
         stop-color="#76DEF9"
         offset="0"
         id="stop6" /><stop
         stop-color="#3F889B"
         offset="1"
         id="stop8" /></linearGradient><filter
       inkscape:collect="always"
       style="color-interpolation-filters:sRGB"
       id="filter1057"
       x="-0.026999999"
       width="1.054"
       y="-0.026999999"
       height="1.054"><feGaussianBlur
         inkscape:collect="always"
         stdDeviation="0.61875"
         id="feGaussianBlur1059" /></filter><linearGradient
       inkscape:collect="always"
       xlink:href="#linearGradient1051"
       id="linearGradient1053"
       x1="-127"
       y1="60"
       x2="-72"
       y2="5"
       gradientUnits="userSpaceOnUse"
       gradientTransform="translate(131.5,-0.50999704)" /><linearGradient
       inkscape:collect="always"
       id="linearGradient1051"><stop
         style="stop-color:#f0efeb;stop-opacity:1"
         offset="0"
         id="stop1047" /><stop
         style="stop-color:#fdfcfc;stop-opacity:1"
         offset="1"
         id="stop1049" /></linearGradient><linearGradient
       id="linearGradient1077"
       x1="6.9345002"
       x2="6.9345002"
       y1="3.8466001"
       y2="11.051"
       gradientUnits="userSpaceOnUse"><stop
         stop-color="#4c8fd8"
         offset="0"
         id="stop7" /><stop
         stop-color="#4c4cd8"
         offset="1"
         id="stop9" /></linearGradient><linearGradient
       id="linearGradient1085"
       x1="8.7112999"
       x2="8.7112999"
       y1="7.1499"
       y2="14.278"
       gradientUnits="userSpaceOnUse"><stop
         stop-color="#29eecb"
         offset="0"
         id="stop12" /><stop
         stop-color="#07b2ff"
         offset="1"
         id="stop14" /></linearGradient></defs><rect
     ry="15"
     y="4.4999995"
     x="4.4999995"
     height="55"
     width="55"
     id="rect1055"
     style="opacity:0.3;fill:#141414;fill-opacity:1;stroke-width:2.74436;stroke-linecap:round;filter:url(#filter1057)" /><rect
     style="fill:url(#linearGradient1053);fill-opacity:1;stroke-width:2.74436;stroke-linecap:round"
     id="rect1045"
     width="54.999996"
     height="54.999996"
     x="4.5000019"
     y="4.5000019"
     ry="14.999999" /><path
     d="m 36.283004,14.383604 c -2.5013,0.02116 -4.7266,0.16406 -4.7266,0.16406 0,0 -6.516,0.33871 -8.8047,5.5859 -1.866499,4.2792 -4.852699,20.796 -5.019499,24.264 -0.16471,3.4228 1.1895,7.2364 8.675799,3.9863 5.3334,-2.3155 11.02,-4.4151 13.182,-5.8828 2.1619,-1.4677 6.4845,-4.9459 6.6484,-9.875 0.16393,-4.9291 -0.18752,-11.346 -0.41992,-13.484 -0.24021,-2.2107 -1.4274,-4.2291 -5.1562,-4.6094 -1.2784,-0.13038 -2.8781,-0.16114 -4.3789,-0.14844 z m 1.8418,6.8145 a 0.50005,0.50005 0 0 1 0.006,0 c 0.16569,-0.0022 0.33102,0.01614 0.49219,0.05469 a 0.50005,0.50005 0 0 1 0.38281,0.48633 v 2.9219 a 0.50005,0.50005 0 0 1 -0.38867,0.48828 c -0.13082,0.02982 -0.2643,0.04573 -0.39844,0.04883 -2.362,0.05412 -4.2046,1.933 -4.2109,4.2949 l 0.0195,2.3965 a 0.50005,0.50005 0 0 0 0,0.002 0.50005,0.50005 0 0 0 0,0.002 v 0.016 a 0.50005,0.50005 0 0 0 0,0.002 c -0.01,4.4684 -3.6018,8.1569 -8.0684,8.2871 a 0.50005,0.50005 0 0 1 -0.0195,0 c -0.15904,-0.002 -0.31858,-0.023 -0.47266,-0.0625 a 0.50005,0.50005 0 0 1 -0.375,-0.48438 v -2.9023 a 0.50005,0.50005 0 0 1 0.36328,-0.48047 c 0.11662,-0.03334 0.23474,-0.05666 0.35547,-0.06836 a 0.50005,0.50005 0 0 1 0.0352,-0.002 c 2.3495,-0.06849 4.1734,-1.9414 4.1816,-4.291 l -0.0195,-2.3965 a 0.50005,0.50005 0 0 0 0,-0.002 c -3e-5,-0.0063 -2e-5,-0.01128 0,-0.01758 0.008,-4.4892 3.629,-8.1901 8.1172,-8.293 z"
     id="path626"
     style="fill:#178a9e;fill-opacity:1" /></svg>
