<?xml version="1.0" encoding="UTF-8" standalone="no"?>
<svg
   width="64"
   height="64"
   version="1.1"
   id="svg43"
   sodipodi:docname="textpieces.svg"
   inkscape:version="1.2.2 (b0a8486541, 2022-12-01)"
   xmlns:inkscape="http://www.inkscape.org/namespaces/inkscape"
   xmlns:sodipodi="http://sodipodi.sourceforge.net/DTD/sodipodi-0.dtd"
   xmlns="http://www.w3.org/2000/svg"
   xmlns:svg="http://www.w3.org/2000/svg">
  <sodipodi:namedview
     id="namedview45"
     pagecolor="#ffffff"
     bordercolor="#999999"
     borderopacity="1"
     inkscape:showpageshadow="0"
     inkscape:pageopacity="0"
     inkscape:pagecheckerboard="0"
     inkscape:deskcolor="#d1d1d1"
     showgrid="false"
     inkscape:zoom="6.328125"
     inkscape:cx="61.945679"
     inkscape:cy="32"
     inkscape:window-width="1920"
     inkscape:window-height="989"
     inkscape:window-x="0"
     inkscape:window-y="0"
     inkscape:window-maximized="1"
     inkscape:current-layer="svg43" />
  <defs
     id="defs23">
    <linearGradient
       id="e"
       x1="21.517"
       x2="49.153"
       y1="38.216"
       y2="38.216"
       gradientUnits="userSpaceOnUse"
       gradientTransform="translate(79.012346)">
      <stop
         stop-color="#f13f47"
         offset="0"
         id="stop2" />
      <stop
         stop-color="#ff7552"
         offset="1"
         id="stop4" />
    </linearGradient>
    <linearGradient
       id="f"
       x1="35.535"
       x2="25.85"
       y1="20.803"
       y2="14.749"
       gradientUnits="userSpaceOnUse"
       gradientTransform="translate(79.012346)">
      <stop
         stop-color="#878787"
         offset="0"
         id="stop7" />
      <stop
         stop-color="#878787"
         stop-opacity="0"
         offset="1"
         id="stop9" />
    </linearGradient>
    <filter
       id="c"
       x="-0.12272727"
       y="-0.096428567"
       width="1.2454545"
       height="1.1928571"
       color-interpolation-filters="sRGB">
      <feGaussianBlur
         stdDeviation="1.125"
         id="feGaussianBlur12" />
    </filter>
    <filter
       id="d"
       x="-0.054905264"
       y="-0.11784908"
       width="1.1098105"
       height="1.2356982"
       color-interpolation-filters="sRGB">
      <feGaussianBlur
         stdDeviation=".326"
         id="feGaussianBlur15" />
    </filter>
    <linearGradient
       id="linearGradient11829"
       x1="30.929"
       x2="30.929"
       y1="57.415"
       y2="1.999"
       gradientTransform="matrix(1.3043,0,0,1.3043,-40.007654,0.696)"
       gradientUnits="userSpaceOnUse">
      <stop
         stop-color="#c7c7c7"
         offset="0"
         id="stop18" />
      <stop
         stop-color="#f6f6f6"
         offset="1"
         id="stop20" />
    </linearGradient>
    <filter
       id="filter1057"
       x="-0.026999999"
       y="-0.026999999"
       width="1.054"
       height="1.054"
       color-interpolation-filters="sRGB">
      <feGaussianBlur
         stdDeviation="0.61875"
         id="feGaussianBlur280" />
    </filter>
    <linearGradient
       id="linearGradient1053-2"
       x1="-127"
       x2="-72"
       y1="60"
       y2="5"
       gradientTransform="translate(131.503,-0.510001)"
       gradientUnits="userSpaceOnUse">
      <stop
         stop-color="#323741"
         offset="0"
         id="stop283" />
      <stop
         stop-color="#465064"
         offset="1"
         id="stop285" />
    </linearGradient>
  </defs>
  <rect
     x="4.4999995"
     y="4.499999"
     width="55"
     height="55"
     ry="15"
     fill="#141414"
     filter="url(#filter1057)"
     opacity="0.3"
     stroke-linecap="round"
     stroke-width="2.7444"
     id="rect290" />
  <rect
     x="4.4999995"
     y="4.499999"
     width="55"
     height="55"
     ry="15"
     fill="url(#linearGradient1053-2)"
     stroke-linecap="round"
     stroke-width="2.7444"
     id="rect292"
     style="fill:url(#linearGradient1053-2)" />
  <g
     id="g565"
     transform="translate(-80.16534,0.32999921)">
    <path
       d="m 96.165346,27.307 v 1.454 a 5.805,5.805 0 0 0 5.818004,5.819 h 1.455 v -4.364 h 4.363 c 0.806,0 1.455,0.649 1.455,1.454 0,0.805 -0.649,1.455 -1.455,1.455 h -1.454 v 1.454 h 11.635 l 5.818,-7.272 z"
       fill="#f2f2f2"
       id="path31" />
    <path
       d="m 108.88935,27.307 c 0.573,0.487 1.176,0.971 1.821,1.454 l 7.779,5.185 4.65,-6.639 z"
       filter="url(#d)"
       opacity="0.1"
       id="path33" />
    <path
       d="m 100.52935,11.307 23.272,16 -5.818,5.818 -8.727,-5.818 c -5.818,-4.364 -8.727,-8.727 -8.727,-16 z"
       fill="#ffffff"
       id="path35" />
    <path
       d="m 123.07435,24.398 c -1.348,0.001 -2.685,0.499 -3.636,1.454 l -17.454,17.454 c -0.956,0.952 -1.453,2.289 -1.455,3.637 a 5.087,5.087 0 0 0 5.091,5.09 c 1.348,0 2.685,-0.498 3.636,-1.454 l 17.454,-17.454 c 0.956,-0.951 1.453,-2.288 1.455,-3.636 a 5.087,5.087 0 0 0 -5.091,-5.091 z"
       fill="url(#e)"
       id="path37"
       style="fill:url(#e)" />
    <path
       d="m 106.34735,41.852 -0.727,0.727 1.09,1.091 -0.727,0.727 -1.09,-1.09 -0.728,0.727 1.091,1.09 -1.09,1.092 0.726,0.727 1.091,-1.091 0.728,0.727 -1.091,1.091 0.727,0.727 1.09,-1.09 1.092,1.09 0.727,-0.727 -1.09,-1.09 0.726,-0.728 1.091,1.09 0.728,-0.726 -1.091,-1.091 1.09,-1.091 -0.727,-0.727 -1.09,1.09 -0.728,-0.727 1.091,-1.09 -0.727,-0.728 -1.091,1.09 z m 1.09,2.545 0.728,0.728 -0.727,0.727 -0.727,-0.727 z"
       fill="#f9f9f9"
       id="path39" />
    <path
       d="m 104.89235,15.761 v 1.454 l 8.727,6 v -1.454 z"
       fill="url(#f)"
       id="path41"
       style="fill:url(#f)" />
  </g>
</svg>
