<?xml version="1.0" encoding="UTF-8" standalone="no"?>
<svg
   width="64"
   height="64"
   version="1.1"
   viewBox="0 0 64 64"
   id="svg3"
   sodipodi:docname="tigervnc.svg"
   xml:space="preserve"
   inkscape:version="1.3 (0e150ed6c4, 2023-07-21)"
   xmlns:inkscape="http://www.inkscape.org/namespaces/inkscape"
   xmlns:sodipodi="http://sodipodi.sourceforge.net/DTD/sodipodi-0.dtd"
   xmlns="http://www.w3.org/2000/svg"
   xmlns:svg="http://www.w3.org/2000/svg"><defs
     id="defs3"><filter
       id="filter1057"
       x="-0.026999999"
       y="-0.026999999"
       width="1.054"
       height="1.054"
       color-interpolation-filters="sRGB"><feGaussianBlur
         stdDeviation="0.61875"
         id="feGaussianBlur1" /></filter><linearGradient
       id="linearGradient1053"
       x1="-127"
       x2="-72"
       y1="60"
       y2="5"
       gradientTransform="translate(131.5,-0.51000023)"
       gradientUnits="userSpaceOnUse"><stop
         stop-color="#ff8228"
         offset="0"
         id="stop1" /><stop
         stop-color="#ff5a1e"
         stop-opacity=".99608"
         offset=".50054"
         id="stop2" /><stop
         stop-color="#ff8c55"
         stop-opacity=".99608"
         offset="1"
         id="stop3" /></linearGradient><linearGradient
       id="linearGradient1987"
       x1="27.674999"
       x2="27.674999"
       y1="21.995001"
       y2="41.606998"
       gradientTransform="translate(-133.44)"
       gradientUnits="userSpaceOnUse"><stop
         stop-color="#fff"
         offset="0"
         id="stop4" /><stop
         stop-color="#fbfbfb"
         offset=".87608"
         id="stop5" /><stop
         stop-color="#e2e2e2"
         offset="1"
         id="stop6" /></linearGradient></defs><sodipodi:namedview
     id="namedview3"
     pagecolor="#ffffff"
     bordercolor="#999999"
     borderopacity="1"
     inkscape:showpageshadow="0"
     inkscape:pageopacity="0"
     inkscape:pagecheckerboard="0"
     inkscape:deskcolor="#d1d1d1"
     inkscape:zoom="3.0546875"
     inkscape:cx="-66.618926"
     inkscape:cy="18.987212"
     inkscape:window-width="1920"
     inkscape:window-height="989"
     inkscape:window-x="0"
     inkscape:window-y="0"
     inkscape:window-maximized="1"
     inkscape:current-layer="svg3" /><rect
     x="4.4999995"
     y="4.4999995"
     width="55"
     height="55"
     ry="15"
     fill="#141414"
     filter="url(#filter1057)"
     opacity="0.3"
     stroke-linecap="round"
     stroke-width="2.7444"
     id="rect6" /><rect
     x="4.5"
     y="4.5"
     width="55"
     height="55"
     ry="15"
     fill="url(#linearGradient1053)"
     stroke-linecap="round"
     stroke-width="2.7444"
     id="rect7"
     style="fill:url(#linearGradient1053)" /><path
     d="m 46.948965,14.391774 c -0.647592,0.0089 -1.295771,0.05424 -1.93688,0.147807 -3.896122,0.568662 -7.570523,2.701895 -9.803785,2.68484 -2.878888,1.448706 -5.769298,2.861719 -11.623761,1.356764 -5.511205,-1.416854 -9.315612,0.802831 -11.30411,2.830432 -0.216707,1.260305 -0.412541,2.766164 -0.412541,4.848976 0,0.745136 0.01321,1.437411 0.04633,2.080326 0.729888,0.949374 1.67393,1.20654 2.828174,0.769918 2.527725,-0.956162 4.740204,-1.610678 4.687907,-1.722951 -0.885127,-1.898815 0,-4.988356 0,-5.667416 0,-0.73514 1.241894,-0.982694 0.878012,0 -0.363815,0.982671 -0.359105,2.849521 1.24867,4.465056 1.607775,1.615534 3.82903,-1.963536 7.606555,-3.70614 3.659604,-1.688162 14.771698,-1.741136 17.095094,-1.74283 h 0.198545 c 1.795013,0 4.377858,-2.138383 5.261471,0 0.883614,2.138383 -4.619685,4.841746 -8.577253,8.374281 -3.957568,3.532534 -5.441289,7.257763 -9.514744,8.080835 -4.073908,0.823185 -8.920285,-0.821514 -12.072175,-2.662701 -1.962745,-1.146789 -4.749579,-1.495694 -8.360953,-1.043473 0.86204,1.276795 2.237893,2.000696 4.383505,2.358299 4.698751,0.783087 8.253763,5.868129 9.936164,5.868129 1.682401,0 6.933707,1.180336 8.499995,1.963423 0.974324,0.487168 0.725245,0.660581 0.405922,0.730204 0.965695,0.02413 2.342373,-0.187735 4.546719,-0.851547 7.188637,-2.164701 9.699645,-12.435876 11.665553,-15.083442 1.260078,-1.69652 3.565629,-3.079263 6.893948,-4.156248 v -4.769571 c 0,-1.230598 -0.160627,-2.419405 -0.436803,-3.562805 -0.539566,-0.25702 -1.099101,-0.477138 -1.665571,-0.677264 -0.08082,0.08435 -0.180123,0.159249 -0.315472,0.220604 -1.163505,0.527412 -5.62585,-1.196261 -10.158902,-1.133913 z"
     fill="#ffffff"
     id="path1"
     style="stroke-width:1.12951" /><path
     id="path2"
     style="stroke-width:1.12951"
     d="M 47.480469 10.585938 C 47.02164 10.600987 46.535705 10.637529 46.017578 10.697266 C 41.872402 11.175194 31.98098 14.136635 33.556641 16.447266 C 35.13185 18.757896 39.882405 15.2877 45.011719 14.539062 C 50.140581 13.790494 55.777767 16.128151 57.107422 15.525391 C 58.437077 14.922573 57.047366 13.101756 54.65625 12.189453 C 52.563952 11.39113 50.694287 10.480668 47.482422 10.585938 L 47.480469 10.585938 z " /><path
     id="path10"
     style="stroke-width:1.12951"
     d="M 7.46875 10.546875 C 9.9873417 15.157146 10.915218 18.725884 10.169922 21.199219 C 8.8845434 25.465363 5.9243041 31.927978 11.40625 35.84375 C 16.888083 39.75941 18.905755 39.760002 21.058594 42.109375 C 23.211433 44.458748 26.704186 45.242072 28.740234 44.458984 C 30.776282 43.675864 36.013672 44.458984 36.013672 44.458984 L 36.027344 44.458984 C 36.181646 44.456584 37.490413 44.414156 36.013672 43.675781 C 34.447386 42.892661 29.196072 41.710937 27.513672 41.710938 C 25.831273 41.710938 22.276871 36.626836 17.578125 35.84375 C 15.432515 35.486148 14.057352 34.763122 13.195312 33.486328 C 16.806683 33.034086 19.591944 33.38252 21.554688 34.529297 C 24.70601 36.370505 29.551097 38.01459 33.625 37.191406 C 37.698452 36.368301 39.183174 32.643859 43.140625 29.111328 C 47.098076 25.578798 52.60041 22.87471 51.716797 20.736328 C 50.833139 18.597947 48.250089 20.736328 46.455078 20.736328 L 46.257812 20.736328 C 43.934757 20.738028 32.82171 20.790297 29.162109 22.478516 C 25.384589 24.221118 23.16438 27.801079 21.556641 26.185547 C 19.948901 24.570013 19.942827 22.703373 20.306641 21.720703 C 20.670477 20.73801 19.429688 20.985564 19.429688 21.720703 C 19.429688 22.399773 18.544561 25.489859 19.429688 27.388672 C 19.482037 27.500968 17.26991 28.155167 14.742188 29.111328 C 13.587946 29.54795 12.645903 29.291169 11.916016 28.341797 C 11.882896 27.698859 11.869141 27.004901 11.869141 26.259766 C 11.869141 19.994733 13.618431 18.713109 12.488281 14.824219 C 11.857835 12.654867 10.929805 10.406647 9.7539062 8.0917969 C 9.4555319 8.3467014 9.1601301 8.6054949 8.8828125 8.8828125 C 8.5439066 9.2217184 8.2212228 9.5771366 7.9160156 9.9472656 C 7.7574932 10.139508 7.6176742 10.346717 7.46875 10.546875 z " /><path
     id="path8"
     style="stroke-width:1.12951"
     d="M 59.5 40.589844 C 54.673812 47.032559 46.572358 53.486062 35.875 54.960938 C 25.155421 56.439009 14.68832 46.936214 12.085938 48.634766 C 9.6463096 50.227157 20.892025 59.54727 33.367188 59.5 C 34.198865 59.496849 35.03608 59.452811 35.875 59.361328 C 48.748849 57.957683 56.267068 52.735041 59.166016 47.65625 C 59.175004 47.613975 59.188632 47.573658 59.197266 47.53125 C 59.296846 47.042139 59.370847 46.54259 59.421875 46.037109 C 59.447389 45.784369 59.467557 45.529806 59.480469 45.273438 C 59.49338 45.017069 59.5 44.759687 59.5 44.5 L 59.5 40.589844 z " /><path
     id="path7"
     style="stroke-width:1.12951"
     d="M 59.5 40.589844 L 59.5 44.5 C 59.5 44.759687 59.49338 45.017069 59.480469 45.273438 C 59.467557 45.529806 59.447389 45.784369 59.421875 46.037109 C 59.370847 46.54259 59.296846 47.042139 59.197266 47.53125 C 59.188632 47.573658 59.175004 47.613975 59.166016 47.65625 C 59.266541 47.480136 59.375431 47.302557 59.464844 47.126953 C 59.498674 46.713396 59.527344 46.299501 59.527344 45.876953 L 59.527344 40.556641 L 59.525391 40.556641 C 59.517168 40.567643 59.508242 40.578841 59.5 40.589844 z " /><path
     id="path6"
     style="stroke-width:1.12951"
     d="M 30.402344 4.5 C 30.232929 6.3499054 29.40425 8.5645132 27.919922 11.144531 C 25.693439 15.014558 24.466005 16.750676 26.193359 17.472656 C 27.920714 18.194592 30.846134 12.495133 32.015625 9.3339844 C 32.795323 7.2265516 33.327743 5.6144838 33.613281 4.5 L 30.402344 4.5 z " /><path
     id="path5"
     style="stroke-width:1.12951"
     d="M 19.5 4.5 C 19.240313 4.5 18.982931 4.5066196 18.726562 4.5195312 C 18.721298 4.5197964 18.716201 4.5212138 18.710938 4.5214844 C 19.073559 9.309317 19.93125 11.917737 21.287109 12.339844 C 21.677444 11.019451 21.3493 8.4033477 20.306641 4.5 L 19.5 4.5 z " /><path
     id="path4"
     style="stroke-width:1.12951"
     d="M 18.708984 4.5 C 18.709556 4.5075883 18.710364 4.513907 18.710938 4.5214844 C 18.716201 4.5212138 18.721298 4.5197964 18.726562 4.5195312 C 18.982931 4.5066196 19.240313 4.5 19.5 4.5 L 18.708984 4.5 z " /><path
     d="m 24.37463,28.598718 c -0.535737,0.998914 0.01756,5.323594 1.672687,5.886767 1.655067,0.563161 5.238656,1.205862 6.868309,0.583379 1.629653,-0.62246 5.636694,-4.472284 5.636694,-5.471221 0,-0.998914 -1.403187,-6.216357 -4.863772,-6.216357 -3.460585,0 -8.778193,4.218485 -9.313918,5.217421 z"
     fill="#91ed98"
     id="path3"
     style="stroke-width:1.12951" /><circle
     cx="31.706263"
     cy="29.96994"
     r="1.9577751"
     fill="#000000"
     opacity="0.65"
     id="circle3"
     style="stroke-width:1.12951" /></svg>
