<?xml version="1.0" encoding="UTF-8" standalone="no"?>
<svg
   xmlns:dc="http://purl.org/dc/elements/1.1/"
   xmlns:cc="http://creativecommons.org/ns#"
   xmlns:rdf="http://www.w3.org/1999/02/22-rdf-syntax-ns#"
   xmlns:svg="http://www.w3.org/2000/svg"
   xmlns="http://www.w3.org/2000/svg"
   xmlns:xlink="http://www.w3.org/1999/xlink"
   xmlns:sodipodi="http://sodipodi.sourceforge.net/DTD/sodipodi-0.dtd"
   xmlns:inkscape="http://www.inkscape.org/namespaces/inkscape"
   width="64"
   height="64"
   version="1.1"
   id="svg35"
   sodipodi:docname="tim.svg"
   inkscape:version="1.0 (4035a4fb49, 2020-05-01)">
  <sodipodi:namedview
     inkscape:document-rotation="0"
     pagecolor="#ffffff"
     bordercolor="#666666"
     borderopacity="1"
     objecttolerance="10"
     gridtolerance="10"
     guidetolerance="10"
     inkscape:pageopacity="0"
     inkscape:pageshadow="2"
     inkscape:window-width="1920"
     inkscape:window-height="1000"
     id="namedview37"
     showgrid="false"
     inkscape:zoom="4.2150194"
     inkscape:cx="40.299306"
     inkscape:cy="23.757738"
     inkscape:window-x="0"
     inkscape:window-y="0"
     inkscape:window-maximized="1"
     inkscape:current-layer="svg35" />
  <metadata
     id="metadata2">
    <rdf:RDF>
      <cc:Work
         rdf:about="">
        <dc:format>image/svg+xml</dc:format>
        <dc:type
           rdf:resource="http://purl.org/dc/dcmitype/StillImage" />
        <dc:title></dc:title>
      </cc:Work>
    </rdf:RDF>
  </metadata>
  <defs
     id="defs15">
    <filter
       id="d"
       x="-.058883"
       y="-.061161"
       width="1.1178"
       height="1.1223"
       color-interpolation-filters="sRGB">
      <feGaussianBlur
         stdDeviation="10.562379"
         id="feGaussianBlur4" />
    </filter>
    <filter
       id="filter883"
       x="-.05999"
       y="-.06001"
       width="1.12"
       height="1.12"
       color-interpolation-filters="sRGB">
      <feGaussianBlur
         stdDeviation="0.21163584"
         id="feGaussianBlur7" />
    </filter>
    <linearGradient
       id="a-3"
       x1="32"
       x2="32"
       y1="2"
       y2="62"
       gradientTransform="translate(.25274 .81328)"
       gradientUnits="userSpaceOnUse">
      <stop
         stop-color="#f5faff"
         offset="0"
         id="stop10" />
      <stop
         stop-color="#cfdef0"
         offset="1"
         id="stop12" />
    </linearGradient>
    <style
       id="style862"
       type="text/css" />
    <linearGradient
       gradientUnits="userSpaceOnUse"
       gradientTransform="translate(0.25273937,0.81328905)"
       y2="62"
       y1="2"
       x2="32"
       x1="32"
       id="linearGradient1343">
      <stop
         id="stop878"
         offset="0"
         stop-color="#f5f6fa" />
      <stop
         id="stop880"
         offset=".45933"
         stop-color="#e9ecf3" />
      <stop
         id="stop882"
         offset="1"
         stop-color="#dee2ee" />
    </linearGradient>
    <clipPath
       id="clipPath13429">
      <path
         id="path885"
         d="m481 318h22v22h-22z" />
    </clipPath>
    <clipPath
       id="clipPath13465">
      <path
         id="path888"
         d="m507 318h22v22h-22z" />
    </clipPath>
    <clipPath
       id="clipPath13501">
      <path
         id="path891"
         d="m530 318h22v22h-22z" />
    </clipPath>
    <clipPath
       id="clipPath13753">
      <path
         id="path894"
         d="m672 1064c0-1.105 4.925-2 11-2s11 0.895 11 2-4.925 2-11 2-11-0.895-11-2" />
    </clipPath>
    <clipPath
       id="clipPath13771">
      <path
         id="path897"
         d="m660 1057h51v65.001h-51z" />
    </clipPath>
    <clipPath
       id="clipPath14035">
      <path
         id="path900"
         d="m659 517h53v18h-53z" />
    </clipPath>
    <clipPath
       id="clipPath14127">
      <path
         id="path903"
         d="m659 500h53v18h-53z" />
    </clipPath>
    <clipPath
       id="clipPath14445">
      <path
         id="path906"
         d="m648 112h73v60h-73z" />
    </clipPath>
    <clipPath
       id="clipPath14609">
      <path
         id="path909"
         d="m826 1056h59v60h-59z" />
    </clipPath>
    <clipPath
       id="clipPath15305">
      <path
         id="path912"
         d="m805 276h100v100h-100z" />
    </clipPath>
    <clipPath
       id="clipPath15341">
      <path
         id="path915"
         d="m145 1063.8h74.152v45.21h-74.152z" />
    </clipPath>
    <clipPath
       id="clipPath15715">
      <path
         id="path918"
         d="m151 667h57v57h-57z" />
    </clipPath>
    <clipPath
       id="clipPath15807">
      <path
         id="path921"
         d="m154 697h51v51h-51z" />
    </clipPath>
    <clipPath
       id="clipPath16001">
      <path
         id="path924"
         d="m500.04 864.45h36.012v67.52h-36.012z" />
    </clipPath>
    <clipPath
       id="clipPath16093">
      <path
         id="path927"
         d="m836 870.54h47v55.539h-47z" />
    </clipPath>
    <clipPath
       id="clipPath16477">
      <path
         id="path930"
         d="m318.03 702.35h62.848v37.991h-62.848z" />
    </clipPath>
    <clipPath
       id="clipPath16579">
      <path
         id="path933"
         d="m485.03 133.35h62.847v37.991h-62.847z" />
    </clipPath>
    <clipPath
       id="clipPath16709">
      <path
         id="path936"
         d="m493.37 677.93h45.643v68.067h-45.643z" />
    </clipPath>
    <clipPath
       id="clipPath24218">
      <path
         id="path939"
         d="m144.34 1018.2h71.467v78h-71.467z" />
    </clipPath>
    <clipPath
       id="clipPath24382">
      <path
         id="path942"
         d="m293.21 1068.6 66.323-38.292 36.047 62.435-66.323 38.292z" />
    </clipPath>
    <clipPath
       id="clipPath24650">
      <path
         id="path945"
         d="m488.86 1054.5h10v10.706h-10z" />
    </clipPath>
    <clipPath
       id="clipPath24700">
      <path
         id="path948"
         d="m508 1066.8h10.001v10.705h-10.001z" />
    </clipPath>
    <clipPath
       id="clipPath24750">
      <path
         id="path951"
         d="m525 1045.8h10v10.706h-10z" />
    </clipPath>
    <clipPath
       id="clipPath24864">
      <path
         id="path954"
         d="m836 1043.7h25.5v31.5h-25.5z" />
    </clipPath>
    <clipPath
       id="clipPath24896">
      <path
         id="path957"
         d="m838 1062.2h24v24h-24z" />
    </clipPath>
    <clipPath
       id="clipPath25070">
      <path
         id="path960"
         d="m134 489.24h7v6h-7z" />
    </clipPath>
    <clipPath
       id="clipPath25100">
      <path
         id="path963"
         d="m216 489.24h7v6h-7z" />
    </clipPath>
    <clipPath
       id="clipPath25502">
      <path
         id="path966"
         d="m838 477.24h22v22h-22z" />
    </clipPath>
    <clipPath
       id="clipPath25686">
      <path
         id="path969"
         d="m704 1061.2h25v25h-25z" />
    </clipPath>
    <clipPath
       id="clipPath25788">
      <path
         id="path972"
         d="m663.04 1078.6-1.808-3.514-21.07-47.453c13.336-18.439 48.336-26.938 73.836-3.439 0.842 0 6.476 6.246 6 7l-18.386 25.895c-0.483 0.765-1.453 0.946-2.177 0.431l-15.505-11.011c-0.359-0.255-0.847-0.153-1.07 0.238l-18.272 31.869c-0.218 0.384-0.502 0.578-0.782 0.578-0.282 0-0.561-0.197-0.766-0.594" />
    </clipPath>
    <clipPath
       id="clipPath26420">
      <path
         id="path975"
         d="m127 820.24h100v100h-100z" />
    </clipPath>
    <clipPath
       id="clipPath26860">
      <path
         id="path978"
         d="m809 680.24c0-22.092 17.908-40 40-40s40 17.908 40 40c0 22.091-17.908 40-40 40s-40-17.909-40-40" />
    </clipPath>
    <clipPath
       id="clipPath27506">
      <path
         id="path981"
         d="m658 469.24h44v45h-44z" />
    </clipPath>
    <clipPath
       id="clipPath27772">
      <path
         id="path984"
         d="m651 271.24h58v58h-58z" />
    </clipPath>
    <clipPath
       id="clipPath27864">
      <path
         id="path987"
         d="m662 307.24h38v8h-38z" />
    </clipPath>
    <clipPath
       id="clipPath28028">
      <path
         id="path990"
         d="m858.98 137.24c0.013-0.101 0.021-0.203 0.021-0.307v-6.693h15.75c1.237 0 2.25-1.013 2.25-2.25v-11.25l-27-4.5-27 4.5v-2.25l27-4.5 27 4.5v-27c0-1.237-1.013-2.25-2.25-2.25h-49.5c-1.237 0-2.25 1.013-2.25 2.25v-4.25h54v54zm-35.979 0v-9.25c0 1.237 1.013 2.25 2.25 2.25h15.75v6.693c0 0.104 7e-3 0.207 0.02 0.307zm22.5-7h9v4.5h-9zm1.125-9c-0.62 0-1.125-0.506-1.125-1.125v-2.25c0-0.619 0.505-1.125 1.125-1.125h6.75c0.619 0 1.125 0.506 1.125 1.125v2.25c0 0.619-0.506 1.125-1.125 1.125z" />
    </clipPath>
    <clipPath
       id="clipPath28200">
      <path
         id="path993"
         d="m531.27 136.24c6.325-2.29 10.727-8.277 10.727-15.484 0-11.316-10.2-20.563-25.65-34.575l-4.35-3.941-4.35 3.941c-15.45 14.012-25.65 23.259-25.65 34.575v-39.516h60v55zm-26.983 0c2.995-1.052 5.686-2.883 7.71-5.25 2.024 2.367 4.715 4.198 7.71 5.25zm-22.29 0v-15.484c0 7.207 4.402 13.194 10.727 15.484z" />
    </clipPath>
    <clipPath
       id="clipPath28364">
      <path
         id="path996"
         d="m648 79.241h64v64h-64z" />
    </clipPath>
    <clipPath
       id="clipPath28984">
      <path
         id="path999"
         d="m500 691.74c0-3.037 2.463-5.5 5.5-5.5s5.5 2.463 5.5 5.5-2.463 5.5-5.5 5.5-5.5-2.463-5.5-5.5" />
    </clipPath>
    <clipPath
       id="clipPath29012">
      <path
         id="path1002"
         d="m500 669.74c0-3.037 2.463-5.5 5.5-5.5s5.5 2.463 5.5 5.5c0 3.038-2.463 5.5-5.5 5.5s-5.5-2.462-5.5-5.5" />
    </clipPath>
    <clipPath
       id="clipPath29040">
      <path
         id="path1005"
         d="m494 680.74c0-3.037 2.462-5.5 5.5-5.5s5.5 2.463 5.5 5.5c0 3.038-2.462 5.5-5.5 5.5s-5.5-2.462-5.5-5.5" />
    </clipPath>
    <clipPath
       id="clipPath29068">
      <path
         id="path1008"
         d="m513 691.74c0-3.037 2.463-5.5 5.5-5.5s5.5 2.463 5.5 5.5-2.463 5.5-5.5 5.5-5.5-2.463-5.5-5.5" />
    </clipPath>
    <clipPath
       id="clipPath29096">
      <path
         id="path1011"
         d="m513 669.74c0-3.037 2.463-5.5 5.5-5.5s5.5 2.463 5.5 5.5c0 3.038-2.463 5.5-5.5 5.5s-5.5-2.462-5.5-5.5" />
    </clipPath>
    <clipPath
       id="clipPath29124">
      <path
         id="path1014"
         d="m507 680.74c0-3.037 2.463-5.5 5.5-5.5s5.5 2.463 5.5 5.5c0 3.038-2.463 5.5-5.5 5.5s-5.5-2.462-5.5-5.5" />
    </clipPath>
    <clipPath
       id="clipPath29152">
      <path
         id="path1017"
         d="m520 680.74c0-3.037 2.463-5.5 5.5-5.5s5.5 2.463 5.5 5.5c0 3.038-2.463 5.5-5.5 5.5s-5.5-2.462-5.5-5.5" />
    </clipPath>
    <clipPath
       id="clipPath29252">
      <path
         id="path1020"
         d="m321 322.24c-4.97 0-9-4.029-9-9 0-4.97 4.03-9 9-9h45c4.971 0 9 4.03 9 9 0 4.971-4.029 9-9 9z" />
    </clipPath>
    <clipPath
       id="clipPath29280">
      <path
         id="path1023"
         d="m322 297.24c-4.971 0-9-4.029-9-9 0-4.97 4.029-9 9-9h45c4.971 0 9 4.03 9 9 0 4.971-4.029 9-9 9z" />
    </clipPath>
    <clipPath
       id="clipPath29400">
      <path
         id="path1026"
         d="m155 83.24h44v53h-44z" />
    </clipPath>
    <linearGradient
       gradientUnits="userSpaceOnUse"
       y2="288.54"
       y1="288.54"
       x2="13.213"
       x1="3.7738"
       id="linearGradient920">
      <stop
         id="stop1139"
         offset="0"
         stop-color="#3287ff" />
      <stop
         id="stop1141"
         offset="1"
         stop-color="#32b4ff" />
    </linearGradient>
    <filter
       id="filter2761-3"
       x="-.024"
       y="-.024"
       width="1.048"
       height="1.048"
       color-interpolation-filters="sRGB">
      <feGaussianBlur
         stdDeviation="0.14552168"
         id="feGaussianBlur1146" />
    </filter>
    <linearGradient
       id="linearGradient1024"
       x1="1.3315"
       x2="15.65"
       y1="15.576"
       y2="1.17"
       gradientTransform="translate(-8.4984e-4,0.14045)"
       gradientUnits="userSpaceOnUse">
      <stop
         stop-color="#dddfe1"
         offset="0"
         id="stop1149" />
      <stop
         stop-color="#f3f4f6"
         stop-opacity=".99608"
         offset="1"
         id="stop1151" />
    </linearGradient>
    <linearGradient
       gradientUnits="userSpaceOnUse"
       gradientTransform="matrix(1.3276,0,0,1.3276,-403.6181,-663.52)"
       y2="498.89"
       y1="547.6"
       x2="407.94"
       x1="408.25"
       id="b">
      <stop
         id="stop4"
         offset="0"
         stop-color="#fff" />
      <stop
         id="stop6"
         offset="1"
         stop-color="#f5f5f5" />
    </linearGradient>
    <filter
       color-interpolation-filters="sRGB"
       height="1.1223"
       width="1.1178"
       y="-.061161"
       x="-.058883"
       id="d-6">
      <feGaussianBlur
         id="feGaussianBlur9"
         stdDeviation="10.562379" />
    </filter>
    <filter
       color-interpolation-filters="sRGB"
       height="1.072"
       width="1.072"
       y="-.036"
       x="-.036"
       id="c">
      <feGaussianBlur
         id="feGaussianBlur12"
         stdDeviation="0.88972449" />
    </filter>
    <filter
       id="filter17"
       color-interpolation-filters="sRGB"
       height="1.12"
       width="1.12"
       y="-.06001"
       x="-.05999">
      <feGaussianBlur
         id="feGaussianBlur15"
         stdDeviation="0.21163584" />
    </filter>
    <linearGradient
       gradientUnits="userSpaceOnUse"
       gradientTransform="translate(-15,3)"
       y2="21.203"
       y1="21.203"
       x2="58.826"
       x1="31.174"
       id="linearGradient862">
      <stop
         id="stop19"
         offset="0"
         stop-color="#ff0ae7" />
      <stop
         id="stop21"
         offset="1"
         stop-color="#ffb814" />
    </linearGradient>
    <linearGradient
       gradientUnits="userSpaceOnUse"
       gradientTransform="rotate(2.3768,118.86,41.374)"
       y2="44.845"
       y1="44.845"
       x2="44.062"
       x1="15.938"
       id="linearGradient880">
      <stop
         id="stop24"
         offset="0"
         stop-color="#8638fd" />
      <stop
         id="stop26"
         offset="1"
         stop-color="#4ec2fa" />
    </linearGradient>
    <filter
       color-interpolation-filters="sRGB"
       height="1.1144"
       width="1.1261"
       y="-.057222"
       x="-.063061"
       id="filter928">
      <feGaussianBlur
         id="feGaussianBlur29"
         stdDeviation="0.7391235" />
    </filter>
    <linearGradient
       id="linearGradient1057">
      <stop
         id="stop4-6"
         offset="0"
         stop-color="#fff" />
      <stop
         id="stop6-7"
         offset="1"
         stop-opacity="0"
         stop-color="#fff" />
    </linearGradient>
    <linearGradient
       gradientUnits="userSpaceOnUse"
       gradientTransform="matrix(1.5625,0,0,1.5625,0.40633,-5.1891)"
       y2="52.847"
       y1="27.545"
       x2="34.999"
       x1="34.999"
       id="linearGradient982">
      <stop
         id="stop9"
         offset="0"
         stop-color="#32b4ff" />
      <stop
         id="stop11"
         offset="1"
         stop-color="#3287ff" />
    </linearGradient>
    <style
       id="style14"
       type="text/css" />
    <style
       id="style16"
       type="text/css" />
    <linearGradient
       gradientUnits="userSpaceOnUse"
       gradientTransform="matrix(1.5625,0,0,1.5625,-9.2253,1.3231)"
       y2="43.681"
       y1="18.052"
       x2="21.314"
       x1="21.314"
       id="linearGradient1047">
      <stop
         id="stop18"
         offset="0"
         stop-color="#14dc78" />
      <stop
         id="stop20"
         offset="1"
         stop-color="#14a03c" />
    </linearGradient>
    <linearGradient
       gradientUnits="userSpaceOnUse"
       gradientTransform="matrix(1.5625,0,0,1.5625,-8.1072,-10.908)"
       y2="37.368"
       y1="12.316"
       x2="41.729"
       x1="41.729"
       id="linearGradient1049">
      <stop
         id="stop23"
         offset="0"
         stop-color="#ff3c64" />
      <stop
         id="stop25"
         offset="1"
         stop-color="#ff4628" />
    </linearGradient>
    <linearGradient
       xlink:href="#linearGradient1057"
       gradientUnits="userSpaceOnUse"
       gradientTransform="matrix(1,0,0,1.2271,0.20646,-10.975)"
       y2="39.768"
       y1="32.234"
       x2="34.427"
       x1="34.427"
       id="linearGradient1059" />
    <linearGradient
       xlink:href="#linearGradient1057"
       gradientUnits="userSpaceOnUse"
       gradientTransform="matrix(1,0,0,1.2271,-12.55,-19.793)"
       y2="39.768"
       y1="32.234"
       x2="34.427"
       x1="34.427"
       id="linearGradient1063" />
    <linearGradient
       xlink:href="#linearGradient1057"
       gradientUnits="userSpaceOnUse"
       gradientTransform="matrix(1,0,0,1.2271,5.7554,-25.761)"
       y2="39.768"
       y1="32.234"
       x2="34.427"
       x1="34.427"
       id="linearGradient1067" />
    <filter
       color-interpolation-filters="sRGB"
       height="1.048"
       width="1.048"
       y="-.024"
       x="-.024"
       id="filter2761">
      <feGaussianBlur
         id="feGaussianBlur31"
         stdDeviation="0.14552168" />
    </filter>
    <linearGradient
       gradientUnits="userSpaceOnUse"
       gradientTransform="matrix(3.7796,0,0,3.7796,72.4059,0.53085)"
       y2="1.17"
       y1="15.576"
       x2="15.65"
       x1="1.3315"
       id="linearGradient1024-7">
      <stop
         id="stop34"
         offset="0"
         stop-color="#dddfe1" />
      <stop
         id="stop36"
         offset="1"
         stop-opacity=".99608"
         stop-color="#f3f4f6" />
    </linearGradient>
    <filter
       color-interpolation-filters="sRGB"
       height="1.048"
       width="1.048"
       y="-.024"
       x="-.024"
       id="filter2761-3-5">
      <feGaussianBlur
         id="feGaussianBlur2"
         stdDeviation="0.14552168" />
    </filter>
    <linearGradient
       gradientUnits="userSpaceOnUse"
       gradientTransform="translate(0 -.07421)"
       y2="1.17"
       y1="15.576"
       x2="15.65"
       x1="1.3315"
       id="linearGradient1024-6">
      <stop
         id="stop5"
         offset="0"
         stop-color="#dddfe1" />
      <stop
         id="stop7"
         offset="1"
         stop-opacity=".99608"
         stop-color="#f3f4f6" />
    </linearGradient>
    <filter
       inkscape:collect="always"
       style="color-interpolation-filters:sRGB"
       id="filter1057"
       x="-0.027000001"
       width="1.054"
       y="-0.027000001"
       height="1.054">
      <feGaussianBlur
         inkscape:collect="always"
         stdDeviation="0.61875"
         id="feGaussianBlur1059" />
    </filter>
    <linearGradient
       inkscape:collect="always"
       xlink:href="#linearGradient1051"
       id="linearGradient1053"
       x1="-127"
       y1="60"
       x2="-72"
       y2="5"
       gradientUnits="userSpaceOnUse"
       gradientTransform="translate(131.5,-0.50999931)" />
    <linearGradient
       inkscape:collect="always"
       id="linearGradient1051">
      <stop
         style="stop-color:#dee0e2;stop-opacity:1"
         offset="0"
         id="stop1047" />
      <stop
         style="stop-color:#f1f3f5;stop-opacity:0.99607843"
         offset="1"
         id="stop1049" />
    </linearGradient>
  </defs>
  <g
     style="image-rendering:optimizeSpeed"
     fill="#5e4aa6"
     stroke-width="0.26458"
     id="g1069"
     transform="translate(-77.798165,-9.2426691)">
    <g
       transform="matrix(3.7796,0,0,3.7796,22.433,-101.83)"
       image-rendering="optimizeSpeed"
       id="g1041">
      <circle
         cx="-330.35001"
         cy="-328.38"
         r="0"
         id="circle1033" />
      <circle
         cx="-312.10999"
         cy="-326.25"
         r="0"
         id="circle1035" />
      <circle
         cx="-306.01999"
         cy="-333.07001"
         r="0"
         id="circle1037" />
      <circle
         cx="-308.84"
         cy="-326.01001"
         r="0"
         id="circle1039" />
    </g>
    <g
       transform="matrix(3.7796,0,0,3.7796,22.433,-101.83)"
       image-rendering="optimizeSpeed"
       id="g1051">
      <circle
         cx="-330.35001"
         cy="-328.38"
         r="0"
         id="circle1043" />
      <circle
         cx="-312.10999"
         cy="-326.25"
         r="0"
         id="circle1045" />
      <circle
         cx="-306.01999"
         cy="-333.07001"
         r="0"
         id="circle1047" />
      <circle
         cx="-308.84"
         cy="-326.01001"
         r="0"
         id="circle1049" />
    </g>
    <g
       transform="matrix(3.7796,0,0,3.7796,-87.61,14.55)"
       id="g1067">
      <g
         transform="translate(-21.833,0.89722)"
         id="g1061">
        <circle
           cx="-330.35001"
           cy="-328.38"
           r="0"
           id="circle1053" />
        <circle
           cx="-312.10999"
           cy="-326.25"
           r="0"
           id="circle1055" />
        <circle
           cx="-306.01999"
           cy="-333.07001"
           r="0"
           id="circle1057" />
        <circle
           cx="-308.84"
           cy="-326.01001"
           r="0"
           id="circle1059" />
      </g>
      <circle
         cx="-284.23001"
         cy="-330.42001"
         r="0"
         id="circle1063" />
      <circle
         cx="6.6785998"
         cy="4.3997998"
         r="0"
         fill-rule="evenodd"
         id="circle1065" />
    </g>
  </g>
  <g
     style="image-rendering:optimizeSpeed"
     transform="matrix(1.3333,0,0,-1.3333,585.75183,923.37733)"
     id="g1077">
    <g
       clip-path="url(#clipPath13429)"
       id="g1075">
      <g
         transform="translate(448,326)"
         id="g1073">
        <path
           d="M 0,0 C 3.866,0 7,3.134 7,7 7,10.866 3.866,14 0,14 -3.866,14 -7,10.866 -7,7 -7,3.134 -3.866,0 0,0"
           fill="#ffffff"
           fill-rule="evenodd"
           id="path1071" />
      </g>
    </g>
  </g>
  <g
     style="image-rendering:optimizeSpeed"
     transform="matrix(1.3333,0,0,-1.3333,585.75183,923.37733)"
     id="g1085">
    <g
       clip-path="url(#clipPath13465)"
       id="g1083">
      <g
         transform="translate(474,326)"
         id="g1081">
        <path
           d="M 0,0 C 3.866,0 7,3.134 7,7 7,10.866 3.866,14 0,14 -3.866,14 -7,10.866 -7,7 -7,3.134 -3.866,0 0,0"
           fill="#ffffff"
           fill-rule="evenodd"
           id="path1079" />
      </g>
    </g>
  </g>
  <g
     style="image-rendering:optimizeSpeed"
     transform="matrix(1.3333,0,0,-1.3333,585.75183,923.37733)"
     id="g1093">
    <g
       clip-path="url(#clipPath13501)"
       id="g1091">
      <g
         transform="translate(497,326)"
         id="g1089">
        <path
           d="M 0,0 C 3.866,0 7,3.134 7,7 7,10.866 3.866,14 0,14 -3.866,14 -7,10.866 -7,7 -7,3.134 -3.866,0 0,0"
           fill="#ffffff"
           fill-rule="evenodd"
           id="path1087" />
      </g>
    </g>
  </g>
  <g
     style="image-rendering:optimizeSpeed"
     transform="matrix(1.3333,0,0,-1.3333,585.75183,923.37733)"
     id="g1099">
    <g
       clip-path="url(#clipPath13753)"
       id="g1097">
      <path
         d="m 593,1073 h 36 v -18 h -36 z m 18,-11 c 6.075,0 11,0.895 11,2 0,1.105 -4.925,2 -11,2 -6.075,0 -11,-0.895 -11,-2 0,-1.105 4.925,-2 11,-2"
         fill="#ffffff"
         fill-rule="evenodd"
         id="path1095" />
    </g>
  </g>
  <g
     style="image-rendering:optimizeSpeed"
     transform="matrix(1.3333,0,0,-1.3333,585.75183,923.37733)"
     id="g1107">
    <g
       clip-path="url(#clipPath13771)"
       id="g1105">
      <g
         transform="translate(583.42,1063)"
         id="g1103">
        <path
           d="M 0,0 C 0,0 21.582,23.182 21.582,35.147 21.582,47.195 11.898,57 0,57 c -11.816,0 -21.418,-9.805 -21.418,-21.853 0,-8.06 9.766,-21.188 16.002,-28.832 z m 0,42.542 c 3.938,0 7.14,-3.323 7.14,-7.395 0,-3.822 -3.202,-7.146 -7.14,-7.146 -3.856,0 -7.222,3.324 -7.222,7.146 0,4.072 3.366,7.395 7.222,7.395"
           fill="#ffffff"
           id="path1101" />
      </g>
    </g>
  </g>
  <g
     style="image-rendering:optimizeSpeed"
     transform="matrix(1.3333,0,0,-1.3333,585.75183,923.37733)"
     id="g1115">
    <g
       clip-path="url(#clipPath14035)"
       id="g1113">
      <g
         transform="translate(562,535)"
         id="g1111">
        <path
           d="m 0,0 h 35 c 2.762,0 5,-2.238 5,-5 0,-2.762 -2.238,-5 -5,-5 H 0 c -2.762,0 -5,2.238 -5,5 0,2.762 2.238,5 5,5"
           fill="#ffffff"
           fill-rule="evenodd"
           id="path1109" />
      </g>
    </g>
  </g>
  <g
     style="image-rendering:optimizeSpeed"
     transform="matrix(1.3333,0,0,-1.3333,585.75183,923.37733)"
     id="g1123">
    <g
       clip-path="url(#clipPath14127)"
       id="g1121">
      <g
         transform="translate(562,518)"
         id="g1119">
        <path
           d="m 0,0 h 35 c 2.762,0 5,-2.238 5,-5 0,-2.762 -2.238,-5 -5,-5 H 0 c -2.762,0 -5,2.238 -5,5 0,2.762 2.238,5 5,5"
           fill="#ffffff"
           fill-rule="evenodd"
           id="path1117" />
      </g>
    </g>
  </g>
  <g
     style="image-rendering:optimizeSpeed"
     transform="matrix(1.3333,0,0,-1.3333,585.75183,923.37733)"
     id="g1131">
    <g
       clip-path="url(#clipPath14445)"
       id="g1129">
      <g
         transform="translate(536.43,133.83)"
         id="g1127">
        <path
           d="M 0,0 C -10.01,-12.916 -22.288,-9.047 -24.23,-8.072 -29.077,-6.779 -30.694,1.943 -24.556,4.846 -14.538,8.072 -5.496,4.521 0.968,1.293 0.324,0.326 0,0 0,0 m 10.667,3.553 c 4.521,8.072 6.139,15.826 6.139,15.826 H 1.617 v 5.812 h 17.767 v 2.26 H 1.617 v 8.723 h -8.074 v -8.723 h -16.156 v -2.584 h 16.156 v -5.812 h -13.57 V 16.47 H 7.756 c 0,-0.325 0,-0.325 -0.324,-0.968 0,-2.909 -1.936,-6.779 -3.554,-10.014 -20.677,8.079 -26.491,3.235 -28.108,2.584 -13.564,-9.689 -0.968,-21.963 1.293,-21.638 14.538,-3.227 23.905,2.91 30.369,10.657 0.324,-0.325 0.967,-0.325 1.292,-0.325 4.528,-2.578 25.848,-12.592 25.848,-12.592 V -3.552 C 30.694,-3.227 19.066,0.643 10.667,3.553"
           fill="#ffffff"
           id="path1125" />
      </g>
    </g>
  </g>
  <g
     style="image-rendering:optimizeSpeed"
     transform="matrix(1.3333,0,0,-1.3333,585.75183,923.37733)"
     id="g1139">
    <g
       clip-path="url(#clipPath14609)"
       id="g1137">
      <g
         transform="translate(720.03,1091.5)"
         id="g1135">
        <path
           d="m 0,0 c -0.149,0.354 -0.224,0.837 -0.224,1.451 0,0.372 0.103,0.828 0.306,1.368 0.205,0.539 0.428,0.958 0.671,1.256 -0.019,0.409 0.051,0.902 0.209,1.478 0.159,0.576 0.368,0.976 0.629,1.2 0,2.586 0.86,5.269 2.581,8.05 1.722,2.782 3.744,4.73 6.07,5.846 2.585,1.228 5.6,1.842 9.041,1.842 2.475,0 4.949,-0.511 7.423,-1.534 0.912,-0.391 1.749,-0.837 2.512,-1.34 0.762,-0.502 1.423,-1.022 1.981,-1.562 0.559,-0.54 1.07,-1.172 1.534,-1.897 0.465,-0.725 0.856,-1.413 1.172,-2.064 0.318,-0.651 0.619,-1.437 0.908,-2.358 0.287,-0.921 0.524,-1.753 0.71,-2.497 0.186,-0.744 0.391,-1.655 0.614,-2.734 l 0.028,-0.14 C 37.188,4.822 37.7,3.426 37.7,2.179 37.7,1.919 37.616,1.547 37.448,1.064 37.28,0.58 37.196,0.227 37.196,0.003 c 0,-0.019 0.015,-0.052 0.043,-0.099 0.028,-0.047 0.061,-0.093 0.098,-0.139 0.038,-0.046 0.057,-0.077 0.057,-0.098 1.432,-2.121 2.553,-4.116 3.363,-5.985 0.809,-1.869 1.214,-3.808 1.214,-5.817 0,-0.8 -0.182,-1.73 -0.544,-2.791 -0.363,-1.06 -0.879,-1.59 -1.549,-1.59 -0.167,0 -0.349,0.069 -0.544,0.209 -0.194,0.14 -0.371,0.303 -0.529,0.489 -0.159,0.186 -0.335,0.428 -0.53,0.725 -0.195,0.297 -0.344,0.543 -0.447,0.739 -0.103,0.196 -0.228,0.438 -0.377,0.725 -0.147,0.288 -0.231,0.451 -0.251,0.489 -0.019,0.019 -0.047,0.028 -0.085,0.028 l -0.138,-0.111 c -1.099,-2.864 -2.327,-4.938 -3.684,-6.222 0.372,-0.372 0.944,-0.73 1.716,-1.075 0.772,-0.345 1.414,-0.73 1.925,-1.158 0.511,-0.426 0.841,-1.031 0.991,-1.814 -0.037,-0.074 -0.074,-0.223 -0.112,-0.447 -0.036,-0.224 -0.101,-0.391 -0.195,-0.501 -1.19,-1.804 -4,-2.706 -8.427,-2.706 -0.986,0 -2.013,0.084 -3.084,0.251 -1.069,0.168 -1.981,0.354 -2.734,0.558 -0.753,0.204 -1.726,0.483 -2.916,0.837 -0.279,0.093 -0.493,0.158 -0.643,0.196 -0.259,0.075 -0.687,0.115 -1.282,0.125 -0.595,0.009 -0.967,0.023 -1.116,0.042 -0.763,-0.838 -1.949,-1.442 -3.559,-1.814 -1.609,-0.372 -3.176,-0.558 -4.702,-0.558 -0.65,0 -1.293,0.014 -1.925,0.042 -0.632,0.028 -1.498,0.113 -2.595,0.252 -1.098,0.139 -2.038,0.33 -2.82,0.572 -0.781,0.241 -1.473,0.613 -2.078,1.115 -0.604,0.502 -0.906,1.098 -0.906,1.786 0,0.744 0.093,1.298 0.279,1.661 0.187,0.364 0.569,0.815 1.144,1.353 0.205,0.038 0.581,0.159 1.131,0.363 0.549,0.204 1.009,0.316 1.381,0.334 0.074,0 0.204,0.019 0.39,0.057 0.038,0.037 0.057,0.074 0.057,0.111 l -0.057,0.084 c -0.892,0.204 -1.897,1.185 -3.014,2.944 -1.117,1.758 -1.796,3.214 -2.038,4.367 l -0.139,0.084 c -0.074,0 -0.186,-0.185 -0.334,-0.557 -0.335,-0.763 -0.842,-1.455 -1.521,-2.079 -0.679,-0.622 -1.4,-0.971 -2.163,-1.046 h -0.028 c -0.073,0 -0.129,0.041 -0.167,0.125 -0.037,0.083 -0.084,0.134 -0.139,0.153 -0.428,1.004 -0.642,1.934 -0.642,2.79 0,5.116 2.343,9.45 7.032,13.002 z"
           fill="#ffffff"
           id="path1133" />
      </g>
    </g>
  </g>
  <g
     style="image-rendering:optimizeSpeed"
     transform="matrix(1.3333,0,0,-1.3333,585.75183,923.37733)"
     id="g1147">
    <g
       clip-path="url(#clipPath15305)"
       id="g1145">
      <g
         transform="translate(655,300)"
         id="g1143">
        <path
           d="M 0,0 C 16.568,0 30,13.432 30,30 30,46.568 16.568,60 0,60 -16.568,60 -30,46.568 -30,30 -30,13.432 -16.568,0 0,0 Z"
           fill="none"
           stroke="#ffffff"
           stroke-miterlimit="10"
           stroke-width="8"
           id="path1141" />
      </g>
    </g>
  </g>
  <g
     style="image-rendering:optimizeSpeed"
     transform="matrix(1.3333,0,0,-1.3333,585.75183,923.37733)"
     id="g1155">
    <g
       clip-path="url(#clipPath15341)"
       id="g1153">
      <g
         transform="translate(66.849,1083.1)"
         id="g1151">
        <path
           d="m 0,0 c 0,5.302 -3.661,9.749 -8.591,10.948 -0.209,8.314 -7.006,14.991 -15.366,14.991 -4.897,0 -9.254,-2.293 -12.07,-5.861 -1.579,2.041 -4.05,3.358 -6.828,3.358 -4.769,0 -8.633,-3.868 -8.633,-8.639 0,-0.416 0.031,-0.825 0.089,-1.224 -0.726,0.13 -1.47,0.203 -2.232,0.203 -6.913,0 -12.515,-5.607 -12.515,-12.524 0,-6.916 5.602,-12.523 12.515,-12.523 h 42.394 c 6.21,0.013 11.241,5.053 11.241,11.269 z"
           fill="#ffffff"
           id="path1149" />
      </g>
    </g>
  </g>
  <g
     style="image-rendering:optimizeSpeed"
     transform="matrix(1.3333,0,0,-1.3333,585.75183,923.37733)"
     id="g1163">
    <g
       clip-path="url(#clipPath15715)"
       id="g1161">
      <g
         transform="translate(65.5,681)"
         id="g1159">
        <path
           d="M 0,0 C 9.113,0 16.5,7.387 16.5,16.5 16.5,25.613 9.113,33 0,33 -9.113,33 -16.5,25.613 -16.5,16.5 -16.5,7.387 -9.113,0 0,0 Z"
           fill="none"
           stroke="#ffffff"
           stroke-miterlimit="10"
           stroke-width="4"
           id="path1157" />
      </g>
    </g>
  </g>
  <g
     style="image-rendering:optimizeSpeed"
     transform="matrix(1.3333,0,0,-1.3333,585.75183,923.37733)"
     id="g1171">
    <g
       clip-path="url(#clipPath15807)"
       id="g1169">
      <g
         transform="translate(77.5,711)"
         id="g1167">
        <path
           d="M 0,0 C 7.456,0 13.5,6.044 13.5,13.5 13.5,20.956 7.456,27 0,27 -7.456,27 -13.5,20.956 -13.5,13.5 -13.5,6.044 -7.456,0 0,0 Z"
           fill="none"
           stroke="#ffffff"
           stroke-miterlimit="10"
           stroke-width="4"
           id="path1165" />
      </g>
    </g>
  </g>
  <g
     style="image-rendering:optimizeSpeed"
     transform="matrix(1.3333,0,0,-1.3333,585.75183,923.37733)"
     id="g1179">
    <g
       clip-path="url(#clipPath16001)"
       id="g1177">
      <g
         transform="translate(455.91,931.53)"
         id="g1175">
        <path
           d="m 0,0 c -0.742,-1.039 -4.75,-2.821 -8.165,-3.563 -4.305,-0.891 -6.531,-1.633 -8.758,-2.82 -2.969,-1.782 -4.601,-4.009 -4.305,-6.087 0.149,-0.445 3.711,-5.64 7.868,-11.578 4.304,-5.938 7.868,-10.985 8.016,-11.134 0.149,-0.297 -0.445,-0.297 -2.524,-0.148 -6.531,0.445 -12.469,-2.969 -15.142,-8.314 -0.742,-1.632 -0.89,-2.523 -0.89,-4.453 0,-4.453 2.376,-8.016 6.829,-10.094 1.781,-0.742 2.375,-0.891 6.086,-0.891 4.007,0 4.156,0 6.829,1.336 7.125,3.414 10.093,10.095 7.125,16.181 -0.594,1.336 -4.305,7.719 -8.313,14.251 l -7.274,12.024 h 1.187 c 4.75,0.297 8.017,1.781 10.244,4.305 1.929,2.227 2.523,4.453 2.374,8.016 C 1.039,0.297 0.742,1.039 0,0"
           fill="#ffffff"
           id="path1173" />
      </g>
    </g>
  </g>
  <g
     style="image-rendering:optimizeSpeed"
     transform="matrix(1.3333,0,0,-1.3333,585.75183,923.37733)"
     id="g1187">
    <g
       clip-path="url(#clipPath16093)"
       id="g1185">
      <g
         transform="translate(784,902.31)"
         id="g1183">
        <path
           d="m 0,0 c 0,-1.565 -0.904,-2.931 -2.251,-3.674 l -27.781,-18.472 c -0.012,-0.008 -0.026,-0.014 -0.037,-0.02 l -0.017,-0.011 c -0.684,-0.376 -1.48,-0.592 -2.331,-0.592 -2.53,0 -4.583,1.913 -4.583,4.269 v 37 c 0,2.356 2.053,4.27 4.583,4.27 0.851,0 1.647,-0.217 2.331,-0.596 l 0.017,-0.008 c 0.011,-0.009 0.022,-0.014 0.037,-0.02 L -2.251,3.675 C -0.904,2.932 0,1.565 0,0"
           fill="#ffffff"
           id="path1181" />
      </g>
    </g>
  </g>
  <g
     style="image-rendering:optimizeSpeed"
     transform="matrix(1.3333,0,0,-1.3333,585.75183,923.37733)"
     id="g1195">
    <g
       clip-path="url(#clipPath16477)"
       id="g1193">
      <g
         transform="translate(223.75,708.35)"
         id="g1191">
        <path
           d="m 0,0 c -15.123,0 -27.418,12.329 -27.418,27.486 0,1.382 1.111,2.505 2.487,2.505 1.379,0 2.499,-1.123 2.499,-2.505 0,-12.4 10.06,-22.487 22.432,-22.487 12.375,0 22.443,10.087 22.443,22.487 0,1.382 1.112,2.505 2.488,2.505 1.378,0 2.499,-1.123 2.499,-2.505 C 27.43,12.329 15.126,0 0,0"
           fill="#ffffff"
           fill-rule="evenodd"
           id="path1189" />
      </g>
    </g>
  </g>
  <g
     style="image-rendering:optimizeSpeed"
     transform="matrix(1.3333,0,0,-1.3333,585.75183,923.37733)"
     id="g1203">
    <g
       clip-path="url(#clipPath16579)"
       id="g1201">
      <g
         transform="translate(390.75,139.35)"
         id="g1199">
        <path
           d="m 0,0 c -15.123,0 -27.418,12.329 -27.418,27.485 0,1.383 1.111,2.506 2.487,2.506 1.379,0 2.499,-1.123 2.499,-2.506 0,-12.398 10.06,-22.486 22.432,-22.486 12.375,0 22.443,10.088 22.443,22.486 0,1.383 1.112,2.506 2.488,2.506 1.378,0 2.499,-1.123 2.499,-2.506 C 27.43,12.329 15.126,0 0,0"
           fill="#ffffff"
           fill-rule="evenodd"
           id="path1197" />
      </g>
    </g>
  </g>
  <g
     style="image-rendering:optimizeSpeed"
     transform="matrix(1.3333,0,0,-1.3333,585.75183,923.37733)"
     id="g1211">
    <g
       clip-path="url(#clipPath16709)"
       id="g1209">
      <g
         transform="translate(423.93,686.39)"
         id="g1207">
        <path
           d="m 0,0 c 0.245,-0.286 0.605,-0.456 0.986,-0.456 0.382,0 0.743,0.17 0.988,0.456 L 19.49,20.497 c 0.333,0.388 0.408,0.933 0.191,1.388 -0.211,0.463 -0.674,0.756 -1.184,0.756 h -9.93 c -2.118,4.172 -3.109,8.382 -2.973,12.63 0.135,4.248 1.954,12.361 5.455,24.34 C 0.093,53.021 -6.607,41.171 -6.607,28.386 v -5.745 h -9.93 c -0.51,0 -0.966,-0.293 -1.184,-0.756 -0.211,-0.462 -0.135,-1 0.191,-1.388 z"
           fill="#ffffff"
           id="path1205" />
      </g>
    </g>
  </g>
  <g
     style="image-rendering:optimizeSpeed"
     transform="matrix(1.3333,0,0,-1.3333,452.82184,1079.0573)"
     id="g1219">
    <g
       clip-path="url(#clipPath24218)"
       id="g1217">
      <g
         transform="translate(9.1685,1040.9)"
         id="g1215">
        <path
           d="M 0,0 25.314,21.067 -0.763,39.718 c 5.846,7.671 15.079,12.622 25.468,12.622 17.673,0 32,-14.327 32,-32 0,-17.673 -14.327,-32 -32,-32 C 14.757,-11.66 5.869,-7.121 0,0 m 27.349,31.812 c 2.835,0 5.132,2.297 5.132,5.132 0,2.834 -2.297,5.132 -5.132,5.132 -2.834,0 -5.132,-2.298 -5.132,-5.132 0,-2.835 2.298,-5.132 5.132,-5.132"
           fill="#ffffff"
           fill-rule="evenodd"
           id="path1213" />
      </g>
    </g>
  </g>
  <g
     style="image-rendering:optimizeSpeed"
     transform="matrix(1.3333,0,0,-1.3333,452.82184,1079.0573)"
     id="g1227">
    <g
       clip-path="url(#clipPath24382)"
       id="g1225">
      <g
         transform="translate(194.25,1130.3)"
         id="g1223">
        <path
           d="M 0,0 C 20.173,-11.579 43.841,2 51.309,14.862 58.776,27.723 56.341,46 40.841,52.5 25.341,59 -4.646,59.111 -13.659,43.5 -22.672,27.889 -20.174,11.578 0,0"
           fill="#ffffff"
           fill-rule="evenodd"
           id="path1221" />
      </g>
    </g>
  </g>
  <g
     style="image-rendering:optimizeSpeed"
     transform="matrix(1.3333,0,0,-1.3333,452.82184,1079.0573)"
     id="g1235">
    <g
       clip-path="url(#clipPath24650)"
       id="g1233">
      <g
         transform="translate(473.86,1057.5)"
         id="g1231">
        <path
           d="M 0,0 C 1.657,0 3,1.501 3,3.353 3,5.205 1.657,6.706 0,6.706 -1.656,6.706 -3,5.205 -3,3.353 -3,1.501 -1.656,0 0,0"
           fill="#ffffff"
           fill-rule="evenodd"
           id="path1229" />
      </g>
    </g>
  </g>
  <g
     style="image-rendering:optimizeSpeed"
     transform="matrix(1.3333,0,0,-1.3333,452.82184,1079.0573)"
     id="g1243">
    <g
       clip-path="url(#clipPath24700)"
       id="g1241">
      <g
         transform="translate(493,1069.8)"
         id="g1239">
        <path
           d="M 0,0 C 1.657,0 3,1.501 3,3.353 3,5.205 1.657,6.706 0,6.706 -1.657,6.706 -3,5.205 -3,3.353 -3,1.501 -1.657,0 0,0"
           fill="#ffffff"
           fill-rule="evenodd"
           id="path1237" />
      </g>
    </g>
  </g>
  <g
     style="image-rendering:optimizeSpeed"
     transform="matrix(1.3333,0,0,-1.3333,452.82184,1079.0573)"
     id="g1251">
    <g
       clip-path="url(#clipPath24750)"
       id="g1249">
      <g
         transform="translate(510,1048.8)"
         id="g1247">
        <path
           d="M 0,0 C 1.657,0 3,1.501 3,3.353 3,5.205 1.657,6.706 0,6.706 -1.657,6.706 -3,5.205 -3,3.353 -3,1.501 -1.657,0 0,0"
           fill="#ffffff"
           fill-rule="evenodd"
           id="path1245" />
      </g>
    </g>
  </g>
  <g
     style="image-rendering:optimizeSpeed"
     transform="matrix(1.3333,0,0,-1.3333,452.82184,1079.0573)"
     id="g1259">
    <g
       clip-path="url(#clipPath24864)"
       id="g1257">
      <g
         transform="translate(806.5,1072.2)"
         id="g1255">
        <path
           d="M 0,0 C -3.667,-14 -9.5,-21.833 -17.5,-23.5"
           fill="none"
           stroke="#ffffff"
           stroke-linecap="round"
           stroke-miterlimit="10"
           id="path1253" />
      </g>
    </g>
  </g>
  <g
     style="image-rendering:optimizeSpeed"
     transform="matrix(1.3333,0,0,-1.3333,452.82184,1079.0573)"
     id="g1267">
    <g
       clip-path="url(#clipPath24896)"
       id="g1265">
      <g
         transform="translate(802,1066.2)"
         id="g1263">
        <path
           d="m 0,0 c -4.971,0 -9,4.029 -9,9 0,4.971 4.029,9 9,9 C 4.971,18 9,13.971 9,9 9,4.029 4.971,0 0,0 m 0,6 c 1.657,0 3,1.343 3,3 0,1.657 -1.343,3 -3,3 -1.657,0 -3,-1.343 -3,-3 0,-1.657 1.343,-3 3,-3"
           fill="#ffffff"
           fill-rule="evenodd"
           id="path1261" />
      </g>
    </g>
  </g>
  <g
     style="image-rendering:optimizeSpeed"
     transform="matrix(1.3333,0,0,-1.3333,452.82184,1079.0573)"
     id="g1275">
    <g
       clip-path="url(#clipPath25070)"
       id="g1273">
      <g
         transform="translate(122,495.24)"
         id="g1271">
        <path
           d="M 0,0 H 3 C 3.553,0 4,-0.447 4,-1 V -3 C 4,-3.553 3.553,-4 3,-4 H 0 c -0.553,0 -1,0.447 -1,1 v 2 c 0,0.553 0.447,1 1,1"
           fill="#ffffff"
           fill-rule="evenodd"
           id="path1269" />
      </g>
    </g>
  </g>
  <g
     style="image-rendering:optimizeSpeed"
     transform="matrix(1.3333,0,0,-1.3333,452.82184,1079.0573)"
     id="g1283">
    <g
       clip-path="url(#clipPath25100)"
       id="g1281">
      <g
         transform="translate(204,495.24)"
         id="g1279">
        <path
           d="M 0,0 H 3 C 3.553,0 4,-0.447 4,-1 V -3 C 4,-3.553 3.553,-4 3,-4 H 0 c -0.553,0 -1,0.447 -1,1 v 2 c 0,0.553 0.447,1 1,1"
           fill="#ffffff"
           fill-rule="evenodd"
           id="path1277" />
      </g>
    </g>
  </g>
  <g
     style="image-rendering:optimizeSpeed"
     transform="matrix(1.3333,0,0,-1.3333,452.82184,1079.0573)"
     id="g1291">
    <g
       clip-path="url(#clipPath25502)"
       id="g1289">
      <g
         transform="translate(805,482.24)"
         id="g1287">
        <path
           d="M 0,0 C 4.418,0 8,3.582 8,8 8,12.418 4.418,16 0,16 -4.418,16 -8,12.418 -8,8 -8,3.582 -4.418,0 0,0"
           fill="#ffffff"
           fill-rule="evenodd"
           id="path1285" />
      </g>
    </g>
  </g>
  <g
     style="image-rendering:optimizeSpeed"
     transform="matrix(1.3333,0,0,-1.3333,452.82184,1079.0573)"
     id="g1299">
    <g
       clip-path="url(#clipPath25686)"
       id="g1297">
      <g
         transform="translate(658,1075.7)"
         id="g1295">
        <path
           d="M 0,0 C 0,-4.694 3.806,-8.5 8.5,-8.5 13.194,-8.5 17,-4.694 17,0 17,4.694 13.194,8.5 8.5,8.5 3.806,8.5 0,4.694 0,0"
           fill="#ffffff"
           id="path1293" />
      </g>
    </g>
  </g>
  <g
     style="image-rendering:optimizeSpeed"
     transform="matrix(1.3333,0,0,-1.3333,452.82184,1079.0573)"
     id="g1305">
    <g
       clip-path="url(#clipPath25788)"
       id="g1303">
      <path
         d="m 465.44,1082.2 h 85.864 v -75.319 H 465.44 Z m 64.45,-25.106 c -0.483,0.765 -1.453,0.947 -2.178,0.431 l -15.504,-11.01 c -0.359,-0.255 -0.847,-0.153 -1.071,0.238 l -18.271,31.869 c -0.438,0.771 -1.139,0.776 -1.549,-0.016 l -1.807,-3.514 -21.07,-47.452 c 13.336,-18.44 48.336,-26.94 73.836,-3.44 0.841,0 6.477,6.246 6,7 z"
         fill="#ffffff"
         fill-rule="evenodd"
         id="path1301" />
    </g>
  </g>
  <g
     style="image-rendering:optimizeSpeed"
     transform="matrix(1.3333,0,0,-1.3333,452.82184,1079.0573)"
     id="g1313">
    <g
       clip-path="url(#clipPath26420)"
       id="g1311">
      <g
         transform="translate(-23,837.24)"
         id="g1309">
        <path
           d="M 0,0 C 18.778,0 34,15.222 34,34 34,52.778 18.778,68 0,68 -18.778,68 -34,52.778 -34,34 -34,15.222 -18.778,0 0,0 Z"
           fill="none"
           stroke="#ffffff"
           stroke-miterlimit="10"
           stroke-width="8"
           id="path1307" />
      </g>
    </g>
  </g>
  <g
     style="image-rendering:optimizeSpeed"
     transform="matrix(1.3333,0,0,-1.3333,452.82184,1079.0573)"
     id="g1319">
    <g
       clip-path="url(#clipPath26860)"
       id="g1317">
      <path
         d="m 644,721.24 h 82 v -82 h -82 z m 41,-81 c 22.092,0 40,17.908 40,40 0,22.092 -17.908,40 -40,40 -22.092,0 -40,-17.908 -40,-40 0,-22.092 17.908,-40 40,-40"
         fill="#ffffff"
         fill-rule="evenodd"
         id="path1315" />
    </g>
  </g>
  <g
     style="image-rendering:optimizeSpeed"
     transform="matrix(1.3333,0,0,-1.3333,452.82184,1079.0573)"
     id="g1327">
    <g
       clip-path="url(#clipPath27506)"
       id="g1325">
      <g
         transform="translate(613.88,476.03)"
         id="g1323">
        <path
           d="m 0,0 c 0.187,-0.771 0.148,-1.502 -0.116,-2.193 -0.266,-0.692 -0.678,-1.303 -1.239,-1.833 -0.561,-0.531 -1.247,-0.949 -2.057,-1.255 -0.81,-0.305 -1.683,-0.457 -2.617,-0.457 -5.889,-0.033 -11.156,-0.049 -15.798,-0.049 h -15.891 c -1.122,0 -2.111,0.209 -2.968,0.627 -0.857,0.418 -1.543,0.932 -2.056,1.543 -0.515,0.611 -0.858,1.279 -1.029,2.002 -0.171,0.723 -0.148,1.375 0.071,1.953 0.186,0.451 0.373,0.917 0.56,1.398 0.157,0.418 0.343,0.893 0.561,1.424 0.219,0.53 0.452,1.069 0.701,1.615 l 1.776,4.438 h 5.329 l -2.01,-6.077 h 30.099 l -2.009,6.077 h 5.094 C -2.944,7.573 -2.353,6.094 -1.822,4.775 -1.604,4.197 -1.387,3.635 -1.168,3.088 -0.95,2.541 -0.756,2.051 -0.584,1.616 -0.413,1.183 -0.272,0.812 -0.163,0.507 -0.055,0.201 0,0.033 0,0 m -22.922,9.236 c -0.601,0.698 -1.289,1.571 -2.064,2.618 -0.776,1.046 -1.575,2.125 -2.398,3.235 -0.822,1.11 -1.637,2.204 -2.443,3.283 -0.808,1.079 -1.527,2.015 -2.16,2.808 -0.728,0.856 -1.013,1.562 -0.855,2.117 0.158,0.555 0.696,0.832 1.614,0.832 0.506,-0.031 1.187,-0.024 2.041,0.024 0.855,0.048 1.567,0.072 2.136,0.072 0.633,0 1.029,0.19 1.187,0.57 0.158,0.381 0.237,0.889 0.237,1.523 0,0.698 -0.008,1.467 -0.024,2.308 -0.016,0.841 -0.024,1.705 -0.024,2.593 0,0.888 -0.008,1.76 -0.023,2.617 -0.016,0.856 -0.024,1.65 -0.024,2.379 0,0.318 0.024,0.65 0.071,1 0.047,0.348 0.158,0.666 0.333,0.951 0.173,0.285 0.426,0.523 0.758,0.714 0.332,0.19 0.784,0.285 1.353,0.285 0.665,0 1.274,0.009 1.827,0.024 0.555,0.016 1.195,0.024 1.923,0.024 1.044,0 1.748,-0.246 2.112,-0.737 0.364,-0.492 0.562,-1.277 0.593,-2.356 v -1.855 c 0,-0.73 0.008,-1.507 0.023,-2.331 0.017,-0.826 0.025,-1.651 0.025,-2.475 v -2.236 c 0,-0.92 0.095,-1.659 0.284,-2.213 0.191,-0.555 0.617,-0.817 1.282,-0.785 0.475,0 1.052,-0.016 1.732,-0.047 0.68,-0.032 1.274,-0.049 1.78,-0.049 0.855,0 1.4,-0.23 1.638,-0.69 0.237,-0.46 0.071,-1.054 -0.498,-1.784 -0.602,-0.76 -1.298,-1.68 -2.089,-2.759 -0.791,-1.08 -1.606,-2.197 -2.445,-3.355 -0.838,-1.158 -1.661,-2.284 -2.467,-3.379 -0.807,-1.094 -1.528,-2.037 -2.16,-2.83 -0.57,-0.73 -1.116,-1.103 -1.637,-1.119 -0.523,-0.016 -1.069,0.326 -1.638,1.023"
           fill="#ffffff"
           id="path1321" />
      </g>
    </g>
  </g>
  <g
     style="image-rendering:optimizeSpeed"
     transform="matrix(1.3333,0,0,-1.3333,452.82184,1079.0573)"
     id="g1335">
    <g
       clip-path="url(#clipPath27772)"
       id="g1333">
      <g
         transform="translate(588.67,331.24)"
         id="g1331">
        <path
           d="m 0,0 h -49.301 c -2.41,0 -4.367,-1.941 -4.367,-4.299 v -49.402 c 0,-2.393 1.957,-4.299 4.367,-4.299 H 0 c 2.41,0 4.332,1.941 4.332,4.299 V -4.334 C 4.332,-1.941 2.375,0 0,0 m -33.403,-53.008 h -8.839 v 6.795 h 8.839 z m -8.91,24.58 h 8.84 v -6.795 h -8.84 z m 8.945,-15.566 h -8.84 v 6.795 h 8.84 z m 12.998,-9.014 h -8.84 v 6.795 h 8.84 z m -8.91,24.58 h 8.84 v -6.795 h -8.84 z m 8.944,-15.566 h -8.839 v 6.795 h 8.839 z m 13.277,-9.014 h -8.84 v 6.795 h 8.84 z m -8.909,24.58 h 8.84 v -6.795 h -8.84 z m 8.945,-15.566 h -8.84 v 6.795 h 8.84 z m 5.276,24.441 c 0,-2.392 -1.957,-4.299 -4.368,-4.299 h -37.77 c -2.411,-0.035 -4.367,1.907 -4.367,4.299 v 10.054 c 0,2.392 1.956,4.333 4.332,4.333 h 37.805 c 2.411,0 4.368,-1.941 4.368,-4.333 z"
           fill="#ffffff"
           id="path1329" />
      </g>
    </g>
  </g>
  <g
     style="image-rendering:optimizeSpeed"
     transform="matrix(1.3333,0,0,-1.3333,452.82184,1079.0573)"
     id="g1343">
    <g
       clip-path="url(#clipPath27864)"
       id="g1341">
      <g
         transform="translate(609.3,312.46)"
         id="g1339">
        <path
           d="m 0,0 h -0.72 c -0.206,0 -0.377,0 -0.514,-0.212 -0.103,-0.142 -0.103,-0.283 -0.103,-0.46 v -0.566 c 0,-0.178 0,-0.319 0.103,-0.461 0.137,-0.212 0.308,-0.212 0.514,-0.212 H 0 c 0.205,0 0.376,0 0.514,0.212 0.102,0.142 0.102,0.283 0.102,0.461 v 0.566 c 0,0.213 0,0.318 -0.102,0.46 C 0.376,0 0.239,0 0,0 M -5.003,4.779 H -7.95 c -0.548,0 -0.993,-0.46 -0.993,-1.026 V 1.346 h 0.993 v 2.407 h 2.947 V 1.346 h 0.993 v 2.407 c 0,0.566 -0.445,1.026 -0.993,1.026 m 0,-6.973 H -7.95 v 2.407 h -0.993 v -2.407 c 0,-0.567 0.411,-1.027 0.993,-1.027 h 2.947 c 0.582,0 0.993,0.46 0.993,1.027 v 2.407 h -0.993 z m -14.357,0 h -2.947 V 0.39 h -0.994 v -2.584 c 0,-0.567 0.411,-1.027 0.994,-1.027 h 2.947 c 0.583,0 0.994,0.46 0.994,1.027 V 0.39 h -0.994 z m 0,6.973 h -2.947 c -0.548,0 -0.994,-0.46 -0.994,-1.026 V 1.522 h 0.994 v 2.231 h 2.947 V 1.522 h 0.994 v 2.231 c 0,0.566 -0.446,1.026 -0.994,1.026 m 7.195,0 h -2.946 c -0.549,0 -0.994,-0.46 -0.994,-1.026 V 1.522 h 0.994 v 2.231 h 2.946 V 1.522 h 0.994 v 2.231 c 0,0.566 -0.445,1.026 -0.994,1.026 m 0,-6.973 h -2.946 V 0.39 h -0.994 v -2.584 c 0,-0.567 0.445,-1.027 0.994,-1.027 h 2.946 c 0.583,0 0.994,0.46 0.994,1.027 V 0.39 h -0.994 z M 6.51,4.779 H 3.563 C 3.015,4.779 2.569,4.319 2.569,3.753 V 1.169 H 3.563 V 3.753 H 6.51 V 1.169 h 0.994 v 2.584 c 0,0.566 -0.445,1.026 -0.994,1.026 m 0,-6.973 H 3.563 v 2.23 H 2.569 v -2.23 c 0,-0.567 0.446,-1.027 0.994,-1.027 H 6.51 c 0.583,0 0.994,0.46 0.994,1.027 v 2.23 H 6.51 Z m 7.195,0 h -2.946 v 2.053 H 9.765 v -2.053 c 0,-0.567 0.411,-1.027 0.994,-1.027 h 2.946 c 0.583,0 0.994,0.46 0.994,1.027 v 2.053 h -0.994 z m 0,6.973 h -2.946 c -0.548,0 -0.994,-0.46 -0.994,-1.026 V 0.992 h 0.994 v 2.761 h 2.946 V 0.992 h 0.994 v 2.761 c 0,0.566 -0.479,1.026 -0.994,1.026"
           fill="#ffffff"
           id="path1337" />
      </g>
    </g>
  </g>
  <g
     style="image-rendering:optimizeSpeed"
     transform="matrix(1.3333,0,0,-1.3333,452.82184,1079.0573)"
     id="g1351">
    <g
       clip-path="url(#clipPath28028)"
       id="g1349">
      <g
         transform="translate(766.75,130.24)"
         id="g1347">
        <path
           d="M 0,0 H -15.75 V 6.693 C -15.75,7.932 -16.763,9 -18.057,9 H -31.443 C -32.682,9 -33.75,7.987 -33.75,6.693 V 0 H -49.5 c -1.237,0 -2.25,-1.013 -2.25,-2.25 V -13.5 l 27,-4.5 27,4.5 V -2.25 C 2.25,-1.013 1.237,0 0,0 m -29.25,4.5 h 9 V 0 h -9 z m 9,-16.875 c 0,-0.619 -0.506,-1.125 -1.125,-1.125 h -6.75 c -0.619,0 -1.125,0.506 -1.125,1.125 v 2.25 c 0,0.619 0.506,1.125 1.125,1.125 h 6.75 c 0.619,0 1.125,-0.506 1.125,-1.125 z m -4.5,-7.875 27,4.5 v -27 C 2.25,-43.987 1.237,-45 0,-45 h -49.5 c -1.237,0 -2.25,1.013 -2.25,2.25 v 27 z"
           fill="#ffffff"
           id="path1345" />
      </g>
    </g>
  </g>
  <g
     style="image-rendering:optimizeSpeed"
     transform="matrix(1.3333,0,0,-1.3333,452.82184,1079.0573)"
     id="g1359">
    <g
       clip-path="url(#clipPath28200)"
       id="g1357">
      <g
         transform="translate(392,82.24)"
         id="g1355">
        <path
           d="M 0,0 -4.35,3.941 C -19.8,17.953 -30,27.2 -30,38.516 -30,47.762 -22.755,55 -13.5,55 -8.28,55 -3.27,52.572 0,48.75 3.27,52.572 8.28,55 13.5,55 22.755,55 30,47.762 30,38.516 30,27.2 19.8,17.953 4.35,3.941 Z"
           fill="#ffffff"
           id="path1353" />
      </g>
    </g>
  </g>
  <g
     style="image-rendering:optimizeSpeed"
     transform="matrix(1.3333,0,0,-1.3333,452.82184,1079.0573)"
     id="g1367">
    <g
       clip-path="url(#clipPath28364)"
       id="g1365">
      <g
         transform="translate(542.77,113.24)"
         id="g1363">
        <path
           d="m 0,0 c 0,2.621 0.885,4.8 2.689,6.604 1.804,1.804 3.983,2.689 6.604,2.689 2.622,0 4.801,-0.885 6.604,-2.689 1.805,-1.804 2.69,-3.983 2.69,-6.604 0,-2.621 -0.885,-4.834 -2.69,-6.639 -1.803,-1.803 -3.982,-2.689 -6.604,-2.689 -2.621,0 -4.809,0.877 -6.604,2.689 C 0.876,-4.809 0,-2.588 0,0 m -13.141,-6.06 c 0.545,-1.94 1.363,-3.846 2.35,-5.617 l -6.128,-7.523 6.944,-6.945 7.524,6.127 c 1.769,-0.986 3.71,-1.803 5.65,-2.382 L 4.221,-32 h 10.008 l 1.022,9.6 c 1.94,0.579 3.778,1.396 5.651,2.382 l 7.49,-6.127 7.012,6.945 -6.162,7.523 c 0.953,1.771 1.805,3.677 2.383,5.617 l 9.601,1.056 V 5.004 l -9.601,1.021 c -0.578,1.941 -1.43,3.745 -2.383,5.618 l 6.162,7.523 -7.012,7.013 -7.49,-6.161 c -1.907,0.953 -3.711,1.803 -5.651,2.382 L 14.229,32 H 4.221 L 3.199,22.4 c -2.008,-0.579 -3.88,-1.429 -5.65,-2.382 l -7.524,6.161 -6.944,-7.013 6.128,-7.523 C -11.744,9.77 -12.562,7.966 -13.141,6.025 L -22.774,5.004 V -5.004 Z"
           fill="#ffffff"
           id="path1361" />
      </g>
    </g>
  </g>
  <g
     style="image-rendering:optimizeSpeed"
     transform="matrix(1.3333,0,0,-1.3333,452.82184,1079.0573)"
     id="g1373">
    <g
       clip-path="url(#clipPath28984)"
       id="g1371">
      <path
         d="m 473,698.24 h 13 v -13 h -13 z m 6.5,-12 c 3.037,0 5.5,2.463 5.5,5.5 0,3.038 -2.463,5.5 -5.5,5.5 -3.037,0 -5.5,-2.462 -5.5,-5.5 0,-3.037 2.463,-5.5 5.5,-5.5"
         fill="#ffffff"
         fill-rule="evenodd"
         id="path1369" />
    </g>
  </g>
  <g
     style="image-rendering:optimizeSpeed"
     transform="matrix(1.3333,0,0,-1.3333,452.82184,1079.0573)"
     id="g1379">
    <g
       clip-path="url(#clipPath29012)"
       id="g1377">
      <path
         d="m 473,676.24 h 13 v -13 h -13 z m 6.5,-12 c 3.037,0 5.5,2.463 5.5,5.5 0,3.038 -2.463,5.5 -5.5,5.5 -3.037,0 -5.5,-2.462 -5.5,-5.5 0,-3.037 2.463,-5.5 5.5,-5.5"
         fill="#ffffff"
         fill-rule="evenodd"
         id="path1375" />
    </g>
  </g>
  <g
     style="image-rendering:optimizeSpeed"
     transform="matrix(1.3333,0,0,-1.3333,452.82184,1079.0573)"
     id="g1385">
    <g
       clip-path="url(#clipPath29040)"
       id="g1383">
      <path
         d="m 467,687.24 h 13 v -13 h -13 z m 6.5,-12 c 3.037,0 5.5,2.463 5.5,5.5 0,3.038 -2.463,5.5 -5.5,5.5 -3.037,0 -5.5,-2.462 -5.5,-5.5 0,-3.037 2.463,-5.5 5.5,-5.5"
         fill="#ffffff"
         fill-rule="evenodd"
         id="path1381" />
    </g>
  </g>
  <g
     style="image-rendering:optimizeSpeed"
     transform="matrix(1.3333,0,0,-1.3333,452.82184,1079.0573)"
     id="g1391">
    <g
       clip-path="url(#clipPath29068)"
       id="g1389">
      <path
         d="m 486,698.24 h 13 v -13 h -13 z m 6.5,-12 c 3.037,0 5.5,2.463 5.5,5.5 0,3.038 -2.463,5.5 -5.5,5.5 -3.037,0 -5.5,-2.462 -5.5,-5.5 0,-3.037 2.463,-5.5 5.5,-5.5"
         fill="#ffffff"
         fill-rule="evenodd"
         id="path1387" />
    </g>
  </g>
  <g
     style="image-rendering:optimizeSpeed"
     transform="matrix(1.3333,0,0,-1.3333,452.82184,1079.0573)"
     id="g1397">
    <g
       clip-path="url(#clipPath29096)"
       id="g1395">
      <path
         d="m 486,676.24 h 13 v -13 h -13 z m 6.5,-12 c 3.037,0 5.5,2.463 5.5,5.5 0,3.038 -2.463,5.5 -5.5,5.5 -3.037,0 -5.5,-2.462 -5.5,-5.5 0,-3.037 2.463,-5.5 5.5,-5.5"
         fill="#ffffff"
         fill-rule="evenodd"
         id="path1393" />
    </g>
  </g>
  <g
     style="image-rendering:optimizeSpeed"
     transform="matrix(1.3333,0,0,-1.3333,452.82184,1079.0573)"
     id="g1403">
    <g
       clip-path="url(#clipPath29124)"
       id="g1401">
      <path
         d="m 480,687.24 h 13 v -13 h -13 z m 6.5,-12 c 3.037,0 5.5,2.463 5.5,5.5 0,3.038 -2.463,5.5 -5.5,5.5 -3.037,0 -5.5,-2.462 -5.5,-5.5 0,-3.037 2.463,-5.5 5.5,-5.5"
         fill="#ffffff"
         fill-rule="evenodd"
         id="path1399" />
    </g>
  </g>
  <g
     style="image-rendering:optimizeSpeed"
     transform="matrix(1.3333,0,0,-1.3333,452.82184,1079.0573)"
     id="g1409">
    <g
       clip-path="url(#clipPath29152)"
       id="g1407">
      <path
         d="m 493,687.24 h 13 v -13 h -13 z m 6.5,-12 c 3.037,0 5.5,2.463 5.5,5.5 0,3.038 -2.463,5.5 -5.5,5.5 -3.037,0 -5.5,-2.462 -5.5,-5.5 0,-3.037 2.463,-5.5 5.5,-5.5"
         fill="#ffffff"
         fill-rule="evenodd"
         id="path1405" />
    </g>
  </g>
  <g
     style="image-rendering:optimizeSpeed"
     transform="matrix(1.3333,0,0,-1.3333,452.82184,1079.0573)"
     id="g1415">
    <g
       clip-path="url(#clipPath29252)"
       id="g1413">
      <path
         d="m 161,327.24 h 73 v -28 h -73 z m 14,-5 h 45 c 4.971,0 9,-4.029 9,-9 0,-4.97 -4.029,-9 -9,-9 h -45 c -4.971,0 -9,4.03 -9,9 0,4.971 4.029,9 9,9"
         fill="#ffffff"
         fill-rule="evenodd"
         id="path1411" />
    </g>
  </g>
  <g
     style="image-rendering:optimizeSpeed"
     transform="matrix(1.3333,0,0,-1.3333,452.82184,1079.0573)"
     id="g1421">
    <g
       clip-path="url(#clipPath29280)"
       id="g1419">
      <path
         d="m 162,302.24 h 73 v -28 h -73 z m 14,-5 h 45 c 4.971,0 9,-4.029 9,-9 0,-4.97 -4.029,-9 -9,-9 h -45 c -4.971,0 -9,4.03 -9,9 0,4.971 4.029,9 9,9"
         fill="#ffffff"
         fill-rule="evenodd"
         id="path1417" />
    </g>
  </g>
  <g
     style="image-rendering:optimizeSpeed"
     transform="matrix(1.3333,0,0,-1.3333,452.82184,1079.0573)"
     id="g1429">
    <g
       clip-path="url(#clipPath29400)"
       id="g1427">
      <g
         transform="translate(104.49,129.57)"
         id="g1425">
        <path
           d="m 0,0 c -4.298,-0.338 -8.165,-0.637 -11.604,-0.898 -1.458,-0.113 -2.906,-0.225 -4.344,-0.336 -1.44,-0.114 -2.747,-0.207 -3.924,-0.282 -1.178,-0.074 -2.168,-0.149 -2.972,-0.224 -0.803,-0.074 -1.28,-0.113 -1.428,-0.113 -0.188,-0.037 -0.403,-0.065 -0.645,-0.084 -0.244,-0.018 -0.459,-0.065 -0.645,-0.139 l -0.673,-0.225 -2.467,1.121 c 0.187,0.263 0.412,0.506 0.674,0.731 0.185,0.186 0.42,0.364 0.7,0.533 0.28,0.168 0.569,0.27 0.868,0.309 0.225,0.037 0.822,0.093 1.795,0.168 0.971,0.074 2.167,0.168 3.588,0.28 0,0.486 0.047,1.15 0.14,1.992 0.092,0.841 0.317,1.674 0.672,2.497 0.356,0.822 0.869,1.553 1.541,2.188 0.673,0.636 1.589,1.009 2.747,1.123 1.346,0.111 2.439,-0.094 3.281,-0.618 0.84,-0.523 1.494,-1.169 1.961,-1.935 0.467,-0.768 0.795,-1.553 0.981,-2.358 0.187,-0.804 0.299,-1.43 0.337,-1.878 1.606,0.111 2.942,0.205 4.008,0.279 1.064,0.076 1.653,0.131 1.765,0.169 0.412,0.038 0.87,-0.038 1.373,-0.225 0.505,-0.186 0.907,-0.43 1.206,-0.729 C -0.99,1.271 -0.888,1.158 -0.757,1.01 -0.626,0.859 -0.505,0.71 -0.392,0.561 -0.243,0.41 -0.112,0.224 0,0 m -15.528,6.676 c -0.709,-0.074 -1.28,-0.326 -1.709,-0.757 -0.43,-0.431 -0.758,-0.944 -0.982,-1.543 -0.223,-0.599 -0.374,-1.206 -0.448,-1.823 -0.075,-0.617 -0.112,-1.114 -0.112,-1.488 1.159,0.076 2.344,0.169 3.559,0.281 1.215,0.112 2.402,0.206 3.56,0.281 -0.037,0.336 -0.121,0.804 -0.252,1.402 -0.131,0.599 -0.346,1.178 -0.645,1.74 -0.299,0.561 -0.691,1.028 -1.176,1.403 -0.487,0.373 -1.084,0.542 -1.795,0.504 m 21.919,-41.24 c 0.186,-1.047 0.159,-1.917 -0.084,-2.61 -0.244,-0.691 -0.925,-1.168 -2.046,-1.43 -0.374,-0.113 -1.187,-0.299 -2.439,-0.562 -1.252,-0.262 -2.747,-0.579 -4.485,-0.953 -1.737,-0.374 -3.597,-0.777 -5.577,-1.207 -1.982,-0.43 -3.878,-0.832 -5.691,-1.205 -1.812,-0.375 -3.437,-0.711 -4.877,-1.011 -1.438,-0.3 -2.457,-0.505 -3.054,-0.617 -1.383,-0.3 -2.402,-0.206 -3.055,0.28 -0.654,0.486 -0.982,1.217 -0.982,2.189 v 34.452 c 0,0.934 0.197,1.691 0.589,2.271 0.393,0.58 0.962,0.889 1.709,0.926 0.299,0 0.664,0.02 1.094,0.057 0.43,0.037 0.85,0.074 1.261,0.112 0.485,0.037 0.991,0.075 1.514,0.112 l 0.504,-8.023 c -0.037,-0.038 -0.112,-0.057 -0.224,-0.057 -0.074,0 -0.187,-0.01 -0.336,-0.027 -0.15,-0.02 -0.318,-0.029 -0.505,-0.029 -0.784,-0.075 -1.159,-0.542 -1.121,-1.403 0.038,-0.336 0.075,-0.805 0.112,-1.402 0.037,-0.599 0.066,-1.225 0.084,-1.88 0.019,-0.655 0.047,-1.29 0.084,-1.907 0.037,-0.617 0.074,-1.114 0.113,-1.488 0.037,-0.711 0.149,-1.112 0.336,-1.206 0.186,-0.093 0.598,-0.14 1.233,-0.14 h 0.785 c 0.225,0 0.439,0.01 0.645,0.027 0.205,0.02 0.439,0.038 0.701,0.057 0.261,0.018 0.597,0.047 1.008,0.084 0.785,0.075 1.29,0.243 1.513,0.506 0.225,0.261 0.319,0.654 0.281,1.177 0,0.262 -0.028,0.721 -0.084,1.375 -0.056,0.655 -0.113,1.337 -0.168,2.048 -0.056,0.71 -0.103,1.384 -0.14,2.02 -0.037,0.635 -0.074,1.085 -0.112,1.346 -0.076,0.45 -0.168,0.768 -0.281,0.954 -0.112,0.187 -0.318,0.262 -0.617,0.224 -0.148,0 -0.299,-0.009 -0.447,-0.027 -0.151,-0.019 -0.3,-0.028 -0.449,-0.028 h -0.449 l -0.505,7.967 c 2.542,0.225 4.877,0.412 7.008,0.561 0.897,0.076 1.803,0.15 2.719,0.224 0.916,0.076 1.766,0.141 2.551,0.198 0.785,0.055 1.476,0.111 2.074,0.168 0.598,0.056 1.046,0.103 1.346,0.14 1.083,0.074 1.942,-0.113 2.578,-0.561 0.635,-0.449 1.027,-1.122 1.178,-2.021 0.037,-0.299 0.168,-1.196 0.391,-2.693 0.224,-1.496 0.505,-3.291 0.841,-5.386 0.336,-2.095 0.691,-4.349 1.065,-6.761 0.374,-2.413 0.729,-4.667 1.066,-6.761 0.336,-2.095 0.625,-3.891 0.869,-5.387 0.242,-1.496 0.4,-2.395 0.476,-2.693 m -35.261,-4.881 c 0,-0.525 0.028,-0.983 0.084,-1.375 0.057,-0.393 0.122,-0.701 0.197,-0.926 0.074,-0.299 0.168,-0.524 0.279,-0.674 -0.933,0.486 -1.831,0.973 -2.69,1.459 -0.747,0.412 -1.495,0.832 -2.242,1.263 -0.747,0.43 -1.383,0.795 -1.906,1.094 -0.972,0.561 -1.635,1.235 -1.99,2.02 -0.355,0.785 -0.439,1.608 -0.253,2.469 0.076,0.224 0.244,1.047 0.505,2.469 0.262,1.421 0.588,3.142 0.981,5.162 0.392,2.019 0.803,4.189 1.233,6.508 0.43,2.32 0.831,4.49 1.205,6.509 0.374,2.02 0.701,3.76 0.982,5.218 0.28,1.459 0.439,2.319 0.476,2.581 0.15,0.823 0.42,1.459 0.813,1.908 0.392,0.449 0.849,0.561 1.373,0.336 0.299,-0.149 0.543,-0.317 0.728,-0.504 0.114,-0.113 0.188,-0.207 0.225,-0.281 z"
           fill="#ffffff"
           id="path1423" />
      </g>
    </g>
  </g>
  <circle
     cx="-1248.6936"
     cy="-1241.6389"
     r="0"
     fill="#5e4aa6"
     stroke-width="1.00001"
     id="circle1146" />
  <circle
     cx="-149.14687"
     cy="23.855005"
     r="0"
     fill="#5e4aa6"
     fill-rule="evenodd"
     stroke-width="1.00001"
     id="ellipse1148" />
  <circle
     id="circle41"
     fill="#5e4aa6"
     r="0"
     cy="-1241.6"
     cx="-1248.7" />
  <circle
     id="circle43"
     fill-rule="evenodd"
     fill="#5e4aa6"
     r="0"
     cy="23.855"
     cx="-149.14999" />
  <rect
     style="opacity:0.3;fill:#141414;fill-opacity:1;stroke-width:2.74436;stroke-linecap:round;filter:url(#filter1057)"
     id="rect1055"
     width="55"
     height="55"
     x="4.5"
     y="4.5"
     ry="15" />
  <rect
     ry="14.999999"
     y="4.5000019"
     x="4.5000019"
     height="54.999996"
     width="54.999996"
     id="rect1045"
     style="fill:url(#linearGradient1053);fill-opacity:1;stroke-width:2.74436;stroke-linecap:round" />
  <path
     id="path1325"
     p-id="3776"
     fill="#0188fb"
     d="m 39.62295,43.680323 h -0.73771 v 6.639342 L 30.53247,43.680323 H 24.37706 A 7.3770465,7.3770465 0 0 1 17,36.303277 V 21.057382 a 7.3770465,7.3770465 0 0 1 7.37706,-7.377046 H 39.62295 A 7.3770465,7.3770465 0 0 1 47,21.057382 v 15.245895 a 7.3770465,7.3770465 0 0 1 -7.37705,7.377046 z m 2.59033,-16.369665 -0.97402,-3.044262 a 0.49426209,0.49426209 0 0 0 -0.61844,-0.319671 l -6.465,2.068033 -0.13131,-6.934423 a 0.4935244,0.4935244 0 0 0 -0.50778,-0.479509 l -3.24099,0.06147 a 0.49401619,0.49401619 0 0 0 -0.48934,0.499179 l 0.13034,6.890161 -6.66911,-2.299179 a 0.49180308,0.49180308 0 0 0 -0.62533,0.304919 l -1.04238,3.022129 a 0.49180308,0.49180308 0 0 0 0.30467,0.624591 l 6.60419,2.277047 -4.18205,5.596718 a 0.49180308,0.49180308 0 0 0 0.0983,0.688527 l 2.56082,1.913112 a 0.49180308,0.49180308 0 0 0 0.68854,-0.09836 l 4.18204,-5.596718 4.0554,5.687704 a 0.49180308,0.49180308 0 0 0 0.68583,0.115572 l 2.60311,-1.856558 a 0.49180308,0.49180308 0 0 0 0.11481,-0.686063 l -4.05516,-5.687702 6.6536,-2.129507 a 0.49008177,0.49008177 0 0 0 0.31918,-0.617213 z"
     style="stroke-width:0.0357805" />
</svg>
