<?xml version="1.0" encoding="UTF-8" standalone="no"?>
<svg
   width="64"
   height="64"
   style="isolation:isolate"
   version="1.1"
   viewBox="0 0 64 64"
   id="svg3"
   sodipodi:docname="todoist.svg"
   inkscape:version="1.3 (0e150ed6c4, 2023-07-21)"
   xmlns:inkscape="http://www.inkscape.org/namespaces/inkscape"
   xmlns:sodipodi="http://sodipodi.sourceforge.net/DTD/sodipodi-0.dtd"
   xmlns="http://www.w3.org/2000/svg"
   xmlns:svg="http://www.w3.org/2000/svg">
  <defs
     id="defs3">
    <filter
       id="filter1057"
       x="-0.026999999"
       y="-0.026999999"
       width="1.054"
       height="1.054"
       color-interpolation-filters="sRGB">
      <feGaussianBlur
         stdDeviation="0.61875"
         id="feGaussianBlur871" />
    </filter>
    <linearGradient
       id="linearGradient1053"
       x1="-127"
       x2="-72"
       y1="60"
       y2="5"
       gradientTransform="matrix(1.0000071,0,0,1.0000071,131.49954,-0.51035965)"
       gradientUnits="userSpaceOnUse">
      <stop
         stop-color="#ff7d50"
         offset="0"
         id="stop874" />
      <stop
         stop-color="#ff4b5a"
         offset=".50594"
         id="stop876" />
      <stop
         stop-color="#ff509b"
         offset="1"
         id="stop878" />
    </linearGradient>
  </defs>
  <sodipodi:namedview
     id="namedview3"
     pagecolor="#ffffff"
     bordercolor="#999999"
     borderopacity="1"
     inkscape:showpageshadow="0"
     inkscape:pageopacity="0"
     inkscape:pagecheckerboard="0"
     inkscape:deskcolor="#d1d1d1"
     inkscape:zoom="6.109375"
     inkscape:cx="11.703325"
     inkscape:cy="31.754476"
     inkscape:window-width="1920"
     inkscape:window-height="989"
     inkscape:window-x="0"
     inkscape:window-y="0"
     inkscape:window-maximized="1"
     inkscape:current-layer="svg3" />
  <rect
     transform="matrix(1.0000071,0,0,1.0000071,-2.2781468e-4,-2.2781468e-4)"
     x="4.5"
     y="4.5"
     width="55"
     height="55"
     ry="15"
     fill="#141414"
     filter="url(#filter1057)"
     opacity="0.3"
     stroke-linecap="round"
     stroke-width="2.7444"
     id="rect883" />
  <rect
     x="4.4996166"
     y="4.4996166"
     width="55.000767"
     height="55.000767"
     ry="15.000106"
     fill="url(#linearGradient1053)"
     stroke-linecap="round"
     stroke-width="2.74437"
     id="rect885"
     style="fill:url(#linearGradient1053)" />
  <g
     id="g3"
     transform="translate(-1.5001959)">
    <path
       d="m 6,20.01 9.891,5.699 c 0.526,0.303 1.38,0.304 1.907,0.002 L 37.031,14.697 c 0.432,-0.247 1.13,-0.244 1.559,0.006 l 1.812,1.053 c 0.787,0.458 0.786,1.199 -0.003,1.654 L 17.97,30.35 c -0.622,0.359 -1.63,0.357 -2.25,-0.003 L 6,24.697 Z"
       fill="#ffffff"
       id="path1" />
    <path
       d="m 6,29.414 9.891,5.699 c 0.526,0.303 1.38,0.304 1.907,0.002 L 37.031,24.101 c 0.432,-0.247 1.13,-0.244 1.559,0.005 l 1.812,1.054 c 0.787,0.458 0.786,1.199 -0.003,1.654 L 17.97,39.754 c -0.622,0.359 -1.63,0.357 -2.25,-0.003 L 6,34.101 Z"
       fill="#ffffff"
       id="path2" />
    <path
       d="m 6,38.789 9.891,5.699 c 0.526,0.303 1.38,0.304 1.907,0.002 L 37.031,33.476 c 0.432,-0.247 1.13,-0.244 1.559,0.005 l 1.812,1.054 c 0.787,0.458 0.786,1.199 -0.003,1.654 L 17.97,49.129 c -0.622,0.359 -1.63,0.357 -2.25,-0.003 L 6,43.476 Z"
       fill="#ffffff"
       id="path3" />
  </g>
</svg>
