<?xml version="1.0" encoding="UTF-8" standalone="no"?>
<svg
   width="64"
   height="64"
   viewBox="0 0 16.933 16.933"
   version="1.1"
   id="svg4"
   sodipodi:docname="turtl.svg"
   inkscape:version="1.3 (0e150ed6c4, 2023-07-21)"
   xmlns:inkscape="http://www.inkscape.org/namespaces/inkscape"
   xmlns:sodipodi="http://sodipodi.sourceforge.net/DTD/sodipodi-0.dtd"
   xmlns:xlink="http://www.w3.org/1999/xlink"
   xmlns="http://www.w3.org/2000/svg"
   xmlns:svg="http://www.w3.org/2000/svg">
  <sodipodi:namedview
     id="namedview4"
     pagecolor="#ffffff"
     bordercolor="#999999"
     borderopacity="1"
     inkscape:showpageshadow="0"
     inkscape:pageopacity="0"
     inkscape:pagecheckerboard="0"
     inkscape:deskcolor="#d1d1d1"
     inkscape:zoom="6.109375"
     inkscape:cx="-7.6112532"
     inkscape:cy="17.350384"
     inkscape:window-width="1920"
     inkscape:window-height="989"
     inkscape:window-x="0"
     inkscape:window-y="0"
     inkscape:window-maximized="1"
     inkscape:current-layer="svg4" />
  <defs
     id="defs2">
    <linearGradient
       id="a"
       x1="7.937"
       x2="7.937"
       y1="15.081"
       y2="1.852"
       gradientUnits="userSpaceOnUse"
       gradientTransform="translate(-1.7190004,-5.3700563)">
      <stop
         offset="0"
         stop-color="#f1efeb"
         id="stop1" />
      <stop
         offset="1"
         stop-color="#fdfcfc"
         id="stop2" />
    </linearGradient>
    <filter
       inkscape:collect="always"
       style="color-interpolation-filters:sRGB"
       id="filter1057"
       x="-0.026999999"
       width="1.054"
       y="-0.026999999"
       height="1.054">
      <feGaussianBlur
         inkscape:collect="always"
         stdDeviation="0.61875"
         id="feGaussianBlur1059" />
    </filter>
    <linearGradient
       inkscape:collect="always"
       xlink:href="#linearGradient1051"
       id="linearGradient1053"
       x1="-127"
       y1="60"
       x2="-72"
       y2="5"
       gradientUnits="userSpaceOnUse"
       gradientTransform="matrix(0.26457812,0,0,0.26457812,34.792023,-0.134935)" />
    <linearGradient
       inkscape:collect="always"
       id="linearGradient1051">
      <stop
         style="stop-color:#dee0e2;stop-opacity:1"
         offset="0"
         id="stop1047" />
      <stop
         style="stop-color:#f1f3f5;stop-opacity:0.99607843"
         offset="1"
         id="stop1049" />
    </linearGradient>
  </defs>
  <rect
     ry="15"
     y="4.5"
     x="4.5"
     height="55"
     width="55"
     id="rect1055"
     style="opacity:0.3;fill:#141414;fill-opacity:1;stroke-width:2.74436;stroke-linecap:round;filter:url(#filter1057)"
     transform="scale(0.26457812)" />
  <rect
     style="fill:url(#linearGradient1053);fill-opacity:1;stroke-width:0.726098;stroke-linecap:round"
     id="rect1045"
     width="14.551796"
     height="14.551796"
     x="1.1906021"
     y="1.1906021"
     ry="3.9686716" />
  <path
     fill="#fff"
     d="M8.467 13.977H6.51v-.355l-.178-.178-.888-.178H4.378v-.355l-.356-.356h-.355V12.2l-.178-.178-.355-.178-.356-.533v-.889c5.133-.963 5.64-.963 11.377 0v.889l-.356.533-.355.178-.178.178v.355h-.355l-.356.356v.355H11.49l-.89.178-.177.178v.355z"
     id="path2" />
  <path
     fill="#8fc46a"
     d="M8.467 11.74H5.845v-.698h-1.4v-.698h-1.4l-.178-1.217.178-1.217h.7V6.516h.7V5.12h.7v-.697h.7v-.698h1.4V3.03l1.222-.178 1.222.178v.697h1.4v.698h.7v.697h.7v1.395h.7V7.91h.7l.177 1.217-.178 1.217h-1.4v.698h-1.4v.697z"
     id="path3" />
  <path
     d="M8.467 14.155H6.333v-.711H4.2v-.711h-.71v-.711h-.712v-.711h.711v.71H4.2v.712h2.133v.71H10.6v-.71h2.133v-.711h.71v-.711h.712v.71h-.711v.712h-.711v.71H10.6v.712zm0-2.133H5.622v-.711H4.2V10.6H2.778V7.755h.711V6.333H4.2V4.911h.711v-.71h.711v-.712h1.422v-.71H9.89v.71h1.422V4.2h.71v.711h.712v1.422h.71v1.422h.712V10.6h-1.422v.71H11.31v.712zm0-.711H10.6V9.889h.71v.71h.712v-.71h1.422V8.467H11.31v-.712h1.422v-.71h-.711V5.621h-.711v-.71H9.889V4.2h-.711v-.71H7.755v.71h-.71v.711H5.621v.711h-.71v1.422H4.2v.711h1.422v.712H3.49v1.422h1.422v.71h.711v-.71h.711v1.422zM6.689 9.889h-.356v-.711h.711v-.711h-.71v-.712h-.712V6.333h.711v-.71h.711V4.91H9.89v.711h.71v.711h.712v1.422H10.6v.712h-.711v.71h.71v.712h-.71v-.711H7.044v.71zm1.778-1.422h1.422v-.712h.71V6.333h-.71v-.71H7.044v.71h-.71v1.422h.71v.712z"
     id="path4" />
</svg>
