<?xml version="1.0" encoding="UTF-8"?>
<svg width="64" height="64" version="1.1" viewBox="0 0 16.933 16.933" xmlns="http://www.w3.org/2000/svg" xmlns:cc="http://creativecommons.org/ns#" xmlns:dc="http://purl.org/dc/elements/1.1/" xmlns:rdf="http://www.w3.org/1999/02/22-rdf-syntax-ns#">
 <metadata>
  <rdf:RDF>
   <cc:Work rdf:about="">
    <dc:format>image/svg+xml</dc:format>
    <dc:type rdf:resource="http://purl.org/dc/dcmitype/StillImage"/>
    <dc:title/>
   </cc:Work>
  </rdf:RDF>
 </metadata>
 <defs>
  <filter id="filter2761" x="-.024" y="-.024" width="1.048" height="1.048" color-interpolation-filters="sRGB">
   <feGaussianBlur stdDeviation="0.14552168"/>
  </filter>
  <linearGradient id="linearGradient4673" x1="1.2573" x2="15.644" y1="15.429" y2="1.1082" gradientUnits="userSpaceOnUse">
   <stop stop-color="#8cd750" offset="0"/>
   <stop stop-color="#7dcd32" offset=".47728"/>
   <stop stop-color="#87d241" offset="1"/>
  </linearGradient>
  <filter id="filter2105" x="-.29796" y="-.12895" width="1.5959" height="1.2579" color-interpolation-filters="sRGB">
   <feGaussianBlur stdDeviation="0.44165673"/>
  </filter>
  <linearGradient id="linearGradient2134" x1="32.153" x2="32.153" y1="46.593" y2="4.0937" gradientTransform="matrix(.26458 0 0 .26458 .030358 0)" gradientUnits="userSpaceOnUse">
   <stop stop-color="#d1ecba" offset="0"/>
   <stop stop-color="#d1ecba" stop-opacity="0" offset="1"/>
  </linearGradient>
 </defs>
 <g transform="translate(-.00084984 .14045)">
  <path d="m10.709 1.05c4.405 0 5.0345 0.67282 5.0345 5.388v3.7761c0 4.7152-0.62954 5.388-5.0345 5.388h-4.4832c-4.405 0-5.0346-0.6728-5.0346-5.388v-3.7761c0-4.7152 0.62954-5.388 5.0346-5.388z" enable-background="new" fill="#141414" filter="url(#filter2761)" opacity=".3"/>
  <path d="m10.709 0.97579c4.405 0 5.0345 0.67282 5.0345 5.388v3.7761c0 4.7152-0.62954 5.388-5.0345 5.388h-4.4832c-4.405 0-5.0346-0.6728-5.0346-5.388v-3.7761c0-4.7152 0.62954-5.388 5.0346-5.388z" enable-background="new" fill="url(#linearGradient4673)"/>
  <path d="m6.2562 0.97564c-4.1696 0-5.0233 0.72978-5.0233 4.612l7.3044 6.7398 7.2062-6.7398c0-3.9448-0.84203-4.6123-5.0037-4.6123z" fill="url(#linearGradient2134)" opacity=".7" stroke-width=".26458"/>
  <rect transform="matrix(-.70711 .70711 .70711 .70711 0 0)" x="2.0353" y="10.17" width=".84188" height="4.6813" ry=".42094" fill="#fafafa"/>
  <path d="m8.0959 4.1418c-0.2332 0-0.42064 0.18795-0.42064 0.42115v7.3782c0 0.02186 0.00302 0.04261 0.0062 0.06356 8.244e-4 0.0053 5.196e-4 0.01072 0.00155 0.01602 0.00466 0.02441 0.012529 0.04758 0.021187 0.07028 0.00105 0.0027 0.00148 0.0056 0.00258 0.0083 0.042594 0.10511 0.12587 0.18891 0.23099 0.2315 0.00357 0.0015 0.00725 0.0023 0.010852 0.0036 0.021897 0.0082 0.044217 0.01515 0.067695 0.01964 0.026507 0.0052 0.053197 0.0078 0.080097 0.0078 0.027375-3.4e-5 0.054209-0.0028 0.080097-0.0078 1.62e-4 -3.1e-5 3.551e-4 3.2e-5 5.168e-4 0 0.019902-0.0039 0.03858-0.01052 0.05736-0.01705 0.00709-0.0025 0.014792-0.0034 0.021704-0.0062 0.023-0.0094 0.044382-0.02147 0.065111-0.03462 0.00234-0.0015 0.00492-0.0026 0.00723-0.0041 0.023591-0.01563 0.045719-0.0338 0.065628-0.05374l0.00258-0.0026 2.7124-2.7124c0.1649-0.1649 0.1649-0.4304 0-0.5953s-0.4304-0.1649-0.5953 0l-1.9967 1.9967v-6.3618c0-0.2332-0.18795-0.42115-0.42115-0.42115z" fill="#80d03a" filter="url(#filter2105)"/>
  <path d="m8.4673 4.1418c-0.2332 0-0.42064 0.18795-0.42064 0.42115v7.3782c0 0.02186 0.00302 0.04261 0.0062 0.06356 8.244e-4 0.0053 5.196e-4 0.01072 0.00155 0.01602 0.00466 0.02441 0.012529 0.04758 0.021187 0.07028 0.00105 0.0027 0.00148 0.0056 0.00258 0.0083 0.042594 0.10511 0.12587 0.18891 0.23099 0.2315 0.00357 0.0015 0.00725 0.0023 0.010852 0.0036 0.021897 0.0082 0.044217 0.01515 0.067695 0.01964 0.026507 0.0052 0.053197 0.0078 0.080097 0.0078 0.027375-3.4e-5 0.054209-0.0028 0.080097-0.0078 1.62e-4 -3.1e-5 3.551e-4 3.2e-5 5.168e-4 0 0.019902-0.0039 0.03858-0.01052 0.05736-0.01705 0.00709-0.0025 0.014792-0.0034 0.021704-0.0062 0.023-0.0094 0.044382-0.02147 0.065111-0.03462 0.00234-0.0015 0.00492-0.0026 0.00723-0.0041 0.023591-0.01563 0.045719-0.0338 0.065628-0.05374l0.00258-0.0026 2.7124-2.7124c0.1649-0.1649 0.1649-0.4304 0-0.5953s-0.4304-0.1649-0.5953 0l-1.9967 1.9967v-6.3618c0-0.2332-0.18795-0.42115-0.42115-0.42115z" fill="#fafafa"/>
 </g>
</svg>
