<?xml version="1.0" encoding="UTF-8" standalone="no"?>
<svg
   width="64"
   height="64"
   version="1.1"
   id="svg8874"
   sodipodi:docname="ultrakill.svg"
   inkscape:version="1.2.2 (b0a8486541, 2022-12-01)"
   xmlns:inkscape="http://www.inkscape.org/namespaces/inkscape"
   xmlns:sodipodi="http://sodipodi.sourceforge.net/DTD/sodipodi-0.dtd"
   xmlns:xlink="http://www.w3.org/1999/xlink"
   xmlns="http://www.w3.org/2000/svg"
   xmlns:svg="http://www.w3.org/2000/svg">
  <sodipodi:namedview
     id="namedview19"
     pagecolor="#ffffff"
     bordercolor="#999999"
     borderopacity="1"
     inkscape:showpageshadow="0"
     inkscape:pageopacity="0"
     inkscape:pagecheckerboard="0"
     inkscape:deskcolor="#d1d1d1"
     showgrid="false"
     inkscape:zoom="6.328125"
     inkscape:cx="44.088889"
     inkscape:cy="34.37037"
     inkscape:window-width="1920"
     inkscape:window-height="965"
     inkscape:window-x="0"
     inkscape:window-y="40"
     inkscape:window-maximized="1"
     inkscape:current-layer="svg8874" />
  <defs
     id="defs8856">
    <linearGradient
       id="a"
       x1="7.937"
       x2="7.937"
       y1="15.081"
       y2="1.852"
       gradientTransform="matrix(3.7796,0,0,3.7796,84.331915,0)"
       gradientUnits="userSpaceOnUse">
      <stop
         stop-color="#e01f1f"
         offset="0"
         id="stop8851" />
      <stop
         stop-color="#ff5c5c"
         offset="1"
         id="stop8853" />
    </linearGradient>
    <radialGradient
       xlink:href="#linearGradient3303"
       id="radialGradient3307"
       cx="5.7156811"
       cy="9.473814"
       fx="5.7156811"
       fy="9.473814"
       r="5.988739"
       gradientTransform="matrix(0.51517264,1.4199948,-1.1446843,0.41529023,114.51918,20.527426)"
       gradientUnits="userSpaceOnUse" />
    <linearGradient
       id="linearGradient3303">
      <stop
         style="stop-color:#e1e1e1;stop-opacity:1;"
         offset="0"
         id="stop3299" />
      <stop
         style="stop-color:#ffffff;stop-opacity:1;"
         offset="1"
         id="stop3301" />
    </linearGradient>
    <filter
       style="color-interpolation-filters:sRGB"
       id="filter10204"
       x="-0.034601525"
       y="-0.039182944"
       width="1.069203"
       height="1.0783659">
      <feGaussianBlur
         stdDeviation="0.65267271"
         id="feGaussianBlur10206" />
    </filter>
    <filter
       id="filter1057"
       x="-0.026999999"
       y="-0.026999999"
       width="1.054"
       height="1.054"
       color-interpolation-filters="sRGB">
      <feGaussianBlur
         stdDeviation="0.61875"
         id="feGaussianBlur871" />
    </filter>
    <linearGradient
       id="linearGradient1053"
       x1="-127"
       x2="-72"
       y1="60"
       y2="5"
       gradientTransform="translate(131.50001,-0.51000034)"
       gradientUnits="userSpaceOnUse">
      <stop
         stop-color="#df2a2a"
         offset="0"
         id="stop874" />
      <stop
         stop-color="#f83f3f"
         offset="1"
         id="stop876" />
    </linearGradient>
    <radialGradient
       inkscape:collect="always"
       xlink:href="#linearGradient3303"
       id="radialGradient3027"
       gradientUnits="userSpaceOnUse"
       gradientTransform="matrix(0.47795898,1.317421,-1.0619977,0.38529161,30.317281,21.383982)"
       cx="5.7156811"
       cy="9.473814"
       fx="5.7156811"
       fy="9.473814"
       r="5.988739" />
  </defs>
  <rect
     x="4.4999995"
     y="4.4999995"
     width="55"
     height="55"
     ry="15"
     fill="#141414"
     filter="url(#filter1057)"
     opacity="0.3"
     stroke-linecap="round"
     stroke-width="2.7444"
     id="rect881" />
  <rect
     x="4.5"
     y="4.5"
     width="55"
     height="55"
     ry="15"
     fill="url(#linearGradient1053)"
     stroke-linecap="round"
     stroke-width="2.7444"
     id="rect883"
     style="fill:url(#linearGradient1053)" />
  <path
     style="fill:url(#radialGradient3027);fill-opacity:1;stroke:none;stroke-width:0.0854652"
     d="m 43.257335,13.591113 c -0.994908,0.227998 -1.937164,0.82289 -2.905834,1.150957 -3.645363,1.234567 -7.205688,2.641674 -10.768657,4.114544 -0.996698,0.412012 -1.983311,0.850133 -2.991299,1.233877 -0.556807,0.211955 -1.17173,0.502365 -1.329162,1.147288 -0.440058,1.802212 1.070807,2.811816 2.183735,3.853642 0.974821,0.912344 1.84409,2.053652 2.456536,3.24 1.250274,2.422179 1.495473,4.84 1.299501,7.520968 -0.05075,0.694322 -0.266055,1.473338 -0.480146,2.136642 -0.112733,0.34936 -0.36553,0.821321 -0.2317,1.193096 0.15708,0.436219 0.78218,0.689022 1.143702,0.929353 0.995927,0.662102 1.992885,1.321641 2.99129,1.980156 0.800299,0.527832 1.594706,1.064216 2.393039,1.595127 0.321201,0.213551 0.696027,0.519541 1.11071,0.427333 0.491595,-0.109336 0.855854,-0.790387 1.134044,-1.16806 0.800383,-1.086441 1.605812,-2.168263 2.415343,-3.247694 2.77088,-3.69442 5.505856,-7.415509 8.27708,-11.110522 0.726292,-0.968329 1.459328,-1.931355 2.177065,-2.905831 0.34947,-0.474591 0.829876,-1.010545 0.863981,-1.623847 0.05186,-0.930891 -0.496391,-1.937845 -0.753382,-2.820363 -0.32058,-1.101225 -0.588342,-2.512483 -1.168483,-3.502842 -0.361355,-0.616778 -1.065241,-1.05814 -1.578378,-1.542661 -1.786318,-1.686868 -3.596387,-3.206754 -6.238985,-2.601163 M 36.163692,14.65693 V 14.486 c -1.562736,-0.784464 -2.775324,-0.13726 -4.273275,0.461486 -1.647181,0.658359 -3.311712,1.265225 -4.957009,1.930361 -3.327688,1.345236 -6.696736,2.715914 -10.084932,3.903288 -1.007727,0.353146 -1.992318,0.77808 -2.991298,1.156778 -0.565124,0.214256 -1.186682,0.355537 -1.59048,0.841921 -1.482759,1.786145 -1.355243,5.196391 -1.129905,7.346362 0.398166,3.799032 2.893854,7.864374 5.540747,10.512268 0.726787,0.727054 1.484752,1.440261 2.393034,1.939045 0.261184,0.143489 0.697057,0.44442 1.002088,0.276984 0.306311,-0.168106 0.613559,-0.938067 0.445021,-1.257969 -0.204359,-0.387918 -0.855687,-0.637566 -1.190712,-0.912338 -0.673641,-0.552364 -1.253243,-1.219336 -1.758235,-1.925962 -2.802555,-3.921678 -4.243002,-9.779401 -2.343119,-14.358221 0.367264,-0.885166 0.871537,-2.056812 1.637693,-2.667465 1.243474,-0.990973 3.456258,-1.323777 4.942166,-1.86674 4.780178,-1.746785 9.610093,-3.377231 14.358216,-5.208868 m 8.204696,-0.651676 c 1.807499,-0.08949 3.243076,1.546867 4.529672,2.610521 0.305281,0.252351 1.451627,0.928181 1.189163,1.426412 -0.158954,0.301633 -0.726709,0.465232 -1.018231,0.599643 -0.909952,0.419525 -1.833152,0.814282 -2.734902,1.250549 -2.964116,1.434285 -5.965926,2.814297 -8.973888,4.153883 -1.007292,0.44861 -2.478152,1.54334 -3.585875,1.582824 -0.549543,0.01958 -0.768672,-1.10319 -0.981315,-1.485476 -0.724752,-1.30284 -1.805208,-2.371927 -3.039237,-3.190688 -0.231783,-0.153765 -1.379243,-0.632702 -1.054479,-1.01328 0.239558,-0.280668 0.809104,-0.394082 1.139945,-0.532912 0.99371,-0.416978 1.991085,-0.827333 2.991289,-1.228636 2.172965,-0.871869 4.331057,-1.774419 6.495392,-2.667431 1.69948,-0.701247 3.191613,-1.413773 5.042466,-1.505409 M 19.497902,22.77616 v 0.08547 c 1.139769,-0.08999 2.290651,-0.249129 3.418628,-0.434164 0.363229,-0.05967 0.947637,-0.0196 1.218563,-0.309641 0.256063,-0.274257 0.157868,-0.816797 0.06337,-1.136437 l -4.700603,1.794776 m 29.400158,0.807563 c 0.990546,-0.241525 1.117205,0.987897 0.715,1.585472 -2.203469,3.273588 -4.916151,6.275394 -7.325676,9.401214 -0.593649,0.770128 -1.180024,1.544702 -1.782987,2.307565 -0.263838,0.333827 -0.542455,0.733044 -1.007544,0.756118 -0.959958,0.04759 -1.443871,-1.145755 -0.957221,-1.867163 1.079779,-1.600686 2.497552,-3.072833 3.762104,-4.529678 1.300281,-1.497869 2.483886,-3.106758 3.77604,-4.61514 0.682788,-0.797054 1.764015,-2.780793 2.820284,-3.038388 m -26.665256,1.450864 c -3.102826,0.422539 -4.849055,3.7839 -4.468282,6.715455 0.575298,4.429251 3.774898,9.460443 8.912488,8.60416 2.948306,-0.491339 4.016887,-3.538614 4.016887,-6.12566 0,-4.414379 -3.430679,-9.879047 -8.461093,-9.193955 m 2.820367,1.160209 v 0.170932 c -1.370614,0.405105 -2.455004,0.04075 -3.552039,1.285312 -3.175804,3.602888 0.06847,10.293903 4.577618,10.826268 0.988756,0.116734 1.697865,-0.416817 2.563971,-0.744661 v -0.08549 c -4.07722,-4.32e-4 -6.557265,-4.417177 -5.772942,-8.119202 0.305114,-1.440266 1.946729,-3.571778 3.550834,-2.563969 -0.217848,0.398955 -0.638766,0.399725 -1.025588,0.580828 -0.460144,0.21546 -0.842086,0.556379 -1.1513,0.957553 -1.53958,1.997416 -0.684153,5.167333 0.99499,6.812889 0.812601,0.796367 1.864854,1.577692 3.062143,1.561113 0.25521,-0.0034 1.118745,-0.335545 1.136011,0.09983 0.02255,0.572109 -0.735857,1.392747 -1.139342,1.724866 -1.698199,1.397621 -3.632291,1.168319 -5.466463,0.205696 -3.063433,-1.607672 -4.614553,-5.551655 -4.258412,-8.866009 0.364685,-3.394263 3.470164,-5.005546 6.480519,-3.845947 m -3.320516,15.361757 c -0.567829,0.256927 -0.06151,2.053478 0.353052,2.314319 0.30657,0.192896 0.826712,0.100779 1.172676,0.100779 0.976361,0 2.02827,-0.15955 2.991299,-0.0775 0.891999,0.07606 1.799733,1.070714 2.478495,1.598125 0.374001,0.290556 1.350612,1.348386 1.869131,1.11712 0.274182,-0.122204 0.399811,-0.51194 0.531006,-0.757565 0.168528,-0.315453 0.558338,-0.819531 0.494331,-1.19524 -0.106758,-0.626882 -1.545053,-1.266679 -2.039811,-1.596662 -0.73774,-0.492026 -1.528975,-1.263951 -2.39303,-1.512315 -0.980805,-0.281824 -2.314411,-0.05452 -3.333161,-0.05452 -0.598427,0 -1.572998,-0.185814 -2.123988,0.0634 m 2.380385,4.07516 c -0.619283,0.08138 -1.838709,-0.208186 -2.357228,0.137072 -0.316562,0.210746 -0.272716,0.695688 -0.316906,1.023192 -0.104271,0.774233 -0.319039,1.538639 -0.455189,2.307572 -0.04769,0.269376 -0.274423,0.819784 0.0019,1.023197 0.318019,0.234099 1.035673,0.07391 1.418134,0.124098 1.165152,0.152992 2.331844,0.107231 3.504084,0.135985 0.448778,0.01122 0.922263,0.203416 1.367451,0.153588 0.767735,-0.08581 1.558719,-1.546925 1.995279,-2.12057 0.16529,-0.217233 0.48202,-0.544498 0.32699,-0.838845 -0.208784,-0.396295 -0.923283,-0.644492 -1.29669,-0.857639 -1.444261,-0.824292 -2.483784,-1.311272 -4.187791,-1.087609 z"
     id="path3025" />
</svg>
