<?xml version="1.0" encoding="UTF-8" standalone="no"?>
<svg
   width="64"
   height="64"
   version="1.1"
   id="svg47"
   sodipodi:docname="unityhub.svg"
   inkscape:version="1.2.2 (b0a8486541, 2022-12-01)"
   xmlns:inkscape="http://www.inkscape.org/namespaces/inkscape"
   xmlns:sodipodi="http://sodipodi.sourceforge.net/DTD/sodipodi-0.dtd"
   xmlns:xlink="http://www.w3.org/1999/xlink"
   xmlns="http://www.w3.org/2000/svg"
   xmlns:svg="http://www.w3.org/2000/svg">
  <sodipodi:namedview
     id="namedview49"
     pagecolor="#ffffff"
     bordercolor="#999999"
     borderopacity="1"
     inkscape:showpageshadow="0"
     inkscape:pageopacity="0"
     inkscape:pagecheckerboard="0"
     inkscape:deskcolor="#d1d1d1"
     showgrid="false"
     inkscape:zoom="11.346854"
     inkscape:cx="64.599403"
     inkscape:cy="28.333845"
     inkscape:window-width="3840"
     inkscape:window-height="1979"
     inkscape:window-x="1920"
     inkscape:window-y="52"
     inkscape:window-maximized="1"
     inkscape:current-layer="svg47" />
  <defs
     id="defs25">
    <linearGradient
       id="d"
       x1="7.937"
       x2="7.937"
       y1="15.081"
       y2="1.852"
       gradientTransform="translate(0 .032) scale(3.7795)"
       gradientUnits="userSpaceOnUse">
      <stop
         stop-color="#f1efeb"
         offset="0"
         id="stop2" />
      <stop
         stop-color="#fdfcfc"
         offset="1"
         id="stop4" />
    </linearGradient>
    <linearGradient
       id="c">
      <stop
         style="stop-color:#f4f4f4;stop-opacity:0"
         offset="0"
         id="stop7" />
      <stop
         style="stop-color:#e8e8e9;stop-opacity:1"
         offset="1"
         id="stop9" />
    </linearGradient>
    <linearGradient
       id="b">
      <stop
         style="stop-color:#404040;stop-opacity:1"
         offset="0"
         id="stop12" />
      <stop
         style="stop-color:#6a6a6a;stop-opacity:1"
         offset="1"
         id="stop14" />
    </linearGradient>
    <linearGradient
       id="a">
      <stop
         style="stop-color:#eceff4;stop-opacity:1"
         offset="0"
         id="stop17" />
      <stop
         style="stop-color:#404040;stop-opacity:1"
         offset="1"
         id="stop19" />
    </linearGradient>
    <linearGradient
       xlink:href="#a"
       id="g"
       x1="28.621"
       y1="19.562"
       x2="41.413"
       y2="31.844"
       gradientUnits="userSpaceOnUse"
       gradientTransform="translate(74.202858,-0.001)" />
    <linearGradient
       xlink:href="#b"
       id="e"
       x1="36.098"
       y1="46.81"
       x2="32.396"
       y2="28.042"
       gradientUnits="userSpaceOnUse"
       gradientTransform="translate(74.202858,-0.001)" />
    <linearGradient
       xlink:href="#c"
       id="f"
       x1="24.421"
       y1="28.473"
       x2="15.521"
       y2="46.666"
       gradientUnits="userSpaceOnUse"
       gradientTransform="translate(74.202858,-0.001)" />
    <linearGradient
       id="linearGradient862-3"
       x1="7.9373002"
       x2="7.9373002"
       y1="15.081"
       y2="1.852"
       gradientTransform="matrix(3.7796,0,0,3.7796,99.489776,4.7599805)"
       gradientUnits="userSpaceOnUse">
      <stop
         stop-color="#f1efeb"
         offset="0"
         id="stop459" />
      <stop
         stop-color="#fdfcfc"
         offset="1"
         id="stop461" />
    </linearGradient>
    <linearGradient
       id="i"
       x1="98.123001"
       x2="510.56"
       y1="1517.5"
       y2="828.58002"
       gradientTransform="matrix(0.035272,0,0,0.033878,29.106,-3.7792)"
       gradientUnits="userSpaceOnUse"
       xlink:href="#c-3" />
    <linearGradient
       id="c-3"
       x1="98.123001"
       x2="510.56"
       y1="1517.5"
       y2="828.58002"
       gradientTransform="matrix(0.04938,0,0,0.047429,27.948,-18.091)"
       gradientUnits="userSpaceOnUse">
      <stop
         stop-color="#7ccbea"
         offset="0"
         id="stop440" />
      <stop
         stop-color="#00b9ff"
         offset="1"
         id="stop442" />
    </linearGradient>
    <linearGradient
       id="g-6"
       x1="22"
       x2="43"
       y1="49"
       y2="16"
       gradientUnits="userSpaceOnUse">
      <stop
         stop-color="#00b2ed"
         offset="0"
         id="stop447" />
      <stop
         stop-color="#009bdb"
         offset="1"
         id="stop449" />
    </linearGradient>
    <filter
       id="j"
       x="-0.064163411"
       y="-0.056344404"
       width="1.1283268"
       height="1.1126888"
       color-interpolation-filters="sRGB">
      <feGaussianBlur
         stdDeviation="0.96245117"
         id="feGaussianBlur456" />
    </filter>
    <linearGradient
       id="b-7"
       x1="25.360001"
       x2="422.28"
       y1="1469.4"
       y2="819.97998"
       gradientTransform="matrix(0.035272,0,0,0.033878,29.106,-3.7792)"
       gradientUnits="userSpaceOnUse"
       xlink:href="#c-3" />
    <linearGradient
       id="h"
       x1="23"
       x2="40"
       y1="46"
       y2="19"
       gradientUnits="userSpaceOnUse"
       xlink:href="#c-3" />
    <filter
       id="k"
       x="-0.064000001"
       y="-0.056470589"
       width="1.128"
       height="1.1129412"
       color-interpolation-filters="sRGB">
      <feGaussianBlur
         stdDeviation="0.8"
         id="feGaussianBlur453" />
    </filter>
    <filter
       inkscape:collect="always"
       style="color-interpolation-filters:sRGB"
       id="filter1057"
       x="-0.026999999"
       width="1.054"
       y="-0.026999999"
       height="1.054">
      <feGaussianBlur
         inkscape:collect="always"
         stdDeviation="0.61875"
         id="feGaussianBlur1059" />
    </filter>
    <linearGradient
       inkscape:collect="always"
       xlink:href="#linearGradient1051"
       id="linearGradient1053"
       x1="-127"
       y1="60"
       x2="-72"
       y2="5"
       gradientUnits="userSpaceOnUse"
       gradientTransform="translate(131.5,-0.5100004)" />
    <linearGradient
       inkscape:collect="always"
       id="linearGradient1051">
      <stop
         style="stop-color:#dee0e2;stop-opacity:1"
         offset="0"
         id="stop1047" />
      <stop
         style="stop-color:#f1f3f5;stop-opacity:0.99607843"
         offset="1"
         id="stop1049" />
    </linearGradient>
    <linearGradient
       inkscape:collect="always"
       xlink:href="#b"
       id="linearGradient605"
       gradientUnits="userSpaceOnUse"
       gradientTransform="translate(-5.01e-4,-0.001)"
       x1="36.098"
       y1="46.81"
       x2="32.396"
       y2="28.042" />
    <linearGradient
       inkscape:collect="always"
       xlink:href="#c"
       id="linearGradient607"
       gradientUnits="userSpaceOnUse"
       gradientTransform="translate(-5.01e-4,-0.001)"
       x1="24.421"
       y1="28.473"
       x2="15.521"
       y2="46.666" />
    <linearGradient
       inkscape:collect="always"
       xlink:href="#a"
       id="linearGradient609"
       gradientUnits="userSpaceOnUse"
       gradientTransform="translate(-5.01e-4,-0.001)"
       x1="28.621"
       y1="19.562"
       x2="41.413"
       y2="31.844" />
  </defs>
  <rect
     style="opacity:0.3;fill:#141414;fill-opacity:1;stroke-width:2.74436;stroke-linecap:round;filter:url(#filter1057)"
     id="rect1055"
     width="55"
     height="55"
     x="4.4999995"
     y="4.4999995"
     ry="15" />
  <rect
     ry="14.999999"
     y="4.5000019"
     x="4.5000019"
     height="54.999996"
     width="54.999996"
     id="rect1045"
     style="fill:url(#linearGradient1053);fill-opacity:1;stroke-width:2.74436;stroke-linecap:round" />
  <path
     d="m 30.654501,12.999 -15.438002,8.868 16.861002,9.737 16.706,-9.737 -15.28,-8.868 v 6.81 l 6.018,3.482 c 0.238,0.079 0.238,0.476 0,0.635 l -7.125,4.115 c -0.238,0.08 -0.477,0.08 -0.635,0 l -7.125002,-4.115 c -0.238,-0.08 -0.238,-0.477 0,-0.635 l 6.018002,-3.483 z m 18.13,8.868 -16.706,9.739 -16.861002,-9.739 v 17.655 l 5.857,-3.405 V 29.23 c 0,-0.237 0.316,-0.397 0.475,-0.318 l 7.127002,4.117 c 0.238,0.08 0.316,0.316 0.316,0.633 v 8.235 c 0.159,0.237 -0.159,0.395 -0.396,0.316 l -6.018002,-3.482 -5.857,3.402 15.357002,8.868 15.28,-8.868 -5.858,-3.402 -6.018,3.562 c -0.237,0.159 -0.474,-0.08 -0.474,-0.318 v -8.233 c 0,-0.237 0.158,-0.474 0.316,-0.633 l 7.125,-4.117 c 0.238,-0.158 0.477,0.079 0.477,0.316 v 6.887 l 5.857,3.405 z"
     fill="#333"
     style="fill:url(#linearGradient605);fill-opacity:1"
     id="path594" />
  <path
     class="st1"
     d="m 28.595501,42.212 -6.017002,-3.483 -5.858,3.404 15.358002,8.866 V 31.604 L 15.215499,21.866 v 17.654 -0.079 0.08 l 5.859,-3.405 v -6.887 c 0,-0.238 0.316,-0.396 0.475,-0.317 l 7.125002,4.117 c 0.237,0.079 0.316,0.316 0.316,0.633 v 8.233 c 0.159,0.238 -0.158,0.396 -0.395,0.317 z"
     fill="#fff"
     opacity="0.1"
     style="fill:url(#linearGradient607);fill-opacity:1"
     id="path596" />
  <path
     class="st0"
     d="m 33.503501,12.999 v 6.808 l 6.017,3.484 c 0.237,0.079 0.237,0.475 0,0.633 l -7.125,4.117 c -0.238,0.079 -0.475,0.079 -0.634,0 l -7.125002,-4.117 c -0.237,-0.08 -0.237,-0.475 0,-0.633 l 6.017002,-3.484 v -6.808 l -15.438002,8.867 16.863002,9.737 16.704,-9.737 z"
     fill="#fff"
     opacity="0.2"
     style="fill:url(#linearGradient609);fill-opacity:1"
     id="path598" />
</svg>
