<?xml version="1.0" encoding="UTF-8"?>
<!-- Created with Inkscape (http://www.inkscape.org/) -->
<svg width="64" height="64" version="1.1" viewBox="0 0 16.933 16.933" xmlns="http://www.w3.org/2000/svg" xmlns:cc="http://creativecommons.org/ns#" xmlns:dc="http://purl.org/dc/elements/1.1/" xmlns:rdf="http://www.w3.org/1999/02/22-rdf-syntax-ns#">
 <defs>
  <filter id="filter2761" x="-.024" y="-.024" width="1.048" height="1.048" color-interpolation-filters="sRGB">
   <feGaussianBlur stdDeviation="0.14552168"/>
  </filter>
  <linearGradient id="linearGradient1024" x1="1.3315" x2="15.65" y1="15.576" y2="1.17" gradientTransform="translate(0 -.07421)" gradientUnits="userSpaceOnUse">
   <stop stop-color="#ffc841" offset="0"/>
   <stop stop-color="#ffbe37" offset=".5167"/>
   <stop stop-color="#ffc841" offset="1"/>
  </linearGradient>
  <filter id="filter1262" x="-.36" y="-.36" width="1.72" height="1.72" color-interpolation-filters="sRGB">
   <feGaussianBlur stdDeviation="1.0799994"/>
  </filter>
  <filter id="filter1025" x="-.192" y="-.192" width="1.384" height="1.384" color-interpolation-filters="sRGB">
   <feGaussianBlur stdDeviation="0.598736"/>
  </filter>
  <filter id="filter1029" x="-.072" y="-.072" width="1.144" height="1.144" color-interpolation-filters="sRGB">
   <feGaussianBlur stdDeviation="0.79199999"/>
  </filter>
 </defs>
 <metadata>
  <rdf:RDF>
   <cc:Work rdf:about="">
    <dc:format>image/svg+xml</dc:format>
    <dc:type rdf:resource="http://purl.org/dc/dcmitype/StillImage"/>
    <dc:title/>
   </cc:Work>
  </rdf:RDF>
 </metadata>
 <path d="m10.709 1.05c4.405 0 5.0345 0.67282 5.0345 5.388v3.7761c0 4.7152-0.62954 5.388-5.0345 5.388h-4.4832c-4.405 0-5.0346-0.6728-5.0346-5.388v-3.7761c0-4.7152 0.62954-5.388 5.0346-5.388z" enable-background="new" fill="#141414" filter="url(#filter2761)" opacity=".3"/>
 <path d="m10.709 0.97579c4.405 0 5.0345 0.67282 5.0345 5.388v3.7761c0 4.7152-0.62954 5.388-5.0345 5.388h-4.4832c-4.405 0-5.0346-0.6728-5.0346-5.388v-3.7761c0-4.7152 0.62954-5.388 5.0346-5.388z" enable-background="new" fill="url(#linearGradient1024)"/>
 <g transform="matrix(1.3006 0 0 1.34 -2.545 -2.4264)" fill="#f08705">
  <path d="m3.9856 6.9374c-0.00585 0.029589-0.00947 0.060448-0.015081 0.09077h8.9931c-0.0053-0.030317-0.0092-0.061202-0.01567-0.09077z" opacity=".6" stroke-width=".60512" style="paint-order:normal"/>
  <path d="m4.1332 4.9655c0.00521 0.030317 0.010173 0.060579 0.015962 0.09077h8.6371c0.0054-0.032616 0.01-0.058576 0.01482-0.09077z" opacity=".6" stroke-width=".59404" style="paint-order:normal"/>
  <path d="m3.9856 8.9093c-0.00585 0.029589-0.00947 0.060448-0.015081 0.09077h8.9931c-0.0053-0.030317-0.0092-0.061202-0.01567-0.09077z" opacity=".6" stroke-width=".60512" style="paint-order:normal"/>
  <path d="m3.9856 10.881c-0.00585 0.02959-0.00947 0.06045-0.015081 0.09077h8.9931c-0.0053-0.03032-0.0092-0.0612-0.01567-0.09077z" opacity=".6" stroke-width=".60512" style="paint-order:normal"/>
 </g>
 <g transform="translate(-3.2682 -3.3498)">
  <g transform="translate(3.1219 3.6428)" fill="none">
   <path transform="matrix(.26458 0 0 .26458 .31705 -.43674)" d="m47.979 48.353-7.4842-7.4842" color="#000000" filter="url(#filter1025)" image-rendering="optimizeSpeed" opacity=".6" stroke="#fa7846" stroke-width="3.6"/>
   <circle transform="matrix(.26458 0 0 .26458 .31705 -.43674)" cx="28.4" cy="28.774" r="13.2" color="#000000" filter="url(#filter1029)" image-rendering="optimizeSpeed" opacity=".6" stroke="#fa7846" stroke-width="2.4"/>
   <path d="m11.163 10.508-0.79207-0.79207" color="#000000" fill="#f69e1a" image-rendering="optimizeSpeed" stroke="#f5a019" stroke-width=".63499"/>
  </g>
  <circle cx="10.953" cy="10.819" r="3.4924" color="#000000" fill="#fff" fill-opacity=".5098" image-rendering="optimizeSpeed" stroke="#fafafa" stroke-width=".63499"/>
  <path d="m16.133 15.999-1.9802-1.9802" color="#000000" fill="none" image-rendering="optimizeSpeed" stroke="#ffe664" stroke-width=".95248"/>
  <circle transform="matrix(.26458 0 0 .26458 3.439 3.2061)" cx="24.8" cy="25.174" r="3.6" color="#000000" fill="#fff" fill-opacity=".3937" filter="url(#filter1262)" image-rendering="optimizeSpeed"/>
 </g>
</svg>
