<?xml version="1.0" encoding="UTF-8"?>
<svg width="64" height="64" version="1.1" viewBox="0 0 16.933 16.933" xmlns="http://www.w3.org/2000/svg" xmlns:cc="http://creativecommons.org/ns#" xmlns:dc="http://purl.org/dc/elements/1.1/" xmlns:rdf="http://www.w3.org/1999/02/22-rdf-syntax-ns#" xmlns:xlink="http://www.w3.org/1999/xlink">
 <defs>
  <filter id="filter1025" x="-.192" y="-.192" width="1.384" height="1.384" color-interpolation-filters="sRGB">
   <feGaussianBlur stdDeviation="0.598736"/>
  </filter>
  <filter id="filter1029" x="-.072" y="-.072" width="1.144" height="1.144" color-interpolation-filters="sRGB">
   <feGaussianBlur stdDeviation="0.79199999"/>
  </filter>
  <filter id="filter1262" x="-.36" y="-.36" width="1.72" height="1.72" color-interpolation-filters="sRGB">
   <feGaussianBlur stdDeviation="1.0799994"/>
  </filter>
  <filter id="filter2076-7-3" x="-.048" y="-.048" width="1.096" height="1.096" color-interpolation-filters="sRGB">
   <feGaussianBlur stdDeviation="1.1"/>
  </filter>
  <linearGradient id="linearGradient2070-9-0" x1="145" x2="200" y1="59" y2="4" gradientTransform="matrix(.2646 0 0 .2646 -37.175 .13192)" gradientUnits="userSpaceOnUse">
   <stop stop-color="#ffc841" offset="0"/>
   <stop stop-color="#ffbe37" offset=".4925"/>
   <stop stop-color="#ffc841" offset="1"/>
  </linearGradient>
 </defs>
 <metadata>
  <rdf:RDF>
   <cc:Work rdf:about="">
    <dc:format>image/svg+xml</dc:format>
    <dc:type rdf:resource="http://purl.org/dc/dcmitype/StillImage"/>
    <dc:title/>
   </cc:Work>
  </rdf:RDF>
 </metadata>
 <rect transform="matrix(.2646 0 0 .2646 -.00037978 -.00037979)" x="4.5" y="4.5" width="55" height="55" rx="13.002" ry="13.002" filter="url(#filter2076-7-3)" opacity=".3"/>
 <rect x="1.1902" y="1.1902" width="14.552" height="14.552" rx="3.4402" ry="3.4402" fill="url(#linearGradient2070-9-0)" stroke-width=".26458"/>
 <g transform="matrix(1 0 0 1 -3.5344 -1.2193)" fill="#f08705">
  <path d="m6.1719 8.2293c-0.00761 0.03965-0.012317 0.081002-0.019614 0.12163h11.697c-0.0069-0.040626-0.01197-0.082013-0.02038-0.12163z" opacity=".6" stroke-width=".79887" style="paint-order:normal"/>
  <path d="m6.3639 5.5869c0.00678 0.040626 0.013231 0.081178 0.02076 0.12163h11.234c7e-3 -0.043706 0.01301-0.078494 0.01928-0.12163z" opacity=".6" stroke-width=".78424" style="paint-order:normal"/>
  <path d="m6.1719 10.872c-0.00761 0.03965-0.012317 0.081-0.019614 0.12163h11.697c-0.0069-0.04063-0.01197-0.08201-0.02038-0.12163z" opacity=".6" stroke-width=".79887" style="paint-order:normal"/>
  <path d="m6.1719 13.514c-0.00761 0.03965-0.012317 0.081-0.019614 0.12163h11.697c-0.0069-0.04063-0.01197-0.08201-0.02038-0.12163z" opacity=".6" stroke-width=".79887" style="paint-order:normal"/>
 </g>
 <path transform="matrix(.26459 0 0 .26459 .1699 -.00329)" d="m47.979 48.353-7.4842-7.4842" color="#000000" fill="none" filter="url(#filter1025)" image-rendering="optimizeSpeed" opacity=".6" stroke="#fa7846" stroke-width="3.6"/>
 <circle transform="matrix(.26459 0 0 .26459 .1699 -.00329)" cx="28.4" cy="28.774" r="13.2" color="#000000" fill="none" filter="url(#filter1029)" image-rendering="optimizeSpeed" opacity=".6" stroke="#fa7846" stroke-width="2.4"/>
 <path d="m11.016 10.942-0.79209-0.79208" color="#000000" fill="#f69e1a" image-rendering="optimizeSpeed" stroke="#f5a019" stroke-width=".635"/>
 <circle cx="7.6841" cy="7.6098" r="3.4925" color="#000000" fill="#fff" fill-opacity=".5098" image-rendering="optimizeSpeed" stroke="#fafafa" stroke-width=".635"/>
 <path d="m12.864 12.79-1.9802-1.9802" color="#000000" fill="none" image-rendering="optimizeSpeed" stroke="#ffe664" stroke-width=".9525"/>
 <circle transform="matrix(.26459 0 0 .26459 .16995 -.00325)" cx="24.8" cy="25.174" r="3.6" color="#000000" fill="#fff" fill-opacity=".3937" filter="url(#filter1262)" image-rendering="optimizeSpeed"/>
</svg>
