<?xml version="1.0" encoding="utf-8" ?><svg xmlns="http://www.w3.org/2000/svg" xmlns:xlink="http://www.w3.org/1999/xlink" width="1024" height="1024" viewBox="0 0 1024 1024"><path fill="#2CABDE" d="M263.893 76.2378C276.797 75.8297 291.301 76.1534 304.277 76.1764L371.829 76.1999L584.107 76.249L704.323 76.1668C772.11 76.0654 837.341 71.059 891.012 120.299C931.524 157.466 946.033 205.646 947.673 259.313C948.863 298.278 948.416 337.011 948.407 375.89L948.393 569.897L948.383 693.138C948.357 731.094 949.592 771.453 942.523 808.525C930.566 871.238 882.567 923.235 820.446 938.646C800.089 943.697 782.388 945.187 761.396 946.057L757.714 946.206C744.102 946.682 729.64 946.471 715.979 946.473L649.266 946.478L446.864 946.479L326.6 946.493C257.041 946.522 188.362 951.418 133.622 900.37C90.6669 860.31 77.1696 811.739 76.0064 754.371C75.2263 715.902 75.5015 677.579 75.5018 639.143L75.5004 443.422L75.5113 324.531C75.5186 287.398 74.6072 251.452 81.1866 214.932C92.8225 150.346 138.661 99.2513 202.779 83.4471C223.694 78.2919 242.21 76.8099 263.893 76.2378Z"/><path fill="#FEFEFE" d="M327.11 853.196C180.982 775.511 98.8745 614.878 121.496 450.937C144.117 286.996 266.658 154.601 428.364 119.392C590.069 84.1833 756.561 153.646 845.294 293.342C941.316 444.513 923.462 641.399 801.812 772.831C680.163 904.263 485.243 937.262 327.11 853.196Z"/><defs><linearGradient id="gradient_0" gradientUnits="userSpaceOnUse" x1="581.75293" y1="570.78485" x2="789.56451" y2="784.09174"><stop offset="0" stop-color="#0F82C0"/><stop offset="1" stop-color="#169ADC"/></linearGradient></defs><path fill="url(#gradient_0)" d="M840.947 288.122C845.998 297.792 849.937 305.513 854.351 315.472L854.676 315.152C854.578 314.868 852.799 309.915 852.793 309.873C852.176 305.343 845.456 296.852 845.294 293.342C941.316 444.513 923.462 641.399 801.812 772.831C680.163 904.263 485.243 937.262 327.11 853.196C327.272 851.538 319.886 844.002 318.292 840.864C313.761 835.464 303.13 822.817 301.158 816.674C316.382 823.794 324.196 811.57 334.095 801.632L357.525 778.098L785.34 344.611C797.853 331.337 811.26 318.446 824.008 305.393C827.409 301.911 839.035 291.191 840.947 288.122Z"/><defs><linearGradient id="gradient_1" gradientUnits="userSpaceOnUse" x1="570.9646" y1="559.71191" x2="684.29834" y2="673.21637"><stop offset="0" stop-color="#003D64"/><stop offset="1" stop-color="#0E6899"/></linearGradient></defs><path fill="url(#gradient_1)" d="M785.34 344.611C788.496 346.91 797.73 362.592 797.76 366.129C793.322 369.043 782.761 382.847 778.532 387.262C770.922 395.208 762.987 403.145 754.632 410.366C752.369 412.322 745.098 417.793 744.585 420.45C744.33 421.769 747.486 430.081 748.03 432.585C750.417 443.569 752.611 454.111 754.137 465.243C764.863 543.503 740.85 616.544 686.105 673.294C642.151 718.86 580.842 744.937 517.673 745.701C492.599 746.005 447.68 739.233 425.416 728.432C424.118 730.277 423.238 731.765 422.047 733.557C410.676 750.676 393.798 765.371 377.433 777.652C373.278 780.77 375.287 781.046 369.667 784.307L369.929 784.736C367.85 784.684 359.748 779.473 357.525 778.098L785.34 344.611Z"/><defs><linearGradient id="gradient_2" gradientUnits="userSpaceOnUse" x1="581.36523" y1="573.10199" x2="734.67981" y2="727.37079"><stop offset="0" stop-color="#086093"/><stop offset="1" stop-color="#1285BE"/></linearGradient></defs><path fill="url(#gradient_2)" d="M425.416 728.432C447.68 739.233 492.599 746.005 517.673 745.701C580.842 744.937 642.151 718.86 686.105 673.294C740.85 616.544 764.863 543.503 754.137 465.243C752.611 454.111 750.417 443.569 748.03 432.585C747.486 430.081 744.33 421.769 744.585 420.45C745.098 417.793 752.369 412.322 754.632 410.366C762.987 403.145 770.922 395.208 778.532 387.262C782.761 382.847 793.322 369.043 797.76 366.129C802.354 377.302 808.033 387.447 811.382 399.205C812.024 401.458 814.4 410.335 815.342 411.843C818.877 426.074 821.876 438.77 823.888 453.331C834.302 528.673 821.236 602.775 782.46 668.207C707.79 794.208 551.068 851.839 412.771 803.395C406.967 801.362 391.148 796.853 386.865 793.854L390.37 794.387C389.738 793.786 371.859 785.539 369.929 784.736L369.667 784.307C375.287 781.046 373.278 780.77 377.433 777.652C393.798 765.371 410.676 750.676 422.047 733.557C423.238 731.765 424.118 730.277 425.416 728.432Z"/><defs><linearGradient id="gradient_3" gradientUnits="userSpaceOnUse" x1="807.18744" y1="320.1907" x2="833.88483" y2="342.82697"><stop offset="0" stop-color="#00497A"/><stop offset="1" stop-color="#076299"/></linearGradient></defs><path fill="url(#gradient_3)" d="M840.947 288.122C845.998 297.792 849.937 305.513 854.351 315.472C855.932 319.923 859.968 328.954 860.779 332.785L860.497 333.197C859.683 331.151 856.282 321.596 855.388 320.507C851.707 319.29 845.792 329.597 843.162 332.547L803.623 376.424C805.806 381.52 816.122 407.433 815.342 411.843C814.4 410.335 812.024 401.458 811.382 399.205C808.033 387.447 802.354 377.302 797.76 366.129C797.73 362.592 788.496 346.91 785.34 344.611C797.853 331.337 811.26 318.446 824.008 305.393C827.409 301.911 839.035 291.191 840.947 288.122Z"/><path fill="#0F79B0" d="M301.158 816.674C316.382 823.794 324.196 811.57 334.095 801.632L357.525 778.098C359.748 779.473 367.85 784.684 369.929 784.736C371.859 785.539 389.738 793.786 390.37 794.387L386.865 793.854C384.763 793.607 381.345 791.777 379.14 790.91C369.399 803.201 354.988 817.802 339.756 822.856C333.635 824.888 316.848 827.691 314.885 834.921C315.798 838.232 318.149 837.823 318.292 840.864C313.761 835.464 303.13 822.817 301.158 816.674Z"/><path fill="#1494D4" d="M327.11 853.196C180.982 775.511 98.8745 614.878 121.496 450.937C144.117 286.996 266.658 154.601 428.364 119.392C590.069 84.1833 756.561 153.646 845.294 293.342C845.456 296.852 852.176 305.343 852.793 309.873C852.799 309.915 854.578 314.868 854.676 315.152L854.351 315.472C849.937 305.513 845.998 297.792 840.947 288.122C839.616 284.68 837.856 284.091 834.219 284.018C824.089 283.815 813.929 284.038 803.788 284.043L740.249 284.007L672.24 284.158C662.364 284.219 651.413 283.858 641.61 285.143C638.893 285.499 635.276 289.758 633.471 291.781C628.654 288.32 623.709 285.683 618.458 283.039C555.709 251.45 480.517 250.269 416.631 279.401C412.328 281.364 402.376 285.494 399.108 288.624C391.959 284.183 388.081 284.845 379.887 284.794L285.337 284.873L261.119 284.761C233.025 284.41 233.907 282.307 233.989 310.594L234.082 340.96C234.083 343.171 234.169 350.42 233.751 352.219L235.496 354.737C237.275 361.58 273.443 420.723 278.956 427.358L278.871 427.856C277.933 433.098 276.073 438.465 274.788 443.685C263.587 489.202 266.353 538.353 281.456 582.648C284.11 590.432 287.182 599.726 291.465 606.634L291.504 729.044L291.992 769.784C292.044 781.359 291.422 794.257 293.407 805.634C294.174 810.037 297.941 813.745 301.158 816.674C303.13 822.817 313.761 835.464 318.292 840.864C319.886 844.002 327.272 851.538 327.11 853.196Z"/><path fill="#0F79B0" d="M284.309 284.266C299.247 266.365 327.84 244.237 347.313 232.082C462.742 160.031 618.349 171.818 719.843 263.298C725.443 268.345 736.34 277.75 740.249 284.007L672.24 284.158C662.364 284.219 651.413 283.858 641.61 285.143C638.893 285.499 635.276 289.758 633.471 291.781C628.654 288.32 623.709 285.683 618.458 283.039C555.709 251.45 480.517 250.269 416.631 279.401C412.328 281.364 402.376 285.494 399.108 288.624C391.959 284.183 388.081 284.845 379.887 284.794C378.183 283.994 293.439 284.413 284.309 284.266Z"/><path fill="#0F79B0" d="M233.751 352.219L235.496 354.737C237.275 361.58 273.443 420.723 278.956 427.358L278.871 427.856C277.933 433.098 276.073 438.465 274.788 443.685C263.587 489.202 266.353 538.353 281.456 582.648C284.11 590.432 287.182 599.726 291.465 606.634L291.504 729.044C278.414 717.128 266.77 702.717 256.213 688.603C187.488 596.728 178.634 467.519 226.88 364.476C228.299 361.446 231.371 353.924 233.751 352.219Z"/><defs><linearGradient id="gradient_4" gradientUnits="userSpaceOnUse" x1="349.89792" y1="457.70306" x2="575.18756" y2="235.03137"><stop offset="0" stop-color="#024770"/><stop offset="1" stop-color="#0D6696"/></linearGradient></defs><path fill="url(#gradient_4)" d="M399.108 288.624C402.376 285.494 412.328 281.364 416.631 279.401C480.517 250.269 555.709 251.45 618.458 283.039C623.709 285.683 628.654 288.32 633.471 291.781L487.691 440.83L436.533 493.206C430.78 499.093 415.471 515.49 409.508 520.032L409.004 519.831C406.796 513.614 408.003 463.536 407.998 452.76L407.148 352.88C406.994 337.553 407.246 322.133 406.995 306.812C406.877 299.624 405.063 294.036 399.6 289.063L399.108 288.624Z"/><defs><linearGradient id="gradient_5" gradientUnits="userSpaceOnUse" x1="224.85355" y1="362.58411" x2="339.53455" y2="574.14929"><stop offset="0" stop-color="#01426C"/><stop offset="1" stop-color="#0E6A9A"/></linearGradient></defs><path fill="url(#gradient_5)" d="M235.496 354.737C239.086 355.679 242.107 355.673 245.921 355.892C258.752 356.629 272.568 354.767 285.18 356.815C289.55 357.524 291.376 364.337 291.359 367.892C291.632 378.142 291.51 388.463 291.499 398.733L291.473 455.096C291.478 505.215 292.087 556.622 291.465 606.634C287.182 599.726 284.11 590.432 281.456 582.648C266.353 538.353 263.587 489.202 274.788 443.685C276.073 438.465 277.933 433.098 278.871 427.856L278.956 427.358C273.443 420.723 237.275 361.58 235.496 354.737Z"/></svg>