<?xml version="1.0" encoding="UTF-8" standalone="no"?>
<svg
   width="64"
   height="64"
   version="1.1"
   id="svg17"
   sodipodi:docname="vvave.svg"
   inkscape:version="1.2.2 (b0a8486541, 2022-12-01)"
   xmlns:inkscape="http://www.inkscape.org/namespaces/inkscape"
   xmlns:sodipodi="http://sodipodi.sourceforge.net/DTD/sodipodi-0.dtd"
   xmlns="http://www.w3.org/2000/svg"
   xmlns:svg="http://www.w3.org/2000/svg">
  <sodipodi:namedview
     id="namedview19"
     pagecolor="#ffffff"
     bordercolor="#999999"
     borderopacity="1"
     inkscape:showpageshadow="0"
     inkscape:pageopacity="0"
     inkscape:pagecheckerboard="0"
     inkscape:deskcolor="#d1d1d1"
     showgrid="false"
     inkscape:zoom="8.0234375"
     inkscape:cx="68.923077"
     inkscape:cy="13.772152"
     inkscape:window-width="3840"
     inkscape:window-height="1979"
     inkscape:window-x="1920"
     inkscape:window-y="52"
     inkscape:window-maximized="1"
     inkscape:current-layer="svg17" />
  <defs
     id="defs7">
    <linearGradient
       id="a"
       x1="7.937"
       x2="7.937"
       y1="15.081"
       y2="1.852"
       gradientTransform="scale(3.7796)"
       gradientUnits="userSpaceOnUse">
      <stop
         stop-color="#e91e63"
         offset="0"
         id="stop2" />
      <stop
         stop-color="#f06292"
         offset="1"
         id="stop4" />
    </linearGradient>
    <filter
       id="filter1057"
       x="-0.026999999"
       y="-0.026999999"
       width="1.054"
       height="1.054"
       color-interpolation-filters="sRGB">
      <feGaussianBlur
         stdDeviation="0.61875"
         id="feGaussianBlur256" />
    </filter>
    <linearGradient
       id="linearGradient1053"
       x1="-127"
       x2="-72"
       y1="60"
       y2="5"
       gradientTransform="translate(131.5,-0.50999968)"
       gradientUnits="userSpaceOnUse">
      <stop
         stop-color="#eb3f78"
         offset="0"
         id="stop259" />
      <stop
         stop-color="#ec497e"
         offset="1"
         id="stop261" />
    </linearGradient>
  </defs>
  <rect
     x="4.4999995"
     y="4.4999995"
     width="55"
     height="55"
     ry="15"
     fill="#141414"
     filter="url(#filter1057)"
     opacity="0.3"
     stroke-linecap="round"
     stroke-width="2.7444"
     id="rect316" />
  <rect
     x="4.5"
     y="4.5"
     width="55"
     height="55"
     ry="15"
     fill="url(#linearGradient1053)"
     stroke-linecap="round"
     stroke-width="2.7444"
     id="rect318"
     style="fill:url(#linearGradient1053)" />
  <path
     d="m 24,18 v 4 h 4 v -4 z m 12,0 v 4 h 4 v -4 z m -18,2 v 4 h 4 v -4 z m 24,0 v 4 h 4 v -4 z m -30,2 v 4 h 4 v -4 z m 18,0 v 4 h 4 v -4 z m 18,0 v 4 h 4 v -4 z m -24,2 v 4 h 4 v -4 z m 12,0 v 4 h 4 v -4 z m -18,2 v 4 h 4 v -4 z m 24,0 v 4 h 4 v -4 z m -30,2 v 4 h 4 v -4 z m 18,0 v 4 h 4 v -4 z m 18,0 v 4 h 4 v -4 z m -24,2 v 4 h 4 v -4 z m 12,0 v 4 h 4 v -4 z m -18,2 v 4 h 4 v -4 z m 24,0 v 4 h 4 v -4 z m -30,2 v 4 h 4 v -4 z m 18,0 v 4 h 4 v -4 z m 18,0 v 4 h 4 v -4 z m -24,2 v 4 h 4 v -4 z m 12,0 v 4 h 4 v -4 z m -18,2 v 4 h 4 v -4 z m 24,0 v 4 h 4 v -4 z m -12,2 v 4 h 4 v -4 z m -6,2 v 4 h 4 v -4 z m 12,0 v 4 h 4 v -4 z m -6,4 v 4 h 4 v -4 z"
     fill="#fce4ec"
     id="path13" />
</svg>
