<?xml version="1.0" encoding="UTF-8" standalone="no"?>
<svg
   width="64"
   height="64"
   version="1.1"
   id="svg24"
   sodipodi:docname="wallstreet-control.svg"
   inkscape:version="1.2.2 (b0a8486541, 2022-12-01)"
   xmlns:inkscape="http://www.inkscape.org/namespaces/inkscape"
   xmlns:sodipodi="http://sodipodi.sourceforge.net/DTD/sodipodi-0.dtd"
   xmlns="http://www.w3.org/2000/svg"
   xmlns:svg="http://www.w3.org/2000/svg">
  <sodipodi:namedview
     id="namedview26"
     pagecolor="#ffffff"
     bordercolor="#999999"
     borderopacity="1"
     inkscape:showpageshadow="0"
     inkscape:pageopacity="0"
     inkscape:pagecheckerboard="0"
     inkscape:deskcolor="#d1d1d1"
     showgrid="false"
     inkscape:zoom="16.046875"
     inkscape:cx="63.875365"
     inkscape:cy="30.317429"
     inkscape:window-width="3840"
     inkscape:window-height="1979"
     inkscape:window-x="1920"
     inkscape:window-y="52"
     inkscape:window-maximized="1"
     inkscape:current-layer="svg24" />
  <defs
     id="defs12">
    <linearGradient
       id="a"
       x1="7.937"
       x2="7.937"
       y1="15.081"
       y2="1.852"
       gradientTransform="matrix(3.7796,0,0,3.7796,1.2586721,-21.92)"
       gradientUnits="userSpaceOnUse">
      <stop
         stop-color="#a91ea9"
         offset="0"
         id="stop2" />
      <stop
         stop-color="#dc3fdf"
         offset="1"
         id="stop4" />
    </linearGradient>
    <linearGradient
       id="b"
       x1="32"
       x2="32"
       y1="56"
       y2="8"
       gradientTransform="matrix(.91668 0 0 .91667 2.875 2.717)"
       gradientUnits="userSpaceOnUse">
      <stop
         stop-color="#f4c3f4"
         offset="0"
         id="stop7" />
      <stop
         stop-color="#fff"
         offset="1"
         id="stop9" />
    </linearGradient>
    <filter
       id="filter1057"
       x="-0.026999999"
       y="-0.026999999"
       width="1.054"
       height="1.054"
       color-interpolation-filters="sRGB">
      <feGaussianBlur
         stdDeviation="0.61875"
         id="feGaussianBlur279" />
    </filter>
    <linearGradient
       id="linearGradient1053"
       x1="-127"
       x2="-72"
       y1="60"
       y2="5"
       gradientTransform="matrix(0.26458,0,0,0.26458,20.93,4.2443)"
       gradientUnits="userSpaceOnUse">
      <stop
         stop-color="#a53cff"
         offset="0"
         id="stop282" />
      <stop
         stop-color="#b496ff"
         offset="1"
         id="stop284" />
    </linearGradient>
    <radialGradient
       id="radialGradient1028"
       cx="17.056"
       cy="16.999001"
       r="7.1673002"
       gradientTransform="matrix(2.263528,0,0,2.263528,60.727011,-2.0156838)"
       gradientUnits="userSpaceOnUse">
      <stop
         stop-opacity="0"
         offset="0"
         id="stop255" />
      <stop
         stop-opacity="0"
         offset=".63229"
         id="stop257" />
      <stop
         stop-opacity=".0078431"
         offset=".64048"
         id="stop259" />
      <stop
         stop-opacity=".019608"
         offset=".6508"
         id="stop261" />
      <stop
         stop-opacity=".031373"
         offset=".6625"
         id="stop263" />
      <stop
         stop-opacity=".047059"
         offset=".67694"
         id="stop265" />
      <stop
         stop-opacity=".070588"
         offset=".69414"
         id="stop267" />
      <stop
         stop-opacity=".086275"
         offset=".70859"
         id="stop269" />
      <stop
         stop-opacity=".9"
         offset="1"
         id="stop271" />
    </radialGradient>
    <linearGradient
       id="linearGradient1026"
       x1="18.527"
       x2="18.527"
       y1="9.2110996"
       y2="26.183001"
       gradientTransform="matrix(1.889801,0,0,1.889801,67.511396,1.8311951)"
       gradientUnits="userSpaceOnUse">
      <stop
         stop-color="#fff"
         offset="0"
         id="stop274" />
      <stop
         stop-color="#e1b2fb"
         offset="1"
         id="stop276" />
    </linearGradient>
  </defs>
  <g
     transform="matrix(3.779602,0,0,3.779602,52.396395,-16.551861)"
     stroke-linecap="round"
     id="g295">
    <rect
       transform="matrix(0.26458,0,0,0.26458,-13.863,4.3792)"
       x="4.5"
       y="4.5"
       width="55"
       height="55"
       ry="15"
       fill="#141414"
       filter="url(#filter1057)"
       opacity="0.3"
       stroke-width="2.7444"
       id="rect291" />
    <rect
       x="-12.672"
       y="5.5697999"
       width="14.552"
       height="14.552"
       ry="3.9686999"
       fill="url(#linearGradient1053)"
       stroke-width="0.7261"
       id="rect293"
       style="fill:url(#linearGradient1053)" />
  </g>
  <rect
     width="64"
     height="64"
     rx="0"
     ry="0"
     fill="none"
     id="rect14" />
  <path
     d="m 36.761862,31.510451 -3.352156,1.006997 1.073589,3.574433 a 4.7875093,4.7875093 0 0 0 0.0468,-0.0279 4.7875093,4.7875093 0 0 0 0.128686,-0.08369 4.7875093,4.7875093 0 0 0 0.125988,-0.08729 4.7875093,4.7875093 0 0 0 0.123287,-0.09089 4.7875093,4.7875093 0 0 0 0.120588,-0.09539 4.7875093,4.7875093 0 0 0 0.116988,-0.09899 4.7875093,4.7875093 0 0 0 0.114288,-0.10259 4.7875093,4.7875093 0 0 0 0.110689,-0.106189 4.7875093,4.7875093 0 0 0 0.107988,-0.109788 4.7875093,4.7875093 0 0 0 0.10259,-0.113389 4.7875093,4.7875093 0 0 0 0.09989,-0.116088 4.7875093,4.7875093 0 0 0 0.09629,-0.119687 4.7875093,4.7875093 0 0 0 0.09269,-0.122388 4.7875093,4.7875093 0 0 0 0.08819,-0.125987 4.7875093,4.7875093 0 0 0 0.08369,-0.127787 4.7875093,4.7875093 0 0 0 0.08099,-0.130487 4.7875093,4.7875093 0 0 0 0.07559,-0.134086 4.7875093,4.7875093 0 0 0 0.07199,-0.134986 4.7875093,4.7875093 0 0 0 0.06659,-0.138586 4.7875093,4.7875093 0 0 0 0.06299,-0.139486 4.7875093,4.7875093 0 0 0 0.05759,-0.142185 4.7875093,4.7875093 0 0 0 0.054,-0.143985 4.7875093,4.7875093 0 0 0 0.04859,-0.145785 4.7875093,4.7875093 0 0 0 0.045,-0.145785 4.7875093,4.7875093 0 0 0 0.0396,-0.148485 4.7875093,4.7875093 0 0 0 0.0342,-0.149385 4.7875093,4.7875093 0 0 0 0.0297,-0.151184 4.7875093,4.7875093 0 0 0 0.0252,-0.151185 4.7875093,4.7875093 0 0 0 0.0207,-0.152084 4.7875093,4.7875093 0 0 0 0.0153,-0.152985 4.7875093,4.7875093 0 0 0 0.0108,-0.152984 4.7875093,4.7875093 0 0 0 0.0045,-0.152984 4.7875093,4.7875093 0 0 0 8.99e-4,-0.152985 4.7875093,4.7875093 0 0 0 -0.0045,-0.153884 4.7875093,4.7875093 0 0 0 -0.009,-0.152984 4.7875093,4.7875093 0 0 0 -0.0108,-0.126887 z m -1.260771,7.972283 2.201175,7.331547 L 52,42.521722 47.70744,28.224888 40.123917,30.501654 a 8.2611532,8.2611532 0 0 1 0.027,0.152085 8.2611532,8.2611532 0 0 1 0.0306,0.197979 8.2611532,8.2611532 0 0 1 0.0252,0.19798 8.2611532,8.2611532 0 0 1 0.0207,0.19798 8.2611532,8.2611532 0 0 1 0.0162,0.198879 8.2611532,8.2611532 0 0 1 0.0108,0.19978 8.2611532,8.2611532 0 0 1 0.0063,0.19888 8.2611532,8.2611532 0 0 1 9e-4,0.200679 8.2611532,8.2611532 0 0 1 -0.0036,0.19888 8.2611532,8.2611532 0 0 1 -0.0081,0.199779 8.2611532,8.2611532 0 0 1 -0.0135,0.19888 8.2611532,8.2611532 0 0 1 -0.018,0.198879 8.2611532,8.2611532 0 0 1 -0.0225,0.19798 8.2611532,8.2611532 0 0 1 -0.027,0.19798 8.2611532,8.2611532 0 0 1 -0.0324,0.197979 8.2611532,8.2611532 0 0 1 -0.0369,0.19528 8.2611532,8.2611532 0 0 1 -0.0423,0.19528 8.2611532,8.2611532 0 0 1 -0.04679,0.194381 8.2611532,8.2611532 0 0 1 -0.0504,0.19258 8.2611532,8.2611532 0 0 1 -0.05669,0.19168 8.2611532,8.2611532 0 0 1 -0.06029,0.190781 8.2611532,8.2611532 0 0 1 -0.06479,0.18898 8.2611532,8.2611532 0 0 1 -0.06929,0.186281 8.2611532,8.2611532 0 0 1 -0.07469,0.185381 8.2611532,8.2611532 0 0 1 -0.07829,0.183581 8.2611532,8.2611532 0 0 1 -0.08279,0.181782 8.2611532,8.2611532 0 0 1 -0.08729,0.179981 8.2611532,8.2611532 0 0 1 -0.09179,0.176381 8.2611532,8.2611532 0 0 1 -0.09629,0.175483 8.2611532,8.2611532 0 0 1 -0.09899,0.172781 8.2611532,8.2611532 0 0 1 -0.104389,0.170983 8.2611532,8.2611532 0 0 1 -0.107989,0.166483 8.2611532,8.2611532 0 0 1 -0.112488,0.165583 8.2611532,8.2611532 0 0 1 -0.116988,0.161983 8.2611532,8.2611532 0 0 1 -0.120588,0.159284 8.2611532,8.2611532 0 0 1 -0.123287,0.156584 8.2611532,8.2611532 0 0 1 -0.127787,0.152985 8.2611532,8.2611532 0 0 1 -0.131387,0.151184 8.2611532,8.2611532 0 0 1 -0.134986,0.146685 8.2611532,8.2611532 0 0 1 -0.138586,0.143985 8.2611532,8.2611532 0 0 1 -0.142185,0.140386 8.2611532,8.2611532 0 0 1 -0.143985,0.136786 8.2611532,8.2611532 0 0 1 -0.149385,0.134087 8.2611532,8.2611532 0 0 1 -0.151185,0.129587 8.2611532,8.2611532 0 0 1 -0.155684,0.125987 8.2611532,8.2611532 0 0 1 -0.157484,0.121487 8.2611532,8.2611532 0 0 1 -0.161083,0.118788 8.2611532,8.2611532 0 0 1 -0.163783,0.114288 8.2611532,8.2611532 0 0 1 -0.165583,0.110689 8.2611532,8.2611532 0 0 1 -0.169183,0.106189 8.2611532,8.2611532 0 0 1 -0.170982,0.10259 8.2611532,8.2611532 0 0 1 -0.173683,0.09899 8.2611532,8.2611532 0 0 1 -0.177281,0.09359 8.2611532,8.2611532 0 0 1 -0.178182,0.08999 8.2611532,8.2611532 0 0 1 -0.119688,0.05579 z m -3.31886,-2.699725 -1.07269,-3.575333 -3.347657,1.005197 a 4.7875093,4.7875093 0 0 0 0.110689,0.209678 4.7875093,4.7875093 0 0 0 0.257374,0.39326 4.7875093,4.7875093 0 0 0 0.29427,0.365363 4.7875093,4.7875093 0 0 0 0.329366,0.335665 4.7875093,4.7875093 0 0 0 0.359963,0.301469 4.7875093,4.7875093 0 0 0 0.38786,0.263673 4.7875093,4.7875093 0 0 0 0.412158,0.224977 4.7875093,4.7875093 0 0 0 0.432855,0.184481 4.7875093,4.7875093 0 0 0 0.448155,0.140386 4.7875093,4.7875093 0 0 0 0.458953,0.09629 4.7875093,4.7875093 0 0 0 0.467952,0.0504 4.7875093,4.7875093 0 0 0 0.460752,0.0036 z m -7.784202,-1.56044 -7.586222,2.276767 4.29256,14.298634 14.296834,-4.29256 -2.202074,-7.336048 a 8.2611532,8.2611532 0 0 1 -0.48415,0.06119 8.2611532,8.2611532 0 0 1 -0.617337,0.0297 8.2611532,8.2611532 0 0 1 -0.618237,-0.0153 8.2611532,8.2611532 0 0 1 -0.613737,-0.06299 8.2611532,8.2611532 0 0 1 -0.608337,-0.106188 8.2611532,8.2611532 0 0 1 -0.598439,-0.152984 8.2611532,8.2611532 0 0 1 -0.58584,-0.19798 8.2611532,8.2611532 0 0 1 -0.569642,-0.240275 8.2611532,8.2611532 0 0 1 -0.548943,-0.282571 8.2611532,8.2611532 0 0 1 -0.527346,-0.322167 8.2611532,8.2611532 0 0 1 -0.501249,-0.360863 8.2611532,8.2611532 0 0 1 -0.472451,-0.39686 8.2611532,8.2611532 0 0 1 -0.441855,-0.431956 8.2611532,8.2611532 0 0 1 -0.408558,-0.463452 8.2611532,8.2611532 0 0 1 -0.372562,-0.493149 8.2611532,8.2611532 0 0 1 -0.334766,-0.519247 8.2611532,8.2611532 0 0 1 -0.29517,-0.542645 8.2611532,8.2611532 0 0 1 -0.202479,-0.449054 z m 18.498504,-23.020539 -14.297734,4.29256 2.202074,7.336048 a 8.2611532,8.2611532 0 0 1 0.429256,-0.05579 8.2611532,8.2611532 0 0 1 0.589439,-0.0342 8.2611532,8.2611532 0 0 1 0.58944,0.009 8.2611532,8.2611532 0 0 1 0.58764,0.0495 8.2611532,8.2611532 0 0 1 0.58224,0.09179 8.2611532,8.2611532 0 0 1 0.574141,0.133186 8.2611532,8.2611532 0 0 1 0.563343,0.173682 8.2611532,8.2611532 0 0 1 0.549843,0.214178 8.2611532,8.2611532 0 0 1 0.533646,0.251975 8.2611532,8.2611532 0 0 1 0.512947,0.28977 8.2611532,8.2611532 0 0 1 0.49135,0.325767 8.2611532,8.2611532 0 0 1 0.467952,0.359963 8.2611532,8.2611532 0 0 1 0.440055,0.392359 8.2611532,8.2611532 0 0 1 0.411257,0.422957 8.2611532,8.2611532 0 0 1 0.379761,0.449954 8.2611532,8.2611532 0 0 1 0.347365,0.476951 8.2611532,8.2611532 0 0 1 0.311368,0.501249 8.2611532,8.2611532 0 0 1 0.275372,0.521946 8.2611532,8.2611532 0 0 1 0.164683,0.372562 l 7.587122,-2.277667 z m -6.656618,17.585997 a 4.7875093,4.7875093 0 0 0 -0.07019,-0.138585 4.7875093,4.7875093 0 0 0 -0.233976,-0.374362 4.7875093,4.7875093 0 0 0 -0.269073,-0.350964 4.7875093,4.7875093 0 0 0 -0.298769,-0.325767 4.7875093,4.7875093 0 0 0 -0.328467,-0.296969 4.7875093,4.7875093 0 0 0 -0.354563,-0.264573 4.7875093,4.7875093 0 0 0 -0.377062,-0.230376 4.7875093,4.7875093 0 0 0 -0.395959,-0.19528 4.7875093,4.7875093 0 0 0 -0.413958,-0.157484 4.7875093,4.7875093 0 0 0 -0.425656,-0.118788 4.7875093,4.7875093 0 0 0 -0.435555,-0.07919 4.7875093,4.7875093 0 0 0 -0.440055,-0.0387 4.7875093,4.7875093 0 0 0 -0.377961,0.0018 l 1.07269,3.573533 z M 26.298634,17.185719 12,21.478279 l 4.29256,14.296835 7.587122,-2.276767 a 8.2611532,8.2611532 0 0 1 -0.0306,-0.155684 8.2611532,8.2611532 0 0 1 -0.07559,-0.598439 8.2611532,8.2611532 0 0 1 -0.0324,-0.602038 8.2611532,8.2611532 0 0 1 0.0126,-0.602938 8.2611532,8.2611532 0 0 1 0.05669,-0.600239 8.2611532,8.2611532 0 0 1 0.09899,-0.593939 8.2611532,8.2611532 0 0 1 0.143986,-0.58584 8.2611532,8.2611532 0 0 1 0.184481,-0.574141 8.2611532,8.2611532 0 0 1 0.226776,-0.557944 l 3.021891,1.794417 a 4.7875093,4.7875093 0 0 0 -0.131387,0.437356 4.7875093,4.7875093 0 0 0 -0.08819,0.448154 4.7875093,4.7875093 0 0 0 -0.045,0.454453 4.7875093,4.7875093 0 0 0 -0.0027,0.455353 4.7875093,4.7875093 0 0 0 0.0243,0.270873 l 3.346756,-1.004297 -1.07089,-3.568135 a 4.7875093,4.7875093 0 0 0 -0.156584,0.09359 4.7875093,4.7875093 0 0 0 -0.335665,0.245675 4.7875093,4.7875093 0 0 0 -0.313168,0.272672 L 25.6633,26.714842 a 8.2611532,8.2611532 0 0 1 0.390559,-0.437355 8.2611532,8.2611532 0 0 1 0.420257,-0.408558 8.2611532,8.2611532 0 0 1 0.449054,-0.377961 8.2611532,8.2611532 0 0 1 0.474252,-0.344665 8.2611532,8.2611532 0 0 1 0.497649,-0.310468 8.2611532,8.2611532 0 0 1 0.518347,-0.273572 8.2611532,8.2611532 0 0 1 0.08729,-0.0387 z"
     id="path22"
     style="fill:#ffffff;fill-opacity:1;stroke-width:0.899908" />
</svg>
