<?xml version="1.0" encoding="UTF-8" standalone="no"?>
<svg
   inkscape:version="1.0 (4035a4fb49, 2020-05-01)"
   sodipodi:docname="0ad.svg"
   id="svg44"
   version="1.1"
   height="64"
   width="64"
   inkscape:export-filename="../../../../../../Downloads/warp2.svg"
   inkscape:export-xdpi="96"
   inkscape:export-ydpi="96"
   xmlns:inkscape="http://www.inkscape.org/namespaces/inkscape"
   xmlns:sodipodi="http://sodipodi.sourceforge.net/DTD/sodipodi-0.dtd"
   xmlns:xlink="http://www.w3.org/1999/xlink"
   xmlns="http://www.w3.org/2000/svg"
   xmlns:svg="http://www.w3.org/2000/svg"
   xmlns:rdf="http://www.w3.org/1999/02/22-rdf-syntax-ns#"
   xmlns:cc="http://creativecommons.org/ns#"
   xmlns:dc="http://purl.org/dc/elements/1.1/">
  <sodipodi:namedview
     inkscape:current-layer="svg44"
     inkscape:window-maximized="1"
     inkscape:window-y="36"
     inkscape:window-x="0"
     inkscape:cy="37.207621"
     inkscape:cx="18.135547"
     inkscape:zoom="2.9804688"
     showgrid="false"
     id="namedview46"
     inkscape:window-height="932"
     inkscape:window-width="1920"
     inkscape:pageshadow="2"
     inkscape:pageopacity="0"
     guidetolerance="10"
     gridtolerance="10"
     objecttolerance="10"
     borderopacity="1"
     bordercolor="#666666"
     pagecolor="#ffffff"
     inkscape:showpageshadow="2"
     inkscape:pagecheckerboard="0"
     inkscape:deskcolor="#d1d1d1" />
  <metadata
     id="metadata2">
    <rdf:RDF>
      <cc:Work
         rdf:about="">
        <dc:format>image/svg+xml</dc:format>
        <dc:type
           rdf:resource="http://purl.org/dc/dcmitype/StillImage" />
        <dc:title />
      </cc:Work>
    </rdf:RDF>
  </metadata>
  <defs
     id="defs22">
    <linearGradient
       gradientUnits="userSpaceOnUse"
       gradientTransform="matrix(1.2346,0,0,1.2346,2.3832028,3.6047)"
       y2="4"
       y1="44"
       x2="0"
       id="linearGradient890">
      <stop
         id="stop4"
         offset="0"
         stop-color="#FFB900" />
      <stop
         id="stop6"
         offset="1"
         stop-color="#ff0" />
    </linearGradient>
    <linearGradient
       gradientUnits="userSpaceOnUse"
       y2="9.6700001"
       y1="54.591999"
       x2="34.133999"
       x1="34.133999"
       id="linearGradient915">
      <stop
         id="stop17"
         offset="0"
         stop-color="#ffb900" />
      <stop
         id="stop19"
         offset="1"
         stop-color="#ff0" />
    </linearGradient>
    <filter
       inkscape:collect="always"
       style="color-interpolation-filters:sRGB"
       id="filter1057"
       x="-0.026999999"
       width="1.054"
       y="-0.026999999"
       height="1.054">
      <feGaussianBlur
         inkscape:collect="always"
         stdDeviation="0.61875"
         id="feGaussianBlur1059" />
    </filter>
    <linearGradient
       inkscape:collect="always"
       xlink:href="#linearGradient1051"
       id="linearGradient1053"
       x1="-127"
       y1="60"
       x2="-72"
       y2="5"
       gradientUnits="userSpaceOnUse"
       gradientTransform="translate(131.5,-0.50999746)" />
    <linearGradient
       inkscape:collect="always"
       id="linearGradient1051">
      <stop
         style="stop-color:#df2a2a;stop-opacity:1"
         offset="0"
         id="stop1047" />
      <stop
         style="stop-color:#f83f3f;stop-opacity:1"
         offset="1"
         id="stop1049" />
    </linearGradient>
  </defs>
  <rect
     style="opacity:0.3;fill:#141414;fill-opacity:1;stroke-width:2.74436;stroke-linecap:round;filter:url(#filter1057)"
     id="rect1055"
     width="55"
     height="55"
     x="4.5"
     y="4.5"
     ry="15" />
  <rect
     ry="14.999999"
     y="4.5000019"
     x="4.5000019"
     height="54.999996"
     width="54.999996"
     id="rect1045"
     style="fill:url(#linearGradient1053);fill-opacity:1;stroke-width:2.74436;stroke-linecap:round" />
  <rect
     style="stroke:url(#linearGradient915)"
     id="rect40"
     stroke-width="2.2616"
     stroke="url(#linearGradient915)"
     fill="none"
     ry="8.2405005"
     height="42.737999"
     width="42.737999"
     y="10.631"
     x="10.631001" />
  <path
     style="stroke:url(#linearGradient890)"
     id="path42"
     stroke-width="3.7037"
     stroke-linejoin="round"
     stroke-linecap="round"
     stroke="url(#linearGradient890)"
     fill="none"
     d="m 20.593303,42.494 h 4.321 m -2.7778,0 9.8765,-20.988 9.876499,20.988 m -2.7778,0 h 4.321 z" />
  <path
     d="m 18.151082,4.4729287 c 0.124292,-2.616e-4 0.248585,-7.409e-4 0.372877,-7.409e-4 0.339078,-7.41e-4 0.678147,-7.41e-4 1.017221,-7.41e-4 0.366688,2.96e-5 0.733374,-7.397e-4 1.100058,-0.00142 0.717546,-0.00105 1.435091,-0.00142 2.15264,-0.00142 0.583754,-6.05e-5 1.167512,-2.747e-4 1.751269,-7.4e-4 1.388257,-7.409e-4 2.776514,-0.00175 4.164771,-0.00175 0.04434,3.3e-6 0.08867,3.3e-6 0.134341,3.3e-6 0.224654,1.53e-5 0.449308,2.52e-5 0.673964,3.94e-5 0.04461,4.3e-6 0.08922,7.7e-6 0.135183,7.7e-6 0.09021,3.2e-6 0.180428,1.09e-5 0.270643,1.42e-5 1.402282,6.78e-5 2.804564,-7.398e-4 4.206846,-0.00284 1.578402,-0.00175 3.156799,-0.00316 4.735205,-0.00284 0.834602,4.4e-5 1.669202,-2.758e-4 2.503805,-0.00175 0.710815,-0.00106 1.421624,-0.00142 2.132441,-7.41e-4 0.362022,2.758e-4 0.724029,7.41e-4 1.08605,-7.406e-4 2.824225,-0.00832 2.824225,-0.00832 4.153974,0.2941491 0.05687,0.012683 0.113748,0.025357 0.172349,0.038423 1.64682,0.3724819 3.291105,1.0668907 4.666542,2.0515795 0.03915,0.027939 0.07831,0.0559 0.118647,0.084703 2.974438,2.1438828 5.108666,5.3516246 5.701102,8.9937326 0.01089,0.06622 0.02181,0.13244 0.03303,0.200665 0.101897,0.680258 0.116529,1.346923 0.115236,2.033867 2.71e-4,0.124415 5.36e-4,0.248827 8.03e-4,0.373241 8.05e-4,0.339415 8.05e-4,0.678827 5.36e-4,1.018245 -2.7e-5,0.367046 8.05e-4,0.734097 0.0014,1.101149 0.0011,0.718261 0.0014,1.436524 0.0016,2.154787 6e-5,0.584333 2.72e-4,1.168676 8.04e-4,1.753007 0.0011,1.389631 0.0019,2.779252 0.0016,4.168893 -2e-6,0.04432 -2e-6,0.08875 -6e-6,0.134463 -1e-5,0.22488 -2.4e-5,0.449761 -3.8e-5,0.674642 -2e-6,0.06697 -2e-6,0.06697 -7e-6,0.135317 -6e-6,0.09029 -1.1e-5,0.180602 -1.7e-5,0.27091 -6.5e-5,1.40368 8.04e-4,2.807363 0.0027,4.211043 0.0019,1.57996 0.0031,3.159922 0.003,4.739893 -4.3e-5,0.835434 2.73e-4,1.670858 0.0016,2.506291 0.0011,0.711531 0.0014,1.42304 5.36e-4,2.134562 -2.72e-4,0.362385 -5.36e-4,0.724751 8.05e-4,1.087137 0.0084,2.826732 0.0084,2.826732 -0.294501,4.154081 -0.01269,0.0568 -0.02538,0.113593 -0.03847,0.172111 -0.372924,1.644866 -1.068156,3.287205 -2.054024,4.661011 -0.02799,0.03906 -0.05597,0.07824 -0.0848,0.118508 -2.146428,2.970871 -5.358018,5.102608 -9.004469,5.694305 -0.06633,0.01094 -0.132653,0.02178 -0.200986,0.03306 -0.680238,0.101666 -1.346808,0.116396 -2.033723,0.115093 -0.124295,2.29e-4 -0.248588,5.38e-4 -0.37288,5.38e-4 -0.339077,5.23e-4 -0.678146,5.23e-4 -1.017224,5.23e-4 -0.366685,-2.2e-5 -0.73337,5.27e-4 -1.100055,0.0011 -0.717546,9.96e-4 -1.435091,0.0011 -2.152639,0.0011 -0.583755,6.5e-5 -1.167512,2.72e-4 -1.75127,5.24e-4 -1.388256,9.96e-4 -2.776514,0.0011 -4.164772,0.0011 -0.04434,0 -0.08866,0 -0.134341,0 -0.224653,-1.1e-5 -0.449306,-2.2e-5 -0.673963,-3.4e-5 -0.04461,-1.1e-5 -0.08922,-1.1e-5 -0.135183,-1.1e-5 -0.09021,-1.1e-5 -0.180428,-1.1e-5 -0.270643,-2.3e-5 -1.402284,-6.5e-5 -2.804564,5.27e-4 -4.206846,0.0022 -1.578402,0.0011 -3.156799,0.0033 -4.735203,0.0022 -0.834603,-3.4e-5 -1.669203,2.84e-4 -2.503806,0.0011 -0.710817,9.96e-4 -1.421628,0.0011 -2.132441,5.36e-4 -0.362023,-2.73e-4 -0.724029,-5.36e-4 -1.08605,5.27e-4 -2.824228,0.0087 -2.824228,0.0087 -4.153972,-0.294143 -0.05687,-0.01269 -0.113753,-0.02539 -0.172348,-0.03841 -1.646819,-0.372487 -3.291108,-1.066903 -4.666544,-2.051585 -0.03914,-0.02802 -0.07831,-0.05592 -0.118648,-0.08472 C 7.3303108,54.96472 5.1960792,51.756976 4.6036416,48.114869 4.5927588,48.048657 4.581876,47.982429 4.570612,47.914208 4.4687132,47.233942 4.454076,46.567278 4.4553734,45.88035 c -2.676e-4,-0.12442 -5.36e-4,-0.248837 -0.0011,-0.373254 -0.0011,-0.339417 -0.0011,-0.678822 -5.361e-4,-1.018237 2.11e-5,-0.367048 -5.361e-4,-0.734106 -0.00161,-1.101156 -0.0011,-0.718251 -0.00161,-1.436522 -0.00161,-2.154784 -6.44e-5,-0.584334 -2.736e-4,-1.168678 -0.0011,-1.753011 -0.0011,-1.389631 -0.00161,-2.77926 -0.00161,-4.168889 0,-0.04443 5.9e-6,-0.08875 5.9e-6,-0.134475 1.02e-5,-0.22487 2.63e-5,-0.449749 3.73e-5,-0.674629 5.1e-6,-0.04465 5.1e-6,-0.08929 1.1e-5,-0.135318 5.1e-6,-0.09029 1.01e-5,-0.180613 1.61e-5,-0.270908 6.43e-5,-1.403682 -0.0011,-2.807352 -0.00271,-4.211043 -0.00212,-1.579962 -0.00322,-3.159933 -0.00322,-4.739893 4.32e-5,-0.835434 -2.736e-4,-1.670866 -0.00161,-2.506294 -0.0011,-0.711526 -0.00161,-1.42304 -5.361e-4,-2.13456 2.677e-4,-0.362387 2.677e-4,-0.72476 -0.0011,-1.087142 -0.00838,-2.826736 -0.00838,-2.826736 0.2945029,-4.154071 0.012704,-0.0568 0.025357,-0.113601 0.038441,-0.172121 0.3729245,-1.64487 1.0681553,-3.287201 2.0540246,-4.661006 0.027991,-0.03909 0.055973,-0.07821 0.084801,-0.118507 2.1464296,-2.9708686 5.358022,-5.1026065 9.004468,-5.6943047 0.06633,-0.010835 0.132652,-0.021778 0.200989,-0.032984 0.680243,-0.1016548 1.346813,-0.1164233 2.033731,-0.1151309 z"
     fill="#fefefe"
     id="path46"
     style="stroke-width:0.0653512" />
  <path
     d="m 31.739174,17.392338 c 0.05664,1.1e-5 0.113283,2.1e-5 0.171641,3.7e-5 0.05971,-2.29e-4 0.119423,-5.29e-4 0.180943,-5.29e-4 0.201738,-5.28e-4 0.40347,-9.96e-4 0.605208,-9.96e-4 0.144014,-5.28e-4 0.288031,-5.28e-4 0.432042,-0.0016 0.392664,-9.96e-4 0.785327,-0.0015 1.17799,-0.0027 0.245443,-2.74e-4 0.490885,-5.3e-4 0.736331,-9.97e-4 0.680088,-9.95e-4 1.360173,-0.0015 2.040263,-0.0027 0.176638,-1.12e-4 0.353277,-2.23e-4 0.52992,-2.74e-4 0.0439,-2.7e-5 0.0878,-5.9e-5 0.133032,-9.6e-5 0.709302,-5.28e-4 1.418597,-0.0021 2.12789,-0.0043 0.728954,-0.0021 1.457901,-0.0032 2.186857,-0.0037 0.408965,-1.1e-4 0.81792,-5.28e-4 1.226882,-0.0027 0.385475,-0.0015 0.770929,-0.0015 1.156407,-9.95e-4 0.140885,3.2e-5 0.281773,-2.74e-4 0.422655,-0.0016 1.381068,-0.0083 2.559819,0.204651 3.60623,1.184839 0.761522,0.753033 1.194746,1.768363 1.202777,2.831879 -1.31e-4,0.06536 -2.67e-4,0.130713 -2.73e-4,0.198052 2.68e-4,0.0709 5.36e-4,0.141798 0.0011,0.214849 8.04e-4,0.236477 0.0011,0.472944 0.0011,0.709419 5.36e-4,0.170016 0.0011,0.340031 0.0016,0.510046 0.0014,0.461164 0.0019,0.922335 0.0025,1.383506 1.31e-4,0.288433 5.36e-4,0.576871 0.0011,0.8653 0.0014,0.799968 0.0025,1.599942 0.0025,2.399908 1.4e-5,0.05107 2.2e-5,0.102215 3.6e-5,0.154905 2.4e-5,0.103635 4.9e-5,0.207226 6.8e-5,0.310828 1.1e-5,0.05139 2.2e-5,0.10287 3.5e-5,0.155835 1.7e-5,0.07729 1.7e-5,0.07729 3.6e-5,0.156031 2.67e-4,0.833571 0.0019,1.66712 0.0045,2.500669 0.0025,0.857588 0.0037,1.715188 0.0038,2.572788 3.8e-5,0.480774 5.36e-4,0.96156 0.0025,1.442337 0.0019,0.45257 0.0019,0.905108 8.03e-4,1.357679 -1.3e-4,0.165477 2.65e-4,0.330953 0.0014,0.496431 0.009,1.516171 -0.232738,2.669763 -1.295412,3.804979 -0.523895,0.497065 -1.177019,0.88235 -1.884064,1.052045 -0.06885,0.01684 -0.06885,0.01684 -0.139103,0.03411 -0.236138,0.03925 -0.467697,0.03991 -0.706283,0.03902 -0.07772,6.5e-5 -0.07772,6.5e-5 -0.157017,2.19e-4 -0.173391,1.2e-4 -0.346781,-2.19e-4 -0.520176,-5.25e-4 -0.124382,-2.2e-5 -0.24877,-1.1e-5 -0.373156,3.3e-5 -0.337594,1.1e-5 -0.675188,-2.73e-4 -1.012784,-5.25e-4 -0.352837,-2.74e-4 -0.705677,-5.35e-4 -1.058515,-5.35e-4 -0.668117,-2.19e-4 -1.336234,-5.25e-4 -2.004351,-0.0011 -0.760639,-5.25e-4 -1.521282,-9.95e-4 -2.281922,-0.0011 -1.564667,-5.24e-4 -3.129333,-0.0011 -4.693998,-0.0033 -0.0085,0.04777 -0.01702,0.09554 -0.02581,0.144695 -0.01713,0.09521 -0.01713,0.09521 -0.0346,0.192272 -0.01122,0.06254 -0.02241,0.125105 -0.03397,0.189549 -0.05769,0.302944 -0.13049,0.601791 -0.204224,0.901183 -0.01563,0.06395 -0.03125,0.127992 -0.04735,0.193934 -0.0327,0.133674 -0.06551,0.26733 -0.09842,0.400961 -0.05055,0.205488 -0.100622,0.411073 -0.150656,0.616692 -0.03195,0.130321 -0.06391,0.260628 -0.09591,0.390936 -0.01498,0.06165 -0.02997,0.123268 -0.04541,0.186773 -0.01397,0.05641 -0.02794,0.112916 -0.04235,0.171085 -0.01835,0.07477 -0.01835,0.07477 -0.03709,0.151047 -0.03429,0.114478 -0.03429,0.114478 -0.09968,0.17972 -0.187552,0.0066 -0.373545,0.0099 -0.561141,0.0088 -0.08938,2.29e-4 -0.08938,2.29e-4 -0.180553,5.36e-4 -0.201292,5.25e-4 -0.40258,5.25e-4 -0.603871,5.25e-4 -0.14369,2.73e-4 -0.28738,5.25e-4 -0.431067,9.96e-4 -0.391704,5.24e-4 -0.783407,0.0011 -1.175109,0.0011 -0.244744,2.29e-4 -0.489484,5.26e-4 -0.734226,5.26e-4 -0.677898,5.24e-4 -1.3558,0.0011 -2.033701,0.0011 -0.04343,1.1e-5 -0.08686,3.3e-5 -0.131604,4.4e-5 -0.04353,2.1e-5 -0.08707,3.2e-5 -0.13192,4.2e-5 -0.08822,3.4e-5 -0.176432,5.7e-5 -0.264646,6.7e-5 -0.06564,2.3e-5 -0.06564,2.3e-5 -0.132596,4.4e-5 -0.70753,2.29e-4 -1.415054,0.0011 -2.122581,0.0022 -0.726807,0.0011 -1.453614,0.0022 -2.180421,0.0022 -0.407901,6.4e-5 -0.815791,5.24e-4 -1.223686,0.0011 -0.384236,9.95e-4 -0.768464,9.95e-4 -1.1527,5.25e-4 -0.140654,-4.5e-5 -0.281305,2.29e-4 -0.421956,5.26e-4 -1.351044,0.0055 -2.564339,-0.206332 -3.578357,-1.166592 -0.533261,-0.540891 -0.906738,-1.196358 -1.118402,-1.924032 -0.0222,-0.06428 -0.04445,-0.128634 -0.06738,-0.194904 -0.09061,-0.319344 -0.08191,-0.636818 -0.08089,-0.966503 -2.78e-4,-0.07029 -5.36e-4,-0.140597 -0.0011,-0.213031 -0.0011,-0.235234 -0.0011,-0.470457 -5.36e-4,-0.705688 -2.78e-4,-0.168813 -0.0011,-0.337633 -0.0016,-0.506444 -0.0011,-0.410867 -0.0016,-0.821723 -0.0016,-1.232565 -6.4e-5,-0.334288 -2.73e-4,-0.668576 -0.0011,-1.002853 -0.0011,-0.9491 -0.0016,-1.898187 -0.0016,-2.847275 5e-6,-0.05116 1.1e-5,-0.102329 1.6e-5,-0.154939 5e-6,-0.05116 1.1e-5,-0.10243 1.1e-5,-0.155124 5.8e-5,-0.828542 -0.0011,-1.657084 -0.0032,-2.485639 -0.0021,-0.852056 -0.0027,-1.704112 -0.0027,-2.556179 4.8e-5,-0.477823 -2.74e-4,-0.955649 -0.0016,-1.433484 -0.0016,-0.449826 -0.0016,-0.899643 -2.78e-4,-1.349481 9.6e-5,-0.164548 -1.29e-4,-0.329108 -0.0011,-0.493664 -0.0066,-1.464751 0.135171,-2.607303 1.194891,-3.71598 0.04813,-0.0483 0.09626,-0.09654 0.145852,-0.146291 0.03936,-0.04153 0.07873,-0.0831 0.119284,-0.125896 0.905131,-0.881537 2.143487,-1.012953 3.338154,-1.005449 0.1238,5.2e-5 0.247597,2e-5 0.371397,-8.5e-5 0.3342,-5.8e-5 0.668386,9.95e-4 1.002583,0.0027 0.349957,9.95e-4 0.699914,0.0016 1.049869,0.0016 0.661854,5.29e-4 1.323701,0.0021 1.985549,0.0043 0.753852,0.0021 1.5077,0.0032 2.261554,0.0043 1.549953,0.0016 3.099898,0.0055 4.649846,0.0099 0.01002,-0.08237 0.02004,-0.164764 0.03037,-0.249645 0.02557,-0.210194 0.06192,-0.412325 0.113441,-0.617995 0.02323,-0.09367 0.02323,-0.09367 0.04695,-0.189232 0.02492,-0.09842 0.02492,-0.09842 0.05036,-0.198798 0.01716,-0.06863 0.03433,-0.137234 0.05203,-0.207933 0.03613,-0.144077 0.0724,-0.288116 0.10883,-0.43212 0.05595,-0.221374 0.111308,-0.442887 0.166606,-0.664427 0.03522,-0.140133 0.07046,-0.280262 0.105748,-0.420381 0.01661,-0.06652 0.03324,-0.133049 0.05037,-0.201594 0.0232,-0.09155 0.0232,-0.09155 0.04692,-0.184916 0.01359,-0.05391 0.0272,-0.107831 0.0412,-0.163373 0.07895,-0.261409 0.24764,-0.196709 0.493265,-0.198104 z"
     fill="#01dcd8"
     id="path48"
     style="stroke-width:0.0653164" />
  <path
     d="m 19.112249,21.0986 c 0.123796,5.3e-5 0.247596,2.1e-5 0.371396,-8.4e-5 0.334199,-6.3e-5 0.668386,9.96e-4 1.002583,0.0027 0.349953,9.95e-4 0.69991,0.0016 1.049869,0.0016 0.661853,5.29e-4 1.323701,0.0021 1.985552,0.0043 0.753849,0.0021 1.5077,0.0032 2.26155,0.0043 1.549954,0.0015 3.099899,0.0055 4.649847,0.0099 -0.327169,1.388672 -0.657744,2.776059 -1.009719,4.158725 -0.03739,0.147522 -0.07477,0.295047 -0.112139,0.442581 -0.07787,0.307333 -0.155832,0.614642 -0.2339,0.921928 -0.121911,0.47988 -0.243559,0.959835 -0.365148,1.439802 -0.02026,0.08003 -0.04053,0.159977 -0.0614,0.242393 -0.0407,0.160688 -0.08141,0.321376 -0.12211,0.482077 -0.06023,0.237758 -0.120492,0.475527 -0.180751,0.713286 -0.314971,1.24295 -0.628012,2.48638 -0.939136,3.730303 -0.01961,0.07839 -0.03919,0.156689 -0.05938,0.23741 -0.07293,0.291576 -0.145847,0.583164 -0.218644,0.874762 -0.08778,0.351581 -0.175777,0.703098 -0.264248,1.054493 -0.04699,0.18662 -0.0939,0.37325 -0.140818,0.559879 -0.02243,0.0892 -0.04491,0.178367 -0.06742,0.267537 -0.148074,0.586631 -0.288728,1.174517 -0.422421,1.764568 -0.130066,0.570657 -0.273933,1.134483 -0.435255,1.697072 -0.09981,0.349484 -0.186033,0.702105 -0.272287,1.055108 -0.0823,0.326165 -0.172355,0.65033 -0.261053,0.974823 2.740514,0 5.481025,0 8.304587,0 -0.08778,0.481661 -0.181786,0.953372 -0.2986,1.427688 -0.01563,0.06394 -0.03125,0.128003 -0.04735,0.193933 -0.0327,0.133686 -0.06551,0.26734 -0.09842,0.400971 -0.05055,0.205476 -0.100625,0.411074 -0.150658,0.616681 -0.03195,0.13032 -0.06392,0.26064 -0.09591,0.390949 -0.01498,0.06165 -0.02997,0.123257 -0.04541,0.18676 -0.01397,0.05641 -0.02795,0.112917 -0.04235,0.171086 -0.01835,0.07477 -0.01835,0.07477 -0.03709,0.151058 -0.03429,0.114468 -0.03429,0.114468 -0.09968,0.179708 -0.187553,0.0066 -0.373545,0.0099 -0.561141,0.0087 -0.08938,2.41e-4 -0.08938,2.41e-4 -0.180554,5.36e-4 -0.201292,5.26e-4 -0.40258,5.26e-4 -0.603871,5.26e-4 -0.143691,2.72e-4 -0.287378,5.24e-4 -0.431068,9.95e-4 -0.391702,5.25e-4 -0.783403,0.0011 -1.175109,0.0011 -0.244742,2.3e-4 -0.489482,5.25e-4 -0.734225,5.25e-4 -0.677898,5.25e-4 -1.3558,0.0011 -2.033701,0.0011 -0.04343,2.2e-5 -0.08686,3.3e-5 -0.131604,4.3e-5 -0.04353,1.1e-5 -0.08707,3.3e-5 -0.13192,4.4e-5 -0.08822,3.3e-5 -0.176429,6.4e-5 -0.264645,7.6e-5 -0.06564,10e-6 -0.06564,10e-6 -0.1326,3.3e-5 -0.707526,2.3e-4 -1.415051,0.0011 -2.122578,0.0022 -0.726806,0.0011 -1.453613,0.0022 -2.18042,0.0022 -0.407899,6.7e-5 -0.815792,5.25e-4 -1.223687,0.0011 -0.384236,9.96e-4 -0.768462,9.96e-4 -1.1527,5.24e-4 -0.140654,-4.1e-5 -0.281305,2.3e-4 -0.421955,5.27e-4 -1.351045,0.0055 -2.56434,-0.20633 -3.578358,-1.166591 -0.533267,-0.540902 -0.906744,-1.196358 -1.118407,-1.92403 -0.02225,-0.06427 -0.04445,-0.128638 -0.06738,-0.194895 -0.09061,-0.319344 -0.08191,-0.636829 -0.0809,-0.966515 -2.68e-4,-0.07029 -5.36e-4,-0.140606 -0.0011,-0.213031 -0.0011,-0.235233 -0.0011,-0.470455 -5.36e-4,-0.705688 -2.68e-4,-0.168811 -0.0011,-0.337633 -0.0016,-0.506444 -0.0011,-0.410854 -0.0016,-0.821709 -0.0016,-1.232565 -6.4e-5,-0.334287 -2.73e-4,-0.668564 -0.0011,-1.002852 -0.0011,-0.949088 -0.0016,-1.898187 -0.0016,-2.847286 5e-6,-0.05116 10e-6,-0.102215 1.6e-5,-0.154928 5e-6,-0.05116 5e-6,-0.102317 1.6e-5,-0.155123 4.8e-5,-0.828555 -0.0011,-1.657085 -0.0032,-2.485627 -0.0021,-0.852069 -0.0027,-1.704125 -0.0027,-2.556193 3.7e-5,-0.477824 -2.73e-4,-0.955648 -0.0016,-1.433482 -0.0016,-0.449827 -0.0016,-0.899643 -2.74e-4,-1.349481 9.7e-5,-0.164548 -1.33e-4,-0.329106 -0.0011,-0.493662 -0.0066,-1.464747 0.135183,-2.607304 1.194897,-3.715981 0.0722,-0.07241 0.0722,-0.07241 0.145852,-0.14629 0.03937,-0.04153 0.07873,-0.08309 0.119288,-0.125895 0.905133,-0.881525 2.143486,-1.012939 3.338156,-1.005441 z"
     fill="#174e81"
     id="path50"
     style="stroke-width:0.0653164" />
</svg>
