<?xml version="1.0" encoding="UTF-8" standalone="no"?>
<svg
   height="64"
   viewBox="0 0 64 64"
   width="64"
   version="1.1"
   id="svg23"
   xml:space="preserve"
   sodipodi:docname="winbox64.svg"
   inkscape:export-filename="winbox64.svg"
   inkscape:export-xdpi="96"
   inkscape:export-ydpi="96"
   xmlns:inkscape="http://www.inkscape.org/namespaces/inkscape"
   xmlns:sodipodi="http://sodipodi.sourceforge.net/DTD/sodipodi-0.dtd"
   xmlns:xlink="http://www.w3.org/1999/xlink"
   xmlns="http://www.w3.org/2000/svg"
   xmlns:svg="http://www.w3.org/2000/svg"
   xmlns:rdf="http://www.w3.org/1999/02/22-rdf-syntax-ns#"
   xmlns:cc="http://creativecommons.org/ns#"
   xmlns:dc="http://purl.org/dc/elements/1.1/"><sodipodi:namedview
     id="namedview1"
     pagecolor="#ffffff"
     bordercolor="#000000"
     borderopacity="0.25"
     inkscape:showpageshadow="2"
     inkscape:pageopacity="0.0"
     inkscape:pagecheckerboard="0"
     inkscape:deskcolor="#d1d1d1"><inkscape:page
       x="0"
       y="0"
       width="64"
       height="64"
       id="page2"
       margin="0"
       bleed="0" /></sodipodi:namedview><metadata
     id="metadata29"><rdf:RDF><cc:Work
         rdf:about=""><dc:format>image/svg+xml</dc:format><dc:type
           rdf:resource="http://purl.org/dc/dcmitype/StillImage" /></cc:Work></rdf:RDF></metadata><defs
     id="defs27"><linearGradient
       id="linearGradient10"><stop
         style="stop-color:#3b4fbb;stop-opacity:1;"
         offset="0"
         id="stop11" /><stop
         style="stop-color:#3078c6;stop-opacity:1;"
         offset="1"
         id="stop13" /></linearGradient><linearGradient
       id="linearGradient27"><stop
         style="stop-color:#ffffff;stop-opacity:1;"
         offset="0"
         id="stop28" /><stop
         style="stop-color:#d9d9d9;stop-opacity:1;"
         offset="0.5"
         id="stop30" /><stop
         style="stop-color:#ffffff;stop-opacity:1;"
         offset="1"
         id="stop29" /></linearGradient><linearGradient
       id="linearGradient25"><stop
         style="stop-color:#ffffff;stop-opacity:1;"
         offset="0.01424897"
         id="stop25" /><stop
         style="stop-color:#cbcbcb;stop-opacity:1;"
         offset="0.50712448"
         id="stop27" /><stop
         style="stop-color:#ffffff;stop-opacity:1;"
         offset="1"
         id="stop26" /></linearGradient><filter
       style="color-interpolation-filters:sRGB"
       id="filter1057"
       x="-0.026999999"
       width="1.054"
       y="-0.026999999"
       height="1.054"><feGaussianBlur
         stdDeviation="0.61875"
         id="feGaussianBlur1059" /></filter><linearGradient
       xlink:href="#linearGradient25"
       id="linearGradient26"
       x1="27.701843"
       y1="21.693357"
       x2="42.291546"
       y2="36.283058"
       gradientUnits="userSpaceOnUse"
       gradientTransform="matrix(1.3110523,0,0,1.3110523,-9.9236857,-9.3552322)" /><linearGradient
       xlink:href="#linearGradient27"
       id="linearGradient29"
       x1="21.457926"
       y1="24.169254"
       x2="39.815643"
       y2="42.526974"
       gradientUnits="userSpaceOnUse"
       gradientTransform="matrix(1.3110523,0,0,1.3110523,-9.9236857,-9.3552322)" /><linearGradient
       xlink:href="#linearGradient10"
       id="linearGradient13"
       x1="12.554565"
       y1="51.445435"
       x2="51.445435"
       y2="12.554565"
       gradientUnits="userSpaceOnUse" /></defs><linearGradient
     id="a"
     gradientUnits="userSpaceOnUse"
     x1="396.66663"
     x2="396.66663"
     y1="518.07947"
     y2="545.1543"
     gradientTransform="matrix(2.0016201,0,0,2.0016201,-852.84554,-1032.3463)"><stop
       offset="0"
       stop-color="#db50c8"
       id="stop2" /><stop
       offset="1"
       stop-color="#981fe7"
       id="stop4" /></linearGradient><linearGradient
     id="b"
     gradientUnits="userSpaceOnUse"
     x1="403.43533"
     x2="402.46838"
     y1="545.1543"
     y2="518.07947"
     gradientTransform="matrix(2.0016201,0,0,2.0016201,-852.84554,-1032.3463)"><stop
       offset="0"
       stop-color="#981fe7"
       id="stop7" /><stop
       offset="1"
       stop-color="#db50c8"
       id="stop9" /></linearGradient><linearGradient
     id="c"
     gradientUnits="userSpaceOnUse"
     x1="18.245573"
     x2="16.811239"
     y1="29.791063"
     y2="1.104376"
     gradientTransform="matrix(1.1944399,0,0,1.1944399,-70.922936,14.111417)"><stop
       offset="0"
       stop-color="#d3d3d3"
       id="stop12" /><stop
       offset="1"
       stop-color="#fcf9f9"
       id="stop14" /></linearGradient><rect
     ry="15"
     y="4.5"
     x="4.5"
     height="55"
     width="55"
     id="rect1055"
     style="opacity:0.3;fill:#141414;fill-opacity:1;stroke-width:2.74436;stroke-linecap:round;filter:url(#filter1057)" /><rect
     style="fill:url(#linearGradient13);fill-opacity:1;stroke:none;stroke-width:2.74436;stroke-linecap:round;stroke-opacity:0.13019"
     id="rect1045"
     width="54.999996"
     height="54.999996"
     x="4.5000019"
     y="4.5000019"
     ry="14.999999" /><g
     id="g1"
     transform="matrix(0.88456529,0,0,0.88456529,4.2651645,2.5842811)"><path
       d="m 13.598945,18.837983 c -0.865454,6.532831 -0.330962,13.45925 2.647373,19.389268 0.213806,0.425698 0.581499,1.105146 0.825813,1.513717 2.942426,4.920674 7.99598,8.310935 13.467751,9.747844 0.45719,0.120066 1.203904,0.293048 1.666097,0.391684 4.659573,0.994366 9.473696,1.009039 14.204834,0.52894 0.47003,-0.04768 0.850522,-0.478675 0.850522,-0.956103 v -0.280277 c 0,-0.477428 -0.383326,-0.866759 -0.854476,-0.900375 -0.116198,-0.0083 -0.229267,-0.01755 -0.338284,-0.02732 -0.47031,-0.04214 -1.230086,-0.139198 -1.697766,-0.206484 -6.569036,-0.945262 -13.319111,-2.695483 -18.530654,-7.006362 -0.365539,-0.302366 -0.940972,-0.813534 -1.28925,-1.136076 -2.849549,-2.638969 -5.286786,-5.774596 -6.777059,-9.391224 -0.181599,-0.440707 -0.45386,-1.164461 -0.612419,-1.614175 -1.127277,-3.197309 -1.6714,-6.587228 -1.756036,-9.976824 -0.01193,-0.477267 -0.394349,-0.8798 -0.866369,-0.898862 -0.45202,-0.01826 -0.877387,0.349428 -0.940077,0.822626 z"
       style="fill:url(#linearGradient29);fill-opacity:1;stroke-width:3.43958;stroke-opacity:0.10783"
       id="path1" /><path
       d="m 22.731239,16.439186 c -0.687816,5.137203 -0.263033,10.583913 2.103983,15.247079 0.16992,0.334758 0.462145,0.869052 0.656311,1.190342 2.338481,3.869451 6.354767,6.535442 10.703427,7.665379 0.363352,0.09441 0.956797,0.230446 1.324122,0.308009 3.703173,0.781938 7.529173,0.793474 11.289221,0.415941 0.373553,-0.03752 0.675947,-0.376414 0.675947,-0.751851 v -0.220397 c 0,-0.375435 -0.304645,-0.681591 -0.679091,-0.708022 -0.09234,-0.0066 -0.182207,-0.0138 -0.268849,-0.02149 -0.373775,-0.03314 -0.977605,-0.109434 -1.349289,-0.162362 -5.22071,-0.743323 -10.585296,-2.11964 -14.727142,-5.50957 -0.290511,-0.237773 -0.747834,-0.639737 -1.024627,-0.893373 -2.264665,-2.075199 -4.201647,-4.540952 -5.386034,-7.384948 -0.144323,-0.346558 -0.360703,-0.915695 -0.486713,-1.269335 -0.8959,-2.51426 -1.32834,-5.179978 -1.395602,-7.845448 -0.0094,-0.375306 -0.313406,-0.691844 -0.688543,-0.706833 -0.35924,-0.0144 -0.6973,0.274778 -0.747121,0.646888 z"
       style="fill:url(#linearGradient26);fill-opacity:1;stroke-width:2.71915;stroke-opacity:0.10783"
       id="path4" /></g></svg>
