<?xml version="1.0" encoding="UTF-8"?>
<svg width="64" height="64" version="1.1" viewBox="0 0 16.933 16.933" xmlns="http://www.w3.org/2000/svg" xmlns:cc="http://creativecommons.org/ns#" xmlns:dc="http://purl.org/dc/elements/1.1/" xmlns:rdf="http://www.w3.org/1999/02/22-rdf-syntax-ns#" xmlns:xlink="http://www.w3.org/1999/xlink">
 <defs>
  <linearGradient id="linearGradient17529" x1="6.4822" x2="10.451" y1="8.4665" y2="8.4665" gradientTransform="matrix(.96594 .25882 -.25882 .96594 1.7146 -3.1876)" gradientUnits="userSpaceOnUse">
   <stop stop-color="#00c8ff" offset="0"/>
   <stop stop-color="#14a0ff" offset="1"/>
  </linearGradient>
  <filter id="filter1057-4-72" x="-.027" y="-.027" width="1.054" height="1.054" color-interpolation-filters="sRGB">
   <feGaussianBlur stdDeviation="0.61875"/>
  </filter>
  <linearGradient id="linearGradient1053-5-6" x1="-127" x2="-72" y1="60" y2="5" gradientTransform="matrix(.2646 0 0 .2646 29.966 2.2647)" gradientUnits="userSpaceOnUse">
   <stop stop-color="#32d7ff" offset="0"/>
   <stop stop-color="#329bff" offset="1"/>
  </linearGradient>
 </defs>
 <metadata>
  <rdf:RDF>
   <cc:Work rdf:about="">
    <dc:format>image/svg+xml</dc:format>
    <dc:type rdf:resource="http://purl.org/dc/dcmitype/StillImage"/>
    <dc:title/>
   </cc:Work>
  </rdf:RDF>
 </metadata>
 <g transform="translate(4.8286 -2.4001)" stroke-linecap="round">
  <rect transform="matrix(.2646 0 0 .2646 -4.829 2.3998)" x="4.5" y="4.5" width="55" height="55" ry="15" fill="#141414" filter="url(#filter1057-4-72)" opacity=".3" stroke-width="2.7444"/>
  <rect x="-3.6384" y="3.5904" width="14.552" height="14.552" ry="3.9689" fill="url(#linearGradient1053-5-6)" stroke-width=".72613"/>
 </g>
 <g transform="translate(.7654 1.2851)">
  <g stroke-width=".025866">
   <path d="m12.888 2.8709-10.366-7.28e-5c-0.39466-2e-6 -0.71041 0.31575-0.7104 0.7104l-1.3e-5 7.2005c-2.2e-6 0.39466 0.31575 0.71041 0.7104 0.7104l10.358 3.1e-5c0.39466 2e-6 0.71041-0.31575 0.7104-0.7104l1.3e-5 -7.2005c0.0088-0.39466-0.31575-0.71041-0.70163-0.7104z" fill="#f1f3f7"/>
   <rect x="2.5216" y="4.6163" width="10.366" height="6.1305" fill="#fcfcfd"/>
   <circle cx="12.661" cy="3.7918" r=".22803" fill="#f0582f"/>
   <circle cx="11.862" cy="3.7918" r=".22803" fill="#fbd303"/>
   <circle cx="11.064" cy="3.7918" r=".22803" fill="#6eb1e1"/>
  </g>
  <path d="m8.1573 5.2496c-0.108-0.024674-0.1764-0.0045201-0.23537 0.062326-0.037836 0.042895-0.080013 0.11994-0.093782 0.17123-0.050501 0.18815-0.2865 0.30894-0.4949 0.2531-0.10225-0.0274-0.15088-0.070597-0.31639-0.28114-0.075332-0.095828-0.13974-0.093414-0.32454 0.011346-0.17556 0.099556-0.19662 0.1641-0.11735 0.36027 0.032758 0.081087 0.060169 0.18481 0.060813 0.2307 0.0016 0.11349-0.099043 0.2935-0.20057 0.35829-0.083225 0.05311-0.25777 0.065096-0.39715 0.027748-0.13254-0.035516-0.20038 0.027181-0.25634 0.236-0.043573 0.16261-0.043281 0.18648 0.00257 0.23843 0.028012 0.031762 0.11878 0.086764 0.20195 0.12232 0.083169 0.035559 0.17516 0.091574 0.20414 0.12442 0.061196 0.069348 0.10009 0.26929 0.072733 0.37435-0.019808 0.076281-0.11446 0.19517-0.19124 0.24016-0.083687 0.049037-0.16435 0.15747-0.16183 0.21743 0.00322 0.076841 0.11306 0.26874 0.18295 0.31961 0.040025 0.029151 0.073787 0.032826 0.12521 0.013741 0.15074-0.05592 0.39359-0.095418 0.46671-0.075826 0.11023 0.029537 0.26702 0.17582 0.28567 0.26664 0.00877 0.042777 0.00875 0.13699 1.226e-4 0.20918-0.020933 0.17506-0.00388 0.26466 0.056727 0.29557 0.027563 0.01401 0.071765 0.037131 0.098144 0.051121 0.026333 0.0142 0.089632 0.031161 0.14062 0.037681 0.13295 0.01716 0.227-0.060211 0.30012-0.24684 0.066852-0.17065 0.090592-0.19463 0.24235-0.24277 0.1541-0.048876 0.26149-0.03771 0.35011 0.036382 0.073486 0.061441 0.102 0.090715 0.21506 0.21938 0.082842 0.094292 0.14867 0.10001 0.29385 0.02457 0.21829-0.11345 0.24051-0.18225 0.13254-0.40761-0.10278-0.21447-0.046988-0.42952 0.14418-0.55493 0.073207-0.048035 0.12957-0.056464 0.30525-0.045107 0.26525 0.017155 0.31718-0.012994 0.37265-0.21713 0.055411-0.20389 0.031881-0.24594-0.1946-0.34631-0.2155-0.095496-0.27391-0.16561-0.30522-0.36492-0.026028-0.16571 0.015357-0.24764 0.21008-0.41342 0.099852-0.084994 0.15604-0.15151 0.15637-0.1858 7.01e-4 -0.076548-0.17507-0.35262-0.23477-0.36861-0.027643-0.0074101-0.11192 0.012678-0.18711 0.044155-0.20747 0.086855-0.31788 0.089449-0.45426 0.010685-0.16027-0.092517-0.20219-0.18191-0.18934-0.40433 0.014765-0.25544-0.0058601-0.30765-0.14398-0.36208-0.046009-0.018175-0.086318-0.031323-0.12232-0.039547l1.249e-4 -4.663e-4zm-0.26321 1.2134a0.74415 0.74415 0 0 1 0.5262 0.9114 0.74415 0.74415 0 0 1-0.9114 0.5262 0.74415 0.74415 0 0 1-0.5262-0.9114 0.74415 0.74415 0 0 1 0.9114-0.5262z" fill="url(#linearGradient17529)" stroke-width=".12402"/>
 </g>
</svg>
