<?xml version="1.0" encoding="UTF-8" standalone="no"?>
<svg
   width="64"
   height="64"
   version="1.1"
   viewBox="0 0 16.933 16.933"
   id="svg27484"
   sodipodi:docname="xnview.svg"
   xml:space="preserve"
   inkscape:version="1.2.2 (b0a8486541, 2022-12-01)"
   xmlns:inkscape="http://www.inkscape.org/namespaces/inkscape"
   xmlns:sodipodi="http://sodipodi.sourceforge.net/DTD/sodipodi-0.dtd"
   xmlns:xlink="http://www.w3.org/1999/xlink"
   xmlns="http://www.w3.org/2000/svg"
   xmlns:svg="http://www.w3.org/2000/svg"
   xmlns:rdf="http://www.w3.org/1999/02/22-rdf-syntax-ns#"
   xmlns:cc="http://creativecommons.org/ns#"
   xmlns:dc="http://purl.org/dc/elements/1.1/"><sodipodi:namedview
     id="namedview27486"
     pagecolor="#ffffff"
     bordercolor="#999999"
     borderopacity="1"
     inkscape:showpageshadow="0"
     inkscape:pageopacity="0"
     inkscape:pagecheckerboard="0"
     inkscape:deskcolor="#d1d1d1"
     showgrid="false"
     inkscape:zoom="13.1875"
     inkscape:cx="55.734597"
     inkscape:cy="5.4976303"
     inkscape:window-width="3840"
     inkscape:window-height="1967"
     inkscape:window-x="1920"
     inkscape:window-y="52"
     inkscape:window-maximized="1"
     inkscape:current-layer="svg27484" /><metadata
     id="metadata27384"><rdf:RDF><cc:Work
         rdf:about=""><dc:format>image/svg+xml</dc:format><dc:type
           rdf:resource="http://purl.org/dc/dcmitype/StillImage" /></cc:Work></rdf:RDF></metadata><defs
     id="defs27450"><linearGradient
       inkscape:collect="always"
       id="linearGradient67390"><stop
         style="stop-color:#e74c5a;stop-opacity:1"
         offset="0"
         id="stop67386" /><stop
         style="stop-color:#e8515a;stop-opacity:1;"
         offset="0.06190513"
         id="stop74365" /><stop
         style="stop-color:#f79761;stop-opacity:1"
         offset="0.78295702"
         id="stop72500" /><stop
         style="stop-color:#f06a5a;stop-opacity:1"
         offset="1"
         id="stop67388" /></linearGradient><linearGradient
       inkscape:collect="always"
       id="linearGradient27770"><stop
         style="stop-color:#89d7e7;stop-opacity:1"
         offset="0"
         id="stop27766" /><stop
         style="stop-color:#2d90b4;stop-opacity:1"
         offset="1"
         id="stop27768" /></linearGradient><radialGradient
       id="radialGradient858"
       cx="70.093"
       cy="110.72"
       r="65.591"
       gradientTransform="matrix(0.083741,0,0,0.07669754,2.597,-0.02526031)"
       gradientUnits="userSpaceOnUse"><stop
         stop-color="#ffcd6f"
         offset="0"
         id="stop27386" /><stop
         stop-color="#eb595a"
         offset="1"
         id="stop27388" /></radialGradient><linearGradient
       id="linearGradient897"
       x1="-113.86"
       x2="-113.86"
       y1="219.42"
       y2="153.65"
       gradientUnits="userSpaceOnUse"><stop
         stop-color="#e46153"
         offset="0"
         id="stop27391" /><stop
         stop-color="#ed7559"
         offset="1"
         id="stop27393" /></linearGradient><linearGradient
       id="linearGradient991"
       x1="-82.474"
       x2="-135"
       y1="187.76"
       y2="157.43"
       gradientUnits="userSpaceOnUse"><stop
         stop-color="#c5424b"
         offset="0"
         id="stop27396" /><stop
         stop-color="#c5424b"
         stop-opacity="0"
         offset="1"
         id="stop27398" /></linearGradient><radialGradient
       id="radialGradient919"
       cx="-116.85"
       cy="178.26"
       r="31.568"
       gradientTransform="matrix(0.86769,0,0,0.79011,-15.864,37.565)"
       gradientUnits="userSpaceOnUse"><stop
         stop-color="#ad2949"
         offset="0"
         id="stop27401" /><stop
         stop-color="#b2294a"
         offset=".70608"
         id="stop27403" /><stop
         stop-color="#b02949"
         stop-opacity="0"
         offset=".79177"
         id="stop27405" /><stop
         stop-color="#ad2949"
         stop-opacity="0"
         offset="1"
         id="stop27407" /></radialGradient><radialGradient
       id="radialGradient956"
       cx="-78.054"
       cy="98.705"
       r="15.301"
       gradientTransform="matrix(1.0307,0.021567,-0.019143,0.91483,-26.441,93.521)"
       gradientUnits="userSpaceOnUse"><stop
         offset="0"
         id="stop27410" /><stop
         stop-opacity=".79545"
         offset=".50263"
         id="stop27412" /><stop
         stop-opacity="0"
         offset="1"
         id="stop27414" /></radialGradient><linearGradient
       id="linearGradient954"
       x1="-413.4"
       x2="-399"
       y1="683.21"
       y2="642.98"
       gradientUnits="userSpaceOnUse"><stop
         stop-color="#931c42"
         offset="0"
         id="stop27417" /><stop
         stop-color="#931c42"
         stop-opacity="0"
         offset="1"
         id="stop27419" /></linearGradient><radialGradient
       id="radialGradient970"
       cx="-113.86"
       cy="175.53"
       r="9.6217"
       gradientTransform="matrix(3.832,4.2972e-7,-4.4738e-7,3.9895,1.4314,-32.31)"
       gradientUnits="userSpaceOnUse"><stop
         offset="0"
         id="stop27422" /><stop
         stop-opacity=".52157"
         offset=".57258"
         id="stop27424" /><stop
         stop-opacity=".36078"
         offset=".73387"
         id="stop27426" /><stop
         stop-opacity=".11765"
         offset=".8629"
         id="stop27428" /><stop
         stop-opacity="0"
         offset="1"
         id="stop27430" /></radialGradient><radialGradient
       id="radialGradient1012"
       cx="-114.28"
       cy="176.82"
       r="31.568"
       gradientTransform="matrix(1.2993,1.1834e-7,-1.2813e-7,1.4067,35.608,-72.796)"
       gradientUnits="userSpaceOnUse"><stop
         stop-opacity="0"
         offset="0"
         id="stop27433" /><stop
         stop-color="#651e30"
         stop-opacity="0"
         offset=".8"
         id="stop27435" /><stop
         stop-color="#950719"
         stop-opacity=".80734"
         offset="1"
         id="stop27437" /></radialGradient><linearGradient
       id="linearGradient885"
       x1="275.72"
       x2="275.72"
       y1="596.81"
       y2="306.81"
       gradientUnits="userSpaceOnUse"
       gradientTransform="matrix(0.02215619,0,0,0.02215619,2.597,-0.80509)"><stop
         stop-color="#f09c5f"
         offset="0"
         id="stop27440" /><stop
         stop-color="#d44951"
         offset="1"
         id="stop27442" /></linearGradient><linearGradient
       id="linearGradient862-3"
       x1="7.9373"
       x2="7.9373"
       y1="15.081"
       y2="1.852"
       gradientTransform="matrix(1 0 0 1 -.00036391 -.0001623)"
       gradientUnits="userSpaceOnUse"><stop
         stop-color="#f1efeb"
         offset="0"
         id="stop27445" /><stop
         stop-color="#fdfcfc"
         offset="1"
         id="stop27447" /></linearGradient><radialGradient
       inkscape:collect="always"
       xlink:href="#linearGradient27770"
       id="radialGradient49443"
       cx="12.671936"
       cy="-7.8177123"
       fx="12.671936"
       fy="-7.8177123"
       r="2.3298745"
       gradientUnits="userSpaceOnUse"
       gradientTransform="translate(-4.205436,17.054472)" /><filter
       id="filter1057"
       x="-0.026999999"
       y="-0.026999999"
       width="1.054"
       height="1.054"
       color-interpolation-filters="sRGB"><feGaussianBlur
         stdDeviation="0.61875"
         id="feGaussianBlur65334" /></filter><linearGradient
       id="linearGradient1053"
       x1="-127"
       x2="-72"
       y1="60"
       y2="5"
       gradientTransform="matrix(0.26458,0,0,0.26458,34.7927,-0.13505004)"
       gradientUnits="userSpaceOnUse"><stop
         stop-color="#dee0e2"
         offset="0"
         id="stop65337" /><stop
         stop-color="#f1f3f5"
         stop-opacity=".99608"
         offset="1"
         id="stop65339" /></linearGradient><linearGradient
       inkscape:collect="always"
       xlink:href="#linearGradient67390"
       id="linearGradient67392"
       x1="8.4665556"
       y1="13.49725"
       x2="8.4665556"
       y2="3.4359026"
       gradientUnits="userSpaceOnUse" /></defs><rect
     transform="matrix(0.26458,0,0,0.26458,-6.016263e-5,-6.016263e-5)"
     x="4.5"
     y="4.5"
     width="55"
     height="55"
     ry="15"
     fill="#141414"
     filter="url(#filter1057)"
     opacity="0.3"
     stroke-linecap="round"
     stroke-width="2.7444"
     id="rect65346" /><rect
     x="1.1905"
     y="1.1905"
     width="14.552"
     height="14.552"
     ry="3.9686999"
     fill="url(#linearGradient1053)"
     stroke-linecap="round"
     stroke-width="0.72611"
     id="rect65348"
     style="fill:url(#linearGradient1053)" /><g
     id="g64243"><path
       d="M 10.055057,3.4360567 C 9.6989737,3.4400402 9.3684564,3.6631874 9.2429705,4.0195221 L 8.8444554,5.151198 C 8.5400067,5.1352361 8.2255173,5.1471248 7.9196198,5.1863801 L 7.6418007,4.1327508 C 7.5377692,3.7382218 7.1828665,3.4792277 6.7935881,3.4819911 6.7215064,3.482502 6.6482472,3.4920233 6.5751832,3.5112879 6.1075902,3.6345798 5.8304242,4.1102371 5.9537161,4.5778133 L 6.2754155,5.7979197 C 6.0464676,5.9843188 5.8356497,6.1620842 5.6383726,6.3343059 L 4.7152118,5.3806634 C 4.5470432,5.2069343 4.3253221,5.1178088 4.1022277,5.1141828 3.8791333,5.1105526 3.6546656,5.192422 3.4809365,5.3605907 3.1334783,5.6969197 3.1245264,6.2474079 3.4608571,6.5948493 l 0.90658,0.9365593 C 4.0444481,7.8559301 3.7196921,8.1932975 3.3524962,8.5705507 3.1163969,8.8130814 2.9820679,9.0824678 2.9739283,9.3426929 l 0.2879015,0.00255 -0.2879015,0.00255 c 0.00814,0.2602335 0.1424602,0.5296115 0.3785679,0.7721421 1.0321079,1.028507 1.8124065,2.033902 3.091634,2.826008 1.3588652,0.779545 3.1059537,0.691692 4.0600988,-0.0079 1.42008,-0.965701 2.044369,-1.757891 3.076393,-2.818136 0.236099,-0.2425308 0.370428,-0.5119172 0.37856,-0.7721424 l -0.287902,-0.00255 0.287902,-0.00255 C 13.951042,9.0824092 13.816721,8.8130311 13.580622,8.5705004 13.183028,8.1620788 12.835126,7.8001586 12.485457,7.450967 L 13.357536,6.5499976 C 13.693865,6.2025394 13.684913,5.6520428 13.337457,5.315739 13.163727,5.1475703 12.93926,5.065747 12.716165,5.0693813 c -0.223094,0.00363 -0.444815,0.09271 -0.612984,0.2664388 l -0.89427,0.9239144 C 11.016081,6.0930983 10.811275,5.9214628 10.588055,5.740959 10.56409,5.716994 10.53862,5.6938304 10.511979,5.6713309 l 0.37753,-1.0720523 C 11.050132,4.1431582 10.812269,3.646641 10.356154,3.4860258 10.256376,3.4508897 10.154665,3.4348416 10.054963,3.435957 Z M 8.4596237,6.1610726 A 3.0662605,3.0662605 0 0 1 11.525884,9.227333 3.0662605,3.0662605 0 0 1 8.4596237,12.293593 3.0662605,3.0662605 0 0 1 5.3933632,9.227333 3.0662605,3.0662605 0 0 1 8.4596237,6.1610726 Z"
       id="path27458"
       style="fill-opacity:1;fill:url(#linearGradient67392)" /><path
       d="M 8.4444665,5.6962263 A 3.5563965,3.5563965 0 0 0 4.88807,9.2526228 3.5563965,3.5563965 0 0 0 8.4444665,12.809019 3.5563965,3.5563965 0 0 0 12.000863,9.2526228 3.5563965,3.5563965 0 0 0 8.4444665,5.6962263 Z m 0.00723,0.3856775 A 3.1607203,3.1607203 0 0 1 11.612413,9.2426241 3.1607203,3.1607203 0 0 1 8.4516926,12.403344 3.1607203,3.1607203 0 0 1 5.2909723,9.2426241 3.1607203,3.1607203 0 0 1 8.4516926,6.0819038 Z"
       fill="#fadcc6"
       fill-opacity="0.18636"
       id="path27460"
       style="stroke-width:0.083741" /><path
       d="M 8.4526595,5.7868196 A 3.4499403,3.4499403 0 0 0 5.0027191,9.23676 3.4499403,3.4499403 0 0 0 8.4526595,12.6867 3.4499403,3.4499403 0 0 0 11.9026,9.23676 3.4499403,3.4499403 0 0 0 8.4526595,5.7868196 Z m 0.00701,0.3741516 A 3.0661951,3.0661951 0 0 1 11.525865,9.2271664 3.0661951,3.0661951 0 0 1 8.4596697,12.293361 3.0661951,3.0661951 0 0 1 5.3934745,9.2271664 3.0661951,3.0661951 0 0 1 8.4596695,6.1609712 Z"
       fill="url(#linearGradient885)"
       id="path27480"
       style="fill:url(#linearGradient885);stroke-width:0.0221562" /><circle
       style="opacity:0.3;fill:#cbd6d8;fill-opacity:1;fill-rule:evenodd;stroke:none;stroke-width:0.478605;stroke-linecap:round;stroke-linejoin:round;stroke-dasharray:none;stroke-opacity:1;paint-order:stroke fill markers"
       id="path59943"
       cx="8.4665003"
       cy="9.2272167"
       r="3.4403694" /><path
       id="path27704"
       style="fill:url(#radialGradient49443);fill-opacity:1;fill-rule:evenodd;stroke-width:0.0876652;stroke-linecap:round;stroke-linejoin:round;paint-order:stroke fill markers"
       d="M 8.125959 6.9322569 A 2.3298745 2.3298745 0 0 0 6.1364555 9.2369804 A 2.3298745 2.3298745 0 0 0 8.4665 11.566508 A 2.3298745 2.3298745 0 0 0 10.796544 9.2369804 A 2.3298745 2.3298745 0 0 0 9.9867907 7.4717483 L 9.8896409 7.8339929 C 9.7507541 8.3523255 9.221506 8.657579 8.7031734 8.5186922 C 8.1848408 8.3798054 7.8795874 7.851074 8.0184742 7.3327414 L 8.125959 6.9322569 z " /><path
       id="circle32052"
       style="color:#000000;fill:#0b638a;fill-rule:evenodd;stroke-linecap:round;stroke-linejoin:round;-inkscape-stroke:none;paint-order:stroke fill markers"
       d="M 8.1383611 6.8857491 C 6.9833422 7.0457372 6.0935649 8.0374796 6.0935649 9.2364637 C 6.0935649 10.546904 7.1565763 11.611466 8.4670168 11.611466 C 9.7774571 11.611466 10.839952 10.546904 10.839952 9.2364637 C 10.839952 8.5100434 10.513451 7.8595283 9.9991928 7.4242069 L 9.9743886 7.5182561 C 10.451172 7.9369104 10.752104 8.5513496 10.752104 9.2364637 C 10.752104 10.499526 9.7300795 11.523617 8.4670168 11.523618 C 7.203954 11.523618 6.1798629 10.499526 6.1798629 9.2364637 C 6.1798629 8.0936176 7.0183139 7.1484065 8.1135569 6.9787648 L 8.1383611 6.8857491 z " /><path
       id="circle35384"
       style="color:#000000;fill:#2790b7;fill-rule:evenodd;stroke-linecap:round;stroke-linejoin:round;-inkscape-stroke:none;paint-order:stroke fill markers"
       d="M 8.0246752 7.3094875 C 7.1459854 7.5105157 6.4883652 8.2977271 6.4883651 9.2364637 C 6.4883651 10.327093 7.3763866 11.214599 8.4670168 11.214599 C 9.5576468 11.214599 10.443601 10.327093 10.443601 9.2364637 C 10.443601 8.7007925 10.229644 8.2144744 9.8829231 7.8582804 C 9.85529 7.9519187 9.8144498 8.0379074 9.7635529 8.1156239 C 10.023002 8.4157549 10.17954 8.8075882 10.17954 9.2364637 C 10.17954 10.184106 9.4146585 10.948987 8.4670168 10.948987 C 7.519375 10.948987 6.7539768 10.184106 6.7539767 9.2364637 C 6.7539767 8.4562499 7.2727141 7.7998032 7.9848851 7.592152 C 7.984295 7.5065854 7.9952032 7.4195897 8.0184742 7.3327414 L 8.0246752 7.3094875 z " /><path
       id="circle59864"
       style="color:#000000;fill:#2790b7;fill-rule:evenodd;stroke-linecap:round;stroke-linejoin:round;-inkscape-stroke:none;paint-order:stroke fill markers"
       d="M 8.0215747 7.848462 C 7.4344316 8.0368362 7.007703 8.5878057 7.007703 9.2364637 C 7.007703 10.040252 7.6632289 10.695261 8.4670168 10.695261 C 9.2708047 10.695261 9.9237467 10.040252 9.9237467 9.2364637 C 9.9237467 8.8859957 9.7997345 8.5640632 9.593024 8.3125073 C 9.5264332 8.3708875 9.4519829 8.4196186 9.37237 8.4577152 C 9.5518686 8.6664627 9.660202 8.9384965 9.6602021 9.2364637 C 9.6602021 9.8972633 9.1278163 10.429649 8.4670168 10.429649 C 7.8062171 10.429649 7.2733147 9.8972633 7.2733147 9.2364637 C 7.2733147 8.6932428 7.6333615 8.2366116 8.1285428 8.0913365 C 8.0820475 8.0158408 8.0459505 7.9342956 8.0215747 7.848462 z " /><path
       id="circle59866"
       style="color:#000000;fill:#2790b7;fill-rule:evenodd;stroke-linecap:round;stroke-linejoin:round;-inkscape-stroke:none;paint-order:stroke fill markers"
       d="M 8.283569 8.283569 C 7.8360413 8.3697042 7.4960357 8.7644013 7.4960357 9.2364637 C 7.4960357 9.7712086 7.9322718 10.206928 8.4670168 10.206928 C 9.0017616 10.206928 9.437481 9.7712086 9.437481 9.2364637 C 9.437481 8.9612662 9.3222151 8.7121425 9.1372469 8.5352283 C 8.9977766 8.5619571 8.850036 8.5580439 8.7031734 8.5186922 C 8.5396759 8.4748832 8.397444 8.3924425 8.283569 8.283569 z M 8.4484136 8.529544 C 8.4544965 8.529391 8.4608956 8.529544 8.4670168 8.529544 C 8.8587734 8.529544 9.1739364 8.8447071 9.1739364 9.2364637 C 9.1739364 9.6282204 8.8587734 9.9433834 8.4670168 9.9433834 C 8.07526 9.9433834 7.7595803 9.6282204 7.7595803 9.2364637 C 7.7595803 8.8508283 8.0651882 8.539185 8.4484136 8.529544 z " /><circle
       style="fill:#3795bd;fill-opacity:1;fill-rule:evenodd;stroke:none;stroke-width:0.115385;stroke-linecap:round;stroke-linejoin:round;stroke-dasharray:none;stroke-opacity:1;paint-order:stroke fill markers"
       id="circle59868"
       cx="8.4665003"
       cy="9.2367601"
       r="0.36580515" /><path
       id="circle59870"
       style="opacity:0.1;fill:#ffffff;fill-opacity:1;fill-rule:evenodd;stroke-width:0.05971;stroke-linecap:round;stroke-linejoin:round;paint-order:stroke fill markers"
       d="M 8.1275093 6.9265726 A 1.9776015 1.2734075 0 0 0 6.4888819 8.1802182 A 1.9776015 1.2734075 0 0 0 8.4665 9.4535004 A 1.9776015 1.2734075 0 0 0 10.444118 8.1802182 A 1.9776015 1.2734075 0 0 0 10.010045 7.3844168 L 9.8896409 7.8339929 C 9.7507541 8.3523255 9.221506 8.657579 8.7031734 8.5186922 C 8.1848408 8.3798054 7.8795874 7.851074 8.0184742 7.3327414 L 8.1275093 6.9265726 z " /></g></svg>
