<?xml version="1.0" encoding="UTF-8" standalone="no"?>
<svg
   width="64"
   height="64"
   version="1.1"
   viewBox="0 0 64 64"
   id="svg8"
   sodipodi:docname="xonotic.svg"
   inkscape:version="1.2.2 (b0a8486541, 2022-12-01)"
   xmlns:inkscape="http://www.inkscape.org/namespaces/inkscape"
   xmlns:sodipodi="http://sodipodi.sourceforge.net/DTD/sodipodi-0.dtd"
   xmlns="http://www.w3.org/2000/svg"
   xmlns:svg="http://www.w3.org/2000/svg">
  <defs
     id="defs12">
    <filter
       id="filter1057"
       x="-0.026999999"
       y="-0.026999999"
       width="1.054"
       height="1.054"
       color-interpolation-filters="sRGB">
      <feGaussianBlur
         stdDeviation="0.61875"
         id="feGaussianBlur257" />
    </filter>
    <linearGradient
       id="linearGradient1053"
       x1="-127"
       x2="-72"
       y1="60"
       y2="5"
       gradientTransform="translate(203.93,-0.054156)"
       gradientUnits="userSpaceOnUse">
      <stop
         stop-color="#1d2123"
         offset="0"
         id="stop260" />
      <stop
         stop-color="#33393e"
         stop-opacity=".99608"
         offset="1"
         id="stop262" />
    </linearGradient>
  </defs>
  <sodipodi:namedview
     id="namedview10"
     pagecolor="#ffffff"
     bordercolor="#999999"
     borderopacity="1"
     inkscape:showpageshadow="0"
     inkscape:pageopacity="0"
     inkscape:pagecheckerboard="0"
     inkscape:deskcolor="#d1d1d1"
     showgrid="false"
     inkscape:zoom="6.328125"
     inkscape:cx="23.703704"
     inkscape:cy="33.264198"
     inkscape:window-width="1920"
     inkscape:window-height="989"
     inkscape:window-x="0"
     inkscape:window-y="0"
     inkscape:window-maximized="1"
     inkscape:current-layer="svg8" />
  <g
     transform="translate(-72.440002)"
     id="g273">
    <rect
       x="76.934998"
       y="4.9558001"
       width="55"
       height="55"
       ry="15"
       fill="#141414"
       filter="url(#filter1057)"
       opacity="0.3"
       stroke-linecap="round"
       stroke-width="2.7444"
       id="rect267" />
    <rect
       x="76.934998"
       y="4.9558001"
       width="55"
       height="55"
       ry="15"
       fill="url(#linearGradient1053)"
       stroke-linecap="round"
       stroke-width="2.7444"
       id="rect269"
       style="fill:url(#linearGradient1053)" />
    <circle
       cx="104.44"
       cy="32"
       r="30.000999"
       fill-opacity="0"
       stroke-width="1.5715"
       id="circle271" />
  </g>
  <path
     d="m36.292 22.797c-5.4023 1.4404-9.5568 6.2687-14.344 9.612 2.0403-0.83465 4.6041-2.1459 5.65-2.2375l-3.375 3.7424 2.6049-1.1375c-1.1645 3.4619-2.545 6.6948-5.9048 7.9603l11.077 8.5203 11.598-9.1072c-4.5301 0.12326-8.5567-0.40852-8.9875-5.6125-0.11035-0.62335 0.05048-4.9527 6.2734-6.9331-0.62804-0.43083-2.7329-0.14204-4.219-0.14674-0.064565-0.58696 0.29817-3.1273 5.0995-3.4114-1.2056-1.2385-2.7235-1.3347-4.8788-0.66091-0.22891-0.2207-0.36274-0.19722-0.58696-0.58696m-1.2479 1.8712c0.30756 0.13265 0.34865 0.33456 0.40383 0.55056-0.53648 0.11035-1.2937 0.36744-1.5038 0.07396-0.09626-0.10096 0.55996-0.47191 1.1047-0.61396"
     fill="#fab268"
     id="path4" />
  <path
     d="m24.59 16.042c-6.021 2.7927-10.199 8.8818-10.199 15.958 0 9.7212 7.8828 17.604 17.609 17.604 9.7212 0 17.604-7.8828 17.604-17.604 0-6.9883-4.077-13.019-9.9783-15.848l-0.18313 0.18313c4.6593 2.6143 7.8183 7.5893 7.8183 13.312 0 7.6856-5.6723 14.014-13.06 15.078l-2.2011 3.7096-2.2011-3.7096c-7.3874-1.0636-13.06-7.3921-13.06-15.078 0-5.7827 3.2236-10.799 7.9603-13.39-0.0317-0.06926-0.07748-0.14674-0.11035-0.2207"
     fill="#7799b9"
     id="path6" />
</svg>
