<?xml version="1.0" encoding="UTF-8" standalone="no"?>
<svg
   width="64"
   height="64"
   version="1.1"
   id="svg76644"
   sodipodi:docname="yuzu.svg"
   inkscape:version="1.2.2 (b0a8486541, 2022-12-01)"
   xmlns:inkscape="http://www.inkscape.org/namespaces/inkscape"
   xmlns:sodipodi="http://sodipodi.sourceforge.net/DTD/sodipodi-0.dtd"
   xmlns="http://www.w3.org/2000/svg"
   xmlns:svg="http://www.w3.org/2000/svg">
  <sodipodi:namedview
     id="namedview76646"
     pagecolor="#ffffff"
     bordercolor="#999999"
     borderopacity="1"
     inkscape:showpageshadow="0"
     inkscape:pageopacity="0"
     inkscape:pagecheckerboard="0"
     inkscape:deskcolor="#d1d1d1"
     showgrid="false"
     inkscape:zoom="13.1875"
     inkscape:cx="45.270142"
     inkscape:cy="31.279621"
     inkscape:window-width="3840"
     inkscape:window-height="1967"
     inkscape:window-x="1920"
     inkscape:window-y="52"
     inkscape:window-maximized="1"
     inkscape:current-layer="svg76644" />
  <defs
     id="defs76628">
    <linearGradient
       id="linearGradient862-3"
       x1="7.9373"
       x2="7.9373"
       y1="15.081"
       y2="1.852"
       gradientTransform="scale(3.7796)"
       gradientUnits="userSpaceOnUse">
      <stop
         stop-color="#f1efeb"
         offset="0"
         id="stop76607" />
      <stop
         stop-color="#fdfcfc"
         offset="1"
         id="stop76609" />
    </linearGradient>
    <filter
       id="filter1037"
       x="-0.1008"
       y="-0.062999998"
       width="1.2016"
       height="1.126"
       color-interpolation-filters="sRGB">
      <feGaussianBlur
         stdDeviation="0.84"
         id="feGaussianBlur76612" />
    </filter>
    <filter
       id="filter1041"
       x="-0.1008"
       y="-0.062999998"
       width="1.2016"
       height="1.126"
       color-interpolation-filters="sRGB">
      <feGaussianBlur
         stdDeviation="0.84"
         id="feGaussianBlur76615" />
    </filter>
    <linearGradient
       id="linearGradient1074"
       x1="20.336"
       x2="20.336"
       y1="43.964"
       y2="12"
       gradientUnits="userSpaceOnUse">
      <stop
         stop-color="#0bb0da"
         offset="0"
         id="stop76618" />
      <stop
         stop-color="#2bccf6"
         offset="1"
         id="stop76620" />
    </linearGradient>
    <linearGradient
       id="linearGradient1178"
       x1="42.426"
       x2="42.426"
       y1="52"
       y2="20"
       gradientUnits="userSpaceOnUse">
      <stop
         stop-color="#ff210a"
         offset="0"
         id="stop76623" />
      <stop
         stop-color="#ff5f4c"
         offset="1"
         id="stop76625" />
    </linearGradient>
    <filter
       id="filter1057"
       x="-0.026999999"
       y="-0.026999999"
       width="1.054"
       height="1.054"
       color-interpolation-filters="sRGB">
      <feGaussianBlur
         stdDeviation="0.61875"
         id="feGaussianBlur65334" />
    </filter>
    <linearGradient
       id="linearGradient1053"
       x1="-127"
       x2="-72"
       y1="60"
       y2="5"
       gradientTransform="matrix(1.0000071,0,0,1.0000071,131.50256,-0.51043497)"
       gradientUnits="userSpaceOnUse">
      <stop
         stop-color="#dee0e2"
         offset="0"
         id="stop65337" />
      <stop
         stop-color="#f1f3f5"
         stop-opacity=".99608"
         offset="1"
         id="stop65339" />
    </linearGradient>
  </defs>
  <rect
     transform="matrix(1.0000071,0,0,1.0000071,-2.2781468e-4,-2.2781468e-4)"
     x="4.5"
     y="4.5"
     width="55"
     height="55"
     ry="15"
     fill="#141414"
     filter="url(#filter1057)"
     opacity="0.3"
     stroke-linecap="round"
     stroke-width="2.7444"
     id="rect65346" />
  <rect
     x="4.4996166"
     y="4.4996166"
     width="55.000767"
     height="55.000767"
     ry="15.000106"
     fill="url(#linearGradient1053)"
     stroke-linecap="round"
     stroke-width="2.74441"
     id="rect65348"
     style="fill:url(#linearGradient1053)" />
  <path
     d="m38 21a16 16 0 0 1 16 16 16 16 0 0 1-16 16h-4v-32zm0 4v24a12 12 0 0 0 12-12 12 12 0 0 0-12-12z"
     filter="url(#filter1037)"
     opacity=".1"
     id="path76634" />
  <path
     d="m38 20a16 16 0 0 1 16 16 16 16 0 0 1-16 16h-4v-32zm0 4v24a12 12 0 0 0 12-12 12 12 0 0 0-12-12z"
     fill="url(#linearGradient1178)"
     id="path76636" />
  <path
     d="m26 13a16 16 0 0 0-16 16 16 16 0 0 0 16 16h4v-32zm0 4v24a12 12 0 0 1-12-12 12 12 0 0 1 12-12z"
     filter="url(#filter1041)"
     opacity=".1"
     id="path76638" />
  <path
     d="m26 12a16 16 0 0 0-16 16 16 16 0 0 0 16 16h4v-32zm0 4v24a12 12 0 0 1-12-12 12 12 0 0 1 12-12z"
     fill="url(#linearGradient1074)"
     id="path76640" />
</svg>
