<?xml version="1.0" encoding="UTF-8" standalone="no"?>
<svg
   width="64"
   height="64"
   fill="none"
   version="1.1"
   id="svg92"
   sodipodi:docname="zorin-appearance.svg"
   inkscape:version="1.2.2 (b0a8486541, 2022-12-01)"
   xmlns:inkscape="http://www.inkscape.org/namespaces/inkscape"
   xmlns:sodipodi="http://sodipodi.sourceforge.net/DTD/sodipodi-0.dtd"
   xmlns:xlink="http://www.w3.org/1999/xlink"
   xmlns="http://www.w3.org/2000/svg"
   xmlns:svg="http://www.w3.org/2000/svg">
  <sodipodi:namedview
     id="namedview94"
     pagecolor="#ffffff"
     bordercolor="#999999"
     borderopacity="1"
     inkscape:showpageshadow="0"
     inkscape:pageopacity="0"
     inkscape:pagecheckerboard="0"
     inkscape:deskcolor="#d1d1d1"
     showgrid="false"
     inkscape:zoom="16.046875"
     inkscape:cx="40.942552"
     inkscape:cy="40.786758"
     inkscape:window-width="3840"
     inkscape:window-height="1967"
     inkscape:window-x="1920"
     inkscape:window-y="52"
     inkscape:window-maximized="1"
     inkscape:current-layer="svg92" />
  <defs
     id="defs14">
    <linearGradient
       id="d"
       x1="45"
       x2="57.008"
       y1="19"
       y2="6.992"
       gradientUnits="userSpaceOnUse"
       xlink:href="#a"
       gradientTransform="translate(78.61952)" />
    <linearGradient
       id="a">
      <stop
         stop-color="#fff"
         offset="0"
         id="stop3" />
      <stop
         stop-color="#ccf0ff"
         offset="1"
         id="stop5" />
    </linearGradient>
    <linearGradient
       id="c"
       x1="7.937"
       x2="7.937"
       y1="15.081"
       y2="1.852"
       gradientTransform="matrix(3.7796,0,0,3.7796,78.61952,0)"
       gradientUnits="userSpaceOnUse">
      <stop
         stop-color="#2858e4"
         offset="0"
         id="stop8" />
      <stop
         stop-color="#5ab9f4"
         offset="1"
         id="stop10" />
    </linearGradient>
    <linearGradient
       id="b"
       x1="7.937"
       x2="7.937"
       y1="6.879"
       y2="1.058"
       gradientTransform="matrix(3.7796,0,0,3.7796,78.61952,0)"
       gradientUnits="userSpaceOnUse"
       xlink:href="#a" />
    <linearGradient
       id="linearGradient862"
       x1="7.9373002"
       x2="7.9373002"
       y1="15.081"
       y2="1.852"
       gradientUnits="userSpaceOnUse"
       gradientTransform="matrix(3.779602,0,0,3.779602,0,3.2e-6)">
      <stop
         stop-color="#2858e4"
         offset="0"
         id="stop832" />
      <stop
         stop-color="#5ab9f4"
         offset="1"
         id="stop834" />
    </linearGradient>
    <filter
       id="filter1114"
       x="-0.15774167"
       y="-0.15774167"
       width="1.3154833"
       height="1.3154833"
       color-interpolation-filters="sRGB">
      <feGaussianBlur
         stdDeviation="0.69558817"
         id="feGaussianBlur837" />
    </filter>
    <filter
       id="filter1057"
       x="-0.026999999"
       y="-0.026999999"
       width="1.054"
       height="1.054"
       color-interpolation-filters="sRGB">
      <feGaussianBlur
         stdDeviation="0.61875"
         id="feGaussianBlur282" />
    </filter>
    <linearGradient
       id="linearGradient1053"
       x1="-127"
       x2="-72"
       y1="60"
       y2="5"
       gradientTransform="matrix(1.0000071,0,0,1.0000071,131.49954,-0.51035901)"
       gradientUnits="userSpaceOnUse">
      <stop
         stop-color="#4384ff"
         offset="0"
         id="stop285" />
      <stop
         stop-color="#23edff"
         offset="1"
         id="stop287" />
    </linearGradient>
  </defs>
  <rect
     transform="matrix(1.0000071,0,0,1.0000071,-2.2781468e-4,-2.2781468e-4)"
     x="4.5"
     y="4.5"
     width="55"
     height="55"
     ry="15"
     fill="#141414"
     filter="url(#filter1057)"
     opacity="0.3"
     stroke-linecap="round"
     stroke-width="2.7444"
     id="rect294" />
  <rect
     x="4.4996166"
     y="4.4996166"
     width="55.000767"
     height="55.000767"
     ry="15.000106"
     fill="url(#linearGradient1053)"
     stroke-linecap="round"
     stroke-width="2.74437"
     id="rect296"
     style="fill:url(#linearGradient1053)" />
  <path
     d="M 8.402,3.142 A 0.52916,0.52916 0 0 0 8.35136,3.1451 c -2.8927,0.027659 -5.2409,2.3894 -5.2409,5.2885 0,2.9162 2.3754,5.2916 5.2916,5.2916 2.8984,0 5.2597,-2.3471 5.2885,-5.2389 A 0.52916,0.52916 0 0 0 13.69366,8.43359 0.52916,0.52916 0 0 0 13.1645,7.90443 0.52916,0.52916 0 0 0 12.63534,8.43359 c 0,2.3442 -1.889,4.2333 -4.2333,4.2333 -2.3442,0 -4.2332,-1.889 -4.2332,-4.2333 0,-2.3442 1.889,-4.2332 4.2332,-4.2332 A 0.52916,0.52916 0 0 0 8.9312,3.67124 0.52916,0.52916 0 0 0 8.40204,3.14208 Z m 0,2.1166 A 0.52916,0.52916 0 0 0 8.35136,5.26066 c -1.7238,0.027549 -3.1243,1.4428 -3.1243,3.1729 0,1.7472 1.4277,3.1749 3.1749,3.1749 1.7294,0 3.1432,-1.3994 3.1718,-3.1222 A 0.52916,0.52916 0 0 0 11.57686,8.43355 0.52916,0.52916 0 0 0 11.0477,7.90439 0.52916,0.52916 0 0 0 10.51854,8.43355 c 0,1.1752 -0.94138,2.1166 -2.1166,2.1166 -1.1752,0 -2.1166,-0.94138 -2.1166,-2.1166 0,-1.1752 0.94138,-2.1166 2.1166,-2.1166 A 0.52916,0.52916 0 0 0 8.9311,5.7878 0.52916,0.52916 0 0 0 8.40194,5.25864 Z m 0,2.1166 A 1.0583,1.0583 0 0 0 7.3437,8.4335 1.0583,1.0583 0 0 0 8.402,9.4918 1.0583,1.0583 0 0 0 9.4603,8.4335 1.0583,1.0583 0 0 0 8.402,7.3752 Z"
     filter="url(#filter1114)"
     opacity="0.34974"
     stroke-width="0.26458"
     id="path854"
     transform="matrix(3.779602,0,0,3.779602,0,3.2e-6)" />
  <g
     id="g1249"
     transform="translate(-77.12102)">
    <path
       d="m 125.12452,43.126 h -28.135 v 0.012 a 3.12,3.12 0 0 0 -0.246,-0.012 c -1.823,0 -3.302,1.566 -3.302,3.498 0,1.932 1.478,3.5 3.302,3.5 0.082,0 0.164,-0.004 0.246,-0.01 v 0.01 h 28.134 z m -27.188,3.633 c 0,0.527 -0.786,0.82 -1.313,0.82 -0.527,0 -1.94,-0.965 -1.94,-1.492 0,-0.527 1.772,-1.537 2.299,-1.537 0.527,0 0.954,1.682 0.954,2.209 z"
       fill="#bcc5ca"
       id="path1162" />
    <path
       d="m 125.12352,42.712 h -28.134 v 0.013 a 3.12,3.12 0 0 0 -0.245,-0.013 c -1.824,0 -3.303,1.566 -3.303,3.499 0,1.932 1.478,3.499 3.303,3.499 0.081,0 0.163,-0.003 0.245,-0.01 v 0.01 h 28.134 z m -27.547,3.5 a 0.954,0.954 0 0 1 -0.954,0.953 0.954,0.954 0 0 1 -0.954,-0.954 0.954,0.954 0 0 1 0.954,-0.954 0.954,0.954 0 0 1 0.954,0.954 z"
       fill="#f1f3f5"
       id="path1164" />
    <path
       d="m 96.73652,45.267 a 0.954,0.954 0 0 0 -0.112,-0.008 0.954,0.954 0 0 0 -0.955,0.955 0.954,0.954 0 0 0 0.955,0.954 0.954,0.954 0 0 0 0.11,-0.008 0.954,0.954 0 0 1 -0.84,-0.946 0.954,0.954 0 0 1 0.842,-0.947 z"
       fill="#bcc5ca"
       id="path1166" />
    <path
       fill="#00aade"
       d="m 113.79752,42.713 v 6.998 h -4.453 v -6.998 z"
       id="path1168" />
    <path
       fill="#c1ebf7"
       d="m 123.34052,42.713 v 6.998 h -4.453 v -6.998 z"
       id="path1170" />
    <path
       fill="#006888"
       d="m 109.02752,42.713 v 6.998 h -4.453 v -6.998 z"
       id="path1172" />
    <path
       fill="#003445"
       d="m 104.25752,42.713 v 6.998 h -4.453 v -6.998 z"
       id="path1174" />
    <path
       fill="#6acfec"
       d="m 118.57152,42.713 v 6.998 h -4.454 v -6.998 z"
       id="path1176" />
    <path
       d="M 119.55152,28.933 95.18652,43 l 0.006,0.011 a 3.12,3.12 0 0 0 -0.219,0.112 c -1.58,0.912 -2.077,3.007 -1.11,4.68 0.965,1.675 3.03,2.292 4.61,1.38 0.07,-0.04 0.14,-0.084 0.207,-0.131 l 0.005,0.009 24.364,-14.068 z m -22.107,16.804 a 0.954,0.954 0 0 1 -0.35,1.303 0.954,0.954 0 0 1 -1.303,-0.35 0.954,0.954 0 0 1 0.35,-1.303 0.954,0.954 0 0 1 1.303,0.35 z"
       fill="#f1f3f5"
       id="path1178" />
    <path
       d="m 96.24452,45.34 a 0.954,0.954 0 0 0 -0.101,0.049 0.954,0.954 0 0 0 -0.35,1.303 0.954,0.954 0 0 0 1.304,0.35 0.954,0.954 0 0 0 0.093,-0.062 0.954,0.954 0 0 1 -1.203,-0.4 0.954,0.954 0 0 1 0.257,-1.24 z"
       fill="#bcc5ca"
       id="path1180" />
    <path
       fill="#6acc0a"
       d="m 109.74252,34.596 3.5,6.06 -3.857,2.227 -3.5,-6.06 z"
       id="path1182" />
    <path
       fill="#d7fdb2"
       d="m 118.00752,29.824 3.5,6.06 -3.857,2.227 -3.5,-6.06 z"
       id="path1184" />
    <path
       fill="#52a302"
       d="m 105.61152,36.98 3.5,6.06 -3.857,2.228 -3.5,-6.06 z"
       id="path1186" />
    <path
       fill="#3c7902"
       d="m 101.48052,39.366 3.5,6.06 -3.857,2.227 -3.5,-6.06 z"
       id="path1188" />
    <path
       fill="#aef766"
       d="m 113.87652,32.209 3.5,6.06 -3.857,2.227 -3.5,-6.06 z"
       id="path1190" />
    <path
       d="m 107.83852,19.781 -14.067,24.366 0.01,0.006 a 3.12,3.12 0 0 0 -0.133,0.206 c -0.912,1.58 -0.295,3.643 1.378,4.61 1.674,0.966 3.77,0.469 4.682,-1.11 0.041,-0.072 0.08,-0.144 0.114,-0.218 l 0.01,0.005 14.065,-24.366 z m -10.743,25.606 a 0.954,0.954 0 0 1 0.349,1.304 0.954,0.954 0 0 1 -1.304,0.35 0.954,0.954 0 0 1 -0.349,-1.304 0.954,0.954 0 0 1 1.304,-0.35 z"
       fill="#f1f3f5"
       id="path1192" />
    <path
       d="m 95.85752,45.643 a 0.954,0.954 0 0 0 -0.063,0.094 0.954,0.954 0 0 0 0.35,1.303 0.954,0.954 0 0 0 1.303,-0.35 0.954,0.954 0 0 0 0.049,-0.1 0.954,0.954 0 0 1 -1.24,0.256 0.954,0.954 0 0 1 -0.4,-1.203 z"
       fill="#bcc5ca"
       id="path1194" />
    <path
       fill="#f9da02"
       d="m 102.17752,29.59 6.06,3.5 -2.227,3.856 -6.06,-3.499 z"
       id="path1196" />
    <path
       fill="#fcf4c0"
       d="m 106.94952,21.326 6.06,3.499 -2.227,3.856 -6.06,-3.498 z"
       id="path1198" />
    <path
       fill="#dcb102"
       d="m 99.79252,33.722 6.06,3.499 -2.227,3.856 -6.06,-3.499 z"
       id="path1200" />
    <path
       fill="#ad7702"
       d="m 97.40752,37.853 6.06,3.499 -2.227,3.856 -6.06,-3.499 z"
       id="path1202" />
    <path
       fill="#fbeb83"
       d="m 104.56352,25.457 6.06,3.499 -2.226,3.856 -6.06,-3.498 z"
       id="path1204" />
    <path
       d="m 93.11752,17.713 v 28.134 h 0.012 a 3.12,3.12 0 0 0 -0.012,0.245 c 0,1.824 1.566,3.302 3.498,3.303 1.932,0 3.5,-1.479 3.5,-3.303 0,-0.082 -0.004,-0.164 -0.01,-0.245 h 0.01 V 17.713 Z m 3.499,27.546 a 0.954,0.954 0 0 1 0.954,0.954 0.954,0.954 0 0 1 -0.954,0.955 0.954,0.954 0 0 1 -0.955,-0.955 0.954,0.954 0 0 1 0.955,-0.954 z"
       fill="#f1f3f5"
       id="path1206" />
    <path
       d="m 95.67152,46.1 a 0.954,0.954 0 0 0 -0.007,0.112 0.954,0.954 0 0 0 0.954,0.954 0.954,0.954 0 0 0 0.954,-0.954 0.954,0.954 0 0 0 -0.007,-0.111 0.954,0.954 0 0 1 -0.947,0.841 0.954,0.954 0 0 1 -0.947,-0.843 z"
       fill="#bcc5ca"
       id="path1208" />
    <path
       fill="#e6461d"
       d="m 93.11852,29.038 h 6.997 v 4.453 h -6.996 z"
       id="path1210" />
    <path
       fill="#f3b6a6"
       d="m 93.11852,19.495 h 6.997 v 4.453 h -6.996 z"
       id="path1212" />
    <path
       fill="#c02700"
       d="m 93.11852,33.808 h 6.997 v 4.453 h -6.996 z"
       id="path1214" />
    <path
       fill="#851b00"
       d="m 93.11852,38.578 h 6.997 v 4.453 h -6.996 z"
       id="path1216" />
    <path
       fill="#ec866a"
       d="m 93.11852,24.265 h 6.997 v 4.453 h -6.996 z"
       id="path1218" />
  </g>
</svg>
