<?xml version="1.0" encoding="UTF-8" standalone="no"?>
<svg
   xmlns:dc="http://purl.org/dc/elements/1.1/"
   xmlns:cc="http://creativecommons.org/ns#"
   xmlns:rdf="http://www.w3.org/1999/02/22-rdf-syntax-ns#"
   xmlns:svg="http://www.w3.org/2000/svg"
   xmlns="http://www.w3.org/2000/svg"
   xmlns:xlink="http://www.w3.org/1999/xlink"
   xmlns:sodipodi="http://sodipodi.sourceforge.net/DTD/sodipodi-0.dtd"
   xmlns:inkscape="http://www.inkscape.org/namespaces/inkscape"
   inkscape:version="1.0 (4035a4fb49, 2020-05-01)"
   sodipodi:docname="zotero.svg"
   id="svg8"
   version="1.1"
   width="64"
   height="64">
  <metadata
     id="metadata14">
    <rdf:RDF>
      <cc:Work
         rdf:about="">
        <dc:format>image/svg+xml</dc:format>
        <dc:type
           rdf:resource="http://purl.org/dc/dcmitype/StillImage" />
        <dc:title></dc:title>
      </cc:Work>
    </rdf:RDF>
  </metadata>
  <defs
     id="defs12">
    <radialGradient
       id="a-3"
       cx="512.01"
       cy="512.01"
       r="470.16"
       gradientTransform="matrix(0.057428,0,0,0.057428,103.83996,56.098396)"
       gradientUnits="userSpaceOnUse">
      <stop
         stop-color="#14c878"
         offset="0"
         id="stop4" />
      <stop
         stop-color="#149632"
         offset="1"
         id="stop6" />
    </radialGradient>
    <linearGradient
       gradientUnits="userSpaceOnUse"
       gradientTransform="matrix(2.0044363,0,0,2.0044363,43.49944,271.60788)"
       y2="-100.78"
       y1="-137.82"
       x2="-6.1472"
       x1="-6.1472"
       id="a">
      <stop
         id="stop864"
         offset="0"
         stop-color="#ff8214" />
      <stop
         id="stop866"
         offset="1"
         stop-color="#ff6464" />
    </linearGradient>
    <clipPath
       id="SVGID_2_">
      <use
         id="use869"
         xlink:href="#SVGID_1_"
         height="100%"
         width="100%" />
    </clipPath>
    <rect
       height="99.8"
       width="99.69"
       y="352.04"
       x="247.79"
       id="SVGID_1_" />
    <linearGradient
       gradientUnits="userSpaceOnUse"
       gradientTransform="matrix(2.0044363,0,0,2.0044363,43.499439,271.60788)"
       y2="-100.78"
       y1="-137.82"
       x2="-6.1472"
       x1="-6.1472"
       id="a-36">
      <stop
         id="stop908"
         offset="0"
         stop-color="#14dc78" />
      <stop
         id="stop910"
         offset="1"
         stop-color="#14a03c" />
    </linearGradient>
    <linearGradient
       gradientUnits="userSpaceOnUse"
       gradientTransform="matrix(0.53033,0,0,0.53033,11.509,71.86151)"
       y2="-98.292"
       y1="-140.25"
       x2="-6.1472"
       x1="-6.1472"
       id="a-367">
      <stop
         id="stop837"
         offset="0"
         stop-color="#ff3c69" />
      <stop
         id="stop839"
         offset="1"
         stop-color="#ff462b" />
    </linearGradient>
    <linearGradient
       id="linearGradient1029"
       x1="8.6487"
       x2="8.6487"
       y1="1.483"
       y2="15.436"
       gradientUnits="userSpaceOnUse">
      <stop
         stop-color="#17b7f1"
         offset="0"
         id="stop2" />
      <stop
         stop-color="#1763e1"
         offset="1"
         id="stop4-53" />
    </linearGradient>
    <filter
       id="filter2761"
       x="-.024"
       y="-.024"
       width="1.048"
       height="1.048"
       color-interpolation-filters="sRGB">
      <feGaussianBlur
         stdDeviation="0.14552168"
         id="feGaussianBlur2" />
    </filter>
    <linearGradient
       id="linearGradient4673"
       x1="1.2573"
       x2="15.644"
       y1="15.429"
       y2="1.1082"
       gradientUnits="userSpaceOnUse">
      <stop
         stop-color="#ff8228"
         offset="0"
         id="stop5" />
      <stop
         stop-color="#ff7346"
         offset=".47728"
         id="stop7" />
      <stop
         stop-color="#ff8c55"
         offset="1"
         id="stop9" />
    </linearGradient>
    <linearGradient
       id="linearGradient865"
       x1="7.9373"
       x2="7.9373"
       y1="6.879"
       y2="1.0583"
       gradientTransform="matrix(1.0000066,0,0,1.0000066,19.187825,0)"
       gradientUnits="userSpaceOnUse">
      <stop
         stop-color="#fff"
         offset="0"
         id="stop2-36" />
      <stop
         stop-color="#fcc"
         offset="1"
         id="stop4-7" />
    </linearGradient>
    <linearGradient
       id="linearGradient855"
       x1="2.6278"
       x2="12.314"
       y1="14.579"
       y2="3.9327"
       gradientUnits="userSpaceOnUse"
       gradientTransform="translate(19.187825)">
      <stop
         stop-color="#d462aa"
         offset="0"
         id="stop7-3" />
      <stop
         stop-color="#56c7d9"
         offset=".15178"
         id="stop9-6" />
      <stop
         stop-color="#2da8b8"
         offset=".33294"
         id="stop11" />
      <stop
         stop-color="#72cb6b"
         offset=".53353"
         id="stop13" />
      <stop
         stop-color="#c4dc2b"
         offset=".71019"
         id="stop15" />
      <stop
         stop-color="#f9da3e"
         offset=".8623"
         id="stop17" />
      <stop
         stop-color="#f69429"
         offset="1"
         id="stop19" />
    </linearGradient>
    <linearGradient
       id="linearGradient910"
       x1="45"
       x2="57.008"
       y1="19"
       y2="6.9915"
       gradientTransform="matrix(0.26458,0,0,0.26458,19.187825,0)"
       gradientUnits="userSpaceOnUse">
      <stop
         stop-color="#fff"
         offset="0"
         id="stop22" />
      <stop
         stop-color="#ffe3cc"
         offset="1"
         id="stop24" />
    </linearGradient>
    <style
       id="style872"
       type="text/css" />
    <filter
       color-interpolation-filters="sRGB"
       height="1.048"
       width="1.048"
       y="-.024"
       x="-.024"
       id="filter2761-7">
      <feGaussianBlur
         id="feGaussianBlur874"
         stdDeviation="0.14552168" />
    </filter>
    <linearGradient
       gradientUnits="userSpaceOnUse"
       gradientTransform="matrix(3.7796,0,0,3.7796,-0.0026448,0.53066)"
       y2="1.1082"
       y1="15.429"
       x2="15.644"
       x1="1.2573"
       id="linearGradient4673-5">
      <stop
         id="stop877"
         offset="0"
         stop-color="#32dcff" />
      <stop
         id="stop879"
         offset="1"
         stop-color="#3296ff" />
    </linearGradient>
    <style
       type="text/css"
       id="style4" />
    <style
       type="text/css"
       id="style6" />
    <style
       type="text/css"
       id="style8" />
    <filter
       id="filter2761-36"
       x="-.024"
       y="-.024"
       width="1.048"
       height="1.048"
       color-interpolation-filters="sRGB">
      <feGaussianBlur
         stdDeviation="0.14552168"
         id="feGaussianBlur10" />
    </filter>
    <linearGradient
       id="linearGradient1024-6"
       x1="1.3315"
       x2="15.65"
       y1="15.576"
       y2="1.17"
       gradientTransform="matrix(3.7796,0,0,3.7796,111.78704,0.53107)"
       gradientUnits="userSpaceOnUse">
      <stop
         stop-color="#00dc96"
         offset="0"
         id="stop13-7" />
      <stop
         stop-color="#14d29b"
         offset="1"
         id="stop15-5" />
    </linearGradient>
    <linearGradient
       id="b"
       x1="45.628"
       x2="45.628"
       y1="57.955"
       y2="12.461"
       gradientTransform="matrix(0.27476,0,0,0.27476,-24.952118,-0.32515)"
       gradientUnits="userSpaceOnUse">
      <stop
         offset="0"
         id="stop2-3" />
      <stop
         stop-opacity="0"
         offset="1"
         id="stop4-5" />
    </linearGradient>
    <style
       id="style872-0"
       type="text/css" />
    <style
       id="style874"
       type="text/css" />
    <style
       id="style876"
       type="text/css" />
    <filter
       color-interpolation-filters="sRGB"
       height="1.048"
       width="1.048"
       y="-.024"
       x="-.024"
       id="filter2761-3">
      <feGaussianBlur
         id="feGaussianBlur878"
         stdDeviation="0.14552168" />
    </filter>
    <linearGradient
       gradientUnits="userSpaceOnUse"
       gradientTransform="matrix(3.7796,0,0,3.7796,-0.0020773,0.53047)"
       y2="1.17"
       y1="15.576"
       x2="15.65"
       x1="1.3315"
       id="linearGradient1024-6-6">
      <stop
         id="stop881"
         offset="0"
         stop-color="#00dc96" />
      <stop
         id="stop883"
         offset="1"
         stop-color="#14d29b" />
    </linearGradient>
    <linearGradient
       id="linearGradient1057">
      <stop
         stop-color="#fff"
         offset="0"
         id="stop4-3" />
      <stop
         stop-color="#fff"
         stop-opacity="0"
         offset="1"
         id="stop6-5" />
    </linearGradient>
    <linearGradient
       id="linearGradient982"
       x1="34.999"
       x2="34.999"
       y1="27.545"
       y2="52.847"
       gradientTransform="matrix(1.5625,0,0,1.5625,0.40633,-5.1891)"
       gradientUnits="userSpaceOnUse">
      <stop
         stop-color="#32b4ff"
         offset="0"
         id="stop9-67" />
      <stop
         stop-color="#3287ff"
         offset="1"
         id="stop11-5" />
    </linearGradient>
    <style
       type="text/css"
       id="style14" />
    <style
       type="text/css"
       id="style16" />
    <linearGradient
       id="linearGradient1047"
       x1="21.314"
       x2="21.314"
       y1="18.052"
       y2="43.681"
       gradientTransform="matrix(1.5625,0,0,1.5625,-9.2253,1.3231)"
       gradientUnits="userSpaceOnUse">
      <stop
         stop-color="#14dc78"
         offset="0"
         id="stop18" />
      <stop
         stop-color="#14a03c"
         offset="1"
         id="stop20" />
    </linearGradient>
    <linearGradient
       id="linearGradient1049"
       x1="41.729"
       x2="41.729"
       y1="12.316"
       y2="37.368"
       gradientTransform="matrix(1.5625,0,0,1.5625,-8.1072,-10.908)"
       gradientUnits="userSpaceOnUse">
      <stop
         stop-color="#ff3c64"
         offset="0"
         id="stop23" />
      <stop
         stop-color="#ff4628"
         offset="1"
         id="stop25" />
    </linearGradient>
    <linearGradient
       id="linearGradient1059"
       x1="34.427"
       x2="34.427"
       y1="32.234"
       y2="39.768"
       gradientTransform="matrix(1,0,0,1.2271,0.20646,-10.975)"
       gradientUnits="userSpaceOnUse"
       xlink:href="#linearGradient1057" />
    <linearGradient
       id="linearGradient1063"
       x1="34.427"
       x2="34.427"
       y1="32.234"
       y2="39.768"
       gradientTransform="matrix(1,0,0,1.2271,-12.55,-19.793)"
       gradientUnits="userSpaceOnUse"
       xlink:href="#linearGradient1057" />
    <linearGradient
       id="linearGradient1067"
       x1="34.427"
       x2="34.427"
       y1="32.234"
       y2="39.768"
       gradientTransform="matrix(1,0,0,1.2271,5.7554,-25.761)"
       gradientUnits="userSpaceOnUse"
       xlink:href="#linearGradient1057" />
    <filter
       id="filter2761-35"
       x="-.024"
       y="-.024"
       width="1.048"
       height="1.048"
       color-interpolation-filters="sRGB">
      <feGaussianBlur
         stdDeviation="0.14552168"
         id="feGaussianBlur31" />
    </filter>
    <linearGradient
       id="linearGradient1024"
       x1="1.3315"
       x2="15.65"
       y1="15.576"
       y2="1.17"
       gradientTransform="matrix(3.7796,0,0,3.7796,72.4059,0.53085)"
       gradientUnits="userSpaceOnUse">
      <stop
         stop-color="#dddfe1"
         offset="0"
         id="stop34" />
      <stop
         stop-color="#f3f4f6"
         stop-opacity=".99608"
         offset="1"
         id="stop36" />
    </linearGradient>
    <filter
       id="filter2761-3-6"
       x="-.024"
       y="-.024"
       width="1.048"
       height="1.048"
       color-interpolation-filters="sRGB">
      <feGaussianBlur
         stdDeviation="0.14552168"
         id="feGaussianBlur2-2" />
    </filter>
    <linearGradient
       id="linearGradient1024-6-9"
       x1="1.3315"
       x2="15.65"
       y1="15.576"
       y2="1.17"
       gradientTransform="translate(0 -.07421)"
       gradientUnits="userSpaceOnUse">
      <stop
         stop-color="#dddfe1"
         offset="0"
         id="stop5-1" />
      <stop
         stop-color="#f3f4f6"
         stop-opacity=".99608"
         offset="1"
         id="stop7-2" />
    </linearGradient>
    <filter
       height="1.054"
       y="-0.027000001"
       width="1.054"
       x="-0.027000001"
       id="filter1057-7"
       style="color-interpolation-filters:sRGB"
       inkscape:collect="always">
      <feGaussianBlur
         id="feGaussianBlur1059-0"
         stdDeviation="0.61875"
         inkscape:collect="always" />
    </filter>
    <linearGradient
       gradientTransform="translate(131.5,-0.50999935)"
       gradientUnits="userSpaceOnUse"
       y2="5"
       x2="-72"
       y1="60"
       x1="-127"
       id="linearGradient1053"
       xlink:href="#linearGradient1051"
       inkscape:collect="always" />
    <linearGradient
       id="linearGradient1051"
       inkscape:collect="always">
      <stop
         id="stop1047"
         offset="0"
         style="stop-color:#dee0e2;stop-opacity:1" />
      <stop
         id="stop1049"
         offset="1"
         style="stop-color:#f1f3f5;stop-opacity:0.99607843" />
    </linearGradient>
  </defs>
  <sodipodi:namedview
     inkscape:current-layer="svg8"
     inkscape:window-maximized="1"
     inkscape:window-y="36"
     inkscape:window-x="0"
     inkscape:cy="-2.8619312"
     inkscape:cx="-16.059596"
     inkscape:zoom="4"
     showgrid="false"
     id="namedview10"
     inkscape:window-height="932"
     inkscape:window-width="1920"
     inkscape:pageshadow="2"
     inkscape:pageopacity="0"
     guidetolerance="10"
     gridtolerance="10"
     objecttolerance="10"
     borderopacity="1"
     bordercolor="#666666"
     pagecolor="#c8c8c8"
     inkscape:document-rotation="0" />
  <g
     transform="translate(91.864184,1.335144e-5)"
     fill="#5e4aa6"
     id="g19"
     style="image-rendering:optimizeSpeed">
    <circle
       cx="-1248.7"
       cy="-1241.6"
       r="0"
       id="circle11" />
    <circle
       cx="-149.14999"
       cy="23.855"
       r="0"
       fill-rule="evenodd"
       id="circle13" />
    <circle
       cx="-1248.7"
       cy="-1241.6"
       r="0"
       id="circle15" />
    <circle
       cx="-149.14999"
       cy="23.855"
       r="0"
       fill-rule="evenodd"
       id="circle17" />
  </g>
  <circle
     id="circle875"
     stroke-width="1.00001"
     fill="#5e4aa6"
     r="0"
     cy="-1241.6389"
     cx="-1248.6936" />
  <circle
     id="ellipse877"
     stroke-width="1.00001"
     fill-rule="evenodd"
     fill="#5e4aa6"
     r="0"
     cy="23.855019"
     cx="-149.14687" />
  <circle
     id="circle915"
     stroke-width="1.00001"
     fill="#5e4aa6"
     r="0"
     cy="-1241.6389"
     cx="-1316.1913" />
  <circle
     id="ellipse927"
     stroke-width="1.00001"
     fill-rule="evenodd"
     fill="#5e4aa6"
     r="0"
     cy="23.855019"
     cx="-216.6445" />
  <path
     style="fill:#000000;stroke-width:1.33333"
     d=""
     id="path849"
     inkscape:connector-curvature="0" />
  <path
     style="fill:#000000;stroke-width:1.33333"
     d=""
     id="path847"
     inkscape:connector-curvature="0" />
  <path
     style="fill:#000000;stroke-width:1.33333"
     d=""
     id="path849-3"
     inkscape:connector-curvature="0" />
  <path
     style="fill:#000000;stroke-width:1.33333"
     d=""
     id="path847-6"
     inkscape:connector-curvature="0" />
  <rect
     ry="15"
     y="4.5"
     x="4.5"
     height="55"
     width="55"
     id="rect1055-9"
     style="opacity:0.3;fill:#141414;fill-opacity:1;stroke-width:2.74436;stroke-linecap:round;filter:url(#filter1057-7)" />
  <rect
     style="fill:url(#linearGradient1053);fill-opacity:1;stroke-width:2.74436;stroke-linecap:round"
     id="rect1045"
     width="54.999996"
     height="54.999996"
     x="4.5000019"
     y="4.5000019"
     ry="14.999999" />
  <circle
     id="circle844"
     stroke-width="1.00001"
     fill="#5e4aa6"
     r="0"
     cy="-1241.6389"
     cx="-1248.6936" />
  <circle
     id="ellipse846"
     stroke-width="1.00001"
     fill-rule="evenodd"
     fill="#5e4aa6"
     r="0"
     cy="23.855032"
     cx="-149.14687" />
  <circle
     style="stroke-width:1"
     cx="-1163.3359"
     cy="-1241.6"
     r="0"
     fill="#5e4aa6"
     id="circle41" />
  <circle
     style="stroke-width:1"
     cx="-63.785969"
     cy="23.855"
     r="0"
     fill="#5e4aa6"
     fill-rule="evenodd"
     id="circle43" />
  <path
     id="rect969"
     style="fill:#ff3232;fill-opacity:1;stroke-width:1.21394;stroke-linecap:round"
     d="m 19.500232,17.000033 v 4.999201 h 2.500192 14.797265 L 20.04793,42.937316 a 2.5002411,2.5002411 0 0 0 -0.01423,0.0166 2.5002411,2.5002411 0 0 0 -0.06164,0.08298 2.5002411,2.5002411 0 0 0 -0.05927,0.08535 2.5002411,2.5002411 0 0 0 -0.05571,0.08773 2.5002411,2.5002411 0 0 0 -0.05098,0.0901 2.5002411,2.5002411 0 0 0 -0.04861,0.09128 2.5002411,2.5002411 0 0 0 -0.04386,0.09365 2.5002411,2.5002411 0 0 0 -0.03913,0.09602 2.5002411,2.5002411 0 0 0 -0.03675,0.09721 2.5002411,2.5002411 0 0 0 -0.03201,0.09839 2.5002411,2.5002411 0 0 0 -0.02727,0.09958 2.5002411,2.5002411 0 0 0 -0.02371,0.100768 2.5002411,2.5002411 0 0 0 -0.02015,0.101957 2.5002411,2.5002411 0 0 0 -0.01541,0.101957 2.5002411,2.5002411 0 0 0 -0.01071,0.103136 2.5002411,2.5002411 0 0 0 -0.0071,0.104325 2.5002411,2.5002411 0 0 0 -0.0024,0.103135 2.5002411,2.5002411 0 0 0 0.0024,0.103136 2.5002411,2.5002411 0 0 0 0.006,0.103135 2.5002411,2.5002411 0 0 0 0.01071,0.103136 2.5002411,2.5002411 0 0 0 0.01423,0.103135 2.5002411,2.5002411 0 0 0 0.01896,0.101947 2.5002411,2.5002411 0 0 0 0.02252,0.100767 2.5002411,2.5002411 0 0 0 0.02727,0.09958 2.5002411,2.5002411 0 0 0 0.032,0.09958 2.5002411,2.5002411 0 0 0 0.03557,0.09721 2.5002411,2.5002411 0 0 0 0.03912,0.09484 2.5002411,2.5002411 0 0 0 0.04386,0.09484 2.5002411,2.5002411 0 0 0 0.04623,0.09247 2.5002411,2.5002411 0 0 0 0.05098,0.0901 2.5002411,2.5002411 0 0 0 0.05572,0.08773 2.5002411,2.5002411 0 0 0 0.05808,0.08535 2.5002411,2.5002411 0 0 0 0.06165,0.08298 2.5002411,2.5002411 0 0 0 0.0652,0.08061 2.5002411,2.5002411 0 0 0 0.06758,0.07825 2.5002411,2.5002411 0 0 0 0.07231,0.07469 2.5002411,2.5002411 0 0 0 0.07468,0.07113 2.5002411,2.5002411 0 0 0 0.07706,0.06875 2.5002411,2.5002411 0 0 0 0.08061,0.06639 2.5002411,2.5002411 0 0 0 0.08298,0.06165 2.5002411,2.5002411 0 0 0 0.08535,0.05809 2.5002411,2.5002411 0 0 0 0.08773,0.05571 2.5002411,2.5002411 0 0 0 0.0901,0.05098 2.5002411,2.5002411 0 0 0 0.09246,0.04742 2.5002411,2.5002411 0 0 0 0.09365,0.04386 2.5002411,2.5002411 0 0 0 0.09602,0.03912 2.5002411,2.5002411 0 0 0 0.09721,0.03556 2.5002411,2.5002411 0 0 0 0.0984,0.03201 2.5002411,2.5002411 0 0 0 0.09958,0.02727 2.5002411,2.5002411 0 0 0 0.100769,0.02371 2.5002411,2.5002411 0 0 0 0.101956,0.01896 2.5002411,2.5002411 0 0 0 0.103135,0.01423 2.5002411,2.5002411 0 0 0 0.103137,0.01071 2.5002411,2.5002411 0 0 0 0.103134,0.0071 2.5002411,2.5002411 0 0 0 0.103137,0.0024 H 42.00082 44.50101 V 41.999635 H 42.00079 27.20116 L 43.950919,21.062754 a 2.5002411,2.5002411 0 0 0 0.013,-0.01541 2.5002411,2.5002411 0 0 0 0.0616,-0.08298 2.5002411,2.5002411 0 0 0 0.0593,-0.08535 2.5002411,2.5002411 0 0 0 0.0557,-0.08773 2.5002411,2.5002411 0 0 0 0.051,-0.0901 2.5002411,2.5002411 0 0 0 0.0474,-0.09128 2.5002411,2.5002411 0 0 0 0.0451,-0.09365 2.5002411,2.5002411 0 0 0 0.0391,-0.09602 2.5002411,2.5002411 0 0 0 0.0368,-0.09721 2.5002411,2.5002411 0 0 0 0.032,-0.0984 2.5002411,2.5002411 0 0 0 0.0284,-0.09958 2.5002411,2.5002411 0 0 0 0.0237,-0.100768 2.5002411,2.5002411 0 0 0 0.019,-0.101957 2.5002411,2.5002411 0 0 0 0.0154,-0.101946 2.5002411,2.5002411 0 0 0 0.0118,-0.103136 2.5002411,2.5002411 0 0 0 0.006,-0.103135 2.5002411,2.5002411 0 0 0 0.004,-0.103136 2.5002411,2.5002411 0 0 0 -0.002,-0.104325 2.5002411,2.5002411 0 0 0 -0.006,-0.103136 2.5002411,2.5002411 0 0 0 -0.0107,-0.103136 2.5002411,2.5002411 0 0 0 -0.0142,-0.101945 2.5002411,2.5002411 0 0 0 -0.019,-0.101957 2.5002411,2.5002411 0 0 0 -0.0225,-0.101946 2.5002411,2.5002411 0 0 0 -0.0273,-0.09958 2.5002411,2.5002411 0 0 0 -0.0308,-0.0984 2.5002411,2.5002411 0 0 0 -0.0356,-0.09721 2.5002411,2.5002411 0 0 0 -0.0391,-0.09602 2.5002411,2.5002411 0 0 0 -0.0439,-0.09484 2.5002411,2.5002411 0 0 0 -0.0474,-0.09129 2.5002411,2.5002411 0 0 0 -0.0498,-0.09129 2.5002411,2.5002411 0 0 0 -0.0557,-0.08773 2.5002411,2.5002411 0 0 0 -0.0581,-0.08535 2.5002411,2.5002411 0 0 0 -0.0617,-0.08298 2.5002411,2.5002411 0 0 0 -0.0652,-0.08061 2.5002411,2.5002411 0 0 0 -0.0676,-0.07825 2.5002411,2.5002411 0 0 0 -0.0723,-0.07469 2.5002411,2.5002411 0 0 0 -0.0735,-0.07231 2.5002411,2.5002411 0 0 0 -0.0782,-0.06875 2.5002411,2.5002411 0 0 0 -0.0806,-0.0652 2.5002411,2.5002411 0 0 0 -0.0818,-0.06165 2.5002411,2.5002411 0 0 0 -0.0865,-0.05927 2.5002411,2.5002411 0 0 0 -0.0877,-0.05452 2.5002411,2.5002411 0 0 0 -0.0889,-0.05098 2.5002411,2.5002411 0 0 0 -0.0925,-0.04861 2.5002411,2.5002411 0 0 0 -0.0936,-0.04268 2.5002411,2.5002411 0 0 0 -0.096,-0.04031 2.5002411,2.5002411 0 0 0 -0.0972,-0.03556 2.5002411,2.5002411 0 0 0 -0.0984,-0.032 2.5002411,2.5002411 0 0 0 -0.0996,-0.02727 2.5002411,2.5002411 0 0 0 -0.10077,-0.02371 2.5002411,2.5002411 0 0 0 -0.10195,-0.01896 2.5002411,2.5002411 0 0 0 -0.10314,-0.01541 2.5002411,2.5002411 0 0 0 -0.10313,-0.01071 2.5002411,2.5002411 0 0 0 -0.10314,-0.006 2.5002411,2.5002411 0 0 0 -0.10314,-0.0024 H 22.000446 Z" />
</svg>
